<?xml version="1.0" standalone="no"?>
<!DOCTYPE svg PUBLIC "-//W3C//DTD SVG 1.1//EN" "http://www.w3.org/Graphics/SVG/1.1/DTD/svg11.dtd" >
<svg xmlns="http://www.w3.org/2000/svg" xmlns:xlink="http://www.w3.org/1999/xlink" version="1.1">
<metadata>
Created by FontForge 20170910 at Fri Oct  2 16:58:29 2015
 By Jimmy Wärting
(URW)++,Copyright 2015 by (URW)++ Design &#38; Development
</metadata>
<defs>
<font id="DaimlerCS-Regular" horiz-adv-x="1024" >
  <font-face 
    font-family="Daimler CS"
    font-weight="400"
    font-stretch="normal"
    units-per-em="2048"
    panose-1="0 0 0 0 0 0 0 0 0 0"
    ascent="1645"
    descent="-403"
    x-height="971"
    cap-height="1365"
    bbox="-368 -513 2331 2166"
    underline-thickness="132"
    underline-position="-400"
    unicode-range="U+0020-FB04"
  />
<missing-glyph horiz-adv-x="512" 
d="M51 0v1365h410v-1365h-410zM410 51v1263h-308v-1263h308z" />
    <glyph glyph-name="ff" unicode="ff" horiz-adv-x="1163" 
d="M753 971v62q0 106 7.5 154.5t30.5 88.5q31 55 89 86t129 31q72 0 157 -30v-132q-78 36 -136 36q-89 0 -117 -79q-14 -42 -14 -151v-66h241v-116h-236v-855h-151v855h-431v-855h-151v855h-137v116h137v62q0 105 7.5 154.5t30.5 88.5q31 55 89 86t129 31q72 0 157 -30v-132
q-77 36 -136 36q-89 0 -117 -79q-15 -42 -15 -151v-66h437z" />
    <glyph glyph-name="fi" unicode="fi" horiz-adv-x="1033" 
d="M316 971h242v-116h-236v-855h-151v855h-137v116h137v62q0 105 7.5 154.5t30.5 88.5q31 55 89 86t129 31t157 -30v-132q-78 36 -136 36q-89 0 -117 -79q-15 -42 -15 -151v-66zM733 971h151v-971h-151v971zM810 1384q45 0 74 -30t29 -76q0 -44 -29.5 -73.5t-74.5 -29.5
q-46 0 -75.5 29t-29.5 73q0 46 30.5 76.5t75.5 30.5z" />
    <glyph glyph-name="fl" unicode="fl" horiz-adv-x="1034" 
d="M316 971h242v-116h-236v-855h-151v855h-137v116h137v62q0 105 7.5 154.5t30.5 88.5q31 55 89 86t129 31t157 -30v-132q-78 36 -136 36q-89 0 -117 -79q-15 -42 -15 -151v-66zM733 1372h151v-1372h-151v1372z" />
    <glyph glyph-name="ffi" unicode="ffi" horiz-adv-x="1615" 
d="M753 971v62q0 106 7.5 154.5t30.5 88.5q31 55 89 86t129 31q72 0 157 -30v-132q-78 36 -136 36q-89 0 -117 -79q-14 -42 -14 -151v-66h241v-116h-236v-855h-151v855h-431v-855h-151v855h-137v116h137v62q0 105 7.5 154.5t30.5 88.5q31 55 89 86t129 31q72 0 157 -30v-132
q-77 36 -136 36q-89 0 -117 -79q-15 -42 -15 -151v-66h437zM1314 971h151v-971h-151v971zM1392 1384q45 0 74 -30t29 -76q0 -44 -29.5 -73.5t-74.5 -29.5q-46 0 -75.5 29t-29.5 73q0 46 30.5 76.5t75.5 30.5z" />
    <glyph glyph-name="ffl" unicode="ffl" horiz-adv-x="1615" 
d="M753 971v62q0 106 7.5 154.5t30.5 88.5q31 55 89 86t129 31q72 0 157 -30v-132q-78 36 -136 36q-89 0 -117 -79q-14 -42 -14 -151v-66h241v-116h-236v-855h-151v855h-431v-855h-151v855h-137v116h137v62q0 105 7.5 154.5t30.5 88.5q31 55 89 86t129 31q72 0 157 -30v-132
q-77 36 -136 36q-89 0 -117 -79q-15 -42 -15 -151v-66h437zM1314 1372h151v-1372h-151v1372z" />
    <glyph glyph-name="fft" unicode="fft" horiz-adv-x="1775" 
d="M753 971v62q0 106 7.5 155t30.5 89q31 54 89 85t129 31q72 0 157 -30v-132q-76 36 -136 36q-90 0 -117 -79q-14 -42 -14 -151v-66h439l6 280h140l-5 -280h232l-2 -116h-232l-8 -493q-3 -150 5 -185q15 -72 102 -72q66 0 141 34l-2 -127q-86 -32 -171 -32q-148 0 -199 89
q-26 44 -26 141q0 30 4 156l12 489h-431v-855h-151v855h-431v-855h-151v855h-137v116h137v62q0 105 7.5 155t30.5 89q31 54 89.5 85t128.5 31q72 0 157 -30v-132q-76 36 -136 36q-89 0 -117 -79q-15 -42 -15 -151v-66h437z" />
    <glyph glyph-name="ft" unicode="ft" horiz-adv-x="1193" 
d="M756 971l6 280h140l-5 -280h232l-2 -116h-232l-8 -493l-1 -74v-25q0 -98 21 -125q27 -33 88 -33q66 0 140 34l-2 -127q-86 -32 -171 -32q-147 0 -199 89q-26 43 -26 141q0 30 4 156l12 489h-431v-855h-151v855h-137v116h137v62q0 105 7.5 155t30.5 89q31 54 89.5 85
t128.5 31q72 0 157 -30v-132q-76 36 -136 36q-89 0 -117 -79q-15 -42 -15 -151v-66h440z" />
    <glyph glyph-name=".notdef" horiz-adv-x="512" 
d="M51 0v1365h410v-1365h-410zM410 51v1263h-308v-1263h308z" />
    <glyph glyph-name=".null" horiz-adv-x="0" 
 />
    <glyph glyph-name="nonmarkingreturn" horiz-adv-x="682" 
 />
    <glyph glyph-name="space" unicode=" " horiz-adv-x="512" 
 />
    <glyph glyph-name="exclam" unicode="!" horiz-adv-x="510" 
d="M177 1340h156l-24 -956h-116zM256 214q48 0 82.5 -34.5t34.5 -83.5q0 -48 -35 -82.5t-84 -34.5t-83.5 34.5t-34.5 82.5q0 49 35 83.5t85 34.5z" />
    <glyph glyph-name="quotedbl" unicode="&#x22;" horiz-adv-x="720" 
d="M272 818h-105l-24 547h153zM554 818h-106l-23 547h152z" />
    <glyph glyph-name="numbersign" unicode="#" horiz-adv-x="1229" 
d="M1114 547l-18 -113h-235l-69 -434h-129l69 434h-305l-69 -434h-128l68 434h-233l18 113h233l47 297h-233l18 113h233l65 408h129l-65 -408h304l65 408h129l-65 -408h235l-17 -113h-235l-47 -297h235zM796 844h-304l-47 -297h304z" />
    <glyph glyph-name="dollar" unicode="$" horiz-adv-x="1092" 
d="M589 1253v-478q162 -56 239 -104q172 -109 172 -307q0 -163 -111.5 -268t-299.5 -118v-149h-83v149q-398 30 -413 413h147q11 -134 84 -205q61 -59 182 -75v531q-170 63 -223 94q-158 95 -158 283q0 155 103.5 255t277.5 113v134h83v-134q163 -14 257.5 -98.5
t106.5 -227.5h-153q-22 169 -211 192zM506 1254q-94 -13 -145 -51q-86 -64 -86 -171q0 -110 99 -170q29 -17 132 -56v448zM589 110q101 10 164 56q92 67 92 181q0 121 -96 191q-37 28 -160 75v-503z" />
    <glyph glyph-name="percent" unicode="%" horiz-adv-x="1173" 
d="M924 1365h127l-802 -1365h-127zM867 645q108 0 182 -93q75 -95 75 -235q0 -155 -89 -251q-72 -77 -170 -77q-110 0 -184 93q-75 95 -75 235q0 156 89 251q72 77 172 77zM866 542q-62 0 -102.5 -63t-40.5 -162q0 -98 40 -161.5t102 -63.5t102 63.5t40 161.5q0 97 -40 161
t-101 64zM310 1376q108 0 182 -94q75 -94 75 -234q0 -155 -89 -251q-72 -77 -170 -77q-110 0 -184 94q-75 95 -75 234q0 155 89 251q72 77 172 77zM309 1273q-62 0 -102.5 -63t-40.5 -162q0 -98 40 -161.5t102 -63.5t102 63.5t40 161.5q0 97 -40 161t-101 64z" />
    <glyph glyph-name="ampersand" unicode="&#x26;" horiz-adv-x="1213" 
d="M894 628h122q1 -31 1 -43q0 -114 -20.5 -194.5t-69.5 -154.5l175 -236h-166l-93 129q-62 -65 -125 -97q-92 -45 -215 -45q-178 0 -289 92q-125 104 -125 274q0 157 122 282q58 59 153 131q-102 135 -129.5 190t-27.5 126q0 119 86 195q82 72 213 72q115 0 188 -59
q86 -70 86 -197q0 -96 -50 -175.5t-172 -177.5l286 -389q48 93 50 277zM477 841q91 72 130.5 131.5t39.5 125.5q0 60 -40.5 97.5t-104.5 37.5q-66 0 -111 -40t-45 -99q0 -52 19 -89.5t112 -163.5zM448 655q-89 -66 -128 -107q-86 -88 -86 -198q0 -100 71 -168
q78 -75 202 -75q154 0 257 125z" />
    <glyph glyph-name="quotesingle" unicode="'" horiz-adv-x="512" 
d="M309 818h-105l-24 547h153z" />
    <glyph glyph-name="parenleft" unicode="(" horiz-adv-x="575" 
d="M396 1377h111q-219 -318 -219 -890q0 -577 219 -897h-111q-94 119 -142 247q-106 281 -106 646q0 291 62 514t186 380z" />
    <glyph glyph-name="parenright" unicode=")" horiz-adv-x="575" 
d="M178 -410h-111q219 322 219 890q0 581 -219 897h111q248 -311 248 -893q0 -362 -104 -642q-48 -130 -144 -252z" />
    <glyph glyph-name="asterisk" unicode="*" 
d="M464 1080v251h97v-251l239 77l30 -92l-239 -77l147 -204l-78 -57l-148 203l-147 -203l-79 57l148 204l-239 77l30 93z" />
    <glyph glyph-name="plus" unicode="+" horiz-adv-x="1092" 
d="M602 740h381v-107h-381v-395h-112v395h-381v107h381v396h112v-396z" />
    <glyph glyph-name="comma" unicode="," horiz-adv-x="489" 
d="M199 -299h-129q142 149 165 298q-11 -1 -16 -1q-45 0 -77 33t-32 79q0 50 36 85t88 35q59 0 95 -44t36 -115q0 -162 -166 -370z" />
    <glyph glyph-name="hyphen" unicode="-" horiz-adv-x="562" 
d="M0 572h562v-112h-562v112z" />
    <glyph glyph-name="period" unicode="." horiz-adv-x="523" 
d="M262 214q49 0 83.5 -34.5t34.5 -83.5q0 -48 -35 -82.5t-84 -34.5t-83.5 34.5t-34.5 82.5q0 49 34.5 83.5t84.5 34.5z" />
    <glyph glyph-name="slash" unicode="/" horiz-adv-x="1168" 
d="M112 -304l803 1669h142l-802 -1669h-143z" />
    <glyph glyph-name="zero" unicode="0" horiz-adv-x="1092" 
d="M552 1351q116 0 210 -67q115 -82 173 -267q48 -152 48 -351q0 -344 -141 -539q-105 -145 -296 -145t-296 145q-141 197 -141 536q0 351 141 543q108 145 302 145zM550 1225q-135 0 -200 -120q-88 -163 -88 -442q0 -272 88 -435q64 -120 196 -120t196 120q88 164 88 438
q0 280 -88 439q-66 120 -192 120z" />
    <glyph glyph-name="one" unicode="1" horiz-adv-x="1092" 
d="M353 1039v97q129 6 193 51q64 46 90 154h103v-1341h-146v1039h-240z" />
    <glyph glyph-name="two" unicode="2" horiz-adv-x="1092" 
d="M298 946h-135q2 173 75 268q106 137 315 137q152 0 250 -77q115 -90 115 -246q0 -118 -92 -259q-29 -44 -307 -407l-133 -172l-43 -56h595v-134h-783v117l37 49l126 163q285 371 341 451q60 84 82.5 136.5t22.5 108.5q0 87 -60.5 140.5t-158.5 53.5q-228 0 -247 -273z
" />
    <glyph glyph-name="three" unicode="3" horiz-adv-x="1092" 
d="M307 991h-133q7 154 86 242q106 119 296 119q185 0 285 -108q83 -90 83 -225q0 -205 -201 -294q243 -84 243 -333q0 -185 -116 -297.5t-308 -112.5q-252 0 -357 167q-58 91 -58 210v21h135q3 -112 55 -177q72 -89 219 -89q132 0 206 73q72 72 72 199q0 130 -79.5 195.5
t-237.5 65.5q-21 0 -49 -2v132q37 -3 54 -3q106 0 173 44q96 63 96 191q0 92 -55 149q-60 63 -170 63q-208 0 -239 -230z" />
    <glyph glyph-name="four" unicode="4" horiz-adv-x="1092" 
d="M777 452h232v-129h-229v-336h-150v336h-547v115l541 903h153v-889zM635 452l4 696l-410 -696h406z" />
    <glyph glyph-name="five" unicode="5" horiz-adv-x="1092" 
d="M266 1331h611l-17 -132h-475l-56 -390q96 94 230 94q178 0 285 -121q106 -120 106 -315q0 -177 -96 -313q-121 -172 -333 -172q-162 0 -264.5 92t-113.5 248h140q17 -102 77.5 -156.5t156.5 -54.5q130 0 201 97q77 104 77 252q0 142 -69 228t-183 86q-153 0 -238 -145
l-133 15z" />
    <glyph glyph-name="six" unicode="6" horiz-adv-x="1092" 
d="M638 1362h165q-223 -246 -378 -503q72 38 151 38q149 0 253 -109q121 -126 121 -341q0 -228 -133 -360q-106 -105 -263 -105q-162 0 -272 105q-140 133 -140 360q0 198 119 417t377 498zM546 775q-103 0 -167 -74q-84 -97 -84 -257q0 -148 76 -247q67 -87 178 -87
q113 0 175 85q73 101 73 249q0 160 -84 257q-64 74 -167 74z" />
    <glyph glyph-name="seven" unicode="7" horiz-adv-x="1092" 
d="M131 1331h830v-124l-652 -1207h-165l645 1191h-658v140z" />
    <glyph glyph-name="eight" unicode="8" horiz-adv-x="1092" 
d="M334 701q-160 84 -160 284q0 169 121 274q105 92 251 92q145 0 251 -92q121 -105 121 -273q0 -200 -160 -285q195 -106 195 -332q0 -178 -125 -288q-114 -99 -282 -99t-282 99q-125 110 -125 288q0 226 195 332zM549 1227q-93 0 -154 -58q-68 -65 -68 -178
q0 -112 68 -177q61 -58 151 -58q91 0 152 58q68 65 68 178t-68 177q-63 58 -149 58zM549 635q-107 0 -179 -66q-78 -73 -78 -199q0 -124 78 -197q72 -66 176 -66t176 66q78 73 78 198q0 126 -78 198q-73 66 -173 66z" />
    <glyph glyph-name="nine" unicode="9" horiz-adv-x="1092" 
d="M453 -31h-165q225 248 379 504q-72 -37 -152 -37q-147 0 -251 110q-122 130 -122 336q0 230 141 365q109 104 268 104q156 0 261 -97q65 -61 99 -151q39 -102 39 -216q0 -200 -118.5 -418.5t-378.5 -499.5zM552 1224q-105 0 -170 -75q-87 -100 -87 -261q0 -157 84 -256
q64 -74 167 -74t167 74q84 99 84 258q0 164 -83 261q-62 73 -162 73z" />
    <glyph glyph-name="colon" unicode=":" horiz-adv-x="523" 
d="M262 214q49 0 83.5 -34.5t34.5 -83.5q0 -48 -35 -82.5t-84 -34.5t-83.5 34.5t-34.5 82.5q0 49 34.5 83.5t84.5 34.5zM262 970q49 0 83.5 -34.5t34.5 -83.5q0 -48 -35 -82.5t-84 -34.5t-83.5 34.5t-34.5 82.5q0 50 34.5 84t84.5 34z" />
    <glyph glyph-name="semicolon" unicode=";" horiz-adv-x="489" 
d="M232 970q48 0 82.5 -34.5t34.5 -83.5q0 -48 -35 -82.5t-84 -34.5t-83.5 34.5t-34.5 82.5q0 49 35 83.5t85 34.5zM199 -299h-129q142 149 165 298q-11 -1 -16 -1q-45 0 -77 33t-32 79q0 50 36 85t88 35q59 0 95 -44t36 -115q0 -162 -166 -370z" />
    <glyph glyph-name="less" unicode="&#x3c;" 
d="M955 1165v-143l-733 -333l733 -333v-143l-887 414v125z" />
    <glyph glyph-name="equal" unicode="=" horiz-adv-x="1092" 
d="M109 879h874v-110h-874v110zM109 606h874v-110h-874v110z" />
    <glyph glyph-name="greater" unicode="&#x3e;" 
d="M69 213v143l733 333l-733 333v143l887 -414v-125z" />
    <glyph glyph-name="question" unicode="?" horiz-adv-x="844" 
d="M387 214q48 0 82.5 -35t34.5 -83t-35 -82.5t-84 -34.5q-48 0 -83 34.5t-35 82.5q0 49 35 83.5t85 34.5zM458 387h-142v23v89q0 114 16 163q12 37 37.5 71.5t87.5 97.5q77 80 104.5 127.5t27.5 101.5q0 72 -45 113t-123 41q-178 0 -198 -195h-126q7 145 71 222
q92 109 266 109q138 0 218 -67q96 -80 96 -222q0 -80 -35 -142t-139 -165q-82 -81 -99.5 -125t-17.5 -169q0 -39 1 -73z" />
    <glyph glyph-name="at" unicode="@" horiz-adv-x="1502" 
d="M1015 1011h108l-84 -433q-13 -66 -13 -95q0 -45 21 -72t56 -27q69 0 128 78q99 130 99 318q0 238 -159 379q-71 63 -173.5 98t-213.5 35q-257 0 -426 -168q-178 -176 -178 -445q0 -259 163 -432q163 -174 463 -174q226 0 428 95l30 -96q-209 -97 -459 -97
q-335 0 -533 196q-95 94 -149 229t-54 281q0 206 104 378q102 170 281 257q151 73 331 73q272 0 449 -155q99 -86 152 -212q47 -113 47 -239q0 -117 -40 -223t-112 -181q-82 -86 -184 -86q-62 0 -102 37.5t-47 103.5q-96 -146 -254 -146q-130 0 -213 97q-77 92 -77 235
q0 174 110 300q101 116 249 116q166 0 227 -156zM773 929q-113 0 -184 -105q-61 -90 -61 -205q0 -94 42 -157q49 -71 145 -71q119 0 185 119q51 90 51 211q0 93 -43 147q-48 61 -135 61z" />
    <glyph glyph-name="A" unicode="A" horiz-adv-x="1158" 
d="M512 1374h134l471 -1374h-159l-122 362h-514l-122 -362h-158zM794 495l-215 679l-215 -679h430z" />
    <glyph glyph-name="B" unicode="B" horiz-adv-x="1125" 
d="M176 1365h248q238 0 335 -33q107 -37 164 -127q47 -76 47 -180q0 -228 -226 -298q297 -74 297 -347q0 -176 -114 -279q-70 -62 -168.5 -81.5t-344.5 -19.5h-238v1365zM327 777h129q179 0 257 43q102 56 102 194q0 70 -32.5 122t-90.5 74q-67 25 -244 25h-121v-458z
M327 130h137q123 0 186 7.5t109 27.5q56 23 88 83.5t32 140.5q0 85 -41.5 147t-114.5 87q-76 25 -259 25h-137v-518z" />
    <glyph glyph-name="C" unicode="C" horiz-adv-x="1232" 
d="M1120 987h-143q-59 267 -312 267q-177 0 -281 -144q-115 -159 -115 -428q0 -284 131 -448q98 -123 268 -123q143 0 228 90.5t103 262.5h144q-14 -175 -86 -290q-126 -198 -383 -198q-248 0 -399 173q-170 195 -170 530q0 374 199 568q147 142 363 142q191 0 309.5 -105
t143.5 -297z" />
    <glyph glyph-name="D" unicode="D" horiz-adv-x="1283" 
d="M176 1365h214q176 0 273 -13q247 -32 385 -229q130 -185 130 -439q0 -280 -146 -465q-144 -182 -382 -208q-94 -11 -276 -11h-198v1365zM329 133h100q162 0 232 13t140 56q103 63 159 188t56 293q0 247 -120 396q-97 120 -257 143q-74 10 -248 10h-62v-1099z" />
    <glyph glyph-name="E" unicode="E" horiz-adv-x="1027" 
d="M329 774h554v-133h-554v-508h610v-133h-763v1365h751v-133h-598v-458z" />
    <glyph glyph-name="F" unicode="F" horiz-adv-x="998" 
d="M329 774h554v-133h-554v-641h-153v1365h751v-133h-598v-458z" />
    <glyph glyph-name="G" unicode="G" horiz-adv-x="1273" 
d="M729 678h416v-561q-195 -141 -451 -141q-259 0 -407 159q-182 196 -182 550q0 349 177 541q70 75 171 119q103 44 222 44q192 0 310 -104t142 -296h-142q-28 120 -86 180q-84 85 -225 85q-176 0 -276 -124q-129 -159 -129 -445q0 -309 147 -465q102 -109 280 -109
q163 0 311 89v346l-278 -1v133z" />
    <glyph glyph-name="H" unicode="H" horiz-adv-x="1299" 
d="M329 778h642v587h153v-1365h-153v651h-642v-651h-153v1365h153v-587z" />
    <glyph glyph-name="I" unicode="I" horiz-adv-x="504" 
d="M331 0h-157v1365h157v-1365z" />
    <glyph glyph-name="J" unicode="J" horiz-adv-x="589" 
d="M260 1365h157v-1089q0 -144 -6 -195.5t-28 -97.5q-46 -98 -172 -140q-71 -23 -166 -23q-13 0 -49 2v131q131 0 193 39q46 30 58.5 79t12.5 205v1089z" />
    <glyph glyph-name="K" unicode="K" horiz-adv-x="1143" 
d="M885 1365h185l-557 -645l611 -720h-210l-582 716zM176 1365h153v-1365h-153v1365z" />
    <glyph glyph-name="L" unicode="L" horiz-adv-x="973" 
d="M176 1365h158v-1232h584v-133h-742v1365z" />
    <glyph glyph-name="M" unicode="M" horiz-adv-x="1583" 
d="M176 1365h232l383 -1196l384 1196h232v-1365h-146v1211l-392 -1211h-155l-392 1211v-1211h-146v1365z" />
    <glyph glyph-name="N" unicode="N" horiz-adv-x="1317" 
d="M176 1365h166l656 -1136v1136h143v-1365h-167l-653 1133v-1133h-145v1365z" />
    <glyph glyph-name="O" unicode="O" horiz-adv-x="1323" 
d="M662 1389q237 0 391 -182q165 -197 165 -524q0 -326 -165 -524q-152 -182 -390 -182q-241 0 -393 182q-165 198 -165 534q0 214 79 380q83 172 233 254q112 62 245 62zM662 1254q-180 0 -283 -152q-110 -162 -110 -412q0 -264 110 -427q103 -152 283 -152q112 0 201 67
q91 68 141 200.5t50 304.5q0 260 -110 419q-106 152 -282 152z" />
    <glyph glyph-name="P" unicode="P" horiz-adv-x="1077" 
d="M176 1365h226q266 0 376 -37q121 -40 188 -154q54 -91 54 -218q0 -166 -93 -269q-69 -77 -171 -103.5t-327 -26.5h-100v-557h-153v1365zM329 690h97q175 0 254 19q178 41 178 248q0 88 -37 152t-103 90q-50 20 -110 26.5t-199 6.5h-80v-542z" />
    <glyph glyph-name="Q" unicode="Q" horiz-adv-x="1344" 
d="M1127 272l267 -289h-184l-164 170q-151 -177 -386 -177q-237 0 -389 183q-166 201 -166 524q0 320 166 523q150 183 391 183q240 0 390 -183q166 -203 166 -521q0 -228 -91 -413zM661 1255q-176 0 -279 -153q-113 -169 -113 -412q0 -257 113 -426q103 -153 280 -153
q176 0 279 153q113 170 113 419q0 254 -113 419q-106 153 -280 153z" />
    <glyph glyph-name="R" unicode="R" horiz-adv-x="1150" 
d="M176 1365h241q157 0 234 -9t146 -34q112 -43 172 -148q48 -86 48 -195q0 -271 -281 -371l360 -608h-185l-345 584h-237v-584h-153v1365zM329 717h95q126 0 178 5t100 22q153 53 153 237q0 165 -129 219q-48 20 -104 26t-200 6h-93v-515z" />
    <glyph glyph-name="S" unicode="S" horiz-adv-x="1121" 
d="M967 1012h-149q-9 102 -62 161q-72 81 -203 81q-101 0 -168 -50q-82 -62 -82 -158q0 -88 82 -144q47 -31 243 -119q131 -59 195.5 -98.5t101.5 -82.5q82 -97 82 -236q0 -193 -149 -303q-118 -86 -297 -86q-247 0 -369 158q-78 101 -88 281h150q9 -133 70 -205
q84 -99 243 -99q122 0 202 66q80 65 80 169q0 100 -82 169q-51 43 -212 115q-210 93 -280 148q-126 99 -126 255q0 168 133 269q113 86 278 86q228 0 339 -155q61 -84 68 -222z" />
    <glyph glyph-name="T" unicode="T" horiz-adv-x="948" 
d="M43 1365h863v-133h-355v-1232h-153v1232h-355v133z" />
    <glyph glyph-name="U" unicode="U" horiz-adv-x="1280" 
d="M157 1365h153v-803q0 -152 8 -211.5t35 -104.5q37 -63 113.5 -98.5t173.5 -35.5q119 0 206 53q103 64 118 217q5 50 5 180v803h153v-806q0 -163 -5.5 -217.5t-27.5 -110.5q-49 -122 -172 -191q-113 -63 -277 -63q-242 0 -375 138q-87 91 -101 225q-7 59 -7 219v806z" />
    <glyph glyph-name="V" unicode="V" horiz-adv-x="1149" 
d="M28 1365h162l389 -1187l384 1187h159l-470 -1373h-155z" />
    <glyph glyph-name="W" unicode="W" horiz-adv-x="1591" 
d="M36 1365h146l264 -1163l284 1163h131l284 -1163l267 1163h144l-327 -1373h-164l-271 1066l-269 -1066h-164z" />
    <glyph glyph-name="X" unicode="X" horiz-adv-x="1112" 
d="M65 1365h177l316 -524l318 524h177l-406 -651l427 -714h-175l-341 572l-343 -572h-174l428 714z" />
    <glyph glyph-name="Y" unicode="Y" horiz-adv-x="1048" 
d="M24 1365h176l327 -638l323 638h175l-426 -792l2 -573h-153l2 573z" />
    <glyph glyph-name="Z" unicode="Z" horiz-adv-x="1009" 
d="M107 1365h839v-106l-703 -1126h689v-133h-869v119l696 1114h-652v132z" />
    <glyph glyph-name="bracketleft" unicode="[" horiz-adv-x="575" 
d="M188 1365h307v-118h-173v-1526h173v-119h-307v1763z" />
    <glyph glyph-name="backslash" unicode="\" horiz-adv-x="1168" 
d="M1057 -304h-143l-802 1669h143z" />
    <glyph glyph-name="bracketright" unicode="]" horiz-adv-x="575" 
d="M387 -398h-307v118h173v1526h-173v119h307v-1763z" />
    <glyph glyph-name="asciicircum" unicode="^" 
d="M210 751h-156l364 618h189l364 -618h-157l-303 504z" />
    <glyph glyph-name="underscore" unicode="_" 
d="M0 -136h1024v-132h-1024v132z" />
    <glyph glyph-name="grave" unicode="`" 
d="M639 1120h-119l-298 280h205z" />
    <glyph glyph-name="a" unicode="a" horiz-adv-x="974" 
d="M272 716h-143q14 124 88 193q96 89 276 89q153 0 243 -70q53 -41 71 -103t18 -206v-364q-1 -178 27 -255h-137q-16 59 -21 131q-85 -156 -285 -156q-130 0 -213 64q-100 78 -100 216q0 207 226 291q125 47 363 86v41q0 101 -33 142q-49 61 -165 61q-185 0 -215 -160z
M685 526q-211 -38 -306 -82q-135 -63 -135 -179q0 -76 52 -123t135 -47q146 0 214 115q40 68 40 219v97z" />
    <glyph glyph-name="b" unicode="b" horiz-adv-x="1040" 
d="M151 1372h142v-542q106 168 277 168q144 0 243 -105q135 -145 135 -404q0 -278 -155 -423q-97 -91 -238 -91q-91 0 -154.5 38.5t-113.5 123.5q1 -16 1 -22q0 -58 -18 -115h-136q17 69 17 274v1098zM557 873q-115 0 -186 -97q-80 -108 -80 -295q0 -181 84 -295
q63 -86 170 -86q99 0 158 71q97 114 97 318q0 193 -81 302q-62 82 -162 82z" />
    <glyph glyph-name="c" unicode="c" horiz-adv-x="953" 
d="M852 655h-142q-16 94 -46 140q-52 80 -164 80q-116 0 -179 -89q-81 -114 -81 -302q0 -225 110 -331q57 -55 154 -55q189 0 213 236h143q-12 -152 -85 -244q-92 -115 -272 -115q-161 0 -269 107q-142 141 -142 401q0 270 149 416q101 99 263 99q153 0 242.5 -88.5
t105.5 -254.5z" />
    <glyph glyph-name="d" unicode="d" horiz-adv-x="1040" 
d="M889 1372v-1085q0 -215 19 -287h-140q-15 53 -15 105q0 13 1 33q-40 -68 -82 -101q-77 -62 -190 -62q-160 0 -260 110q-130 142 -130 392q0 255 130 407q97 114 251 114q94 0 159 -38.5t115 -125.5v538h142zM499 873q-112 0 -172 -80q-87 -115 -87 -311q0 -189 84 -302
q61 -80 170 -80q108 0 169 79q87 113 87 307q0 193 -83 303q-62 84 -168 84z" />
    <glyph glyph-name="e" unicode="e" horiz-adv-x="995" 
d="M902 461h-663q5 -156 59 -244q74 -119 221 -119q81 0 133.5 34t92.5 113l134 -16q-89 -254 -361 -254q-178 0 -293 116q-133 135 -133 384q0 274 148 419q106 104 269 104q202 0 311 -169q82 -128 82 -327v-41zM753 574q-9 107 -46 177q-66 126 -203 126q-107 0 -173 -77
t-88 -226h510z" />
    <glyph glyph-name="f" unicode="f" horiz-adv-x="582" 
d="M316 971h242v-116h-236v-855h-151v855h-137v116h137v62q0 108 8 158t33 91q67 111 217 111q67 0 155 -30v-132q-78 36 -137 36q-88 0 -116 -79q-15 -40 -15 -151v-66z" />
    <glyph glyph-name="g" unicode="g" horiz-adv-x="989" 
d="M945 971v-109l-199 4q84 -78 84 -222q0 -146 -94 -219q-61 -48 -223 -83q-110 -24 -148 -41q-57 -27 -57 -66q0 -30 33.5 -41t160.5 -23q141 -14 200 -26t106 -38q61 -32 95 -91t34 -132q0 -150 -132 -231q-116 -70 -308 -70q-210 0 -333 86q-104 73 -104 195
q0 87 48.5 143.5t156.5 94.5q-104 41 -104 113q0 50 39.5 85.5t133.5 71.5q-193 77 -193 280q0 164 117 257q93 74 239 74q72 0 152 -22zM494 868q-92 0 -151 -55q-64 -60 -64 -158q0 -91 56 -144q59 -56 152 -56t150 54.5t57 144.5q0 87 -50 147q-58 67 -150 67zM487 39
q-128 0 -204 -37q-92 -44 -92 -130q0 -77 84 -123.5t224 -46.5q163 0 243 62q55 43 55 108q0 81 -79.5 124t-230.5 43z" />
    <glyph glyph-name="h" unicode="h" horiz-adv-x="1028" 
d="M150 1372h142v-515q106 141 279 141q87 0 157 -33.5t108 -93.5q29 -46 38 -106t9 -207v-558h-142v549q0 170 -28 224q-49 97 -171 97q-136 0 -205 -116q-45 -75 -45 -220v-534h-142v1372z" />
    <glyph glyph-name="i" unicode="i" horiz-adv-x="452" 
d="M151 971h151v-971h-151v971zM228 1384q45 0 74 -30t29 -76q0 -44 -29.5 -73.5t-74.5 -29.5q-46 0 -75.5 29t-29.5 73q0 46 30.5 76.5t75.5 30.5z" />
    <glyph glyph-name="j" unicode="j" horiz-adv-x="515" 
d="M215 971h151v-886q0 -163 -13 -232.5t-54 -121.5q-89 -114 -306 -114q-23 0 -49 1v126q17 -1 33 -1q159 0 207 84q19 32 25 83t6 174v887zM293 1383q44 0 73 -29.5t29 -75.5q0 -45 -29.5 -74t-74.5 -29t-75 29t-30 73q0 46 30 76t77 30z" />
    <glyph glyph-name="k" unicode="k" horiz-adv-x="986" 
d="M706 971h173l-405 -437l436 -534h-198l-416 529zM150 1372h143v-1372h-143v1372z" />
    <glyph glyph-name="l" unicode="l" horiz-adv-x="452" 
d="M150 1372h151v-1372h-151v1372z" />
    <glyph glyph-name="m" unicode="m" horiz-adv-x="1567" 
d="M127 971h140q19 -54 20 -134q89 161 282 161q195 0 267 -170q97 170 299 170q182 0 250 -125q24 -43 30.5 -91.5t6.5 -186.5v-595h-142v594q0 94 -5 130.5t-22 66.5q-44 79 -162 79q-130 0 -193 -103q-39 -64 -39 -192v-575h-143v572q-1 164 -20 206q-43 92 -166 92
q-63 0 -115 -28t-80 -78q-40 -69 -40 -198v-566h-143v671q-1 155 -4.5 199t-20.5 101z" />
    <glyph glyph-name="n" unicode="n" horiz-adv-x="1031" 
d="M126 971h136q19 -57 19 -141q99 168 297 168q130 0 212 -68q79 -67 92 -188q5 -48 5 -184v-558h-143v549q0 169 -25 225q-45 96 -171 96q-138 0 -211 -115q-47 -75 -47 -213v-542h-142v640q0 179 -3 221.5t-19 109.5z" />
    <glyph glyph-name="o" unicode="o" horiz-adv-x="1032" 
d="M516 998q170 0 287 -121q137 -142 137 -391q0 -247 -137 -390q-116 -121 -286 -121q-174 0 -288 121q-137 145 -137 398q0 112 36 213t101 170q114 121 287 121zM516 875q-119 0 -191 -95q-85 -113 -85 -288q0 -186 85 -299q72 -95 191 -95t191 95q85 113 85 293
q0 183 -85 294q-73 95 -191 95z" />
    <glyph glyph-name="p" unicode="p" horiz-adv-x="1040" 
d="M150 -403v1085q0 210 -19 289h141q15 -49 18 -143q99 170 274 170q139 0 232 -90q152 -149 152 -425q0 -262 -138 -409q-94 -99 -237 -99q-176 0 -280 159v-537h-143zM552 873q-110 0 -174 -85q-88 -115 -88 -303q0 -185 84 -294q70 -91 179 -91q105 0 163 77
q84 111 84 303q0 207 -93 322q-57 71 -155 71z" />
    <glyph glyph-name="q" unicode="q" horiz-adv-x="1040" 
d="M746 -403v537q-44 -67 -88 -101q-77 -58 -181 -58q-147 0 -246 101q-140 140 -140 401q0 281 153 430q95 91 237 91q95 0 158.5 -40t109.5 -128q1 88 18 141h141q-19 -72 -19 -289v-1085h-143zM493 873q-99 0 -158 -72q-96 -116 -96 -323q0 -193 85 -301q60 -77 161 -77
q114 0 183 93q81 109 81 293q0 188 -87 303q-64 84 -169 84z" />
    <glyph glyph-name="r" unicode="r" horiz-adv-x="670" 
d="M136 971h136q18 -76 18 -149q0 -20 -2 -60q99 236 251 236q55 0 118 -31v-143q-82 38 -131 38q-119 0 -187 -150q-42 -94 -42 -277v-434l-145 -1v636q-1 173 -3 219t-13 116z" />
    <glyph glyph-name="s" unicode="s" horiz-adv-x="897" 
d="M793 704h-139q-10 83 -48 122q-51 52 -150 52q-83 0 -134.5 -40.5t-51.5 -105.5q0 -60 43.5 -91.5t181.5 -72.5q116 -34 170.5 -59.5t85.5 -59.5q58 -65 58 -170q0 -133 -86 -215q-94 -89 -265 -89q-177 0 -272 84.5t-95 242.5l138 -1q19 -206 226 -206q94 0 150 46.5
t56 124.5q0 74 -61 113q-36 23 -217 78q-147 45 -200 103q-59 65 -59 163q0 132 102 206q94 69 231 69q155 0 241.5 -76t94.5 -218z" />
    <glyph glyph-name="t" unicode="t" horiz-adv-x="642" 
d="M345 971h231l-2 -116h-231l-9 -493q-1 -91 -1 -99q0 -98 21 -125q27 -33 88 -33q67 0 141 34l-2 -127q-86 -32 -171 -32q-148 0 -200 88q-26 44 -26 142l5 156l12 489h-147l2 116h148l6 280h140z" />
    <glyph glyph-name="u" unicode="u" horiz-adv-x="1019" 
d="M145 971h142v-594q0 -145 34 -196q51 -78 166 -78q129 0 196 109q42 68 42 208v551h143v-676q0 -164 3 -203t20 -92h-141q-19 58 -20 130q-44 -82 -105 -118.5t-154 -36.5q-119 0 -202 58q-72 52 -98 123t-26 221v594z" />
    <glyph glyph-name="v" unicode="v" horiz-adv-x="883" 
d="M21 971h150l271 -815l271 815h148l-343 -983h-153z" />
    <glyph glyph-name="w" unicode="w" horiz-adv-x="1353" 
d="M31 971h148l208 -769l228 769h123l227 -769l209 769h148l-282 -983h-140l-225 763l-223 -763h-140z" />
    <glyph glyph-name="x" unicode="x" horiz-adv-x="904" 
d="M63 971h168l222 -347l226 347h174l-312 -455l351 -516h-173l-266 402l-268 -402h-172l354 516z" />
    <glyph glyph-name="y" unicode="y" horiz-adv-x="896" 
d="M33 971h153l264 -809l272 809h150l-320 -902q-67 -193 -95 -252.5t-75 -110.5q-107 -114 -283 -114q-18 0 -44 1v126q137 -1 197 50q32 27 56.5 73t61.5 149z" />
    <glyph glyph-name="z" unicode="z" horiz-adv-x="814" 
d="M88 971h684v-106l-558 -746h547v-119h-716v113l551 739h-508v119z" />
    <glyph glyph-name="braceleft" unicode="{" horiz-adv-x="575" 
d="M225 484q67 -42 91 -94t24 -153v-325q0 -89 12 -127.5t46 -57.5q44 -24 133 -24v-111q-24 -1 -33 -1q-161 0 -225 71q-36 40 -50 95.5t-14 159.5v322q0 91 -26 135t-89 62v95q63 18 89 62t26 135v322q0 105 14 160t50 95q65 71 226 71h32v-112q-118 0 -154.5 -39.5
t-36.5 -168.5v-325q0 -102 -24 -153.5t-91 -93.5z" />
    <glyph glyph-name="bar" unicode="|" 
d="M440 1365h143v-1706h-143v1706z" />
    <glyph glyph-name="braceright" unicode="}" horiz-adv-x="575" 
d="M350 484q-67 41 -91 93t-24 154v325q0 128 -31 163q-42 46 -160 45v112h32q161 0 226 -71q36 -40 50 -95t14 -160v-322q0 -91 25.5 -135t89.5 -62v-95q-63 -17 -89 -61.5t-26 -135.5v-322q0 -105 -14 -160t-50 -95q-65 -71 -224 -71q-10 0 -34 1v111q117 -1 154 39.5
t37 169.5v325q0 102 24 153.5t91 93.5z" />
    <glyph glyph-name="asciitilde" unicode="~" horiz-adv-x="1365" 
d="M276 444l-85 55q42 84 75 128q81 106 204 106q77 0 230 -72q89 -42 126 -54.5t73 -12.5q59 0 99.5 31t88.5 111l88 -51q-54 -109 -110 -157q-82 -71 -182 -71q-44 0 -96.5 18.5t-190.5 81.5q-84 39 -137 39q-54 0 -96 -35t-87 -117z" />
    <glyph glyph-name="nonbreakingspace" unicode="&#xa0;" horiz-adv-x="512" 
 />
    <glyph glyph-name="exclamdown" unicode="&#xa1;" horiz-adv-x="510" 
d="M333 -392h-156l24 956h116zM255 970q49 0 83.5 -34.5t34.5 -82.5q0 -49 -34.5 -83.5t-85.5 -34.5q-48 0 -82.5 34.5t-34.5 83.5q0 48 35 82.5t84 34.5z" />
    <glyph glyph-name="cent" unicode="&#xa2;" horiz-adv-x="1092" 
d="M592 1077v-773q173 27 194 234h144q-6 -151 -99 -249t-239 -109v-208h-82v211q-106 18 -179 77q-170 138 -170 421q0 299 181 443q67 53 169 74v194h83v-192q146 -8 230 -96t97 -245h-145q-10 129 -73 176q-45 34 -111 42zM511 1071q-69 -25 -108 -74q-96 -119 -96 -313
q0 -216 113 -326q32 -32 91 -49v762z" />
    <glyph glyph-name="sterling" unicode="&#xa3;" horiz-adv-x="1092" 
d="M465 758h307v-120h-327q-55 -349 -144 -518q94 19 197 19q39 0 157 -3h42q99 0 130 35q33 39 38 129h130q-2 -138 -58 -211q-41 -54 -93 -71.5t-171 -17.5h-563q56 93 98.5 241t83.5 396h-196v121h218q46 274 76 379q41 145 116 199q70 51 172 51q162 0 225 -109
q33 -57 39 -171h-136q-6 77 -26 105q-32 46 -101 46q-106 0 -141 -121q-28 -96 -67 -340z" />
    <glyph glyph-name="currency" unicode="&#xa4;" horiz-adv-x="1365" 
d="M114 252l191 194q-104 127 -104 290q0 151 104 290l-196 194l84 84l194 -194q137 101 296 101t292 -100l195 192l83 -83l-194 -192q105 -132 105 -291q0 -161 -103 -291l195 -194l-83 -84l-194 194q-134 -101 -294 -101q-152 0 -295 101l-194 -194zM687 1082
q-147 0 -249 -102q-100 -101 -100 -244t101 -244q102 -102 243 -102q142 0 245 103q100 100 100 243q0 146 -100 244q-104 102 -240 102z" />
    <glyph glyph-name="yen" unicode="&#xa5;" horiz-adv-x="1092" 
d="M789 870h198v-101h-251l-83 -160h334v-101h-358l2 -508h-155l2 508h-373v101h348l-86 160h-262v101h208l-266 495h174l330 -641l327 641h167z" />
    <glyph glyph-name="brokenbar" unicode="&#xa6;" 
d="M440 1365h143v-680h-143v680zM440 314h143v-655h-143v655z" />
    <glyph glyph-name="section" unicode="&#xa7;" 
d="M866 1012h-132q-10 100 -47 147q-55 72 -171 72q-88 0 -143 -44q-63 -49 -63 -131q0 -62 35.5 -99.5t158.5 -105.5q216 -119 277 -165q103 -79 103 -197q0 -161 -179 -260q74 -57 106 -115t32 -136q0 -148 -96.5 -232.5t-264.5 -84.5q-361 0 -368 351h132
q11 -101 43 -147q60 -84 193 -84q95 0 150 41q73 54 73 154q0 55 -26.5 93t-95.5 82q-47 31 -249 146q-107 62 -156.5 126t-49.5 142q0 150 186 251q-75 52 -108.5 107t-33.5 129q0 145 120 233q91 66 224 66q161 0 252 -88.5t98 -250.5zM420 750q-154 -74 -154 -180
q0 -61 67 -116.5t268 -162.5q69 33 107 82t38 105q0 76 -75 125q-99 66 -251 147z" />
    <glyph glyph-name="dieresis" unicode="&#xa8;" 
d="M339 1376q44 0 75 -31.5t31 -75.5q0 -45 -31.5 -76.5t-75.5 -31.5q-45 0 -76.5 31.5t-31.5 75.5q0 46 31.5 77t77.5 31zM688 1376q44 0 75.5 -31.5t31.5 -75.5q0 -45 -31.5 -76.5t-76.5 -31.5t-76.5 31.5t-31.5 75.5q0 46 31.5 77t77.5 31z" />
    <glyph glyph-name="copyright" unicode="&#xa9;" horiz-adv-x="1616" 
d="M1130 866h-104q-36 157 -192 157q-108 0 -172 -82q-71 -92 -71 -248q0 -165 82 -260q60 -69 163 -69q182 0 202 208h105q-8 -110 -57 -182q-81 -120 -247 -120q-156 0 -256 103q-109 113 -109 318q0 225 128 340q95 86 234 86q125 0 202 -65.5t92 -185.5zM817 1391
q190 0 360 -104q171 -105 261 -281q77 -152 77 -321q0 -199 -104 -369q-104 -169 -282 -260q-151 -77 -321 -77q-199 0 -369 104q-169 104 -260 282q-77 150 -77 319q0 200 104 370q101 168 282 260q150 77 329 77zM816 1307q-260 0 -439 -180q-86 -88 -134 -204
q-47 -116 -47 -241q0 -173 91 -324q90 -151 244 -231q130 -67 278 -67q253 0 431 181q87 88 134 204q47 115 47 239q0 175 -91 327q-88 148 -244 229q-129 67 -270 67z" />
    <glyph glyph-name="ordfeminine" unicode="&#xaa;" 
d="M379 1199h-100q8 89 68.5 136t167.5 47q159 0 200 -99q15 -37 15 -135v-221q0 -110 19 -161h-97q-12 39 -14 68q-38 -47 -77.5 -65.5t-99.5 -18.5q-85 0 -137 40q-65 49 -65 135q0 129 145 184q72 28 228 55v28q0 106 -122 106q-114 0 -131 -99zM632 1089
q-154 -32 -212 -65t-58 -91q0 -45 30.5 -72t82.5 -27q80 0 118.5 48.5t38.5 150.5v56zM236 655h536v-80h-536v80z" />
    <glyph glyph-name="guillemotleft" unicode="&#xab;" horiz-adv-x="781" 
d="M642 0h-106l-184 478l184 493h106l-158 -493zM377 0h-106l-184 478l184 493h106l-158 -493z" />
    <glyph glyph-name="logicalnot" unicode="&#xac;" 
d="M812 0v413h-744v134h887v-547h-143z" />
    <glyph glyph-name="uni00AD" unicode="&#xad;" horiz-adv-x="562" 
d="M0 572h562v-112h-562v112z" />
    <glyph glyph-name="registered" unicode="&#xae;" horiz-adv-x="1617" 
d="M564 1090h158q166 0 241 -26q66 -23 104.5 -79.5t38.5 -129.5q0 -163 -173 -223l228 -361h-133l-216 344h-138v-344h-110v819zM674 708h53q124 0 171 15q92 30 92 133q0 92 -77 123q-46 18 -188 18h-51v-289zM817 1391q189 0 360 -104t261 -281q77 -152 77 -321
q0 -199 -104 -369q-104 -169 -282 -260q-151 -77 -321 -77q-198 0 -368 104t-261 282q-77 151 -77 319q0 200 104 370q101 168 282 260q150 77 329 77zM816 1310q-260 0 -441 -181q-87 -88 -134 -204q-48 -116 -48 -242q0 -175 91 -327q91 -151 246 -231q130 -68 279 -68
q254 0 433 182q87 89 135 205q47 116 47 240q0 177 -91 329q-89 148 -246 229q-130 68 -271 68z" />
    <glyph glyph-name="macron" unicode="&#xaf;" 
d="M233 1320h559v-109h-559v109z" />
    <glyph glyph-name="degree" unicode="&#xb0;" 
d="M512 1389q120 0 205 -83q85 -82 85 -199t-84 -200q-86 -84 -205 -84q-121 0 -206 84q-85 83 -85 203q0 115 85 196q87 83 205 83zM512 1296q-80 0 -137 -56q-56 -55 -56 -131q0 -81 56 -136q57 -56 137 -56t137 56q56 55 56 134q0 80 -56 133q-59 56 -137 56z" />
    <glyph glyph-name="plusminus" unicode="&#xb1;" horiz-adv-x="1092" 
d="M602 752h381v-107h-381v-382h-112v382h-381v107h381v395h112v-395zM109 169h874v-110h-874v110z" />
    <glyph glyph-name="twosuperior" unicode="&#xb2;" horiz-adv-x="718" 
d="M221 1431h-99q1 111 49 170q69 83 204 83q96 0 160 -47q76 -54 76 -151q0 -72 -60 -156q-19 -28 -193 -241l-84 -101l-17 -21h366v-93h-506v79l25 30l79 96l91 111q138 169 163.5 209t25.5 85q0 48 -36 77.5t-95 29.5q-139 0 -149 -160z" />
    <glyph glyph-name="threesuperior" unicode="&#xb3;" horiz-adv-x="718" 
d="M212 1461h-98q6 101 57 155q68 72 190 72q120 0 185 -66q54 -55 54 -137q0 -118 -114 -173q140 -54 140 -199q0 -110 -75 -177.5t-197 -67.5q-131 0 -200.5 64.5t-67.5 182.5h98q3 -155 166 -155q78 0 122.5 40t44.5 111q0 147 -189 147q-17 0 -41 -2v94q28 -3 40 -3
q77 0 120 35t43 97q0 54 -36 85.5t-98 31.5q-127 0 -144 -135z" />
    <glyph glyph-name="acute" unicode="&#xb4;" 
d="M431 1120l212 280h205l-297 -280h-120z" />
    <glyph glyph-name="mu" unicode="&#xb5;" 
d="M98 -343v1326h143v-558q0 -111 17 -169t63 -101q75 -71 184 -71q126 0 204 99q41 52 57.5 111t16.5 150v539h143v-983h-143v178q-39 -87 -85 -130q-80 -74 -197 -74q-87 0 -148.5 36t-111.5 116v-469h-143z" />
    <glyph glyph-name="paragraph" unicode="&#xb6;" horiz-adv-x="1187" 
d="M449 -202v846h-30q-115 0 -209 52q-77 44 -122 124q-45 81 -45 180q0 100 45.5 182.5t126.5 126.5q101 56 305 56h523v-116h-123v-1451h-128v1451h-215v-1451h-128z" />
    <glyph glyph-name="periodcentered" unicode="&#xb7;" horiz-adv-x="523" 
d="M262 630q49 0 83.5 -34.5t34.5 -83.5q0 -48 -35 -82.5t-84 -34.5t-83.5 34.5t-34.5 82.5q0 50 34.5 84t84.5 34z" />
    <glyph glyph-name="cedilla" unicode="&#xb8;" 
d="M467 0h98l-54 -114q175 -24 175 -154q0 -75 -54.5 -122.5t-140.5 -47.5q-70 0 -153 35v78q18 -6 28 -9q49 -15 82 -15q50 0 79.5 25.5t29.5 69.5q0 50 -38.5 72.5t-126.5 22.5z" />
    <glyph glyph-name="onesuperior" unicode="&#xb9;" horiz-adv-x="718" 
d="M163 1486v71q85 3 123.5 29t55.5 92h77v-805h-106v613h-150z" />
    <glyph glyph-name="ordmasculine" unicode="&#xba;" 
d="M511 1382q109 0 184 -76q88 -88 88 -239q0 -153 -88 -242q-74 -76 -187 -76q-106 0 -180 76q-88 89 -88 241q0 151 88 240q74 76 183 76zM511 1297q-75 0 -121.5 -64t-46.5 -168q0 -109 53 -175q44 -56 113 -56q78 0 124.5 63t46.5 169q0 103 -46.5 167t-122.5 64z
M243 655h536v-80h-536v80z" />
    <glyph glyph-name="guillemotright" unicode="&#xbb;" horiz-adv-x="780" 
d="M138 971h105l185 -478l-185 -493h-105l157 493zM403 971h105l185 -478l-185 -493h-105l157 493z" />
    <glyph glyph-name="onequarter" unicode="&#xbc;" horiz-adv-x="1690" 
d="M163 1144v71q85 3 124 29.5t54 92.5h78v-805h-106v612h-150zM1171 1331h125l-780 -1331h-123zM1480 280h146v-90h-144v-197h-109v197h-342v77l342 538h107v-525zM1376 280l3 378l-237 -378h234z" />
    <glyph glyph-name="onehalf" unicode="&#xbd;" horiz-adv-x="1690" 
d="M163 1144v71q85 3 123.5 29.5t55.5 92.5h77v-805h-106v612h-150zM1171 1331h125l-780 -1331h-123zM1192 558h-99q2 112 49 170q69 83 203 83q97 0 162 -47q75 -54 75 -151q0 -72 -59 -157q-18 -26 -193 -240l-85 -102l-17 -21h366v-93h-505l-1 79l26 30l78 96l92 112
q136 169 162 209.5t26 85.5q0 48 -36 77.5t-95 29.5q-138 0 -149 -161z" />
    <glyph glyph-name="threequarters" unicode="&#xbe;" horiz-adv-x="1690" 
d="M212 1120h-98q6 101 57 155q69 71 190 71q120 0 185 -66q54 -54 54 -136q0 -118 -114 -173q140 -54 140 -199q0 -111 -75 -178.5t-197 -67.5q-131 0 -200.5 64.5t-67.5 183.5h98q3 -156 166 -156q78 0 122.5 40.5t44.5 111.5q0 148 -189 148q-17 0 -41 -3v94q27 -2 40 -2
q77 0 120 35t43 96q0 54 -36 85t-98 31q-127 0 -144 -134zM1173 1331h125l-779 -1331h-124zM1482 280h146v-90h-144v-197h-108v197h-343v77l343 538h106v-525zM1379 280l2 378l-237 -378h235z" />
    <glyph glyph-name="questiondown" unicode="&#xbf;" horiz-adv-x="844" 
d="M467 970q49 0 83.5 -34.5t34.5 -82.5q0 -49 -34.5 -83.5t-84.5 -34.5q-49 0 -83.5 34.5t-34.5 83.5q0 48 35 82.5t84 34.5zM395 561h142v-23v-85q0 -133 -21.5 -184.5t-119.5 -152.5q-77 -79 -104.5 -126.5t-27.5 -102.5q0 -71 45 -112t123 -41q178 0 198 195h126
q-5 -144 -71 -222q-92 -109 -266 -109q-138 0 -218 67q-96 80 -96 222q0 80 35 141.5t139 165.5q81 80 99 124.5t18 162.5q0 38 -1 80z" />
    <glyph glyph-name="Agrave" unicode="&#xc0;" horiz-adv-x="1158" 
d="M512 1374h134l471 -1374h-159l-122 362h-514l-122 -362h-158zM794 495l-215 679l-215 -679h430zM689 1497h-148l-340 280h205z" />
    <glyph glyph-name="Aacute" unicode="&#xc1;" horiz-adv-x="1158" 
d="M512 1374h134l471 -1374h-159l-122 362h-514l-122 -362h-158zM794 495l-215 679l-215 -679h430zM469 1497l283 280h205l-340 -280h-148z" />
    <glyph glyph-name="Acircumflex" unicode="&#xc2;" horiz-adv-x="1158" 
d="M512 1374h134l471 -1374h-159l-122 362h-514l-122 -362h-158zM794 495l-215 679l-215 -679h430zM231 1503l266 269h165l266 -269h-142l-206 181l-206 -181h-143z" />
    <glyph glyph-name="Atilde" unicode="&#xc3;" horiz-adv-x="1158" 
d="M512 1374h134l471 -1374h-159l-122 362h-514l-122 -362h-158zM794 495l-215 679l-215 -679h430zM341 1519l-88 33q16 67 38 107q50 92 149 92q62 0 155 -53q63 -35 89 -46t51 -11q75 0 100 119l84 -33q-10 -66 -32 -108q-24 -44 -66 -70.5t-87 -26.5q-34 0 -66 12
t-105 52q-81 45 -122 45q-72 0 -100 -112z" />
    <glyph glyph-name="Adieresis" unicode="&#xc4;" horiz-adv-x="1158" 
d="M512 1374h134l471 -1374h-159l-122 362h-514l-122 -362h-158zM794 495l-215 679l-215 -679h430zM399 1753q47 0 80.5 -34t33.5 -82t-34 -82t-82 -34t-82 34t-34 82q0 49 34 82.5t84 33.5zM764 1753q47 0 81 -34t34 -82t-34 -82t-82 -34t-82.5 34t-34.5 82q0 49 34 82.5
t84 33.5z" />
    <glyph glyph-name="Aring" unicode="&#xc5;" horiz-adv-x="1158" 
d="M512 1374h134l471 -1374h-159l-122 362h-514l-122 -362h-158zM794 495l-215 679l-215 -679h430zM582 1843q76 0 131 -55.5t55 -132.5q0 -78 -55 -134q-55 -55 -133 -55q-79 0 -134 55q-55 56 -55 133q0 79 55.5 134t135.5 55zM581 1755q-43 0 -72.5 -29t-29.5 -72
q0 -41 29.5 -70.5t71.5 -29.5q41 0 70.5 29.5t29.5 71.5q0 41 -29.5 70.5t-69.5 29.5z" />
    <glyph glyph-name="AE" unicode="&#xc6;" horiz-adv-x="1745" 
d="M824 1365h828v-133h-590v-459h542v-133h-542v-507h594v-133h-751v363h-488l-204 -363h-171zM905 496v734l-412 -734h412z" />
    <glyph glyph-name="Ccedilla" unicode="&#xc7;" horiz-adv-x="1232" 
d="M686 -23l-45 -111q194 -23 194 -175q0 -83 -59.5 -135t-154.5 -52q-69 0 -164 37v87q76 -27 114 -27q55 0 88 28.5t33 76.5q0 101 -148 101q-9 0 -31 -1l71 177q-143 25 -243 104q-236 186 -236 596q0 387 217 580q140 126 344 126q192 0 310.5 -105t143.5 -297h-142
q-60 267 -312 267q-168 0 -266 -122q-131 -162 -131 -451q0 -282 131 -446q98 -123 266 -123q144 0 230 90.5t103 261.5h144q-17 -224 -133 -351q-61 -67 -135 -98t-189 -38z" />
    <glyph glyph-name="Egrave" unicode="&#xc8;" horiz-adv-x="1028" 
d="M318 774h554v-133h-554v-508h610v-133h-763v1365h751v-133h-598v-458zM682 1497h-148l-340 280h205z" />
    <glyph glyph-name="Eacute" unicode="&#xc9;" horiz-adv-x="1028" 
d="M329 774h554v-133h-554v-508h610v-133h-763v1365h751v-133h-598v-458zM409 1497l283 280h205l-340 -280h-148z" />
    <glyph glyph-name="Ecircumflex" unicode="&#xca;" horiz-adv-x="1027" 
d="M329 774h554v-133h-554v-508h610v-133h-763v1365h751v-133h-598v-458zM210 1503l265 269h165l266 -269h-142l-206 181l-206 -181h-142z" />
    <glyph glyph-name="Edieresis" unicode="&#xcb;" horiz-adv-x="1027" 
d="M329 774h554v-133h-554v-508h610v-133h-763v1365h751v-133h-598v-458zM377 1753q47 0 80.5 -34t33.5 -82t-34 -82t-82 -34t-82 34t-34 82q0 49 34 82.5t84 33.5zM742 1753q47 0 80.5 -34t33.5 -82t-34 -82t-82 -34t-82 34t-34 82q0 49 34 82.5t84 33.5z" />
    <glyph glyph-name="Igrave" unicode="&#xcc;" horiz-adv-x="504" 
d="M330 0h-157v1365h157v-1365zM358 1497h-134l-286 280h192z" />
    <glyph glyph-name="Iacute" unicode="&#xcd;" horiz-adv-x="504" 
d="M331 0h-157v1365h157v-1365zM146 1497l229 280h191l-286 -280h-134z" />
    <glyph glyph-name="Icircumflex" unicode="&#xce;" horiz-adv-x="504" 
d="M331 0h-157v1365h157v-1365zM-48 1503l218 269h165l218 -269h-135l-166 181l-165 -181h-135z" />
    <glyph glyph-name="Idieresis" unicode="&#xcf;" horiz-adv-x="504" 
d="M330 0h-157v1365h157v-1365zM106 1750q46 0 79 -33.5t33 -79.5q0 -47 -33 -80t-80 -33t-80 33t-33 80t33 80t81 33zM401 1750q45 0 78 -33.5t33 -79.5q0 -47 -33 -80t-80 -33t-80 33t-33 80t33 80t82 33z" />
    <glyph glyph-name="Eth" unicode="&#xd0;" horiz-adv-x="1283" 
d="M175 1365h214q176 0 273 -13q247 -32 385 -229q130 -185 130 -439q0 -280 -146 -465q-144 -182 -382 -208q-94 -11 -277 -11h-197v650h-119v128h119v587zM328 133h100q162 0 231.5 13t140.5 56q103 63 159 188t56 294q0 246 -120 395q-97 120 -257 143q-74 10 -248 10
h-62v-454h324v-128h-324v-517z" />
    <glyph glyph-name="Ntilde" unicode="&#xd1;" horiz-adv-x="1317" 
d="M176 1365h166l656 -1136v1136h143v-1365h-167l-653 1133v-1133h-145v1365zM427 1519l-88 33q16 67 38 107q50 92 149 92q62 0 154 -53q64 -35 90 -46t51 -11q75 0 100 119l84 -33q-10 -66 -32 -108q-24 -44 -66 -70.5t-88 -26.5q-33 0 -65 12t-105 52q-81 45 -122 45
q-72 0 -100 -112z" />
    <glyph glyph-name="Ograve" unicode="&#xd2;" horiz-adv-x="1323" 
d="M807 1497h-148l-341 280h206zM662 1389q222 0 373 -165q183 -200 183 -538q0 -343 -183 -544q-150 -165 -381 -165q-216 0 -366 165q-183 201 -183 541q0 344 183 541q154 165 374 165zM662 1254q-120 0 -214 -75q-96 -77 -143 -231q-36 -118 -36 -265q0 -261 111 -423
q47 -70 124 -110q72 -39 152 -39q185 0 287 149q111 162 111 425q0 262 -111 421q-104 148 -281 148z" />
    <glyph glyph-name="Oacute" unicode="&#xd3;" horiz-adv-x="1323" 
d="M506 1497l283 280h205l-340 -280h-148zM662 1389q222 0 373 -165q183 -200 183 -538q0 -343 -183 -544q-150 -165 -381 -165q-216 0 -366 165q-183 201 -183 541q0 344 183 541q154 165 374 165zM662 1254q-120 0 -214 -75q-96 -77 -143 -231q-36 -118 -36 -265
q0 -261 111 -423q47 -70 124 -110q72 -39 152 -39q185 0 287 149q111 162 111 425q0 262 -111 421q-104 148 -281 148z" />
    <glyph glyph-name="Ocircumflex" unicode="&#xd4;" horiz-adv-x="1323" 
d="M313 1503l266 269h165l266 -269h-142l-206 181l-207 -181h-142zM662 1389q222 0 373 -165q183 -200 183 -538q0 -343 -183 -544q-150 -165 -381 -165q-216 0 -366 165q-183 201 -183 541q0 344 183 541q154 165 374 165zM662 1254q-120 0 -214 -75q-96 -77 -143 -231
q-36 -118 -36 -265q0 -261 111 -423q47 -70 124 -110q72 -39 152 -39q185 0 287 149q111 162 111 425q0 262 -111 421q-104 148 -281 148z" />
    <glyph glyph-name="Otilde" unicode="&#xd5;" horiz-adv-x="1323" 
d="M422 1519l-88 33q15 65 38 107q51 92 160 92q64 0 145 -52q56 -36 82 -47t53 -11q81 0 104 119l84 -33q-10 -67 -32 -108q-24 -44 -66.5 -70.5t-90.5 -26.5q-69 0 -148 46q-78 46 -95.5 54t-41.5 8q-86 0 -104 -111zM662 1389q222 0 373 -165q183 -200 183 -538
q0 -343 -183 -544q-150 -165 -381 -165q-216 0 -366 165q-183 201 -183 541q0 344 183 541q154 165 374 165zM662 1254q-120 0 -214 -75q-96 -77 -143 -231q-36 -118 -36 -265q0 -261 111 -423q47 -70 124 -110q72 -39 152 -39q185 0 287 149q111 162 111 425
q0 262 -111 421q-104 148 -281 148z" />
    <glyph glyph-name="Odieresis" unicode="&#xd6;" horiz-adv-x="1323" 
d="M481 1753q48 0 81.5 -34t33.5 -82t-34 -82t-82 -34t-82.5 34t-34.5 82q0 49 34 82.5t84 33.5zM846 1753q47 0 81 -34t34 -82t-34 -82t-82 -34t-82.5 34t-34.5 82q0 49 34 82.5t84 33.5zM662 1389q222 0 373 -165q183 -200 183 -538q0 -343 -183 -544q-150 -165 -381 -165
q-216 0 -366 165q-183 201 -183 541q0 344 183 541q154 165 374 165zM662 1254q-120 0 -214 -75q-96 -77 -143 -231q-36 -118 -36 -265q0 -261 111 -423q47 -70 124 -110q72 -39 152 -39q185 0 287 149q111 162 111 425q0 262 -111 421q-104 148 -281 148z" />
    <glyph glyph-name="multiply" unicode="&#xd7;" horiz-adv-x="1092" 
d="M624 687l293 -293l-77 -78l-293 293l-295 -294l-77 77l295 294l-293 293l77 78l293 -293l293 293l77 -78z" />
    <glyph glyph-name="Oslash" unicode="&#xd8;" horiz-adv-x="1323" 
d="M1003 1259l79 106h127l-133 -186q142 -204 142 -509q0 -238 -97 -414q-88 -162 -245 -232q-104 -47 -218 -47q-99 0 -173 29t-168 104l-79 -110h-125l130 188q-44 77 -70 134q-68 155 -68 361q0 365 200 558q152 148 362 148q93 0 164.5 -27.5t171.5 -102.5zM914 1140
q-100 115 -258 115q-166 0 -263 -136q-124 -173 -124 -433q0 -203 76 -367zM406 227q64 -64 119 -90t130 -26q114 0 204 64q98 70 151 223q44 129 44 280q0 220 -78 368z" />
    <glyph glyph-name="Ugrave" unicode="&#xd9;" horiz-adv-x="1280" 
d="M784 1497h-148l-341 280h206zM157 1365h153v-803q0 -152 8 -211.5t35 -104.5q37 -63 113.5 -98.5t173.5 -35.5q119 0 206 53q103 64 118 217q5 50 5 180v803h153v-806q0 -163 -5.5 -217.5t-27.5 -110.5q-49 -122 -172 -191q-113 -63 -277 -63q-242 0 -375 138
q-87 91 -101 225q-7 59 -7 219v806z" />
    <glyph glyph-name="Uacute" unicode="&#xda;" horiz-adv-x="1280" 
d="M491 1497l283 280h205l-340 -280h-148zM157 1365h153v-803q0 -152 8 -211.5t35 -104.5q37 -63 113.5 -98.5t173.5 -35.5q119 0 206 53q103 64 118 217q5 50 5 180v803h153v-806q0 -163 -5.5 -217.5t-27.5 -110.5q-49 -122 -172 -191q-113 -63 -277 -63q-242 0 -375 138
q-87 91 -101 225q-7 59 -7 219v806z" />
    <glyph glyph-name="Ucircumflex" unicode="&#xdb;" horiz-adv-x="1280" 
d="M292 1503l265 269h165l266 -269h-142l-206 181l-206 -181h-142zM157 1365h153v-803q0 -152 8 -211.5t35 -104.5q37 -63 113.5 -98.5t173.5 -35.5q119 0 206 53q103 64 118 217q5 50 5 180v803h153v-806q0 -163 -5.5 -217.5t-27.5 -110.5q-49 -122 -172 -191
q-113 -63 -277 -63q-242 0 -375 138q-87 91 -101 225q-7 59 -7 219v806z" />
    <glyph glyph-name="Udieresis" unicode="&#xdc;" horiz-adv-x="1280" 
d="M458 1753q48 0 81.5 -34t33.5 -82t-34 -82t-82 -34t-82 34t-34 82q0 49 34 82.5t83 33.5zM824 1753q47 0 80.5 -34t33.5 -82t-34 -82t-82 -34t-82 34t-34 82q0 49 34 82.5t84 33.5zM157 1365h153v-803q0 -152 8 -211.5t35 -104.5q37 -63 113.5 -98.5t173.5 -35.5
q119 0 206 53q103 64 118 217q5 50 5 180v803h153v-806q0 -163 -5.5 -217.5t-27.5 -110.5q-49 -122 -172 -191q-113 -63 -277 -63q-242 0 -375 138q-87 91 -101 225q-7 59 -7 219v806z" />
    <glyph glyph-name="Yacute" unicode="&#xdd;" horiz-adv-x="1048" 
d="M24 1365h176l327 -638l323 638h175l-426 -792l2 -573h-153l2 573zM381 1497l284 280h205l-341 -280h-148z" />
    <glyph glyph-name="Thorn" unicode="&#xde;" horiz-adv-x="1077" 
d="M176 1365h153v-159h73q266 0 376 -37q121 -41 188 -154q54 -91 54 -217q0 -167 -93 -270q-69 -77 -170 -103.5t-328 -26.5h-100v-398h-153v1365zM329 531h97q174 0 254 19q178 41 178 247q0 89 -36.5 153t-103.5 90q-49 20 -110.5 26.5t-198.5 6.5h-80v-542z" />
    <glyph glyph-name="germandbls" unicode="&#xdf;" horiz-adv-x="1036" 
d="M140 0v869q0 167 9 232.5t38 119.5q41 75 123 116.5t188 41.5q149 0 244 -80q109 -93 109 -244q0 -214 -231 -283q324 -62 324 -384q0 -194 -118 -308q-97 -94 -234 -94q-73 0 -151 34v131q69 -37 143 -37q96 0 153 74q59 77 59 199q0 154 -101.5 236.5t-293.5 83.5v123
h40q124 0 194 57t70 159q0 96 -57 153t-153 57q-143 0 -187 -110q-17 -43 -21.5 -89t-4.5 -180v-877h-142z" />
    <glyph glyph-name="agrave" unicode="&#xe0;" horiz-adv-x="974" 
d="M272 716h-143q14 124 88 193q96 89 276 89q153 0 243 -70q53 -41 71 -103t18 -206v-364q-1 -178 27 -255h-137q-16 59 -21 131q-85 -156 -285 -156q-130 0 -213 64q-100 78 -100 216q0 207 226 291q125 47 363 86v41q0 101 -33 142q-49 61 -165 61q-185 0 -215 -160z
M685 526q-211 -38 -306 -82q-135 -63 -135 -179q0 -76 52 -123t135 -47q146 0 214 115q40 68 40 219v97zM617 1120h-120l-298 280h206z" />
    <glyph glyph-name="aacute" unicode="&#xe1;" horiz-adv-x="974" 
d="M272 716h-143q14 124 88 193q96 89 276 89q153 0 243 -70q53 -41 71 -103t18 -206v-364q-1 -178 27 -255h-137q-16 59 -21 131q-85 -156 -285 -156q-130 0 -213 64q-100 78 -100 216q0 207 226 291q125 47 363 86v41q0 101 -33 142q-49 61 -165 61q-185 0 -215 -160z
M685 526q-211 -38 -306 -82q-135 -63 -135 -179q0 -76 52 -123t135 -47q146 0 214 115q40 68 40 219v97zM370 1120l212 280h206l-298 -280h-120z" />
    <glyph glyph-name="acircumflex" unicode="&#xe2;" horiz-adv-x="974" 
d="M272 716h-143q14 124 88 193q96 89 276 89q153 0 243 -70q53 -41 71 -103t18 -206v-364q-1 -178 27 -255h-137q-16 59 -21 131q-85 -156 -285 -156q-130 0 -213 64q-100 78 -100 216q0 207 226 291q125 47 363 86v41q0 101 -33 142q-49 61 -165 61q-185 0 -215 -160z
M685 526q-211 -38 -306 -82q-135 -63 -135 -179q0 -76 52 -123t135 -47q146 0 214 115q40 68 40 219v97zM178 1126l232 286h164l232 -286h-139l-175 193l-175 -193h-139z" />
    <glyph glyph-name="atilde" unicode="&#xe3;" horiz-adv-x="974" 
d="M272 716h-143q14 124 88 193q96 89 276 89q153 0 243 -70q53 -41 71 -103t18 -206v-364q-1 -178 27 -255h-137q-16 59 -21 131q-85 -156 -285 -156q-130 0 -213 64q-100 78 -100 216q0 207 226 291q125 47 363 86v41q0 101 -33 142q-49 61 -165 61q-185 0 -215 -160z
M685 526q-211 -38 -306 -82q-135 -63 -135 -179q0 -76 52 -123t135 -47q146 0 214 115q40 68 40 219v97zM269 1145l-83 19q42 213 173 213q58 0 139 -53q88 -58 125 -58q67 0 90 119l84 -20q-11 -89 -48 -146q-47 -74 -121 -74q-58 0 -149 58q-87 54 -120 54q-65 0 -90 -112
z" />
    <glyph glyph-name="adieresis" unicode="&#xe4;" horiz-adv-x="974" 
d="M272 716h-143q14 124 88 193q96 89 276 89q153 0 243 -70q53 -41 71 -103t18 -206v-364q-1 -178 27 -255h-137q-16 59 -21 131q-85 -156 -285 -156q-130 0 -213 64q-100 78 -100 216q0 207 226 291q125 47 363 86v41q0 101 -33 142q-49 61 -165 61q-185 0 -215 -160z
M685 526q-211 -38 -306 -82q-135 -63 -135 -179q0 -76 52 -123t135 -47q146 0 214 115q40 68 40 219v97zM322 1376q44 0 75 -31.5t31 -75.5q0 -45 -31.5 -76.5t-75.5 -31.5q-45 0 -76.5 31.5t-31.5 75.5q0 46 31.5 77t77.5 31zM670 1376q44 0 75.5 -31.5t31.5 -75.5
q0 -45 -31.5 -76.5t-76.5 -31.5t-76.5 31.5t-31.5 75.5q0 46 31.5 77t77.5 31z" />
    <glyph glyph-name="aring" unicode="&#xe5;" horiz-adv-x="974" 
d="M272 716h-143q14 124 88 193q96 89 276 89q153 0 243 -70q53 -41 71 -103t18 -206v-364q-1 -178 27 -255h-137q-16 59 -21 131q-85 -156 -285 -156q-130 0 -213 64q-100 78 -100 216q0 207 226 291q125 47 363 86v41q0 101 -33 142q-49 61 -165 61q-185 0 -215 -160z
M685 526q-211 -38 -306 -82q-135 -63 -135 -179q0 -76 52 -123t135 -47q146 0 214 115q40 68 40 219v97zM499 1469q76 0 131 -55.5t55 -132.5q0 -79 -55 -134t-133 -55q-79 0 -134 55q-55 56 -55 133q0 79 55.5 134t135.5 55zM498 1381q-43 0 -72.5 -29t-29.5 -72
q0 -41 29.5 -70.5t71.5 -29.5q41 0 70.5 29.5t29.5 71.5q0 41 -29 70.5t-70 29.5z" />
    <glyph glyph-name="ae" unicode="&#xe6;" horiz-adv-x="1579" 
d="M1486 465h-665q1 -157 57 -245q79 -123 232 -123q155 0 227 149l133 -16q-23 -86 -87 -151q-101 -104 -271 -104q-122 0 -215.5 55t-145.5 157q-46 -89 -101 -133q-96 -79 -238 -79q-125 0 -213 62q-103 72 -103 204q0 161 150.5 248.5t426.5 88.5v61q0 128 -31 172
q-44 65 -155 65q-178 0 -224 -171h-137q17 119 92 194q99 99 273 99q237 0 298 -169q48 71 97 106q86 63 207 63q185 0 294 -143q100 -131 100 -359q0 -7 -1 -31zM1328 577q-8 123 -50 192q-67 108 -190 108q-104 0 -173 -79t-88 -221h501zM673 466h-26q-110 0 -202 -22
q-201 -47 -201 -196q0 -69 50 -111t132 -42q142 0 209 114q38 65 38 190v67z" />
    <glyph glyph-name="ccedilla" unicode="&#xe7;" horiz-adv-x="953" 
d="M509 -26l-41 -88q175 -23 175 -154q0 -75 -54.5 -122.5t-140.5 -47.5q-70 0 -153 35v78q18 -6 27 -8q51 -16 83 -16q50 0 79.5 25.5t29.5 69.5q0 94 -165 95l67 143q-114 29 -182 98q-142 142 -142 401q0 270 149 416q101 99 262 99q154 0 243.5 -88.5t105.5 -254.5h-142
q-16 94 -46 140q-52 80 -164 80q-116 0 -179 -89q-81 -114 -81 -302q0 -225 110 -332q57 -55 154 -55q189 0 213 237h143q-28 -347 -351 -360z" />
    <glyph glyph-name="egrave" unicode="&#xe8;" horiz-adv-x="995" 
d="M634 1120h-119l-298 280h205zM902 461h-663q5 -156 59 -244q74 -119 221 -119q81 0 133.5 34t92.5 113l134 -16q-89 -254 -361 -254q-178 0 -293 116q-133 135 -133 384q0 274 148 419q106 104 269 104q202 0 311 -169q82 -128 82 -327v-41zM753 574q-9 107 -46 177
q-66 126 -203 126q-107 0 -173 -77t-88 -226h510z" />
    <glyph glyph-name="eacute" unicode="&#xe9;" horiz-adv-x="995" 
d="M389 1120l212 280h205l-297 -280h-120zM902 461h-663q5 -156 59 -244q74 -119 221 -119q81 0 133.5 34t92.5 113l134 -16q-89 -254 -361 -254q-178 0 -293 116q-133 135 -133 384q0 274 148 419q106 104 269 104q202 0 311 -169q82 -128 82 -327v-41zM753 574
q-9 107 -46 177q-66 126 -203 126q-107 0 -173 -77t-88 -226h510z" />
    <glyph glyph-name="ecircumflex" unicode="&#xea;" horiz-adv-x="995" 
d="M195 1126l232 286h164l232 -286h-139l-175 193l-175 -193h-139zM902 461h-663q5 -156 59 -244q74 -119 221 -119q81 0 133.5 34t92.5 113l134 -16q-89 -254 -361 -254q-178 0 -293 116q-133 135 -133 384q0 274 148 419q106 104 269 104q202 0 311 -169q82 -128 82 -327
v-41zM753 574q-9 107 -46 177q-66 126 -203 126q-107 0 -173 -77t-88 -226h510z" />
    <glyph glyph-name="edieresis" unicode="&#xeb;" horiz-adv-x="995" 
d="M902 461h-663q5 -156 59 -244q74 -119 221 -119q81 0 133.5 34t92.5 113l134 -16q-89 -254 -361 -254q-178 0 -293 116q-133 135 -133 384q0 274 148 419q106 104 269 104q202 0 311 -169q82 -128 82 -327v-41zM753 574q-9 107 -46 177q-66 126 -203 126q-107 0 -173 -77
t-88 -226h510zM338 1376q44 0 75 -31.5t31 -75.5q0 -45 -31.5 -76.5t-75.5 -31.5q-45 0 -76.5 31.5t-31.5 75.5q0 46 31.5 77t77.5 31zM686 1376q44 0 75.5 -31.5t31.5 -75.5q0 -45 -31.5 -76.5t-76.5 -31.5t-76.5 31.5t-31.5 75.5q0 46 31.5 77t77.5 31z" />
    <glyph glyph-name="igrave" unicode="&#xec;" horiz-adv-x="452" 
d="M151 971h151v-971h-151v971zM323 1120h-113l-243 280h192z" />
    <glyph glyph-name="iacute" unicode="&#xed;" horiz-adv-x="452" 
d="M148 971h151v-971h-151v971zM128 1120l164 280h192l-243 -280h-113z" />
    <glyph glyph-name="icircumflex" unicode="&#xee;" horiz-adv-x="452" 
d="M151 971h151v-971h-151v971zM-40 1126l184 286h165l183 -286h-131l-135 193l-133 -193h-133z" />
    <glyph glyph-name="idieresis" unicode="&#xef;" horiz-adv-x="452" 
d="M150 971h151v-971h-151v971zM85 1376q44 0 75 -31.5t31 -75.5q0 -45 -31.5 -76.5t-75.5 -31.5q-45 0 -76.5 31.5t-31.5 75.5q0 46 31.5 77t77.5 31zM369 1376q44 0 75.5 -31.5t31.5 -75.5q0 -45 -31.5 -76.5t-76.5 -31.5t-76.5 31.5t-31.5 75.5q0 46 31.5 77t77.5 31z
" />
    <glyph glyph-name="eth" unicode="&#xf0;" horiz-adv-x="1032" 
d="M531 1273l143 79l61 -76l-144 -81q94 -103 182 -225q93 -128 130 -232.5t37 -237.5q0 -257 -137 -405q-111 -120 -282 -120q-174 0 -291 121q-138 143 -138 390q0 245 134 390q108 118 272 118q39 0 60 -6.5t55 -28.5l-128 175l-139 -80l-62 78l151 86l-89 112l77 62z
M525 876q-114 0 -186 -79q-99 -110 -99 -311q0 -186 90 -299q72 -89 187 -89q114 0 183 88q92 116 92 299q0 175 -73.5 283t-193.5 108z" />
    <glyph glyph-name="ntilde" unicode="&#xf1;" horiz-adv-x="1031" 
d="M276 1145l-84 19q43 213 174 213q57 0 138 -53q89 -58 126 -58q66 0 90 119l83 -20q-11 -89 -47 -146q-48 -74 -122 -74q-57 0 -149 58q-87 54 -120 54q-65 0 -89 -112zM126 971h136q19 -57 19 -141q99 168 297 168q130 0 212 -68q79 -67 92 -188q5 -48 5 -184v-558h-143
v549q0 169 -25 225q-45 96 -171 96q-138 0 -211 -115q-47 -75 -47 -213v-542h-142v640q0 179 -3 221.5t-19 109.5z" />
    <glyph glyph-name="ograve" unicode="&#xf2;" horiz-adv-x="1032" 
d="M638 1120h-119l-298 280h205zM516 998q170 0 287 -121q137 -142 137 -391q0 -247 -137 -390q-116 -121 -286 -121q-174 0 -288 121q-137 145 -137 398q0 112 36 213t101 170q114 121 287 121zM516 875q-119 0 -191 -95q-85 -113 -85 -288q0 -186 85 -299q72 -95 191 -95
t191 95q85 113 85 293q0 183 -85 294q-73 95 -191 95z" />
    <glyph glyph-name="oacute" unicode="&#xf3;" horiz-adv-x="1032" 
d="M398 1120l212 280h205l-297 -280h-120zM516 998q170 0 287 -121q137 -142 137 -391q0 -247 -137 -390q-116 -121 -286 -121q-174 0 -288 121q-137 145 -137 398q0 112 36 213t101 170q114 121 287 121zM516 875q-119 0 -191 -95q-85 -113 -85 -288q0 -186 85 -299
q72 -95 191 -95t191 95q85 113 85 293q0 183 -85 294q-73 95 -191 95z" />
    <glyph glyph-name="ocircumflex" unicode="&#xf4;" horiz-adv-x="1032" 
d="M202 1126l231 286h165l232 -286h-139l-175 193l-175 -193h-139zM516 998q170 0 287 -121q137 -142 137 -391q0 -247 -137 -390q-116 -121 -286 -121q-174 0 -288 121q-137 145 -137 398q0 112 36 213t101 170q114 121 287 121zM516 875q-119 0 -191 -95
q-85 -113 -85 -288q0 -186 85 -299q72 -95 191 -95t191 95q85 113 85 293q0 183 -85 294q-73 95 -191 95z" />
    <glyph glyph-name="otilde" unicode="&#xf5;" horiz-adv-x="1032" 
d="M309 1145l-83 19q41 213 173 213q58 0 138 -53q89 -58 126 -58q66 0 90 119l84 -20q-11 -89 -48 -146q-48 -74 -121 -74q-58 0 -150 58q-86 54 -120 54q-65 0 -89 -112zM516 998q170 0 287 -121q137 -142 137 -391q0 -247 -137 -390q-116 -121 -286 -121q-174 0 -288 121
q-137 145 -137 398q0 112 36 213t101 170q114 121 287 121zM516 875q-119 0 -191 -95q-85 -113 -85 -288q0 -186 85 -299q72 -95 191 -95t191 95q85 113 85 293q0 183 -85 294q-73 95 -191 95z" />
    <glyph glyph-name="odieresis" unicode="&#xf6;" horiz-adv-x="1032" 
d="M516 998q170 0 287 -121q137 -142 137 -391q0 -247 -137 -390q-116 -121 -286 -121q-174 0 -288 121q-137 145 -137 398q0 112 36 213t101 170q114 121 287 121zM516 875q-119 0 -191 -95q-85 -113 -85 -288q0 -186 85 -299q72 -95 191 -95t191 95q85 113 85 293
q0 183 -85 294q-73 95 -191 95zM343 1376q44 0 75 -31.5t31 -75.5q0 -45 -31.5 -76.5t-75.5 -31.5q-45 0 -76.5 31.5t-31.5 75.5q0 46 31.5 77t77.5 31zM691 1376q44 0 75.5 -31.5t31.5 -75.5q0 -45 -31.5 -76.5t-76.5 -31.5t-76.5 31.5t-31.5 75.5q0 46 31.5 77t77.5 31z
" />
    <glyph glyph-name="divide" unicode="&#xf7;" horiz-adv-x="1092" 
d="M547 496q41 0 70 -29t29 -70t-29 -69.5t-71 -28.5q-41 0 -70 28.5t-29 69.5t29 70t71 29zM547 1066q41 0 70 -29t29 -70q0 -40 -29.5 -69t-70.5 -29t-70 29t-29 69q0 42 29 70.5t71 28.5zM109 742h875v-110h-875v110z" />
    <glyph glyph-name="oslash" unicode="&#xf8;" horiz-adv-x="1032" 
d="M179 154q-87 134 -87 321q0 257 148 408q113 115 278 115q81 0 141 -23.5t134 -84.5l69 79h116l-124 -152q6 -11 9 -17q44 -82 60.5 -147.5t16.5 -160.5q0 -257 -148 -403q-115 -114 -279 -114q-78 0 -151.5 28t-118.5 74l-68 -77h-120zM278 268l427 519q-86 88 -185 88
q-113 0 -186 -90q-94 -117 -94 -312q0 -110 38 -205zM755 699l-424 -519q26 -36 77 -59t105 -23q112 0 185 89q94 115 94 309q0 114 -37 203z" />
    <glyph glyph-name="ugrave" unicode="&#xf9;" horiz-adv-x="1019" 
d="M631 1120h-119l-298 280h205zM145 971h142v-594q0 -145 34 -196q51 -78 166 -78q129 0 196 109q42 68 42 208v551h143v-676q0 -164 3 -203t20 -92h-141q-19 58 -20 130q-44 -82 -105 -118.5t-154 -36.5q-119 0 -202 58q-72 52 -98 123t-26 221v594z" />
    <glyph glyph-name="uacute" unicode="&#xfa;" horiz-adv-x="1019" 
d="M376 1120l212 280h205l-297 -280h-120zM145 971h142v-594q0 -145 34 -196q51 -78 166 -78q129 0 196 109q42 68 42 208v551h143v-676q0 -164 3 -203t20 -92h-141q-19 58 -20 130q-44 -82 -105 -118.5t-154 -36.5q-119 0 -202 58q-72 52 -98 123t-26 221v594z" />
    <glyph glyph-name="ucircumflex" unicode="&#xfb;" horiz-adv-x="1019" 
d="M194 1126l231 286h165l232 -286h-139l-175 193l-175 -193h-139zM145 971h142v-594q0 -145 34 -196q51 -78 166 -78q129 0 196 109q42 68 42 208v551h143v-676q0 -164 3 -203t20 -92h-141q-19 58 -20 130q-44 -82 -105 -118.5t-154 -36.5q-119 0 -202 58q-72 52 -98 123
t-26 221v594z" />
    <glyph glyph-name="udieresis" unicode="&#xfc;" horiz-adv-x="1019" 
d="M145 971h142v-594q0 -145 34 -196q51 -78 166 -78q129 0 196 109q42 68 42 208v551h143v-676q0 -164 3 -203t20 -92h-141q-19 58 -20 130q-44 -82 -105 -118.5t-154 -36.5q-119 0 -202 58q-72 52 -98 123t-26 221v594zM335 1376q44 0 75 -31.5t31 -75.5
q0 -45 -31.5 -76.5t-75.5 -31.5q-45 0 -76.5 31.5t-31.5 75.5q0 46 31.5 77t77.5 31zM683 1376q44 0 75.5 -31.5t31.5 -75.5q0 -45 -31.5 -76.5t-76.5 -31.5t-76.5 31.5t-31.5 75.5q0 46 31.5 77t77.5 31z" />
    <glyph glyph-name="yacute" unicode="&#xfd;" horiz-adv-x="896" 
d="M33 971h153l264 -809l272 809h150l-320 -902q-67 -193 -95 -252.5t-75 -110.5q-107 -114 -283 -114q-18 0 -44 1v126q137 -1 197 50q32 27 56.5 73t61.5 149zM328 1120l212 280h205l-297 -280h-120z" />
    <glyph glyph-name="thorn" unicode="&#xfe;" horiz-adv-x="1040" 
d="M151 -403v1775h143v-544q40 70 83 106q77 64 188 64q139 0 232 -90q152 -149 152 -425q0 -264 -138 -409q-95 -99 -237 -99q-177 0 -280 159v-537h-143zM552 873q-111 0 -174 -84q-87 -116 -87 -305q0 -184 84 -293q70 -91 179 -91q105 0 163 77q84 111 84 303
q0 180 -67.5 286.5t-181.5 106.5z" />
    <glyph glyph-name="ydieresis" unicode="&#xff;" horiz-adv-x="896" 
d="M33 971h153l264 -809l272 809h150l-320 -902q-67 -193 -95 -252.5t-75 -110.5q-107 -114 -283 -114q-18 0 -44 1v126q137 -1 197 50q32 27 56.5 73t61.5 149zM279 1376q43 0 74.5 -31.5t31.5 -75.5q0 -45 -31.5 -76.5t-76.5 -31.5q-44 0 -75.5 31.5t-31.5 75.5
q0 46 31.5 77t77.5 31zM628 1376q44 0 75.5 -31.5t31.5 -75.5q0 -45 -32 -76.5t-76 -31.5q-45 0 -76.5 31.5t-31.5 75.5q0 46 31.5 77t77.5 31z" />
    <glyph glyph-name="Amacron" unicode="&#x100;" horiz-adv-x="1158" 
d="M512 1374h134l471 -1374h-159l-122 362h-514l-122 -362h-158zM794 495l-215 679l-215 -679h430zM284 1692h591v-107h-591v107z" />
    <glyph glyph-name="amacron" unicode="&#x101;" horiz-adv-x="974" 
d="M212 1320h559v-109h-559v109zM272 716h-143q14 124 88 193q96 89 276 89q153 0 243 -70q53 -41 71 -103t18 -206v-364q-1 -178 27 -255h-137q-16 59 -21 131q-85 -156 -285 -156q-130 0 -213 64q-100 78 -100 216q0 207 226 291q125 47 363 86v41q0 101 -33 142
q-49 61 -165 61q-185 0 -215 -160zM685 526q-211 -38 -306 -82q-135 -63 -135 -179q0 -76 52 -123t135 -47q146 0 214 115q40 68 40 219v97z" />
    <glyph glyph-name="Abreve" unicode="&#x102;" horiz-adv-x="1158" 
d="M512 1374h134l471 -1374h-159l-122 362h-514l-122 -362h-158zM794 495l-215 679l-215 -679h430zM301 1774h82q18 -59 52 -95q61 -63 146 -63q69 0 120.5 41.5t74.5 116.5h82q-9 -80 -42 -137q-79 -136 -234 -136q-158 0 -239 138q-34 58 -42 135z" />
    <glyph glyph-name="abreve" unicode="&#x103;" horiz-adv-x="974" 
d="M272 716h-143q14 124 88 193q96 89 276 89q153 0 243 -70q53 -41 71 -103t18 -206v-364q-1 -178 27 -255h-137q-16 59 -21 131q-85 -156 -285 -156q-130 0 -213 64q-100 78 -100 216q0 207 226 291q125 47 363 86v41q0 101 -33 142q-49 61 -165 61q-185 0 -215 -160z
M685 526q-211 -38 -306 -82q-135 -63 -135 -179q0 -76 52 -123t135 -47q146 0 214 115q40 68 40 219v97zM238 1396h84q21 -76 65 -118t104 -42q123 0 166 160h85q-8 -80 -38 -140q-68 -137 -210 -137q-143 0 -217 138q-32 60 -39 139z" />
    <glyph glyph-name="Aogonek" unicode="&#x104;" horiz-adv-x="1158" 
d="M1117 0q-75 -44 -118.5 -94.5t-43.5 -94.5q0 -46 33 -73t89 -27q34 0 86 14v-94q-73 -25 -130 -25q-109 0 -169 66q-47 51 -47 118q0 63 37 112t123 98h-17l-124 362h-514l-122 -362h-158l470 1374h134zM793 495l-213 676l-216 -676h429z" />
    <glyph glyph-name="aogonek" unicode="&#x105;" horiz-adv-x="974" 
d="M851 0q-160 -100 -160 -179q0 -42 30.5 -67t80.5 -25q41 0 84 15v-91q-61 -21 -118 -21q-106 0 -162 61q-43 47 -43 110q0 116 164 197h-15q-14 62 -18 131q-85 -156 -284 -156q-133 0 -215 64q-99 78 -99 214q0 206 226 292q124 48 363 87v52q0 89 -33 131
q-48 61 -165 61q-185 0 -215 -160h-143q14 124 88 193q96 89 276 89q153 0 243 -70q53 -41 71 -103t18 -206v-364q0 -113 4 -154.5t22 -100.5zM685 526q-211 -38 -306 -82q-135 -63 -135 -178q0 -77 51 -124t134 -47q148 0 216 116q40 67 40 218v97z" />
    <glyph glyph-name="Cacute" unicode="&#x106;" horiz-adv-x="1232" 
d="M514 1497l283 280h205l-340 -280h-148zM1120 987h-143q-59 267 -312 267q-156 0 -253 -109q-143 -162 -143 -463q0 -283 131 -448q97 -123 265 -123q195 0 279 161q46 90 55 192h144q-9 -165 -87 -290q-123 -198 -386 -198q-230 0 -379 156q-186 195 -186 549
q0 390 216 582q141 126 345 126q192 0 310.5 -105t143.5 -297z" />
    <glyph glyph-name="cacute" unicode="&#x107;" horiz-adv-x="953" 
d="M384 1120l212 280h205l-297 -280h-120zM852 655h-142q-16 94 -46 140q-52 80 -164 80q-116 0 -179 -89q-81 -114 -81 -302q0 -225 110 -331q57 -55 154 -55q189 0 213 236h143q-12 -152 -85 -244q-92 -115 -272 -115q-161 0 -269 107q-142 141 -142 401q0 270 149 416
q101 99 263 99q153 0 242.5 -88.5t105.5 -254.5z" />
    <glyph glyph-name="Ccircumflex" unicode="&#x108;" horiz-adv-x="1232" 
d="M1120 987h-143q-59 267 -312 267q-156 0 -253 -109q-143 -162 -143 -463q0 -283 131 -448q97 -123 265 -123q195 0 279 161q46 90 55 192h144q-9 -165 -87 -290q-123 -198 -386 -198q-230 0 -379 156q-186 195 -186 549q0 390 216 582q141 126 345 126q192 0 310.5 -105
t143.5 -297zM319 1503l265 269h165l266 -269h-142l-206 181l-206 -181h-142z" />
    <glyph glyph-name="ccircumflex" unicode="&#x109;" horiz-adv-x="953" 
d="M852 655h-142q-16 94 -46 140q-52 80 -164 80q-116 0 -179 -89q-81 -114 -81 -302q0 -225 110 -331q57 -55 154 -55q189 0 213 236h143q-12 -152 -85 -244q-92 -115 -272 -115q-161 0 -269 107q-142 141 -142 401q0 270 149 416q101 99 263 99q153 0 242.5 -88.5
t105.5 -254.5zM180 1126l232 287h165l232 -287h-139l-175 193l-175 -193h-140z" />
    <glyph glyph-name="Cdotaccent" unicode="&#x10a;" horiz-adv-x="1232" 
d="M663 1766q52 0 89.5 -38t37.5 -90q0 -54 -37.5 -91.5t-90.5 -37.5q-54 0 -91.5 37.5t-37.5 90.5q0 54 38 91.5t92 37.5zM1120 987h-143q-59 267 -312 267q-156 0 -253 -109q-143 -162 -143 -463q0 -283 131 -448q97 -123 265 -123q195 0 279 161q46 90 55 192h144
q-9 -165 -87 -290q-123 -198 -386 -198q-230 0 -379 156q-186 195 -186 549q0 390 216 582q141 126 345 126q192 0 310.5 -105t143.5 -297z" />
    <glyph glyph-name="cdotaccent" unicode="&#x10b;" horiz-adv-x="953" 
d="M505 1376q44 0 75.5 -31.5t31.5 -75.5q0 -45 -31.5 -76.5t-76.5 -31.5t-76.5 31.5t-31.5 75.5q0 46 31.5 77t77.5 31zM852 655h-142q-16 94 -46 140q-52 80 -164 80q-116 0 -179 -89q-81 -114 -81 -302q0 -225 110 -331q57 -55 154 -55q189 0 213 236h143
q-12 -152 -85 -244q-92 -115 -272 -115q-161 0 -269 107q-142 141 -142 401q0 270 149 416q101 99 263 99q153 0 242.5 -88.5t105.5 -254.5z" />
    <glyph glyph-name="Ccaron" unicode="&#x10c;" horiz-adv-x="1232" 
d="M1013 1772l-265 -269h-165l-266 269h142l206 -181l206 181h142zM1120 987h-143q-59 267 -312 267q-156 0 -253 -109q-143 -162 -143 -463q0 -283 131 -448q97 -123 265 -123q195 0 279 161q46 90 55 192h144q-9 -165 -87 -290q-123 -198 -386 -198q-230 0 -379 156
q-186 195 -186 549q0 390 216 582q141 126 345 126q192 0 310.5 -105t143.5 -297z" />
    <glyph glyph-name="ccaron" unicode="&#x10d;" horiz-adv-x="953" 
d="M818 1412l-232 -286h-164l-232 286h139l175 -192l175 192h139zM852 655h-142q-16 94 -46 140q-52 80 -164 80q-116 0 -179 -89q-81 -114 -81 -302q0 -225 110 -331q57 -55 154 -55q189 0 213 236h143q-12 -152 -85 -244q-92 -115 -272 -115q-161 0 -269 107
q-142 141 -142 401q0 270 149 416q101 99 263 99q153 0 242.5 -88.5t105.5 -254.5z" />
    <glyph glyph-name="Dcaron" unicode="&#x10e;" horiz-adv-x="1283" 
d="M176 1365h214q176 0 273 -13q247 -32 385 -229q130 -185 130 -439q0 -280 -146 -465q-144 -182 -382 -208q-94 -11 -276 -11h-198v1365zM329 133h100q162 0 232 13t140 56q103 63 159 188t56 293q0 247 -120 396q-97 120 -257 143q-74 10 -248 10h-62v-1099zM935 1772
l-266 -269h-165l-266 269h142l207 -181l206 181h142z" />
    <glyph glyph-name="dcaron" unicode="&#x10f;" horiz-adv-x="1165" 
d="M889 1372v-1085q0 -215 19 -287h-140q-15 53 -15 105q0 13 1 33q-40 -68 -82 -101q-77 -62 -190 -62q-160 0 -260 110q-130 142 -130 392q0 255 130 407q97 114 251 114q94 0 159 -38.5t115 -125.5v538h142zM499 873q-112 0 -172 -80q-87 -115 -87 -311q0 -189 84 -302
q61 -80 170 -80q108 0 169 79q87 113 87 307q0 193 -83 303q-62 84 -168 84zM1079 994h-93q104 102 121 199h-13q-40 0 -68 28t-28 68q0 43 31 73t76 30q51 0 82.5 -37t31.5 -97q0 -119 -140 -264z" />
    <glyph glyph-name="Dcroat" unicode="&#x110;" horiz-adv-x="1283" 
d="M175 1365h214q176 0 273 -13q247 -32 385 -229q130 -185 130 -439q0 -280 -146 -465q-144 -182 -382 -208q-94 -11 -277 -11h-197v650h-119v128h119v587zM328 133h100q162 0 231.5 13t140.5 56q103 63 159 188t56 294q0 246 -120 395q-97 120 -257 143q-74 10 -248 10
h-62v-454h324v-128h-324v-517z" />
    <glyph glyph-name="dcroat" unicode="&#x111;" horiz-adv-x="1040" 
d="M889 1372v-132h111v-116h-111v-837q0 -215 19 -287h-140q-15 53 -15 105q0 13 1 33q-40 -68 -82 -101q-77 -62 -190 -62q-161 0 -260 110q-130 142 -130 392q0 255 130 407q97 114 251 114q94 0 159 -38.5t115 -125.5v290h-275v116h275v132h142zM499 873q-112 0 -172 -80
q-87 -115 -87 -311q0 -189 84 -302q60 -80 170 -80q108 0 169 79q87 113 87 307q0 193 -83 303q-62 84 -168 84z" />
    <glyph glyph-name="Emacron" unicode="&#x112;" horiz-adv-x="1027" 
d="M329 774h554v-133h-554v-508h610v-133h-763v1365h751v-133h-598v-458zM262 1692h591v-107h-591v107z" />
    <glyph glyph-name="emacron" unicode="&#x113;" horiz-adv-x="995" 
d="M231 1320h559v-109h-559v109zM902 461h-663q5 -156 59 -244q74 -119 221 -119q81 0 133.5 34t92.5 113l134 -16q-89 -254 -361 -254q-178 0 -293 116q-133 135 -133 384q0 274 148 419q106 104 269 104q202 0 311 -169q82 -128 82 -327v-41zM753 574q-9 107 -46 177
q-66 126 -203 126q-107 0 -173 -77t-88 -226h510z" />
    <glyph glyph-name="Ebreve" unicode="&#x114;" horiz-adv-x="1027" 
d="M329 774h554v-133h-554v-508h610v-133h-763v1365h751v-133h-598v-458zM279 1774h82q18 -59 52 -95q61 -63 146 -63q69 0 120.5 41.5t74.5 116.5h82q-9 -80 -42 -137q-79 -136 -234 -136q-158 0 -239 138q-34 58 -42 135z" />
    <glyph glyph-name="ebreve" unicode="&#x115;" horiz-adv-x="995" 
d="M902 461h-663q5 -156 59 -244q74 -119 221 -119q81 0 133.5 34t92.5 113l134 -16q-89 -254 -361 -254q-178 0 -293 116q-133 135 -133 384q0 274 148 419q106 104 269 104q202 0 311 -169q82 -128 82 -327v-41zM753 574q-9 107 -46 177q-66 126 -203 126q-107 0 -173 -77
t-88 -226h510zM259 1396h84q20 -75 64.5 -117t105.5 -42q123 0 165 159h85q-8 -80 -38 -139q-69 -137 -210 -137q-144 0 -217 138q-31 59 -39 138z" />
    <glyph glyph-name="Edotaccent" unicode="&#x116;" horiz-adv-x="1027" 
d="M329 774h554v-133h-554v-508h610v-133h-763v1365h751v-133h-598v-458zM559 1766q52 0 89.5 -38t37.5 -90q0 -54 -37.5 -91.5t-90.5 -37.5q-54 0 -91.5 37.5t-37.5 90.5q0 54 38 91.5t92 37.5z" />
    <glyph glyph-name="edotaccent" unicode="&#x117;" horiz-adv-x="995" 
d="M512 1376q44 0 75.5 -31.5t31.5 -75.5q0 -45 -31.5 -76.5t-76.5 -31.5t-76.5 31.5t-31.5 75.5q0 46 31.5 77t77.5 31zM902 461h-663q5 -156 59 -244q74 -119 221 -119q81 0 133.5 34t92.5 113l134 -16q-89 -254 -361 -254q-178 0 -293 116q-133 135 -133 384
q0 274 148 419q106 104 269 104q202 0 311 -169q82 -128 82 -327v-41zM753 574q-9 107 -46 177q-66 126 -203 126q-107 0 -173 -77t-88 -226h510z" />
    <glyph glyph-name="Eogonek" unicode="&#x118;" horiz-adv-x="1027" 
d="M939 0q-80 -41 -126.5 -91.5t-46.5 -98.5q0 -45 33 -72t89 -27q34 0 86 14v-94q-72 -25 -130 -25q-109 0 -169 66q-47 51 -47 118q0 65 38 114.5t123 95.5h-613v1365h751v-133h-598v-458h554v-133h-554v-508h610v-133z" />
    <glyph glyph-name="eogonek" unicode="&#x119;" horiz-adv-x="995" 
d="M821 -256v-91q-59 -21 -123 -21q-111 0 -166 61q-44 48 -44 108q0 56 35 98.5t123 91.5q-68 -16 -122 -16q-185 0 -299 116q-134 135 -134 384q0 274 148 419q107 104 269 104q203 0 312 -169q82 -128 82 -327q0 -12 -1 -41h-663q5 -156 59 -244q74 -119 222 -119
q81 0 133 34t93 113l133 -16q-21 -61 -46.5 -98t-117.5 -140q-88 -98 -88 -168q0 -43 30 -68.5t81 -25.5q41 0 84 15zM752 574q-9 107 -45 177q-67 126 -204 126q-106 0 -172.5 -77t-87.5 -226h509z" />
    <glyph glyph-name="Ecaron" unicode="&#x11a;" horiz-adv-x="1027" 
d="M329 774h554v-133h-554v-508h610v-133h-763v1365h751v-133h-598v-458zM906 1772l-266 -269h-165l-265 269h141l207 -181l206 181h142z" />
    <glyph glyph-name="ecaron" unicode="&#x11b;" horiz-adv-x="995" 
d="M823 1412l-232 -286h-164l-232 286h139l175 -192l175 192h139zM902 461h-663q5 -156 59 -244q74 -119 221 -119q81 0 133.5 34t92.5 113l134 -16q-89 -254 -361 -254q-178 0 -293 116q-133 135 -133 384q0 274 148 419q106 104 269 104q202 0 311 -169q82 -128 82 -327
v-41zM753 574q-9 107 -46 177q-66 126 -203 126q-107 0 -173 -77t-88 -226h510z" />
    <glyph glyph-name="Gcircumflex" unicode="&#x11c;" horiz-adv-x="1273" 
d="M327 1503l266 269h165l265 -269h-141l-207 181l-206 -181h-142zM729 678h416v-561q-194 -141 -450 -141q-242 0 -386 141q-204 199 -204 572q0 358 197 555q145 145 367 145q231 0 360 -151q76 -89 98 -249h-142q-28 120 -86 180q-83 85 -232 85q-160 0 -256 -108
q-142 -162 -142 -459q0 -306 148 -466q101 -110 279 -110q163 0 311 89v346l-278 -1v133z" />
    <glyph glyph-name="gcircumflex" unicode="&#x11d;" horiz-adv-x="989" 
d="M198 1126l232 286h164l232 -286h-139l-175 193l-175 -193h-139zM945 971v-109l-199 4q84 -78 84 -222q0 -146 -94 -219q-61 -48 -223 -83q-110 -24 -148 -41q-57 -27 -57 -66q0 -30 33.5 -41t160.5 -23q141 -14 200 -26t106 -38q61 -32 95 -91t34 -132q0 -150 -132 -231
q-116 -70 -308 -70q-210 0 -333 86q-104 73 -104 195q0 87 48.5 143.5t156.5 94.5q-104 41 -104 113q0 50 39.5 85.5t133.5 71.5q-193 77 -193 280q0 164 117 257q93 74 239 74q72 0 152 -22zM494 868q-92 0 -151 -55q-64 -60 -64 -158q0 -91 56 -144q59 -56 152 -56
t150 54.5t57 144.5q0 87 -50 147q-58 67 -150 67zM487 39q-128 0 -204 -37q-92 -44 -92 -130q0 -77 84 -123.5t224 -46.5q163 0 243 62q55 43 55 108q0 81 -79.5 124t-230.5 43z" />
    <glyph glyph-name="Gbreve" unicode="&#x11e;" horiz-adv-x="1273" 
d="M393 1774h81q19 -59 53 -95q60 -63 145 -63q70 0 121 41t75 117h82q-9 -79 -42 -137q-79 -136 -234 -136q-158 0 -239 138q-34 57 -42 135zM729 678h416v-561q-194 -141 -450 -141q-242 0 -386 141q-204 199 -204 572q0 358 197 555q145 145 367 145q231 0 360 -151
q76 -89 98 -249h-142q-28 120 -86 180q-83 85 -232 85q-160 0 -256 -108q-142 -162 -142 -459q0 -306 148 -466q101 -110 279 -110q163 0 311 89v346l-278 -1v133z" />
    <glyph glyph-name="gbreve" unicode="&#x11f;" horiz-adv-x="989" 
d="M256 1396h85q21 -76 65 -118t104 -42q124 0 166 160h85q-8 -80 -38 -140q-69 -137 -210 -137q-144 0 -217 138q-32 60 -40 139zM945 971v-109l-199 4q84 -78 84 -222q0 -146 -94 -219q-61 -48 -223 -83q-110 -24 -148 -41q-57 -27 -57 -66q0 -30 33.5 -41t160.5 -23
q141 -14 200 -26t106 -38q61 -32 95 -91t34 -132q0 -150 -132 -231q-116 -70 -308 -70q-210 0 -333 86q-104 73 -104 195q0 87 48.5 143.5t156.5 94.5q-104 41 -104 113q0 50 39.5 85.5t133.5 71.5q-193 77 -193 280q0 164 117 257q93 74 239 74q72 0 152 -22zM494 868
q-92 0 -151 -55q-64 -60 -64 -158q0 -91 56 -144q59 -56 152 -56t150 54.5t57 144.5q0 87 -50 147q-58 67 -150 67zM487 39q-128 0 -204 -37q-92 -44 -92 -130q0 -77 84 -123.5t224 -46.5q163 0 243 62q55 43 55 108q0 81 -79.5 124t-230.5 43z" />
    <glyph glyph-name="Gdotaccent" unicode="&#x120;" horiz-adv-x="1273" 
d="M679 1766q52 0 89.5 -38t37.5 -90q0 -54 -37.5 -91.5t-90.5 -37.5q-54 0 -91.5 37.5t-37.5 90.5q0 54 38 91.5t92 37.5zM729 678h416v-561q-194 -141 -450 -141q-242 0 -386 141q-204 199 -204 572q0 358 197 555q145 145 367 145q231 0 360 -151q76 -89 98 -249h-142
q-28 120 -86 180q-83 85 -232 85q-160 0 -256 -108q-142 -162 -142 -459q0 -306 148 -466q101 -110 279 -110q163 0 311 89v346l-278 -1v133z" />
    <glyph glyph-name="gdotaccent" unicode="&#x121;" horiz-adv-x="989" 
d="M945 971v-109l-199 4q84 -78 84 -222q0 -146 -94 -219q-61 -48 -223 -83q-110 -24 -148 -41q-57 -27 -57 -66q0 -30 33.5 -41t160.5 -23q141 -14 200 -26t106 -38q61 -32 95 -91t34 -132q0 -150 -132 -231q-116 -70 -308 -70q-210 0 -333 86q-104 73 -104 195
q0 87 48.5 143.5t156.5 94.5q-104 41 -104 113q0 50 39.5 85.5t133.5 71.5q-193 77 -193 280q0 164 117 257q93 74 239 74q72 0 152 -22zM494 868q-92 0 -151 -55q-64 -60 -64 -158q0 -91 56 -144q59 -56 152 -56t150 54.5t57 144.5q0 87 -50 147q-58 67 -150 67zM487 39
q-128 0 -204 -37q-92 -44 -92 -130q0 -77 84 -123.5t224 -46.5q163 0 243 62q55 43 55 108q0 81 -79.5 124t-230.5 43zM514 1376q44 0 75.5 -31.5t31.5 -75.5q0 -45 -31.5 -76.5t-76.5 -31.5t-76.5 31.5t-31.5 75.5q0 46 31.5 77t77.5 31z" />
    <glyph glyph-name="Gcommaaccent" unicode="&#x122;" horiz-adv-x="1273" 
d="M659 -513h-93q106 105 123 203q-9 -1 -14 -1q-40 0 -68 28.5t-28 68.5q0 44 31.5 74.5t76.5 30.5q51 0 83 -37.5t32 -97.5q0 -121 -143 -269zM729 678h416v-561q-194 -141 -450 -141q-242 0 -386 141q-204 199 -204 572q0 358 197 555q145 145 367 145q231 0 360 -151
q76 -89 98 -249h-142q-28 120 -86 180q-83 85 -232 85q-160 0 -256 -108q-142 -162 -142 -459q0 -306 148 -466q101 -110 279 -110q163 0 311 89v346l-278 -1v133z" />
    <glyph glyph-name="gcommaaccent" unicode="&#x123;" horiz-adv-x="989" 
d="M945 971v-109l-199 4q84 -78 84 -222q0 -146 -94 -219q-61 -48 -223 -83q-110 -24 -148 -41q-57 -27 -57 -66q0 -30 33.5 -41t160.5 -23q141 -14 200 -26t106 -38q61 -32 95 -91t34 -132q0 -150 -132 -231q-116 -70 -308 -70q-210 0 -333 86q-104 73 -104 195
q0 87 48.5 143.5t156.5 94.5q-104 41 -104 113q0 50 39.5 85.5t133.5 71.5q-193 77 -193 280q0 164 117 257q93 74 239 74q72 0 152 -22zM494 868q-92 0 -151 -55q-64 -60 -64 -158q0 -91 56 -144q59 -56 152 -56t150 54.5t57 144.5q0 87 -50 147q-58 67 -150 67zM487 39
q-128 0 -204 -37q-92 -44 -92 -130q0 -77 84 -123.5t224 -46.5q163 0 243 62q55 43 55 108q0 81 -79.5 124t-230.5 43zM540 1522h93q-104 -102 -121 -200q9 1 12 1q40 0 68 -28t28 -69q0 -43 -31 -73t-76 -30q-51 0 -82.5 37t-31.5 97q0 119 141 265z" />
    <glyph glyph-name="Hcircumflex" unicode="&#x124;" horiz-adv-x="1299" 
d="M329 778h642v587h153v-1365h-153v651h-642v-651h-153v1365h153v-587zM302 1503l265 269h165l266 -269h-142l-206 181l-206 -181h-142z" />
    <glyph glyph-name="hcircumflex" unicode="&#x125;" horiz-adv-x="1028" 
d="M150 1372h142v-515q106 141 280 141q87 0 157 -33.5t108 -93.5q29 -45 38 -105.5t9 -207.5v-558h-142v549q0 170 -28 224q-49 97 -172 97q-136 0 -205 -116q-45 -74 -45 -220v-534h-142v1372zM62 1503l266 269h164l266 -269h-141l-207 181l-206 -181h-142z" />
    <glyph glyph-name="Hbar" unicode="&#x126;" horiz-adv-x="1299" 
d="M970 1134v231h153v-231h119v-127h-119v-1007h-153v651h-642v-651h-153v1007h-119v127h119v231h153v-231h642zM970 1007h-642v-229h642v229z" />
    <glyph glyph-name="hbar" unicode="&#x127;" horiz-adv-x="1029" 
d="M150 1372h142v-132h285v-116h-285v-267q106 141 280 141q86 0 155.5 -33.5t108.5 -93.5q29 -45 38 -105.5t9 -207.5v-558h-143v549q0 171 -27 224q-49 97 -171 97q-137 0 -205 -116q-45 -75 -45 -220v-534h-142v1124h-111v116h111v132z" />
    <glyph glyph-name="Itilde" unicode="&#x128;" horiz-adv-x="504" 
d="M331 0h-157v1365h157v-1365zM7 1519l-88 33q17 67 38 107q50 92 149 92q62 0 155 -53q63 -35 89 -46t51 -11q75 0 100 119l85 -33q-10 -66 -33 -108q-24 -44 -66 -70.5t-87 -26.5q-34 0 -66 12t-105 52q-81 45 -122 45q-72 0 -100 -112z" />
    <glyph glyph-name="itilde" unicode="&#x129;" horiz-adv-x="452" 
d="M150 971h151v-971h-151v971zM3 1145l-83 19q41 213 174 213q58 0 138 -53q89 -58 125 -58q67 0 91 119l83 -20q-11 -89 -48 -146q-47 -74 -121 -74q-58 0 -149 58q-87 54 -120 54q-65 0 -90 -112z" />
    <glyph glyph-name="Imacron" unicode="&#x12a;" horiz-adv-x="504" 
d="M331 0h-157v1365h157v-1365zM12 1692h481v-107h-481v107z" />
    <glyph glyph-name="imacron" unicode="&#x12b;" horiz-adv-x="452" 
d="M151 971h151v-971h-151v971zM15 1320h422v-109h-422v109z" />
    <glyph glyph-name="Ibreve" unicode="&#x12c;" horiz-adv-x="504" 
d="M331 0h-157v1365h157v-1365zM-26 1774h82q18 -59 52 -95q61 -63 146 -63q69 0 120.5 41.5t74.5 116.5h82q-9 -80 -42 -137q-79 -136 -234 -136q-158 0 -239 138q-33 58 -42 135z" />
    <glyph glyph-name="ibreve" unicode="&#x12d;" horiz-adv-x="452" 
d="M150 971h151v-971h-151v971zM-11 1389h85q25 -153 152 -153q118 0 151 153h85q-4 -76 -30 -133q-63 -137 -205 -137q-147 0 -210 138q-25 56 -28 132z" />
    <glyph glyph-name="Iogonek" unicode="&#x12e;" horiz-adv-x="504" 
d="M240 0h-66v1365h157v-1365q-88 -105 -88 -184q0 -47 28 -76.5t73 -29.5q16 0 53 15v-94q-34 -26 -95 -26q-55 0 -100 26q-44 25 -70 68t-26 91q0 103 134 210z" />
    <glyph glyph-name="iogonek" unicode="&#x12f;" horiz-adv-x="452" 
d="M301 0q-90 -117 -90 -193q0 -80 82 -80q28 0 59 15v-89q-44 -22 -96 -22q-62 0 -103 28q-69 48 -69 141q0 58 29 101.5t106 98.5h-69v971h151v-971zM227 1384q45 0 74 -30t29 -76q0 -44 -29.5 -73.5t-74.5 -29.5q-46 0 -75.5 29t-29.5 73q0 46 30.5 76.5t75.5 30.5z" />
    <glyph glyph-name="Idotaccent" unicode="&#x130;" horiz-adv-x="504" 
d="M331 0h-157v1365h157v-1365zM254 1766q52 0 89.5 -38t37.5 -90q0 -54 -37.5 -91.5t-90.5 -37.5q-54 0 -91.5 37.5t-37.5 90.5q0 54 38 91.5t92 37.5z" />
    <glyph glyph-name="dotlessi" unicode="&#x131;" horiz-adv-x="452" 
d="M150 971h151v-971h-151v971z" />
    <glyph glyph-name="IJ" unicode="&#x132;" horiz-adv-x="1084" 
d="M331 0h-157v1365h157v-1365zM755 1365h157v-1089q0 -145 -6 -196t-27 -97q-48 -98 -173 -140q-71 -23 -166 -23q-13 0 -49 2v131q132 0 193 39q46 31 58.5 80t12.5 204v1089z" />
    <glyph glyph-name="ij" unicode="&#x133;" horiz-adv-x="961" 
d="M151 971h151v-971h-151v971zM228 1384q45 0 74 -30t29 -76q0 -44 -29.5 -73.5t-74.5 -29.5q-46 0 -75.5 29t-29.5 73q0 46 30.5 76.5t75.5 30.5zM662 971h151v-886q0 -163 -13 -232.5t-54 -121.5q-89 -114 -306 -114q-23 0 -49 1v126q17 -1 33 -1q159 0 207 84
q19 32 25 83t6 174v887zM739 1383q44 0 73 -29.5t29 -75.5q0 -45 -29.5 -74t-74.5 -29q-46 0 -75.5 29t-29.5 73q0 46 30 76t77 30z" />
    <glyph glyph-name="Jcircumflex" unicode="&#x134;" horiz-adv-x="589" 
d="M261 1365h157v-1089q0 -144 -6 -195.5t-27 -97.5q-47 -98 -173 -140q-71 -23 -166 -23q-13 0 -49 2v131q131 0 193 39q46 30 58.5 79.5t12.5 204.5v1089zM-11 1503l266 269h164l266 -269h-141l-207 181l-206 -181h-142z" />
    <glyph glyph-name="jcircumflex" unicode="&#x135;" horiz-adv-x="515" 
d="M215 971h151v-886q0 -163 -13 -232.5t-54 -121.5q-88 -114 -306 -114q-15 0 -49 1v126q21 -1 35 -1q157 0 205 84q19 32 25 83.5t6 173.5v887zM-29 1126l232 287h164l232 -287h-139l-175 193l-175 -193h-139z" />
    <glyph glyph-name="Kcommaaccent" unicode="&#x136;" horiz-adv-x="1143" 
d="M885 1365h186l-558 -645l611 -720h-210l-582 716zM176 1365h153v-1365h-153v1365zM589 -513h-94q107 104 123 203q-9 -1 -14 -1q-40 0 -68 28.5t-28 69.5q0 43 31.5 73.5t76.5 30.5q52 0 84 -37.5t32 -96.5q0 -122 -143 -270z" />
    <glyph glyph-name="kcommaaccent" unicode="&#x137;" horiz-adv-x="986" 
d="M706 971h173l-405 -437l436 -534h-198l-416 529zM150 1372h143v-1372h-143v1372zM461 -508h-92q104 103 121 200q-10 -1 -13 -1q-40 0 -68 28t-28 69q0 43 31.5 73t75.5 30q51 0 82.5 -37t31.5 -97q0 -119 -141 -265z" />
    <glyph glyph-name="kgreenlandic" unicode="&#x138;" horiz-adv-x="986" 
d="M706 971h173l-405 -437l436 -534h-198l-416 529zM150 971h143v-971h-143v971z" />
    <glyph glyph-name="Lacute" unicode="&#x139;" horiz-adv-x="973" 
d="M175 1365h158v-1232h585v-133h-743v1365zM148 1497l283 280h206l-341 -280h-148z" />
    <glyph glyph-name="lacute" unicode="&#x13a;" horiz-adv-x="452" 
d="M150 1372h151v-1372h-151v1372zM130 1497l229 280h191l-286 -280h-134z" />
    <glyph glyph-name="Lcommaaccent" unicode="&#x13b;" horiz-adv-x="973" 
d="M176 1365h158v-1232h584v-133h-742v1365zM523 -513h-94q106 104 123 203q-9 -1 -14 -1q-40 0 -68 28.5t-28 68.5q0 44 31.5 74.5t77.5 30.5q51 0 83 -37.5t32 -96.5q0 -119 -143 -270z" />
    <glyph glyph-name="lcommaaccent" unicode="&#x13c;" horiz-adv-x="452" 
d="M141 1372h151v-1372h-151v1372zM183 -508h-93q103 103 121 200q-9 -1 -13 -1q-40 0 -68 28t-28 68q0 44 31 74t76 30q51 0 82.5 -37t31.5 -97q0 -119 -140 -265z" />
    <glyph glyph-name="Lcaron" unicode="&#x13d;" horiz-adv-x="973" 
d="M176 1365h158v-1232h584v-133h-742v1365zM620 989h-94q106 104 123 202h-14q-40 0 -68 28.5t-28 68.5q0 43 31.5 73.5t77.5 30.5q51 0 83 -37.5t32 -96.5q0 -120 -143 -269z" />
    <glyph glyph-name="lcaron" unicode="&#x13e;" horiz-adv-x="577" 
d="M150 1372h151v-1372h-151v1372zM491 994h-93q104 102 121 199h-13q-40 0 -68 28t-28 68q0 43 31 73t76 30q51 0 82.5 -37t31.5 -97q0 -119 -140 -264z" />
    <glyph glyph-name="Ldot" unicode="&#x13f;" horiz-adv-x="973" 
d="M176 1365h158v-1232h584v-133h-742v1365zM735 815q55 0 94 -39t39 -94t-39.5 -93.5t-95.5 -38.5q-55 0 -94 38.5t-39 93.5q0 56 39 94.5t96 38.5z" />
    <glyph glyph-name="ldot" unicode="&#x140;" horiz-adv-x="683" 
d="M150 1372h151v-1372h-151v1372zM565 833q49 0 83.5 -34.5t34.5 -83.5q0 -48 -35 -82.5t-84 -34.5t-83.5 34.5t-34.5 82.5q0 50 34.5 84t84.5 34z" />
    <glyph glyph-name="Lslash" unicode="&#x141;" horiz-adv-x="973" 
d="M176 694v671h158v-585l339 252v-140l-339 -252v-507h584v-133h-742v553l-142 -109v141z" />
    <glyph glyph-name="lslash" unicode="&#x142;" horiz-adv-x="452" 
d="M150 762v610h151v-535l148 110v-129l-148 -110v-708h-151v633l-147 -107v129z" />
    <glyph glyph-name="Nacute" unicode="&#x143;" horiz-adv-x="1317" 
d="M176 1365h166l656 -1136v1136h143v-1365h-167l-653 1133v-1133h-145v1365zM513 1497l283 280h205l-340 -280h-148z" />
    <glyph glyph-name="nacute" unicode="&#x144;" horiz-adv-x="1031" 
d="M380 1120l212 280h206l-298 -280h-120zM126 971h136q19 -57 19 -141q99 168 297 168q130 0 212 -68q79 -67 92 -188q5 -48 5 -184v-558h-143v549q0 169 -25 225q-45 96 -171 96q-138 0 -211 -115q-47 -75 -47 -213v-542h-142v640q0 179 -3 221.5t-19 109.5z" />
    <glyph glyph-name="Ncommaaccent" unicode="&#x145;" horiz-adv-x="1317" 
d="M176 1365h166l656 -1136v1136h143v-1365h-167l-653 1133v-1133h-145v1365zM616 -513h-93q106 104 123 203q-9 -1 -14 -1q-40 0 -68 28.5t-28 69.5q0 43 31.5 73.5t77.5 30.5q51 0 83 -37.5t32 -97.5q0 -120 -144 -269z" />
    <glyph glyph-name="ncommaaccent" unicode="&#x146;" horiz-adv-x="1031" 
d="M483 -508h-93q105 103 121 200q-9 -1 -12 -1q-40 0 -68 28t-28 68q0 44 31 74t76 30q51 0 82.5 -37t31.5 -97q0 -120 -141 -265zM126 971h136q19 -57 19 -141q99 168 297 168q130 0 212 -68q79 -67 92 -188q5 -48 5 -184v-558h-143v549q0 169 -25 225q-45 96 -171 96
q-138 0 -211 -115q-47 -75 -47 -213v-542h-142v640q0 179 -3 221.5t-19 109.5z" />
    <glyph glyph-name="Ncaron" unicode="&#x147;" horiz-adv-x="1317" 
d="M176 1365h166l656 -1136v1136h143v-1365h-167l-653 1133v-1133h-145v1365zM1010 1772l-266 -269h-164l-266 269h141l207 -181l206 181h142z" />
    <glyph glyph-name="ncaron" unicode="&#x148;" horiz-adv-x="1031" 
d="M126 971h136q19 -57 19 -141q99 168 297 168q130 0 212 -68q79 -67 92 -188q5 -48 5 -184v-558h-143v549q0 169 -25 225q-45 96 -171 96q-138 0 -211 -115q-47 -75 -47 -213v-542h-142v640q0 179 -3 221.5t-19 109.5zM813 1413l-231 -287h-165l-232 287h139l175 -193
l175 193h139z" />
    <glyph glyph-name="napostrophe" unicode="&#x149;" horiz-adv-x="1241" 
d="M197 927h-125q124 122 145 239h-16q-43 0 -74 31.5t-31 75.5q0 49 34.5 82.5t84.5 33.5q57 0 92 -41.5t35 -108.5q0 -142 -145 -312zM335 971h136q19 -57 19 -141q98 168 297 168q130 0 212 -68q79 -67 92 -188q5 -48 5 -184v-558h-143v549q0 169 -25 225q-44 96 -170 96
q-139 0 -212 -115q-47 -75 -47 -213v-542h-142v640q0 179 -3 221.5t-19 109.5z" />
    <glyph glyph-name="Eng" unicode="&#x14a;" horiz-adv-x="1231" 
d="M148 1383h146q25 -70 26 -174q122 180 357 180q147 0 253 -79q77 -57 104 -140t27 -262v-836q0 -145 -6 -196t-28 -96q-47 -99 -173 -140q-71 -23 -165 -23q-18 0 -49 1v131q17 1 35 1q174 2 216 103q12 29 15.5 68t3.5 151v821q0 173 -41 245q-65 116 -227 116
q-173 0 -258 -131q-53 -83 -53 -259v-864h-151v997q0 200 -4.5 253.5t-27.5 132.5z" />
    <glyph glyph-name="eng" unicode="&#x14b;" horiz-adv-x="1034" 
d="M124 971h138q21 -56 21 -141q100 168 297 168q130 0 212 -68q79 -67 92 -188q5 -48 5 -184v-473q0 -163 -13 -232.5t-54 -121.5q-89 -114 -307 -114q-15 0 -49 1v126q18 -1 35 -1q162 0 213 84q20 33 26 82t6 175v465q0 170 -25 225q-45 96 -171 96q-138 0 -211 -115
q-47 -75 -47 -213v-542h-142v640q0 178 -3.5 220.5t-22.5 110.5z" />
    <glyph glyph-name="Omacron" unicode="&#x14c;" horiz-adv-x="1323" 
d="M662 1389q237 0 391 -182q165 -197 165 -524q0 -326 -165 -524q-152 -182 -390 -182q-241 0 -393 182q-165 198 -165 534q0 214 79 380q83 172 233 254q112 62 245 62zM662 1254q-180 0 -283 -152q-110 -162 -110 -412q0 -264 110 -427q103 -152 283 -152q112 0 201 67
q91 68 141 200.5t50 304.5q0 260 -110 419q-106 152 -282 152zM366 1692h591v-107h-591v107z" />
    <glyph glyph-name="omacron" unicode="&#x14d;" horiz-adv-x="1032" 
d="M516 998q170 0 287 -121q137 -142 137 -391q0 -247 -137 -390q-116 -121 -286 -121q-174 0 -288 121q-137 145 -137 398q0 112 36 213t101 170q114 121 287 121zM516 875q-119 0 -191 -95q-85 -113 -85 -288q0 -186 85 -299q72 -95 191 -95t191 95q85 113 85 293
q0 183 -85 294q-73 95 -191 95zM236 1320h559v-109h-559v109z" />
    <glyph glyph-name="Obreve" unicode="&#x14e;" horiz-adv-x="1323" 
d="M662 1389q237 0 391 -182q165 -197 165 -524q0 -326 -165 -524q-152 -182 -390 -182q-241 0 -393 182q-165 198 -165 534q0 214 79 380q83 172 233 254q112 62 245 62zM662 1254q-180 0 -283 -152q-110 -162 -110 -412q0 -264 110 -427q103 -152 283 -152q112 0 201 67
q91 68 141 200.5t50 304.5q0 260 -110 419q-106 152 -282 152zM383 1774h82q18 -59 52 -95q61 -63 146 -63q69 0 120.5 41.5t74.5 116.5h82q-9 -80 -42 -137q-79 -136 -234 -136q-158 0 -239 138q-33 58 -42 135z" />
    <glyph glyph-name="obreve" unicode="&#x14f;" horiz-adv-x="1032" 
d="M516 998q170 0 287 -121q137 -142 137 -391q0 -247 -137 -390q-116 -121 -286 -121q-174 0 -288 121q-137 145 -137 398q0 112 36 213t101 170q114 121 287 121zM516 875q-119 0 -191 -95q-85 -113 -85 -288q0 -186 85 -299q72 -95 191 -95t191 95q85 113 85 293
q0 183 -85 294q-73 95 -191 95zM264 1396h84q20 -75 64.5 -117t105.5 -42q123 0 165 159h85q-8 -80 -38 -139q-69 -137 -210 -137q-144 0 -217 138q-31 59 -39 138z" />
    <glyph glyph-name="Ohungarumlaut" unicode="&#x150;" horiz-adv-x="1323" 
d="M462 1497l218 280h174l-268 -280h-124zM717 1497l218 280h174l-268 -280h-124zM662 1389q222 0 373 -165q183 -200 183 -538q0 -343 -183 -544q-150 -165 -381 -165q-216 0 -366 165q-183 201 -183 541q0 344 183 541q154 165 374 165zM662 1254q-120 0 -214 -75
q-96 -77 -143 -231q-36 -118 -36 -265q0 -261 111 -423q47 -70 124 -110q72 -39 152 -39q185 0 287 149q111 162 111 425q0 262 -111 421q-104 148 -281 148z" />
    <glyph glyph-name="ohungarumlaut" unicode="&#x151;" horiz-adv-x="1032" 
d="M339 1119l184 280h171l-237 -280h-118zM588 1119l183 280h171l-236 -280h-118zM516 998q170 0 287 -121q137 -142 137 -391q0 -247 -137 -390q-116 -121 -286 -121q-174 0 -288 121q-137 145 -137 398q0 112 36 213t101 170q114 121 287 121zM516 875q-119 0 -191 -95
q-85 -113 -85 -288q0 -186 85 -299q72 -95 191 -95t191 95q85 113 85 293q0 183 -85 294q-73 95 -191 95z" />
    <glyph glyph-name="OE" unicode="&#x152;" horiz-adv-x="1904" 
d="M1059 1193v172h743v-133h-591l-1 -458h549v-133h-548v-508h604v-133h-756v174q-63 -79 -114 -116q-113 -81 -277 -81q-243 0 -396 179q-167 194 -167 525q0 347 185 547q149 161 379 161q126 0 217.5 -46t172.5 -150zM669 1254q-152 0 -247 -101q-153 -163 -153 -472
q0 -304 150 -468q93 -102 245 -102q153 0 245 100q148 161 148 471q0 312 -152 473q-93 99 -236 99z" />
    <glyph glyph-name="oe" unicode="&#x153;" horiz-adv-x="1687" 
d="M1593 454h-662q5 -148 55 -231q77 -126 229 -126q167 0 229 151l133 -17q-90 -256 -361 -256q-239 0 -360 214q-49 -83 -99 -127q-99 -87 -240 -87q-180 0 -300 138q-125 144 -125 373q0 255 145 398q116 114 283 114q228 0 338 -220q123 220 343 220q215 0 321 -192
q73 -131 73 -292q0 -17 -2 -60zM1439 564q-5 126 -55 208q-65 105 -190 105q-127 0 -198 -115q-47 -76 -63 -198h506zM518 875q-122 0 -198 -103q-80 -108 -80 -287q0 -176 79 -285q75 -102 196 -102q120 0 190 101q78 111 78 288q0 178 -78 286q-74 102 -187 102z" />
    <glyph glyph-name="Racute" unicode="&#x154;" horiz-adv-x="1150" 
d="M176 1365h241q157 0 234 -9t146 -34q112 -43 172 -148q48 -86 48 -195q0 -271 -281 -371l360 -608h-185l-345 584h-237v-584h-153v1365zM329 717h95q126 0 178 5t100 22q153 53 153 237q0 165 -129 219q-48 20 -104 26t-200 6h-93v-515zM400 1497l284 280h205l-341 -280
h-148z" />
    <glyph glyph-name="racute" unicode="&#x155;" horiz-adv-x="670" 
d="M267 1120l212 280h205l-298 -280h-119zM136 971h136q18 -76 18 -149q0 -20 -2 -60q99 236 251 236q55 0 118 -31v-143q-82 38 -131 38q-119 0 -187 -150q-42 -94 -42 -277v-434l-145 -1v636q-1 173 -3 219t-13 116z" />
    <glyph glyph-name="Rcommaaccent" unicode="&#x156;" horiz-adv-x="1150" 
d="M176 1365h241q157 0 234 -9t146 -34q112 -43 172 -148q48 -86 48 -195q0 -271 -281 -371l360 -608h-185l-345 584h-237v-584h-153v1365zM329 717h95q126 0 178 5t100 22q153 53 153 237q0 165 -129 219q-48 20 -104 26t-200 6h-93v-515zM573 -513h-93q105 104 123 203
q-10 -1 -14 -1q-40 0 -68 28.5t-28 69.5q0 43 31.5 73.5t76.5 30.5q51 0 83 -37.5t32 -96.5q0 -122 -143 -270z" />
    <glyph glyph-name="rcommaaccent" unicode="&#x157;" horiz-adv-x="670" 
d="M136 971h137q17 -76 17 -149q0 -21 -2 -60q99 236 252 236q55 0 117 -31v-143q-82 38 -130 38q-120 0 -188 -150q-42 -94 -42 -277v-434l-145 -1v636q-1 173 -3 219t-13 116zM193 -508h-93q104 102 121 200q-9 -1 -13 -1q-40 0 -68 28t-28 69q0 43 31 73t76 30
q51 0 82.5 -37t31.5 -97q0 -120 -140 -265z" />
    <glyph glyph-name="Rcaron" unicode="&#x158;" horiz-adv-x="1150" 
d="M176 1365h241q157 0 234 -9t146 -34q112 -43 172 -148q48 -86 48 -195q0 -271 -281 -371l360 -608h-185l-345 584h-237v-584h-153v1365zM329 717h95q126 0 178 5t100 22q153 53 153 237q0 165 -129 219q-48 20 -104 26t-200 6h-93v-515zM905 1772l-266 -269h-164
l-266 269h141l207 -181l206 181h142z" />
    <glyph glyph-name="rcaron" unicode="&#x159;" horiz-adv-x="670" 
d="M136 971h137q17 -76 17 -149q0 -21 -2 -60q99 236 252 236q55 0 117 -31v-143q-82 38 -130 38q-120 0 -188 -150q-42 -94 -42 -277v-434l-145 -1v636q-1 173 -3 219t-13 116zM697 1413l-232 -287h-164l-232 287h139l175 -193l175 193h139z" />
    <glyph glyph-name="Sacute" unicode="&#x15a;" horiz-adv-x="1121" 
d="M967 1012h-149q-9 102 -62 161q-72 81 -203 81q-101 0 -168 -50q-82 -62 -82 -158q0 -88 82 -144q47 -31 243 -119q131 -59 195.5 -98.5t101.5 -82.5q82 -97 82 -236q0 -193 -149 -303q-118 -86 -297 -86q-247 0 -369 158q-78 101 -88 281h150q9 -133 70 -205
q84 -99 243 -99q122 0 202 66q80 65 80 169q0 100 -82 169q-51 43 -212 115q-210 93 -280 148q-126 99 -126 255q0 168 133 269q113 86 278 86q228 0 339 -155q61 -84 68 -222zM414 1497l283 280h205l-340 -280h-148z" />
    <glyph glyph-name="sacute" unicode="&#x15b;" horiz-adv-x="897" 
d="M342 1120l212 280h205l-297 -280h-120zM793 704h-139q-10 83 -48 122q-51 52 -150 52q-83 0 -134.5 -40.5t-51.5 -105.5q0 -60 43.5 -91.5t181.5 -72.5q116 -34 170.5 -59.5t85.5 -59.5q58 -65 58 -170q0 -133 -86 -215q-94 -89 -265 -89q-177 0 -272 84.5t-95 242.5
l138 -1q19 -206 226 -206q94 0 150 46.5t56 124.5q0 74 -61 113q-36 23 -217 78q-147 45 -200 103q-59 65 -59 163q0 132 102 206q94 69 231 69q155 0 241.5 -76t94.5 -218z" />
    <glyph glyph-name="Scircumflex" unicode="&#x15c;" horiz-adv-x="1121" 
d="M967 1012h-149q-9 102 -62 161q-72 81 -203 81q-101 0 -168 -50q-82 -62 -82 -158q0 -88 82 -144q47 -31 243 -119q131 -59 195.5 -98.5t101.5 -82.5q82 -97 82 -236q0 -193 -149 -303q-118 -86 -297 -86q-247 0 -369 158q-78 101 -88 281h150q9 -133 70 -205
q84 -99 243 -99q122 0 202 66q80 65 80 169q0 100 -82 169q-51 43 -212 115q-210 93 -280 148q-126 99 -126 255q0 168 133 269q113 86 278 86q228 0 339 -155q61 -84 68 -222zM214 1503l266 269h165l266 -269h-142l-207 181l-206 -181h-142z" />
    <glyph glyph-name="scircumflex" unicode="&#x15d;" horiz-adv-x="897" 
d="M155 1126l231 286h165l232 -286h-139l-175 193l-175 -193h-139zM793 704h-139q-10 83 -48 122q-51 52 -150 52q-83 0 -134.5 -40.5t-51.5 -105.5q0 -60 43.5 -91.5t181.5 -72.5q116 -34 170.5 -59.5t85.5 -59.5q58 -65 58 -170q0 -133 -86 -215q-94 -89 -265 -89
q-177 0 -272 84.5t-95 242.5l138 -1q19 -206 226 -206q94 0 150 46.5t56 124.5q0 74 -61 113q-36 23 -217 78q-147 45 -200 103q-59 65 -59 163q0 132 102 206q94 69 231 69q155 0 241.5 -76t94.5 -218z" />
    <glyph glyph-name="Scedilla" unicode="&#x15e;" horiz-adv-x="1121" 
d="M582 -23l-45 -111q194 -23 194 -175q0 -83 -59.5 -135t-155.5 -52q-67 0 -163 37v87q76 -27 114 -27q55 0 88 28.5t33 75.5q0 102 -149 102q-10 0 -30 -1l69 176q-138 23 -217 84q-148 119 -157 350h150q9 -133 70 -205q84 -99 243 -99q122 0 202 66q80 65 80 169
q0 100 -82 169q-52 43 -212 115q-211 93 -280 148q-126 99 -126 255q0 168 133 269q113 86 278 86q228 0 339 -155q61 -84 68 -222h-149q-9 102 -62 161q-72 81 -203 81q-101 0 -168 -50q-82 -62 -82 -158q0 -88 82 -144q33 -22 63.5 -37t179.5 -82q132 -60 196.5 -99
t100.5 -83q82 -96 82 -235q0 -171 -113 -274.5t-312 -114.5z" />
    <glyph glyph-name="scedilla" unicode="&#x15f;" horiz-adv-x="897" 
d="M480 -25l-42 -89q175 -23 175 -154q0 -75 -54.5 -122.5t-140.5 -47.5q-70 0 -153 35v78q18 -6 28 -8q50 -16 82 -16q50 0 79.5 25.5t29.5 69.5q0 50 -38.5 72.5t-126.5 22.5l65 139q-293 44 -290 319v3l138 -1q19 -206 226 -206q94 0 150 46.5t56 124.5q0 74 -61 113
q-36 22 -217 78q-147 45 -200 103q-59 65 -59 163q0 132 102 206q94 69 231 69q155 0 241.5 -76t93.5 -218h-138q-10 84 -48 122q-52 52 -150 52q-83 0 -134.5 -40.5t-51.5 -105.5q0 -60 43.5 -91.5t181.5 -72.5q115 -33 170 -59t86 -60q58 -65 58 -170q0 -88 -40 -156.5
t-113 -105.5q-61 -32 -179 -42z" />
    <glyph glyph-name="Scaron" unicode="&#x160;" horiz-adv-x="1121" 
d="M967 1012h-149q-9 102 -62 161q-72 81 -203 81q-101 0 -168 -50q-82 -62 -82 -158q0 -88 82 -144q47 -31 243 -119q131 -59 195.5 -98.5t101.5 -82.5q82 -97 82 -236q0 -193 -149 -303q-118 -86 -297 -86q-247 0 -369 158q-78 101 -88 281h150q9 -133 70 -205
q84 -99 243 -99q122 0 202 66q80 65 80 169q0 100 -82 169q-51 43 -212 115q-210 93 -280 148q-126 99 -126 255q0 168 133 269q113 86 278 86q228 0 339 -155q61 -84 68 -222zM911 1772l-266 -269h-165l-266 269h142l206 -181l206 181h143z" />
    <glyph glyph-name="scaron" unicode="&#x161;" horiz-adv-x="897" 
d="M780 1412l-232 -286h-164l-232 286h139l175 -192l175 192h139zM793 704h-139q-10 83 -48 122q-51 52 -150 52q-83 0 -134.5 -40.5t-51.5 -105.5q0 -60 43.5 -91.5t181.5 -72.5q116 -34 170.5 -59.5t85.5 -59.5q58 -65 58 -170q0 -133 -86 -215q-94 -89 -265 -89
q-177 0 -272 84.5t-95 242.5l138 -1q19 -206 226 -206q94 0 150 46.5t56 124.5q0 74 -61 113q-36 23 -217 78q-147 45 -200 103q-59 65 -59 163q0 132 102 206q94 69 231 69q155 0 241.5 -76t94.5 -218z" />
    <glyph glyph-name="Tcommaaccent" unicode="&#x162;" horiz-adv-x="948" 
d="M43 1365h863v-133h-355v-1232h-153v1232h-355v133zM440 -513h-94q106 104 123 203q-9 -1 -14 -1q-40 0 -68 28.5t-28 69.5q0 43 31.5 73.5t76.5 30.5q52 0 84 -37.5t32 -96.5q0 -121 -143 -270z" />
    <glyph glyph-name="tcommaaccent" unicode="&#x163;" horiz-adv-x="642" 
d="M345 971h231l-2 -116h-231l-9 -493q-2 -149 6 -185q15 -72 102 -72q67 0 141 34l-2 -127q-86 -32 -171 -32q-147 0 -199 89q-26 43 -26 141q0 30 4 156l12 489h-147l2 116h148l6 280h140zM315 -508h-93q104 102 121 200q-9 -1 -12 -1q-40 0 -68 28t-28 69q0 43 31 73
t76 30q51 0 82.5 -37t31.5 -97q0 -119 -141 -265z" />
    <glyph glyph-name="Tcaron" unicode="&#x164;" horiz-adv-x="948" 
d="M43 1365h863v-133h-355v-1232h-153v1232h-355v133zM823 1772l-266 -269h-164l-266 269h141l207 -181l206 181h142z" />
    <glyph glyph-name="tcaron" unicode="&#x165;" horiz-adv-x="642" 
d="M345 971h231l-2 -116h-231l-9 -493q-1 -91 -1 -99q0 -98 21 -125q27 -33 88 -33q67 0 141 34l-2 -127q-86 -32 -171 -32q-148 0 -200 88q-26 44 -26 142l5 156l12 489h-147l2 116h148l6 280h140zM540 1080h-93q104 102 121 200q-9 -1 -13 -1q-40 0 -68 28t-28 69
q0 43 31 73t76 30q51 0 82.5 -37t31.5 -97q0 -120 -140 -265z" />
    <glyph glyph-name="Tbar" unicode="&#x166;" horiz-adv-x="948" 
d="M551 893h276v-127h-276v-766h-153v766h-276v127h276v339h-355v133h863v-133h-355v-339z" />
    <glyph glyph-name="tbar" unicode="&#x167;" horiz-adv-x="650" 
d="M354 971h231l-1 -116h-232l-3 -147h229l-1 -116h-230l-4 -230q-1 -69 -1 -99q0 -98 21 -125q27 -33 88 -33q67 0 141 34l-3 -127q-86 -32 -171 -32q-147 0 -199 89q-26 44 -26 139q0 28 5 158l6 226h-142v116h145l3 147h-148v116h151l6 280h140z" />
    <glyph glyph-name="Utilde" unicode="&#x168;" horiz-adv-x="1280" 
d="M157 1365h153v-803q0 -152 8 -211.5t35 -104.5q37 -63 113.5 -98.5t173.5 -35.5q119 0 206 53q103 64 118 217q5 50 5 180v803h153v-806q0 -163 -5.5 -217.5t-27.5 -110.5q-49 -122 -172 -191q-113 -63 -277 -63q-242 0 -375 138q-87 91 -101 225q-7 59 -7 219v806z
M395 1519l-89 33q17 67 39 107q49 92 149 92q62 0 154 -53q63 -35 89.5 -46t50.5 -11q76 0 101 119l84 -33q-10 -66 -33 -108q-24 -44 -65.5 -70.5t-87.5 -26.5q-34 0 -65.5 12t-104.5 52q-82 45 -123 45q-72 0 -99 -112z" />
    <glyph glyph-name="utilde" unicode="&#x169;" horiz-adv-x="1019" 
d="M288 1145l-83 19q41 213 174 213q57 0 138 -53q88 -58 126 -58q66 0 90 119l83 -20q-11 -89 -48 -146q-47 -74 -121 -74q-58 0 -149 58q-87 54 -120 54q-65 0 -90 -112zM145 971h142v-594q0 -145 34 -196q51 -78 166 -78q129 0 196 109q42 68 42 208v551h143v-676
q0 -164 3 -203t20 -92h-141q-19 58 -20 130q-44 -82 -105 -118.5t-154 -36.5q-119 0 -202 58q-72 52 -98 123t-26 221v594z" />
    <glyph glyph-name="Umacron" unicode="&#x16a;" horiz-adv-x="1280" 
d="M157 1365h153v-803q0 -152 8 -211.5t35 -104.5q37 -63 113.5 -98.5t173.5 -35.5q119 0 206 53q103 64 118 217q5 50 5 180v803h153v-806q0 -163 -5.5 -217.5t-27.5 -110.5q-49 -122 -172 -191q-113 -63 -277 -63q-242 0 -375 138q-87 91 -101 225q-7 59 -7 219v806z
M345 1692h590v-107h-590v107z" />
    <glyph glyph-name="umacron" unicode="&#x16b;" horiz-adv-x="1019" 
d="M145 971h142v-594q0 -145 34 -196q51 -78 166 -78q129 0 196 109q42 68 42 208v551h143v-676q0 -164 3 -203t20 -92h-141q-19 58 -20 130q-44 -82 -105 -118.5t-154 -36.5q-119 0 -202 58q-72 52 -98 123t-26 221v594zM228 1320h559v-109h-559v109z" />
    <glyph glyph-name="Ubreve" unicode="&#x16c;" horiz-adv-x="1280" 
d="M157 1365h153v-803q0 -152 8 -211.5t35 -104.5q37 -63 113.5 -98.5t173.5 -35.5q119 0 206 53q103 64 118 217q5 50 5 180v803h153v-806q0 -163 -5.5 -217.5t-27.5 -110.5q-49 -122 -172 -191q-113 -63 -277 -63q-242 0 -375 138q-87 91 -101 225q-7 59 -7 219v806z
M361 1774h82q19 -59 52 -95q61 -63 146 -63q70 0 121 41.5t75 116.5h81q-9 -80 -42 -137q-79 -136 -234 -136q-158 0 -239 138q-33 58 -42 135z" />
    <glyph glyph-name="ubreve" unicode="&#x16d;" horiz-adv-x="1019" 
d="M256 1396h84q21 -76 65 -118t105 -42q122 0 165 160h85q-8 -80 -38 -140q-68 -137 -210 -137q-144 0 -217 138q-31 60 -39 139zM145 971h142v-594q0 -145 34 -196q51 -78 166 -78q129 0 196 109q42 68 42 208v551h143v-676q0 -164 3 -203t20 -92h-141q-19 58 -20 130
q-44 -82 -105 -118.5t-154 -36.5q-119 0 -202 58q-72 52 -98 123t-26 221v594z" />
    <glyph glyph-name="Uring" unicode="&#x16e;" horiz-adv-x="1280" 
d="M642 1843q76 0 131 -55.5t55 -132.5q0 -78 -55 -134q-55 -55 -133 -55q-79 0 -134 55q-55 56 -55 133q0 79 55.5 134t135.5 55zM641 1755q-43 0 -72.5 -29t-29.5 -72q0 -41 29.5 -70.5t70.5 -29.5q42 0 71.5 29.5t29.5 71.5q0 41 -29.5 70.5t-69.5 29.5zM157 1365h153
v-803q0 -152 8 -211.5t35 -104.5q37 -63 113.5 -98.5t173.5 -35.5q119 0 206 53q103 64 118 217q5 50 5 180v803h153v-806q0 -163 -5.5 -217.5t-27.5 -110.5q-49 -122 -172 -191q-113 -63 -277 -63q-242 0 -375 138q-87 91 -101 225q-7 59 -7 219v806z" />
    <glyph glyph-name="uring" unicode="&#x16f;" horiz-adv-x="1019" 
d="M510 1469q77 0 132 -55.5t55 -132.5q0 -78 -55.5 -133.5t-133.5 -55.5q-79 0 -133 55q-56 56 -56 133q0 79 56 134t135 55zM509 1381q-43 0 -72.5 -29t-29.5 -72q0 -41 29.5 -70.5t71.5 -29.5t71.5 29.5t29.5 71.5q0 41 -29.5 70.5t-70.5 29.5zM145 971h142v-594
q0 -145 34 -196q51 -78 166 -78q129 0 196 109q42 68 42 208v551h143v-676q0 -164 3 -203t20 -92h-141q-19 58 -20 130q-44 -82 -105 -118.5t-154 -36.5q-119 0 -202 58q-72 52 -98 123t-26 221v594z" />
    <glyph glyph-name="Uhungarumlaut" unicode="&#x170;" horiz-adv-x="1280" 
d="M427 1497l218 280h174l-268 -280h-124zM681 1497l218 280h174l-268 -280h-124zM157 1365h153v-803q0 -153 8 -212t35 -104q38 -63 114 -98.5t173 -35.5q119 0 206 53q103 64 118 217q5 50 5 180v803h153v-806q0 -163 -5.5 -217.5t-27.5 -110.5q-49 -122 -172 -191
q-113 -63 -277 -63q-242 0 -375 138q-87 92 -102 225q-6 59 -6 219v806z" />
    <glyph glyph-name="uhungarumlaut" unicode="&#x171;" horiz-adv-x="1019" 
d="M328 1119l184 280h171l-237 -280h-118zM577 1119l183 280h171l-236 -280h-118zM145 971h142v-594q0 -145 34 -196q51 -78 166 -78q129 0 196 109q42 68 42 208v551h143v-676q0 -164 3 -203t20 -92h-141q-19 58 -20 130q-44 -82 -105 -118.5t-154 -36.5q-119 0 -202 58
q-72 52 -98 123t-26 221v594z" />
    <glyph glyph-name="Uogonek" unicode="&#x172;" horiz-adv-x="1280" 
d="M989 -275v-94q-74 -25 -130 -25q-109 0 -169 66q-47 51 -47 119q0 63 33 104.5t130 103.5q-80 -22 -157 -22q-251 0 -384 138q-87 91 -101 225q-7 60 -7 219v806h153v-803q0 -152 8 -211.5t35 -104.5q37 -63 113.5 -98.5t173.5 -35.5q119 0 206 53q103 64 118 217
q5 50 5 180v803h153v-806q0 -155 -6 -219t-26 -109q-43 -91 -197 -242q-113 -112 -113 -179q0 -45 33.5 -72t89.5 -27q34 0 86 14z" />
    <glyph glyph-name="uogonek" unicode="&#x173;" horiz-adv-x="1019" 
d="M891 0q-50 -33 -108 -88q-48 -46 -48 -92q0 -41 29 -66.5t75 -25.5q42 0 85 16v-91q-60 -22 -124 -22q-103 0 -159 61q-44 48 -44 109q0 62 38.5 104.5t140.5 94.5h-26q-19 58 -20 130q-43 -81 -104.5 -118t-154.5 -37q-119 0 -202 58q-72 51 -98 122.5t-26 221.5v594
h142v-594q0 -145 34 -196q51 -78 166 -78q129 0 196 109q42 68 42 208v551h143v-676q0 -160 3.5 -204t19.5 -91z" />
    <glyph glyph-name="Wcircumflex" unicode="&#x174;" horiz-adv-x="1591" 
d="M34 1365h146l264 -1163l284 1163h131l284 -1163l267 1163h144l-327 -1373h-164l-271 1066l-269 -1066h-164zM447 1503l266 269h165l266 -269h-142l-206 181l-206 -181h-143z" />
    <glyph glyph-name="wcircumflex" unicode="&#x175;" horiz-adv-x="1353" 
d="M31 971h148l208 -769l228 769h123l227 -769l209 769h148l-282 -983h-140l-225 763l-223 -763h-140zM363 1126l231 287h165l232 -287h-139l-175 193l-175 -193h-139z" />
    <glyph glyph-name="Ycircumflex" unicode="&#x176;" horiz-adv-x="1048" 
d="M176 1503l266 269h165l266 -269h-142l-207 181l-205 -181h-143zM24 1365h176l327 -638l323 638h175l-426 -792l2 -573h-153l2 573z" />
    <glyph glyph-name="ycircumflex" unicode="&#x177;" horiz-adv-x="896" 
d="M33 971h153l264 -809l272 809h150l-320 -902q-67 -193 -95 -252.5t-75 -110.5q-107 -114 -283 -114q-18 0 -44 1v126q137 -1 197 50q32 27 56.5 73t61.5 149zM138 1126l232 286h165l231 -286h-138l-176 193l-174 -193h-140z" />
    <glyph glyph-name="Ydieresis" unicode="&#x178;" horiz-adv-x="1048" 
d="M344 1754q47 0 80.5 -34.5t33.5 -81.5q0 -49 -34 -83t-82 -34t-82 34t-34 82q0 49 34 83t84 34zM708 1754q47 0 81 -34.5t34 -81.5q0 -49 -34 -83t-82 -34t-82 34t-34 82q0 49 34 83t83 34zM24 1365h176l327 -638l323 638h175l-426 -792l2 -573h-153l2 573z" />
    <glyph glyph-name="Zacute" unicode="&#x179;" horiz-adv-x="1009" 
d="M107 1365h839v-106l-703 -1126h689v-133h-869v119l696 1114h-652v132zM375 1497l283 280h206l-341 -280h-148z" />
    <glyph glyph-name="zacute" unicode="&#x17a;" horiz-adv-x="814" 
d="M88 971h684v-106l-558 -746h547v-119h-716v113l551 739h-508v119zM302 1120l212 280h206l-298 -280h-120z" />
    <glyph glyph-name="Zdotaccent" unicode="&#x17b;" horiz-adv-x="1009" 
d="M107 1365h839v-106l-703 -1126h689v-133h-869v119l696 1114h-652v132zM526 1766q52 0 89.5 -38t37.5 -90q0 -54 -37.5 -91.5t-91.5 -37.5q-53 0 -90.5 37.5t-37.5 90.5q0 54 38 91.5t92 37.5z" />
    <glyph glyph-name="zdotaccent" unicode="&#x17c;" horiz-adv-x="814" 
d="M88 971h684v-106l-558 -746h547v-119h-716v112l550 740h-507v119zM431 1376q44 0 75.5 -31.5t31.5 -75.5q0 -45 -31.5 -76.5t-76.5 -31.5t-76.5 31.5t-31.5 75.5q0 46 31.5 77t77.5 31z" />
    <glyph glyph-name="Zcaron" unicode="&#x17d;" horiz-adv-x="1009" 
d="M107 1365h839v-106l-703 -1126h689v-133h-869v119l696 1114h-652v132zM875 1772l-266 -269h-164l-266 269h141l207 -181l206 181h142z" />
    <glyph glyph-name="zcaron" unicode="&#x17e;" horiz-adv-x="814" 
d="M88 971h684v-106l-558 -746h547v-119h-716v112l550 740h-507v119zM744 1412l-232 -286h-164l-232 286h139l175 -192l175 192h139z" />
    <glyph glyph-name="longs" unicode="&#x17f;" horiz-adv-x="582" 
d="M171 0v1033q0 107 8.5 157.5t32.5 91.5q67 111 217 111q67 0 154 -30v-132q-77 36 -136 36q-71 0 -100 -47q-16 -26 -20.5 -60.5t-4.5 -123.5v-1036h-151z" />
    <glyph glyph-name="uni018F" unicode="&#x18f;" horiz-adv-x="1325" 
d="M105 734l961 -2q-21 139 -34.5 191t-41.5 107q-115 224 -327 224q-106 0 -195.5 -63.5t-129.5 -166.5l-140 70q27 59 74 112q161 183 391 183q157 0 286 -86q133 -88 207 -280q64 -169 64 -355q0 -306 -166 -509q-76 -93 -189 -142q-94 -40 -201 -40q-157 0 -287 85
q-152 101 -215 323q-31 110 -57 349zM266 625q8 -135 74 -284q101 -230 323 -230q235 0 347 272q48 115 54 242h-798z" />
    <glyph glyph-name="florin" unicode="&#x192;" horiz-adv-x="1092" 
d="M717 969h210v-120h-231l-122 -692q-44 -247 -83 -319q-71 -127 -223 -127q-104 0 -234 68l25 132q109 -70 197 -70q49 0 77.5 23t47.5 78q18 54 48 227l120 681h-192v119h213l25 140q32 181 81 251q73 105 209 105q81 0 174 -42l-22 -126q-97 42 -149 42q-62 0 -93.5 -55
t-58.5 -207z" />
    <glyph glyph-name="Ohorn" unicode="&#x1a0;" horiz-adv-x="1323" 
d="M1093 1152q47 69 57 126h-13q-41 0 -69 28.5t-28 69.5q0 43 31.5 73.5t77.5 30.5q51 0 83 -37.5t32 -96.5q0 -117 -133 -259q87 -165 87 -407q0 -323 -165 -521q-152 -182 -391 -182q-240 0 -392 182q-165 198 -165 524t165 524q153 182 391 182q265 0 432 -237z
M662 1254q-180 0 -283 -152q-110 -162 -110 -412q0 -264 110 -427q103 -152 283 -152q112 0 201 67q91 68 141 200.5t50 304.5q0 260 -110 419q-106 152 -282 152z" />
    <glyph glyph-name="ohorn" unicode="&#x1a1;" horiz-adv-x="1032" 
d="M842 829q52 71 63 134h-12q-41 0 -68.5 28t-27.5 69q0 43 31 73t76 30q51 0 82.5 -37t31.5 -97q0 -116 -138 -263q60 -129 60 -280q0 -245 -137 -390q-114 -121 -287 -121t-287 121q-137 145 -137 390q0 246 137 391q114 121 287 121q204 0 326 -169zM516 875
q-119 0 -191 -95q-85 -113 -85 -288q0 -186 85 -299q72 -95 191 -95t191 95q85 113 85 293q0 183 -85 294q-73 95 -191 95z" />
    <glyph glyph-name="Uhorn" unicode="&#x1af;" horiz-adv-x="1280" 
d="M157 1365h153v-803q0 -152 8 -211.5t35 -104.5q37 -63 113.5 -98.5t173.5 -35.5q119 0 206 53q103 64 118 217q5 50 5 180v803h153v-806q0 -163 -5.5 -217.5t-27.5 -110.5q-49 -122 -172 -191q-113 -63 -277 -63q-242 0 -375 138q-87 91 -101 225q-7 59 -7 219v806z
M1324 1131h-94q106 104 123 202q-9 -1 -14 -1q-40 0 -68 28.5t-28 69.5q0 43 31.5 73.5t77.5 30.5q51 0 83 -37.5t32 -96.5q0 -120 -143 -269z" />
    <glyph glyph-name="uhorn" unicode="&#x1b0;" horiz-adv-x="1019" 
d="M145 971h142v-594q0 -145 34 -196q51 -78 166 -78q129 0 196 109q42 68 42 208v551h143v-676q0 -164 3 -203t20 -92h-141q-19 58 -20 130q-44 -82 -105 -118.5t-154 -36.5q-119 0 -202 58q-72 52 -98 123t-26 221v594zM1021 775h-93q104 102 121 200q-9 -1 -13 -1
q-40 0 -68 28t-28 69q0 43 31 73t76 30q51 0 82.5 -37t31.5 -97q0 -120 -140 -265z" />
    <glyph glyph-name="uni01CD" unicode="&#x1cd;" horiz-adv-x="1158" 
d="M512 1374h134l471 -1374h-159l-122 362h-514l-122 -362h-158zM794 495l-215 679l-215 -679h430zM928 1772l-266 -269h-165l-266 269h142l207 -181l205 181h143z" />
    <glyph glyph-name="uni01CE" unicode="&#x1ce;" horiz-adv-x="974" 
d="M272 716h-143q14 124 88 193q96 89 276 89q153 0 243 -70q53 -41 71 -103t18 -206v-364q-1 -178 27 -255h-137q-16 59 -21 131q-85 -156 -285 -156q-130 0 -213 64q-100 78 -100 216q0 207 226 291q125 47 363 86v41q0 101 -33 142q-49 61 -165 61q-185 0 -215 -160z
M685 526q-211 -38 -306 -82q-135 -63 -135 -179q0 -76 52 -123t135 -47q146 0 214 115q40 68 40 219v97zM807 1412l-231 -286h-165l-232 286h139l175 -192l175 192h139z" />
    <glyph glyph-name="uni01D2" unicode="&#x1d2;" horiz-adv-x="1032" 
d="M516 998q170 0 287 -121q137 -142 137 -391q0 -247 -137 -390q-116 -121 -286 -121q-174 0 -288 121q-137 145 -137 398q0 112 36 213t101 170q114 121 287 121zM516 875q-119 0 -191 -95q-85 -113 -85 -288q0 -186 85 -299q72 -95 191 -95t191 95q85 113 85 293
q0 183 -85 294q-73 95 -191 95zM824 1413l-232 -287h-164l-232 287h139l175 -193l175 193h139z" />
    <glyph glyph-name="uni01D3" unicode="&#x1d3;" horiz-adv-x="1280" 
d="M988 1772l-266 -269h-165l-265 269h141l207 -181l206 181h142zM157 1365h153v-803q0 -152 8 -211.5t35 -104.5q37 -63 113.5 -98.5t173.5 -35.5q119 0 206 53q103 64 118 217q5 50 5 180v803h153v-806q0 -163 -5.5 -217.5t-27.5 -110.5q-49 -122 -172 -191
q-113 -63 -277 -63q-242 0 -375 138q-87 91 -101 225q-7 59 -7 219v806z" />
    <glyph glyph-name="uni01D4" unicode="&#x1d4;" horiz-adv-x="1019" 
d="M145 971h142v-594q0 -145 34 -196q51 -78 166 -78q129 0 196 109q42 68 42 208v551h143v-676q0 -164 3 -203t20 -92h-141q-19 58 -20 130q-44 -82 -105 -118.5t-154 -36.5q-119 0 -202 58q-72 52 -98 123t-26 221v594zM822 1413l-232 -287h-165l-231 287h138l176 -193
l174 193h140z" />
    <glyph glyph-name="uni01DD" unicode="&#x1dd;" horiz-adv-x="995" 
d="M93 512h662q-4 156 -59 244q-73 119 -221 119q-81 0 -133 -34t-93 -113l-133 16q88 254 360 254q178 0 293 -116q133 -135 133 -384q0 -274 -148 -419q-106 -104 -269 -104q-203 0 -311 169q-82 128 -82 327q0 13 1 41zM242 399q9 -107 45 -177q66 -126 203 -126
q107 0 173.5 77t87.5 226h-509z" />
    <glyph glyph-name="Gcaron" unicode="&#x1e6;" horiz-adv-x="1273" 
d="M1024 1772l-266 -269h-164l-266 269h141l207 -181l206 181h142zM729 678h416v-561q-194 -141 -450 -141q-242 0 -386 141q-204 199 -204 572q0 358 197 555q145 145 367 145q231 0 360 -151q76 -89 98 -249h-142q-28 120 -86 180q-83 85 -232 85q-160 0 -256 -108
q-142 -162 -142 -459q0 -306 148 -466q101 -110 279 -110q163 0 311 89v346l-278 -1v133z" />
    <glyph glyph-name="gcaron" unicode="&#x1e7;" horiz-adv-x="989" 
d="M826 1412l-232 -286h-165l-232 286h139l176 -192l174 192h140zM945 971v-109l-199 4q84 -78 84 -222q0 -146 -94 -219q-61 -48 -223 -83q-110 -24 -148 -41q-57 -27 -57 -66q0 -30 33.5 -41t160.5 -23q141 -14 200 -26t106 -38q61 -32 95 -91t34 -132q0 -150 -132 -231
q-116 -70 -308 -70q-210 0 -333 86q-104 73 -104 195q0 87 48.5 143.5t156.5 94.5q-104 41 -104 113q0 50 39.5 85.5t133.5 71.5q-193 77 -193 280q0 164 117 257q93 74 239 74q72 0 152 -22zM494 868q-92 0 -151 -55q-64 -60 -64 -158q0 -91 56 -144q59 -56 152 -56
t150 54.5t57 144.5q0 87 -50 147q-58 67 -150 67zM487 39q-128 0 -204 -37q-92 -44 -92 -130q0 -77 84 -123.5t224 -46.5q163 0 243 62q55 43 55 108q0 81 -79.5 124t-230.5 43z" />
    <glyph glyph-name="uni01F4" unicode="&#x1f4;" horiz-adv-x="1273" 
d="M521 1497l283 280h205l-340 -280h-148zM729 678h416v-561q-194 -141 -450 -141q-242 0 -386 141q-204 199 -204 572q0 358 197 555q145 145 367 145q231 0 360 -151q76 -89 98 -249h-142q-28 120 -86 180q-83 85 -232 85q-160 0 -256 -108q-142 -162 -142 -459
q0 -306 148 -466q101 -110 279 -110q163 0 311 89v346l-278 -1v133z" />
    <glyph glyph-name="Aringacute" unicode="&#x1fa;" horiz-adv-x="1158" 
d="M512 1374h134l471 -1374h-159l-122 362h-514l-122 -362h-158zM794 495l-215 679l-215 -679h430zM585 1773q76 0 131 -55t55 -133q0 -79 -55 -134t-133 -55q-79 0 -134 55q-55 56 -55 133q0 79 55.5 134t135.5 55zM584 1685q-43 0 -72.5 -29t-29.5 -72q0 -41 29.5 -70.5
t71.5 -29.5q41 0 70.5 29.5t29.5 71.5q0 41 -29.5 70.5t-69.5 29.5zM300 1742l283 280h205l-340 -280h-148z" />
    <glyph glyph-name="AEacute" unicode="&#x1fc;" horiz-adv-x="1745" 
d="M824 1365h828v-133h-590v-459h542v-133h-542v-507h594v-133h-751v363h-488l-204 -363h-171zM905 496v734l-412 -734h412zM926 1497l283 280h205l-340 -280h-148z" />
    <glyph glyph-name="aeacute" unicode="&#x1fd;" horiz-adv-x="1579" 
d="M1486 465h-665q1 -157 57 -245q79 -123 232 -123q155 0 227 149l133 -16q-23 -86 -87 -151q-101 -104 -271 -104q-122 0 -215.5 55t-145.5 157q-46 -89 -101 -133q-96 -79 -238 -79q-125 0 -213 62q-103 72 -103 204q0 161 150.5 248.5t426.5 88.5v61q0 128 -31 172
q-44 65 -155 65q-178 0 -224 -171h-137q17 119 92 194q99 99 273 99q237 0 298 -169q48 71 97 106q86 63 207 63q185 0 294 -143q100 -131 100 -359q0 -7 -1 -31zM1328 577q-8 123 -50 192q-67 108 -190 108q-104 0 -173 -79t-88 -221h501zM673 466h-26q-110 0 -202 -22
q-201 -47 -201 -196q0 -69 50 -111t132 -42q142 0 209 114q38 65 38 190v67zM710 1120l212 280h206l-298 -280h-120z" />
    <glyph glyph-name="Oslashacute" unicode="&#x1fe;" horiz-adv-x="1323" 
d="M1003 1259l79 106h127l-133 -186q142 -204 142 -509q0 -238 -97 -414q-88 -162 -245 -232q-104 -47 -218 -47q-99 0 -173 29t-168 104l-79 -110h-125l130 188q-44 77 -70 134q-68 155 -68 361q0 365 200 558q152 148 362 148q93 0 164.5 -27.5t171.5 -102.5zM914 1140
q-100 115 -258 115q-166 0 -263 -136q-124 -173 -124 -433q0 -203 76 -367zM406 227q64 -64 119 -90t130 -26q114 0 204 64q98 70 151 223q44 129 44 280q0 220 -78 368zM560 1497l283 280h205l-340 -280h-148z" />
    <glyph glyph-name="oslashacute" unicode="&#x1ff;" horiz-adv-x="1032" 
d="M179 154q-87 134 -87 321q0 257 148 408q113 115 278 115q81 0 141 -23.5t134 -84.5l69 79h116l-124 -152q6 -11 9 -17q44 -82 60.5 -147.5t16.5 -160.5q0 -257 -148 -403q-115 -114 -279 -114q-78 0 -151.5 28t-118.5 74l-68 -77h-120zM278 268l427 519q-86 88 -185 88
q-113 0 -186 -90q-94 -117 -94 -312q0 -110 38 -205zM755 699l-424 -519q26 -36 77 -59t105 -23q112 0 185 89q94 115 94 309q0 114 -37 203zM438 1120l212 280h205l-297 -280h-120z" />
    <glyph glyph-name="Scommaaccent" unicode="&#x218;" horiz-adv-x="1121" 
d="M967 1012h-149q-9 102 -62 161q-72 81 -203 81q-101 0 -168 -50q-82 -62 -82 -158q0 -88 82 -144q47 -31 243 -119q131 -59 195.5 -98.5t101.5 -82.5q82 -97 82 -236q0 -193 -149 -303q-118 -86 -297 -86q-247 0 -369 158q-78 101 -88 281h150q9 -133 70 -205
q84 -99 243 -99q122 0 202 66q80 65 80 169q0 100 -82 169q-51 43 -212 115q-210 93 -280 148q-126 99 -126 255q0 168 133 269q113 86 278 86q228 0 339 -155q61 -84 68 -222zM531 -513h-94q106 104 123 203q-9 -1 -14 -1q-39 0 -67.5 28.5t-28.5 68.5q0 44 31.5 74.5
t77.5 30.5q51 0 83 -37.5t32 -96.5q0 -120 -143 -270z" />
    <glyph glyph-name="scommaaccent" unicode="&#x219;" horiz-adv-x="897" 
d="M432 -508h-93q104 103 121 200q-9 -1 -13 -1q-40 0 -68 28t-28 68q0 44 31 74t76 30q51 0 82.5 -37t31.5 -97q0 -120 -140 -265zM793 704h-139q-10 83 -48 122q-51 52 -150 52q-83 0 -134.5 -40.5t-51.5 -105.5q0 -60 43.5 -91.5t181.5 -72.5q116 -34 170.5 -59.5
t85.5 -59.5q58 -65 58 -170q0 -133 -86 -215q-94 -89 -265 -89q-177 0 -272 84.5t-95 242.5l138 -1q19 -206 226 -206q94 0 150 46.5t56 124.5q0 74 -61 113q-36 23 -217 78q-147 45 -200 103q-59 65 -59 163q0 132 102 206q94 69 231 69q155 0 241.5 -76t94.5 -218z" />
    <glyph glyph-name="uni021A" unicode="&#x21a;" horiz-adv-x="948" 
d="M43 1365h863v-133h-355v-1232h-153v1232h-355v133zM440 -513h-94q106 104 123 203q-9 -1 -14 -1q-40 0 -68 28.5t-28 69.5q0 43 31.5 73.5t76.5 30.5q52 0 84 -37.5t32 -96.5q0 -121 -143 -270z" />
    <glyph glyph-name="uni021B" unicode="&#x21b;" horiz-adv-x="642" 
d="M345 971h231l-2 -116h-231l-9 -493q-2 -149 6 -185q15 -72 102 -72q67 0 141 34l-2 -127q-86 -32 -171 -32q-147 0 -199 89q-26 43 -26 141q0 30 4 156l12 489h-147l2 116h148l6 280h140zM315 -508h-93q104 102 121 200q-9 -1 -12 -1q-40 0 -68 28t-28 69q0 43 31 73
t76 30q51 0 82.5 -37t31.5 -97q0 -119 -141 -265z" />
    <glyph glyph-name="uni0226" unicode="&#x226;" horiz-adv-x="1158" 
d="M512 1374h134l471 -1374h-159l-122 362h-514l-122 -362h-158zM794 495l-215 679l-215 -679h430zM581 1766q52 0 89.5 -38t37.5 -90q0 -54 -37.5 -91.5t-90.5 -37.5q-54 0 -91.5 37.5t-37.5 90.5q0 54 38 91.5t92 37.5z" />
    <glyph glyph-name="uni0227" unicode="&#x227;" horiz-adv-x="974" 
d="M496 1376q44 0 75.5 -31.5t31.5 -75.5q0 -45 -31.5 -76.5t-76.5 -31.5t-76.5 31.5t-31.5 75.5q0 46 31.5 77t77.5 31zM272 716h-143q14 124 88 193q96 89 276 89q153 0 243 -70q53 -41 71 -103t18 -206v-364q-1 -178 27 -255h-137q-16 59 -21 131q-85 -156 -285 -156
q-130 0 -213 64q-100 78 -100 216q0 207 226 291q125 47 363 86v41q0 101 -33 142q-49 61 -165 61q-185 0 -215 -160zM685 526q-211 -38 -306 -82q-135 -63 -135 -179q0 -76 52 -123t135 -47q146 0 214 115q40 68 40 219v97z" />
    <glyph glyph-name="uni0237" unicode="&#x237;" horiz-adv-x="515" 
d="M215 971h151v-886q0 -163 -13 -232.5t-54 -121.5q-88 -114 -306 -114q-15 0 -49 1v126q21 -1 35 -1q157 0 205 84q19 32 25 83.5t6 173.5v887z" />
    <glyph glyph-name="uni0259" unicode="&#x259;" horiz-adv-x="995" 
d="M93 512h662q-4 156 -59 244q-73 119 -221 119q-81 0 -133 -34t-93 -113l-133 16q88 254 360 254q178 0 293 -116q133 -135 133 -384q0 -274 -148 -419q-106 -104 -269 -104q-203 0 -311 169q-82 128 -82 327q0 13 1 41zM242 399q9 -107 45 -177q66 -126 203 -126
q107 0 173.5 77t87.5 226h-509z" />
    <glyph glyph-name="afii57929" unicode="&#x2bc;" horiz-adv-x="457" 
d="M197 927h-125q124 122 145 239h-16q-43 0 -74 31.5t-31 75.5q0 49 34.5 82.5t84.5 33.5q57 0 92 -41.5t35 -108.5q0 -142 -145 -312z" />
    <glyph glyph-name="circumflex" unicode="&#x2c6;" 
d="M198 1126l232 287h164l232 -287h-139l-175 193l-175 -193h-139z" />
    <glyph glyph-name="caron" unicode="&#x2c7;" 
d="M826 1413l-232 -287h-164l-232 287h139l175 -193l175 193h139z" />
    <glyph glyph-name="uni02C9" unicode="&#x2c9;" 
d="M233 1320h559v-109h-559v109z" />
    <glyph glyph-name="breve" unicode="&#x2d8;" 
d="M260 1396h85q19 -75 63.5 -117t105.5 -42q123 0 165 159h85q-8 -80 -38 -139q-69 -137 -210 -137q-144 0 -217 138q-31 59 -39 138z" />
    <glyph glyph-name="dotaccent" unicode="&#x2d9;" 
d="M513 1376q44 0 75.5 -31.5t31.5 -75.5q0 -45 -31.5 -76.5t-76.5 -31.5t-76.5 31.5t-31.5 75.5q0 46 31.5 77t77.5 31z" />
    <glyph glyph-name="ring" unicode="&#x2da;" 
d="M514 1469q76 0 132 -55q55 -55 55 -133t-55.5 -133.5t-133.5 -55.5t-133 55q-56 56 -56 133q0 79 55.5 134t135.5 55zM513 1381q-43 0 -72.5 -29t-29.5 -71t29.5 -71.5t71.5 -29.5t71.5 29.5t29.5 71.5q0 41 -29.5 70.5t-70.5 29.5z" />
    <glyph glyph-name="ogonek" unicode="&#x2db;" 
d="M627 0h148q-195 -85 -195 -180q0 -41 30.5 -66t80.5 -25q41 0 83 15v-91q-59 -21 -121 -21q-102 0 -157 61q-44 48 -44 111q0 133 175 196z" />
    <glyph glyph-name="tilde" unicode="&#x2dc;" 
d="M289 1145l-83 19q41 213 174 213q58 0 138 -53q89 -58 125 -58q67 0 91 119l83 -20q-11 -89 -48 -146q-47 -74 -121 -74q-58 0 -149 58q-87 54 -120 54q-65 0 -90 -112z" />
    <glyph glyph-name="hungarumlaut" unicode="&#x2dd;" 
d="M335 1119l184 280h171l-237 -280h-118zM584 1119l183 280h171l-236 -280h-118z" />
    <glyph glyph-name="uni037E" unicode="&#x37e;" horiz-adv-x="489" 
d="M232 970q48 0 82.5 -34.5t34.5 -83.5q0 -48 -35 -82.5t-84 -34.5t-83.5 34.5t-34.5 82.5q0 49 35 83.5t85 34.5zM199 -299h-129q142 149 165 298q-11 -1 -16 -1q-45 0 -77 33t-32 79q0 50 36 85t88 35q59 0 95 -44t36 -115q0 -162 -166 -370z" />
    <glyph glyph-name="tonos" unicode="&#x384;" horiz-adv-x="290" 
d="M197 1093h-105l-24 354h153z" />
    <glyph glyph-name="dieresistonos" unicode="&#x385;" horiz-adv-x="830" 
d="M467 1093h-105l-24 354h153zM177 1376q44 0 75 -31.5t31 -75.5q0 -45 -31.5 -76.5t-75.5 -31.5q-45 0 -76.5 31.5t-31.5 75.5q0 46 31.5 77t77.5 31zM656 1376q43 0 74.5 -31.5t31.5 -75.5q0 -45 -31.5 -76.5t-76.5 -31.5t-76.5 31.5t-31.5 75.5q0 46 31.5 77t78.5 31z
" />
    <glyph glyph-name="Alphatonos" unicode="&#x386;" horiz-adv-x="1171" 
d="M525 1374h134l471 -1374h-159l-122 362h-514l-122 -362h-158zM807 495l-215 679l-215 -679h430zM266 1093h-106l-23 354h153z" />
    <glyph glyph-name="uni0387" unicode="&#x387;" horiz-adv-x="523" 
d="M262 630q49 0 83.5 -34.5t34.5 -83.5q0 -48 -35 -82.5t-84 -34.5t-83.5 34.5t-34.5 82.5q0 50 34.5 84t84.5 34z" />
    <glyph glyph-name="Epsilontonos" unicode="&#x388;" horiz-adv-x="1099" 
d="M400 774h554v-133h-554v-508h610v-133h-763v1365h751v-133h-598v-458zM129 1093h-105l-24 354h153z" />
    <glyph glyph-name="Etatonos" unicode="&#x389;" horiz-adv-x="1370" 
d="M400 778h642v587h153v-1365h-153v651h-642v-651h-153v1365h153v-587zM129 1093h-105l-24 354h153z" />
    <glyph glyph-name="Iotatonos" unicode="&#x38a;" horiz-adv-x="575" 
d="M402 0h-157v1365h157v-1365zM129 1093h-105l-24 354h153z" />
    <glyph glyph-name="Omicrontonos" unicode="&#x38c;" horiz-adv-x="1347" 
d="M685 1389q237 0 391 -182q165 -197 165 -524q0 -326 -165 -524q-152 -182 -390 -182q-240 0 -392 182q-165 199 -165 534q0 214 79 380q82 172 233 254q112 62 244 62zM685 1254q-179 0 -282 -152q-110 -162 -110 -412q0 -264 110 -427q103 -152 283 -152q111 0 200 67
q91 68 141 200.5t50 304.5q0 260 -110 419q-105 152 -282 152zM129 1093h-105l-24 354h153z" />
    <glyph glyph-name="Upsilontonos" unicode="&#x38e;" horiz-adv-x="1200" 
d="M175 1365h176l327 -638l323 638h175l-426 -792l2 -573h-153l2 573zM115 1093h-105l-24 354h153z" />
    <glyph glyph-name="Omegatonos" unicode="&#x38f;" horiz-adv-x="1360" 
d="M129 1093h-105l-24 354h153zM770 251q59 9 107 32q124 59 186 194q51 110 51 260q0 233 -118 379q-111 138 -302 138t-302 -138q-118 -145 -118 -379q0 -222 112 -357q90 -107 233 -129v-251h-509v133h383v39q-97 30 -164 79q-219 162 -219 495q0 301 174 478
q162 165 411 165q247 0 410 -165q173 -177 173 -478q0 -222 -97.5 -369t-285.5 -205v-39h383v-133h-508v251z" />
    <glyph glyph-name="iotadieresistonos" unicode="&#x390;" horiz-adv-x="452" 
d="M150 971h151v-971h-151v971zM278 1093h-105l-24 354h153zM-12 1376q44 0 75 -31.5t31 -75.5q0 -45 -31.5 -76.5t-75.5 -31.5q-45 0 -76.5 31.5t-31.5 75.5q0 46 31.5 77t77.5 31zM467 1376q43 0 74.5 -31.5t31.5 -75.5q0 -45 -31.5 -76.5t-76.5 -31.5t-76.5 31.5
t-31.5 75.5q0 46 31.5 77t78.5 31z" />
    <glyph glyph-name="Alpha" unicode="&#x391;" horiz-adv-x="1158" 
d="M512 1374h134l471 -1374h-159l-122 362h-514l-122 -362h-158zM794 495l-215 679l-215 -679h430z" />
    <glyph glyph-name="Beta" unicode="&#x392;" horiz-adv-x="1125" 
d="M176 1365h248q238 0 335 -33q107 -37 164 -127q47 -76 47 -180q0 -228 -226 -298q297 -74 297 -347q0 -176 -114 -279q-70 -62 -168.5 -81.5t-344.5 -19.5h-238v1365zM327 777h129q179 0 257 43q102 56 102 194q0 70 -32.5 122t-90.5 74q-67 25 -244 25h-121v-458z
M327 130h137q123 0 186 7.5t109 27.5q56 23 88 83.5t32 140.5q0 85 -41.5 147t-114.5 87q-76 25 -259 25h-137v-518z" />
    <glyph glyph-name="Gamma" unicode="&#x393;" horiz-adv-x="959" 
d="M176 0v1365h742v-133h-584v-1232h-158z" />
    <glyph glyph-name="uni0394" unicode="&#x394;" horiz-adv-x="1102" 
d="M14 0l470 1374h134l471 -1374h-1075zM887 133l-336 1041l-336 -1041h672z" />
    <glyph glyph-name="Epsilon" unicode="&#x395;" horiz-adv-x="1027" 
d="M329 774h554v-133h-554v-508h610v-133h-763v1365h751v-133h-598v-458z" />
    <glyph glyph-name="Zeta" unicode="&#x396;" horiz-adv-x="1009" 
d="M107 1365h839v-106l-703 -1126h689v-133h-869v119l696 1114h-652v132z" />
    <glyph glyph-name="Eta" unicode="&#x397;" horiz-adv-x="1299" 
d="M329 778h642v587h153v-1365h-153v651h-642v-651h-153v1365h153v-587z" />
    <glyph glyph-name="Theta" unicode="&#x398;" horiz-adv-x="1323" 
d="M662 1389q237 0 391 -182q165 -197 165 -524q0 -326 -165 -524q-152 -182 -390 -182q-241 0 -393 182q-165 198 -165 534q0 214 79 380q83 172 233 254q112 62 245 62zM662 1254q-180 0 -283 -152q-110 -162 -110 -412q0 -264 110 -427q103 -152 283 -152q112 0 201 67
q91 68 141 200.5t50 304.5q0 260 -110 419q-106 152 -282 152zM424 752h474v-127h-474v127z" />
    <glyph glyph-name="Iota" unicode="&#x399;" horiz-adv-x="504" 
d="M331 0h-157v1365h157v-1365z" />
    <glyph glyph-name="Kappa" unicode="&#x39a;" horiz-adv-x="1143" 
d="M885 1365h185l-557 -645l611 -720h-210l-582 716zM176 1365h153v-1365h-153v1365z" />
    <glyph glyph-name="Lambda" unicode="&#x39b;" horiz-adv-x="1135" 
d="M1114 0h-162l-389 1187l-384 -1187h-159l470 1374h155z" />
    <glyph glyph-name="Mu" unicode="&#x39c;" horiz-adv-x="1583" 
d="M176 1365h232l383 -1196l384 1196h232v-1365h-146v1211l-392 -1211h-155l-392 1211v-1211h-146v1365z" />
    <glyph glyph-name="Nu" unicode="&#x39d;" horiz-adv-x="1317" 
d="M176 1365h166l656 -1136v1136h143v-1365h-167l-653 1133v-1133h-145v1365z" />
    <glyph glyph-name="Xi" unicode="&#x39e;" horiz-adv-x="1047" 
d="M131 641v133h784v-133h-784zM75 0v133h896v-133h-896zM87 1232v133h872v-133h-872z" />
    <glyph glyph-name="Omicron" unicode="&#x39f;" horiz-adv-x="1323" 
d="M662 1389q237 0 391 -182q165 -197 165 -524q0 -326 -165 -524q-152 -182 -390 -182q-241 0 -393 182q-165 198 -165 534q0 214 79 380q83 172 233 254q112 62 245 62zM662 1254q-180 0 -283 -152q-110 -162 -110 -412q0 -264 110 -427q103 -152 283 -152q112 0 201 67
q91 68 141 200.5t50 304.5q0 260 -110 419q-106 152 -282 152z" />
    <glyph glyph-name="Pi" unicode="&#x3a0;" horiz-adv-x="1299" 
d="M329 1238v-1238h-153v1365h948v-1365h-153v1238h-642z" />
    <glyph glyph-name="Rho" unicode="&#x3a1;" horiz-adv-x="1077" 
d="M176 1365h226q266 0 376 -37q121 -40 188 -154q54 -91 54 -218q0 -166 -93 -269q-69 -77 -171 -103.5t-327 -26.5h-100v-557h-153v1365zM329 690h97q175 0 254 19q178 41 178 248q0 88 -37 152t-103 90q-50 20 -110 26.5t-199 6.5h-80v-542z" />
    <glyph glyph-name="Sigma" unicode="&#x3a3;" horiz-adv-x="952" 
d="M521 678l-450 581v106h839v-132h-622l410 -549l-469 -551h667v-133h-869v119z" />
    <glyph glyph-name="Tau" unicode="&#x3a4;" horiz-adv-x="948" 
d="M43 1365h863v-133h-355v-1232h-153v1232h-355v133z" />
    <glyph glyph-name="Upsilon" unicode="&#x3a5;" horiz-adv-x="1048" 
d="M24 1365h176l327 -638l323 638h175l-426 -792l2 -573h-153l2 573z" />
    <glyph glyph-name="Phi" unicode="&#x3a6;" horiz-adv-x="1427" 
d="M784 1228q196 -12 321 -88q122 -75 188 -196q64 -118 64 -269q0 -203 -114 -345q-152 -189 -459 -208v-122h-143v122q-196 12 -321 88q-122 74 -188 196q-64 118 -64 269q0 202 114 344q153 190 459 209v137h143v-137zM641 1104q-145 -8 -236 -66q-96 -59 -146 -166
q-44 -93 -44 -197q0 -145 81 -260q56 -80 136 -119.5t209 -49.5v858zM784 1104v-858q143 8 236 66q96 59 146 166q43 92 43 198q0 146 -80 259q-109 155 -345 169z" />
    <glyph glyph-name="Chi" unicode="&#x3a7;" horiz-adv-x="1112" 
d="M65 1365h177l316 -524l318 524h177l-406 -651l427 -714h-175l-341 572l-343 -572h-174l428 714z" />
    <glyph glyph-name="Psi" unicode="&#x3a8;" horiz-adv-x="1249" 
d="M703 295v-295h-157v295q-158 0 -273 64q-166 92 -195 277q-10 59 -10 242v487h153v-485q0 -166 13 -234q18 -99 101 -156.5t211 -59.5v935h157v-935q159 3 245 88q50 49 65 117t15 245v485h153v-487q0 -190 -13 -263t-60 -139q-129 -182 -405 -181z" />
    <glyph glyph-name="uni03A9" unicode="&#x3a9;" horiz-adv-x="1331" 
d="M741 251q59 9 107 32q124 59 187 194q51 110 51 260q0 233 -118 379q-111 138 -302 138t-302 -138q-118 -146 -118 -379q0 -222 112 -357q89 -108 232 -129v-251h-508v133h383v39q-98 31 -164 79q-219 162 -219 495q0 301 173 478q162 165 411 165q248 0 410 -165
q174 -177 174 -478q0 -222 -98 -368.5t-285 -205.5v-39h383v-133h-509v251z" />
    <glyph glyph-name="Iotadieresis" unicode="&#x3aa;" horiz-adv-x="504" 
d="M330 0h-157v1365h157v-1365zM106 1750q46 0 79 -33.5t33 -79.5q0 -47 -33 -80t-80 -33t-80 33t-33 80t33 80t81 33zM401 1750q45 0 78 -33.5t33 -79.5q0 -47 -33 -80t-80 -33t-80 33t-33 80t33 80t82 33z" />
    <glyph glyph-name="Upsilondieresis" unicode="&#x3ab;" horiz-adv-x="1048" 
d="M344 1754q47 0 80.5 -34.5t33.5 -81.5q0 -49 -34 -83t-82 -34t-82 34t-34 82q0 49 34 83t84 34zM708 1754q47 0 81 -34.5t34 -81.5q0 -49 -34 -83t-82 -34t-82 34t-34 82q0 49 34 83t83 34zM24 1365h176l327 -638l323 638h175l-426 -792l2 -573h-153l2 573z" />
    <glyph glyph-name="alphatonos" unicode="&#x3ac;" horiz-adv-x="1111" 
d="M601 1093h-105l-24 354h153zM841 249q-19 -54 -58 -115q-53 -85 -121 -121q-69 -38 -166 -38q-168 0 -271 118q-133 150 -133 393t130 391q107 121 283 121q170 0 262 -117q38 -49 76 -143l39 233h143l-100 -485l111 -486h-144zM788 486q-53 190 -95 268
q-67 121 -190 121q-114 0 -182 -95q-81 -113 -81 -296q0 -170 73 -279q72 -107 184 -107q127 0 201 148q37 75 90 240z" />
    <glyph glyph-name="epsilontonos" unicode="&#x3ad;" horiz-adv-x="929" 
d="M829 655h-143q-20 122 -69 171.5t-151 49.5q-83 0 -130 -37q-60 -48 -60 -130q0 -80 59.5 -122.5t170.5 -42.5h44v-116q-61 1 -82 1q-67 0 -108 -12q-105 -31 -105 -148q0 -81 57 -126t161 -45q70 0 114 23t71 76q27 50 36 137h143q-29 -359 -370 -359q-182 0 -277 92
q-81 78 -81 195q0 178 187 228q-165 62 -165 226q0 130 90 206.5t241 76.5q334 0 367 -344zM517 1093h-105l-24 354h153z" />
    <glyph glyph-name="etatonos" unicode="&#x3ae;" horiz-adv-x="1031" 
d="M126 971h136q19 -57 19 -141q99 168 297 168q130 0 212 -68q79 -67 92 -188q5 -48 5 -184v-961h-143v952q0 169 -25 225q-45 96 -171 96q-138 0 -211 -115q-47 -75 -47 -213v-542h-142v640q0 179 -3 221.5t-19 109.5zM568 1093h-105l-24 354h153z" />
    <glyph glyph-name="iotatonos" unicode="&#x3af;" horiz-adv-x="452" 
d="M150 971h151v-971h-151v971zM278 1093h-105l-24 354h153z" />
    <glyph glyph-name="upsilondieresistonos" unicode="&#x3b0;" horiz-adv-x="1013" 
d="M868 971v-622q0 -148 -62 -239q-44 -64 -120 -98q-82 -37 -179 -37q-173 0 -267.5 97.5t-94.5 276.5v622h142v-622q0 -111 38 -166q27 -39 76.5 -62t105.5 -23q61 0 113.5 27.5t76.5 73.5q29 52 29 150v622h142zM559 1093h-105l-24 354h153zM269 1376q44 0 75 -31.5
t31 -75.5q0 -45 -31.5 -76.5t-75.5 -31.5q-45 0 -76.5 31.5t-31.5 75.5q0 46 31.5 77t77.5 31zM747 1376q44 0 75.5 -31.5t31.5 -75.5q0 -45 -31.5 -76.5t-76.5 -31.5t-76.5 31.5t-31.5 75.5q0 46 31.5 77t77.5 31z" />
    <glyph glyph-name="alpha" unicode="&#x3b1;" horiz-adv-x="1111" 
d="M841 249q-19 -54 -58 -115q-53 -85 -121 -121q-69 -38 -166 -38q-168 0 -271 118q-133 150 -133 393t130 391q107 121 283 121q170 0 262 -117q38 -49 76 -143l39 233h143l-100 -485l111 -486h-144zM788 486q-53 190 -95 268q-67 121 -190 121q-114 0 -182 -95
q-81 -113 -81 -296q0 -170 73 -279q72 -107 184 -107q127 0 201 148q37 75 90 240z" />
    <glyph glyph-name="beta" unicode="&#x3b2;" horiz-adv-x="1040" 
d="M151 -403v1290q0 135 11.5 198.5t45.5 122.5q108 183 342 183q172 0 270 -96q100 -98 100 -263q0 -125 -54.5 -203.5t-159.5 -105.5q99 -27 153 -87q89 -100 89 -262q0 -188 -108 -299q-99 -101 -250 -101q-192 0 -296 160v-537h-143zM508 659v116q20 -1 30 -1
q101 0 160 67.5t59 183.5q0 112 -60.5 178t-162.5 66q-124 0 -185 -90q-33 -49 -44.5 -110t-11.5 -183l1 -342q1 -223 54 -314q35 -62 94 -97t127 -35q78 0 136 46q95 77 95 238q0 172 -113 242q-55 35 -179 35z" />
    <glyph glyph-name="gamma" unicode="&#x3b3;" horiz-adv-x="867" 
d="M505 -12v-391h-143v361l-348 1013h153l263 -809l273 809h150z" />
    <glyph glyph-name="delta" unicode="&#x3b4;" horiz-adv-x="1032" 
d="M513 979l-315 280v106h685v-119h-483l337 -307q202 -185 202 -451q0 -249 -137 -392q-116 -121 -286 -121q-171 0 -287 121q-137 143 -137 395q0 246 133 380q108 109 252 109q13 0 36 -1zM516 875q-119 0 -191 -95q-85 -113 -85 -288q0 -186 85 -299q71 -95 191 -95
q119 0 190 95q85 113 85 293q0 183 -85 294q-73 95 -190 95z" />
    <glyph glyph-name="epsilon" unicode="&#x3b5;" horiz-adv-x="929" 
d="M679 693q-23 101 -71 142t-142 41q-83 0 -130 -37q-60 -48 -60 -130q0 -79 59.5 -122t170.5 -43q6 0 44 1v-116h-82q-68 0 -108 -12q-105 -31 -105 -148q0 -81 57 -126t161 -45q95 0 143.5 42.5t70.5 144.5l142 -17q-22 -90 -48.5 -138t-73.5 -85q-91 -70 -240 -70
q-182 0 -277 92q-81 78 -81 195q0 179 187 228q-165 63 -165 226q0 130 90 206.5t241 76.5q160 0 251 -81q44 -39 67 -82.5t42 -124.5z" />
    <glyph glyph-name="zeta" unicode="&#x3b6;" horiz-adv-x="719" 
d="M783 1252q-250 -189 -374 -343q-169 -210 -169 -439q0 -219 110 -321q71 -65 219 -80q95 -9 139 -29q80 -36 80 -127q0 -56 -28 -128t-96 -188h-141q87 163 104 201.5t17 73.5q0 56 -35 74q-16 9 -87 18l-34 5q-139 18 -212 68q-88 60 -136 173.5t-48 260.5
q0 197 111 374q122 195 405 407h-458v113h633v-113z" />
    <glyph glyph-name="eta" unicode="&#x3b7;" horiz-adv-x="1031" 
d="M126 971h136q19 -57 19 -141q99 168 297 168q130 0 212 -68q79 -67 92 -188q5 -48 5 -184v-961h-143v952q0 169 -25 225q-45 96 -171 96q-138 0 -211 -115q-47 -75 -47 -213v-542h-142v640q0 179 -3 221.5t-19 109.5z" />
    <glyph glyph-name="theta" unicode="&#x3b8;" horiz-adv-x="1032" 
d="M241 743h550q-7 175 -51 302q-77 226 -224 226q-163 0 -238 -269q-31 -111 -37 -259zM791 627h-550q7 -178 50 -304q77 -226 225 -226q163 0 238 268q31 111 37 262zM516 1393q116 0 214 -85q107 -92 162 -273q48 -156 48 -350q0 -333 -137 -540q-52 -79 -133 -126
q-71 -42 -154 -42q-116 0 -214 85q-105 90 -162 273q-48 155 -48 359q0 157 36 295.5t101 235.5q53 80 133 126q72 42 154 42z" />
    <glyph glyph-name="iota" unicode="&#x3b9;" horiz-adv-x="452" 
d="M150 971h151v-971h-151v971z" />
    <glyph glyph-name="kappa" unicode="&#x3ba;" horiz-adv-x="965" 
d="M706 971h173l-405 -437l436 -534h-198l-416 529zM150 971h143v-971h-143v971z" />
    <glyph glyph-name="lambda" unicode="&#x3bb;" horiz-adv-x="860" 
d="M365 989l-139 376h151l476 -1365h-153l-263 808l-273 -808h-150z" />
    <glyph glyph-name="uni03BC" unicode="&#x3bc;" horiz-adv-x="1019" 
d="M287 22v-425h-142v1374h142v-594q0 -145 34 -196q51 -78 166 -78q129 0 196 109q42 68 42 208v551h143v-676q0 -164 3 -203t20 -92h-141q-19 58 -20 130q-43 -81 -104.5 -118t-154.5 -37q-105 0 -184 47z" />
    <glyph glyph-name="nu" unicode="&#x3bd;" horiz-adv-x="883" 
d="M21 971h150l271 -815l271 815h148l-343 -983h-153z" />
    <glyph glyph-name="xi" unicode="&#x3be;" horiz-adv-x="788" 
d="M759 1249h-110q-118 0 -166.5 -9.5t-92.5 -41.5q-89 -64 -89 -167q0 -104 108 -157q81 -41 144 -41h79v-116h-83q-129 0 -194 -49q-106 -80 -106 -259q0 -92 37.5 -170t102.5 -117q62 -39 179 -51q96 -9 140 -29q80 -36 80 -129q0 -61 -29 -130.5t-102 -185.5h-141
q79 134 103 187.5t24 100.5q0 44 -32 61q-17 8 -88 17l-34 5q-139 18 -212 68q-81 55 -130.5 156t-49.5 213q0 93 30.5 174t83.5 129q60 55 157 74q-40 3 -66 13.5t-60 38.5q-81 66 -81 183q0 75 35 127t121 105h-185v116h627v-116z" />
    <glyph glyph-name="omicron" unicode="&#x3bf;" horiz-adv-x="1032" 
d="M516 998q170 0 287 -121q137 -142 137 -391q0 -247 -137 -390q-116 -121 -286 -121q-174 0 -288 121q-137 145 -137 398q0 112 36 213t101 170q114 121 287 121zM516 875q-119 0 -191 -95q-85 -113 -85 -288q0 -186 85 -299q72 -95 191 -95t191 95q85 113 85 293
q0 183 -85 294q-73 95 -191 95z" />
    <glyph glyph-name="pi" unicode="&#x3c0;" horiz-adv-x="1023" 
d="M710 852h-398v-852h-142v852h-150v119h982v-119h-150v-852h-142v852z" />
    <glyph glyph-name="rho" unicode="&#x3c1;" horiz-adv-x="1026" 
d="M137 -403v861q0 113 11 173q36 190 172 293q98 74 229 74q141 0 234 -90q152 -149 152 -425q0 -262 -138 -409q-94 -99 -237 -99q-176 0 -280 159v-537h-143zM539 873q-110 0 -174 -85q-88 -115 -88 -304q0 -184 84 -293q70 -91 179 -91q105 0 163 77q84 111 84 303
q0 207 -93 322q-57 71 -155 71z" />
    <glyph glyph-name="uni03C2" unicode="&#x3c2;" horiz-adv-x="921" 
d="M852 655h-142q-16 94 -46 140q-52 80 -164 80q-116 0 -179 -89q-81 -114 -81 -302q0 -225 110 -327q70 -65 219 -80q95 -10 139 -29q80 -36 80 -130q0 -119 -121 -320h-142q78 147 99 198t21 95t-32 61q-17 8 -88 17l-35 5q-139 18 -212 68q-186 125 -186 442
q0 269 149 415q101 99 263 99q153 0 242.5 -88.5t105.5 -254.5z" />
    <glyph glyph-name="sigma" unicode="&#x3c3;" horiz-adv-x="1038" 
d="M1020 971v-116q-54 0 -216 6q62 -52 99 -155t37 -224q0 -241 -137 -386q-114 -121 -287 -121t-287 121q-137 145 -137 390q0 192 86 327q56 86 144.5 135.5t187.5 49.5q34 0 153 -13q144 -15 357 -14zM516 875q-119 0 -191 -95q-85 -113 -85 -299q0 -175 85 -288
q72 -95 191 -95t191 95q85 113 85 293q0 183 -85 294q-73 95 -191 95z" />
    <glyph glyph-name="tau" unicode="&#x3c4;" horiz-adv-x="753" 
d="M746 971v-119h-294v-852h-151v852h-294v119h739z" />
    <glyph glyph-name="upsilon" unicode="&#x3c5;" horiz-adv-x="1013" 
d="M868 971v-622q0 -148 -62 -239q-44 -64 -120 -98q-82 -37 -179 -37q-173 0 -267.5 97.5t-94.5 276.5v622h142v-622q0 -111 38 -166q27 -39 76.5 -62t105.5 -23q61 0 113.5 27.5t76.5 73.5q29 52 29 150v622h142z" />
    <glyph glyph-name="phi" unicode="&#x3c6;" horiz-adv-x="1238" 
d="M556 96v902q43 1 67 1q197 0 313 -78q100 -68 155 -180q55 -113 55 -255q0 -218 -120.5 -355t-326.5 -154v-380h-143v379q-160 13 -254 76q-100 68 -155 180q-55 113 -55 255q0 145 56.5 258t165.5 183l66 -80q-33 -37 -46 -52q-101 -127 -101 -306q0 -172 85 -275.5
t238 -118.5zM699 98q89 11 154 54q72 49 112 137t40 198q0 162 -83 267.5t-223 121.5v-778z" />
    <glyph glyph-name="chi" unicode="&#x3c7;" horiz-adv-x="847" 
d="M502 328l352 -731h-155l-273 580l-279 -580h-154l356 734l-306 640h150l232 -489l234 489h156z" />
    <glyph glyph-name="psi" unicode="&#x3c8;" horiz-adv-x="1318" 
d="M736 -25v-378h-143v378q-206 4 -321 106q-127 113 -127 336v554h142v-553q0 -175 90 -247q90 -71 216 -73v873h143v-873q148 9 221.5 88.5t73.5 231.5v553h142v-554q0 -422 -437 -442z" />
    <glyph glyph-name="omega" unicode="&#x3c9;" horiz-adv-x="1238" 
d="M883 860l66 108q51 -31 81 -69q119 -153 119 -415q0 -258 -110 -402q-80 -107 -207 -107q-138 0 -213 124q-75 -124 -213 -124q-126 0 -207 107q-110 144 -110 403q0 353 200 483l66 -109q-47 -35 -69 -84q-51 -116 -51 -288q0 -184 45.5 -287t127.5 -103q86 0 123 101
q25 67 25 169v212h126v-212q0 -131 38 -200.5t110 -69.5q66 0 101 55q72 113 72 333q0 286 -120 375z" />
    <glyph glyph-name="iotadieresis" unicode="&#x3ca;" horiz-adv-x="452" 
d="M150 971h151v-971h-151v971zM85 1376q44 0 75 -31.5t31 -75.5q0 -45 -31.5 -76.5t-75.5 -31.5q-45 0 -76.5 31.5t-31.5 75.5q0 46 31.5 77t77.5 31zM369 1376q44 0 75.5 -31.5t31.5 -75.5q0 -45 -31.5 -76.5t-76.5 -31.5t-76.5 31.5t-31.5 75.5q0 46 31.5 77t77.5 31z
" />
    <glyph glyph-name="upsilondieresis" unicode="&#x3cb;" horiz-adv-x="1013" 
d="M868 971v-622q0 -148 -62 -239q-44 -64 -120 -98q-82 -37 -179 -37q-173 0 -267.5 97.5t-94.5 276.5v622h142v-622q0 -111 38 -166q27 -39 76.5 -62t105.5 -23q61 0 113.5 27.5t76.5 73.5q29 52 29 150v622h142zM333 1376q44 0 75 -31.5t31 -75.5q0 -45 -31.5 -76.5
t-75.5 -31.5q-45 0 -76.5 31.5t-31.5 75.5q0 46 31.5 77t77.5 31zM682 1376q44 0 75.5 -31.5t31.5 -75.5q0 -45 -31.5 -76.5t-76.5 -31.5t-76.5 31.5t-31.5 75.5q0 46 31.5 77t77.5 31z" />
    <glyph glyph-name="omicrontonos" unicode="&#x3cc;" horiz-adv-x="1032" 
d="M516 998q170 0 287 -121q137 -142 137 -391q0 -247 -137 -390q-116 -121 -286 -121q-174 0 -288 121q-137 145 -137 398q0 112 36 213t101 170q114 121 287 121zM516 875q-119 0 -191 -95q-85 -113 -85 -288q0 -186 85 -299q72 -95 191 -95t191 95q85 113 85 293
q0 183 -85 294q-73 95 -191 95zM569 1093h-106l-24 354h153z" />
    <glyph glyph-name="upsilontonos" unicode="&#x3cd;" horiz-adv-x="1013" 
d="M868 971v-622q0 -148 -62 -239q-44 -64 -120 -98q-82 -37 -179 -37q-173 0 -267.5 97.5t-94.5 276.5v622h142v-622q0 -111 38 -166q27 -39 76.5 -62t105.5 -23q61 0 113.5 27.5t76.5 73.5q29 52 29 150v622h142zM559 1093h-105l-24 354h153z" />
    <glyph glyph-name="omegatonos" unicode="&#x3ce;" horiz-adv-x="1238" 
d="M673 1093h-106l-23 354h153zM883 860l66 108q51 -31 81 -69q119 -153 119 -415q0 -258 -110 -402q-80 -107 -207 -107q-138 0 -213 124q-75 -124 -213 -124q-126 0 -207 107q-110 144 -110 403q0 353 200 483l66 -109q-47 -35 -69 -84q-51 -116 -51 -288
q0 -184 45.5 -287t127.5 -103q86 0 123 101q25 67 25 169v212h126v-212q0 -131 38 -200.5t110 -69.5q66 0 101 55q72 113 72 333q0 286 -120 375z" />
    <glyph glyph-name="theta1" unicode="&#x3d1;" horiz-adv-x="1036" 
d="M144 335h-110v143h253v-147q0 -75 9 -113t34 -65q50 -56 137 -56q73 0 125 41q82 65 127 209t45 339q0 56 -5 114q-158 0 -214 5t-122 25q-116 34 -179 110t-63 181q0 122 79.5 197t209.5 75q201 0 313 -169q73 -110 109 -308h116v-116h-101q5 -63 5 -116
q0 -334 -137 -544q-108 -166 -304 -166q-200 0 -283 139q-27 45 -34.5 82.5t-9.5 139.5zM745 916q-65 355 -265 355q-67 0 -108.5 -42.5t-41.5 -111.5q0 -134 163 -179q80 -22 252 -22z" />
    <glyph glyph-name="Upsilon1" unicode="&#x3d2;" horiz-adv-x="1014" 
d="M581 0h-148v303q0 332 -102 566.5t-324 410.5l89 109q330 -218 411 -662q82 444 411 662l89 -109q-241 -191 -332 -431q-94 -248 -94 -546v-303z" />
    <glyph glyph-name="phi1" unicode="&#x3d5;" horiz-adv-x="1238" 
d="M556 89v795q-97 -7 -174 -58q-74 -48 -115 -138t-41 -202q0 -173 87 -278t243 -119zM699 882v-791q92 11 157 55q74 49 115 138.5t41 201.5q0 167 -84.5 274t-228.5 122zM699 996q140 -11 237 -76q101 -67 155 -179q55 -114 55 -255q0 -218 -120.5 -355.5t-326.5 -153.5
v-380h-143v379q-160 13 -254 76q-100 67 -155 179q-55 114 -55 255q0 192 99 327q64 88 149.5 131t215.5 53v375h143v-376z" />
    <glyph glyph-name="uni0400" unicode="&#x400;" horiz-adv-x="1027" 
d="M329 774h554v-133h-554v-508h610v-133h-763v1365h750v-133h-597v-458zM659 1497h-149l-340 280h205z" />
    <glyph glyph-name="afii10023" unicode="&#x401;" horiz-adv-x="1027" 
d="M329 774h554v-133h-554v-508h610v-133h-763v1365h751v-133h-598v-458zM377 1753q47 0 80.5 -34t33.5 -82t-34 -82t-82 -34t-82 34t-34 82q0 49 34 82.5t84 33.5zM742 1753q47 0 80.5 -34t33.5 -82t-34 -82t-82 -34t-82 34t-34 82q0 49 34 82.5t84 33.5z" />
    <glyph glyph-name="afii10051" unicode="&#x402;" horiz-adv-x="1307" 
d="M475 793q118 95 309 95q154 0 247 -58q112 -71 140 -207q13 -58 13 -174v-449q1 -144 -30 -209q-41 -89 -124.5 -131.5t-219.5 -42.5q-23 0 -49 1v126q18 -1 33 -1q124 0 181 48t57 152l-1 57v449q0 136 -33 196q-60 108 -234 108q-200 0 -289 -135v-618h-157v1232h-311
v133h863v-133h-395v-439z" />
    <glyph glyph-name="afii10052" unicode="&#x403;" horiz-adv-x="959" 
d="M176 0v1365h742v-133h-584v-1232h-158zM477 1497l284 280h205l-341 -280h-148z" />
    <glyph glyph-name="afii10053" unicode="&#x404;" horiz-adv-x="1239" 
d="M271 748h489v-127h-490q12 -184 77 -307q108 -203 321 -203q143 0 228 90.5t103 262.5h144q-14 -175 -87 -290q-125 -198 -382 -198q-248 0 -399 173q-170 195 -170 531q0 373 199 567q147 142 363 142q191 0 309.5 -105t143.5 -297h-143q-59 267 -312 267
q-170 0 -275 -134.5t-119 -371.5z" />
    <glyph glyph-name="afii10054" unicode="&#x405;" horiz-adv-x="1121" 
d="M967 1012h-149q-9 102 -62 161q-72 81 -203 81q-101 0 -168 -50q-82 -62 -82 -158q0 -88 82 -144q47 -31 243 -119q131 -59 195.5 -98.5t101.5 -82.5q82 -97 82 -236q0 -193 -149 -303q-118 -86 -297 -86q-247 0 -369 158q-78 101 -88 281h150q9 -133 70 -205
q84 -99 243 -99q122 0 202 66q80 65 80 169q0 100 -82 169q-51 43 -212 115q-210 93 -280 148q-126 99 -126 255q0 168 133 269q113 86 278 86q228 0 339 -155q61 -84 68 -222z" />
    <glyph glyph-name="afii10055" unicode="&#x406;" horiz-adv-x="504" 
d="M331 0h-157v1365h157v-1365z" />
    <glyph glyph-name="afii10056" unicode="&#x407;" horiz-adv-x="504" 
d="M330 0h-157v1365h157v-1365zM106 1750q46 0 79 -33.5t33 -79.5q0 -47 -33 -80t-80 -33t-80 33t-33 80t33 80t81 33zM401 1750q45 0 78 -33.5t33 -79.5q0 -47 -33 -80t-80 -33t-80 33t-33 80t33 80t82 33z" />
    <glyph glyph-name="afii10057" unicode="&#x408;" horiz-adv-x="589" 
d="M260 1365h157v-1089q0 -144 -6 -195.5t-28 -97.5q-46 -98 -172 -140q-71 -23 -166 -23q-13 0 -49 2v131q131 0 193 39q46 30 58.5 79t12.5 205v1089z" />
    <glyph glyph-name="afii10058" unicode="&#x409;" horiz-adv-x="1765" 
d="M867 1238h-430l-81 -918q-11 -123 -53 -189q-46 -71 -115.5 -103.5t-180.5 -34.5v127q106 1 156 61q25 31 36.5 84t22.5 184l73 916h725v-557h152q214 0 326 -45q100 -40 156.5 -134t56.5 -220q0 -184 -113 -293q-72 -69 -174 -92.5t-331 -23.5h-226v1238zM1020 675v-542
h80q139 0 199 6.5t110 26.5q67 26 103.5 90t36.5 153q0 266 -307 266h-222z" />
    <glyph glyph-name="afii10059" unicode="&#x40a;" horiz-adv-x="1869" 
d="M971 791v574h153v-574h152q214 0 326 -44q100 -39 156.5 -131.5t56.5 -215.5q0 -180 -113 -287q-72 -67 -174 -90t-331 -23h-226v664h-642v-664h-153v1365h153v-574h642zM1124 664v-531h80q138 0 198.5 6t110.5 26q66 26 103 88.5t37 149.5q0 261 -307 261h-222z" />
    <glyph glyph-name="afii10060" unicode="&#x40b;" horiz-adv-x="1307" 
d="M1031 0v449q0 136 -33 196q-60 108 -234 108q-200 0 -289 -135v-618h-157v1232h-311v133h863v-133h-395v-439q118 95 309 95q154 0 247 -58q112 -71 140 -207q13 -58 13 -174v-449h-153z" />
    <glyph glyph-name="afii10061" unicode="&#x40c;" horiz-adv-x="1143" 
d="M885 1365h185l-557 -645l611 -720h-210l-582 716zM176 1365h153v-1365h-153v1365zM548 1497l283 280h205l-340 -280h-148z" />
    <glyph glyph-name="uni040D" unicode="&#x40d;" horiz-adv-x="1317" 
d="M746 1497h-149l-340 280h205zM1141 1365v-1365h-145v1064l-677 -983v-81h-143v1365h143v-1064l677 983v81h145z" />
    <glyph glyph-name="afii10062" unicode="&#x40e;" horiz-adv-x="1012" 
d="M260 1774h82q19 -59 52 -95q61 -63 146 -63q70 0 121 41.5t75 116.5h81q-9 -80 -42 -137q-79 -136 -234 -136q-158 0 -239 138q-33 58 -42 135zM533 592l317 773h162l-604 -1365h-153l206 435l-437 930h176z" />
    <glyph glyph-name="afii10145" unicode="&#x40f;" horiz-adv-x="1299" 
d="M726 0v-205h-153v205h-397v1365h153v-1238h642v1238h153v-1365h-398z" />
    <glyph glyph-name="afii10017" unicode="&#x410;" horiz-adv-x="1158" 
d="M512 1374h134l471 -1374h-159l-122 362h-514l-122 -362h-158zM794 495l-215 679l-215 -679h430z" />
    <glyph glyph-name="afii10018" unicode="&#x411;" horiz-adv-x="1088" 
d="M329 1232v-424h152q214 0 326 -45q100 -40 156.5 -134t56.5 -220q0 -184 -113 -293q-72 -69 -174 -92.5t-331 -23.5h-226v1365h688v-133h-535zM329 675v-542h80q139 0 199 6.5t110 26.5q67 26 103.5 90t36.5 153q0 266 -307 266h-222z" />
    <glyph glyph-name="afii10019" unicode="&#x412;" horiz-adv-x="1125" 
d="M176 1365h248q238 0 335 -33q107 -37 164 -127q47 -76 47 -180q0 -228 -226 -298q297 -74 297 -347q0 -176 -114 -279q-70 -62 -168.5 -81.5t-344.5 -19.5h-238v1365zM327 777h129q179 0 257 43q102 56 102 194q0 70 -32.5 122t-90.5 74q-67 25 -244 25h-121v-458z
M327 130h137q123 0 186 7.5t109 27.5q56 23 88 83.5t32 140.5q0 85 -41.5 147t-114.5 87q-76 25 -259 25h-137v-518z" />
    <glyph glyph-name="afii10020" unicode="&#x413;" horiz-adv-x="959" 
d="M176 0v1365h742v-133h-584v-1232h-158z" />
    <glyph glyph-name="afii10021" unicode="&#x414;" horiz-adv-x="1213" 
d="M1033 127h140v-332h-153v205h-860v-205h-153v332h15q130 0 173 89q29 64 41 233l73 916h724v-1238zM880 127v1111h-430l-69 -790q-2 -26 -6 -73q-8 -100 -21 -150.5t-43 -97.5h569z" />
    <glyph glyph-name="afii10022" unicode="&#x415;" horiz-adv-x="1027" 
d="M329 774h554v-133h-554v-508h610v-133h-763v1365h751v-133h-598v-458z" />
    <glyph glyph-name="afii10024" unicode="&#x416;" horiz-adv-x="1591" 
d="M720 0v651h-96l-457 -651h-181l519 720l-493 645h174l440 -587h94v587h150v-587h94l439 587h174l-492 -645l519 -720h-182l-456 651h-96v-651h-150z" />
    <glyph glyph-name="afii10025" unicode="&#x417;" horiz-adv-x="1130" 
d="M119 987q22 171 116 270q126 132 357 132q192 0 303 -84q140 -107 140 -304q0 -125 -62.5 -206t-176.5 -105q240 -53 240 -310q0 -188 -130 -300q-119 -104 -322 -104q-186 0 -295 82q-171 128 -193 406h144q37 -353 343 -353q136 0 211 68q77 70 77 195q0 245 -275 246
l-117 1v127l117 -1q117 -1 186 52q88 68 88 204q0 122 -73.5 186.5t-211.5 64.5q-264 0 -324 -267h-142z" />
    <glyph glyph-name="afii10026" unicode="&#x418;" horiz-adv-x="1317" 
d="M1141 1365v-1365h-145v1064l-677 -983v-81h-143v1365h143v-1064l677 983v81h145z" />
    <glyph glyph-name="afii10027" unicode="&#x419;" horiz-adv-x="1317" 
d="M393 1774h82q18 -59 52 -95q61 -63 146 -63q69 0 120.5 41.5t74.5 116.5h82q-9 -80 -42 -137q-79 -136 -234 -136q-158 0 -239 138q-34 58 -42 135zM1141 1365v-1365h-145v1064l-677 -983v-81h-143v1365h143v-1064l677 983v81h145z" />
    <glyph glyph-name="afii10028" unicode="&#x41a;" horiz-adv-x="1143" 
d="M885 1365h185l-557 -645l611 -720h-210l-582 716zM176 1365h153v-1365h-153v1365z" />
    <glyph glyph-name="afii10029" unicode="&#x41b;" horiz-adv-x="1195" 
d="M7 -7v127q106 1 156 61q25 31 36.5 84t22.5 184l73 916h725v-1365h-153v1238h-430l-81 -918q-11 -123 -53 -189q-46 -71 -115.5 -103.5t-180.5 -34.5z" />
    <glyph glyph-name="afii10030" unicode="&#x41c;" horiz-adv-x="1583" 
d="M176 1365h232l383 -1196l384 1196h232v-1365h-146v1211l-392 -1211h-155l-392 1211v-1211h-146v1365z" />
    <glyph glyph-name="afii10031" unicode="&#x41d;" horiz-adv-x="1299" 
d="M329 778h642v587h153v-1365h-153v651h-642v-651h-153v1365h153v-587z" />
    <glyph glyph-name="afii10032" unicode="&#x41e;" horiz-adv-x="1323" 
d="M662 1389q237 0 391 -182q165 -197 165 -524q0 -326 -165 -524q-152 -182 -390 -182q-241 0 -393 182q-165 198 -165 534q0 214 79 380q83 172 233 254q112 62 245 62zM662 1254q-180 0 -283 -152q-110 -162 -110 -412q0 -264 110 -427q103 -152 283 -152q112 0 201 67
q91 68 141 200.5t50 304.5q0 260 -110 419q-106 152 -282 152z" />
    <glyph glyph-name="afii10033" unicode="&#x41f;" horiz-adv-x="1299" 
d="M329 1238v-1238h-153v1365h948v-1365h-153v1238h-642z" />
    <glyph glyph-name="afii10034" unicode="&#x420;" horiz-adv-x="1077" 
d="M176 1365h226q266 0 376 -37q121 -40 188 -154q54 -91 54 -218q0 -166 -93 -269q-69 -77 -171 -103.5t-327 -26.5h-100v-557h-153v1365zM329 690h97q175 0 254 19q178 41 178 248q0 88 -37 152t-103 90q-50 20 -110 26.5t-199 6.5h-80v-542z" />
    <glyph glyph-name="afii10035" unicode="&#x421;" horiz-adv-x="1232" 
d="M1120 987h-143q-59 267 -312 267q-177 0 -281 -144q-115 -159 -115 -428q0 -284 131 -448q98 -123 268 -123q143 0 228 90.5t103 262.5h144q-14 -175 -86 -290q-126 -198 -383 -198q-248 0 -399 173q-170 195 -170 530q0 374 199 568q147 142 363 142q191 0 309.5 -105
t143.5 -297z" />
    <glyph glyph-name="afii10036" unicode="&#x422;" horiz-adv-x="948" 
d="M43 1365h863v-133h-355v-1232h-153v1232h-355v133z" />
    <glyph glyph-name="afii10037" unicode="&#x423;" horiz-adv-x="1012" 
d="M533 592l317 773h162l-604 -1365h-153l206 435l-437 930h176z" />
    <glyph glyph-name="afii10038" unicode="&#x424;" horiz-adv-x="1427" 
d="M784 1228q196 -12 321 -88q122 -75 188 -196q64 -118 64 -269q0 -203 -114 -345q-152 -189 -459 -208v-122h-143v122q-196 12 -321 88q-122 74 -188 196q-64 118 -64 269q0 202 114 344q153 190 459 209v137h143v-137zM784 1104v-858q143 8 236 66q96 59 146 166
q43 92 43 198q0 146 -80 259q-109 155 -345 169zM641 1104q-145 -8 -236 -66q-96 -59 -146 -166q-44 -93 -44 -197q0 -145 81 -260q56 -80 136 -119.5t209 -49.5v858z" />
    <glyph glyph-name="afii10039" unicode="&#x425;" horiz-adv-x="1112" 
d="M65 1365h177l316 -524l318 524h177l-406 -651l427 -714h-175l-341 572l-343 -572h-174l428 714z" />
    <glyph glyph-name="afii10040" unicode="&#x426;" horiz-adv-x="1303" 
d="M1124 127h139v-332h-153v205h-934v1365h153v-1238h642v1238h153v-1238z" />
    <glyph glyph-name="afii10041" unicode="&#x427;" horiz-adv-x="1165" 
d="M832 599q-127 -122 -315 -122q-236 0 -335 151q-34 51 -46 111.5t-12 176.5v449h153v-449q0 -136 33 -196q59 -108 233 -108q200 0 289 135v618h157v-1365h-157v599z" />
    <glyph glyph-name="afii10042" unicode="&#x428;" horiz-adv-x="1821" 
d="M987 127h505v1238h153v-1365h-1469v1365h153v-1238h505v1238h153v-1238z" />
    <glyph glyph-name="afii10043" unicode="&#x429;" horiz-adv-x="1825" 
d="M1631 0h-1455v1365h153v-1238h505v1238h153v-1238h505v1238h153v-1238h139v-332h-153v205z" />
    <glyph glyph-name="afii10044" unicode="&#x42a;" horiz-adv-x="1257" 
d="M0 1365h512v-557h153q213 0 325 -45q100 -40 156.5 -134t56.5 -220q0 -184 -113 -293q-72 -69 -174 -92.5t-331 -23.5h-226v1232h-359v133zM512 675v-542h80q139 0 199 6.5t110 26.5q67 26 103.5 90t36.5 153q0 266 -307 266h-222z" />
    <glyph glyph-name="afii10045" unicode="&#x42b;" horiz-adv-x="1499" 
d="M176 0v1365h153v-557h153q213 0 325 -45q100 -40 156.5 -134t56.5 -220q0 -184 -113 -293q-72 -69 -174 -92.5t-331 -23.5h-226zM329 675v-542h80q139 0 199 6.5t110 26.5q67 26 103.5 90t36.5 153q0 266 -307 266h-222zM1326 0h-157v1365h157v-1365z" />
    <glyph glyph-name="afii10046" unicode="&#x42c;" horiz-adv-x="1074" 
d="M176 0v1365h153v-557h153q213 0 325 -45q100 -40 156.5 -134t56.5 -220q0 -184 -113 -293q-72 -69 -174 -92.5t-331 -23.5h-226zM329 675v-542h80q139 0 199 6.5t110 26.5q67 26 103.5 90t36.5 153q0 266 -307 266h-222z" />
    <glyph glyph-name="afii10047" unicode="&#x42d;" horiz-adv-x="1239" 
d="M968 748q-11 181 -76 302q-108 204 -319 204q-252 0 -312 -267h-142q22 171 116 270q125 132 336 132q217 0 364 -142q199 -194 199 -567q0 -336 -170 -531q-151 -173 -400 -173q-205 0 -327.5 127.5t-140.5 360.5h144q13 -129 68 -216q85 -137 263 -137q236 0 341 247
q47 108 56 263h-489v127h489z" />
    <glyph glyph-name="afii10048" unicode="&#x42e;" horiz-adv-x="1792" 
d="M579 778q16 195 101 341q80 140 207 209q113 61 244 61q239 0 392 -182q165 -198 165 -524t-165 -524q-153 -182 -392 -182q-184 0 -323 115q-218 179 -233 559h-246v-651h-153v1365h153v-587h250zM1131 1254q-179 0 -283 -152q-110 -162 -110 -412q0 -264 110 -427
q104 -152 284 -152q112 0 200 67q91 68 141.5 200.5t50.5 304.5q0 261 -110 419q-106 152 -283 152z" />
    <glyph glyph-name="afii10049" unicode="&#x42f;" horiz-adv-x="1150" 
d="M974 1365v-1365h-153v584h-237l-345 -584h-185l360 608q-281 100 -281 371q0 160 98 261q71 74 173.5 99.5t328.5 25.5h241zM821 717v515h-93q-145 0 -200.5 -6t-103.5 -26q-129 -55 -129 -219q0 -183 153 -237q48 -17 100 -22t177 -5h96z" />
    <glyph glyph-name="afii10065" unicode="&#x430;" horiz-adv-x="974" 
d="M272 716h-143q14 124 88 193q96 89 276 89q153 0 243 -70q53 -41 71 -103t18 -206v-364q-1 -178 27 -255h-137q-16 59 -21 131q-85 -156 -285 -156q-130 0 -213 64q-100 78 -100 216q0 207 226 291q125 47 363 86v41q0 101 -33 142q-49 61 -165 61q-185 0 -215 -160z
M685 526q-211 -38 -306 -82q-135 -63 -135 -179q0 -76 52 -123t135 -47q146 0 214 115q40 68 40 219v97z" />
    <glyph glyph-name="afii10066" unicode="&#x431;" horiz-adv-x="1037" 
d="M263 841q112 157 287 157q165 0 270 -121q125 -144 125 -385q0 -253 -137 -396q-116 -121 -287 -121q-170 0 -287 121q-76 79 -102 174q-36 127 -36 291q0 207 39 377t108 270q59 84 130 121.5t170 37.5q35 0 160 -18q38 -5 63 -5q49 0 89 28v-127q-39 -30 -107 -30
q-26 0 -70 9q-72 16 -122 16q-93 0 -148 -49q-113 -100 -145 -350zM533 875q-123 0 -198 -95q-90 -112 -90 -289q0 -185 85 -298q72 -95 192 -95q118 0 190 95q85 113 85 295t-81 294q-68 93 -183 93z" />
    <glyph glyph-name="afii10067" unicode="&#x432;" horiz-adv-x="890" 
d="M292 437v-321h147q109 0 154 28q71 42 71 133q0 121 -110 151q-32 9 -117 9h-145zM292 855v-303h134q213 0 213 161q0 92 -76 126q-37 16 -123 16h-148zM635 498q173 -54 173 -223q0 -153 -132 -233q-71 -42 -220 -42h-306v971h311q147 0 217 -46q104 -68 104 -203
q0 -164 -147 -224z" />
    <glyph glyph-name="afii10068" unicode="&#x433;" horiz-adv-x="721" 
d="M292 855v-855h-142v971h557v-116h-415z" />
    <glyph glyph-name="afii10069" unicode="&#x434;" horiz-adv-x="989" 
d="M244 971h594v-855h129v-321h-143v205h-674v-205h-143v321h18q52 0 93.5 29.5t59.5 80.5q18 49 30 226zM279 116h416v739h-309l-27 -390q-11 -162 -26.5 -229t-53.5 -120z" />
    <glyph glyph-name="afii10070" unicode="&#x435;" horiz-adv-x="995" 
d="M902 461h-663q5 -156 59 -244q74 -119 221 -119q81 0 133.5 34t92.5 113l134 -16q-89 -254 -361 -254q-178 0 -293 116q-133 135 -133 384q0 274 148 419q106 104 269 104q202 0 311 -169q82 -128 82 -327v-41zM753 574q-9 107 -46 177q-66 126 -203 126q-107 0 -173 -77
t-88 -226h510z" />
    <glyph glyph-name="afii10072" unicode="&#x436;" horiz-adv-x="1205" 
d="M532 971h140v-397h70l295 397h160l-335 -442l349 -529h-161l-296 458h-82v-458h-140v458h-82l-296 -458h-161l349 529l-335 442h160l295 -397h70v397z" />
    <glyph glyph-name="afii10073" unicode="&#x437;" horiz-adv-x="922" 
d="M100 655q33 344 367 344q130 0 214 -58q117 -80 117 -225q0 -164 -165 -226q187 -50 187 -228q0 -140 -111 -220q-92 -67 -247 -67q-341 0 -370 359h143q13 -125 65 -180.5t156 -55.5q88 0 141 31q77 45 77 140q0 117 -105 148q-41 12 -108 12q-21 0 -82 -1v116h44
q105 0 162 38q68 44 68 127q0 77 -51 122t-139 45q-71 0 -114.5 -23.5t-70.5 -75.5q-22 -41 -35 -122h-143z" />
    <glyph glyph-name="afii10074" unicode="&#x438;" horiz-adv-x="1039" 
d="M746 971h143v-971h-143v701l-454 -639v-62h-142v971h142v-701l454 639v62z" />
    <glyph glyph-name="afii10075" unicode="&#x439;" horiz-adv-x="1039" 
d="M289 1396h85q19 -75 63.5 -117t105.5 -42q123 0 165 159h85q-8 -80 -38 -139q-69 -137 -210 -137q-144 0 -217 138q-31 59 -39 138zM746 971h143v-971h-143v701l-454 -639v-62h-142v971h142v-701l454 639v62z" />
    <glyph glyph-name="afii10076" unicode="&#x43a;" horiz-adv-x="965" 
d="M706 971h173l-405 -437l436 -534h-198l-416 529zM150 971h143v-971h-143v971z" />
    <glyph glyph-name="afii10077" unicode="&#x43b;" horiz-adv-x="962" 
d="M812 971v-971h-143v855h-309l-28 -394q-11 -168 -27.5 -236.5t-58.5 -121.5q-77 -98 -239 -108v116q109 11 144 110q18 50 30 227l36 523h595z" />
    <glyph glyph-name="afii10078" unicode="&#x43c;" horiz-adv-x="1286" 
d="M643 149l279 824h214v-973h-138v829l-280 -829h-150l-280 829v-829h-138v973h214z" />
    <glyph glyph-name="afii10079" unicode="&#x43d;" horiz-adv-x="1039" 
d="M746 458h-454v-458h-142v971h142v-397h454v397h143v-971h-143v458z" />
    <glyph glyph-name="afii10080" unicode="&#x43e;" horiz-adv-x="1032" 
d="M516 998q170 0 287 -121q137 -142 137 -391q0 -247 -137 -390q-116 -121 -286 -121q-174 0 -288 121q-137 145 -137 398q0 112 36 213t101 170q114 121 287 121zM516 875q-119 0 -191 -95q-85 -113 -85 -288q0 -186 85 -299q72 -95 191 -95t191 95q85 113 85 293
q0 183 -85 294q-73 95 -191 95z" />
    <glyph glyph-name="afii10081" unicode="&#x43f;" horiz-adv-x="1039" 
d="M746 855h-454v-855h-142v971h739v-971h-143v855z" />
    <glyph glyph-name="afii10082" unicode="&#x440;" horiz-adv-x="1040" 
d="M150 -403v1085q0 210 -19 289h141q15 -49 18 -143q99 170 274 170q139 0 232 -90q152 -149 152 -425q0 -262 -138 -409q-94 -99 -237 -99q-176 0 -280 159v-537h-143zM552 873q-110 0 -174 -85q-88 -115 -88 -303q0 -185 84 -294q70 -91 179 -91q105 0 163 77
q84 111 84 303q0 207 -93 322q-57 71 -155 71z" />
    <glyph glyph-name="afii10083" unicode="&#x441;" horiz-adv-x="953" 
d="M852 655h-142q-16 94 -46 140q-52 80 -164 80q-116 0 -179 -89q-81 -114 -81 -302q0 -225 110 -331q57 -55 154 -55q189 0 213 236h143q-12 -152 -85 -244q-92 -115 -272 -115q-161 0 -269 107q-142 141 -142 401q0 270 149 416q101 99 263 99q153 0 242.5 -88.5
t105.5 -254.5z" />
    <glyph glyph-name="afii10084" unicode="&#x442;" horiz-adv-x="753" 
d="M746 971v-119h-294v-852h-151v852h-294v119h739z" />
    <glyph glyph-name="afii10085" unicode="&#x443;" horiz-adv-x="896" 
d="M33 971h153l264 -809l272 809h150l-320 -902q-67 -193 -95 -252.5t-75 -110.5q-107 -114 -283 -114q-18 0 -44 1v126q137 -1 197 50q32 27 56.5 73t61.5 149z" />
    <glyph glyph-name="afii10086" unicode="&#x444;" horiz-adv-x="1357" 
d="M751 1371v-485q60 111 199 111q129 0 207 -98q113 -142 113 -401q0 -261 -114 -413q-83 -111 -214 -111q-123 0 -191 108v-485h-143v485q-68 -108 -191 -108q-131 0 -214 111q-114 152 -114 413q0 259 113 401q78 98 207 98q139 0 199 -111v485h143zM437 877
q-89 0 -139 -95q-61 -117 -61 -296q0 -181 61 -296q50 -95 141 -95q86 0 128 88t42 282q0 209 -39 310q-40 102 -133 102zM922 877q-89 0 -130 -98.5t-41 -313.5q0 -211 50 -298q42 -72 119 -72q91 0 141 95q61 116 61 296q0 182 -61 296q-51 95 -139 95z" />
    <glyph glyph-name="afii10087" unicode="&#x445;" horiz-adv-x="904" 
d="M63 971h168l222 -347l226 347h174l-312 -455l351 -516h-173l-266 402l-268 -402h-172l354 516z" />
    <glyph glyph-name="afii10088" unicode="&#x446;" horiz-adv-x="1040" 
d="M875 0h-725v971h142v-855h454v855h143v-855h129v-321h-143v205z" />
    <glyph glyph-name="afii10089" unicode="&#x447;" horiz-adv-x="952" 
d="M660 398q-108 -89 -264 -89q-148 0 -224 81.5t-76 241.5v339h142v-292q0 -110 21 -156q41 -92 156 -92q79 0 144 37.5t101 103.5v399h142v-971h-142v398z" />
    <glyph glyph-name="afii10090" unicode="&#x448;" horiz-adv-x="1485" 
d="M1192 116v855h143v-971h-1185v971h142v-855h379v855h142v-855h379z" />
    <glyph glyph-name="afii10091" unicode="&#x449;" horiz-adv-x="1486" 
d="M1321 0h-1171v971h142v-855h379v855h142v-855h379v855h143v-855h129v-321h-143v205z" />
    <glyph glyph-name="afii10092" unicode="&#x44a;" horiz-adv-x="922" 
d="M400 971v-397h112q152 0 231 -32q71 -28 111 -95t40 -156q0 -131 -80 -209q-51 -49 -123.5 -65.5t-234.5 -16.5h-198v855h-258v116h400zM400 459v-343h72q143 0 194 21q88 35 88 154q0 168 -193 168h-161z" />
    <glyph glyph-name="afii10093" unicode="&#x44b;" horiz-adv-x="1228" 
d="M935 971h143v-971h-143v971zM150 0v971h142v-397h112q151 0 231 -32q71 -28 111 -95t40 -156q0 -131 -80 -209q-51 -49 -123.5 -65.5t-234.5 -16.5h-198zM292 459v-343h72q142 0 194 21q88 35 88 154q0 168 -193 168h-161z" />
    <glyph glyph-name="afii10094" unicode="&#x44c;" horiz-adv-x="814" 
d="M150 0v971h142v-397h112q151 0 231 -32q71 -28 111 -95t40 -156q0 -131 -80 -209q-51 -49 -123.5 -65.5t-234.5 -16.5h-198zM292 459v-343h72q142 0 194 21q88 35 88 154q0 168 -193 168h-161z" />
    <glyph glyph-name="afii10095" unicode="&#x44d;" horiz-adv-x="953" 
d="M710 545q-13 157 -80.5 243.5t-177.5 86.5q-93 0 -141.5 -51t-67.5 -169h-143q13 138 78 221q94 122 271 122q161 0 262 -99q149 -146 149 -415q0 -261 -142 -402q-107 -107 -269 -107q-198 0 -291 142q-55 85 -66 217h143q24 -236 213 -236q145 0 213 138q40 80 49 193
h-329v116h329z" />
    <glyph glyph-name="afii10096" unicode="&#x44e;" horiz-adv-x="1413" 
d="M478 574q21 145 81 239q60 93 154 141q85 44 184 44q171 0 287 -121q137 -143 137 -391q0 -247 -137 -390q-116 -121 -287 -121q-134 0 -239 78q-83 62 -131.5 167.5t-53.5 237.5h-181v-458h-142v971h142v-397h186zM897 875q-119 0 -190 -95q-86 -113 -86 -288
q0 -186 86 -299q71 -95 191 -95q118 0 190 95q85 113 85 294q0 183 -85 293q-73 95 -191 95z" />
    <glyph glyph-name="afii10097" unicode="&#x44f;" horiz-adv-x="923" 
d="M305 408q-94 25 -144 93.5t-50 173.5q0 153 107 235q45 34 98.5 47.5t146.5 13.5h310v-971h-142v397h-178l-215 -397h-155zM631 512v343h-151q-97 0 -145 -25q-80 -41 -80 -150q0 -90 47 -129t157 -39h172z" />
    <glyph glyph-name="uni0450" unicode="&#x450;" horiz-adv-x="995" 
d="M902 461h-663q5 -156 59 -244q74 -119 221 -119q81 0 133.5 34t92.5 113l134 -16q-89 -254 -361 -254q-178 0 -293 116q-133 135 -133 384q0 274 148 419q106 104 269 104q202 0 311 -169q82 -128 82 -327v-41zM753 574q-9 107 -46 177q-66 126 -203 126q-107 0 -173 -77
t-88 -226h510zM639 1120h-120l-297 280h205z" />
    <glyph glyph-name="afii10071" unicode="&#x451;" horiz-adv-x="995" 
d="M902 461h-663q5 -156 59 -244q74 -119 221 -119q81 0 133.5 34t92.5 113l134 -16q-89 -254 -361 -254q-178 0 -293 116q-133 135 -133 384q0 274 148 419q106 104 269 104q202 0 311 -169q82 -128 82 -327v-41zM753 574q-9 107 -46 177q-66 126 -203 126q-107 0 -173 -77
t-88 -226h510zM338 1376q44 0 75 -31.5t31 -75.5q0 -45 -31.5 -76.5t-75.5 -31.5q-45 0 -76.5 31.5t-31.5 75.5q0 46 31.5 77t77.5 31zM686 1376q44 0 75.5 -31.5t31.5 -75.5q0 -45 -31.5 -76.5t-76.5 -31.5t-76.5 31.5t-31.5 75.5q0 46 31.5 77t77.5 31z" />
    <glyph glyph-name="afii10099" unicode="&#x452;" horiz-adv-x="1028" 
d="M472 -382v126q18 -1 33 -1q138 0 194 61q27 31 34 55t7 94v45l1 551q0 123 -11 177q-14 67 -64 105.5t-124 38.5q-137 0 -205 -116q-45 -76 -45 -220v-534h-142v1124h-111v116h111v132h142v-132h285v-116h-285v-267q106 141 280 141q86 0 156 -33.5t108 -93.5
q29 -45 38 -105.5t9 -207.5v-558q0 -135 -26 -208q-62 -175 -335 -175q-24 0 -50 1z" />
    <glyph glyph-name="afii10100" unicode="&#x453;" horiz-adv-x="721" 
d="M292 855v-855h-142v971h557v-116h-415zM335 1120l212 280h206l-298 -280h-120z" />
    <glyph glyph-name="afii10101" unicode="&#x454;" horiz-adv-x="953" 
d="M242 545h329v-116h-329q13 -160 80.5 -245.5t181.5 -85.5q189 0 213 236h143q-12 -152 -85 -243q-92 -116 -272 -116q-162 0 -269 107q-142 141 -142 402q0 269 149 415q101 99 262 99q154 0 243.5 -88.5t105.5 -254.5h-143q-15 94 -45 140q-52 80 -164 80
q-110 0 -177.5 -86.5t-80.5 -243.5z" />
    <glyph glyph-name="afii10102" unicode="&#x455;" horiz-adv-x="897" 
d="M793 704h-139q-10 83 -48 122q-51 52 -150 52q-83 0 -134.5 -40.5t-51.5 -105.5q0 -60 43.5 -91.5t181.5 -72.5q116 -34 170.5 -59.5t85.5 -59.5q58 -65 58 -170q0 -133 -86 -215q-94 -89 -265 -89q-177 0 -272 84.5t-95 242.5l138 -1q19 -206 226 -206q94 0 150 46.5
t56 124.5q0 74 -61 113q-36 23 -217 78q-147 45 -200 103q-59 65 -59 163q0 132 102 206q94 69 231 69q155 0 241.5 -76t94.5 -218z" />
    <glyph glyph-name="afii10103" unicode="&#x456;" horiz-adv-x="452" 
d="M151 971h151v-971h-151v971zM228 1384q45 0 74 -30t29 -76q0 -44 -29.5 -73.5t-74.5 -29.5q-46 0 -75.5 29t-29.5 73q0 46 30.5 76.5t75.5 30.5z" />
    <glyph glyph-name="afii10104" unicode="&#x457;" horiz-adv-x="452" 
d="M150 971h151v-971h-151v971zM85 1376q44 0 75 -31.5t31 -75.5q0 -45 -31.5 -76.5t-75.5 -31.5q-45 0 -76.5 31.5t-31.5 75.5q0 46 31.5 77t77.5 31zM369 1376q44 0 75.5 -31.5t31.5 -75.5q0 -45 -31.5 -76.5t-76.5 -31.5t-76.5 31.5t-31.5 75.5q0 46 31.5 77t77.5 31z
" />
    <glyph glyph-name="afii10105" unicode="&#x458;" horiz-adv-x="515" 
d="M215 971h151v-886q0 -163 -13 -232.5t-54 -121.5q-89 -114 -306 -114q-23 0 -49 1v126q17 -1 33 -1q159 0 207 84q19 32 25 83t6 174v887zM293 1383q44 0 73 -29.5t29 -75.5q0 -45 -29.5 -74t-74.5 -29t-75 29t-30 73q0 46 30 76t77 30z" />
    <glyph glyph-name="afii10106" unicode="&#x459;" horiz-adv-x="1334" 
d="M670 0l-1 855h-309l-27 -394q-12 -167 -28.5 -236t-58.5 -122q-77 -98 -239 -108v117q109 11 145 110q17 49 30 227l35 522h595v-397h112q151 0 231 -32q71 -28 111 -95t40 -156q0 -131 -80 -209q-51 -49 -123.5 -65.5t-234.5 -16.5h-198zM812 459v-343h72q142 0 194 21
q88 35 88 154q0 168 -193 168h-161z" />
    <glyph glyph-name="afii10107" unicode="&#x45a;" horiz-adv-x="1411" 
d="M746 0v458h-454v-458h-142v971h142v-397h454v397h142v-397h112q152 0 231 -32q71 -29 111 -95.5t40 -156.5q0 -131 -80 -208q-51 -49 -123.5 -65.5t-234.5 -16.5h-198zM888 458v-342h72q142 0 194 21q88 35 88 153q0 168 -193 168h-161z" />
    <glyph glyph-name="afii10108" unicode="&#x45b;" horiz-adv-x="1028" 
d="M150 1372h142v-132h285v-116h-285v-267q106 141 280 141q86 0 155.5 -33.5t108.5 -93.5q29 -45 38 -105.5t9 -207.5v-558h-143v549q0 171 -27 224q-49 97 -171 97q-137 0 -205 -116q-45 -75 -45 -220v-534h-142v1124h-111v116h111v132z" />
    <glyph glyph-name="afii10109" unicode="&#x45c;" horiz-adv-x="965" 
d="M706 971h173l-405 -437l436 -534h-198l-416 529zM150 971h143v-971h-143v971zM418 1120l212 280h205l-297 -280h-120z" />
    <glyph glyph-name="uni045D" unicode="&#x45d;" horiz-adv-x="1039" 
d="M639 1120h-120l-297 280h205zM746 971h143v-971h-143v701l-454 -639v-62h-142v971h142v-701l454 639v62z" />
    <glyph glyph-name="afii10110" unicode="&#x45e;" horiz-adv-x="896" 
d="M33 971h153l264 -809l272 809h150l-320 -902q-67 -193 -95 -252.5t-75 -110.5q-107 -114 -283 -114q-18 0 -44 1v126q137 -1 197 50q32 27 56.5 73t61.5 149zM217 1396h85q20 -75 64.5 -117t104.5 -42q124 0 166 159h85q-8 -80 -38 -139q-69 -137 -210 -137
q-144 0 -217 138q-32 59 -40 138z" />
    <glyph glyph-name="afii10193" unicode="&#x45f;" horiz-adv-x="1039" 
d="M448 0h-298v971h142v-855h454v855h143v-971h-298v-205h-143v205z" />
    <glyph glyph-name="uni0462" unicode="&#x462;" horiz-adv-x="1074" 
d="M329 1036v-228h152q214 0 326 -45q100 -40 156.5 -134t56.5 -220q0 -184 -113 -293q-72 -69 -174 -92.5t-331 -23.5h-226v1036h-118v125h118v204h153v-204h384v-125h-384zM329 675v-542h80q139 0 199 6.5t110 26.5q67 26 103.5 90t36.5 153q0 266 -307 266h-222z" />
    <glyph glyph-name="uni0463" unicode="&#x463;" horiz-adv-x="814" 
d="M292 968v-394h112q152 0 231 -32q71 -28 111 -95t40 -156q0 -131 -80 -209q-51 -49 -123.5 -65.5t-234.5 -16.5h-198v968h-160v111h160v282h142v-282h319v-111h-319zM292 459v-343h72q142 0 194 21q88 35 88 154q0 168 -193 168h-161z" />
    <glyph glyph-name="uni0472" unicode="&#x472;" horiz-adv-x="1323" 
d="M662 1389q237 0 391 -182q165 -197 165 -524q0 -326 -165 -524q-152 -182 -390 -182q-241 0 -393 182q-165 198 -165 534q0 214 79 380q83 172 233 254q112 62 245 62zM275 797l27 6q29 7 39 9q67 17 122 17q118 0 214 -64l79 -52q53 -35 126 -35t172 27q-4 186 -67 320
q-106 229 -325 229q-240 0 -343 -270q-34 -88 -44 -187zM1047 558q-135 -39 -209 -39q-54 0 -86.5 13.5t-124.5 74.5q-55 36 -102.5 49.5t-117.5 13.5q-45 0 -110 -15l-28 -6q8 -184 66 -309q108 -229 327 -229q155 0 255 116t130 331z" />
    <glyph glyph-name="uni0473" unicode="&#x473;" horiz-adv-x="1014" 
d="M602 991q166 0 260 -111q81 -95 81 -262q0 -129 -46.5 -257t-127.5 -222q-140 -161 -339 -161q-155 0 -249 93q-101 100 -101 280q0 175 85 342q152 298 437 298zM264 560q97 47 149 47q48 0 116 -59q59 -52 96 -52q21 0 37.5 6t93.5 41l37 17q4 32 4 60q0 106 -44 170
q-55 79 -162 79q-106 0 -191.5 -81t-135.5 -228zM767 437l-48 -22q-102 -46 -134 -46q-36 0 -90 50q-65 59 -120 59q-49 0 -141 -42q-7 -47 -7 -91q0 -113 56 -179t152 -66q109 0 197.5 89.5t134.5 247.5z" />
    <glyph glyph-name="uni0474" unicode="&#x474;" horiz-adv-x="1149" 
d="M637 -8h-140l-469 1373h162l389 -1187l320 990q29 92 70 138q61 71 175 71q53 0 107 -20v-132q-33 13 -67 13q-107 0 -148 -116z" />
    <glyph glyph-name="uni0475" unicode="&#x475;" horiz-adv-x="883" 
d="M518 -12h-153l-344 983h150l271 -815l217 666q30 91 82 133t135 42q41 0 89 -12v-114q-24 7 -45 7q-50 0 -80 -26.5t-53 -92.5z" />
    <glyph glyph-name="afii10050" unicode="&#x490;" horiz-adv-x="959" 
d="M918 1534v-302h-584v-1232h-158v1365h589v169h153z" />
    <glyph glyph-name="afii10098" unicode="&#x491;" horiz-adv-x="721" 
d="M564 971v113h143v-229h-415v-855h-142v971h414z" />
    <glyph glyph-name="uni0492" unicode="&#x492;" horiz-adv-x="998" 
d="M329 774h357v-133h-357v-641h-153v641h-150v133h150v591h751v-133h-598v-458z" />
    <glyph glyph-name="uni0493" unicode="&#x493;" horiz-adv-x="721" 
d="M292 637h267v-107h-267v-530h-142v530h-113v107h113v334h557v-116h-415v-218z" />
    <glyph glyph-name="uni0496" unicode="&#x496;" horiz-adv-x="1591" 
d="M1538 91v0h153v-331h-153v240h-116l-456 651h-96v-651h-150v651h-96l-457 -651h-181l519 720l-493 645h174l440 -587h94v587h150v-587h94l439 587h174l-492 -645z" />
    <glyph glyph-name="uni0497" unicode="&#x497;" horiz-adv-x="1205" 
d="M1149 0h-99l-296 458h-82v-458h-140v458h-82l-296 -458h-161l349 529l-335 442h160l295 -397h70v397h140v-397h70l295 397h160l-335 -442l293 -443h137v-321h-143v235z" />
    <glyph glyph-name="uni049A" unicode="&#x49a;" horiz-adv-x="1143" 
d="M1043 95v2h153v-332h-153v235h-129l-583 716l554 649h185l-557 -645zM176 1365h153v-1365h-153v1365z" />
    <glyph glyph-name="uni049B" unicode="&#x49b;" horiz-adv-x="962" 
d="M837 89h141v-321h-143v232h-124l-415 529l409 442h174l-405 -437zM150 971h143v-971h-143v971z" />
    <glyph glyph-name="uni049C" unicode="&#x49c;" horiz-adv-x="1143" 
d="M507 500v-158h-107v290l-68 84l68 80v281h107v-155l378 443h185l-557 -645l611 -720h-210zM176 1365h153v-1365h-153v1365z" />
    <glyph glyph-name="uni049D" unicode="&#x49d;" horiz-adv-x="965" 
d="M460 320v-95h-107v231l-57 73l57 62v224h107v-109l245 265h174l-405 -437l435 -534h-197zM150 971h143v-971h-143v971z" />
    <glyph glyph-name="uni04A2" unicode="&#x4a2;" horiz-adv-x="1299" 
d="M1124 105h152v-332h-153v227h-152v651h-642v-651h-153v1365h153v-587h642v587h153v-1260z" />
    <glyph glyph-name="uni04A3" unicode="&#x4a3;" horiz-adv-x="1039" 
d="M888 0h-142v458h-454v-458h-142v971h142v-397h454v397h143v-876h142v-321h-143v226z" />
    <glyph glyph-name="uni04AE" unicode="&#x4ae;" horiz-adv-x="1048" 
d="M24 1365h176l327 -638l323 638h175l-426 -792l2 -573h-153l2 573z" />
    <glyph glyph-name="uni04AF" unicode="&#x4af;" horiz-adv-x="896" 
d="M527 -6v-397h-159v397l-335 977h153l264 -809l272 809h150z" />
    <glyph glyph-name="uni04B0" unicode="&#x4b0;" horiz-adv-x="1048" 
d="M599 494h214v-107h-214l2 -387h-153l1 387h-214v107h215v79l-426 792h175l328 -638l323 638h175l-426 -792v-79z" />
    <glyph glyph-name="uni04B1" unicode="&#x4b1;" horiz-adv-x="896" 
d="M368 -37v30l-335 978h153l264 -809l272 809h150l-346 -978v-30h221v-107h-220v-259h-159v259h-211v107h211z" />
    <glyph glyph-name="uni04B2" unicode="&#x4b2;" horiz-adv-x="1112" 
d="M1016 97h152v-332h-153v235h-116l-341 572l-343 -572h-174l428 714l-405 651h177l317 -523l317 523h177l-406 -651z" />
    <glyph glyph-name="uni04B3" unicode="&#x4b3;" horiz-adv-x="904" 
d="M825 98v2h143v-321h-143v221h-106l-266 402l-268 -402h-172l353 517l-303 454h168l222 -347l226 347h174l-312 -454z" />
    <glyph glyph-name="uni04B6" unicode="&#x4b6;" horiz-adv-x="1165" 
d="M940 0h-108v599q-128 -122 -315 -122q-236 0 -335 151q-34 51 -46 111.5t-12 176.5v449h153v-449q0 -136 33 -196q59 -108 233 -108q200 0 289 135v618h157v-1259h100v-337h-149v231z" />
    <glyph glyph-name="uni04B7" unicode="&#x4b7;" horiz-adv-x="952" 
d="M746 0h-86v398q-108 -89 -264 -89q-148 0 -224 81.5t-76 241.5v339h142v-292q0 -109 21 -156q41 -92 156 -92q79 0 144 37.5t101 103.5v399h142v-874h97v-332h-153v235z" />
    <glyph glyph-name="uni04B8" unicode="&#x4b8;" horiz-adv-x="1165" 
d="M601 613q170 13 250 134v618h157v-1365h-157v599q-111 -106 -250 -120v-279h-107v278q-370 23 -351 438v449h153v-449q0 -95 12 -144t44 -86q50 -57 142 -69v306h107v-310z" />
    <glyph glyph-name="uni04B9" unicode="&#x4b9;" horiz-adv-x="952" 
d="M483 440q122 29 177 132v399h142v-971h-142v398q-68 -56 -177 -80v-252h-107v244q-138 5 -209 87t-71 235v339h142v-292q-1 -129 37 -184q33 -47 101 -60v259h107v-254z" />
    <glyph glyph-name="uni04BA" unicode="&#x4ba;" horiz-adv-x="1139" 
d="M307 766q128 122 315 122q236 0 335 -151q34 -51 46 -111.5t12 -176.5v-449h-153v449q0 136 -33 196q-59 108 -233 108q-200 0 -289 -135v-618h-157v1365h157v-599z" />
    <glyph glyph-name="uni04BB" unicode="&#x4bb;" horiz-adv-x="1028" 
d="M150 1372h142v-515q106 141 279 141q86 0 156 -33.5t109 -93.5q29 -45 38 -105.5t9 -207.5v-558h-143v549q0 171 -27 224q-50 97 -172 97q-136 0 -204 -116q-45 -75 -45 -220v-534h-142v1372z" />
    <glyph glyph-name="uni04C0" unicode="&#x4c0;" horiz-adv-x="504" 
d="M331 0h-157v1365h157v-1365z" />
    <glyph glyph-name="uni04CF" unicode="&#x4cf;" horiz-adv-x="504" 
d="M331 0h-157v1365h157v-1365z" />
    <glyph glyph-name="uni04D8" unicode="&#x4d8;" horiz-adv-x="1325" 
d="M105 734l961 -2q-21 139 -34.5 191t-41.5 107q-115 224 -327 224q-106 0 -195.5 -63.5t-129.5 -166.5l-140 70q27 59 74 112q161 183 391 183q157 0 286 -86q133 -88 207 -280q64 -169 64 -355q0 -306 -166 -509q-76 -93 -189 -142q-94 -40 -201 -40q-157 0 -287 85
q-152 101 -215 323q-31 110 -57 349zM266 625q8 -135 74 -284q101 -230 323 -230q235 0 347 272q48 115 54 242h-798z" />
    <glyph glyph-name="afii10846" unicode="&#x4d9;" horiz-adv-x="995" 
d="M93 512h662q-4 156 -59 244q-73 119 -221 119q-81 0 -133 -34t-93 -113l-133 16q88 254 360 254q178 0 293 -116q133 -135 133 -384q0 -274 -148 -419q-106 -104 -269 -104q-203 0 -311 169q-82 128 -82 327q0 13 1 41zM242 399q9 -107 45 -177q66 -126 203 -126
q107 0 173.5 77t87.5 226h-509z" />
    <glyph glyph-name="uni04E2" unicode="&#x4e2;" 
d="M216 1692h591v-107h-591v107zM994 1365v-1365h-145v1064l-677 -983v-81h-143v1365h143v-1064l677 983v81h145z" />
    <glyph glyph-name="uni04E3" unicode="&#x4e3;" 
d="M233 1320h559v-109h-559v109zM739 971h143v-971h-143v701l-454 -639v-62h-142v971h142v-701l454 639v62z" />
    <glyph glyph-name="uni04E8" unicode="&#x4e8;" horiz-adv-x="1323" 
d="M663 1389q236 0 390 -182q165 -197 165 -524q0 -326 -165 -524q-152 -182 -391 -182q-240 0 -392 182q-165 198 -165 514q0 338 165 534q155 182 393 182zM270 723h783q-7 176 -66 302q-107 229 -325 229q-171 0 -277 -143.5t-115 -387.5zM1052 616h-781q13 -168 64 -276
q108 -229 327 -229q166 0 268.5 132.5t121.5 372.5z" />
    <glyph glyph-name="uni04E9" unicode="&#x4e9;" horiz-adv-x="1032" 
d="M517 998q169 0 286 -121q137 -143 137 -391q0 -247 -137 -390q-116 -121 -287 -121q-173 0 -287 121q-137 145 -137 383q0 252 137 398q114 121 288 121zM242 541h547q-8 105 -49 186q-77 148 -224 148q-113 0 -187.5 -91t-86.5 -243zM790 434h-548q8 -108 50 -188
q76 -148 224 -148q114 0 188 91t86 245z" />
    <glyph glyph-name="uni04EE" unicode="&#x4ee;" 
d="M217 1692h590v-107h-590v107zM539 592l317 773h162l-604 -1365h-153l206 435l-437 930h176z" />
    <glyph glyph-name="uni04EF" unicode="&#x4ef;" 
d="M233 1320h559v-109h-559v109zM97 971h153l264 -809l272 809h150l-320 -902q-67 -193 -95 -252.5t-75 -110.5q-107 -114 -283 -114q-18 0 -44 1v126q137 -1 197 50q32 27 56.5 73t61.5 149z" />
    <glyph glyph-name="uni1E1E" unicode="&#x1e1e;" horiz-adv-x="998" 
d="M329 774h554v-133h-554v-641h-153v1365h751v-133h-598v-458zM553 1766q52 0 89.5 -38t37.5 -90q0 -54 -37.5 -91.5t-90.5 -37.5q-54 0 -91.5 37.5t-37.5 90.5q0 54 38 91.5t92 37.5z" />
    <glyph glyph-name="uni1E32" unicode="&#x1e32;" horiz-adv-x="1145" 
d="M888 1365h185l-557 -645l611 -720h-210l-582 716zM176 1365h155v-1365h-155v1365zM607 -91q53 0 90 -37.5t37 -90.5q0 -54 -37.5 -91.5t-90.5 -37.5q-54 0 -91.5 37.5t-37.5 90.5q0 54 38 91.5t92 37.5z" />
    <glyph glyph-name="Wgrave" unicode="&#x1e80;" horiz-adv-x="1591" 
d="M36 1365h146l264 -1163l284 1163h131l284 -1163l267 1163h144l-327 -1373h-164l-271 1066l-269 -1066h-164zM904 1497h-148l-340 280h205z" />
    <glyph glyph-name="wgrave" unicode="&#x1e81;" horiz-adv-x="1353" 
d="M31 971h148l208 -769l228 769h123l227 -769l209 769h148l-282 -983h-140l-225 763l-223 -763h-140zM786 1120h-120l-298 280h206z" />
    <glyph glyph-name="Wacute" unicode="&#x1e82;" horiz-adv-x="1591" 
d="M36 1365h146l264 -1163l284 1163h131l284 -1163l267 1163h144l-327 -1373h-164l-271 1066l-269 -1066h-164zM703 1497l284 280h205l-341 -280h-148z" />
    <glyph glyph-name="wacute" unicode="&#x1e83;" horiz-adv-x="1353" 
d="M31 971h148l208 -769l228 769h123l227 -769l209 769h148l-282 -983h-140l-225 763l-223 -763h-140zM595 1120l212 280h206l-298 -280h-120z" />
    <glyph glyph-name="Wdieresis" unicode="&#x1e84;" horiz-adv-x="1591" 
d="M34 1365h146l264 -1163l284 1163h131l284 -1163l267 1163h144l-327 -1373h-164l-271 1066l-269 -1066h-164zM613 1754q47 0 81 -34.5t34 -81.5q0 -49 -34 -83t-82 -34t-82 34t-34 82q0 49 34 83t83 34zM979 1754q47 0 81 -34.5t34 -81.5q0 -49 -34 -83t-82 -34t-82 34
t-34 82q0 49 34 83t83 34z" />
    <glyph glyph-name="wdieresis" unicode="&#x1e85;" horiz-adv-x="1353" 
d="M31 971h148l208 -769l228 769h123l227 -769l209 769h148l-282 -983h-140l-225 763l-223 -763h-140zM503 1376q44 0 75 -31.5t31 -75.5q0 -45 -31.5 -76.5t-75.5 -31.5q-45 0 -76.5 31.5t-31.5 75.5q0 46 31.5 77t77.5 31zM852 1376q44 0 75.5 -31.5t31.5 -75.5
q0 -45 -31.5 -76.5t-76.5 -31.5t-76.5 31.5t-31.5 75.5q0 46 31.5 77t77.5 31z" />
    <glyph glyph-name="uni1EA0" unicode="&#x1ea0;" horiz-adv-x="1158" 
d="M512 1374h134l471 -1374h-159l-122 362h-514l-122 -362h-158zM794 495l-215 679l-215 -679h430zM581 -154q52 0 89.5 -38t37.5 -90q0 -54 -37.5 -91.5t-90.5 -37.5q-54 0 -91.5 37.5t-37.5 90.5q0 54 38 91.5t92 37.5z" />
    <glyph glyph-name="uni1EA1" unicode="&#x1ea1;" horiz-adv-x="974" 
d="M272 716h-143q14 124 88 193q96 89 276 89q153 0 243 -70q53 -41 71 -103t18 -206v-364q-1 -178 27 -255h-137q-16 59 -21 131q-85 -156 -285 -156q-130 0 -213 64q-100 78 -100 216q0 207 226 291q125 47 363 86v41q0 101 -33 142q-49 61 -165 61q-185 0 -215 -160z
M685 526q-211 -38 -306 -82q-135 -63 -135 -179q0 -76 52 -123t135 -47q146 0 214 115q40 68 40 219v97zM489 -154q52 0 89.5 -38t37.5 -90q0 -54 -37.5 -91.5t-90.5 -37.5q-54 0 -91.5 37.5t-37.5 90.5q0 54 38 91.5t92 37.5z" />
    <glyph glyph-name="uni1EA2" unicode="&#x1ea2;" horiz-adv-x="1158" 
d="M512 1374h134l471 -1374h-159l-122 362h-514l-122 -362h-158zM794 495l-215 679l-215 -679h430zM548 1487l-1 148q19 -1 30 -1q149 0 149 101q0 47 -33 75.5t-88 28.5q-39 0 -114 -26v86q97 37 163 37q91 0 149 -47q66 -54 66 -140q0 -90 -75 -138q-56 -36 -166 -37v-87
h-80z" />
    <glyph glyph-name="uni1EA3" unicode="&#x1ea3;" horiz-adv-x="974" 
d="M272 716h-143q14 124 88 193q96 89 276 89q153 0 243 -70q53 -41 71 -103t18 -206v-364q-1 -178 27 -255h-137q-16 59 -21 131q-85 -156 -285 -156q-130 0 -213 64q-100 78 -100 216q0 207 226 291q125 47 363 86v41q0 101 -33 142q-49 61 -165 61q-185 0 -215 -160z
M685 526q-211 -38 -306 -82q-135 -63 -135 -179q0 -76 52 -123t135 -47q146 0 214 115q40 68 40 219v97zM471 1183l-1 148q19 -1 30 -1q149 0 149 101q0 47 -33 75.5t-88 28.5q-38 0 -114 -27v87q96 37 164 37q90 0 148 -47q66 -54 66 -140q0 -90 -75 -138q-56 -36 -166 -37
v-87h-80z" />
    <glyph glyph-name="uni1EA4" unicode="&#x1ea4;" horiz-adv-x="1158" 
d="M790 1642l241 239h206l-341 -280h-65l97 -98h-142l-206 181l-206 -181h-143l266 269h165zM512 1374h134l471 -1374h-159l-122 362h-514l-122 -362h-158zM794 495l-215 679l-215 -679h430z" />
    <glyph glyph-name="uni1EA5" unicode="&#x1ea5;" horiz-adv-x="974" 
d="M678 1284l181 239h205l-297 -280h-56l95 -117h-139l-175 193l-175 -193h-139l232 286h164zM272 716h-143q14 124 88 193q96 89 276 89q153 0 243 -70q53 -41 71 -103t18 -206v-364q-1 -178 27 -255h-137q-16 59 -21 131q-85 -156 -285 -156q-130 0 -213 64
q-100 78 -100 216q0 207 226 291q125 47 363 86v41q0 101 -33 142q-49 61 -165 61q-185 0 -215 -160zM685 526q-211 -38 -306 -82q-135 -63 -135 -179q0 -76 52 -123t135 -47q146 0 214 115q40 68 40 219v97z" />
    <glyph glyph-name="uni1EA6" unicode="&#x1ea6;" horiz-adv-x="1158" 
d="M897 1626l-340 280h205l283 -280h-148zM497 1772h165l266 -269h-142l-206 181l-206 -181h-143zM512 1374h134l471 -1374h-159l-122 362h-514l-122 -362h-158zM794 495l-215 679l-215 -679h430z" />
    <glyph glyph-name="uni1EA7" unicode="&#x1ea7;" horiz-adv-x="974" 
d="M806 1254l-297 281h205l212 -281h-120zM410 1412h164l232 -286h-139l-175 193l-175 -193h-139zM272 716h-143q14 124 88 193q96 89 276 89q153 0 243 -70q53 -41 71 -103t18 -206v-364q-1 -178 27 -255h-137q-16 59 -21 131q-85 -156 -285 -156q-130 0 -213 64
q-100 78 -100 216q0 207 226 291q125 47 363 86v41q0 101 -33 142q-49 61 -165 61q-185 0 -215 -160zM685 526q-211 -38 -306 -82q-135 -63 -135 -179q0 -76 52 -123t135 -47q146 0 214 115q40 68 40 219v97z" />
    <glyph glyph-name="uni1EA8" unicode="&#x1ea8;" horiz-adv-x="1158" 
d="M772 1660v87h30q149 0 149 102q0 47 -33 75.5t-88 28.5q-39 0 -114 -27v87q98 37 163 37q91 0 149 -47q66 -54 66 -140q0 -91 -75 -139q-56 -36 -166 -37v-87h-21l96 -97h-142l-207 181l-206 -181h-142l266 269h164zM512 1374h134l471 -1374h-159l-122 362h-514
l-122 -362h-158zM794 495l-215 679l-215 -679h430z" />
    <glyph glyph-name="uni1EA9" unicode="&#x1ea9;" horiz-adv-x="974" 
d="M662 1304l-1 91q19 -1 30 -1q149 0 149 100q0 47 -33 75.5t-88 28.5q-38 0 -114 -26v86q96 37 164 37q90 0 148 -47q66 -54 66 -140q0 -90 -75 -138q-56 -35 -166 -36v-87h-34l98 -121h-139l-175 193l-175 -193h-139l231 286h165zM272 716h-143q14 124 88 193
q96 89 276 89q153 0 243 -70q53 -41 71 -103t18 -206v-364q-1 -178 27 -255h-137q-16 59 -21 131q-85 -156 -285 -156q-130 0 -213 64q-100 78 -100 216q0 207 226 291q125 47 363 86v41q0 101 -33 142q-49 61 -165 61q-185 0 -215 -160zM685 526q-211 -38 -306 -82
q-135 -63 -135 -179q0 -76 52 -123t135 -47q146 0 214 115q40 68 40 219v97z" />
    <glyph glyph-name="uni1EAA" unicode="&#x1eaa;" horiz-adv-x="1158" 
d="M512 1374h134l471 -1374h-159l-122 362h-514l-122 -362h-158zM794 495l-215 679l-215 -679h430zM231 1503l266 269h165l266 -269h-142l-206 181l-206 -181h-143zM334 1813l-88 33q17 66 38 106q50 92 150 92q61 0 154 -53q63 -35 89 -46t51 -11q76 0 100 119l85 -32
q-10 -67 -33 -109q-24 -44 -66 -70.5t-87 -26.5q-34 0 -66 12t-105 52q-81 45 -122 45q-72 0 -100 -111z" />
    <glyph glyph-name="uni1EAB" unicode="&#x1eab;" horiz-adv-x="974" 
d="M272 716h-143q14 124 88 193q96 89 276 89q153 0 243 -70q53 -41 71 -103t18 -206v-364q-1 -178 27 -255h-137q-16 59 -21 131q-85 -156 -285 -156q-130 0 -213 64q-100 78 -100 216q0 207 226 291q125 47 363 86v41q0 101 -33 142q-49 61 -165 61q-185 0 -215 -160z
M685 526q-211 -38 -306 -82q-135 -63 -135 -179q0 -76 52 -123t135 -47q146 0 214 115q40 68 40 219v97zM178 1126l232 286h164l232 -286h-139l-175 193l-175 -193h-139zM292 1470l-83 19q41 213 173 213q58 0 138 -53q89 -58 126 -58q66 0 90 119l84 -20q-12 -89 -48 -146
q-48 -74 -122 -74q-57 0 -149 58q-86 54 -120 54q-65 0 -89 -112z" />
    <glyph glyph-name="uni1EAC" unicode="&#x1eac;" horiz-adv-x="1158" 
d="M512 1374h134l471 -1374h-159l-122 362h-514l-122 -362h-158zM794 495l-215 679l-215 -679h430zM231 1503l266 269h165l266 -269h-142l-206 181l-206 -181h-143zM581 -154q52 0 89.5 -38t37.5 -90q0 -54 -37.5 -91.5t-90.5 -37.5q-54 0 -91.5 37.5t-37.5 90.5
q0 54 38 91.5t92 37.5z" />
    <glyph glyph-name="uni1EAD" unicode="&#x1ead;" horiz-adv-x="974" 
d="M272 716h-143q14 124 88 193q96 89 276 89q153 0 243 -70q53 -41 71 -103t18 -206v-364q-1 -178 27 -255h-137q-16 59 -21 131q-85 -156 -285 -156q-130 0 -213 64q-100 78 -100 216q0 207 226 291q125 47 363 86v41q0 101 -33 142q-49 61 -165 61q-185 0 -215 -160z
M685 526q-211 -38 -306 -82q-135 -63 -135 -179q0 -76 52 -123t135 -47q146 0 214 115q40 68 40 219v97zM178 1126l232 286h164l232 -286h-139l-175 193l-175 -193h-139zM489 -154q52 0 89.5 -38t37.5 -90q0 -54 -37.5 -91.5t-90.5 -37.5q-54 0 -91.5 37.5t-37.5 90.5
q0 54 38 91.5t92 37.5z" />
    <glyph glyph-name="uni1EAE" unicode="&#x1eae;" horiz-adv-x="1158" 
d="M512 1374h134l471 -1374h-159l-122 362h-514l-122 -362h-158zM794 495l-215 679l-215 -679h430zM301 1774h82q18 -59 52 -95q61 -63 146 -63q69 0 120.5 41.5t74.5 116.5h82q-9 -80 -42 -137q-79 -136 -234 -136q-158 0 -239 138q-34 58 -42 135zM487 1721l283 280h205
l-340 -280h-148z" />
    <glyph glyph-name="uni1EAF" unicode="&#x1eaf;" horiz-adv-x="974" 
d="M272 716h-143q14 124 88 193q96 89 276 89q153 0 243 -70q53 -41 71 -103t18 -206v-364q-1 -178 27 -255h-137q-16 59 -21 131q-85 -156 -285 -156q-130 0 -213 64q-100 78 -100 216q0 207 226 291q125 47 363 86v41q0 101 -33 142q-49 61 -165 61q-185 0 -215 -160z
M685 526q-211 -38 -306 -82q-135 -63 -135 -179q0 -76 52 -123t135 -47q146 0 214 115q40 68 40 219v97zM238 1396h84q21 -76 65 -118t104 -42q123 0 166 160h85q-8 -80 -38 -140q-68 -137 -210 -137q-143 0 -217 138q-32 60 -39 139zM406 1380l212 281h205l-297 -281h-120z
" />
    <glyph glyph-name="uni1EB0" unicode="&#x1eb0;" horiz-adv-x="1158" 
d="M512 1374h134l471 -1374h-159l-122 362h-514l-122 -362h-158zM794 495l-215 679l-215 -679h430zM301 1774h82q18 -59 52 -95q61 -63 146 -63q69 0 120.5 41.5t74.5 116.5h82q-9 -80 -42 -137q-79 -136 -234 -136q-158 0 -239 138q-34 58 -42 135zM688 1721h-148l-341 280
h205z" />
    <glyph glyph-name="uni1EB1" unicode="&#x1eb1;" horiz-adv-x="974" 
d="M272 716h-143q14 124 88 193q96 89 276 89q153 0 243 -70q53 -41 71 -103t18 -206v-364q-1 -178 27 -255h-137q-16 59 -21 131q-85 -156 -285 -156q-130 0 -213 64q-100 78 -100 216q0 207 226 291q125 47 363 86v41q0 101 -33 142q-49 61 -165 61q-185 0 -215 -160z
M685 526q-211 -38 -306 -82q-135 -63 -135 -179q0 -76 52 -123t135 -47q146 0 214 115q40 68 40 219v97zM238 1396h84q21 -76 65 -118t104 -42q123 0 166 160h85q-8 -80 -38 -140q-68 -137 -210 -137q-143 0 -217 138q-32 60 -39 139zM614 1350h-119l-298 280h205z" />
    <glyph glyph-name="uni1EB2" unicode="&#x1eb2;" horiz-adv-x="1158" 
d="M512 1374h134l471 -1374h-159l-122 362h-514l-122 -362h-158zM794 495l-215 679l-215 -679h430zM301 1774h82q18 -59 52 -95q61 -63 146 -63q69 0 120.5 41.5t74.5 116.5h82q-9 -80 -42 -137q-79 -136 -234 -136q-158 0 -239 138q-34 58 -42 135zM542 1717l-1 147h30
q149 0 149 101q0 47 -33 75.5t-88 28.5q-38 0 -114 -26v86q96 37 163 37q91 0 149 -47q66 -53 66 -140q0 -90 -75 -138q-56 -36 -166 -37v-87h-80z" />
    <glyph glyph-name="uni1EB3" unicode="&#x1eb3;" horiz-adv-x="974" 
d="M272 716h-143q14 124 88 193q96 89 276 89q153 0 243 -70q53 -41 71 -103t18 -206v-364q-1 -178 27 -255h-137q-16 59 -21 131q-85 -156 -285 -156q-130 0 -213 64q-100 78 -100 216q0 207 226 291q125 47 363 86v41q0 101 -33 142q-49 61 -165 61q-185 0 -215 -160z
M685 526q-211 -38 -306 -82q-135 -63 -135 -179q0 -76 52 -123t135 -47q146 0 214 115q40 68 40 219v97zM238 1396h84q21 -76 65 -118t104 -42q123 0 166 160h85q-8 -80 -38 -140q-68 -137 -210 -137q-143 0 -217 138q-32 60 -39 139zM455 1347l-1 147h30q149 0 149 101
q0 47 -33 75.5t-88 28.5q-38 0 -114 -26v86q95 37 163 37q91 0 149 -47q66 -53 66 -140q0 -90 -75 -138q-56 -36 -166 -37v-87h-80z" />
    <glyph glyph-name="uni1EB4" unicode="&#x1eb4;" horiz-adv-x="1158" 
d="M512 1374h134l471 -1374h-159l-122 362h-514l-122 -362h-158zM794 495l-215 679l-215 -679h430zM301 1774h82q18 -59 52 -95q61 -63 146 -63q69 0 120.5 41.5t74.5 116.5h82q-9 -80 -42 -137q-79 -136 -234 -136q-158 0 -239 138q-34 58 -42 135zM358 1815l-88 33
q17 67 39 107q49 92 149 92q61 0 154 -53q63 -35 89.5 -46t50.5 -11q76 0 100 119l85 -33q-10 -66 -33 -108q-24 -44 -66 -70.5t-87 -26.5q-34 0 -65.5 12t-105.5 52q-81 45 -122 45q-72 0 -100 -112z" />
    <glyph glyph-name="uni1EB5" unicode="&#x1eb5;" horiz-adv-x="974" 
d="M272 716h-143q14 124 88 193q96 89 276 89q153 0 243 -70q53 -41 71 -103t18 -206v-364q-1 -178 27 -255h-137q-16 59 -21 131q-85 -156 -285 -156q-130 0 -213 64q-100 78 -100 216q0 207 226 291q125 47 363 86v41q0 101 -33 142q-49 61 -165 61q-185 0 -215 -160z
M685 526q-211 -38 -306 -82q-135 -63 -135 -179q0 -76 52 -123t135 -47q146 0 214 115q40 68 40 219v97zM238 1396h84q21 -76 65 -118t104 -42q123 0 166 160h85q-8 -80 -38 -140q-68 -137 -210 -137q-143 0 -217 138q-32 60 -39 139zM280 1475l-84 19q42 213 174 213
q58 0 138 -53q89 -58 126 -58q66 0 90 119l84 -20q-12 -89 -48 -146q-48 -74 -122 -74q-57 0 -149 58q-87 54 -120 54q-65 0 -89 -112z" />
    <glyph glyph-name="uni1EB6" unicode="&#x1eb6;" horiz-adv-x="1158" 
d="M512 1374h134l471 -1374h-159l-122 362h-514l-122 -362h-158zM794 495l-215 679l-215 -679h430zM301 1774h82q18 -59 52 -95q61 -63 146 -63q69 0 120.5 41.5t74.5 116.5h82q-9 -80 -42 -137q-79 -136 -234 -136q-158 0 -239 138q-34 58 -42 135zM581 -154q52 0 89.5 -38
t37.5 -90q0 -54 -37.5 -91.5t-90.5 -37.5q-54 0 -91.5 37.5t-37.5 90.5q0 54 38 91.5t92 37.5z" />
    <glyph glyph-name="uni1EB7" unicode="&#x1eb7;" horiz-adv-x="974" 
d="M272 716h-143q14 124 88 193q96 89 276 89q153 0 243 -70q53 -41 71 -103t18 -206v-364q-1 -178 27 -255h-137q-16 59 -21 131q-85 -156 -285 -156q-130 0 -213 64q-100 78 -100 216q0 207 226 291q125 47 363 86v41q0 101 -33 142q-49 61 -165 61q-185 0 -215 -160z
M685 526q-211 -38 -306 -82q-135 -63 -135 -179q0 -76 52 -123t135 -47q146 0 214 115q40 68 40 219v97zM238 1396h84q21 -76 65 -118t104 -42q123 0 166 160h85q-8 -80 -38 -140q-68 -137 -210 -137q-143 0 -217 138q-32 60 -39 139zM489 -154q52 0 89.5 -38t37.5 -90
q0 -54 -37.5 -91.5t-90.5 -37.5q-54 0 -91.5 37.5t-37.5 90.5q0 54 38 91.5t92 37.5z" />
    <glyph glyph-name="uni1EB8" unicode="&#x1eb8;" horiz-adv-x="1027" 
d="M329 774h554v-133h-554v-508h610v-133h-763v1365h751v-133h-598v-458zM515 -154q52 0 89.5 -38t37.5 -90q0 -54 -37.5 -91.5t-90.5 -37.5q-54 0 -91.5 37.5t-37.5 90.5q0 54 38 91.5t92 37.5z" />
    <glyph glyph-name="uni1EB9" unicode="&#x1eb9;" horiz-adv-x="995" 
d="M902 461h-663q5 -156 59 -244q74 -119 221 -119q81 0 133.5 34t92.5 113l134 -16q-89 -254 -361 -254q-178 0 -293 116q-133 135 -133 384q0 274 148 419q106 104 269 104q202 0 311 -169q82 -128 82 -327v-41zM753 574q-9 107 -46 177q-66 126 -203 126q-107 0 -173 -77
t-88 -226h510zM499 -154q52 0 89.5 -38t37.5 -90q0 -54 -37.5 -91.5t-90.5 -37.5q-54 0 -91.5 37.5t-37.5 90.5q0 54 38 91.5t92 37.5z" />
    <glyph glyph-name="uni1EBA" unicode="&#x1eba;" horiz-adv-x="1027" 
d="M329 774h554v-133h-554v-508h610v-133h-763v1365h751v-133h-598v-458zM497 1534l-1 148q19 -1 30 -1q149 0 149 101q0 47 -33 75.5t-88 28.5q-39 0 -114 -26v86q97 37 163 37q91 0 149 -47q66 -54 66 -140q0 -90 -75 -138q-56 -36 -166 -37v-87h-80z" />
    <glyph glyph-name="uni1EBB" unicode="&#x1ebb;" horiz-adv-x="995" 
d="M902 461h-663q5 -156 59 -244q74 -119 221 -119q81 0 133.5 34t92.5 113l134 -16q-89 -254 -361 -254q-178 0 -293 116q-133 135 -133 384q0 274 148 419q106 104 269 104q202 0 311 -169q82 -128 82 -327v-41zM753 574q-9 107 -46 177q-66 126 -203 126q-107 0 -173 -77
t-88 -226h510zM481 1183l-1 148q18 -1 30 -1q149 0 149 101q0 47 -33 75.5t-88 28.5q-38 0 -114 -27v87q96 37 163 37q91 0 149 -47q66 -54 66 -140q0 -90 -75 -138q-56 -36 -166 -37v-87h-80z" />
    <glyph glyph-name="uni1EBC" unicode="&#x1ebc;" horiz-adv-x="1027" 
d="M329 774h554v-133h-554v-508h610v-133h-763v1365h751v-133h-598v-458zM343 1519l-88 33q16 67 38 107q50 92 149 92q62 0 155 -53q63 -35 89 -46t51 -11q75 0 100 119l84 -33q-10 -66 -32 -108q-24 -44 -66 -70.5t-87 -26.5q-34 0 -66 12t-105 52q-81 45 -122 45
q-72 0 -100 -112z" />
    <glyph glyph-name="uni1EBD" unicode="&#x1ebd;" horiz-adv-x="995" 
d="M902 461h-663q5 -156 59 -244q74 -119 221 -119q81 0 133.5 34t92.5 113l134 -16q-89 -254 -361 -254q-178 0 -293 116q-133 135 -133 384q0 274 148 419q106 104 269 104q202 0 311 -169q82 -128 82 -327v-41zM753 574q-9 107 -46 177q-66 126 -203 126q-107 0 -173 -77
t-88 -226h510zM275 1145l-84 19q42 213 174 213q58 0 138 -53q89 -58 126 -58q66 0 90 119l84 -20q-12 -89 -48 -146q-48 -74 -122 -74q-57 0 -149 58q-87 54 -120 54q-65 0 -89 -112z" />
    <glyph glyph-name="uni1EBE" unicode="&#x1ebe;" horiz-adv-x="1027" 
d="M753 1658l238 234h205l-340 -280h-59l109 -109h-142l-206 181l-206 -181h-142l265 269h165zM329 774h554v-133h-554v-508h610v-133h-763v1365h751v-133h-598v-458z" />
    <glyph glyph-name="uni1EBF" unicode="&#x1ebf;" horiz-adv-x="995" 
d="M700 1278l180 238h205l-298 -280h-53l89 -110h-139l-175 193l-175 -193h-139l232 286h164zM902 461h-663q5 -156 59 -244q74 -119 221 -119q81 0 133.5 34t92.5 113l134 -16q-89 -254 -361 -254q-178 0 -293 116q-133 135 -133 384q0 274 148 419q106 104 269 104
q202 0 311 -169q82 -128 82 -327v-41zM753 574q-9 107 -46 177q-66 126 -203 126q-107 0 -173 -77t-88 -226h510z" />
    <glyph glyph-name="uni1EC0" unicode="&#x1ec0;" horiz-adv-x="1028" 
d="M894 1609l-340 280h205l283 -280h-148zM475 1772h165l266 -269h-142l-206 181l-206 -181h-142zM329 774h554v-133h-554v-508h610v-133h-763v1365h751v-133h-598v-458z" />
    <glyph glyph-name="uni1EC1" unicode="&#x1ec1;" horiz-adv-x="995" 
d="M784 1283l-298 280h205l212 -280h-119zM427 1412h164l232 -286h-139l-175 193l-175 -193h-139zM902 461h-663q5 -156 59 -244q74 -119 221 -119q81 0 133.5 34t92.5 113l134 -16q-89 -254 -361 -254q-178 0 -293 116q-133 135 -133 384q0 274 148 419q106 104 269 104
q202 0 311 -169q82 -128 82 -327v-41zM753 574q-9 107 -46 177q-66 126 -203 126q-107 0 -173 -77t-88 -226h510z" />
    <glyph glyph-name="uni1EC2" unicode="&#x1ec2;" horiz-adv-x="1027" 
d="M767 1643l-1 94q19 -1 30 -1q149 0 149 102q0 47 -33 75.5t-88 28.5q-37 0 -114 -27v87q96 37 164 37q90 0 148 -47q66 -54 66 -140q0 -91 -75 -139q-55 -36 -166 -37v-87h-27l86 -86h-142l-207 180l-206 -180h-142l266 269h165zM329 774h554v-133h-554v-508h610v-133
h-763v1365h751v-133h-598v-458z" />
    <glyph glyph-name="uni1EC3" unicode="&#x1ec3;" horiz-adv-x="995" 
d="M671 1312v90h30q149 0 149 100q0 47 -33 75.5t-88 28.5q-38 0 -114 -26v87q96 36 163 36q91 0 149 -47q66 -53 66 -140q0 -90 -75 -138q-56 -35 -166 -36v-87h-34l105 -129h-139l-175 193l-175 -193h-139l231 286h165zM902 461h-663q5 -156 59 -244q74 -119 221 -119
q81 0 133.5 34t92.5 113l134 -16q-89 -254 -361 -254q-178 0 -293 116q-133 135 -133 384q0 274 148 419q106 104 269 104q202 0 311 -169q82 -128 82 -327v-41zM753 574q-9 107 -46 177q-66 126 -203 126q-107 0 -173 -77t-88 -226h510z" />
    <glyph glyph-name="uni1EC4" unicode="&#x1ec4;" horiz-adv-x="1027" 
d="M329 774h554v-133h-554v-508h610v-133h-763v1365h751v-133h-598v-458zM210 1503l265 269h165l266 -269h-142l-206 181l-206 -181h-142zM339 1803l-88 33q16 67 38 107q50 92 149 92q62 0 154 -53q64 -35 90 -46t51 -11q75 0 100 119l84 -33q-10 -66 -32 -108
q-24 -44 -66 -70.5t-88 -26.5q-34 0 -65.5 12t-104.5 52q-81 45 -122 45q-72 0 -100 -112z" />
    <glyph glyph-name="uni1EC5" unicode="&#x1ec5;" horiz-adv-x="995" 
d="M195 1126l232 286h164l232 -286h-139l-175 193l-175 -193h-139zM902 461h-663q5 -156 59 -244q74 -119 221 -119q81 0 133.5 34t92.5 113l134 -16q-89 -254 -361 -254q-178 0 -293 116q-133 135 -133 384q0 274 148 419q106 104 269 104q202 0 311 -169q82 -128 82 -327
v-41zM753 574q-9 107 -46 177q-66 126 -203 126q-107 0 -173 -77t-88 -226h510zM333 1464l-83 20q41 213 174 213q58 0 138 -53q88 -58 125 -58q67 0 91 119l83 -20q-11 -89 -48 -146q-47 -74 -121 -74q-58 0 -149 58q-86 54 -120 54q-65 0 -90 -113z" />
    <glyph glyph-name="uni1EC6" unicode="&#x1ec6;" horiz-adv-x="1027" 
d="M329 774h554v-133h-554v-508h610v-133h-763v1365h751v-133h-598v-458zM210 1503l265 269h165l266 -269h-142l-206 181l-206 -181h-142zM515 -154q52 0 89.5 -38t37.5 -90q0 -54 -37.5 -91.5t-90.5 -37.5q-54 0 -91.5 37.5t-37.5 90.5q0 54 38 91.5t92 37.5z" />
    <glyph glyph-name="uni1EC7" unicode="&#x1ec7;" horiz-adv-x="995" 
d="M195 1126l232 286h164l232 -286h-139l-175 193l-175 -193h-139zM902 461h-663q5 -156 59 -244q74 -119 221 -119q81 0 133.5 34t92.5 113l134 -16q-89 -254 -361 -254q-178 0 -293 116q-133 135 -133 384q0 274 148 419q106 104 269 104q202 0 311 -169q82 -128 82 -327
v-41zM753 574q-9 107 -46 177q-66 126 -203 126q-107 0 -173 -77t-88 -226h510zM499 -154q52 0 89.5 -38t37.5 -90q0 -54 -37.5 -91.5t-90.5 -37.5q-54 0 -91.5 37.5t-37.5 90.5q0 54 38 91.5t92 37.5z" />
    <glyph glyph-name="uni1EC8" unicode="&#x1ec8;" horiz-adv-x="504" 
d="M330 0h-157v1365h157v-1365zM217 1495l-1 147h30q149 0 149 101q0 47 -33 75.5t-88 28.5q-38 0 -114 -26v86q95 37 163 37q91 0 149 -47q66 -53 66 -140q0 -90 -75 -138q-56 -36 -166 -37v-87h-80z" />
    <glyph glyph-name="uni1EC9" unicode="&#x1ec9;" horiz-adv-x="452" 
d="M151 971h151v-971h-151v971zM193 1183l-1 148q19 -1 30 -1q149 0 149 101q0 47 -33 75.5t-88 28.5q-38 0 -114 -27v87q96 37 163 37q92 0 149 -47q66 -54 66 -140q0 -90 -75 -138q-56 -36 -166 -37v-87h-80z" />
    <glyph glyph-name="uni1ECA" unicode="&#x1eca;" horiz-adv-x="504" 
d="M331 0h-157v1365h157v-1365zM254 -154q52 0 89.5 -38t37.5 -90q0 -54 -37.5 -91.5t-90.5 -37.5q-54 0 -91.5 37.5t-37.5 90.5q0 54 38 91.5t92 37.5z" />
    <glyph glyph-name="uni1ECB" unicode="&#x1ecb;" horiz-adv-x="452" 
d="M150 971h151v-971h-151v971zM228 1384q44 0 73 -30t29 -76q0 -44 -29.5 -73.5t-74.5 -29.5q-46 0 -75.5 29t-29.5 73q0 46 30.5 76.5t76.5 30.5zM227 -154q52 0 89.5 -38t37.5 -90q0 -54 -37.5 -91.5t-90.5 -37.5q-54 0 -91.5 37.5t-37.5 90.5q0 54 38 91.5t92 37.5z" />
    <glyph glyph-name="uni1ECC" unicode="&#x1ecc;" horiz-adv-x="1323" 
d="M662 1389q237 0 391 -182q165 -197 165 -524q0 -326 -165 -524q-152 -182 -390 -182q-241 0 -393 182q-165 198 -165 534q0 214 79 380q83 172 233 254q112 62 245 62zM662 1254q-180 0 -283 -152q-110 -162 -110 -412q0 -264 110 -427q103 -152 283 -152q112 0 201 67
q91 68 141 200.5t50 304.5q0 260 -110 419q-106 152 -282 152zM663 -154q52 0 89.5 -38t37.5 -90q0 -54 -37.5 -91.5t-90.5 -37.5q-54 0 -91.5 37.5t-37.5 90.5q0 54 38 91.5t92 37.5z" />
    <glyph glyph-name="uni1ECD" unicode="&#x1ecd;" horiz-adv-x="1032" 
d="M516 998q170 0 287 -121q137 -142 137 -391q0 -247 -137 -390q-116 -121 -286 -121q-174 0 -288 121q-137 145 -137 398q0 112 36 213t101 170q114 121 287 121zM516 875q-119 0 -191 -95q-85 -113 -85 -288q0 -186 85 -299q72 -95 191 -95t191 95q85 113 85 293
q0 183 -85 294q-73 95 -191 95zM517 -154q52 0 89.5 -38t37.5 -90q0 -54 -37.5 -91.5t-90.5 -37.5q-54 0 -91.5 37.5t-37.5 90.5q0 54 38 91.5t92 37.5z" />
    <glyph glyph-name="uni1ECE" unicode="&#x1ece;" horiz-adv-x="1323" 
d="M662 1389q237 0 391 -182q165 -197 165 -524q0 -326 -165 -524q-152 -182 -390 -182q-241 0 -393 182q-165 198 -165 534q0 214 79 380q83 172 233 254q112 62 245 62zM662 1254q-180 0 -283 -152q-110 -162 -110 -412q0 -264 110 -427q103 -152 283 -152q112 0 201 67
q91 68 141 200.5t50 304.5q0 260 -110 419q-106 152 -282 152zM619 1535l-1 148q19 -1 30 -1q149 0 149 101q0 47 -33 75.5t-88 28.5q-38 0 -114 -26v86q95 37 164 37q90 0 148 -47q66 -53 66 -140q0 -90 -75 -138q-56 -36 -166 -37v-87h-80z" />
    <glyph glyph-name="uni1ECF" unicode="&#x1ecf;" horiz-adv-x="1032" 
d="M516 998q170 0 287 -121q137 -142 137 -391q0 -247 -137 -390q-116 -121 -286 -121q-174 0 -288 121q-137 145 -137 398q0 112 36 213t101 170q114 121 287 121zM516 875q-119 0 -191 -95q-85 -113 -85 -288q0 -186 85 -299q72 -95 191 -95t191 95q85 113 85 293
q0 183 -85 294q-73 95 -191 95zM499 1183l-1 148q19 -1 30 -1q149 0 149 101q0 47 -33 75.5t-88 28.5q-38 0 -114 -27v87q97 37 164 37q90 0 148 -47q66 -54 66 -140q0 -90 -75 -138q-56 -36 -166 -37v-87h-80z" />
    <glyph glyph-name="uni1ED0" unicode="&#x1ed0;" horiz-adv-x="1323" 
d="M867 1648l244 241h205l-340 -280h-71l105 -106h-142l-206 181l-207 -181h-142l266 269h165zM662 1389q222 0 373 -165q183 -200 183 -541q0 -340 -183 -541q-150 -165 -366 -165q-231 0 -381 165q-183 201 -183 544q0 341 183 538q154 165 374 165zM662 1254
q-120 0 -214 -75q-96 -77 -143 -231q-36 -118 -36 -265q0 -261 111 -423q47 -70 124 -110q72 -39 152 -39q185 0 287 149q111 162 111 425q0 262 -111 421q-104 148 -281 148z" />
    <glyph glyph-name="uni1ED1" unicode="&#x1ed1;" horiz-adv-x="1032" 
d="M684 1306l180 237h205l-297 -280h-53l111 -137h-139l-175 193l-175 -193h-139l231 286h165zM517 998q169 0 286 -121q137 -142 137 -391q0 -247 -137 -390q-116 -121 -287 -121q-173 0 -287 121q-137 145 -137 383q0 253 137 398q114 121 288 121zM516 875
q-119 0 -191 -95q-85 -113 -85 -288q0 -186 85 -299q72 -95 191 -95t191 95q85 113 85 293q0 183 -85 294q-73 95 -191 95z" />
    <glyph glyph-name="uni1ED2" unicode="&#x1ed2;" horiz-adv-x="1323" 
d="M980 1623l-340 280h205l284 -280h-149zM579 1772h165l266 -269h-142l-206 181l-207 -181h-142zM662 1389q222 0 373 -165q183 -200 183 -541q0 -340 -183 -541q-150 -165 -366 -165q-231 0 -381 165q-183 201 -183 544q0 341 183 538q154 165 374 165zM662 1254
q-120 0 -214 -75q-96 -77 -143 -231q-36 -118 -36 -265q0 -261 111 -423q47 -70 124 -110q72 -39 152 -39q185 0 287 149q111 162 111 425q0 262 -111 421q-104 148 -281 148z" />
    </font>
</defs>
</svg>
