<?xml version="1.0" standalone="no"?>
<!DOCTYPE svg PUBLIC "-//W3C//DTD SVG 1.1//EN" "http://www.w3.org/Graphics/SVG/1.1/DTD/svg11.dtd" >
<svg>
<metadata>
Created by FontForge 20090622 at Fri Aug 10 12:15:09 2018
 By deploy user
Copyright (c) The Font Bureau, Inc., 2006. All rights reserved.
</metadata>
<defs>
<font id="FordAntenna-Semibold" horiz-adv-x="750" >
  <font-face 
    font-family="Ford Antenna Semibold"
    font-weight="600"
    font-stretch="normal"
    units-per-em="1000"
    panose-1="2 0 5 5 0 0 0 2 0 4"
    ascent="800"
    descent="-200"
    x-height="563"
    cap-height="741"
    bbox="-91 -309 1671 1252"
    underline-thickness="50"
    underline-position="-50"
    unicode-range="U+0020-U+FB04"
  />
<missing-glyph horiz-adv-x="500" 
d="M0 0v700h500v-700h-500zM50 650v-600h400v600h-400z" />
    <glyph glyph-name="f_f" unicode="ff" horiz-adv-x="779" 
d="M482 0v443h-213v-443h-136v443h-106v120h106v34q0 98 44.5 146.5t156.5 48.5q42 0 72 -2v-114h-54q-47 0 -65 -19.5t-18 -58.5v-35h213v34q0 98 44.5 146.5t157.5 48.5q41 0 71 -2v-114h-53q-48 0 -65.5 -19.5t-17.5 -58.5v-35h136v-120h-136v-443h-137z" />
    <glyph glyph-name="fi" unicode="fi" horiz-adv-x="690" 
d="M27 443v120h106v34q0 98 44.5 146.5t156.5 48.5q42 0 72 -2v-114h-54q-47 0 -65 -19.5t-18 -58.5v-35h137v-120h-137v-443h-136v443h-106zM482 0v563h137v-563h-137zM481 620v135h139v-135h-139z" />
    <glyph glyph-name="fl" unicode="fl" horiz-adv-x="739" 
d="M27 443v120h106v34q0 98 44.5 146.5t156.5 48.5q42 0 72 -2v-114h-54q-47 0 -65 -19.5t-18 -58.5v-35h137v-120h-137v-443h-136v443h-106zM627 -2q-76 0 -110.5 37t-34.5 128v613h137v-597q0 -37 10.5 -49.5t46.5 -12.5h20v-115q-22 -4 -69 -4z" />
    <glyph glyph-name="f_f_i" unicode="ffi" horiz-adv-x="1040" 
d="M482 0v443h-213v-443h-136v443h-106v120h106v34q0 98 44.5 146.5t156.5 48.5q42 0 72 -2v-114h-54q-47 0 -65 -19.5t-18 -58.5v-35h213v34q0 98 44.5 146.5t157.5 48.5q41 0 71 -2v-114h-53q-48 0 -65.5 -19.5t-17.5 -58.5v-35h136v-120h-136v-443h-137zM832 0v563h136
v-563h-136zM831 620v135h138v-135h-138z" />
    <glyph glyph-name="f_f_l" unicode="ffl" horiz-adv-x="1089" 
d="M482 0v443h-213v-443h-136v443h-106v120h106v34q0 98 44.5 146.5t156.5 48.5q42 0 72 -2v-114h-54q-47 0 -65 -19.5t-18 -58.5v-35h213v34q0 98 44.5 146.5t157.5 48.5q41 0 71 -2v-114h-53q-48 0 -65.5 -19.5t-17.5 -58.5v-35h136v-120h-136v-443h-137zM977 -2
q-76 0 -110.5 37t-34.5 128v613h136v-597q0 -37 10.5 -49.5t46.5 -12.5h21v-115q-22 -4 -69 -4z" />
    <glyph glyph-name="f_j" unicode="fj" horiz-adv-x="690" 
d="M27 443v120h106v34q0 98 44.5 146.5t156.5 48.5q42 0 72 -2v-114h-54q-47 0 -65 -19.5t-18 -58.5v-35h137v-120h-137v-443h-136v443h-106zM414 -169v107h11q37 0 47 14.5t10 61.5v549h137v-548q0 -109 -36 -146.5t-144 -37.5h-25zM481 620v135h139v-135h-139z" />
    <glyph glyph-name="f_t" unicode="ft" horiz-adv-x="799" 
d="M664 -2q-106 0 -145.5 39t-39.5 132v274h-210v-443h-136v443h-106v120h106v34q0 98 44.5 146.5t156.5 48.5q42 0 72 -2v-114h-54q-47 0 -65 -19.5t-18 -58.5v-35h216l23 144l107 22v-166h138v-120h-138v-254q0 -39 13.5 -55.5t62.5 -16.5h62v-117q-19 -2 -89 -2z" />
    <glyph glyph-name=".notdef" horiz-adv-x="500" 
d="M0 0v700h500v-700h-500zM50 650v-600h400v600h-400z" />
    <glyph glyph-name=".null" horiz-adv-x="0" 
 />
    <glyph glyph-name="nonmarkingreturn" horiz-adv-x="333" 
 />
    <glyph glyph-name="space" unicode=" " horiz-adv-x="220" 
 />
    <glyph glyph-name="exclam" unicode="!" horiz-adv-x="391" 
d="M114 0v162h162v-162h-162zM134 227l-13 514h150l-15 -514h-122z" />
    <glyph glyph-name="quotedbl" unicode="&#x22;" horiz-adv-x="553" 
d="M98 411l-9 330h141l-8 -330h-124zM332 411l-9 330h142l-9 -330h-124z" />
    <glyph glyph-name="numbersign" unicode="#" horiz-adv-x="786" 
d="M134 0l37 188h-112v121h134l20 103h-154v123h177l41 206h130l-41 -206h115l40 206h130l-39 -206h116v-123h-139l-20 -103h159v-121h-182l-36 -188h-131l36 188h-114l-36 -188h-131zM312 302h135l23 118h-135z" />
    <glyph glyph-name="dollar" unicode="$" horiz-adv-x="681" 
d="M280 -94v96q-144 10 -239 76l61 97q103 -64 232 -64q89 0 124.5 25.5t35.5 77.5q0 53 -36 73t-131 35q-48 8 -76 14t-66.5 21t-59 35t-35.5 55.5t-15 82.5q0 98 50.5 148t154.5 61v72h126v-72q109 -9 183 -55l-60 -103q-33 20 -85 32.5t-102 12.5q-77 0 -106.5 -22
t-29.5 -67q0 -50 37.5 -68t135.5 -35q47 -8 75.5 -15t64.5 -22t56 -35.5t34.5 -55.5t14.5 -81q0 -197 -218 -221v-98h-126z" />
    <glyph glyph-name="percent" unicode="%" horiz-adv-x="1213" 
d="M264 268q-113 0 -171 63t-58 179q0 115 58.5 179t170.5 64q110 0 167.5 -64t57.5 -179t-57.5 -178.5t-167.5 -63.5zM264 373q103 0 103 137q0 135 -103 135q-106 0 -106 -135q0 -137 106 -137zM950 -10q-111 0 -169 64t-58 180q0 114 58 178.5t169 64.5t169 -64.5
t58 -178.5q0 -116 -58 -180t-169 -64zM950 96q104 0 104 138q0 134 -104 134t-104 -134q0 -138 104 -138zM335 0l414 742h128l-415 -742h-127z" />
    <glyph glyph-name="ampersand" unicode="&#x26;" horiz-adv-x="833" 
d="M316 -10q-145 0 -211 49.5t-66 166.5q0 136 152 213q-34 79 -34 149q0 92 52 138.5t144 46.5t137.5 -44.5t45.5 -140.5q0 -72 -44 -117t-123 -82q39 -54 93 -105q31 -29 64 -56q42 67 91 238l115 -28q-48 -182 -106 -272q58 -26 133 -26h8v-120h-13q-130 0 -219 48
q-83 -58 -219 -58zM316 101q66 0 113 21q-40 33 -73 66q-66 64 -109 131q-75 -49 -75 -111q0 -53 28 -80t116 -27zM286 568q0 -47 29 -108q49 24 75.5 49t26.5 59q0 36 -14.5 53t-49.5 17q-36 0 -51.5 -17t-15.5 -53z" />
    <glyph glyph-name="quotesingle" unicode="'" horiz-adv-x="320" 
d="M98 411l-9 331h141l-8 -331h-124z" />
    <glyph glyph-name="parenleft" unicode="(" horiz-adv-x="510" 
d="M313 -190q-84 72 -146.5 199t-62.5 294q0 155 64 290.5t145 204.5l99 -66q-168 -179 -168 -429q0 -147 50 -254t118 -173z" />
    <glyph glyph-name="parenright" unicode=")" horiz-adv-x="510" 
d="M196 -190l-97 66q167 176 167 427q0 146 -50 254.5t-117 174.5l97 66q85 -72 148 -200t63 -295q0 -155 -64.5 -289.5t-146.5 -203.5z" />
    <glyph glyph-name="asterisk" unicode="*" horiz-adv-x="601" 
d="M247 244l12 170l-146 -95l-54 98l157 75l-157 77l54 97l146 -96l-12 172h106l-12 -173l147 97l54 -96l-158 -78l158 -76l-54 -96l-147 96l12 -172h-106z" />
    <glyph glyph-name="plus" unicode="+" horiz-adv-x="716" 
d="M290 97v193h-193v126h193v192h136v-192h193v-126h-193v-193h-136z" />
    <glyph glyph-name="comma" unicode="," horiz-adv-x="280" 
d="M95 -148l-34 68q48 24 61.5 38t13.5 42h-77v165h161v-118q0 -87 -22.5 -123.5t-102.5 -71.5z" />
    <glyph glyph-name="hyphen" unicode="-" horiz-adv-x="432" 
d="M42 261v125h347v-125h-347z" />
    <glyph glyph-name="hyphen" unicode="&#xad;" horiz-adv-x="432" 
d="M42 261v125h347v-125h-347z" />
    <glyph glyph-name="period" unicode="." horiz-adv-x="280" 
d="M59 0v165h161v-165h-161z" />
    <glyph glyph-name="slash" unicode="/" horiz-adv-x="554" 
d="M0 0l415 741h139l-414 -741h-140z" />
    <glyph glyph-name="zero" unicode="0" horiz-adv-x="762" 
d="M382 -11q-171 0 -243 95.5t-72 286.5q0 192 72 287t243 95q169 0 241 -95t72 -287q0 -190 -72 -286t-241 -96zM382 111q99 0 135.5 64.5t36.5 195.5t-36 193t-136 62q-101 0 -137.5 -62t-36.5 -193t37 -195.5t137 -64.5z" />
    <glyph glyph-name="one" unicode="1" horiz-adv-x="405" 
d="M163 0v615h-130v126h264v-741h-134z" />
    <glyph glyph-name="two" unicode="2" horiz-adv-x="631" 
d="M34 0v110l244 218q92 82 122 121.5t30 88.5q0 50 -29 71.5t-105 21.5q-54 0 -110 -13t-91 -33l-62 108q60 32 120.5 46t155.5 14q131 0 194 -47.5t63 -154.5q0 -81 -38 -140.5t-134 -145.5l-167 -149h348v-116h-541z" />
    <glyph glyph-name="three" unicode="3" horiz-adv-x="640" 
d="M309 -12q-95 0 -163.5 18.5t-136.5 59.5l65 105q118 -66 228 -66q83 0 117.5 25.5t34.5 94.5q0 63 -34 88t-130 25h-123v118h121q82 0 113.5 20t31.5 73q0 49 -29 67t-105 18q-52 0 -107.5 -14.5t-93.5 -37.5l-71 103q110 68 285 68q130 0 192.5 -40.5t62.5 -136.5
q0 -76 -21 -115t-68 -55q58 -14 83.5 -58t25.5 -134q0 -126 -71.5 -176t-206.5 -50z" />
    <glyph glyph-name="four" unicode="4" horiz-adv-x="692" 
d="M39 160v105l327 476h147l-324 -468h227l28 218h97v-218h123v-113h-123v-160h-126v160h-376z" />
    <glyph glyph-name="five" unicode="5" horiz-adv-x="663" 
d="M328 -11q-161 0 -287 78l66 105q38 -21 64.5 -33t68.5 -23t85 -11q38 0 65 5t51 19t36.5 42t12.5 70q0 80 -41 108.5t-118 28.5q-87 0 -146 -29l-115 35l19 357h481v-119h-362l-8 -156q58 28 165 28q46 0 81.5 -5.5t71 -21t58.5 -42.5t37 -72.5t14 -107.5
q0 -78 -21.5 -130.5t-64 -79t-92.5 -36.5t-121 -10z" />
    <glyph glyph-name="six" unicode="6" horiz-adv-x="719" 
d="M378 -11q-165 0 -240 79.5t-75 247.5q0 120 19 196.5t69.5 130t136.5 76t222 22.5h59v-119h-63q-67 0 -117 -7t-82 -21t-53 -29.5t-32 -39.5t-15.5 -43t-7.5 -48q52 67 223 67q137 0 192.5 -62.5t55.5 -186.5q0 -130 -67.5 -196.5t-224.5 -66.5zM379 104q91 0 124.5 35.5
t33.5 107.5q0 70 -35 106.5t-122 36.5q-85 0 -130.5 -33t-45.5 -99q0 -82 43.5 -118t131.5 -36z" />
    <glyph glyph-name="seven" unicode="7" horiz-adv-x="575" 
d="M133 0l270 622h-389v119h539v-102l-277 -639h-143z" />
    <glyph glyph-name="eight" unicode="8" horiz-adv-x="728" 
d="M364 -16q-163 0 -236 61t-73 164q0 161 119 198q-54 20 -74 59.5t-20 98.5q0 87 63 137.5t221 50.5q83 0 140.5 -14.5t88 -42t43.5 -59t13 -72.5q0 -126 -95 -158q121 -38 121 -198q0 -103 -73.5 -164t-237.5 -61zM364 98q172 0 172 122q0 123 -172 123q-91 0 -131 -31
t-40 -92q0 -60 40 -91t131 -31zM364 451q83 0 117.5 24t34.5 72q0 47 -34.5 70.5t-117.5 23.5t-117 -23.5t-34 -70.5q0 -48 34 -72t117 -24z" />
    <glyph glyph-name="nine" unicode="9" horiz-adv-x="719" 
d="M157 0v116h64q80 0 137 11.5t88 27t49.5 43.5t23.5 50t9 57q-52 -66 -223 -66q-136 0 -192 64t-56 185q0 130 67.5 197.5t224.5 67.5q165 0 240 -79.5t75 -246.5q0 -120 -19 -196.5t-69 -130.5t-136.5 -77t-222.5 -23h-60zM347 347q176 0 176 131q0 83 -43 119t-131 36
q-92 0 -125.5 -35.5t-33.5 -107.5q0 -71 35 -107t122 -36z" />
    <glyph glyph-name="colon" unicode=":" horiz-adv-x="300" 
d="M69 0v160h161v-160h-161zM69 403v160h161v-160h-161z" />
    <glyph glyph-name="semicolon" unicode=";" horiz-adv-x="300" 
d="M105 -148l-34 68q48 24 61.5 38t13.5 42h-77v160h161v-113q0 -81 -23.5 -121t-101.5 -74zM69 403v160h161v-160h-161z" />
    <glyph glyph-name="less" unicode="&#x3c;" horiz-adv-x="716" 
d="M567 69l-457 229v97l457 227v-126l-315 -149l315 -150v-128z" />
    <glyph glyph-name="equal" unicode="=" horiz-adv-x="716" 
d="M103 172v125h511v-125h-511zM103 409v124h511v-124h-511z" />
    <glyph glyph-name="greater" unicode="&#x3e;" horiz-adv-x="716" 
d="M149 69v128l316 148l-316 150v127l458 -228v-97z" />
    <glyph glyph-name="question" unicode="?" horiz-adv-x="693" 
d="M259 211q-13 100 11 145.5t108 84.5q67 32 86.5 51t19.5 57q0 42 -27 60.5t-110 18.5q-113 0 -214 -49l-57 116q113 58 281 58q141 0 204.5 -45t63.5 -147q0 -76 -32.5 -116.5t-105.5 -75.5q-70 -33 -85 -58.5t-9 -99.5h-134zM245 0v145h161v-145h-161z" />
    <glyph glyph-name="at" unicode="@" horiz-adv-x="1069" 
d="M549 -165q-239 0 -356.5 108t-117.5 349q0 240 120 351t338 111q463 0 463 -462q0 -152 -39 -207t-149 -55q-76 0 -106 20.5t-37 55.5q-24 -35 -66 -52.5t-119 -17.5q-215 0 -215 261q0 259 222 259q74 0 110.5 -14.5t56.5 -48.5l30 56l82 -7v-364q0 -38 13.5 -57.5
t55.5 -19.5q54 0 69 38t15 153q0 205 -97.5 296.5t-288.5 91.5q-184 0 -282.5 -92.5t-98.5 -295.5q0 -200 99.5 -291.5t296.5 -91.5q152 0 266 56l33 -66q-128 -64 -298 -64zM510 141q71 0 103 37t32 119q0 81 -30.5 114t-104.5 33q-67 0 -94.5 -37.5t-27.5 -109.5
q0 -156 122 -156z" />
    <glyph glyph-name="A" unicode="A" horiz-adv-x="774" 
d="M17 0l297 746h145l298 -746h-147l-52 132h-349l-52 -132h-140zM256 256h255l-128 321z" />
    <glyph glyph-name="B" unicode="B" horiz-adv-x="742" 
d="M78 0v741h338q142 0 206 -44.5t64 -143.5q0 -131 -102 -166q64 -16 92.5 -59.5t28.5 -122.5q0 -115 -70.5 -160t-221.5 -45h-335zM218 122h211q70 0 101 22.5t31 73.5q0 52 -30.5 73.5t-102.5 21.5h-210v-191zM218 440h203q68 0 94 23t26 69q0 44 -27 64.5t-93 20.5h-203
v-177z" />
    <glyph glyph-name="C" unicode="C" 
d="M414 -11q-197 0 -287 96t-90 286q0 382 385 382q179 0 283 -104l-100 -100q-74 71 -184 71q-123 0 -182 -62.5t-59 -187.5t56.5 -188t185.5 -63q68 0 109.5 19t81.5 56l97 -94q-51 -52 -118 -81.5t-178 -29.5z" />
    <glyph glyph-name="D" unicode="D" horiz-adv-x="778" 
d="M78 0v741h259q113 0 186 -16.5t124 -59t73 -113.5t22 -181q0 -210 -94 -290.5t-317 -80.5h-253zM220 128h119q154 0 207 53t53 190q0 95 -19.5 143.5t-75.5 72t-165 23.5h-119v-482z" />
    <glyph glyph-name="E" unicode="E" horiz-adv-x="675" 
d="M78 0v741h540v-132h-398v-165h388v-129h-388v-187h402v-128h-544z" />
    <glyph glyph-name="F" unicode="F" horiz-adv-x="639" 
d="M78 0v741h523v-132h-381v-179h371v-130h-371v-300h-142z" />
    <glyph glyph-name="G" unicode="G" horiz-adv-x="794" 
d="M412 -11q-208 0 -291.5 93.5t-83.5 288.5q0 197 97.5 289.5t286.5 92.5q195 0 293 -102l-100 -101q-74 70 -194 70q-125 0 -183 -62t-58 -188q0 -135 52.5 -196.5t187.5 -61.5q114 0 157 41t43 133v17h-218v123h359v-113q0 -82 -16.5 -139.5t-55.5 -100.5t-107 -63.5
t-169 -20.5z" />
    <glyph glyph-name="H" unicode="H" horiz-adv-x="806" 
d="M78 0v741h142v-291h366v291h142v-741h-142v314h-366v-314h-142z" />
    <glyph glyph-name="I" unicode="I" horiz-adv-x="317" 
d="M88 0v741h141v-741h-141z" />
    <glyph glyph-name="J" unicode="J" horiz-adv-x="441" 
d="M125 -2q-68 0 -101 2v127h84q66 0 92.5 24.5t26.5 82.5v507h141v-512q0 -128 -62 -179.5t-181 -51.5z" />
    <glyph glyph-name="K" unicode="K" horiz-adv-x="746" 
d="M556 0l-223 341l-115 -134v-207h-140v741h140v-353l303 353h160l-254 -293l290 -448h-161z" />
    <glyph glyph-name="L" unicode="L" horiz-adv-x="610" 
d="M78 0v741h142v-614h372v-127h-514z" />
    <glyph glyph-name="M" unicode="M" horiz-adv-x="962" 
d="M78 0v741h186l218 -537l218 537h184v-741h-139v517l-212 -517h-112l-211 515v-515h-132z" />
    <glyph glyph-name="N" unicode="N" horiz-adv-x="812" 
d="M78 0v741h154l365 -501v501h137v-741h-130l-389 531v-531h-137z" />
    <glyph glyph-name="O" unicode="O" horiz-adv-x="848" 
d="M424 -12q-387 0 -387 383q0 382 387 382q388 0 388 -382q0 -383 -388 -383zM424 117q129 0 186.5 64t57.5 188q0 123 -57.5 187t-186.5 64t-186.5 -64t-57.5 -187q0 -124 57.5 -188t186.5 -64z" />
    <glyph glyph-name="P" unicode="P" horiz-adv-x="747" 
d="M78 0v741h348q154 0 219 -61t65 -181q0 -124 -66 -191.5t-225 -67.5h-202v-240h-139zM217 365h208q75 0 109 29.5t34 97.5q0 70 -33.5 97t-111.5 27h-206v-251z" />
    <glyph glyph-name="Q" unicode="Q" horiz-adv-x="848" 
d="M546 -195q-93 0 -143 20.5t-68 62t-14 115.5q-139 21 -211.5 109t-72.5 259q0 200 99.5 291t287.5 91t288 -91.5t100 -290.5q0 -190 -91 -279t-264 -95q-2 -45 15 -59t73 -14h91v-117q-34 -2 -90 -2zM424 117q131 0 187.5 64t56.5 188t-56.5 187.5t-187.5 63.5
t-187.5 -63.5t-56.5 -187.5t56.5 -188t187.5 -64z" />
    <glyph glyph-name="R" unicode="R" horiz-adv-x="759" 
d="M543 0l-146 258h-180v-258h-139v741h348q155 0 217 -60t62 -176q0 -187 -163 -233l154 -272h-153zM217 384h205q73 0 106.5 25t33.5 90q0 67 -33 92t-109 25h-203v-232z" />
    <glyph glyph-name="S" unicode="S" horiz-adv-x="732" 
d="M368 -11q-208 0 -341 95l72 105q117 -78 265 -78q107 0 145.5 23.5t38.5 78.5q0 49 -41.5 67.5t-145.5 34.5q-63 9 -103.5 18.5t-80 25.5t-61 38t-34.5 56.5t-13 81.5q0 118 72 168t226 50q182 0 290 -71l-77 -113q-37 25 -96 41t-118 16q-88 0 -122 -20t-34 -68
q0 -46 41 -64.5t146 -33.5q51 -8 83 -14.5t69.5 -17.5t59.5 -26t42 -37t29 -53.5t9 -71.5q0 -116 -74.5 -173.5t-246.5 -57.5z" />
    <glyph glyph-name="T" unicode="T" horiz-adv-x="702" 
d="M280 0v609h-262v132h667v-132h-262v-609h-143z" />
    <glyph glyph-name="U" unicode="U" horiz-adv-x="807" 
d="M403 -14q-87 0 -149.5 17.5t-96.5 44t-54 68t-25 78t-5 86.5v461h142v-443q0 -93 39 -137.5t151 -44.5q113 0 152 43.5t39 138.5v443h139v-461q0 -49 -5.5 -86t-25.5 -78.5t-54.5 -68t-97 -44t-149.5 -17.5z" />
    <glyph glyph-name="V" unicode="V" horiz-adv-x="768" 
d="M311 -5l-294 746h150l219 -568l217 568h148l-295 -746h-145z" />
    <glyph glyph-name="W" unicode="W" horiz-adv-x="1083" 
d="M253 -5l-230 746h149l152 -510l158 510h128l158 -510l152 510h140l-229 -746h-126l-163 524l-163 -524h-126z" />
    <glyph glyph-name="X" unicode="X" horiz-adv-x="763" 
d="M573 0l-197 283l-188 -283h-158l272 389l-245 352h159l171 -245l163 245h158l-247 -351l273 -390h-161z" />
    <glyph glyph-name="Y" unicode="Y" horiz-adv-x="745" 
d="M302 0v266l-296 475h153l216 -346l217 346h147l-296 -474v-267h-141z" />
    <glyph glyph-name="Z" unicode="Z" horiz-adv-x="685" 
d="M36 0v109l421 500h-404v132h583v-119l-416 -495h427v-127h-611z" />
    <glyph glyph-name="bracketleft" unicode="[" horiz-adv-x="503" 
d="M113 -165v941h299v-120h-161v-704h164v-117h-302z" />
    <glyph glyph-name="backslash" unicode="\" horiz-adv-x="554" 
d="M415 0l-415 741h140l414 -741h-139z" />
    <glyph glyph-name="bracketright" unicode="]" horiz-adv-x="503" 
d="M88 -165v117h163v704h-162v120h300v-941h-301z" />
    <glyph glyph-name="asciicircum" unicode="^" horiz-adv-x="590" 
d="M69 563l155 177h142l155 -177h-129l-99 91l-97 -91h-127z" />
    <glyph glyph-name="underscore" unicode="_" horiz-adv-x="453" 
d="M-37 -149v105h527v-105h-527z" />
    <glyph glyph-name="grave" unicode="`" horiz-adv-x="590" 
d="M269 618l-186 177h165l144 -177h-123z" />
    <glyph glyph-name="a" unicode="a" horiz-adv-x="639" 
d="M238 -10q-118 0 -163 46t-45 128q0 117 81 159t283 42h26q-1 33 -9 50t-35 27.5t-78 10.5q-85 0 -163 -47l-69 103q36 25 103.5 46t143.5 21q75 0 121.5 -12t72.5 -41t35 -68.5t9 -102.5v-180q0 -37 8 -46.5t43 -9.5v-114q-12 -4 -57 -4t-67.5 12t-35.5 46
q-50 -66 -204 -66zM264 104q82 0 119 32t37 102v25h-17q-106 0 -157.5 -8.5t-68.5 -26t-17 -53.5q0 -37 23 -54t81 -17z" />
    <glyph glyph-name="b" unicode="b" horiz-adv-x="673" 
d="M385 -10q-152 0 -200 61l-27 -57l-92 11v771h136v-258q46 58 191 58q70 0 118.5 -22t74.5 -63.5t37 -91.5t11 -116t-11.5 -116.5t-38.5 -91.5t-77 -63t-122 -22zM360 109q77 0 106.5 43t29.5 125q0 84 -29 128t-107 44q-86 0 -121.5 -40t-35.5 -132t34 -130t123 -38z" />
    <glyph glyph-name="c" unicode="c" horiz-adv-x="581" 
d="M322 -10q-83 0 -140 21.5t-87.5 63t-43 91.5t-12.5 117t12.5 116.5t43.5 91.5t89.5 63.5t143.5 21.5q143 0 222 -89l-97 -92q-53 53 -125 53q-85 0 -118.5 -42.5t-33.5 -126.5t33 -127t120 -43q73 0 131 55l89 -85q-51 -47 -100.5 -68t-126.5 -21z" />
    <glyph glyph-name="d" unicode="d" horiz-adv-x="673" 
d="M282 -11q-70 0 -118.5 22t-75 64t-38 93t-11.5 117q0 65 11.5 115t39 91t77 63t120.5 22q141 0 183 -57v257h137v-770l-104 -11l-15 59q-53 -65 -206 -65zM314 110q85 0 120.5 41t35.5 134q0 91 -33.5 128t-122.5 37q-79 0 -108 -41.5t-29 -123.5q0 -85 29.5 -130
t107.5 -45z" />
    <glyph glyph-name="e" unicode="e" horiz-adv-x="613" 
d="M326 -11q-86 0 -145 22.5t-88.5 65t-41.5 91.5t-12 115q0 51 7 91.5t26 79.5t50.5 65t83 41.5t119.5 15.5q51 0 90 -9.5t65 -27.5t44.5 -42.5t27.5 -54.5t14.5 -65t5 -72.5t-0.5 -76.5h-400q7 -63 41 -94t114 -31q105 0 177 53l71 -92q-53 -40 -110 -57.5t-138 -17.5z
M321 459q-76 0 -109.5 -31t-40.5 -93h273q-2 32 -6 50.5t-16 37.5t-37 27.5t-64 8.5z" />
    <glyph glyph-name="f" unicode="f" horiz-adv-x="429" 
d="M27 443v120h106v34q0 98 44.5 146.5t156.5 48.5q42 0 72 -2v-114h-54q-47 0 -65 -19.5t-18 -58.5v-35h137v-120h-137v-443h-136v443h-106z" />
    <glyph glyph-name="g" unicode="g" horiz-adv-x="638" 
d="M307 206q-51 0 -81 5q-7 -14 -7 -24q0 -21 19 -27.5t80 -6.5q168 0 227 -31.5t59 -121.5q0 -96 -71 -137.5t-228 -41.5q-160 0 -222 28t-62 110q0 104 111 128q-34 23 -34 78q0 47 25 79q-70 43 -70 142q0 95 61 142.5t193 47.5q17 0 26 -1l248 45v-107h-85
q67 -37 67 -127q0 -93 -61.5 -136.5t-194.5 -43.5zM310 -80q89 0 122 17t33 54q0 35 -32.5 46.5t-122.5 11.5q-94 0 -123 -16t-29 -50q0 -35 32.5 -49t119.5 -14zM307 303q67 0 94 19.5t27 62.5q0 42 -28 61.5t-93 19.5q-67 0 -94 -19t-27 -62t27.5 -62.5t93.5 -19.5z" />
    <glyph glyph-name="h" unicode="h" horiz-adv-x="653" 
d="M66 0v776h136v-253q43 53 187 53q63 0 104 -16t62 -49.5t28.5 -72.5t7.5 -96v-342h-136v315q0 33 -3 52.5t-14 39t-35 28.5t-62 9q-82 0 -110 -34.5t-28 -103.5v-306h-137z" />
    <glyph glyph-name="i" unicode="i" horiz-adv-x="279" 
d="M72 0v563h135v-563h-135zM71 620v135h137v-135h-137z" />
    <glyph glyph-name="j" unicode="j" horiz-adv-x="279" 
d="M3 -169v107h11q37 0 47.5 14.5t10.5 61.5v549h135v-548q0 -109 -36 -146.5t-143 -37.5h-25zM71 620v135h137v-135h-137z" />
    <glyph glyph-name="k" unicode="k" horiz-adv-x="589" 
d="M66 0v776h135v-464l210 251h150l-192 -231l210 -332h-151l-150 231l-77 -89v-142h-135z" />
    <glyph glyph-name="l" unicode="l" horiz-adv-x="329" 
d="M216 -2q-76 0 -110 37t-34 128v613h135v-597q0 -36 11 -49t47 -13h20v-115q-22 -4 -69 -4z" />
    <glyph glyph-name="m" unicode="m" horiz-adv-x="1019" 
d="M66 0v555l106 8l12 -49q44 62 199 62q81 0 116 -16.5t50 -48.5q48 65 211 65q63 0 103.5 -16t60 -49.5t26.5 -72t7 -96.5v-342h-137v315q0 28 -1 43t-6.5 34.5t-16.5 28.5t-31.5 16t-51.5 7q-82 0 -107.5 -33.5t-25.5 -104.5v-306h-137v315q0 35 -2 53t-12 38.5t-33 29
t-61 8.5q-81 0 -106.5 -33.5t-25.5 -104.5v-306h-137z" />
    <glyph glyph-name="n" unicode="n" horiz-adv-x="653" 
d="M66 0v555l106 8l12 -49q53 62 205 62q63 0 104 -16t62 -49.5t28.5 -72.5t7.5 -96v-342h-136v315q0 33 -3 52.5t-14 39t-35 28.5t-62 9q-82 0 -110 -34.5t-28 -103.5v-306h-137z" />
    <glyph glyph-name="o" unicode="o" horiz-adv-x="654" 
d="M327 -11q-151 0 -219.5 73.5t-68.5 220.5t68 220t220 73t220 -73t68 -220t-68 -220.5t-220 -73.5zM327 109q83 0 117 43t34 127t-34 127t-117 43t-117 -43t-34 -127t34 -127t117 -43z" />
    <glyph glyph-name="p" unicode="p" horiz-adv-x="673" 
d="M66 -165v720l106 8l12 -52q50 65 210 65q69 0 117.5 -22t74.5 -63.5t37 -91.5t11 -116t-11.5 -116t-38.5 -91t-76.5 -63t-121.5 -22q-142 0 -183 57v-213h-137zM360 110q77 0 106.5 42.5t29.5 125.5q0 84 -29 127.5t-107 43.5q-86 0 -121.5 -39.5t-35.5 -131.5t34 -130
t123 -38z" />
    <glyph glyph-name="q" unicode="q" horiz-adv-x="673" 
d="M470 -165v209q-27 -30 -70 -42.5t-118 -12.5q-134 0 -188.5 78.5t-54.5 216.5q0 66 11.5 116t39 91t77 63t120.5 22q152 0 201 -60l27 51l92 -8v-724h-137zM314 110q85 0 120.5 41t35.5 133t-33.5 129t-122.5 37q-79 0 -108 -41.5t-29 -124.5q0 -84 29.5 -129t107.5 -45z
" />
    <glyph glyph-name="r" unicode="r" horiz-adv-x="393" 
d="M66 0v555l106 8l14 -63q19 29 68 48.5t116 20.5v-133q-95 -1 -131 -38.5t-36 -113.5v-284h-137z" />
    <glyph glyph-name="s" unicode="s" horiz-adv-x="561" 
d="M275 -10q-156 0 -260 70l70 103q91 -58 199 -58q65 0 89 11.5t24 46.5q0 28 -22 39t-90 21q-50 7 -78.5 13t-63 19t-52.5 30.5t-30.5 48t-12.5 71.5q0 85 56 128t181 43q140 0 230 -51l-65 -109q-71 38 -161 38q-61 0 -83 -12t-22 -38q0 -27 21 -38.5t83 -20.5
q38 -6 58.5 -9.5t50.5 -11t46 -15t35.5 -20.5t29 -29t16 -38.5t6.5 -51.5q0 -97 -58.5 -138.5t-196.5 -41.5z" />
    <glyph glyph-name="t" unicode="t" horiz-adv-x="441" 
d="M27 443v120h100l24 144l106 22v-166h139v-120h-139v-254q0 -39 13.5 -55.5t62.5 -16.5h63v-117q-20 -2 -90 -2q-106 0 -145.5 39t-39.5 132v274h-94z" />
    <glyph glyph-name="u" unicode="u" horiz-adv-x="646" 
d="M324 -10q-80 0 -131.5 15t-80 49.5t-39 81.5t-10.5 120v307h136v-310q0 -31 1 -47t7.5 -37t19.5 -31.5t37.5 -18t60.5 -7.5t60 7.5t36.5 18t19 32.5t7.5 37.5t1 47.5v308h134v-305q0 -74 -10 -120.5t-38 -82t-79.5 -50.5t-131.5 -15z" />
    <glyph glyph-name="v" unicode="v" horiz-adv-x="596" 
d="M225 -6l-223 569h146l153 -405l153 405h140l-224 -569h-145z" />
    <glyph glyph-name="w" unicode="w" horiz-adv-x="909" 
d="M199 -6l-189 569h144l118 -371l118 371h135l118 -370l118 370h138l-188 -569h-134l-122 377l-123 -377h-133z" />
    <glyph glyph-name="x" unicode="x" horiz-adv-x="585" 
d="M423 0l-137 195l-131 -195h-146l207 295l-188 268h152l119 -170l114 170h145l-188 -270l206 -293h-153z" />
    <glyph glyph-name="y" unicode="y" horiz-adv-x="571" 
d="M132 -169q-39 0 -54 1v106h42q45 0 62 9t25 35l10 28l-215 553h146l142 -386l139 386h141l-230 -596q-29 -75 -73 -105.5t-135 -30.5z" />
    <glyph glyph-name="z" unicode="z" horiz-adv-x="531" 
d="M24 0v95l293 348h-277v120h459v-96l-295 -354h306v-113h-486z" />
    <glyph glyph-name="braceleft" unicode="{" horiz-adv-x="540" 
d="M338 -165q-99 0 -144.5 34t-45.5 104q0 34 26 120t26 107q0 30 -26 39t-102 9v114q75 0 101.5 9t26.5 40q0 21 -26 107t-26 120q0 70 45.5 104t144.5 34h114v-120h-82q-47 0 -64 -12.5t-17 -44.5q0 -14 23.5 -96.5t23.5 -115.5q0 -62 -64 -81q64 -19 64 -81
q0 -33 -23.5 -117t-23.5 -99q0 -33 17 -45t64 -12h82v-117h-114z" />
    <glyph glyph-name="bar" unicode="|" horiz-adv-x="365" 
d="M113 -165v941h138v-941h-138z" />
    <glyph glyph-name="braceright" unicode="}" horiz-adv-x="540" 
d="M88 -165v117h83q47 0 64 12t17 45q0 15 -24 99t-24 117q0 62 64 81q-64 19 -64 81q0 33 24 115.5t24 96.5q0 32 -17 44.5t-64 12.5h-83v120h114q100 0 145 -34t45 -104q0 -34 -26 -120t-26 -107q0 -30 26 -39t102 -9v-114q-75 0 -101.5 -8.5t-26.5 -40.5q0 -21 26 -107
t26 -120q0 -70 -45 -104t-145 -34h-114z" />
    <glyph glyph-name="asciitilde" unicode="~" horiz-adv-x="590" 
d="M146 381l-79 64q81 99 157 99q37 0 77 -26t61 -26q36 0 82 57l78 -63q-83 -103 -157 -103q-35 0 -76 26t-63 26q-37 0 -80 -54z" />
    <glyph glyph-name="uni00A0" unicode="&#xa0;" horiz-adv-x="220" 
 />
    <glyph glyph-name="exclamdown" unicode="&#xa1;" horiz-adv-x="391" 
d="M121 0l14 515h122l14 -515h-150zM115 580v161h162v-161h-162z" />
    <glyph glyph-name="cent" unicode="&#xa2;" horiz-adv-x="582" 
d="M256 -94v91q-62 8 -105 32.5t-66.5 63.5t-33.5 84.5t-10 105.5q0 121 47.5 194.5t167.5 90.5v67h130v-66q100 -14 160 -82l-94 -89q-52 52 -124 52q-85 0 -119.5 -43.5t-34.5 -127.5q0 -85 34.5 -129t120.5 -44q72 0 131 55l85 -82q-76 -70 -159 -81v-92h-130z" />
    <glyph glyph-name="sterling" unicode="&#xa3;" horiz-adv-x="657" 
d="M425 -8q-101 0 -196 53q-62 -45 -197 -45v114q49 0 77.5 5t42 18.5t16.5 28t3 43.5q0 31 -23 117h-120v107h90q-18 74 -18 117q0 97 57 150.5t192 53.5q119 0 218 -39l-53 -116q-67 30 -168 30q-64 0 -87.5 -24.5t-23.5 -73.5q0 -36 15 -98h198v-107h-171q17 -70 17 -114
q0 -43 -7 -72q71 -30 135 -30q52 0 67.5 19.5t15.5 72.5v28h119v-33q0 -113 -45.5 -159t-153.5 -46z" />
    <glyph glyph-name="yen" unicode="&#xa5;" horiz-adv-x="669" 
d="M72 229v103h191l-252 409h145l178 -300l179 300h144l-253 -409h191v-103h-194v-61h194v-103h-194v-65h-135v65h-194v103h194v61h-194z" />
    <glyph glyph-name="brokenbar" unicode="&#xa6;" horiz-adv-x="365" 
d="M113 -165v392h138v-392h-138zM113 384v392h138v-392h-138z" />
    <glyph glyph-name="section" unicode="&#xa7;" horiz-adv-x="591" 
d="M162 -6q-39 0 -71 2v109h54q52 0 67.5 18.5t15.5 59.5v29q-168 19 -168 156q0 136 160 158v25q0 46 7.5 77.5t28 60.5t62 43t105.5 14q39 0 71 -2v-114h-54q-53 0 -68.5 -18.5t-15.5 -59.5v-24q175 -19 175 -160q0 -136 -166 -155v-24q0 -46 -7 -77.5t-27.5 -60.5
t-62.5 -43t-106 -14zM295 298q66 0 95.5 16t29.5 51t-29.5 51t-95.5 16t-95 -16t-29 -51t29 -51t95 -16z" />
    <glyph glyph-name="dieresis" unicode="&#xa8;" horiz-adv-x="590" 
d="M122 622v129h124v-129h-124zM345 622v129h123v-129h-123z" />
    <glyph glyph-name="copyright" unicode="&#xa9;" horiz-adv-x="815" 
d="M415 130q-243 0 -243 246q0 124 65.5 185t182.5 61q114 0 181 -67l-62 -64q-47 45 -120 45q-155 0 -155 -161q0 -162 156 -162q72 0 124 48l60 -60q-69 -71 -189 -71zM407 -12q-180 0 -275.5 106t-95.5 277t95.5 277t275.5 106t276 -106t96 -277q0 -170 -96 -276.5
t-276 -106.5zM407 41q160 0 238.5 90.5t78.5 239.5t-78.5 240t-238.5 91q-161 0 -239 -90.5t-78 -240.5t78 -240t239 -90z" />
    <glyph glyph-name="ordfeminine" unicode="&#xaa;" horiz-adv-x="610" 
d="M221 278q-161 0 -161 141q0 94 69 129.5t227 35.5h19q-2 38 -20 53t-76 15q-72 0 -131 -37l-57 84q29 20 83.5 36.5t116.5 16.5q116 0 154 -39.5t38 -141.5v-144q0 -30 7 -37.5t35 -7.5v-96q-16 -2 -45 -2q-44 0 -64.5 12t-28.5 46q-19 -34 -55 -49t-111 -15zM103 124v99
h380v-99h-380zM250 371q63 0 94 26t31 82v23h-12q-120 0 -158 -15t-38 -59q0 -29 19 -43t64 -14z" />
    <glyph glyph-name="guillemotleft" unicode="&#xab;" horiz-adv-x="745" 
d="M250 0l-151 281l151 282h120l-141 -282l141 -281h-120zM498 0l-151 281l151 282h121l-141 -282l141 -281h-121z" />
    <glyph glyph-name="logicalnot" unicode="&#xac;" horiz-adv-x="716" 
d="M97 416h522v-319h-136v193h-386v126z" />
    <glyph glyph-name="registered" unicode="&#xae;" horiz-adv-x="815" 
d="M407 -12q-180 0 -275.5 106t-95.5 277t95.5 277t275.5 106t276 -106t96 -277q0 -170 -96 -276.5t-276 -106.5zM407 41q160 0 238.5 90.5t78.5 239.5t-78.5 240t-238.5 91q-161 0 -239 -90.5t-78 -240.5t78 -240t239 -90zM519 138l-94 167h-116v-167h-84v463h216
q100 0 136 -36.5t36 -109.5q0 -57 -22.5 -93t-79.5 -50l99 -174h-91zM309 380h129q49 0 68.5 15.5t19.5 56.5q0 42 -19.5 57.5t-69.5 15.5h-128v-145z" />
    <glyph glyph-name="macron" unicode="&#xaf;" horiz-adv-x="590" 
d="M93 609v112h405v-112h-405z" />
    <glyph glyph-name="macron" unicode="&#x304;" horiz-adv-x="590" 
d="M93 609v112h405v-112h-405z" />
    <glyph glyph-name="degree" unicode="&#xb0;" horiz-adv-x="569" 
d="M284 270q-117 0 -175.5 67t-58.5 175q0 107 58.5 174t175.5 67q118 0 177 -67t59 -174q0 -108 -59 -175t-177 -67zM284 372q126 0 126 136t-126 136q-124 0 -124 -136t124 -136z" />
    <glyph glyph-name="plusminus" unicode="&#xb1;" horiz-adv-x="716" 
d="M97 9v125h193v156h-193v126h193v192h136v-192h193v-126h-193v-156h193v-125h-522z" />
    <glyph glyph-name="two.superior" unicode="&#xb2;" horiz-adv-x="495" 
d="M63 263v74l152 136q62 55 79 77t17 54q0 28 -19 41.5t-66 13.5q-70 0 -123 -29l-47 80q75 39 184 39q88 0 131.5 -31.5t43.5 -101.5q0 -54 -25 -90.5t-93 -96.5l-88 -81h210v-85h-356z" />
    <glyph glyph-name="threesuperior" unicode="&#xb3;" horiz-adv-x="509" 
d="M247 257q-119 0 -201 52l52 76q68 -39 139 -39q53 0 74 14t21 55q0 36 -21.5 49.5t-81.5 13.5h-80v84h78q53 0 72 9.5t19 39.5q0 28 -18 37.5t-65 9.5q-76 0 -131 -32l-50 79q73 45 196 45q93 0 134 -28.5t41 -87.5q0 -83 -62 -106q75 -22 75 -125q0 -78 -46.5 -112
t-144.5 -34z" />
    <glyph glyph-name="acute" unicode="&#xb4;" horiz-adv-x="590" 
d="M199 618l143 177h165l-186 -177h-122z" />
    <glyph glyph-name="mu" unicode="&#xb5;" horiz-adv-x="655" 
d="M270 -11q-45 0 -78 9v-163h-126v728h136v-317q0 -69 21.5 -101.5t91.5 -32.5q82 0 109 35t27 106v310h138v-557l-105 -11l-13 58q-54 -64 -201 -64z" />
    <glyph glyph-name="paragraph" unicode="&#xb6;" horiz-adv-x="664" 
d="M233 0v259q-105 18 -145.5 77.5t-40.5 162.5q0 123 61 182.5t223 59.5h251v-741h-128v251h-92v-251h-129zM327 362h127v258h-125q-82 0 -113.5 -27.5t-31.5 -100.5q0 -71 32 -100.5t111 -29.5z" />
    <glyph glyph-name="periodcentered" unicode="&#xb7;" horiz-adv-x="280" 
d="M59 274v169h161v-169h-161z" />
    <glyph glyph-name="periodcentered" unicode="&#x2219;" horiz-adv-x="280" 
d="M59 274v169h161v-169h-161z" />
    <glyph glyph-name="cedilla" unicode="&#xb8;" horiz-adv-x="590" 
d="M297 -244q-72 0 -129 32l35 66q48 -23 89 -23q38 0 52.5 10t14.5 33q0 25 -21.5 32.5t-67.5 4.5l-28 19l16 77h78l-9 -50q28 1 46.5 -1.5t37.5 -10.5t29 -28t10 -52q0 -58 -38.5 -83.5t-114.5 -25.5z" />
    <glyph glyph-name="one.superior" unicode="&#xb9;" horiz-adv-x="363" 
d="M146 263v386h-85v92h193v-478h-108z" />
    <glyph glyph-name="ordmasculine" unicode="&#xba;" horiz-adv-x="606" 
d="M304 279q-121 0 -177.5 60t-56.5 178q0 117 56.5 176.5t177.5 59.5q233 0 233 -236q0 -238 -233 -238zM304 378q120 0 120 135t-120 135t-120 -135t120 -135zM99 122v100h409v-100h-409z" />
    <glyph glyph-name="guillemotright" unicode="&#xbb;" horiz-adv-x="745" 
d="M127 0l141 282l-141 281h120l151 -281l-151 -282h-120zM375 0l140 282l-140 281h120l151 -281l-151 -282h-120z" />
    <glyph glyph-name="onequarter" unicode="&#xbc;" horiz-adv-x="1000" 
d="M791 0v94h-239v78l213 307h117l-208 -299h119l20 107h80v-107h75v-86h-75v-94h-102zM128 262v385h-85v94h196v-479h-111zM203 0l414 741h120l-413 -741h-121z" />
    <glyph glyph-name="onehalf" unicode="&#xbd;" horiz-adv-x="1056" 
d="M636 0v77l151 134q66 58 81.5 77.5t15.5 50.5q0 28 -18.5 41t-65.5 13q-71 0 -124 -29l-48 82q78 39 185 39q88 0 131 -31.5t43 -102.5q0 -53 -24 -88.5t-93 -96.5l-86 -78h205v-88h-353zM128 262v385h-85v94h196v-479h-111zM203 0l414 741h120l-413 -741h-121z" />
    <glyph glyph-name="threequarters" unicode="&#xbe;" horiz-adv-x="1125" 
d="M239 259q-115 0 -202 51l55 79q66 -39 136 -39q54 0 74.5 13t20.5 54q0 36 -21 49t-81 13h-80v87h78q53 0 72 9t19 39q0 28 -18 37t-66 9q-74 0 -130 -33l-50 81q73 45 196 45q93 0 133.5 -28.5t40.5 -87.5q0 -81 -66 -106q80 -24 80 -126q0 -77 -46.5 -111.5
t-144.5 -34.5zM915 0v94h-239v78l213 307h118l-209 -299h120l20 107h80v-107h74v-86h-74v-94h-103zM328 0l414 741h120l-414 -741h-120z" />
    <glyph glyph-name="questiondown" unicode="&#xbf;" horiz-adv-x="693" 
d="M336 -12q-142 0 -205 45t-63 148q0 76 32.5 117t105.5 74q69 33 84 58.5t9 99.5h134q13 -100 -11.5 -145.5t-107.5 -83.5q-66 -32 -86 -51.5t-20 -56.5q0 -42 27.5 -61t110.5 -19q115 0 213 50l58 -116q-116 -59 -281 -59zM286 596v145h162v-145h-162z" />
    <glyph glyph-name="Agrave" unicode="&#xc0;" horiz-adv-x="773" 
d="M17 0l297 746h145l298 -746h-147l-52 132h-349l-52 -132h-140zM256 256h255l-128 321zM359 782l-186 177h165l144 -177h-123z" />
    <glyph glyph-name="Aacute" unicode="&#xc1;" horiz-adv-x="773" 
d="M17 0l297 746h145l298 -746h-147l-52 132h-349l-52 -132h-140zM256 256h255l-128 321zM289 782l143 177h165l-186 -177h-122z" />
    <glyph glyph-name="Acircumflex" unicode="&#xc2;" horiz-adv-x="773" 
d="M17 0l297 746h145l298 -746h-147l-52 132h-349l-52 -132h-140zM256 256h255l-128 321zM159 782l155 177h142l155 -177h-129l-99 91l-97 -91h-127z" />
    <glyph glyph-name="Atilde" unicode="&#xc3;" horiz-adv-x="773" 
d="M17 0l297 746h145l298 -746h-147l-52 132h-349l-52 -132h-140zM256 256h255l-128 321zM236 780l-79 64q81 99 157 99q37 0 77 -26t61 -26q35 0 82 57l78 -63q-83 -103 -157 -103q-35 0 -76 26t-63 26q-37 0 -80 -54z" />
    <glyph glyph-name="Adieresis" unicode="&#xc4;" horiz-adv-x="773" 
d="M17 0l297 746h145l298 -746h-147l-52 132h-349l-52 -132h-140zM256 256h255l-128 321zM212 786v129h124v-129h-124zM435 786v129h123v-129h-123z" />
    <glyph glyph-name="Aring" unicode="&#xc5;" horiz-adv-x="773" 
d="M17 0l277 697q-45 36 -45 112q0 63 34 102t103 39q67 0 102 -39.5t35 -101.5q0 -72 -46 -111l280 -698h-146l-53 132h-350l-51 -132h-140zM256 256h255l-128 321zM386 738q67 0 67 71t-67 71t-67 -71t67 -71z" />
    <glyph glyph-name="AE" unicode="&#xc6;" horiz-adv-x="1129" 
d="M7 0l466 741h598v-132h-397v-166h387v-127h-387v-189h401v-127h-538v136h-301l-90 -136h-139zM305 255h232v361z" />
    <glyph glyph-name="Ccedilla" unicode="&#xc7;" 
d="M376 -244q-72 0 -129 32l35 66q48 -23 89 -23q38 0 52.5 10t14.5 33q0 25 -21.5 32.5t-67.5 4.5l-28 19l13 64q-155 18 -226 112.5t-71 264.5q0 382 385 382q179 0 283 -104l-100 -100q-74 71 -184 71q-123 0 -182 -62.5t-59 -187.5t56.5 -188t185.5 -63q68 0 109.5 19
t81.5 56l97 -94q-51 -52 -118 -81.5t-176 -29.5h-5l-5 -32q28 1 46.5 -1.5t37.5 -10.5t29 -28t10 -52q0 -58 -38.5 -83.5t-114.5 -25.5z" />
    <glyph glyph-name="Egrave" unicode="&#xc8;" horiz-adv-x="675" 
d="M78 0v741h540v-132h-398v-165h388v-129h-388v-187h402v-128h-544zM310 782l-186 177h165l144 -177h-123z" />
    <glyph glyph-name="Eacute" unicode="&#xc9;" horiz-adv-x="675" 
d="M240 782l143 177h165l-186 -177h-122zM78 0v741h540v-132h-398v-165h388v-129h-388v-187h402v-128h-544z" />
    <glyph glyph-name="Ecircumflex" unicode="&#xca;" horiz-adv-x="675" 
d="M110 782l155 177h142l155 -177h-129l-99 91l-97 -91h-127zM78 0v741h540v-132h-398v-165h388v-129h-388v-187h402v-128h-544z" />
    <glyph glyph-name="Edieresis" unicode="&#xcb;" horiz-adv-x="675" 
d="M163 786v129h124v-129h-124zM386 786v129h123v-129h-123zM78 0v741h540v-132h-398v-165h388v-129h-388v-187h402v-128h-544z" />
    <glyph glyph-name="Igrave" unicode="&#xcc;" horiz-adv-x="317" 
d="M101 782l-178 177h172l134 -177h-128zM88 0v741h141v-741h-141z" />
    <glyph glyph-name="Iacute" unicode="&#xcd;" horiz-adv-x="317" 
d="M88 782l133 177h171l-177 -177h-127zM88 0v741h141v-741h-141z" />
    <glyph glyph-name="Icircumflex" unicode="&#xce;" horiz-adv-x="317" 
d="M-51 782l138 177h142l137 -177h-129l-81 92l-80 -92h-127zM88 0v741h141v-741h-141z" />
    <glyph glyph-name="Idieresis" unicode="&#xcf;" horiz-adv-x="317" 
d="M88 0v741h141v-741h-141zM-14 786v129h124v-129h-124zM209 786v129h123v-129h-123z" />
    <glyph glyph-name="Eth" unicode="&#xd0;" horiz-adv-x="778" 
d="M0 319v115h78v307h259q113 0 186 -16.5t124 -59t73 -113.5t22 -181q0 -107 -24 -179t-76.5 -114.5t-127 -60t-183.5 -17.5h-253v319h-78zM220 128h119q154 0 207 53t53 190q0 95 -19.5 143.5t-75.5 72t-165 23.5h-119v-176h146v-115h-146v-191z" />
    <glyph glyph-name="Ntilde" unicode="&#xd1;" horiz-adv-x="812" 
d="M78 0v741h154l365 -501v501h137v-741h-130l-389 531v-531h-137zM255 780l-79 64q81 99 157 99q37 0 77 -26t61 -26q35 0 82 57l78 -63q-83 -103 -157 -103q-35 0 -76 26t-63 26q-37 0 -80 -54z" />
    <glyph glyph-name="Ograve" unicode="&#xd2;" horiz-adv-x="848" 
d="M424 -12q-387 0 -387 383q0 382 387 382q388 0 388 -382q0 -383 -388 -383zM424 117q129 0 186.5 64t57.5 188q0 123 -57.5 187t-186.5 64t-186.5 -64t-57.5 -187q0 -124 57.5 -188t186.5 -64zM397 782l-186 177h165l144 -177h-123z" />
    <glyph glyph-name="Oacute" unicode="&#xd3;" horiz-adv-x="848" 
d="M327 782l143 177h165l-186 -177h-122zM424 -12q-387 0 -387 383q0 382 387 382q388 0 388 -382q0 -383 -388 -383zM424 117q129 0 186.5 64t57.5 188q0 123 -57.5 187t-186.5 64t-186.5 -64t-57.5 -187q0 -124 57.5 -188t186.5 -64z" />
    <glyph glyph-name="Ocircumflex" unicode="&#xd4;" horiz-adv-x="848" 
d="M197 782l155 177h142l155 -177h-129l-99 91l-97 -91h-127zM424 -12q-387 0 -387 383q0 382 387 382q388 0 388 -382q0 -383 -388 -383zM424 117q129 0 186.5 64t57.5 188q0 123 -57.5 187t-186.5 64t-186.5 -64t-57.5 -187q0 -124 57.5 -188t186.5 -64z" />
    <glyph glyph-name="Otilde" unicode="&#xd5;" horiz-adv-x="848" 
d="M424 -12q-387 0 -387 383q0 382 387 382q388 0 388 -382q0 -383 -388 -383zM424 117q129 0 186.5 64t57.5 188q0 123 -57.5 187t-186.5 64t-186.5 -64t-57.5 -187q0 -124 57.5 -188t186.5 -64zM274 780l-79 64q81 99 157 99q37 0 77 -26t61 -26q36 0 82 57l78 -63
q-83 -103 -157 -103q-35 0 -76 26t-63 26q-37 0 -80 -54z" />
    <glyph glyph-name="Odieresis" unicode="&#xd6;" horiz-adv-x="848" 
d="M250 786v129h124v-129h-124zM473 786v129h123v-129h-123zM424 -12q-387 0 -387 383q0 382 387 382q388 0 388 -382q0 -383 -388 -383zM424 117q129 0 186.5 64t57.5 188q0 123 -57.5 187t-186.5 64t-186.5 -64t-57.5 -187q0 -124 57.5 -188t186.5 -64z" />
    <glyph glyph-name="multiply" unicode="&#xd7;" horiz-adv-x="716" 
d="M206 115l-83 86l151 151l-151 152l84 86l152 -151l150 151l84 -86l-151 -152l151 -150l-84 -87l-150 152z" />
    <glyph glyph-name="Oslash" unicode="&#xd8;" horiz-adv-x="848" 
d="M424 -12q-81 0 -149 17l-27 -46h-134l55 94q-132 92 -132 318q0 200 99.5 291t287.5 91q74 0 143 -16l27 46h133l-53 -91q138 -93 138 -321q0 -200 -100 -291.5t-288 -91.5zM424 112q134 0 191.5 65.5t57.5 191.5q0 145 -74 206l-263 -454q38 -9 88 -9zM175 369
q0 -141 67 -202l261 451q-32 7 -79 7q-134 0 -191.5 -65t-57.5 -191z" />
    <glyph glyph-name="Ugrave" unicode="&#xd9;" horiz-adv-x="807" 
d="M403 -14q-87 0 -149.5 17.5t-96.5 44t-54 68t-25 78t-5 86.5v461h142v-443q0 -93 39 -137.5t151 -44.5q113 0 152 43.5t39 138.5v443h139v-461q0 -49 -5.5 -86t-25.5 -78.5t-54.5 -68t-97 -44t-149.5 -17.5zM376 782l-186 177h165l144 -177h-123z" />
    <glyph glyph-name="Uacute" unicode="&#xda;" horiz-adv-x="807" 
d="M306 782l143 177h165l-186 -177h-122zM403 -14q-87 0 -149.5 17.5t-96.5 44t-54 68t-25 78t-5 86.5v461h142v-443q0 -93 39 -137.5t151 -44.5q113 0 152 43.5t39 138.5v443h139v-461q0 -49 -5.5 -86t-25.5 -78.5t-54.5 -68t-97 -44t-149.5 -17.5z" />
    <glyph glyph-name="Ucircumflex" unicode="&#xdb;" horiz-adv-x="807" 
d="M176 782l155 177h142l155 -177h-129l-99 91l-97 -91h-127zM403 -14q-87 0 -149.5 17.5t-96.5 44t-54 68t-25 78t-5 86.5v461h142v-443q0 -93 39 -137.5t151 -44.5q113 0 152 43.5t39 138.5v443h139v-461q0 -49 -5.5 -86t-25.5 -78.5t-54.5 -68t-97 -44t-149.5 -17.5z" />
    <glyph glyph-name="Udieresis" unicode="&#xdc;" horiz-adv-x="807" 
d="M229 786v129h124v-129h-124zM452 786v129h123v-129h-123zM403 -14q-87 0 -149.5 17.5t-96.5 44t-54 68t-25 78t-5 86.5v461h142v-443q0 -93 39 -137.5t151 -44.5q113 0 152 43.5t39 138.5v443h139v-461q0 -49 -5.5 -86t-25.5 -78.5t-54.5 -68t-97 -44t-149.5 -17.5z" />
    <glyph glyph-name="Yacute" unicode="&#xdd;" horiz-adv-x="745" 
d="M302 0v266l-296 475h153l216 -346l217 346h147l-296 -474v-267h-141zM275 782l143 177h165l-186 -177h-122z" />
    <glyph glyph-name="Thorn" unicode="&#xde;" horiz-adv-x="747" 
d="M78 0v741h139v-104h209q162 0 223 -60t61 -184q0 -61 -12.5 -105t-43.5 -80.5t-89.5 -54.5t-145.5 -18h-202v-135h-139zM217 261h208q78 0 110.5 29t32.5 98q0 71 -31.5 97.5t-113.5 26.5h-206v-251z" />
    <glyph glyph-name="germandbls" unicode="&#xdf;" horiz-adv-x="683" 
d="M66 0v524q0 55 11.5 98t40.5 81t85 59t137 21q252 0 252 -200q0 -76 -21.5 -116t-70.5 -60q76 -14 113 -57t37 -132q0 -59 -12 -97t-45 -67t-93.5 -41.5t-154.5 -12.5h-61v119h57q106 0 140 26.5t34 82.5q0 59 -41 81t-160 22v110q80 0 111.5 24.5t31.5 81.5
q0 51 -27.5 76t-92.5 25q-71 0 -103.5 -32t-32.5 -97v-519h-135z" />
    <glyph glyph-name="agrave" unicode="&#xe0;" horiz-adv-x="639" 
d="M238 -10q-118 0 -163 46t-45 128q0 117 81 159t283 42h26q-1 33 -9 50t-35 27.5t-78 10.5q-85 0 -163 -47l-69 103q36 25 103.5 46t143.5 21q75 0 121.5 -12t72.5 -41t35 -68.5t9 -102.5v-180q0 -37 8 -46.5t43 -9.5v-114q-12 -4 -57 -4t-67.5 12t-35.5 46
q-50 -66 -204 -66zM264 104q82 0 119 32t37 102v25h-17q-106 0 -157.5 -8.5t-68.5 -26t-17 -53.5q0 -37 23 -54t81 -17zM294 618l-186 177h165l144 -177h-123z" />
    <glyph glyph-name="aacute" unicode="&#xe1;" horiz-adv-x="639" 
d="M238 -10q-118 0 -163 46t-45 128q0 117 81 159t283 42h26q-1 33 -9 50t-35 27.5t-78 10.5q-85 0 -163 -47l-69 103q36 25 103.5 46t143.5 21q75 0 121.5 -12t72.5 -41t35 -68.5t9 -102.5v-180q0 -37 8 -46.5t43 -9.5v-114q-12 -4 -57 -4t-67.5 12t-35.5 46
q-50 -66 -204 -66zM264 104q82 0 119 32t37 102v25h-17q-106 0 -157.5 -8.5t-68.5 -26t-17 -53.5q0 -37 23 -54t81 -17zM224 618l143 177h165l-186 -177h-122z" />
    <glyph glyph-name="acircumflex" unicode="&#xe2;" horiz-adv-x="639" 
d="M238 -10q-118 0 -163 46t-45 128q0 117 81 159t283 42h26q-1 33 -9 50t-35 27.5t-78 10.5q-85 0 -163 -47l-69 103q36 25 103.5 46t143.5 21q75 0 121.5 -12t72.5 -41t35 -68.5t9 -102.5v-180q0 -37 8 -46.5t43 -9.5v-114q-12 -4 -57 -4t-67.5 12t-35.5 46
q-50 -66 -204 -66zM264 104q82 0 119 32t37 102v25h-17q-106 0 -157.5 -8.5t-68.5 -26t-17 -53.5q0 -37 23 -54t81 -17zM94 618l155 177h142l155 -177h-129l-99 91l-97 -91h-127z" />
    <glyph glyph-name="atilde" unicode="&#xe3;" horiz-adv-x="639" 
d="M238 -10q-118 0 -163 46t-45 128q0 117 81 159t283 42h26q-1 33 -9 50t-35 27.5t-78 10.5q-85 0 -163 -47l-69 103q36 25 103.5 46t143.5 21q75 0 121.5 -12t72.5 -41t35 -68.5t9 -102.5v-180q0 -37 8 -46.5t43 -9.5v-114q-12 -4 -57 -4t-67.5 12t-35.5 46
q-50 -66 -204 -66zM264 104q82 0 119 32t37 102v25h-17q-106 0 -157.5 -8.5t-68.5 -26t-17 -53.5q0 -37 23 -54t81 -17zM171 616l-79 64q81 99 157 99q37 0 77 -26t61 -26q36 0 82 57l78 -63q-83 -103 -157 -103q-35 0 -76 26t-63 26q-37 0 -80 -54z" />
    <glyph glyph-name="adieresis" unicode="&#xe4;" horiz-adv-x="639" 
d="M238 -10q-118 0 -163 46t-45 128q0 117 81 159t283 42h26q-1 33 -9 50t-35 27.5t-78 10.5q-85 0 -163 -47l-69 103q36 25 103.5 46t143.5 21q75 0 121.5 -12t72.5 -41t35 -68.5t9 -102.5v-180q0 -37 8 -46.5t43 -9.5v-114q-12 -4 -57 -4t-67.5 12t-35.5 46
q-50 -66 -204 -66zM264 104q82 0 119 32t37 102v25h-17q-106 0 -157.5 -8.5t-68.5 -26t-17 -53.5q0 -37 23 -54t81 -17zM147 622v129h124v-129h-124zM370 622v129h123v-129h-123z" />
    <glyph glyph-name="aring" unicode="&#xe5;" horiz-adv-x="639" 
d="M238 -10q-118 0 -163 46t-45 128q0 117 81 159t283 42h26q-1 33 -9 50t-35 27.5t-78 10.5q-85 0 -163 -47l-69 103q36 25 103.5 46t143.5 21q75 0 121.5 -12t72.5 -41t35 -68.5t9 -102.5v-180q0 -37 8 -46.5t43 -9.5v-114q-12 -4 -57 -4t-67.5 12t-35.5 46
q-50 -66 -204 -66zM264 104q82 0 119 32t37 102v25h-17q-106 0 -157.5 -8.5t-68.5 -26t-17 -53.5q0 -37 23 -54t81 -17zM320 603q-69 0 -103 38.5t-34 101.5q0 64 34 103t103 39q67 0 102 -39.5t35 -102.5q0 -62 -35 -101t-102 -39zM320 673q34 0 50.5 19.5t16.5 50.5
q0 71 -67 71t-67 -71q0 -70 67 -70z" />
    <glyph glyph-name="ae" unicode="&#xe6;" horiz-adv-x="988" 
d="M702 -11q-169 0 -230 89q-33 -54 -86.5 -71t-146.5 -17q-116 0 -162.5 44t-46.5 130q0 116 82 158.5t282 42.5h26q-1 33 -9 50t-35 27.5t-78 10.5q-90 0 -164 -46l-68 102q36 25 103.5 46t143.5 21q139 0 184 -61q66 61 203 61q72 0 121 -18.5t74 -51t38.5 -77t13 -95.5
t-0.5 -106h-400q7 -63 41.5 -94t114.5 -31q105 0 177 53l71 -92q-52 -40 -108 -57.5t-140 -17.5zM264 104q82 0 119 31.5t37 102.5v25h-17q-105 0 -156 -8t-69 -25.5t-18 -54.5t22 -54t82 -17zM697 459q-76 0 -109.5 -31.5t-40.5 -93.5h273q-2 33 -5.5 51t-15 37.5t-36.5 28
t-66 8.5z" />
    <glyph glyph-name="ccedilla" unicode="&#xe7;" horiz-adv-x="581" 
d="M293 -244q-71 0 -130 32l35 66q48 -23 90 -23q38 0 52 10t14 33q0 25 -21.5 32.5t-67.5 4.5l-28 19l14 65q-118 18 -165 91.5t-47 196.5q0 67 12.5 116.5t43.5 91.5t89.5 63.5t143.5 21.5q143 0 222 -89l-97 -92q-53 53 -125 53q-85 0 -118.5 -42.5t-33.5 -126.5t33 -127
t120 -43q73 0 131 55l89 -85q-49 -46 -97.5 -67t-123.5 -22l-6 -33q28 1 46.5 -1.5t37.5 -10.5t29 -28t10 -52q0 -109 -152 -109z" />
    <glyph glyph-name="egrave" unicode="&#xe8;" horiz-adv-x="613" 
d="M326 -11q-86 0 -145 22.5t-88.5 65t-41.5 91.5t-12 115q0 51 7 91.5t26 79.5t50.5 65t83 41.5t119.5 15.5q51 0 90 -9.5t65 -27.5t44.5 -42.5t27.5 -54.5t14.5 -65t5 -72.5t-0.5 -76.5h-400q7 -63 41 -94t114 -31q105 0 177 53l71 -92q-53 -40 -110 -57.5t-138 -17.5z
M321 459q-76 0 -109.5 -31t-40.5 -93h273q-2 32 -6 50.5t-16 37.5t-37 27.5t-64 8.5zM279 618l-186 177h165l144 -177h-123z" />
    <glyph glyph-name="eacute" unicode="&#xe9;" horiz-adv-x="613" 
d="M209 618l143 177h165l-186 -177h-122zM326 -11q-86 0 -145 22.5t-88.5 65t-41.5 91.5t-12 115q0 51 7 91.5t26 79.5t50.5 65t83 41.5t119.5 15.5q51 0 90 -9.5t65 -27.5t44.5 -42.5t27.5 -54.5t14.5 -65t5 -72.5t-0.5 -76.5h-400q7 -63 41 -94t114 -31q105 0 177 53
l71 -92q-53 -40 -110 -57.5t-138 -17.5zM321 459q-76 0 -109.5 -31t-40.5 -93h273q-2 32 -6 50.5t-16 37.5t-37 27.5t-64 8.5z" />
    <glyph glyph-name="ecircumflex" unicode="&#xea;" horiz-adv-x="613" 
d="M79 618l155 177h142l155 -177h-129l-99 91l-97 -91h-127zM326 -11q-86 0 -145 22.5t-88.5 65t-41.5 91.5t-12 115q0 51 7 91.5t26 79.5t50.5 65t83 41.5t119.5 15.5q51 0 90 -9.5t65 -27.5t44.5 -42.5t27.5 -54.5t14.5 -65t5 -72.5t-0.5 -76.5h-400q7 -63 41 -94t114 -31
q105 0 177 53l71 -92q-53 -40 -110 -57.5t-138 -17.5zM321 459q-76 0 -109.5 -31t-40.5 -93h273q-2 32 -6 50.5t-16 37.5t-37 27.5t-64 8.5z" />
    <glyph glyph-name="edieresis" unicode="&#xeb;" horiz-adv-x="613" 
d="M132 622v129h124v-129h-124zM355 622v129h123v-129h-123zM326 -11q-86 0 -145 22.5t-88.5 65t-41.5 91.5t-12 115q0 51 7 91.5t26 79.5t50.5 65t83 41.5t119.5 15.5q51 0 90 -9.5t65 -27.5t44.5 -42.5t27.5 -54.5t14.5 -65t5 -72.5t-0.5 -76.5h-400q7 -63 41 -94t114 -31
q105 0 177 53l71 -92q-53 -40 -110 -57.5t-138 -17.5zM321 459q-76 0 -109.5 -31t-40.5 -93h273q-2 32 -6 50.5t-16 37.5t-37 27.5t-64 8.5z" />
    <glyph glyph-name="igrave" unicode="&#xec;" horiz-adv-x="279" 
d="M82 618l-140 176h166l99 -176h-125zM72 0v563h135v-563h-135z" />
    <glyph glyph-name="iacute" unicode="&#xed;" horiz-adv-x="279" 
d="M74 618l97 176h167l-140 -176h-124zM72 0v563h135v-563h-135z" />
    <glyph glyph-name="icircumflex" unicode="&#xee;" horiz-adv-x="279" 
d="M-56 618l128 176h135l127 -176h-126l-70 91l-71 -91h-123zM72 0v563h135v-563h-135z" />
    <glyph glyph-name="idieresis" unicode="&#xef;" horiz-adv-x="279" 
d="M-14 625v127h111v-127h-111zM183 625v127h110v-127h-110zM72 0v563h135v-563h-135z" />
    <glyph glyph-name="eth" unicode="&#xf0;" horiz-adv-x="655" 
d="M284 579v92l65 14l-55 64l130 46q36 -33 70 -78l133 29v-92l-84 -19q73 -148 73 -333q0 -165 -70.5 -239t-219.5 -74q-287 0 -287 276q0 274 248 274q125 0 166 -45q-12 51 -48 111zM326 109q82 0 117 40.5t35 119.5t-34.5 117.5t-117.5 38.5q-80 0 -115 -39t-35 -117
t35 -119t115 -41z" />
    <glyph glyph-name="ntilde" unicode="&#xf1;" horiz-adv-x="653" 
d="M66 0v555l106 8l12 -49q53 62 205 62q63 0 104 -16t62 -49.5t28.5 -72.5t7.5 -96v-342h-136v315q0 33 -3 52.5t-14 39t-35 28.5t-62 9q-82 0 -110 -34.5t-28 -103.5v-306h-137zM176 616l-79 64q81 99 157 99q37 0 77 -26t61 -26q36 0 82 57l78 -63q-83 -103 -157 -103
q-35 0 -76 26t-63 26q-37 0 -80 -54z" />
    <glyph glyph-name="ograve" unicode="&#xf2;" horiz-adv-x="654" 
d="M327 -11q-151 0 -219.5 73.5t-68.5 220.5t68 220t220 73t220 -73t68 -220t-68 -220.5t-220 -73.5zM327 109q83 0 117 43t34 127t-34 127t-117 43t-117 -43t-34 -127t34 -127t117 -43zM300 618l-186 177h165l144 -177h-123z" />
    <glyph glyph-name="oacute" unicode="&#xf3;" horiz-adv-x="654" 
d="M230 618l143 177h165l-186 -177h-122zM327 -11q-151 0 -219.5 73.5t-68.5 220.5t68 220t220 73t220 -73t68 -220t-68 -220.5t-220 -73.5zM327 109q83 0 117 43t34 127t-34 127t-117 43t-117 -43t-34 -127t34 -127t117 -43z" />
    <glyph glyph-name="ocircumflex" unicode="&#xf4;" horiz-adv-x="654" 
d="M100 618l155 177h142l155 -177h-129l-99 91l-97 -91h-127zM327 -11q-151 0 -219.5 73.5t-68.5 220.5t68 220t220 73t220 -73t68 -220t-68 -220.5t-220 -73.5zM327 109q83 0 117 43t34 127t-34 127t-117 43t-117 -43t-34 -127t34 -127t117 -43z" />
    <glyph glyph-name="otilde" unicode="&#xf5;" horiz-adv-x="654" 
d="M327 -11q-151 0 -219.5 73.5t-68.5 220.5t68 220t220 73t220 -73t68 -220t-68 -220.5t-220 -73.5zM327 109q83 0 117 43t34 127t-34 127t-117 43t-117 -43t-34 -127t34 -127t117 -43zM177 616l-79 64q81 99 157 99q37 0 77 -26t61 -26q35 0 82 57l78 -63
q-83 -103 -157 -103q-35 0 -76 26t-63 26q-37 0 -80 -54z" />
    <glyph glyph-name="odieresis" unicode="&#xf6;" horiz-adv-x="654" 
d="M153 622v129h124v-129h-124zM376 622v129h123v-129h-123zM327 -11q-151 0 -219.5 73.5t-68.5 220.5t68 220t220 73t220 -73t68 -220t-68 -220.5t-220 -73.5zM327 109q83 0 117 43t34 127t-34 127t-117 43t-117 -43t-34 -127t34 -127t117 -43z" />
    <glyph glyph-name="divide" unicode="&#xf7;" horiz-adv-x="716" 
d="M287 86v125h142v-125h-142zM97 290v126h522v-126h-522zM287 494v126h142v-126h-142z" />
    <glyph glyph-name="oslash" unicode="&#xf8;" horiz-adv-x="654" 
d="M327 -11q-65 0 -113 12l-27 -44h-123l56 90q-81 70 -81 236q0 148 66.5 220.5t221.5 72.5q64 0 112 -12l28 44h123l-56 -91q81 -68 81 -234q0 -148 -66.5 -221t-221.5 -73zM327 105q85 0 119.5 44t34.5 130q0 78 -28 120l-177 -289q19 -5 51 -5zM174 279q0 -77 25 -117
l174 286q-28 4 -46 4q-85 0 -119 -43.5t-34 -129.5z" />
    <glyph glyph-name="ugrave" unicode="&#xf9;" horiz-adv-x="646" 
d="M324 -10q-80 0 -131.5 15t-80 49.5t-39 81.5t-10.5 120v307h136v-310q0 -31 1 -47t7.5 -37t19.5 -31.5t37.5 -18t60.5 -7.5t60 7.5t36.5 18t19 32.5t7.5 37.5t1 47.5v308h134v-305q0 -74 -10 -120.5t-38 -82t-79.5 -50.5t-131.5 -15zM296 618l-186 177h165l144 -177h-123
z" />
    <glyph glyph-name="uacute" unicode="&#xfa;" horiz-adv-x="646" 
d="M226 618l143 177h165l-186 -177h-122zM324 -10q-80 0 -131.5 15t-80 49.5t-39 81.5t-10.5 120v307h136v-310q0 -31 1 -47t7.5 -37t19.5 -31.5t37.5 -18t60.5 -7.5t60 7.5t36.5 18t19 32.5t7.5 37.5t1 47.5v308h134v-305q0 -74 -10 -120.5t-38 -82t-79.5 -50.5t-131.5 -15
z" />
    <glyph glyph-name="ucircumflex" unicode="&#xfb;" horiz-adv-x="646" 
d="M96 618l155 177h142l155 -177h-129l-99 91l-97 -91h-127zM324 -10q-80 0 -131.5 15t-80 49.5t-39 81.5t-10.5 120v307h136v-310q0 -31 1 -47t7.5 -37t19.5 -31.5t37.5 -18t60.5 -7.5t60 7.5t36.5 18t19 32.5t7.5 37.5t1 47.5v308h134v-305q0 -74 -10 -120.5t-38 -82
t-79.5 -50.5t-131.5 -15z" />
    <glyph glyph-name="udieresis" unicode="&#xfc;" horiz-adv-x="646" 
d="M149 622v129h124v-129h-124zM372 622v129h123v-129h-123zM324 -10q-80 0 -131.5 15t-80 49.5t-39 81.5t-10.5 120v307h136v-310q0 -31 1 -47t7.5 -37t19.5 -31.5t37.5 -18t60.5 -7.5t60 7.5t36.5 18t19 32.5t7.5 37.5t1 47.5v308h134v-305q0 -74 -10 -120.5t-38 -82
t-79.5 -50.5t-131.5 -15z" />
    <glyph glyph-name="yacute" unicode="&#xfd;" horiz-adv-x="571" 
d="M132 -169q-39 0 -54 1v106h42q45 0 62 9t25 35l10 28l-215 553h146l142 -386l139 386h141l-230 -596q-29 -75 -73 -105.5t-135 -30.5zM191 618l143 177h165l-186 -177h-122z" />
    <glyph glyph-name="thorn" unicode="&#xfe;" horiz-adv-x="673" 
d="M66 -165v941h136v-258q46 58 192 58q69 0 117.5 -22t74.5 -63.5t37 -91.5t11 -116t-11.5 -116t-38.5 -91.5t-76.5 -63.5t-121.5 -22q-142 0 -183 57v-212h-137zM360 110q77 0 106.5 42.5t29.5 125.5q0 84 -29 127.5t-107 43.5q-86 0 -121.5 -39.5t-35.5 -131.5t34 -130
t123 -38z" />
    <glyph glyph-name="ydieresis" unicode="&#xff;" horiz-adv-x="571" 
d="M132 -169q-39 0 -54 1v106h42q45 0 62 9t25 35l10 28l-215 553h146l142 -386l139 386h141l-230 -596q-29 -75 -73 -105.5t-135 -30.5zM114 622v129h124v-129h-124zM337 622v129h123v-129h-123z" />
    <glyph glyph-name="Amacron" unicode="&#x100;" horiz-adv-x="773" 
d="M17 0l297 746h145l298 -746h-147l-52 132h-349l-52 -132h-140zM256 256h255l-128 321zM183 773v112h405v-112h-405z" />
    <glyph glyph-name="amacron" unicode="&#x101;" horiz-adv-x="639" 
d="M238 -10q-118 0 -163 46t-45 128q0 117 81 159t283 42h26q-1 33 -9 50t-35 27.5t-78 10.5q-85 0 -163 -47l-69 103q36 25 103.5 46t143.5 21q75 0 121.5 -12t72.5 -41t35 -68.5t9 -102.5v-180q0 -37 8 -46.5t43 -9.5v-114q-12 -4 -57 -4t-67.5 12t-35.5 46
q-50 -66 -204 -66zM264 104q82 0 119 32t37 102v25h-17q-106 0 -157.5 -8.5t-68.5 -26t-17 -53.5q0 -37 23 -54t81 -17zM118 609v112h405v-112h-405z" />
    <glyph glyph-name="Abreve" unicode="&#x102;" horiz-adv-x="773" 
d="M17 0l297 746h145l298 -746h-147l-52 132h-349l-52 -132h-140zM256 256h255l-128 321zM385 768q-100 0 -144.5 46.5t-63.5 139.5l99 19q12 -52 34.5 -74.5t74.5 -22.5q53 0 75.5 22.5t33.5 74.5l100 -18q-19 -93 -64 -140t-145 -47z" />
    <glyph glyph-name="abreve" unicode="&#x103;" horiz-adv-x="639" 
d="M238 -10q-118 0 -163 46t-45 128q0 117 81 159t283 42h26q-1 33 -9 50t-35 27.5t-78 10.5q-85 0 -163 -47l-69 103q36 25 103.5 46t143.5 21q75 0 121.5 -12t72.5 -41t35 -68.5t9 -102.5v-180q0 -37 8 -46.5t43 -9.5v-114q-12 -4 -57 -4t-67.5 12t-35.5 46
q-50 -66 -204 -66zM264 104q82 0 119 32t37 102v25h-17q-106 0 -157.5 -8.5t-68.5 -26t-17 -53.5q0 -37 23 -54t81 -17zM320 604q-100 0 -144.5 46.5t-63.5 139.5l99 19q12 -52 34.5 -74.5t74.5 -22.5q53 0 75.5 22.5t33.5 74.5l100 -18q-19 -93 -64 -140t-145 -47z" />
    <glyph glyph-name="Aogonek" unicode="&#x104;" horiz-adv-x="773" 
d="M17 0l297 746h145l298 -746h-41q-91 -56 -91 -104q0 -21 11.5 -31t43.5 -10q33 0 74 13l26 -75q-57 -25 -118 -25q-78 0 -110 26t-32 75q0 43 26.5 79t60.5 58l-49 126h-349l-52 -132h-140zM256 256h255l-128 321z" />
    <glyph glyph-name="aogonek" unicode="&#x105;" horiz-adv-x="639" 
d="M238 -10q-118 0 -163 46t-45 128q0 117 81 159t283 42h26q-1 33 -9 50t-35 27.5t-78 10.5q-85 0 -163 -47l-69 103q36 25 103.5 46t143.5 21q75 0 121.5 -12t72.5 -41t35 -68.5t9 -102.5v-180q0 -37 8 -46.5t43 -9.5v-114q-101 -61 -101 -106q0 -21 11 -31t44 -10
q38 0 76 14l27 -75q-55 -26 -121 -26q-78 0 -110 26t-32 75q0 48 28.5 82.5t65.5 53.5q-18 7 -25 15q-15 12 -23 36q-50 -66 -204 -66zM264 104q82 0 119 32t37 102v25h-17q-106 0 -157.5 -8.5t-68.5 -26t-17 -53.5q0 -37 23 -54t81 -17z" />
    <glyph glyph-name="Cacute" unicode="&#x106;" 
d="M278 782l143 177h165l-186 -177h-122zM414 -11q-197 0 -287 96t-90 286q0 382 385 382q179 0 283 -104l-100 -100q-74 71 -184 71q-123 0 -182 -62.5t-59 -187.5t56.5 -188t185.5 -63q68 0 109.5 19t81.5 56l97 -94q-51 -52 -118 -81.5t-178 -29.5z" />
    <glyph glyph-name="cacute" unicode="&#x107;" horiz-adv-x="581" 
d="M195 618l143 177h165l-186 -177h-122zM322 -10q-83 0 -140 21.5t-87.5 63t-43 91.5t-12.5 117t12.5 116.5t43.5 91.5t89.5 63.5t143.5 21.5q143 0 222 -89l-97 -92q-53 53 -125 53q-85 0 -118.5 -42.5t-33.5 -126.5t33 -127t120 -43q73 0 131 55l89 -85
q-51 -47 -100.5 -68t-126.5 -21z" />
    <glyph glyph-name="Ccircumflex" unicode="&#x108;" 
d="M163 782l155 177h142l155 -177h-129l-99 91l-97 -91h-127zM414 -11q-197 0 -287 96t-90 286q0 382 385 382q179 0 283 -104l-100 -100q-74 71 -184 71q-123 0 -182 -62.5t-59 -187.5t56.5 -188t185.5 -63q68 0 109.5 19t81.5 56l97 -94q-51 -52 -118 -81.5t-178 -29.5z
" />
    <glyph glyph-name="ccircumflex" unicode="&#x109;" horiz-adv-x="581" 
d="M73 618l155 177h142l155 -177h-129l-99 91l-97 -91h-127zM322 -10q-83 0 -140 21.5t-87.5 63t-43 91.5t-12.5 117t12.5 116.5t43.5 91.5t89.5 63.5t143.5 21.5q143 0 222 -89l-97 -92q-53 53 -125 53q-85 0 -118.5 -42.5t-33.5 -126.5t33 -127t120 -43q73 0 131 55
l89 -85q-51 -47 -100.5 -68t-126.5 -21z" />
    <glyph glyph-name="Cdotaccent" unicode="&#x10a;" 
d="M414 -11q-197 0 -287 96t-90 286q0 382 385 382q179 0 283 -104l-100 -100q-74 71 -184 71q-123 0 -182 -62.5t-59 -187.5t56.5 -188t185.5 -63q68 0 109.5 19t81.5 56l97 -94q-51 -52 -118 -81.5t-178 -29.5zM322 780v132h138v-132h-138z" />
    <glyph glyph-name="cdotaccent" unicode="&#x10b;" horiz-adv-x="581" 
d="M322 -10q-83 0 -140 21.5t-87.5 63t-43 91.5t-12.5 117t12.5 116.5t43.5 91.5t89.5 63.5t143.5 21.5q143 0 222 -89l-97 -92q-53 53 -125 53q-85 0 -118.5 -42.5t-33.5 -126.5t33 -127t120 -43q73 0 131 55l89 -85q-51 -47 -100.5 -68t-126.5 -21zM238 616v132h138v-132
h-138z" />
    <glyph glyph-name="Ccaron" unicode="&#x10c;" 
d="M303 782l-155 177h130l98 -90l97 90h127l-155 -177h-142zM414 -11q-197 0 -287 96t-90 286q0 382 385 382q179 0 283 -104l-100 -100q-74 71 -184 71q-123 0 -182 -62.5t-59 -187.5t56.5 -188t185.5 -63q68 0 109.5 19t81.5 56l97 -94q-51 -52 -118 -81.5t-178 -29.5z
" />
    <glyph glyph-name="ccaron" unicode="&#x10d;" horiz-adv-x="581" 
d="M220 618l-155 177h130l98 -90l97 90h127l-155 -177h-142zM322 -10q-83 0 -140 21.5t-87.5 63t-43 91.5t-12.5 117t12.5 116.5t43.5 91.5t89.5 63.5t143.5 21.5q143 0 222 -89l-97 -92q-53 53 -125 53q-85 0 -118.5 -42.5t-33.5 -126.5t33 -127t120 -43q73 0 131 55
l89 -85q-51 -47 -100.5 -68t-126.5 -21z" />
    <glyph glyph-name="Dcaron" unicode="&#x10e;" horiz-adv-x="778" 
d="M316 782l-155 177h130l98 -90l97 90h127l-155 -177h-142zM78 0v741h259q113 0 186 -16.5t124 -59t73 -113.5t22 -181q0 -210 -94 -290.5t-317 -80.5h-253zM220 128h119q154 0 207 53t53 190q0 95 -19.5 143.5t-75.5 72t-165 23.5h-119v-482z" />
    <glyph glyph-name="dcaron" unicode="&#x10f;" horiz-adv-x="815" 
d="M704 506l-31 59q42 21 54 33.5t12 37.5h-61v140h135v-100q0 -75 -20 -107t-89 -63zM282 -11q-70 0 -118.5 22t-75 64t-38 93t-11.5 117q0 65 11.5 115t39 91t77 63t120.5 22q141 0 183 -57v257h137v-770l-104 -11l-15 59q-53 -65 -206 -65zM314 110q85 0 120.5 41
t35.5 134q0 91 -33.5 128t-122.5 37q-79 0 -108 -41.5t-29 -123.5q0 -85 29.5 -130t107.5 -45z" />
    <glyph glyph-name="Dcroat" unicode="&#x110;" horiz-adv-x="778" 
d="M0 319v115h78v307h259q113 0 186 -16.5t124 -59t73 -113.5t22 -181q0 -107 -24 -179t-76.5 -114.5t-127 -60t-183.5 -17.5h-253v319h-78zM220 128h119q154 0 207 53t53 190q0 95 -19.5 143.5t-75.5 72t-165 23.5h-119v-176h146v-115h-146v-191z" />
    <glyph glyph-name="dcroat" unicode="&#x111;" horiz-adv-x="673" 
d="M343 608v111h127v57h137v-57h66v-111h-66v-602l-104 -11l-15 59q-53 -65 -206 -65q-70 0 -118.5 22t-75 64t-38 93t-11.5 117q0 65 11.5 115t39 91t77 63t120.5 22q141 0 183 -57v89h-127zM314 110q85 0 120.5 41t35.5 134q0 91 -33.5 128t-122.5 37q-79 0 -108 -41.5
t-29 -123.5q0 -85 29.5 -130t107.5 -45z" />
    <glyph glyph-name="Emacron" unicode="&#x112;" horiz-adv-x="675" 
d="M78 0v741h540v-132h-398v-165h388v-129h-388v-187h402v-128h-544zM134 773v112h405v-112h-405z" />
    <glyph glyph-name="emacron" unicode="&#x113;" horiz-adv-x="613" 
d="M326 -11q-86 0 -145 22.5t-88.5 65t-41.5 91.5t-12 115q0 51 7 91.5t26 79.5t50.5 65t83 41.5t119.5 15.5q51 0 90 -9.5t65 -27.5t44.5 -42.5t27.5 -54.5t14.5 -65t5 -72.5t-0.5 -76.5h-400q7 -63 41 -94t114 -31q105 0 177 53l71 -92q-53 -40 -110 -57.5t-138 -17.5z
M321 459q-76 0 -109.5 -31t-40.5 -93h273q-2 32 -6 50.5t-16 37.5t-37 27.5t-64 8.5zM103 609v112h405v-112h-405z" />
    <glyph glyph-name="Ebreve" unicode="&#x114;" horiz-adv-x="675" 
d="M78 0v741h540v-132h-398v-165h388v-129h-388v-187h402v-128h-544zM337 768q-100 0 -144.5 46.5t-63.5 139.5l99 19q12 -52 34.5 -74.5t74.5 -22.5q53 0 75.5 22.5t33.5 74.5l100 -18q-19 -93 -64 -140t-145 -47z" />
    <glyph glyph-name="ebreve" unicode="&#x115;" horiz-adv-x="613" 
d="M326 -11q-86 0 -145 22.5t-88.5 65t-41.5 91.5t-12 115q0 51 7 91.5t26 79.5t50.5 65t83 41.5t119.5 15.5q51 0 90 -9.5t65 -27.5t44.5 -42.5t27.5 -54.5t14.5 -65t5 -72.5t-0.5 -76.5h-400q7 -63 41 -94t114 -31q105 0 177 53l71 -92q-53 -40 -110 -57.5t-138 -17.5z
M321 459q-76 0 -109.5 -31t-40.5 -93h273q-2 32 -6 50.5t-16 37.5t-37 27.5t-64 8.5zM306 604q-100 0 -144.5 46.5t-63.5 139.5l99 19q12 -52 34.5 -74.5t74.5 -22.5q53 0 75.5 22.5t33.5 74.5l100 -18q-19 -93 -64 -140t-145 -47z" />
    <glyph glyph-name="Edotaccent" unicode="&#x116;" horiz-adv-x="675" 
d="M78 0v741h540v-132h-398v-165h388v-129h-388v-187h402v-128h-544zM267 780v132h138v-132h-138z" />
    <glyph glyph-name="edotaccent" unicode="&#x117;" horiz-adv-x="613" 
d="M326 -11q-86 0 -145 22.5t-88.5 65t-41.5 91.5t-12 115q0 51 7 91.5t26 79.5t50.5 65t83 41.5t119.5 15.5q51 0 90 -9.5t65 -27.5t44.5 -42.5t27.5 -54.5t14.5 -65t5 -72.5t-0.5 -76.5h-400q7 -63 41 -94t114 -31q105 0 177 53l71 -92q-53 -40 -110 -57.5t-138 -17.5z
M321 459q-76 0 -109.5 -31t-40.5 -93h273q-2 32 -6 50.5t-16 37.5t-37 27.5t-64 8.5zM236 616v132h138v-132h-138z" />
    <glyph glyph-name="Eogonek" unicode="&#x118;" horiz-adv-x="675" 
d="M78 0v741h540v-132h-398v-165h388v-129h-388v-187h402v-128h-82q-42 -27 -64 -55t-22 -49t11.5 -31t43.5 -10q41 0 87 16l27 -75q-61 -28 -132 -28q-78 0 -110 26t-32 75q0 77 79 131h-350z" />
    <glyph glyph-name="eogonek" unicode="&#x119;" horiz-adv-x="613" 
d="M323 -11q-69 0 -120.5 16t-82 41.5t-49.5 64.5t-25.5 79.5t-6.5 92.5q0 51 7 91.5t26 79.5t50.5 65t83 41.5t119.5 15.5q51 0 90 -9.5t65 -27.5t44.5 -42.5t27.5 -54.5t14.5 -65t5 -72.5t-0.5 -76.5h-400q6 -63 40.5 -94t114.5 -31q105 0 177 53l71 -92q-54 -40 -105 -56
q-49 -29 -74 -59t-25 -53q0 -21 11 -31t44 -10q43 0 86 16l27 -75q-60 -28 -131 -28q-78 0 -110.5 26t-32.5 75q0 69 65 120h-6zM321 459q-76 0 -109.5 -31t-40.5 -93h273q-2 32 -6 50.5t-16 37.5t-37 27.5t-64 8.5z" />
    <glyph glyph-name="Ecaron" unicode="&#x11a;" horiz-adv-x="675" 
d="M265 782l-155 177h130l98 -90l97 90h127l-155 -177h-142zM78 0v741h540v-132h-398v-165h388v-129h-388v-187h402v-128h-544z" />
    <glyph glyph-name="ecaron" unicode="&#x11b;" horiz-adv-x="613" 
d="M234 618l-155 177h130l98 -90l97 90h127l-155 -177h-142zM326 -11q-86 0 -145 22.5t-88.5 65t-41.5 91.5t-12 115q0 51 7 91.5t26 79.5t50.5 65t83 41.5t119.5 15.5q51 0 90 -9.5t65 -27.5t44.5 -42.5t27.5 -54.5t14.5 -65t5 -72.5t-0.5 -76.5h-400q7 -63 41 -94t114 -31
q105 0 177 53l71 -92q-53 -40 -110 -57.5t-138 -17.5zM321 459q-76 0 -109.5 -31t-40.5 -93h273q-2 32 -6 50.5t-16 37.5t-37 27.5t-64 8.5z" />
    <glyph glyph-name="Gcircumflex" unicode="&#x11c;" horiz-adv-x="794" 
d="M172 782l155 177h142l155 -177h-129l-99 91l-97 -91h-127zM412 -11q-208 0 -291.5 93.5t-83.5 288.5q0 197 97.5 289.5t286.5 92.5q195 0 293 -102l-100 -101q-74 70 -194 70q-125 0 -183 -62t-58 -188q0 -135 52.5 -196.5t187.5 -61.5q114 0 157 41t43 133v17h-218v123
h359v-113q0 -82 -16.5 -139.5t-55.5 -100.5t-107 -63.5t-169 -20.5z" />
    <glyph glyph-name="gcircumflex" unicode="&#x11d;" horiz-adv-x="638" 
d="M85 639l155 177h142l155 -177h-129l-99 91l-97 -91h-127zM307 206q-51 0 -81 5q-7 -14 -7 -24q0 -21 19 -27.5t80 -6.5q168 0 227 -31.5t59 -121.5q0 -96 -71 -137.5t-228 -41.5q-160 0 -222 28t-62 110q0 104 111 128q-34 23 -34 78q0 47 25 79q-70 43 -70 142
q0 95 61 142.5t193 47.5q17 0 26 -1l248 45v-107h-85q67 -37 67 -127q0 -93 -61.5 -136.5t-194.5 -43.5zM310 -80q89 0 122 17t33 54q0 35 -32.5 46.5t-122.5 11.5q-94 0 -123 -16t-29 -50q0 -35 32.5 -49t119.5 -14zM307 303q67 0 94 19.5t27 62.5q0 42 -28 61.5t-93 19.5
q-67 0 -94 -19t-27 -62t27.5 -62.5t93.5 -19.5z" />
    <glyph glyph-name="Gbreve" unicode="&#x11e;" horiz-adv-x="794" 
d="M412 -11q-208 0 -291.5 93.5t-83.5 288.5q0 197 97.5 289.5t286.5 92.5q195 0 293 -102l-100 -101q-74 70 -194 70q-125 0 -183 -62t-58 -188q0 -135 52.5 -196.5t187.5 -61.5q114 0 157 41t43 133v17h-218v123h359v-113q0 -82 -16.5 -139.5t-55.5 -100.5t-107 -63.5
t-169 -20.5zM396 768q-100 0 -144.5 46.5t-63.5 139.5l99 19q12 -52 34.5 -74.5t74.5 -22.5q53 0 75.5 22.5t33.5 74.5l100 -18q-19 -93 -64 -140t-145 -47z" />
    <glyph glyph-name="gbreve" unicode="&#x11f;" horiz-adv-x="638" 
d="M307 206q-51 0 -81 5q-7 -14 -7 -24q0 -21 19 -27.5t80 -6.5q168 0 227 -31.5t59 -121.5q0 -96 -71 -137.5t-228 -41.5q-160 0 -222 28t-62 110q0 104 111 128q-34 23 -34 78q0 47 25 79q-70 43 -70 142q0 95 61 142.5t193 47.5q17 0 26 -1l248 45v-107h-85
q67 -37 67 -127q0 -93 -61.5 -136.5t-194.5 -43.5zM310 -80q89 0 122 17t33 54q0 35 -32.5 46.5t-122.5 11.5q-94 0 -123 -16t-29 -50q0 -35 32.5 -49t119.5 -14zM307 303q67 0 94 19.5t27 62.5q0 42 -28 61.5t-93 19.5q-67 0 -94 -19t-27 -62t27.5 -62.5t93.5 -19.5z
M318 604q-100 0 -144.5 46.5t-63.5 139.5l99 19q12 -52 34.5 -74.5t74.5 -22.5q53 0 75.5 22.5t33.5 74.5l100 -18q-19 -93 -64 -140t-145 -47z" />
    <glyph glyph-name="Gdotaccent" unicode="&#x120;" horiz-adv-x="794" 
d="M412 -11q-208 0 -291.5 93.5t-83.5 288.5q0 197 97.5 289.5t286.5 92.5q195 0 293 -102l-100 -101q-74 70 -194 70q-125 0 -183 -62t-58 -188q0 -135 52.5 -196.5t187.5 -61.5q114 0 157 41t43 133v17h-218v123h359v-113q0 -82 -16.5 -139.5t-55.5 -100.5t-107 -63.5
t-169 -20.5zM331 780v132h138v-132h-138z" />
    <glyph glyph-name="gdotaccent" unicode="&#x121;" horiz-adv-x="638" 
d="M307 206q-51 0 -81 5q-7 -14 -7 -24q0 -21 19 -27.5t80 -6.5q168 0 227 -31.5t59 -121.5q0 -96 -71 -137.5t-228 -41.5q-160 0 -222 28t-62 110q0 104 111 128q-34 23 -34 78q0 47 25 79q-70 43 -70 142q0 95 61 142.5t193 47.5q17 0 26 -1l248 45v-107h-85
q67 -37 67 -127q0 -93 -61.5 -136.5t-194.5 -43.5zM310 -80q89 0 122 17t33 54q0 35 -32.5 46.5t-122.5 11.5q-94 0 -123 -16t-29 -50q0 -35 32.5 -49t119.5 -14zM307 303q67 0 94 19.5t27 62.5q0 42 -28 61.5t-93 19.5q-67 0 -94 -19t-27 -62t27.5 -62.5t93.5 -19.5z
M250 616v132h138v-132h-138z" />
    <glyph glyph-name="Gcommaaccent" unicode="&#x122;" horiz-adv-x="794" 
d="M358 -309l-31 59q42 20 54 33t12 38h-67v140h141v-100q0 -75 -20 -107t-89 -63zM412 -11q-208 0 -291.5 93.5t-83.5 288.5q0 197 97.5 289.5t286.5 92.5q195 0 293 -102l-100 -101q-74 70 -194 70q-125 0 -183 -62t-58 -188q0 -135 52.5 -196.5t187.5 -61.5q114 0 157 41
t43 133v17h-218v123h359v-113q0 -82 -16.5 -139.5t-55.5 -100.5t-107 -63.5t-169 -20.5z" />
    <glyph glyph-name="gcommaaccent" unicode="&#x123;" horiz-adv-x="638" 
d="M247 617v88q0 75 20.5 107t90.5 63l29 -58q-41 -20 -53 -33.5t-12 -38.5h66v-128h-141zM307 206q-51 0 -81 5q-7 -14 -7 -24q0 -21 19 -27.5t80 -6.5q168 0 227 -31.5t59 -121.5q0 -96 -71 -137.5t-228 -41.5q-160 0 -222 28t-62 110q0 104 111 128q-34 23 -34 78
q0 47 25 79q-70 43 -70 142q0 95 61 142.5t193 47.5q17 0 26 -1l248 45v-107h-85q67 -37 67 -127q0 -93 -61.5 -136.5t-194.5 -43.5zM310 -80q89 0 122 17t33 54q0 35 -32.5 46.5t-122.5 11.5q-94 0 -123 -16t-29 -50q0 -35 32.5 -49t119.5 -14zM307 303q67 0 94 19.5
t27 62.5q0 42 -28 61.5t-93 19.5q-67 0 -94 -19t-27 -62t27.5 -62.5t93.5 -19.5z" />
    <glyph glyph-name="Hcircumflex" unicode="&#x124;" horiz-adv-x="806" 
d="M176 782l155 177h142l155 -177h-129l-99 91l-97 -91h-127zM78 0v741h142v-291h366v291h142v-741h-142v314h-366v-314h-142z" />
    <glyph glyph-name="hcircumflex" unicode="&#x125;" horiz-adv-x="653" 
d="M-91 795l155 177h142l155 -177h-129l-99 91l-97 -91h-127zM66 0v776h136v-253q43 53 187 53q63 0 104 -16t62 -49.5t28.5 -72.5t7.5 -96v-342h-136v315q0 33 -3 52.5t-14 39t-35 28.5t-62 9q-82 0 -110 -34.5t-28 -103.5v-306h-137z" />
    <glyph glyph-name="Hbar" unicode="&#x126;" horiz-adv-x="806" 
d="M26 533v119h52v89h142v-89h366v89h142v-89h51v-119h-51v-533h-142v314h-366v-314h-142v533h-52zM220 450h366v83h-366v-83z" />
    <glyph glyph-name="hbar" unicode="&#x127;" horiz-adv-x="653" 
d="M66 0v618h-66v91h66v67h136v-67h128v-91h-128v-95q43 53 187 53q63 0 104 -16t62 -49.5t28.5 -72.5t7.5 -96v-342h-136v315q0 33 -3 52.5t-14 39t-35 28.5t-62 9q-82 0 -110 -34.5t-28 -103.5v-306h-137z" />
    <glyph glyph-name="Itilde" unicode="&#x128;" horiz-adv-x="317" 
d="M88 0v741h141v-741h-141zM9 780l-79 64q81 99 157 99q37 0 77 -26t61 -26q35 0 82 57l78 -63q-83 -103 -157 -103q-35 0 -76 26t-63 26q-37 0 -80 -54z" />
    <glyph glyph-name="itilde" unicode="&#x129;" horiz-adv-x="279" 
d="M72 0v563h135v-563h-135zM-9 616l-79 64q81 99 157 99q37 0 77 -26t61 -26q35 0 82 57l78 -63q-83 -103 -157 -103q-35 0 -76 26t-63 26q-37 0 -80 -54z" />
    <glyph glyph-name="Imacron" unicode="&#x12a;" horiz-adv-x="317" 
d="M88 0v741h141v-741h-141zM-43 773v112h405v-112h-405z" />
    <glyph glyph-name="imacron" unicode="&#x12b;" horiz-adv-x="279" 
d="M72 0v563h135v-563h-135zM-61 609v112h405v-112h-405z" />
    <glyph glyph-name="Ibreve" unicode="&#x12c;" horiz-adv-x="317" 
d="M88 0v741h141v-741h-141zM159 768q-100 0 -144.5 46.5t-63.5 139.5l99 19q12 -52 34.5 -74.5t74.5 -22.5q53 0 75.5 22.5t33.5 74.5l100 -18q-19 -93 -64 -140t-145 -47z" />
    <glyph glyph-name="ibreve" unicode="&#x12d;" horiz-adv-x="279" 
d="M72 0v563h135v-563h-135zM141 604q-100 0 -144.5 46.5t-63.5 139.5l99 19q12 -52 34.5 -74.5t74.5 -22.5q53 0 75.5 22.5t33.5 74.5l100 -18q-19 -93 -64 -140t-145 -47z" />
    <glyph glyph-name="Iogonek" unicode="&#x12e;" horiz-adv-x="317" 
d="M169 -232q-78 0 -110.5 26t-32.5 75q0 84 75 131h-13v741h141v-741q-97 -61 -97 -104q0 -21 11 -31t44 -10q35 0 78 15l27 -75q-59 -27 -123 -27z" />
    <glyph glyph-name="iogonek" unicode="&#x12f;" horiz-adv-x="279" 
d="M147 -232q-78 0 -110.5 26t-32.5 75q0 82 78 132h-10v562h135v-563q-97 -60 -97 -104q0 -21 11 -31t44 -10q35 0 78 15l27 -75q-59 -27 -123 -27zM71 620v135h137v-135h-137z" />
    <glyph glyph-name="Idotaccent" unicode="&#x130;" horiz-adv-x="317" 
d="M88 0v741h141v-741h-141zM90 780v132h138v-132h-138z" />
    <glyph glyph-name="dotlessi" unicode="&#x131;" horiz-adv-x="279" 
d="M72 0v563h135v-563h-135z" />
    <glyph glyph-name="IJ" unicode="&#x132;" horiz-adv-x="758" 
d="M88 0v741h141v-741h-141zM441 -2q-68 0 -101 2v127h84q66 0 92.5 24.5t26.5 82.5v507h141v-512q0 -128 -62 -179.5t-181 -51.5z" />
    <glyph glyph-name="ij" unicode="&#x133;" horiz-adv-x="559" 
d="M72 0v563h135v-563h-135zM71 620v135h137v-135h-137zM281 -169v107h11q37 0 47.5 14.5t10.5 61.5v549h135v-548q0 -109 -36 -146.5t-143 -37.5h-25zM349 620v135h137v-135h-137z" />
    <glyph glyph-name="Jcircumflex" unicode="&#x134;" horiz-adv-x="441" 
d="M70 782l155 177h142l155 -177h-129l-99 91l-97 -91h-127zM125 -2q-68 0 -101 2v127h84q66 0 92.5 24.5t26.5 82.5v507h141v-512q0 -128 -62 -179.5t-181 -51.5z" />
    <glyph glyph-name="jcircumflex" unicode="&#x135;" horiz-adv-x="279" 
d="M3 -169v105h11q37 0 47.5 14.5t10.5 61.5v551h135v-550q0 -108 -36 -145t-143 -37h-25zM-85 618l155 177h142l155 -177h-129l-99 91l-97 -91h-127z" />
    <glyph glyph-name="Kcommaaccent" unicode="&#x136;" horiz-adv-x="746" 
d="M333 -309l-31 59q42 20 54 33t12 38h-67v140h141v-100q0 -75 -20 -107t-89 -63zM556 0l-223 341l-115 -134v-207h-140v741h140v-353l303 353h160l-254 -293l290 -448h-161z" />
    <glyph glyph-name="kcommaaccent" unicode="&#x137;" horiz-adv-x="589" 
d="M254 -309l-31 59q42 20 54 33t12 38h-67v140h141v-100q0 -75 -20 -107t-89 -63zM66 0v776h135v-464l210 251h150l-192 -231l210 -332h-151l-150 231l-77 -89v-142h-135z" />
    <glyph glyph-name="kgreenlandic" unicode="&#x138;" horiz-adv-x="589" 
d="M66 0v563h135v-251l210 251h150l-192 -231l210 -332h-151l-150 231l-77 -89v-142h-135z" />
    <glyph glyph-name="Lacute" unicode="&#x139;" horiz-adv-x="610" 
d="M87 782l143 177h165l-186 -177h-122zM78 0v741h142v-614h372v-127h-514z" />
    <glyph glyph-name="lacute" unicode="&#x13a;" horiz-adv-x="329" 
d="M75 815l143 177h165l-186 -177h-122zM216 -2q-76 0 -110 37t-34 128v613h135v-597q0 -36 11 -49t47 -13h20v-115q-22 -4 -69 -4z" />
    <glyph glyph-name="Lcommaaccent" unicode="&#x13b;" horiz-adv-x="610" 
d="M265 -309l-31 59q42 20 54 33t12 38h-67v140h141v-100q0 -75 -20 -107t-89 -63zM78 0v741h142v-614h372v-127h-514z" />
    <glyph glyph-name="lcommaaccent" unicode="&#x13c;" horiz-adv-x="329" 
d="M125 -309l-31 59q42 20 54 33t12 38h-67v140h141v-100q0 -75 -20 -107t-89 -63zM216 -2q-76 0 -110 37t-34 128v613h135v-597q0 -36 11 -49t47 -13h20v-115q-22 -4 -69 -4z" />
    <glyph glyph-name="Lcaron" unicode="&#x13d;" horiz-adv-x="610" 
d="M328 506l-31 59q42 21 54 33.5t12 37.5h-61v140h135v-100q0 -75 -20 -107t-89 -63zM78 0v741h142v-614h372v-127h-514z" />
    <glyph glyph-name="lcaron" unicode="&#x13e;" horiz-adv-x="418" 
d="M307 506l-31 59q42 21 54 33.5t12 37.5h-61v140h135v-100q0 -75 -20 -107t-89 -63zM216 -2q-76 0 -110 37t-34 128v613h135v-597q0 -36 11 -49t47 -13h20v-115q-22 -4 -69 -4z" />
    <glyph glyph-name="Ldot" unicode="&#x13f;" horiz-adv-x="681" 
d="M78 0v741h142v-614h372v-127h-514zM415 298v169h161v-169h-161z" />
    <glyph glyph-name="ldot" unicode="&#x140;" horiz-adv-x="577" 
d="M216 -2q-76 0 -110 37t-34 128v613h135v-597q0 -36 11 -49t47 -13h20v-115q-22 -4 -69 -4zM350 274v169h161v-169h-161z" />
    <glyph glyph-name="Lslash" unicode="&#x141;" horiz-adv-x="610" 
d="M0 270v117l78 43v311h142v-233l145 81v-118l-145 -80v-264h372v-127h-514v313z" />
    <glyph glyph-name="lslash" unicode="&#x142;" horiz-adv-x="392" 
d="M24 340v115l91 52v269h136v-190l97 56v-116l-97 -56v-293q0 -37 10.5 -49.5t46.5 -12.5h21v-113q-24 -4 -69 -4q-77 0 -111 36.5t-34 126.5v231z" />
    <glyph glyph-name="Nacute" unicode="&#x143;" horiz-adv-x="812" 
d="M308 782l143 177h165l-186 -177h-122zM78 0v741h154l365 -501v501h137v-741h-130l-389 531v-531h-137z" />
    <glyph glyph-name="nacute" unicode="&#x144;" horiz-adv-x="653" 
d="M229 618l143 177h165l-186 -177h-122zM66 0v555l106 8l12 -49q53 62 205 62q63 0 104 -16t62 -49.5t28.5 -72.5t7.5 -96v-342h-136v315q0 33 -3 52.5t-14 39t-35 28.5t-62 9q-82 0 -110 -34.5t-28 -103.5v-306h-137z" />
    <glyph glyph-name="Ncommaaccent" unicode="&#x145;" horiz-adv-x="812" 
d="M366 -309l-31 59q42 20 54 33t12 38h-67v140h141v-100q0 -75 -20 -107t-89 -63zM78 0v741h154l365 -501v501h137v-741h-130l-389 531v-531h-137z" />
    <glyph glyph-name="ncommaaccent" unicode="&#x146;" horiz-adv-x="653" 
d="M287 -309l-31 59q42 20 54 33t12 38h-67v140h141v-100q0 -75 -20 -107t-89 -63zM66 0v555l106 8l12 -49q53 62 205 62q63 0 104 -16t62 -49.5t28.5 -72.5t7.5 -96v-342h-136v315q0 33 -3 52.5t-14 39t-35 28.5t-62 9q-82 0 -110 -34.5t-28 -103.5v-306h-137z" />
    <glyph glyph-name="Ncaron" unicode="&#x147;" horiz-adv-x="812" 
d="M333 782l-155 177h130l98 -90l97 90h127l-155 -177h-142zM78 0v741h154l365 -501v501h137v-741h-130l-389 531v-531h-137z" />
    <glyph glyph-name="ncaron" unicode="&#x148;" horiz-adv-x="653" 
d="M254 618l-155 177h130l98 -90l97 90h127l-155 -177h-142zM66 0v555l106 8l12 -49q53 62 205 62q63 0 104 -16t62 -49.5t28.5 -72.5t7.5 -96v-342h-136v315q0 33 -3 52.5t-14 39t-35 28.5t-62 9q-82 0 -110 -34.5t-28 -103.5v-306h-137z" />
    <glyph glyph-name="napostrophe" unicode="&#x149;" horiz-adv-x="896" 
d="M95 417l-34 70q47 23 61 39t14 49h-77v166h161v-119q0 -91 -22.5 -130t-102.5 -75zM309 0v555l106 8l12 -49q53 62 205 62q63 0 104 -16t62 -49.5t28.5 -72.5t7.5 -96v-342h-136v315q0 33 -3 52.5t-14 39t-35 28.5t-62 9q-82 0 -110 -34.5t-28 -103.5v-306h-137z" />
    <glyph glyph-name="Eng" unicode="&#x14a;" horiz-adv-x="812" 
d="M78 0v741h154l367 -503v503h135v-699q0 -127 -62 -178.5t-181 -51.5q-53 0 -101 2v123h84q56 0 83 19t33 61l-376 516v-533h-136z" />
    <glyph glyph-name="eng" unicode="&#x14b;" horiz-adv-x="653" 
d="M386 -169v105h11q38 0 48 14.5t10 61.5v304q0 33 -3 53t-14 40t-35 29t-62 9q-82 0 -110 -35t-28 -105v-307h-137v555l106 8l12 -67q53 80 205 80q63 0 104 -16t62 -49.5t28.5 -72.5t7.5 -96v-337q0 -102 -37.5 -138t-142.5 -36h-25z" />
    <glyph glyph-name="Omacron" unicode="&#x14c;" horiz-adv-x="848" 
d="M221 773v112h405v-112h-405zM424 -12q-387 0 -387 383q0 382 387 382q388 0 388 -382q0 -383 -388 -383zM424 117q129 0 186.5 64t57.5 188q0 123 -57.5 187t-186.5 64t-186.5 -64t-57.5 -187q0 -124 57.5 -188t186.5 -64z" />
    <glyph glyph-name="omacron" unicode="&#x14d;" horiz-adv-x="654" 
d="M124 609v112h405v-112h-405zM327 -11q-151 0 -219.5 73.5t-68.5 220.5t68 220t220 73t220 -73t68 -220t-68 -220.5t-220 -73.5zM327 109q83 0 117 43t34 127t-34 127t-117 43t-117 -43t-34 -127t34 -127t117 -43z" />
    <glyph glyph-name="Obreve" unicode="&#x14e;" horiz-adv-x="848" 
d="M424 -12q-387 0 -387 383q0 382 387 382q388 0 388 -382q0 -383 -388 -383zM424 117q129 0 186.5 64t57.5 188q0 123 -57.5 187t-186.5 64t-186.5 -64t-57.5 -187q0 -124 57.5 -188t186.5 -64zM423 768q-100 0 -144.5 46.5t-63.5 139.5l99 19q12 -52 34.5 -74.5
t74.5 -22.5q53 0 75.5 22.5t33.5 74.5l100 -18q-19 -93 -64 -140t-145 -47z" />
    <glyph glyph-name="obreve" unicode="&#x14f;" horiz-adv-x="654" 
d="M327 -11q-151 0 -219.5 73.5t-68.5 220.5t68 220t220 73t220 -73t68 -220t-68 -220.5t-220 -73.5zM327 109q83 0 117 43t34 127t-34 127t-117 43t-117 -43t-34 -127t34 -127t117 -43zM326 604q-100 0 -144.5 46.5t-63.5 139.5l99 19q12 -52 34.5 -74.5t74.5 -22.5
q53 0 75.5 22.5t33.5 74.5l100 -18q-19 -93 -64 -140t-145 -47z" />
    <glyph glyph-name="Ohungarumlaut" unicode="&#x150;" horiz-adv-x="848" 
d="M197 782l126 176h158l-169 -176h-115zM456 782l126 176h158l-168 -176h-116zM424 -12q-387 0 -387 383q0 382 387 382q388 0 388 -382q0 -383 -388 -383zM424 117q129 0 186.5 64t57.5 188q0 123 -57.5 187t-186.5 64t-186.5 -64t-57.5 -187q0 -124 57.5 -188t186.5 -64z
" />
    <glyph glyph-name="ohungarumlaut" unicode="&#x151;" horiz-adv-x="654" 
d="M100 618l126 176h158l-169 -176h-115zM359 618l126 176h158l-168 -176h-116zM327 -11q-151 0 -219.5 73.5t-68.5 220.5t68 220t220 73t220 -73t68 -220t-68 -220.5t-220 -73.5zM327 109q83 0 117 43t34 127t-34 127t-117 43t-117 -43t-34 -127t34 -127t117 -43z" />
    <glyph glyph-name="OE" unicode="&#x152;" horiz-adv-x="1262" 
d="M678 0v69q-88 -81 -254 -81q-188 0 -287.5 91.5t-99.5 291.5t99.5 291t287.5 91q166 0 254 -81v69h526v-132h-397v-166h387v-127h-387v-189h401v-127h-530zM424 117q131 0 187.5 64t56.5 188t-56.5 187.5t-187.5 63.5t-187.5 -63.5t-56.5 -187.5t56.5 -188t187.5 -64z
" />
    <glyph glyph-name="oe" unicode="&#x153;" horiz-adv-x="1052" 
d="M766 -11q-159 0 -222 78q-64 -78 -217 -78q-155 0 -221.5 73t-66.5 221t66.5 220.5t221.5 72.5q153 0 218 -79q64 79 220 79q60 0 104 -13t70 -36.5t43 -56t22 -71t7.5 -82t-0.5 -89.5h-401q7 -63 41.5 -94t114.5 -31q105 0 177 53l71 -92q-52 -40 -108 -57.5t-140 -17.5
zM327 109q83 0 117 43t34 127t-34 127t-117 43t-117 -43t-34 -127t34 -127t117 -43zM761 459q-76 0 -109.5 -31.5t-40.5 -93.5h273q-2 33 -5.5 51t-15 37.5t-36.5 28t-66 8.5z" />
    <glyph glyph-name="Racute" unicode="&#x154;" horiz-adv-x="759" 
d="M282 782l143 177h165l-186 -177h-122zM543 0l-146 258h-180v-258h-139v741h348q155 0 217 -60t62 -176q0 -187 -163 -233l154 -272h-153zM217 384h205q73 0 106.5 25t33.5 90q0 67 -33 92t-109 25h-203v-232z" />
    <glyph glyph-name="racute" unicode="&#x155;" horiz-adv-x="393" 
d="M105 618l143 177h165l-186 -177h-122zM66 0v555l106 8l14 -63q19 29 68 48.5t116 20.5v-133q-95 -1 -131 -38.5t-36 -113.5v-284h-137z" />
    <glyph glyph-name="Rcommaaccent" unicode="&#x156;" horiz-adv-x="759" 
d="M340 -309l-31 59q42 20 54 33t12 38h-67v140h141v-100q0 -75 -20 -107t-89 -63zM543 0l-146 258h-180v-258h-139v741h348q155 0 217 -60t62 -176q0 -187 -163 -233l154 -272h-153zM217 384h205q73 0 106.5 25t33.5 90q0 67 -33 92t-109 25h-203v-232z" />
    <glyph glyph-name="rcommaaccent" unicode="&#x157;" horiz-adv-x="393" 
d="M96 -309l-31 59q42 20 54 33t12 38h-67v140h141v-100q0 -75 -20 -107t-89 -63zM66 0v555l106 8l14 -63q19 29 68 48.5t116 20.5v-133q-95 -1 -131 -38.5t-36 -113.5v-284h-137z" />
    <glyph glyph-name="Rcaron" unicode="&#x158;" horiz-adv-x="759" 
d="M307 782l-155 177h130l98 -90l97 90h127l-155 -177h-142zM543 0l-146 258h-180v-258h-139v741h348q155 0 217 -60t62 -176q0 -187 -163 -233l154 -272h-153zM217 384h205q73 0 106.5 25t33.5 90q0 67 -33 92t-109 25h-203v-232z" />
    <glyph glyph-name="rcaron" unicode="&#x159;" horiz-adv-x="386" 
d="M123 618l-155 177h130l98 -90l97 90h127l-155 -177h-142zM66 0v555l106 8l14 -63q19 29 68 48.5t116 20.5v-133q-95 -1 -131 -38.5t-36 -113.5v-284h-137z" />
    <glyph glyph-name="Sacute" unicode="&#x15a;" horiz-adv-x="732" 
d="M269 782l143 177h165l-186 -177h-122zM368 -11q-208 0 -341 95l72 105q117 -78 265 -78q107 0 145.5 23.5t38.5 78.5q0 49 -41.5 67.5t-145.5 34.5q-63 9 -103.5 18.5t-80 25.5t-61 38t-34.5 56.5t-13 81.5q0 118 72 168t226 50q182 0 290 -71l-77 -113q-37 25 -96 41
t-118 16q-88 0 -122 -20t-34 -68q0 -46 41 -64.5t146 -33.5q51 -8 83 -14.5t69.5 -17.5t59.5 -26t42 -37t29 -53.5t9 -71.5q0 -116 -74.5 -173.5t-246.5 -57.5z" />
    <glyph glyph-name="sacute" unicode="&#x15b;" horiz-adv-x="561" 
d="M185 618l143 177h165l-186 -177h-122zM275 -10q-156 0 -260 70l70 103q91 -58 199 -58q65 0 89 11.5t24 46.5q0 28 -22 39t-90 21q-50 7 -78.5 13t-63 19t-52.5 30.5t-30.5 48t-12.5 71.5q0 85 56 128t181 43q140 0 230 -51l-65 -109q-71 38 -161 38q-61 0 -83 -12
t-22 -38q0 -27 21 -38.5t83 -20.5q38 -6 58.5 -9.5t50.5 -11t46 -15t35.5 -20.5t29 -29t16 -38.5t6.5 -51.5q0 -97 -58.5 -138.5t-196.5 -41.5z" />
    <glyph glyph-name="Scircumflex" unicode="&#x15c;" horiz-adv-x="732" 
d="M127 782l155 177h142l155 -177h-129l-99 91l-97 -91h-127zM368 -11q-208 0 -341 95l72 105q117 -78 265 -78q107 0 145.5 23.5t38.5 78.5q0 49 -41.5 67.5t-145.5 34.5q-63 9 -103.5 18.5t-80 25.5t-61 38t-34.5 56.5t-13 81.5q0 118 72 168t226 50q182 0 290 -71
l-77 -113q-37 25 -96 41t-118 16q-88 0 -122 -20t-34 -68q0 -46 41 -64.5t146 -33.5q51 -8 83 -14.5t69.5 -17.5t59.5 -26t42 -37t29 -53.5t9 -71.5q0 -116 -74.5 -173.5t-246.5 -57.5z" />
    <glyph glyph-name="scircumflex" unicode="&#x15d;" horiz-adv-x="561" 
d="M52 618l155 177h142l155 -177h-129l-99 91l-97 -91h-127zM275 -10q-156 0 -260 70l70 103q91 -58 199 -58q65 0 89 11.5t24 46.5q0 28 -22 39t-90 21q-50 7 -78.5 13t-63 19t-52.5 30.5t-30.5 48t-12.5 71.5q0 85 56 128t181 43q140 0 230 -51l-65 -109q-71 38 -161 38
q-61 0 -83 -12t-22 -38q0 -27 21 -38.5t83 -20.5q38 -6 58.5 -9.5t50.5 -11t46 -15t35.5 -20.5t29 -29t16 -38.5t6.5 -51.5q0 -97 -58.5 -138.5t-196.5 -41.5z" />
    <glyph glyph-name="Scedilla" unicode="&#x15e;" horiz-adv-x="732" 
d="M367 -244q-72 0 -129 32l35 66q48 -23 89 -23q38 0 52.5 10t14.5 33q0 25 -21.5 32.5t-67.5 4.5l-28 19l12 60q-183 11 -297 94l72 105q117 -78 265 -78q107 0 145.5 23.5t38.5 78.5q0 49 -41.5 67.5t-145.5 34.5q-63 9 -103.5 18.5t-80 25.5t-61 38t-34.5 56.5t-13 81.5
q0 118 72 168t226 50q182 0 290 -71l-77 -113q-37 25 -96 41t-118 16q-88 0 -122 -20t-34 -68q0 -46 41 -64.5t146 -33.5q51 -8 83 -14.5t69.5 -17.5t59.5 -26t42 -37t29 -53.5t9 -71.5q0 -110 -67 -167t-219 -63l-6 -33q28 1 46.5 -1.5t37.5 -10.5t29 -28t10 -52
q0 -58 -38.5 -83.5t-114.5 -25.5z" />
    <glyph glyph-name="scedilla" unicode="&#x15f;" horiz-adv-x="561" 
d="M283 -244q-72 0 -129 32l35 66q48 -23 89 -23q38 0 52.5 10t14.5 33q0 25 -21.5 32.5t-67.5 4.5l-28 19l12 61q-136 9 -225 69l70 103q91 -58 199 -58q65 0 89 11.5t24 46.5q0 28 -22 39t-90 21q-50 7 -78.5 13t-63 19t-52.5 30.5t-30.5 48t-12.5 71.5q0 85 56 128
t181 43q140 0 230 -51l-65 -109q-71 38 -161 38q-61 0 -83 -12t-22 -38q0 -27 21 -38.5t83 -20.5q38 -6 58.5 -9.5t50.5 -11t46 -15t35.5 -20.5t29 -29t16 -38.5t6.5 -51.5q0 -89 -49 -131t-162 -48l-6 -34q28 1 46.5 -1.5t37.5 -10.5t29 -28t10 -52q0 -58 -38.5 -83.5
t-114.5 -25.5z" />
    <glyph glyph-name="Scaron" unicode="&#x160;" horiz-adv-x="732" 
d="M294 782l-155 177h130l98 -90l97 90h127l-155 -177h-142zM368 -11q-208 0 -341 95l72 105q117 -78 265 -78q107 0 145.5 23.5t38.5 78.5q0 49 -41.5 67.5t-145.5 34.5q-63 9 -103.5 18.5t-80 25.5t-61 38t-34.5 56.5t-13 81.5q0 118 72 168t226 50q182 0 290 -71
l-77 -113q-37 25 -96 41t-118 16q-88 0 -122 -20t-34 -68q0 -46 41 -64.5t146 -33.5q51 -8 83 -14.5t69.5 -17.5t59.5 -26t42 -37t29 -53.5t9 -71.5q0 -116 -74.5 -173.5t-246.5 -57.5z" />
    <glyph glyph-name="scaron" unicode="&#x161;" horiz-adv-x="561" 
d="M210 618l-155 177h130l98 -90l97 90h127l-155 -177h-142zM275 -10q-156 0 -260 70l70 103q91 -58 199 -58q65 0 89 11.5t24 46.5q0 28 -22 39t-90 21q-50 7 -78.5 13t-63 19t-52.5 30.5t-30.5 48t-12.5 71.5q0 85 56 128t181 43q140 0 230 -51l-65 -109q-71 38 -161 38
q-61 0 -83 -12t-22 -38q0 -27 21 -38.5t83 -20.5q38 -6 58.5 -9.5t50.5 -11t46 -15t35.5 -20.5t29 -29t16 -38.5t6.5 -51.5q0 -97 -58.5 -138.5t-196.5 -41.5z" />
    <glyph glyph-name="Tcommaaccent" unicode="&#x162;" horiz-adv-x="702" 
d="M311 -309l-31 59q42 20 54 33t12 38h-67v140h141v-100q0 -75 -20 -107t-89 -63zM280 0v609h-262v132h667v-132h-262v-609h-143z" />
    <glyph glyph-name="Tcommaaccent" unicode="&#x21a;" horiz-adv-x="702" 
d="M311 -309l-31 59q42 20 54 33t12 38h-67v140h141v-100q0 -75 -20 -107t-89 -63zM280 0v609h-262v132h667v-132h-262v-609h-143z" />
    <glyph glyph-name="tcommaaccent" unicode="&#x163;" horiz-adv-x="441" 
d="M155 -309l-31 59q42 20 54 33t12 38h-67v140h141v-100q0 -75 -20 -107t-89 -63zM27 443v120h100l24 144l106 22v-166h139v-120h-139v-254q0 -39 13.5 -55.5t62.5 -16.5h63v-117q-20 -2 -90 -2q-106 0 -145.5 39t-39.5 132v274h-94z" />
    <glyph glyph-name="tcommaaccent" unicode="&#x21b;" horiz-adv-x="441" 
d="M155 -309l-31 59q42 20 54 33t12 38h-67v140h141v-100q0 -75 -20 -107t-89 -63zM27 443v120h100l24 144l106 22v-166h139v-120h-139v-254q0 -39 13.5 -55.5t62.5 -16.5h63v-117q-20 -2 -90 -2q-106 0 -145.5 39t-39.5 132v274h-94z" />
    <glyph glyph-name="Tcaron" unicode="&#x164;" horiz-adv-x="702" 
d="M278 782l-155 177h130l98 -90l97 90h127l-155 -177h-142zM280 0v609h-262v132h667v-132h-262v-609h-143z" />
    <glyph glyph-name="tcaron" unicode="&#x165;" horiz-adv-x="441" 
d="M347 639l-29 56q40 20 51.5 32.5t11.5 37.5h-57v133h127v-96q0 -72 -19 -103t-85 -60zM27 443v120h100l24 144l106 22v-166h139v-120h-139v-254q0 -39 13.5 -55.5t62.5 -16.5h63v-117q-20 -2 -90 -2q-106 0 -145.5 39t-39.5 132v274h-94z" />
    <glyph glyph-name="Tbar" unicode="&#x166;" horiz-adv-x="702" 
d="M142 275v115h138v219h-262v132h667v-132h-262v-219h136v-115h-136v-275h-143v275h-138z" />
    <glyph glyph-name="tbar" unicode="&#x167;" horiz-adv-x="441" 
d="M27 443v120h100l24 144l106 22v-166h139v-120h-139v-89h139v-120h-139v-45q0 -39 13.5 -55.5t62.5 -16.5h63v-117q-20 -2 -90 -2q-106 0 -145.5 39t-39.5 132v65h-94v120h94v89h-94z" />
    <glyph glyph-name="Utilde" unicode="&#x168;" horiz-adv-x="807" 
d="M403 -14q-87 0 -149.5 17.5t-96.5 44t-54 68t-25 78t-5 86.5v461h142v-443q0 -93 39 -137.5t151 -44.5q113 0 152 43.5t39 138.5v443h139v-461q0 -49 -5.5 -86t-25.5 -78.5t-54.5 -68t-97 -44t-149.5 -17.5zM260 780l-79 64q81 99 157 99q37 0 77 -26t61 -26q36 0 82 57
l78 -63q-83 -103 -157 -103q-35 0 -76 26t-63 26q-37 0 -80 -54z" />
    <glyph glyph-name="utilde" unicode="&#x169;" horiz-adv-x="646" 
d="M324 -10q-80 0 -131.5 15t-80 49.5t-39 81.5t-10.5 120v307h136v-310q0 -31 1 -47t7.5 -37t19.5 -31.5t37.5 -18t60.5 -7.5t60 7.5t36.5 18t19 32.5t7.5 37.5t1 47.5v308h134v-305q0 -74 -10 -120.5t-38 -82t-79.5 -50.5t-131.5 -15zM177 616l-79 64q81 99 157 99
q37 0 77 -26t61 -26q35 0 82 57l78 -63q-83 -103 -157 -103q-35 0 -76 26t-63 26q-37 0 -80 -54z" />
    <glyph glyph-name="Umacron" unicode="&#x16a;" horiz-adv-x="807" 
d="M403 -14q-87 0 -149.5 17.5t-96.5 44t-54 68t-25 78t-5 86.5v461h142v-443q0 -93 39 -137.5t151 -44.5q113 0 152 43.5t39 138.5v443h139v-461q0 -49 -5.5 -86t-25.5 -78.5t-54.5 -68t-97 -44t-149.5 -17.5zM200 773v112h405v-112h-405z" />
    <glyph glyph-name="umacron" unicode="&#x16b;" horiz-adv-x="646" 
d="M324 -10q-80 0 -131.5 15t-80 49.5t-39 81.5t-10.5 120v307h136v-310q0 -31 1 -47t7.5 -37t19.5 -31.5t37.5 -18t60.5 -7.5t60 7.5t36.5 18t19 32.5t7.5 37.5t1 47.5v308h134v-305q0 -74 -10 -120.5t-38 -82t-79.5 -50.5t-131.5 -15zM120 609v112h405v-112h-405z" />
    <glyph glyph-name="Ubreve" unicode="&#x16c;" horiz-adv-x="807" 
d="M403 -14q-87 0 -149.5 17.5t-96.5 44t-54 68t-25 78t-5 86.5v461h142v-443q0 -93 39 -137.5t151 -44.5q113 0 152 43.5t39 138.5v443h139v-461q0 -49 -5.5 -86t-25.5 -78.5t-54.5 -68t-97 -44t-149.5 -17.5zM403 768q-100 0 -144.5 46.5t-63.5 139.5l99 19
q12 -52 34.5 -74.5t74.5 -22.5q53 0 75.5 22.5t33.5 74.5l100 -18q-19 -93 -64 -140t-145 -47z" />
    <glyph glyph-name="ubreve" unicode="&#x16d;" horiz-adv-x="646" 
d="M324 -10q-80 0 -131.5 15t-80 49.5t-39 81.5t-10.5 120v307h136v-310q0 -31 1 -47t7.5 -37t19.5 -31.5t37.5 -18t60.5 -7.5t60 7.5t36.5 18t19 32.5t7.5 37.5t1 47.5v308h134v-305q0 -74 -10 -120.5t-38 -82t-79.5 -50.5t-131.5 -15zM322 604q-100 0 -144.5 46.5
t-63.5 139.5l99 19q12 -52 34.5 -74.5t74.5 -22.5q53 0 75.5 22.5t33.5 74.5l100 -18q-19 -93 -64 -140t-145 -47z" />
    <glyph glyph-name="Uring" unicode="&#x16e;" horiz-adv-x="807" 
d="M402 767q-69 0 -103 38.5t-34 101.5q0 64 34 103t103 39q67 0 102 -39.5t35 -102.5q0 -62 -35 -101t-102 -39zM402 837q34 0 50.5 19.5t16.5 50.5q0 71 -67 71t-67 -71q0 -70 67 -70zM403 -14q-87 0 -149.5 17.5t-96.5 44t-54 68t-25 78t-5 86.5v461h142v-443
q0 -93 39 -137.5t151 -44.5q113 0 152 43.5t39 138.5v443h139v-461q0 -49 -5.5 -86t-25.5 -78.5t-54.5 -68t-97 -44t-149.5 -17.5z" />
    <glyph glyph-name="uring" unicode="&#x16f;" horiz-adv-x="646" 
d="M322 603q-69 0 -103 38.5t-34 101.5q0 64 34 103t103 39q67 0 102 -39.5t35 -102.5q0 -62 -35 -101t-102 -39zM322 673q34 0 50.5 19.5t16.5 50.5q0 71 -67 71t-67 -71q0 -70 67 -70zM324 -10q-80 0 -131.5 15t-80 49.5t-39 81.5t-10.5 120v307h136v-310q0 -31 1 -47
t7.5 -37t19.5 -31.5t37.5 -18t60.5 -7.5t60 7.5t36.5 18t19 32.5t7.5 37.5t1 47.5v308h134v-305q0 -74 -10 -120.5t-38 -82t-79.5 -50.5t-131.5 -15z" />
    <glyph glyph-name="Uhungarumlaut" unicode="&#x170;" horiz-adv-x="807" 
d="M403 -14q-87 0 -149.5 17.5t-96.5 44t-54 68t-25 78t-5 86.5v461h142v-443q0 -93 39 -137.5t151 -44.5q113 0 152 43.5t39 138.5v443h139v-461q0 -49 -5.5 -86t-25.5 -78.5t-54.5 -68t-97 -44t-149.5 -17.5zM176 782l126 176h158l-169 -176h-115zM435 782l126 176h158
l-168 -176h-116z" />
    <glyph glyph-name="uhungarumlaut" unicode="&#x171;" horiz-adv-x="646" 
d="M324 -10q-80 0 -131.5 15t-80 49.5t-39 81.5t-10.5 120v307h136v-310q0 -31 1 -47t7.5 -37t19.5 -31.5t37.5 -18t60.5 -7.5t60 7.5t36.5 18t19 32.5t7.5 37.5t1 47.5v308h134v-305q0 -74 -10 -120.5t-38 -82t-79.5 -50.5t-131.5 -15zM96 618l126 176h158l-169 -176h-115z
M355 618l126 176h158l-168 -176h-116z" />
    <glyph glyph-name="Uogonek" unicode="&#x172;" horiz-adv-x="807" 
d="M512 -232q-78 0 -106.5 25.5t-28.5 75.5q0 69 79 120q-24 -3 -53 -3q-87 0 -149.5 17.5t-96.5 43.5t-54 67.5t-25 78t-5 86.5v462h142v-444q0 -46 7.5 -77.5t27.5 -57t58 -37.5t97 -12q113 0 152 44t39 140v444h139v-462q0 -97 -28.5 -161t-109.5 -101q-62 -31 -93.5 -66
t-31.5 -66q0 -21 13 -31t49 -10q46 0 93 21l23 -64q-71 -33 -138 -33z" />
    <glyph glyph-name="uogonek" unicode="&#x173;" horiz-adv-x="646" 
d="M407 -232q-77 0 -105.5 25.5t-28.5 75.5q0 69 81 121q-7 -1 -31 -1q-80 0 -131 15.5t-79.5 50t-39 81t-10.5 118.5v309h136v-311q0 -31 1 -47t7.5 -37.5t19.5 -32t37.5 -18t60.5 -7.5t60 8t36.5 18t19 32t7.5 38t1 48v309h134v-307q0 -105 -23.5 -160.5t-87.5 -88.5
q-48 -24 -76.5 -58t-28.5 -64q0 -21 13 -31t49 -10q46 0 93 21l24 -64q-73 -33 -139 -33z" />
    <glyph glyph-name="Wcircumflex" unicode="&#x174;" horiz-adv-x="1083" 
d="M316 782l155 177h142l155 -177h-129l-99 91l-97 -91h-127zM253 -5l-230 746h149l152 -510l158 510h128l158 -510l152 510h140l-229 -746h-126l-163 524l-163 -524h-126z" />
    <glyph glyph-name="wcircumflex" unicode="&#x175;" horiz-adv-x="909" 
d="M227 618l155 177h142l155 -177h-129l-99 91l-97 -91h-127zM199 -6l-189 569h144l118 -371l118 371h135l118 -370l118 370h138l-188 -569h-134l-122 377l-123 -377h-133z" />
    <glyph glyph-name="Ycircumflex" unicode="&#x176;" horiz-adv-x="745" 
d="M302 0v266l-296 475h153l216 -346l217 346h147l-296 -474v-267h-141zM145 782l155 177h142l155 -177h-129l-99 91l-97 -91h-127z" />
    <glyph glyph-name="ycircumflex" unicode="&#x177;" horiz-adv-x="571" 
d="M132 -169q-39 0 -54 1v106h42q45 0 62 9t25 35l10 28l-215 553h146l142 -386l139 386h141l-230 -596q-29 -75 -73 -105.5t-135 -30.5zM64 618l155 177h142l155 -177h-129l-99 91l-97 -91h-127z" />
    <glyph glyph-name="Ydieresis" unicode="&#x178;" horiz-adv-x="745" 
d="M302 0v266l-296 475h153l216 -346l217 346h147l-296 -474v-267h-141zM198 786v129h124v-129h-124zM421 786v129h123v-129h-123z" />
    <glyph glyph-name="Zacute" unicode="&#x179;" horiz-adv-x="685" 
d="M246 782l143 177h165l-186 -177h-122zM36 0v109l421 500h-404v132h583v-119l-416 -495h427v-127h-611z" />
    <glyph glyph-name="zacute" unicode="&#x17a;" horiz-adv-x="531" 
d="M171 618l143 177h165l-186 -177h-122zM24 0v95l293 348h-277v120h459v-96l-295 -354h306v-113h-486z" />
    <glyph glyph-name="Zdotaccent" unicode="&#x17b;" horiz-adv-x="685" 
d="M36 0v109l421 500h-404v132h583v-119l-416 -495h427v-127h-611zM273 780v132h138v-132h-138z" />
    <glyph glyph-name="zdotaccent" unicode="&#x17c;" horiz-adv-x="531" 
d="M24 0v95l293 348h-277v120h459v-96l-295 -354h306v-113h-486zM198 616v132h138v-132h-138z" />
    <glyph glyph-name="Zcaron" unicode="&#x17d;" horiz-adv-x="685" 
d="M271 782l-155 177h130l98 -90l97 90h127l-155 -177h-142zM36 0v109l421 500h-404v132h583v-119l-416 -495h427v-127h-611z" />
    <glyph glyph-name="zcaron" unicode="&#x17e;" horiz-adv-x="531" 
d="M196 618l-155 177h130l98 -90l97 90h127l-155 -177h-142zM24 0v95l293 348h-277v120h459v-96l-295 -354h306v-113h-486z" />
    <glyph glyph-name="longs" unicode="&#x17f;" horiz-adv-x="429" 
d="M133 0v598q0 97 44.5 145t156.5 48q57 0 72 -1v-112h-54q-47 0 -65 -20t-18 -59v-599h-136z" />
    <glyph glyph-name="florin" unicode="&#x192;" horiz-adv-x="594" 
d="M85 339v121h132l25 114q9 42 20 68.5t33.5 51t63.5 36t102 11.5h50v-125h-43q-51 0 -70 -20t-28 -63l-16 -73h157v-121h-183l-107 -505h-137l108 505h-107z" />
    <glyph glyph-name="Ohorn" unicode="&#x1a0;" horiz-adv-x="848" 
d="M424 -12q-387 0 -387 383q0 382 387 382q144 0 236 -54q69 3 71 56h-61v137h133v-125q0 -92 -76 -123q85 -96 85 -273q0 -383 -388 -383zM424 117q129 0 186.5 64t57.5 188q0 123 -57.5 187t-186.5 64t-186.5 -64t-57.5 -187q0 -124 57.5 -188t186.5 -64z" />
    <glyph glyph-name="ohorn" unicode="&#x1a1;" horiz-adv-x="667" 
d="M327 -11q-151 0 -219.5 73.5t-68.5 220.5t68 220t220 73q111 0 177 -39q58 5 64 54h-63v136h134v-124q0 -91 -74 -122q50 -72 50 -198q0 -147 -68 -220.5t-220 -73.5zM327 109q83 0 117 43t34 127t-34 127t-117 43t-117 -43t-34 -127t34 -127t117 -43z" />
    <glyph glyph-name="Uhorn" unicode="&#x1af;" horiz-adv-x="832" 
d="M403 -14q-87 0 -149.5 17.5t-96.5 44t-54 68t-25 78t-5 86.5v461h142v-443q0 -93 39 -137.5t151 -44.5q113 0 152 43.5t39 138.5v443h112q74 0 78 56h-62v137h133v-125q0 -54 -30 -91t-92 -44v-394q0 -49 -5.5 -86t-25.5 -78.5t-54.5 -68t-97 -44t-149.5 -17.5z" />
    <glyph glyph-name="uhorn" unicode="&#x1b0;" horiz-adv-x="707" 
d="M324 -10q-80 0 -131.5 15t-80 49.5t-39 81.5t-10.5 120v307h136v-310q0 -31 1 -47t7.5 -37t19.5 -31.5t37.5 -18t60.5 -7.5t60 7.5t36.5 18t19 32.5t7.5 37.5t1 47.5v308h122q66 3 70 55h-63v136h134v-125q0 -55 -31.5 -92t-97.5 -42v-237q0 -74 -10 -120.5t-38 -82
t-79.5 -50.5t-131.5 -15z" />
    <glyph glyph-name="Aringacute" unicode="&#x1fa;" horiz-adv-x="773" 
d="M289 972l143 177h165l-186 -177h-122zM17 0l277 697q-45 36 -45 112q0 63 34 102t103 39q67 0 102 -39.5t35 -101.5q0 -72 -46 -111l280 -698h-146l-53 132h-350l-51 -132h-140zM256 256h255l-128 321zM386 738q67 0 67 71t-67 71t-67 -71t67 -71z" />
    <glyph glyph-name="aringacute" unicode="&#x1fb;" horiz-adv-x="639" 
d="M238 -10q-118 0 -163 46t-45 128q0 117 81 159t283 42h26q-1 33 -9 50t-35 27.5t-78 10.5q-85 0 -163 -47l-69 103q36 25 103.5 46t143.5 21q75 0 121.5 -12t72.5 -41t35 -68.5t9 -102.5v-180q0 -37 8 -46.5t43 -9.5v-114q-12 -4 -57 -4t-67.5 12t-35.5 46
q-50 -66 -204 -66zM264 104q82 0 119 32t37 102v25h-17q-106 0 -157.5 -8.5t-68.5 -26t-17 -53.5q0 -37 23 -54t81 -17zM224 924l143 177h165l-186 -177h-122zM320 603q-69 0 -103 38.5t-34 101.5q0 64 34 103t103 39q67 0 102 -39.5t35 -102.5q0 -62 -35 -101t-102 -39z
M320 673q34 0 50.5 19.5t16.5 50.5q0 71 -67 71t-67 -71q0 -70 67 -70z" />
    <glyph glyph-name="AEacute" unicode="&#x1fc;" horiz-adv-x="1129" 
d="M444 782l143 177h165l-186 -177h-122zM7 0l466 741h598v-132h-397v-166h387v-127h-387v-189h401v-127h-538v136h-301l-90 -136h-139zM305 255h232v361z" />
    <glyph glyph-name="aeacute" unicode="&#x1fd;" horiz-adv-x="988" 
d="M366 618l143 177h165l-186 -177h-122zM702 -11q-169 0 -230 89q-33 -54 -86.5 -71t-146.5 -17q-116 0 -162.5 44t-46.5 130q0 116 82 158.5t282 42.5h26q-1 33 -9 50t-35 27.5t-78 10.5q-90 0 -164 -46l-68 102q36 25 103.5 46t143.5 21q139 0 184 -61q66 61 203 61
q72 0 121 -18.5t74 -51t38.5 -77t13 -95.5t-0.5 -106h-400q7 -63 41.5 -94t114.5 -31q105 0 177 53l71 -92q-52 -40 -108 -57.5t-140 -17.5zM264 104q82 0 119 31.5t37 102.5v25h-17q-105 0 -156 -8t-69 -25.5t-18 -54.5t22 -54t82 -17zM697 459q-76 0 -109.5 -31.5
t-40.5 -93.5h273q-2 33 -5.5 51t-15 37.5t-36.5 28t-66 8.5z" />
    <glyph glyph-name="Oslashacute" unicode="&#x1fe;" horiz-adv-x="848" 
d="M424 -12q-81 0 -149 17l-27 -46h-134l55 94q-132 92 -132 318q0 200 99.5 291t287.5 91q74 0 143 -16l27 46h133l-53 -91q138 -93 138 -321q0 -200 -100 -291.5t-288 -91.5zM424 112q134 0 191.5 65.5t57.5 191.5q0 145 -74 206l-263 -454q38 -9 88 -9zM175 369
q0 -141 67 -202l261 451q-32 7 -79 7q-134 0 -191.5 -65t-57.5 -191zM327 782l143 177h165l-186 -177h-122z" />
    <glyph glyph-name="oslashacute" unicode="&#x1ff;" horiz-adv-x="654" 
d="M327 -11q-65 0 -113 12l-27 -44h-123l56 90q-81 70 -81 236q0 148 66.5 220.5t221.5 72.5q64 0 112 -12l28 44h123l-56 -91q81 -68 81 -234q0 -148 -66.5 -221t-221.5 -73zM327 105q85 0 119.5 44t34.5 130q0 78 -28 120l-177 -289q19 -5 51 -5zM174 279q0 -77 25 -117
l174 286q-28 4 -46 4q-85 0 -119 -43.5t-34 -129.5zM230 618l143 177h165l-186 -177h-122z" />
    <glyph glyph-name="Scommaaccent" unicode="&#x218;" horiz-adv-x="732" 
d="M326 -309l-31 59q42 20 54 33t12 38h-67v140h141v-100q0 -75 -20 -107t-89 -63zM368 -11q-208 0 -341 95l72 105q117 -78 265 -78q107 0 145.5 23.5t38.5 78.5q0 49 -41.5 67.5t-145.5 34.5q-63 9 -103.5 18.5t-80 25.5t-61 38t-34.5 56.5t-13 81.5q0 118 72 168t226 50
q182 0 290 -71l-77 -113q-37 25 -96 41t-118 16q-88 0 -122 -20t-34 -68q0 -46 41 -64.5t146 -33.5q51 -8 83 -14.5t69.5 -17.5t59.5 -26t42 -37t29 -53.5t9 -71.5q0 -116 -74.5 -173.5t-246.5 -57.5z" />
    <glyph glyph-name="scommaaccent" unicode="&#x219;" horiz-adv-x="561" 
d="M240 -309l-31 59q42 20 54 33t12 38h-67v140h141v-100q0 -75 -20 -107t-89 -63zM275 -10q-156 0 -260 70l70 103q91 -58 199 -58q65 0 89 11.5t24 46.5q0 28 -22 39t-90 21q-50 7 -78.5 13t-63 19t-52.5 30.5t-30.5 48t-12.5 71.5q0 85 56 128t181 43q140 0 230 -51
l-65 -109q-71 38 -161 38q-61 0 -83 -12t-22 -38q0 -27 21 -38.5t83 -20.5q38 -6 58.5 -9.5t50.5 -11t46 -15t35.5 -20.5t29 -29t16 -38.5t6.5 -51.5q0 -97 -58.5 -138.5t-196.5 -41.5z" />
    <glyph glyph-name="circumflex" unicode="&#x2c6;" horiz-adv-x="590" 
d="M69 618l155 177h142l155 -177h-129l-99 91l-97 -91h-127z" />
    <glyph glyph-name="caron" unicode="&#x2c7;" horiz-adv-x="590" 
d="M224 618l-155 177h130l98 -90l97 90h127l-155 -177h-142z" />
    <glyph glyph-name="breve" unicode="&#x2d8;" horiz-adv-x="590" 
d="M295 604q-100 0 -144.5 46.5t-63.5 139.5l99 19q12 -52 34.5 -74.5t74.5 -22.5q53 0 75.5 22.5t33.5 74.5l100 -18q-19 -93 -64 -140t-145 -47z" />
    <glyph glyph-name="dotaccent" unicode="&#x2d9;" horiz-adv-x="590" 
d="M226 616v132h138v-132h-138z" />
    <glyph glyph-name="ring" unicode="&#x2da;" horiz-adv-x="590" 
d="M295 603q-69 0 -103 38.5t-34 101.5q0 64 34 103t103 39q67 0 102 -39.5t35 -102.5q0 -62 -35 -101t-102 -39zM295 673q34 0 50.5 19.5t16.5 50.5q0 71 -67 71t-67 -71q0 -70 67 -70z" />
    <glyph glyph-name="ogonek" unicode="&#x2db;" horiz-adv-x="590" 
d="M311 -232q-78 0 -110.5 26t-32.5 75q0 48 29 83.5t65 56.5h112q-50 -30 -75 -60t-25 -53q0 -21 11 -31t44 -10q43 0 86 16l27 -75q-60 -28 -131 -28z" />
    <glyph glyph-name="tilde" unicode="&#x2dc;" horiz-adv-x="590" 
d="M146 616l-79 64q81 99 157 99q37 0 77 -26t61 -26q36 0 82 57l78 -63q-83 -103 -157 -103q-35 0 -76 26t-63 26q-37 0 -80 -54z" />
    <glyph glyph-name="hungarumlaut" unicode="&#x2dd;" horiz-adv-x="590" 
d="M69 618l126 176h158l-169 -176h-115zM328 618l126 176h158l-168 -176h-116z" />
    <glyph glyph-name="hookabovecomb" unicode="&#x309;" horiz-adv-x="590" 
d="M248 541q-6 38 4.5 62.5t46.5 45.5q27 17 35 24.5t8 19.5q0 29 -52 29q-50 0 -90 -20l-39 79q52 26 135 26q73 0 111.5 -26.5t38.5 -70.5q0 -37 -15 -59t-46 -40q-28 -17 -37 -30.5t-8 -39.5h-92z" />
    <glyph glyph-name="dotbelowcomb" unicode="&#x323;" horiz-adv-x="590" 
d="M226 -191v132h138v-132h-138z" />
    <glyph glyph-name="commaaccent" unicode="&#x326;" horiz-adv-x="280" 
d="M101 -309l-31 59q42 20 54 33t12 38h-67v140h141v-100q0 -75 -20 -107t-89 -63z" />
    <glyph glyph-name="uni0340" unicode="&#x340;" horiz-adv-x="590" 
d="M269 618l-186 177h165l144 -177h-123z" />
    <glyph glyph-name="uni0341" unicode="&#x341;" horiz-adv-x="590" 
d="M199 618l143 177h165l-186 -177h-122z" />
    <glyph glyph-name="tonos" unicode="&#x384;" horiz-adv-x="590" 
d="M235 618l76 176h127l-99 -176h-104z" />
    <glyph glyph-name="dieresistonos" unicode="&#x385;" horiz-adv-x="590" 
d="M81 618v127h98v-127h-98zM413 618v127h97v-127h-97zM213 618l69 176h120l-92 -176h-97z" />
    <glyph glyph-name="Alphatonos" unicode="&#x386;" horiz-adv-x="786" 
d="M32 569l76 176h127l-99 -176h-104zM29 0l297 746h145l298 -746h-147l-52 132h-349l-52 -132h-140zM268 256h255l-128 321z" />
    <glyph glyph-name="Epsilontonos" unicode="&#x388;" horiz-adv-x="880" 
d="M32 566l76 176h127l-99 -176h-104zM282 0v741h540v-132h-398v-165h388v-129h-388v-187h402v-128h-544z" />
    <glyph glyph-name="Etatonos" unicode="&#x389;" horiz-adv-x="1011" 
d="M32 566l76 176h127l-99 -176h-104zM282 0v741h142v-291h366v291h142v-741h-142v314h-366v-314h-142z" />
    <glyph glyph-name="Iotatonos" unicode="&#x38a;" horiz-adv-x="520" 
d="M32 566l76 176h127l-99 -176h-104zM289 0v741h141v-741h-141z" />
    <glyph glyph-name="Omicrontonos" unicode="&#x38c;" horiz-adv-x="1007" 
d="M32 566l76 176h127l-99 -176h-104zM582 -12q-387 0 -387 383q0 382 387 382q388 0 388 -382q0 -383 -388 -383zM582 117q129 0 186.5 64t57.5 188q0 123 -57.5 187t-186.5 64t-186.5 -64t-57.5 -187q0 -124 57.5 -188t186.5 -64z" />
    <glyph glyph-name="Upsilontonos" unicode="&#x38e;" horiz-adv-x="1008" 
d="M32 566l76 176h127l-99 -176h-104zM564 0v266l-296 475h153l216 -346l217 346h147l-296 -474v-267h-141z" />
    <glyph glyph-name="Omegatonos" unicode="&#x38f;" horiz-adv-x="1029" 
d="M590 753q191 0 289.5 -92.5t98.5 -239.5q0 -114 -54.5 -184.5t-159.5 -91.5v-25h223v-120h-326v198q92 18 132.5 68t40.5 133q0 106 -62.5 165t-181.5 59q-120 0 -182.5 -59t-62.5 -165q0 -83 40.5 -133t132.5 -68v-198h-326v120h223v25q-104 21 -158.5 92t-54.5 184
q0 147 98.5 239.5t289.5 92.5zM32 566l76 176h127l-99 -176h-104z" />
    <glyph glyph-name="iotadieresistonos" unicode="&#x390;" horiz-adv-x="279" 
d="M-73 618v127h98v-127h-98zM259 618v127h97v-127h-97zM59 618l69 176h120l-92 -176h-97zM72 0v563h135v-563h-135z" />
    <glyph glyph-name="Alpha" unicode="&#x391;" horiz-adv-x="773" 
d="M17 0l297 746h145l298 -746h-147l-52 132h-349l-52 -132h-140zM256 256h255l-128 321z" />
    <glyph glyph-name="Beta" unicode="&#x392;" horiz-adv-x="742" 
d="M78 0v741h338q142 0 206 -44.5t64 -143.5q0 -131 -102 -166q64 -16 92.5 -59.5t28.5 -122.5q0 -115 -70.5 -160t-221.5 -45h-335zM218 122h211q70 0 101 22.5t31 73.5q0 52 -30.5 73.5t-102.5 21.5h-210v-191zM218 440h203q68 0 94 23t26 69q0 44 -27 64.5t-93 20.5h-203
v-177z" />
    <glyph glyph-name="Gamma" unicode="&#x393;" horiz-adv-x="639" 
d="M220 612v-612h-142v741h523v-129h-381z" />
    <glyph glyph-name="Delta" unicode="&#x394;" horiz-adv-x="773" 
d="M18 0l297 746h143l298 -746h-738zM202 118h361l-181 459z" />
    <glyph glyph-name="Delta" unicode="&#x2206;" horiz-adv-x="773" 
d="M18 0l297 746h143l298 -746h-738zM202 118h361l-181 459z" />
    <glyph glyph-name="Epsilon" unicode="&#x395;" horiz-adv-x="675" 
d="M78 0v741h540v-132h-398v-165h388v-129h-388v-187h402v-128h-544z" />
    <glyph glyph-name="Zeta" unicode="&#x396;" horiz-adv-x="685" 
d="M36 0v109l421 500h-404v132h583v-119l-416 -495h427v-127h-611z" />
    <glyph glyph-name="Eta" unicode="&#x397;" horiz-adv-x="806" 
d="M78 0v741h142v-291h366v291h142v-741h-142v314h-366v-314h-142z" />
    <glyph glyph-name="Theta" unicode="&#x398;" horiz-adv-x="848" 
d="M278 308v124h290v-124h-290zM424 -12q-387 0 -387 383q0 382 387 382q388 0 388 -382q0 -383 -388 -383zM424 117q129 0 186.5 64t57.5 188q0 123 -57.5 187t-186.5 64t-186.5 -64t-57.5 -187q0 -124 57.5 -188t186.5 -64z" />
    <glyph glyph-name="Iota" unicode="&#x399;" horiz-adv-x="317" 
d="M88 0v741h141v-741h-141z" />
    <glyph glyph-name="Kappa" unicode="&#x39a;" horiz-adv-x="746" 
d="M556 0l-223 341l-115 -134v-207h-140v741h140v-353l303 353h160l-254 -293l290 -448h-161z" />
    <glyph glyph-name="Lambda" unicode="&#x39b;" horiz-adv-x="767" 
d="M457 746l294 -746h-150l-219 568l-217 -568h-148l295 746h145z" />
    <glyph glyph-name="Mu" unicode="&#x39c;" horiz-adv-x="962" 
d="M78 0v741h186l218 -537l218 537h184v-741h-139v517l-212 -517h-112l-211 515v-515h-132z" />
    <glyph glyph-name="Nu" unicode="&#x39d;" horiz-adv-x="812" 
d="M78 0v741h154l365 -501v501h137v-741h-130l-389 531v-531h-137z" />
    <glyph glyph-name="Xi" unicode="&#x39e;" horiz-adv-x="678" 
d="M58 609v132h561v-132h-561zM116 316v129h447v-129h-447zM52 0v128h574v-128h-574z" />
    <glyph glyph-name="Omicron" unicode="&#x39f;" horiz-adv-x="848" 
d="M424 -12q-387 0 -387 383q0 382 387 382q388 0 388 -382q0 -383 -388 -383zM424 117q129 0 186.5 64t57.5 188q0 123 -57.5 187t-186.5 64t-186.5 -64t-57.5 -187q0 -124 57.5 -188t186.5 -64z" />
    <glyph glyph-name="Pi" unicode="&#x3a0;" horiz-adv-x="769" 
d="M78 0v741h613v-741h-142v614h-331v-614h-140z" />
    <glyph glyph-name="Rho" unicode="&#x3a1;" horiz-adv-x="747" 
d="M78 0v741h348q154 0 219 -61t65 -181q0 -124 -66 -191.5t-225 -67.5h-202v-240h-139zM217 365h208q75 0 109 29.5t34 97.5q0 70 -33.5 97t-111.5 27h-206v-251z" />
    <glyph glyph-name="Sigma" unicode="&#x3a3;" horiz-adv-x="660" 
d="M36 0v107l239 264l-228 253v117h558v-132h-372l214 -238l-220 -243h395v-128h-586z" />
    <glyph glyph-name="Tau" unicode="&#x3a4;" horiz-adv-x="702" 
d="M280 0v609h-262v132h667v-132h-262v-609h-143z" />
    <glyph glyph-name="Upsilon" unicode="&#x3a5;" horiz-adv-x="745" 
d="M302 0v266l-296 475h153l216 -346l217 346h147l-296 -474v-267h-141z" />
    <glyph glyph-name="Phi" unicode="&#x3a6;" horiz-adv-x="900" 
d="M380 0v49q-171 12 -263.5 91.5t-92.5 230.5q0 150 92.5 229.5t263.5 92.5v48h142v-48q170 -13 263 -93t93 -229q0 -151 -93 -230t-263 -92v-49h-142zM167 369q0 -171 213 -194v386q-213 -22 -213 -192zM734 369q0 170 -212 192v-386q212 23 212 194z" />
    <glyph glyph-name="Chi" unicode="&#x3a7;" horiz-adv-x="763" 
d="M573 0l-197 283l-188 -283h-158l272 389l-245 352h159l171 -245l163 245h158l-247 -351l273 -390h-161z" />
    <glyph glyph-name="Psi" unicode="&#x3a8;" horiz-adv-x="786" 
d="M322 0v255q-152 11 -207.5 72t-55.5 191v223h136v-226q0 -32 3 -50t14.5 -39t38.5 -32.5t71 -16.5v364h143v-364q44 5 71 17t38.5 33t14.5 39.5t3 50.5v224h135v-222q0 -129 -57 -191t-205 -73v-255h-143z" />
    <glyph glyph-name="Omega" unicode="&#x3a9;" horiz-adv-x="877" 
d="M439 753q191 0 289.5 -92.5t98.5 -239.5q0 -114 -54.5 -184.5t-159.5 -91.5v-25h223v-120h-326v198q92 18 132.5 68t40.5 133q0 106 -62.5 165t-181.5 59q-120 0 -182.5 -59t-62.5 -165q0 -83 40.5 -133t132.5 -68v-198h-326v120h223v25q-104 21 -158.5 92t-54.5 184
q0 147 98.5 239.5t289.5 92.5z" />
    <glyph glyph-name="Omega" unicode="&#x2126;" horiz-adv-x="877" 
d="M439 753q191 0 289.5 -92.5t98.5 -239.5q0 -114 -54.5 -184.5t-159.5 -91.5v-25h223v-120h-326v198q92 18 132.5 68t40.5 133q0 106 -62.5 165t-181.5 59q-120 0 -182.5 -59t-62.5 -165q0 -83 40.5 -133t132.5 -68v-198h-326v120h223v25q-104 21 -158.5 92t-54.5 184
q0 147 98.5 239.5t289.5 92.5z" />
    <glyph glyph-name="Iotadieresis" unicode="&#x3aa;" horiz-adv-x="317" 
d="M-14 791v129h124v-129h-124zM209 791v129h123v-129h-123zM88 0v741h141v-741h-141z" />
    <glyph glyph-name="Upsilondieresis" unicode="&#x3ab;" horiz-adv-x="745" 
d="M198 791v129h124v-129h-124zM421 791v129h123v-129h-123zM302 0v266l-296 475h153l216 -346l217 346h147l-296 -474v-267h-141z" />
    <glyph glyph-name="alphatonos" unicode="&#x3ac;" horiz-adv-x="690" 
d="M261 618l76 176h127l-99 -176h-104zM602 559v-387q0 -37 8 -46.5t43 -9.5v-114q-12 -4 -57 -4q-46 0 -72.5 12t-40.5 44q-27 -33 -73 -48t-128 -15q-69 0 -118 22t-75.5 63.5t-38 92t-11.5 116.5q0 65 11.5 115t39 91t77 62.5t120.5 21.5q150 0 195 -60l27 52zM314 110
q83 0 117 41t34 134q0 91 -32 128t-119 37q-79 0 -108 -41.5t-29 -123.5q0 -85 29.5 -130t107.5 -45z" />
    <glyph glyph-name="epsilontonos" unicode="&#x3ad;" horiz-adv-x="512" 
d="M213 618l76 176h127l-99 -176h-104zM264 -13q-122 0 -174.5 43t-52.5 132q0 59 22 91.5t69 43.5q-75 26 -75 124q0 156 206 156q145 0 236 -68l-70 -90q-59 37 -147 37q-90 0 -90 -53q0 -29 19.5 -42t78.5 -13h83v-107h-79q-73 0 -96.5 -16t-23.5 -49q0 -37 24.5 -54
t82.5 -17q86 0 156 47l74 -89q-94 -76 -243 -76z" />
    <glyph glyph-name="etatonos" unicode="&#x3ae;" horiz-adv-x="653" 
d="M277 618l76 176h127l-99 -176h-104zM66 0v555l106 8l12 -49q53 62 205 62q63 0 104 -16t62 -49.5t28.5 -72.5t7.5 -96v-507h-136v480q0 33 -3 52.5t-14 39t-35 28.5t-62 9q-82 0 -110 -34.5t-28 -103.5v-306h-137z" />
    <glyph glyph-name="iotatonos" unicode="&#x3af;" horiz-adv-x="279" 
d="M86 618l76 176h127l-99 -176h-104zM72 0v563h135v-563h-135z" />
    <glyph glyph-name="upsilondieresistonos" unicode="&#x3b0;" horiz-adv-x="646" 
d="M108 618v127h98v-127h-98zM440 618v127h97v-127h-97zM240 618l69 176h120l-92 -176h-97zM324 -10q-80 0 -131.5 15t-80 49.5t-39 81.5t-10.5 120v307h136v-310q0 -31 1 -47t7.5 -37t19.5 -31.5t37.5 -18t60.5 -7.5t60 7.5t36.5 18t19 32.5t7.5 37.5t1 47.5v308h134v-305
q0 -74 -10 -120.5t-38 -82t-79.5 -50.5t-131.5 -15z" />
    <glyph glyph-name="alpha" unicode="&#x3b1;" horiz-adv-x="690" 
d="M602 559v-387q0 -37 8 -46.5t43 -9.5v-114q-12 -4 -57 -4q-46 0 -72.5 12t-40.5 44q-27 -33 -73 -48t-128 -15q-69 0 -118 22t-75.5 63.5t-38 92t-11.5 116.5q0 65 11.5 115t39 91t77 62.5t120.5 21.5q150 0 195 -60l27 52zM314 110q83 0 117 41t34 134q0 91 -32 128
t-119 37q-79 0 -108 -41.5t-29 -123.5q0 -85 29.5 -130t107.5 -45z" />
    <glyph glyph-name="beta" unicode="&#x3b2;" horiz-adv-x="683" 
d="M66 -165v689q0 55 11.5 98t40.5 81t85 59t137 21q252 0 252 -200q0 -76 -21.5 -116t-70.5 -60q76 -14 113 -57t37 -132q0 -59 -12 -97t-45 -67t-93.5 -41.5t-154.5 -12.5h-61v119h57q106 0 140 26.5t34 82.5q0 59 -41 81t-160 22v110q80 0 111.5 24.5t31.5 81.5
q0 51 -27.5 76t-92.5 25q-71 0 -103.5 -32t-32.5 -97v-684h-135z" />
    <glyph glyph-name="gamma" unicode="&#x3b3;" horiz-adv-x="596" 
d="M225 -6l-223 569h146l153 -405l153 405h140l-224 -569h-1v-160h-143v160h-1z" />
    <glyph glyph-name="delta" unicode="&#x3b4;" horiz-adv-x="654" 
d="M327 -11q-149 0 -218.5 71t-69.5 197q0 119 62.5 189t196.5 77l-192 160v93h442v-116h-245l222 -188q90 -66 90 -215q0 -126 -69.5 -197t-218.5 -71zM327 109q151 0 151 144q0 151 -151 151t-151 -151q0 -144 151 -144z" />
    <glyph glyph-name="epsilon" unicode="&#x3b5;" horiz-adv-x="522" 
d="M264 -13q-122 0 -174.5 43t-52.5 132q0 59 22 91.5t69 43.5q-75 26 -75 124q0 156 206 156q145 0 236 -68l-70 -90q-59 37 -147 37q-90 0 -90 -53q0 -29 19.5 -42t78.5 -13h83v-107h-79q-73 0 -96.5 -16t-23.5 -49q0 -37 24.5 -54t82.5 -17q86 0 156 47l74 -89
q-94 -76 -243 -76z" />
    <glyph glyph-name="zeta" unicode="&#x3b6;" horiz-adv-x="531" 
d="M326 -158q-71 0 -129 33l34 65q47 -25 90 -25q67 0 67 42q0 20 -18 29t-63 12q-268 9 -268 240q0 76 31.5 143t88 129t158.5 150h-277v116h459v-95q-186 -149 -254.5 -244.5t-68.5 -184.5q0 -60 32 -97t111 -46q90 -9 126 -39.5t36 -92.5q0 -68 -37 -101.5t-118 -33.5z
" />
    <glyph glyph-name="eta" unicode="&#x3b7;" horiz-adv-x="653" 
d="M66 0v555l106 8l12 -49q53 62 205 62q63 0 104 -16t62 -49.5t28.5 -72.5t7.5 -96v-507h-136v480q0 33 -3 52.5t-14 39t-35 28.5t-62 9q-82 0 -110 -34.5t-28 -103.5v-306h-137z" />
    <glyph glyph-name="theta" unicode="&#x3b8;" horiz-adv-x="762" 
d="M382 -11q-87 0 -149 27.5t-98 81t-52 124.5t-16 165q0 193 72.5 295t242.5 102q167 0 240 -102t73 -295t-73 -295.5t-240 -102.5zM382 660q-90 0 -128.5 -56.5t-44.5 -165.5h344q-6 109 -44 165.5t-127 56.5zM382 108q87 0 125 57t45 164h-343q7 -107 46 -164t127 -57z
" />
    <glyph glyph-name="iota" unicode="&#x3b9;" horiz-adv-x="279" 
d="M72 0v563h135v-563h-135z" />
    <glyph glyph-name="kappa" unicode="&#x3ba;" horiz-adv-x="589" 
d="M66 0v563h135v-251l210 251h150l-192 -231l210 -332h-151l-150 231l-77 -89v-142h-135z" />
    <glyph glyph-name="lambda" unicode="&#x3bb;" horiz-adv-x="594" 
d="M133 777q92 0 140 -31t77 -106l241 -640h-147l-148 414l-155 -414h-138l227 575l-20 51q-11 27 -28.5 36.5t-60.5 9.5h-42v103q30 2 54 2z" />
    <glyph glyph-name="uni03BC" unicode="&#x3bc;" horiz-adv-x="655" 
d="M270 -11q-45 0 -78 9v-163h-126v728h136v-317q0 -69 21.5 -101.5t91.5 -32.5q82 0 109 35t27 106v310h138v-557l-105 -11l-13 58q-54 -64 -201 -64z" />
    <glyph glyph-name="nu" unicode="&#x3bd;" horiz-adv-x="596" 
d="M225 -6l-223 569h146l153 -405l153 405h140l-224 -569h-145z" />
    <glyph glyph-name="xi" unicode="&#x3be;" horiz-adv-x="531" 
d="M326 -158q-71 0 -129 33l34 65q47 -25 90 -25q67 0 67 42q0 20 -18 29t-63 12q-148 4 -208 58.5t-60 154.5q0 168 169 196q-114 22 -114 133q0 43 20.5 75.5t54.5 44.5h-129v116h459v-116h-128q-76 0 -111 -25t-35 -78t33.5 -78t130.5 -28v-95q-33 0 -39 -1
q-102 -2 -139 -31.5t-37 -86.5q0 -61 32.5 -90.5t112.5 -37.5q91 -8 126.5 -38.5t35.5 -93.5q0 -68 -37 -101.5t-118 -33.5z" />
    <glyph glyph-name="omicron" unicode="&#x3bf;" horiz-adv-x="654" 
d="M327 -11q-151 0 -219.5 73.5t-68.5 220.5t68 220t220 73t220 -73t68 -220t-68 -220.5t-220 -73.5zM327 109q83 0 117 43t34 127t-34 127t-117 43t-117 -43t-34 -127t34 -127t117 -43z" />
    <glyph glyph-name="pi" unicode="&#x3c0;" horiz-adv-x="658" 
d="M66 0v563h526v-563h-136v446h-255v-446h-135z" />
    <glyph glyph-name="rho" unicode="&#x3c1;" horiz-adv-x="673" 
d="M360 110q77 0 106.5 42.5t29.5 125.5q0 84 -29 127.5t-107 43.5q-86 0 -121.5 -39.5t-35.5 -131.5t34 -130t123 -38zM354 576q87 0 144.5 -21.5t86 -64t39 -91t10.5 -116.5q0 -66 -11.5 -116t-38.5 -91t-76.5 -63t-121.5 -22q-142 0 -183 57v-213h-137v448q0 146 68 219
t220 74z" />
    <glyph glyph-name="sigma1" unicode="&#x3c2;" horiz-adv-x="581" 
d="M341 -158q-72 0 -130 33l35 65q45 -25 89 -25q38 0 52.5 10.5t14.5 31.5q0 22 -17.5 29.5t-62.5 7.5q-83 0 -139.5 20.5t-87.5 60.5t-43.5 89.5t-12.5 117.5t12.5 118t43.5 91.5t89 63t144 21.5q143 0 222 -89l-97 -92q-51 53 -125 53q-85 0 -118.5 -41.5t-33.5 -127.5
t32.5 -126.5t122.5 -46.5q88 -8 126.5 -35t38.5 -95q0 -67 -36.5 -100.5t-118.5 -33.5z" />
    <glyph glyph-name="sigma" unicode="&#x3c3;" horiz-adv-x="681" 
d="M327 -11q-151 0 -219.5 73.5t-68.5 220.5t68 220t220 73q91 0 153 -27h196v-118h-85q24 -61 24 -148q0 -147 -68 -220.5t-220 -73.5zM327 109q83 0 117 43t34 127t-34 127t-117 43t-117 -43t-34 -127t34 -127t117 -43z" />
    <glyph glyph-name="tau" unicode="&#x3c4;" horiz-adv-x="573" 
d="M10 445v118h553v-118h-208v-445h-137v445h-208z" />
    <glyph glyph-name="upsilon" unicode="&#x3c5;" horiz-adv-x="646" 
d="M324 -10q-80 0 -131.5 15t-80 49.5t-39 81.5t-10.5 120v307h136v-310q0 -31 1 -47t7.5 -37t19.5 -31.5t37.5 -18t60.5 -7.5t60 7.5t36.5 18t19 32.5t7.5 37.5t1 47.5v308h134v-305q0 -74 -10 -120.5t-38 -82t-79.5 -50.5t-131.5 -15z" />
    <glyph glyph-name="phi" unicode="&#x3c6;" horiz-adv-x="778" 
d="M39 282q0 200 131 257l50 -121q-44 -37 -44 -139q0 -81 30.5 -122.5t108.5 -46.5v466h125h16h2q149 -4 214.5 -77t65.5 -217t-65.5 -216.5t-214.5 -76.5v-154h-143v155q-147 5 -211.5 77.5t-64.5 214.5zM602 279q0 82 -32 123t-112 45v-338q80 4 112 45.5t32 124.5z" />
    <glyph glyph-name="chi" unicode="&#x3c7;" horiz-adv-x="585" 
d="M423 0l-137 195l-131 -195h-146l207 295l-188 268h152l119 -170l114 170h145l-188 -270l206 -293h-153z" />
    <glyph glyph-name="psi" unicode="&#x3c8;" horiz-adv-x="785" 
d="M323 -165v154q-81 1 -132 17t-79.5 51t-38.5 80.5t-10 116.5v309h136v-311q0 -36 2.5 -54.5t13.5 -41t37.5 -32.5t70.5 -12v451h142v-451q26 1 45.5 5.5t32.5 10.5t21.5 17.5t13.5 20.5t7 26.5t2.5 28.5t0.5 33v309h134v-307q0 -71 -10 -117t-38 -81t-79 -51.5
t-130 -17.5v-154h-142z" />
    <glyph glyph-name="omega" unicode="&#x3c9;" horiz-adv-x="898" 
d="M516 492v-248q1 -75 26.5 -105t73.5 -30q52 0 75.5 32t23.5 108q0 114 -83 254l111 68q58 -95 82.5 -174.5t24.5 -165.5q0 -124 -59.5 -183t-157.5 -59q-80 0 -124 34t-61 107q-17 -73 -60 -107t-123 -34q-99 0 -158 59t-59 183q0 86 24.5 165.5t82.5 174.5l110 -68
q-82 -139 -82 -254q0 -75 23.5 -107.5t75.5 -32.5q48 0 74 30.5t26 104.5v248h134z" />
    <glyph glyph-name="iotadieresis" unicode="&#x3ca;" horiz-adv-x="279" 
d="M-14 625v129h111v-129h-111zM183 625v129h110v-129h-110zM72 0v563h135v-563h-135z" />
    <glyph glyph-name="upsilondieresis" unicode="&#x3cb;" horiz-adv-x="646" 
d="M149 622v129h124v-129h-124zM372 622v129h123v-129h-123zM324 -10q-80 0 -131.5 15t-80 49.5t-39 81.5t-10.5 120v307h136v-310q0 -31 1 -47t7.5 -37t19.5 -31.5t37.5 -18t60.5 -7.5t60 7.5t36.5 18t19 32.5t7.5 37.5t1 47.5v308h134v-305q0 -74 -10 -120.5t-38 -82
t-79.5 -50.5t-131.5 -15z" />
    <glyph glyph-name="omicrontonos" unicode="&#x3cc;" horiz-adv-x="654" 
d="M268 618l76 176h127l-99 -176h-104zM327 -11q-151 0 -219.5 73.5t-68.5 220.5t68 220t220 73t220 -73t68 -220t-68 -220.5t-220 -73.5zM327 109q83 0 117 43t34 127t-34 127t-117 43t-117 -43t-34 -127t34 -127t117 -43z" />
    <glyph glyph-name="upsilontonos" unicode="&#x3cd;" horiz-adv-x="646" 
d="M268 618l76 176h127l-99 -176h-104zM324 -10q-80 0 -131.5 15t-80 49.5t-39 81.5t-10.5 120v307h136v-310q0 -31 1 -47t7.5 -37t19.5 -31.5t37.5 -18t60.5 -7.5t60 7.5t36.5 18t19 32.5t7.5 37.5t1 47.5v308h134v-305q0 -74 -10 -120.5t-38 -82t-79.5 -50.5t-131.5 -15z
" />
    <glyph glyph-name="omegatonos" unicode="&#x3ce;" horiz-adv-x="909" 
d="M409 618l76 176h127l-99 -176h-104zM526 492v-248q1 -75 26.5 -105t73.5 -30q52 0 75.5 32t23.5 108q0 114 -83 254l111 68q58 -95 82.5 -174.5t24.5 -165.5q0 -124 -59.5 -183t-157.5 -59q-80 0 -124 34t-61 107q-17 -73 -60 -107t-123 -34q-99 0 -158 59t-59 183
q0 86 24.5 165.5t82.5 174.5l110 -68q-82 -139 -82 -254q0 -75 23.5 -107.5t75.5 -32.5q48 0 74 30.5t26 104.5v248h134z" />
    <glyph glyph-name="afii10023" unicode="&#x401;" horiz-adv-x="675" 
d="M163 786v129h124v-129h-124zM386 786v129h123v-129h-123zM78 0v741h540v-132h-398v-165h388v-129h-388v-187h402v-128h-544z" />
    <glyph glyph-name="afii10051" unicode="&#x402;" horiz-adv-x="881" 
d="M599 -169v107h12q37 0 47 14.5t10 61.5v235q0 27 -1.5 43t-7 34.5t-17 28t-32.5 16.5t-52 7q-81 0 -108 -33.5t-27 -101.5v-243h-143v609h-262v132h667v-132h-262v-153q44 54 182 54q121 0 163.5 -58.5t42.5 -175.5v-261q0 -108 -39 -146t-147 -38h-26z" />
    <glyph glyph-name="afii10052" unicode="&#x403;" horiz-adv-x="611" 
d="M208 782l143 177h165l-186 -177h-122zM78 0v741h515v-132h-373v-609h-142z" />
    <glyph glyph-name="afii10053" unicode="&#x404;" horiz-adv-x="748" 
d="M412 -11q-195 0 -285 96.5t-90 285.5q0 193 98 287.5t277 94.5q190 0 292 -104l-98 -100q-74 71 -186 71q-206 0 -238 -179h387v-127h-390q25 -195 233 -195q74 0 119 19.5t85 56.5l93 -95q-51 -51 -119 -81t-178 -30z" />
    <glyph glyph-name="afii10054" unicode="&#x405;" horiz-adv-x="732" 
d="M368 -11q-208 0 -341 95l72 105q117 -78 265 -78q107 0 145.5 23.5t38.5 78.5q0 49 -41.5 67.5t-145.5 34.5q-63 9 -103.5 18.5t-80 25.5t-61 38t-34.5 56.5t-13 81.5q0 118 72 168t226 50q182 0 290 -71l-77 -113q-37 25 -96 41t-118 16q-88 0 -122 -20t-34 -68
q0 -46 41 -64.5t146 -33.5q51 -8 83 -14.5t69.5 -17.5t59.5 -26t42 -37t29 -53.5t9 -71.5q0 -116 -74.5 -173.5t-246.5 -57.5z" />
    <glyph glyph-name="afii10055" unicode="&#x406;" horiz-adv-x="317" 
d="M88 0v741h141v-741h-141z" />
    <glyph glyph-name="afii10056" unicode="&#x407;" horiz-adv-x="317" 
d="M88 0v741h141v-741h-141zM-14 786v129h124v-129h-124zM209 786v129h123v-129h-123z" />
    <glyph glyph-name="afii10057" unicode="&#x408;" horiz-adv-x="441" 
d="M125 -2q-68 0 -101 2v127h84q66 0 92.5 24.5t26.5 82.5v507h141v-512q0 -128 -62 -179.5t-181 -51.5z" />
    <glyph glyph-name="afii10058" unicode="&#x409;" horiz-adv-x="1294" 
d="M42 2v125h20q36 0 46.5 12t10.5 49v553h645v-248h208q155 0 220 -60t65 -180q0 -123 -66 -188t-225 -65h-341v611h-363v-448q0 -91 -37 -128t-114 -37q-51 0 -69 4zM764 122h208q75 0 109 28t34 96q0 69 -33.5 96t-111.5 27h-206v-247z" />
    <glyph glyph-name="afii10059" unicode="&#x40a;" horiz-adv-x="1254" 
d="M78 0v741h142v-291h366v291h138v-248h209q154 0 219.5 -60t65.5 -180q0 -122 -66 -187.5t-225 -65.5h-341v314h-366v-314h-142zM724 122h209q74 0 108 28t34 96q0 70 -33 96.5t-112 26.5h-206v-247z" />
    <glyph glyph-name="afii10060" unicode="&#x40b;" horiz-adv-x="881" 
d="M280 0v609h-262v132h667v-132h-262v-153q44 54 182 54q121 0 163.5 -58.5t42.5 -175.5v-276h-143v249q0 27 -1.5 43t-7 34.5t-17 28t-32.5 16.5t-52 7q-81 0 -108 -33.5t-27 -101.5v-243h-143z" />
    <glyph glyph-name="afii10061" unicode="&#x40c;" horiz-adv-x="749" 
d="M276 782l143 177h165l-186 -177h-122zM556 0l-247 335h-90v-335h-140v741h140v-282h83l222 282h163l-269 -331l305 -410h-167z" />
    <glyph glyph-name="afii10062" unicode="&#x40e;" horiz-adv-x="713" 
d="M219 -2q-48 0 -80 2v123h56q45 0 60.5 8t28.5 37l10 23l-279 550h153l207 -416l189 416h144l-288 -605q-39 -81 -77.5 -109.5t-123.5 -28.5zM355 768q-100 0 -144.5 46.5t-63.5 139.5l99 19q12 -52 34.5 -74.5t74.5 -22.5q53 0 75.5 22.5t33.5 74.5l100 -18
q-19 -93 -64 -140t-145 -47z" />
    <glyph glyph-name="afii10145" unicode="&#x40f;" horiz-adv-x="802" 
d="M330 -166v166h-252v741h142v-617h363v617h141v-741h-251v-166h-143z" />
    <glyph glyph-name="afii10017" unicode="&#x410;" horiz-adv-x="773" 
d="M17 0l297 746h145l298 -746h-147l-52 132h-349l-52 -132h-140zM256 256h255l-128 321z" />
    <glyph glyph-name="afii10018" unicode="&#x411;" horiz-adv-x="749" 
d="M78 0v741h541v-132h-406v-137h213q156 0 220 -55t64 -173q0 -122 -65.5 -183t-225.5 -61h-341zM213 121h212q77 0 110 24t33 91q0 68 -32 90.5t-113 22.5h-210v-228z" />
    <glyph glyph-name="afii10019" unicode="&#x412;" horiz-adv-x="742" 
d="M78 0v741h338q142 0 206 -44.5t64 -143.5q0 -131 -102 -166q64 -16 92.5 -59.5t28.5 -122.5q0 -115 -70.5 -160t-221.5 -45h-335zM218 122h211q70 0 101 22.5t31 73.5q0 52 -30.5 73.5t-102.5 21.5h-210v-191zM218 440h203q68 0 94 23t26 69q0 44 -27 64.5t-93 20.5h-203
v-177z" />
    <glyph glyph-name="afii10020" unicode="&#x413;" horiz-adv-x="611" 
d="M78 0v741h515v-132h-373v-609h-142z" />
    <glyph glyph-name="afii10021" unicode="&#x414;" horiz-adv-x="890" 
d="M44 -166v293h23q36 0 47 12.5t11 48.5v553h645v-614h77v-293h-144v166h-517v-166h-142zM248 123h379v488h-362v-428q0 -47 -17 -60z" />
    <glyph glyph-name="afii10022" unicode="&#x415;" horiz-adv-x="675" 
d="M78 0v741h540v-132h-398v-165h388v-129h-388v-187h402v-128h-544z" />
    <glyph glyph-name="afii10024" unicode="&#x416;" horiz-adv-x="1205" 
d="M1009 0l-247 334h-91v-334h-137v334h-92l-246 -334h-167l304 410l-268 331h163l222 -282h84v282h137v-282h84l222 282h163l-268 -332l304 -409h-167z" />
    <glyph glyph-name="afii10025" unicode="&#x417;" horiz-adv-x="701" 
d="M346 -12q-202 0 -329 78l68 115q118 -66 255 -66q103 0 142 20t39 88q0 58 -39.5 80.5t-154.5 22.5h-173v125h171q95 0 135 19.5t40 72.5q0 49 -37 65.5t-126 16.5q-57 0 -123.5 -14.5t-104.5 -37.5l-74 112q53 32 140.5 50t173.5 18q142 0 218 -40.5t76 -136.5
q0 -76 -20 -112.5t-71 -57.5q63 -23 87 -63t24 -129q0 -65 -24 -110.5t-68.5 -70t-99 -35t-125.5 -10.5z" />
    <glyph glyph-name="afii10026" unicode="&#x418;" horiz-adv-x="812" 
d="M78 0v741h136v-497l367 497h153v-741h-135v528l-390 -528h-131z" />
    <glyph glyph-name="afii10027" unicode="&#x419;" horiz-adv-x="812" 
d="M78 0v741h136v-497l367 497h153v-741h-135v528l-390 -528h-131zM404 768q-100 0 -144.5 46.5t-63.5 139.5l99 19q12 -52 34.5 -74.5t74.5 -22.5q53 0 75.5 22.5t33.5 74.5l100 -18q-19 -93 -64 -140t-145 -47z" />
    <glyph glyph-name="afii10028" unicode="&#x41a;" horiz-adv-x="752" 
d="M556 0l-247 335h-90v-335h-140v741h140v-282h83l222 282h163l-269 -331l305 -410h-167z" />
    <glyph glyph-name="afii10029" unicode="&#x41b;" horiz-adv-x="848" 
d="M44 2v125h21q35 0 46 12.5t11 48.5v553h648v-741h-143v611h-363v-448q0 -91 -37 -128t-114 -37q-49 0 -69 4z" />
    <glyph glyph-name="afii10030" unicode="&#x41c;" horiz-adv-x="962" 
d="M78 0v741h186l218 -537l218 537h184v-741h-139v517l-212 -517h-112l-211 515v-515h-132z" />
    <glyph glyph-name="afii10031" unicode="&#x41d;" horiz-adv-x="806" 
d="M78 0v741h142v-291h366v291h142v-741h-142v314h-366v-314h-142z" />
    <glyph glyph-name="afii10032" unicode="&#x41e;" horiz-adv-x="848" 
d="M424 -12q-387 0 -387 383q0 382 387 382q388 0 388 -382q0 -383 -388 -383zM424 117q129 0 186.5 64t57.5 188q0 123 -57.5 187t-186.5 64t-186.5 -64t-57.5 -187q0 -124 57.5 -188t186.5 -64z" />
    <glyph glyph-name="afii10033" unicode="&#x41f;" horiz-adv-x="802" 
d="M78 0v741h646v-741h-142v611h-364v-611h-140z" />
    <glyph glyph-name="afii10034" unicode="&#x420;" horiz-adv-x="747" 
d="M78 0v741h348q154 0 219 -61t65 -181q0 -124 -66 -191.5t-225 -67.5h-202v-240h-139zM217 365h208q75 0 109 29.5t34 97.5q0 70 -33.5 97t-111.5 27h-206v-251z" />
    <glyph glyph-name="afii10035" unicode="&#x421;" 
d="M414 -11q-197 0 -287 96t-90 286q0 382 385 382q179 0 283 -104l-100 -100q-74 71 -184 71q-123 0 -182 -62.5t-59 -187.5t56.5 -188t185.5 -63q68 0 109.5 19t81.5 56l97 -94q-51 -52 -118 -81.5t-178 -29.5z" />
    <glyph glyph-name="afii10036" unicode="&#x422;" horiz-adv-x="702" 
d="M280 0v609h-262v132h667v-132h-262v-609h-143z" />
    <glyph glyph-name="afii10037" unicode="&#x423;" horiz-adv-x="713" 
d="M219 -2q-48 0 -80 2v123h56q45 0 60.5 8t28.5 37l10 23l-279 550h153l207 -416l189 416h144l-288 -605q-39 -81 -77.5 -109.5t-123.5 -28.5z" />
    <glyph glyph-name="afii10038" unicode="&#x424;" horiz-adv-x="927" 
d="M393 0v49q-171 12 -263.5 91.5t-92.5 230.5q0 150 92.5 229.5t263.5 92.5v48h142v-48q170 -13 263 -93t93 -229q0 -151 -93 -230t-263 -92v-49h-142zM180 369q0 -171 213 -194v386q-213 -22 -213 -192zM747 369q0 170 -212 192v-386q212 23 212 194z" />
    <glyph glyph-name="afii10039" unicode="&#x425;" horiz-adv-x="763" 
d="M573 0l-197 283l-188 -283h-158l272 389l-245 352h159l171 -245l163 245h158l-247 -351l273 -390h-161z" />
    <glyph glyph-name="afii10040" unicode="&#x426;" horiz-adv-x="847" 
d="M660 -166v166h-582v741h142v-617h363v617h141v-614h79v-293h-143z" />
    <glyph glyph-name="afii10041" unicode="&#x427;" horiz-adv-x="770" 
d="M550 0v268q-20 -26 -79 -44t-157 -18q-76 0 -128 17t-79 51t-38 75t-11 98v294h141v-264q0 -72 32.5 -105t129.5 -33q110 0 149.5 38t39.5 108v256h142v-741h-142z" />
    <glyph glyph-name="afii10042" unicode="&#x428;" horiz-adv-x="1201" 
d="M78 0v749h142v-625h309v625h144v-625h309v625h141v-749h-1045z" />
    <glyph glyph-name="afii10043" unicode="&#x429;" horiz-adv-x="1244" 
d="M1058 -166v166h-980v749h142v-625h309v625h144v-625h309v625h141v-622h78v-293h-143z" />
    <glyph glyph-name="afii10044" unicode="&#x42a;" horiz-adv-x="786" 
d="M117 0v609h-78v132h217v-248h209q154 0 219 -60t65 -180q0 -123 -66 -188t-225 -65h-341zM256 122h208q75 0 109 28t34 96q0 70 -33 96.5t-112 26.5h-206v-247z" />
    <glyph glyph-name="afii10045" unicode="&#x42b;" horiz-adv-x="993" 
d="M78 0v741h139v-248h209q154 0 219 -60t65 -180q0 -123 -66 -188t-225 -65h-341zM217 122h208q75 0 109 28t34 96q0 70 -33 96.5t-112 26.5h-206v-247zM774 0v741h142v-741h-142z" />
    <glyph glyph-name="afii10046" unicode="&#x42c;" horiz-adv-x="747" 
d="M78 0v741h139v-248h209q154 0 219 -60t65 -180q0 -123 -66 -188t-225 -65h-341zM217 122h208q75 0 109 28t34 96q0 70 -33 96.5t-112 26.5h-206v-247z" />
    <glyph glyph-name="afii10047" unicode="&#x42d;" horiz-adv-x="748" 
d="M336 -11q-109 0 -177 29.5t-119 81.5l94 95q39 -37 84 -56.5t118 -19.5q209 0 232 195h-389v127h387q-32 179 -237 179q-112 0 -186 -71l-98 100q104 104 291 104q180 0 278 -94.5t98 -287.5q0 -189 -90 -285.5t-286 -96.5z" />
    <glyph glyph-name="afii10048" unicode="&#x42e;" horiz-adv-x="1150" 
d="M78 0v741h142v-296h129q34 308 376 308q389 0 389 -382q0 -383 -389 -383q-353 0 -378 327h-127v-315h-142zM725 117q130 0 187 64t57 188q0 123 -57.5 187t-186.5 64q-128 0 -185.5 -64t-57.5 -187q0 -124 57.5 -188t185.5 -64z" />
    <glyph glyph-name="afii10049" unicode="&#x42f;" horiz-adv-x="759" 
d="M63 0l153 272q-163 46 -163 233q0 116 62.5 176t217.5 60h348v-741h-140v258h-181l-144 -258h-153zM336 384h205v232h-203q-76 0 -109 -25t-33 -92q0 -65 33.5 -90t106.5 -25z" />
    <glyph glyph-name="afii10065" unicode="&#x430;" horiz-adv-x="639" 
d="M238 -10q-118 0 -163 46t-45 128q0 117 81 159t283 42h26q-1 33 -9 50t-35 27.5t-78 10.5q-85 0 -163 -47l-69 103q36 25 103.5 46t143.5 21q75 0 121.5 -12t72.5 -41t35 -68.5t9 -102.5v-180q0 -37 8 -46.5t43 -9.5v-114q-12 -4 -57 -4t-67.5 12t-35.5 46
q-50 -66 -204 -66zM264 104q82 0 119 32t37 102v25h-17q-106 0 -157.5 -8.5t-68.5 -26t-17 -53.5q0 -37 23 -54t81 -17z" />
    <glyph glyph-name="afii10066" unicode="&#x431;" horiz-adv-x="655" 
d="M328 -11q-148 0 -218.5 74t-70.5 239v96q0 111 19.5 185t62 116.5t100.5 59.5t144 17h96v-124h-89q-100 0 -148 -39t-48 -132q44 68 192 68q75 0 125.5 -21.5t76.5 -62.5t36 -88.5t10 -111.5q0 -276 -288 -276zM328 109q80 0 115 40.5t35 119.5t-34.5 117.5t-115.5 38.5
t-116.5 -38.5t-35.5 -117.5t35.5 -119.5t116.5 -40.5z" />
    <glyph glyph-name="afii10067" unicode="&#x432;" horiz-adv-x="641" 
d="M66 0v563h286q120 0 173.5 -30.5t53.5 -106.5q0 -108 -73 -132q49 -12 68.5 -44t19.5 -95q0 -90 -57.5 -122.5t-187.5 -32.5h-283zM195 110h168q54 0 76 13t22 50q0 34 -23 47t-77 13h-166v-123zM195 339h160q52 0 72 14t20 44q0 31 -20 42t-72 11h-160v-111z" />
    <glyph glyph-name="afii10068" unicode="&#x433;" horiz-adv-x="533" 
d="M66 0v563h444v-120h-307v-443h-137z" />
    <glyph glyph-name="afii10069" unicode="&#x434;" horiz-adv-x="765" 
d="M42 -166v283h20q36 0 46.5 12.5t10.5 49.5v384h527v-446h77v-283h-127v166h-426v-166h-128zM239 110h273v336h-256v-276q0 -44 -17 -60z" />
    <glyph glyph-name="afii10070" unicode="&#x435;" horiz-adv-x="613" 
d="M326 -11q-86 0 -145 22.5t-88.5 65t-41.5 91.5t-12 115q0 51 7 91.5t26 79.5t50.5 65t83 41.5t119.5 15.5q51 0 90 -9.5t65 -27.5t44.5 -42.5t27.5 -54.5t14.5 -65t5 -72.5t-0.5 -76.5h-400q7 -63 41 -94t114 -31q105 0 177 53l71 -92q-53 -40 -110 -57.5t-138 -17.5z
M321 459q-76 0 -109.5 -31t-40.5 -93h273q-2 32 -6 50.5t-16 37.5t-37 27.5t-64 8.5z" />
    <glyph glyph-name="afii10072" unicode="&#x436;" horiz-adv-x="927" 
d="M531 563v-203h59l152 203h157l-202 -257l220 -306h-159l-167 240h-60v-240h-135v240h-61l-166 -240h-159l220 306l-202 257h157l152 -203h59v203h135z" />
    <glyph glyph-name="afii10073" unicode="&#x437;" horiz-adv-x="596" 
d="M286 -12q-171 0 -271 60l59 103q88 -48 195 -48q86 0 114 12t28 59q0 41 -28 53.5t-124 12.5h-126v112h124q86 0 111.5 9.5t25.5 47.5q0 33 -26 42t-102 9q-45 0 -94 -10.5t-78 -26.5l-66 100q42 24 116.5 38.5t144.5 14.5q126 0 185.5 -30.5t59.5 -105.5
q0 -59 -16.5 -88t-56.5 -43q50 -12 69 -44.5t19 -102.5q0 -99 -65.5 -136.5t-197.5 -37.5z" />
    <glyph glyph-name="afii10074" unicode="&#x438;" horiz-adv-x="662" 
d="M66 0v563h133v-342l251 342h147v-563h-134v374l-273 -374h-124z" />
    <glyph glyph-name="afii10075" unicode="&#x439;" horiz-adv-x="662" 
d="M66 0v563h133v-342l251 342h147v-563h-134v374l-273 -374h-124zM330 604q-100 0 -144.5 46.5t-63.5 139.5l99 19q12 -52 34.5 -74.5t74.5 -22.5q53 0 75.5 22.5t33.5 74.5l100 -18q-19 -93 -64 -140t-145 -47z" />
    <glyph glyph-name="afii10076" unicode="&#x43a;" horiz-adv-x="597" 
d="M201 563v-203h59l152 203h157l-202 -257l220 -306h-159l-167 240h-60v-240h-135v563h135z" />
    <glyph glyph-name="afii10077" unicode="&#x43b;" horiz-adv-x="713" 
d="M42 2v115h20q37 0 48.5 13t11.5 49v384h526v-563h-136v446h-256v-283q0 -91 -34.5 -128t-110.5 -37q-51 0 -69 4z" />
    <glyph glyph-name="afii10078" unicode="&#x43c;" horiz-adv-x="800" 
d="M66 0v563h172l166 -387l166 387h171v-563h-136v359l-150 -359h-112l-149 360v-360h-128z" />
    <glyph glyph-name="afii10079" unicode="&#x43d;" horiz-adv-x="660" 
d="M66 0v563h137v-209h254v209h137v-563h-137v229h-254v-229h-137z" />
    <glyph glyph-name="afii10080" unicode="&#x43e;" horiz-adv-x="654" 
d="M327 -11q-151 0 -219.5 73.5t-68.5 220.5t68 220t220 73t220 -73t68 -220t-68 -220.5t-220 -73.5zM327 109q83 0 117 43t34 127t-34 127t-117 43t-117 -43t-34 -127t34 -127t117 -43z" />
    <glyph glyph-name="afii10081" unicode="&#x43f;" horiz-adv-x="658" 
d="M66 0v563h526v-563h-136v446h-255v-446h-135z" />
    <glyph glyph-name="afii10082" unicode="&#x440;" horiz-adv-x="673" 
d="M66 -165v720l106 8l12 -52q50 65 210 65q69 0 117.5 -22t74.5 -63.5t37 -91.5t11 -116t-11.5 -116t-38.5 -91t-76.5 -63t-121.5 -22q-142 0 -183 57v-213h-137zM360 110q77 0 106.5 42.5t29.5 125.5q0 84 -29 127.5t-107 43.5q-86 0 -121.5 -39.5t-35.5 -131.5t34 -130
t123 -38z" />
    <glyph glyph-name="afii10083" unicode="&#x441;" horiz-adv-x="581" 
d="M322 -10q-83 0 -140 21.5t-87.5 63t-43 91.5t-12.5 117t12.5 116.5t43.5 91.5t89.5 63.5t143.5 21.5q143 0 222 -89l-97 -92q-53 53 -125 53q-85 0 -118.5 -42.5t-33.5 -126.5t33 -127t120 -43q73 0 131 55l89 -85q-51 -47 -100.5 -68t-126.5 -21z" />
    <glyph glyph-name="afii10084" unicode="&#x442;" horiz-adv-x="582" 
d="M223 0v443h-199v120h535v-120h-199v-443h-137z" />
    <glyph glyph-name="afii10085" unicode="&#x443;" horiz-adv-x="571" 
d="M132 -169q-39 0 -54 1v106h42q45 0 62 9t25 35l10 28l-215 553h146l142 -386l139 386h141l-230 -596q-29 -75 -73 -105.5t-135 -30.5z" />
    <glyph glyph-name="afii10086" unicode="&#x444;" horiz-adv-x="1071" 
d="M470 -165v214q-53 -59 -188 -59q-134 0 -188.5 78.5t-54.5 216.5q0 65 11.5 115t39 91t77 63t120.5 22q142 0 183 -57v257h130v-258q45 58 192 58q69 0 117.5 -22t74.5 -63.5t37 -91.5t11 -116t-11.5 -116t-38.5 -91t-76.5 -63t-121.5 -22q-141 0 -184 57v-213h-130z
M314 110q85 0 120.5 41t35.5 134q0 91 -33.5 128t-122.5 37q-79 0 -108 -41.5t-29 -123.5q0 -85 29.5 -130t107.5 -45zM758 110q77 0 106.5 42.5t29.5 125.5t-29 127t-107 44q-86 0 -122 -39.5t-36 -131.5t34.5 -130t123.5 -38z" />
    <glyph glyph-name="afii10087" unicode="&#x445;" horiz-adv-x="585" 
d="M423 0l-137 195l-131 -195h-146l207 295l-188 268h152l119 -170l114 170h145l-188 -270l206 -293h-153z" />
    <glyph glyph-name="afii10088" unicode="&#x446;" horiz-adv-x="712" 
d="M541 -166v166h-475v563h137v-449h254v449h135v-446h78v-283h-129z" />
    <glyph glyph-name="afii10089" unicode="&#x447;" horiz-adv-x="647" 
d="M446 0v192q-45 -62 -191 -62q-121 0 -163.5 59t-42.5 176v198h137v-171q0 -67 22 -98.5t95 -31.5q82 0 112 35t30 103v163h136v-563h-135z" />
    <glyph glyph-name="afii10090" unicode="&#x448;" horiz-adv-x="1020" 
d="M66 0v563h137v-449h240v449h137v-449h240v449h134v-563h-888z" />
    <glyph glyph-name="afii10091" unicode="&#x449;" horiz-adv-x="1074" 
d="M904 -166v166h-838v563h137v-449h240v449h137v-449h240v449h134v-446h78v-283h-128z" />
    <glyph glyph-name="afii10092" unicode="&#x44a;" horiz-adv-x="690" 
d="M119 0v443h-77v120h213v-144h173q219 0 219 -204q0 -215 -225 -215h-303zM255 109h146q56 0 82 23.5t26 76.5q0 54 -25 76.5t-83 22.5h-146v-199z" />
    <glyph glyph-name="afii10093" unicode="&#x44b;" horiz-adv-x="843" 
d="M66 0v563h135v-144h173q219 0 219 -204q0 -215 -224 -215h-303zM201 109h147q55 0 81 23.5t26 76.5q0 54 -25.5 76.5t-83.5 22.5h-145v-199zM641 0v563h137v-563h-137z" />
    <glyph glyph-name="afii10094" unicode="&#x44c;" horiz-adv-x="636" 
d="M66 0v563h135v-144h173q219 0 219 -204q0 -215 -224 -215h-303zM201 109h147q55 0 81 23.5t26 76.5q0 54 -25.5 76.5t-83.5 22.5h-145v-199z" />
    <glyph glyph-name="afii10095" unicode="&#x44d;" horiz-adv-x="581" 
d="M259 -10q-77 0 -127 21t-102 68l85 83q57 -53 139 -53q75 0 109 27.5t42 90.5h-266v111h265q-9 61 -43.5 89t-106.5 28q-76 0 -129 -60l-93 92q78 89 224 89q85 0 143 -21.5t88.5 -62.5t43 -91t12.5 -118t-13 -118.5t-43.5 -91.5t-87.5 -62t-140 -21z" />
    <glyph glyph-name="afii10096" unicode="&#x44e;" horiz-adv-x="885" 
d="M66 0v563h137v-212h76q13 113 79.5 169t199.5 56q152 0 220 -73t68 -220q0 -148 -68 -221t-220 -73q-138 0 -204 59.5t-76 182.5h-75v-231h-137zM558 109q83 0 117 42t34 128t-34 128t-117 42t-116.5 -42t-33.5 -128t33.5 -128t116.5 -42z" />
    <glyph glyph-name="afii10097" unicode="&#x44f;" horiz-adv-x="656" 
d="M57 0l107 189q-114 39 -114 180q0 98 55 146t172 48h313v-563h-136v173h-154l-96 -173h-147zM281 286h173v161h-171q-49 0 -71.5 -18t-22.5 -63q0 -46 22 -63t70 -17z" />
    <glyph glyph-name="afii10071" unicode="&#x451;" horiz-adv-x="613" 
d="M132 622v129h124v-129h-124zM355 622v129h123v-129h-123zM326 -11q-86 0 -145 22.5t-88.5 65t-41.5 91.5t-12 115q0 51 7 91.5t26 79.5t50.5 65t83 41.5t119.5 15.5q51 0 90 -9.5t65 -27.5t44.5 -42.5t27.5 -54.5t14.5 -65t5 -72.5t-0.5 -76.5h-400q7 -63 41 -94t114 -31
q105 0 177 53l71 -92q-53 -40 -110 -57.5t-138 -17.5zM321 459q-76 0 -109.5 -31t-40.5 -93h273q-2 32 -6 50.5t-16 37.5t-37 27.5t-64 8.5z" />
    <glyph glyph-name="afii10099" unicode="&#x452;" horiz-adv-x="657" 
d="M-3 593v120h73v63h136v-63h124v-120h-124v-90q43 53 187 53q63 0 104 -16t62 -49.5t28.5 -72.5t7.5 -96v-338q0 -88 -39.5 -120.5t-140.5 -32.5h-25v107h11q35 0 45.5 12.5t11.5 50.5v294q0 67 -20.5 98.5t-92.5 31.5q-83 0 -111 -34.5t-28 -104.5v-286h-136v593h-73z
" />
    <glyph glyph-name="afii10100" unicode="&#x453;" horiz-adv-x="533" 
d="M172 618l143 177h165l-186 -177h-122zM66 0v563h444v-120h-307v-443h-137z" />
    <glyph glyph-name="afii10101" unicode="&#x454;" horiz-adv-x="581" 
d="M322 -10q-159 0 -221 75.5t-62 217.5q0 68 12.5 118t43.5 91.5t89.5 62.5t143.5 21q144 0 222 -89l-93 -92q-53 60 -129 60q-72 0 -107 -28t-43 -89h264v-111h-265q8 -63 42 -90.5t110 -27.5q79 0 136 53l84 -83q-51 -47 -100.5 -68t-126.5 -21z" />
    <glyph glyph-name="afii10102" unicode="&#x455;" horiz-adv-x="561" 
d="M275 -10q-156 0 -260 70l70 103q91 -58 199 -58q65 0 89 11.5t24 46.5q0 28 -22 39t-90 21q-50 7 -78.5 13t-63 19t-52.5 30.5t-30.5 48t-12.5 71.5q0 85 56 128t181 43q140 0 230 -51l-65 -109q-71 38 -161 38q-61 0 -83 -12t-22 -38q0 -27 21 -38.5t83 -20.5
q38 -6 58.5 -9.5t50.5 -11t46 -15t35.5 -20.5t29 -29t16 -38.5t6.5 -51.5q0 -97 -58.5 -138.5t-196.5 -41.5z" />
    <glyph glyph-name="afii10103" unicode="&#x456;" horiz-adv-x="279" 
d="M72 0v563h135v-563h-135zM71 620v135h137v-135h-137z" />
    <glyph glyph-name="afii10104" unicode="&#x457;" horiz-adv-x="279" 
d="M-14 625v129h111v-129h-111zM183 625v129h110v-129h-110zM72 0v563h135v-563h-135z" />
    <glyph glyph-name="afii10105" unicode="&#x458;" horiz-adv-x="279" 
d="M3 -169v107h11q37 0 47.5 14.5t10.5 61.5v549h135v-548q0 -109 -36 -146.5t-143 -37.5h-25zM71 620v135h137v-135h-137z" />
    <glyph glyph-name="afii10106" unicode="&#x459;" horiz-adv-x="1076" 
d="M42 2v115h20q37 0 48.5 13t11.5 49v384h520v-144h172q219 0 219 -204q0 -215 -225 -215h-299v446h-253v-283q0 -91 -34.5 -128t-110.5 -37q-51 0 -69 4zM642 109h145q55 0 81 23.5t26 76.5q0 54 -25 76.5t-83 22.5h-144v-199z" />
    <glyph glyph-name="afii10107" unicode="&#x45a;" horiz-adv-x="1022" 
d="M66 0v563h137v-209h253v209h132v-144h172q218 0 218 -204q0 -215 -223 -215h-299v229h-253v-229h-137zM588 109h146q55 0 80.5 23.5t25.5 76.5q0 54 -25 76.5t-83 22.5h-144v-199z" />
    <glyph glyph-name="afii10108" unicode="&#x45b;" horiz-adv-x="657" 
d="M-3 593v120h73v63h136v-63h124v-120h-124v-90q43 53 187 53q63 0 104 -16t62 -49.5t28.5 -72.5t7.5 -96v-322h-137v295q0 67 -20.5 98.5t-92.5 31.5q-83 0 -111 -34.5t-28 -104.5v-286h-136v593h-73z" />
    <glyph glyph-name="afii10109" unicode="&#x45c;" horiz-adv-x="597" 
d="M201 563v-203h59l152 203h157l-202 -257l220 -306h-159l-167 240h-60v-240h-135v563h135zM226 618l143 177h165l-186 -177h-122z" />
    <glyph glyph-name="afii10110" unicode="&#x45e;" horiz-adv-x="571" 
d="M132 -169q-39 0 -54 1v106h42q45 0 62 9t25 35l10 28l-215 553h146l142 -386l139 386h141l-230 -596q-29 -75 -73 -105.5t-135 -30.5zM287 604q-100 0 -144.5 46.5t-63.5 139.5l99 19q12 -52 34.5 -74.5t74.5 -22.5q53 0 75.5 22.5t33.5 74.5l100 -18q-19 -93 -64 -140
t-145 -47z" />
    <glyph glyph-name="afii10193" unicode="&#x45f;" horiz-adv-x="658" 
d="M265 -166v166h-199v563h137v-449h254v449h135v-563h-199v-166h-128z" />
    <glyph glyph-name="afii10050" unicode="&#x490;" horiz-adv-x="611" 
d="M78 0v741h372v166h143v-298h-373v-609h-142z" />
    <glyph glyph-name="afii10098" unicode="&#x491;" horiz-adv-x="533" 
d="M66 0v563h316v167h128v-287h-307v-443h-137z" />
    <glyph glyph-name="Wgrave" unicode="&#x1e80;" horiz-adv-x="1083" 
d="M253 -5l-230 746h149l152 -510l158 510h128l158 -510l152 510h140l-229 -746h-126l-163 524l-163 -524h-126zM518 782l-186 177h165l144 -177h-123z" />
    <glyph glyph-name="wgrave" unicode="&#x1e81;" horiz-adv-x="909" 
d="M199 -6l-189 569h144l118 -371l118 371h135l118 -370l118 370h138l-188 -569h-134l-122 377l-123 -377h-133zM427 618l-186 177h165l144 -177h-123z" />
    <glyph glyph-name="Wacute" unicode="&#x1e82;" horiz-adv-x="1083" 
d="M448 782l143 177h165l-186 -177h-122zM253 -5l-230 746h149l152 -510l158 510h128l158 -510l152 510h140l-229 -746h-126l-163 524l-163 -524h-126z" />
    <glyph glyph-name="wacute" unicode="&#x1e83;" horiz-adv-x="909" 
d="M357 618l143 177h165l-186 -177h-122zM199 -6l-189 569h144l118 -371l118 371h135l118 -370l118 370h138l-188 -569h-134l-122 377l-123 -377h-133z" />
    <glyph glyph-name="Wdieresis" unicode="&#x1e84;" horiz-adv-x="1083" 
d="M368 786v129h124v-129h-124zM591 786v129h123v-129h-123zM253 -5l-230 746h149l152 -510l158 510h128l158 -510l152 510h140l-229 -746h-126l-163 524l-163 -524h-126z" />
    <glyph glyph-name="wdieresis" unicode="&#x1e85;" horiz-adv-x="909" 
d="M280 622v129h124v-129h-124zM503 622v129h123v-129h-123zM199 -6l-189 569h144l118 -371l118 371h135l118 -370l118 370h138l-188 -569h-134l-122 377l-123 -377h-133z" />
    <glyph glyph-name="uni1EA0" unicode="&#x1ea0;" horiz-adv-x="773" 
d="M17 0l297 746h145l298 -746h-147l-52 132h-349l-52 -132h-140zM256 256h255l-128 321zM317 -191v132h138v-132h-138z" />
    <glyph glyph-name="uni1EA1" unicode="&#x1ea1;" horiz-adv-x="639" 
d="M238 -10q-118 0 -163 46t-45 128q0 117 81 159t283 42h26q-1 33 -9 50t-35 27.5t-78 10.5q-85 0 -163 -47l-69 103q36 25 103.5 46t143.5 21q75 0 121.5 -12t72.5 -41t35 -68.5t9 -102.5v-180q0 -37 8 -46.5t43 -9.5v-114q-12 -4 -57 -4t-67.5 12t-35.5 46
q-50 -66 -204 -66zM264 104q82 0 119 32t37 102v25h-17q-106 0 -157.5 -8.5t-68.5 -26t-17 -53.5q0 -37 23 -54t81 -17zM248 -191v132h138v-132h-138z" />
    <glyph glyph-name="uni1EA2" unicode="&#x1ea2;" horiz-adv-x="773" 
d="M17 0l297 746h145l298 -746h-147l-52 132h-349l-52 -132h-140zM256 256h255l-128 321zM341 773q-6 38 4.5 62.5t46.5 45.5q27 17 35 24.5t8 19.5q0 29 -52 29q-50 0 -90 -20l-39 79q52 26 135 26q73 0 111.5 -26.5t38.5 -70.5q0 -37 -15 -59t-46 -40q-28 -17 -37 -30.5
t-8 -39.5h-92z" />
    <glyph glyph-name="uni1EA3" unicode="&#x1ea3;" horiz-adv-x="639" 
d="M238 -10q-118 0 -163 46t-45 128q0 117 81 159t283 42h26q-1 33 -9 50t-35 27.5t-78 10.5q-85 0 -163 -47l-69 103q36 25 103.5 46t143.5 21q75 0 121.5 -12t72.5 -41t35 -68.5t9 -102.5v-180q0 -37 8 -46.5t43 -9.5v-114q-12 -4 -57 -4t-67.5 12t-35.5 46
q-50 -66 -204 -66zM264 104q82 0 119 32t37 102v25h-17q-106 0 -157.5 -8.5t-68.5 -26t-17 -53.5q0 -37 23 -54t81 -17zM267 611q-6 38 4.5 62.5t46.5 45.5q27 17 35 24.5t8 19.5q0 29 -52 29q-50 0 -90 -20l-39 79q52 26 135 26q73 0 111.5 -26.5t38.5 -70.5q0 -37 -15 -59
t-46 -40q-28 -17 -37 -30.5t-8 -39.5h-92z" />
    <glyph glyph-name="uni1EA4" unicode="&#x1ea4;" horiz-adv-x="773" 
d="M17 0l297 746h145l298 -746h-147l-52 132h-349l-52 -132h-140zM256 256h255l-128 321zM36 878l144 177h165l-186 -177h-123zM159 782l155 177h142l155 -177h-129l-98 90l-98 -90h-127z" />
    <glyph glyph-name="uni1EA5" unicode="&#x1ea5;" horiz-adv-x="639" 
d="M238 -10q-118 0 -163 46t-45 128q0 117 81 159t283 42h26q-1 33 -9 50t-35 27.5t-78 10.5q-85 0 -163 -47l-69 103q36 25 103.5 46t143.5 21q75 0 121.5 -12t72.5 -41t35 -68.5t9 -102.5v-180q0 -37 8 -46.5t43 -9.5v-114q-12 -4 -57 -4t-67.5 12t-35.5 46
q-50 -66 -204 -66zM264 104q82 0 119 32t37 102v25h-17q-106 0 -157.5 -8.5t-68.5 -26t-17 -53.5q0 -37 23 -54t81 -17zM-30 714l144 177h165l-186 -177h-123zM93 618l155 177h142l155 -177h-129l-98 90l-98 -90h-127z" />
    <glyph glyph-name="uni1EA6" unicode="&#x1ea6;" horiz-adv-x="773" 
d="M17 0l297 746h145l298 -746h-147l-52 132h-349l-52 -132h-140zM256 256h255l-128 321zM613 878l-185 177h164l144 -177h-123zM159 782l155 177h142l155 -177h-129l-99 90l-97 -90h-127z" />
    <glyph glyph-name="uni1EA7" unicode="&#x1ea7;" horiz-adv-x="639" 
d="M238 -10q-118 0 -163 46t-45 128q0 117 81 159t283 42h26q-1 33 -9 50t-35 27.5t-78 10.5q-85 0 -163 -47l-69 103q36 25 103.5 46t143.5 21q75 0 121.5 -12t72.5 -41t35 -68.5t9 -102.5v-180q0 -37 8 -46.5t43 -9.5v-114q-12 -4 -57 -4t-67.5 12t-35.5 46
q-50 -66 -204 -66zM264 104q82 0 119 32t37 102v25h-17q-106 0 -157.5 -8.5t-68.5 -26t-17 -53.5q0 -37 23 -54t81 -17zM548 714l-185 177h164l144 -177h-123zM94 618l155 177h142l155 -177h-129l-99 90l-97 -90h-127z" />
    <glyph glyph-name="uni1EA8" unicode="&#x1ea8;" horiz-adv-x="773" 
d="M17 0l297 746h145l298 -746h-147l-52 132h-349l-52 -132h-140zM256 256h255l-128 321zM340 985q-6 37 4.5 62t46.5 47q27 16 35 24t8 20q0 29 -52 29q-50 0 -90 -20l-39 79q54 26 135 26q73 0 111.5 -27t38.5 -71q0 -37 -15 -58.5t-46 -39.5q-28 -17 -37 -31t-8 -40h-92z
M159 782l155 177h142l155 -177h-129l-99 90l-97 -90h-127z" />
    <glyph glyph-name="uni1EA9" unicode="&#x1ea9;" horiz-adv-x="639" 
d="M238 -10q-118 0 -163 46t-45 128q0 117 81 159t283 42h26q-1 33 -9 50t-35 27.5t-78 10.5q-85 0 -163 -47l-69 103q36 25 103.5 46t143.5 21q75 0 121.5 -12t72.5 -41t35 -68.5t9 -102.5v-180q0 -37 8 -46.5t43 -9.5v-114q-12 -4 -57 -4t-67.5 12t-35.5 46
q-50 -66 -204 -66zM264 104q82 0 119 32t37 102v25h-17q-106 0 -157.5 -8.5t-68.5 -26t-17 -53.5q0 -37 23 -54t81 -17zM274 821q-6 37 4.5 62t46.5 47q27 16 35 24t8 20q0 29 -52 29q-50 0 -90 -20l-39 79q54 26 135 26q73 0 111.5 -27t38.5 -71q0 -37 -15 -58.5t-46 -39.5
q-28 -17 -37 -31t-8 -40h-92zM93 618l155 177h142l155 -177h-129l-99 90l-97 -90h-127z" />
    <glyph glyph-name="uni1EAA" unicode="&#x1eaa;" horiz-adv-x="773" 
d="M17 0l297 746h145l298 -746h-147l-52 132h-349l-52 -132h-140zM256 256h255l-128 321zM240 982l-79 63q80 100 157 100q37 0 77.5 -26t61.5 -26q34 0 82 57l77 -63q-83 -103 -157 -103q-35 0 -76 26t-62 26q-38 0 -81 -54zM159 782l155 177h142l155 -177h-129l-99 90
l-97 -90h-127z" />
    <glyph glyph-name="uni1EAB" unicode="&#x1eab;" horiz-adv-x="639" 
d="M238 -10q-118 0 -163 46t-45 128q0 117 81 159t283 42h26q-1 33 -9 50t-35 27.5t-78 10.5q-85 0 -163 -47l-69 103q36 25 103.5 46t143.5 21q75 0 121.5 -12t72.5 -41t35 -68.5t9 -102.5v-180q0 -37 8 -46.5t43 -9.5v-114q-12 -4 -57 -4t-67.5 12t-35.5 46
q-50 -66 -204 -66zM264 104q82 0 119 32t37 102v25h-17q-106 0 -157.5 -8.5t-68.5 -26t-17 -53.5q0 -37 23 -54t81 -17zM175 818l-79 63q80 100 157 100q37 0 77.5 -26t61.5 -26q34 0 82 57l77 -63q-83 -103 -157 -103q-35 0 -76 26t-62 26q-38 0 -81 -54zM94 618l155 177
h142l155 -177h-129l-99 90l-97 -90h-127z" />
    <glyph glyph-name="uni1EAC" unicode="&#x1eac;" horiz-adv-x="773" 
d="M17 0l297 746h145l298 -746h-147l-52 132h-349l-52 -132h-140zM256 256h255l-128 321zM159 782l155 177h142l155 -177h-129l-99 91l-97 -91h-127zM317 -191v132h138v-132h-138z" />
    <glyph glyph-name="uni1EAD" unicode="&#x1ead;" horiz-adv-x="639" 
d="M238 -10q-118 0 -163 46t-45 128q0 117 81 159t283 42h26q-1 33 -9 50t-35 27.5t-78 10.5q-85 0 -163 -47l-69 103q36 25 103.5 46t143.5 21q75 0 121.5 -12t72.5 -41t35 -68.5t9 -102.5v-180q0 -37 8 -46.5t43 -9.5v-114q-12 -4 -57 -4t-67.5 12t-35.5 46
q-50 -66 -204 -66zM264 104q82 0 119 32t37 102v25h-17q-106 0 -157.5 -8.5t-68.5 -26t-17 -53.5q0 -37 23 -54t81 -17zM94 618l155 177h142l155 -177h-129l-99 91l-97 -91h-127zM249 -191v132h138v-132h-138z" />
    <glyph glyph-name="uni1EAE" unicode="&#x1eae;" horiz-adv-x="773" 
d="M17 0l297 746h145l298 -746h-147l-52 132h-349l-52 -132h-140zM256 256h255l-128 321zM320 1000l143 177h165l-186 -177h-122zM385 771q-100 0 -144.5 46.5t-63.5 139.5l99 19q12 -53 34.5 -75t74.5 -22q53 0 75.5 22t33.5 75l100 -18q-19 -93 -64 -140t-145 -47z" />
    <glyph glyph-name="uni1EAF" unicode="&#x1eaf;" horiz-adv-x="639" 
d="M238 -10q-118 0 -163 46t-45 128q0 117 81 159t283 42h26q-1 33 -9 50t-35 27.5t-78 10.5q-85 0 -163 -47l-69 103q36 25 103.5 46t143.5 21q75 0 121.5 -12t72.5 -41t35 -68.5t9 -102.5v-180q0 -37 8 -46.5t43 -9.5v-114q-12 -4 -57 -4t-67.5 12t-35.5 46
q-50 -66 -204 -66zM264 104q82 0 119 32t37 102v25h-17q-106 0 -157.5 -8.5t-68.5 -26t-17 -53.5q0 -37 23 -54t81 -17zM255 836l143 177h165l-186 -177h-122zM320 607q-100 0 -144.5 46.5t-63.5 139.5l99 19q12 -53 34.5 -75t74.5 -22q53 0 75.5 22t33.5 75l100 -18
q-19 -93 -64 -140t-145 -47z" />
    <glyph glyph-name="uni1EB0" unicode="&#x1eb0;" horiz-adv-x="773" 
d="M17 0l297 746h145l298 -746h-147l-52 132h-349l-52 -132h-140zM256 256h255l-128 321zM330 1000l-185 177h164l144 -177h-123zM385 771q-100 0 -144.5 46.5t-63.5 139.5l99 19q12 -53 34.5 -75t74.5 -22q53 0 75.5 22t33.5 75l100 -18q-19 -93 -64 -140t-145 -47z" />
    <glyph glyph-name="uni1EB1" unicode="&#x1eb1;" horiz-adv-x="639" 
d="M238 -10q-118 0 -163 46t-45 128q0 117 81 159t283 42h26q-1 33 -9 50t-35 27.5t-78 10.5q-85 0 -163 -47l-69 103q36 25 103.5 46t143.5 21q75 0 121.5 -12t72.5 -41t35 -68.5t9 -102.5v-180q0 -37 8 -46.5t43 -9.5v-114q-12 -4 -57 -4t-67.5 12t-35.5 46
q-50 -66 -204 -66zM264 104q82 0 119 32t37 102v25h-17q-106 0 -157.5 -8.5t-68.5 -26t-17 -53.5q0 -37 23 -54t81 -17zM265 836l-185 177h164l144 -177h-123zM320 607q-100 0 -144.5 46.5t-63.5 139.5l99 19q12 -53 34.5 -75t74.5 -22q53 0 75.5 22t33.5 75l100 -18
q-19 -93 -64 -140t-145 -47z" />
    <glyph glyph-name="uni1EB2" unicode="&#x1eb2;" horiz-adv-x="773" 
d="M17 0l297 746h145l298 -746h-147l-52 132h-349l-52 -132h-140zM256 256h255l-128 321zM339 978q-6 37 4.5 62t46.5 46q27 16 35 24t8 20q0 29 -52 29q-50 0 -90 -20l-38 79q52 26 134 26q73 0 111.5 -26.5t38.5 -70.5q0 -37 -15 -59t-46 -40q-28 -17 -37 -30.5t-8 -39.5
h-92zM385 771q-101 0 -145.5 47t-62.5 139l99 19q11 -53 33.5 -75t75.5 -22q52 0 74.5 22t33.5 75l101 -18q-20 -94 -64.5 -140.5t-144.5 -46.5z" />
    <glyph glyph-name="uni1EB3" unicode="&#x1eb3;" horiz-adv-x="639" 
d="M238 -10q-118 0 -163 46t-45 128q0 117 81 159t283 42h26q-1 33 -9 50t-35 27.5t-78 10.5q-85 0 -163 -47l-69 103q36 25 103.5 46t143.5 21q75 0 121.5 -12t72.5 -41t35 -68.5t9 -102.5v-180q0 -37 8 -46.5t43 -9.5v-114q-12 -4 -57 -4t-67.5 12t-35.5 46
q-50 -66 -204 -66zM264 104q82 0 119 32t37 102v25h-17q-106 0 -157.5 -8.5t-68.5 -26t-17 -53.5q0 -37 23 -54t81 -17zM274 814q-6 37 4.5 62t46.5 46q27 16 35 24t8 20q0 29 -52 29q-50 0 -90 -20l-38 79q52 26 134 26q73 0 111.5 -26.5t38.5 -70.5q0 -37 -15 -59t-46 -40
q-28 -17 -37 -30.5t-8 -39.5h-92zM320 607q-101 0 -145.5 47t-62.5 139l99 19q11 -53 33.5 -75t75.5 -22q52 0 74.5 22t33.5 75l101 -18q-20 -94 -64.5 -140.5t-144.5 -46.5z" />
    <glyph glyph-name="uni1EB4" unicode="&#x1eb4;" horiz-adv-x="773" 
d="M17 0l297 746h145l298 -746h-147l-52 132h-349l-52 -132h-140zM256 256h255l-128 321zM240 1006l-79 63q80 100 157 100q37 0 77.5 -26t61.5 -26q34 0 82 57l77 -63q-83 -103 -157 -103q-35 0 -76 26t-62 26q-38 0 -81 -54zM385 771q-101 0 -145.5 47t-62.5 139l99 19
q11 -53 33.5 -75t75.5 -22q52 0 74.5 22t33.5 75l101 -18q-20 -94 -64.5 -140.5t-144.5 -46.5z" />
    <glyph glyph-name="uni1EB5" unicode="&#x1eb5;" horiz-adv-x="639" 
d="M238 -10q-118 0 -163 46t-45 128q0 117 81 159t283 42h26q-1 33 -9 50t-35 27.5t-78 10.5q-85 0 -163 -47l-69 103q36 25 103.5 46t143.5 21q75 0 121.5 -12t72.5 -41t35 -68.5t9 -102.5v-180q0 -37 8 -46.5t43 -9.5v-114q-12 -4 -57 -4t-67.5 12t-35.5 46
q-50 -66 -204 -66zM264 104q82 0 119 32t37 102v25h-17q-106 0 -157.5 -8.5t-68.5 -26t-17 -53.5q0 -37 23 -54t81 -17zM175 842l-79 63q80 100 157 100q37 0 77.5 -26t61.5 -26q34 0 82 57l77 -63q-83 -103 -157 -103q-35 0 -76 26t-62 26q-38 0 -81 -54zM320 607
q-101 0 -145.5 47t-62.5 139l99 19q11 -53 33.5 -75t75.5 -22q52 0 74.5 22t33.5 75l101 -18q-20 -94 -64.5 -140.5t-144.5 -46.5z" />
    <glyph glyph-name="uni1EB6" unicode="&#x1eb6;" horiz-adv-x="773" 
d="M17 0l297 746h145l298 -746h-147l-52 132h-349l-52 -132h-140zM256 256h255l-128 321zM317 -191v132h138v-132h-138zM385 768q-100 0 -144.5 46.5t-63.5 139.5l99 19q12 -52 34.5 -74.5t74.5 -22.5q53 0 75.5 22.5t33.5 74.5l100 -18q-19 -93 -64 -140t-145 -47z" />
    <glyph glyph-name="uni1EB7" unicode="&#x1eb7;" horiz-adv-x="639" 
d="M238 -10q-118 0 -163 46t-45 128q0 117 81 159t283 42h26q-1 33 -9 50t-35 27.5t-78 10.5q-85 0 -163 -47l-69 103q36 25 103.5 46t143.5 21q75 0 121.5 -12t72.5 -41t35 -68.5t9 -102.5v-180q0 -37 8 -46.5t43 -9.5v-114q-12 -4 -57 -4t-67.5 12t-35.5 46
q-50 -66 -204 -66zM264 104q82 0 119 32t37 102v25h-17q-106 0 -157.5 -8.5t-68.5 -26t-17 -53.5q0 -37 23 -54t81 -17zM248 -191v132h138v-132h-138zM320 604q-100 0 -144.5 46.5t-63.5 139.5l99 19q12 -52 34.5 -74.5t74.5 -22.5q53 0 75.5 22.5t33.5 74.5l100 -18
q-19 -93 -64 -140t-145 -47z" />
    <glyph glyph-name="uni1EB8" unicode="&#x1eb8;" horiz-adv-x="675" 
d="M78 0v741h540v-132h-398v-165h388v-129h-388v-187h402v-128h-544zM286 -191v132h138v-132h-138z" />
    <glyph glyph-name="uni1EB9" unicode="&#x1eb9;" horiz-adv-x="613" 
d="M326 -11q-86 0 -145 22.5t-88.5 65t-41.5 91.5t-12 115q0 51 7 91.5t26 79.5t50.5 65t83 41.5t119.5 15.5q51 0 90 -9.5t65 -27.5t44.5 -42.5t27.5 -54.5t14.5 -65t5 -72.5t-0.5 -76.5h-400q7 -63 41 -94t114 -31q105 0 177 53l71 -92q-53 -40 -110 -57.5t-138 -17.5z
M321 459q-76 0 -109.5 -31t-40.5 -93h273q-2 32 -6 50.5t-16 37.5t-37 27.5t-64 8.5zM247 -191v132h138v-132h-138z" />
    <glyph glyph-name="uni1EBA" unicode="&#x1eba;" horiz-adv-x="675" 
d="M78 0v741h540v-132h-398v-165h388v-129h-388v-187h402v-128h-544zM310 773q-6 38 4.5 62.5t46.5 45.5q27 17 35 24.5t8 19.5q0 29 -52 29q-50 0 -90 -20l-39 79q52 26 135 26q73 0 111.5 -26.5t38.5 -70.5q0 -37 -15 -59t-46 -40q-28 -17 -37 -30.5t-8 -39.5h-92z" />
    <glyph glyph-name="uni1EBB" unicode="&#x1ebb;" horiz-adv-x="613" 
d="M326 -11q-86 0 -145 22.5t-88.5 65t-41.5 91.5t-12 115q0 51 7 91.5t26 79.5t50.5 65t83 41.5t119.5 15.5q51 0 90 -9.5t65 -27.5t44.5 -42.5t27.5 -54.5t14.5 -65t5 -72.5t-0.5 -76.5h-400q7 -63 41 -94t114 -31q105 0 177 53l71 -92q-53 -40 -110 -57.5t-138 -17.5z
M321 459q-76 0 -109.5 -31t-40.5 -93h273q-2 32 -6 50.5t-16 37.5t-37 27.5t-64 8.5zM266 611q-6 38 4.5 62.5t46.5 45.5q27 17 35 24.5t8 19.5q0 29 -52 29q-50 0 -90 -20l-39 79q52 26 135 26q73 0 111.5 -26.5t38.5 -70.5q0 -37 -15 -59t-46 -40q-28 -17 -37 -30.5
t-8 -39.5h-92z" />
    <glyph glyph-name="uni1EBC" unicode="&#x1ebc;" horiz-adv-x="675" 
d="M78 0v741h540v-132h-398v-165h388v-129h-388v-187h402v-128h-544zM195 797l-79 64q81 99 157 99q37 0 77 -26t61 -26q35 0 82 57l78 -63q-83 -103 -157 -103q-35 0 -76 26t-63 26q-37 0 -80 -54z" />
    <glyph glyph-name="uni1EBD" unicode="&#x1ebd;" horiz-adv-x="613" 
d="M326 -11q-86 0 -145 22.5t-88.5 65t-41.5 91.5t-12 115q0 51 7 91.5t26 79.5t50.5 65t83 41.5t119.5 15.5q51 0 90 -9.5t65 -27.5t44.5 -42.5t27.5 -54.5t14.5 -65t5 -72.5t-0.5 -76.5h-400q7 -63 41 -94t114 -31q105 0 177 53l71 -92q-53 -40 -110 -57.5t-138 -17.5z
M321 459q-76 0 -109.5 -31t-40.5 -93h273q-2 32 -6 50.5t-16 37.5t-37 27.5t-64 8.5zM156 617l-79 64q81 99 157 99q37 0 77 -26t61 -26q35 0 82 57l78 -63q-83 -103 -157 -103q-35 0 -76 26t-63 26q-37 0 -80 -54z" />
    <glyph glyph-name="uni1EBE" unicode="&#x1ebe;" horiz-adv-x="675" 
d="M-13 878l144 177h165l-186 -177h-123zM110 782l155 177h142l155 -177h-129l-98 90l-98 -90h-127zM78 0v741h540v-132h-398v-165h388v-129h-388v-187h402v-128h-544z" />
    <glyph glyph-name="uni1EBF" unicode="&#x1ebf;" horiz-adv-x="613" 
d="M-44 714l144 177h165l-186 -177h-123zM79 618l155 177h142l155 -177h-129l-98 90l-98 -90h-127zM326 -11q-86 0 -145 22.5t-88.5 65t-41.5 91.5t-12 115q0 51 7 91.5t26 79.5t50.5 65t83 41.5t119.5 15.5q51 0 90 -9.5t65 -27.5t44.5 -42.5t27.5 -54.5t14.5 -65t5 -72.5
t-0.5 -76.5h-400q7 -63 41 -94t114 -31q105 0 177 53l71 -92q-53 -40 -110 -57.5t-138 -17.5zM321 459q-76 0 -109.5 -31t-40.5 -93h273q-2 32 -6 50.5t-16 37.5t-37 27.5t-64 8.5z" />
    <glyph glyph-name="uni1EC0" unicode="&#x1ec0;" horiz-adv-x="675" 
d="M565 878l-185 177h164l144 -177h-123zM111 782l155 177h142l155 -177h-129l-99 90l-97 -90h-127zM78 0v741h540v-132h-398v-165h388v-129h-388v-187h402v-128h-544z" />
    <glyph glyph-name="uni1EC1" unicode="&#x1ec1;" horiz-adv-x="613" 
d="M534 714l-185 177h164l144 -177h-123zM80 618l155 177h142l155 -177h-129l-99 90l-97 -90h-127zM326 -11q-86 0 -145 22.5t-88.5 65t-41.5 91.5t-12 115q0 51 7 91.5t26 79.5t50.5 65t83 41.5t119.5 15.5q51 0 90 -9.5t65 -27.5t44.5 -42.5t27.5 -54.5t14.5 -65t5 -72.5
t-0.5 -76.5h-400q7 -63 41 -94t114 -31q105 0 177 53l71 -92q-53 -40 -110 -57.5t-138 -17.5zM321 459q-76 0 -109.5 -31t-40.5 -93h273q-2 32 -6 50.5t-16 37.5t-37 27.5t-64 8.5z" />
    <glyph glyph-name="uni1EC2" unicode="&#x1ec2;" horiz-adv-x="675" 
d="M78 0v741h540v-132h-398v-165h388v-129h-388v-187h402v-128h-544zM293 985q-6 37 4.5 62t46.5 47q27 16 35 24t8 20q0 29 -52 29q-50 0 -90 -20l-39 79q54 26 135 26q73 0 111.5 -27t38.5 -71q0 -37 -15 -58.5t-46 -39.5q-28 -17 -37 -31t-8 -40h-92zM112 782l155 177
h142l155 -177h-129l-99 90l-97 -90h-127z" />
    <glyph glyph-name="uni1EC3" unicode="&#x1ec3;" horiz-adv-x="613" 
d="M326 -11q-86 0 -145 22.5t-88.5 65t-41.5 91.5t-12 115q0 51 7 91.5t26 79.5t50.5 65t83 41.5t119.5 15.5q51 0 90 -9.5t65 -27.5t44.5 -42.5t27.5 -54.5t14.5 -65t5 -72.5t-0.5 -76.5h-400q7 -63 41 -94t114 -31q105 0 177 53l71 -92q-53 -40 -110 -57.5t-138 -17.5z
M321 459q-76 0 -109.5 -31t-40.5 -93h273q-2 32 -6 50.5t-16 37.5t-37 27.5t-64 8.5zM260 821q-6 37 4.5 62t46.5 47q27 16 35 24t8 20q0 29 -52 29q-50 0 -90 -20l-39 79q54 26 135 26q73 0 111.5 -27t38.5 -71q0 -37 -15 -58.5t-46 -39.5q-28 -17 -37 -31t-8 -40h-92z
M79 618l155 177h142l155 -177h-129l-99 90l-97 -90h-127z" />
    <glyph glyph-name="uni1EC4" unicode="&#x1ec4;" horiz-adv-x="675" 
d="M78 0v741h540v-132h-398v-165h388v-129h-388v-187h402v-128h-544zM191 982l-79 63q80 100 157 100q37 0 77.5 -26t61.5 -26q34 0 82 57l77 -63q-83 -103 -157 -103q-35 0 -76 26t-62 26q-38 0 -81 -54zM110 782l155 177h142l155 -177h-129l-99 90l-97 -90h-127z" />
    <glyph glyph-name="uni1EC5" unicode="&#x1ec5;" horiz-adv-x="613" 
d="M326 -11q-86 0 -145 22.5t-88.5 65t-41.5 91.5t-12 115q0 51 7 91.5t26 79.5t50.5 65t83 41.5t119.5 15.5q51 0 90 -9.5t65 -27.5t44.5 -42.5t27.5 -54.5t14.5 -65t5 -72.5t-0.5 -76.5h-400q7 -63 41 -94t114 -31q105 0 177 53l71 -92q-53 -40 -110 -57.5t-138 -17.5z
M321 459q-76 0 -109.5 -31t-40.5 -93h273q-2 32 -6 50.5t-16 37.5t-37 27.5t-64 8.5zM160 818l-79 63q80 100 157 100q37 0 77.5 -26t61.5 -26q34 0 82 57l77 -63q-83 -103 -157 -103q-35 0 -76 26t-62 26q-38 0 -81 -54zM79 618l155 177h142l155 -177h-129l-99 90l-97 -90
h-127z" />
    <glyph glyph-name="uni1EC6" unicode="&#x1ec6;" horiz-adv-x="675" 
d="M110 782l155 177h142l155 -177h-129l-99 91l-97 -91h-127zM78 0v741h540v-132h-398v-165h388v-129h-388v-187h402v-128h-544zM286 -191v132h138v-132h-138z" />
    <glyph glyph-name="uni1EC7" unicode="&#x1ec7;" horiz-adv-x="613" 
d="M79 618l155 177h142l155 -177h-129l-99 91l-97 -91h-127zM326 -11q-86 0 -145 22.5t-88.5 65t-41.5 91.5t-12 115q0 51 7 91.5t26 79.5t50.5 65t83 41.5t119.5 15.5q51 0 90 -9.5t65 -27.5t44.5 -42.5t27.5 -54.5t14.5 -65t5 -72.5t-0.5 -76.5h-400q7 -63 41 -94t114 -31
q105 0 177 53l71 -92q-53 -40 -110 -57.5t-138 -17.5zM321 459q-76 0 -109.5 -31t-40.5 -93h273q-2 32 -6 50.5t-16 37.5t-37 27.5t-64 8.5zM247 -191v132h138v-132h-138z" />
    <glyph glyph-name="uni1EC8" unicode="&#x1ec8;" horiz-adv-x="317" 
d="M88 0v741h141v-741h-141zM114 773q-6 38 4.5 62.5t46.5 45.5q27 17 35 24.5t8 19.5q0 29 -52 29q-50 0 -90 -20l-39 79q52 26 135 26q73 0 111.5 -26.5t38.5 -70.5q0 -37 -15 -59t-46 -40q-28 -17 -37 -30.5t-8 -39.5h-92z" />
    <glyph glyph-name="uni1EC9" unicode="&#x1ec9;" horiz-adv-x="279" 
d="M72 0v563h135v-563h-135zM96 611q-6 38 4.5 62.5t46.5 45.5q27 17 35 24.5t8 19.5q0 29 -52 29q-50 0 -90 -20l-39 79q52 26 135 26q73 0 111.5 -26.5t38.5 -70.5q0 -37 -15 -59t-46 -40q-28 -17 -37 -30.5t-8 -39.5h-92z" />
    <glyph glyph-name="uni1ECA" unicode="&#x1eca;" horiz-adv-x="317" 
d="M88 0v741h141v-741h-141zM90 -191v132h138v-132h-138z" />
    <glyph glyph-name="uni1ECB" unicode="&#x1ecb;" horiz-adv-x="279" 
d="M72 0v563h135v-563h-135zM71 620v135h137v-135h-137zM72 -191v132h138v-132h-138z" />
    <glyph glyph-name="uni1ECC" unicode="&#x1ecc;" horiz-adv-x="848" 
d="M424 -12q-387 0 -387 383q0 382 387 382q388 0 388 -382q0 -383 -388 -383zM424 117q129 0 186.5 64t57.5 188q0 123 -57.5 187t-186.5 64t-186.5 -64t-57.5 -187q0 -124 57.5 -188t186.5 -64zM357 -191v132h138v-132h-138z" />
    <glyph glyph-name="uni1ECD" unicode="&#x1ecd;" horiz-adv-x="654" 
d="M327 -11q-151 0 -219.5 73.5t-68.5 220.5t68 220t220 73t220 -73t68 -220t-68 -220.5t-220 -73.5zM327 109q83 0 117 43t34 127t-34 127t-117 43t-117 -43t-34 -127t34 -127t117 -43zM258 -191v132h138v-132h-138z" />
    <glyph glyph-name="uni1ECE" unicode="&#x1ece;" horiz-adv-x="848" 
d="M424 -12q-387 0 -387 383q0 382 387 382q388 0 388 -382q0 -383 -388 -383zM424 117q129 0 186.5 64t57.5 188q0 123 -57.5 187t-186.5 64t-186.5 -64t-57.5 -187q0 -124 57.5 -188t186.5 -64zM376 781q-6 38 4.5 62.5t46.5 45.5q27 17 35 24.5t8 19.5q0 29 -52 29
q-50 0 -90 -20l-39 79q52 26 135 26q73 0 111.5 -26.5t38.5 -70.5q0 -37 -15 -59t-46 -40q-28 -17 -37 -30.5t-8 -39.5h-92z" />
    <glyph glyph-name="uni1ECF" unicode="&#x1ecf;" horiz-adv-x="654" 
d="M327 -11q-151 0 -219.5 73.5t-68.5 220.5t68 220t220 73t220 -73t68 -220t-68 -220.5t-220 -73.5zM327 109q83 0 117 43t34 127t-34 127t-117 43t-117 -43t-34 -127t34 -127t117 -43zM280 611q-6 38 4.5 62.5t46.5 45.5q27 17 35 24.5t8 19.5q0 29 -52 29q-50 0 -90 -20
l-39 79q52 26 135 26q73 0 111.5 -26.5t38.5 -70.5q0 -37 -15 -59t-46 -40q-28 -17 -37 -30.5t-8 -39.5h-92z" />
    <glyph glyph-name="uni1ED0" unicode="&#x1ed0;" horiz-adv-x="848" 
d="M73 878l144 177h165l-186 -177h-123zM196 782l155 177h142l155 -177h-129l-98 90l-98 -90h-127zM424 -12q-387 0 -387 383q0 382 387 382q388 0 388 -382q0 -383 -388 -383zM424 117q129 0 186.5 64t57.5 188q0 123 -57.5 187t-186.5 64t-186.5 -64t-57.5 -187
q0 -124 57.5 -188t186.5 -64z" />
    <glyph glyph-name="uni1ED1" unicode="&#x1ed1;" horiz-adv-x="654" 
d="M-23 714l144 177h165l-186 -177h-123zM100 618l155 177h142l155 -177h-129l-98 90l-98 -90h-127zM327 -11q-151 0 -219.5 73.5t-68.5 220.5t68 220t220 73t220 -73t68 -220t-68 -220.5t-220 -73.5zM327 109q83 0 117 43t34 127t-34 127t-117 43t-117 -43t-34 -127
t34 -127t117 -43z" />
    <glyph glyph-name="uni1ED2" unicode="&#x1ed2;" horiz-adv-x="848" 
d="M651 878l-185 177h164l144 -177h-123zM197 782l155 177h142l155 -177h-129l-99 90l-97 -90h-127zM424 -12q-387 0 -387 383q0 382 387 382q388 0 388 -382q0 -383 -388 -383zM424 117q129 0 186.5 64t57.5 188q0 123 -57.5 187t-186.5 64t-186.5 -64t-57.5 -187
q0 -124 57.5 -188t186.5 -64z" />
    <glyph glyph-name="uni1ED3" unicode="&#x1ed3;" horiz-adv-x="654" 
d="M554 714l-185 177h164l144 -177h-123zM100 618l155 177h142l155 -177h-129l-99 90l-97 -90h-127zM327 -11q-151 0 -219.5 73.5t-68.5 220.5t68 220t220 73t220 -73t68 -220t-68 -220.5t-220 -73.5zM327 109q83 0 117 43t34 127t-34 127t-117 43t-117 -43t-34 -127
t34 -127t117 -43z" />
    <glyph glyph-name="uni1ED4" unicode="&#x1ed4;" horiz-adv-x="848" 
d="M378 985q-6 37 4.5 62t46.5 47q27 16 35 24t8 20q0 29 -52 29q-50 0 -90 -20l-39 79q54 26 135 26q73 0 111.5 -27t38.5 -71q0 -37 -15 -58.5t-46 -39.5q-28 -17 -37 -31t-8 -40h-92zM197 782l155 177h142l155 -177h-129l-99 90l-97 -90h-127zM424 -12q-387 0 -387 383
q0 382 387 382q388 0 388 -382q0 -383 -388 -383zM424 117q129 0 186.5 64t57.5 188q0 123 -57.5 187t-186.5 64t-186.5 -64t-57.5 -187q0 -124 57.5 -188t186.5 -64z" />
    <glyph glyph-name="uni1ED5" unicode="&#x1ed5;" horiz-adv-x="654" 
d="M280 821q-6 37 4.5 62t46.5 47q27 16 35 24t8 20q0 29 -52 29q-50 0 -90 -20l-39 79q54 26 135 26q73 0 111.5 -27t38.5 -71q0 -37 -15 -58.5t-46 -39.5q-28 -17 -37 -31t-8 -40h-92zM99 618l155 177h142l155 -177h-129l-99 90l-97 -90h-127zM327 -11q-151 0 -219.5 73.5
t-68.5 220.5t68 220t220 73t220 -73t68 -220t-68 -220.5t-220 -73.5zM327 109q83 0 117 43t34 127t-34 127t-117 43t-117 -43t-34 -127t34 -127t117 -43z" />
    <glyph glyph-name="uni1ED6" unicode="&#x1ed6;" horiz-adv-x="848" 
d="M424 -12q-387 0 -387 383q0 382 387 382q388 0 388 -382q0 -383 -388 -383zM424 117q129 0 186.5 64t57.5 188q0 123 -57.5 187t-186.5 64t-186.5 -64t-57.5 -187q0 -124 57.5 -188t186.5 -64zM278 982l-79 63q80 100 157 100q37 0 77.5 -26t61.5 -26q34 0 82 57l77 -63
q-83 -103 -157 -103q-35 0 -76 26t-62 26q-38 0 -81 -54zM197 782l155 177h142l155 -177h-129l-99 90l-97 -90h-127z" />
    <glyph glyph-name="uni1ED7" unicode="&#x1ed7;" horiz-adv-x="654" 
d="M327 -11q-151 0 -219.5 73.5t-68.5 220.5t68 220t220 73t220 -73t68 -220t-68 -220.5t-220 -73.5zM327 109q83 0 117 43t34 127t-34 127t-117 43t-117 -43t-34 -127t34 -127t117 -43zM181 818l-79 63q80 100 157 100q37 0 77.5 -26t61.5 -26q34 0 82 57l77 -63
q-83 -103 -157 -103q-35 0 -76 26t-62 26q-38 0 -81 -54zM100 618l155 177h142l155 -177h-129l-99 90l-97 -90h-127z" />
    <glyph glyph-name="uni1ED8" unicode="&#x1ed8;" horiz-adv-x="848" 
d="M197 782l155 177h142l155 -177h-129l-99 91l-97 -91h-127zM354 -191v132h138v-132h-138zM424 -12q-387 0 -387 383q0 382 387 382q388 0 388 -382q0 -383 -388 -383zM424 117q129 0 186.5 64t57.5 188q0 123 -57.5 187t-186.5 64t-186.5 -64t-57.5 -187q0 -124 57.5 -188
t186.5 -64z" />
    <glyph glyph-name="uni1ED9" unicode="&#x1ed9;" horiz-adv-x="654" 
d="M100 618l155 177h142l155 -177h-129l-99 91l-97 -91h-127zM258 -191v132h138v-132h-138zM327 -11q-151 0 -219.5 73.5t-68.5 220.5t68 220t220 73t220 -73t68 -220t-68 -220.5t-220 -73.5zM327 109q83 0 117 43t34 127t-34 127t-117 43t-117 -43t-34 -127t34 -127
t117 -43z" />
    <glyph glyph-name="uni1EDA" unicode="&#x1eda;" horiz-adv-x="848" 
d="M327 782l143 177h165l-186 -177h-122zM424 -12q-387 0 -387 383q0 382 387 382q144 0 236 -54q69 3 71 56h-61v137h133v-125q0 -92 -76 -123q85 -96 85 -273q0 -383 -388 -383zM424 117q129 0 186.5 64t57.5 188q0 123 -57.5 187t-186.5 64t-186.5 -64t-57.5 -187
q0 -124 57.5 -188t186.5 -64z" />
    <glyph glyph-name="uni1EDB" unicode="&#x1edb;" horiz-adv-x="667" 
d="M193 618l143 177h165l-186 -177h-122zM327 -11q-151 0 -219.5 73.5t-68.5 220.5t68 220t220 73q111 0 177 -39q58 5 64 54h-63v136h134v-124q0 -91 -74 -122q50 -72 50 -198q0 -147 -68 -220.5t-220 -73.5zM327 109q83 0 117 43t34 127t-34 127t-117 43t-117 -43
t-34 -127t34 -127t117 -43z" />
    <glyph glyph-name="uni1EDC" unicode="&#x1edc;" horiz-adv-x="848" 
d="M424 -12q-387 0 -387 383q0 382 387 382q144 0 236 -54q69 3 71 56h-61v137h133v-125q0 -92 -76 -123q85 -96 85 -273q0 -383 -388 -383zM424 117q129 0 186.5 64t57.5 188q0 123 -57.5 187t-186.5 64t-186.5 -64t-57.5 -187q0 -124 57.5 -188t186.5 -64zM397 782
l-186 177h165l144 -177h-123z" />
    <glyph glyph-name="uni1EDD" unicode="&#x1edd;" horiz-adv-x="667" 
d="M327 -11q-151 0 -219.5 73.5t-68.5 220.5t68 220t220 73q111 0 177 -39q58 5 64 54h-63v136h134v-124q0 -91 -74 -122q50 -72 50 -198q0 -147 -68 -220.5t-220 -73.5zM327 109q83 0 117 43t34 127t-34 127t-117 43t-117 -43t-34 -127t34 -127t117 -43zM300 618l-186 177
h165l144 -177h-123z" />
    <glyph glyph-name="uni1EDE" unicode="&#x1ede;" horiz-adv-x="848" 
d="M424 -12q-387 0 -387 383q0 382 387 382q144 0 236 -54q69 3 71 56h-61v137h133v-125q0 -92 -76 -123q85 -96 85 -273q0 -383 -388 -383zM424 117q129 0 186.5 64t57.5 188q0 123 -57.5 187t-186.5 64t-186.5 -64t-57.5 -187q0 -124 57.5 -188t186.5 -64zM374 781
q-6 38 4.5 62.5t46.5 45.5q27 17 35 24.5t8 19.5q0 29 -52 29q-50 0 -90 -20l-39 79q52 26 135 26q73 0 111.5 -26.5t38.5 -70.5q0 -37 -15 -59t-46 -40q-28 -17 -37 -30.5t-8 -39.5h-92z" />
    <glyph glyph-name="uni1EDF" unicode="&#x1edf;" horiz-adv-x="667" 
d="M327 -11q-151 0 -219.5 73.5t-68.5 220.5t68 220t220 73q111 0 177 -39q58 5 64 54h-63v136h134v-124q0 -91 -74 -122q50 -72 50 -198q0 -147 -68 -220.5t-220 -73.5zM327 109q83 0 117 43t34 127t-34 127t-117 43t-117 -43t-34 -127t34 -127t117 -43zM259 611
q-6 38 4.5 62.5t46.5 45.5q27 17 35 24.5t8 19.5q0 29 -52 29q-50 0 -90 -20l-39 79q52 26 135 26q73 0 111.5 -26.5t38.5 -70.5q0 -37 -15 -59t-46 -40q-28 -17 -37 -30.5t-8 -39.5h-92z" />
    <glyph glyph-name="uni1EE0" unicode="&#x1ee0;" horiz-adv-x="848" 
d="M424 -12q-387 0 -387 383q0 382 387 382q144 0 236 -54q69 3 71 56h-61v137h133v-125q0 -92 -76 -123q85 -96 85 -273q0 -383 -388 -383zM424 117q129 0 186.5 64t57.5 188q0 123 -57.5 187t-186.5 64t-186.5 -64t-57.5 -187q0 -124 57.5 -188t186.5 -64zM248 780l-79 64
q81 99 157 99q37 0 77 -26t61 -26q36 0 82 57l78 -63q-83 -103 -157 -103q-35 0 -76 26t-63 26q-37 0 -80 -54z" />
    <glyph glyph-name="uni1EE1" unicode="&#x1ee1;" horiz-adv-x="667" 
d="M639 727v-124q0 -91 -74 -122q50 -70 50 -199q0 -147 -68 -220t-220 -73t-220 73t-68 220q0 148 68 221t220 73q111 0 177 -39q58 5 64 54h-53v136h124zM327 106q83 0 117 42.5t34 130.5t-33.5 130t-117.5 42t-117.5 -42t-33.5 -130t34 -130.5t117 -42.5zM151 620l-68 56
q20 46 54.5 73t74.5 27q37 0 80.5 -26t64.5 -26q41 0 69 55l67 -60q-21 -46 -54.5 -72.5t-73.5 -26.5q-35 0 -79 27t-65 27q-19 0 -38.5 -13.5t-31.5 -40.5z" />
    <glyph glyph-name="uni1EE2" unicode="&#x1ee2;" horiz-adv-x="848" 
d="M424 -12q-387 0 -387 383q0 382 387 382q144 0 236 -54q69 3 71 56h-61v137h133v-125q0 -92 -76 -123q85 -96 85 -273q0 -383 -388 -383zM424 117q129 0 186.5 64t57.5 188q0 123 -57.5 187t-186.5 64t-186.5 -64t-57.5 -187q0 -124 57.5 -188t186.5 -64zM354 -191v132
h138v-132h-138z" />
    <glyph glyph-name="uni1EE3" unicode="&#x1ee3;" horiz-adv-x="667" 
d="M327 -11q-151 0 -219.5 73.5t-68.5 220.5t68 220t220 73q111 0 177 -39q58 5 64 54h-63v136h134v-124q0 -91 -74 -122q50 -72 50 -198q0 -147 -68 -220.5t-220 -73.5zM327 109q83 0 117 43t34 127t-34 127t-117 43t-117 -43t-34 -127t34 -127t117 -43zM258 -191v132h138
v-132h-138z" />
    <glyph glyph-name="uni1EE4" unicode="&#x1ee4;" horiz-adv-x="807" 
d="M403 -14q-87 0 -149.5 17.5t-96.5 44t-54 68t-25 78t-5 86.5v461h142v-443q0 -93 39 -137.5t151 -44.5q113 0 152 43.5t39 138.5v443h139v-461q0 -49 -5.5 -86t-25.5 -78.5t-54.5 -68t-97 -44t-149.5 -17.5zM334 -191v132h138v-132h-138z" />
    <glyph glyph-name="uni1EE5" unicode="&#x1ee5;" horiz-adv-x="646" 
d="M324 -10q-80 0 -131.5 15t-80 49.5t-39 81.5t-10.5 120v307h136v-310q0 -31 1 -47t7.5 -37t19.5 -31.5t37.5 -18t60.5 -7.5t60 7.5t36.5 18t19 32.5t7.5 37.5t1 47.5v308h134v-305q0 -74 -10 -120.5t-38 -82t-79.5 -50.5t-131.5 -15zM253 -191v132h138v-132h-138z" />
    <glyph glyph-name="uni1EE6" unicode="&#x1ee6;" horiz-adv-x="807" 
d="M403 -14q-87 0 -149.5 17.5t-96.5 44t-54 68t-25 78t-5 86.5v461h142v-443q0 -93 39 -137.5t151 -44.5q113 0 152 43.5t39 138.5v443h139v-461q0 -49 -5.5 -86t-25.5 -78.5t-54.5 -68t-97 -44t-149.5 -17.5zM360 761q-6 38 4.5 62.5t46.5 45.5q27 17 35 24.5t8 19.5
q0 29 -52 29q-50 0 -90 -20l-39 79q52 26 135 26q73 0 111.5 -26.5t38.5 -70.5q0 -37 -15 -59t-46 -40q-28 -17 -37 -30.5t-8 -39.5h-92z" />
    <glyph glyph-name="uni1EE7" unicode="&#x1ee7;" horiz-adv-x="646" 
d="M324 -10q-80 0 -131.5 15t-80 49.5t-39 81.5t-10.5 120v307h136v-310q0 -31 1 -47t7.5 -37t19.5 -31.5t37.5 -18t60.5 -7.5t60 7.5t36.5 18t19 32.5t7.5 37.5t1 47.5v308h134v-305q0 -74 -10 -120.5t-38 -82t-79.5 -50.5t-131.5 -15zM276 611q-6 38 4.5 62.5t46.5 45.5
q27 17 35 24.5t8 19.5q0 29 -52 29q-50 0 -90 -20l-39 79q52 26 135 26q73 0 111.5 -26.5t38.5 -70.5q0 -37 -15 -59t-46 -40q-28 -17 -37 -30.5t-8 -39.5h-92z" />
    <glyph glyph-name="uni1EE8" unicode="&#x1ee8;" horiz-adv-x="832" 
d="M306 782l143 177h165l-186 -177h-122zM403 -14q-87 0 -149.5 17.5t-96.5 44t-54 68t-25 78t-5 86.5v461h142v-443q0 -93 39 -137.5t151 -44.5q113 0 152 43.5t39 138.5v443h112q74 0 78 56h-62v137h133v-125q0 -54 -30 -91t-92 -44v-394q0 -49 -5.5 -86t-25.5 -78.5
t-54.5 -68t-97 -44t-149.5 -17.5z" />
    <glyph glyph-name="uni1EE9" unicode="&#x1ee9;" horiz-adv-x="707" 
d="M226 618l143 177h165l-186 -177h-122zM324 -10q-80 0 -131.5 15t-80 49.5t-39 81.5t-10.5 120v307h136v-310q0 -31 1 -47t7.5 -37t19.5 -31.5t37.5 -18t60.5 -7.5t60 7.5t36.5 18t19 32.5t7.5 37.5t1 47.5v308h122q66 3 70 55h-63v136h134v-125q0 -55 -31.5 -92
t-97.5 -42v-237q0 -74 -10 -120.5t-38 -82t-79.5 -50.5t-131.5 -15z" />
    <glyph glyph-name="uni1EEA" unicode="&#x1eea;" horiz-adv-x="832" 
d="M376 782l-186 177h165l144 -177h-123zM403 -14q-87 0 -149.5 17.5t-96.5 44t-54 68t-25 78t-5 86.5v461h142v-443q0 -93 39 -137.5t151 -44.5q113 0 152 43.5t39 138.5v443h112q74 0 78 56h-62v137h133v-125q0 -54 -30 -91t-92 -44v-394q0 -49 -5.5 -86t-25.5 -78.5
t-54.5 -68t-97 -44t-149.5 -17.5z" />
    <glyph glyph-name="uni1EEB" unicode="&#x1eeb;" horiz-adv-x="707" 
d="M296 618l-186 177h165l144 -177h-123zM324 -10q-80 0 -131.5 15t-80 49.5t-39 81.5t-10.5 120v307h136v-310q0 -31 1 -47t7.5 -37t19.5 -31.5t37.5 -18t60.5 -7.5t60 7.5t36.5 18t19 32.5t7.5 37.5t1 47.5v308h122q66 3 70 55h-63v136h134v-125q0 -55 -31.5 -92
t-97.5 -42v-237q0 -74 -10 -120.5t-38 -82t-79.5 -50.5t-131.5 -15z" />
    <glyph glyph-name="uni1EEC" unicode="&#x1eec;" horiz-adv-x="832" 
d="M360 761q-6 38 4.5 62.5t46.5 45.5q27 17 35 24.5t8 19.5q0 29 -52 29q-50 0 -90 -20l-39 79q52 26 135 26q73 0 111.5 -26.5t38.5 -70.5q0 -37 -15 -59t-46 -40q-28 -17 -37 -30.5t-8 -39.5h-92zM403 -14q-87 0 -149.5 17.5t-96.5 44t-54 68t-25 78t-5 86.5v461h142
v-443q0 -93 39 -137.5t151 -44.5q113 0 152 43.5t39 138.5v443h112q74 0 78 56h-62v137h133v-125q0 -54 -30 -91t-92 -44v-394q0 -49 -5.5 -86t-25.5 -78.5t-54.5 -68t-97 -44t-149.5 -17.5z" />
    <glyph glyph-name="uni1EED" unicode="&#x1eed;" horiz-adv-x="707" 
d="M279 611q-6 38 4.5 62.5t46.5 45.5q27 17 35 24.5t8 19.5q0 29 -52 29q-50 0 -90 -20l-39 79q52 26 135 26q73 0 111.5 -26.5t38.5 -70.5q0 -37 -15 -59t-46 -40q-28 -17 -37 -30.5t-8 -39.5h-92zM324 -10q-80 0 -131.5 15t-80 49.5t-39 81.5t-10.5 120v307h136v-310
q0 -31 1 -47t7.5 -37t19.5 -31.5t37.5 -18t60.5 -7.5t60 7.5t36.5 18t19 32.5t7.5 37.5t1 47.5v308h122q66 3 70 55h-63v136h134v-125q0 -55 -31.5 -92t-97.5 -42v-237q0 -74 -10 -120.5t-38 -82t-79.5 -50.5t-131.5 -15z" />
    <glyph glyph-name="uni1EEE" unicode="&#x1eee;" horiz-adv-x="832" 
d="M403 -14q-87 0 -149.5 17.5t-96.5 44t-54 68t-25 78t-5 86.5v461h142v-443q0 -93 39 -137.5t151 -44.5q113 0 152 43.5t39 138.5v443h112q74 0 78 56h-62v137h133v-125q0 -54 -30 -91t-92 -44v-394q0 -49 -5.5 -86t-25.5 -78.5t-54.5 -68t-97 -44t-149.5 -17.5zM260 780
l-79 64q81 99 157 99q37 0 77 -26t61 -26q36 0 82 57l78 -63q-83 -103 -157 -103q-35 0 -76 26t-63 26q-37 0 -80 -54z" />
    <glyph glyph-name="uni1EEF" unicode="&#x1eef;" horiz-adv-x="707" 
d="M324 -10q-80 0 -131.5 15t-80 49.5t-39 81.5t-10.5 120v307h136v-310q0 -31 1 -47t7.5 -37t19.5 -31.5t37.5 -18t60.5 -7.5t60 7.5t36.5 18t19 32.5t7.5 37.5t1 47.5v308h122q66 3 70 55h-63v136h134v-125q0 -55 -31.5 -92t-97.5 -42v-237q0 -74 -10 -120.5t-38 -82
t-79.5 -50.5t-131.5 -15zM159 616l-79 64q81 99 157 99q37 0 77 -26t61 -26q35 0 82 57l78 -63q-83 -103 -157 -103q-35 0 -76 26t-63 26q-37 0 -80 -54z" />
    <glyph glyph-name="uni1EF0" unicode="&#x1ef0;" horiz-adv-x="832" 
d="M334 -191v132h138v-132h-138zM403 -14q-87 0 -149.5 17.5t-96.5 44t-54 68t-25 78t-5 86.5v461h142v-443q0 -93 39 -137.5t151 -44.5q113 0 152 43.5t39 138.5v443h112q74 0 78 56h-62v137h133v-125q0 -54 -30 -91t-92 -44v-394q0 -49 -5.5 -86t-25.5 -78.5t-54.5 -68
t-97 -44t-149.5 -17.5z" />
    <glyph glyph-name="uni1EF1" unicode="&#x1ef1;" horiz-adv-x="707" 
d="M253 -191v132h138v-132h-138zM324 -10q-80 0 -131.5 15t-80 49.5t-39 81.5t-10.5 120v307h136v-310q0 -31 1 -47t7.5 -37t19.5 -31.5t37.5 -18t60.5 -7.5t60 7.5t36.5 18t19 32.5t7.5 37.5t1 47.5v308h122q66 3 70 55h-63v136h134v-125q0 -55 -31.5 -92t-97.5 -42v-237
q0 -74 -10 -120.5t-38 -82t-79.5 -50.5t-131.5 -15z" />
    <glyph glyph-name="Ygrave" unicode="&#x1ef2;" horiz-adv-x="745" 
d="M302 0v266l-296 475h153l216 -346l217 346h147l-296 -474v-267h-141zM351 782l-186 177h165l144 -177h-123z" />
    <glyph glyph-name="ygrave" unicode="&#x1ef3;" horiz-adv-x="571" 
d="M132 -169q-39 0 -54 1v106h42q45 0 62 9t25 35l10 28l-215 553h146l142 -386l139 386h141l-230 -596q-29 -75 -73 -105.5t-135 -30.5zM269 618l-186 177h165l144 -177h-123z" />
    <glyph glyph-name="uni1EF4" unicode="&#x1ef4;" horiz-adv-x="745" 
d="M302 0v266l-296 475h153l216 -346l217 346h147l-296 -474v-267h-141zM303 -191v132h138v-132h-138z" />
    <glyph glyph-name="uni1EF5" unicode="&#x1ef5;" horiz-adv-x="571" 
d="M132 -169q-39 0 -54 1v106h42q45 0 62 9t25 35l10 28l-215 553h146l142 -386l139 386h141l-230 -596q-29 -75 -73 -105.5t-135 -30.5zM410 -191v132h138v-132h-138z" />
    <glyph glyph-name="uni1EF6" unicode="&#x1ef6;" horiz-adv-x="745" 
d="M302 0v266l-296 475h153l216 -346l217 346h147l-296 -474v-267h-141zM327 761q-6 38 4.5 62.5t46.5 45.5q27 17 35 24.5t8 19.5q0 29 -52 29q-50 0 -90 -20l-39 79q52 26 135 26q73 0 111.5 -26.5t38.5 -70.5q0 -37 -15 -59t-46 -40q-28 -17 -37 -30.5t-8 -39.5h-92z" />
    <glyph glyph-name="uni1EF7" unicode="&#x1ef7;" horiz-adv-x="571" 
d="M132 -169q-39 0 -54 1v106h42q45 0 62 9t25 35l10 28l-215 553h146l142 -386l139 386h141l-230 -596q-29 -75 -73 -105.5t-135 -30.5zM244 611q-6 38 4.5 62.5t46.5 45.5q27 17 35 24.5t8 19.5q0 29 -52 29q-50 0 -90 -20l-39 79q52 26 135 26q73 0 111.5 -26.5
t38.5 -70.5q0 -37 -15 -59t-46 -40q-28 -17 -37 -30.5t-8 -39.5h-92z" />
    <glyph glyph-name="uni1EF8" unicode="&#x1ef8;" horiz-adv-x="745" 
d="M302 0v266l-296 475h153l216 -346l217 346h147l-296 -474v-267h-141zM222 797l-79 64q81 99 157 99q37 0 77 -26t61 -26q36 0 82 57l78 -63q-83 -103 -157 -103q-35 0 -76 26t-63 26q-37 0 -80 -54z" />
    <glyph glyph-name="uni1EF9" unicode="&#x1ef9;" horiz-adv-x="571" 
d="M132 -169q-39 0 -54 1v106h42q45 0 62 9t25 35l10 28l-215 553h146l142 -386l139 386h141l-230 -596q-29 -75 -73 -105.5t-135 -30.5zM140 617l-79 64q81 99 157 99q37 0 77 -26t61 -26q36 0 82 57l78 -63q-83 -103 -157 -103q-35 0 -76 26t-63 26q-37 0 -80 -54z" />
    <glyph glyph-name="endash" unicode="&#x2013;" horiz-adv-x="736" 
d="M42 261v125h652v-125h-652z" />
    <glyph glyph-name="emdash" unicode="&#x2014;" horiz-adv-x="952" 
d="M42 261v125h869v-125h-869z" />
    <glyph glyph-name="quoteleft" unicode="&#x2018;" horiz-adv-x="280" 
d="M59 420v119q0 89 23.5 128.5t102.5 76.5l34 -70q-47 -23 -61 -39.5t-14 -49.5h76v-165h-161z" />
    <glyph glyph-name="quoteright" unicode="&#x2019;" horiz-adv-x="280" 
d="M95 417l-34 70q47 23 61 39t14 49h-77v166h161v-119q0 -91 -22.5 -130t-102.5 -75z" />
    <glyph glyph-name="quotesinglbase" unicode="&#x201a;" horiz-adv-x="280" 
d="M95 -150l-34 69q47 22 61 39t14 51h-77v165h161v-120q0 -85 -23.5 -127t-101.5 -77z" />
    <glyph glyph-name="quotedblleft" unicode="&#x201c;" horiz-adv-x="503" 
d="M59 425v117q0 87 23 125.5t100 73.5l33 -67q-46 -23 -59.5 -39t-13.5 -48h75v-162h-158zM287 425v117q0 86 22.5 125t99.5 74l33 -67q-46 -23 -59.5 -39t-13.5 -48h75v-162h-157z" />
    <glyph glyph-name="quotedblright" unicode="&#x201d;" horiz-adv-x="503" 
d="M93 425l-32 67q46 23 59.5 39t13.5 49h-75v161h158v-116q0 -87 -23 -126t-101 -74zM322 425l-34 67q47 24 60.5 40t13.5 48h-75v161h157v-116q0 -87 -22.5 -126t-99.5 -74z" />
    <glyph glyph-name="quotedblbase" unicode="&#x201e;" horiz-adv-x="503" 
d="M93 -146l-32 67q46 22 59.5 38t13.5 50h-75v161h158v-116q0 -83 -23.5 -124.5t-100.5 -75.5zM322 -146l-34 67q46 22 60 38.5t14 49.5h-75v161h157v-116q0 -83 -23.5 -124.5t-98.5 -75.5z" />
    <glyph glyph-name="dagger" unicode="&#x2020;" horiz-adv-x="584" 
d="M224 -166v588h-174v125h174v229h135v-229h175v-125h-175v-588h-135z" />
    <glyph glyph-name="daggerdbl" unicode="&#x2021;" horiz-adv-x="584" 
d="M224 -166v242h-174v126h174v220h-174v125h174v229h135v-229h175v-125h-175v-220h175v-126h-175v-242h-135z" />
    <glyph glyph-name="bullet" unicode="&#x2022;" horiz-adv-x="377" 
d="M92 198v213h194v-213h-194z" />
    <glyph glyph-name="ellipsis" unicode="&#x2026;" horiz-adv-x="803" 
d="M59 0v165h161v-165h-161zM320 0v165h162v-165h-162zM582 0v165h162v-165h-162z" />
    <glyph glyph-name="perthousand" unicode="&#x2030;" horiz-adv-x="1706" 
d="M264 268q-113 0 -171 63t-58 179q0 115 58.5 179t170.5 64q110 0 167.5 -64t57.5 -179t-57.5 -178.5t-167.5 -63.5zM264 373q103 0 103 137q0 135 -103 135q-106 0 -106 -135q0 -137 106 -137zM950 -10q-111 0 -169 64t-58 180q0 114 58 178.5t169 64.5t169 -64.5
t58 -178.5q0 -116 -58 -180t-169 -64zM950 96q104 0 104 138q0 134 -104 134t-104 -134q0 -138 104 -138zM1444 -10q-111 0 -168.5 64t-57.5 180q0 115 57.5 179t168.5 64t169 -64.5t58 -178.5q0 -116 -58 -180t-169 -64zM1444 96q105 0 105 138q0 134 -105 134
q-104 0 -104 -134q0 -138 104 -138zM335 0l414 742h128l-415 -742h-127z" />
    <glyph glyph-name="guilsinglleft" unicode="&#x2039;" horiz-adv-x="470" 
d="M236 0l-151 281l151 282h123l-141 -282l141 -281h-123z" />
    <glyph glyph-name="guilsinglright" unicode="&#x203a;" horiz-adv-x="470" 
d="M112 0l141 282l-141 281h123l151 -281l-151 -282h-123z" />
    <glyph glyph-name="fraction" unicode="&#x2044;" horiz-adv-x="537" 
d="M0 0l415 741h122l-416 -741h-121z" />
    <glyph glyph-name="fraction" unicode="&#x2215;" horiz-adv-x="537" 
d="M0 0l415 741h122l-416 -741h-121z" />
    <glyph glyph-name="zero.superior" unicode="&#x2070;" horiz-adv-x="582" 
d="M291 257q-111 0 -159.5 62t-48.5 185t48.5 184.5t159.5 61.5q110 0 159 -61.5t49 -184.5t-49 -185t-159 -62zM291 347q61 0 82 37t21 120q0 81 -20.5 117t-82.5 36q-61 0 -81.5 -36t-20.5 -117q0 -83 20.5 -120t81.5 -37z" />
    <glyph glyph-name="four.superior" unicode="&#x2074;" horiz-adv-x="539" 
d="M65 355v80l209 306h114l-208 -302h126l19 128h81v-128h75v-84h-75v-92h-101v92h-240z" />
    <glyph glyph-name="five.superior" unicode="&#x2075;" horiz-adv-x="526" 
d="M263 257q-111 0 -197 50l55 81q72 -41 134 -41q57 0 80.5 15t23.5 62q0 46 -23 61.5t-78 15.5q-51 0 -84 -15l-81 23l13 232h319v-89h-231l-6 -81q40 14 98 14q40 0 68 -5.5t54.5 -21.5t40.5 -49.5t14 -84.5q0 -100 -49.5 -133.5t-150.5 -33.5z" />
    <glyph glyph-name="six.superior" unicode="&#x2076;" horiz-adv-x="557" 
d="M291 257q-109 0 -160 51.5t-51 160.5q0 148 63 210t224 62h41v-89h-43q-102 0 -138.5 -26t-43.5 -81q33 44 138 44q90 0 127.5 -40t37.5 -121q0 -84 -46 -127.5t-149 -43.5zM291 338q55 0 73.5 21t18.5 66q0 43 -19.5 64.5t-71.5 21.5q-102 0 -102 -80q0 -50 24 -71.5
t77 -21.5z" />
    <glyph glyph-name="seven.superior" unicode="&#x2077;" horiz-adv-x="461" 
d="M125 263l167 386h-244v92h358v-89l-168 -389h-113z" />
    <glyph glyph-name="eight.superior" unicode="&#x2078;" horiz-adv-x="566" 
d="M283 256q-208 0 -208 146q0 99 77 126q-35 15 -48 39.5t-13 62.5q0 122 192 122t192 -122q0 -39 -13 -63.5t-50 -39.5q79 -25 79 -125q0 -146 -208 -146zM283 337q102 0 102 73q0 75 -102 75q-54 0 -77.5 -18.5t-23.5 -56.5q0 -37 23.5 -55t77.5 -18zM283 557
q50 0 69.5 14t19.5 44q0 29 -19.5 42.5t-69.5 13.5q-51 0 -69.5 -13.5t-18.5 -42.5q0 -30 18.5 -44t69.5 -14z" />
    <glyph glyph-name="nine.superior" unicode="&#x2079;" horiz-adv-x="557" 
d="M154 263v87h44q101 0 138 28t44 84q-33 -44 -138 -44q-90 0 -128 40.5t-38 120.5q0 84 46 127.5t150 43.5q109 0 159.5 -52t50.5 -161q0 -149 -62.5 -211.5t-223.5 -62.5h-42zM271 492q102 0 102 78q0 51 -24 72.5t-77 21.5q-55 0 -73.5 -21t-18.5 -65t19 -65t72 -21z
" />
    <glyph glyph-name="zero.inferior" unicode="&#x2080;" horiz-adv-x="582" 
d="M291 -6q-111 0 -159.5 62t-48.5 186q0 123 48.5 184t159.5 61q110 0 159 -61.5t49 -183.5q0 -123 -49 -185.5t-159 -62.5zM291 84q61 0 82 37.5t21 120.5q0 81 -20.5 116.5t-82.5 35.5q-61 0 -81.5 -35.5t-20.5 -116.5q0 -83 20.5 -120.5t81.5 -37.5z" />
    <glyph glyph-name="one.inferior" unicode="&#x2081;" horiz-adv-x="363" 
d="M146 0v386h-85v93h193v-479h-108z" />
    <glyph glyph-name="two.inferior" unicode="&#x2082;" horiz-adv-x="495" 
d="M63 0v75l152 135q63 56 79.5 77.5t16.5 53.5q0 29 -19 42.5t-66 13.5q-67 0 -123 -29l-47 80q73 38 184 38q88 0 131.5 -31t43.5 -102q0 -53 -25 -89.5t-93 -97.5l-88 -80h210v-86h-356z" />
    <glyph glyph-name="three.inferior" unicode="&#x2083;" horiz-adv-x="509" 
d="M247 -6q-116 0 -201 52l52 76q68 -39 139 -39q53 0 74 14t21 55q0 37 -21 50.5t-82 13.5h-80v83h78q53 0 72 9.5t19 39.5q0 29 -18 38.5t-65 9.5q-77 0 -131 -33l-50 79q73 45 196 45q93 0 134 -28.5t41 -86.5q0 -84 -62 -107q39 -11 57 -40.5t18 -84.5
q0 -77 -46.5 -111.5t-144.5 -34.5z" />
    <glyph glyph-name="four.inferior" unicode="&#x2084;" horiz-adv-x="539" 
d="M65 92v80l209 307h114l-208 -303h126l19 128h81v-128h75v-84h-75v-92h-101v92h-240z" />
    <glyph glyph-name="five.inferior" unicode="&#x2085;" horiz-adv-x="526" 
d="M263 -6q-113 0 -197 51l55 80q76 -41 134 -41q57 0 80.5 15t23.5 63q0 46 -23 61.5t-78 15.5q-52 0 -84 -16l-81 23l13 233h319v-89h-231l-6 -82q39 15 98 15q40 0 68 -5.5t54.5 -21.5t40.5 -49.5t14 -84.5q0 -100 -49.5 -134t-150.5 -34z" />
    <glyph glyph-name="six.inferior" unicode="&#x2086;" horiz-adv-x="557" 
d="M291 -6q-109 0 -160 52t-51 161q0 148 63 210t224 62h41v-89h-43q-102 0 -138.5 -26t-43.5 -82q33 44 138 44q90 0 127.5 -40t37.5 -121q0 -83 -46 -127t-149 -44zM291 76q55 0 73.5 21t18.5 65q0 43 -19.5 64.5t-71.5 21.5q-102 0 -102 -79q0 -50 24 -71.5t77 -21.5z
" />
    <glyph glyph-name="seven.inferior" unicode="&#x2087;" horiz-adv-x="461" 
d="M125 0l167 386h-244v93h358v-89l-168 -390h-113z" />
    <glyph glyph-name="eight.inferior" unicode="&#x2088;" horiz-adv-x="566" 
d="M283 -7q-208 0 -208 146q0 99 77 126q-35 15 -48 40t-13 62q0 122 192 122t192 -122q0 -38 -13 -63t-50 -40q79 -25 79 -125q0 -146 -208 -146zM283 74q102 0 102 74t-102 74q-54 0 -77.5 -18.5t-23.5 -55.5t23.5 -55.5t77.5 -18.5zM283 294q50 0 69.5 14.5t19.5 44.5
q0 28 -19.5 42t-69.5 14t-69 -14t-19 -42q0 -31 18.5 -45t69.5 -14z" />
    <glyph glyph-name="nine.inferior" unicode="&#x2089;" horiz-adv-x="557" 
d="M154 0v88h44q70 0 110 15.5t54 37.5t18 59q-33 -45 -138 -45q-90 0 -128 40.5t-38 121.5q0 83 46.5 126.5t149.5 43.5q109 0 159.5 -51.5t50.5 -160.5q0 -149 -62.5 -212t-223.5 -63h-42zM271 229q102 0 102 79q0 51 -24 72.5t-77 21.5q-55 0 -73.5 -21t-18.5 -66
q0 -44 19 -65t72 -21z" />
    <glyph glyph-name="dong" unicode="&#x20ab;" horiz-adv-x="673" 
d="M343 608v111h127v57h137v-57h66v-111h-66v-602l-104 -11l-15 59q-53 -65 -206 -65q-70 0 -118.5 22t-75 64t-38 93t-11.5 117q0 65 11.5 115t39 91t77 63t120.5 22q141 0 183 -57v89h-127zM314 110q85 0 120.5 41t35.5 134q0 91 -33.5 128t-122.5 37q-79 0 -108 -41.5
t-29 -123.5q0 -85 29.5 -130t107.5 -45zM90 -176v111h518v-111h-518z" />
    <glyph glyph-name="Euro" unicode="&#x20ac;" horiz-adv-x="704" 
d="M32 397v103h122q21 127 91 190t198 63q75 0 119 -10t88 -32l-62 -115q-59 32 -141 32q-72 0 -110 -32.5t-51 -95.5h225v-103h-235v-22v-38h235v-104h-222q15 -62 52 -93.5t104 -31.5q82 0 144 38l66 -106q-86 -52 -217 -52q-124 0 -192 62.5t-90 182.5h-124v104h113v36
v24h-113z" />
    <glyph glyph-name="litre" unicode="&#x2113;" horiz-adv-x="538" 
d="M282 338v-149q0 -43 15 -61t46 -18q42 0 77 40l51 -66q-73 -90 -174 -90q-77 0 -114 38.5t-37 137.5v52l-49 -41l-44 80l93 77v222q0 90 42.5 144.5t123.5 54.5q70 0 105 -41t35 -105q0 -74 -36.5 -132.5t-108.5 -121.5zM364 607q0 33 -8.5 47t-28.5 14q-23 0 -34 -24
t-11 -84v-108q44 42 63 77.5t19 77.5z" />
    <glyph glyph-name="afii61352" unicode="&#x2116;" horiz-adv-x="1406" 
d="M78 0v741h154l367 -497v497h135v-741h-130l-390 528v-528h-136zM1061 279q-121 0 -177 60t-56 178q0 117 56 176.5t177 59.5q120 0 176.5 -59.5t56.5 -176.5q0 -238 -233 -238zM1061 378q120 0 120 135t-120 135t-120 -135t120 -135zM857 122v100h409v-100h-409z" />
    <glyph glyph-name="copyrightsound" unicode="&#x2117;" horiz-adv-x="815" 
d="M407 -12q-180 0 -275.5 106t-95.5 277t95.5 277t275.5 106t276 -106t96 -277q0 -170 -96 -276.5t-276 -106.5zM407 41q160 0 238.5 90.5t78.5 239.5t-78.5 240t-238.5 91q-161 0 -239 -90.5t-78 -240.5t78 -240t239 -90zM229 126v482h226q103 0 143 -38.5t40 -118.5
q0 -81 -40.5 -122.5t-147.5 -41.5h-131v-161h-90zM319 365h136q50 0 70.5 18.5t20.5 63.5t-21 62.5t-73 17.5h-133v-162z" />
    <glyph glyph-name="trademark" unicode="&#x2122;" horiz-adv-x="1106" 
d="M498 283v458h116l130 -324l130 324h116v-458h-101v284l-112 -284h-69l-113 284v-284h-97zM203 283v365h-151v93h405v-93h-151v-365h-103z" />
    <glyph glyph-name="estimated" unicode="&#x212e;" horiz-adv-x="656" 
d="M621 289h-441q0 -84 3.5 -119t17.5 -59q47 -78 158 -78q67 0 120 25.5t85 68.5h12l26 -31q-41 -51 -106.5 -79.5t-140.5 -28.5q-143 0 -220.5 84t-77.5 221q0 132 77.5 216.5t213.5 84.5q67 0 121 -26t86 -67t49 -86.5t17 -88.5v-37zM180 328h308q-4 117 -12 146
q-15 58 -71 73q-28 8 -71 8q-100 0 -129.5 -47t-24.5 -180z" />
    <glyph glyph-name="partialdiff" unicode="&#x2202;" horiz-adv-x="655" 
d="M326 -11q-287 0 -287 276q0 274 248 274q125 0 166 -45q-25 111 -159 255l130 46q88 -79 140 -206t52 -287q0 -165 -70.5 -239t-219.5 -74zM326 109q82 0 117 40.5t35 119.5t-34.5 117.5t-117.5 38.5q-80 0 -115 -39t-35 -117t35 -119t115 -41z" />
    <glyph glyph-name="product" unicode="&#x220f;" horiz-adv-x="769" 
d="M78 -177v918h613v-918h-142v791h-331v-791h-140z" />
    <glyph glyph-name="summation" unicode="&#x2211;" horiz-adv-x="660" 
d="M36 -165v106l239 350l-228 333v117h558v-129h-387l217 -321l-223 -333h410v-123h-586z" />
    <glyph glyph-name="minus" unicode="&#x2212;" horiz-adv-x="716" 
d="M97 290v126h522v-126h-522z" />
    <glyph glyph-name="radical" unicode="&#x221a;" horiz-adv-x="684" 
d="M214 -6l-174 444h144l105 -275l221 578h135l-289 -747h-142z" />
    <glyph glyph-name="infinity" unicode="&#x221e;" horiz-adv-x="887" 
d="M253 170q-95 0 -144.5 45.5t-49.5 128.5t50 129.5t144 46.5q92 0 192 -102q100 102 190 102q88 0 140.5 -42.5t52.5 -133.5q0 -89 -53.5 -131.5t-139.5 -42.5q-96 0 -193 101q-99 -101 -189 -101zM256 272q50 0 119 71q-70 74 -119 74q-89 0 -89 -73q0 -72 89 -72z
M633 417q-50 0 -120 -72q69 -73 120 -73q87 0 87 72q0 73 -87 73z" />
    <glyph glyph-name="integral" unicode="&#x222b;" horiz-adv-x="429" 
d="M-5 -167v113h56q47 0 64.5 19.5t17.5 60.5v572q0 97 44.5 145t156.5 48q57 0 72 -1v-112h-54q-47 0 -65 -20t-18 -59v-573q0 -98 -44.5 -146.5t-157.5 -48.5q-38 0 -72 2z" />
    <glyph glyph-name="approxequal" unicode="&#x2248;" horiz-adv-x="716" 
d="M175 384l-76 63q85 108 168 108q41 0 99.5 -28.5t82.5 -28.5q39 0 91 63l76 -64q-87 -108 -165 -108q-38 0 -96 29t-86 29q-43 0 -94 -63zM175 142l-76 64q85 107 168 107q41 0 99.5 -29t82.5 -29q38 0 91 64l76 -64q-88 -109 -165 -109q-38 0 -96 29t-86 29
q-44 0 -94 -62z" />
    <glyph glyph-name="notequal" unicode="&#x2260;" horiz-adv-x="716" 
d="M169 66l49 106h-115v121h173l55 119h-228v121h280l50 107h113l-51 -107h119v-121h-175l-56 -119h231v-121h-282l-49 -106h-114z" />
    <glyph glyph-name="lessequal" unicode="&#x2264;" horiz-adv-x="716" 
d="M110 9v120h380l-380 184v90l457 220v-127l-315 -141l315 -141v-205h-457z" />
    <glyph glyph-name="greaterequal" unicode="&#x2265;" horiz-adv-x="716" 
d="M149 9v205l315 141l-315 141v127l457 -220v-90l-381 -184h381v-120h-457z" />
    <glyph glyph-name="lozenge" unicode="&#x25ca;" horiz-adv-x="638" 
d="M248 0l-225 371l226 370h133l226 -370l-226 -371h-134zM316 108l154 260l-156 265l-155 -261z" />
    <glyph glyph-name="apple" unicode="&#xf8ff;" horiz-adv-x="832" 
d="M172 654l-7 8q107 97 251 97t252 -97l-7 -8q-105 95 -245 95q-139 0 -244 -95zM416 -17q-144 0 -252 97l7 8q105 -95 245 -95q139 0 244 94l2 -1l4 -4l1 -2q-107 -97 -251 -97zM706 120q-3 3 -8 7q88 106 88 244t-88 244l8 7q90 -108 90 -251q0 -142 -90 -251zM126 120
q-90 108 -90 251q0 142 90 250q3 -2 7 -6q-87 -106 -87 -244t88 -244zM416 60q-116 0 -201 77l7 7q84 -74 194 -74q111 0 193 74l7 -8q-86 -76 -200 -76zM610 597q-81 75 -194 75q-110 0 -194 -74l-7 7q87 77 201 77t201 -77zM183 170q-72 88 -72 201t71 200l8 -7
q-69 -83 -69 -193q0 -111 69 -194zM649 171l-7 6q69 85 69 194q0 110 -70 193l8 7q72 -86 72 -200t-72 -200zM416 121q-92 0 -161 61l7 8q65 -59 154 -59t153 59l7 -8q-67 -61 -160 -61zM604 211q-3 2 -8 7q55 66 55 153q0 89 -55 153l8 7q57 -68 57 -160t-57 -160zM570 552
q-65 59 -154 59q-87 0 -153 -58l-7 7q69 61 160 61q92 0 161 -61zM228 211q-57 70 -57 160t56 160l8 -7q-54 -67 -54 -153q0 -88 54 -153zM295 516l-7 8q54 48 128 48t128 -49l-2 -1l-2 -4l-2 -2q-52 46 -122 46t-121 -46zM568 243l-8 7q43 53 43 121t-43 121l8 7
q45 -56 45 -128t-45 -128zM264 243q-45 56 -45 128t45 128l8 -7q-43 -53 -43 -121t43 -121zM416 170q-72 0 -129 49l7 7q52 -46 122 -46t121 46l7 -8q-54 -48 -128 -48zM540 269l-8 7q33 43 33 95q0 53 -34 95l8 7q36 -44 36 -102q0 -57 -35 -102zM416 209q-57 0 -103 38
l7 8q43 -36 96 -36t96 36l6 -8q-45 -38 -102 -38zM292 269q-35 45 -35 102q0 58 36 102l7 -7q-33 -43 -33 -95t33 -95zM320 487l-7 8q44 38 103 38q58 0 102 -39l-6 -7q-41 36 -96 36q-53 0 -96 -36zM416 240q-48 0 -83 30l7 8q35 -28 76 -28q42 0 75 28l7 -7
q-36 -31 -82 -31zM316 289q-28 36 -28 82q0 47 28 81q1 -1 2.5 -2t2.5 -2.5t2 -2.5q-25 -33 -25 -74t26 -75zM516 290l-7 7q25 33 25 74t-26 75l8 7q28 -36 28 -82q0 -47 -28 -81zM341 464l-7 7q36 31 82 31q47 0 82 -30l-7 -8q-33 28 -75 28t-75 -28zM358 445l-8 8
q29 24 66 24t66 -24l-8 -8q-25 22 -58 22t-58 -22zM416 265q-37 0 -66 24l7 8q25 -22 59 -22q33 0 58 22l7 -8q-29 -24 -65 -24zM334 306q-21 29 -21 65t21 65l8 -7q-19 -25 -19 -58q0 -32 19 -57zM498 306l-8 7q19 25 19 58t-19 58l7 7q22 -28 22 -65q0 -34 -21 -65z
M416 285q-29 0 -53 19l7 8q22 -17 46 -17q25 0 45 17l7 -8q-22 -19 -52 -19zM371 430l-7 8q22 19 52 19t52 -19l-7 -8q-19 17 -45 17t-45 -17zM349 320q-16 22 -16 51t16 51l8 -7q-14 -20 -14 -44t14 -44zM482 319q-3 4 -7 7q14 20 14 45t-14 44l7 7q17 -22 17 -51t-17 -52z
M468 333l-8 7q10 15 10 31t-10 31l8 7q12 -16 12 -38q0 -21 -12 -38zM416 305q-21 0 -40 14l7 7q17 -12 33 -12q17 0 32 12l7 -7q-17 -14 -39 -14zM364 333q-12 17 -12 38t12 38l7 -7q-9 -16 -9 -31t9 -31zM384 416l-7 7q17 14 39 14q21 0 38 -14l-6 -7q-14 12 -32 12
q-17 0 -32 -12zM416 324q-15 0 -27 9l6 6q11 -7 21 -7q13 0 21 7q2 -2 5 -6q-10 -9 -26 -9zM395 403l-5 6q10 9 26 9t26 -9l-5 -6q-10 7 -21 7q-13 0 -21 -7zM378 346q-7 12 -7 25t7 25l6 -5q-5 -10 -5 -20t5 -20q-2 -2 -6 -5zM454 346l-6 5q5 10 5 20t-5 20l6 5
q7 -12 7 -25t-7 -25z" />
    <glyph glyph-name="onesuperior" horiz-adv-x="363" 
d="M146 263v386h-85v92h193v-478h-108z" />
    <glyph glyph-name="twosuperior" horiz-adv-x="495" 
d="M63 263v74l152 136q62 55 79 77t17 54q0 28 -19 41.5t-66 13.5q-70 0 -123 -29l-47 80q75 39 184 39q88 0 131.5 -31.5t43.5 -101.5q0 -54 -25 -90.5t-93 -96.5l-88 -81h210v-85h-356z" />
    <glyph glyph-name="a.alt" horiz-adv-x="668" 
d="M282 -9q-69 0 -118 22t-75.5 63.5t-38 92t-11.5 116.5q0 65 11.5 115t39 91t77 62.5t120.5 21.5q150 0 195 -60l27 52l93 -8v-553l-105 -11l-14 59q-27 -33 -73 -48t-128 -15zM314 110q83 0 117 41t34 134q0 91 -32 128t-119 37q-79 0 -108 -41.5t-29 -123.5
q0 -85 29.5 -130t107.5 -45z" />
    <glyph glyph-name="g.alt" horiz-adv-x="673" 
d="M322 -179q-152 0 -249 38l43 112q92 -34 188 -34q56 0 90 6.5t50.5 22.5t21 34.5t4.5 49.5v13q-33 -33 -76.5 -45.5t-113.5 -12.5q-123 0 -182 77t-59 208q0 286 248 286q149 0 200 -60l28 51l92 -8v-472q0 -47 -3 -77.5t-12 -64t-28 -53.5t-50 -38t-79 -25.5t-113 -7.5z
M314 123q83 0 119.5 40t36.5 126q0 87 -35 124t-121 37q-77 0 -107 -41t-30 -120t30 -122.5t107 -43.5z" />
    <glyph glyph-name="l.alt" horiz-adv-x="279" 
d="M72 0v776h135v-776h-135z" />
    <glyph glyph-name="u.alt" horiz-adv-x="652" 
d="M267 -11q-117 0 -160.5 58.5t-43.5 174.5v341h136v-317q0 -69 21.5 -101.5t91.5 -32.5q82 0 109 35t27 106v310h138v-557l-105 -11l-13 58q-54 -64 -201 -64z" />
    <glyph glyph-name="aacute.alt" horiz-adv-x="668" 
d="M236 618l143 177h165l-186 -177h-122zM282 -9q-69 0 -118 22t-75.5 63.5t-38 92t-11.5 116.5q0 65 11.5 115t39 91t77 62.5t120.5 21.5q150 0 195 -60l27 52l93 -8v-553l-105 -11l-14 59q-27 -33 -73 -48t-128 -15zM314 110q83 0 117 41t34 134q0 91 -32 128t-119 37
q-79 0 -108 -41.5t-29 -123.5q0 -85 29.5 -130t107.5 -45z" />
    <glyph glyph-name="abreve.alt" horiz-adv-x="668" 
d="M282 -9q-69 0 -118 22t-75.5 63.5t-38 92t-11.5 116.5q0 65 11.5 115t39 91t77 62.5t120.5 21.5q150 0 195 -60l27 52l93 -8v-553l-105 -11l-14 59q-27 -33 -73 -48t-128 -15zM314 110q83 0 117 41t34 134q0 91 -32 128t-119 37q-79 0 -108 -41.5t-29 -123.5
q0 -85 29.5 -130t107.5 -45zM332 604q-100 0 -144.5 46.5t-63.5 139.5l99 19q12 -52 34.5 -74.5t74.5 -22.5q53 0 75.5 22.5t33.5 74.5l100 -18q-19 -93 -64 -140t-145 -47z" />
    <glyph glyph-name="acircumflex.alt" horiz-adv-x="668" 
d="M106 618l155 177h142l155 -177h-129l-99 91l-97 -91h-127zM282 -9q-69 0 -118 22t-75.5 63.5t-38 92t-11.5 116.5q0 65 11.5 115t39 91t77 62.5t120.5 21.5q150 0 195 -60l27 52l93 -8v-553l-105 -11l-14 59q-27 -33 -73 -48t-128 -15zM314 110q83 0 117 41t34 134
q0 91 -32 128t-119 37q-79 0 -108 -41.5t-29 -123.5q0 -85 29.5 -130t107.5 -45z" />
    <glyph glyph-name="adieresis.alt" horiz-adv-x="668" 
d="M159 622v129h124v-129h-124zM382 622v129h123v-129h-123zM282 -9q-69 0 -118 22t-75.5 63.5t-38 92t-11.5 116.5q0 65 11.5 115t39 91t77 62.5t120.5 21.5q150 0 195 -60l27 52l93 -8v-553l-105 -11l-14 59q-27 -33 -73 -48t-128 -15zM314 110q83 0 117 41t34 134
q0 91 -32 128t-119 37q-79 0 -108 -41.5t-29 -123.5q0 -85 29.5 -130t107.5 -45z" />
    <glyph glyph-name="agrave.alt" horiz-adv-x="668" 
d="M282 -9q-69 0 -118 22t-75.5 63.5t-38 92t-11.5 116.5q0 65 11.5 115t39 91t77 62.5t120.5 21.5q150 0 195 -60l27 52l93 -8v-553l-105 -11l-14 59q-27 -33 -73 -48t-128 -15zM314 110q83 0 117 41t34 134q0 91 -32 128t-119 37q-79 0 -108 -41.5t-29 -123.5
q0 -85 29.5 -130t107.5 -45zM306 618l-186 177h165l144 -177h-123z" />
    <glyph glyph-name="amacron.alt" horiz-adv-x="668" 
d="M282 -9q-69 0 -118 22t-75.5 63.5t-38 92t-11.5 116.5q0 65 11.5 115t39 91t77 62.5t120.5 21.5q150 0 195 -60l27 52l93 -8v-553l-105 -11l-14 59q-27 -33 -73 -48t-128 -15zM314 110q83 0 117 41t34 134q0 91 -32 128t-119 37q-79 0 -108 -41.5t-29 -123.5
q0 -85 29.5 -130t107.5 -45zM130 609v112h405v-112h-405z" />
    <glyph glyph-name="aogonek.alt" horiz-adv-x="668" 
d="M282 -9q-69 0 -118 22t-75.5 63.5t-38 92t-11.5 116.5q0 65 11.5 115t39 91t77 62.5t120.5 21.5q150 0 195 -60l27 52l93 -8v-554q-100 -59 -100 -109q0 -21 11.5 -31t43.5 -10q36 0 79 15l26 -75q-57 -27 -122 -27q-79 0 -111 26t-32 75q0 84 96 143l-10 42
q-27 -33 -73 -48t-128 -15zM314 110q83 0 117 41t34 134q0 91 -32 128t-119 37q-79 0 -108 -41.5t-29 -123.5q0 -85 29.5 -130t107.5 -45z" />
    <glyph glyph-name="aring.alt" horiz-adv-x="668" 
d="M332 603q-69 0 -103 38.5t-34 101.5q0 64 34 103t103 39q67 0 102 -39.5t35 -102.5q0 -62 -35 -101t-102 -39zM332 673q34 0 50.5 19.5t16.5 50.5q0 71 -67 71t-67 -71q0 -70 67 -70zM282 -9q-69 0 -118 22t-75.5 63.5t-38 92t-11.5 116.5q0 65 11.5 115t39 91t77 62.5
t120.5 21.5q150 0 195 -60l27 52l93 -8v-553l-105 -11l-14 59q-27 -33 -73 -48t-128 -15zM314 110q83 0 117 41t34 134q0 91 -32 128t-119 37q-79 0 -108 -41.5t-29 -123.5q0 -85 29.5 -130t107.5 -45z" />
    <glyph glyph-name="atilde.alt" horiz-adv-x="668" 
d="M282 -9q-69 0 -118 22t-75.5 63.5t-38 92t-11.5 116.5q0 65 11.5 115t39 91t77 62.5t120.5 21.5q150 0 195 -60l27 52l93 -8v-553l-105 -11l-14 59q-27 -33 -73 -48t-128 -15zM314 110q83 0 117 41t34 134q0 91 -32 128t-119 37q-79 0 -108 -41.5t-29 -123.5
q0 -85 29.5 -130t107.5 -45zM183 616l-79 64q81 99 157 99q37 0 77 -26t61 -26q35 0 82 57l78 -63q-83 -103 -157 -103q-35 0 -76 26t-63 26q-37 0 -80 -54z" />
    <glyph glyph-name="gbreve.alt" horiz-adv-x="673" 
d="M322 -179q-152 0 -249 38l43 112q92 -34 188 -34q56 0 90 6.5t50.5 22.5t21 34.5t4.5 49.5v13q-33 -33 -76.5 -45.5t-113.5 -12.5q-123 0 -182 77t-59 208q0 286 248 286q149 0 200 -60l28 51l92 -8v-472q0 -47 -3 -77.5t-12 -64t-28 -53.5t-50 -38t-79 -25.5t-113 -7.5z
M314 123q83 0 119.5 40t36.5 126q0 87 -35 124t-121 37q-77 0 -107 -41t-30 -120t30 -122.5t107 -43.5zM336 604q-100 0 -144.5 46.5t-63.5 139.5l99 19q12 -52 34.5 -74.5t74.5 -22.5q53 0 75.5 22.5t33.5 74.5l100 -18q-19 -93 -64 -140t-145 -47z" />
    <glyph glyph-name="gcommaaccent.alt" horiz-adv-x="673" 
d="M265 617v88q0 75 20.5 107t90.5 63l29 -58q-41 -20 -53 -33.5t-12 -38.5h66v-128h-141zM322 -179q-152 0 -249 38l43 112q92 -34 188 -34q56 0 90 6.5t50.5 22.5t21 34.5t4.5 49.5v13q-33 -33 -76.5 -45.5t-113.5 -12.5q-123 0 -182 77t-59 208q0 286 248 286
q149 0 200 -60l28 51l92 -8v-472q0 -47 -3 -77.5t-12 -64t-28 -53.5t-50 -38t-79 -25.5t-113 -7.5zM314 123q83 0 119.5 40t36.5 126q0 87 -35 124t-121 37q-77 0 -107 -41t-30 -120t30 -122.5t107 -43.5z" />
    <glyph glyph-name="lacute.alt" horiz-adv-x="279" 
d="M76 815l143 177h165l-186 -177h-122zM72 0v776h135v-776h-135z" />
    <glyph glyph-name="lcommaaccent.alt" horiz-adv-x="279" 
d="M101 -309l-31 59q42 20 54 33t12 38h-67v140h141v-100q0 -75 -20 -107t-89 -63zM72 0v776h135v-776h-135z" />
    <glyph glyph-name="lslash.alt" horiz-adv-x="319" 
d="M0 337v118l92 53v268h135v-189l91 53v-118l-91 -53v-469h-135v390z" />
    <glyph glyph-name="lcaron.alt" horiz-adv-x="416" 
d="M304 506l-30 59q42 20 53.5 33t11.5 38h-60v140h135v-100q0 -75 -20.5 -107t-89.5 -63zM72 0v776h135v-776h-135z" />
    <glyph glyph-name="uacute.alt" horiz-adv-x="652" 
d="M228 618l143 177h165l-186 -177h-122zM267 -11q-117 0 -160.5 58.5t-43.5 174.5v341h136v-317q0 -69 21.5 -101.5t91.5 -32.5q82 0 109 35t27 106v310h138v-557l-105 -11l-13 58q-54 -64 -201 -64z" />
    <glyph glyph-name="ucircumflex.alt" horiz-adv-x="652" 
d="M98 618l155 177h142l155 -177h-129l-99 91l-97 -91h-127zM267 -11q-117 0 -160.5 58.5t-43.5 174.5v341h136v-317q0 -69 21.5 -101.5t91.5 -32.5q82 0 109 35t27 106v310h138v-557l-105 -11l-13 58q-54 -64 -201 -64z" />
    <glyph glyph-name="udieresis.alt" horiz-adv-x="652" 
d="M151 622v129h124v-129h-124zM374 622v129h123v-129h-123zM267 -11q-117 0 -160.5 58.5t-43.5 174.5v341h136v-317q0 -69 21.5 -101.5t91.5 -32.5q82 0 109 35t27 106v310h138v-557l-105 -11l-13 58q-54 -64 -201 -64z" />
    <glyph glyph-name="ugrave.alt" horiz-adv-x="652" 
d="M298 618l-186 177h165l144 -177h-123zM267 -11q-117 0 -160.5 58.5t-43.5 174.5v341h136v-317q0 -69 21.5 -101.5t91.5 -32.5q82 0 109 35t27 106v310h138v-557l-105 -11l-13 58q-54 -64 -201 -64z" />
    <glyph glyph-name="uhungarumlaut.alt" horiz-adv-x="652" 
d="M98 618l126 176h158l-169 -176h-115zM357 618l126 176h158l-168 -176h-116zM267 -11q-117 0 -160.5 58.5t-43.5 174.5v341h136v-317q0 -69 21.5 -101.5t91.5 -32.5q82 0 109 35t27 106v310h138v-557l-105 -11l-13 58q-54 -64 -201 -64z" />
    <glyph glyph-name="umacron.alt" horiz-adv-x="652" 
d="M122 609v112h405v-112h-405zM267 -11q-117 0 -160.5 58.5t-43.5 174.5v341h136v-317q0 -69 21.5 -101.5t91.5 -32.5q82 0 109 35t27 106v310h138v-557l-105 -11l-13 58q-54 -64 -201 -64z" />
    <glyph glyph-name="uogonek.alt" horiz-adv-x="652" 
d="M267 -11q-117 0 -160.5 58.5t-43.5 174.5v341h136v-317q0 -69 21.5 -101.5t91.5 -32.5q82 0 109 35t27 106v310h138v-558q-100 -59 -100 -109q0 -21 11 -31t44 -10q35 0 78 15l27 -75q-59 -27 -123 -27q-78 0 -110 26t-32 75q0 46 29 83t67 60l-9 41q-54 -64 -201 -64z
" />
    <glyph glyph-name="uring.alt" horiz-adv-x="652" 
d="M324 603q-69 0 -103 38.5t-34 101.5q0 64 34 103t103 39q67 0 102 -39.5t35 -102.5q0 -62 -35 -101t-102 -39zM324 673q34 0 50.5 19.5t16.5 50.5q0 71 -67 71t-67 -71q0 -70 67 -70zM267 -11q-117 0 -160.5 58.5t-43.5 174.5v341h136v-317q0 -69 21.5 -101.5t91.5 -32.5
q82 0 109 35t27 106v310h138v-557l-105 -11l-13 58q-54 -64 -201 -64z" />
    <glyph glyph-name="fl.alt" horiz-adv-x="690" 
d="M27 443v120h106v34q0 98 44.5 146.5t156.5 48.5q42 0 72 -2v-114h-54q-47 0 -65 -19.5t-18 -58.5v-35h137v-120h-137v-443h-136v443h-106zM482 0v776h137v-776h-137z" />
    <glyph glyph-name="f_f_l.alt" horiz-adv-x="1040" 
d="M482 0v443h-213v-443h-136v443h-106v120h106v34q0 98 44.5 146.5t156.5 48.5q42 0 72 -2v-114h-54q-47 0 -65 -19.5t-18 -58.5v-35h213v34q0 98 44.5 146.5t157.5 48.5q41 0 71 -2v-114h-53q-48 0 -65.5 -19.5t-17.5 -58.5v-35h136v-120h-136v-443h-137zM832 0v776h136
v-776h-136z" />
    <glyph glyph-name="commaaccent.2" horiz-adv-x="280" 
d="M69 617v88q0 75 20.5 107t90.5 63l29 -58q-41 -20 -53 -33.5t-12 -38.5h66v-128h-141z" />
    <glyph glyph-name="space.lftab" horiz-adv-x="375" 
 />
    <glyph glyph-name="comma.lftab" horiz-adv-x="375" 
d="M143 -147l-34 67q48 24 61 37.5t13 42.5h-76v162h162v-116q0 -85 -23 -121.5t-103 -71.5z" />
    <glyph glyph-name="period.lftab" horiz-adv-x="375" 
d="M107 0v162h162v-162h-162z" />
    <glyph glyph-name="minus.lftab" 
d="M114 290v126h522v-126h-522z" />
    <glyph glyph-name="multiply.lftab" 
d="M223 115l-83 86l151 151l-151 152l84 86l152 -151l150 151l84 -86l-151 -152l151 -150l-84 -87l-150 152z" />
    <glyph glyph-name="quotedbl.lftab" 
d="M196 411l-9 330h142l-8 -330h-125zM430 411l-9 330h143l-9 -330h-125z" />
    <glyph glyph-name="numbersign.lftab" 
d="M116 0l37 188h-112v121h134l20 103h-154v123h177l41 206h130l-41 -206h115l40 206h130l-39 -206h116v-123h-139l-20 -103h159v-121h-182l-36 -188h-131l36 188h-114l-36 -188h-131zM294 302h135l23 118h-135z" />
    </font>
</defs>
</svg>
