<?xml version="1.0" encoding="UTF-8"?>
<svg xmlns="http://www.w3.org/2000/svg" xmlns:xlink="http://www.w3.org/1999/xlink" version="1.2" >
<font id="DaimlerCAC-Regular">
<font-face  font-family="Daimler CAC" units-per-em="2048" ascent="1645" descent="-403" font-style="normal" font-weight="400" font-stretch="normal" cap-height="1365" x-height="967" underline-position="-218" underline-thickness="79" />
<missing-glyph  horiz-adv-x="430" d="M43 0 L43 1365 L387 1365 L387 0 L43 0 Z M344 43 L344 1322 L86 1322 L86 43 L344 43 Z " />
<glyph glyph-name="space" unicode="&#x20;" horiz-adv-x="430" d="" />
<glyph glyph-name="exclam" unicode="&#x21;" horiz-adv-x="434" d="M177 410 L147 1340 L288 1340 L258 410 L177 410 Z M222 186 Q262 186 291 156.5 Q320 127 320 87 Q320 45 291 16 Q262 -13 221 -13 Q179 -13 150 16.5 Q121 46 121 87 Q121 128 150.5 157 Q180 186 222 186 Z " />
<glyph glyph-name="quotedbl" unicode="&#x22;" horiz-adv-x="639" d="M249 818 L161 818 L143 1365 L268 1365 L249 818 Z M478 818 L390 818 L372 1365 L496 1365 L478 818 Z " />
<glyph glyph-name="numbersign" unicode="&#x23;" horiz-adv-x="1015" d="M893 541 L881 441 L696 441 L641 0 L538 0 L594 441 L357 441 L301 0 L199 0 L255 441 L70 441 L82 541 L267 541 L306 850 L122 850 L134 950 L319 950 L372 1365 L474 1365 L422 950 L659 950 L711 1365 L814 1365 L761 950 L945 950 L932 850 L748 850 L709 541 L893 541 Z M646 850 L409 850 L370 541 L607 541 L646 850 Z " />
<glyph glyph-name="dollar" unicode="&#x24;" horiz-adv-x="877" d="M406 -16 Q286 -2 188 97 L132 -31 L101 -31 L101 413 L147 413 Q191 72 406 47 L406 636 Q302 702 250 745 Q180 802 149 870 Q118 938 118 1033 Q118 1182 195.5 1276 Q273 1370 406 1383 L406 1550 L467 1550 L467 1382 Q574 1370 646 1279 L692 1392 L723 1392 L723 1015 L677 1015 Q650 1164 600.5 1236.5 Q551 1309 467 1320 L467 791 L496 773 Q606 701 658 654 Q776 547 776 363 Q776 200 692 96.5 Q608 -7 467 -18 L467 -185 L406 -185 L406 -16 Z M406 833 L406 1318 Q375 1311 353 1299 Q303 1269 273.5 1209.5 Q244 1150 244 1078 Q244 996 275.5 948.5 Q307 901 406 833 Z M467 597 L467 49 Q503 56 530 72 Q580 101 608 153 Q648 226 648 312 Q648 437 578 510 Q552 536 467 597 Z " />
<glyph glyph-name="percent" unicode="&#x25;" horiz-adv-x="1016" d="M282 1376 Q359 1376 414 1314 Q449 1273 471 1200 Q493 1127 493 1051 Q493 965 466.5 887.5 Q440 810 397 771 Q344 723 277 723 Q181 723 122 814 Q63 905 63 1054 Q63 1137 89 1211 Q115 1285 159 1326 Q212 1376 282 1376 Z M280 1327 Q228 1327 199.5 1257 Q171 1187 171 1062 Q171 772 278 772 Q385 772 385 1048 Q385 1327 280 1327 Z M150 0 L791 1365 L865 1365 L224 0 L150 0 Z M741 643 Q819 643 873 580 Q908 540 930 467 Q952 394 952 317 Q952 231 926 154 Q900 77 857 38 Q803 -11 736 -11 Q659 -11 601 54 Q566 93 544.5 166.5 Q523 240 523 319 Q523 402 549 477 Q575 552 618 593 Q672 643 741 643 Z M739 594 Q631 594 631 313 Q631 38 738 38 Q844 38 844 317 Q844 594 739 594 Z " />
<glyph glyph-name="ampersand" unicode="&#x26;" horiz-adv-x="987" d="M454 734 L722 276 Q785 386 785 501 Q785 539 766.5 554 Q748 569 698 572 L698 630 Q765 621 818 621 Q871 621 938 630 L938 572 Q881 568 863.5 550.5 Q846 533 842 474 Q830 328 764 209 L807 132 Q844 67 865 52 Q886 37 947 35 L947 -6 Q889 1 844 1 Q800 1 741 -6 L680 104 Q609 34 548 5.5 Q487 -23 411 -23 Q256 -23 157 87 Q65 188 65 345 Q65 460 116.5 550 Q168 640 296 751 Q218 894 198 946.5 Q178 999 178 1066 Q178 1204 264 1282 Q330 1342 417 1342 Q510 1342 569 1275 Q631 1204 631 1089 Q631 1002 593 925.5 Q555 849 454 734 Z M390 843 Q448 908 478 956 Q528 1036 528 1120 Q528 1192 495.5 1239 Q463 1286 413 1286 Q366 1286 330 1245 Q286 1195 286 1114 Q286 1057 309 996.5 Q332 936 390 843 Z M359 644 Q292 584 260 534 Q205 448 205 335 Q205 265 228 203 Q251 141 290 104 Q348 50 429 50 Q484 50 530.5 75.5 Q577 101 640 165 L359 644 Z " />
<glyph glyph-name="quotesingle" unicode="&#x27;" horiz-adv-x="410" d="M249 818 L161 818 L143 1365 L268 1365 L249 818 Z " />
<glyph glyph-name="parenleft" unicode="&#x28;" horiz-adv-x="527" d="M371 1399 L424 1399 Q278 1016 278 483 Q278 -50 424 -433 L371 -433 Q293 -316 246 -204 Q125 82 125 483 Q125 765 184.5 986.5 Q244 1208 371 1399 Z " />
<glyph glyph-name="parenright" unicode="&#x29;" horiz-adv-x="527" d="M157 -433 L103 -433 Q250 -47 250 483 Q250 1014 103 1399 L157 1399 Q234 1282 281 1170 Q402 884 402 483 Q402 202 342.5 -20 Q283 -242 157 -433 Z " />
<glyph glyph-name="asterisk" unicode="&#x2a;" horiz-adv-x="877" d="M380 1326 L498 1326 L465 1067 L668 1165 L700 1049 L480 1015 L654 822 L556 751 L439 980 L322 751 L225 822 L398 1015 L178 1049 L210 1165 L413 1067 L380 1326 Z " />
<glyph glyph-name="plus" unicode="&#x2b;" horiz-adv-x="877" d="M98 636 L98 745 L383 745 L383 1109 L494 1109 L494 745 L779 745 L779 636 L494 636 L494 272 L383 272 L383 636 L98 636 Z " />
<glyph glyph-name="comma" unicode="&#x2c;" horiz-adv-x="404" d="M154 -341 L72 -341 Q195 -176 214 -9 L208 -9 Q199 -12 192 -12 Q157 -12 134.5 16.5 Q112 45 112 91 Q112 140 139 172 Q166 204 208 204 Q252 204 278.5 167 Q305 130 305 68 Q305 -108 154 -341 Z " />
<glyph glyph-name="hyphen" unicode="&#x2d;" horiz-adv-x="441" d="M10 503 L10 591 L431 591 L431 503 L10 503 Z " />
<glyph glyph-name="period" unicode="&#x2e;" horiz-adv-x="404" d="M207 189 Q247 189 276 159.5 Q305 130 305 90 Q305 48 276 19 Q247 -10 206 -10 Q164 -10 135 19.5 Q106 49 106 90 Q106 131 135.5 160 Q165 189 207 189 Z " />
<glyph glyph-name="slash" unicode="&#x2f;" horiz-adv-x="693" d="M-131 -398 L564 1365 L665 1365 L-30 -398 L-131 -398 Z " />
<glyph glyph-name="zero" unicode="0" horiz-adv-x="877" d="M441 1354 Q554 1354 637 1262 Q707 1185 748 999 Q782 842 782 668 Q782 529 756.5 385.5 Q731 242 693 164 Q603 -18 440 -18 Q282 -18 201 132 Q95 329 95 700 Q95 997 204 1204 Q240 1273 304 1313.5 Q368 1354 441 1354 Z M439 1295 Q375 1295 330 1214 Q307 1173 297 1135 Q249 948 249 697 Q249 41 441 41 Q504 41 546 116 Q628 263 628 656 Q628 1035 562 1183 Q512 1295 439 1295 Z " />
<glyph glyph-name="one" unicode="1" horiz-adv-x="877" d="M523 1399 L523 180 Q523 99 545 75.5 Q567 52 651 44 L651 -6 Q550 7 449 7 Q347 7 246 -6 L246 44 Q331 52 353 75.5 Q375 99 375 180 L375 1120 L198 1120 L198 1170 Q415 1194 474 1399 L523 1399 Z " />
<glyph glyph-name="two" unicode="2" horiz-adv-x="878" d="M743 143 L727 0 L115 0 L115 114 Q290 379 365 501.5 Q440 624 500 747 Q577 902 577 1028 Q577 1122 529 1181 Q481 1240 405 1240 Q331 1240 277 1184 Q208 1113 193 954 L136 954 Q158 1354 444 1354 Q575 1354 655 1264 Q733 1176 733 1042 Q733 907 634 737 Q546 584 242 143 L743 143 Z " />
<glyph glyph-name="three" unicode="3" horiz-adv-x="878" d="M102 379 L164 379 Q177 85 374 85 Q478 85 540 168 Q601 250 601 388 Q601 517 547 597 Q490 681 337 681 L325 681 L325 744 Q338 743 341 743 Q466 743 522 843 Q561 913 561 1010 Q561 1148 497 1209 Q452 1250 389 1250 Q306 1250 257 1188.5 Q208 1127 187 998 L131 998 Q158 1354 425 1354 Q558 1354 636 1266 Q714 1178 714 1033 Q714 801 503 726 Q757 651 757 381 Q757 288 723.5 203.5 Q690 119 632 65 Q543 -19 414 -19 Q276 -19 192 75 Q150 122 126 199 Q102 276 102 362 Q102 367 102 379 Z " />
<glyph glyph-name="four" unicode="4" horiz-adv-x="878" d="M483 -31 L483 354 L41 354 L485 1368 L631 1368 L631 482 L799 482 L799 354 L631 354 L631 -31 L483 -31 Z M483 482 L484 1230 L162 482 L483 482 Z " />
<glyph glyph-name="five" unicode="5" horiz-adv-x="878" d="M689 1193 L272 1193 L218 797 Q313 912 438 912 Q565 912 649 814 Q698 758 727 662.5 Q756 567 756 465 Q756 295 677 150 Q586 -18 406 -18 Q276 -18 203.5 68.5 Q131 155 122 322 L184 322 Q206 86 370 86 Q474 86 537 189.5 Q600 293 600 464 Q600 619 543 717 Q486 814 385 814 Q263 814 196 660 L136 664 L230 1336 L704 1336 L689 1193 Z " />
<glyph glyph-name="six" unicode="6" horiz-adv-x="878" d="M608 1420 L692 1420 Q466 1154 345 895 Q409 922 462 922 Q559 922 637 847 Q771 719 771 461 Q771 279 696 147 Q651 68 583.5 25 Q516 -18 436 -18 Q305 -18 210 90 Q158 149 127.5 249 Q97 349 97 458 Q97 718 281 1005 Q417 1218 608 1420 Z M435 855 Q254 855 254 438 Q254 225 311 122 Q355 42 432 42 Q510 42 555 125 Q611 227 611 443 Q611 855 435 855 Z " />
<glyph glyph-name="seven" unicode="7" horiz-adv-x="878" d="M149 0 L637 1187 L106 1187 L106 1336 L769 1336 L309 0 L149 0 Z " />
<glyph glyph-name="eight" unicode="8" horiz-adv-x="878" d="M572 699 Q761 618 761 372 Q761 276 730 192 Q699 108 645 58 Q561 -18 439 -18 Q296 -18 207 84 Q117 187 117 369 Q117 599 305 699 Q245 732 213 770 Q143 856 143 1001 Q143 1086 172 1161 Q201 1236 251 1281 Q331 1354 446 1354 Q574 1354 651 1266 Q690 1222 712.5 1152.5 Q735 1083 735 1009 Q735 794 572 699 Z M443 667 Q365 667 317.5 583.5 Q270 500 270 364 Q270 193 331 102 Q372 41 439 41 Q496 41 540 92 Q568 125 588 203 Q608 281 608 359 Q608 450 587 524 Q566 598 531 631 Q492 667 443 667 Z M444 1295 Q373 1295 334.5 1218.5 Q296 1142 296 1001 Q296 918 314 852.5 Q332 787 363 759 Q398 727 439 727 Q505 727 543.5 802 Q582 877 582 1007 Q582 1202 516 1265 Q484 1295 444 1295 Z " />
<glyph glyph-name="nine" unicode="9" horiz-adv-x="877" d="M286 -86 L202 -86 Q425 189 525 439 Q463 414 414 414 Q326 414 253 484 Q120 613 120 877 Q120 1066 196 1198 Q286 1354 438 1354 Q543 1354 626 1276 Q764 1146 764 876 Q764 617 594 332 Q457 103 286 -86 Z M444 1294 Q399 1294 365 1262 Q276 1177 276 911 Q276 481 441 481 Q608 481 608 879 Q608 1102 559 1204 Q516 1294 444 1294 Z " />
<glyph glyph-name="colon" unicode="&#x3a;" horiz-adv-x="404" d="M207 868 Q247 868 276 838.5 Q305 809 305 769 Q305 727 276 698 Q247 669 206 669 Q164 669 135 698.5 Q106 728 106 769 Q106 810 135.5 839 Q165 868 207 868 Z M201 183 Q241 183 270 153.5 Q299 124 299 84 Q299 42 270 13 Q241 -16 200 -16 Q158 -16 129 13.5 Q100 43 100 84 Q100 125 129.5 154 Q159 183 201 183 Z " />
<glyph glyph-name="semicolon" unicode="&#x3b;" horiz-adv-x="406" d="M154 -341 L72 -341 Q195 -176 214 -9 L208 -9 Q199 -12 192 -12 Q157 -12 134.5 16.5 Q112 45 112 91 Q112 140 139 172 Q166 204 208 204 Q252 204 278.5 167 Q305 130 305 68 Q305 -108 154 -341 Z M208 871 Q248 871 277 841.5 Q306 812 306 772 Q306 730 277 701 Q248 672 206 672 Q165 672 136 701.5 Q107 731 107 772 Q107 813 136.5 842 Q166 871 208 871 Z " />
<glyph glyph-name="less" unicode="&#x3c;" horiz-adv-x="840" d="M759 1249 L759 1179 L234 751 L759 314 L759 128 L82 691 L82 704 L759 1249 Z " />
<glyph glyph-name="equal" unicode="&#x3d;" horiz-adv-x="877" d="M98 770 L98 879 L779 879 L779 770 L98 770 Z M98 502 L98 611 L779 611 L779 502 L98 502 Z " />
<glyph glyph-name="greater" unicode="&#x3e;" horiz-adv-x="840" d="M82 128 L82 198 L606 626 L82 1063 L82 1249 L759 686 L759 674 L82 128 Z " />
<glyph glyph-name="question" unicode="&#x3f;" horiz-adv-x="647" d="M309 392 L239 392 Q233 453 233 500 Q233 597 255.5 661 Q278 725 339 807 Q405 894 428.5 946.5 Q452 999 452 1061 Q452 1142 412.5 1189.5 Q373 1237 307 1237 Q225 1237 177 1174.5 Q129 1112 120 995 L74 995 Q74 1095 98 1172 Q125 1254 194 1304 Q263 1354 352 1354 Q463 1354 529 1278 Q600 1195 600 1062 Q600 969 567.5 902 Q535 835 446 747 Q381 683 355 640 Q308 562 308 426 Q308 414 309 392 Z M287 186 Q327 186 356 156.5 Q385 127 385 87 Q385 45 356 16 Q327 -13 285 -13 Q244 -13 215 16.5 Q186 46 186 87 Q186 128 215.5 157 Q245 186 287 186 Z " />
<glyph glyph-name="at" unicode="&#x40;" horiz-adv-x="1338" d="M724 406 Q681 344 643 318 Q605 292 556 292 Q468 292 410.5 372 Q353 452 353 574 Q353 765 465 900 Q567 1022 695 1022 Q786 1022 818 924 L838 1004 L963 1004 L849 472 Q838 423 838 403 Q838 326 900 326 Q952 326 1010.5 369 Q1069 412 1117 485 Q1215 633 1215 823 Q1215 1026 1057 1168 Q907 1304 704 1304 Q471 1304 310 1147 Q224 1063 174 943 Q123 818 123 678 Q123 440 258 274 Q333 181 445 125 Q575 60 723 60 Q886 60 1026 162 Q1122 233 1197 356 L1282 357 Q1237 269 1198 219.5 Q1159 170 1095 119 Q920 -21 712 -21 Q494 -21 319 105 Q171 211 98 385 Q41 522 41 675 Q41 890 149 1069 Q248 1233 411 1316 Q547 1386 703 1386 Q862 1386 1000 1312 Q1165 1224 1243 1066 Q1297 955 1297 815 Q1297 600 1169 448 Q1089 352 990 309 Q931 283 873 283 Q806 283 771.5 311.5 Q737 340 724 406 Z M701 981 Q659 984 615 936 Q571 888 537 803 Q479 658 479 523 Q479 437 503 385 Q527 333 567 333 Q637 333 693 459 Q730 540 755.5 647.5 Q781 755 781 831 Q781 976 701 981 Z " />
<glyph glyph-name="A" unicode="A" horiz-adv-x="1074" d="M310 397 L252 203 Q231 130 231 102 Q231 51 339 44 L339 -6 Q245 5 183 5 Q121 5 27 -6 L27 44 Q102 51 128 75 Q154 99 181 187 L558 1411 L899 165 Q918 94 944 73 Q970 52 1047 44 L1047 -6 Q935 9 848 9 Q761 9 648 -6 L648 44 Q746 54 746 103 Q746 131 735 174 L679 397 L310 397 Z M329 460 L664 460 L511 1064 L329 460 Z " />
<glyph glyph-name="B" unicode="B" horiz-adv-x="958" d="M627 729 Q710 709 761 664 Q870 568 870 391 Q870 225 772 112 Q719 51 650 25.5 Q581 0 469 0 L63 0 L63 50 Q148 59 169.5 82 Q191 105 191 186 L191 1179 Q191 1260 169 1283.5 Q147 1307 63 1315 L63 1365 L486 1365 Q659 1365 738 1272 Q819 1177 819 1034 Q819 813 627 729 Z M344 745 L429 745 Q506 745 549 765 Q592 785 621 834 Q662 906 662 1029 Q662 1106 643 1169.5 Q624 1233 593 1261 Q548 1302 456 1302 L344 1302 L344 745 Z M344 682 L344 169 Q344 103 362 83.5 Q380 64 441 64 L478 64 Q605 64 663 166 Q712 251 712 388 Q712 466 690.5 534 Q669 602 634 634 Q583 682 472 682 L344 682 Z " />
<glyph glyph-name="C" unicode="C" horiz-adv-x="991" d="M823 460 L884 460 Q879 305 832 195 Q786 87 707 31 Q626 -26 525 -26 Q391 -26 285 71 Q177 170 126 369 Q89 510 89 680 Q89 986 206 1191 Q264 1292 360 1347 Q437 1391 534 1391 Q686 1391 786 1271 L840 1387 L873 1387 L873 984 L827 984 Q797 1140 735 1231 Q671 1325 552 1325 Q414 1325 347 1195 Q251 1010 251 675 Q251 364 342 200 Q418 65 550 65 Q671 65 742.5 168.5 Q814 272 823 460 Z " />
<glyph glyph-name="D" unicode="D" horiz-adv-x="1062" d="M56 1315 L56 1365 L452 1365 Q662 1365 776 1251 Q863 1163 916 1022 Q973 867 973 683 Q973 433 864 230 Q739 0 451 0 L56 0 L56 50 Q141 59 162.5 81.5 Q184 104 184 186 L184 1179 Q184 1260 162 1283.5 Q140 1307 56 1315 Z M337 1302 L337 166 Q337 99 355.5 79 Q374 59 436 59 Q634 59 718 212 Q811 379 811 685 Q811 984 718 1151 Q634 1302 445 1302 L337 1302 Z " />
<glyph glyph-name="E" unicode="E" horiz-adv-x="911" d="M822 330 L785 0 L63 0 L63 50 Q146 58 168.5 81.5 Q191 105 191 186 L191 1179 Q191 1260 169 1283.5 Q147 1307 63 1315 L63 1365 L776 1365 L805 1057 L759 1057 Q731 1202 693 1252 Q655 1302 575 1302 L344 1302 L344 741 L567 741 Q605 741 621.5 752.5 Q638 764 648 800 Q660 839 662 910 L708 910 L708 508 L662 508 Q660 606 638 642 Q616 678 558 678 L344 678 L344 184 Q344 111 365.5 87 Q387 63 452 63 L564 63 Q629 63 663 83 Q697 103 723 157 Q754 219 776 330 L822 330 Z " />
<glyph glyph-name="F" unicode="F" horiz-adv-x="873" d="M350 678 L350 180 Q350 99 372 75.5 Q394 52 478 44 L478 -6 Q352 9 274 9 Q195 9 69 -6 L69 44 Q153 52 175 75.5 Q197 99 197 180 L197 1179 Q197 1260 175 1283.5 Q153 1307 69 1315 L69 1365 L782 1365 L811 1057 L765 1057 Q737 1201 698.5 1251.5 Q660 1302 578 1302 L350 1302 L350 741 L572 741 Q625 741 641 769 Q662 804 668 910 L714 910 L714 508 L668 508 Q665 608 643.5 643 Q622 678 563 678 L350 678 Z " />
<glyph glyph-name="G" unicode="G" horiz-adv-x="1043" d="M791 1273 L851 1389 L884 1389 L884 984 L838 984 Q803 1142 741 1231 Q676 1324 556 1324 Q251 1324 251 671 Q251 510 275.5 377 Q300 244 343 168 Q417 36 551 36 Q647 36 754 106 L754 460 Q754 518 732 536.5 Q710 555 634 562 L634 612 Q742 600 823 600 Q903 600 1012 612 L1012 562 Q938 554 920.5 537 Q903 520 903 456 L903 118 Q706 -23 545 -23 Q320 -23 203 180 Q88 379 88 685 Q88 988 201 1184 Q260 1287 356 1343 Q437 1390 536 1390 Q686 1390 791 1273 Z " />
<glyph glyph-name="H" unicode="H" horiz-adv-x="1131" d="M344 744 L787 744 L787 1186 Q787 1266 765 1289.5 Q743 1313 659 1321 L659 1371 Q783 1356 865 1356 Q947 1356 1068 1371 L1068 1321 Q983 1313 961.5 1290 Q940 1267 940 1186 L940 180 Q940 99 961.5 76 Q983 53 1068 44 L1068 -6 Q942 9 865 9 Q788 9 659 -6 L659 44 Q744 53 765.5 76 Q787 99 787 180 L787 681 L344 681 L344 180 Q344 99 365.5 76 Q387 53 472 44 L472 -6 Q343 9 266 9 Q189 9 63 -6 L63 44 Q148 53 169.5 76 Q191 99 191 180 L191 1186 Q191 1266 169.5 1289 Q148 1312 63 1321 L63 1371 Q184 1356 266 1356 Q348 1356 472 1371 L472 1321 Q388 1313 366 1289.5 Q344 1266 344 1186 L344 744 Z " />
<glyph glyph-name="I" unicode="I" horiz-adv-x="534" d="M472 44 L472 -6 Q342 9 268 9 Q193 9 63 -6 L63 44 Q147 52 169 75.5 Q191 99 191 180 L191 1185 Q191 1266 169 1290 Q147 1314 63 1321 L63 1371 Q187 1356 268 1356 Q348 1356 472 1371 L472 1321 Q389 1314 366.5 1290 Q344 1266 344 1185 L344 180 Q344 99 366 75.5 Q388 52 472 44 Z " />
<glyph glyph-name="J" unicode="J" horiz-adv-x="531" d="M1 -142 L1 -81 Q21 -83 34 -83 Q124 -83 158 -28 Q192 27 192 174 L192 1185 Q192 1267 170.5 1290 Q149 1313 64 1321 L64 1371 Q188 1356 269 1356 Q349 1356 473 1371 L473 1321 Q389 1313 367 1290 Q345 1267 345 1185 L345 245 Q345 142 335 87.5 Q325 33 298 -16 Q224 -145 58 -145 Q33 -145 1 -142 Z " />
<glyph glyph-name="K" unicode="K" horiz-adv-x="1064" d="M493 828 L852 175 Q893 101 929 75 Q965 49 1034 44 L1034 -6 Q911 10 822 10 Q734 10 604 -6 L604 44 Q622 46 630 47 Q717 55 717 92 Q717 116 688 170 L404 705 L338 613 L338 180 Q338 99 359.5 75.5 Q381 52 462 44 L462 -6 Q354 9 270 9 Q186 9 63 -6 L63 44 Q146 51 168.5 75 Q191 99 191 180 L191 1185 Q191 1266 169 1290 Q147 1314 63 1321 L63 1371 Q188 1356 269 1356 Q351 1356 466 1371 L466 1321 Q382 1314 360 1290.5 Q338 1267 338 1185 L338 715 L703 1226 Q725 1257 725 1280 Q725 1300 705 1308 Q685 1316 624 1321 L624 1371 Q715 1362 793 1362 Q870 1362 961 1371 L961 1321 Q888 1316 850 1295 Q812 1274 768 1213 L493 828 Z " />
<glyph glyph-name="L" unicode="L" horiz-adv-x="849" d="M823 330 L785 0 L63 0 L63 50 Q148 59 169.5 82 Q191 105 191 186 L191 1185 Q191 1267 169.5 1289.5 Q148 1312 63 1322 L63 1371 Q187 1356 268 1356 Q348 1356 472 1371 L472 1322 Q387 1313 365.5 1290 Q344 1267 344 1185 L344 190 Q344 114 365 88.5 Q386 63 448 63 L562 63 Q660 63 701 114 Q742 165 777 330 L823 330 Z " />
<glyph glyph-name="M" unicode="M" horiz-adv-x="1366" d="M293 1218 L259 180 Q258 163 258 161 Q258 95 282.5 73.5 Q307 52 393 44 L393 -6 Q291 4 229 4 Q169 4 62 -6 L62 44 Q74 45 81 46 Q152 52 173 76.5 Q194 101 197 180 L231 1185 L232 1202 Q232 1269 206 1291.5 Q180 1314 96 1321 L96 1371 Q174 1363 230 1363 Q307 1363 401 1374 L694 354 L988 1374 Q1101 1363 1158 1363 Q1208 1363 1286 1371 L1286 1321 Q1199 1314 1174.5 1289 Q1150 1264 1151 1185 L1168 180 Q1170 87 1202 68 Q1232 51 1303 44 L1303 -6 Q1177 9 1091 9 Q1006 9 885 -6 L885 44 Q971 50 996 75 Q1021 100 1020 180 L1004 1215 L664 36 L631 36 L293 1218 Z " />
<glyph glyph-name="N" unicode="N" horiz-adv-x="1122" d="M932 -41 L906 -41 Q847 77 736 285 L255 1181 L255 180 Q255 125 261.5 102.5 Q268 80 287 69 Q318 51 388 44 L388 -6 Q270 4 221 4 Q170 4 62 -6 L62 44 Q151 53 173 75.5 Q195 98 195 180 L195 1261 Q172 1292 144.5 1304.5 Q117 1317 61 1321 L61 1371 Q134 1364 200 1364 Q260 1364 319 1371 L872 348 L872 1185 Q872 1240 865.5 1263 Q859 1286 841 1296 Q807 1315 739 1321 L739 1371 Q851 1361 906 1361 Q962 1361 1064 1371 L1064 1321 Q977 1313 954.5 1290 Q932 1267 932 1185 L932 -41 Z " />
<glyph glyph-name="O" unicode="O" horiz-adv-x="1056" d="M528 1391 Q647 1391 747 1315 Q854 1232 911 1064.5 Q968 897 968 660 Q968 392 855 175 Q803 76 701 17 Q626 -26 532 -26 Q369 -26 252 104 Q173 193 127 370 Q89 516 89 679 Q89 991 200 1186 Q260 1291 357 1346 Q434 1391 528 1391 Z M530 1334 Q419 1334 346 1206 Q317 1156 304 1109 Q252 922 252 691 Q252 518 277.5 377.5 Q303 237 349 156 Q420 31 533 31 Q642 31 710 151 Q740 204 753 255 Q805 448 805 679 Q805 854 780 995.5 Q755 1137 710 1212 Q638 1334 530 1334 Z " />
<glyph glyph-name="P" unicode="P" horiz-adv-x="914" d="M344 616 L344 180 Q344 99 365.5 76 Q387 53 472 44 L472 -6 Q342 9 268 9 Q193 9 63 -6 L63 44 Q148 53 169.5 76 Q191 99 191 180 L191 1179 Q191 1260 169 1283.5 Q147 1307 63 1315 L63 1365 L484 1365 Q680 1365 765 1264 Q857 1155 857 990 Q857 902 827.5 824 Q798 746 746 699 Q656 616 500 616 L344 616 Z M344 679 L445 679 Q701 679 701 997 Q701 1077 678 1147.5 Q655 1218 618 1253 Q565 1302 455 1302 L344 1302 L344 679 Z " />
<glyph glyph-name="Q" unicode="Q" horiz-adv-x="1054" d="M799 97 Q689 -26 533 -26 Q368 -26 252 104 Q174 192 127 370 Q89 517 89 679 Q89 988 200 1186 Q258 1290 356 1346 Q433 1391 527 1391 Q664 1391 772 1293 Q883 1191 934 986 Q968 849 968 681 Q968 428 880 232 Q975 32 1066 30 L1066 -23 L1020 -23 Q955 -23 917 -4 Q866 22 799 97 Z M529 1334 Q418 1334 345 1206 Q317 1156 304 1109 Q252 922 252 694 Q252 519 277.5 378 Q303 237 348 157 Q420 31 529 31 Q641 31 709 151 Q739 204 753 255 Q805 447 805 674 Q805 850 779.5 993 Q754 1136 710 1212 Q637 1334 529 1334 Z " />
<glyph glyph-name="R" unicode="R" horiz-adv-x="997" d="M344 649 L344 180 Q344 99 365 76 Q386 53 472 44 L472 -6 Q345 9 269 9 Q193 9 63 -6 L63 44 Q148 53 169.5 76 Q191 99 191 180 L191 1179 Q191 1260 169 1283.5 Q147 1307 63 1315 L63 1365 L491 1365 Q675 1365 764 1262 Q852 1160 852 1007 Q852 868 783.5 781.5 Q715 695 578 662 Q638 642 672 603 Q706 564 732 484 L839 162 Q862 91 887 69 Q912 47 972 44 L972 -6 Q907 0 857 0 Q806 0 740 -6 Q708 78 695 120 L576 486 Q544 583 508 616 Q472 649 397 649 L344 649 Z M344 712 L456 712 Q571 712 628 779 Q659 815 677.5 879 Q696 943 696 1013 Q696 1302 465 1302 L344 1302 L344 712 Z " />
<glyph glyph-name="S" unicode="S" horiz-adv-x="871" d="M106 413 L152 413 Q200 46 433 46 Q529 46 588 116 Q654 193 654 311 Q654 414 608 478 Q562 542 429 625 Q318 694 255 745 Q185 802 154 870 Q123 938 123 1034 Q123 1118 152 1191 Q181 1264 232 1309 Q317 1384 437 1384 Q568 1384 651 1279 L697 1392 L728 1392 L728 1015 L682 1015 Q657 1159 603 1242 Q550 1322 450 1322 Q364 1322 310 1258 Q249 1186 249 1081 Q249 987 292.5 933.5 Q336 880 501 773 Q609 703 663 654 Q781 547 781 364 Q781 194 687 87 Q595 -18 451 -18 Q307 -18 193 97 L137 -31 L106 -31 L106 413 Z " />
<glyph glyph-name="T" unicode="T" horiz-adv-x="884" d="M798 1053 Q767 1202 729 1252 Q691 1302 610 1302 L518 1302 L518 180 Q518 98 539 76 Q560 54 646 44 L646 -6 Q520 9 442 9 Q363 9 237 -6 L237 44 Q323 53 344 75.5 Q365 98 365 180 L365 1302 L282 1302 Q223 1302 190 1280.5 Q157 1259 132 1204 Q109 1154 86 1053 L40 1053 L84 1365 L799 1365 L844 1053 L798 1053 Z " />
<glyph glyph-name="U" unicode="U" horiz-adv-x="1109" d="M732 1321 L732 1371 Q843 1361 898 1361 Q954 1361 1056 1371 L1056 1321 Q969 1313 946.5 1290 Q924 1267 924 1185 L924 417 Q924 245 868 145 Q774 -23 558 -23 Q402 -23 302 68 Q237 126 209.5 205 Q182 284 182 409 L182 1185 Q182 1267 160.5 1289.5 Q139 1312 54 1321 L54 1371 Q178 1356 259 1356 Q339 1356 463 1371 L463 1321 Q379 1313 357 1289.5 Q335 1266 335 1185 L335 393 Q335 243 369 182 Q433 68 589 68 Q717 68 793 149 Q864 225 864 406 L864 1185 Q864 1267 841.5 1289.5 Q819 1312 732 1321 Z " />
<glyph glyph-name="V" unicode="V" horiz-adv-x="1072" d="M577 273 L827 1169 Q846 1236 846 1261 Q846 1290 821.5 1303.5 Q797 1317 737 1321 L737 1371 Q820 1360 888 1360 Q957 1360 1046 1371 L1046 1321 Q977 1315 947.5 1290.5 Q918 1266 900 1202 L552 -25 L511 -25 L174 1195 Q154 1270 128 1292 Q102 1314 27 1321 L27 1371 Q133 1356 225 1356 Q317 1356 424 1371 L424 1321 Q322 1311 322 1263 Q322 1242 335 1194 L577 273 Z " />
<glyph glyph-name="W" unicode="W" horiz-adv-x="1457" d="M472 -25 L439 -25 L173 1201 Q159 1267 132.5 1291.5 Q106 1316 40 1321 L40 1371 Q140 1356 234 1356 Q328 1356 427 1371 L427 1321 Q366 1315 342.5 1301.5 Q319 1288 319 1260 Q319 1238 327 1199 L506 360 L755 1396 L792 1396 L1038 359 L1221 1194 Q1231 1241 1231 1265 Q1231 1314 1128 1321 L1128 1371 Q1205 1360 1274 1360 Q1343 1360 1420 1371 L1420 1321 Q1354 1316 1327.5 1294.5 Q1301 1273 1288 1214 L1009 -23 L976 -23 L726 1035 L472 -25 Z " />
<glyph glyph-name="X" unicode="X" horiz-adv-x="1038" d="M579 774 L837 176 Q873 93 902 71 Q931 49 1011 44 L1011 -6 Q876 8 790 8 Q702 8 581 -6 L581 44 Q600 46 610 47 Q694 56 694 97 Q694 130 665 198 L491 599 L280 183 Q249 121 249 92 Q249 51 353 44 L353 -6 Q262 3 191 3 Q120 3 29 -6 L29 44 Q72 46 99 56 Q159 79 219 198 L459 673 L232 1197 Q200 1271 172.5 1292.5 Q145 1314 73 1321 L73 1371 Q179 1357 280 1357 Q380 1357 486 1371 L486 1321 Q424 1315 400 1303 Q376 1291 376 1268 Q376 1244 394 1202 L547 848 L729 1209 Q749 1249 749 1273 Q749 1314 646 1321 L646 1371 Q727 1361 806 1361 Q885 1361 965 1371 L965 1321 Q894 1313 863 1293 Q832 1273 802 1215 L579 774 Z " />
<glyph glyph-name="Y" unicode="Y" horiz-adv-x="990" d="M421 595 L182 1209 Q158 1271 128.5 1292.5 Q99 1314 32 1321 L32 1371 Q142 1357 239 1357 Q335 1357 445 1371 L445 1321 Q332 1313 332 1269 Q332 1243 348 1203 L549 688 L748 1206 Q764 1247 764 1271 Q764 1294 740 1305 Q716 1316 653 1321 L653 1371 Q744 1361 808 1361 Q872 1361 963 1371 L963 1321 Q893 1311 865 1290 Q837 1269 814 1211 L574 595 L574 180 Q574 98 595 76 Q616 54 702 44 L702 -6 Q572 9 497 9 Q423 9 293 -6 L293 44 Q379 53 400 75.5 Q421 98 421 180 L421 595 Z " />
<glyph glyph-name="Z" unicode="Z" horiz-adv-x="902" d="M61 0 L642 1302 L387 1302 Q324 1302 288 1283 Q252 1264 224 1216 Q194 1164 172 1063 L126 1063 L170 1365 L836 1365 L256 63 L548 63 Q611 63 641 73 Q671 83 694 112 Q750 180 794 333 L840 333 L791 0 L61 0 Z " />
<glyph glyph-name="bracketleft" unicode="&#x5b;" horiz-adv-x="527" d="M480 1304 L330 1304 L330 -337 L480 -337 L480 -398 L187 -398 L187 1365 L480 1365 L480 1304 Z " />
<glyph glyph-name="backslash" unicode="&#x5c;" horiz-adv-x="681" d="M813 -398 L720 -398 L25 1365 L118 1365 L813 -398 Z " />
<glyph glyph-name="bracketright" unicode="&#x5d;" horiz-adv-x="527" d="M47 -337 L197 -337 L197 1304 L47 1304 L47 1365 L340 1365 L340 -398 L47 -398 L47 -337 Z " />
<glyph glyph-name="asciicircum" unicode="&#x5e;" horiz-adv-x="840" d="M868 588 L808 588 L465 1244 L120 588 L-29 588 L422 1434 L432 1434 L868 588 Z " />
<glyph glyph-name="underscore" unicode="&#x5f;" horiz-adv-x="840" d="M51 -179 L790 -179 L790 -258 L51 -258 L51 -179 Z " />
<glyph glyph-name="grave" unicode="&#x60;" horiz-adv-x="840" d="M519 1129 L450 1129 L181 1430 L358 1430 L519 1129 Z " />
<glyph glyph-name="a" unicode="a" horiz-adv-x="785" d="M739 54 L739 0 Q681 -14 641 -14 Q527 -14 513 154 Q446 -18 299 -18 Q199 -18 137 53 Q73 126 73 243 Q73 402 195 488 Q317 575 492 603 L492 748 Q492 842 462 886.5 Q432 931 369 931 Q314 931 279.5 900 Q245 869 245 819 Q245 807 246 793 Q247 773 247 758 Q247 672 175 672 Q115 672 115 742 Q115 843 198 917 Q276 986 384 986 Q455 986 512.5 953.5 Q570 921 601 864 Q636 799 636 658 L636 230 Q636 128 649.5 87.5 Q663 47 698 47 Q713 47 739 54 Z M492 550 Q402 529 345 496 Q220 423 220 257 Q220 170 253.5 120 Q287 70 345 70 Q492 70 492 372 L492 550 Z " />
<glyph glyph-name="b" unicode="b" horiz-adv-x="850" d="M137 -23 L137 1178 Q137 1256 118 1277 Q99 1298 28 1298 L28 1334 Q163 1349 281 1388 L281 835 Q320 916 365.5 950.5 Q411 985 477 985 Q612 985 694 841 Q775 696 775 483 Q775 272 693 129 Q608 -19 467 -19 Q323 -19 258 158 L182 -23 L137 -23 Z M458 928 Q281 928 281 454 Q281 230 328 134 Q376 38 454 38 Q521 38 564 115 Q624 222 624 486 Q624 928 458 928 Z " />
<glyph glyph-name="c" unicode="c" horiz-adv-x="734" d="M641 1009 L641 671 L598 671 Q560 937 422 937 Q331 937 283 815 Q235 693 235 465 Q235 260 282 153 Q329 46 419 46 Q564 46 592 315 L658 315 Q644 171 585 78 Q520 -22 399 -22 Q300 -22 221 50 Q78 182 78 477 Q78 693 160 835 Q250 992 402 992 Q503 992 570 905 L609 1009 L641 1009 Z " />
<glyph glyph-name="d" unicode="d" horiz-adv-x="860" d="M820 68 L820 32 Q677 12 594 -21 Q577 57 570 139 Q506 -25 374 -25 Q240 -25 159 116 Q75 261 75 477 Q75 694 157 838 Q238 979 371 979 Q435 979 477.5 945 Q520 911 557 831 L557 1178 Q557 1256 538 1277 Q519 1298 448 1298 L448 1334 Q582 1349 701 1388 L701 208 Q701 115 720 93 Q739 71 820 68 Z M386 922 Q226 922 226 480 Q226 216 286 108 Q327 32 393 32 Q459 32 503 111 Q559 212 559 437 Q559 922 386 922 Z " />
<glyph glyph-name="e" unicode="e" horiz-adv-x="771" d="M631 315 L696 315 Q684 184 622 92 Q548 -20 407 -20 Q242 -20 156 130 Q75 272 75 485 Q75 695 155 835 Q197 907 260 947 Q323 987 395 987 Q534 987 612 862.5 Q690 738 695 507 L223 507 Q226 369 235 299.5 Q244 230 268 170 Q314 48 426 48 Q510 48 563.5 117.5 Q617 187 631 315 Z M551 575 Q542 934 393 934 Q322 934 278.5 840.5 Q235 747 227 575 L551 575 Z " />
<glyph glyph-name="f" unicode="f" horiz-adv-x="505" d="M311 967 L492 967 L492 899 L311 899 L311 145 Q311 79 331 59 Q351 39 422 35 L422 -6 Q309 6 239 6 Q169 6 56 -6 L56 35 Q126 39 146.5 59 Q167 79 167 145 L167 899 L61 899 L61 955 Q137 958 157 980 Q177 1002 178 1084 Q179 1200 206 1264 Q233 1325 285.5 1359.5 Q338 1394 404 1394 Q487 1394 531 1344 Q569 1301 569 1241 Q569 1164 503 1164 Q475 1164 457 1180 Q439 1196 439 1221 Q439 1231 441 1246 Q448 1282 448 1293 Q448 1314 434.5 1328.5 Q421 1343 401 1343 Q360 1343 336 1300 Q311 1256 311 1129 L311 967 Z " />
<glyph glyph-name="g" unicode="g" horiz-adv-x="827" d="M576 932 L794 932 L794 857 L631 870 Q677 778 677 685 Q677 557 617.5 481 Q558 405 425 362 Q304 324 272 304 Q240 284 240 249 Q240 225 255 209 Q277 185 385 181 Q436 180 505 167.5 Q574 155 607 142 Q676 115 713 60 Q758 -6 758 -94 Q758 -231 661 -319 Q566 -406 402 -406 Q317 -406 243 -378.5 Q169 -351 127 -304 Q59 -230 59 -122 Q59 28 217 97 Q134 142 134 216 Q134 329 314 382 Q247 406 203 450 Q119 535 119 672 Q119 842 215 922 Q291 985 407 985 Q503 985 576 932 Z M401 933 Q348 933 311 892 Q287 866 271 807.5 Q255 749 255 689 Q255 547 303 474 Q337 422 398 422 Q466 422 501 487 Q540 559 540 687 Q540 805 504 869 Q468 933 401 933 Z M384 36 Q276 36 211 -1 Q131 -47 131 -139 Q131 -221 194 -275 Q271 -342 396 -342 Q537 -342 603 -269 Q650 -218 650 -144 Q650 -66 599 -22 Q568 4 508.5 20 Q449 36 384 36 Z " />
<glyph glyph-name="h" unicode="h" horiz-adv-x="905" d="M47 1298 L47 1334 Q178 1349 301 1388 L301 849 Q379 986 510 986 Q572 986 624 955 Q676 924 707 868 Q749 793 749 648 L749 145 Q749 79 769 59.5 Q789 40 859 35 L859 -6 Q753 6 680 6 Q607 6 503 -6 L503 34 Q564 37 584.5 58.5 Q605 80 605 142 L605 655 Q605 779 576 830 Q540 893 465 893 Q375 893 331 810 Q301 754 301 647 L301 142 Q301 81 321 59.5 Q341 38 401 34 L401 -6 Q296 6 224 6 Q153 6 46 -6 L46 35 Q117 40 137 59.5 Q157 79 157 145 L157 1178 Q157 1256 138 1277 Q119 1298 47 1298 Z " />
<glyph glyph-name="i" unicode="i" horiz-adv-x="477" d="M314 1003 L314 145 Q314 79 334 59.5 Q354 40 424 35 L424 -6 Q309 6 242 6 Q175 6 59 -6 L59 35 Q130 40 150 59.5 Q170 79 170 145 L170 793 Q170 871 151 891.5 Q132 912 60 913 L60 948 Q194 964 314 1003 Z M237 1351 Q277 1351 306 1321.5 Q335 1292 335 1251 Q335 1210 306 1181 Q277 1152 235 1152 Q194 1152 165 1181 Q136 1210 136 1252 Q136 1293 165.5 1322 Q195 1351 237 1351 Z " />
<glyph glyph-name="j" unicode="j" horiz-adv-x="472" d="M56 913 L56 948 Q190 964 310 1003 L310 28 Q310 -226 202 -329 Q112 -414 -23 -415 L-23 -362 Q80 -341 123 -271.5 Q166 -202 166 -58 L166 793 Q166 870 147 891 Q128 912 56 913 Z M235 1357 Q275 1357 304 1327.5 Q333 1298 333 1257 Q333 1216 304 1187 Q275 1158 233 1158 Q192 1158 163 1187.5 Q134 1217 134 1258 Q134 1299 163.5 1328 Q193 1357 235 1357 Z " />
<glyph glyph-name="k" unicode="k" horiz-adv-x="896" d="M491 624 L722 146 Q755 79 782 59 Q809 39 869 35 L869 -6 Q800 1 753 1 Q706 1 638 -6 L401 511 L301 378 L301 145 Q301 80 321 60 Q341 40 412 35 L412 -6 Q295 6 227 6 Q159 6 46 -6 L46 35 Q117 40 137 59.5 Q157 79 157 145 L157 1178 Q157 1256 138 1277 Q119 1298 47 1298 L47 1334 Q183 1350 301 1388 L301 465 L562 818 Q589 854 589 885 Q589 926 500 932 L500 973 Q582 963 650 963 Q717 963 812 973 L812 932 Q748 925 717.5 907 Q687 889 647 835 L491 624 Z " />
<glyph glyph-name="l" unicode="l" horiz-adv-x="468" d="M311 1388 L311 145 Q311 79 331 59.5 Q351 40 421 35 L421 -6 Q306 6 239 6 Q172 6 56 -6 L56 35 Q127 40 147 59.5 Q167 79 167 145 L167 1178 Q167 1256 148 1277 Q129 1298 57 1298 L57 1334 Q188 1349 311 1388 Z " />
<glyph glyph-name="m" unicode="m" horiz-adv-x="1326" d="M59 907 L59 942 Q194 966 280 1004 Q294 919 298 829 Q331 891 365 924 Q427 986 518 986 Q660 986 716 826 Q761 912 813.5 949 Q866 986 942 986 Q1074 986 1130 885 Q1168 818 1168 675 L1168 145 Q1168 79 1188.5 59 Q1209 39 1280 35 L1280 -6 Q1173 6 1101 6 Q1028 6 923 -6 L923 34 Q984 38 1004 59 Q1024 80 1024 142 L1024 679 Q1024 792 999 836 Q968 892 896 892 Q740 892 740 661 L740 142 Q740 81 760 59.5 Q780 38 841 34 L841 -6 Q736 6 668 6 Q600 6 495 -6 L495 34 Q556 38 576 59.5 Q596 81 596 142 L596 676 Q596 790 571 835 Q539 892 472 892 Q433 892 398 871 Q363 850 345 816 Q313 756 313 639 L313 142 Q313 80 333 59 Q353 38 414 34 L414 -6 Q310 6 237 6 Q165 6 58 -6 L58 35 Q129 39 149 59 Q169 79 169 145 L169 779 Q169 872 155.5 888 Q142 904 59 907 Z " />
<glyph glyph-name="n" unicode="n" horiz-adv-x="918" d="M61 907 L61 942 Q192 965 281 1003 Q294 936 299 825 Q384 986 523 986 Q584 986 636.5 954.5 Q689 923 720 868 Q762 793 762 648 L762 145 Q762 80 782 60 Q802 40 873 35 L873 -6 Q766 6 694 6 Q620 6 516 -6 L516 34 Q577 37 597.5 58.5 Q618 80 618 142 L618 655 Q618 779 589 830 Q553 893 478 893 Q389 893 344 811 Q314 754 314 647 L314 142 Q314 81 334 59.5 Q354 38 414 34 L414 -6 Q309 6 237 6 Q166 6 59 -6 L59 35 Q130 40 150 59.5 Q170 79 170 145 L170 779 Q170 868 154.5 886 Q139 904 61 907 Z " />
<glyph glyph-name="o" unicode="o" horiz-adv-x="789" d="M402 992 Q512 992 592 901 Q646 839 679.5 724 Q713 609 713 487 Q713 274 628 128 Q541 -22 393 -22 Q298 -22 221 49 Q151 113 113 226.5 Q75 340 75 483 Q75 696 157 835 Q250 992 402 992 Z M397 939 Q331 939 288 862 Q226 750 226 479 Q226 31 393 31 Q459 31 501 106 Q562 215 562 480 Q562 939 397 939 Z " />
<glyph glyph-name="p" unicode="p" horiz-adv-x="871" d="M46 917 L46 952 Q169 964 263 990 Q279 929 287 817 Q360 986 491 986 Q628 986 713 839 Q796 695 796 484 Q796 271 714 127 Q632 -18 495 -18 Q430 -18 386 13 Q342 44 301 119 L301 -258 Q301 -324 321 -344 Q341 -364 411 -369 L411 -410 Q298 -397 225 -397 Q152 -397 46 -410 L46 -369 Q116 -365 136.5 -344.5 Q157 -324 157 -258 L157 793 Q157 872 138 893 Q119 914 46 917 Z M476 929 Q403 929 357 846 Q299 739 299 495 Q299 39 478 39 Q645 39 645 479 Q645 929 476 929 Z " />
<glyph glyph-name="q" unicode="q" horiz-adv-x="870" d="M824 917 Q810 916 803 916 Q748 913 730.5 889.5 Q713 866 713 793 L713 -258 Q713 -324 733 -344 Q753 -364 823 -369 L823 -410 Q720 -397 646 -397 Q573 -397 459 -410 L459 -369 Q529 -365 549 -344.5 Q569 -324 569 -258 L569 124 Q529 47 484.5 14.5 Q440 -18 375 -18 Q238 -18 157 127 Q75 271 75 484 Q75 695 157 838 Q242 986 380 986 Q513 986 583 817 Q592 926 607 990 Q699 965 824 952 L824 917 Z M395 929 Q226 929 226 481 Q226 39 394 39 Q467 39 512 120 Q572 230 572 481 Q572 747 513 847 Q465 929 395 929 Z " />
<glyph glyph-name="r" unicode="r" horiz-adv-x="642" d="M424 35 L424 -6 Q311 6 241 6 Q171 6 58 -6 L58 35 Q129 40 149 59.5 Q169 79 169 145 L169 787 Q169 871 154 893 Q139 915 81 915 Q75 915 60 915 L60 950 Q211 975 279 999 Q291 904 296 806 Q348 992 484 992 Q547 992 585 948 Q624 904 624 833 Q624 727 546 727 Q516 727 496.5 746 Q477 765 477 795 Q477 808 482 831 Q486 850 486 862 Q486 880 473.5 893 Q461 906 444 906 Q382 906 347.5 818 Q313 730 313 574 L313 145 Q313 79 334 58 Q355 37 424 35 Z " />
<glyph glyph-name="s" unicode="s" horiz-adv-x="718" d="M97 -24 L97 318 L141 318 Q175 44 342 44 Q411 44 457 96 Q504 148 504 223 Q504 280 484 310 Q452 361 356 415 Q208 499 164 548 Q108 610 108 717 Q108 850 190 923 Q260 985 358 985 Q450 985 520 921 L544 1004 L578 1004 L578 686 L534 686 Q515 927 371 927 Q307 927 265 880 Q224 833 224 764 Q224 702 253 665 Q282 628 370 579 Q489 513 538 471 Q626 398 626 275 Q626 130 534 47 Q463 -18 359 -18 Q250 -18 165 67 L131 -24 L97 -24 Z " />
<glyph glyph-name="t" unicode="t" horiz-adv-x="528" d="M499 102 L498 42 Q417 -18 342 -18 Q211 -18 170 105 Q151 163 152 307 L158 899 L57 899 L57 955 Q129 961 169 1009 Q230 1080 257 1259 L302 1259 L301 967 L485 967 L485 899 L301 899 L300 289 Q300 206 305 167 Q310 128 324 101 Q346 62 395 62 Q437 62 499 102 Z " />
<glyph glyph-name="u" unicode="u" horiz-adv-x="901" d="M36 913 L36 948 Q166 964 289 1003 L289 309 Q289 188 318 137 Q353 75 431 75 Q594 75 594 336 L594 793 Q594 871 574.5 892 Q555 913 485 913 L485 948 Q615 963 738 1003 L738 183 Q738 104 754 87.5 Q770 71 851 69 L851 33 Q718 17 624 -21 Q611 67 611 131 Q611 142 611 154 Q571 64 518.5 23.5 Q466 -17 388 -17 Q250 -17 186 97 Q145 169 145 312 L145 793 Q145 871 125.5 892 Q106 913 36 913 Z " />
<glyph glyph-name="v" unicode="v" horiz-adv-x="815" d="M430 -26 L386 -26 L131 839 Q115 895 93.5 911.5 Q72 928 9 932 L9 973 Q130 962 191 962 Q258 962 363 973 L363 932 Q275 933 275 888 Q275 872 285 837 L450 240 L623 832 Q636 876 636 894 Q636 933 554 932 L554 973 Q638 964 681 964 Q722 964 806 973 L806 932 Q747 928 724.5 909.5 Q702 891 685 833 L430 -26 Z " />
<glyph glyph-name="w" unicode="w" horiz-adv-x="1180" d="M590 711 L394 -25 L347 -25 L144 799 L136 828 Q121 891 101 909 Q81 927 22 932 L22 973 Q118 963 193 963 Q268 963 365 973 L365 932 Q271 933 271 887 Q271 876 281 835 L415 272 L607 992 L659 992 L850 269 L988 833 Q997 872 997 888 Q997 933 907 932 L907 973 Q985 965 1043 965 Q1100 965 1165 973 L1165 932 Q1109 928 1084 907.5 Q1059 887 1046 834 L833 -25 L786 -25 L590 711 Z " />
<glyph glyph-name="x" unicode="x" horiz-adv-x="856" d="M452 623 L572 836 Q592 872 592 896 Q592 928 511 932 L511 973 Q590 965 645 965 Q700 965 780 973 L780 932 Q722 928 695 911 Q668 894 640 843 L480 563 L675 141 Q706 76 732 56.5 Q758 37 820 35 L820 -6 Q712 5 639 5 Q565 5 460 -6 L460 35 Q543 40 543 75 Q543 95 526 132 L396 415 L249 150 Q222 102 222 75 Q222 41 309 35 L309 -6 Q217 3 172 3 Q128 3 36 -6 L36 35 Q74 38 96 46 Q136 62 188 154 L368 476 L196 846 Q173 895 147 912.5 Q121 930 66 932 L66 973 Q169 962 240 962 Q312 962 411 973 L411 932 Q335 927 335 894 Q335 878 354 837 L452 623 Z " />
<glyph glyph-name="y" unicode="y" horiz-adv-x="838" d="M391 33 L149 837 Q132 892 109.5 910 Q87 928 25 932 L25 973 Q118 963 199 963 Q279 963 373 973 L373 932 Q287 925 287 891 Q287 875 299 834 L463 264 L634 825 Q647 866 648 887 Q650 929 554 932 L554 973 Q616 965 677 965 Q743 965 821 973 L821 932 Q765 924 739 903 Q713 882 697 831 L388 -169 Q350 -291 293.5 -345.5 Q237 -400 149 -400 Q142 -400 127 -399 L127 -296 Q214 -296 260.5 -257.5 Q307 -219 340 -120 L391 33 Z " />
<glyph glyph-name="z" unicode="z" horiz-adv-x="753" d="M66 0 L502 914 L330 914 Q252 914 217 872 Q180 828 143 701 L104 701 L141 967 L685 967 L247 53 L430 53 Q491 53 520 70.5 Q549 88 577 143 Q602 189 632 295 L672 295 L629 0 L66 0 Z " />
<glyph glyph-name="braceleft" unicode="&#x7b;" horiz-adv-x="541" d="M447 -433 L403 -433 Q325 -433 284 -408 Q241 -383 222 -334 Q203 -285 203 -201 L203 337 Q203 410 182.5 446 Q162 482 106 507 Q162 533 182.5 568.5 Q203 604 203 677 L203 1168 Q203 1252 222 1301 Q241 1350 284 1375 Q325 1399 403 1399 L447 1399 Q344 1365 344 1216 L344 716 Q344 629 321.5 587 Q299 545 233 507 Q273 484 296 462 Q344 417 344 298 L344 -249 Q344 -397 447 -433 Z " />
<glyph glyph-name="bar" unicode="&#x7c;" horiz-adv-x="840" d="M381 1365 L459 1365 L459 -341 L381 -341 L381 1365 Z " />
<glyph glyph-name="braceright" unicode="&#x7d;" horiz-adv-x="540" d="M94 1399 L138 1399 Q216 1399 256 1375 Q299 1350 318 1301 Q337 1252 337 1168 L337 677 Q337 604 357.5 568 Q378 532 435 507 Q379 483 358 446.5 Q337 410 337 337 L337 -201 Q337 -327 291.5 -380 Q246 -433 138 -433 L94 -433 Q198 -395 198 -249 L198 298 Q198 385 220 427 Q242 469 307 507 Q268 530 245 552 Q198 597 198 716 L198 1216 Q198 1363 94 1399 Z " />
<glyph glyph-name="asciitilde" unicode="&#x7e;" horiz-adv-x="1113" d="M872 751 L917 733 Q888 641 830.5 583.5 Q773 526 710 526 Q669 526 590 562 Q432 634 369 634 Q326 634 302.5 614.5 Q279 595 239 526 L196 546 Q273 751 405 751 Q459 751 577 695 Q677 648 729 648 Q771 648 809.5 676 Q848 704 872 751 Z " />
<glyph glyph-name="nbspace" unicode="&#xa0;" horiz-adv-x="430" d="" />
<glyph glyph-name="exclamdown" unicode="&#xa1;" horiz-adv-x="434" d="M258 557 L288 -373 L147 -373 L177 557 L258 557 Z M216 961 Q256 961 285 931.5 Q314 902 314 862 Q314 820 285 791 Q256 762 215 762 Q173 762 144 791.5 Q115 821 115 862 Q115 903 144.5 932 Q174 961 216 961 Z " />
<glyph glyph-name="cent" unicode="&#xa2;" horiz-adv-x="881" d="M511 1184 Q584 1170 637 1102 L676 1205 L708 1205 L708 868 L664 868 Q629 1106 511 1130 L511 245 Q634 272 659 512 L725 512 Q696 219 511 178 L511 24 L454 24 L454 174 Q344 181 264 272 Q145 406 145 673 Q145 974 291 1114 Q361 1181 454 1188 L454 1339 L511 1339 L511 1184 Z M454 245 L454 1128 Q302 1079 302 667 Q302 477 341 369 Q380 261 454 245 Z " />
<glyph glyph-name="sterling" unicode="&#xa3;" horiz-adv-x="878" d="M705 1132 Q696 1229 665.5 1273 Q635 1317 578 1317 Q504 1317 458 1246 Q427 1198 415 1146 Q398 1069 386 952 L365 739 L562 739 L562 670 L358 670 L333 429 Q312 221 203 67 Q304 129 375 129 Q413 129 483 109 Q540 93 583 93 Q694 93 723 296 L780 296 Q762 128 706.5 64 Q651 0 523 0 L98 0 Q134 58 153 132.5 Q172 207 186 345 L217 670 L98 670 L98 739 L223 739 L240 908 Q263 1138 344 1260 Q430 1388 567 1388 Q754 1388 770 1132 L705 1132 Z " />
<glyph glyph-name="currency" unicode="&#xa4;" horiz-adv-x="1133" d="M104 184 L255 338 Q175 448 175 572 Q175 695 255 802 L99 956 L177 1035 L331 881 Q444 962 567 962 Q690 962 802 881 L957 1034 L1035 956 L881 803 Q961 691 961 569 Q961 445 882 338 L1036 184 L959 106 L804 260 Q694 180 570 180 Q448 180 334 260 L181 106 L104 184 Z M571 843 Q456 843 376 763 Q298 684 298 570 Q298 459 377 380 Q457 300 568 300 Q680 300 759 380 Q838 459 838 571 Q838 686 760 763 Q678 843 571 843 Z " />
<glyph glyph-name="yen" unicode="&#xa5;" horiz-adv-x="877" d="M300 807 L100 807 L100 892 L274 892 L177 1207 Q158 1267 130.5 1291 Q103 1315 43 1321 L43 1371 Q157 1357 231 1357 Q305 1357 416 1371 L416 1321 Q316 1310 316 1268 Q316 1249 330 1203 L485 684 L644 1205 Q658 1251 658 1271 Q658 1313 561 1321 L561 1371 Q648 1361 698 1361 Q748 1361 838 1371 L838 1321 Q772 1311 745.5 1288 Q719 1265 699 1200 L606 892 L778 892 L778 807 L580 807 L537 664 L778 664 L778 579 L516 579 L516 180 Q516 98 537.5 75 Q559 52 644 44 L644 -6 Q517 9 439 9 Q362 9 235 -6 L235 44 Q319 52 341 75 Q363 98 363 180 L363 579 L100 579 L100 664 L344 664 L300 807 Z " />
<glyph glyph-name="brokenbar" unicode="&#xa6;" horiz-adv-x="840" d="M381 1365 L459 1365 L459 686 L381 686 L381 1365 Z M381 314 L459 314 L459 -341 L381 -341 L381 314 Z " />
<glyph glyph-name="section" unicode="&#xa7;" horiz-adv-x="878" d="M312 820 Q257 861 227 897 Q156 982 156 1095 Q156 1228 251 1312 Q331 1383 445 1383 Q569 1383 645 1293.5 Q721 1204 721 1056 L665 1056 Q659 1128 642 1166 Q613 1226 561.5 1262 Q510 1298 452 1298 Q358 1298 308 1221 Q274 1170 274 1113 Q274 1065 296 1028 Q318 991 371 951 Q412 920 483 875 Q600 801 649 760 Q751 677 751 544 Q751 453 703.5 380 Q656 307 574 269 Q649 221 683 176 Q740 99 740 -3 Q740 -138 650 -223 Q567 -301 439 -301 Q304 -301 221 -211 Q138 -121 137 26 L195 26 Q196 -45 226 -101 Q291 -222 422 -222 Q507 -222 563.5 -171 Q620 -120 620 -43 Q620 42 564 97 Q540 121 452 174 Q259 289 193 366.5 Q127 444 127 552 Q127 746 312 820 Z M361 781 Q229 734 229 621 Q229 489 433 359 L519 304 Q637 362 637 485 Q637 562 595 611 Q570 639 477 702 L361 781 Z " />
<glyph glyph-name="dieresis" unicode="&#xa8;" horiz-adv-x="847" d="M280 1363 Q318 1363 345 1335.5 Q372 1308 372 1270 Q372 1231 345 1204 Q318 1177 279 1177 Q240 1177 213 1204.5 Q186 1232 186 1271 Q186 1309 213.5 1336 Q241 1363 280 1363 Z M576 1363 Q613 1363 640 1335.5 Q667 1308 667 1270 Q667 1231 640 1204 Q613 1177 574 1177 Q535 1177 508 1204.5 Q481 1232 481 1271 Q481 1309 508.5 1336 Q536 1363 576 1363 Z " />
<glyph glyph-name="copyright" unicode="&#xa9;" horiz-adv-x="1466" d="M743 1318 Q463 1318 279 1108 Q122 928 122 690 Q122 404 324 216 Q499 53 734 53 Q897 53 1039 138 Q1182 223 1263 369 Q1345 516 1345 686 Q1345 965 1143 1155 Q1048 1244 926 1285 Q829 1318 743 1318 Z M906 558 L953 558 Q950 438 904 359 Q876 313 827.5 285.5 Q779 258 723 258 Q621 258 546 340 Q501 389 473 483 Q445 577 445 681 Q445 859 514 979 Q588 1107 727 1107 Q819 1107 884 1039 L918 1105 L945 1105 L945 854 L912 854 Q873 1054 742 1054 Q674 1054 631 1004 Q600 966 579 879.5 Q558 793 558 698 Q558 326 741 326 Q815 326 858 386 Q901 446 906 558 Z M744 1388 Q919 1388 1075 1294 Q1234 1197 1325 1036 Q1416 875 1416 685 Q1416 496 1325 333 Q1233 170 1075 76 Q916 -18 734 -18 Q551 -18 392 76 Q233 170 142 333 Q51 497 51 690 Q51 877 142 1036 Q237 1202 392 1294 Q551 1388 744 1388 Z " />
<glyph glyph-name="ordfeminine" unicode="&#xaa;" horiz-adv-x="592" d="M520 821 L520 773 Q482 764 454 764 Q390 764 374 857 Q327 761 240 761 Q173 761 131 809 Q90 855 90 929 Q90 1028 166 1081 Q246 1136 360 1155 L360 1224 Q360 1288 341 1316 Q322 1344 279 1344 Q245 1344 222.5 1325.5 Q200 1307 200 1278 Q200 1271 201 1258 Q201 1251 201 1241 Q201 1184 153 1184 Q114 1184 114 1232 Q114 1299 167 1346 Q218 1391 288 1391 Q385 1391 430 1312 Q453 1271 453 1177 L453 920 Q453 861 460.5 838 Q468 815 488 815 Q499 815 520 821 Z M360 1108 Q269 1088 227 1047 Q185 1006 185 937 Q185 829 265 829 Q315 829 337.5 871.5 Q360 914 360 1007 L360 1108 Z M69 653 L540 653 L540 576 L69 576 L69 653 Z " />
<glyph glyph-name="guillemotleft" unicode="&#xab;" horiz-adv-x="674" d="M521 967 L575 967 L446 489 L575 0 L521 0 L314 489 L521 967 Z M299 967 L352 967 L224 489 L352 0 L299 0 L92 489 L299 967 Z " />
<glyph glyph-name="logicalnot" unicode="&#xac;" horiz-adv-x="840" d="M770 0 L617 0 L617 470 L70 470 L70 546 L770 546 L770 0 Z " />
<glyph glyph-name="uni00AD" unicode="&#xad;" horiz-adv-x="441" d="M10 503 L10 591 L431 591 L431 503 L10 503 Z " />
<glyph glyph-name="registered" unicode="&#xae;" horiz-adv-x="1466" d="M654 656 L654 386 Q654 341 666 329 Q678 317 728 312 L728 269 Q648 279 597 279 Q546 279 464 269 L464 312 Q475 313 481 314 Q525 318 536.5 330.5 Q548 343 548 386 L548 975 Q548 1021 535 1032.5 Q522 1044 464 1049 L464 1092 L742 1092 Q857 1092 910 1028 Q965 963 965 873 Q965 796 925 742 Q885 688 814 668 Q858 643 885 569 L955 378 Q971 336 984 325 Q997 314 1039 312 L1039 269 Q992 273 964 273 Q937 273 893 269 Q879 304 863 348 L785 564 Q764 623 745.5 639.5 Q727 656 684 656 L654 656 Z M655 707 L725 707 Q858 707 858 877 Q858 1041 730 1041 L655 1041 L655 707 Z M744 1388 Q919 1388 1075 1294 Q1234 1197 1325 1036 Q1416 875 1416 685 Q1416 496 1325 333 Q1233 170 1075 76 Q916 -18 734 -18 Q551 -18 392 76 Q233 170 142 333 Q51 497 51 690 Q51 877 142 1036 Q237 1202 392 1294 Q551 1388 744 1388 Z M743 1317 Q463 1317 279 1107 Q122 928 122 690 Q122 404 324 216 Q499 53 734 53 Q896 53 1039 138 Q1182 223 1263 369 Q1345 516 1345 685 Q1345 964 1143 1154 Q1048 1243 926 1284 Q829 1317 743 1317 Z " />
<glyph glyph-name="overscore" unicode="&#xaf;" horiz-adv-x="840" d="M170 1191 L170 1274 L670 1274 L670 1191 L170 1191 Z " />
<glyph glyph-name="degree" unicode="&#xb0;" horiz-adv-x="878" d="M443 1376 Q555 1376 634 1289 Q702 1214 702 1113 Q702 996 615 918 Q540 850 439 850 Q322 850 244 937 Q176 1012 176 1115 Q176 1229 263 1308 Q337 1376 443 1376 Z M442 1294 Q359 1294 305 1234 Q258 1183 258 1114 Q258 1032 318 979 Q370 932 439 932 Q520 932 573 992 Q620 1043 620 1113 Q620 1192 560 1247 Q509 1294 442 1294 Z " />
<glyph glyph-name="plusminus" unicode="&#xb1;" horiz-adv-x="877" d="M98 636 L98 745 L388 745 L388 1109 L499 1109 L499 745 L779 745 L779 636 L499 636 L499 286 L388 286 L388 636 L98 636 Z M98 58 L98 169 L779 169 L779 58 L98 58 Z " />
<glyph glyph-name="twosuperior" unicode="&#xb2;" horiz-adv-x="579" d="M484 973 L473 875 L84 875 L84 952 Q95 968 101 975 Q292 1243 357 1411 Q369 1442 369 1489 Q369 1541 341 1574.5 Q313 1608 270 1608 Q159 1608 140 1439 L96 1439 Q103 1549 137 1607 Q158 1644 200.5 1666 Q243 1688 292 1688 Q378 1688 429 1630 Q477 1576 477 1497 Q477 1422 429.5 1339 Q382 1256 179 973 L484 973 Z " />
<glyph glyph-name="threesuperior" unicode="&#xb3;" horiz-adv-x="579" d="M75 1113 L120 1113 Q126 1031 151 989 Q181 940 249 940 Q309 940 346 982 Q385 1027 385 1111 Q385 1195 347.5 1235 Q310 1275 231 1275 L214 1275 L214 1331 L231 1331 Q295 1331 327 1369 Q362 1410 362 1482 Q362 1542 334 1577.5 Q306 1613 259 1613 Q159 1613 136 1464 L92 1464 Q111 1688 282 1688 Q368 1688 419 1631 Q467 1578 467 1493 Q467 1366 350 1311 Q493 1262 493 1107 Q493 988 416 918 Q358 865 274 865 Q83 865 75 1113 Z " />
<glyph glyph-name="acute" unicode="&#xb4;" horiz-adv-x="840" d="M365 1129 L526 1430 L703 1430 L434 1129 L365 1129 Z " />
<glyph glyph-name="mu" unicode="&#xb5;" horiz-adv-x="850" d="M845 126 L845 62 Q763 -21 704 -21 Q646 -21 616 17.5 Q586 56 579 140 Q500 45 454.5 14.5 Q409 -16 348 -16 Q210 -16 166 152 Q165 107 165 76 Q165 -38 181 -196 Q187 -251 187 -287 Q187 -330 170 -358 Q153 -386 127 -386 Q101 -386 83 -360 Q65 -334 65 -296 Q65 -252 76 -173 Q124 229 123 580 L123 937 L267 937 L267 350 Q267 263 273.5 218.5 Q280 174 297 140 Q330 75 397 75 Q442 75 479.5 108 Q517 141 573 230 L573 937 L717 937 L717 236 Q717 132 729 103 Q740 76 768 76 Q800 76 845 126 Z " />
<glyph glyph-name="paragraph" unicode="&#xb6;" horiz-adv-x="877" d="M815 1365 L815 1315 Q727 1308 703.5 1284 Q680 1260 680 1179 L680 -98 Q680 -190 714 -210 Q742 -227 815 -234 L815 -284 Q665 -268 515 -268 Q364 -268 215 -284 L215 -234 Q298 -225 319.5 -202 Q341 -179 341 -98 L341 668 Q87 715 87 1028 Q87 1134 122 1211.5 Q157 1289 220 1323 Q298 1365 447 1365 L815 1365 Z M583 -69 L583 1163 Q583 1251 570 1276 Q557 1301 511 1301 Q465 1301 451.5 1276 Q438 1251 438 1164 L438 -70 Q438 -156 452 -182 Q466 -208 511 -208 Q557 -208 570 -183 Q583 -158 583 -69 Z " />
<glyph glyph-name="periodcentered" unicode="&#xb7;" horiz-adv-x="404" d="M204 599 Q244 599 273 569.5 Q302 540 302 499 Q302 458 273 429 Q244 400 203 400 Q161 400 132 429.5 Q103 459 103 500 Q103 541 132.5 570 Q162 599 204 599 Z " />
<glyph glyph-name="cedilla" unicode="&#xb8;" horiz-adv-x="851" d="M340 -160 L409 0 L479 0 L429 -120 Q579 -138 579 -259 Q579 -327 535 -369 Q491 -411 419 -411 Q361 -411 295 -378 L295 -317 Q346 -336 378 -336 Q416 -336 439.5 -312 Q463 -288 463 -249 Q463 -204 434.5 -183.5 Q406 -163 340 -160 Z " />
<glyph glyph-name="onesuperior" unicode="&#xb9;" horiz-adv-x="579" d="M348 1714 L348 989 Q348 943 361 931 Q374 919 427 915 L427 871 Q358 880 296 880 Q233 880 165 871 L165 915 Q218 919 231 931 Q244 943 244 989 L244 1536 L135 1536 L135 1578 Q271 1592 307 1714 L348 1714 Z " />
<glyph glyph-name="ordmasculine" unicode="&#xba;" horiz-adv-x="592" d="M300 1391 Q391 1391 446.5 1303 Q502 1215 502 1070 Q502 991 476 918 Q450 845 409 808 Q358 761 295 761 Q220 761 165 823 Q130 863 109.5 931.5 Q89 1000 89 1076 Q89 1203 139 1288 Q200 1391 300 1391 Z M298 1345 Q197 1345 197 1074 Q197 807 296 807 Q343 807 369 872.5 Q395 938 395 1057 Q395 1345 298 1345 Z M60 653 L531 653 L531 576 L60 576 L60 653 Z " />
<glyph glyph-name="guillemotright" unicode="&#xbb;" horiz-adv-x="674" d="M153 967 L359 489 L153 0 L99 0 L228 489 L99 967 L153 967 Z M375 967 L582 489 L375 0 L321 0 L450 489 L321 967 L375 967 Z " />
<glyph glyph-name="onequarter" unicode="&#xbc;" horiz-adv-x="1218" d="M963 -18 L963 209 L685 209 L967 823 L1073 823 L1073 300 L1172 300 L1172 209 L1073 209 L1073 -18 L963 -18 Z M965 300 L965 699 L784 300 L965 300 Z M348 1373 L348 647 Q348 602 361 590 Q374 578 427 574 L427 530 Q359 539 296 539 Q232 539 165 530 L165 574 Q218 578 231 590 Q244 602 244 647 L244 1195 L135 1195 L135 1237 Q271 1251 307 1373 L348 1373 Z M287 0 L914 1336 L997 1336 L370 0 L287 0 Z " />
<glyph glyph-name="onehalf" unicode="&#xbd;" horiz-adv-x="1218" d="M348 1373 L348 647 Q348 602 361 590 Q374 578 427 574 L427 530 Q359 539 296 539 Q232 539 165 530 L165 574 Q218 578 231 590 Q244 602 244 647 L244 1195 L135 1195 L135 1237 Q271 1251 307 1373 L348 1373 Z M1122 98 L1111 0 L722 0 L722 77 Q733 93 739 100 Q930 370 995 536 Q1007 567 1007 614 Q1007 666 979 699.5 Q951 733 908 733 Q797 733 778 564 L734 564 Q741 674 775 732 Q796 769 838.5 791 Q881 813 930 813 Q1016 813 1067 755 Q1115 701 1115 622 Q1115 547 1067.5 463.5 Q1020 380 817 98 L1122 98 Z M255 0 L882 1336 L964 1336 L337 0 L255 0 Z " />
<glyph glyph-name="threequarters" unicode="&#xbe;" horiz-adv-x="1218" d="M963 -18 L963 209 L685 209 L968 823 L1073 823 L1073 300 L1172 300 L1172 209 L1073 209 L1073 -18 L963 -18 Z M965 300 L965 699 L784 300 L965 300 Z M75 771 L120 771 Q126 689 151 648 Q181 598 249 598 Q309 598 346 640 Q385 685 385 769 Q385 853 347.5 893 Q310 933 231 933 L214 933 L214 990 L231 990 Q295 990 327 1028 Q362 1069 362 1140 Q362 1200 334 1235.5 Q306 1271 259 1271 Q159 1271 136 1123 L92 1123 Q111 1346 282 1346 Q368 1346 419 1289 Q467 1236 467 1151 Q467 1025 350 969 Q493 920 493 765 Q493 647 416 576 Q358 523 274 523 Q83 523 75 771 Z M296 0 L922 1336 L1005 1336 L378 0 L296 0 Z " />
<glyph glyph-name="questiondown" unicode="&#xbf;" horiz-adv-x="647" d="M338 575 L408 575 Q415 513 415 467 Q415 370 392 305.5 Q369 241 306 158 Q242 74 218.5 21 Q195 -32 195 -93 Q195 -173 234.5 -221 Q274 -269 341 -269 Q423 -269 471 -207 Q519 -145 528 -28 L574 -28 Q574 -129 549 -205 Q528 -272 475 -320 Q402 -387 296 -387 Q185 -387 119 -311 Q48 -229 48 -95 Q48 -1 80 65 Q112 131 202 220 Q266 283 293 327 Q340 405 340 535 Q340 551 338 575 Z M360 964 Q400 964 429 934.5 Q458 905 458 865 Q458 823 429 794 Q400 765 358 765 Q317 765 288 794.5 Q259 824 259 865 Q259 906 288.5 935 Q318 964 360 964 Z " />
<glyph glyph-name="Agrave" unicode="&#xc0;" horiz-adv-x="1074" d="M310 397 L252 203 Q231 130 231 102 Q231 51 339 44 L339 -6 Q245 5 183 5 Q121 5 27 -6 L27 44 Q102 51 128 75 Q154 99 181 187 L558 1411 L899 165 Q918 94 944 73 Q970 52 1047 44 L1047 -6 Q935 9 848 9 Q761 9 648 -6 L648 44 Q746 54 746 103 Q746 131 735 174 L679 397 L310 397 Z M329 460 L664 460 L511 1064 L329 460 Z M651 1483 L573 1483 L250 1764 L445 1764 L651 1483 Z " />
<glyph glyph-name="Aacute" unicode="&#xc1;" horiz-adv-x="1074" d="M310 397 L252 203 Q231 130 231 102 Q231 51 339 44 L339 -6 Q245 5 183 5 Q121 5 27 -6 L27 44 Q102 51 128 75 Q154 99 181 187 L558 1411 L899 165 Q918 94 944 73 Q970 52 1047 44 L1047 -6 Q935 9 848 9 Q761 9 648 -6 L648 44 Q746 54 746 103 Q746 131 735 174 L679 397 L310 397 Z M329 460 L664 460 L511 1064 L329 460 Z M483 1483 L689 1764 L884 1764 L561 1483 L483 1483 Z " />
<glyph glyph-name="Acircumflex" unicode="&#xc2;" horiz-adv-x="1074" d="M310 397 L252 203 Q231 130 231 102 Q231 51 339 44 L339 -6 Q245 5 183 5 Q121 5 27 -6 L27 44 Q102 51 128 75 Q154 99 181 187 L558 1411 L899 165 Q918 94 944 73 Q970 52 1047 44 L1047 -6 Q935 9 848 9 Q761 9 648 -6 L648 44 Q746 54 746 103 Q746 131 735 174 L679 397 L310 397 Z M329 460 L664 460 L511 1064 L329 460 Z M278 1485 L511 1762 L603 1762 L836 1485 L754 1485 L557 1656 L360 1485 L278 1485 Z " />
<glyph glyph-name="Atilde" unicode="&#xc3;" horiz-adv-x="1074" d="M310 397 L252 203 Q231 130 231 102 Q231 51 339 44 L339 -6 Q245 5 183 5 Q121 5 27 -6 L27 44 Q102 51 128 75 Q154 99 181 187 L558 1411 L899 165 Q918 94 944 73 Q970 52 1047 44 L1047 -6 Q935 9 848 9 Q761 9 648 -6 L648 44 Q746 54 746 103 Q746 131 735 174 L679 397 L310 397 Z M329 460 L664 460 L511 1064 L329 460 Z M333 1522 L285 1537 Q308 1643 346 1691 Q384 1739 445 1739 Q478 1739 508 1723 Q538 1707 586 1665 Q636 1620 676 1620 Q713 1620 735.5 1644.5 Q758 1669 774 1727 L821 1714 Q809 1628 784 1587 Q733 1504 658 1504 Q626 1504 596 1520.5 Q566 1537 517 1580 Q470 1623 432 1623 Q366 1623 333 1522 Z " />
<glyph glyph-name="Adieresis" unicode="&#xc4;" horiz-adv-x="1074" d="M310 397 L252 203 Q231 130 231 102 Q231 51 339 44 L339 -6 Q245 5 183 5 Q121 5 27 -6 L27 44 Q102 51 128 75 Q154 99 181 187 L558 1411 L899 165 Q918 94 944 73 Q970 52 1047 44 L1047 -6 Q935 9 848 9 Q761 9 648 -6 L648 44 Q746 54 746 103 Q746 131 735 174 L679 397 L310 397 Z M329 460 L664 460 L511 1064 L329 460 Z M413 1725 Q453 1725 482 1695.5 Q511 1666 511 1626 Q511 1584 482 1555 Q453 1526 411 1526 Q370 1526 341 1555.5 Q312 1585 312 1626 Q312 1667 341.5 1696 Q371 1725 413 1725 Z M707 1725 Q747 1725 776 1695.5 Q805 1666 805 1626 Q805 1584 776 1555 Q747 1526 705 1526 Q664 1526 635 1555.5 Q606 1585 606 1626 Q606 1667 635.5 1696 Q665 1725 707 1725 Z " />
<glyph glyph-name="Aring" unicode="&#xc5;" horiz-adv-x="1074" d="M310 397 L252 203 Q231 130 231 102 Q231 51 339 44 L339 -6 Q245 5 183 5 Q121 5 27 -6 L27 44 Q102 51 128 75 Q154 99 181 187 L558 1411 L899 165 Q918 94 944 73 Q970 52 1047 44 L1047 -6 Q935 9 848 9 Q761 9 648 -6 L648 44 Q746 54 746 103 Q746 131 735 174 L679 397 L310 397 Z M329 460 L664 460 L511 1064 L329 460 Z M560 1788 Q623 1788 668 1742 Q713 1696 713 1632 Q713 1562 662 1516 Q617 1476 557 1476 Q493 1476 447.5 1522 Q402 1568 402 1633 Q402 1698 448 1743 Q494 1788 560 1788 Z M559 1720 Q522 1720 496 1694.5 Q470 1669 470 1633 Q470 1596 495.5 1570 Q521 1544 557 1544 Q594 1544 619.5 1570 Q645 1596 645 1632 Q645 1668 619.5 1694 Q594 1720 559 1720 Z " />
<glyph glyph-name="AE" unicode="&#xc6;" horiz-adv-x="1502" d="M1367 1365 L1396 1057 L1350 1057 Q1322 1202 1284 1252 Q1246 1302 1166 1302 L935 1302 L935 741 L1158 741 Q1196 741 1212.5 753 Q1229 765 1239 800 Q1250 838 1253 910 L1299 910 L1299 508 L1253 508 Q1250 607 1228.5 642.5 Q1207 678 1150 678 L935 678 L935 184 Q935 111 956.5 87 Q978 63 1043 63 L1155 63 Q1220 63 1254 83 Q1288 103 1314 157 Q1345 219 1367 330 L1413 330 L1376 0 L647 0 L647 50 Q735 58 758.5 81.5 Q782 105 782 186 L782 462 L400 462 L262 157 Q243 116 243 92 Q243 68 268 57.5 Q293 47 356 44 L356 -6 Q243 4 194 4 Q145 4 27 -6 L27 44 Q75 48 103 59 Q156 78 208 192 L747 1365 L1367 1365 Z M782 525 L782 1296 L429 525 L782 525 Z " />
<glyph glyph-name="Ccedilla" unicode="&#xc7;" horiz-adv-x="991" d="M551 -25 L512 -119 Q667 -132 667 -265 Q667 -336 621.5 -381.5 Q576 -427 505 -427 Q446 -427 374 -395 L374 -327 Q424 -346 458 -346 Q497 -346 522.5 -320 Q548 -294 548 -254 Q548 -207 518.5 -186.5 Q489 -166 419 -164 L479 -23 Q349 -5 254 103 Q177 191 133 344 Q89 497 89 680 Q89 986 206 1191 Q264 1292 360 1347 Q437 1391 534 1391 Q686 1391 786 1271 L840 1387 L873 1387 L873 984 L827 984 Q797 1140 735 1231 Q671 1325 552 1325 Q414 1325 347 1195 Q251 1010 251 675 Q251 364 342 200 Q418 65 550 65 Q671 65 742.5 168.5 Q814 272 823 460 L884 460 Q877 244 789 115.5 Q701 -13 551 -25 Z " />
<glyph glyph-name="Egrave" unicode="&#xc8;" horiz-adv-x="911" d="M822 330 L785 0 L63 0 L63 50 Q146 58 168.5 81.5 Q191 105 191 186 L191 1179 Q191 1260 169 1283.5 Q147 1307 63 1315 L63 1365 L776 1365 L805 1057 L759 1057 Q731 1202 693 1252 Q655 1302 575 1302 L344 1302 L344 741 L567 741 Q605 741 621.5 752.5 Q638 764 648 800 Q660 839 662 910 L708 910 L708 508 L662 508 Q660 606 638 642 Q616 678 558 678 L344 678 L344 184 Q344 111 365.5 87 Q387 63 452 63 L564 63 Q629 63 663 83 Q697 103 723 157 Q754 219 776 330 L822 330 Z M569 1483 L491 1483 L169 1764 L363 1764 L569 1483 Z " />
<glyph glyph-name="Eacute" unicode="&#xc9;" horiz-adv-x="911" d="M822 330 L785 0 L63 0 L63 50 Q146 58 168.5 81.5 Q191 105 191 186 L191 1179 Q191 1260 169 1283.5 Q147 1307 63 1315 L63 1365 L776 1365 L805 1057 L759 1057 Q731 1202 693 1252 Q655 1302 575 1302 L344 1302 L344 741 L567 741 Q605 741 621.5 752.5 Q638 764 648 800 Q660 839 662 910 L708 910 L708 508 L662 508 Q660 606 638 642 Q616 678 558 678 L344 678 L344 184 Q344 111 365.5 87 Q387 63 452 63 L564 63 Q629 63 663 83 Q697 103 723 157 Q754 219 776 330 L822 330 Z M391 1483 L598 1764 L792 1764 L470 1483 L391 1483 Z " />
<glyph glyph-name="Ecircumflex" unicode="&#xca;" horiz-adv-x="911" d="M822 330 L785 0 L63 0 L63 50 Q146 58 168.5 81.5 Q191 105 191 186 L191 1179 Q191 1260 169 1283.5 Q147 1307 63 1315 L63 1365 L776 1365 L805 1057 L759 1057 Q731 1202 693 1252 Q655 1302 575 1302 L344 1302 L344 741 L567 741 Q605 741 621.5 752.5 Q638 764 648 800 Q660 839 662 910 L708 910 L708 508 L662 508 Q660 606 638 642 Q616 678 558 678 L344 678 L344 184 Q344 111 365.5 87 Q387 63 452 63 L564 63 Q629 63 663 83 Q697 103 723 157 Q754 219 776 330 L822 330 Z M180 1485 L412 1762 L505 1762 L737 1485 L656 1485 L459 1656 L262 1485 L180 1485 Z " />
<glyph glyph-name="Edieresis" unicode="&#xcb;" horiz-adv-x="911" d="M822 330 L785 0 L63 0 L63 50 Q146 58 168.5 81.5 Q191 105 191 186 L191 1179 Q191 1260 169 1283.5 Q147 1307 63 1315 L63 1365 L776 1365 L805 1057 L759 1057 Q731 1202 693 1252 Q655 1302 575 1302 L344 1302 L344 741 L567 741 Q605 741 621.5 752.5 Q638 764 648 800 Q660 839 662 910 L708 910 L708 508 L662 508 Q660 606 638 642 Q616 678 558 678 L344 678 L344 184 Q344 111 365.5 87 Q387 63 452 63 L564 63 Q629 63 663 83 Q697 103 723 157 Q754 219 776 330 L822 330 Z M299 1725 Q339 1725 368 1695.5 Q397 1666 397 1626 Q397 1584 368 1555 Q339 1526 298 1526 Q256 1526 227 1555.5 Q198 1585 198 1626 Q198 1667 227.5 1696 Q257 1725 299 1725 Z M594 1725 Q634 1725 663 1695.5 Q692 1666 692 1626 Q692 1584 663 1555 Q634 1526 592 1526 Q551 1526 522 1555.5 Q493 1585 493 1626 Q493 1667 522.5 1696 Q552 1725 594 1725 Z " />
<glyph glyph-name="Igrave" unicode="&#xcc;" horiz-adv-x="534" d="M472 44 L472 -6 Q342 9 268 9 Q193 9 63 -6 L63 44 Q147 52 169 75.5 Q191 99 191 180 L191 1185 Q191 1266 168.5 1290 Q146 1314 63 1321 L63 1371 Q187 1356 268 1356 Q348 1356 472 1371 L472 1321 Q389 1314 366.5 1290 Q344 1266 344 1185 L344 180 Q344 99 366 75.5 Q388 52 472 44 Z M362 1483 L284 1483 L-39 1764 L155 1764 L362 1483 Z " />
<glyph glyph-name="Iacute" unicode="&#xcd;" horiz-adv-x="534" d="M472 44 L472 -6 Q342 9 268 9 Q193 9 63 -6 L63 44 Q147 52 169 75.5 Q191 99 191 180 L191 1185 Q191 1266 169 1290 Q147 1314 63 1321 L63 1371 Q187 1356 268 1356 Q348 1356 472 1371 L472 1321 Q389 1314 366.5 1290 Q344 1266 344 1185 L344 180 Q344 99 366 75.5 Q388 52 472 44 Z M213 1483 L419 1764 L614 1764 L291 1483 L213 1483 Z " />
<glyph glyph-name="Icircumflex" unicode="&#xce;" horiz-adv-x="534" d="M472 44 L472 -6 Q342 9 268 9 Q193 9 63 -6 L63 44 Q147 52 169 75.5 Q191 99 191 180 L191 1185 Q191 1266 168.5 1290 Q146 1314 63 1321 L63 1371 Q187 1356 268 1356 Q348 1356 472 1371 L472 1321 Q389 1314 366.5 1290 Q344 1266 344 1185 L344 180 Q344 99 366 75.5 Q388 52 472 44 Z M2 1485 L221 1762 L313 1762 L532 1485 L451 1485 L267 1656 L84 1485 L2 1485 Z " />
<glyph glyph-name="Idieresis" unicode="&#xcf;" horiz-adv-x="535" d="M472 44 L472 -6 Q342 9 268 9 Q193 9 63 -6 L63 44 Q147 52 169 75.5 Q191 99 191 180 L191 1185 Q191 1266 168.5 1290 Q146 1314 63 1321 L63 1371 Q187 1356 268 1356 Q348 1356 472 1371 L472 1321 Q389 1314 366.5 1290 Q344 1266 344 1185 L344 180 Q344 99 366 75.5 Q388 52 472 44 Z M137 1725 Q177 1725 206 1695.5 Q235 1666 235 1626 Q235 1584 206 1555 Q177 1526 136 1526 Q94 1526 65 1555.5 Q36 1585 36 1626 Q36 1667 65.5 1696 Q95 1725 137 1725 Z M404 1725 Q444 1725 473 1695.5 Q502 1666 502 1626 Q502 1584 473 1555 Q444 1526 402 1526 Q361 1526 332 1555 Q303 1584 303 1626 Q303 1667 332.5 1696 Q362 1725 404 1725 Z " />
<glyph glyph-name="Eth" unicode="&#xd0;" horiz-adv-x="1062" d="M184 680 L56 680 L56 755 L184 755 L184 1179 Q184 1260 161.5 1283.5 Q139 1307 56 1315 L56 1365 L452 1365 Q662 1365 775 1251 Q863 1163 916 1023 Q973 868 973 685 Q973 433 864 230 Q739 0 451 0 L56 0 L56 50 Q140 58 162 81 Q184 104 184 186 L184 680 Z M337 680 L337 166 Q337 98 355.5 78.5 Q374 59 436 59 Q633 59 718 212 Q810 380 810 686 Q810 985 718 1151 Q634 1302 444 1302 L337 1302 L337 755 L580 755 L580 680 L337 680 Z " />
<glyph glyph-name="Ntilde" unicode="&#xd1;" horiz-adv-x="1122" d="M932 -41 L906 -41 Q847 77 736 285 L255 1181 L255 180 Q255 125 261.5 102.5 Q268 80 287 69 Q318 51 388 44 L388 -6 Q270 4 221 4 Q170 4 62 -6 L62 44 Q151 53 173 75.5 Q195 98 195 180 L195 1261 Q172 1292 144.5 1304.5 Q117 1317 61 1321 L61 1371 Q134 1364 200 1364 Q260 1364 319 1371 L872 348 L872 1185 Q872 1240 865.5 1263 Q859 1286 841 1296 Q807 1315 739 1321 L739 1371 Q851 1361 906 1361 Q962 1361 1064 1371 L1064 1321 Q977 1313 954.5 1290 Q932 1267 932 1185 L932 -41 Z M343 1522 L295 1537 Q318 1643 356 1691 Q394 1739 454 1739 Q488 1739 518 1723 Q548 1707 595 1665 Q646 1620 685 1620 Q722 1620 745 1644.5 Q768 1669 784 1727 L831 1714 Q819 1628 794 1587 Q743 1504 668 1504 Q636 1504 605.5 1520.5 Q575 1537 527 1580 Q479 1623 442 1623 Q376 1623 343 1522 Z " />
<glyph glyph-name="Ograve" unicode="&#xd2;" horiz-adv-x="1056" d="M528 1391 Q647 1391 747 1315 Q854 1232 911 1064.5 Q968 897 968 660 Q968 392 855 175 Q803 76 701 17 Q626 -26 532 -26 Q369 -26 252 104 Q173 193 127 370 Q89 516 89 679 Q89 991 200 1186 Q260 1291 357 1346 Q434 1391 528 1391 Z M530 1334 Q419 1334 346 1206 Q317 1156 304 1109 Q252 922 252 691 Q252 518 277.5 377.5 Q303 237 349 156 Q420 31 533 31 Q642 31 710 151 Q740 204 753 255 Q805 448 805 679 Q805 854 780 995.5 Q755 1137 710 1212 Q638 1334 530 1334 Z M578 1483 L500 1483 L177 1764 L372 1764 L578 1483 Z " />
<glyph glyph-name="Oacute" unicode="&#xd3;" horiz-adv-x="1056" d="M528 1391 Q647 1391 747 1315 Q854 1232 911 1064.5 Q968 897 968 660 Q968 392 855 175 Q803 76 701 17 Q626 -26 532 -26 Q369 -26 252 104 Q173 193 127 370 Q89 516 89 679 Q89 991 200 1186 Q260 1291 357 1346 Q434 1391 528 1391 Z M530 1334 Q419 1334 346 1206 Q317 1156 304 1109 Q252 922 252 691 Q252 518 277.5 377.5 Q303 237 349 156 Q420 31 533 31 Q642 31 710 151 Q740 204 753 255 Q805 448 805 679 Q805 854 780 995.5 Q755 1137 710 1212 Q638 1334 530 1334 Z M500 1483 L706 1764 L900 1764 L578 1483 L500 1483 Z " />
<glyph glyph-name="Ocircumflex" unicode="&#xd4;" horiz-adv-x="1056" d="M528 1391 Q647 1391 747 1315 Q854 1232 911 1064.5 Q968 897 968 660 Q968 392 855 175 Q803 76 701 17 Q626 -26 532 -26 Q369 -26 252 104 Q173 193 127 370 Q89 516 89 679 Q89 991 200 1186 Q260 1291 357 1346 Q434 1391 528 1391 Z M530 1334 Q419 1334 346 1206 Q317 1156 304 1109 Q252 922 252 691 Q252 518 277.5 377.5 Q303 237 349 156 Q420 31 533 31 Q642 31 710 151 Q740 204 753 255 Q805 448 805 679 Q805 854 780 995.5 Q755 1137 710 1212 Q638 1334 530 1334 Z M250 1485 L482 1762 L575 1762 L807 1485 L726 1485 L529 1656 L331 1485 L250 1485 Z " />
<glyph glyph-name="Otilde" unicode="&#xd5;" horiz-adv-x="1056" d="M528 1391 Q647 1391 747 1315 Q854 1232 911 1064.5 Q968 897 968 660 Q968 392 855 175 Q803 76 701 17 Q626 -26 532 -26 Q369 -26 252 104 Q173 193 127 370 Q89 516 89 679 Q89 991 200 1186 Q260 1291 357 1346 Q434 1391 528 1391 Z M530 1334 Q419 1334 346 1206 Q317 1156 304 1109 Q252 922 252 691 Q252 518 277.5 377.5 Q303 237 349 156 Q420 31 533 31 Q642 31 710 151 Q740 204 753 255 Q805 448 805 679 Q805 854 780 995.5 Q755 1137 710 1212 Q638 1334 530 1334 Z M309 1522 L260 1537 Q283 1643 321 1691 Q359 1739 420 1739 Q453 1739 483.5 1723 Q514 1707 561 1665 Q611 1620 651 1620 Q688 1620 710.5 1644.5 Q733 1669 749 1727 L797 1714 Q784 1628 759 1587 Q708 1504 633 1504 Q601 1504 571 1520.5 Q541 1537 492 1580 Q445 1623 408 1623 Q341 1623 309 1522 Z " />
<glyph glyph-name="Odieresis" unicode="&#xd6;" horiz-adv-x="1056" d="M528 1391 Q647 1391 747 1315 Q854 1232 911 1064.5 Q968 897 968 660 Q968 392 855 175 Q803 76 701 17 Q626 -26 532 -26 Q369 -26 252 104 Q173 193 127 370 Q89 516 89 679 Q89 991 200 1186 Q260 1291 357 1346 Q434 1391 528 1391 Z M530 1334 Q419 1334 346 1206 Q317 1156 304 1109 Q252 922 252 691 Q252 518 277.5 377.5 Q303 237 349 156 Q420 31 533 31 Q642 31 710 151 Q740 204 753 255 Q805 448 805 679 Q805 854 780 995.5 Q755 1137 710 1212 Q638 1334 530 1334 Z M385 1725 Q425 1725 454 1695.5 Q483 1666 483 1626 Q483 1584 454 1555 Q425 1526 384 1526 Q342 1526 313 1555.5 Q284 1585 284 1626 Q284 1667 313.5 1696 Q343 1725 385 1725 Z M679 1725 Q719 1725 748 1695.5 Q777 1666 777 1626 Q777 1584 748 1555 Q719 1526 677 1526 Q636 1526 607 1555 Q578 1584 578 1626 Q578 1667 607.5 1696 Q637 1725 679 1725 Z " />
<glyph glyph-name="multiply" unicode="&#xd7;" horiz-adv-x="877" d="M120 1000 L202 1075 L441 777 L677 1072 L754 1002 L507 693 L757 381 L675 306 L436 605 L200 309 L122 379 L370 688 L120 1000 Z " />
<glyph glyph-name="Oslash" unicode="&#xd8;" horiz-adv-x="1056" d="M185 212 Q89 420 89 685 Q89 986 200 1186 Q258 1289 357 1346 Q434 1391 529 1391 Q623 1391 703.5 1345 Q784 1299 839 1213 L938 1365 L1013 1365 L874 1152 Q968 959 968 678 Q968 394 855 175 Q804 77 701 17 Q626 -26 533 -26 Q384 -26 274 80 Q245 108 218 149 L121 0 L46 0 L185 212 Z M281 360 L759 1090 Q731 1202 669.5 1268 Q608 1334 531 1334 Q418 1334 346 1206 Q252 1039 252 699 Q252 528 281 360 Z M778 1006 L301 275 Q331 161 392.5 96 Q454 31 533 31 Q642 31 710 151 Q805 320 805 692 Q805 860 778 1006 Z " />
<glyph glyph-name="Ugrave" unicode="&#xd9;" horiz-adv-x="1109" d="M732 1321 L732 1371 Q843 1361 898 1361 Q954 1361 1056 1371 L1056 1321 Q969 1313 946.5 1290 Q924 1267 924 1185 L924 417 Q924 245 868 145 Q774 -23 558 -23 Q402 -23 302 68 Q237 126 209.5 205 Q182 284 182 409 L182 1185 Q182 1267 160.5 1289.5 Q139 1312 54 1321 L54 1371 Q178 1356 259 1356 Q339 1356 463 1371 L463 1321 Q379 1313 357 1289.5 Q335 1266 335 1185 L335 393 Q335 243 369 182 Q433 68 589 68 Q717 68 793 149 Q864 225 864 406 L864 1185 Q864 1267 841.5 1289.5 Q819 1312 732 1321 Z M656 1483 L578 1483 L255 1764 L450 1764 L656 1483 Z " />
<glyph glyph-name="Uacute" unicode="&#xda;" horiz-adv-x="1109" d="M732 1321 L732 1371 Q843 1361 898 1361 Q954 1361 1056 1371 L1056 1321 Q969 1313 946.5 1290 Q924 1267 924 1185 L924 417 Q924 245 868 145 Q774 -23 558 -23 Q402 -23 302 68 Q237 126 209.5 205 Q182 284 182 409 L182 1185 Q182 1267 160.5 1289.5 Q139 1312 54 1321 L54 1371 Q178 1356 259 1356 Q339 1356 463 1371 L463 1321 Q379 1313 357 1289.5 Q335 1266 335 1185 L335 393 Q335 243 369 182 Q433 68 589 68 Q717 68 793 149 Q864 225 864 406 L864 1185 Q864 1267 841.5 1289.5 Q819 1312 732 1321 Z M546 1483 L752 1764 L946 1764 L624 1483 L546 1483 Z " />
<glyph glyph-name="Ucircumflex" unicode="&#xdb;" horiz-adv-x="1109" d="M732 1321 L732 1371 Q843 1361 898 1361 Q954 1361 1056 1371 L1056 1321 Q969 1313 946.5 1290 Q924 1267 924 1185 L924 417 Q924 245 868 145 Q774 -23 558 -23 Q402 -23 302 68 Q237 126 209.5 205 Q182 284 182 409 L182 1185 Q182 1267 160.5 1289.5 Q139 1312 54 1321 L54 1371 Q178 1356 259 1356 Q339 1356 463 1371 L463 1321 Q379 1313 357 1289.5 Q335 1266 335 1185 L335 393 Q335 243 369 182 Q433 68 589 68 Q717 68 793 149 Q864 225 864 406 L864 1185 Q864 1267 841.5 1289.5 Q819 1312 732 1321 Z M321 1485 L554 1762 L646 1762 L879 1485 L797 1485 L600 1656 L403 1485 L321 1485 Z " />
<glyph glyph-name="Udieresis" unicode="&#xdc;" horiz-adv-x="1109" d="M732 1321 L732 1371 Q843 1361 898 1361 Q954 1361 1056 1371 L1056 1321 Q969 1313 946.5 1290 Q924 1267 924 1185 L924 417 Q924 245 868 145 Q774 -23 558 -23 Q402 -23 302 68 Q237 126 209.5 205 Q182 284 182 409 L182 1185 Q182 1267 160.5 1289.5 Q139 1312 54 1321 L54 1371 Q178 1356 259 1356 Q339 1356 463 1371 L463 1321 Q379 1313 357 1289.5 Q335 1266 335 1185 L335 393 Q335 243 369 182 Q433 68 589 68 Q717 68 793 149 Q864 225 864 406 L864 1185 Q864 1267 841.5 1289.5 Q819 1312 732 1321 Z M456 1725 Q496 1725 525 1695.5 Q554 1666 554 1626 Q554 1584 525 1555 Q496 1526 454 1526 Q413 1526 384 1555 Q355 1584 355 1626 Q355 1667 384.5 1696 Q414 1725 456 1725 Z M751 1725 Q791 1725 820 1695.5 Q849 1666 849 1626 Q849 1584 820 1555 Q791 1526 750 1526 Q708 1526 679 1555.5 Q650 1585 650 1626 Q650 1667 679.5 1696 Q709 1725 751 1725 Z " />
<glyph glyph-name="Yacute" unicode="&#xdd;" horiz-adv-x="990" d="M472 1483 L678 1764 L872 1764 L550 1483 L472 1483 Z M421 595 L182 1209 Q158 1271 128.5 1292.5 Q99 1314 32 1321 L32 1371 Q142 1357 239 1357 Q335 1357 445 1371 L445 1321 Q332 1313 332 1269 Q332 1243 348 1203 L549 688 L748 1206 Q764 1247 764 1271 Q764 1294 740 1305 Q716 1316 653 1321 L653 1371 Q744 1361 808 1361 Q872 1361 963 1371 L963 1321 Q893 1311 865 1290 Q837 1269 814 1211 L574 595 L574 180 Q574 98 595 76 Q616 54 702 44 L702 -6 Q572 9 497 9 Q423 9 293 -6 L293 44 Q379 53 400 75.5 Q421 98 421 180 L421 595 Z " />
<glyph glyph-name="Thorn" unicode="&#xde;" horiz-adv-x="914" d="M344 1150 L484 1150 Q680 1150 765 1049 Q857 940 857 775 Q857 687 827.5 609 Q798 531 746 484 Q656 401 500 401 L344 401 L344 180 Q344 99 365.5 76 Q387 53 472 44 L472 -6 Q342 9 268 9 Q193 9 63 -6 L63 44 Q149 54 170 76.5 Q191 99 191 180 L191 1186 Q191 1267 168.5 1290.5 Q146 1314 63 1322 L63 1371 Q187 1356 268 1356 Q348 1356 472 1371 L472 1322 Q389 1314 366.5 1290.5 Q344 1267 344 1186 L344 1150 Z M344 464 L452 464 Q701 464 701 782 Q701 862 679 932.5 Q657 1003 620 1038 Q569 1087 462 1087 L344 1087 L344 464 Z " />
<glyph glyph-name="germandbls" unicode="&#xdf;" horiz-adv-x="864" d="M361 733 L361 783 Q467 788 516 852 Q571 922 571 1073 Q571 1189 537 1252.5 Q503 1316 440 1316 Q301 1316 301 1069 L301 -4 Q231 3 186 3 Q133 3 46 -6 L46 35 Q117 40 137 59.5 Q157 79 157 145 L157 989 Q157 1149 211 1241 Q248 1304 311 1340 Q374 1376 445 1376 Q559 1376 635 1291 Q714 1203 714 1065 Q714 959 670 888 Q626 817 528 764 Q789 681 789 369 Q789 226 728 121 Q692 57 638.5 21.5 Q585 -14 526 -14 Q458 -14 390 45 L390 101 Q436 71 473 71 Q532 71 575 119 Q604 152 622.5 218.5 Q641 285 641 357 Q641 552 548 654 Q482 726 361 733 Z " />
<glyph glyph-name="agrave" unicode="&#xe0;" horiz-adv-x="785" d="M739 54 L739 0 Q681 -14 641 -14 Q527 -14 513 154 Q446 -18 299 -18 Q199 -18 137 53 Q73 126 73 243 Q73 402 195 488 Q317 575 492 603 L492 748 Q492 842 462 886.5 Q432 931 369 931 Q314 931 279.5 900 Q245 869 245 819 Q245 807 246 793 Q247 773 247 758 Q247 672 175 672 Q115 672 115 742 Q115 843 198 917 Q276 986 384 986 Q455 986 512.5 953.5 Q570 921 601 864 Q636 799 636 658 L636 230 Q636 128 649.5 87.5 Q663 47 698 47 Q713 47 739 54 Z M492 550 Q402 529 345 496 Q220 423 220 257 Q220 170 253.5 120 Q287 70 345 70 Q492 70 492 372 L492 550 Z M473 1129 L404 1129 L135 1430 L313 1430 L473 1129 Z " />
<glyph glyph-name="aacute" unicode="&#xe1;" horiz-adv-x="785" d="M739 54 L739 0 Q681 -14 641 -14 Q527 -14 513 154 Q446 -18 299 -18 Q199 -18 137 53 Q73 126 73 243 Q73 402 195 488 Q317 575 492 603 L492 748 Q492 842 462 886.5 Q432 931 369 931 Q314 931 279.5 900 Q245 869 245 819 Q245 807 246 793 Q247 773 247 758 Q247 672 175 672 Q115 672 115 742 Q115 843 198 917 Q276 986 384 986 Q455 986 512.5 953.5 Q570 921 601 864 Q636 799 636 658 L636 230 Q636 128 649.5 87.5 Q663 47 698 47 Q713 47 739 54 Z M492 550 Q402 529 345 496 Q220 423 220 257 Q220 170 253.5 120 Q287 70 345 70 Q492 70 492 372 L492 550 Z M351 1129 L512 1430 L689 1430 L420 1129 L351 1129 Z " />
<glyph glyph-name="acircumflex" unicode="&#xe2;" horiz-adv-x="785" d="M739 54 L739 0 Q681 -14 641 -14 Q527 -14 513 154 Q446 -18 299 -18 Q199 -18 137 53 Q73 126 73 243 Q73 402 195 488 Q317 575 492 603 L492 748 Q492 842 462 886.5 Q432 931 369 931 Q314 931 279.5 900 Q245 869 245 819 Q245 807 246 793 Q247 773 247 758 Q247 672 175 672 Q115 672 115 742 Q115 843 198 917 Q276 986 384 986 Q455 986 512.5 953.5 Q570 921 601 864 Q636 799 636 658 L636 230 Q636 128 649.5 87.5 Q663 47 698 47 Q713 47 739 54 Z M492 550 Q402 529 345 496 Q220 423 220 257 Q220 170 253.5 120 Q287 70 345 70 Q492 70 492 372 L492 550 Z M135 1130 L351 1429 L429 1429 L645 1130 L567 1130 L390 1307 L213 1130 L135 1130 Z " />
<glyph glyph-name="atilde" unicode="&#xe3;" horiz-adv-x="785" d="M739 54 L739 0 Q681 -14 641 -14 Q527 -14 513 154 Q446 -18 299 -18 Q199 -18 137 53 Q73 126 73 243 Q73 402 195 488 Q317 575 492 603 L492 748 Q492 842 462 886.5 Q432 931 369 931 Q314 931 279.5 900 Q245 869 245 819 Q245 807 246 793 Q247 773 247 758 Q247 672 175 672 Q115 672 115 742 Q115 843 198 917 Q276 986 384 986 Q455 986 512.5 953.5 Q570 921 601 864 Q636 799 636 658 L636 230 Q636 128 649.5 87.5 Q663 47 698 47 Q713 47 739 54 Z M492 550 Q402 529 345 496 Q220 423 220 257 Q220 170 253.5 120 Q287 70 345 70 Q492 70 492 372 L492 550 Z M194 1181 L148 1197 Q172 1303 206 1350 Q239 1398 302 1398 Q352 1398 408 1348 L447 1312 Q484 1279 518 1279 Q553 1279 574 1302.5 Q595 1326 612 1386 L657 1373 Q645 1281 608 1225 Q568 1163 501 1163 Q448 1163 368 1239 Q324 1282 289 1282 Q227 1282 194 1181 Z " />
<glyph glyph-name="adieresis" unicode="&#xe4;" horiz-adv-x="785" d="M739 54 L739 0 Q681 -14 641 -14 Q527 -14 513 154 Q446 -18 299 -18 Q199 -18 137 53 Q73 126 73 243 Q73 402 195 488 Q317 575 492 603 L492 748 Q492 842 462 886.5 Q432 931 369 931 Q314 931 279.5 900 Q245 869 245 819 Q245 807 246 793 Q247 773 247 758 Q247 672 175 672 Q115 672 115 742 Q115 843 198 917 Q276 986 384 986 Q455 986 512.5 953.5 Q570 921 601 864 Q636 799 636 658 L636 230 Q636 128 649.5 87.5 Q663 47 698 47 Q713 47 739 54 Z M492 550 Q402 529 345 496 Q220 423 220 257 Q220 170 253.5 120 Q287 70 345 70 Q492 70 492 372 L492 550 Z M244 1363 Q281 1363 308 1335.5 Q335 1308 335 1270 Q335 1231 308 1204 Q281 1177 242 1177 Q203 1177 176 1204.5 Q149 1232 149 1271 Q149 1309 176.5 1336 Q204 1363 244 1363 Z M538 1363 Q576 1363 603 1335.5 Q630 1308 630 1270 Q630 1232 603 1204.5 Q576 1177 537 1177 Q498 1177 471 1204.5 Q444 1232 444 1271 Q444 1309 471.5 1336 Q499 1363 538 1363 Z " />
<glyph glyph-name="aring" unicode="&#xe5;" horiz-adv-x="785" d="M739 54 L739 0 Q681 -14 641 -14 Q527 -14 513 154 Q446 -18 299 -18 Q199 -18 137 53 Q73 126 73 243 Q73 402 195 488 Q317 575 492 603 L492 748 Q492 842 462 886.5 Q432 931 369 931 Q314 931 279.5 900 Q245 869 245 819 Q245 807 246 793 Q247 773 247 758 Q247 672 175 672 Q115 672 115 742 Q115 843 198 917 Q276 986 384 986 Q455 986 512.5 953.5 Q570 921 601 864 Q636 799 636 658 L636 230 Q636 128 649.5 87.5 Q663 47 698 47 Q713 47 739 54 Z M492 550 Q402 529 345 496 Q220 423 220 257 Q220 170 253.5 120 Q287 70 345 70 Q492 70 492 372 L492 550 Z M405 1446 Q467 1446 512.5 1400 Q558 1354 558 1291 Q558 1221 506 1175 Q462 1135 402 1135 Q337 1135 291.5 1180.5 Q246 1226 246 1292 Q246 1356 292 1401 Q338 1446 405 1446 Z M403 1378 Q366 1378 340 1353 Q314 1328 314 1291 Q314 1255 339.5 1229 Q365 1203 402 1203 Q438 1203 464 1228.5 Q490 1254 490 1291 Q490 1326 464.5 1352 Q439 1378 403 1378 Z " />
<glyph glyph-name="ae" unicode="&#xe6;" horiz-adv-x="1198" d="M546 202 Q518 112 480 64 Q415 -19 301 -19 Q200 -19 137 52 Q73 125 73 239 Q73 524 502 572 L502 748 Q502 862 457 901 Q421 931 369 931 Q315 931 279 900.5 Q243 870 243 825 Q243 812 244 797 Q246 775 246 757 Q246 672 174 672 Q115 672 115 742 Q115 843 198 917 Q275 986 382 986 Q529 986 598 865 Q687 986 822 986 Q961 986 1038 862 Q1115 738 1121 505 L651 505 Q654 291 684 200 Q733 49 851 49 Q936 49 989.5 118 Q1043 187 1058 315 L1123 315 Q1111 186 1049 94 Q975 -19 830 -19 Q632 -19 546 202 Z M977 573 Q974 763 930 849 Q888 933 819 933 Q748 933 707.5 844.5 Q667 756 654 573 L977 573 Z M502 509 Q381 490 307 442 Q219 385 219 249 Q219 168 253 120 Q287 72 346 72 Q427 72 464.5 144 Q502 216 502 372 L502 509 Z " />
<glyph glyph-name="ccedilla" unicode="&#xe7;" horiz-adv-x="734" d="M413 -22 L372 -121 Q522 -137 522 -259 Q522 -327 477.5 -369 Q433 -411 362 -411 Q302 -411 238 -378 L238 -317 Q288 -336 322 -336 Q359 -336 382.5 -311.5 Q406 -287 406 -249 Q406 -205 377.5 -184.5 Q349 -164 282 -160 L345 -17 Q262 1 197 75 Q78 209 78 477 Q78 693 160 835 Q250 992 402 992 Q503 992 570 905 L609 1009 L641 1009 L641 671 L598 671 Q559 937 422 937 Q331 937 283 814.5 Q235 692 235 464 Q235 259 282 152 Q329 45 419 45 Q564 45 592 315 L658 315 Q627 -6 413 -22 Z " />
<glyph glyph-name="egrave" unicode="&#xe8;" horiz-adv-x="771" d="M631 315 L696 315 Q684 184 622 92 Q548 -20 407 -20 Q242 -20 156 130 Q75 272 75 485 Q75 695 155 835 Q197 907 260 947 Q323 987 395 987 Q534 987 612 862.5 Q690 738 695 507 L223 507 Q226 369 235 299.5 Q244 230 268 170 Q314 48 426 48 Q510 48 563.5 117.5 Q617 187 631 315 Z M551 575 Q542 934 393 934 Q322 934 278.5 840.5 Q235 747 227 575 L551 575 Z M485 1129 L416 1129 L147 1430 L324 1430 L485 1129 Z " />
<glyph glyph-name="eacute" unicode="&#xe9;" horiz-adv-x="771" d="M631 315 L696 315 Q684 184 622 92 Q548 -20 407 -20 Q242 -20 156 130 Q75 272 75 485 Q75 695 155 835 Q197 907 260 947 Q323 987 395 987 Q534 987 612 862.5 Q690 738 695 507 L223 507 Q226 369 235 299.5 Q244 230 268 170 Q314 48 426 48 Q510 48 563.5 117.5 Q617 187 631 315 Z M551 575 Q542 934 393 934 Q322 934 278.5 840.5 Q235 747 227 575 L551 575 Z M353 1129 L514 1430 L691 1430 L422 1129 L353 1129 Z " />
<glyph glyph-name="ecircumflex" unicode="&#xea;" horiz-adv-x="771" d="M631 315 L696 315 Q684 184 622 92 Q548 -20 407 -20 Q242 -20 156 130 Q75 272 75 485 Q75 695 155 835 Q197 907 260 947 Q323 987 395 987 Q534 987 612 862.5 Q690 738 695 507 L223 507 Q226 369 235 299.5 Q244 230 268 170 Q314 48 426 48 Q510 48 563.5 117.5 Q617 187 631 315 Z M551 575 Q542 934 393 934 Q322 934 278.5 840.5 Q235 747 227 575 L551 575 Z M141 1130 L356 1429 L435 1429 L650 1130 L572 1130 L395 1307 L218 1130 L141 1130 Z " />
<glyph glyph-name="edieresis" unicode="&#xeb;" horiz-adv-x="771" d="M631 315 L696 315 Q684 184 622 92 Q548 -20 407 -20 Q242 -20 156 130 Q75 272 75 485 Q75 695 155 835 Q197 907 260 947 Q323 987 395 987 Q534 987 612 862.5 Q690 738 695 507 L223 507 Q226 369 235 299.5 Q244 230 268 170 Q314 48 426 48 Q510 48 563.5 117.5 Q617 187 631 315 Z M551 575 Q542 934 393 934 Q322 934 278.5 840.5 Q235 747 227 575 L551 575 Z M262 1363 Q299 1363 326 1335.5 Q353 1308 353 1270 Q353 1231 326 1204 Q299 1177 260 1177 Q221 1177 194 1204.5 Q167 1232 167 1271 Q167 1309 194.5 1336 Q222 1363 262 1363 Z M557 1363 Q594 1363 621 1335.5 Q648 1308 648 1270 Q648 1231 621 1204 Q594 1177 555 1177 Q516 1177 489 1204.5 Q462 1232 462 1271 Q462 1309 489.5 1336 Q517 1363 557 1363 Z " />
<glyph glyph-name="igrave" unicode="&#xec;" horiz-adv-x="477" d="M314 1003 L314 145 Q314 79 334 59.5 Q354 40 425 35 L425 -6 Q309 6 242 6 Q175 6 59 -6 L59 35 Q130 40 150 59.5 Q170 79 170 145 L170 793 Q170 871 151 891.5 Q132 912 61 913 L61 948 Q194 964 314 1003 Z M316 1129 L247 1129 L-22 1430 L155 1430 L316 1129 Z " />
<glyph glyph-name="iacute" unicode="&#xed;" horiz-adv-x="477" d="M314 1003 L314 145 Q314 79 334 59.5 Q354 40 424 35 L424 -6 Q309 6 242 6 Q175 6 59 -6 L59 35 Q130 40 150 59.5 Q170 79 170 145 L170 793 Q170 871 151 891.5 Q132 912 60 913 L60 948 Q194 964 314 1003 Z M190 1129 L350 1430 L528 1430 L259 1129 L190 1129 Z " />
<glyph glyph-name="icircumflex" unicode="&#xee;" horiz-adv-x="477" d="M313 1003 L313 145 Q313 79 333 59.5 Q353 40 424 35 L424 -6 Q308 6 241 6 Q174 6 58 -6 L58 35 Q129 40 149 59.5 Q169 79 169 145 L169 793 Q169 871 150 891.5 Q131 912 60 913 L60 948 Q193 964 313 1003 Z M3 1130 L202 1429 L281 1429 L480 1130 L402 1130 L241 1307 L81 1130 L3 1130 Z " />
<glyph glyph-name="idieresis" unicode="&#xef;" horiz-adv-x="477" d="M314 1003 L314 145 Q314 79 334 59.5 Q354 40 425 35 L425 -6 Q309 6 242 6 Q176 6 59 -6 L59 35 Q130 40 150 59.5 Q170 79 170 145 L170 793 Q170 871 151 891.5 Q132 912 61 913 L61 948 Q195 964 314 1003 Z M348 1363 Q386 1363 413 1335.5 Q440 1308 440 1270 Q440 1231 413 1204 Q386 1177 347 1177 Q308 1177 281 1204.5 Q254 1232 254 1271 Q254 1309 281.5 1336 Q309 1363 348 1363 Z M115 1363 Q152 1363 179 1335.5 Q206 1308 206 1270 Q206 1231 179 1204 Q152 1177 113 1177 Q74 1177 47 1204.5 Q20 1232 20 1271 Q20 1309 47.5 1336 Q75 1363 115 1363 Z " />
<glyph glyph-name="eth" unicode="&#xf0;" horiz-adv-x="788" d="M458 968 L360 1143 L238 1048 L208 1106 L329 1202 L241 1357 L279 1389 L382 1245 L509 1345 L539 1285 L419 1190 L554 978 Q623 869 655 792 Q713 648 713 480 Q713 276 632 133 Q546 -20 396 -20 Q246 -20 157 135 Q75 277 75 487 Q75 692 155 831 Q198 904 261 946 Q324 988 392 988 Q426 988 458 968 Z M393 935 Q327 935 285 860 Q226 753 226 499 Q226 33 397 33 Q562 33 562 474 Q562 603 545 707.5 Q528 812 499 861 Q456 935 393 935 Z " />
<glyph glyph-name="ntilde" unicode="&#xf1;" horiz-adv-x="918" d="M61 907 L61 942 Q192 965 281 1003 Q294 936 299 825 Q384 986 523 986 Q584 986 636.5 954.5 Q689 923 720 868 Q762 793 762 648 L762 145 Q762 80 782 60 Q802 40 873 35 L873 -6 Q766 6 694 6 Q620 6 516 -6 L516 34 Q577 37 597.5 58.5 Q618 80 618 142 L618 655 Q618 779 589 830 Q553 893 478 893 Q389 893 344 811 Q314 754 314 647 L314 142 Q314 81 334 59.5 Q354 38 414 34 L414 -6 Q309 6 237 6 Q166 6 59 -6 L59 35 Q130 40 150 59.5 Q170 79 170 145 L170 779 Q170 868 154.5 886 Q139 904 61 907 Z M257 1181 L211 1197 Q235 1303 269 1350 Q302 1398 365 1398 Q415 1398 471 1348 L510 1312 Q547 1279 581 1279 Q616 1279 637 1302.5 Q658 1326 675 1386 L720 1373 Q708 1281 671 1225 Q631 1163 564 1163 Q511 1163 431 1239 Q387 1282 352 1282 Q290 1282 257 1181 Z " />
<glyph glyph-name="ograve" unicode="&#xf2;" horiz-adv-x="789" d="M402 992 Q512 992 592 901 Q646 839 679.5 724 Q713 609 713 487 Q713 274 628 128 Q541 -22 393 -22 Q298 -22 221 49 Q151 113 113 226.5 Q75 340 75 483 Q75 696 157 835 Q250 992 402 992 Z M397 939 Q331 939 288 862 Q226 750 226 479 Q226 31 393 31 Q459 31 501 106 Q562 215 562 480 Q562 939 397 939 Z M516 1129 L447 1129 L178 1430 L355 1430 L516 1129 Z " />
<glyph glyph-name="oacute" unicode="&#xf3;" horiz-adv-x="789" d="M402 992 Q512 992 592 901 Q646 839 679.5 724 Q713 609 713 487 Q713 274 628 128 Q541 -22 393 -22 Q298 -22 221 49 Q151 113 113 226.5 Q75 340 75 483 Q75 696 157 835 Q250 992 402 992 Z M397 939 Q331 939 288 862 Q226 750 226 479 Q226 31 393 31 Q459 31 501 106 Q562 215 562 480 Q562 939 397 939 Z M365 1129 L525 1430 L703 1430 L434 1129 L365 1129 Z " />
<glyph glyph-name="ocircumflex" unicode="&#xf4;" horiz-adv-x="789" d="M402 992 Q512 992 592 901 Q646 839 679.5 724 Q713 609 713 487 Q713 274 628 128 Q541 -22 393 -22 Q298 -22 221 49 Q151 113 113 226.5 Q75 340 75 483 Q75 696 157 835 Q250 992 402 992 Z M397 939 Q331 939 288 862 Q226 750 226 479 Q226 31 393 31 Q459 31 501 106 Q562 215 562 480 Q562 939 397 939 Z M139 1130 L355 1429 L434 1429 L649 1130 L571 1130 L394 1307 L217 1130 L139 1130 Z " />
<glyph glyph-name="otilde" unicode="&#xf5;" horiz-adv-x="789" d="M402 992 Q512 992 592 901 Q646 839 679.5 724 Q713 609 713 487 Q713 274 628 128 Q541 -22 393 -22 Q298 -22 221 49 Q151 113 113 226.5 Q75 340 75 483 Q75 696 157 835 Q250 992 402 992 Z M397 939 Q331 939 288 862 Q226 750 226 479 Q226 31 393 31 Q459 31 501 106 Q562 215 562 480 Q562 939 397 939 Z M186 1181 L140 1197 Q164 1303 197 1350 Q231 1398 293 1398 Q343 1398 399 1348 L438 1312 Q475 1279 509 1279 Q544 1279 565 1302.5 Q586 1326 604 1386 L649 1373 Q636 1281 600 1225 Q559 1163 492 1163 Q439 1163 360 1239 Q315 1282 280 1282 Q219 1282 186 1181 Z " />
<glyph glyph-name="odieresis" unicode="&#xf6;" horiz-adv-x="789" d="M402 992 Q512 992 592 901 Q646 839 679.5 724 Q713 609 713 487 Q713 274 628 128 Q541 -22 393 -22 Q298 -22 221 49 Q151 113 113 226.5 Q75 340 75 483 Q75 696 157 835 Q250 992 402 992 Z M397 939 Q331 939 288 862 Q226 750 226 479 Q226 31 393 31 Q459 31 501 106 Q562 215 562 480 Q562 939 397 939 Z M252 1363 Q289 1363 316 1335.5 Q343 1308 343 1270 Q343 1231 316 1204 Q289 1177 250 1177 Q211 1177 184 1204.5 Q157 1232 157 1271 Q157 1309 184.5 1336 Q212 1363 252 1363 Z M545 1363 Q583 1363 610 1335.5 Q637 1308 637 1270 Q637 1231 610 1204 Q583 1177 544 1177 Q505 1177 478 1204.5 Q451 1232 451 1271 Q451 1309 478.5 1336 Q506 1363 545 1363 Z " />
<glyph glyph-name="divide" unicode="&#xf7;" horiz-adv-x="877" d="M98 636 L98 744 L779 744 L779 636 L98 636 Z M443 1073 Q483 1073 512 1043.5 Q541 1014 541 973 Q541 932 512 903 Q483 874 442 874 Q400 874 371 903.5 Q342 933 342 974 Q342 1015 371.5 1044 Q401 1073 443 1073 Z M440 509 Q480 509 509 479.5 Q538 450 538 409 Q538 368 509 339 Q480 310 439 310 Q397 310 368 339.5 Q339 369 339 410 Q339 451 368.5 480 Q398 509 440 509 Z " />
<glyph glyph-name="oslash" unicode="&#xf8;" horiz-adv-x="788" d="M640 824 Q713 669 713 482 Q713 275 628 128 Q587 57 525.5 17.5 Q464 -22 393 -22 Q264 -22 177 99 L110 -6 L43 -6 L145 153 Q75 285 75 483 Q75 692 157 835 Q248 992 401 992 Q528 992 609 880 L669 973 L736 973 L640 824 Z M551 683 L249 212 Q266 124 303.5 77.5 Q341 31 393 31 Q459 31 501 106 Q562 216 562 483 Q562 586 551 683 Z M236 297 L537 767 Q520 850 483.5 894.5 Q447 939 397 939 Q331 939 288 862 Q226 751 226 489 Q226 392 236 297 Z " />
<glyph glyph-name="ugrave" unicode="&#xf9;" horiz-adv-x="901" d="M36 913 L36 948 Q166 964 289 1003 L289 309 Q289 188 318 137 Q353 75 431 75 Q594 75 594 336 L594 793 Q594 871 574.5 892 Q555 913 485 913 L485 948 Q615 963 738 1003 L738 183 Q738 104 754 87.5 Q770 71 851 69 L851 33 Q718 17 624 -21 Q611 67 611 131 Q611 142 611 154 Q571 64 518.5 23.5 Q466 -17 388 -17 Q250 -17 186 97 Q145 169 145 312 L145 793 Q145 871 125.5 892 Q106 913 36 913 Z M543 1129 L474 1129 L205 1430 L382 1430 L543 1129 Z " />
<glyph glyph-name="uacute" unicode="&#xfa;" horiz-adv-x="901" d="M36 913 L36 948 Q166 964 289 1003 L289 309 Q289 188 318 137 Q353 75 431 75 Q594 75 594 336 L594 793 Q594 871 574.5 892 Q555 913 485 913 L485 948 Q615 963 738 1003 L738 183 Q738 104 754 87.5 Q770 71 851 69 L851 33 Q718 17 624 -21 Q611 67 611 131 Q611 142 611 154 Q571 64 518.5 23.5 Q466 -17 388 -17 Q250 -17 186 97 Q145 169 145 312 L145 793 Q145 871 125.5 892 Q106 913 36 913 Z M388 1129 L549 1430 L726 1430 L457 1129 L388 1129 Z " />
<glyph glyph-name="ucircumflex" unicode="&#xfb;" horiz-adv-x="901" d="M36 913 L36 948 Q166 964 289 1003 L289 309 Q289 188 318 137 Q353 75 431 75 Q594 75 594 336 L594 793 Q594 871 574.5 892 Q555 913 485 913 L485 948 Q615 963 738 1003 L738 183 Q738 104 754 87.5 Q770 71 851 69 L851 33 Q718 17 624 -21 Q611 67 611 131 Q611 142 611 154 Q571 64 518.5 23.5 Q466 -17 388 -17 Q250 -17 186 97 Q145 169 145 312 L145 793 Q145 871 125.5 892 Q106 913 36 913 Z M189 1130 L404 1429 L483 1429 L698 1130 L620 1130 L443 1307 L266 1130 L189 1130 Z " />
<glyph glyph-name="udieresis" unicode="&#xfc;" horiz-adv-x="901" d="M36 913 L36 948 Q166 964 289 1003 L289 309 Q289 188 318 137 Q353 75 431 75 Q594 75 594 336 L594 793 Q594 871 574.5 892 Q555 913 485 913 L485 948 Q615 963 738 1003 L738 183 Q738 104 754 87.5 Q770 71 851 69 L851 33 Q718 17 624 -21 Q611 67 611 131 Q611 142 611 154 Q571 64 518.5 23.5 Q466 -17 388 -17 Q250 -17 186 97 Q145 169 145 312 L145 793 Q145 871 125.5 892 Q106 913 36 913 Z M300 1363 Q338 1363 365 1335.5 Q392 1308 392 1270 Q392 1231 365 1204 Q338 1177 299 1177 Q260 1177 233 1204.5 Q206 1232 206 1271 Q206 1309 233.5 1336 Q261 1363 300 1363 Z M595 1363 Q632 1363 659 1335.5 Q686 1308 686 1270 Q686 1231 659 1204 Q632 1177 593 1177 Q554 1177 527 1204.5 Q500 1232 500 1271 Q500 1309 527.5 1336 Q555 1363 595 1363 Z " />
<glyph glyph-name="yacute" unicode="&#xfd;" horiz-adv-x="838" d="M424 1129 L584 1430 L762 1430 L492 1129 L424 1129 Z M391 33 L149 837 Q132 892 109.5 910 Q87 928 25 932 L25 973 Q118 963 199 963 Q279 963 373 973 L373 932 Q287 925 287 891 Q287 875 299 834 L463 264 L634 825 Q647 866 648 887 Q650 929 554 932 L554 973 Q616 965 677 965 Q743 965 821 973 L821 932 Q765 924 739 903 Q713 882 697 831 L388 -169 Q350 -291 293.5 -345.5 Q237 -400 149 -400 Q142 -400 127 -399 L127 -296 Q214 -296 260.5 -257.5 Q307 -219 340 -120 L391 33 Z " />
<glyph glyph-name="thorn" unicode="&#xfe;" horiz-adv-x="871" d="M300 846 Q369 985 490 985 Q628 985 713 838 Q795 695 795 484 Q795 268 712 123 Q631 -18 495 -18 Q430 -18 385 15 Q340 48 300 126 L300 -258 Q300 -324 320 -344.5 Q340 -365 410 -369 L410 -410 Q293 -398 224 -398 Q154 -398 46 -410 L46 -369 Q116 -364 136 -344 Q156 -324 156 -258 L156 1178 Q156 1256 137 1277 Q118 1298 47 1298 L47 1334 Q182 1349 300 1388 L300 846 Z M475 928 Q402 928 356 845 Q298 739 298 495 Q298 39 477 39 Q644 39 644 481 Q644 928 475 928 Z " />
<glyph glyph-name="ydieresis" unicode="&#xff;" horiz-adv-x="838" d="M307 1363 Q344 1363 371 1335.5 Q398 1308 398 1270 Q398 1231 371 1204 Q344 1177 305 1177 Q266 1177 239 1204.5 Q212 1232 212 1271 Q212 1309 239.5 1336 Q267 1363 307 1363 Z M601 1363 Q639 1363 666 1335.5 Q693 1308 693 1270 Q693 1232 666 1204.5 Q639 1177 600 1177 Q561 1177 534 1204.5 Q507 1232 507 1271 Q507 1309 534.5 1336 Q562 1363 601 1363 Z M391 33 L149 837 Q132 892 109.5 910 Q87 928 25 932 L25 973 Q118 963 199 963 Q279 963 373 973 L373 932 Q287 925 287 891 Q287 875 299 834 L463 264 L634 825 Q647 866 648 887 Q650 929 554 932 L554 973 Q616 965 677 965 Q743 965 821 973 L821 932 Q765 924 739 903 Q713 882 697 831 L388 -169 Q350 -291 293.5 -345.5 Q237 -400 149 -400 Q142 -400 127 -399 L127 -296 Q214 -296 260.5 -257.5 Q307 -219 340 -120 L391 33 Z " />
<glyph glyph-name="Amacron" unicode="&#x100;" horiz-adv-x="1074" d="M310 397 L252 203 Q231 130 231 102 Q231 51 339 44 L339 -6 Q245 5 183 5 Q121 5 27 -6 L27 44 Q102 51 128 75 Q154 99 181 187 L558 1411 L899 165 Q918 94 944 73 Q970 52 1047 44 L1047 -6 Q935 9 848 9 Q761 9 648 -6 L648 44 Q746 54 746 103 Q746 131 735 174 L679 397 L310 397 Z M329 460 L664 460 L511 1064 L329 460 Z M286 1559 L286 1649 L814 1649 L814 1559 L286 1559 Z " />
<glyph glyph-name="amacron" unicode="&#x101;" horiz-adv-x="785" d="M739 54 L739 0 Q681 -14 641 -14 Q527 -14 513 154 Q446 -18 299 -18 Q199 -18 137 53 Q73 126 73 243 Q73 402 195 488 Q317 575 492 603 L492 748 Q492 842 462 886.5 Q432 931 369 931 Q314 931 279.5 900 Q245 869 245 819 Q245 807 246 793 Q247 773 247 758 Q247 672 175 672 Q115 672 115 742 Q115 843 198 917 Q276 986 384 986 Q455 986 512.5 953.5 Q570 921 601 864 Q636 799 636 658 L636 230 Q636 128 649.5 87.5 Q663 47 698 47 Q713 47 739 54 Z M492 550 Q402 529 345 496 Q220 423 220 257 Q220 170 253.5 120 Q287 70 345 70 Q492 70 492 372 L492 550 Z M143 1191 L143 1274 L643 1274 L643 1191 L143 1191 Z " />
<glyph glyph-name="Abreve" unicode="&#x102;" horiz-adv-x="1074" d="M310 397 L252 203 Q231 130 231 102 Q231 51 339 44 L339 -6 Q245 5 183 5 Q121 5 27 -6 L27 44 Q102 51 128 75 Q154 99 181 187 L558 1411 L899 165 Q918 94 944 73 Q970 52 1047 44 L1047 -6 Q935 9 848 9 Q761 9 648 -6 L648 44 Q746 54 746 103 Q746 131 735 174 L679 397 L310 397 Z M329 460 L664 460 L511 1064 L329 460 Z M722 1760 L778 1760 Q768 1649 727 1578 Q702 1535 655.5 1509 Q609 1483 558 1483 Q463 1483 405.5 1555 Q348 1627 338 1760 L394 1760 Q439 1609 558 1609 Q677 1609 722 1760 Z " />
<glyph glyph-name="abreve" unicode="&#x103;" horiz-adv-x="785" d="M739 54 L739 0 Q681 -14 641 -14 Q527 -14 513 154 Q446 -18 299 -18 Q199 -18 137 53 Q73 126 73 243 Q73 402 195 488 Q317 575 492 603 L492 748 Q492 842 462 886.5 Q432 931 369 931 Q314 931 279.5 900 Q245 869 245 819 Q245 807 246 793 Q247 773 247 758 Q247 672 175 672 Q115 672 115 742 Q115 843 198 917 Q276 986 384 986 Q455 986 512.5 953.5 Q570 921 601 864 Q636 799 636 658 L636 230 Q636 128 649.5 87.5 Q663 47 698 47 Q713 47 739 54 Z M492 550 Q402 529 345 496 Q220 423 220 257 Q220 170 253.5 120 Q287 70 345 70 Q492 70 492 372 L492 550 Z M554 1427 L610 1427 Q603 1309 557 1230 Q501 1133 390 1133 Q293 1133 235 1211 Q177 1289 170 1427 L226 1427 Q271 1259 390 1259 Q509 1259 554 1427 Z " />
<glyph glyph-name="Aogonek" unicode="&#x104;" horiz-adv-x="1074" d="M938 6 Q890 9 845 9 Q761 9 648 -6 L648 44 Q746 54 746 102 Q746 131 735 174 L679 397 L310 397 L252 203 Q231 130 231 102 Q231 51 339 44 L339 -6 Q245 5 183 5 Q121 5 27 -6 L27 44 Q102 51 128 75 Q154 99 181 187 L558 1411 L899 165 Q918 94 944 73 Q970 52 1047 44 L1047 -6 Q1041 -5 1038 -5 Q1017 -5 976.5 -30.5 Q936 -56 910 -85 Q874 -126 874 -170 Q874 -212 900 -239.5 Q926 -267 966 -267 Q998 -267 1047 -248 L1047 -314 Q974 -347 911 -347 Q843 -347 797 -301.5 Q751 -256 751 -188 Q751 -60 938 6 Z M329 460 L664 460 L511 1064 L329 460 Z " />
<glyph glyph-name="aogonek" unicode="&#x105;" horiz-adv-x="785" d="M739 -235 L739 -299 Q687 -324 638 -324 Q576 -324 533 -280 Q490 -236 490 -172 Q490 -75 619 -12 Q526 2 513 154 Q446 -18 299 -18 Q199 -18 137 53 Q73 126 73 243 Q73 402 195 488 Q317 575 492 603 L492 748 Q492 842 462 886.5 Q432 931 369 931 Q314 931 279.5 900 Q245 869 245 819 Q245 807 246 793 Q247 773 247 758 Q247 672 175 672 Q115 672 115 742 Q115 843 198 917 Q276 986 384 986 Q455 986 512.5 953.5 Q570 921 601 864 Q636 799 636 658 L636 230 Q636 128 649.5 87.5 Q663 47 698 47 Q713 47 739 54 L739 0 Q678 -27 643 -68.5 Q608 -110 608 -156 Q608 -195 631 -221 Q654 -247 688 -247 Q711 -247 739 -235 Z M492 550 Q402 529 345 496 Q220 423 220 257 Q220 170 253.5 120 Q287 70 345 70 Q492 70 492 372 L492 550 Z " />
<glyph glyph-name="Cacute" unicode="&#x106;" horiz-adv-x="991" d="M823 460 L884 460 Q879 305 832 195 Q786 87 707 31 Q626 -26 525 -26 Q391 -26 285 71 Q177 170 126 369 Q89 510 89 680 Q89 986 206 1191 Q264 1292 360 1347 Q437 1391 534 1391 Q686 1391 786 1271 L840 1387 L873 1387 L873 984 L827 984 Q797 1140 735 1231 Q671 1325 552 1325 Q414 1325 347 1195 Q251 1010 251 675 Q251 364 342 200 Q418 65 550 65 Q671 65 742.5 168.5 Q814 272 823 460 Z M433 1483 L639 1764 L833 1764 L511 1483 L433 1483 Z " />
<glyph glyph-name="cacute" unicode="&#x107;" horiz-adv-x="734" d="M641 1009 L641 671 L598 671 Q560 937 422 937 Q331 937 283 815 Q235 693 235 465 Q235 260 282 153 Q329 46 419 46 Q564 46 592 315 L658 315 Q644 171 585 78 Q520 -22 399 -22 Q300 -22 221 50 Q78 182 78 477 Q78 693 160 835 Q250 992 402 992 Q503 992 570 905 L609 1009 L641 1009 Z M339 1129 L499 1430 L677 1430 L408 1129 L339 1129 Z " />
<glyph glyph-name="Ccircumflex" unicode="&#x108;" horiz-adv-x="991" d="M823 460 L884 460 Q879 305 832 195 Q786 87 707 31 Q626 -26 525 -26 Q391 -26 285 71 Q177 170 126 369 Q89 510 89 680 Q89 986 206 1191 Q264 1292 360 1347 Q437 1391 534 1391 Q686 1391 786 1271 L840 1387 L873 1387 L873 984 L827 984 Q797 1140 735 1231 Q671 1325 552 1325 Q414 1325 347 1195 Q251 1010 251 675 Q251 364 342 200 Q418 65 550 65 Q671 65 742.5 168.5 Q814 272 823 460 Z M256 1485 L488 1762 L581 1762 L813 1485 L732 1485 L535 1656 L338 1485 L256 1485 Z " />
<glyph glyph-name="ccircumflex" unicode="&#x109;" horiz-adv-x="734" d="M641 1009 L641 671 L598 671 Q560 937 422 937 Q331 937 283 815 Q235 693 235 465 Q235 260 282 153 Q329 46 419 46 Q564 46 592 315 L658 315 Q644 171 585 78 Q520 -22 399 -22 Q300 -22 221 50 Q78 182 78 477 Q78 693 160 835 Q250 992 402 992 Q503 992 570 905 L609 1009 L641 1009 Z M141 1130 L356 1429 L435 1429 L650 1130 L572 1130 L395 1307 L218 1130 L141 1130 Z " />
<glyph glyph-name="Cdotaccent" unicode="&#x10a;" horiz-adv-x="991" d="M823 460 L884 460 Q879 305 832 195 Q786 87 707 31 Q626 -26 525 -26 Q391 -26 285 71 Q177 170 126 369 Q89 510 89 680 Q89 986 206 1191 Q264 1292 360 1347 Q437 1391 534 1391 Q686 1391 786 1271 L840 1387 L873 1387 L873 984 L827 984 Q797 1140 735 1231 Q671 1325 552 1325 Q414 1325 347 1195 Q251 1010 251 675 Q251 364 342 200 Q418 65 550 65 Q671 65 742.5 168.5 Q814 272 823 460 Z M539 1725 Q579 1725 608 1695.5 Q637 1666 637 1626 Q637 1584 608 1555 Q579 1526 538 1526 Q496 1526 467 1555.5 Q438 1585 438 1626 Q438 1667 467.5 1696 Q497 1725 539 1725 Z " />
<glyph glyph-name="cdotaccent" unicode="&#x10b;" horiz-adv-x="734" d="M641 1009 L641 671 L598 671 Q560 937 422 937 Q331 937 283 815 Q235 693 235 465 Q235 260 282 153 Q329 46 419 46 Q564 46 592 315 L658 315 Q644 171 585 78 Q520 -22 399 -22 Q300 -22 221 50 Q78 182 78 477 Q78 693 160 835 Q250 992 402 992 Q503 992 570 905 L609 1009 L641 1009 Z M404 1363 Q442 1363 469 1335.5 Q496 1308 496 1270 Q496 1232 469 1204.5 Q442 1177 403 1177 Q364 1177 337 1204.5 Q310 1232 310 1271 Q310 1309 337.5 1336 Q365 1363 404 1363 Z " />
<glyph glyph-name="Ccaron" unicode="&#x10c;" horiz-adv-x="991" d="M823 460 L884 460 Q879 305 832 195 Q786 87 707 31 Q626 -26 525 -26 Q391 -26 285 71 Q177 170 126 369 Q89 510 89 680 Q89 986 206 1191 Q264 1292 360 1347 Q437 1391 534 1391 Q686 1391 786 1271 L840 1387 L873 1387 L873 984 L827 984 Q797 1140 735 1231 Q671 1325 552 1325 Q414 1325 347 1195 Q251 1010 251 675 Q251 364 342 200 Q418 65 550 65 Q671 65 742.5 168.5 Q814 272 823 460 Z M823 1759 L590 1482 L498 1482 L266 1759 L347 1759 L544 1588 L741 1759 L823 1759 Z " />
<glyph glyph-name="ccaron" unicode="&#x10d;" horiz-adv-x="734" d="M641 1009 L641 671 L598 671 Q560 937 422 937 Q331 937 283 815 Q235 693 235 465 Q235 260 282 153 Q329 46 419 46 Q564 46 592 315 L658 315 Q644 171 585 78 Q520 -22 399 -22 Q300 -22 221 50 Q78 182 78 477 Q78 693 160 835 Q250 992 402 992 Q503 992 570 905 L609 1009 L641 1009 Z M652 1426 L436 1127 L358 1127 L142 1426 L220 1426 L397 1249 L574 1426 L652 1426 Z " />
<glyph glyph-name="Dcaron" unicode="&#x10e;" horiz-adv-x="1062" d="M56 1315 L56 1365 L452 1365 Q662 1365 776 1251 Q863 1163 916 1022 Q973 867 973 683 Q973 433 864 230 Q739 0 451 0 L56 0 L56 50 Q141 59 162.5 81.5 Q184 104 184 186 L184 1179 Q184 1260 162 1283.5 Q140 1307 56 1315 Z M337 1302 L337 166 Q337 99 355.5 79 Q374 59 435 59 Q633 59 717 212 Q810 379 810 685 Q810 985 718 1151 Q634 1302 445 1302 L337 1302 Z M752 1759 L519 1482 L427 1482 L194 1759 L276 1759 L473 1588 L670 1759 L752 1759 Z " />
<glyph glyph-name="dcaron" unicode="&#x10f;" horiz-adv-x="909" d="M820 68 L820 32 Q677 12 594 -21 Q577 57 570 139 Q506 -25 374 -25 Q240 -25 159 116 Q75 261 75 477 Q75 694 157 838 Q238 979 371 979 Q435 979 477.5 945 Q520 911 557 831 L557 1178 Q557 1256 538 1277 Q519 1298 448 1298 L448 1334 Q582 1349 701 1388 L701 208 Q701 115 720 93 Q739 71 820 68 Z M386 922 Q226 922 226 480 Q226 216 286 108 Q327 32 393 32 Q459 32 503 111 Q559 212 559 437 Q559 922 386 922 Z M847 991 L769 991 Q860 1092 869 1197 L862 1198 Q854 1196 848 1196 Q771 1200 771 1289 Q771 1334 795 1361.5 Q819 1389 859 1389 Q901 1389 925.5 1355.5 Q950 1322 950 1264 Q950 1142 869 1025 Q854 1003 847 991 Z " />
<glyph glyph-name="Dcroat" unicode="&#x110;" horiz-adv-x="1062" d="M184 680 L56 680 L56 755 L184 755 L184 1179 Q184 1260 161.5 1283.5 Q139 1307 56 1315 L56 1365 L452 1365 Q662 1365 775 1251 Q863 1163 916 1023 Q973 868 973 685 Q973 433 864 230 Q739 0 451 0 L56 0 L56 50 Q140 58 162 81 Q184 104 184 186 L184 680 Z M337 680 L337 166 Q337 98 355.5 78.5 Q374 59 436 59 Q633 59 718 212 Q810 380 810 686 Q810 985 718 1151 Q634 1302 444 1302 L337 1302 L337 755 L580 755 L580 680 L337 680 Z " />
<glyph glyph-name="dcroat" unicode="&#x111;" horiz-adv-x="860" d="M557 1087 L374 1087 L374 1155 L557 1155 L557 1179 Q557 1256 538 1277 Q519 1298 448 1298 L448 1334 Q582 1349 701 1388 L701 1155 L820 1155 L820 1087 L701 1087 L701 208 Q701 115 720 93 Q739 71 820 68 L820 32 Q677 12 594 -21 Q577 57 570 139 Q506 -25 374 -25 Q240 -25 159 116 Q75 261 75 477 Q75 694 157 838 Q238 979 371 979 Q435 979 477.5 945 Q520 911 557 831 L557 1087 Z M386 922 Q226 922 226 480 Q226 216 286 108 Q327 32 393 32 Q459 32 503 111 Q559 212 559 437 Q559 922 386 922 Z " />
<glyph glyph-name="Emacron" unicode="&#x112;" horiz-adv-x="911" d="M822 330 L785 0 L63 0 L63 50 Q146 58 168.5 81.5 Q191 105 191 186 L191 1179 Q191 1260 169 1283.5 Q147 1307 63 1315 L63 1365 L776 1365 L805 1057 L759 1057 Q731 1202 693 1252 Q655 1302 575 1302 L344 1302 L344 741 L567 741 Q605 741 621.5 752.5 Q638 764 648 800 Q660 839 662 910 L708 910 L708 508 L662 508 Q660 606 638 642 Q616 678 558 678 L344 678 L344 184 Q344 111 365.5 87 Q387 63 452 63 L564 63 Q629 63 663 83 Q697 103 723 157 Q754 219 776 330 L822 330 Z M179 1559 L179 1649 L707 1649 L707 1559 L179 1559 Z " />
<glyph glyph-name="emacron" unicode="&#x113;" horiz-adv-x="771" d="M631 315 L696 315 Q684 184 622 92 Q548 -20 407 -20 Q242 -20 156 130 Q75 272 75 485 Q75 695 155 835 Q197 907 260 947 Q323 987 395 987 Q534 987 612 862.5 Q690 738 695 507 L223 507 Q226 369 235 299.5 Q244 230 268 170 Q314 48 426 48 Q510 48 563.5 117.5 Q617 187 631 315 Z M551 575 Q542 934 393 934 Q322 934 278.5 840.5 Q235 747 227 575 L551 575 Z M148 1191 L148 1274 L648 1274 L648 1191 L148 1191 Z " />
<glyph glyph-name="Ebreve" unicode="&#x114;" horiz-adv-x="911" d="M632 1760 L688 1760 Q679 1650 637 1578 Q612 1535 565.5 1509 Q519 1483 468 1483 Q372 1483 315 1555 Q258 1627 248 1760 L304 1760 Q348 1609 468 1609 Q588 1609 632 1760 Z M822 330 L785 0 L63 0 L63 50 Q146 58 168.5 81.5 Q191 105 191 186 L191 1179 Q191 1260 169 1283.5 Q147 1307 63 1315 L63 1365 L776 1365 L805 1057 L759 1057 Q731 1202 693 1252 Q655 1302 575 1302 L344 1302 L344 741 L567 741 Q605 741 621.5 752.5 Q638 764 648 800 Q660 839 662 910 L708 910 L708 508 L662 508 Q660 606 638 642 Q616 678 558 678 L344 678 L344 184 Q344 111 365.5 87 Q387 63 452 63 L564 63 Q629 63 663 83 Q697 103 723 157 Q754 219 776 330 L822 330 Z " />
<glyph glyph-name="ebreve" unicode="&#x115;" horiz-adv-x="771" d="M563 1427 L619 1427 Q613 1309 567 1230 Q511 1133 399 1133 Q303 1133 245 1210.5 Q187 1288 179 1427 L235 1427 Q279 1259 399 1259 Q519 1259 563 1427 Z M631 315 L696 315 Q684 184 622 92 Q548 -20 407 -20 Q242 -20 156 130 Q75 272 75 485 Q75 695 155 835 Q197 907 260 947 Q323 987 395 987 Q534 987 612 862.5 Q690 738 695 507 L223 507 Q226 369 235 299.5 Q244 230 268 170 Q314 48 426 48 Q510 48 563.5 117.5 Q617 187 631 315 Z M551 573 Q543 934 393 934 Q321 934 277.5 839.5 Q234 745 227 573 L551 573 Z " />
<glyph glyph-name="Edotaccent" unicode="&#x116;" horiz-adv-x="911" d="M822 330 L785 0 L63 0 L63 50 Q146 58 168.5 81.5 Q191 105 191 186 L191 1179 Q191 1260 169 1283.5 Q147 1307 63 1315 L63 1365 L776 1365 L805 1057 L759 1057 Q731 1202 693 1252 Q655 1302 575 1302 L344 1302 L344 741 L567 741 Q605 741 621.5 752.5 Q638 764 648 800 Q660 839 662 910 L708 910 L708 508 L662 508 Q660 606 638 642 Q616 678 558 678 L344 678 L344 184 Q344 111 365.5 87 Q387 63 452 63 L564 63 Q629 63 663 83 Q697 103 723 157 Q754 219 776 330 L822 330 Z M470 1725 Q510 1725 539 1695.5 Q568 1666 568 1626 Q568 1584 539 1555 Q510 1526 469 1526 Q427 1526 398 1555.5 Q369 1585 369 1626 Q369 1667 398.5 1696 Q428 1725 470 1725 Z " />
<glyph glyph-name="edotaccent" unicode="&#x117;" horiz-adv-x="771" d="M631 315 L696 315 Q684 184 622 92 Q548 -20 407 -20 Q242 -20 156 130 Q75 272 75 485 Q75 695 155 835 Q197 907 260 947 Q323 987 395 987 Q534 987 612 862.5 Q690 738 695 507 L223 507 Q226 369 235 299.5 Q244 230 268 170 Q314 48 426 48 Q510 48 563.5 117.5 Q617 187 631 315 Z M551 575 Q542 934 393 934 Q322 934 278.5 840.5 Q235 747 227 575 L551 575 Z M397 1363 Q435 1363 462 1335.5 Q489 1308 489 1270 Q489 1231 462 1204 Q435 1177 396 1177 Q357 1177 330 1204.5 Q303 1232 303 1271 Q303 1309 330.5 1336 Q358 1363 397 1363 Z " />
<glyph glyph-name="Eogonek" unicode="&#x118;" horiz-adv-x="911" d="M776 0 Q612 -74 612 -170 Q612 -212 638 -239.5 Q664 -267 703 -267 Q735 -267 785 -248 L785 -314 Q711 -347 648 -347 Q581 -347 535 -301.5 Q489 -256 489 -188 Q489 -66 658 0 L63 0 L63 50 Q146 58 168.5 81.5 Q191 105 191 186 L191 1179 Q191 1260 169 1283.5 Q147 1307 63 1315 L63 1365 L776 1365 L805 1057 L759 1057 Q731 1202 693 1252 Q655 1302 575 1302 L344 1302 L344 741 L567 741 Q605 741 621.5 752.5 Q638 764 648 800 Q660 839 662 910 L708 910 L708 508 L662 508 Q660 606 638 642 Q616 678 558 678 L344 678 L344 184 Q344 111 365.5 87 Q387 63 452 63 L564 63 Q629 63 663 83 Q697 103 723 157 Q754 219 776 330 L822 330 L785 0 L776 0 Z " />
<glyph glyph-name="eogonek" unicode="&#x119;" horiz-adv-x="771" d="M652 -235 L652 -299 Q600 -324 551 -324 Q487 -324 445 -279.5 Q403 -235 403 -168 Q403 -117 425 -81 Q447 -45 501 -5 Q457 -20 406 -20 Q242 -20 156 130 Q75 272 75 485 Q75 695 155 835 Q197 907 260 947 Q323 987 395 987 Q534 987 612 862.5 Q690 738 695 507 L223 507 Q226 369 235 299.5 Q244 230 268 170 Q314 48 426 48 Q510 48 563.5 117.5 Q617 187 631 315 L696 315 Q688 236 669.5 184 Q651 132 603 56 Q552 -24 536.5 -63 Q521 -102 521 -152 Q521 -194 543.5 -220.5 Q566 -247 602 -247 Q624 -247 652 -235 Z M551 575 Q542 934 393 934 Q322 934 278.5 840.5 Q235 747 227 575 L551 575 Z " />
<glyph glyph-name="Ecaron" unicode="&#x11a;" horiz-adv-x="911" d="M822 330 L785 0 L63 0 L63 50 Q146 58 168.5 81.5 Q191 105 191 186 L191 1179 Q191 1260 169 1283.5 Q147 1307 63 1315 L63 1365 L776 1365 L805 1057 L759 1057 Q731 1202 693 1252 Q655 1302 575 1302 L344 1302 L344 741 L567 741 Q605 741 621.5 752.5 Q638 764 648 800 Q660 839 662 910 L708 910 L708 508 L662 508 Q660 606 638 642 Q616 678 558 678 L344 678 L344 184 Q344 111 365.5 87 Q387 63 452 63 L564 63 Q629 63 663 83 Q697 103 723 157 Q754 219 776 330 L822 330 Z M744 1759 L511 1482 L419 1482 L186 1759 L268 1759 L465 1588 L662 1759 L744 1759 Z " />
<glyph glyph-name="ecaron" unicode="&#x11b;" horiz-adv-x="771" d="M631 315 L696 315 Q684 184 622 92 Q548 -20 407 -20 Q242 -20 156 130 Q75 272 75 485 Q75 695 155 835 Q197 907 260 947 Q323 987 395 987 Q534 987 612 862.5 Q690 738 695 507 L223 507 Q226 369 235 299.5 Q244 230 268 170 Q314 48 426 48 Q510 48 563.5 117.5 Q617 187 631 315 Z M551 575 Q542 934 393 934 Q322 934 278.5 840.5 Q235 747 227 575 L551 575 Z M650 1426 L435 1127 L356 1127 L141 1426 L219 1426 L395 1249 L572 1426 L650 1426 Z " />
<glyph glyph-name="Gcircumflex" unicode="&#x11c;" horiz-adv-x="1043" d="M271 1485 L503 1762 L595 1762 L828 1485 L746 1485 L549 1656 L352 1485 L271 1485 Z M791 1273 L851 1389 L884 1389 L884 984 L838 984 Q803 1142 741 1231 Q676 1324 556 1324 Q251 1324 251 671 Q251 510 275.5 377 Q300 244 343 168 Q417 36 551 36 Q647 36 754 106 L754 460 Q754 518 732 536.5 Q710 555 634 562 L634 612 Q742 600 823 600 Q903 600 1012 612 L1012 562 Q938 554 920.5 537 Q903 520 903 456 L903 118 Q706 -23 545 -23 Q320 -23 203 180 Q88 379 88 685 Q88 988 201 1184 Q260 1287 356 1343 Q437 1390 536 1390 Q686 1390 791 1273 Z " />
<glyph glyph-name="gcircumflex" unicode="&#x11d;" horiz-adv-x="827" d="M576 932 L794 932 L794 857 L631 870 Q677 778 677 685 Q677 557 617.5 481 Q558 405 425 362 Q304 324 272 304 Q240 284 240 249 Q240 225 255 209 Q277 185 385 181 Q436 180 505 167.5 Q574 155 607 142 Q676 115 713 60 Q758 -6 758 -94 Q758 -231 661 -319 Q566 -406 402 -406 Q317 -406 243 -378.5 Q169 -351 127 -304 Q59 -230 59 -122 Q59 28 217 97 Q134 142 134 216 Q134 329 314 382 Q247 406 203 450 Q119 535 119 672 Q119 842 215 922 Q291 985 407 985 Q503 985 576 932 Z M401 933 Q348 933 311 892 Q287 866 271 807.5 Q255 749 255 689 Q255 547 303 474 Q337 422 398 422 Q466 422 501 487 Q540 559 540 687 Q540 805 504 869 Q468 933 401 933 Z M384 36 Q276 36 211 -1 Q131 -47 131 -139 Q131 -221 194 -275 Q271 -342 396 -342 Q537 -342 603 -269 Q650 -218 650 -144 Q650 -66 599 -22 Q568 4 508.5 20 Q449 36 384 36 Z M165 1130 L381 1429 L459 1429 L675 1130 L597 1130 L420 1307 L243 1130 L165 1130 Z " />
<glyph glyph-name="Gbreve" unicode="&#x11e;" horiz-adv-x="1043" d="M701 1760 L756 1760 Q747 1649 706 1578 Q681 1535 634.5 1509 Q588 1483 536 1483 Q441 1483 384 1555 Q327 1627 316 1760 L372 1760 Q418 1609 536 1609 Q655 1609 701 1760 Z M791 1273 L851 1389 L884 1389 L884 984 L838 984 Q803 1142 741 1231 Q676 1324 556 1324 Q251 1324 251 671 Q251 510 275.5 377 Q300 244 343 168 Q417 36 551 36 Q647 36 754 106 L754 460 Q754 518 732 536.5 Q710 555 634 562 L634 612 Q742 600 823 600 Q903 600 1012 612 L1012 562 Q938 554 920.5 537 Q903 520 903 456 L903 118 Q706 -23 545 -23 Q320 -23 203 180 Q88 379 88 685 Q88 988 201 1184 Q260 1287 356 1343 Q437 1390 536 1390 Q686 1390 791 1273 Z " />
<glyph glyph-name="gbreve" unicode="&#x11f;" horiz-adv-x="827" d="M576 932 L794 932 L794 857 L631 870 Q677 778 677 685 Q677 557 617.5 481 Q558 405 425 362 Q304 324 272 304 Q240 284 240 249 Q240 225 255 209 Q277 185 385 181 Q436 180 505 167.5 Q574 155 607 142 Q676 115 713 60 Q758 -6 758 -94 Q758 -231 661 -319 Q566 -406 402 -406 Q317 -406 243 -378.5 Q169 -351 127 -304 Q59 -230 59 -122 Q59 28 217 97 Q134 142 134 216 Q134 329 314 382 Q247 406 203 450 Q119 535 119 672 Q119 842 215 922 Q291 985 407 985 Q503 985 576 932 Z M401 933 Q348 933 311 892 Q287 866 271 807.5 Q255 749 255 689 Q255 547 303 474 Q337 422 398 422 Q466 422 501 487 Q540 559 540 687 Q540 805 504 869 Q468 933 401 933 Z M384 36 Q276 36 211 -1 Q131 -47 131 -139 Q131 -221 194 -275 Q271 -342 396 -342 Q537 -342 603 -269 Q650 -218 650 -144 Q650 -66 599 -22 Q568 4 508.5 20 Q449 36 384 36 Z M584 1427 L640 1427 Q634 1309 587 1230 Q531 1133 420 1133 Q324 1133 265.5 1211 Q207 1289 200 1427 L256 1427 Q301 1259 420 1259 Q539 1259 584 1427 Z " />
<glyph glyph-name="Gdotaccent" unicode="&#x120;" horiz-adv-x="1043" d="M547 1725 Q587 1725 616 1695.5 Q645 1666 645 1626 Q645 1584 616 1555 Q587 1526 546 1526 Q504 1526 475 1555.5 Q446 1585 446 1626 Q446 1667 475.5 1696 Q505 1725 547 1725 Z M791 1273 L851 1389 L884 1389 L884 984 L838 984 Q803 1142 741 1231 Q676 1324 556 1324 Q251 1324 251 671 Q251 510 275.5 377 Q300 244 343 168 Q417 36 551 36 Q647 36 754 106 L754 460 Q754 518 732 536.5 Q710 555 634 562 L634 612 Q742 600 823 600 Q903 600 1012 612 L1012 562 Q938 554 920.5 537 Q903 520 903 456 L903 118 Q706 -23 545 -23 Q320 -23 203 180 Q88 379 88 685 Q88 988 201 1184 Q260 1287 356 1343 Q437 1390 536 1390 Q686 1390 791 1273 Z " />
<glyph glyph-name="gdotaccent" unicode="&#x121;" horiz-adv-x="827" d="M576 932 L794 932 L794 857 L631 870 Q677 778 677 685 Q677 557 617.5 481 Q558 405 425 362 Q304 324 272 304 Q240 284 240 249 Q240 225 255 209 Q277 185 385 181 Q436 180 505 167.5 Q574 155 607 142 Q676 115 713 60 Q758 -6 758 -94 Q758 -231 661 -319 Q566 -406 402 -406 Q317 -406 243 -378.5 Q169 -351 127 -304 Q59 -230 59 -122 Q59 28 217 97 Q134 142 134 216 Q134 329 314 382 Q247 406 203 450 Q119 535 119 672 Q119 842 215 922 Q291 985 407 985 Q503 985 576 932 Z M401 933 Q348 933 311 892 Q287 866 271 807.5 Q255 749 255 689 Q255 547 303 474 Q337 422 398 422 Q466 422 501 487 Q540 559 540 687 Q540 805 504 869 Q468 933 401 933 Z M384 36 Q276 36 211 -1 Q131 -47 131 -139 Q131 -221 194 -275 Q271 -342 396 -342 Q537 -342 603 -269 Q650 -218 650 -144 Q650 -66 599 -22 Q568 4 508.5 20 Q449 36 384 36 Z M415 1363 Q453 1363 480 1335.5 Q507 1308 507 1270 Q507 1231 480 1204 Q453 1177 414 1177 Q375 1177 348 1204.5 Q321 1232 321 1271 Q321 1309 348.5 1336 Q376 1363 415 1363 Z " />
<glyph glyph-name="Gcommaaccent" unicode="&#x122;" horiz-adv-x="1043" d="M537 -493 L460 -493 Q545 -401 560 -298 Q547 -303 536 -303 Q503 -303 482.5 -277.5 Q462 -252 462 -211 Q462 -167 486 -140 Q510 -113 550 -113 Q592 -113 616.5 -145 Q641 -177 641 -230 Q641 -357 537 -493 Z M791 1273 L851 1389 L884 1389 L884 984 L838 984 Q803 1142 741 1231 Q676 1324 556 1324 Q251 1324 251 671 Q251 510 275.5 377 Q300 244 343 168 Q417 36 551 36 Q647 36 754 106 L754 460 Q754 518 732 536.5 Q710 555 634 562 L634 612 Q742 600 823 600 Q903 600 1012 612 L1012 562 Q938 554 920.5 537 Q903 520 903 456 L903 118 Q706 -23 545 -23 Q320 -23 203 180 Q88 379 88 685 Q88 988 201 1184 Q260 1287 356 1343 Q437 1390 536 1390 Q686 1390 791 1273 Z " />
<glyph glyph-name="gcommaaccent" unicode="&#x123;" horiz-adv-x="827" d="M576 932 L794 932 L794 857 L631 870 Q677 778 677 685 Q677 557 617.5 481 Q558 405 425 362 Q304 324 272 304 Q240 284 240 249 Q240 225 255 209 Q277 185 385 181 Q436 180 505 167.5 Q574 155 607 142 Q676 115 713 60 Q758 -6 758 -94 Q758 -231 661 -319 Q566 -406 402 -406 Q317 -406 243 -378.5 Q169 -351 127 -304 Q59 -230 59 -122 Q59 28 217 97 Q134 142 134 216 Q134 329 314 382 Q247 406 203 450 Q119 535 119 672 Q119 842 215 922 Q291 985 407 985 Q503 985 576 932 Z M401 933 Q348 933 311 892 Q287 866 271 807.5 Q255 749 255 689 Q255 547 303 474 Q337 422 398 422 Q466 422 501 487 Q540 559 540 687 Q540 805 504 869 Q468 933 401 933 Z M384 36 Q276 36 211 -1 Q131 -47 131 -139 Q131 -221 194 -275 Q271 -342 396 -342 Q537 -342 603 -269 Q650 -218 650 -144 Q650 -66 599 -22 Q568 4 508.5 20 Q449 36 384 36 Z M420 1514 L497 1514 Q406 1413 397 1308 L404 1307 Q412 1309 418 1309 Q495 1305 495 1216 Q495 1171 471 1143.5 Q447 1116 408 1116 Q365 1116 341 1149.5 Q317 1183 317 1241 Q317 1361 398 1480 Q413 1502 420 1514 Z " />
<glyph glyph-name="Hcircumflex" unicode="&#x124;" horiz-adv-x="1131" d="M344 744 L787 744 L787 1186 Q787 1266 765 1289.5 Q743 1313 659 1321 L659 1371 Q783 1356 865 1356 Q947 1356 1068 1371 L1068 1321 Q983 1313 961.5 1290 Q940 1267 940 1186 L940 180 Q940 99 961.5 76 Q983 53 1068 44 L1068 -6 Q942 9 865 9 Q788 9 659 -6 L659 44 Q744 53 765.5 76 Q787 99 787 180 L787 681 L344 681 L344 180 Q344 99 365.5 76 Q387 53 472 44 L472 -6 Q343 9 266 9 Q189 9 63 -6 L63 44 Q148 53 169.5 76 Q191 99 191 180 L191 1186 Q191 1266 169.5 1289 Q148 1312 63 1321 L63 1371 Q184 1356 266 1356 Q348 1356 472 1371 L472 1321 Q388 1313 366 1289.5 Q344 1266 344 1186 L344 744 Z M287 1485 L520 1762 L612 1762 L844 1485 L763 1485 L566 1656 L369 1485 L287 1485 Z " />
<glyph glyph-name="hcircumflex" unicode="&#x125;" horiz-adv-x="905" d="M48 1298 L48 1334 Q178 1349 301 1388 L301 849 Q380 986 510 986 Q572 986 624 955 Q676 924 707 868 Q749 793 749 648 L749 145 Q749 79 769 59.5 Q789 40 860 35 L860 -6 Q753 6 681 6 Q607 6 503 -6 L503 34 Q564 37 584.5 58.5 Q605 80 605 142 L605 655 Q605 779 576 830 Q540 893 466 893 Q375 893 331 810 Q301 754 301 647 L301 142 Q301 81 321 59.5 Q341 38 401 34 L401 -6 Q297 6 225 6 Q153 6 46 -6 L46 35 Q117 40 137 59.5 Q157 79 157 145 L157 1178 Q157 1256 138 1277 Q119 1298 48 1298 Z M24 1485 L256 1762 L349 1762 L581 1485 L500 1485 L303 1656 L106 1485 L24 1485 Z " />
<glyph glyph-name="Hbar" unicode="&#x126;" horiz-adv-x="1131" d="M787 1061 L787 1186 Q787 1267 765 1290 Q743 1313 659 1321 L659 1371 Q783 1356 865 1356 Q947 1356 1068 1371 L1068 1321 Q983 1313 961.5 1290 Q940 1267 940 1186 L940 1061 L1068 1061 L1068 998 L940 998 L940 180 Q940 99 961.5 76 Q983 53 1068 44 L1068 -6 Q942 9 865 9 Q788 9 659 -6 L659 44 Q744 53 765.5 76 Q787 99 787 180 L787 681 L344 681 L344 180 Q344 99 365.5 76 Q387 53 472 44 L472 -6 Q343 9 266 9 Q189 9 63 -6 L63 44 Q148 53 169.5 76 Q191 99 191 180 L191 998 L63 998 L63 1061 L191 1061 L191 1186 Q191 1267 169.5 1289.5 Q148 1312 63 1321 L63 1371 Q184 1356 266 1356 Q348 1356 472 1371 L472 1321 Q388 1313 366 1290 Q344 1267 344 1186 L344 1061 L787 1061 Z M787 998 L344 998 L344 744 L787 744 L787 998 Z " />
<glyph glyph-name="hbar" unicode="&#x127;" horiz-adv-x="905" d="M301 1155 L512 1155 L512 1087 L301 1087 L301 849 Q380 986 510 986 Q641 986 707 868 Q749 793 749 648 L749 145 Q749 79 768.5 59.5 Q788 40 859 35 L859 -6 Q753 6 680 6 Q607 6 503 -6 L503 34 Q564 37 584.5 58.5 Q605 80 605 142 L605 655 Q605 779 576 829 Q540 893 465 893 Q375 893 331 811 Q301 754 301 647 L301 142 Q301 81 321 59.5 Q341 38 401 34 L401 -6 Q296 6 224 6 Q153 6 46 -6 L46 35 Q117 40 137 59.5 Q157 79 157 145 L157 1087 L47 1087 L47 1155 L157 1155 L157 1185 Q157 1258 138 1278 Q119 1298 47 1298 L47 1334 Q183 1349 301 1388 L301 1155 Z " />
<glyph glyph-name="Itilde" unicode="&#x128;" horiz-adv-x="534" d="M472 44 L472 -6 Q342 9 268 9 Q193 9 63 -6 L63 44 Q147 52 169 75.5 Q191 99 191 180 L191 1185 Q191 1266 168.5 1290 Q146 1314 63 1321 L63 1371 Q187 1356 268 1356 Q348 1356 472 1371 L472 1321 Q389 1314 366.5 1290 Q344 1266 344 1185 L344 180 Q344 99 366 75.5 Q388 52 472 44 Z M47 1522 L-1 1537 Q22 1643 60 1691 Q98 1739 159 1739 Q192 1739 222 1723 Q252 1707 299 1665 Q350 1620 389 1620 Q426 1620 449 1644.5 Q472 1669 488 1727 L535 1714 Q523 1628 498 1587 Q447 1504 372 1504 Q340 1504 310 1520.5 Q280 1537 231 1580 Q183 1623 146 1623 Q80 1623 47 1522 Z " />
<glyph glyph-name="itilde" unicode="&#x129;" horiz-adv-x="477" d="M313 1003 L313 145 Q313 79 333 59.5 Q353 40 424 35 L424 -6 Q308 6 241 6 Q174 6 58 -6 L58 35 Q129 40 149 59.5 Q169 79 169 145 L169 793 Q169 871 150 891.5 Q131 912 60 913 L60 948 Q193 964 313 1003 Z M27 1181 L-19 1197 Q5 1303 38 1350 Q72 1398 134 1398 Q185 1398 240 1348 L279 1312 Q316 1279 350 1279 Q386 1279 406.5 1302.5 Q427 1326 445 1386 L490 1373 Q477 1281 441 1225 Q400 1163 333 1163 Q280 1163 201 1239 Q156 1282 121 1282 Q60 1282 27 1181 Z " />
<glyph glyph-name="Imacron" unicode="&#x12a;" horiz-adv-x="535" d="M472 44 L472 -6 Q342 9 268 9 Q193 9 63 -6 L63 44 Q147 52 169 75.5 Q191 99 191 180 L191 1185 Q191 1266 168.5 1290 Q146 1314 63 1321 L63 1371 Q187 1356 268 1356 Q348 1356 472 1371 L472 1321 Q389 1314 366.5 1290 Q344 1266 344 1185 L344 180 Q344 99 366 75.5 Q388 52 472 44 Z M48 1559 L48 1649 L487 1649 L487 1559 L48 1559 Z " />
<glyph glyph-name="imacron" unicode="&#x12b;" horiz-adv-x="477" d="M314 1003 L314 145 Q314 79 334 59.5 Q354 40 425 35 L425 -6 Q309 6 242 6 Q175 6 59 -6 L59 35 Q130 40 150 59.5 Q170 79 170 145 L170 793 Q170 871 151 891.5 Q132 912 61 913 L61 948 Q194 964 314 1003 Z M33 1191 L33 1274 L415 1274 L415 1191 L33 1191 Z " />
<glyph glyph-name="Ibreve" unicode="&#x12c;" horiz-adv-x="535" d="M472 44 L472 -6 Q342 9 268 9 Q193 9 63 -6 L63 44 Q147 52 169 75.5 Q191 99 191 180 L191 1185 Q191 1266 168.5 1290 Q146 1314 63 1321 L63 1371 Q187 1356 268 1356 Q348 1356 472 1371 L472 1321 Q389 1314 366.5 1290 Q344 1266 344 1185 L344 180 Q344 99 366 75.5 Q388 52 472 44 Z M431 1760 L487 1760 Q477 1649 436 1578 Q411 1535 365 1509 Q319 1483 267 1483 Q172 1483 114.5 1555 Q57 1627 47 1760 L103 1760 Q148 1609 267 1609 Q386 1609 431 1760 Z " />
<glyph glyph-name="ibreve" unicode="&#x12d;" horiz-adv-x="477" d="M314 1003 L314 145 Q314 79 334 59.5 Q354 40 425 35 L425 -6 Q309 6 242 6 Q176 6 59 -6 L59 35 Q130 40 150 59.5 Q170 79 170 145 L170 793 Q170 871 151 891.5 Q132 912 61 913 L61 948 Q195 964 314 1003 Z M380 1427 L436 1427 Q430 1310 386 1230 Q334 1133 229 1133 Q139 1133 84 1211 Q29 1289 23 1427 L79 1427 Q121 1259 229 1259 Q338 1259 380 1427 Z " />
<glyph glyph-name="Iogonek" unicode="&#x12e;" horiz-adv-x="534" d="M455 -4 Q299 -75 299 -170 Q299 -212 325 -239.5 Q351 -267 391 -267 Q423 -267 472 -248 L472 -314 Q399 -347 336 -347 Q268 -347 222 -301.5 Q176 -256 176 -188 Q176 -57 361 6 Q310 9 272 9 Q192 9 63 -6 L63 44 Q147 52 169 75.5 Q191 99 191 180 L191 1185 Q191 1266 169 1290 Q147 1314 63 1321 L63 1371 Q187 1356 268 1356 Q348 1356 472 1371 L472 1321 Q389 1314 366.5 1290 Q344 1266 344 1185 L344 180 Q344 99 366 75.5 Q388 52 472 44 L472 -6 L455 -4 Z " />
<glyph glyph-name="iogonek" unicode="&#x12f;" horiz-adv-x="464" d="M424 -6 L409 -4 Q371 -17 342.5 -61.5 Q314 -106 314 -153 Q314 -194 336.5 -220.5 Q359 -247 394 -247 Q417 -247 445 -235 L445 -299 Q392 -324 344 -324 Q281 -324 238.5 -280 Q196 -236 196 -171 Q196 -65 331 3 Q256 6 232 6 Q176 6 59 -6 L59 35 Q130 40 150 59.5 Q170 79 170 145 L170 793 Q170 871 151 891.5 Q132 912 60 913 L60 948 Q194 964 314 1003 L314 145 Q314 79 334 59.5 Q354 40 424 35 L424 -6 Z M237 1351 Q277 1351 306 1321.5 Q335 1292 335 1251 Q335 1210 306 1181 Q277 1152 235 1152 Q194 1152 165 1181 Q136 1210 136 1252 Q136 1293 165.5 1322 Q195 1351 237 1351 Z " />
<glyph glyph-name="Idot" unicode="&#x130;" horiz-adv-x="534" d="M472 44 L472 -6 Q342 9 268 9 Q193 9 63 -6 L63 44 Q147 52 169 75.5 Q191 99 191 180 L191 1185 Q191 1266 169 1290 Q147 1314 63 1321 L63 1371 Q187 1356 268 1356 Q348 1356 472 1371 L472 1321 Q389 1314 366.5 1290 Q344 1266 344 1185 L344 180 Q344 99 366 75.5 Q388 52 472 44 Z M272 1725 Q312 1725 341 1695.5 Q370 1666 370 1626 Q370 1584 341 1555 Q312 1526 271 1526 Q229 1526 200 1555.5 Q171 1585 171 1626 Q171 1667 200.5 1696 Q230 1725 272 1725 Z " />
<glyph glyph-name="dotlessi" unicode="&#x131;" horiz-adv-x="477" d="M314 1003 L314 145 Q314 79 334 59.5 Q354 40 424 35 L424 -6 Q309 6 242 6 Q175 6 59 -6 L59 35 Q130 40 150 59.5 Q170 79 170 145 L170 793 Q170 871 151 891.5 Q132 912 60 913 L60 948 Q194 964 314 1003 Z " />
<glyph glyph-name="IJ" unicode="&#x132;" horiz-adv-x="1045" d="M472 44 L472 -6 Q342 9 268 9 Q193 9 63 -6 L63 44 Q147 52 169 75.5 Q191 99 191 180 L191 1185 Q191 1266 168.5 1290 Q146 1314 63 1321 L63 1371 Q187 1356 268 1356 Q348 1356 472 1371 L472 1321 Q389 1314 366.5 1290 Q344 1266 344 1185 L344 180 Q344 99 366 75.5 Q388 52 472 44 Z M515 -142 L515 -81 Q535 -83 548 -83 Q638 -83 672 -28 Q706 27 706 174 L706 1185 Q706 1267 684.5 1290 Q663 1313 578 1321 L578 1371 Q702 1356 783 1356 Q863 1356 987 1371 L987 1321 Q903 1313 881 1290 Q859 1267 859 1185 L859 245 Q859 141 849 87 Q839 33 812 -16 Q738 -145 573 -145 Q547 -145 515 -142 Z " />
<glyph glyph-name="ij" unicode="&#x133;" horiz-adv-x="954" d="M320 1003 L320 145 Q320 79 340 59.5 Q360 40 430 35 L430 -6 Q315 6 248 6 Q181 6 65 -6 L65 35 Q136 40 156 59.5 Q176 79 176 145 L176 793 Q176 871 157 891.5 Q138 912 66 913 L66 948 Q200 964 320 1003 Z M243 1357 Q283 1357 312 1327.5 Q341 1298 341 1257 Q341 1216 311.5 1187 Q282 1158 241 1158 Q200 1158 171 1187.5 Q142 1217 142 1258 Q142 1299 171.5 1328 Q201 1357 243 1357 Z M531 913 L531 948 Q666 964 785 1003 L785 28 Q785 -227 677 -329 Q587 -414 452 -415 L452 -362 Q554 -341 597.5 -271.5 Q641 -202 641 -58 L641 793 Q641 870 622 891 Q603 912 531 913 Z M710 1357 Q750 1357 779 1327.5 Q808 1298 808 1257 Q808 1216 778.5 1187 Q749 1158 708 1158 Q667 1158 638 1187.5 Q609 1217 609 1258 Q609 1299 638.5 1328 Q668 1357 710 1357 Z " />
<glyph glyph-name="Jcircumflex" unicode="&#x134;" horiz-adv-x="531" d="M1 -142 L1 -81 Q21 -83 34 -83 Q124 -83 158 -28 Q192 27 192 174 L192 1185 Q192 1267 170.5 1290 Q149 1313 64 1321 L64 1371 Q188 1356 269 1356 Q349 1356 473 1371 L473 1321 Q389 1313 367 1290 Q345 1267 345 1185 L345 245 Q345 141 335 87 Q325 33 298 -16 Q224 -145 58 -145 Q33 -145 1 -142 Z M-3 1485 L229 1762 L322 1762 L554 1485 L473 1485 L276 1656 L79 1485 L-3 1485 Z " />
<glyph glyph-name="jcircumflex" unicode="&#x135;" horiz-adv-x="472" d="M57 913 L57 948 Q190 964 310 1003 L310 28 Q310 -227 202 -329 Q112 -414 -23 -415 L-23 -362 Q80 -341 123 -271.5 Q166 -202 166 -58 L166 793 Q166 870 147 891 Q128 912 57 913 Z M-45 1130 L170 1429 L249 1429 L464 1130 L386 1130 L210 1307 L33 1130 L-45 1130 Z " />
<glyph glyph-name="Kcommaaccent" unicode="&#x136;" horiz-adv-x="1064" d="M493 828 L852 175 Q893 101 929 75 Q965 49 1034 44 L1034 -6 Q911 10 822 10 Q734 10 604 -6 L604 44 Q622 46 630 47 Q717 55 717 92 Q717 116 688 170 L404 705 L338 613 L338 180 Q338 99 359.5 75.5 Q381 52 462 44 L462 -6 Q354 9 270 9 Q186 9 63 -6 L63 44 Q146 51 168.5 75 Q191 99 191 180 L191 1185 Q191 1266 169 1290 Q147 1314 63 1321 L63 1371 Q188 1356 269 1356 Q351 1356 466 1371 L466 1321 Q382 1314 360 1290.5 Q338 1267 338 1185 L338 715 L703 1226 Q725 1257 725 1280 Q725 1300 705 1308 Q685 1316 624 1321 L624 1371 Q715 1362 793 1362 Q870 1362 961 1371 L961 1321 Q888 1316 850 1295 Q812 1274 768 1213 L493 828 Z M524 -493 L447 -493 Q531 -401 547 -298 Q534 -303 522 -303 Q490 -303 469.5 -277.5 Q449 -252 449 -211 Q449 -167 473 -140 Q497 -113 537 -113 Q578 -113 602.5 -145 Q627 -177 627 -230 Q627 -356 524 -493 Z " />
<glyph glyph-name="kcommaaccent" unicode="&#x137;" horiz-adv-x="896" d="M446 -493 L368 -493 Q452 -402 468 -301 L461 -300 Q454 -302 447 -302 Q412 -302 391 -277 Q370 -252 370 -211 Q370 -167 394 -140 Q418 -113 458 -113 Q499 -113 524 -145 Q549 -177 549 -231 Q549 -356 446 -493 Z M491 624 L722 146 Q755 79 782 59 Q809 39 869 35 L869 -6 Q800 1 753 1 Q706 1 638 -6 L401 511 L301 378 L301 145 Q301 80 321 60 Q341 40 412 35 L412 -6 Q295 6 227 6 Q159 6 46 -6 L46 35 Q117 40 137 59.5 Q157 79 157 145 L157 1178 Q157 1256 138 1277 Q119 1298 47 1298 L47 1334 Q183 1350 301 1388 L301 465 L562 818 Q589 854 589 885 Q589 926 500 932 L500 973 Q582 963 650 963 Q717 963 812 973 L812 932 Q748 925 717.5 907 Q687 889 647 835 L491 624 Z " />
<glyph glyph-name="kgreenlandic" unicode="&#x138;" horiz-adv-x="896" d="M473 605 L722 146 Q762 74 785.5 56.5 Q809 39 869 35 L869 -6 Q798 1 752 1 Q704 1 637 -6 L382 489 L304 385 L304 145 Q304 68 331 53 Q357 39 413 35 L413 -6 Q300 6 231 6 Q163 6 50 -6 L50 35 Q121 40 141 59.5 Q161 79 161 145 L161 795 Q161 873 142 893.5 Q123 914 51 915 L51 950 Q176 966 304 1004 L304 471 L562 820 Q590 858 590 885 Q590 926 500 932 L500 973 Q587 963 651 963 Q715 963 809 973 L809 932 Q746 925 715.5 907 Q685 889 644 835 L473 605 Z " />
<glyph glyph-name="Lacute" unicode="&#x139;" horiz-adv-x="849" d="M823 330 L785 0 L63 0 L63 50 Q148 59 169.5 82 Q191 105 191 186 L191 1185 Q191 1267 169.5 1289.5 Q148 1312 63 1322 L63 1371 Q187 1356 268 1356 Q348 1356 472 1371 L472 1322 Q387 1313 365.5 1290 Q344 1267 344 1185 L344 190 Q344 114 365 88.5 Q386 63 448 63 L562 63 Q660 63 701 114 Q742 165 777 330 L823 330 Z M225 1483 L432 1764 L626 1764 L303 1483 L225 1483 Z " />
<glyph glyph-name="lacute" unicode="&#x13a;" horiz-adv-x="468" d="M311 1388 L311 145 Q311 79 331 59.5 Q351 40 421 35 L421 -6 Q306 6 239 6 Q172 6 56 -6 L56 35 Q127 40 147 59.5 Q167 79 167 145 L167 1178 Q167 1256 148 1277 Q129 1298 57 1298 L57 1334 Q188 1349 311 1388 Z M184 1483 L390 1764 L585 1764 L262 1483 L184 1483 Z " />
<glyph glyph-name="Lcommaaccent" unicode="&#x13b;" horiz-adv-x="849" d="M823 330 L785 0 L63 0 L63 50 Q148 59 169.5 82 Q191 105 191 186 L191 1185 Q191 1267 169.5 1289.5 Q148 1312 63 1322 L63 1371 Q187 1356 268 1356 Q348 1356 472 1371 L472 1322 Q387 1313 365.5 1290 Q344 1267 344 1185 L344 190 Q344 114 365 88.5 Q386 63 448 63 L562 63 Q660 63 701 114 Q742 165 777 330 L823 330 Z M431 -493 L354 -493 Q438 -401 454 -298 Q441 -303 429 -303 Q396 -303 375.5 -277.5 Q355 -252 355 -211 Q355 -167 379 -140 Q403 -113 443 -113 Q485 -113 509.5 -145 Q534 -177 534 -230 Q534 -356 431 -493 Z " />
<glyph glyph-name="lcommaaccent" unicode="&#x13c;" horiz-adv-x="468" d="M311 1388 L311 145 Q311 79 331 59.5 Q351 40 421 35 L421 -6 Q306 6 239 6 Q172 6 56 -6 L56 35 Q127 40 147 59.5 Q167 79 167 145 L167 1178 Q167 1256 148 1277 Q129 1298 57 1298 L57 1334 Q188 1349 311 1388 Z M227 -493 L150 -493 Q233 -402 249 -301 L242 -300 Q235 -302 228 -302 Q193 -302 172.5 -277 Q152 -252 152 -211 Q152 -167 176 -140 Q200 -113 239 -113 Q281 -113 305.5 -145 Q330 -177 330 -231 Q330 -356 227 -493 Z " />
<glyph glyph-name="Lcaron" unicode="&#x13d;" horiz-adv-x="849" d="M823 330 L785 0 L63 0 L63 50 Q148 59 169.5 82 Q191 105 191 186 L191 1185 Q191 1267 169.5 1289.5 Q148 1312 63 1322 L63 1371 Q187 1356 268 1356 Q348 1356 472 1371 L472 1322 Q387 1313 365.5 1290 Q344 1267 344 1185 L344 190 Q344 114 365 88.5 Q386 63 448 63 L562 63 Q660 63 701 114 Q742 165 777 330 L823 330 Z M621 990 L543 990 Q634 1091 643 1196 L636 1198 Q629 1195 622 1195 Q587 1195 566 1220.5 Q545 1246 545 1290 Q545 1336 569 1363.5 Q593 1391 633 1391 Q724 1391 724 1264 Q724 1131 621 990 Z " />
<glyph glyph-name="lcaron" unicode="&#x13e;" horiz-adv-x="517" d="M311 1388 L311 145 Q311 79 331 59.5 Q351 40 421 35 L421 -6 Q306 6 239 6 Q172 6 56 -6 L56 35 Q127 40 147 59.5 Q167 79 167 145 L167 1178 Q167 1256 148 1277 Q129 1298 57 1298 L57 1334 Q188 1349 311 1388 Z M455 991 L378 991 Q469 1092 477 1197 L471 1198 Q463 1196 456 1196 Q380 1200 380 1289 Q380 1334 404 1361.5 Q428 1389 467 1389 Q509 1389 533.5 1355.5 Q558 1322 558 1264 Q558 1144 477 1025 Q462 1003 455 991 Z " />
<glyph glyph-name="Ldot" unicode="&#x13f;" horiz-adv-x="849" d="M658 805 Q698 805 727 775.5 Q756 746 756 705 Q756 664 727 635 Q698 606 657 606 Q615 606 586 635.5 Q557 665 557 706 Q557 747 586.5 776 Q616 805 658 805 Z M823 330 L785 0 L63 0 L63 50 Q148 59 169.5 82 Q191 105 191 186 L191 1185 Q191 1267 169.5 1289.5 Q148 1312 63 1322 L63 1371 Q187 1356 268 1356 Q348 1356 472 1371 L472 1322 Q387 1313 365.5 1290 Q344 1267 344 1185 L344 190 Q344 114 365 88.5 Q386 63 448 63 L562 63 Q660 63 701 114 Q742 165 777 330 L823 330 Z " />
<glyph glyph-name="ldot" unicode="&#x140;" horiz-adv-x="642" d="M301 1388 L301 145 Q301 79 321 59.5 Q341 40 411 35 L411 -6 Q296 6 229 6 Q162 6 46 -6 L46 35 Q117 40 137 59.5 Q157 79 157 145 L157 1178 Q157 1256 138 1277 Q119 1298 47 1298 L47 1334 Q178 1349 301 1388 Z M537 808 Q577 808 606 778.5 Q635 749 635 708 Q635 667 605.5 638 Q576 609 535 609 Q494 609 465 638.5 Q436 668 436 709 Q436 750 465.5 779 Q495 808 537 808 Z " />
<glyph glyph-name="Lslash" unicode="&#x141;" horiz-adv-x="849" d="M191 593 L63 504 L63 590 L191 679 L191 1185 Q191 1267 169.5 1289.5 Q148 1312 63 1322 L63 1371 Q187 1356 268 1356 Q348 1356 472 1371 L472 1322 Q387 1313 365.5 1290 Q344 1267 344 1185 L344 785 L567 939 L567 854 L344 699 L344 190 Q344 114 365 88.5 Q386 63 448 63 L561 63 Q660 63 701 114 Q742 165 776 330 L822 330 L784 0 L63 0 L63 50 Q148 59 169.5 82 Q191 105 191 186 L191 593 Z " />
<glyph glyph-name="lslash" unicode="&#x142;" horiz-adv-x="467" d="M311 733 L311 145 Q311 79 330.5 59.5 Q350 40 421 35 L421 -6 Q309 6 239 6 Q169 6 56 -6 L56 35 Q127 40 147 59.5 Q167 79 167 145 L167 634 L57 550 L56 636 L167 720 L167 1178 Q167 1256 148 1276.5 Q129 1297 57 1298 L57 1334 Q193 1349 311 1388 L311 818 L421 903 L421 817 L311 733 Z " />
<glyph glyph-name="Nacute" unicode="&#x143;" horiz-adv-x="1122" d="M932 -41 L906 -41 Q847 77 736 285 L255 1181 L255 180 Q255 125 261.5 102.5 Q268 80 287 69 Q318 51 388 44 L388 -6 Q270 4 221 4 Q170 4 62 -6 L62 44 Q151 53 173 75.5 Q195 98 195 180 L195 1261 Q172 1292 144.5 1304.5 Q117 1317 61 1321 L61 1371 Q134 1364 200 1364 Q260 1364 319 1371 L872 348 L872 1185 Q872 1240 865.5 1263 Q859 1286 841 1296 Q807 1315 739 1321 L739 1371 Q851 1361 906 1361 Q962 1361 1064 1371 L1064 1321 Q977 1313 954.5 1290 Q932 1267 932 1185 L932 -41 Z M508 1483 L715 1764 L909 1764 L587 1483 L508 1483 Z " />
<glyph glyph-name="nacute" unicode="&#x144;" horiz-adv-x="918" d="M61 907 L61 942 Q192 965 281 1003 Q294 936 299 825 Q384 986 523 986 Q584 986 636.5 954.5 Q689 923 720 868 Q762 793 762 648 L762 145 Q762 80 782 60 Q802 40 873 35 L873 -6 Q766 6 694 6 Q620 6 516 -6 L516 34 Q577 37 597.5 58.5 Q618 80 618 142 L618 655 Q618 779 589 830 Q553 893 478 893 Q389 893 344 811 Q314 754 314 647 L314 142 Q314 81 334 59.5 Q354 38 414 34 L414 -6 Q309 6 237 6 Q166 6 59 -6 L59 35 Q130 40 150 59.5 Q170 79 170 145 L170 779 Q170 868 154.5 886 Q139 904 61 907 Z M411 1129 L571 1430 L749 1430 L480 1129 L411 1129 Z " />
<glyph glyph-name="Ncommaaccent" unicode="&#x145;" horiz-adv-x="1122" d="M932 -41 L906 -41 Q847 77 736 285 L255 1181 L255 180 Q255 125 261.5 102.5 Q268 80 287 69 Q318 51 388 44 L388 -6 Q270 4 221 4 Q170 4 62 -6 L62 44 Q151 53 173 75.5 Q195 98 195 180 L195 1261 Q172 1292 144.5 1304.5 Q117 1317 61 1321 L61 1371 Q134 1364 200 1364 Q260 1364 319 1371 L872 348 L872 1185 Q872 1240 865.5 1263 Q859 1286 841 1296 Q807 1315 739 1321 L739 1371 Q851 1361 906 1361 Q962 1361 1064 1371 L1064 1321 Q977 1313 954.5 1290 Q932 1267 932 1185 L932 -41 Z M551 -493 L474 -493 Q558 -401 574 -298 Q561 -303 549 -303 Q517 -303 496.5 -277.5 Q476 -252 476 -211 Q476 -167 500 -140 Q524 -113 564 -113 Q605 -113 629.5 -145 Q654 -177 654 -230 Q654 -356 551 -493 Z " />
<glyph glyph-name="ncommaaccent" unicode="&#x146;" horiz-adv-x="918" d="M61 907 L61 942 Q192 965 281 1003 Q294 936 299 825 Q384 986 523 986 Q584 986 636.5 954.5 Q689 923 720 868 Q762 793 762 648 L762 145 Q762 80 782 60 Q802 40 873 35 L873 -6 Q766 6 694 6 Q620 6 516 -6 L516 34 Q577 37 597.5 58.5 Q618 80 618 142 L618 655 Q618 779 589 830 Q553 893 478 893 Q389 893 344 811 Q314 754 314 647 L314 142 Q314 81 334 59.5 Q354 38 414 34 L414 -6 Q309 6 237 6 Q166 6 59 -6 L59 35 Q130 40 150 59.5 Q170 79 170 145 L170 779 Q170 868 154.5 886 Q139 904 61 907 Z M454 -493 L377 -493 Q461 -402 476 -301 L469 -300 Q462 -302 455 -302 Q421 -302 400 -277 Q379 -252 379 -211 Q379 -166 403 -139.5 Q427 -113 467 -113 Q508 -113 532.5 -145 Q557 -177 557 -231 Q557 -356 454 -493 Z " />
<glyph glyph-name="Ncaron" unicode="&#x147;" horiz-adv-x="1122" d="M932 -41 L906 -41 Q847 77 736 285 L255 1181 L255 180 Q255 125 261.5 102.5 Q268 80 287 69 Q318 51 388 44 L388 -6 Q270 4 221 4 Q170 4 62 -6 L62 44 Q151 53 173 75.5 Q195 98 195 180 L195 1261 Q172 1292 144.5 1304.5 Q117 1317 61 1321 L61 1371 Q134 1364 200 1364 Q260 1364 319 1371 L872 348 L872 1185 Q872 1240 865.5 1263 Q859 1286 841 1296 Q807 1315 739 1321 L739 1371 Q851 1361 906 1361 Q962 1361 1064 1371 L1064 1321 Q977 1313 954.5 1290 Q932 1267 932 1185 L932 -41 Z M841 1759 L609 1482 L516 1482 L284 1759 L365 1759 L563 1588 L760 1759 L841 1759 Z " />
<glyph glyph-name="ncaron" unicode="&#x148;" horiz-adv-x="918" d="M61 907 L61 942 Q192 965 281 1003 Q294 936 299 825 Q384 986 523 986 Q584 986 636.5 954.5 Q689 923 720 868 Q762 793 762 648 L762 145 Q762 80 782 60 Q802 40 873 35 L873 -6 Q766 6 694 6 Q620 6 516 -6 L516 34 Q577 37 597.5 58.5 Q618 80 618 142 L618 655 Q618 779 589 830 Q553 893 478 893 Q389 893 344 811 Q314 754 314 647 L314 142 Q314 81 334 59.5 Q354 38 414 34 L414 -6 Q309 6 237 6 Q166 6 59 -6 L59 35 Q130 40 150 59.5 Q170 79 170 145 L170 779 Q170 868 154.5 886 Q139 904 61 907 Z M721 1426 L505 1127 L426 1127 L211 1426 L289 1426 L466 1249 L643 1426 L721 1426 Z " />
<glyph glyph-name="napostrophe" unicode="&#x149;" horiz-adv-x="1198" d="M188 923 L109 923 Q206 1052 223 1187 Q215 1186 209 1186 Q170 1186 145.5 1214 Q121 1242 121 1286 Q121 1331 148 1359 Q175 1387 218 1387 Q263 1387 289 1355.5 Q315 1324 315 1270 Q315 1120 188 923 Z M341 907 L341 942 Q472 965 561 1003 Q574 937 579 825 Q665 986 803 986 Q934 986 1000 868 Q1042 793 1042 648 L1042 145 Q1042 80 1062 60 Q1082 40 1153 35 L1153 -6 Q1046 6 974 6 Q900 6 796 -6 L796 34 Q857 37 877.5 58.5 Q898 80 898 142 L898 655 Q898 779 869 830 Q833 893 758 893 Q669 893 624 811 Q594 754 594 647 L594 142 Q594 81 614 59.5 Q634 38 694 34 L694 -6 Q590 6 518 6 Q446 6 339 -6 L339 35 Q410 40 430 59.5 Q450 79 450 145 L450 779 Q450 868 434.5 886 Q419 904 341 907 Z " />
<glyph glyph-name="Eng" unicode="&#x14a;" horiz-adv-x="1042" d="M69 1280 L69 1330 Q183 1346 315 1399 Q331 1317 335 1190 Q430 1391 583 1391 Q658 1391 720.5 1344 Q783 1297 819 1213 Q862 1111 862 899 L862 -25 Q862 -183 832 -254 Q793 -347 705 -387 Q644 -415 578 -415 Q561 -415 525 -411 L525 -351 Q549 -353 565 -353 Q645 -353 677 -296 Q709 -239 709 -96 L709 908 Q709 1080 682 1150 Q639 1260 545 1260 Q497 1260 455 1228.5 Q413 1197 387 1142 Q350 1062 350 897 L350 180 Q350 96 374 74 Q400 51 478 44 L478 -6 Q344 9 269 9 Q194 9 69 -6 L69 44 Q152 51 174.5 75 Q197 99 197 180 L197 1099 Q197 1225 180 1251 Q162 1279 69 1280 Z " />
<glyph glyph-name="eng" unicode="&#x14b;" horiz-adv-x="918" d="M436 -415 L436 -362 Q535 -341 576.5 -271.5 Q618 -202 618 -57 L618 655 Q618 779 589 830 Q553 893 478 893 Q389 893 344 811 Q314 754 314 647 L314 142 Q314 81 334 59.5 Q354 38 414 34 L414 -6 Q309 6 237 6 Q166 6 59 -6 L59 35 Q130 40 150 59.5 Q170 79 170 145 L170 779 Q170 868 154.5 886 Q139 904 61 907 L61 942 Q192 965 281 1003 Q294 936 299 825 Q384 986 523 986 Q584 986 636.5 954.5 Q689 923 720 868 Q762 793 762 648 L762 28 Q762 -107 736.5 -189.5 Q711 -272 651 -332 Q571 -413 436 -415 Z " />
<glyph glyph-name="Omacron" unicode="&#x14c;" horiz-adv-x="1056" d="M528 1391 Q647 1391 747 1315 Q854 1232 911 1064.5 Q968 897 968 660 Q968 392 855 175 Q803 76 701 17 Q626 -26 532 -26 Q369 -26 252 104 Q173 193 127 370 Q89 516 89 679 Q89 991 200 1186 Q260 1291 357 1346 Q434 1391 528 1391 Z M530 1334 Q419 1334 346 1206 Q317 1156 304 1109 Q252 922 252 691 Q252 518 277.5 377.5 Q303 237 349 156 Q420 31 533 31 Q642 31 710 151 Q740 204 753 255 Q805 448 805 679 Q805 854 780 995.5 Q755 1137 710 1212 Q638 1334 530 1334 Z M265 1559 L265 1649 L793 1649 L793 1559 L265 1559 Z " />
<glyph glyph-name="omacron" unicode="&#x14d;" horiz-adv-x="789" d="M402 992 Q512 992 592 901 Q646 839 679.5 724 Q713 609 713 487 Q713 274 628 128 Q541 -22 393 -22 Q298 -22 221 49 Q151 113 113 226.5 Q75 340 75 483 Q75 696 157 835 Q250 992 402 992 Z M397 939 Q331 939 288 862 Q226 750 226 479 Q226 31 393 31 Q459 31 501 106 Q562 215 562 480 Q562 939 397 939 Z M144 1191 L144 1274 L644 1274 L644 1191 L144 1191 Z " />
<glyph glyph-name="Obreve" unicode="&#x14e;" horiz-adv-x="1056" d="M528 1391 Q647 1391 747 1315 Q854 1232 911 1064.5 Q968 897 968 660 Q968 392 855 175 Q803 76 701 17 Q626 -26 532 -26 Q369 -26 252 104 Q173 193 127 370 Q89 516 89 679 Q89 991 200 1186 Q260 1291 357 1346 Q434 1391 528 1391 Z M530 1334 Q419 1334 346 1206 Q317 1156 304 1109 Q252 922 252 691 Q252 518 277.5 377.5 Q303 237 349 156 Q420 31 533 31 Q642 31 710 151 Q740 204 753 255 Q805 448 805 679 Q805 854 780 995.5 Q755 1137 710 1212 Q638 1334 530 1334 Z M693 1760 L748 1760 Q739 1649 698 1578 Q673 1535 626.5 1509 Q580 1483 529 1483 Q433 1483 376 1555 Q319 1627 309 1760 L364 1760 Q410 1609 528 1609 Q647 1609 693 1760 Z " />
<glyph glyph-name="obreve" unicode="&#x14f;" horiz-adv-x="789" d="M402 992 Q512 992 592 901 Q646 839 679.5 724 Q713 609 713 487 Q713 274 628 128 Q541 -22 393 -22 Q298 -22 221 49 Q151 113 113 226.5 Q75 340 75 483 Q75 696 157 835 Q250 992 402 992 Z M397 939 Q331 939 288 862 Q226 750 226 479 Q226 31 393 31 Q459 31 501 106 Q562 215 562 480 Q562 939 397 939 Z M558 1427 L614 1427 Q608 1309 561 1230 Q505 1133 394 1133 Q298 1133 239.5 1211 Q181 1289 174 1427 L230 1427 Q275 1259 394 1259 Q513 1259 558 1427 Z " />
<glyph glyph-name="Ohungarumlaut" unicode="&#x150;" horiz-adv-x="1056" d="M528 1391 Q647 1391 747 1315 Q854 1232 911 1064.5 Q968 897 968 660 Q968 392 855 175 Q803 76 701 17 Q626 -26 532 -26 Q369 -26 252 104 Q173 193 127 370 Q89 516 89 679 Q89 991 200 1186 Q260 1291 357 1346 Q434 1391 528 1391 Z M530 1334 Q419 1334 346 1206 Q317 1156 304 1109 Q252 922 252 691 Q252 518 277.5 377.5 Q303 237 349 156 Q420 31 533 31 Q642 31 710 151 Q740 204 753 255 Q805 448 805 679 Q805 854 780 995.5 Q755 1137 710 1212 Q638 1334 530 1334 Z M621 1483 L799 1764 L957 1764 L696 1483 L621 1483 Z M364 1483 L542 1764 L698 1764 L440 1483 L364 1483 Z " />
<glyph glyph-name="ohungarumlaut" unicode="&#x151;" horiz-adv-x="789" d="M402 992 Q512 992 592 901 Q646 839 679.5 724 Q713 609 713 487 Q713 274 628 128 Q541 -22 393 -22 Q298 -22 221 49 Q151 113 113 226.5 Q75 340 75 483 Q75 696 157 835 Q250 992 402 992 Z M397 939 Q331 939 288 862 Q226 750 226 479 Q226 31 393 31 Q459 31 501 106 Q562 215 562 480 Q562 939 397 939 Z M255 1128 L395 1430 L536 1430 L322 1128 L255 1128 Z M481 1128 L622 1430 L764 1430 L547 1128 L481 1128 Z " />
<glyph glyph-name="OE" unicode="&#x152;" horiz-adv-x="1526" d="M806 194 Q705 -24 521 -24 Q370 -24 254 104 Q173 194 127 375 Q89 524 89 688 Q89 985 200 1184 Q257 1286 357 1346 Q429 1389 516 1389 Q704 1389 806 1175 L806 1365 L1391 1365 L1420 1057 L1374 1057 Q1346 1202 1308 1252 Q1270 1302 1190 1302 L959 1302 L959 741 L1182 741 Q1220 741 1236.5 753 Q1253 765 1263 800 Q1274 837 1277 910 L1323 910 L1323 508 L1277 508 Q1274 608 1252.5 643 Q1231 678 1173 678 L959 678 L959 184 Q959 111 980.5 87 Q1002 63 1067 63 L1179 63 Q1244 63 1278 83 Q1312 103 1338 157 Q1369 219 1391 330 L1437 330 L1400 0 L806 0 L806 194 Z M527 1330 Q415 1330 342 1199 Q252 1037 252 684 Q252 334 343 165 Q414 35 532 35 Q641 35 711 158 Q739 207 752 253 Q805 438 805 662 Q805 1017 724 1180 Q649 1330 527 1330 Z " />
<glyph glyph-name="oe" unicode="&#x153;" horiz-adv-x="1258" d="M632 143 Q538 -20 392 -20 Q298 -20 221 51 Q151 115 113 228 Q75 341 75 482 Q75 689 157 831 Q247 988 402 988 Q548 988 634 828 Q729 986 881 986 Q975 986 1043 926 Q1111 866 1146 752 Q1180 641 1181 485 L707 485 Q711 286 741 198 Q790 49 910 49 Q996 49 1049.5 118.5 Q1103 188 1117 315 L1183 315 Q1170 184 1109 93 Q1035 -19 892 -19 Q812 -19 746 22.5 Q680 64 632 143 Z M1038 553 Q1025 777 991 849 Q949 936 878 936 Q803 936 758 832 Q726 760 709 553 L1038 553 Z M397 935 Q330 935 288 859 Q226 746 226 477 Q226 33 393 33 Q459 33 501 108 Q562 218 562 463 Q562 738 512 843 Q469 935 397 935 Z " />
<glyph glyph-name="Racute" unicode="&#x154;" horiz-adv-x="997" d="M379 1483 L586 1764 L780 1764 L458 1483 L379 1483 Z M344 649 L344 180 Q344 99 365 76 Q386 53 472 44 L472 -6 Q345 9 269 9 Q193 9 63 -6 L63 44 Q148 53 169.5 76 Q191 99 191 180 L191 1179 Q191 1260 169 1283.5 Q147 1307 63 1315 L63 1365 L491 1365 Q675 1365 764 1262 Q852 1160 852 1007 Q852 868 783.5 781.5 Q715 695 578 662 Q638 642 672 603 Q706 564 732 484 L839 162 Q862 91 887 69 Q912 47 972 44 L972 -6 Q907 0 857 0 Q806 0 740 -6 Q708 78 695 120 L576 486 Q544 583 508 616 Q472 649 397 649 L344 649 Z M344 712 L456 712 Q571 712 628 779 Q659 815 677.5 879 Q696 943 696 1013 Q696 1302 465 1302 L344 1302 L344 712 Z " />
<glyph glyph-name="racute" unicode="&#x155;" horiz-adv-x="642" d="M424 35 L424 -6 Q311 6 241 6 Q171 6 58 -6 L58 35 Q129 40 149 59.5 Q169 79 169 145 L169 787 Q169 871 154 893 Q139 915 81 915 Q75 915 60 915 L60 950 Q211 975 279 999 Q291 904 296 806 Q348 992 484 992 Q547 992 585 948 Q624 904 624 833 Q624 727 546 727 Q516 727 496.5 746 Q477 765 477 795 Q477 808 482 831 Q486 850 486 862 Q486 880 473.5 893 Q461 906 444 906 Q382 906 347.5 818 Q313 730 313 574 L313 145 Q313 79 334 58 Q355 37 424 35 Z M302 1129 L463 1430 L640 1430 L371 1129 L302 1129 Z " />
<glyph glyph-name="Rcommaaccent" unicode="&#x156;" horiz-adv-x="997" d="M505 -493 L428 -493 Q512 -401 528 -298 Q515 -303 503 -303 Q471 -303 450.5 -277 Q430 -251 430 -211 Q430 -167 454 -140 Q478 -113 518 -113 Q559 -113 583.5 -145 Q608 -177 608 -230 Q608 -356 505 -493 Z M344 649 L344 180 Q344 99 365 76 Q386 53 472 44 L472 -6 Q345 9 269 9 Q193 9 63 -6 L63 44 Q148 53 169.5 76 Q191 99 191 180 L191 1179 Q191 1260 169 1283.5 Q147 1307 63 1315 L63 1365 L491 1365 Q675 1365 764 1262 Q852 1160 852 1007 Q852 868 783.5 781.5 Q715 695 578 662 Q638 642 672 603 Q706 564 732 484 L839 162 Q862 91 887 69 Q912 47 972 44 L972 -6 Q907 0 857 0 Q806 0 740 -6 Q708 78 695 120 L576 486 Q544 583 508 616 Q472 649 397 649 L344 649 Z M344 712 L456 712 Q571 712 628 779 Q659 815 677.5 879 Q696 943 696 1013 Q696 1302 465 1302 L344 1302 L344 712 Z " />
<glyph glyph-name="rcommaaccent" unicode="&#x157;" horiz-adv-x="642" d="M424 35 L424 -6 Q311 6 241 6 Q171 6 58 -6 L58 35 Q129 40 149 59.5 Q169 79 169 145 L169 787 Q169 871 154 893 Q139 915 81 915 Q75 915 60 915 L60 950 Q211 975 279 999 Q291 904 296 806 Q348 992 484 992 Q547 992 585 948 Q624 904 624 833 Q624 727 546 727 Q516 727 496.5 746 Q477 765 477 795 Q477 808 482 831 Q486 850 486 862 Q486 880 473.5 893 Q461 906 444 906 Q382 906 347.5 818 Q313 730 313 574 L313 145 Q313 79 334 58 Q355 37 424 35 Z M233 -493 L156 -493 Q240 -402 255 -301 L249 -300 Q241 -302 235 -302 Q200 -302 179 -277 Q158 -252 158 -211 Q158 -167 182 -140 Q206 -113 246 -113 Q287 -113 312 -145 Q337 -177 337 -231 Q337 -355 233 -493 Z " />
<glyph glyph-name="Rcaron" unicode="&#x158;" horiz-adv-x="997" d="M735 1759 L502 1482 L410 1482 L178 1759 L259 1759 L456 1588 L653 1759 L735 1759 Z M344 649 L344 180 Q344 99 365 76 Q386 53 472 44 L472 -6 Q345 9 269 9 Q193 9 63 -6 L63 44 Q148 53 169.5 76 Q191 99 191 180 L191 1179 Q191 1260 169 1283.5 Q147 1307 63 1315 L63 1365 L491 1365 Q675 1365 764 1262 Q852 1160 852 1007 Q852 868 783.5 781.5 Q715 695 578 662 Q638 642 672 603 Q706 564 732 484 L839 162 Q862 91 887 69 Q912 47 972 44 L972 -6 Q907 0 857 0 Q806 0 740 -6 Q708 78 695 120 L576 486 Q544 583 508 616 Q472 649 397 649 L344 649 Z M344 712 L456 712 Q571 712 628 779 Q659 815 677.5 879 Q696 943 696 1013 Q696 1302 465 1302 L344 1302 L344 712 Z " />
<glyph glyph-name="rcaron" unicode="&#x159;" horiz-adv-x="642" d="M424 35 L424 -6 Q311 6 241 6 Q171 6 58 -6 L58 35 Q129 40 149 59.5 Q169 79 169 145 L169 787 Q169 871 154 893 Q139 915 81 915 Q75 915 60 915 L60 950 Q211 975 279 999 Q291 904 296 806 Q348 992 484 992 Q547 992 585 948 Q624 904 624 833 Q624 727 546 727 Q516 727 496.5 746 Q477 765 477 795 Q477 808 482 831 Q486 850 486 862 Q486 880 473.5 893 Q461 906 444 906 Q382 906 347.5 818 Q313 730 313 574 L313 145 Q313 79 334 58 Q355 37 424 35 Z M602 1426 L387 1127 L308 1127 L93 1426 L171 1426 L347 1249 L524 1426 L602 1426 Z " />
<glyph glyph-name="Sacute" unicode="&#x15a;" horiz-adv-x="871" d="M389 1483 L595 1764 L790 1764 L467 1483 L389 1483 Z M106 413 L152 413 Q200 46 433 46 Q529 46 588 116 Q654 193 654 311 Q654 414 608 478 Q562 542 429 625 Q318 694 255 745 Q185 802 154 870 Q123 938 123 1034 Q123 1118 152 1191 Q181 1264 232 1309 Q317 1384 437 1384 Q568 1384 651 1279 L697 1392 L728 1392 L728 1015 L682 1015 Q657 1159 603 1242 Q550 1322 450 1322 Q364 1322 310 1258 Q249 1186 249 1081 Q249 987 292.5 933.5 Q336 880 501 773 Q609 703 663 654 Q781 547 781 364 Q781 194 687 87 Q595 -18 451 -18 Q307 -18 193 97 L137 -31 L106 -31 L106 413 Z " />
<glyph glyph-name="sacute" unicode="&#x15b;" horiz-adv-x="719" d="M306 1129 L467 1430 L644 1430 L375 1129 L306 1129 Z M97 -24 L97 318 L141 318 Q175 44 342 44 Q411 44 457 96 Q504 148 504 223 Q504 280 484 310 Q452 361 356 415 Q208 499 164 548 Q108 610 108 717 Q108 850 190 923 Q260 985 358 985 Q450 985 520 921 L544 1004 L578 1004 L578 686 L534 686 Q515 927 371 927 Q307 927 265 880 Q224 833 224 764 Q224 702 253 665 Q282 628 370 579 Q489 513 538 471 Q626 398 626 275 Q626 130 534 47 Q463 -18 359 -18 Q250 -18 165 67 L131 -24 L97 -24 Z " />
<glyph glyph-name="Scircumflex" unicode="&#x15c;" horiz-adv-x="871" d="M165 1485 L397 1762 L490 1762 L722 1485 L641 1485 L444 1656 L246 1485 L165 1485 Z M106 413 L152 413 Q200 46 433 46 Q529 46 588 116 Q654 193 654 311 Q654 414 608 478 Q562 542 429 625 Q318 694 255 745 Q185 802 154 870 Q123 938 123 1034 Q123 1118 152 1191 Q181 1264 232 1309 Q317 1384 437 1384 Q568 1384 651 1279 L697 1392 L728 1392 L728 1015 L682 1015 Q657 1159 603 1242 Q550 1322 450 1322 Q364 1322 310 1258 Q249 1186 249 1081 Q249 987 292.5 933.5 Q336 880 501 773 Q609 703 663 654 Q781 547 781 364 Q781 194 687 87 Q595 -18 451 -18 Q307 -18 193 97 L137 -31 L106 -31 L106 413 Z " />
<glyph glyph-name="scircumflex" unicode="&#x15d;" horiz-adv-x="718" d="M106 1130 L322 1429 L401 1429 L616 1130 L538 1130 L361 1307 L184 1130 L106 1130 Z M97 -24 L97 318 L141 318 Q175 44 342 44 Q411 44 457 96 Q504 148 504 223 Q504 280 484 310 Q452 361 356 415 Q208 499 164 548 Q108 610 108 717 Q108 850 190 923 Q260 985 358 985 Q450 985 520 921 L544 1004 L578 1004 L578 686 L534 686 Q515 927 371 927 Q307 927 265 880 Q224 833 224 764 Q224 702 253 665 Q282 628 370 579 Q489 513 538 471 Q626 398 626 275 Q626 130 534 47 Q463 -18 359 -18 Q250 -18 165 67 L131 -24 L97 -24 Z " />
<glyph glyph-name="Scedilla" unicode="&#x15e;" horiz-adv-x="871" d="M479 -18 L437 -119 Q592 -132 592 -265 Q592 -340 540 -387 Q496 -427 430 -427 Q372 -427 299 -395 L299 -327 Q349 -346 385 -346 Q423 -346 448 -319.5 Q473 -293 473 -254 Q473 -207 443.5 -186.5 Q414 -166 344 -164 L407 -16 Q287 2 193 97 L137 -31 L106 -31 L106 413 L152 413 Q200 46 433 46 Q529 46 588 116 Q654 193 654 311 Q654 414 608 478 Q562 542 429 625 Q318 694 255 745 Q185 802 154 870 Q123 938 123 1034 Q123 1118 152 1191 Q181 1264 232 1309 Q317 1384 437 1384 Q568 1384 651 1279 L697 1392 L728 1392 L728 1015 L682 1015 Q656 1159 603 1242 Q550 1322 450 1322 Q364 1322 310 1258 Q249 1186 249 1081 Q249 986 292.5 932.5 Q336 879 501 773 Q609 703 663 654 Q781 547 781 363 Q781 203 697.5 98 Q614 -7 479 -18 Z " />
<glyph glyph-name="scedilla" unicode="&#x15f;" horiz-adv-x="718" d="M393 -17 L349 -121 Q499 -137 499 -259 Q499 -327 454.5 -369 Q410 -411 339 -411 Q280 -411 215 -378 L215 -317 Q266 -336 299 -336 Q336 -336 359.5 -311.5 Q383 -287 383 -249 Q383 -205 354.5 -184.5 Q326 -164 259 -160 L322 -16 Q236 -5 165 66 L131 -24 L97 -24 L97 318 L141 318 Q175 43 342 43 Q412 43 457 95 Q504 147 504 222 Q504 279 484 309 Q452 360 356 415 Q208 499 164 547 Q108 609 108 716 Q108 850 190 923 Q260 985 358 985 Q450 985 520 921 L544 1004 L578 1004 L578 686 L534 686 Q515 927 371 927 Q307 927 265 880 Q224 833 224 764 Q224 702 253 665 Q282 628 370 579 Q489 512 538 471 Q626 397 626 275 Q626 156 561.5 75.5 Q497 -5 393 -17 Z " />
<glyph glyph-name="Scaron" unicode="&#x160;" horiz-adv-x="871" d="M722 1759 L490 1482 L397 1482 L165 1759 L246 1759 L444 1588 L641 1759 L722 1759 Z M106 413 L152 413 Q200 46 433 46 Q529 46 588 116 Q654 193 654 311 Q654 414 608 478 Q562 542 429 625 Q318 694 255 745 Q185 802 154 870 Q123 938 123 1034 Q123 1118 152 1191 Q181 1264 232 1309 Q317 1384 437 1384 Q568 1384 651 1279 L697 1392 L728 1392 L728 1015 L682 1015 Q657 1159 603 1242 Q550 1322 450 1322 Q364 1322 310 1258 Q249 1186 249 1081 Q249 987 292.5 933.5 Q336 880 501 773 Q609 703 663 654 Q781 547 781 364 Q781 194 687 87 Q595 -18 451 -18 Q307 -18 193 97 L137 -31 L106 -31 L106 413 Z " />
<glyph glyph-name="scaron" unicode="&#x161;" horiz-adv-x="718" d="M609 1426 L394 1127 L315 1127 L100 1426 L178 1426 L355 1249 L531 1426 L609 1426 Z M97 -24 L97 318 L141 318 Q175 44 342 44 Q411 44 457 96 Q504 148 504 223 Q504 280 484 310 Q452 361 356 415 Q208 499 164 548 Q108 610 108 717 Q108 850 190 923 Q260 985 358 985 Q450 985 520 921 L544 1004 L578 1004 L578 686 L534 686 Q515 927 371 927 Q307 927 265 880 Q224 833 224 764 Q224 702 253 665 Q282 628 370 579 Q489 513 538 471 Q626 398 626 275 Q626 130 534 47 Q463 -18 359 -18 Q250 -18 165 67 L131 -24 L97 -24 Z " />
<glyph glyph-name="Tcommaaccent" unicode="&#x162;" horiz-adv-x="884" d="M798 1053 Q767 1202 729 1252 Q691 1302 610 1302 L518 1302 L518 180 Q518 98 539 76 Q560 54 646 44 L646 -6 Q520 9 442 9 Q363 9 237 -6 L237 44 Q323 53 344 75.5 Q365 98 365 180 L365 1302 L282 1302 Q223 1302 190 1280.5 Q157 1259 132 1204 Q109 1154 86 1053 L40 1053 L84 1365 L799 1365 L844 1053 L798 1053 Z M430 -493 L353 -493 Q437 -401 453 -298 Q440 -303 428 -303 Q396 -303 375.5 -277.5 Q355 -252 355 -211 Q355 -167 379 -140 Q403 -113 443 -113 Q484 -113 508.5 -145 Q533 -177 533 -230 Q533 -356 430 -493 Z " />
<glyph glyph-name="tcommaaccent" unicode="&#x163;" horiz-adv-x="528" d="M499 102 L498 42 Q417 -18 342 -18 Q211 -18 170 105 Q151 163 152 307 L158 899 L57 899 L57 955 Q129 961 169 1009 Q230 1080 257 1259 L302 1259 L301 967 L485 967 L485 899 L301 899 L300 289 Q300 206 305 167 Q310 128 324 101 Q346 62 395 62 Q437 62 499 102 Z M295 -493 L218 -493 Q302 -402 317 -301 L310 -300 Q303 -302 296 -302 Q261 -302 240 -277 Q219 -252 219 -211 Q219 -167 243 -140 Q267 -113 307 -113 Q349 -113 373.5 -145 Q398 -177 398 -231 Q398 -356 295 -493 Z " />
<glyph glyph-name="Tcaron" unicode="&#x164;" horiz-adv-x="884" d="M720 1759 L488 1482 L396 1482 L163 1759 L245 1759 L442 1588 L639 1759 L720 1759 Z M798 1053 Q767 1202 729 1252 Q691 1302 610 1302 L518 1302 L518 180 Q518 98 539 76 Q560 54 646 44 L646 -6 Q520 9 442 9 Q363 9 237 -6 L237 44 Q323 53 344 75.5 Q365 98 365 180 L365 1302 L282 1302 Q223 1302 190 1280.5 Q157 1259 132 1204 Q109 1154 86 1053 L40 1053 L84 1365 L799 1365 L844 1053 L798 1053 Z " />
<glyph glyph-name="tcaron" unicode="&#x165;" horiz-adv-x="528" d="M499 102 L498 42 Q417 -18 342 -18 Q211 -18 170 105 Q151 163 152 307 L158 899 L57 899 L57 955 Q129 961 169 1009 Q230 1080 257 1259 L302 1259 L301 967 L485 967 L485 899 L301 899 L300 289 Q300 206 305 167 Q310 128 324 101 Q346 62 395 62 Q437 62 499 102 Z M443 1068 L366 1068 Q457 1169 466 1274 L459 1275 Q452 1273 445 1273 Q410 1273 389 1298.5 Q368 1324 368 1366 Q368 1411 392 1438.5 Q416 1466 455 1466 Q498 1466 522 1432.5 Q546 1399 546 1341 Q546 1221 465 1102 Q450 1080 443 1068 Z " />
<glyph glyph-name="Tbar" unicode="&#x166;" horiz-adv-x="884" d="M518 797 L518 180 Q518 98 539 76 Q560 54 646 44 L646 -6 Q520 9 442 9 Q363 9 237 -6 L237 44 Q323 53 344 75.5 Q365 98 365 180 L365 797 L138 797 L138 863 L365 863 L365 1302 L282 1302 Q223 1302 190 1280.5 Q157 1259 132 1205 Q109 1154 86 1053 L40 1053 L84 1365 L799 1365 L844 1053 L798 1053 Q767 1202 729.5 1252 Q692 1302 610 1302 L518 1302 L518 863 L742 863 L742 797 L518 797 Z " />
<glyph glyph-name="tbar" unicode="&#x167;" horiz-adv-x="534" d="M156 723 L158 899 L57 899 L57 955 Q129 961 169 1009 Q230 1080 257 1259 L302 1259 L301 967 L485 967 L485 899 L301 899 L301 723 L488 723 L488 655 L300 655 L300 289 Q300 206 305 167 Q310 128 324 101 Q346 62 395 62 Q436 62 499 102 L498 42 Q417 -18 342 -18 Q239 -18 195.5 50.5 Q152 119 152 278 L152 307 L156 655 L60 655 L60 723 L156 723 Z " />
<glyph glyph-name="Utilde" unicode="&#x168;" horiz-adv-x="1109" d="M732 1321 L732 1371 Q843 1361 898 1361 Q954 1361 1056 1371 L1056 1321 Q969 1313 946.5 1290 Q924 1267 924 1185 L924 417 Q924 245 868 145 Q774 -23 558 -23 Q402 -23 302 68 Q237 126 209.5 205 Q182 284 182 409 L182 1185 Q182 1267 160.5 1289.5 Q139 1312 54 1321 L54 1371 Q178 1356 259 1356 Q339 1356 463 1371 L463 1321 Q379 1313 357 1289.5 Q335 1266 335 1185 L335 393 Q335 243 369 182 Q433 68 589 68 Q717 68 793 149 Q864 225 864 406 L864 1185 Q864 1267 841.5 1289.5 Q819 1312 732 1321 Z M360 1522 L311 1537 Q334 1643 372 1691 Q410 1739 471 1739 Q504 1739 534.5 1723 Q565 1707 612 1665 Q662 1620 702 1620 Q739 1620 761.5 1644.5 Q784 1669 800 1727 L848 1714 Q835 1628 810 1587 Q759 1504 684 1504 Q652 1504 622 1520.5 Q592 1537 543 1580 Q496 1623 459 1623 Q392 1623 360 1522 Z " />
<glyph glyph-name="utilde" unicode="&#x169;" horiz-adv-x="901" d="M241 1181 L196 1197 Q219 1303 253 1350 Q287 1398 348 1398 Q404 1398 474 1330 Q527 1279 566 1279 Q600 1279 621 1302.5 Q642 1326 660 1386 L704 1373 Q692 1281 655 1225 Q615 1163 548 1163 Q496 1163 416 1240 Q371 1282 336 1282 Q275 1282 241 1181 Z M36 913 L36 948 Q166 964 289 1003 L289 309 Q289 188 318 137 Q353 75 431 75 Q594 75 594 336 L594 793 Q594 871 574.5 892 Q555 913 485 913 L485 948 Q615 963 738 1003 L738 183 Q738 104 754 87.5 Q770 71 851 69 L851 33 Q718 17 624 -21 Q611 67 611 131 Q611 142 611 154 Q571 64 518.5 23.5 Q466 -17 388 -17 Q250 -17 186 97 Q145 169 145 312 L145 793 Q145 871 125.5 892 Q106 913 36 913 Z " />
<glyph glyph-name="Umacron" unicode="&#x16a;" horiz-adv-x="1109" d="M732 1321 L732 1371 Q843 1361 898 1361 Q954 1361 1056 1371 L1056 1321 Q969 1313 946.5 1290 Q924 1267 924 1185 L924 417 Q924 245 868 145 Q774 -23 558 -23 Q402 -23 302 68 Q237 126 209.5 205 Q182 284 182 409 L182 1185 Q182 1267 160.5 1289.5 Q139 1312 54 1321 L54 1371 Q178 1356 259 1356 Q339 1356 463 1371 L463 1321 Q379 1313 357 1289.5 Q335 1266 335 1185 L335 393 Q335 243 369 182 Q433 68 589 68 Q717 68 793 149 Q864 225 864 406 L864 1185 Q864 1267 841.5 1289.5 Q819 1312 732 1321 Z M323 1559 L323 1649 L851 1649 L851 1559 L323 1559 Z " />
<glyph glyph-name="umacron" unicode="&#x16b;" horiz-adv-x="901" d="M36 913 L36 948 Q166 964 289 1003 L289 309 Q289 188 318 137 Q353 75 431 75 Q594 75 594 336 L594 793 Q594 871 574.5 892 Q555 913 485 913 L485 948 Q615 963 738 1003 L738 183 Q738 104 754 87.5 Q770 71 851 69 L851 33 Q718 17 624 -21 Q611 67 611 131 Q611 142 611 154 Q571 64 518.5 23.5 Q466 -17 388 -17 Q250 -17 186 97 Q145 169 145 312 L145 793 Q145 871 125.5 892 Q106 913 36 913 Z M183 1191 L183 1274 L683 1274 L683 1191 L183 1191 Z " />
<glyph glyph-name="Ubreve" unicode="&#x16c;" horiz-adv-x="1109" d="M732 1321 L732 1371 Q843 1361 898 1361 Q954 1361 1056 1371 L1056 1321 Q969 1313 946.5 1290 Q924 1267 924 1185 L924 417 Q924 245 868 145 Q774 -23 558 -23 Q402 -23 302 68 Q237 126 209.5 205 Q182 284 182 409 L182 1185 Q182 1267 160.5 1289.5 Q139 1312 54 1321 L54 1371 Q178 1356 259 1356 Q339 1356 463 1371 L463 1321 Q379 1313 357 1289.5 Q335 1266 335 1185 L335 393 Q335 243 369 182 Q433 68 589 68 Q717 68 793 149 Q864 225 864 406 L864 1185 Q864 1267 841.5 1289.5 Q819 1312 732 1321 Z M719 1760 L775 1760 Q766 1649 724 1578 Q700 1535 653.5 1509 Q607 1483 555 1483 Q460 1483 402.5 1555 Q345 1627 335 1760 L391 1760 Q437 1609 555 1609 Q674 1609 719 1760 Z " />
<glyph glyph-name="ubreve" unicode="&#x16d;" horiz-adv-x="901" d="M36 913 L36 948 Q166 964 289 1003 L289 309 Q289 188 318 137 Q353 75 431 75 Q594 75 594 336 L594 793 Q594 871 574.5 892 Q555 913 485 913 L485 948 Q615 963 738 1003 L738 183 Q738 104 754 87.5 Q770 71 851 69 L851 33 Q718 17 624 -21 Q611 67 611 131 Q611 142 611 154 Q571 64 518.5 23.5 Q466 -17 388 -17 Q250 -17 186 97 Q145 169 145 312 L145 793 Q145 871 125.5 892 Q106 913 36 913 Z M607 1427 L663 1427 Q657 1309 611 1230 Q555 1133 443 1133 Q347 1133 288.5 1211 Q230 1289 223 1427 L279 1427 Q324 1259 443 1259 Q562 1259 607 1427 Z " />
<glyph glyph-name="Uring" unicode="&#x16e;" horiz-adv-x="1109" d="M732 1321 L732 1371 Q843 1361 898 1361 Q954 1361 1056 1371 L1056 1321 Q969 1313 946.5 1290 Q924 1267 924 1185 L924 417 Q924 245 868 145 Q774 -23 558 -23 Q402 -23 302 68 Q237 126 209.5 205 Q182 284 182 409 L182 1185 Q182 1267 160.5 1289.5 Q139 1312 54 1321 L54 1371 Q178 1356 259 1356 Q339 1356 463 1371 L463 1321 Q379 1313 357 1289.5 Q335 1266 335 1185 L335 393 Q335 243 369 182 Q433 68 589 68 Q717 68 793 149 Q864 225 864 406 L864 1185 Q864 1267 841.5 1289.5 Q819 1312 732 1321 Z M593 1788 Q655 1788 700.5 1742 Q746 1696 746 1632 Q746 1563 695 1516 Q650 1476 590 1476 Q525 1476 479.5 1522 Q434 1568 434 1633 Q434 1698 480 1743 Q526 1788 593 1788 Z M591 1720 Q554 1720 528 1694.5 Q502 1669 502 1633 Q502 1596 527.5 1570 Q553 1544 590 1544 Q627 1544 652.5 1570 Q678 1596 678 1632 Q678 1668 652.5 1694 Q627 1720 591 1720 Z " />
<glyph glyph-name="uring" unicode="&#x16f;" horiz-adv-x="901" d="M36 913 L36 948 Q166 964 289 1003 L289 309 Q289 188 318 137 Q353 75 431 75 Q594 75 594 336 L594 793 Q594 871 574.5 892 Q555 913 485 913 L485 948 Q615 963 738 1003 L738 183 Q738 104 754 87.5 Q770 71 851 69 L851 33 Q718 17 624 -21 Q611 67 611 131 Q611 142 611 154 Q571 64 518.5 23.5 Q466 -17 388 -17 Q250 -17 186 97 Q145 169 145 312 L145 793 Q145 871 125.5 892 Q106 913 36 913 Z M445 1446 Q508 1446 553 1400 Q598 1354 598 1291 Q598 1222 547 1175 Q502 1135 442 1135 Q378 1135 332.5 1181 Q287 1227 287 1292 Q287 1356 333 1401 Q379 1446 445 1446 Z M444 1378 Q407 1378 381 1353 Q355 1328 355 1291 Q355 1254 380.5 1228.5 Q406 1203 442 1203 Q479 1203 504.5 1228.5 Q530 1254 530 1291 Q530 1326 504.5 1352 Q479 1378 444 1378 Z " />
<glyph glyph-name="Uhungarumlaut" unicode="&#x170;" horiz-adv-x="1109" d="M732 1321 L732 1371 Q843 1361 898 1361 Q954 1361 1056 1371 L1056 1321 Q969 1313 946.5 1290 Q924 1267 924 1185 L924 417 Q924 245 868 145 Q774 -23 558 -23 Q402 -23 302 68 Q237 126 209.5 205 Q182 284 182 409 L182 1185 Q182 1267 160.5 1289.5 Q139 1312 54 1321 L54 1371 Q178 1356 259 1356 Q339 1356 463 1371 L463 1321 Q379 1313 357 1289.5 Q335 1266 335 1185 L335 393 Q335 243 369 182 Q433 68 589 68 Q717 68 793 149 Q864 225 864 406 L864 1185 Q864 1267 841.5 1289.5 Q819 1312 732 1321 Z M648 1483 L826 1764 L983 1764 L723 1483 L648 1483 Z M391 1483 L568 1764 L725 1764 L466 1483 L391 1483 Z " />
<glyph glyph-name="uhungarumlaut" unicode="&#x171;" horiz-adv-x="901" d="M36 913 L36 948 Q166 964 289 1003 L289 309 Q289 188 318 137 Q353 75 431 75 Q594 75 594 336 L594 793 Q594 871 574.5 892 Q555 913 485 913 L485 948 Q615 963 738 1003 L738 183 Q738 104 754 87.5 Q770 71 851 69 L851 33 Q718 17 624 -21 Q611 67 611 131 Q611 142 611 154 Q571 64 518.5 23.5 Q466 -17 388 -17 Q250 -17 186 97 Q145 169 145 312 L145 793 Q145 871 125.5 892 Q106 913 36 913 Z M276 1128 L415 1430 L557 1430 L342 1128 L276 1128 Z M501 1128 L642 1430 L784 1430 L567 1128 L501 1128 Z " />
<glyph glyph-name="Uogonek" unicode="&#x172;" horiz-adv-x="1109" d="M1056 1321 Q970 1314 947 1290 Q924 1266 924 1185 L924 417 Q924 297 902.5 227 Q881 157 820 77 Q695 -85 695 -166 Q695 -207 721 -234.5 Q747 -262 786 -262 Q819 -262 868 -244 L868 -310 Q794 -342 732 -342 Q664 -342 618 -296.5 Q572 -251 572 -184 Q572 -78 689 -3 Q626 -23 563 -23 Q333 -23 234 153 Q182 246 182 409 L182 1185 Q182 1266 159.5 1290 Q137 1314 54 1321 L54 1371 Q178 1356 259 1356 Q339 1356 463 1371 L463 1321 Q380 1314 357.5 1290 Q335 1266 335 1185 L335 393 Q335 243 369 182 Q433 68 589 68 Q717 68 793 149 Q864 225 864 406 L864 1185 Q864 1266 841 1290 Q818 1314 732 1321 L732 1371 Q843 1361 898 1361 Q954 1361 1056 1371 L1056 1321 Z " />
<glyph glyph-name="uogonek" unicode="&#x173;" horiz-adv-x="901" d="M851 -235 L851 -299 Q798 -324 750 -324 Q687 -324 644.5 -280 Q602 -236 602 -170 Q602 -44 776 22 Q694 7 624 -21 Q611 67 611 128 Q611 136 611 154 Q571 64 518.5 23.5 Q466 -17 388 -17 Q250 -17 186 97 Q145 169 145 312 L145 793 Q145 870 125.5 891.5 Q106 913 36 913 L36 948 Q166 964 289 1003 L289 309 Q289 188 318 137 Q353 75 431 75 Q594 75 594 336 L594 793 Q594 871 574.5 892 Q555 913 485 913 L485 948 Q615 963 738 1003 L738 183 Q738 104 754 87.5 Q770 71 851 69 L851 33 Q779 -17 749.5 -60 Q720 -103 720 -156 Q720 -195 743 -221 Q766 -247 800 -247 Q823 -247 851 -235 Z " />
<glyph glyph-name="Wcircumflex" unicode="&#x174;" horiz-adv-x="1457" d="M490 1485 L722 1762 L815 1762 L1047 1485 L966 1485 L769 1656 L571 1485 L490 1485 Z M472 -25 L439 -25 L173 1201 Q159 1267 132.5 1291.5 Q106 1316 40 1321 L40 1371 Q140 1356 234 1356 Q328 1356 427 1371 L427 1321 Q366 1315 342.5 1301.5 Q319 1288 319 1260 Q319 1238 327 1199 L506 360 L755 1396 L792 1396 L1038 359 L1221 1194 Q1231 1241 1231 1265 Q1231 1314 1128 1321 L1128 1371 Q1205 1360 1274 1360 Q1343 1360 1420 1371 L1420 1321 Q1354 1316 1327.5 1294.5 Q1301 1273 1288 1214 L1009 -23 L976 -23 L726 1035 L472 -25 Z " />
<glyph glyph-name="wcircumflex" unicode="&#x175;" horiz-adv-x="1180" d="M590 711 L394 -25 L347 -25 L144 799 L136 828 Q121 891 101 909 Q81 927 22 932 L22 973 Q118 963 193 963 Q268 963 365 973 L365 932 Q271 933 271 887 Q271 876 281 835 L415 272 L607 992 L659 992 L850 269 L988 833 Q997 872 997 888 Q997 933 907 932 L907 973 Q985 965 1043 965 Q1100 965 1165 973 L1165 932 Q1109 928 1084 907.5 Q1059 887 1046 834 L833 -25 L786 -25 L590 711 Z M371 1130 L586 1429 L665 1429 L880 1130 L802 1130 L625 1307 L449 1130 L371 1130 Z " />
<glyph glyph-name="Ycircumflex" unicode="&#x176;" horiz-adv-x="990" d="M257 1485 L490 1762 L582 1762 L814 1485 L733 1485 L536 1656 L339 1485 L257 1485 Z M421 595 L182 1209 Q158 1271 128.5 1292.5 Q99 1314 32 1321 L32 1371 Q142 1357 239 1357 Q335 1357 445 1371 L445 1321 Q332 1313 332 1269 Q332 1243 348 1203 L549 688 L748 1206 Q764 1247 764 1271 Q764 1294 740 1305 Q716 1316 653 1321 L653 1371 Q744 1361 808 1361 Q872 1361 963 1371 L963 1321 Q893 1311 865 1290 Q837 1269 814 1211 L574 595 L574 180 Q574 98 595 76 Q616 54 702 44 L702 -6 Q572 9 497 9 Q423 9 293 -6 L293 44 Q379 53 400 75.5 Q421 98 421 180 L421 595 Z " />
<glyph glyph-name="ycircumflex" unicode="&#x177;" horiz-adv-x="838" d="M192 1130 L407 1429 L486 1429 L701 1130 L623 1130 L447 1307 L270 1130 L192 1130 Z M391 33 L149 837 Q132 892 109.5 910 Q87 928 25 932 L25 973 Q118 963 199 963 Q279 963 373 973 L373 932 Q287 925 287 891 Q287 875 299 834 L463 264 L634 825 Q647 866 648 887 Q650 929 554 932 L554 973 Q616 965 677 965 Q743 965 821 973 L821 932 Q765 924 739 903 Q713 882 697 831 L388 -169 Q350 -291 293.5 -345.5 Q237 -400 149 -400 Q142 -400 127 -399 L127 -296 Q214 -296 260.5 -257.5 Q307 -219 340 -120 L391 33 Z " />
<glyph glyph-name="Ydieresis" unicode="&#x178;" horiz-adv-x="990" d="M402 1725 Q442 1725 471 1695.5 Q500 1666 500 1626 Q500 1584 471 1555 Q442 1526 401 1526 Q359 1526 330 1555.5 Q301 1585 301 1626 Q301 1667 330.5 1696 Q360 1725 402 1725 Z M696 1725 Q736 1725 765 1695.5 Q794 1666 794 1626 Q794 1584 765 1555 Q736 1526 694 1526 Q653 1526 624 1555 Q595 1584 595 1626 Q595 1667 624.5 1696 Q654 1725 696 1725 Z M421 595 L182 1209 Q158 1271 128.5 1292.5 Q99 1314 32 1321 L32 1371 Q142 1357 239 1357 Q335 1357 445 1371 L445 1321 Q332 1313 332 1269 Q332 1243 348 1203 L549 688 L748 1206 Q764 1247 764 1271 Q764 1294 740 1305 Q716 1316 653 1321 L653 1371 Q744 1361 808 1361 Q872 1361 963 1371 L963 1321 Q893 1311 865 1290 Q837 1269 814 1211 L574 595 L574 180 Q574 98 595 76 Q616 54 702 44 L702 -6 Q572 9 497 9 Q423 9 293 -6 L293 44 Q379 53 400 75.5 Q421 98 421 180 L421 595 Z " />
<glyph glyph-name="Zacute" unicode="&#x179;" horiz-adv-x="902" d="M441 1483 L647 1764 L842 1764 L519 1483 L441 1483 Z M61 0 L642 1302 L387 1302 Q324 1302 288 1283 Q252 1264 224 1216 Q194 1164 172 1063 L126 1063 L170 1365 L836 1365 L256 63 L548 63 Q611 63 641 73 Q671 83 694 112 Q750 180 794 333 L840 333 L791 0 L61 0 Z " />
<glyph glyph-name="zacute" unicode="&#x17a;" horiz-adv-x="753" d="M352 1129 L513 1430 L690 1430 L421 1129 L352 1129 Z M66 0 L502 914 L330 914 Q252 914 217 872 Q180 828 143 701 L104 701 L141 967 L685 967 L247 53 L430 53 Q491 53 520 70.5 Q549 88 577 143 Q602 189 632 295 L672 295 L629 0 L66 0 Z " />
<glyph glyph-name="Zdotaccent" unicode="&#x17b;" horiz-adv-x="902" d="M500 1725 Q540 1725 569 1695.5 Q598 1666 598 1626 Q598 1584 569 1555 Q540 1526 498 1526 Q457 1526 428 1555 Q399 1584 399 1626 Q399 1667 428.5 1696 Q458 1725 500 1725 Z M61 0 L642 1302 L387 1302 Q324 1302 288 1283 Q252 1264 224 1216 Q194 1164 172 1063 L126 1063 L170 1365 L836 1365 L256 63 L548 63 Q611 63 641 73 Q671 83 694 112 Q750 180 794 333 L840 333 L791 0 L61 0 Z " />
<glyph glyph-name="zdotaccent" unicode="&#x17c;" horiz-adv-x="753" d="M413 1363 Q450 1363 477 1335.5 Q504 1308 504 1270 Q504 1231 477 1204 Q450 1177 411 1177 Q372 1177 345 1204.5 Q318 1232 318 1271 Q318 1309 345.5 1336 Q373 1363 413 1363 Z M66 0 L502 914 L330 914 Q252 914 217 872 Q180 828 143 701 L104 701 L141 967 L685 967 L247 53 L430 53 Q491 53 520 70.5 Q549 88 577 143 Q602 189 632 295 L672 295 L629 0 L66 0 Z " />
<glyph glyph-name="Zcaron" unicode="&#x17d;" horiz-adv-x="902" d="M777 1759 L545 1482 L452 1482 L220 1759 L301 1759 L499 1588 L696 1759 L777 1759 Z M61 0 L642 1302 L387 1302 Q324 1302 288 1283 Q252 1264 224 1216 Q194 1164 172 1063 L126 1063 L170 1365 L836 1365 L256 63 L548 63 Q611 63 641 73 Q671 83 694 112 Q750 180 794 333 L840 333 L791 0 L61 0 Z " />
<glyph glyph-name="zcaron" unicode="&#x17e;" horiz-adv-x="753" d="M656 1426 L440 1127 L362 1127 L146 1426 L224 1426 L401 1249 L578 1426 L656 1426 Z M66 0 L502 914 L330 914 Q252 914 217 872 Q180 828 143 701 L104 701 L141 967 L685 967 L247 53 L430 53 Q491 53 520 70.5 Q549 88 577 143 Q602 189 632 295 L672 295 L629 0 L66 0 Z " />
<glyph glyph-name="longs" unicode="&#x17f;" horiz-adv-x="505" d="M422 35 L422 -6 Q309 6 239 6 Q169 6 56 -6 L56 35 Q126 39 146.5 59 Q167 79 167 145 L167 1084 Q167 1217 213 1292 Q240 1337 295 1365.5 Q350 1394 407 1394 Q486 1394 531 1344 Q569 1301 569 1241 Q569 1164 503 1164 Q475 1164 457 1180 Q439 1196 439 1221 Q439 1231 441 1246 Q448 1282 448 1293 Q448 1314 434.5 1328.5 Q421 1343 401 1343 Q360 1343 336 1300 Q311 1256 311 1129 L311 145 Q311 79 331 59 Q351 39 422 35 Z " />
<glyph glyph-name="uni018F" unicode="&#x18f;" horiz-adv-x="1049" d="M90 714 L797 714 Q794 928 746 1071 Q664 1316 479 1316 Q399 1316 331 1265 Q263 1214 229 1129 Q195 1043 180 924 L108 924 Q116 1034 153 1133 Q252 1391 498 1391 Q647 1391 755 1299 Q864 1205 918 1013 Q960 864 960 678 Q960 379 846 182 Q790 86 699 28 Q616 -26 512 -26 Q355 -26 246 95 Q172 177 130.5 325 Q89 473 89 656 Q89 675 90 714 Z M248 651 Q250 499 259 419.5 Q268 340 294 251 Q357 31 507 31 Q639 31 713 189.5 Q787 348 796 651 L248 651 Z " />
<glyph glyph-name="florin" unicode="&#x192;" horiz-adv-x="887" d="M717 966 L715 897 L546 897 L453 235 Q430 75 403.5 -18 Q377 -111 337 -168 Q271 -261 161 -261 Q80 -261 35 -210 Q-5 -166 -5 -102 Q-5 -59 15 -33.5 Q35 -8 69 -8 Q96 -8 113.5 -24 Q131 -40 131 -65 Q131 -80 120 -119 Q115 -140 115 -154 Q115 -172 129 -185 Q143 -198 161 -198 Q210 -198 236.5 -138 Q263 -78 286 85 L401 897 L286 897 L288 956 L313 956 Q377 956 397.5 977.5 Q418 999 429 1083 Q450 1226 483 1298 Q553 1449 704 1449 Q789 1449 831 1401 Q868 1359 868 1295 Q868 1205 798 1205 Q769 1205 750 1222 Q731 1239 731 1266 Q731 1283 738 1305 Q747 1333 747 1350 Q747 1364 734 1375 Q721 1386 704 1386 Q658 1386 630.5 1338.5 Q603 1291 588 1187 L556 966 L717 966 Z " />
<glyph glyph-name="Ohorn" unicode="&#x1a0;" horiz-adv-x="1056" d="M935 978 Q938 963 940 955 Q968 841 968 703 Q968 401 855 175 Q805 77 701 17 Q625 -26 532 -26 Q369 -26 252 104 Q173 192 127 371 Q89 517 89 679 Q89 987 200 1186 Q259 1290 357 1346 Q434 1391 529 1391 Q649 1391 743 1318 Q837 1245 894 1109 L917 1057 L918 1050 Q968 1120 983 1154 Q998 1188 1002 1239 L996 1240 Q988 1237 983 1237 Q905 1237 905 1334 Q905 1379 929 1406 Q953 1433 992 1433 Q1083 1433 1083 1301 Q1083 1192 995 1053 Q961 999 935 978 Z M530 1334 Q419 1334 346 1206 Q317 1156 304 1109 Q252 922 252 691 Q252 518 277.5 377.5 Q303 237 349 156 Q420 31 533 31 Q642 31 710 151 Q739 204 753 255 Q805 448 805 679 Q805 853 780 995 Q755 1137 710 1212 Q638 1334 530 1334 Z " />
<glyph glyph-name="ohorn" unicode="&#x1a1;" horiz-adv-x="789" d="M688 692 Q749 775 756 861 L749 862 Q742 860 736 860 Q700 860 679 885.5 Q658 911 658 953 Q658 998 682 1025.5 Q706 1053 746 1053 Q788 1053 812.5 1019.5 Q837 986 837 928 Q837 807 742 669 Q730 651 704 613 Q713 548 713 484 Q713 275 628 128 Q587 56 525.5 17 Q464 -22 393 -22 Q298 -22 221 49 Q151 113 113 227 Q75 341 75 483 Q75 692 157 835 Q248 992 401 992 Q505 992 578.5 915 Q652 838 688 692 Z M397 939 Q331 939 288 862 Q226 750 226 479 Q226 31 393 31 Q459 31 501 106 Q562 215 562 480 Q562 939 397 939 Z " />
<glyph glyph-name="Uhorn" unicode="&#x1af;" horiz-adv-x="1109" d="M732 1321 L732 1371 Q843 1361 898 1361 Q954 1361 1056 1371 L1056 1321 Q969 1313 946.5 1290 Q924 1267 924 1185 L924 417 Q924 245 868 145 Q774 -23 558 -23 Q402 -23 302 68 Q237 126 209.5 205 Q182 284 182 409 L182 1185 Q182 1267 160 1290 Q138 1313 54 1321 L54 1371 Q178 1356 259 1356 Q339 1356 463 1371 L463 1321 Q379 1313 357 1290 Q335 1267 335 1185 L335 393 Q335 243 369 182 Q433 68 589 68 Q717 68 793 149 Q864 225 864 406 L864 1185 Q864 1267 841.5 1290 Q819 1313 732 1321 Z M1201 1044 L1124 1044 Q1215 1145 1224 1250 L1217 1252 Q1210 1249 1203 1249 Q1168 1249 1147 1274.5 Q1126 1300 1126 1344 Q1126 1390 1150 1417.5 Q1174 1445 1213 1445 Q1304 1445 1304 1318 Q1304 1185 1201 1044 Z " />
<glyph glyph-name="uhorn" unicode="&#x1b0;" horiz-adv-x="901" d="M36 913 L36 948 Q166 964 289 1003 L289 309 Q289 188 318 137 Q353 75 431 75 Q594 75 594 336 L594 793 Q594 871 574.5 892 Q555 913 485 913 L485 948 Q615 963 738 1003 L738 183 Q738 104 754 87.5 Q770 71 851 69 L851 33 Q718 17 624 -21 Q611 72 611 124 Q611 133 611 154 Q571 63 518.5 23 Q466 -17 388 -17 Q250 -17 186 97 Q145 169 145 312 L145 793 Q145 871 125.5 892 Q106 913 36 913 Z M865 676 L788 676 Q879 777 887 882 L881 883 Q873 881 866 881 Q790 885 790 974 Q790 1019 814 1046.5 Q838 1074 877 1074 Q920 1074 944 1040.5 Q968 1007 968 949 Q968 828 887 710 Q872 688 865 676 Z " />
<glyph glyph-name="uni01CD" unicode="&#x1cd;" horiz-adv-x="1074" d="M310 397 L252 203 Q231 130 231 102 Q231 51 339 44 L339 -6 Q245 5 183 5 Q121 5 27 -6 L27 44 Q102 51 128 75 Q154 99 181 187 L558 1411 L899 165 Q918 94 944 73 Q970 52 1047 44 L1047 -6 Q935 9 848 9 Q761 9 648 -6 L648 44 Q746 54 746 103 Q746 131 735 174 L679 397 L310 397 Z M329 460 L664 460 L511 1064 L329 460 Z M836 1759 L604 1482 L512 1482 L279 1759 L361 1759 L558 1588 L755 1759 L836 1759 Z " />
<glyph glyph-name="uni01CE" unicode="&#x1ce;" horiz-adv-x="785" d="M739 54 L739 0 Q681 -14 641 -14 Q527 -14 513 154 Q446 -18 299 -18 Q199 -18 137 53 Q73 126 73 243 Q73 402 195 488 Q317 575 492 603 L492 748 Q492 842 462 886.5 Q432 931 369 931 Q314 931 279.5 900 Q245 869 245 819 Q245 807 246 793 Q247 773 247 758 Q247 672 175 672 Q115 672 115 742 Q115 843 198 917 Q276 986 384 986 Q455 986 512.5 953.5 Q570 921 601 864 Q636 799 636 658 L636 230 Q636 128 649.5 87.5 Q663 47 698 47 Q713 47 739 54 Z M492 550 Q402 529 345 496 Q220 423 220 257 Q220 170 253.5 120 Q287 70 345 70 Q492 70 492 372 L492 550 Z M642 1426 L426 1127 L347 1127 L132 1426 L210 1426 L387 1249 L564 1426 L642 1426 Z " />
<glyph glyph-name="uni01D2" unicode="&#x1d2;" horiz-adv-x="789" d="M402 992 Q512 992 592 901 Q646 839 679.5 724 Q713 609 713 487 Q713 274 628 128 Q541 -22 393 -22 Q298 -22 221 49 Q151 113 113 226.5 Q75 340 75 483 Q75 696 157 835 Q250 992 402 992 Z M397 939 Q331 939 288 862 Q226 750 226 479 Q226 31 393 31 Q459 31 501 106 Q562 215 562 480 Q562 939 397 939 Z M649 1426 L434 1127 L355 1127 L139 1426 L217 1426 L394 1249 L571 1426 L649 1426 Z " />
<glyph glyph-name="uni01D3" unicode="&#x1d3;" horiz-adv-x="1109" d="M732 1321 L732 1371 Q843 1361 898 1361 Q954 1361 1056 1371 L1056 1321 Q969 1313 946.5 1290 Q924 1267 924 1185 L924 417 Q924 245 868 145 Q774 -23 558 -23 Q402 -23 302 68 Q237 126 209.5 205 Q182 284 182 409 L182 1185 Q182 1267 160.5 1289.5 Q139 1312 54 1321 L54 1371 Q178 1356 259 1356 Q339 1356 463 1371 L463 1321 Q379 1313 357 1289.5 Q335 1266 335 1185 L335 393 Q335 243 369 182 Q433 68 589 68 Q717 68 793 149 Q864 225 864 406 L864 1185 Q864 1267 841.5 1289.5 Q819 1312 732 1321 Z M866 1759 L633 1482 L541 1482 L308 1759 L390 1759 L587 1588 L784 1759 L866 1759 Z " />
<glyph glyph-name="uni01D4" unicode="&#x1d4;" horiz-adv-x="901" d="M701 1426 L486 1127 L407 1127 L192 1426 L270 1426 L446 1249 L623 1426 L701 1426 Z M36 913 L36 948 Q166 964 289 1003 L289 309 Q289 188 318 137 Q353 75 431 75 Q594 75 594 336 L594 793 Q594 871 574.5 892 Q555 913 485 913 L485 948 Q615 963 738 1003 L738 183 Q738 104 754 87.5 Q770 71 851 69 L851 33 Q718 17 624 -21 Q611 67 611 131 Q611 142 611 154 Q571 64 518.5 23.5 Q466 -17 388 -17 Q250 -17 186 97 Q145 169 145 312 L145 793 Q145 871 125.5 892 Q106 913 36 913 Z " />
<glyph glyph-name="uni01DD" unicode="&#x1dd;" horiz-adv-x="771" d="M140 653 L75 653 Q88 783 149 876 Q223 987 364 987 Q529 987 615 837 Q696 696 696 483 Q696 273 616 132 Q574 59 511.5 19.5 Q449 -20 376 -20 Q237 -20 159.5 104.5 Q82 229 76 461 L548 461 Q545 598 536 667.5 Q527 737 504 797 Q457 919 345 919 Q261 919 207.5 849.5 Q154 780 140 653 Z M220 393 Q229 33 378 33 Q450 33 493 125.5 Q536 218 544 393 L220 393 Z " />
<glyph glyph-name="Gcaron" unicode="&#x1e6;" horiz-adv-x="1043" d="M815 1759 L583 1482 L490 1482 L258 1759 L339 1759 L536 1588 L734 1759 L815 1759 Z M791 1273 L851 1389 L884 1389 L884 984 L838 984 Q803 1142 741 1231 Q676 1324 556 1324 Q251 1324 251 671 Q251 510 275.5 377 Q300 244 343 168 Q417 36 551 36 Q647 36 754 106 L754 460 Q754 518 732 536.5 Q710 555 634 562 L634 612 Q742 600 823 600 Q903 600 1012 612 L1012 562 Q938 554 920.5 537 Q903 520 903 456 L903 118 Q706 -23 545 -23 Q320 -23 203 180 Q88 379 88 685 Q88 988 201 1184 Q260 1287 356 1343 Q437 1390 536 1390 Q686 1390 791 1273 Z " />
<glyph glyph-name="gcaron" unicode="&#x1e7;" horiz-adv-x="827" d="M576 932 L794 932 L794 857 L631 870 Q677 778 677 685 Q677 557 617.5 481 Q558 405 425 362 Q304 324 272 304 Q240 284 240 249 Q240 225 255 209 Q277 185 385 181 Q436 180 505 167.5 Q574 155 607 142 Q676 115 713 60 Q758 -6 758 -94 Q758 -231 661 -319 Q566 -406 402 -406 Q317 -406 243 -378.5 Q169 -351 127 -304 Q59 -230 59 -122 Q59 28 217 97 Q134 142 134 216 Q134 329 314 382 Q247 406 203 450 Q119 535 119 672 Q119 842 215 922 Q291 985 407 985 Q503 985 576 932 Z M401 933 Q348 933 311 892 Q287 866 271 807.5 Q255 749 255 689 Q255 547 303 474 Q337 422 398 422 Q466 422 501 487 Q540 559 540 687 Q540 805 504 869 Q468 933 401 933 Z M384 36 Q276 36 211 -1 Q131 -47 131 -139 Q131 -221 194 -275 Q271 -342 396 -342 Q537 -342 603 -269 Q650 -218 650 -144 Q650 -66 599 -22 Q568 4 508.5 20 Q449 36 384 36 Z M662 1426 L447 1127 L368 1127 L153 1426 L231 1426 L407 1249 L584 1426 L662 1426 Z " />
<glyph glyph-name="uni01F4" unicode="&#x1f4;" horiz-adv-x="1061" d="M497 1483 L703 1764 L901 1764 L579 1483 L497 1483 Z M791 1273 L851 1389 L884 1389 L884 984 L838 984 Q803 1142 741 1231 Q676 1324 556 1324 Q251 1324 251 671 Q251 510 275.5 377 Q300 244 343 168 Q417 36 551 36 Q647 36 754 106 L754 460 Q754 518 732 536.5 Q710 555 634 562 L634 612 Q742 600 823 600 Q903 600 1012 612 L1012 562 Q938 554 920.5 537 Q903 520 903 456 L903 118 Q706 -23 545 -23 Q320 -23 203 180 Q88 379 88 685 Q88 988 201 1184 Q260 1287 356 1343 Q437 1390 536 1390 Q686 1390 791 1273 Z " />
<glyph glyph-name="Aringacute" unicode="&#x1fa;" horiz-adv-x="1074" d="M310 397 L252 203 Q231 130 231 102 Q231 51 339 44 L339 -6 Q245 5 183 5 Q121 5 27 -6 L27 44 Q102 51 128 75 Q154 99 181 187 L558 1411 L899 165 Q918 94 944 73 Q970 52 1047 44 L1047 -6 Q935 9 848 9 Q761 9 648 -6 L648 44 Q746 54 746 103 Q746 131 735 174 L679 397 L310 397 Z M329 460 L664 460 L511 1064 L329 460 Z M560 1746 Q623 1746 668 1700 Q713 1654 713 1590 Q713 1521 662 1474 Q617 1434 557 1434 Q493 1434 447.5 1480 Q402 1526 402 1591 Q402 1656 448 1701 Q494 1746 560 1746 Z M559 1678 Q522 1678 496 1652.5 Q470 1627 470 1591 Q470 1554 495.5 1528 Q521 1502 557 1502 Q594 1502 619.5 1528 Q645 1554 645 1590 Q645 1626 619.5 1652 Q594 1678 559 1678 Z M349 1716 L555 1996 L750 1996 L427 1716 L349 1716 Z " />
<glyph glyph-name="AEacute" unicode="&#x1fc;" horiz-adv-x="1502" d="M1367 1365 L1396 1057 L1350 1057 Q1322 1202 1284 1252 Q1246 1302 1166 1302 L935 1302 L935 741 L1158 741 Q1196 741 1212.5 753 Q1229 765 1239 800 Q1250 838 1253 910 L1299 910 L1299 508 L1253 508 Q1250 607 1228.5 642.5 Q1207 678 1150 678 L935 678 L935 184 Q935 111 956.5 87 Q978 63 1043 63 L1155 63 Q1220 63 1254 83 Q1288 103 1314 157 Q1345 219 1367 330 L1413 330 L1376 0 L647 0 L647 50 Q735 58 758.5 81.5 Q782 105 782 186 L782 462 L400 462 L262 157 Q243 116 243 92 Q243 68 268 57.5 Q293 47 356 44 L356 -6 Q243 4 194 4 Q145 4 27 -6 L27 44 Q75 48 103 59 Q156 78 208 192 L747 1365 L1367 1365 Z M782 525 L782 1296 L429 525 L782 525 Z M816 1483 L1022 1764 L1216 1764 L894 1483 L816 1483 Z " />
<glyph glyph-name="aeacute" unicode="&#x1fd;" horiz-adv-x="1198" d="M546 202 Q518 112 480 64 Q415 -19 301 -19 Q200 -19 137 52 Q73 125 73 239 Q73 524 502 572 L502 748 Q502 862 457 901 Q421 931 369 931 Q315 931 279 900.5 Q243 870 243 825 Q243 812 244 797 Q246 775 246 757 Q246 672 174 672 Q115 672 115 742 Q115 843 198 917 Q275 986 382 986 Q529 986 598 865 Q687 986 822 986 Q961 986 1038 862 Q1115 738 1121 505 L651 505 Q654 291 684 200 Q733 49 851 49 Q936 49 989.5 118 Q1043 187 1058 315 L1123 315 Q1111 186 1049 94 Q975 -19 830 -19 Q632 -19 546 202 Z M977 573 Q974 763 930 849 Q888 933 819 933 Q748 933 707.5 844.5 Q667 756 654 573 L977 573 Z M502 509 Q381 490 307 442 Q219 385 219 249 Q219 168 253 120 Q287 72 346 72 Q427 72 464.5 144 Q502 216 502 372 L502 509 Z M541 1129 L701 1430 L879 1430 L610 1129 L541 1129 Z " />
<glyph glyph-name="Oslashacute" unicode="&#x1fe;" horiz-adv-x="1056" d="M185 212 Q89 420 89 685 Q89 986 200 1186 Q258 1289 357 1346 Q434 1391 529 1391 Q623 1391 703.5 1345 Q784 1299 839 1213 L938 1365 L1013 1365 L874 1152 Q968 959 968 678 Q968 394 855 175 Q804 77 701 17 Q626 -26 533 -26 Q384 -26 274 80 Q245 108 218 149 L121 0 L46 0 L185 212 Z M281 360 L759 1090 Q731 1202 669.5 1268 Q608 1334 531 1334 Q418 1334 346 1206 Q252 1039 252 699 Q252 528 281 360 Z M778 1006 L301 275 Q331 161 392.5 96 Q454 31 533 31 Q642 31 710 151 Q805 320 805 692 Q805 860 778 1006 Z M411 1483 L617 1764 L811 1764 L489 1483 L411 1483 Z " />
<glyph glyph-name="oslashacute" unicode="&#x1ff;" horiz-adv-x="788" d="M640 824 Q713 669 713 482 Q713 275 628 128 Q587 57 525.5 17.5 Q464 -22 393 -22 Q264 -22 177 99 L110 -6 L43 -6 L145 153 Q75 285 75 483 Q75 692 157 835 Q248 992 401 992 Q528 992 609 880 L669 973 L736 973 L640 824 Z M551 683 L249 212 Q266 124 303.5 77.5 Q341 31 393 31 Q459 31 501 106 Q562 216 562 483 Q562 586 551 683 Z M236 297 L537 767 Q520 850 483.5 894.5 Q447 939 397 939 Q331 939 288 862 Q226 751 226 489 Q226 392 236 297 Z M311 1129 L472 1430 L649 1430 L380 1129 L311 1129 Z " />
<glyph glyph-name="Scommaaccent" unicode="&#x218;" horiz-adv-x="871" d="M432 -493 L355 -493 Q439 -401 454 -301 L447 -300 Q440 -302 433 -302 Q398 -302 377 -277 Q356 -252 356 -210 Q356 -167 380 -140 Q404 -113 444 -113 Q486 -113 510.5 -145 Q535 -177 535 -231 Q535 -354 432 -493 Z M106 413 L152 413 Q200 46 433 46 Q529 46 588 116 Q654 193 654 311 Q654 414 608 478 Q562 542 429 625 Q318 694 255 745 Q185 802 154 870 Q123 938 123 1034 Q123 1118 152 1191 Q181 1264 232 1309 Q317 1384 437 1384 Q568 1384 651 1279 L697 1392 L728 1392 L728 1015 L682 1015 Q657 1159 603 1242 Q550 1322 450 1322 Q364 1322 310 1258 Q249 1186 249 1081 Q249 987 292.5 933.5 Q336 880 501 773 Q609 703 663 654 Q781 547 781 364 Q781 194 687 87 Q595 -18 451 -18 Q307 -18 193 97 L137 -31 L106 -31 L106 413 Z " />
<glyph glyph-name="scommaaccent" unicode="&#x219;" horiz-adv-x="718" d="M343 -493 L266 -493 Q349 -402 365 -301 L358 -300 Q351 -302 344 -302 Q309 -302 288.5 -277 Q268 -252 268 -211 Q268 -167 292 -140 Q316 -113 355 -113 Q397 -113 421.5 -145 Q446 -177 446 -231 Q446 -356 343 -493 Z M97 -24 L97 318 L141 318 Q175 44 342 44 Q411 44 457 96 Q504 148 504 223 Q504 280 484 310 Q452 361 356 415 Q208 499 164 548 Q108 610 108 717 Q108 850 190 923 Q260 985 358 985 Q450 985 520 921 L544 1004 L578 1004 L578 686 L534 686 Q515 927 371 927 Q307 927 265 880 Q224 833 224 764 Q224 702 253 665 Q282 628 370 579 Q489 513 538 471 Q626 398 626 275 Q626 130 534 47 Q463 -18 359 -18 Q250 -18 165 67 L131 -24 L97 -24 Z " />
<glyph glyph-name="uni021A" unicode="&#x21a;" horiz-adv-x="884" d="M798 1053 Q767 1202 729 1252 Q691 1302 610 1302 L518 1302 L518 180 Q518 98 539 76 Q560 54 646 44 L646 -6 Q520 9 442 9 Q363 9 237 -6 L237 44 Q323 53 344 75.5 Q365 98 365 180 L365 1302 L282 1302 Q223 1302 190 1280.5 Q157 1259 132 1204 Q109 1154 86 1053 L40 1053 L84 1365 L799 1365 L844 1053 L798 1053 Z M430 -493 L353 -493 Q437 -401 453 -298 Q440 -303 428 -303 Q396 -303 375.5 -277.5 Q355 -252 355 -211 Q355 -167 379 -140 Q403 -113 443 -113 Q484 -113 508.5 -145 Q533 -177 533 -230 Q533 -356 430 -493 Z " />
<glyph glyph-name="uni021B" unicode="&#x21b;" horiz-adv-x="528" d="M499 102 L498 42 Q417 -18 342 -18 Q211 -18 170 105 Q151 163 152 307 L158 899 L57 899 L57 955 Q129 961 169 1009 Q230 1080 257 1259 L302 1259 L301 967 L485 967 L485 899 L301 899 L300 289 Q300 206 305 167 Q310 128 324 101 Q346 62 395 62 Q437 62 499 102 Z M295 -493 L218 -493 Q302 -402 317 -301 L310 -300 Q303 -302 296 -302 Q261 -302 240 -277 Q219 -252 219 -211 Q219 -167 243 -140 Q267 -113 307 -113 Q349 -113 373.5 -145 Q398 -177 398 -231 Q398 -356 295 -493 Z " />
<glyph glyph-name="uni0226" unicode="&#x226;" horiz-adv-x="1074" d="M559 1725 Q599 1725 628 1695.5 Q657 1666 657 1626 Q657 1584 628 1555 Q599 1526 557 1526 Q516 1526 487 1555.5 Q458 1585 458 1626 Q458 1667 487.5 1696 Q517 1725 559 1725 Z M310 397 L252 203 Q231 130 231 102 Q231 51 339 44 L339 -6 Q245 5 183 5 Q121 5 27 -6 L27 44 Q102 51 128 75 Q154 99 181 187 L558 1411 L899 165 Q918 94 944 73 Q970 52 1047 44 L1047 -6 Q935 9 848 9 Q761 9 648 -6 L648 44 Q746 54 746 103 Q746 131 735 174 L679 397 L310 397 Z M329 460 L664 460 L511 1064 L329 460 Z " />
<glyph glyph-name="uni0227" unicode="&#x227;" horiz-adv-x="785" d="M386 1357 Q426 1357 455 1327.5 Q484 1298 484 1257 Q484 1216 455 1187 Q426 1158 384 1158 Q343 1158 314 1187.5 Q285 1217 285 1258 Q285 1299 314.5 1328 Q344 1357 386 1357 Z M739 54 L739 0 Q681 -14 641 -14 Q527 -14 513 154 Q446 -18 299 -18 Q199 -18 137 53 Q73 126 73 243 Q73 402 195 488 Q317 575 492 603 L492 748 Q492 842 462 886.5 Q432 931 369 931 Q314 931 279.5 900 Q245 869 245 819 Q245 807 246 793 Q247 773 247 758 Q247 672 175 672 Q115 672 115 742 Q115 843 198 917 Q276 986 384 986 Q455 986 512.5 953.5 Q570 921 601 864 Q636 799 636 658 L636 230 Q636 128 649.5 87.5 Q663 47 698 47 Q713 47 739 54 Z M492 550 Q402 529 345 496 Q220 423 220 257 Q220 170 253.5 120 Q287 70 345 70 Q492 70 492 372 L492 550 Z " />
<glyph glyph-name="uni0237" unicode="&#x237;" horiz-adv-x="485" d="M62 913 L62 948 Q196 964 316 1003 L316 28 Q316 -226 208 -329 Q118 -414 -17 -415 L-17 -362 Q86 -341 129 -271.5 Q172 -202 172 -58 L172 793 Q172 870 153 891 Q134 912 62 913 Z " />
<glyph glyph-name="uni0259" unicode="&#x259;" horiz-adv-x="771" d="M140 653 L75 653 Q88 783 149 876 Q223 987 364 987 Q529 987 615 837 Q696 696 696 483 Q696 273 616 132 Q574 59 511.5 19.5 Q449 -20 376 -20 Q237 -20 159.5 104.5 Q82 229 76 461 L548 461 Q545 598 536 667.5 Q527 737 504 797 Q457 919 345 919 Q261 919 207.5 849.5 Q154 780 140 653 Z M220 393 Q229 33 378 33 Q450 33 493 125.5 Q536 218 544 393 L220 393 Z " />
<glyph glyph-name="afii57929" unicode="&#x2bc;" horiz-adv-x="410" d="M188 923 L109 923 Q206 1052 223 1187 Q215 1186 209 1186 Q170 1186 145.5 1214 Q121 1242 121 1286 Q121 1331 148 1359 Q175 1387 218 1387 Q263 1387 289 1355.5 Q315 1324 315 1270 Q315 1120 188 923 Z " />
<glyph glyph-name="circumflex" unicode="&#x2c6;" horiz-adv-x="840" d="M165 1130 L380 1429 L459 1429 L674 1130 L596 1130 L420 1307 L243 1130 L165 1130 Z " />
<glyph glyph-name="caron" unicode="&#x2c7;" horiz-adv-x="840" d="M674 1426 L459 1127 L380 1127 L165 1426 L243 1426 L420 1249 L596 1426 L674 1426 Z " />
<glyph glyph-name="uni02C9" unicode="&#x2c9;" horiz-adv-x="840" d="M170 1191 L170 1274 L670 1274 L670 1191 L170 1191 Z " />
<glyph glyph-name="breve" unicode="&#x2d8;" horiz-adv-x="835" d="M582 1427 L638 1427 Q631 1309 585 1230 Q529 1133 418 1133 Q322 1133 263.5 1211 Q205 1289 198 1427 L254 1427 Q299 1259 418 1259 Q537 1259 582 1427 Z " />
<glyph glyph-name="dotaccent" unicode="&#x2d9;" horiz-adv-x="847" d="M428 1363 Q466 1363 493 1335.5 Q520 1308 520 1270 Q520 1231 493 1204 Q466 1177 427 1177 Q388 1177 361 1204.5 Q334 1232 334 1271 Q334 1309 361.5 1336 Q389 1363 428 1363 Z " />
<glyph glyph-name="ring" unicode="&#x2da;" horiz-adv-x="867" d="M436 1446 Q498 1446 543.5 1400 Q589 1354 589 1291 Q589 1221 537 1175 Q493 1135 433 1135 Q368 1135 322.5 1180.5 Q277 1226 277 1292 Q277 1356 323 1401 Q369 1446 436 1446 Z M434 1378 Q397 1378 371 1353 Q345 1328 345 1291 Q345 1255 370.5 1229 Q396 1203 433 1203 Q469 1203 495 1228.5 Q521 1254 521 1291 Q521 1326 495.5 1352 Q470 1378 434 1378 Z " />
<glyph glyph-name="ogonek" unicode="&#x2db;" horiz-adv-x="840" d="M507 26 L559 17 Q485 -35 458 -71 Q431 -107 431 -156 Q431 -195 454 -221 Q477 -247 512 -247 Q534 -247 562 -235 L562 -299 Q510 -324 461 -324 Q398 -324 355.5 -280 Q313 -236 313 -170 Q313 -43 507 26 Z " />
<glyph glyph-name="tilde" unicode="&#x2dc;" horiz-adv-x="840" d="M211 1181 L165 1197 Q189 1303 222 1350 Q256 1398 318 1398 Q369 1398 424 1348 L463 1312 Q500 1279 534 1279 Q570 1279 590.5 1302.5 Q611 1326 629 1386 L674 1373 Q661 1281 625 1225 Q584 1163 517 1163 Q464 1163 385 1239 Q340 1282 305 1282 Q244 1282 211 1181 Z " />
<glyph glyph-name="hungarumlaut" unicode="&#x2dd;" horiz-adv-x="840" d="M281 1128 L420 1430 L562 1430 L347 1128 L281 1128 Z M506 1128 L648 1430 L789 1430 L572 1128 L506 1128 Z " />
<glyph glyph-name="uni037E" unicode="&#x37e;" horiz-adv-x="406" d="M154 -341 L72 -341 Q195 -176 214 -9 L208 -9 Q199 -12 192 -12 Q157 -12 134.5 16.5 Q112 45 112 91 Q112 140 139 172 Q166 204 208 204 Q252 204 278.5 167 Q305 130 305 68 Q305 -108 154 -341 Z M208 871 Q248 871 277 841.5 Q306 812 306 772 Q306 730 277 701 Q248 672 206 672 Q165 672 136 701.5 Q107 731 107 772 Q107 813 136.5 842 Q166 871 208 871 Z " />
<glyph glyph-name="tonos" unicode="&#x384;" horiz-adv-x="410" d="M268 1447 L239 1093 L172 1093 L143 1447 L268 1447 Z " />
<glyph glyph-name="dieresistonos" unicode="&#x385;" horiz-adv-x="847" d="M242 1363 Q280 1363 307 1335.5 Q334 1308 334 1270 Q334 1231 307 1204 Q280 1177 241 1177 Q202 1177 175 1204.5 Q148 1232 148 1271 Q148 1309 175.5 1336 Q203 1363 242 1363 Z M608 1363 Q645 1363 672 1335.5 Q699 1308 699 1270 Q699 1232 671.5 1204.5 Q644 1177 606 1177 Q567 1177 540 1204.5 Q513 1232 513 1271 Q513 1309 540.5 1336 Q568 1363 608 1363 Z M486 1447 L457 1093 L390 1093 L361 1447 L486 1447 Z " />
<glyph glyph-name="Alphatonos" unicode="&#x386;" horiz-adv-x="1074" d="M313 1447 L285 1093 L217 1093 L189 1447 L313 1447 Z M310 397 L252 203 Q231 130 231 102 Q231 51 339 44 L339 -6 Q245 5 183 5 Q121 5 27 -6 L27 44 Q102 51 128 75 Q154 99 181 187 L558 1411 L899 165 Q918 94 944 73 Q970 52 1047 44 L1047 -6 Q935 9 848 9 Q761 9 648 -6 L648 44 Q746 54 746 103 Q746 131 735 174 L679 397 L310 397 Z M329 460 L664 460 L511 1064 L329 460 Z " />
<glyph glyph-name="uni0387" unicode="&#x387;" horiz-adv-x="404" d="M204 599 Q244 599 273 569.5 Q302 540 302 499 Q302 458 273 429 Q244 400 203 400 Q161 400 132 429.5 Q103 459 103 500 Q103 541 132.5 570 Q162 599 204 599 Z " />
<glyph glyph-name="Epsilontonos" unicode="&#x388;" horiz-adv-x="1014" d="M125 1447 L96 1093 L29 1093 L0 1447 L125 1447 Z M925 330 L888 0 L166 0 L166 50 Q249 58 271.5 81.5 Q294 105 294 186 L294 1179 Q294 1260 271.5 1283.5 Q249 1307 166 1315 L166 1365 L879 1365 L908 1057 L862 1057 Q834 1202 796 1252 Q758 1302 678 1302 L447 1302 L447 741 L670 741 Q708 741 724.5 753 Q741 765 751 800 Q762 838 765 910 L811 910 L811 508 L765 508 Q762 607 740.5 642.5 Q719 678 662 678 L447 678 L447 184 Q447 111 468.5 87 Q490 63 555 63 L667 63 Q732 63 766 83 Q800 103 826 157 Q857 219 879 330 L925 330 Z " />
<glyph glyph-name="Etatonos" unicode="&#x389;" horiz-adv-x="1234" d="M445 744 L892 744 L892 1186 Q892 1266 870 1289.5 Q848 1313 764 1321 L764 1371 Q888 1356 969 1356 Q1050 1356 1171 1371 L1171 1321 Q1087 1313 1065 1290 Q1043 1267 1043 1186 L1043 180 Q1043 99 1064.5 76 Q1086 53 1171 44 L1171 -6 Q1044 9 969 9 Q893 9 764 -6 L764 44 Q849 53 870.5 76 Q892 99 892 180 L892 681 L445 681 L445 180 Q445 99 466.5 76 Q488 53 573 44 L573 -6 Q443 9 368 9 Q292 9 166 -6 L166 44 Q251 53 272.5 76 Q294 99 294 180 L294 1186 Q294 1267 272 1290 Q250 1313 166 1321 L166 1371 Q287 1356 368 1356 Q449 1356 573 1371 L573 1321 Q489 1313 467 1290 Q445 1267 445 1186 L445 744 Z M125 1447 L96 1093 L29 1093 L0 1447 L125 1447 Z " />
<glyph glyph-name="Iotatonos" unicode="&#x38a;" horiz-adv-x="638" d="M575 44 L575 -6 Q445 9 371 9 Q296 9 166 -6 L166 44 Q251 53 272.5 76 Q294 99 294 180 L294 1185 Q294 1267 272 1290 Q250 1313 166 1321 L166 1371 Q290 1356 371 1356 Q451 1356 575 1371 L575 1321 Q491 1313 469 1290 Q447 1267 447 1185 L447 180 Q447 99 468.5 76 Q490 53 575 44 Z M125 1447 L96 1093 L29 1093 L0 1447 L125 1447 Z " />
<glyph glyph-name="Omicrontonos" unicode="&#x38c;" horiz-adv-x="1078" d="M549 1391 Q668 1391 768 1315 Q875 1233 932 1065 Q989 897 989 662 Q989 392 876 175 Q824 76 722 17 Q647 -26 553 -26 Q390 -26 273 104 Q194 193 148 371 Q110 516 110 679 Q110 991 221 1186 Q281 1291 378 1346 Q455 1391 549 1391 Z M551 1334 Q440 1334 367 1206 Q338 1156 325 1109 Q273 921 273 691 Q273 519 298.5 378 Q324 237 370 156 Q441 31 554 31 Q663 31 731 151 Q761 204 774 255 Q826 448 826 679 Q826 854 801 995.5 Q776 1137 731 1212 Q659 1334 551 1334 Z M139 1447 L110 1093 L43 1093 L14 1447 L139 1447 Z " />
<glyph glyph-name="Upsilontonos" unicode="&#x38e;" horiz-adv-x="1119" d="M125 1447 L96 1093 L29 1093 L0 1447 L125 1447 Z M550 595 L310 1209 Q287 1271 257.5 1292.5 Q228 1314 161 1321 L161 1371 Q271 1357 368 1357 Q464 1357 574 1371 L574 1321 Q461 1313 461 1269 Q461 1243 477 1203 L678 688 L877 1206 Q893 1248 893 1271 Q893 1294 868.5 1305 Q844 1316 782 1321 L782 1371 Q873 1361 937 1361 Q1001 1361 1092 1371 L1092 1321 Q1022 1311 994 1290 Q966 1269 943 1211 L703 595 L703 180 Q703 98 724 76 Q745 54 831 44 L831 -6 Q701 9 627 9 Q552 9 422 -6 L422 44 Q508 53 529 75.5 Q550 98 550 180 L550 595 Z " />
<glyph glyph-name="Omegatonos" unicode="&#x38f;" horiz-adv-x="1158" d="M139 1447 L110 1093 L43 1093 L14 1447 L139 1447 Z M476 0 L118 0 L80 330 L123 330 Q148 212 181.5 171 Q215 130 285 130 L434 130 L437 159 Q338 189 261 270 Q185 349 142 484 Q99 619 99 778 Q99 1029 209 1195 Q271 1288 370 1340 Q467 1391 585 1391 Q749 1391 872 1293 Q984 1203 1035 1038 Q1072 920 1072 777 Q1072 579 1007 425 Q917 210 734 158 L737 130 L885 130 Q955 130 984 165 Q1023 210 1047 330 L1090 330 L1053 0 L694 0 L671 205 Q711 215 749 243 Q834 306 876 474 Q909 607 909 780 Q909 1000 848 1146 Q812 1230 747 1282 Q681 1334 588 1334 Q462 1334 378 1233 Q262 1094 262 781 Q262 542 325 389 Q388 236 499 207 L476 0 Z " />
<glyph glyph-name="iotadieresistonos" unicode="&#x390;" horiz-adv-x="477" d="M313 1003 L313 145 Q313 79 333 59.5 Q353 40 424 35 L424 -6 Q308 6 241 6 Q175 6 58 -6 L58 35 Q129 40 149 59.5 Q169 79 169 145 L169 793 Q169 871 150.5 891 Q132 911 60 913 L60 948 Q194 964 313 1003 Z M57 1363 Q95 1363 122 1335.5 Q149 1308 149 1270 Q149 1231 122 1204 Q95 1177 56 1177 Q17 1177 -10 1204.5 Q-37 1232 -37 1271 Q-37 1309 -9.5 1336 Q18 1363 57 1363 Z M423 1363 Q460 1363 487 1335.5 Q514 1308 514 1270 Q514 1232 486.5 1204.5 Q459 1177 421 1177 Q382 1177 355 1204.5 Q328 1232 328 1271 Q328 1309 355.5 1336 Q383 1363 423 1363 Z M301 1447 L272 1093 L205 1093 L176 1447 L301 1447 Z " />
<glyph glyph-name="Alpha" unicode="&#x391;" horiz-adv-x="1074" d="M310 397 L252 203 Q231 130 231 102 Q231 51 339 44 L339 -6 Q245 5 183 5 Q121 5 27 -6 L27 44 Q102 51 128 75 Q154 99 181 187 L558 1411 L899 165 Q918 94 944 73 Q970 52 1047 44 L1047 -6 Q935 9 848 9 Q761 9 648 -6 L648 44 Q746 54 746 103 Q746 131 735 174 L679 397 L310 397 Z M329 460 L664 460 L511 1064 L329 460 Z " />
<glyph glyph-name="Beta" unicode="&#x392;" horiz-adv-x="958" d="M627 729 Q710 709 761 664 Q870 568 870 391 Q870 225 772 112 Q719 51 650 25.5 Q581 0 469 0 L63 0 L63 50 Q148 59 169.5 82 Q191 105 191 186 L191 1179 Q191 1260 169 1283.5 Q147 1307 63 1315 L63 1365 L486 1365 Q659 1365 738 1272 Q819 1177 819 1034 Q819 813 627 729 Z M344 745 L429 745 Q506 745 549 765 Q592 785 621 834 Q662 906 662 1029 Q662 1106 643 1169.5 Q624 1233 593 1261 Q548 1302 456 1302 L344 1302 L344 745 Z M344 682 L344 169 Q344 103 362 83.5 Q380 64 441 64 L478 64 Q605 64 663 166 Q712 251 712 388 Q712 466 690.5 534 Q669 602 634 634 Q583 682 472 682 L344 682 Z " />
<glyph glyph-name="Gamma" unicode="&#x393;" horiz-adv-x="832" d="M472 44 L472 -6 Q342 9 268 9 Q193 9 63 -6 L63 44 Q147 52 169 75.5 Q191 99 191 180 L191 1179 Q191 1260 169 1283.5 Q147 1307 63 1315 L63 1365 L776 1365 L806 1057 L760 1057 Q730 1201 689 1251.5 Q648 1302 561 1302 L344 1302 L344 180 Q344 99 366 75.5 Q388 52 472 44 Z " />
<glyph glyph-name="uni0394" unicode="&#x394;" horiz-adv-x="846" d="M833 0 L14 0 L409 1391 L449 1391 L833 0 Z M114 130 L494 130 Q615 130 615 189 Q615 211 603 258 L384 1092 L114 130 Z " />
<glyph glyph-name="Epsilon" unicode="&#x395;" horiz-adv-x="911" d="M822 330 L785 0 L63 0 L63 50 Q146 58 168.5 81.5 Q191 105 191 186 L191 1179 Q191 1260 169 1283.5 Q147 1307 63 1315 L63 1365 L776 1365 L805 1057 L759 1057 Q731 1202 693 1252 Q655 1302 575 1302 L344 1302 L344 741 L567 741 Q605 741 621.5 752.5 Q638 764 648 800 Q660 839 662 910 L708 910 L708 508 L662 508 Q660 606 638 642 Q616 678 558 678 L344 678 L344 184 Q344 111 365.5 87 Q387 63 452 63 L564 63 Q629 63 663 83 Q697 103 723 157 Q754 219 776 330 L822 330 Z " />
<glyph glyph-name="Zeta" unicode="&#x396;" horiz-adv-x="902" d="M61 0 L642 1302 L387 1302 Q324 1302 288 1283 Q252 1264 224 1216 Q194 1164 172 1063 L126 1063 L170 1365 L836 1365 L256 63 L548 63 Q611 63 641 73 Q671 83 694 112 Q750 180 794 333 L840 333 L791 0 L61 0 Z " />
<glyph glyph-name="Eta" unicode="&#x397;" horiz-adv-x="1131" d="M344 744 L787 744 L787 1186 Q787 1266 765 1289.5 Q743 1313 659 1321 L659 1371 Q783 1356 865 1356 Q947 1356 1068 1371 L1068 1321 Q983 1313 961.5 1290 Q940 1267 940 1186 L940 180 Q940 99 961.5 76 Q983 53 1068 44 L1068 -6 Q942 9 865 9 Q788 9 659 -6 L659 44 Q744 53 765.5 76 Q787 99 787 180 L787 681 L344 681 L344 180 Q344 99 365.5 76 Q387 53 472 44 L472 -6 Q343 9 266 9 Q189 9 63 -6 L63 44 Q148 53 169.5 76 Q191 99 191 180 L191 1186 Q191 1266 169.5 1289 Q148 1312 63 1321 L63 1371 Q184 1356 266 1356 Q348 1356 472 1371 L472 1321 Q388 1313 366 1289.5 Q344 1266 344 1186 L344 744 Z " />
<glyph glyph-name="Theta" unicode="&#x398;" horiz-adv-x="1056" d="M413 485 L367 485 L367 887 L413 887 Q416 790 434.5 757.5 Q453 725 503 725 L555 725 Q592 725 607 736.5 Q622 748 632 783 Q643 819 645 887 L691 887 L691 485 L645 485 Q642 581 621.5 614.5 Q601 648 547 648 L511 648 Q472 648 453.5 634 Q435 620 425 584 Q415 550 413 485 Z M528 1391 Q647 1391 747 1315 Q854 1232 911 1064.5 Q968 897 968 660 Q968 392 855 175 Q803 76 701 17 Q626 -26 532 -26 Q369 -26 252 104 Q173 193 127 370 Q89 516 89 679 Q89 991 200 1186 Q260 1291 357 1346 Q434 1391 528 1391 Z M530 1334 Q419 1334 346 1206 Q317 1156 304 1109 Q252 922 252 691 Q252 518 277.5 377.5 Q303 237 349 156 Q420 31 533 31 Q642 31 710 151 Q739 204 753 255 Q805 448 805 679 Q805 853 780 995 Q755 1137 710 1212 Q638 1334 530 1334 Z " />
<glyph glyph-name="Iota" unicode="&#x399;" horiz-adv-x="534" d="M472 44 L472 -6 Q342 9 268 9 Q193 9 63 -6 L63 44 Q147 52 169 75.5 Q191 99 191 180 L191 1185 Q191 1266 168.5 1290 Q146 1314 63 1321 L63 1371 Q187 1356 268 1356 Q348 1356 472 1371 L472 1321 Q389 1314 366.5 1290 Q344 1266 344 1185 L344 180 Q344 99 366 75.5 Q388 52 472 44 Z " />
<glyph glyph-name="Kappa" unicode="&#x39a;" horiz-adv-x="1064" d="M493 828 L852 175 Q893 101 929 75 Q965 49 1034 44 L1034 -6 Q911 10 822 10 Q734 10 604 -6 L604 44 Q622 46 630 47 Q717 55 717 92 Q717 116 688 170 L404 705 L338 613 L338 180 Q338 99 359.5 75.5 Q381 52 462 44 L462 -6 Q354 9 270 9 Q186 9 63 -6 L63 44 Q146 51 168.5 75 Q191 99 191 180 L191 1185 Q191 1266 169 1290 Q147 1314 63 1321 L63 1371 Q188 1356 269 1356 Q351 1356 466 1371 L466 1321 Q382 1314 360 1290.5 Q338 1267 338 1185 L338 715 L703 1226 Q725 1257 725 1280 Q725 1300 705 1308 Q685 1316 624 1321 L624 1371 Q715 1362 793 1362 Q870 1362 961 1371 L961 1321 Q888 1316 850 1295 Q812 1274 768 1213 L493 828 Z " />
<glyph glyph-name="Lambda" unicode="&#x39b;" horiz-adv-x="1072" d="M496 1092 L245 196 Q226 128 226 105 Q226 76 250.5 62 Q275 48 335 44 L335 -6 Q250 5 184 5 Q119 5 27 -6 L27 44 Q95 51 125 75 Q155 99 173 164 L521 1391 L561 1391 L898 170 Q919 96 944.5 74 Q970 52 1046 44 L1046 -6 Q939 9 847 9 Q755 9 649 -6 L649 44 Q750 54 750 102 Q750 126 738 171 L496 1092 Z " />
<glyph glyph-name="Mu" unicode="&#x39c;" horiz-adv-x="1366" d="M293 1218 L259 180 Q258 163 258 161 Q258 95 282.5 73.5 Q307 52 393 44 L393 -6 Q291 4 229 4 Q169 4 62 -6 L62 44 Q74 45 81 46 Q152 52 173 76.5 Q194 101 197 180 L231 1185 L232 1202 Q232 1269 206 1291.5 Q180 1314 96 1321 L96 1371 Q174 1363 230 1363 Q307 1363 401 1374 L694 354 L988 1374 Q1101 1363 1158 1363 Q1208 1363 1286 1371 L1286 1321 Q1199 1314 1174.5 1289 Q1150 1264 1151 1185 L1168 180 Q1170 87 1202 68 Q1232 51 1303 44 L1303 -6 Q1177 9 1091 9 Q1006 9 885 -6 L885 44 Q971 50 996 75 Q1021 100 1020 180 L1004 1215 L664 36 L631 36 L293 1218 Z " />
<glyph glyph-name="Nu" unicode="&#x39d;" horiz-adv-x="1122" d="M932 -41 L906 -41 Q847 77 736 285 L255 1181 L255 180 Q255 125 261.5 102.5 Q268 80 287 69 Q318 51 388 44 L388 -6 Q270 4 221 4 Q170 4 62 -6 L62 44 Q151 53 173 75.5 Q195 98 195 180 L195 1261 Q172 1292 144.5 1304.5 Q117 1317 61 1321 L61 1371 Q134 1364 200 1364 Q260 1364 319 1371 L872 348 L872 1185 Q872 1240 865.5 1263 Q859 1286 841 1296 Q807 1315 739 1321 L739 1371 Q851 1361 906 1361 Q962 1361 1064 1371 L1064 1321 Q977 1313 954.5 1290 Q932 1267 932 1185 L932 -41 Z " />
<glyph glyph-name="Xi" unicode="&#x39e;" horiz-adv-x="926" d="M101 330 Q130 212 170 171 Q210 130 295 130 L631 130 Q720 130 753 168 Q798 220 825 330 L871 330 L834 0 L93 0 L55 330 L101 330 Z M118 1057 L72 1057 L101 1365 L825 1365 L854 1057 L809 1057 Q781 1164 746.5 1199.5 Q712 1235 637 1235 L289 1235 Q210 1235 181 1200 Q144 1157 118 1057 Z M215 508 L169 508 L169 910 L215 910 Q219 824 238 795.5 Q257 767 309 767 L617 767 Q656 767 672 777.5 Q688 788 699 820 Q709 852 711 910 L757 910 L757 508 L711 508 Q708 592 688.5 621.5 Q669 651 617 651 L309 651 Q272 651 254 639 Q236 627 226 596 Q217 566 215 508 Z " />
<glyph glyph-name="Omicron" unicode="&#x39f;" horiz-adv-x="1056" d="M528 1391 Q647 1391 747 1315 Q854 1233 911 1065 Q968 897 968 662 Q968 392 855 175 Q803 76 701 17 Q626 -26 532 -26 Q369 -26 252 104 Q173 193 127 371 Q89 516 89 679 Q89 991 200 1186 Q260 1291 357 1346 Q434 1391 528 1391 Z M530 1334 Q419 1334 346 1206 Q317 1156 304 1109 Q252 922 252 691 Q252 518 277.5 377.5 Q303 237 349 156 Q420 31 533 31 Q642 31 710 151 Q739 204 753 255 Q805 448 805 679 Q805 853 780 995 Q755 1137 710 1212 Q638 1334 530 1334 Z " />
<glyph glyph-name="Pi" unicode="&#x3a0;" horiz-adv-x="1131" d="M1068 1365 L1068 1315 Q985 1307 962.5 1283.5 Q940 1260 940 1179 L940 180 Q940 99 962 75.5 Q984 52 1068 44 L1068 -6 Q941 9 865 9 Q790 9 659 -6 L659 44 Q743 52 765 75.5 Q787 99 787 180 L787 1166 Q787 1219 780 1243.5 Q773 1268 754 1279 Q728 1294 697 1298 Q666 1302 567 1302 Q466 1302 434.5 1298 Q403 1294 377 1279 Q344 1259 344 1166 L344 180 Q344 99 366 75.5 Q388 52 472 44 L472 -6 Q341 9 266 9 Q189 9 63 -6 L63 44 Q147 52 169 75.5 Q191 99 191 180 L191 1179 Q191 1260 168.5 1283.5 Q146 1307 63 1315 L63 1365 L1068 1365 Z " />
</font>
</svg>
