<?xml version="1.0" standalone="no"?>
<!DOCTYPE svg PUBLIC "-//W3C//DTD SVG 1.1//EN" "http://www.w3.org/Graphics/SVG/1.1/DTD/svg11.dtd" >
<svg xmlns="http://www.w3.org/2000/svg" xmlns:xlink="http://www.w3.org/1999/xlink" version="1.1">
<metadata>
Created by FontForge 20170910 at Fri Oct  2 17:03:46 2015
 By Jimmy Wärting
(URW)++,Copyright 2015 by (URW)++ Design &#38; Development
</metadata>
<defs>
<font id="DaimlerCAC-Regular" horiz-adv-x="840" >
  <font-face 
    font-family="Daimler CAC"
    font-weight="400"
    font-stretch="normal"
    units-per-em="2048"
    panose-1="0 0 0 0 0 0 0 0 0 0"
    ascent="1645"
    descent="-403"
    x-height="967"
    cap-height="1365"
    bbox="-295 -601 1672 2095"
    underline-thickness="79"
    underline-position="-335"
    unicode-range="U+0020-FB04"
  />
<missing-glyph horiz-adv-x="430" 
d="M43 0v1365h344v-1365h-344zM344 43v1279h-258v-1279h258z" />
    <glyph glyph-name="ff" unicode="ff" horiz-adv-x="1001" 
d="M317 967h181v-68h-181v-754q0 -66 20 -86t91 -24v-41q-113 12 -183 12t-183 -12v41q70 4 90.5 24t20.5 86v754h-106v56q76 3 96 25t21 104q1 116 28 180q27 61 79.5 95.5t118.5 34.5q83 0 127 -50q38 -43 38 -103q0 -77 -66 -77q-29 0 -46.5 16.5t-17.5 42.5q0 12 4 29
q5 20 5 35q0 56 -47 56q-41 0 -65 -43q-25 -43 -25 -171v-162zM800 967h181v-68h-181v-754q0 -66 20 -86t91 -24v-41q-113 12 -183 12t-183 -12v41q70 4 90.5 24t20.5 86v754h-106v56q76 3 96 25t21 104q1 116 28 180q27 61 79.5 95.5t118.5 34.5q83 0 127 -50
q38 -43 38 -103q0 -77 -66 -77q-29 0 -46.5 16.5t-17.5 42.5q0 12 4 29q5 20 5 35q0 56 -47 56q-41 0 -65 -43q-25 -43 -25 -171v-162z" />
    <glyph glyph-name="fi" unicode="fi" horiz-adv-x="945" 
d="M781 1003v-858q0 -65 20 -85.5t91 -24.5v-41q-113 12 -183 12t-183 -12v41q71 5 91 24.5t20 85.5v648q0 78 -19 98.5t-91 21.5v35q132 15 254 55zM311 967h181v-68h-181v-754q0 -66 20 -86t91 -24v-41q-113 12 -183 12t-183 -12v41q70 4 90.5 24t20.5 86v754h-106v56
q76 3 96 25t21 104q1 116 28 180q27 61 79.5 95.5t118.5 34.5q83 0 127 -50q38 -43 38 -103q0 -77 -66 -77q-29 0 -46.5 16.5t-17.5 42.5q0 12 4 29q5 20 5 35q0 56 -47 56q-41 0 -65 -43q-25 -43 -25 -171v-162zM714 1354q40 0 69 -29.5t29 -70.5t-29.5 -70t-70.5 -29
t-70 29t-29 71q0 41 29.5 70t71.5 29z" />
    <glyph glyph-name="fl" unicode="fl" horiz-adv-x="936" 
d="M537 1335q119 14 242 53v-1243q0 -66 19.5 -85.5t90.5 -24.5v-41q-112 12 -182 12t-183 -12v41q71 5 91 24.5t20 85.5v1027q0 55 -3.5 74t-15.5 32q-15 16 -58 19q11 -29 11 -55q0 -78 -66 -78q-28 0 -46 16.5t-18 42.5q0 13 6 40q3 11 3 24q0 55 -46 55q-42 0 -66 -42
q-25 -44 -25 -171v-162h181v-68h-181v-754q0 -66 20 -86t90 -24v-41q-112 12 -182 12t-183 -12v41q70 4 90.5 24t20.5 86v754h-106v56q76 3 96 25t21 104q1 116 29 180q26 61 78.5 95.5t120.5 34.5q83 0 131 -59z" />
    <glyph glyph-name="ffi" unicode="ffi" horiz-adv-x="1453" 
d="M1283 1003v-858q0 -66 20 -85.5t90 -24.5v-41q-115 12 -182 12t-183 -12v41q71 5 91 24.5t20 85.5v648q0 78 -19 98.5t-91 21.5v35q134 16 254 55zM1206 1357q40 0 69 -29.5t29 -70.5t-29.5 -70t-70.5 -29t-70 29.5t-29 70.5t29.5 70t71.5 29zM317 967h181v-68h-181v-754
q0 -66 20 -86t91 -24v-41q-113 12 -183 12t-183 -12v41q70 4 90.5 24t20.5 86v754h-106v56q76 3 96 25t21 104q1 116 28 180q27 61 79.5 95.5t118.5 34.5q83 0 127 -50q38 -43 38 -103q0 -77 -66 -77q-29 0 -46.5 16.5t-17.5 42.5q0 12 4 29q5 20 5 35q0 56 -47 56
q-41 0 -65 -43q-25 -43 -25 -171v-162zM800 967h181v-68h-181v-754q0 -66 20 -86t91 -24v-41q-113 12 -183 12t-183 -12v41q70 4 90.5 24t20.5 86v754h-106v56q76 3 96 25t21 104q1 116 28 180q27 61 79.5 95.5t118.5 34.5q83 0 127 -50q38 -43 38 -103q0 -77 -66 -77
q-29 0 -46.5 16.5t-17.5 42.5q0 12 4 29q5 20 5 35q0 56 -47 56q-41 0 -65 -43q-25 -43 -25 -171v-162z" />
    <glyph glyph-name="ffl" unicode="ffl" horiz-adv-x="1448" 
d="M317 967h181v-68h-181v-754q0 -66 20 -86t91 -24v-41q-113 12 -183 12t-183 -12v41q70 4 90.5 24t20.5 86v754h-106v56q76 3 96 25t21 104q1 116 28 180q27 61 79.5 95.5t118.5 34.5q83 0 127 -50q38 -43 38 -103q0 -77 -66 -77q-29 0 -46.5 16.5t-17.5 42.5q0 12 4 29
q5 20 5 35q0 56 -47 56q-41 0 -65 -43q-25 -43 -25 -171v-162zM1028 1334q125 13 256 54v-1243q0 -66 20 -85.5t90 -24.5v-41q-115 12 -182 12t-183 -12v41q71 5 91 24.5t20 85.5v1033q0 74 -17 96t-75 24q10 -29 10 -56q0 -78 -66 -78q-29 0 -46.5 16.5t-17.5 42.5
q0 12 4 29q5 20 5 35q0 56 -47 56q-41 0 -65 -43q-25 -43 -25 -171v-162h181v-68h-181v-754q0 -66 20 -86t91 -24v-41q-113 12 -183 12t-183 -12v41q70 4 90.5 24t20.5 86v754h-106v56q76 3 96.5 25t20.5 104q1 116 28 180q27 61 79.5 95.5t119.5 34.5q89 0 134 -60z" />
    <glyph glyph-name="fft" unicode="fft" horiz-adv-x="1497" 
d="M800 967h181v-68h-181v-754q0 -66 20 -86t91 -24v-41q-113 12 -183 12t-183 -12v41q70 4 90.5 24t20.5 86v754h-106v56q76 3 96 25t21 104q1 116 28 180q27 61 79.5 95.5t118.5 34.5q83 0 127 -50q38 -43 38 -103q0 -77 -66 -77q-29 0 -46.5 16.5t-17.5 42.5q0 12 4 29
q5 20 5 35q0 56 -47 56q-41 0 -65 -43q-25 -43 -25 -171v-162zM1467 102v-60q-82 -60 -157 -60q-102 0 -146 68.5t-44 227.5v29l6 592h-101l1 56q71 6 111 54q61 71 88 250h45l-1 -292h184v-68h-184l-1 -610q0 -83 5 -122t20 -66q21 -39 70 -39q42 0 104 40zM317 967h181
v-68h-181v-754q0 -66 20 -86t91 -24v-41q-113 12 -183 12t-183 -12v41q70 4 90.5 24t20.5 86v754h-106v56q76 3 96 25t21 104q1 116 28 180q27 61 79.5 95.5t118.5 34.5q83 0 127 -50q38 -43 38 -103q0 -77 -66 -77q-29 0 -46.5 16.5t-17.5 42.5q0 12 4 29q5 20 5 35
q0 56 -47 56q-41 0 -65 -43q-25 -43 -25 -171v-162z" />
    <glyph glyph-name="ft" unicode="ft" horiz-adv-x="1014" 
d="M317 967h181v-68h-181v-754q0 -66 20 -86t91 -24v-41q-113 12 -183 12t-183 -12v41q70 4 90.5 24t20.5 86v754h-106v56q76 3 96 25t21 104q1 116 28 180q27 61 79.5 95.5t118.5 34.5q83 0 127 -50q38 -43 38 -103q0 -77 -66 -77q-29 0 -46.5 16.5t-17.5 42.5q0 12 4 29
q5 20 5 35q0 56 -47 56q-41 0 -65 -43q-25 -43 -25 -171v-162zM984 102l-1 -60q-81 -60 -156 -60q-102 0 -146 68.5t-44 227.5v29l6 592h-101v56q72 6 112 54q61 71 88 250h45l-1 -292h184v-68h-184l-1 -610q0 -83 5 -122t20 -66q21 -39 70 -39q42 0 104 40z" />
    <glyph glyph-name=".notdef" horiz-adv-x="430" 
d="M43 0v1365h344v-1365h-344zM344 43v1279h-258v-1279h258z" />
    <glyph glyph-name=".null" horiz-adv-x="0" 
 />
    <glyph glyph-name="nonmarkingreturn" horiz-adv-x="682" 
 />
    <glyph glyph-name="space" unicode=" " horiz-adv-x="430" 
 />
    <glyph glyph-name="exclam" unicode="!" horiz-adv-x="434" 
d="M177 410l-30 930h141l-30 -930h-81zM222 186q40 0 69 -29.5t29 -69.5q0 -42 -29 -71t-70 -29q-42 0 -71 29.5t-29 70.5t29.5 70t71.5 29z" />
    <glyph glyph-name="quotedbl" unicode="&#x22;" horiz-adv-x="639" 
d="M249 818h-88l-18 547h125zM478 818h-88l-18 547h124z" />
    <glyph glyph-name="numbersign" unicode="#" horiz-adv-x="1015" 
d="M893 541l-12 -100h-185l-55 -441h-103l56 441h-237l-56 -441h-102l56 441h-185l12 100h185l39 309h-184l12 100h185l53 415h102l-52 -415h237l52 415h103l-53 -415h184l-13 -100h-184l-39 -309h184zM646 850h-237l-39 -309h237z" />
    <glyph glyph-name="dollar" unicode="$" horiz-adv-x="877" 
d="M406 -16q-120 14 -218 113l-56 -128h-31v444h46q44 -341 259 -366v589q-104 66 -156 109q-70 57 -101 125t-31 163q0 149 77.5 243t210.5 107v167h61v-168q107 -12 179 -103l46 113h31v-377h-46q-27 149 -76.5 221.5t-133.5 83.5v-529l29 -18q110 -72 162 -119
q118 -107 118 -291q0 -163 -84 -266.5t-225 -114.5v-167h-61v169zM406 833v485q-31 -7 -53 -19q-50 -30 -79.5 -89.5t-29.5 -131.5q0 -82 31.5 -129.5t130.5 -115.5zM467 597v-548q36 7 63 23q50 29 78 81q40 73 40 159q0 125 -70 198q-26 26 -111 87z" />
    <glyph glyph-name="percent" unicode="%" horiz-adv-x="1016" 
d="M282 1376q77 0 132 -62q35 -41 57 -114t22 -149q0 -86 -26.5 -163.5t-69.5 -116.5q-53 -48 -120 -48q-96 0 -155 91t-59 240q0 83 26 157t70 115q53 50 123 50zM280 1327q-52 0 -80.5 -70t-28.5 -195q0 -290 107 -290t107 276q0 279 -105 279zM150 0l641 1365h74
l-641 -1365h-74zM741 643q78 0 132 -63q35 -40 57 -113t22 -150q0 -86 -26 -163t-69 -116q-54 -49 -121 -49q-77 0 -135 65q-35 39 -56.5 112.5t-21.5 152.5q0 83 26 158t69 116q54 50 123 50zM739 594q-108 0 -108 -281q0 -275 107 -275q106 0 106 279q0 277 -105 277z" />
    <glyph glyph-name="ampersand" unicode="&#x26;" horiz-adv-x="987" 
d="M454 734l268 -458q63 110 63 225q0 38 -18.5 53t-68.5 18v58q67 -9 120 -9t120 9v-58q-57 -4 -74.5 -21.5t-21.5 -76.5q-12 -146 -78 -265l43 -77q37 -65 58 -80t82 -17v-41q-58 7 -103 7q-44 0 -103 -7l-61 110q-71 -70 -132 -98.5t-137 -28.5q-155 0 -254 110
q-92 101 -92 258q0 115 51.5 205t179.5 201q-78 143 -98 195.5t-20 119.5q0 138 86 216q66 60 153 60q93 0 152 -67q62 -71 62 -186q0 -87 -38 -163.5t-139 -191.5zM390 843q58 65 88 113q50 80 50 164q0 72 -32.5 119t-82.5 47q-47 0 -83 -41q-44 -50 -44 -131
q0 -57 23 -117.5t81 -153.5zM359 644q-67 -60 -99 -110q-55 -86 -55 -199q0 -70 23 -132t62 -99q58 -54 139 -54q55 0 101.5 25.5t109.5 89.5z" />
    <glyph glyph-name="quotesingle" unicode="'" horiz-adv-x="410" 
d="M249 818h-88l-18 547h125z" />
    <glyph glyph-name="parenleft" unicode="(" horiz-adv-x="527" 
d="M371 1399h53q-146 -383 -146 -916t146 -916h-53q-78 117 -125 229q-121 286 -121 687q0 282 59.5 503.5t186.5 412.5z" />
    <glyph glyph-name="parenright" unicode=")" horiz-adv-x="527" 
d="M157 -433h-54q147 386 147 916q0 531 -147 916h54q77 -117 124 -229q121 -286 121 -687q0 -281 -59.5 -503t-185.5 -413z" />
    <glyph glyph-name="asterisk" unicode="*" horiz-adv-x="877" 
d="M380 1326h118l-33 -259l203 98l32 -116l-220 -34l174 -193l-98 -71l-117 229l-117 -229l-97 71l173 193l-220 34l32 116l203 -98z" />
    <glyph glyph-name="plus" unicode="+" horiz-adv-x="877" 
d="M98 636v109h285v364h111v-364h285v-109h-285v-364h-111v364h-285z" />
    <glyph glyph-name="comma" unicode="," horiz-adv-x="404" 
d="M154 -341h-82q123 165 142 332h-6q-9 -3 -16 -3q-35 0 -57.5 28.5t-22.5 74.5q0 49 27 81t69 32q44 0 70.5 -37t26.5 -99q0 -176 -151 -409z" />
    <glyph glyph-name="hyphen" unicode="-" horiz-adv-x="441" 
d="M10 503v88h421v-88h-421z" />
    <glyph glyph-name="period" unicode="." horiz-adv-x="404" 
d="M207 189q40 0 69 -29.5t29 -69.5q0 -42 -29 -71t-70 -29q-42 0 -71 29.5t-29 70.5t29.5 70t71.5 29z" />
    <glyph glyph-name="slash" unicode="/" horiz-adv-x="693" 
d="M-131 -398l695 1763h101l-695 -1763h-101z" />
    <glyph glyph-name="zero" unicode="0" horiz-adv-x="877" 
d="M441 1354q113 0 196 -92q70 -77 111 -263q34 -157 34 -331q0 -139 -25.5 -282.5t-63.5 -221.5q-90 -182 -253 -182q-158 0 -239 150q-106 197 -106 568q0 297 109 504q36 69 100 109.5t137 40.5zM439 1295q-64 0 -109 -81q-23 -41 -33 -79q-48 -187 -48 -438
q0 -656 192 -656q63 0 105 75q82 147 82 540q0 379 -66 527q-50 112 -123 112z" />
    <glyph glyph-name="one" unicode="1" horiz-adv-x="877" 
d="M523 1399v-1219q0 -81 22 -104.5t106 -31.5v-50q-101 13 -202 13q-102 0 -203 -13v50q85 8 107 31.5t22 104.5v940h-177v50q217 24 276 229h49z" />
    <glyph glyph-name="two" unicode="2" horiz-adv-x="878" 
d="M743 143l-16 -143h-612v114q175 265 250 387.5t135 245.5q77 155 77 281q0 94 -48 153t-124 59q-74 0 -128 -56q-69 -71 -84 -230h-57q22 400 308 400q131 0 211 -90q78 -88 78 -222q0 -135 -99 -305q-88 -153 -392 -594h501z" />
    <glyph glyph-name="three" unicode="3" horiz-adv-x="878" 
d="M102 379h62q13 -294 210 -294q104 0 166 83q61 82 61 220q0 129 -54 209q-57 84 -210 84h-12v63q13 -1 16 -1q125 0 181 100q39 70 39 167q0 138 -64 199q-45 41 -108 41q-83 0 -132 -61.5t-70 -190.5h-56q27 356 294 356q133 0 211 -88t78 -233q0 -232 -211 -307
q254 -75 254 -345q0 -93 -33.5 -177.5t-91.5 -138.5q-89 -84 -218 -84q-138 0 -222 94q-42 47 -66 124t-24 163v17z" />
    <glyph glyph-name="four" unicode="4" horiz-adv-x="878" 
d="M483 -31v385h-442l444 1014h146v-886h168v-128h-168v-385h-148zM483 482l1 748l-322 -748h321z" />
    <glyph glyph-name="five" unicode="5" horiz-adv-x="878" 
d="M689 1193h-417l-54 -396q95 115 220 115q127 0 211 -98q49 -56 78 -151.5t29 -197.5q0 -170 -79 -315q-91 -168 -271 -168q-130 0 -202.5 86.5t-81.5 253.5h62q22 -236 186 -236q104 0 167 103.5t63 274.5q0 155 -57 253q-57 97 -158 97q-122 0 -189 -154l-60 4l94 672
h474z" />
    <glyph glyph-name="six" unicode="6" horiz-adv-x="878" 
d="M608 1420h84q-226 -266 -347 -525q64 27 117 27q97 0 175 -75q134 -128 134 -386q0 -182 -75 -314q-45 -79 -112.5 -122t-147.5 -43q-131 0 -226 108q-52 59 -82.5 159t-30.5 209q0 260 184 547q136 213 327 415zM435 855q-181 0 -181 -417q0 -213 57 -316
q44 -80 121 -80q78 0 123 83q56 102 56 318q0 412 -176 412z" />
    <glyph glyph-name="seven" unicode="7" horiz-adv-x="878" 
d="M149 0l488 1187h-531v149h663l-460 -1336h-160z" />
    <glyph glyph-name="eight" unicode="8" horiz-adv-x="878" 
d="M572 699q189 -81 189 -327q0 -96 -31 -180t-85 -134q-84 -76 -206 -76q-143 0 -232 102q-90 103 -90 285q0 230 188 330q-60 33 -92 71q-70 86 -70 231q0 85 29 160t79 120q80 73 195 73q128 0 205 -88q39 -44 61.5 -113.5t22.5 -143.5q0 -215 -163 -310zM443 667
q-78 0 -125.5 -83.5t-47.5 -219.5q0 -171 61 -262q41 -61 108 -61q57 0 101 51q28 33 48 111t20 156q0 91 -21 165t-56 107q-39 36 -88 36zM444 1295q-71 0 -109.5 -76.5t-38.5 -217.5q0 -83 18 -148.5t49 -93.5q35 -32 76 -32q66 0 104.5 75t38.5 205q0 195 -66 258
q-32 30 -72 30z" />
    <glyph glyph-name="nine" unicode="9" horiz-adv-x="877" 
d="M286 -86h-84q223 275 323 525q-62 -25 -111 -25q-88 0 -161 70q-133 129 -133 393q0 189 76 321q90 156 242 156q105 0 188 -78q138 -130 138 -400q0 -259 -170 -544q-137 -229 -308 -418zM444 1294q-45 0 -79 -32q-89 -85 -89 -351q0 -430 165 -430q167 0 167 398
q0 223 -49 325q-43 90 -115 90z" />
    <glyph glyph-name="colon" unicode=":" horiz-adv-x="404" 
d="M207 868q40 0 69 -29.5t29 -69.5q0 -42 -29 -71t-70 -29q-42 0 -71 29.5t-29 70.5t29.5 70t71.5 29zM201 183q40 0 69 -29.5t29 -69.5q0 -42 -29 -71t-70 -29q-42 0 -71 29.5t-29 70.5t29.5 70t71.5 29z" />
    <glyph glyph-name="semicolon" unicode=";" horiz-adv-x="406" 
d="M154 -341h-82q123 165 142 332h-6q-9 -3 -16 -3q-35 0 -57.5 28.5t-22.5 74.5q0 49 27 81t69 32q44 0 70.5 -37t26.5 -99q0 -176 -151 -409zM208 871q40 0 69 -29.5t29 -69.5q0 -42 -29 -71t-71 -29q-41 0 -70 29.5t-29 70.5t29.5 70t71.5 29z" />
    <glyph glyph-name="less" unicode="&#x3c;" 
d="M759 1249v-70l-525 -428l525 -437v-186l-677 563v13z" />
    <glyph glyph-name="equal" unicode="=" horiz-adv-x="877" 
d="M98 770v109h681v-109h-681zM98 502v109h681v-109h-681z" />
    <glyph glyph-name="greater" unicode="&#x3e;" 
d="M82 128v70l524 428l-524 437v186l677 -563v-12z" />
    <glyph glyph-name="question" unicode="?" horiz-adv-x="647" 
d="M309 392h-70q-6 61 -6 108q0 97 22.5 161t83.5 146q66 87 89.5 139.5t23.5 114.5q0 81 -39.5 128.5t-105.5 47.5q-82 0 -130 -62.5t-57 -179.5h-46q0 100 24 177q27 82 96 132t158 50q111 0 177 -76q71 -83 71 -216q0 -93 -32.5 -160t-121.5 -155q-65 -64 -91 -107
q-47 -78 -47 -214q0 -12 1 -34zM287 186q40 0 69 -29.5t29 -69.5q0 -42 -29 -71t-71 -29q-41 0 -70 29.5t-29 70.5t29.5 70t71.5 29z" />
    <glyph glyph-name="at" unicode="@" horiz-adv-x="1338" 
d="M724 406q-43 -62 -81 -88t-87 -26q-88 0 -145.5 80t-57.5 202q0 191 112 326q102 122 230 122q91 0 123 -98l20 80h125l-114 -532q-11 -49 -11 -69q0 -77 62 -77q52 0 110.5 43t106.5 116q98 148 98 338q0 203 -158 345q-150 136 -353 136q-233 0 -394 -157
q-86 -84 -136 -204q-51 -125 -51 -265q0 -238 135 -404q75 -93 187 -149q130 -65 278 -65q163 0 303 102q96 71 171 194l85 1q-45 -88 -84 -137.5t-103 -100.5q-175 -140 -383 -140q-218 0 -393 126q-148 106 -221 280q-57 137 -57 290q0 215 108 394q99 164 262 247
q136 70 292 70q159 0 297 -74q165 -88 243 -246q54 -111 54 -251q0 -215 -128 -367q-80 -96 -179 -139q-59 -26 -117 -26q-67 0 -101.5 28.5t-47.5 94.5zM701 981q-42 3 -86 -45t-78 -133q-58 -145 -58 -280q0 -86 24 -138t64 -52q70 0 126 126q37 81 62.5 188.5t25.5 183.5
q0 145 -80 150z" />
    <glyph glyph-name="A" unicode="A" horiz-adv-x="1074" 
d="M310 397l-58 -194q-21 -73 -21 -101q0 -51 108 -58v-50q-94 11 -156 11t-156 -11v50q75 7 101 31t53 112l377 1224l341 -1246q19 -71 45 -92t103 -29v-50q-112 15 -199 15t-200 -15v50q98 10 98 59q0 28 -11 71l-56 223h-369zM329 460h335l-153 604z" />
    <glyph glyph-name="B" unicode="B" horiz-adv-x="958" 
d="M627 729q83 -20 134 -65q109 -96 109 -273q0 -166 -98 -279q-53 -61 -122 -86.5t-181 -25.5h-406v50q85 9 106.5 32t21.5 104v993q0 81 -22 104.5t-106 31.5v50h423q173 0 252 -93q81 -95 81 -238q0 -221 -192 -305zM344 745h85q77 0 120 20t72 69q41 72 41 195
q0 77 -19 140.5t-50 91.5q-45 41 -137 41h-112v-557zM344 682v-513q0 -66 18 -85.5t79 -19.5h37q127 0 185 102q49 85 49 222q0 78 -21.5 146t-56.5 100q-51 48 -162 48h-128z" />
    <glyph glyph-name="C" unicode="C" horiz-adv-x="991" 
d="M823 460h61q-5 -155 -52 -265q-46 -108 -125 -164q-81 -57 -182 -57q-134 0 -240 97q-108 99 -159 298q-37 141 -37 311q0 306 117 511q58 101 154 156q77 44 174 44q152 0 252 -120l54 116h33v-403h-46q-30 156 -92 247q-64 94 -183 94q-138 0 -205 -130
q-96 -185 -96 -520q0 -311 91 -475q76 -135 208 -135q121 0 192.5 103.5t80.5 291.5z" />
    <glyph glyph-name="D" unicode="D" horiz-adv-x="1062" 
d="M56 1315v50h396q210 0 324 -114q87 -88 140 -229q57 -155 57 -339q0 -250 -109 -453q-125 -230 -413 -230h-395v50q85 9 106.5 31.5t21.5 104.5v993q0 81 -22 104.5t-106 31.5zM337 1302v-1136q0 -67 18.5 -87t80.5 -20q198 0 282 153q93 167 93 473q0 299 -93 466
q-84 151 -273 151h-108z" />
    <glyph glyph-name="E" unicode="E" horiz-adv-x="911" 
d="M822 330l-37 -330h-722v50q83 8 105.5 31.5t22.5 104.5v993q0 81 -22 104.5t-106 31.5v50h713l29 -308h-46q-28 145 -66 195t-118 50h-231v-561h223q38 0 54.5 11.5t26.5 47.5q12 39 14 110h46v-402h-46q-2 98 -24 134t-80 36h-214v-494q0 -73 21.5 -97t86.5 -24h112
q65 0 99 20t60 74q31 62 53 173h46z" />
    <glyph glyph-name="F" unicode="F" horiz-adv-x="873" 
d="M350 678v-498q0 -81 22 -104.5t106 -31.5v-50q-126 15 -204 15q-79 0 -205 -15v50q84 8 106 31.5t22 104.5v999q0 81 -22 104.5t-106 31.5v50h713l29 -308h-46q-28 144 -66.5 194.5t-120.5 50.5h-228v-561h222q53 0 69 28q21 35 27 141h46v-402h-46q-3 100 -24.5 135
t-80.5 35h-213z" />
    <glyph glyph-name="G" unicode="G" horiz-adv-x="1043" 
d="M791 1273l60 116h33v-405h-46q-35 158 -97 247q-65 93 -185 93q-305 0 -305 -653q0 -161 24.5 -294t67.5 -209q74 -132 208 -132q96 0 203 70v354q0 58 -22 76.5t-98 25.5v50q108 -12 189 -12q80 0 189 12v-50q-74 -8 -91.5 -25t-17.5 -81v-338q-197 -141 -358 -141
q-225 0 -342 203q-115 199 -115 505q0 303 113 499q59 103 155 159q81 47 180 47q150 0 255 -117z" />
    <glyph glyph-name="H" unicode="H" horiz-adv-x="1131" 
d="M344 744h443v442q0 80 -22 103.5t-106 31.5v50q124 -15 206 -15t203 15v-50q-85 -8 -106.5 -31t-21.5 -104v-1006q0 -81 21.5 -104t106.5 -32v-50q-126 15 -203 15t-206 -15v50q85 9 106.5 32t21.5 104v501h-443v-501q0 -81 21.5 -104t106.5 -32v-50q-129 15 -206 15
t-203 -15v50q85 9 106.5 32t21.5 104v1006q0 80 -21.5 103t-106.5 32v50q121 -15 203 -15t206 15v-50q-84 -8 -106 -31.5t-22 -103.5v-442z" />
    <glyph glyph-name="I" unicode="I" horiz-adv-x="534" 
d="M472 44v-50q-130 15 -204 15q-75 0 -205 -15v50q84 8 106 31.5t22 104.5v1005q0 81 -22 105t-106 31v50q124 -15 205 -15q80 0 204 15v-50q-83 -7 -105.5 -31t-22.5 -105v-1005q0 -81 22 -104.5t106 -31.5z" />
    <glyph glyph-name="J" unicode="J" horiz-adv-x="531" 
d="M1 -142v61q20 -2 33 -2q90 0 124 55t34 202v1011q0 82 -21.5 105t-106.5 31v50q124 -15 205 -15q80 0 204 15v-50q-84 -8 -106 -31t-22 -105v-940q0 -103 -10 -157.5t-37 -103.5q-74 -129 -240 -129q-25 0 -57 3z" />
    <glyph glyph-name="K" unicode="K" horiz-adv-x="1064" 
d="M493 828l359 -653q41 -74 77 -100t105 -31v-50q-123 16 -212 16q-88 0 -218 -16v50q18 2 26 3q87 8 87 45q0 24 -29 78l-284 535l-66 -92v-433q0 -81 21.5 -104.5t102.5 -31.5v-50q-108 15 -192 15t-207 -15v50q83 7 105.5 31t22.5 105v1005q0 81 -22 105t-106 31v50
q125 -15 206 -15q82 0 197 15v-50q-84 -7 -106 -30.5t-22 -105.5v-470l365 511q22 31 22 54q0 20 -20 28t-81 13v50q91 -9 169 -9q77 0 168 9v-50q-73 -5 -111 -26t-82 -82z" />
    <glyph glyph-name="L" unicode="L" horiz-adv-x="849" 
d="M823 330l-38 -330h-722v50q85 9 106.5 32t21.5 104v999q0 82 -21.5 104.5t-106.5 32.5v49q124 -15 205 -15q80 0 204 15v-49q-85 -9 -106.5 -32t-21.5 -105v-995q0 -76 21 -101.5t83 -25.5h114q98 0 139 51t76 216h46z" />
    <glyph glyph-name="M" unicode="M" horiz-adv-x="1366" 
d="M293 1218l-34 -1038q-1 -17 -1 -19q0 -66 24.5 -87.5t110.5 -29.5v-50q-102 10 -164 10q-60 0 -167 -10v50q12 1 19 2q71 6 92 30.5t24 103.5l34 1005l1 17q0 67 -26 89.5t-110 29.5v50q78 -8 134 -8q77 0 171 11l293 -1020l294 1020q113 -11 170 -11q50 0 128 8v-50
q-87 -7 -111.5 -32t-23.5 -104l17 -1005q2 -93 34 -112q30 -17 101 -24v-50q-126 15 -212 15q-85 0 -206 -15v50q86 6 111 31t24 105l-16 1035l-340 -1179h-33z" />
    <glyph glyph-name="N" unicode="N" horiz-adv-x="1122" 
d="M932 -41h-26q-59 118 -170 326l-481 896v-1001q0 -55 6.5 -77.5t25.5 -33.5q31 -18 101 -25v-50q-118 10 -167 10q-51 0 -159 -10v50q89 9 111 31.5t22 104.5v1081q-23 31 -50.5 43.5t-83.5 16.5v50q73 -7 139 -7q60 0 119 7l553 -1023v837q0 55 -6.5 78t-24.5 33
q-34 19 -102 25v50q112 -10 167 -10q56 0 158 10v-50q-87 -8 -109.5 -31t-22.5 -105v-1226z" />
    <glyph glyph-name="O" unicode="O" horiz-adv-x="1056" 
d="M528 1391q119 0 219 -76q107 -83 164 -250.5t57 -404.5q0 -268 -113 -485q-52 -99 -154 -158q-75 -43 -169 -43q-163 0 -280 130q-79 89 -125 266q-38 146 -38 309q0 312 111 507q60 105 157 160q77 45 171 45zM530 1334q-111 0 -184 -128q-29 -50 -42 -97
q-52 -187 -52 -418q0 -173 25.5 -313.5t71.5 -221.5q71 -125 184 -125q109 0 177 120q30 53 43 104q52 193 52 424q0 175 -25 316.5t-70 216.5q-72 122 -180 122z" />
    <glyph glyph-name="P" unicode="P" horiz-adv-x="914" 
d="M344 616v-436q0 -81 21.5 -104t106.5 -32v-50q-130 15 -204 15q-75 0 -205 -15v50q85 9 106.5 32t21.5 104v999q0 81 -22 104.5t-106 31.5v50h421q196 0 281 -101q92 -109 92 -274q0 -88 -29.5 -166t-81.5 -125q-90 -83 -246 -83h-156zM344 679h101q256 0 256 318
q0 80 -23 150.5t-60 105.5q-53 49 -163 49h-111v-623z" />
    <glyph glyph-name="Q" unicode="Q" horiz-adv-x="1054" 
d="M799 97q-110 -123 -266 -123q-165 0 -281 130q-78 88 -125 266q-38 147 -38 309q0 309 111 507q58 104 156 160q77 45 171 45q137 0 245 -98q111 -102 162 -307q34 -137 34 -305q0 -253 -88 -449q95 -200 186 -202v-53h-46q-65 0 -103 19q-51 26 -118 101zM529 1334
q-111 0 -184 -128q-28 -50 -41 -97q-52 -187 -52 -415q0 -175 25.5 -316t70.5 -221q72 -126 181 -126q112 0 180 120q30 53 44 104q52 192 52 419q0 176 -25.5 319t-69.5 219q-73 122 -181 122z" />
    <glyph glyph-name="R" unicode="R" horiz-adv-x="997" 
d="M344 649v-469q0 -81 21 -104t107 -32v-50q-127 15 -203 15t-206 -15v50q85 9 106.5 32t21.5 104v999q0 81 -22 104.5t-106 31.5v50h428q184 0 273 -103q88 -102 88 -255q0 -139 -68.5 -225.5t-205.5 -119.5q60 -20 94 -59t60 -119l107 -322q23 -71 48 -93t85 -25v-50
q-65 6 -115 6q-51 0 -117 -6q-32 84 -45 126l-119 366q-32 97 -68 130t-111 33h-53zM344 712h112q115 0 172 67q31 36 49.5 100t18.5 134q0 289 -231 289h-121v-590z" />
    <glyph glyph-name="S" unicode="S" horiz-adv-x="871" 
d="M106 413h46q48 -367 281 -367q96 0 155 70q66 77 66 195q0 103 -46 167t-179 147q-111 69 -174 120q-70 57 -101 125t-31 164q0 84 29 157t80 118q85 75 205 75q131 0 214 -105l46 113h31v-377h-46q-25 144 -79 227q-53 80 -153 80q-86 0 -140 -64q-61 -72 -61 -177
q0 -94 43.5 -147.5t208.5 -160.5q108 -70 162 -119q118 -107 118 -290q0 -170 -94 -277q-92 -105 -236 -105t-258 115l-56 -128h-31v444z" />
    <glyph glyph-name="T" unicode="T" horiz-adv-x="884" 
d="M798 1053q-31 149 -69 199t-119 50h-92v-1122q0 -82 21 -104t107 -32v-50q-126 15 -204 15q-79 0 -205 -15v50q86 9 107 31.5t21 104.5v1122h-83q-59 0 -92 -21.5t-58 -76.5q-23 -50 -46 -151h-46l44 312h715l45 -312h-46z" />
    <glyph glyph-name="U" unicode="U" horiz-adv-x="1109" 
d="M732 1321v50q111 -10 166 -10q56 0 158 10v-50q-87 -8 -109.5 -31t-22.5 -105v-768q0 -172 -56 -272q-94 -168 -310 -168q-156 0 -256 91q-65 58 -92.5 137t-27.5 204v776q0 82 -21.5 104.5t-106.5 31.5v50q124 -15 205 -15q80 0 204 15v-50q-84 -8 -106 -31.5
t-22 -104.5v-792q0 -150 34 -211q64 -114 220 -114q128 0 204 81q71 76 71 257v779q0 82 -22.5 104.5t-109.5 31.5z" />
    <glyph glyph-name="V" unicode="V" horiz-adv-x="1072" 
d="M577 273l250 896q19 67 19 92q0 29 -24.5 42.5t-84.5 17.5v50q83 -11 151 -11q69 0 158 11v-50q-69 -6 -98.5 -30.5t-47.5 -88.5l-348 -1227h-41l-337 1220q-20 75 -46 97t-101 29v50q106 -15 198 -15t199 15v-50q-102 -10 -102 -58q0 -21 13 -69z" />
    <glyph glyph-name="W" unicode="W" horiz-adv-x="1457" 
d="M472 -25h-33l-266 1226q-14 66 -40.5 90.5t-92.5 29.5v50q100 -15 194 -15t193 15v-50q-61 -6 -84.5 -19.5t-23.5 -41.5q0 -22 8 -61l179 -839l249 1036h37l246 -1037l183 835q10 47 10 71q0 49 -103 56v50q77 -11 146 -11t146 11v-50q-66 -5 -92.5 -26.5t-39.5 -80.5
l-279 -1237h-33l-250 1058z" />
    <glyph glyph-name="X" unicode="X" horiz-adv-x="1038" 
d="M579 774l258 -598q36 -83 65 -105t109 -27v-50q-135 14 -221 14q-88 0 -209 -14v50q19 2 29 3q84 9 84 50q0 33 -29 101l-174 401l-211 -416q-31 -62 -31 -91q0 -41 104 -48v-50q-91 9 -162 9t-162 -9v50q43 2 70 12q60 23 120 142l240 475l-227 524q-32 74 -59.5 95.5
t-99.5 28.5v50q106 -14 207 -14q100 0 206 14v-50q-62 -6 -86 -18t-24 -35q0 -24 18 -66l153 -354l182 361q20 40 20 64q0 41 -103 48v50q81 -10 160 -10t159 10v-50q-71 -8 -102 -28t-61 -78z" />
    <glyph glyph-name="Y" unicode="Y" horiz-adv-x="990" 
d="M421 595l-239 614q-24 62 -53.5 83.5t-96.5 28.5v50q110 -14 207 -14q96 0 206 14v-50q-113 -8 -113 -52q0 -26 16 -66l201 -515l199 518q16 41 16 65q0 23 -24 34t-87 16v50q91 -10 155 -10t155 10v-50q-70 -10 -98 -31t-51 -79l-240 -616v-415q0 -82 21 -104t107 -32
v-50q-130 15 -205 15q-74 0 -204 -15v50q86 9 107 31.5t21 104.5v415z" />
    <glyph glyph-name="Z" unicode="Z" horiz-adv-x="902" 
d="M61 0l581 1302h-255q-63 0 -99 -19t-64 -67q-30 -52 -52 -153h-46l44 302h666l-580 -1302h292q63 0 93 10t53 39q56 68 100 221h46l-49 -333h-730z" />
    <glyph glyph-name="bracketleft" unicode="[" horiz-adv-x="527" 
d="M480 1304h-150v-1641h150v-61h-293v1763h293v-61z" />
    <glyph glyph-name="backslash" unicode="\" horiz-adv-x="681" 
d="M813 -398h-93l-695 1763h93z" />
    <glyph glyph-name="bracketright" unicode="]" horiz-adv-x="527" 
d="M47 -337h150v1641h-150v61h293v-1763h-293v61z" />
    <glyph glyph-name="asciicircum" unicode="^" 
d="M868 588h-60l-343 656l-345 -656h-149l451 846h10z" />
    <glyph glyph-name="underscore" unicode="_" 
d="M51 -179h739v-79h-739v79z" />
    <glyph glyph-name="grave" unicode="`" 
d="M519 1129h-69l-269 301h177z" />
    <glyph glyph-name="a" unicode="a" horiz-adv-x="785" 
d="M739 54v-54q-58 -14 -98 -14q-114 0 -128 168q-67 -172 -214 -172q-100 0 -162 71q-64 73 -64 190q0 159 122 245q122 87 297 115v145q0 94 -30 138.5t-93 44.5q-55 0 -89.5 -31t-34.5 -81q0 -12 1 -26q1 -20 1 -35q0 -86 -72 -86q-60 0 -60 70q0 101 83 175
q78 69 186 69q71 0 128.5 -32.5t88.5 -89.5q35 -65 35 -206v-428q0 -102 13.5 -142.5t48.5 -40.5q15 0 41 7zM492 550q-90 -21 -147 -54q-125 -73 -125 -239q0 -87 33.5 -137t91.5 -50q147 0 147 302v178z" />
    <glyph glyph-name="b" unicode="b" horiz-adv-x="850" 
d="M137 -23v1201q0 78 -19 99t-90 21v36q135 15 253 54v-553q39 81 84.5 115.5t111.5 34.5q135 0 217 -144q81 -145 81 -358q0 -211 -82 -354q-85 -148 -226 -148q-144 0 -209 177l-76 -181h-45zM458 928q-177 0 -177 -474q0 -224 47 -320q48 -96 126 -96q67 0 110 77
q60 107 60 371q0 442 -166 442z" />
    <glyph glyph-name="c" unicode="c" horiz-adv-x="734" 
d="M641 1009v-338h-43q-38 266 -176 266q-91 0 -139 -122t-48 -350q0 -205 47 -312t137 -107q145 0 173 269h66q-14 -144 -73 -237q-65 -100 -186 -100q-99 0 -178 72q-143 132 -143 427q0 216 82 358q90 157 242 157q101 0 168 -87l39 104h32z" />
    <glyph glyph-name="d" unicode="d" horiz-adv-x="860" 
d="M820 68v-36q-143 -20 -226 -53q-17 78 -24 160q-64 -164 -196 -164q-134 0 -215 141q-84 145 -84 361q0 217 82 361q81 141 214 141q64 0 106.5 -34t79.5 -114v347q0 78 -19 99t-90 21v36q134 15 253 54v-1180q0 -93 19 -115t100 -25zM386 922q-160 0 -160 -442
q0 -264 60 -372q41 -76 107 -76t110 79q56 101 56 326q0 485 -173 485z" />
    <glyph glyph-name="e" unicode="e" horiz-adv-x="771" 
d="M631 315h65q-12 -131 -74 -223q-74 -112 -215 -112q-165 0 -251 150q-81 142 -81 355q0 210 80 350q42 72 105 112t135 40q139 0 217 -124.5t83 -355.5h-472q3 -138 12 -207.5t33 -129.5q46 -122 158 -122q84 0 137.5 69.5t67.5 197.5zM551 575q-9 359 -158 359
q-71 0 -114.5 -93.5t-51.5 -265.5h324z" />
    <glyph glyph-name="f" unicode="f" horiz-adv-x="505" 
d="M311 967h181v-68h-181v-754q0 -66 20 -86t91 -24v-41q-113 12 -183 12t-183 -12v41q70 4 90.5 24t20.5 86v754h-106v56q76 3 96 25t21 104q1 116 28 180q27 61 79.5 95.5t118.5 34.5q83 0 127 -50q38 -43 38 -103q0 -77 -66 -77q-28 0 -46 16t-18 41q0 10 2 25q7 36 7 47
q0 21 -13.5 35.5t-33.5 14.5q-41 0 -65 -43q-25 -44 -25 -171v-162z" />
    <glyph glyph-name="g" unicode="g" horiz-adv-x="827" 
d="M576 932h218v-75l-163 13q46 -92 46 -185q0 -128 -59.5 -204t-192.5 -119q-121 -38 -153 -58t-32 -55q0 -24 15 -40q22 -24 130 -28q51 -1 120 -13.5t102 -25.5q69 -27 106 -82q45 -66 45 -154q0 -137 -97 -225q-95 -87 -259 -87q-85 0 -159 27.5t-116 74.5
q-68 74 -68 182q0 150 158 219q-83 45 -83 119q0 113 180 166q-67 24 -111 68q-84 85 -84 222q0 170 96 250q76 63 192 63q96 0 169 -53zM401 933q-53 0 -90 -41q-24 -26 -40 -84.5t-16 -118.5q0 -142 48 -215q34 -52 95 -52q68 0 103 65q39 72 39 200q0 118 -36 182
t-103 64zM384 36q-108 0 -173 -37q-80 -46 -80 -138q0 -82 63 -136q77 -67 202 -67q141 0 207 73q47 51 47 125q0 78 -51 122q-31 26 -90.5 42t-124.5 16z" />
    <glyph glyph-name="h" unicode="h" horiz-adv-x="905" 
d="M47 1298v36q131 15 254 54v-539q78 137 209 137q62 0 114 -31t83 -87q42 -75 42 -220v-503q0 -66 20 -85.5t90 -24.5v-41q-106 12 -179 12t-177 -12v40q61 3 81.5 24.5t20.5 83.5v513q0 124 -29 175q-36 63 -111 63q-90 0 -134 -83q-30 -56 -30 -163v-505q0 -61 20 -82.5
t80 -25.5v-40q-105 12 -177 12q-71 0 -178 -12v41q71 5 91 24.5t20 85.5v1033q0 78 -19 99t-91 21z" />
    <glyph glyph-name="i" unicode="i" horiz-adv-x="477" 
d="M314 1003v-858q0 -66 20 -85.5t90 -24.5v-41q-115 12 -182 12t-183 -12v41q71 5 91 24.5t20 85.5v648q0 78 -19 98.5t-91 21.5v35q134 16 254 55zM237 1351q40 0 69 -29.5t29 -70.5t-29 -70t-71 -29q-41 0 -70 29t-29 71q0 41 29.5 70t71.5 29z" />
    <glyph glyph-name="j" unicode="j" horiz-adv-x="472" 
d="M56 913v35q134 16 254 55v-975q0 -254 -108 -357q-90 -85 -225 -86v53q103 21 146 90.5t43 213.5v851q0 77 -19 98t-91 22zM235 1357q40 0 69 -29.5t29 -70.5t-29 -70t-71 -29q-41 0 -70 29.5t-29 70.5t29.5 70t71.5 29z" />
    <glyph glyph-name="k" unicode="k" horiz-adv-x="896" 
d="M491 624l231 -478q33 -67 60 -87t87 -24v-41q-69 7 -116 7t-115 -7l-237 517l-100 -133v-233q0 -65 20 -85t91 -25v-41q-117 12 -185 12t-181 -12v41q71 5 91 24.5t20 85.5v1033q0 78 -19 99t-91 21v36q136 16 254 54v-923l261 353q27 36 27 67q0 41 -89 47v41
q82 -10 150 -10q67 0 162 10v-41q-64 -7 -94.5 -25t-70.5 -72z" />
    <glyph glyph-name="l" unicode="l" horiz-adv-x="468" 
d="M311 1388v-1243q0 -66 20 -85.5t90 -24.5v-41q-115 12 -182 12t-183 -12v41q71 5 91 24.5t20 85.5v1033q0 78 -19 99t-91 21v36q131 15 254 54z" />
    <glyph glyph-name="m" unicode="m" horiz-adv-x="1326" 
d="M59 907v35q135 24 221 62q14 -85 18 -175q33 62 67 95q62 62 153 62q142 0 198 -160q45 86 97.5 123t128.5 37q132 0 188 -101q38 -67 38 -210v-530q0 -66 20.5 -86t91.5 -24v-41q-107 12 -179 12q-73 0 -178 -12v40q61 4 81 25t20 83v537q0 113 -25 157q-31 56 -103 56
q-156 0 -156 -231v-519q0 -61 20 -82.5t81 -25.5v-40q-105 12 -173 12t-173 -12v40q61 4 81 25.5t20 82.5v534q0 114 -25 159q-32 57 -99 57q-39 0 -74 -21t-53 -55q-32 -60 -32 -177v-497q0 -62 20 -83t81 -25v-40q-104 12 -177 12q-72 0 -179 -12v41q71 4 91 24t20 86v634
q0 93 -13.5 109t-96.5 19z" />
    <glyph glyph-name="n" unicode="n" horiz-adv-x="918" 
d="M61 907v35q131 23 220 61q13 -67 18 -178q85 161 224 161q61 0 113.5 -31.5t83.5 -86.5q42 -75 42 -220v-503q0 -65 20 -85t91 -25v-41q-107 12 -179 12q-74 0 -178 -12v40q61 3 81.5 24.5t20.5 83.5v513q0 124 -29 175q-36 63 -111 63q-89 0 -134 -82q-30 -57 -30 -164
v-505q0 -61 20 -82.5t80 -25.5v-40q-105 12 -177 12q-71 0 -178 -12v41q71 5 91 24.5t20 85.5v634q0 89 -15.5 107t-93.5 21z" />
    <glyph glyph-name="o" unicode="o" horiz-adv-x="789" 
d="M402 992q110 0 190 -91q54 -62 87.5 -177t33.5 -237q0 -213 -85 -359q-87 -150 -235 -150q-95 0 -172 71q-70 64 -108 177.5t-38 256.5q0 213 82 352q93 157 245 157zM397 939q-66 0 -109 -77q-62 -112 -62 -383q0 -448 167 -448q66 0 108 75q61 109 61 374
q0 459 -165 459z" />
    <glyph glyph-name="p" unicode="p" horiz-adv-x="871" 
d="M46 917v35q123 12 217 38q16 -61 24 -173q73 169 204 169q137 0 222 -147q83 -144 83 -355q0 -213 -82 -357q-82 -145 -219 -145q-65 0 -109 31t-85 106v-377q0 -66 20 -86t90 -25v-41q-113 13 -186 13t-179 -13v41q70 4 90.5 24.5t20.5 86.5v1051q0 79 -19 100t-92 24z
M476 929q-73 0 -119 -83q-58 -107 -58 -351q0 -456 179 -456q167 0 167 440q0 450 -169 450z" />
    <glyph glyph-name="q" unicode="q" horiz-adv-x="870" 
d="M824 917q-14 -1 -21 -1q-55 -3 -72.5 -26.5t-17.5 -96.5v-1051q0 -66 20 -86t90 -25v-41q-103 13 -177 13q-73 0 -187 -13v41q70 4 90 24.5t20 86.5v382q-40 -77 -84.5 -109.5t-109.5 -32.5q-137 0 -218 145q-82 144 -82 357q0 211 82 354q85 148 223 148q133 0 203 -169
q9 109 24 173q92 -25 217 -38v-35zM395 929q-169 0 -169 -448q0 -442 168 -442q73 0 118 81q60 110 60 361q0 266 -59 366q-48 82 -118 82z" />
    <glyph glyph-name="r" unicode="r" horiz-adv-x="642" 
d="M424 35v-41q-113 12 -183 12t-183 -12v41q71 5 91 24.5t20 85.5v642q0 84 -15 106t-73 22h-21v35q151 25 219 49q12 -95 17 -193q52 186 188 186q63 0 101 -44q39 -44 39 -115q0 -106 -78 -106q-30 0 -49.5 19t-19.5 49q0 13 5 36q4 19 4 31q0 18 -12.5 31t-29.5 13
q-62 0 -96.5 -88t-34.5 -244v-429q0 -66 21 -87t90 -23z" />
    <glyph glyph-name="s" unicode="s" horiz-adv-x="718" 
d="M97 -24v342h44q34 -274 201 -274q69 0 115 52q47 52 47 127q0 57 -20 87q-32 51 -128 105q-148 84 -192 133q-56 62 -56 169q0 133 82 206q70 62 168 62q92 0 162 -64l24 83h34v-318h-44q-19 241 -163 241q-64 0 -106 -47q-41 -47 -41 -116q0 -62 29 -99t117 -86
q119 -66 168 -108q88 -73 88 -196q0 -145 -92 -228q-71 -65 -175 -65q-109 0 -194 85l-34 -91h-34z" />
    <glyph glyph-name="t" unicode="t" horiz-adv-x="528" 
d="M499 102l-1 -60q-81 -60 -156 -60q-131 0 -172 123q-19 58 -18 202l6 592h-101v56q72 6 112 54q61 71 88 250h45l-1 -292h184v-68h-184l-1 -610q0 -83 5 -122t19 -66q22 -39 71 -39q42 0 104 40z" />
    <glyph glyph-name="u" unicode="u" horiz-adv-x="901" 
d="M36 913v35q130 16 253 55v-694q0 -121 29 -172q35 -62 113 -62q163 0 163 261v457q0 78 -19.5 99t-89.5 21v35q130 15 253 55v-820q0 -79 16 -95.5t97 -18.5v-36q-133 -16 -227 -54q-13 88 -13 152v23q-40 -90 -92.5 -130.5t-130.5 -40.5q-138 0 -202 114q-41 72 -41 215
v481q0 78 -19.5 99t-89.5 21z" />
    <glyph glyph-name="v" unicode="v" horiz-adv-x="815" 
d="M430 -26h-44l-255 865q-16 56 -37.5 72.5t-84.5 20.5v41q121 -11 182 -11q67 0 172 11v-41q-88 1 -88 -44q0 -16 10 -51l165 -597l173 592q13 44 13 62q0 39 -82 38v41q84 -9 127 -9q41 0 125 9v-41q-59 -4 -81.5 -22.5t-39.5 -76.5z" />
    <glyph glyph-name="w" unicode="w" horiz-adv-x="1180" 
d="M590 711l-196 -736h-47l-203 824l-8 29q-15 63 -35 81t-79 23v41q96 -10 171 -10t172 10v-41q-94 1 -94 -45q0 -11 10 -52l134 -563l192 720h52l191 -723l138 564q9 39 9 55q0 45 -90 44v41q78 -8 136 -8q57 0 122 8v-41q-56 -4 -81 -24.5t-38 -73.5l-213 -859h-47z" />
    <glyph glyph-name="x" unicode="x" horiz-adv-x="856" 
d="M452 623l120 213q20 36 20 60q0 32 -81 36v41q79 -8 134 -8t135 8v-41q-58 -4 -85 -21t-55 -68l-160 -280l195 -422q31 -65 57 -84.5t88 -21.5v-41q-108 11 -181 11q-74 0 -179 -11v41q83 5 83 40q0 20 -17 57l-130 283l-147 -265q-27 -48 -27 -75q0 -34 87 -40v-41
q-92 9 -137 9q-44 0 -136 -9v41q38 3 60 11q40 16 92 108l180 322l-172 370q-23 49 -49 66.5t-81 19.5v41q103 -11 174 -11q72 0 171 11v-41q-76 -5 -76 -38q0 -16 19 -57z" />
    <glyph glyph-name="y" unicode="y" horiz-adv-x="838" 
d="M391 33l-242 804q-17 55 -39.5 73t-84.5 22v41q93 -10 174 -10q80 0 174 10v-41q-86 -7 -86 -41q0 -16 12 -57l164 -570l171 561q13 41 14 62q2 42 -94 45v41q62 -8 123 -8q66 0 144 8v-41q-56 -8 -82 -29t-42 -72l-309 -1000q-38 -122 -94.5 -176.5t-144.5 -54.5
q-7 0 -22 1v103q87 0 133.5 38.5t79.5 137.5z" />
    <glyph glyph-name="z" unicode="z" horiz-adv-x="753" 
d="M66 0l436 914h-172q-78 0 -113 -42q-37 -44 -74 -171h-39l37 266h544l-438 -914h183q61 0 90 17.5t57 72.5q25 46 55 152h40l-43 -295h-563z" />
    <glyph glyph-name="braceleft" unicode="{" horiz-adv-x="541" 
d="M447 -433h-44q-78 0 -119 25q-43 25 -62 74t-19 133v538q0 73 -20.5 109t-76.5 61q56 26 76.5 61.5t20.5 108.5v491q0 84 19 133t62 74q41 24 119 24h44q-103 -34 -103 -183v-500q0 -87 -22.5 -129t-88.5 -80q40 -23 63 -45q48 -45 48 -164v-547q0 -148 103 -184z" />
    <glyph glyph-name="bar" unicode="|" 
d="M381 1365h78v-1706h-78v1706z" />
    <glyph glyph-name="braceright" unicode="}" horiz-adv-x="540" 
d="M94 1399h44q78 0 118 -24q43 -25 62 -74t19 -133v-491q0 -73 20.5 -109t77.5 -61q-56 -24 -77 -60.5t-21 -109.5v-538q0 -126 -45.5 -179t-153.5 -53h-44q104 38 104 184v547q0 87 22 129t87 80q-39 23 -62 45q-47 45 -47 164v500q0 147 -104 183z" />
    <glyph glyph-name="asciitilde" unicode="~" horiz-adv-x="1113" 
d="M872 751l45 -18q-29 -92 -86.5 -149.5t-120.5 -57.5q-41 0 -120 36q-158 72 -221 72q-43 0 -66.5 -19.5t-63.5 -88.5l-43 20q77 205 209 205q54 0 172 -56q100 -47 152 -47q42 0 80.5 28t62.5 75z" />
    <glyph glyph-name="nonbreakingspace" unicode="&#xa0;" horiz-adv-x="430" 
 />
    <glyph glyph-name="exclamdown" unicode="&#xa1;" horiz-adv-x="434" 
d="M258 557l30 -930h-141l30 930h81zM216 961q40 0 69 -29.5t29 -69.5q0 -42 -29 -71t-70 -29q-42 0 -71 29.5t-29 70.5t29.5 70t71.5 29z" />
    <glyph glyph-name="cent" unicode="&#xa2;" horiz-adv-x="881" 
d="M511 1184q73 -14 126 -82l39 103h32v-337h-44q-35 238 -153 262v-885q123 27 148 267h66q-29 -293 -214 -334v-154h-57v150q-110 7 -190 98q-119 134 -119 401q0 301 146 441q70 67 163 74v151h57v-155zM454 245v883q-152 -49 -152 -461q0 -190 39 -298t113 -124z" />
    <glyph glyph-name="sterling" unicode="&#xa3;" horiz-adv-x="878" 
d="M705 1132q-9 97 -39.5 141t-87.5 44q-74 0 -120 -71q-31 -48 -43 -100q-17 -77 -29 -194l-21 -213h197v-69h-204l-25 -241q-21 -208 -130 -362q101 62 172 62q38 0 108 -20q57 -16 100 -16q111 0 140 203h57q-18 -168 -73.5 -232t-183.5 -64h-425q36 58 55 132.5
t33 212.5l31 325h-119v69h125l17 169q23 230 104 352q86 128 223 128q187 0 203 -256h-65z" />
    <glyph glyph-name="currency" unicode="&#xa4;" horiz-adv-x="1133" 
d="M104 184l151 154q-80 110 -80 234q0 123 80 230l-156 154l78 79l154 -154q113 81 236 81t235 -81l155 153l78 -78l-154 -153q80 -112 80 -234q0 -124 -79 -231l154 -154l-77 -78l-155 154q-110 -80 -234 -80q-122 0 -236 80l-153 -154zM571 843q-115 0 -195 -80
q-78 -79 -78 -193q0 -111 79 -190q80 -80 191 -80q112 0 191 80q79 79 79 191q0 115 -78 192q-82 80 -189 80z" />
    <glyph glyph-name="yen" unicode="&#xa5;" horiz-adv-x="877" 
d="M300 807h-200v85h174l-97 315q-19 60 -46.5 84t-87.5 30v50q114 -14 188 -14t185 14v-50q-100 -11 -100 -53q0 -19 14 -65l155 -519l159 521q14 46 14 66q0 42 -97 50v50q87 -10 137 -10t140 10v-50q-66 -10 -92.5 -33t-46.5 -88l-93 -308h172v-85h-198l-43 -143h241v-85
h-262v-399q0 -82 21.5 -105t106.5 -31v-50q-127 15 -205 15q-77 0 -204 -15v50q84 8 106 31t22 105v399h-263v85h244z" />
    <glyph glyph-name="brokenbar" unicode="&#xa6;" 
d="M381 1365h78v-679h-78v679zM381 314h78v-655h-78v655z" />
    <glyph glyph-name="section" unicode="&#xa7;" horiz-adv-x="878" 
d="M312 820q-55 41 -85 77q-71 85 -71 198q0 133 95 217q80 71 194 71q124 0 200 -89.5t76 -237.5h-56q-6 72 -23 110q-29 60 -80.5 96t-109.5 36q-94 0 -144 -77q-34 -51 -34 -108q0 -48 22 -85t75 -77q41 -31 112 -76q117 -74 166 -115q102 -83 102 -216q0 -91 -47.5 -164
t-129.5 -111q75 -48 109 -93q57 -77 57 -179q0 -135 -90 -220q-83 -78 -211 -78q-135 0 -218 90t-84 237h58q1 -71 31 -127q65 -121 196 -121q85 0 141.5 51t56.5 128q0 85 -56 140q-24 24 -112 77q-193 115 -259 192.5t-66 185.5q0 194 185 268zM361 781
q-132 -47 -132 -160q0 -132 204 -262l86 -55q118 58 118 181q0 77 -42 126q-25 28 -118 91z" />
    <glyph glyph-name="dieresis" unicode="&#xa8;" horiz-adv-x="847" 
d="M280 1363q38 0 65 -27.5t27 -65.5q0 -39 -27 -66t-66 -27t-66 27.5t-27 66.5q0 38 27.5 65t66.5 27zM576 1363q37 0 64 -27.5t27 -65.5q0 -39 -27 -66t-66 -27t-66 27.5t-27 66.5q0 38 27.5 65t67.5 27z" />
    <glyph glyph-name="copyright" unicode="&#xa9;" horiz-adv-x="1466" 
d="M743 1318q-280 0 -464 -210q-157 -180 -157 -418q0 -286 202 -474q175 -163 410 -163q163 0 305 85q143 85 224 231q82 147 82 317q0 279 -202 469q-95 89 -217 130q-97 33 -183 33zM906 558h47q-3 -120 -49 -199q-28 -46 -76.5 -73.5t-104.5 -27.5q-102 0 -177 82
q-45 49 -73 143t-28 198q0 178 69 298q74 128 213 128q92 0 157 -68l34 66h27v-251h-33q-39 200 -170 200q-68 0 -111 -50q-31 -38 -52 -124.5t-21 -181.5q0 -372 183 -372q74 0 117 60t48 172zM744 1388q175 0 331 -94q159 -97 250 -258t91 -351q0 -189 -91 -352
q-92 -163 -250 -257q-159 -94 -341 -94q-183 0 -342 94t-250 257q-91 164 -91 357q0 187 91 346q95 166 250 258q159 94 352 94z" />
    <glyph glyph-name="ordfeminine" unicode="&#xaa;" horiz-adv-x="592" 
d="M520 821v-48q-38 -9 -66 -9q-64 0 -80 93q-47 -96 -134 -96q-67 0 -109 48q-41 46 -41 120q0 99 76 152q80 55 194 74v69q0 64 -19 92t-62 28q-34 0 -56.5 -18.5t-22.5 -47.5q0 -7 1 -20v-17q0 -57 -48 -57q-39 0 -39 48q0 67 53 114q51 45 121 45q97 0 142 -79
q23 -41 23 -135v-257q0 -59 7.5 -82t27.5 -23q11 0 32 6zM360 1108q-91 -20 -133 -61t-42 -110q0 -108 80 -108q50 0 72.5 42.5t22.5 135.5v101zM69 653h471v-77h-471v77z" />
    <glyph glyph-name="guillemotleft" unicode="&#xab;" horiz-adv-x="674" 
d="M521 967h54l-129 -478l129 -489h-54l-207 489zM299 967h53l-128 -478l128 -489h-53l-207 489z" />
    <glyph glyph-name="logicalnot" unicode="&#xac;" 
d="M770 0h-153v470h-547v76h700v-546z" />
    <glyph glyph-name="uni00AD" unicode="&#xad;" horiz-adv-x="441" 
d="M10 503v88h421v-88h-421z" />
    <glyph glyph-name="registered" unicode="&#xae;" horiz-adv-x="1466" 
d="M654 656v-270q0 -45 12 -57t62 -17v-43q-80 10 -131 10t-133 -10v43q11 1 17 2q44 4 55.5 16.5t11.5 55.5v589q0 46 -13 57.5t-71 16.5v43h278q115 0 168 -64q55 -65 55 -155q0 -77 -40 -131t-111 -74q44 -25 71 -99l70 -191q16 -42 29 -53t55 -13v-43q-47 4 -75 4
q-27 0 -71 -4q-14 35 -30 79l-78 216q-21 59 -39.5 75.5t-61.5 16.5h-30zM655 707h70q133 0 133 170q0 164 -128 164h-75v-334zM744 1388q175 0 331 -94q159 -97 250 -258t91 -351q0 -189 -91 -352q-92 -163 -250 -257q-159 -94 -341 -94q-183 0 -342 94t-250 257
q-91 164 -91 357q0 187 91 346q95 166 250 258q159 94 352 94zM743 1317q-280 0 -464 -210q-157 -179 -157 -417q0 -286 202 -474q175 -163 410 -163q162 0 305 85t224 231q82 147 82 316q0 279 -202 469q-95 89 -217 130q-97 33 -183 33z" />
    <glyph glyph-name="macron" unicode="&#xaf;" 
d="M170 1191v83h500v-83h-500z" />
    <glyph glyph-name="degree" unicode="&#xb0;" horiz-adv-x="878" 
d="M443 1376q112 0 191 -87q68 -75 68 -176q0 -117 -87 -195q-75 -68 -176 -68q-117 0 -195 87q-68 75 -68 178q0 114 87 193q74 68 180 68zM442 1294q-83 0 -137 -60q-47 -51 -47 -120q0 -82 60 -135q52 -47 121 -47q81 0 134 60q47 51 47 121q0 79 -60 134q-51 47 -118 47
z" />
    <glyph glyph-name="plusminus" unicode="&#xb1;" horiz-adv-x="877" 
d="M98 636v109h290v364h111v-364h280v-109h-280v-350h-111v350h-290zM98 58v111h681v-111h-681z" />
    <glyph glyph-name="twosuperior" unicode="&#xb2;" horiz-adv-x="579" 
d="M484 973l-11 -98h-389v77q11 16 17 23q191 268 256 436q12 31 12 78q0 52 -28 85.5t-71 33.5q-111 0 -130 -169h-44q7 110 41 168q21 37 63.5 59t91.5 22q86 0 137 -58q48 -54 48 -133q0 -75 -47.5 -158t-250.5 -366h305z" />
    <glyph glyph-name="threesuperior" unicode="&#xb3;" horiz-adv-x="579" 
d="M75 1113h45q6 -82 31 -124q30 -49 98 -49q60 0 97 42q39 45 39 129t-37.5 124t-116.5 40h-17v56h17q64 0 96 38q35 41 35 113q0 60 -28 95.5t-75 35.5q-100 0 -123 -149h-44q19 224 190 224q86 0 137 -57q48 -53 48 -138q0 -127 -117 -182q143 -49 143 -204
q0 -119 -77 -189q-58 -53 -142 -53q-191 0 -199 248z" />
    <glyph glyph-name="acute" unicode="&#xb4;" 
d="M365 1129l161 301h177l-269 -301h-69z" />
    <glyph glyph-name="mu" unicode="&#xb5;" horiz-adv-x="850" 
d="M845 126v-64q-82 -83 -141 -83q-58 0 -88 38.5t-37 122.5q-79 -95 -124.5 -125.5t-106.5 -30.5q-138 0 -182 168q-1 -45 -1 -76q0 -114 16 -272q6 -55 6 -91q0 -43 -17 -71t-43 -28t-44 26t-18 64q0 44 11 123q48 402 47 753v357h144v-587q0 -87 6.5 -131.5t23.5 -78.5
q33 -65 100 -65q45 0 82.5 33t93.5 122v707h144v-701q0 -104 12 -133q11 -27 39 -27q32 0 77 50z" />
    <glyph glyph-name="paragraph" unicode="&#xb6;" horiz-adv-x="877" 
d="M815 1365v-50q-88 -7 -111.5 -31t-23.5 -105v-1277q0 -92 34 -112q28 -17 101 -24v-50q-150 16 -300 16q-151 0 -300 -16v50q83 9 104.5 32t21.5 104v766q-254 47 -254 360q0 106 35 183.5t98 111.5q78 42 227 42h368zM583 -69v1232q0 88 -13 113t-59 25t-59.5 -25
t-13.5 -112v-1234q0 -86 14 -112t59 -26q46 0 59 25t13 114z" />
    <glyph glyph-name="periodcentered" unicode="&#xb7;" horiz-adv-x="404" 
d="M204 599q40 0 69 -29.5t29 -70.5t-29 -70t-70 -29q-42 0 -71 29.5t-29 70.5t29.5 70t71.5 29z" />
    <glyph glyph-name="cedilla" unicode="&#xb8;" horiz-adv-x="851" 
d="M340 -160l69 160h70l-50 -120q150 -18 150 -139q0 -68 -44 -110t-116 -42q-58 0 -124 33v61q51 -19 83 -19q38 0 61.5 24t23.5 63q0 45 -28.5 65.5t-94.5 23.5z" />
    <glyph glyph-name="onesuperior" unicode="&#xb9;" horiz-adv-x="579" 
d="M348 1714v-725q0 -46 13 -58t66 -16v-44q-69 9 -131 9q-63 0 -131 -9v44q53 4 66 16t13 58v547h-109v42q136 14 172 136h41z" />
    <glyph glyph-name="ordmasculine" unicode="&#xba;" horiz-adv-x="592" 
d="M300 1391q91 0 146.5 -88t55.5 -233q0 -79 -26 -152t-67 -110q-51 -47 -114 -47q-75 0 -130 62q-35 40 -55.5 108.5t-20.5 144.5q0 127 50 212q61 103 161 103zM298 1345q-101 0 -101 -271q0 -267 99 -267q47 0 73 65.5t26 184.5q0 288 -97 288zM60 653h471v-77h-471v77z
" />
    <glyph glyph-name="guillemotright" unicode="&#xbb;" horiz-adv-x="674" 
d="M153 967l206 -478l-206 -489h-54l129 489l-129 478h54zM375 967l207 -478l-207 -489h-54l129 489l-129 478h54z" />
    <glyph glyph-name="onequarter" unicode="&#xbc;" horiz-adv-x="1218" 
d="M963 -18v227h-278l282 614h106v-523h99v-91h-99v-227h-110zM965 300v399l-181 -399h181zM348 1373v-726q0 -45 13 -57t66 -16v-44q-68 9 -131 9q-64 0 -131 -9v44q53 4 66 16t13 57v548h-109v42q136 14 172 136h41zM287 0l627 1336h83l-627 -1336h-83z" />
    <glyph glyph-name="onehalf" unicode="&#xbd;" horiz-adv-x="1218" 
d="M348 1373v-726q0 -45 13 -57t66 -16v-44q-68 9 -131 9q-64 0 -131 -9v44q53 4 66 16t13 57v548h-109v42q136 14 172 136h41zM1122 98l-11 -98h-389v77q11 16 17 23q191 270 256 436q12 31 12 78q0 52 -28 85.5t-71 33.5q-111 0 -130 -169h-44q7 110 41 168q21 37 63.5 59
t91.5 22q86 0 137 -58q48 -54 48 -133q0 -75 -47.5 -158.5t-250.5 -365.5h305zM255 0l627 1336h82l-627 -1336h-82z" />
    <glyph glyph-name="threequarters" unicode="&#xbe;" horiz-adv-x="1218" 
d="M963 -18v227h-278l283 614h105v-523h99v-91h-99v-227h-110zM965 300v399l-181 -399h181zM75 771h45q6 -82 31 -123q30 -50 98 -50q60 0 97 42q39 45 39 129t-37.5 124t-116.5 40h-17v57h17q64 0 96 38q35 41 35 112q0 60 -28 95.5t-75 35.5q-100 0 -123 -148h-44
q19 223 190 223q86 0 137 -57q48 -53 48 -138q0 -126 -117 -182q143 -49 143 -204q0 -118 -77 -189q-58 -53 -142 -53q-191 0 -199 248zM296 0l626 1336h83l-627 -1336h-82z" />
    <glyph glyph-name="questiondown" unicode="&#xbf;" horiz-adv-x="647" 
d="M338 575h70q7 -62 7 -108q0 -97 -23 -161.5t-86 -147.5q-64 -84 -87.5 -137t-23.5 -114q0 -80 39.5 -128t106.5 -48q82 0 130 62t57 179h46q0 -101 -25 -177q-21 -67 -74 -115q-73 -67 -179 -67q-111 0 -177 76q-71 82 -71 216q0 94 32 160t122 155q64 63 91 107
q47 78 47 208q0 16 -2 40zM360 964q40 0 69 -29.5t29 -69.5q0 -42 -29 -71t-71 -29q-41 0 -70 29.5t-29 70.5t29.5 70t71.5 29z" />
    <glyph glyph-name="Agrave" unicode="&#xc0;" horiz-adv-x="1074" 
d="M310 397l-58 -194q-21 -73 -21 -101q0 -51 108 -58v-50q-94 11 -156 11t-156 -11v50q75 7 101 31t53 112l377 1224l341 -1246q19 -71 45 -92t103 -29v-50q-112 15 -199 15t-200 -15v50q98 10 98 59q0 28 -11 71l-56 223h-369zM329 460h335l-153 604zM651 1483h-78
l-323 281h195z" />
    <glyph glyph-name="Aacute" unicode="&#xc1;" horiz-adv-x="1074" 
d="M310 397l-58 -194q-21 -73 -21 -101q0 -51 108 -58v-50q-94 11 -156 11t-156 -11v50q75 7 101 31t53 112l377 1224l341 -1246q19 -71 45 -92t103 -29v-50q-112 15 -199 15t-200 -15v50q98 10 98 59q0 28 -11 71l-56 223h-369zM329 460h335l-153 604zM483 1483l206 281
h195l-323 -281h-78z" />
    <glyph glyph-name="Acircumflex" unicode="&#xc2;" horiz-adv-x="1074" 
d="M310 397l-58 -194q-21 -73 -21 -101q0 -51 108 -58v-50q-94 11 -156 11t-156 -11v50q75 7 101 31t53 112l377 1224l341 -1246q19 -71 45 -92t103 -29v-50q-112 15 -199 15t-200 -15v50q98 10 98 59q0 28 -11 71l-56 223h-369zM329 460h335l-153 604zM278 1485l233 277h92
l233 -277h-82l-197 171l-197 -171h-82z" />
    <glyph glyph-name="Atilde" unicode="&#xc3;" horiz-adv-x="1074" 
d="M310 397l-58 -194q-21 -73 -21 -101q0 -51 108 -58v-50q-94 11 -156 11t-156 -11v50q75 7 101 31t53 112l377 1224l341 -1246q19 -71 45 -92t103 -29v-50q-112 15 -199 15t-200 -15v50q98 10 98 59q0 28 -11 71l-56 223h-369zM329 460h335l-153 604zM333 1522l-48 15
q23 106 61 154t99 48q33 0 63 -16t78 -58q50 -45 90 -45q37 0 59.5 24.5t38.5 82.5l47 -13q-12 -86 -37 -127q-51 -83 -126 -83q-32 0 -62 16.5t-79 59.5q-47 43 -85 43q-66 0 -99 -101z" />
    <glyph glyph-name="Adieresis" unicode="&#xc4;" horiz-adv-x="1074" 
d="M310 397l-58 -194q-21 -73 -21 -101q0 -51 108 -58v-50q-94 11 -156 11t-156 -11v50q75 7 101 31t53 112l377 1224l341 -1246q19 -71 45 -92t103 -29v-50q-112 15 -199 15t-200 -15v50q98 10 98 59q0 28 -11 71l-56 223h-369zM329 460h335l-153 604zM413 1725
q40 0 69 -29.5t29 -69.5q0 -42 -29 -71t-71 -29q-41 0 -70 29.5t-29 70.5t29.5 70t71.5 29zM707 1725q40 0 69 -29.5t29 -69.5q0 -42 -29 -71t-71 -29q-41 0 -70 29.5t-29 70.5t29.5 70t71.5 29z" />
    <glyph glyph-name="Aring" unicode="&#xc5;" horiz-adv-x="1074" 
d="M310 397l-58 -194q-21 -73 -21 -101q0 -51 108 -58v-50q-94 11 -156 11t-156 -11v50q75 7 101 31t53 112l377 1224l341 -1246q19 -71 45 -92t103 -29v-50q-112 15 -199 15t-200 -15v50q98 10 98 59q0 28 -11 71l-56 223h-369zM329 460h335l-153 604zM560 1788
q63 0 108 -46t45 -110q0 -70 -51 -116q-45 -40 -105 -40q-64 0 -109.5 46t-45.5 111t46 110t112 45zM559 1720q-37 0 -63 -25.5t-26 -61.5q0 -37 25.5 -63t61.5 -26q37 0 62.5 26t25.5 62t-25.5 62t-60.5 26z" />
    <glyph glyph-name="AE" unicode="&#xc6;" horiz-adv-x="1502" 
d="M1367 1365l29 -308h-46q-28 145 -66 195t-118 50h-231v-561h223q38 0 54.5 12t26.5 47q11 38 14 110h46v-402h-46q-3 99 -24.5 134.5t-78.5 35.5h-215v-494q0 -73 21.5 -97t86.5 -24h112q65 0 99 20t60 74q31 62 53 173h46l-37 -330h-729v50q88 8 111.5 31.5t23.5 104.5
v276h-382l-138 -305q-19 -41 -19 -65t25 -34.5t88 -13.5v-50q-113 10 -162 10t-167 -10v50q48 4 76 15q53 19 105 133l539 1173h620zM782 525v771l-353 -771h353z" />
    <glyph glyph-name="Ccedilla" unicode="&#xc7;" horiz-adv-x="991" 
d="M551 -25l-39 -94q155 -13 155 -146q0 -71 -45.5 -116.5t-116.5 -45.5q-59 0 -131 32v68q50 -19 84 -19q39 0 64.5 26t25.5 66q0 47 -29.5 67.5t-99.5 22.5l60 141q-130 18 -225 126q-77 88 -121 241t-44 336q0 306 117 511q58 101 154 156q77 44 174 44q152 0 252 -120
l54 116h33v-403h-46q-30 156 -92 247q-64 94 -183 94q-138 0 -205 -130q-96 -185 -96 -520q0 -311 91 -475q76 -135 208 -135q121 0 192.5 103.5t80.5 291.5h61q-7 -216 -95 -344.5t-238 -140.5z" />
    <glyph glyph-name="Egrave" unicode="&#xc8;" horiz-adv-x="911" 
d="M822 330l-37 -330h-722v50q83 8 105.5 31.5t22.5 104.5v993q0 81 -22 104.5t-106 31.5v50h713l29 -308h-46q-28 145 -66 195t-118 50h-231v-561h223q38 0 54.5 11.5t26.5 47.5q12 39 14 110h46v-402h-46q-2 98 -24 134t-80 36h-214v-494q0 -73 21.5 -97t86.5 -24h112
q65 0 99 20t60 74q31 62 53 173h46zM569 1483h-78l-322 281h194z" />
    <glyph glyph-name="Eacute" unicode="&#xc9;" horiz-adv-x="911" 
d="M822 330l-37 -330h-722v50q83 8 105.5 31.5t22.5 104.5v993q0 81 -22 104.5t-106 31.5v50h713l29 -308h-46q-28 145 -66 195t-118 50h-231v-561h223q38 0 54.5 11.5t26.5 47.5q12 39 14 110h46v-402h-46q-2 98 -24 134t-80 36h-214v-494q0 -73 21.5 -97t86.5 -24h112
q65 0 99 20t60 74q31 62 53 173h46zM391 1483l207 281h194l-322 -281h-79z" />
    <glyph glyph-name="Ecircumflex" unicode="&#xca;" horiz-adv-x="911" 
d="M822 330l-37 -330h-722v50q83 8 105.5 31.5t22.5 104.5v993q0 81 -22 104.5t-106 31.5v50h713l29 -308h-46q-28 145 -66 195t-118 50h-231v-561h223q38 0 54.5 11.5t26.5 47.5q12 39 14 110h46v-402h-46q-2 98 -24 134t-80 36h-214v-494q0 -73 21.5 -97t86.5 -24h112
q65 0 99 20t60 74q31 62 53 173h46zM180 1485l232 277h93l232 -277h-81l-197 171l-197 -171h-82z" />
    <glyph glyph-name="Edieresis" unicode="&#xcb;" horiz-adv-x="911" 
d="M822 330l-37 -330h-722v50q83 8 105.5 31.5t22.5 104.5v993q0 81 -22 104.5t-106 31.5v50h713l29 -308h-46q-28 145 -66 195t-118 50h-231v-561h223q38 0 54.5 11.5t26.5 47.5q12 39 14 110h46v-402h-46q-2 98 -24 134t-80 36h-214v-494q0 -73 21.5 -97t86.5 -24h112
q65 0 99 20t60 74q31 62 53 173h46zM299 1725q40 0 69 -29.5t29 -69.5q0 -42 -29 -71t-70 -29q-42 0 -71 29.5t-29 70.5t29.5 70t71.5 29zM594 1725q40 0 69 -29.5t29 -69.5q0 -42 -29 -71t-71 -29q-41 0 -70 29.5t-29 70.5t29.5 70t71.5 29z" />
    <glyph glyph-name="Igrave" unicode="&#xcc;" horiz-adv-x="534" 
d="M472 44v-50q-130 15 -204 15q-75 0 -205 -15v50q84 8 106 31.5t22 104.5v1005q0 81 -22.5 105t-105.5 31v50q124 -15 205 -15q80 0 204 15v-50q-83 -7 -105.5 -31t-22.5 -105v-1005q0 -81 22 -104.5t106 -31.5zM362 1483h-78l-323 281h194z" />
    <glyph glyph-name="Iacute" unicode="&#xcd;" horiz-adv-x="534" 
d="M472 44v-50q-130 15 -204 15q-75 0 -205 -15v50q84 8 106 31.5t22 104.5v1005q0 81 -22 105t-106 31v50q124 -15 205 -15q80 0 204 15v-50q-83 -7 -105.5 -31t-22.5 -105v-1005q0 -81 22 -104.5t106 -31.5zM213 1483l206 281h195l-323 -281h-78z" />
    <glyph glyph-name="Icircumflex" unicode="&#xce;" horiz-adv-x="534" 
d="M472 44v-50q-130 15 -204 15q-75 0 -205 -15v50q84 8 106 31.5t22 104.5v1005q0 81 -22.5 105t-105.5 31v50q124 -15 205 -15q80 0 204 15v-50q-83 -7 -105.5 -31t-22.5 -105v-1005q0 -81 22 -104.5t106 -31.5zM2 1485l219 277h92l219 -277h-81l-184 171l-183 -171h-82z
" />
    <glyph glyph-name="Idieresis" unicode="&#xcf;" horiz-adv-x="535" 
d="M472 44v-50q-130 15 -204 15q-75 0 -205 -15v50q84 8 106 31.5t22 104.5v1005q0 81 -22.5 105t-105.5 31v50q124 -15 205 -15q80 0 204 15v-50q-83 -7 -105.5 -31t-22.5 -105v-1005q0 -81 22 -104.5t106 -31.5zM137 1725q40 0 69 -29.5t29 -69.5q0 -42 -29 -71t-70 -29
q-42 0 -71 29.5t-29 70.5t29.5 70t71.5 29zM404 1725q40 0 69 -29.5t29 -69.5q0 -42 -29 -71t-71 -29q-41 0 -70 29t-29 71q0 41 29.5 70t71.5 29z" />
    <glyph glyph-name="Eth" unicode="&#xd0;" horiz-adv-x="1062" 
d="M184 680h-128v75h128v424q0 81 -22.5 104.5t-105.5 31.5v50h396q210 0 323 -114q88 -88 141 -228q57 -155 57 -338q0 -252 -109 -455q-125 -230 -413 -230h-395v50q84 8 106 31t22 105v494zM337 680v-514q0 -68 18.5 -87.5t80.5 -19.5q197 0 282 153q92 168 92 474
q0 299 -92 465q-84 151 -274 151h-107v-547h243v-75h-243z" />
    <glyph glyph-name="Ntilde" unicode="&#xd1;" horiz-adv-x="1122" 
d="M932 -41h-26q-59 118 -170 326l-481 896v-1001q0 -55 6.5 -77.5t25.5 -33.5q31 -18 101 -25v-50q-118 10 -167 10q-51 0 -159 -10v50q89 9 111 31.5t22 104.5v1081q-23 31 -50.5 43.5t-83.5 16.5v50q73 -7 139 -7q60 0 119 7l553 -1023v837q0 55 -6.5 78t-24.5 33
q-34 19 -102 25v50q112 -10 167 -10q56 0 158 10v-50q-87 -8 -109.5 -31t-22.5 -105v-1226zM343 1522l-48 15q23 106 61 154t98 48q34 0 64 -16t77 -58q51 -45 90 -45q37 0 60 24.5t39 82.5l47 -13q-12 -86 -37 -127q-51 -83 -126 -83q-32 0 -62.5 16.5t-78.5 59.5t-85 43
q-66 0 -99 -101z" />
    <glyph glyph-name="Ograve" unicode="&#xd2;" horiz-adv-x="1056" 
d="M528 1391q119 0 219 -76q107 -83 164 -250.5t57 -404.5q0 -268 -113 -485q-52 -99 -154 -158q-75 -43 -169 -43q-163 0 -280 130q-79 89 -125 266q-38 146 -38 309q0 312 111 507q60 105 157 160q77 45 171 45zM530 1334q-111 0 -184 -128q-29 -50 -42 -97
q-52 -187 -52 -418q0 -173 25.5 -313.5t71.5 -221.5q71 -125 184 -125q109 0 177 120q30 53 43 104q52 193 52 424q0 175 -25 316.5t-70 216.5q-72 122 -180 122zM578 1483h-78l-323 281h195z" />
    <glyph glyph-name="Oacute" unicode="&#xd3;" horiz-adv-x="1056" 
d="M528 1391q119 0 219 -76q107 -83 164 -250.5t57 -404.5q0 -268 -113 -485q-52 -99 -154 -158q-75 -43 -169 -43q-163 0 -280 130q-79 89 -125 266q-38 146 -38 309q0 312 111 507q60 105 157 160q77 45 171 45zM530 1334q-111 0 -184 -128q-29 -50 -42 -97
q-52 -187 -52 -418q0 -173 25.5 -313.5t71.5 -221.5q71 -125 184 -125q109 0 177 120q30 53 43 104q52 193 52 424q0 175 -25 316.5t-70 216.5q-72 122 -180 122zM500 1483l206 281h194l-322 -281h-78z" />
    <glyph glyph-name="Ocircumflex" unicode="&#xd4;" horiz-adv-x="1056" 
d="M528 1391q119 0 219 -76q107 -83 164 -250.5t57 -404.5q0 -268 -113 -485q-52 -99 -154 -158q-75 -43 -169 -43q-163 0 -280 130q-79 89 -125 266q-38 146 -38 309q0 312 111 507q60 105 157 160q77 45 171 45zM530 1334q-111 0 -184 -128q-29 -50 -42 -97
q-52 -187 -52 -418q0 -173 25.5 -313.5t71.5 -221.5q71 -125 184 -125q109 0 177 120q30 53 43 104q52 193 52 424q0 175 -25 316.5t-70 216.5q-72 122 -180 122zM250 1485l232 277h93l232 -277h-81l-197 171l-198 -171h-81z" />
    <glyph glyph-name="Otilde" unicode="&#xd5;" horiz-adv-x="1056" 
d="M528 1391q119 0 219 -76q107 -83 164 -250.5t57 -404.5q0 -268 -113 -485q-52 -99 -154 -158q-75 -43 -169 -43q-163 0 -280 130q-79 89 -125 266q-38 146 -38 309q0 312 111 507q60 105 157 160q77 45 171 45zM530 1334q-111 0 -184 -128q-29 -50 -42 -97
q-52 -187 -52 -418q0 -173 25.5 -313.5t71.5 -221.5q71 -125 184 -125q109 0 177 120q30 53 43 104q52 193 52 424q0 175 -25 316.5t-70 216.5q-72 122 -180 122zM309 1522l-49 15q23 106 61 154t99 48q33 0 63.5 -16t77.5 -58q50 -45 90 -45q37 0 59.5 24.5t38.5 82.5
l48 -13q-13 -86 -38 -127q-51 -83 -126 -83q-32 0 -62 16.5t-79 59.5q-47 43 -84 43q-67 0 -99 -101z" />
    <glyph glyph-name="Odieresis" unicode="&#xd6;" horiz-adv-x="1056" 
d="M528 1391q119 0 219 -76q107 -83 164 -250.5t57 -404.5q0 -268 -113 -485q-52 -99 -154 -158q-75 -43 -169 -43q-163 0 -280 130q-79 89 -125 266q-38 146 -38 309q0 312 111 507q60 105 157 160q77 45 171 45zM530 1334q-111 0 -184 -128q-29 -50 -42 -97
q-52 -187 -52 -418q0 -173 25.5 -313.5t71.5 -221.5q71 -125 184 -125q109 0 177 120q30 53 43 104q52 193 52 424q0 175 -25 316.5t-70 216.5q-72 122 -180 122zM385 1725q40 0 69 -29.5t29 -69.5q0 -42 -29 -71t-70 -29q-42 0 -71 29.5t-29 70.5t29.5 70t71.5 29z
M679 1725q40 0 69 -29.5t29 -69.5q0 -42 -29 -71t-71 -29q-41 0 -70 29t-29 71q0 41 29.5 70t71.5 29z" />
    <glyph glyph-name="multiply" unicode="&#xd7;" horiz-adv-x="877" 
d="M120 1000l82 75l239 -298l236 295l77 -70l-247 -309l250 -312l-82 -75l-239 299l-236 -296l-78 70l248 309z" />
    <glyph glyph-name="Oslash" unicode="&#xd8;" horiz-adv-x="1056" 
d="M185 212q-96 208 -96 473q0 301 111 501q58 103 157 160q77 45 172 45q94 0 174.5 -46t135.5 -132l99 152h75l-139 -213q94 -193 94 -474q0 -284 -113 -503q-51 -98 -154 -158q-75 -43 -168 -43q-149 0 -259 106q-29 28 -56 69l-97 -149h-75zM281 360l478 730
q-28 112 -89.5 178t-138.5 66q-113 0 -185 -128q-94 -167 -94 -507q0 -171 29 -339zM778 1006l-477 -731q30 -114 91.5 -179t140.5 -65q109 0 177 120q95 169 95 541q0 168 -27 314z" />
    <glyph glyph-name="Ugrave" unicode="&#xd9;" horiz-adv-x="1109" 
d="M732 1321v50q111 -10 166 -10q56 0 158 10v-50q-87 -8 -109.5 -31t-22.5 -105v-768q0 -172 -56 -272q-94 -168 -310 -168q-156 0 -256 91q-65 58 -92.5 137t-27.5 204v776q0 82 -21.5 104.5t-106.5 31.5v50q124 -15 205 -15q80 0 204 15v-50q-84 -8 -106 -31.5
t-22 -104.5v-792q0 -150 34 -211q64 -114 220 -114q128 0 204 81q71 76 71 257v779q0 82 -22.5 104.5t-109.5 31.5zM656 1483h-78l-323 281h195z" />
    <glyph glyph-name="Uacute" unicode="&#xda;" horiz-adv-x="1109" 
d="M732 1321v50q111 -10 166 -10q56 0 158 10v-50q-87 -8 -109.5 -31t-22.5 -105v-768q0 -172 -56 -272q-94 -168 -310 -168q-156 0 -256 91q-65 58 -92.5 137t-27.5 204v776q0 82 -21.5 104.5t-106.5 31.5v50q124 -15 205 -15q80 0 204 15v-50q-84 -8 -106 -31.5
t-22 -104.5v-792q0 -150 34 -211q64 -114 220 -114q128 0 204 81q71 76 71 257v779q0 82 -22.5 104.5t-109.5 31.5zM546 1483l206 281h194l-322 -281h-78z" />
    <glyph glyph-name="Ucircumflex" unicode="&#xdb;" horiz-adv-x="1109" 
d="M732 1321v50q111 -10 166 -10q56 0 158 10v-50q-87 -8 -109.5 -31t-22.5 -105v-768q0 -172 -56 -272q-94 -168 -310 -168q-156 0 -256 91q-65 58 -92.5 137t-27.5 204v776q0 82 -21.5 104.5t-106.5 31.5v50q124 -15 205 -15q80 0 204 15v-50q-84 -8 -106 -31.5
t-22 -104.5v-792q0 -150 34 -211q64 -114 220 -114q128 0 204 81q71 76 71 257v779q0 82 -22.5 104.5t-109.5 31.5zM321 1485l233 277h92l233 -277h-82l-197 171l-197 -171h-82z" />
    <glyph glyph-name="Udieresis" unicode="&#xdc;" horiz-adv-x="1109" 
d="M732 1321v50q111 -10 166 -10q56 0 158 10v-50q-87 -8 -109.5 -31t-22.5 -105v-768q0 -172 -56 -272q-94 -168 -310 -168q-156 0 -256 91q-65 58 -92.5 137t-27.5 204v776q0 82 -21.5 104.5t-106.5 31.5v50q124 -15 205 -15q80 0 204 15v-50q-84 -8 -106 -31.5
t-22 -104.5v-792q0 -150 34 -211q64 -114 220 -114q128 0 204 81q71 76 71 257v779q0 82 -22.5 104.5t-109.5 31.5zM456 1725q40 0 69 -29.5t29 -69.5q0 -42 -29 -71t-71 -29q-41 0 -70 29t-29 71q0 41 29.5 70t71.5 29zM751 1725q40 0 69 -29.5t29 -69.5q0 -42 -29 -71
t-70 -29q-42 0 -71 29.5t-29 70.5t29.5 70t71.5 29z" />
    <glyph glyph-name="Yacute" unicode="&#xdd;" horiz-adv-x="990" 
d="M472 1483l206 281h194l-322 -281h-78zM421 595l-239 614q-24 62 -53.5 83.5t-96.5 28.5v50q110 -14 207 -14q96 0 206 14v-50q-113 -8 -113 -52q0 -26 16 -66l201 -515l199 518q16 41 16 65q0 23 -24 34t-87 16v50q91 -10 155 -10t155 10v-50q-70 -10 -98 -31t-51 -79
l-240 -616v-415q0 -82 21 -104t107 -32v-50q-130 15 -205 15q-74 0 -204 -15v50q86 9 107 31.5t21 104.5v415z" />
    <glyph glyph-name="Thorn" unicode="&#xde;" horiz-adv-x="914" 
d="M344 1150h140q196 0 281 -101q92 -109 92 -274q0 -88 -29.5 -166t-81.5 -125q-90 -83 -246 -83h-156v-221q0 -81 21.5 -104t106.5 -32v-50q-130 15 -204 15q-75 0 -205 -15v50q86 10 107 32.5t21 103.5v1006q0 81 -22.5 104.5t-105.5 31.5v49q124 -15 205 -15
q80 0 204 15v-49q-83 -8 -105.5 -31.5t-22.5 -104.5v-36zM344 464h108q249 0 249 318q0 80 -22 150.5t-59 105.5q-51 49 -158 49h-118v-623z" />
    <glyph glyph-name="germandbls" unicode="&#xdf;" horiz-adv-x="864" 
d="M361 733v50q106 5 155 69q55 70 55 221q0 116 -34 179.5t-97 63.5q-139 0 -139 -247v-1073q-70 7 -115 7q-53 0 -140 -9v41q71 5 91 24.5t20 85.5v844q0 160 54 252q37 63 100 99t134 36q114 0 190 -85q79 -88 79 -226q0 -106 -44 -177t-142 -124q261 -83 261 -395
q0 -143 -61 -248q-36 -64 -89.5 -99.5t-112.5 -35.5q-68 0 -136 59v56q46 -30 83 -30q59 0 102 48q29 33 47.5 99.5t18.5 138.5q0 195 -93 297q-66 72 -187 79z" />
    <glyph glyph-name="agrave" unicode="&#xe0;" horiz-adv-x="785" 
d="M739 54v-54q-58 -14 -98 -14q-114 0 -128 168q-67 -172 -214 -172q-100 0 -162 71q-64 73 -64 190q0 159 122 245q122 87 297 115v145q0 94 -30 138.5t-93 44.5q-55 0 -89.5 -31t-34.5 -81q0 -12 1 -26q1 -20 1 -35q0 -86 -72 -86q-60 0 -60 70q0 101 83 175
q78 69 186 69q71 0 128.5 -32.5t88.5 -89.5q35 -65 35 -206v-428q0 -102 13.5 -142.5t48.5 -40.5q15 0 41 7zM492 550q-90 -21 -147 -54q-125 -73 -125 -239q0 -87 33.5 -137t91.5 -50q147 0 147 302v178zM473 1129h-69l-269 301h178z" />
    <glyph glyph-name="aacute" unicode="&#xe1;" horiz-adv-x="785" 
d="M739 54v-54q-58 -14 -98 -14q-114 0 -128 168q-67 -172 -214 -172q-100 0 -162 71q-64 73 -64 190q0 159 122 245q122 87 297 115v145q0 94 -30 138.5t-93 44.5q-55 0 -89.5 -31t-34.5 -81q0 -12 1 -26q1 -20 1 -35q0 -86 -72 -86q-60 0 -60 70q0 101 83 175
q78 69 186 69q71 0 128.5 -32.5t88.5 -89.5q35 -65 35 -206v-428q0 -102 13.5 -142.5t48.5 -40.5q15 0 41 7zM492 550q-90 -21 -147 -54q-125 -73 -125 -239q0 -87 33.5 -137t91.5 -50q147 0 147 302v178zM351 1129l161 301h177l-269 -301h-69z" />
    <glyph glyph-name="acircumflex" unicode="&#xe2;" horiz-adv-x="785" 
d="M739 54v-54q-58 -14 -98 -14q-114 0 -128 168q-67 -172 -214 -172q-100 0 -162 71q-64 73 -64 190q0 159 122 245q122 87 297 115v145q0 94 -30 138.5t-93 44.5q-55 0 -89.5 -31t-34.5 -81q0 -12 1 -26q1 -20 1 -35q0 -86 -72 -86q-60 0 -60 70q0 101 83 175
q78 69 186 69q71 0 128.5 -32.5t88.5 -89.5q35 -65 35 -206v-428q0 -102 13.5 -142.5t48.5 -40.5q15 0 41 7zM492 550q-90 -21 -147 -54q-125 -73 -125 -239q0 -87 33.5 -137t91.5 -50q147 0 147 302v178zM135 1130l216 299h78l216 -299h-78l-177 177l-177 -177h-78z" />
    <glyph glyph-name="atilde" unicode="&#xe3;" horiz-adv-x="785" 
d="M739 54v-54q-58 -14 -98 -14q-114 0 -128 168q-67 -172 -214 -172q-100 0 -162 71q-64 73 -64 190q0 159 122 245q122 87 297 115v145q0 94 -30 138.5t-93 44.5q-55 0 -89.5 -31t-34.5 -81q0 -12 1 -26q1 -20 1 -35q0 -86 -72 -86q-60 0 -60 70q0 101 83 175
q78 69 186 69q71 0 128.5 -32.5t88.5 -89.5q35 -65 35 -206v-428q0 -102 13.5 -142.5t48.5 -40.5q15 0 41 7zM492 550q-90 -21 -147 -54q-125 -73 -125 -239q0 -87 33.5 -137t91.5 -50q147 0 147 302v178zM194 1181l-46 16q24 106 58 153q33 48 96 48q50 0 106 -50l39 -36
q37 -33 71 -33q35 0 56 23.5t38 83.5l45 -13q-12 -92 -49 -148q-40 -62 -107 -62q-53 0 -133 76q-44 43 -79 43q-62 0 -95 -101z" />
    <glyph glyph-name="adieresis" unicode="&#xe4;" horiz-adv-x="785" 
d="M739 54v-54q-58 -14 -98 -14q-114 0 -128 168q-67 -172 -214 -172q-100 0 -162 71q-64 73 -64 190q0 159 122 245q122 87 297 115v145q0 94 -30 138.5t-93 44.5q-55 0 -89.5 -31t-34.5 -81q0 -12 1 -26q1 -20 1 -35q0 -86 -72 -86q-60 0 -60 70q0 101 83 175
q78 69 186 69q71 0 128.5 -32.5t88.5 -89.5q35 -65 35 -206v-428q0 -102 13.5 -142.5t48.5 -40.5q15 0 41 7zM492 550q-90 -21 -147 -54q-125 -73 -125 -239q0 -87 33.5 -137t91.5 -50q147 0 147 302v178zM244 1363q37 0 64 -27.5t27 -65.5q0 -39 -27 -66t-66 -27t-66 27.5
t-27 66.5q0 38 27.5 65t67.5 27zM538 1363q38 0 65 -27.5t27 -65.5t-27 -65.5t-66 -27.5t-66 27.5t-27 66.5q0 38 27.5 65t66.5 27z" />
    <glyph glyph-name="aring" unicode="&#xe5;" horiz-adv-x="785" 
d="M739 54v-54q-58 -14 -98 -14q-114 0 -128 168q-67 -172 -214 -172q-100 0 -162 71q-64 73 -64 190q0 159 122 245q122 87 297 115v145q0 94 -30 138.5t-93 44.5q-55 0 -89.5 -31t-34.5 -81q0 -12 1 -26q1 -20 1 -35q0 -86 -72 -86q-60 0 -60 70q0 101 83 175
q78 69 186 69q71 0 128.5 -32.5t88.5 -89.5q35 -65 35 -206v-428q0 -102 13.5 -142.5t48.5 -40.5q15 0 41 7zM492 550q-90 -21 -147 -54q-125 -73 -125 -239q0 -87 33.5 -137t91.5 -50q147 0 147 302v178zM405 1446q62 0 107.5 -46t45.5 -109q0 -70 -52 -116
q-44 -40 -104 -40q-65 0 -110.5 45.5t-45.5 111.5q0 64 46 109t113 45zM403 1378q-37 0 -63 -25t-26 -62q0 -36 25.5 -62t62.5 -26q36 0 62 25.5t26 62.5q0 35 -25.5 61t-61.5 26z" />
    <glyph glyph-name="ae" unicode="&#xe6;" horiz-adv-x="1198" 
d="M546 202q-28 -90 -66 -138q-65 -83 -179 -83q-101 0 -164 71q-64 73 -64 187q0 285 429 333v176q0 114 -45 153q-36 30 -88 30q-54 0 -90 -30.5t-36 -75.5q0 -13 1 -28q2 -22 2 -40q0 -85 -72 -85q-59 0 -59 70q0 101 83 175q77 69 184 69q147 0 216 -121q89 121 224 121
q139 0 216 -124t83 -357h-470q3 -214 33 -305q49 -151 167 -151q85 0 138.5 69t68.5 197h65q-12 -129 -74 -221q-74 -113 -219 -113q-198 0 -284 221zM977 573q-3 190 -47 276q-42 84 -111 84q-71 0 -111.5 -88.5t-53.5 -271.5h323zM502 509q-121 -19 -195 -67
q-88 -57 -88 -193q0 -81 34 -129t93 -48q81 0 118.5 72t37.5 228v137z" />
    <glyph glyph-name="ccedilla" unicode="&#xe7;" horiz-adv-x="734" 
d="M413 -22l-41 -99q150 -16 150 -138q0 -68 -44.5 -110t-115.5 -42q-60 0 -124 33v61q50 -19 84 -19q37 0 60.5 24.5t23.5 62.5q0 44 -28.5 64.5t-95.5 24.5l63 143q-83 18 -148 92q-119 134 -119 402q0 216 82 358q90 157 242 157q101 0 168 -87l39 104h32v-338h-43
q-39 266 -176 266q-91 0 -139 -122.5t-48 -350.5q0 -205 47 -312t137 -107q145 0 173 270h66q-31 -321 -245 -337z" />
    <glyph glyph-name="egrave" unicode="&#xe8;" horiz-adv-x="771" 
d="M631 315h65q-12 -131 -74 -223q-74 -112 -215 -112q-165 0 -251 150q-81 142 -81 355q0 210 80 350q42 72 105 112t135 40q139 0 217 -124.5t83 -355.5h-472q3 -138 12 -207.5t33 -129.5q46 -122 158 -122q84 0 137.5 69.5t67.5 197.5zM551 575q-9 359 -158 359
q-71 0 -114.5 -93.5t-51.5 -265.5h324zM485 1129h-69l-269 301h177z" />
    <glyph glyph-name="eacute" unicode="&#xe9;" horiz-adv-x="771" 
d="M631 315h65q-12 -131 -74 -223q-74 -112 -215 -112q-165 0 -251 150q-81 142 -81 355q0 210 80 350q42 72 105 112t135 40q139 0 217 -124.5t83 -355.5h-472q3 -138 12 -207.5t33 -129.5q46 -122 158 -122q84 0 137.5 69.5t67.5 197.5zM551 575q-9 359 -158 359
q-71 0 -114.5 -93.5t-51.5 -265.5h324zM353 1129l161 301h177l-269 -301h-69z" />
    <glyph glyph-name="ecircumflex" unicode="&#xea;" horiz-adv-x="771" 
d="M631 315h65q-12 -131 -74 -223q-74 -112 -215 -112q-165 0 -251 150q-81 142 -81 355q0 210 80 350q42 72 105 112t135 40q139 0 217 -124.5t83 -355.5h-472q3 -138 12 -207.5t33 -129.5q46 -122 158 -122q84 0 137.5 69.5t67.5 197.5zM551 575q-9 359 -158 359
q-71 0 -114.5 -93.5t-51.5 -265.5h324zM141 1130l215 299h79l215 -299h-78l-177 177l-177 -177h-77z" />
    <glyph glyph-name="edieresis" unicode="&#xeb;" horiz-adv-x="771" 
d="M631 315h65q-12 -131 -74 -223q-74 -112 -215 -112q-165 0 -251 150q-81 142 -81 355q0 210 80 350q42 72 105 112t135 40q139 0 217 -124.5t83 -355.5h-472q3 -138 12 -207.5t33 -129.5q46 -122 158 -122q84 0 137.5 69.5t67.5 197.5zM551 575q-9 359 -158 359
q-71 0 -114.5 -93.5t-51.5 -265.5h324zM262 1363q37 0 64 -27.5t27 -65.5q0 -39 -27 -66t-66 -27t-66 27.5t-27 66.5q0 38 27.5 65t67.5 27zM557 1363q37 0 64 -27.5t27 -65.5q0 -39 -27 -66t-66 -27t-66 27.5t-27 66.5q0 38 27.5 65t67.5 27z" />
    <glyph glyph-name="igrave" unicode="&#xec;" horiz-adv-x="477" 
d="M314 1003v-858q0 -66 20 -85.5t91 -24.5v-41q-116 12 -183 12t-183 -12v41q71 5 91 24.5t20 85.5v648q0 78 -19 98.5t-90 21.5v35q133 16 253 55zM316 1129h-69l-269 301h177z" />
    <glyph glyph-name="iacute" unicode="&#xed;" horiz-adv-x="477" 
d="M314 1003v-858q0 -66 20 -85.5t90 -24.5v-41q-115 12 -182 12t-183 -12v41q71 5 91 24.5t20 85.5v648q0 78 -19 98.5t-91 21.5v35q134 16 254 55zM190 1129l160 301h178l-269 -301h-69z" />
    <glyph glyph-name="icircumflex" unicode="&#xee;" horiz-adv-x="477" 
d="M313 1003v-858q0 -66 20 -85.5t91 -24.5v-41q-116 12 -183 12t-183 -12v41q71 5 91 24.5t20 85.5v648q0 78 -19 98.5t-90 21.5v35q133 16 253 55zM3 1130l199 299h79l199 -299h-78l-161 177l-160 -177h-78z" />
    <glyph glyph-name="idieresis" unicode="&#xef;" horiz-adv-x="477" 
d="M314 1003v-858q0 -66 20 -85.5t91 -24.5v-41q-116 12 -183 12q-66 0 -183 -12v41q71 5 91 24.5t20 85.5v648q0 78 -19 98.5t-90 21.5v35q134 16 253 55zM348 1363q38 0 65 -27.5t27 -65.5q0 -39 -27 -66t-66 -27t-66 27.5t-27 66.5q0 38 27.5 65t66.5 27zM115 1363
q37 0 64 -27.5t27 -65.5q0 -39 -27 -66t-66 -27t-66 27.5t-27 66.5q0 38 27.5 65t67.5 27z" />
    <glyph glyph-name="eth" unicode="&#xf0;" horiz-adv-x="788" 
d="M458 968l-98 175l-122 -95l-30 58l121 96l-88 155l38 32l103 -144l127 100l30 -60l-120 -95l135 -212q69 -109 101 -186q58 -144 58 -312q0 -204 -81 -347q-86 -153 -236 -153t-239 155q-82 142 -82 352q0 205 80 344q43 73 106 115t131 42q34 0 66 -20zM393 935
q-66 0 -108 -75q-59 -107 -59 -361q0 -466 171 -466q165 0 165 441q0 129 -17 233.5t-46 153.5q-43 74 -106 74z" />
    <glyph glyph-name="ntilde" unicode="&#xf1;" horiz-adv-x="918" 
d="M61 907v35q131 23 220 61q13 -67 18 -178q85 161 224 161q61 0 113.5 -31.5t83.5 -86.5q42 -75 42 -220v-503q0 -65 20 -85t91 -25v-41q-107 12 -179 12q-74 0 -178 -12v40q61 3 81.5 24.5t20.5 83.5v513q0 124 -29 175q-36 63 -111 63q-89 0 -134 -82q-30 -57 -30 -164
v-505q0 -61 20 -82.5t80 -25.5v-40q-105 12 -177 12q-71 0 -178 -12v41q71 5 91 24.5t20 85.5v634q0 89 -15.5 107t-93.5 21zM257 1181l-46 16q24 106 58 153q33 48 96 48q50 0 106 -50l39 -36q37 -33 71 -33q35 0 56 23.5t38 83.5l45 -13q-12 -92 -49 -148
q-40 -62 -107 -62q-53 0 -133 76q-44 43 -79 43q-62 0 -95 -101z" />
    <glyph glyph-name="ograve" unicode="&#xf2;" horiz-adv-x="789" 
d="M402 992q110 0 190 -91q54 -62 87.5 -177t33.5 -237q0 -213 -85 -359q-87 -150 -235 -150q-95 0 -172 71q-70 64 -108 177.5t-38 256.5q0 213 82 352q93 157 245 157zM397 939q-66 0 -109 -77q-62 -112 -62 -383q0 -448 167 -448q66 0 108 75q61 109 61 374
q0 459 -165 459zM516 1129h-69l-269 301h177z" />
    <glyph glyph-name="oacute" unicode="&#xf3;" horiz-adv-x="789" 
d="M402 992q110 0 190 -91q54 -62 87.5 -177t33.5 -237q0 -213 -85 -359q-87 -150 -235 -150q-95 0 -172 71q-70 64 -108 177.5t-38 256.5q0 213 82 352q93 157 245 157zM397 939q-66 0 -109 -77q-62 -112 -62 -383q0 -448 167 -448q66 0 108 75q61 109 61 374
q0 459 -165 459zM365 1129l160 301h178l-269 -301h-69z" />
    <glyph glyph-name="ocircumflex" unicode="&#xf4;" horiz-adv-x="789" 
d="M402 992q110 0 190 -91q54 -62 87.5 -177t33.5 -237q0 -213 -85 -359q-87 -150 -235 -150q-95 0 -172 71q-70 64 -108 177.5t-38 256.5q0 213 82 352q93 157 245 157zM397 939q-66 0 -109 -77q-62 -112 -62 -383q0 -448 167 -448q66 0 108 75q61 109 61 374
q0 459 -165 459zM139 1130l216 299h79l215 -299h-78l-177 177l-177 -177h-78z" />
    <glyph glyph-name="otilde" unicode="&#xf5;" horiz-adv-x="789" 
d="M402 992q110 0 190 -91q54 -62 87.5 -177t33.5 -237q0 -213 -85 -359q-87 -150 -235 -150q-95 0 -172 71q-70 64 -108 177.5t-38 256.5q0 213 82 352q93 157 245 157zM397 939q-66 0 -109 -77q-62 -112 -62 -383q0 -448 167 -448q66 0 108 75q61 109 61 374
q0 459 -165 459zM186 1181l-46 16q24 106 57 153q34 48 96 48q50 0 106 -50l39 -36q37 -33 71 -33q35 0 56 23.5t39 83.5l45 -13q-13 -92 -49 -148q-41 -62 -108 -62q-53 0 -132 76q-45 43 -80 43q-61 0 -94 -101z" />
    <glyph glyph-name="odieresis" unicode="&#xf6;" horiz-adv-x="789" 
d="M402 992q110 0 190 -91q54 -62 87.5 -177t33.5 -237q0 -213 -85 -359q-87 -150 -235 -150q-95 0 -172 71q-70 64 -108 177.5t-38 256.5q0 213 82 352q93 157 245 157zM397 939q-66 0 -109 -77q-62 -112 -62 -383q0 -448 167 -448q66 0 108 75q61 109 61 374
q0 459 -165 459zM252 1363q37 0 64 -27.5t27 -65.5q0 -39 -27 -66t-66 -27t-66 27.5t-27 66.5q0 38 27.5 65t67.5 27zM545 1363q38 0 65 -27.5t27 -65.5q0 -39 -27 -66t-66 -27t-66 27.5t-27 66.5q0 38 27.5 65t66.5 27z" />
    <glyph glyph-name="divide" unicode="&#xf7;" horiz-adv-x="877" 
d="M98 636v108h681v-108h-681zM443 1073q40 0 69 -29.5t29 -70.5t-29 -70t-70 -29q-42 0 -71 29.5t-29 70.5t29.5 70t71.5 29zM440 509q40 0 69 -29.5t29 -70.5t-29 -70t-70 -29q-42 0 -71 29.5t-29 70.5t29.5 70t71.5 29z" />
    <glyph glyph-name="oslash" unicode="&#xf8;" horiz-adv-x="788" 
d="M640 824q73 -155 73 -342q0 -207 -85 -354q-41 -71 -102.5 -110.5t-132.5 -39.5q-129 0 -216 121l-67 -105h-67l102 159q-70 132 -70 330q0 209 82 352q91 157 244 157q127 0 208 -112l60 93h67zM551 683l-302 -471q17 -88 54.5 -134.5t89.5 -46.5q66 0 108 75
q61 110 61 377q0 103 -11 200zM236 297l301 470q-17 83 -53.5 127.5t-86.5 44.5q-66 0 -109 -77q-62 -111 -62 -373q0 -97 10 -192z" />
    <glyph glyph-name="ugrave" unicode="&#xf9;" horiz-adv-x="901" 
d="M36 913v35q130 16 253 55v-694q0 -121 29 -172q35 -62 113 -62q163 0 163 261v457q0 78 -19.5 99t-89.5 21v35q130 15 253 55v-820q0 -79 16 -95.5t97 -18.5v-36q-133 -16 -227 -54q-13 88 -13 152v23q-40 -90 -92.5 -130.5t-130.5 -40.5q-138 0 -202 114q-41 72 -41 215
v481q0 78 -19.5 99t-89.5 21zM543 1129h-69l-269 301h177z" />
    <glyph glyph-name="uacute" unicode="&#xfa;" horiz-adv-x="901" 
d="M36 913v35q130 16 253 55v-694q0 -121 29 -172q35 -62 113 -62q163 0 163 261v457q0 78 -19.5 99t-89.5 21v35q130 15 253 55v-820q0 -79 16 -95.5t97 -18.5v-36q-133 -16 -227 -54q-13 88 -13 152v23q-40 -90 -92.5 -130.5t-130.5 -40.5q-138 0 -202 114q-41 72 -41 215
v481q0 78 -19.5 99t-89.5 21zM388 1129l161 301h177l-269 -301h-69z" />
    <glyph glyph-name="ucircumflex" unicode="&#xfb;" horiz-adv-x="901" 
d="M36 913v35q130 16 253 55v-694q0 -121 29 -172q35 -62 113 -62q163 0 163 261v457q0 78 -19.5 99t-89.5 21v35q130 15 253 55v-820q0 -79 16 -95.5t97 -18.5v-36q-133 -16 -227 -54q-13 88 -13 152v23q-40 -90 -92.5 -130.5t-130.5 -40.5q-138 0 -202 114q-41 72 -41 215
v481q0 78 -19.5 99t-89.5 21zM189 1130l215 299h79l215 -299h-78l-177 177l-177 -177h-77z" />
    <glyph glyph-name="udieresis" unicode="&#xfc;" horiz-adv-x="901" 
d="M36 913v35q130 16 253 55v-694q0 -121 29 -172q35 -62 113 -62q163 0 163 261v457q0 78 -19.5 99t-89.5 21v35q130 15 253 55v-820q0 -79 16 -95.5t97 -18.5v-36q-133 -16 -227 -54q-13 88 -13 152v23q-40 -90 -92.5 -130.5t-130.5 -40.5q-138 0 -202 114q-41 72 -41 215
v481q0 78 -19.5 99t-89.5 21zM300 1363q38 0 65 -27.5t27 -65.5q0 -39 -27 -66t-66 -27t-66 27.5t-27 66.5q0 38 27.5 65t66.5 27zM595 1363q37 0 64 -27.5t27 -65.5q0 -39 -27 -66t-66 -27t-66 27.5t-27 66.5q0 38 27.5 65t67.5 27z" />
    <glyph glyph-name="yacute" unicode="&#xfd;" horiz-adv-x="838" 
d="M424 1129l160 301h178l-270 -301h-68zM391 33l-242 804q-17 55 -39.5 73t-84.5 22v41q93 -10 174 -10q80 0 174 10v-41q-86 -7 -86 -41q0 -16 12 -57l164 -570l171 561q13 41 14 62q2 42 -94 45v41q62 -8 123 -8q66 0 144 8v-41q-56 -8 -82 -29t-42 -72l-309 -1000
q-38 -122 -94.5 -176.5t-144.5 -54.5q-7 0 -22 1v103q87 0 133.5 38.5t79.5 137.5z" />
    <glyph glyph-name="thorn" unicode="&#xfe;" horiz-adv-x="871" 
d="M300 846q69 139 190 139q138 0 223 -147q82 -143 82 -354q0 -216 -83 -361q-81 -141 -217 -141q-65 0 -110 33t-85 111v-384q0 -66 20 -86.5t90 -24.5v-41q-117 12 -186 12q-70 0 -178 -12v41q70 5 90 25t20 86v1436q0 78 -19 99t-90 21v36q135 15 253 54v-542zM475 928
q-73 0 -119 -83q-58 -106 -58 -350q0 -456 179 -456q167 0 167 442q0 447 -169 447z" />
    <glyph glyph-name="ydieresis" unicode="&#xff;" horiz-adv-x="838" 
d="M307 1363q37 0 64 -27.5t27 -65.5q0 -39 -27 -66t-66 -27t-66 27.5t-27 66.5q0 38 27.5 65t67.5 27zM601 1363q38 0 65 -27.5t27 -65.5t-27 -65.5t-66 -27.5t-66 27.5t-27 66.5q0 38 27.5 65t66.5 27zM391 33l-242 804q-17 55 -39.5 73t-84.5 22v41q93 -10 174 -10
q80 0 174 10v-41q-86 -7 -86 -41q0 -16 12 -57l164 -570l171 561q13 41 14 62q2 42 -94 45v41q62 -8 123 -8q66 0 144 8v-41q-56 -8 -82 -29t-42 -72l-309 -1000q-38 -122 -94.5 -176.5t-144.5 -54.5q-7 0 -22 1v103q87 0 133.5 38.5t79.5 137.5z" />
    <glyph glyph-name="Amacron" unicode="&#x100;" horiz-adv-x="1074" 
d="M310 397l-58 -194q-21 -73 -21 -101q0 -51 108 -58v-50q-94 11 -156 11t-156 -11v50q75 7 101 31t53 112l377 1224l341 -1246q19 -71 45 -92t103 -29v-50q-112 15 -199 15t-200 -15v50q98 10 98 59q0 28 -11 71l-56 223h-369zM329 460h335l-153 604zM286 1559v90h528v-90
h-528z" />
    <glyph glyph-name="amacron" unicode="&#x101;" horiz-adv-x="785" 
d="M739 54v-54q-58 -14 -98 -14q-114 0 -128 168q-67 -172 -214 -172q-100 0 -162 71q-64 73 -64 190q0 159 122 245q122 87 297 115v145q0 94 -30 138.5t-93 44.5q-55 0 -89.5 -31t-34.5 -81q0 -12 1 -26q1 -20 1 -35q0 -86 -72 -86q-60 0 -60 70q0 101 83 175
q78 69 186 69q71 0 128.5 -32.5t88.5 -89.5q35 -65 35 -206v-428q0 -102 13.5 -142.5t48.5 -40.5q15 0 41 7zM492 550q-90 -21 -147 -54q-125 -73 -125 -239q0 -87 33.5 -137t91.5 -50q147 0 147 302v178zM143 1191v83h500v-83h-500z" />
    <glyph glyph-name="Abreve" unicode="&#x102;" horiz-adv-x="1074" 
d="M310 397l-58 -194q-21 -73 -21 -101q0 -51 108 -58v-50q-94 11 -156 11t-156 -11v50q75 7 101 31t53 112l377 1224l341 -1246q19 -71 45 -92t103 -29v-50q-112 15 -199 15t-200 -15v50q98 10 98 59q0 28 -11 71l-56 223h-369zM329 460h335l-153 604zM722 1760h56
q-10 -111 -51 -182q-25 -43 -71.5 -69t-97.5 -26q-95 0 -152.5 72t-67.5 205h56q45 -151 164 -151t164 151z" />
    <glyph glyph-name="abreve" unicode="&#x103;" horiz-adv-x="785" 
d="M739 54v-54q-58 -14 -98 -14q-114 0 -128 168q-67 -172 -214 -172q-100 0 -162 71q-64 73 -64 190q0 159 122 245q122 87 297 115v145q0 94 -30 138.5t-93 44.5q-55 0 -89.5 -31t-34.5 -81q0 -12 1 -26q1 -20 1 -35q0 -86 -72 -86q-60 0 -60 70q0 101 83 175
q78 69 186 69q71 0 128.5 -32.5t88.5 -89.5q35 -65 35 -206v-428q0 -102 13.5 -142.5t48.5 -40.5q15 0 41 7zM492 550q-90 -21 -147 -54q-125 -73 -125 -239q0 -87 33.5 -137t91.5 -50q147 0 147 302v178zM554 1427h56q-7 -118 -53 -197q-56 -97 -167 -97q-97 0 -155 78
t-65 216h56q45 -168 164 -168t164 168z" />
    <glyph glyph-name="Aogonek" unicode="&#x104;" horiz-adv-x="1074" 
d="M938 6q-48 3 -93 3q-84 0 -197 -15v50q98 10 98 58q0 29 -11 72l-56 223h-369l-58 -194q-21 -73 -21 -101q0 -51 108 -58v-50q-94 11 -156 11t-156 -11v50q75 7 101 31t53 112l377 1224l341 -1246q19 -71 45 -92t103 -29v-50q-6 1 -9 1q-21 0 -61.5 -25.5t-66.5 -54.5
q-36 -41 -36 -85q0 -42 26 -69.5t66 -27.5q32 0 81 19v-66q-73 -33 -136 -33q-68 0 -114 45.5t-46 113.5q0 128 187 194zM329 460h335l-153 604z" />
    <glyph glyph-name="aogonek" unicode="&#x105;" horiz-adv-x="785" 
d="M739 -235v-64q-52 -25 -101 -25q-62 0 -105 44t-43 108q0 97 129 160q-93 14 -106 166q-67 -172 -214 -172q-100 0 -162 71q-64 73 -64 190q0 159 122 245q122 87 297 115v145q0 94 -30 138.5t-93 44.5q-55 0 -89.5 -31t-34.5 -81q0 -12 1 -26q1 -20 1 -35q0 -86 -72 -86
q-60 0 -60 70q0 101 83 175q78 69 186 69q71 0 128.5 -32.5t88.5 -89.5q35 -65 35 -206v-428q0 -102 13.5 -142.5t48.5 -40.5q15 0 41 7v-54q-61 -27 -96 -68.5t-35 -87.5q0 -39 23 -65t57 -26q23 0 51 12zM492 550q-90 -21 -147 -54q-125 -73 -125 -239q0 -87 33.5 -137
t91.5 -50q147 0 147 302v178z" />
    <glyph glyph-name="Cacute" unicode="&#x106;" horiz-adv-x="991" 
d="M823 460h61q-5 -155 -52 -265q-46 -108 -125 -164q-81 -57 -182 -57q-134 0 -240 97q-108 99 -159 298q-37 141 -37 311q0 306 117 511q58 101 154 156q77 44 174 44q152 0 252 -120l54 116h33v-403h-46q-30 156 -92 247q-64 94 -183 94q-138 0 -205 -130
q-96 -185 -96 -520q0 -311 91 -475q76 -135 208 -135q121 0 192.5 103.5t80.5 291.5zM433 1483l206 281h194l-322 -281h-78z" />
    <glyph glyph-name="cacute" unicode="&#x107;" horiz-adv-x="734" 
d="M641 1009v-338h-43q-38 266 -176 266q-91 0 -139 -122t-48 -350q0 -205 47 -312t137 -107q145 0 173 269h66q-14 -144 -73 -237q-65 -100 -186 -100q-99 0 -178 72q-143 132 -143 427q0 216 82 358q90 157 242 157q101 0 168 -87l39 104h32zM339 1129l160 301h178
l-269 -301h-69z" />
    <glyph glyph-name="Ccircumflex" unicode="&#x108;" horiz-adv-x="991" 
d="M823 460h61q-5 -155 -52 -265q-46 -108 -125 -164q-81 -57 -182 -57q-134 0 -240 97q-108 99 -159 298q-37 141 -37 311q0 306 117 511q58 101 154 156q77 44 174 44q152 0 252 -120l54 116h33v-403h-46q-30 156 -92 247q-64 94 -183 94q-138 0 -205 -130
q-96 -185 -96 -520q0 -311 91 -475q76 -135 208 -135q121 0 192.5 103.5t80.5 291.5zM256 1485l232 277h93l232 -277h-81l-197 171l-197 -171h-82z" />
    <glyph glyph-name="ccircumflex" unicode="&#x109;" horiz-adv-x="734" 
d="M641 1009v-338h-43q-38 266 -176 266q-91 0 -139 -122t-48 -350q0 -205 47 -312t137 -107q145 0 173 269h66q-14 -144 -73 -237q-65 -100 -186 -100q-99 0 -178 72q-143 132 -143 427q0 216 82 358q90 157 242 157q101 0 168 -87l39 104h32zM141 1130l215 299h79
l215 -299h-78l-177 177l-177 -177h-77z" />
    <glyph glyph-name="Cdotaccent" unicode="&#x10a;" horiz-adv-x="991" 
d="M823 460h61q-5 -155 -52 -265q-46 -108 -125 -164q-81 -57 -182 -57q-134 0 -240 97q-108 99 -159 298q-37 141 -37 311q0 306 117 511q58 101 154 156q77 44 174 44q152 0 252 -120l54 116h33v-403h-46q-30 156 -92 247q-64 94 -183 94q-138 0 -205 -130
q-96 -185 -96 -520q0 -311 91 -475q76 -135 208 -135q121 0 192.5 103.5t80.5 291.5zM539 1725q40 0 69 -29.5t29 -69.5q0 -42 -29 -71t-70 -29q-42 0 -71 29.5t-29 70.5t29.5 70t71.5 29z" />
    <glyph glyph-name="cdotaccent" unicode="&#x10b;" horiz-adv-x="734" 
d="M641 1009v-338h-43q-38 266 -176 266q-91 0 -139 -122t-48 -350q0 -205 47 -312t137 -107q145 0 173 269h66q-14 -144 -73 -237q-65 -100 -186 -100q-99 0 -178 72q-143 132 -143 427q0 216 82 358q90 157 242 157q101 0 168 -87l39 104h32zM404 1363q38 0 65 -27.5
t27 -65.5t-27 -65.5t-66 -27.5t-66 27.5t-27 66.5q0 38 27.5 65t66.5 27z" />
    <glyph glyph-name="Ccaron" unicode="&#x10c;" horiz-adv-x="991" 
d="M823 460h61q-5 -155 -52 -265q-46 -108 -125 -164q-81 -57 -182 -57q-134 0 -240 97q-108 99 -159 298q-37 141 -37 311q0 306 117 511q58 101 154 156q77 44 174 44q152 0 252 -120l54 116h33v-403h-46q-30 156 -92 247q-64 94 -183 94q-138 0 -205 -130
q-96 -185 -96 -520q0 -311 91 -475q76 -135 208 -135q121 0 192.5 103.5t80.5 291.5zM823 1759l-233 -277h-92l-232 277h81l197 -171l197 171h82z" />
    <glyph glyph-name="ccaron" unicode="&#x10d;" horiz-adv-x="734" 
d="M641 1009v-338h-43q-38 266 -176 266q-91 0 -139 -122t-48 -350q0 -205 47 -312t137 -107q145 0 173 269h66q-14 -144 -73 -237q-65 -100 -186 -100q-99 0 -178 72q-143 132 -143 427q0 216 82 358q90 157 242 157q101 0 168 -87l39 104h32zM652 1426l-216 -299h-78
l-216 299h78l177 -177l177 177h78z" />
    <glyph glyph-name="Dcaron" unicode="&#x10e;" horiz-adv-x="1062" 
d="M56 1315v50h396q210 0 324 -114q87 -88 140 -229q57 -155 57 -339q0 -250 -109 -453q-125 -230 -413 -230h-395v50q85 9 106.5 31.5t21.5 104.5v993q0 81 -22 104.5t-106 31.5zM337 1302v-1136q0 -67 18.5 -87t79.5 -20q198 0 282 153q93 167 93 473q0 300 -92 466
q-84 151 -273 151h-108zM752 1759l-233 -277h-92l-233 277h82l197 -171l197 171h82z" />
    <glyph glyph-name="dcaron" unicode="&#x10f;" horiz-adv-x="909" 
d="M820 68v-36q-143 -20 -226 -53q-17 78 -24 160q-64 -164 -196 -164q-134 0 -215 141q-84 145 -84 361q0 217 82 361q81 141 214 141q64 0 106.5 -34t79.5 -114v347q0 78 -19 99t-90 21v36q134 15 253 54v-1180q0 -93 19 -115t100 -25zM386 922q-160 0 -160 -442
q0 -264 60 -372q41 -76 107 -76t110 79q56 101 56 326q0 485 -173 485zM847 991h-78q91 101 100 206l-7 1q-8 -2 -14 -2q-77 4 -77 93q0 45 24 72.5t64 27.5q42 0 66.5 -33.5t24.5 -91.5q0 -122 -81 -239q-15 -22 -22 -34z" />
    <glyph glyph-name="Dcroat" unicode="&#x110;" horiz-adv-x="1062" 
d="M184 680h-128v75h128v424q0 81 -22.5 104.5t-105.5 31.5v50h396q210 0 323 -114q88 -88 141 -228q57 -155 57 -338q0 -252 -109 -455q-125 -230 -413 -230h-395v50q84 8 106 31t22 105v494zM337 680v-514q0 -68 18.5 -87.5t80.5 -19.5q197 0 282 153q92 168 92 474
q0 299 -92 465q-84 151 -274 151h-107v-547h243v-75h-243z" />
    <glyph glyph-name="dcroat" unicode="&#x111;" horiz-adv-x="860" 
d="M557 1087h-183v68h183v24q0 77 -19 98t-90 21v36q134 15 253 54v-233h119v-68h-119v-879q0 -93 19 -115t100 -25v-36q-143 -20 -226 -53q-17 78 -24 160q-64 -164 -196 -164q-134 0 -215 141q-84 145 -84 361q0 217 82 361q81 141 214 141q64 0 106.5 -34t79.5 -114v256z
M386 922q-160 0 -160 -442q0 -264 60 -372q41 -76 107 -76t110 79q56 101 56 326q0 485 -173 485z" />
    <glyph glyph-name="Emacron" unicode="&#x112;" horiz-adv-x="911" 
d="M822 330l-37 -330h-722v50q83 8 105.5 31.5t22.5 104.5v993q0 81 -22 104.5t-106 31.5v50h713l29 -308h-46q-28 145 -66 195t-118 50h-231v-561h223q38 0 54.5 11.5t26.5 47.5q12 39 14 110h46v-402h-46q-2 98 -24 134t-80 36h-214v-494q0 -73 21.5 -97t86.5 -24h112
q65 0 99 20t60 74q31 62 53 173h46zM179 1559v90h528v-90h-528z" />
    <glyph glyph-name="emacron" unicode="&#x113;" horiz-adv-x="771" 
d="M631 315h65q-12 -131 -74 -223q-74 -112 -215 -112q-165 0 -251 150q-81 142 -81 355q0 210 80 350q42 72 105 112t135 40q139 0 217 -124.5t83 -355.5h-472q3 -138 12 -207.5t33 -129.5q46 -122 158 -122q84 0 137.5 69.5t67.5 197.5zM551 575q-9 359 -158 359
q-71 0 -114.5 -93.5t-51.5 -265.5h324zM148 1191v83h500v-83h-500z" />
    <glyph glyph-name="Ebreve" unicode="&#x114;" horiz-adv-x="911" 
d="M632 1760h56q-9 -110 -51 -182q-25 -43 -71.5 -69t-97.5 -26q-96 0 -153 72t-67 205h56q44 -151 164 -151t164 151zM822 330l-37 -330h-722v50q83 8 105.5 31.5t22.5 104.5v993q0 81 -22 104.5t-106 31.5v50h713l29 -308h-46q-28 145 -66 195t-118 50h-231v-561h223
q38 0 54.5 11.5t26.5 47.5q12 39 14 110h46v-402h-46q-2 98 -24 134t-80 36h-214v-494q0 -73 21.5 -97t86.5 -24h112q65 0 99 20t60 74q31 62 53 173h46z" />
    <glyph glyph-name="ebreve" unicode="&#x115;" horiz-adv-x="771" 
d="M563 1427h56q-6 -118 -52 -197q-56 -97 -168 -97q-96 0 -154 77.5t-66 216.5h56q44 -168 164 -168t164 168zM631 315h65q-12 -131 -74 -223q-74 -112 -215 -112q-165 0 -251 150q-81 142 -81 355q0 210 80 350q42 72 105 112t135 40q139 0 217 -124.5t83 -355.5h-472
q3 -138 12 -207.5t33 -129.5q46 -122 158 -122q84 0 137.5 69.5t67.5 197.5zM551 573q-8 361 -158 361q-72 0 -115.5 -94.5t-50.5 -266.5h324z" />
    <glyph glyph-name="Edotaccent" unicode="&#x116;" horiz-adv-x="911" 
d="M822 330l-37 -330h-722v50q83 8 105.5 31.5t22.5 104.5v993q0 81 -22 104.5t-106 31.5v50h713l29 -308h-46q-28 145 -66 195t-118 50h-231v-561h223q38 0 54.5 11.5t26.5 47.5q12 39 14 110h46v-402h-46q-2 98 -24 134t-80 36h-214v-494q0 -73 21.5 -97t86.5 -24h112
q65 0 99 20t60 74q31 62 53 173h46zM470 1725q40 0 69 -29.5t29 -69.5q0 -42 -29 -71t-70 -29q-42 0 -71 29.5t-29 70.5t29.5 70t71.5 29z" />
    <glyph glyph-name="edotaccent" unicode="&#x117;" horiz-adv-x="771" 
d="M631 315h65q-12 -131 -74 -223q-74 -112 -215 -112q-165 0 -251 150q-81 142 -81 355q0 210 80 350q42 72 105 112t135 40q139 0 217 -124.5t83 -355.5h-472q3 -138 12 -207.5t33 -129.5q46 -122 158 -122q84 0 137.5 69.5t67.5 197.5zM551 575q-9 359 -158 359
q-71 0 -114.5 -93.5t-51.5 -265.5h324zM397 1363q38 0 65 -27.5t27 -65.5q0 -39 -27 -66t-66 -27t-66 27.5t-27 66.5q0 38 27.5 65t66.5 27z" />
    <glyph glyph-name="Eogonek" unicode="&#x118;" horiz-adv-x="911" 
d="M776 0q-164 -74 -164 -170q0 -42 26 -69.5t65 -27.5q32 0 82 19v-66q-74 -33 -137 -33q-67 0 -113 45.5t-46 113.5q0 122 169 188h-595v50q83 8 105.5 31.5t22.5 104.5v993q0 81 -22 104.5t-106 31.5v50h713l29 -308h-46q-28 145 -66 195t-118 50h-231v-561h223
q38 0 54.5 11.5t26.5 47.5q12 39 14 110h46v-402h-46q-2 98 -24 134t-80 36h-214v-494q0 -73 21.5 -97t86.5 -24h112q65 0 99 20t60 74q31 62 53 173h46l-37 -330h-9z" />
    <glyph glyph-name="eogonek" unicode="&#x119;" horiz-adv-x="771" 
d="M652 -235v-64q-52 -25 -101 -25q-64 0 -106 44.5t-42 111.5q0 51 22 87t76 76q-44 -15 -95 -15q-164 0 -250 150q-81 142 -81 355q0 210 80 350q42 72 105 112t135 40q139 0 217 -124.5t83 -355.5h-472q3 -138 12 -207.5t33 -129.5q46 -122 158 -122q84 0 137.5 69.5
t67.5 197.5h65q-8 -79 -26.5 -131t-66.5 -128q-51 -80 -66.5 -119t-15.5 -89q0 -42 22.5 -68.5t58.5 -26.5q22 0 50 12zM551 575q-9 359 -158 359q-71 0 -114.5 -93.5t-51.5 -265.5h324z" />
    <glyph glyph-name="Ecaron" unicode="&#x11a;" horiz-adv-x="911" 
d="M822 330l-37 -330h-722v50q83 8 105.5 31.5t22.5 104.5v993q0 81 -22 104.5t-106 31.5v50h713l29 -308h-46q-28 145 -66 195t-118 50h-231v-561h223q38 0 54.5 11.5t26.5 47.5q12 39 14 110h46v-402h-46q-2 98 -24 134t-80 36h-214v-494q0 -73 21.5 -97t86.5 -24h112
q65 0 99 20t60 74q31 62 53 173h46zM744 1759l-233 -277h-92l-233 277h82l197 -171l197 171h82z" />
    <glyph glyph-name="ecaron" unicode="&#x11b;" horiz-adv-x="771" 
d="M631 315h65q-12 -131 -74 -223q-74 -112 -215 -112q-165 0 -251 150q-81 142 -81 355q0 210 80 350q42 72 105 112t135 40q139 0 217 -124.5t83 -355.5h-472q3 -138 12 -207.5t33 -129.5q46 -122 158 -122q84 0 137.5 69.5t67.5 197.5zM551 575q-9 359 -158 359
q-71 0 -114.5 -93.5t-51.5 -265.5h324zM650 1426l-215 -299h-79l-215 299h78l176 -177l177 177h78z" />
    <glyph glyph-name="Gcircumflex" unicode="&#x11c;" horiz-adv-x="1043" 
d="M271 1485l232 277h92l233 -277h-82l-197 171l-197 -171h-81zM791 1273l60 116h33v-405h-46q-35 158 -97 247q-65 93 -185 93q-305 0 -305 -653q0 -161 24.5 -294t67.5 -209q74 -132 208 -132q96 0 203 70v354q0 58 -22 76.5t-98 25.5v50q108 -12 189 -12q80 0 189 12v-50
q-74 -8 -91.5 -25t-17.5 -81v-338q-197 -141 -358 -141q-225 0 -342 203q-115 199 -115 505q0 303 113 499q59 103 155 159q81 47 180 47q150 0 255 -117z" />
    <glyph glyph-name="gcircumflex" unicode="&#x11d;" horiz-adv-x="827" 
d="M576 932h218v-75l-163 13q46 -92 46 -185q0 -128 -59.5 -204t-192.5 -119q-121 -38 -153 -58t-32 -55q0 -24 15 -40q22 -24 130 -28q51 -1 120 -13.5t102 -25.5q69 -27 106 -82q45 -66 45 -154q0 -137 -97 -225q-95 -87 -259 -87q-85 0 -159 27.5t-116 74.5
q-68 74 -68 182q0 150 158 219q-83 45 -83 119q0 113 180 166q-67 24 -111 68q-84 85 -84 222q0 170 96 250q76 63 192 63q96 0 169 -53zM401 933q-53 0 -90 -41q-24 -26 -40 -84.5t-16 -118.5q0 -142 48 -215q34 -52 95 -52q68 0 103 65q39 72 39 200q0 118 -36 182
t-103 64zM384 36q-108 0 -173 -37q-80 -46 -80 -138q0 -82 63 -136q77 -67 202 -67q141 0 207 73q47 51 47 125q0 78 -51 122q-31 26 -90.5 42t-124.5 16zM165 1130l216 299h78l216 -299h-78l-177 177l-177 -177h-78z" />
    <glyph glyph-name="Gbreve" unicode="&#x11e;" horiz-adv-x="1043" 
d="M701 1760h55q-9 -111 -50 -182q-25 -43 -71.5 -69t-98.5 -26q-95 0 -152 72t-68 205h56q46 -151 164 -151q119 0 165 151zM791 1273l60 116h33v-405h-46q-35 158 -97 247q-65 93 -185 93q-305 0 -305 -653q0 -161 24.5 -294t67.5 -209q74 -132 208 -132q96 0 203 70v354
q0 58 -22 76.5t-98 25.5v50q108 -12 189 -12q80 0 189 12v-50q-74 -8 -91.5 -25t-17.5 -81v-338q-197 -141 -358 -141q-225 0 -342 203q-115 199 -115 505q0 303 113 499q59 103 155 159q81 47 180 47q150 0 255 -117z" />
    <glyph glyph-name="gbreve" unicode="&#x11f;" horiz-adv-x="827" 
d="M576 932h218v-75l-163 13q46 -92 46 -185q0 -128 -59.5 -204t-192.5 -119q-121 -38 -153 -58t-32 -55q0 -24 15 -40q22 -24 130 -28q51 -1 120 -13.5t102 -25.5q69 -27 106 -82q45 -66 45 -154q0 -137 -97 -225q-95 -87 -259 -87q-85 0 -159 27.5t-116 74.5
q-68 74 -68 182q0 150 158 219q-83 45 -83 119q0 113 180 166q-67 24 -111 68q-84 85 -84 222q0 170 96 250q76 63 192 63q96 0 169 -53zM401 933q-53 0 -90 -41q-24 -26 -40 -84.5t-16 -118.5q0 -142 48 -215q34 -52 95 -52q68 0 103 65q39 72 39 200q0 118 -36 182
t-103 64zM384 36q-108 0 -173 -37q-80 -46 -80 -138q0 -82 63 -136q77 -67 202 -67q141 0 207 73q47 51 47 125q0 78 -51 122q-31 26 -90.5 42t-124.5 16zM584 1427h56q-6 -118 -53 -197q-56 -97 -167 -97q-96 0 -154.5 78t-65.5 216h56q45 -168 164 -168t164 168z" />
    <glyph glyph-name="Gdotaccent" unicode="&#x120;" horiz-adv-x="1043" 
d="M547 1725q40 0 69 -29.5t29 -69.5q0 -42 -29 -71t-70 -29q-42 0 -71 29.5t-29 70.5t29.5 70t71.5 29zM791 1273l60 116h33v-405h-46q-35 158 -97 247q-65 93 -185 93q-305 0 -305 -653q0 -161 24.5 -294t67.5 -209q74 -132 208 -132q96 0 203 70v354q0 58 -22 76.5
t-98 25.5v50q108 -12 189 -12q80 0 189 12v-50q-74 -8 -91.5 -25t-17.5 -81v-338q-197 -141 -358 -141q-225 0 -342 203q-115 199 -115 505q0 303 113 499q59 103 155 159q81 47 180 47q150 0 255 -117z" />
    <glyph glyph-name="gdotaccent" unicode="&#x121;" horiz-adv-x="827" 
d="M576 932h218v-75l-163 13q46 -92 46 -185q0 -128 -59.5 -204t-192.5 -119q-121 -38 -153 -58t-32 -55q0 -24 15 -40q22 -24 130 -28q51 -1 120 -13.5t102 -25.5q69 -27 106 -82q45 -66 45 -154q0 -137 -97 -225q-95 -87 -259 -87q-85 0 -159 27.5t-116 74.5
q-68 74 -68 182q0 150 158 219q-83 45 -83 119q0 113 180 166q-67 24 -111 68q-84 85 -84 222q0 170 96 250q76 63 192 63q96 0 169 -53zM401 933q-53 0 -90 -41q-24 -26 -40 -84.5t-16 -118.5q0 -142 48 -215q34 -52 95 -52q68 0 103 65q39 72 39 200q0 118 -36 182
t-103 64zM384 36q-108 0 -173 -37q-80 -46 -80 -138q0 -82 63 -136q77 -67 202 -67q141 0 207 73q47 51 47 125q0 78 -51 122q-31 26 -90.5 42t-124.5 16zM415 1363q38 0 65 -27.5t27 -65.5q0 -39 -27 -66t-66 -27t-66 27.5t-27 66.5q0 38 27.5 65t66.5 27z" />
    <glyph glyph-name="Gcommaaccent" unicode="&#x122;" horiz-adv-x="1043" 
d="M537 -493h-77q85 92 100 195q-13 -5 -24 -5q-33 0 -53.5 25.5t-20.5 66.5q0 44 24 71t64 27q42 0 66.5 -32t24.5 -85q0 -127 -104 -263zM791 1273l60 116h33v-405h-46q-35 158 -97 247q-65 93 -185 93q-305 0 -305 -653q0 -161 24.5 -294t67.5 -209q74 -132 208 -132
q96 0 203 70v354q0 58 -22 76.5t-98 25.5v50q108 -12 189 -12q80 0 189 12v-50q-74 -8 -91.5 -25t-17.5 -81v-338q-197 -141 -358 -141q-225 0 -342 203q-115 199 -115 505q0 303 113 499q59 103 155 159q81 47 180 47q150 0 255 -117z" />
    <glyph glyph-name="gcommaaccent" unicode="&#x123;" horiz-adv-x="827" 
d="M576 932h218v-75l-163 13q46 -92 46 -185q0 -128 -59.5 -204t-192.5 -119q-121 -38 -153 -58t-32 -55q0 -24 15 -40q22 -24 130 -28q51 -1 120 -13.5t102 -25.5q69 -27 106 -82q45 -66 45 -154q0 -137 -97 -225q-95 -87 -259 -87q-85 0 -159 27.5t-116 74.5
q-68 74 -68 182q0 150 158 219q-83 45 -83 119q0 113 180 166q-67 24 -111 68q-84 85 -84 222q0 170 96 250q76 63 192 63q96 0 169 -53zM401 933q-53 0 -90 -41q-24 -26 -40 -84.5t-16 -118.5q0 -142 48 -215q34 -52 95 -52q68 0 103 65q39 72 39 200q0 118 -36 182
t-103 64zM384 36q-108 0 -173 -37q-80 -46 -80 -138q0 -82 63 -136q77 -67 202 -67q141 0 207 73q47 51 47 125q0 78 -51 122q-31 26 -90.5 42t-124.5 16zM420 1514h77q-91 -101 -100 -206l7 -1q8 2 14 2q77 -4 77 -93q0 -45 -24 -72.5t-63 -27.5q-43 0 -67 33.5t-24 91.5
q0 120 81 239q15 22 22 34z" />
    <glyph glyph-name="Hcircumflex" unicode="&#x124;" horiz-adv-x="1131" 
d="M344 744h443v442q0 80 -22 103.5t-106 31.5v50q124 -15 206 -15t203 15v-50q-85 -8 -106.5 -31t-21.5 -104v-1006q0 -81 21.5 -104t106.5 -32v-50q-126 15 -203 15t-206 -15v50q85 9 106.5 32t21.5 104v501h-443v-501q0 -81 21.5 -104t106.5 -32v-50q-129 15 -206 15
t-203 -15v50q85 9 106.5 32t21.5 104v1006q0 80 -21.5 103t-106.5 32v50q121 -15 203 -15t206 15v-50q-84 -8 -106 -31.5t-22 -103.5v-442zM287 1485l233 277h92l232 -277h-81l-197 171l-197 -171h-82z" />
    <glyph glyph-name="hcircumflex" unicode="&#x125;" horiz-adv-x="905" 
d="M48 1298v36q130 15 253 54v-539q79 137 209 137q62 0 114 -31t83 -87q42 -75 42 -220v-503q0 -66 20 -85.5t91 -24.5v-41q-107 12 -179 12q-74 0 -178 -12v40q61 3 81.5 24.5t20.5 83.5v513q0 124 -29 175q-36 63 -110 63q-91 0 -135 -83q-30 -56 -30 -163v-505
q0 -61 20 -82.5t80 -25.5v-40q-104 12 -176 12t-179 -12v41q71 5 91 24.5t20 85.5v1033q0 78 -19 99t-90 21zM24 1485l232 277h93l232 -277h-81l-197 171l-197 -171h-82z" />
    <glyph glyph-name="Hbar" unicode="&#x126;" horiz-adv-x="1131" 
d="M787 1061v125q0 81 -22 104t-106 31v50q124 -15 206 -15t203 15v-50q-85 -8 -106.5 -31t-21.5 -104v-125h128v-63h-128v-818q0 -81 21.5 -104t106.5 -32v-50q-126 15 -203 15t-206 -15v50q85 9 106.5 32t21.5 104v501h-443v-501q0 -81 21.5 -104t106.5 -32v-50
q-129 15 -206 15t-203 -15v50q85 9 106.5 32t21.5 104v818h-128v63h128v125q0 81 -21.5 103.5t-106.5 31.5v50q121 -15 203 -15t206 15v-50q-84 -8 -106 -31t-22 -104v-125h443zM787 998h-443v-254h443v254z" />
    <glyph glyph-name="hbar" unicode="&#x127;" horiz-adv-x="905" 
d="M301 1155h211v-68h-211v-238q79 137 209 137q131 0 197 -118q42 -75 42 -220v-503q0 -66 19.5 -85.5t90.5 -24.5v-41q-106 12 -179 12t-177 -12v40q61 3 81.5 24.5t20.5 83.5v513q0 124 -29 174q-36 64 -111 64q-90 0 -134 -82q-30 -57 -30 -164v-505q0 -61 20 -82.5
t80 -25.5v-40q-105 12 -177 12q-71 0 -178 -12v41q71 5 91 24.5t20 85.5v942h-110v68h110v30q0 73 -19 93t-91 20v36q136 15 254 54v-233z" />
    <glyph glyph-name="Itilde" unicode="&#x128;" horiz-adv-x="534" 
d="M472 44v-50q-130 15 -204 15q-75 0 -205 -15v50q84 8 106 31.5t22 104.5v1005q0 81 -22.5 105t-105.5 31v50q124 -15 205 -15q80 0 204 15v-50q-83 -7 -105.5 -31t-22.5 -105v-1005q0 -81 22 -104.5t106 -31.5zM47 1522l-48 15q23 106 61 154t99 48q33 0 63 -16t77 -58
q51 -45 90 -45q37 0 60 24.5t39 82.5l47 -13q-12 -86 -37 -127q-51 -83 -126 -83q-32 0 -62 16.5t-79 59.5q-48 43 -85 43q-66 0 -99 -101z" />
    <glyph glyph-name="itilde" unicode="&#x129;" horiz-adv-x="477" 
d="M313 1003v-858q0 -66 20 -85.5t91 -24.5v-41q-116 12 -183 12t-183 -12v41q71 5 91 24.5t20 85.5v648q0 78 -19 98.5t-90 21.5v35q133 16 253 55zM27 1181l-46 16q24 106 57 153q34 48 96 48q51 0 106 -50l39 -36q37 -33 71 -33q36 0 56.5 23.5t38.5 83.5l45 -13
q-13 -92 -49 -148q-41 -62 -108 -62q-53 0 -132 76q-45 43 -80 43q-61 0 -94 -101z" />
    <glyph glyph-name="Imacron" unicode="&#x12a;" horiz-adv-x="535" 
d="M472 44v-50q-130 15 -204 15q-75 0 -205 -15v50q84 8 106 31.5t22 104.5v1005q0 81 -22.5 105t-105.5 31v50q124 -15 205 -15q80 0 204 15v-50q-83 -7 -105.5 -31t-22.5 -105v-1005q0 -81 22 -104.5t106 -31.5zM48 1559v90h439v-90h-439z" />
    <glyph glyph-name="imacron" unicode="&#x12b;" horiz-adv-x="477" 
d="M314 1003v-858q0 -66 20 -85.5t91 -24.5v-41q-116 12 -183 12t-183 -12v41q71 5 91 24.5t20 85.5v648q0 78 -19 98.5t-90 21.5v35q133 16 253 55zM33 1191v83h382v-83h-382z" />
    <glyph glyph-name="Ibreve" unicode="&#x12c;" horiz-adv-x="535" 
d="M472 44v-50q-130 15 -204 15q-75 0 -205 -15v50q84 8 106 31.5t22 104.5v1005q0 81 -22.5 105t-105.5 31v50q124 -15 205 -15q80 0 204 15v-50q-83 -7 -105.5 -31t-22.5 -105v-1005q0 -81 22 -104.5t106 -31.5zM431 1760h56q-10 -111 -51 -182q-25 -43 -71 -69t-98 -26
q-95 0 -152.5 72t-67.5 205h56q45 -151 164 -151t164 151z" />
    <glyph glyph-name="ibreve" unicode="&#x12d;" horiz-adv-x="477" 
d="M314 1003v-858q0 -66 20 -85.5t91 -24.5v-41q-116 12 -183 12q-66 0 -183 -12v41q71 5 91 24.5t20 85.5v648q0 78 -19 98.5t-90 21.5v35q134 16 253 55zM380 1427h56q-6 -117 -50 -197q-52 -97 -157 -97q-90 0 -145 78t-61 216h56q42 -168 150 -168q109 0 151 168z" />
    <glyph glyph-name="Iogonek" unicode="&#x12e;" horiz-adv-x="534" 
d="M455 -4q-156 -71 -156 -166q0 -42 26 -69.5t66 -27.5q32 0 81 19v-66q-73 -33 -136 -33q-68 0 -114 45.5t-46 113.5q0 131 185 194q-51 3 -89 3q-80 0 -209 -15v50q84 8 106 31.5t22 104.5v1005q0 81 -22 105t-106 31v50q124 -15 205 -15q80 0 204 15v-50
q-83 -7 -105.5 -31t-22.5 -105v-1005q0 -81 22 -104.5t106 -31.5v-50z" />
    <glyph glyph-name="iogonek" unicode="&#x12f;" horiz-adv-x="464" 
d="M424 -6l-15 2q-38 -13 -66.5 -57.5t-28.5 -91.5q0 -41 22.5 -67.5t57.5 -26.5q23 0 51 12v-64q-53 -25 -101 -25q-63 0 -105.5 44t-42.5 109q0 106 135 174q-75 3 -99 3q-56 0 -173 -12v41q71 5 91 24.5t20 85.5v648q0 78 -19 98.5t-91 21.5v35q134 16 254 55v-858
q0 -66 20 -85.5t90 -24.5v-41zM237 1351q40 0 69 -29.5t29 -70.5t-29 -70t-71 -29q-41 0 -70 29t-29 71q0 41 29.5 70t71.5 29z" />
    <glyph glyph-name="Idotaccent" unicode="&#x130;" horiz-adv-x="534" 
d="M472 44v-50q-130 15 -204 15q-75 0 -205 -15v50q84 8 106 31.5t22 104.5v1005q0 81 -22 105t-106 31v50q124 -15 205 -15q80 0 204 15v-50q-83 -7 -105.5 -31t-22.5 -105v-1005q0 -81 22 -104.5t106 -31.5zM272 1725q40 0 69 -29.5t29 -69.5q0 -42 -29 -71t-70 -29
q-42 0 -71 29.5t-29 70.5t29.5 70t71.5 29z" />
    <glyph glyph-name="dotlessi" unicode="&#x131;" horiz-adv-x="477" 
d="M314 1003v-858q0 -66 20 -85.5t90 -24.5v-41q-115 12 -182 12t-183 -12v41q71 5 91 24.5t20 85.5v648q0 78 -19 98.5t-91 21.5v35q134 16 254 55z" />
    <glyph glyph-name="IJ" unicode="&#x132;" horiz-adv-x="1045" 
d="M472 44v-50q-130 15 -204 15q-75 0 -205 -15v50q84 8 106 31.5t22 104.5v1005q0 81 -22.5 105t-105.5 31v50q124 -15 205 -15q80 0 204 15v-50q-83 -7 -105.5 -31t-22.5 -105v-1005q0 -81 22 -104.5t106 -31.5zM515 -142v61q20 -2 33 -2q90 0 124 55t34 202v1011
q0 82 -21.5 105t-106.5 31v50q124 -15 205 -15q80 0 204 15v-50q-84 -8 -106 -31t-22 -105v-940q0 -104 -10 -158t-37 -103q-74 -129 -239 -129q-26 0 -58 3z" />
    <glyph glyph-name="ij" unicode="&#x133;" horiz-adv-x="954" 
d="M320 1003v-858q0 -66 20 -85.5t90 -24.5v-41q-115 12 -182 12t-183 -12v41q71 5 91 24.5t20 85.5v648q0 78 -19 98.5t-91 21.5v35q134 16 254 55zM243 1357q40 0 69 -29.5t29 -70.5t-29.5 -70t-70.5 -29t-70 29.5t-29 70.5t29.5 70t71.5 29zM531 913v35q135 16 254 55
v-975q0 -255 -108 -357q-90 -85 -225 -86v53q102 21 145.5 90.5t43.5 213.5v851q0 77 -19 98t-91 22zM710 1357q40 0 69 -29.5t29 -70.5t-29.5 -70t-70.5 -29t-70 29.5t-29 70.5t29.5 70t71.5 29z" />
    <glyph glyph-name="Jcircumflex" unicode="&#x134;" horiz-adv-x="531" 
d="M1 -142v61q20 -2 33 -2q90 0 124 55t34 202v1011q0 82 -21.5 105t-106.5 31v50q124 -15 205 -15q80 0 204 15v-50q-84 -8 -106 -31t-22 -105v-940q0 -104 -10 -158t-37 -103q-74 -129 -240 -129q-25 0 -57 3zM-3 1485l232 277h93l232 -277h-81l-197 171l-197 -171h-82z
" />
    <glyph glyph-name="jcircumflex" unicode="&#x135;" horiz-adv-x="472" 
d="M57 913v35q133 16 253 55v-975q0 -255 -108 -357q-90 -85 -225 -86v53q103 21 146 90.5t43 213.5v851q0 77 -19 98t-90 22zM-45 1130l215 299h79l215 -299h-78l-176 177l-177 -177h-78z" />
    <glyph glyph-name="Kcommaaccent" unicode="&#x136;" horiz-adv-x="1064" 
d="M493 828l359 -653q41 -74 77 -100t105 -31v-50q-123 16 -212 16q-88 0 -218 -16v50q18 2 26 3q87 8 87 45q0 24 -29 78l-284 535l-66 -92v-433q0 -81 21.5 -104.5t102.5 -31.5v-50q-108 15 -192 15t-207 -15v50q83 7 105.5 31t22.5 105v1005q0 81 -22 105t-106 31v50
q125 -15 206 -15q82 0 197 15v-50q-84 -7 -106 -30.5t-22 -105.5v-470l365 511q22 31 22 54q0 20 -20 28t-81 13v50q91 -9 169 -9q77 0 168 9v-50q-73 -5 -111 -26t-82 -82zM524 -493h-77q84 92 100 195q-13 -5 -25 -5q-32 0 -52.5 25.5t-20.5 66.5q0 44 24 71t64 27
q41 0 65.5 -32t24.5 -85q0 -126 -103 -263z" />
    <glyph glyph-name="kcommaaccent" unicode="&#x137;" horiz-adv-x="896" 
d="M446 -493h-78q84 91 100 192l-7 1q-7 -2 -14 -2q-35 0 -56 25t-21 66q0 44 24 71t64 27q41 0 66 -32t25 -86q0 -125 -103 -262zM491 624l231 -478q33 -67 60 -87t87 -24v-41q-69 7 -116 7t-115 -7l-237 517l-100 -133v-233q0 -65 20 -85t91 -25v-41q-117 12 -185 12
t-181 -12v41q71 5 91 24.5t20 85.5v1033q0 78 -19 99t-91 21v36q136 16 254 54v-923l261 353q27 36 27 67q0 41 -89 47v41q82 -10 150 -10q67 0 162 10v-41q-64 -7 -94.5 -25t-70.5 -72z" />
    <glyph glyph-name="kgreenlandic" unicode="&#x138;" horiz-adv-x="896" 
d="M473 605l249 -459q40 -72 63.5 -89.5t83.5 -21.5v-41q-71 7 -117 7q-48 0 -115 -7l-255 495l-78 -104v-240q0 -77 27 -92q26 -14 82 -18v-41q-113 12 -182 12q-68 0 -181 -12v41q71 5 91 24.5t20 85.5v650q0 78 -19 98.5t-91 21.5v35q125 16 253 54v-533l258 349
q28 38 28 65q0 41 -90 47v41q87 -10 151 -10t158 10v-41q-63 -7 -93.5 -25t-71.5 -72z" />
    <glyph glyph-name="Lacute" unicode="&#x139;" horiz-adv-x="849" 
d="M823 330l-38 -330h-722v50q85 9 106.5 32t21.5 104v999q0 82 -21.5 104.5t-106.5 32.5v49q124 -15 205 -15q80 0 204 15v-49q-85 -9 -106.5 -32t-21.5 -105v-995q0 -76 21 -101.5t83 -25.5h114q98 0 139 51t76 216h46zM225 1483l207 281h194l-323 -281h-78z" />
    <glyph glyph-name="lacute" unicode="&#x13a;" horiz-adv-x="468" 
d="M311 1388v-1243q0 -66 20 -85.5t90 -24.5v-41q-115 12 -182 12t-183 -12v41q71 5 91 24.5t20 85.5v1033q0 78 -19 99t-91 21v36q131 15 254 54zM184 1483l206 281h195l-323 -281h-78z" />
    <glyph glyph-name="Lcommaaccent" unicode="&#x13b;" horiz-adv-x="849" 
d="M823 330l-38 -330h-722v50q85 9 106.5 32t21.5 104v999q0 82 -21.5 104.5t-106.5 32.5v49q124 -15 205 -15q80 0 204 15v-49q-85 -9 -106.5 -32t-21.5 -105v-995q0 -76 21 -101.5t83 -25.5h114q98 0 139 51t76 216h46zM431 -493h-77q84 92 100 195q-13 -5 -25 -5
q-33 0 -53.5 25.5t-20.5 66.5q0 44 24 71t64 27q42 0 66.5 -32t24.5 -85q0 -126 -103 -263z" />
    <glyph glyph-name="lcommaaccent" unicode="&#x13c;" horiz-adv-x="468" 
d="M311 1388v-1243q0 -66 20 -85.5t90 -24.5v-41q-115 12 -182 12t-183 -12v41q71 5 91 24.5t20 85.5v1033q0 78 -19 99t-91 21v36q131 15 254 54zM227 -493h-77q83 91 99 192l-7 1q-7 -2 -14 -2q-35 0 -55.5 25t-20.5 66q0 44 24 71t63 27q42 0 66.5 -32t24.5 -86
q0 -125 -103 -262z" />
    <glyph glyph-name="Lcaron" unicode="&#x13d;" horiz-adv-x="849" 
d="M823 330l-38 -330h-722v50q85 9 106.5 32t21.5 104v999q0 82 -21.5 104.5t-106.5 32.5v49q124 -15 205 -15q80 0 204 15v-49q-85 -9 -106.5 -32t-21.5 -105v-995q0 -76 21 -101.5t83 -25.5h114q98 0 139 51t76 216h46zM621 990h-78q91 101 100 206l-7 2q-7 -3 -14 -3
q-35 0 -56 25.5t-21 69.5q0 46 24 73.5t64 27.5q91 0 91 -127q0 -133 -103 -274z" />
    <glyph glyph-name="lcaron" unicode="&#x13e;" horiz-adv-x="517" 
d="M311 1388v-1243q0 -66 20 -85.5t90 -24.5v-41q-115 12 -182 12t-183 -12v41q71 5 91 24.5t20 85.5v1033q0 78 -19 99t-91 21v36q131 15 254 54zM455 991h-77q91 101 99 206l-6 1q-8 -2 -15 -2q-76 4 -76 93q0 45 24 72.5t63 27.5q42 0 66.5 -33.5t24.5 -91.5
q0 -120 -81 -239q-15 -22 -22 -34z" />
    <glyph glyph-name="Ldot" unicode="&#x13f;" horiz-adv-x="849" 
d="M658 805q40 0 69 -29.5t29 -70.5t-29 -70t-70 -29q-42 0 -71 29.5t-29 70.5t29.5 70t71.5 29zM823 330l-38 -330h-722v50q85 9 106.5 32t21.5 104v999q0 82 -21.5 104.5t-106.5 32.5v49q124 -15 205 -15q80 0 204 15v-49q-85 -9 -106.5 -32t-21.5 -105v-995
q0 -76 21 -101.5t83 -25.5h114q98 0 139 51t76 216h46z" />
    <glyph glyph-name="ldot" unicode="&#x140;" horiz-adv-x="642" 
d="M301 1388v-1243q0 -66 20 -85.5t90 -24.5v-41q-115 12 -182 12t-183 -12v41q71 5 91 24.5t20 85.5v1033q0 78 -19 99t-91 21v36q131 15 254 54zM537 808q40 0 69 -29.5t29 -70.5t-29.5 -70t-70.5 -29t-70 29.5t-29 70.5t29.5 70t71.5 29z" />
    <glyph glyph-name="Lslash" unicode="&#x141;" horiz-adv-x="849" 
d="M191 593l-128 -89v86l128 89v506q0 82 -21.5 104.5t-106.5 32.5v49q124 -15 205 -15q80 0 204 15v-49q-85 -9 -106.5 -32t-21.5 -105v-400l223 154v-85l-223 -155v-509q0 -76 21 -101.5t83 -25.5h113q99 0 140 51t75 216h46l-38 -330h-721v50q85 9 106.5 32t21.5 104v407
z" />
    <glyph glyph-name="lslash" unicode="&#x142;" horiz-adv-x="467" 
d="M311 733v-588q0 -66 19.5 -85.5t90.5 -24.5v-41q-112 12 -182 12t-183 -12v41q71 5 91 24.5t20 85.5v489l-110 -84l-1 86l111 84v458q0 78 -19 98.5t-91 21.5v36q136 15 254 54v-570l110 85v-86z" />
    <glyph glyph-name="Nacute" unicode="&#x143;" horiz-adv-x="1122" 
d="M932 -41h-26q-59 118 -170 326l-481 896v-1001q0 -55 6.5 -77.5t25.5 -33.5q31 -18 101 -25v-50q-118 10 -167 10q-51 0 -159 -10v50q89 9 111 31.5t22 104.5v1081q-23 31 -50.5 43.5t-83.5 16.5v50q73 -7 139 -7q60 0 119 7l553 -1023v837q0 55 -6.5 78t-24.5 33
q-34 19 -102 25v50q112 -10 167 -10q56 0 158 10v-50q-87 -8 -109.5 -31t-22.5 -105v-1226zM508 1483l207 281h194l-322 -281h-79z" />
    <glyph glyph-name="nacute" unicode="&#x144;" horiz-adv-x="918" 
d="M61 907v35q131 23 220 61q13 -67 18 -178q85 161 224 161q61 0 113.5 -31.5t83.5 -86.5q42 -75 42 -220v-503q0 -65 20 -85t91 -25v-41q-107 12 -179 12q-74 0 -178 -12v40q61 3 81.5 24.5t20.5 83.5v513q0 124 -29 175q-36 63 -111 63q-89 0 -134 -82q-30 -57 -30 -164
v-505q0 -61 20 -82.5t80 -25.5v-40q-105 12 -177 12q-71 0 -178 -12v41q71 5 91 24.5t20 85.5v634q0 89 -15.5 107t-93.5 21zM411 1129l160 301h178l-269 -301h-69z" />
    <glyph glyph-name="Ncommaaccent" unicode="&#x145;" horiz-adv-x="1122" 
d="M932 -41h-26q-59 118 -170 326l-481 896v-1001q0 -55 6.5 -77.5t25.5 -33.5q31 -18 101 -25v-50q-118 10 -167 10q-51 0 -159 -10v50q89 9 111 31.5t22 104.5v1081q-23 31 -50.5 43.5t-83.5 16.5v50q73 -7 139 -7q60 0 119 7l553 -1023v837q0 55 -6.5 78t-24.5 33
q-34 19 -102 25v50q112 -10 167 -10q56 0 158 10v-50q-87 -8 -109.5 -31t-22.5 -105v-1226zM551 -493h-77q84 92 100 195q-13 -5 -25 -5q-32 0 -52.5 25.5t-20.5 66.5q0 44 24 71t64 27q41 0 65.5 -32t24.5 -85q0 -126 -103 -263z" />
    <glyph glyph-name="ncommaaccent" unicode="&#x146;" horiz-adv-x="918" 
d="M61 907v35q131 23 220 61q13 -67 18 -178q85 161 224 161q61 0 113.5 -31.5t83.5 -86.5q42 -75 42 -220v-503q0 -65 20 -85t91 -25v-41q-107 12 -179 12q-74 0 -178 -12v40q61 3 81.5 24.5t20.5 83.5v513q0 124 -29 175q-36 63 -111 63q-89 0 -134 -82q-30 -57 -30 -164
v-505q0 -61 20 -82.5t80 -25.5v-40q-105 12 -177 12q-71 0 -178 -12v41q71 5 91 24.5t20 85.5v634q0 89 -15.5 107t-93.5 21zM454 -493h-77q84 91 99 192l-7 1q-7 -2 -14 -2q-34 0 -55 25t-21 66q0 45 24 71.5t64 26.5q41 0 65.5 -32t24.5 -86q0 -125 -103 -262z" />
    <glyph glyph-name="Ncaron" unicode="&#x147;" horiz-adv-x="1122" 
d="M932 -41h-26q-59 118 -170 326l-481 896v-1001q0 -55 6.5 -77.5t25.5 -33.5q31 -18 101 -25v-50q-118 10 -167 10q-51 0 -159 -10v50q89 9 111 31.5t22 104.5v1081q-23 31 -50.5 43.5t-83.5 16.5v50q73 -7 139 -7q60 0 119 7l553 -1023v837q0 55 -6.5 78t-24.5 33
q-34 19 -102 25v50q112 -10 167 -10q56 0 158 10v-50q-87 -8 -109.5 -31t-22.5 -105v-1226zM841 1759l-232 -277h-93l-232 277h81l198 -171l197 171h81z" />
    <glyph glyph-name="ncaron" unicode="&#x148;" horiz-adv-x="918" 
d="M61 907v35q131 23 220 61q13 -67 18 -178q85 161 224 161q61 0 113.5 -31.5t83.5 -86.5q42 -75 42 -220v-503q0 -65 20 -85t91 -25v-41q-107 12 -179 12q-74 0 -178 -12v40q61 3 81.5 24.5t20.5 83.5v513q0 124 -29 175q-36 63 -111 63q-89 0 -134 -82q-30 -57 -30 -164
v-505q0 -61 20 -82.5t80 -25.5v-40q-105 12 -177 12q-71 0 -178 -12v41q71 5 91 24.5t20 85.5v634q0 89 -15.5 107t-93.5 21zM721 1426l-216 -299h-79l-215 299h78l177 -177l177 177h78z" />
    <glyph glyph-name="napostrophe" unicode="&#x149;" horiz-adv-x="1198" 
d="M188 923h-79q97 129 114 264q-8 -1 -14 -1q-39 0 -63.5 28t-24.5 72q0 45 27 73t70 28q45 0 71 -31.5t26 -85.5q0 -150 -127 -347zM341 907v35q131 23 220 61q13 -66 18 -178q86 161 224 161q131 0 197 -118q42 -75 42 -220v-503q0 -65 20 -85t91 -25v-41
q-107 12 -179 12q-74 0 -178 -12v40q61 3 81.5 24.5t20.5 83.5v513q0 124 -29 175q-36 63 -111 63q-89 0 -134 -82q-30 -57 -30 -164v-505q0 -61 20 -82.5t80 -25.5v-40q-104 12 -176 12t-179 -12v41q71 5 91 24.5t20 85.5v634q0 89 -15.5 107t-93.5 21z" />
    <glyph glyph-name="Eng" unicode="&#x14a;" horiz-adv-x="1042" 
d="M69 1280v50q114 16 246 69q16 -82 20 -209q95 201 248 201q75 0 137.5 -47t98.5 -131q43 -102 43 -314v-924q0 -158 -30 -229q-39 -93 -127 -133q-61 -28 -127 -28q-17 0 -53 4v60q24 -2 40 -2q80 0 112 57t32 200v1004q0 172 -27 242q-43 110 -137 110q-48 0 -90 -31.5
t-68 -86.5q-37 -80 -37 -245v-717q0 -84 24 -106q26 -23 104 -30v-50q-134 15 -209 15t-200 -15v50q83 7 105.5 31t22.5 105v919q0 126 -17 152q-18 28 -111 29z" />
    <glyph glyph-name="eng" unicode="&#x14b;" horiz-adv-x="918" 
d="M436 -415v53q99 21 140.5 90.5t41.5 214.5v712q0 124 -29 175q-36 63 -111 63q-89 0 -134 -82q-30 -57 -30 -164v-505q0 -61 20 -82.5t80 -25.5v-40q-105 12 -177 12q-71 0 -178 -12v41q71 5 91 24.5t20 85.5v634q0 89 -15.5 107t-93.5 21v35q131 23 220 61
q13 -67 18 -178q85 161 224 161q61 0 113.5 -31.5t83.5 -86.5q42 -75 42 -220v-620q0 -135 -25.5 -217.5t-85.5 -142.5q-80 -81 -215 -83z" />
    <glyph glyph-name="Omacron" unicode="&#x14c;" horiz-adv-x="1056" 
d="M528 1391q119 0 219 -76q107 -83 164 -250.5t57 -404.5q0 -268 -113 -485q-52 -99 -154 -158q-75 -43 -169 -43q-163 0 -280 130q-79 89 -125 266q-38 146 -38 309q0 312 111 507q60 105 157 160q77 45 171 45zM530 1334q-111 0 -184 -128q-29 -50 -42 -97
q-52 -187 -52 -418q0 -173 25.5 -313.5t71.5 -221.5q71 -125 184 -125q109 0 177 120q30 53 43 104q52 193 52 424q0 175 -25 316.5t-70 216.5q-72 122 -180 122zM265 1559v90h528v-90h-528z" />
    <glyph glyph-name="omacron" unicode="&#x14d;" horiz-adv-x="789" 
d="M402 992q110 0 190 -91q54 -62 87.5 -177t33.5 -237q0 -213 -85 -359q-87 -150 -235 -150q-95 0 -172 71q-70 64 -108 177.5t-38 256.5q0 213 82 352q93 157 245 157zM397 939q-66 0 -109 -77q-62 -112 -62 -383q0 -448 167 -448q66 0 108 75q61 109 61 374
q0 459 -165 459zM144 1191v83h500v-83h-500z" />
    <glyph glyph-name="Obreve" unicode="&#x14e;" horiz-adv-x="1056" 
d="M528 1391q119 0 219 -76q107 -83 164 -250.5t57 -404.5q0 -268 -113 -485q-52 -99 -154 -158q-75 -43 -169 -43q-163 0 -280 130q-79 89 -125 266q-38 146 -38 309q0 312 111 507q60 105 157 160q77 45 171 45zM530 1334q-111 0 -184 -128q-29 -50 -42 -97
q-52 -187 -52 -418q0 -173 25.5 -313.5t71.5 -221.5q71 -125 184 -125q109 0 177 120q30 53 43 104q52 193 52 424q0 175 -25 316.5t-70 216.5q-72 122 -180 122zM693 1760h55q-9 -111 -50 -182q-25 -43 -71.5 -69t-97.5 -26q-96 0 -153 72t-67 205h55q46 -151 164 -151
q119 0 165 151z" />
    <glyph glyph-name="obreve" unicode="&#x14f;" horiz-adv-x="789" 
d="M402 992q110 0 190 -91q54 -62 87.5 -177t33.5 -237q0 -213 -85 -359q-87 -150 -235 -150q-95 0 -172 71q-70 64 -108 177.5t-38 256.5q0 213 82 352q93 157 245 157zM397 939q-66 0 -109 -77q-62 -112 -62 -383q0 -448 167 -448q66 0 108 75q61 109 61 374
q0 459 -165 459zM558 1427h56q-6 -118 -53 -197q-56 -97 -167 -97q-96 0 -154.5 78t-65.5 216h56q45 -168 164 -168t164 168z" />
    <glyph glyph-name="Ohungarumlaut" unicode="&#x150;" horiz-adv-x="1056" 
d="M528 1391q119 0 219 -76q107 -83 164 -250.5t57 -404.5q0 -268 -113 -485q-52 -99 -154 -158q-75 -43 -169 -43q-163 0 -280 130q-79 89 -125 266q-38 146 -38 309q0 312 111 507q60 105 157 160q77 45 171 45zM530 1334q-111 0 -184 -128q-29 -50 -42 -97
q-52 -187 -52 -418q0 -173 25.5 -313.5t71.5 -221.5q71 -125 184 -125q109 0 177 120q30 53 43 104q52 193 52 424q0 175 -25 316.5t-70 216.5q-72 122 -180 122zM621 1483l178 281h158l-261 -281h-75zM364 1483l178 281h156l-258 -281h-76z" />
    <glyph glyph-name="ohungarumlaut" unicode="&#x151;" horiz-adv-x="789" 
d="M402 992q110 0 190 -91q54 -62 87.5 -177t33.5 -237q0 -213 -85 -359q-87 -150 -235 -150q-95 0 -172 71q-70 64 -108 177.5t-38 256.5q0 213 82 352q93 157 245 157zM397 939q-66 0 -109 -77q-62 -112 -62 -383q0 -448 167 -448q66 0 108 75q61 109 61 374
q0 459 -165 459zM255 1128l140 302h141l-214 -302h-67zM481 1128l141 302h142l-217 -302h-66z" />
    <glyph glyph-name="OE" unicode="&#x152;" horiz-adv-x="1526" 
d="M806 194q-101 -218 -285 -218q-151 0 -267 128q-81 90 -127 271q-38 149 -38 313q0 297 111 496q57 102 157 162q72 43 159 43q188 0 290 -214v190h585l29 -308h-46q-28 145 -66 195t-118 50h-231v-561h223q38 0 54.5 12t26.5 47q11 37 14 110h46v-402h-46
q-3 100 -24.5 135t-79.5 35h-214v-494q0 -73 21.5 -97t86.5 -24h112q65 0 99 20t60 74q31 62 53 173h46l-37 -330h-594v194zM527 1330q-112 0 -185 -131q-90 -162 -90 -515q0 -350 91 -519q71 -130 189 -130q109 0 179 123q28 49 41 95q53 185 53 409q0 355 -81 518
q-75 150 -197 150z" />
    <glyph glyph-name="oe" unicode="&#x153;" horiz-adv-x="1258" 
d="M632 143q-94 -163 -240 -163q-94 0 -171 71q-70 64 -108 177t-38 254q0 207 82 349q90 157 245 157q146 0 232 -160q95 158 247 158q94 0 162 -60t103 -174q34 -111 35 -267h-474q4 -199 34 -287q49 -149 169 -149q86 0 139.5 69.5t67.5 196.5h66q-13 -131 -74 -222
q-74 -112 -217 -112q-80 0 -146 41.5t-114 120.5zM1038 553q-13 224 -47 296q-42 87 -113 87q-75 0 -120 -104q-32 -72 -49 -279h329zM397 935q-67 0 -109 -76q-62 -113 -62 -382q0 -444 167 -444q66 0 108 75q61 110 61 355q0 275 -50 380q-43 92 -115 92z" />
    <glyph glyph-name="Racute" unicode="&#x154;" horiz-adv-x="997" 
d="M379 1483l207 281h194l-322 -281h-79zM344 649v-469q0 -81 21 -104t107 -32v-50q-127 15 -203 15t-206 -15v50q85 9 106.5 32t21.5 104v999q0 81 -22 104.5t-106 31.5v50h428q184 0 273 -103q88 -102 88 -255q0 -139 -68.5 -225.5t-205.5 -119.5q60 -20 94 -59t60 -119
l107 -322q23 -71 48 -93t85 -25v-50q-65 6 -115 6q-51 0 -117 -6q-32 84 -45 126l-119 366q-32 97 -68 130t-111 33h-53zM344 712h112q115 0 172 67q31 36 49.5 100t18.5 134q0 289 -231 289h-121v-590z" />
    <glyph glyph-name="racute" unicode="&#x155;" horiz-adv-x="642" 
d="M424 35v-41q-113 12 -183 12t-183 -12v41q71 5 91 24.5t20 85.5v642q0 84 -15 106t-73 22h-21v35q151 25 219 49q12 -95 17 -193q52 186 188 186q63 0 101 -44q39 -44 39 -115q0 -106 -78 -106q-30 0 -49.5 19t-19.5 49q0 13 5 36q4 19 4 31q0 18 -12.5 31t-29.5 13
q-62 0 -96.5 -88t-34.5 -244v-429q0 -66 21 -87t90 -23zM302 1129l161 301h177l-269 -301h-69z" />
    <glyph glyph-name="Rcommaaccent" unicode="&#x156;" horiz-adv-x="997" 
d="M505 -493h-77q84 92 100 195q-13 -5 -25 -5q-32 0 -52.5 26t-20.5 66q0 44 24 71t64 27q41 0 65.5 -32t24.5 -85q0 -126 -103 -263zM344 649v-469q0 -81 21 -104t107 -32v-50q-127 15 -203 15t-206 -15v50q85 9 106.5 32t21.5 104v999q0 81 -22 104.5t-106 31.5v50h428
q184 0 273 -103q88 -102 88 -255q0 -139 -68.5 -225.5t-205.5 -119.5q60 -20 94 -59t60 -119l107 -322q23 -71 48 -93t85 -25v-50q-65 6 -115 6q-51 0 -117 -6q-32 84 -45 126l-119 366q-32 97 -68 130t-111 33h-53zM344 712h112q115 0 172 67q31 36 49.5 100t18.5 134
q0 289 -231 289h-121v-590z" />
    <glyph glyph-name="rcommaaccent" unicode="&#x157;" horiz-adv-x="642" 
d="M424 35v-41q-113 12 -183 12t-183 -12v41q71 5 91 24.5t20 85.5v642q0 84 -15 106t-73 22h-21v35q151 25 219 49q12 -95 17 -193q52 186 188 186q63 0 101 -44q39 -44 39 -115q0 -106 -78 -106q-30 0 -49.5 19t-19.5 49q0 13 5 36q4 19 4 31q0 18 -12.5 31t-29.5 13
q-62 0 -96.5 -88t-34.5 -244v-429q0 -66 21 -87t90 -23zM233 -493h-77q84 91 99 192l-6 1q-8 -2 -14 -2q-35 0 -56 25t-21 66q0 44 24 71t64 27q41 0 66 -32t25 -86q0 -124 -104 -262z" />
    <glyph glyph-name="Rcaron" unicode="&#x158;" horiz-adv-x="997" 
d="M735 1759l-233 -277h-92l-232 277h81l197 -171l197 171h82zM344 649v-469q0 -81 21 -104t107 -32v-50q-127 15 -203 15t-206 -15v50q85 9 106.5 32t21.5 104v999q0 81 -22 104.5t-106 31.5v50h428q184 0 273 -103q88 -102 88 -255q0 -139 -68.5 -225.5t-205.5 -119.5
q60 -20 94 -59t60 -119l107 -322q23 -71 48 -93t85 -25v-50q-65 6 -115 6q-51 0 -117 -6q-32 84 -45 126l-119 366q-32 97 -68 130t-111 33h-53zM344 712h112q115 0 172 67q31 36 49.5 100t18.5 134q0 289 -231 289h-121v-590z" />
    <glyph glyph-name="rcaron" unicode="&#x159;" horiz-adv-x="642" 
d="M424 35v-41q-113 12 -183 12t-183 -12v41q71 5 91 24.5t20 85.5v642q0 84 -15 106t-73 22h-21v35q151 25 219 49q12 -95 17 -193q52 186 188 186q63 0 101 -44q39 -44 39 -115q0 -106 -78 -106q-30 0 -49.5 19t-19.5 49q0 13 5 36q4 19 4 31q0 18 -12.5 31t-29.5 13
q-62 0 -96.5 -88t-34.5 -244v-429q0 -66 21 -87t90 -23zM602 1426l-215 -299h-79l-215 299h78l176 -177l177 177h78z" />
    <glyph glyph-name="Sacute" unicode="&#x15a;" horiz-adv-x="871" 
d="M389 1483l206 281h195l-323 -281h-78zM106 413h46q48 -367 281 -367q96 0 155 70q66 77 66 195q0 103 -46 167t-179 147q-111 69 -174 120q-70 57 -101 125t-31 164q0 84 29 157t80 118q85 75 205 75q131 0 214 -105l46 113h31v-377h-46q-25 144 -79 227q-53 80 -153 80
q-86 0 -140 -64q-61 -72 -61 -177q0 -94 43.5 -147.5t208.5 -160.5q108 -70 162 -119q118 -107 118 -290q0 -170 -94 -277q-92 -105 -236 -105t-258 115l-56 -128h-31v444z" />
    <glyph glyph-name="sacute" unicode="&#x15b;" horiz-adv-x="719" 
d="M306 1129l161 301h177l-269 -301h-69zM97 -24v342h44q34 -274 201 -274q69 0 115 52q47 52 47 127q0 57 -20 87q-32 51 -128 105q-148 84 -192 133q-56 62 -56 169q0 133 82 206q70 62 168 62q92 0 162 -64l24 83h34v-318h-44q-19 241 -163 241q-64 0 -106 -47
q-41 -47 -41 -116q0 -62 29 -99t117 -86q119 -66 168 -108q88 -73 88 -196q0 -145 -92 -228q-71 -65 -175 -65q-109 0 -194 85l-34 -91h-34z" />
    <glyph glyph-name="Scircumflex" unicode="&#x15c;" horiz-adv-x="871" 
d="M165 1485l232 277h93l232 -277h-81l-197 171l-198 -171h-81zM106 413h46q48 -367 281 -367q96 0 155 70q66 77 66 195q0 103 -46 167t-179 147q-111 69 -174 120q-70 57 -101 125t-31 164q0 84 29 157t80 118q85 75 205 75q131 0 214 -105l46 113h31v-377h-46
q-25 144 -79 227q-53 80 -153 80q-86 0 -140 -64q-61 -72 -61 -177q0 -94 43.5 -147.5t208.5 -160.5q108 -70 162 -119q118 -107 118 -290q0 -170 -94 -277q-92 -105 -236 -105t-258 115l-56 -128h-31v444z" />
    <glyph glyph-name="scircumflex" unicode="&#x15d;" horiz-adv-x="718" 
d="M106 1130l216 299h79l215 -299h-78l-177 177l-177 -177h-78zM97 -24v342h44q34 -274 201 -274q69 0 115 52q47 52 47 127q0 57 -20 87q-32 51 -128 105q-148 84 -192 133q-56 62 -56 169q0 133 82 206q70 62 168 62q92 0 162 -64l24 83h34v-318h-44q-19 241 -163 241
q-64 0 -106 -47q-41 -47 -41 -116q0 -62 29 -99t117 -86q119 -66 168 -108q88 -73 88 -196q0 -145 -92 -228q-71 -65 -175 -65q-109 0 -194 85l-34 -91h-34z" />
    <glyph glyph-name="Scedilla" unicode="&#x15e;" horiz-adv-x="871" 
d="M479 -18l-42 -101q155 -13 155 -146q0 -75 -52 -122q-44 -40 -110 -40q-58 0 -131 32v68q50 -19 86 -19q38 0 63 26.5t25 65.5q0 47 -29.5 67.5t-99.5 22.5l63 148q-120 18 -214 113l-56 -128h-31v444h46q48 -367 281 -367q96 0 155 70q66 77 66 195q0 103 -46 167
t-179 147q-111 69 -174 120q-70 57 -101 125t-31 164q0 84 29 157t80 118q85 75 205 75q131 0 214 -105l46 113h31v-377h-46q-26 144 -79 227q-53 80 -153 80q-86 0 -140 -64q-61 -72 -61 -177q0 -95 43.5 -148.5t208.5 -159.5q108 -70 162 -119q118 -107 118 -291
q0 -160 -83.5 -265t-218.5 -116z" />
    <glyph glyph-name="scedilla" unicode="&#x15f;" horiz-adv-x="718" 
d="M393 -17l-44 -104q150 -16 150 -138q0 -68 -44.5 -110t-115.5 -42q-59 0 -124 33v61q51 -19 84 -19q37 0 60.5 24.5t23.5 62.5q0 44 -28.5 64.5t-95.5 24.5l63 144q-86 11 -157 82l-34 -90h-34v342h44q34 -275 201 -275q70 0 115 52q47 52 47 127q0 57 -20 87
q-32 51 -128 106q-148 84 -192 132q-56 62 -56 169q0 134 82 207q70 62 168 62q92 0 162 -64l24 83h34v-318h-44q-19 241 -163 241q-64 0 -106 -47q-41 -47 -41 -116q0 -62 29 -99t117 -86q119 -67 168 -108q88 -74 88 -196q0 -119 -64.5 -199.5t-168.5 -92.5z" />
    <glyph glyph-name="Scaron" unicode="&#x160;" horiz-adv-x="871" 
d="M722 1759l-232 -277h-93l-232 277h81l198 -171l197 171h81zM106 413h46q48 -367 281 -367q96 0 155 70q66 77 66 195q0 103 -46 167t-179 147q-111 69 -174 120q-70 57 -101 125t-31 164q0 84 29 157t80 118q85 75 205 75q131 0 214 -105l46 113h31v-377h-46
q-25 144 -79 227q-53 80 -153 80q-86 0 -140 -64q-61 -72 -61 -177q0 -94 43.5 -147.5t208.5 -160.5q108 -70 162 -119q118 -107 118 -290q0 -170 -94 -277q-92 -105 -236 -105t-258 115l-56 -128h-31v444z" />
    <glyph glyph-name="scaron" unicode="&#x161;" horiz-adv-x="718" 
d="M609 1426l-215 -299h-79l-215 299h78l177 -177l176 177h78zM97 -24v342h44q34 -274 201 -274q69 0 115 52q47 52 47 127q0 57 -20 87q-32 51 -128 105q-148 84 -192 133q-56 62 -56 169q0 133 82 206q70 62 168 62q92 0 162 -64l24 83h34v-318h-44q-19 241 -163 241
q-64 0 -106 -47q-41 -47 -41 -116q0 -62 29 -99t117 -86q119 -66 168 -108q88 -73 88 -196q0 -145 -92 -228q-71 -65 -175 -65q-109 0 -194 85l-34 -91h-34z" />
    <glyph glyph-name="Tcommaaccent" unicode="&#x162;" horiz-adv-x="884" 
d="M798 1053q-31 149 -69 199t-119 50h-92v-1122q0 -82 21 -104t107 -32v-50q-126 15 -204 15q-79 0 -205 -15v50q86 9 107 31.5t21 104.5v1122h-83q-59 0 -92 -21.5t-58 -76.5q-23 -50 -46 -151h-46l44 312h715l45 -312h-46zM430 -493h-77q84 92 100 195q-13 -5 -25 -5
q-32 0 -52.5 25.5t-20.5 66.5q0 44 24 71t64 27q41 0 65.5 -32t24.5 -85q0 -126 -103 -263z" />
    <glyph glyph-name="tcommaaccent" unicode="&#x163;" horiz-adv-x="528" 
d="M499 102l-1 -60q-81 -60 -156 -60q-131 0 -172 123q-19 58 -18 202l6 592h-101v56q72 6 112 54q61 71 88 250h45l-1 -292h184v-68h-184l-1 -610q0 -83 5 -122t19 -66q22 -39 71 -39q42 0 104 40zM295 -493h-77q84 91 99 192l-7 1q-7 -2 -14 -2q-35 0 -56 25t-21 66
q0 44 24 71t64 27q42 0 66.5 -32t24.5 -86q0 -125 -103 -262z" />
    <glyph glyph-name="Tcaron" unicode="&#x164;" horiz-adv-x="884" 
d="M720 1759l-232 -277h-92l-233 277h82l197 -171l197 171h81zM798 1053q-31 149 -69 199t-119 50h-92v-1122q0 -82 21 -104t107 -32v-50q-126 15 -204 15q-79 0 -205 -15v50q86 9 107 31.5t21 104.5v1122h-83q-59 0 -92 -21.5t-58 -76.5q-23 -50 -46 -151h-46l44 312h715
l45 -312h-46z" />
    <glyph glyph-name="tcaron" unicode="&#x165;" horiz-adv-x="528" 
d="M499 102l-1 -60q-81 -60 -156 -60q-131 0 -172 123q-19 58 -18 202l6 592h-101v56q72 6 112 54q61 71 88 250h45l-1 -292h184v-68h-184l-1 -610q0 -83 5 -122t19 -66q22 -39 71 -39q42 0 104 40zM443 1068h-77q91 101 100 206l-7 1q-7 -2 -14 -2q-35 0 -56 25.5t-21 67.5
q0 45 24 72.5t63 27.5q43 0 67 -33.5t24 -91.5q0 -120 -81 -239q-15 -22 -22 -34z" />
    <glyph glyph-name="Tbar" unicode="&#x166;" horiz-adv-x="884" 
d="M518 797v-617q0 -82 21 -104t107 -32v-50q-126 15 -204 15q-79 0 -205 -15v50q86 9 107 31.5t21 104.5v617h-227v66h227v439h-83q-59 0 -92 -21.5t-58 -75.5q-23 -51 -46 -152h-46l44 312h715l45 -312h-46q-31 149 -68.5 199t-119.5 50h-92v-439h224v-66h-224z" />
    <glyph glyph-name="tbar" unicode="&#x167;" horiz-adv-x="534" 
d="M156 723l2 176h-101v56q72 6 112 54q61 71 88 250h45l-1 -292h184v-68h-184v-176h187v-68h-188v-366q0 -83 5 -122t19 -66q22 -39 71 -39q41 0 104 40l-1 -60q-81 -60 -156 -60q-103 0 -146.5 68.5t-43.5 227.5v29l4 348h-96v68h96z" />
    <glyph glyph-name="Utilde" unicode="&#x168;" horiz-adv-x="1109" 
d="M732 1321v50q111 -10 166 -10q56 0 158 10v-50q-87 -8 -109.5 -31t-22.5 -105v-768q0 -172 -56 -272q-94 -168 -310 -168q-156 0 -256 91q-65 58 -92.5 137t-27.5 204v776q0 82 -21.5 104.5t-106.5 31.5v50q124 -15 205 -15q80 0 204 15v-50q-84 -8 -106 -31.5
t-22 -104.5v-792q0 -150 34 -211q64 -114 220 -114q128 0 204 81q71 76 71 257v779q0 82 -22.5 104.5t-109.5 31.5zM360 1522l-49 15q23 106 61 154t99 48q33 0 63.5 -16t77.5 -58q50 -45 90 -45q37 0 59.5 24.5t38.5 82.5l48 -13q-13 -86 -38 -127q-51 -83 -126 -83
q-32 0 -62 16.5t-79 59.5q-47 43 -84 43q-67 0 -99 -101z" />
    <glyph glyph-name="utilde" unicode="&#x169;" horiz-adv-x="901" 
d="M241 1181l-45 16q23 106 57 153q34 48 95 48q56 0 126 -68q53 -51 92 -51q34 0 55 23.5t39 83.5l44 -13q-12 -92 -49 -148q-40 -62 -107 -62q-52 0 -132 77q-45 42 -80 42q-61 0 -95 -101zM36 913v35q130 16 253 55v-694q0 -121 29 -172q35 -62 113 -62q163 0 163 261
v457q0 78 -19.5 99t-89.5 21v35q130 15 253 55v-820q0 -79 16 -95.5t97 -18.5v-36q-133 -16 -227 -54q-13 88 -13 152v23q-40 -90 -92.5 -130.5t-130.5 -40.5q-138 0 -202 114q-41 72 -41 215v481q0 78 -19.5 99t-89.5 21z" />
    <glyph glyph-name="Umacron" unicode="&#x16a;" horiz-adv-x="1109" 
d="M732 1321v50q111 -10 166 -10q56 0 158 10v-50q-87 -8 -109.5 -31t-22.5 -105v-768q0 -172 -56 -272q-94 -168 -310 -168q-156 0 -256 91q-65 58 -92.5 137t-27.5 204v776q0 82 -21.5 104.5t-106.5 31.5v50q124 -15 205 -15q80 0 204 15v-50q-84 -8 -106 -31.5
t-22 -104.5v-792q0 -150 34 -211q64 -114 220 -114q128 0 204 81q71 76 71 257v779q0 82 -22.5 104.5t-109.5 31.5zM323 1559v90h528v-90h-528z" />
    <glyph glyph-name="umacron" unicode="&#x16b;" horiz-adv-x="901" 
d="M36 913v35q130 16 253 55v-694q0 -121 29 -172q35 -62 113 -62q163 0 163 261v457q0 78 -19.5 99t-89.5 21v35q130 15 253 55v-820q0 -79 16 -95.5t97 -18.5v-36q-133 -16 -227 -54q-13 88 -13 152v23q-40 -90 -92.5 -130.5t-130.5 -40.5q-138 0 -202 114q-41 72 -41 215
v481q0 78 -19.5 99t-89.5 21zM183 1191v83h500v-83h-500z" />
    <glyph glyph-name="Ubreve" unicode="&#x16c;" horiz-adv-x="1109" 
d="M732 1321v50q111 -10 166 -10q56 0 158 10v-50q-87 -8 -109.5 -31t-22.5 -105v-768q0 -172 -56 -272q-94 -168 -310 -168q-156 0 -256 91q-65 58 -92.5 137t-27.5 204v776q0 82 -21.5 104.5t-106.5 31.5v50q124 -15 205 -15q80 0 204 15v-50q-84 -8 -106 -31.5
t-22 -104.5v-792q0 -150 34 -211q64 -114 220 -114q128 0 204 81q71 76 71 257v779q0 82 -22.5 104.5t-109.5 31.5zM719 1760h56q-9 -111 -51 -182q-24 -43 -70.5 -69t-98.5 -26q-95 0 -152.5 72t-67.5 205h56q46 -151 164 -151q119 0 164 151z" />
    <glyph glyph-name="ubreve" unicode="&#x16d;" horiz-adv-x="901" 
d="M36 913v35q130 16 253 55v-694q0 -121 29 -172q35 -62 113 -62q163 0 163 261v457q0 78 -19.5 99t-89.5 21v35q130 15 253 55v-820q0 -79 16 -95.5t97 -18.5v-36q-133 -16 -227 -54q-13 88 -13 152v23q-40 -90 -92.5 -130.5t-130.5 -40.5q-138 0 -202 114q-41 72 -41 215
v481q0 78 -19.5 99t-89.5 21zM607 1427h56q-6 -118 -52 -197q-56 -97 -168 -97q-96 0 -154.5 78t-65.5 216h56q45 -168 164 -168t164 168z" />
    <glyph glyph-name="Uring" unicode="&#x16e;" horiz-adv-x="1109" 
d="M732 1321v50q111 -10 166 -10q56 0 158 10v-50q-87 -8 -109.5 -31t-22.5 -105v-768q0 -172 -56 -272q-94 -168 -310 -168q-156 0 -256 91q-65 58 -92.5 137t-27.5 204v776q0 82 -21.5 104.5t-106.5 31.5v50q124 -15 205 -15q80 0 204 15v-50q-84 -8 -106 -31.5
t-22 -104.5v-792q0 -150 34 -211q64 -114 220 -114q128 0 204 81q71 76 71 257v779q0 82 -22.5 104.5t-109.5 31.5zM593 1788q62 0 107.5 -46t45.5 -110q0 -69 -51 -116q-45 -40 -105 -40q-65 0 -110.5 46t-45.5 111t46 110t113 45zM591 1720q-37 0 -63 -25.5t-26 -61.5
q0 -37 25.5 -63t62.5 -26t62.5 26t25.5 62t-25.5 62t-61.5 26z" />
    <glyph glyph-name="uring" unicode="&#x16f;" horiz-adv-x="901" 
d="M36 913v35q130 16 253 55v-694q0 -121 29 -172q35 -62 113 -62q163 0 163 261v457q0 78 -19.5 99t-89.5 21v35q130 15 253 55v-820q0 -79 16 -95.5t97 -18.5v-36q-133 -16 -227 -54q-13 88 -13 152v23q-40 -90 -92.5 -130.5t-130.5 -40.5q-138 0 -202 114q-41 72 -41 215
v481q0 78 -19.5 99t-89.5 21zM445 1446q63 0 108 -46t45 -109q0 -69 -51 -116q-45 -40 -105 -40q-64 0 -109.5 46t-45.5 111q0 64 46 109t112 45zM444 1378q-37 0 -63 -25t-26 -62t25.5 -62.5t61.5 -25.5q37 0 62.5 25.5t25.5 62.5q0 35 -25.5 61t-60.5 26z" />
    <glyph glyph-name="Uhungarumlaut" unicode="&#x170;" horiz-adv-x="1109" 
d="M732 1321v50q111 -10 166 -10q56 0 158 10v-50q-87 -8 -109.5 -31t-22.5 -105v-768q0 -172 -56 -272q-94 -168 -310 -168q-156 0 -256 91q-65 58 -92.5 137t-27.5 204v776q0 82 -21.5 104.5t-106.5 31.5v50q124 -15 205 -15q80 0 204 15v-50q-84 -8 -106 -31.5
t-22 -104.5v-792q0 -150 34 -211q64 -114 220 -114q128 0 204 81q71 76 71 257v779q0 82 -22.5 104.5t-109.5 31.5zM648 1483l178 281h157l-260 -281h-75zM391 1483l177 281h157l-259 -281h-75z" />
    <glyph glyph-name="uhungarumlaut" unicode="&#x171;" horiz-adv-x="901" 
d="M36 913v35q130 16 253 55v-694q0 -121 29 -172q35 -62 113 -62q163 0 163 261v457q0 78 -19.5 99t-89.5 21v35q130 15 253 55v-820q0 -79 16 -95.5t97 -18.5v-36q-133 -16 -227 -54q-13 88 -13 152v23q-40 -90 -92.5 -130.5t-130.5 -40.5q-138 0 -202 114q-41 72 -41 215
v481q0 78 -19.5 99t-89.5 21zM276 1128l139 302h142l-215 -302h-66zM501 1128l141 302h142l-217 -302h-66z" />
    <glyph glyph-name="Uogonek" unicode="&#x172;" horiz-adv-x="1109" 
d="M1056 1321q-86 -7 -109 -31t-23 -105v-768q0 -120 -21.5 -190t-82.5 -150q-125 -162 -125 -243q0 -41 26 -68.5t65 -27.5q33 0 82 18v-66q-74 -32 -136 -32q-68 0 -114 45.5t-46 112.5q0 106 117 181q-63 -20 -126 -20q-230 0 -329 176q-52 93 -52 256v776
q0 81 -22.5 105t-105.5 31v50q124 -15 205 -15q80 0 204 15v-50q-83 -7 -105.5 -31t-22.5 -105v-792q0 -150 34 -211q64 -114 220 -114q128 0 204 81q71 76 71 257v779q0 81 -23 105t-109 31v50q111 -10 166 -10q56 0 158 10v-50z" />
    <glyph glyph-name="uogonek" unicode="&#x173;" horiz-adv-x="901" 
d="M851 -235v-64q-53 -25 -101 -25q-63 0 -105.5 44t-42.5 110q0 126 174 192q-82 -15 -152 -43q-13 88 -13 149v26q-40 -90 -92.5 -130.5t-130.5 -40.5q-138 0 -202 114q-41 72 -41 215v481q0 77 -19.5 98.5t-89.5 21.5v35q130 16 253 55v-694q0 -121 29 -172
q35 -62 113 -62q163 0 163 261v457q0 78 -19.5 99t-89.5 21v35q130 15 253 55v-820q0 -79 16 -95.5t97 -18.5v-36q-72 -50 -101.5 -93t-29.5 -96q0 -39 23 -65t57 -26q23 0 51 12z" />
    <glyph glyph-name="Wcircumflex" unicode="&#x174;" horiz-adv-x="1457" 
d="M490 1485l232 277h93l232 -277h-81l-197 171l-198 -171h-81zM472 -25h-33l-266 1226q-14 66 -40.5 90.5t-92.5 29.5v50q100 -15 194 -15t193 15v-50q-61 -6 -84.5 -19.5t-23.5 -41.5q0 -22 8 -61l179 -839l249 1036h37l246 -1037l183 835q10 47 10 71q0 49 -103 56v50
q77 -11 146 -11t146 11v-50q-66 -5 -92.5 -26.5t-39.5 -80.5l-279 -1237h-33l-250 1058z" />
    <glyph glyph-name="wcircumflex" unicode="&#x175;" horiz-adv-x="1180" 
d="M590 711l-196 -736h-47l-203 824l-8 29q-15 63 -35 81t-79 23v41q96 -10 171 -10t172 10v-41q-94 1 -94 -45q0 -11 10 -52l134 -563l192 720h52l191 -723l138 564q9 39 9 55q0 45 -90 44v41q78 -8 136 -8q57 0 122 8v-41q-56 -4 -81 -24.5t-38 -73.5l-213 -859h-47z
M371 1130l215 299h79l215 -299h-78l-177 177l-176 -177h-78z" />
    <glyph glyph-name="Ycircumflex" unicode="&#x176;" horiz-adv-x="990" 
d="M257 1485l233 277h92l232 -277h-81l-197 171l-197 -171h-82zM421 595l-239 614q-24 62 -53.5 83.5t-96.5 28.5v50q110 -14 207 -14q96 0 206 14v-50q-113 -8 -113 -52q0 -26 16 -66l201 -515l199 518q16 41 16 65q0 23 -24 34t-87 16v50q91 -10 155 -10t155 10v-50
q-70 -10 -98 -31t-51 -79l-240 -616v-415q0 -82 21 -104t107 -32v-50q-130 15 -205 15q-74 0 -204 -15v50q86 9 107 31.5t21 104.5v415z" />
    <glyph glyph-name="ycircumflex" unicode="&#x177;" horiz-adv-x="838" 
d="M192 1130l215 299h79l215 -299h-78l-176 177l-177 -177h-78zM391 33l-242 804q-17 55 -39.5 73t-84.5 22v41q93 -10 174 -10q80 0 174 10v-41q-86 -7 -86 -41q0 -16 12 -57l164 -570l171 561q13 41 14 62q2 42 -94 45v41q62 -8 123 -8q66 0 144 8v-41q-56 -8 -82 -29
t-42 -72l-309 -1000q-38 -122 -94.5 -176.5t-144.5 -54.5q-7 0 -22 1v103q87 0 133.5 38.5t79.5 137.5z" />
    <glyph glyph-name="Ydieresis" unicode="&#x178;" horiz-adv-x="990" 
d="M402 1725q40 0 69 -29.5t29 -69.5q0 -42 -29 -71t-70 -29q-42 0 -71 29.5t-29 70.5t29.5 70t71.5 29zM696 1725q40 0 69 -29.5t29 -69.5q0 -42 -29 -71t-71 -29q-41 0 -70 29t-29 71q0 41 29.5 70t71.5 29zM421 595l-239 614q-24 62 -53.5 83.5t-96.5 28.5v50
q110 -14 207 -14q96 0 206 14v-50q-113 -8 -113 -52q0 -26 16 -66l201 -515l199 518q16 41 16 65q0 23 -24 34t-87 16v50q91 -10 155 -10t155 10v-50q-70 -10 -98 -31t-51 -79l-240 -616v-415q0 -82 21 -104t107 -32v-50q-130 15 -205 15q-74 0 -204 -15v50q86 9 107 31.5
t21 104.5v415z" />
    <glyph glyph-name="Zacute" unicode="&#x179;" horiz-adv-x="902" 
d="M441 1483l206 281h195l-323 -281h-78zM61 0l581 1302h-255q-63 0 -99 -19t-64 -67q-30 -52 -52 -153h-46l44 302h666l-580 -1302h292q63 0 93 10t53 39q56 68 100 221h46l-49 -333h-730z" />
    <glyph glyph-name="zacute" unicode="&#x17a;" horiz-adv-x="753" 
d="M352 1129l161 301h177l-269 -301h-69zM66 0l436 914h-172q-78 0 -113 -42q-37 -44 -74 -171h-39l37 266h544l-438 -914h183q61 0 90 17.5t57 72.5q25 46 55 152h40l-43 -295h-563z" />
    <glyph glyph-name="Zdotaccent" unicode="&#x17b;" horiz-adv-x="902" 
d="M500 1725q40 0 69 -29.5t29 -69.5q0 -42 -29 -71t-71 -29q-41 0 -70 29t-29 71q0 41 29.5 70t71.5 29zM61 0l581 1302h-255q-63 0 -99 -19t-64 -67q-30 -52 -52 -153h-46l44 302h666l-580 -1302h292q63 0 93 10t53 39q56 68 100 221h46l-49 -333h-730z" />
    <glyph glyph-name="zdotaccent" unicode="&#x17c;" horiz-adv-x="753" 
d="M413 1363q37 0 64 -27.5t27 -65.5q0 -39 -27 -66t-66 -27t-66 27.5t-27 66.5q0 38 27.5 65t67.5 27zM66 0l436 914h-172q-78 0 -113 -42q-37 -44 -74 -171h-39l37 266h544l-438 -914h183q61 0 90 17.5t57 72.5q25 46 55 152h40l-43 -295h-563z" />
    <glyph glyph-name="Zcaron" unicode="&#x17d;" horiz-adv-x="902" 
d="M777 1759l-232 -277h-93l-232 277h81l198 -171l197 171h81zM61 0l581 1302h-255q-63 0 -99 -19t-64 -67q-30 -52 -52 -153h-46l44 302h666l-580 -1302h292q63 0 93 10t53 39q56 68 100 221h46l-49 -333h-730z" />
    <glyph glyph-name="zcaron" unicode="&#x17e;" horiz-adv-x="753" 
d="M656 1426l-216 -299h-78l-216 299h78l177 -177l177 177h78zM66 0l436 914h-172q-78 0 -113 -42q-37 -44 -74 -171h-39l37 266h544l-438 -914h183q61 0 90 17.5t57 72.5q25 46 55 152h40l-43 -295h-563z" />
    <glyph glyph-name="longs" unicode="&#x17f;" horiz-adv-x="505" 
d="M422 35v-41q-113 12 -183 12t-183 -12v41q70 4 90.5 24t20.5 86v939q0 133 46 208q27 45 82 73.5t112 28.5q79 0 124 -50q38 -43 38 -103q0 -77 -66 -77q-28 0 -46 16t-18 41q0 10 2 25q7 36 7 47q0 21 -13.5 35.5t-33.5 14.5q-41 0 -65 -43q-25 -44 -25 -171v-984
q0 -66 20 -86t91 -24z" />
    <glyph glyph-name="uni018F" unicode="&#x18f;" horiz-adv-x="1049" 
d="M90 714h707q-3 214 -51 357q-82 245 -267 245q-80 0 -148 -51t-102 -136q-34 -86 -49 -205h-72q8 110 45 209q99 258 345 258q149 0 257 -92q109 -94 163 -286q42 -149 42 -335q0 -299 -114 -496q-56 -96 -147 -154q-83 -54 -187 -54q-157 0 -266 121q-74 82 -115.5 230
t-41.5 331q0 19 1 58zM248 651q2 -152 11 -231.5t35 -168.5q63 -220 213 -220q132 0 206 158.5t83 461.5h-548z" />
    <glyph glyph-name="florin" unicode="&#x192;" horiz-adv-x="887" 
d="M717 966l-2 -69h-169l-93 -662q-23 -160 -49.5 -253t-66.5 -150q-66 -93 -176 -93q-81 0 -126 51q-40 44 -40 108q0 43 20 68.5t54 25.5q27 0 44.5 -16t17.5 -41q0 -15 -11 -54q-5 -21 -5 -35q0 -18 14 -31t32 -13q49 0 75.5 60t49.5 223l115 812h-115l2 59h25
q64 0 84.5 21.5t31.5 105.5q21 143 54 215q70 151 221 151q85 0 127 -48q37 -42 37 -106q0 -90 -70 -90q-29 0 -48 17t-19 44q0 17 7 39q9 28 9 45q0 14 -13 25t-30 11q-46 0 -73.5 -47.5t-42.5 -151.5l-32 -221h161z" />
    <glyph glyph-name="Ohorn" unicode="&#x1a0;" horiz-adv-x="1056" 
d="M935 978q3 -15 5 -23q28 -114 28 -252q0 -302 -113 -528q-50 -98 -154 -158q-76 -43 -169 -43q-163 0 -280 130q-79 88 -125 267q-38 146 -38 308q0 308 111 507q59 104 157 160q77 45 172 45q120 0 214 -73t151 -209l23 -52l1 -7q50 70 65 104t19 85l-6 1q-8 -3 -13 -3
q-78 0 -78 97q0 45 24 72t63 27q91 0 91 -132q0 -109 -88 -248q-34 -54 -60 -75zM530 1334q-111 0 -184 -128q-29 -50 -42 -97q-52 -187 -52 -418q0 -173 25.5 -313.5t71.5 -221.5q71 -125 184 -125q109 0 177 120q29 53 43 104q52 193 52 424q0 174 -25 316t-70 217
q-72 122 -180 122z" />
    <glyph glyph-name="ohorn" unicode="&#x1a1;" horiz-adv-x="789" 
d="M688 692q61 83 68 169l-7 1q-7 -2 -13 -2q-36 0 -57 25.5t-21 67.5q0 45 24 72.5t64 27.5q42 0 66.5 -33.5t24.5 -91.5q0 -121 -95 -259q-12 -18 -38 -56q9 -65 9 -129q0 -209 -85 -356q-41 -72 -102.5 -111t-132.5 -39q-95 0 -172 71q-70 64 -108 178t-38 256
q0 209 82 352q91 157 244 157q104 0 177.5 -77t109.5 -223zM397 939q-66 0 -109 -77q-62 -112 -62 -383q0 -448 167 -448q66 0 108 75q61 109 61 374q0 459 -165 459z" />
    <glyph glyph-name="Uhorn" unicode="&#x1af;" horiz-adv-x="1109" 
d="M732 1321v50q111 -10 166 -10q56 0 158 10v-50q-87 -8 -109.5 -31t-22.5 -105v-768q0 -172 -56 -272q-94 -168 -310 -168q-156 0 -256 91q-65 58 -92.5 137t-27.5 204v776q0 82 -22 105t-106 31v50q124 -15 205 -15q80 0 204 15v-50q-84 -8 -106 -31t-22 -105v-792
q0 -150 34 -211q64 -114 220 -114q128 0 204 81q71 76 71 257v779q0 82 -22.5 105t-109.5 31zM1201 1044h-77q91 101 100 206l-7 2q-7 -3 -14 -3q-35 0 -56 25.5t-21 69.5q0 46 24 73.5t63 27.5q91 0 91 -127q0 -133 -103 -274z" />
    <glyph glyph-name="uhorn" unicode="&#x1b0;" horiz-adv-x="901" 
d="M36 913v35q130 16 253 55v-694q0 -121 29 -172q35 -62 113 -62q163 0 163 261v457q0 78 -19.5 99t-89.5 21v35q130 15 253 55v-820q0 -79 16 -95.5t97 -18.5v-36q-133 -16 -227 -54q-13 93 -13 145v30q-40 -91 -92.5 -131t-130.5 -40q-138 0 -202 114q-41 72 -41 215v481
q0 78 -19.5 99t-89.5 21zM865 676h-77q91 101 99 206l-6 1q-8 -2 -15 -2q-76 4 -76 93q0 45 24 72.5t63 27.5q43 0 67 -33.5t24 -91.5q0 -121 -81 -239q-15 -22 -22 -34z" />
    <glyph glyph-name="uni01CD" unicode="&#x1cd;" horiz-adv-x="1074" 
d="M310 397l-58 -194q-21 -73 -21 -101q0 -51 108 -58v-50q-94 11 -156 11t-156 -11v50q75 7 101 31t53 112l377 1224l341 -1246q19 -71 45 -92t103 -29v-50q-112 15 -199 15t-200 -15v50q98 10 98 59q0 28 -11 71l-56 223h-369zM329 460h335l-153 604zM836 1759l-232 -277
h-92l-233 277h82l197 -171l197 171h81z" />
    <glyph glyph-name="uni01CE" unicode="&#x1ce;" horiz-adv-x="785" 
d="M739 54v-54q-58 -14 -98 -14q-114 0 -128 168q-67 -172 -214 -172q-100 0 -162 71q-64 73 -64 190q0 159 122 245q122 87 297 115v145q0 94 -30 138.5t-93 44.5q-55 0 -89.5 -31t-34.5 -81q0 -12 1 -26q1 -20 1 -35q0 -86 -72 -86q-60 0 -60 70q0 101 83 175
q78 69 186 69q71 0 128.5 -32.5t88.5 -89.5q35 -65 35 -206v-428q0 -102 13.5 -142.5t48.5 -40.5q15 0 41 7zM492 550q-90 -21 -147 -54q-125 -73 -125 -239q0 -87 33.5 -137t91.5 -50q147 0 147 302v178zM642 1426l-216 -299h-79l-215 299h78l177 -177l177 177h78z" />
    <glyph glyph-name="uni01D2" unicode="&#x1d2;" horiz-adv-x="789" 
d="M402 992q110 0 190 -91q54 -62 87.5 -177t33.5 -237q0 -213 -85 -359q-87 -150 -235 -150q-95 0 -172 71q-70 64 -108 177.5t-38 256.5q0 213 82 352q93 157 245 157zM397 939q-66 0 -109 -77q-62 -112 -62 -383q0 -448 167 -448q66 0 108 75q61 109 61 374
q0 459 -165 459zM649 1426l-215 -299h-79l-216 299h78l177 -177l177 177h78z" />
    <glyph glyph-name="uni01D3" unicode="&#x1d3;" horiz-adv-x="1109" 
d="M732 1321v50q111 -10 166 -10q56 0 158 10v-50q-87 -8 -109.5 -31t-22.5 -105v-768q0 -172 -56 -272q-94 -168 -310 -168q-156 0 -256 91q-65 58 -92.5 137t-27.5 204v776q0 82 -21.5 104.5t-106.5 31.5v50q124 -15 205 -15q80 0 204 15v-50q-84 -8 -106 -31.5
t-22 -104.5v-792q0 -150 34 -211q64 -114 220 -114q128 0 204 81q71 76 71 257v779q0 82 -22.5 104.5t-109.5 31.5zM866 1759l-233 -277h-92l-233 277h82l197 -171l197 171h82z" />
    <glyph glyph-name="uni01D4" unicode="&#x1d4;" horiz-adv-x="901" 
d="M701 1426l-215 -299h-79l-215 299h78l176 -177l177 177h78zM36 913v35q130 16 253 55v-694q0 -121 29 -172q35 -62 113 -62q163 0 163 261v457q0 78 -19.5 99t-89.5 21v35q130 15 253 55v-820q0 -79 16 -95.5t97 -18.5v-36q-133 -16 -227 -54q-13 88 -13 152v23
q-40 -90 -92.5 -130.5t-130.5 -40.5q-138 0 -202 114q-41 72 -41 215v481q0 78 -19.5 99t-89.5 21z" />
    <glyph glyph-name="uni01DD" unicode="&#x1dd;" horiz-adv-x="771" 
d="M140 653h-65q13 130 74 223q74 111 215 111q165 0 251 -150q81 -141 81 -354q0 -210 -80 -351q-42 -73 -104.5 -112.5t-135.5 -39.5q-139 0 -216.5 124.5t-83.5 356.5h472q-3 137 -12 206.5t-32 129.5q-47 122 -159 122q-84 0 -137.5 -69.5t-67.5 -196.5zM220 393
q9 -360 158 -360q72 0 115 92.5t51 267.5h-324z" />
    <glyph glyph-name="Gcaron" unicode="&#x1e6;" horiz-adv-x="1043" 
d="M815 1759l-232 -277h-93l-232 277h81l197 -171l198 171h81zM791 1273l60 116h33v-405h-46q-35 158 -97 247q-65 93 -185 93q-305 0 -305 -653q0 -161 24.5 -294t67.5 -209q74 -132 208 -132q96 0 203 70v354q0 58 -22 76.5t-98 25.5v50q108 -12 189 -12q80 0 189 12v-50
q-74 -8 -91.5 -25t-17.5 -81v-338q-197 -141 -358 -141q-225 0 -342 203q-115 199 -115 505q0 303 113 499q59 103 155 159q81 47 180 47q150 0 255 -117z" />
    <glyph glyph-name="gcaron" unicode="&#x1e7;" horiz-adv-x="827" 
d="M576 932h218v-75l-163 13q46 -92 46 -185q0 -128 -59.5 -204t-192.5 -119q-121 -38 -153 -58t-32 -55q0 -24 15 -40q22 -24 130 -28q51 -1 120 -13.5t102 -25.5q69 -27 106 -82q45 -66 45 -154q0 -137 -97 -225q-95 -87 -259 -87q-85 0 -159 27.5t-116 74.5
q-68 74 -68 182q0 150 158 219q-83 45 -83 119q0 113 180 166q-67 24 -111 68q-84 85 -84 222q0 170 96 250q76 63 192 63q96 0 169 -53zM401 933q-53 0 -90 -41q-24 -26 -40 -84.5t-16 -118.5q0 -142 48 -215q34 -52 95 -52q68 0 103 65q39 72 39 200q0 118 -36 182
t-103 64zM384 36q-108 0 -173 -37q-80 -46 -80 -138q0 -82 63 -136q77 -67 202 -67q141 0 207 73q47 51 47 125q0 78 -51 122q-31 26 -90.5 42t-124.5 16zM662 1426l-215 -299h-79l-215 299h78l176 -177l177 177h78z" />
    <glyph glyph-name="uni01F4" unicode="&#x1f4;" horiz-adv-x="1061" 
d="M497 1483l206 281h198l-322 -281h-82zM791 1273l60 116h33v-405h-46q-35 158 -97 247q-65 93 -185 93q-305 0 -305 -653q0 -161 24.5 -294t67.5 -209q74 -132 208 -132q96 0 203 70v354q0 58 -22 76.5t-98 25.5v50q108 -12 189 -12q80 0 189 12v-50q-74 -8 -91.5 -25
t-17.5 -81v-338q-197 -141 -358 -141q-225 0 -342 203q-115 199 -115 505q0 303 113 499q59 103 155 159q81 47 180 47q150 0 255 -117z" />
    <glyph glyph-name="Aringacute" unicode="&#x1fa;" horiz-adv-x="1074" 
d="M310 397l-58 -194q-21 -73 -21 -101q0 -51 108 -58v-50q-94 11 -156 11t-156 -11v50q75 7 101 31t53 112l377 1224l341 -1246q19 -71 45 -92t103 -29v-50q-112 15 -199 15t-200 -15v50q98 10 98 59q0 28 -11 71l-56 223h-369zM329 460h335l-153 604zM560 1746
q63 0 108 -46t45 -110q0 -69 -51 -116q-45 -40 -105 -40q-64 0 -109.5 46t-45.5 111t46 110t112 45zM559 1678q-37 0 -63 -25.5t-26 -61.5q0 -37 25.5 -63t61.5 -26q37 0 62.5 26t25.5 62t-25.5 62t-60.5 26zM349 1716l206 280h195l-323 -280h-78z" />
    <glyph glyph-name="AEacute" unicode="&#x1fc;" horiz-adv-x="1502" 
d="M1367 1365l29 -308h-46q-28 145 -66 195t-118 50h-231v-561h223q38 0 54.5 12t26.5 47q11 38 14 110h46v-402h-46q-3 99 -24.5 134.5t-78.5 35.5h-215v-494q0 -73 21.5 -97t86.5 -24h112q65 0 99 20t60 74q31 62 53 173h46l-37 -330h-729v50q88 8 111.5 31.5t23.5 104.5
v276h-382l-138 -305q-19 -41 -19 -65t25 -34.5t88 -13.5v-50q-113 10 -162 10t-167 -10v50q48 4 76 15q53 19 105 133l539 1173h620zM782 525v771l-353 -771h353zM816 1483l206 281h194l-322 -281h-78z" />
    <glyph glyph-name="aeacute" unicode="&#x1fd;" horiz-adv-x="1198" 
d="M546 202q-28 -90 -66 -138q-65 -83 -179 -83q-101 0 -164 71q-64 73 -64 187q0 285 429 333v176q0 114 -45 153q-36 30 -88 30q-54 0 -90 -30.5t-36 -75.5q0 -13 1 -28q2 -22 2 -40q0 -85 -72 -85q-59 0 -59 70q0 101 83 175q77 69 184 69q147 0 216 -121q89 121 224 121
q139 0 216 -124t83 -357h-470q3 -214 33 -305q49 -151 167 -151q85 0 138.5 69t68.5 197h65q-12 -129 -74 -221q-74 -113 -219 -113q-198 0 -284 221zM977 573q-3 190 -47 276q-42 84 -111 84q-71 0 -111.5 -88.5t-53.5 -271.5h323zM502 509q-121 -19 -195 -67
q-88 -57 -88 -193q0 -81 34 -129t93 -48q81 0 118.5 72t37.5 228v137zM541 1129l160 301h178l-269 -301h-69z" />
    <glyph glyph-name="Oslashacute" unicode="&#x1fe;" horiz-adv-x="1056" 
d="M185 212q-96 208 -96 473q0 301 111 501q58 103 157 160q77 45 172 45q94 0 174.5 -46t135.5 -132l99 152h75l-139 -213q94 -193 94 -474q0 -284 -113 -503q-51 -98 -154 -158q-75 -43 -168 -43q-149 0 -259 106q-29 28 -56 69l-97 -149h-75zM281 360l478 730
q-28 112 -89.5 178t-138.5 66q-113 0 -185 -128q-94 -167 -94 -507q0 -171 29 -339zM778 1006l-477 -731q30 -114 91.5 -179t140.5 -65q109 0 177 120q95 169 95 541q0 168 -27 314zM411 1483l206 281h194l-322 -281h-78z" />
    <glyph glyph-name="oslashacute" unicode="&#x1ff;" horiz-adv-x="788" 
d="M640 824q73 -155 73 -342q0 -207 -85 -354q-41 -71 -102.5 -110.5t-132.5 -39.5q-129 0 -216 121l-67 -105h-67l102 159q-70 132 -70 330q0 209 82 352q91 157 244 157q127 0 208 -112l60 93h67zM551 683l-302 -471q17 -88 54.5 -134.5t89.5 -46.5q66 0 108 75
q61 110 61 377q0 103 -11 200zM236 297l301 470q-17 83 -53.5 127.5t-86.5 44.5q-66 0 -109 -77q-62 -111 -62 -373q0 -97 10 -192zM311 1129l161 301h177l-269 -301h-69z" />
    <glyph glyph-name="Scommaaccent" unicode="&#x218;" horiz-adv-x="871" 
d="M432 -493h-77q84 92 99 192l-7 1q-7 -2 -14 -2q-35 0 -56 25t-21 67q0 43 24 70t64 27q42 0 66.5 -32t24.5 -86q0 -123 -103 -262zM106 413h46q48 -367 281 -367q96 0 155 70q66 77 66 195q0 103 -46 167t-179 147q-111 69 -174 120q-70 57 -101 125t-31 164q0 84 29 157
t80 118q85 75 205 75q131 0 214 -105l46 113h31v-377h-46q-25 144 -79 227q-53 80 -153 80q-86 0 -140 -64q-61 -72 -61 -177q0 -94 43.5 -147.5t208.5 -160.5q108 -70 162 -119q118 -107 118 -290q0 -170 -94 -277q-92 -105 -236 -105t-258 115l-56 -128h-31v444z" />
    <glyph glyph-name="scommaaccent" unicode="&#x219;" horiz-adv-x="718" 
d="M343 -493h-77q83 91 99 192l-7 1q-7 -2 -14 -2q-35 0 -55.5 25t-20.5 66q0 44 24 71t63 27q42 0 66.5 -32t24.5 -86q0 -125 -103 -262zM97 -24v342h44q34 -274 201 -274q69 0 115 52q47 52 47 127q0 57 -20 87q-32 51 -128 105q-148 84 -192 133q-56 62 -56 169
q0 133 82 206q70 62 168 62q92 0 162 -64l24 83h34v-318h-44q-19 241 -163 241q-64 0 -106 -47q-41 -47 -41 -116q0 -62 29 -99t117 -86q119 -66 168 -108q88 -73 88 -196q0 -145 -92 -228q-71 -65 -175 -65q-109 0 -194 85l-34 -91h-34z" />
    <glyph glyph-name="uni021A" unicode="&#x21a;" horiz-adv-x="884" 
d="M798 1053q-31 149 -69 199t-119 50h-92v-1122q0 -82 21 -104t107 -32v-50q-126 15 -204 15q-79 0 -205 -15v50q86 9 107 31.5t21 104.5v1122h-83q-59 0 -92 -21.5t-58 -76.5q-23 -50 -46 -151h-46l44 312h715l45 -312h-46zM430 -493h-77q84 92 100 195q-13 -5 -25 -5
q-32 0 -52.5 25.5t-20.5 66.5q0 44 24 71t64 27q41 0 65.5 -32t24.5 -85q0 -126 -103 -263z" />
    <glyph glyph-name="uni021B" unicode="&#x21b;" horiz-adv-x="528" 
d="M499 102l-1 -60q-81 -60 -156 -60q-131 0 -172 123q-19 58 -18 202l6 592h-101v56q72 6 112 54q61 71 88 250h45l-1 -292h184v-68h-184l-1 -610q0 -83 5 -122t19 -66q22 -39 71 -39q42 0 104 40zM295 -493h-77q84 91 99 192l-7 1q-7 -2 -14 -2q-35 0 -56 25t-21 66
q0 44 24 71t64 27q42 0 66.5 -32t24.5 -86q0 -125 -103 -262z" />
    <glyph glyph-name="uni0226" unicode="&#x226;" horiz-adv-x="1074" 
d="M559 1725q40 0 69 -29.5t29 -69.5q0 -42 -29 -71t-71 -29q-41 0 -70 29.5t-29 70.5t29.5 70t71.5 29zM310 397l-58 -194q-21 -73 -21 -101q0 -51 108 -58v-50q-94 11 -156 11t-156 -11v50q75 7 101 31t53 112l377 1224l341 -1246q19 -71 45 -92t103 -29v-50
q-112 15 -199 15t-200 -15v50q98 10 98 59q0 28 -11 71l-56 223h-369zM329 460h335l-153 604z" />
    <glyph glyph-name="uni0227" unicode="&#x227;" horiz-adv-x="785" 
d="M386 1357q40 0 69 -29.5t29 -70.5t-29 -70t-71 -29q-41 0 -70 29.5t-29 70.5t29.5 70t71.5 29zM739 54v-54q-58 -14 -98 -14q-114 0 -128 168q-67 -172 -214 -172q-100 0 -162 71q-64 73 -64 190q0 159 122 245q122 87 297 115v145q0 94 -30 138.5t-93 44.5
q-55 0 -89.5 -31t-34.5 -81q0 -12 1 -26q1 -20 1 -35q0 -86 -72 -86q-60 0 -60 70q0 101 83 175q78 69 186 69q71 0 128.5 -32.5t88.5 -89.5q35 -65 35 -206v-428q0 -102 13.5 -142.5t48.5 -40.5q15 0 41 7zM492 550q-90 -21 -147 -54q-125 -73 -125 -239q0 -87 33.5 -137
t91.5 -50q147 0 147 302v178z" />
    <glyph glyph-name="uni0237" unicode="&#x237;" horiz-adv-x="485" 
d="M62 913v35q134 16 254 55v-975q0 -254 -108 -357q-90 -85 -225 -86v53q103 21 146 90.5t43 213.5v851q0 77 -19 98t-91 22z" />
    <glyph glyph-name="uni0259" unicode="&#x259;" horiz-adv-x="771" 
d="M140 653h-65q13 130 74 223q74 111 215 111q165 0 251 -150q81 -141 81 -354q0 -210 -80 -351q-42 -73 -104.5 -112.5t-135.5 -39.5q-139 0 -216.5 124.5t-83.5 356.5h472q-3 137 -12 206.5t-32 129.5q-47 122 -159 122q-84 0 -137.5 -69.5t-67.5 -196.5zM220 393
q9 -360 158 -360q72 0 115 92.5t51 267.5h-324z" />
    <glyph glyph-name="afii57929" unicode="&#x2bc;" horiz-adv-x="410" 
d="M188 923h-79q97 129 114 264q-8 -1 -14 -1q-39 0 -63.5 28t-24.5 72q0 45 27 73t70 28q45 0 71 -31.5t26 -85.5q0 -150 -127 -347z" />
    <glyph glyph-name="circumflex" unicode="&#x2c6;" 
d="M165 1130l215 299h79l215 -299h-78l-176 177l-177 -177h-78z" />
    <glyph glyph-name="caron" unicode="&#x2c7;" 
d="M674 1426l-215 -299h-79l-215 299h78l177 -177l176 177h78z" />
    <glyph glyph-name="uni02C9" unicode="&#x2c9;" 
d="M170 1191v83h500v-83h-500z" />
    <glyph glyph-name="breve" unicode="&#x2d8;" horiz-adv-x="835" 
d="M582 1427h56q-7 -118 -53 -197q-56 -97 -167 -97q-96 0 -154.5 78t-65.5 216h56q45 -168 164 -168t164 168z" />
    <glyph glyph-name="dotaccent" unicode="&#x2d9;" horiz-adv-x="847" 
d="M428 1363q38 0 65 -27.5t27 -65.5q0 -39 -27 -66t-66 -27t-66 27.5t-27 66.5q0 38 27.5 65t66.5 27z" />
    <glyph glyph-name="ring" unicode="&#x2da;" horiz-adv-x="867" 
d="M436 1446q62 0 107.5 -46t45.5 -109q0 -70 -52 -116q-44 -40 -104 -40q-65 0 -110.5 45.5t-45.5 111.5q0 64 46 109t113 45zM434 1378q-37 0 -63 -25t-26 -62q0 -36 25.5 -62t62.5 -26q36 0 62 25.5t26 62.5q0 35 -25.5 61t-61.5 26z" />
    <glyph glyph-name="ogonek" unicode="&#x2db;" 
d="M507 26l52 -9q-74 -52 -101 -88t-27 -85q0 -39 23 -65t58 -26q22 0 50 12v-64q-52 -25 -101 -25q-63 0 -105.5 44t-42.5 110q0 127 194 196z" />
    <glyph glyph-name="tilde" unicode="&#x2dc;" 
d="M211 1181l-46 16q24 106 57 153q34 48 96 48q51 0 106 -50l39 -36q37 -33 71 -33q36 0 56.5 23.5t38.5 83.5l45 -13q-13 -92 -49 -148q-41 -62 -108 -62q-53 0 -132 76q-45 43 -80 43q-61 0 -94 -101z" />
    <glyph glyph-name="hungarumlaut" unicode="&#x2dd;" 
d="M281 1128l139 302h142l-215 -302h-66zM506 1128l142 302h141l-217 -302h-66z" />
    <glyph glyph-name="uni037E" unicode="&#x37e;" horiz-adv-x="406" 
d="M154 -341h-82q123 165 142 332h-6q-9 -3 -16 -3q-35 0 -57.5 28.5t-22.5 74.5q0 49 27 81t69 32q44 0 70.5 -37t26.5 -99q0 -176 -151 -409zM208 871q40 0 69 -29.5t29 -69.5q0 -42 -29 -71t-71 -29q-41 0 -70 29.5t-29 70.5t29.5 70t71.5 29z" />
    <glyph glyph-name="tonos" unicode="&#x384;" horiz-adv-x="410" 
d="M268 1447l-29 -354h-67l-29 354h125z" />
    <glyph glyph-name="dieresistonos" unicode="&#x385;" horiz-adv-x="847" 
d="M242 1363q38 0 65 -27.5t27 -65.5q0 -39 -27 -66t-66 -27t-66 27.5t-27 66.5q0 38 27.5 65t66.5 27zM608 1363q37 0 64 -27.5t27 -65.5t-27.5 -65.5t-65.5 -27.5q-39 0 -66 27.5t-27 66.5q0 38 27.5 65t67.5 27zM486 1447l-29 -354h-67l-29 354h125z" />
    <glyph glyph-name="Alphatonos" unicode="&#x386;" horiz-adv-x="1074" 
d="M313 1447l-28 -354h-68l-28 354h124zM310 397l-58 -194q-21 -73 -21 -101q0 -51 108 -58v-50q-94 11 -156 11t-156 -11v50q75 7 101 31t53 112l377 1224l341 -1246q19 -71 45 -92t103 -29v-50q-112 15 -199 15t-200 -15v50q98 10 98 59q0 28 -11 71l-56 223h-369z
M329 460h335l-153 604z" />
    <glyph glyph-name="uni0387" unicode="&#x387;" horiz-adv-x="404" 
d="M204 599q40 0 69 -29.5t29 -70.5t-29 -70t-70 -29q-42 0 -71 29.5t-29 70.5t29.5 70t71.5 29z" />
    <glyph glyph-name="Epsilontonos" unicode="&#x388;" horiz-adv-x="1014" 
d="M125 1447l-29 -354h-67l-29 354h125zM925 330l-37 -330h-722v50q83 8 105.5 31.5t22.5 104.5v993q0 81 -22.5 104.5t-105.5 31.5v50h713l29 -308h-46q-28 145 -66 195t-118 50h-231v-561h223q38 0 54.5 12t26.5 47q11 38 14 110h46v-402h-46q-3 99 -24.5 134.5
t-78.5 35.5h-215v-494q0 -73 21.5 -97t86.5 -24h112q65 0 99 20t60 74q31 62 53 173h46z" />
    <glyph glyph-name="Etatonos" unicode="&#x389;" horiz-adv-x="1234" 
d="M445 744h447v442q0 80 -22 103.5t-106 31.5v50q124 -15 205 -15t202 15v-50q-84 -8 -106 -31t-22 -104v-1006q0 -81 21.5 -104t106.5 -32v-50q-127 15 -202 15q-76 0 -205 -15v50q85 9 106.5 32t21.5 104v501h-447v-501q0 -81 21.5 -104t106.5 -32v-50q-130 15 -205 15
q-76 0 -202 -15v50q85 9 106.5 32t21.5 104v1006q0 81 -22 104t-106 31v50q121 -15 202 -15t205 15v-50q-84 -8 -106 -31t-22 -104v-442zM125 1447l-29 -354h-67l-29 354h125z" />
    <glyph glyph-name="Iotatonos" unicode="&#x38a;" horiz-adv-x="638" 
d="M575 44v-50q-130 15 -204 15q-75 0 -205 -15v50q85 9 106.5 32t21.5 104v1005q0 82 -22 105t-106 31v50q124 -15 205 -15q80 0 204 15v-50q-84 -8 -106 -31t-22 -105v-1005q0 -81 21.5 -104t106.5 -32zM125 1447l-29 -354h-67l-29 354h125z" />
    <glyph glyph-name="Omicrontonos" unicode="&#x38c;" horiz-adv-x="1078" 
d="M549 1391q119 0 219 -76q107 -82 164 -250t57 -403q0 -270 -113 -487q-52 -99 -154 -158q-75 -43 -169 -43q-163 0 -280 130q-79 89 -125 267q-38 145 -38 308q0 312 111 507q60 105 157 160q77 45 171 45zM551 1334q-111 0 -184 -128q-29 -50 -42 -97q-52 -188 -52 -418
q0 -172 25.5 -313t71.5 -222q71 -125 184 -125q109 0 177 120q30 53 43 104q52 193 52 424q0 175 -25 316.5t-70 216.5q-72 122 -180 122zM139 1447l-29 -354h-67l-29 354h125z" />
    <glyph glyph-name="Upsilontonos" unicode="&#x38e;" horiz-adv-x="1119" 
d="M125 1447l-29 -354h-67l-29 354h125zM550 595l-240 614q-23 62 -52.5 83.5t-96.5 28.5v50q110 -14 207 -14q96 0 206 14v-50q-113 -8 -113 -52q0 -26 16 -66l201 -515l199 518q16 42 16 65t-24.5 34t-86.5 16v50q91 -10 155 -10t155 10v-50q-70 -10 -98 -31t-51 -79
l-240 -616v-415q0 -82 21 -104t107 -32v-50q-130 15 -204 15q-75 0 -205 -15v50q86 9 107 31.5t21 104.5v415z" />
    <glyph glyph-name="Omegatonos" unicode="&#x38f;" horiz-adv-x="1158" 
d="M139 1447l-29 -354h-67l-29 354h125zM476 0h-358l-38 330h43q25 -118 58.5 -159t103.5 -41h149l3 29q-99 30 -176 111q-76 79 -119 214t-43 294q0 251 110 417q62 93 161 145q97 51 215 51q164 0 287 -98q112 -90 163 -255q37 -118 37 -261q0 -198 -65 -352
q-90 -215 -273 -267l3 -28h148q70 0 99 35q39 45 63 165h43l-37 -330h-359l-23 205q40 10 78 38q85 63 127 231q33 133 33 306q0 220 -61 366q-36 84 -101 136q-66 52 -159 52q-126 0 -210 -101q-116 -139 -116 -452q0 -239 63 -392t174 -182z" />
    <glyph glyph-name="iotadieresistonos" unicode="&#x390;" horiz-adv-x="477" 
d="M313 1003v-858q0 -66 20 -85.5t91 -24.5v-41q-116 12 -183 12q-66 0 -183 -12v41q71 5 91 24.5t20 85.5v648q0 78 -18.5 98t-90.5 22v35q134 16 253 55zM57 1363q38 0 65 -27.5t27 -65.5q0 -39 -27 -66t-66 -27t-66 27.5t-27 66.5q0 38 27.5 65t66.5 27zM423 1363
q37 0 64 -27.5t27 -65.5t-27.5 -65.5t-65.5 -27.5q-39 0 -66 27.5t-27 66.5q0 38 27.5 65t67.5 27zM301 1447l-29 -354h-67l-29 354h125z" />
    <glyph glyph-name="Alpha" unicode="&#x391;" horiz-adv-x="1074" 
d="M310 397l-58 -194q-21 -73 -21 -101q0 -51 108 -58v-50q-94 11 -156 11t-156 -11v50q75 7 101 31t53 112l377 1224l341 -1246q19 -71 45 -92t103 -29v-50q-112 15 -199 15t-200 -15v50q98 10 98 59q0 28 -11 71l-56 223h-369zM329 460h335l-153 604z" />
    <glyph glyph-name="Beta" unicode="&#x392;" horiz-adv-x="958" 
d="M627 729q83 -20 134 -65q109 -96 109 -273q0 -166 -98 -279q-53 -61 -122 -86.5t-181 -25.5h-406v50q85 9 106.5 32t21.5 104v993q0 81 -22 104.5t-106 31.5v50h423q173 0 252 -93q81 -95 81 -238q0 -221 -192 -305zM344 745h85q77 0 120 20t72 69q41 72 41 195
q0 77 -19 140.5t-50 91.5q-45 41 -137 41h-112v-557zM344 682v-513q0 -66 18 -85.5t79 -19.5h37q127 0 185 102q49 85 49 222q0 78 -21.5 146t-56.5 100q-51 48 -162 48h-128z" />
    <glyph glyph-name="Gamma" unicode="&#x393;" horiz-adv-x="832" 
d="M472 44v-50q-130 15 -204 15q-75 0 -205 -15v50q84 8 106 31.5t22 104.5v999q0 81 -22 104.5t-106 31.5v50h713l30 -308h-46q-30 144 -71 194.5t-128 50.5h-217v-1122q0 -81 22 -104.5t106 -31.5z" />
    <glyph glyph-name="uni0394" unicode="&#x394;" horiz-adv-x="846" 
d="M833 0h-819l395 1391h40zM114 130h380q121 0 121 59q0 22 -12 69l-219 834z" />
    <glyph glyph-name="Epsilon" unicode="&#x395;" horiz-adv-x="911" 
d="M822 330l-37 -330h-722v50q83 8 105.5 31.5t22.5 104.5v993q0 81 -22 104.5t-106 31.5v50h713l29 -308h-46q-28 145 -66 195t-118 50h-231v-561h223q38 0 54.5 11.5t26.5 47.5q12 39 14 110h46v-402h-46q-2 98 -24 134t-80 36h-214v-494q0 -73 21.5 -97t86.5 -24h112
q65 0 99 20t60 74q31 62 53 173h46z" />
    <glyph glyph-name="Zeta" unicode="&#x396;" horiz-adv-x="902" 
d="M61 0l581 1302h-255q-63 0 -99 -19t-64 -67q-30 -52 -52 -153h-46l44 302h666l-580 -1302h292q63 0 93 10t53 39q56 68 100 221h46l-49 -333h-730z" />
    <glyph glyph-name="Eta" unicode="&#x397;" horiz-adv-x="1131" 
d="M344 744h443v442q0 80 -22 103.5t-106 31.5v50q124 -15 206 -15t203 15v-50q-85 -8 -106.5 -31t-21.5 -104v-1006q0 -81 21.5 -104t106.5 -32v-50q-126 15 -203 15t-206 -15v50q85 9 106.5 32t21.5 104v501h-443v-501q0 -81 21.5 -104t106.5 -32v-50q-129 15 -206 15
t-203 -15v50q85 9 106.5 32t21.5 104v1006q0 80 -21.5 103t-106.5 32v50q121 -15 203 -15t206 15v-50q-84 -8 -106 -31.5t-22 -103.5v-442z" />
    <glyph glyph-name="Theta" unicode="&#x398;" horiz-adv-x="1056" 
d="M413 485h-46v402h46q3 -97 21.5 -129.5t68.5 -32.5h52q37 0 52 11.5t25 46.5q11 36 13 104h46v-402h-46q-3 96 -23.5 129.5t-74.5 33.5h-36q-39 0 -57.5 -14t-28.5 -50q-10 -34 -12 -99zM528 1391q119 0 219 -76q107 -83 164 -250.5t57 -404.5q0 -268 -113 -485
q-52 -99 -154 -158q-75 -43 -169 -43q-163 0 -280 130q-79 89 -125 266q-38 146 -38 309q0 312 111 507q60 105 157 160q77 45 171 45zM530 1334q-111 0 -184 -128q-29 -50 -42 -97q-52 -187 -52 -418q0 -173 25.5 -313.5t71.5 -221.5q71 -125 184 -125q109 0 177 120
q29 53 43 104q52 193 52 424q0 174 -25 316t-70 217q-72 122 -180 122z" />
    <glyph glyph-name="Iota" unicode="&#x399;" horiz-adv-x="534" 
d="M472 44v-50q-130 15 -204 15q-75 0 -205 -15v50q84 8 106 31.5t22 104.5v1005q0 81 -22.5 105t-105.5 31v50q124 -15 205 -15q80 0 204 15v-50q-83 -7 -105.5 -31t-22.5 -105v-1005q0 -81 22 -104.5t106 -31.5z" />
    <glyph glyph-name="Kappa" unicode="&#x39a;" horiz-adv-x="1064" 
d="M493 828l359 -653q41 -74 77 -100t105 -31v-50q-123 16 -212 16q-88 0 -218 -16v50q18 2 26 3q87 8 87 45q0 24 -29 78l-284 535l-66 -92v-433q0 -81 21.5 -104.5t102.5 -31.5v-50q-108 15 -192 15t-207 -15v50q83 7 105.5 31t22.5 105v1005q0 81 -22 105t-106 31v50
q125 -15 206 -15q82 0 197 15v-50q-84 -7 -106 -30.5t-22 -105.5v-470l365 511q22 31 22 54q0 20 -20 28t-81 13v50q91 -9 169 -9q77 0 168 9v-50q-73 -5 -111 -26t-82 -82z" />
    <glyph glyph-name="Lambda" unicode="&#x39b;" horiz-adv-x="1072" 
d="M496 1092l-251 -896q-19 -68 -19 -91q0 -29 24.5 -43t84.5 -18v-50q-85 11 -151 11q-65 0 -157 -11v50q68 7 98 31t48 89l348 1227h40l337 -1221q21 -74 46.5 -96t101.5 -30v-50q-107 15 -199 15t-198 -15v50q101 10 101 58q0 24 -12 69z" />
    <glyph glyph-name="Mu" unicode="&#x39c;" horiz-adv-x="1366" 
d="M293 1218l-34 -1038q-1 -17 -1 -19q0 -66 24.5 -87.5t110.5 -29.5v-50q-102 10 -164 10q-60 0 -167 -10v50q12 1 19 2q71 6 92 30.5t24 103.5l34 1005l1 17q0 67 -26 89.5t-110 29.5v50q78 -8 134 -8q77 0 171 11l293 -1020l294 1020q113 -11 170 -11q50 0 128 8v-50
q-87 -7 -111.5 -32t-23.5 -104l17 -1005q2 -93 34 -112q30 -17 101 -24v-50q-126 15 -212 15q-85 0 -206 -15v50q86 6 111 31t24 105l-16 1035l-340 -1179h-33z" />
    <glyph glyph-name="Nu" unicode="&#x39d;" horiz-adv-x="1122" 
d="M932 -41h-26q-59 118 -170 326l-481 896v-1001q0 -55 6.5 -77.5t25.5 -33.5q31 -18 101 -25v-50q-118 10 -167 10q-51 0 -159 -10v50q89 9 111 31.5t22 104.5v1081q-23 31 -50.5 43.5t-83.5 16.5v50q73 -7 139 -7q60 0 119 7l553 -1023v837q0 55 -6.5 78t-24.5 33
q-34 19 -102 25v50q112 -10 167 -10q56 0 158 10v-50q-87 -8 -109.5 -31t-22.5 -105v-1226z" />
    <glyph glyph-name="Xi" unicode="&#x39e;" horiz-adv-x="926" 
d="M101 330q29 -118 69 -159t125 -41h336q89 0 122 38q45 52 72 162h46l-37 -330h-741l-38 330h46zM118 1057h-46l29 308h724l29 -308h-45q-28 107 -62.5 142.5t-109.5 35.5h-348q-79 0 -108 -35q-37 -43 -63 -143zM215 508h-46v402h46q4 -86 23 -114.5t71 -28.5h308
q39 0 55 10.5t27 42.5q10 32 12 90h46v-402h-46q-3 84 -22.5 113.5t-71.5 29.5h-308q-37 0 -55 -12t-28 -43q-9 -30 -11 -88z" />
    <glyph glyph-name="Omicron" unicode="&#x39f;" horiz-adv-x="1056" 
d="M528 1391q119 0 219 -76q107 -82 164 -250t57 -403q0 -270 -113 -487q-52 -99 -154 -158q-75 -43 -169 -43q-163 0 -280 130q-79 89 -125 267q-38 145 -38 308q0 312 111 507q60 105 157 160q77 45 171 45zM530 1334q-111 0 -184 -128q-29 -50 -42 -97q-52 -187 -52 -418
q0 -173 25.5 -313.5t71.5 -221.5q71 -125 184 -125q109 0 177 120q29 53 43 104q52 193 52 424q0 174 -25 316t-70 217q-72 122 -180 122z" />
    <glyph glyph-name="Pi" unicode="&#x3a0;" horiz-adv-x="1131" 
d="M1068 1365v-50q-83 -8 -105.5 -31.5t-22.5 -104.5v-999q0 -81 22 -104.5t106 -31.5v-50q-127 15 -203 15q-75 0 -206 -15v50q84 8 106 31.5t22 104.5v986q0 53 -7 77.5t-26 35.5q-26 15 -57 19t-130 4q-101 0 -132.5 -4t-57.5 -19q-33 -20 -33 -113v-986q0 -81 22 -104.5
t106 -31.5v-50q-131 15 -206 15q-77 0 -203 -15v50q84 8 106 31.5t22 104.5v999q0 81 -22.5 104.5t-105.5 31.5v50h1005z" />
    <glyph glyph-name="Rho" unicode="&#x3a1;" horiz-adv-x="914" 
d="M344 616v-436q0 -81 21.5 -104t106.5 -32v-50q-130 15 -204 15q-75 0 -205 -15v50q85 9 106.5 32t21.5 104v999q0 81 -22 104.5t-106 31.5v50h421q196 0 281 -101q92 -109 92 -274q0 -88 -29.5 -166t-81.5 -125q-90 -83 -246 -83h-156zM344 679h101q256 0 256 318
q0 80 -23 150.5t-60 105.5q-53 49 -163 49h-111v-623z" />
    <glyph glyph-name="Sigma" unicode="&#x3a3;" horiz-adv-x="834" 
d="M428 636l-349 729h666l44 -302h-46q-25 119 -61 172q-46 67 -146 67h-261l278 -579l-387 -593h396q57 0 82.5 13t49.5 54q27 47 53 136h46l-49 -333h-730z" />
    <glyph glyph-name="Tau" unicode="&#x3a4;" horiz-adv-x="884" 
d="M798 1053q-31 149 -69 199t-119 50h-92v-1122q0 -82 21 -104t107 -32v-50q-126 15 -204 15q-79 0 -205 -15v50q86 9 107 31.5t21 104.5v1122h-83q-59 0 -92 -21.5t-58 -76.5q-23 -50 -46 -151h-46l44 312h715l45 -312h-46z" />
    <glyph glyph-name="Upsilon" unicode="&#x3a5;" horiz-adv-x="990" 
d="M421 595l-239 614q-24 62 -53.5 83.5t-96.5 28.5v50q110 -14 207 -14q96 0 206 14v-50q-113 -8 -113 -52q0 -26 16 -66l201 -515l199 518q16 41 16 65q0 23 -24 34t-87 16v50q91 -10 155 -10t155 10v-50q-70 -10 -98 -31t-51 -79l-240 -616v-415q0 -82 21 -104t107 -32
v-50q-130 15 -205 15q-74 0 -204 -15v50q86 9 107 31.5t21 104.5v415z" />
    <glyph glyph-name="Phi" unicode="&#x3a6;" horiz-adv-x="1241" 
d="M695 1186q191 -14 294 -89q98 -73 146 -196q38 -98 38 -212q0 -182 -87 -316q-59 -92 -150.5 -137.5t-240.5 -56.5v-7q1 -61 12 -83t48 -33q24 -8 68 -12v-50q-130 15 -202 15q-73 0 -203 -15v50q84 8 105 30.5t23 104.5q-187 13 -293 90q-81 59 -128 158
q-57 120 -57 262q0 162 74 285q62 103 156.5 152.5t247.5 59.5v12q0 70 -23.5 93t-104.5 30v50q124 -15 203 -15q78 0 202 15v-50q-83 -7 -104.5 -29.5t-23.5 -105.5zM546 1128q-96 -1 -169 -53q-51 -36 -81 -86q-69 -114 -69 -295q0 -214 83 -333t236 -124v891zM695 1128
v-891q126 4 206 86q53 55 83 153t30 220q0 200 -85 315t-234 117z" />
    <glyph glyph-name="Chi" unicode="&#x3a7;" horiz-adv-x="1038" 
d="M579 774l258 -598q36 -83 65 -105t109 -27v-50q-135 14 -221 14q-88 0 -209 -14v50q19 2 29 3q84 9 84 50q0 33 -29 101l-174 401l-211 -416q-31 -62 -31 -91q0 -41 104 -48v-50q-91 9 -162 9t-162 -9v50q43 2 70 12q60 23 120 142l240 475l-227 524q-32 74 -59.5 95.5
t-99.5 28.5v50q106 -14 207 -14q100 0 206 14v-50q-62 -6 -86 -18t-24 -35q0 -24 18 -66l153 -354l182 361q20 40 20 64q0 41 -103 48v50q81 -10 160 -10t159 10v-50q-71 -8 -102 -28t-61 -78z" />
    <glyph glyph-name="Psi" unicode="&#x3a8;" horiz-adv-x="1211" 
d="M680 432q133 5 190 80t57 245v334q0 117 18.5 170.5t68.5 81.5q31 18 64.5 23t125.5 5v-50q-83 -7 -105.5 -31t-22.5 -105v-378q0 -165 -54 -256q-48 -81 -132 -128q-88 -49 -187 -49h-23v-194q0 -81 22 -104.5t106 -31.5v-50q-130 15 -202 15q-73 0 -203 -15v50
q84 8 106 31.5t22 104.5v194h-23q-142 0 -248 92q-68 59 -96.5 137t-28.5 204v378q0 81 -22.5 105t-105.5 31v50q92 0 125.5 -5t64.5 -23q50 -28 68.5 -81.5t18.5 -170.5v-334q0 -113 16.5 -168.5t61.5 -95.5q63 -57 169 -61v753q0 81 -22.5 105t-105.5 31v50
q124 -15 203 -15q78 0 202 15v-50q-83 -7 -105.5 -31t-22.5 -105v-753z" />
    <glyph glyph-name="uni03A9" unicode="&#x3a9;" horiz-adv-x="1146" 
d="M464 0h-358l-38 330h43q25 -118 58 -159t104 -41h148l4 29q-99 30 -177 111q-76 79 -119 214t-43 294q0 251 110 417q62 92 161 145q97 51 215 51q165 0 288 -98q112 -90 163 -255q37 -118 37 -261q0 -198 -65 -352q-90 -215 -274 -267l3 -28h149q70 0 99 35
q38 45 63 165h43l-38 -330h-358l-23 205q40 10 78 38q85 63 127 231q33 133 33 306q0 220 -62 366q-35 84 -101 136t-159 52q-126 0 -210 -101q-116 -139 -116 -452q0 -240 63.5 -392.5t174.5 -181.5z" />
    <glyph glyph-name="Iotadieresis" unicode="&#x3aa;" horiz-adv-x="542" 
d="M474 44v-50q-130 15 -205 15q-74 0 -204 -15v50q85 9 106.5 32t21.5 104v1005q0 82 -22 105t-106 31v50q124 -15 204 -15q81 0 205 15v-50q-84 -8 -106 -31t-22 -105v-1005q0 -81 21.5 -104t106.5 -32zM141 1725q40 0 69 -29.5t29 -69.5q0 -42 -29 -71t-70 -29
q-42 0 -71 29.5t-29 70.5t29.5 70t71.5 29zM405 1725q40 0 69 -29.5t29 -69.5q0 -42 -29 -71t-71 -29q-41 0 -70 29t-29 71q0 41 29.5 70t71.5 29z" />
    <glyph glyph-name="Upsilondieresis" unicode="&#x3ab;" horiz-adv-x="990" 
d="M394 1725q40 0 69 -29.5t29 -69.5q0 -42 -29 -71t-71 -29q-41 0 -70 29t-29 71q0 41 29.5 70t71.5 29zM688 1725q40 0 69 -29.5t29 -69.5q0 -42 -29 -71t-70 -29q-42 0 -71 29.5t-29 70.5t29.5 70t71.5 29zM421 595l-239 614q-24 62 -53.5 83.5t-96.5 28.5v50
q110 -14 207 -14q96 0 206 14v-50q-113 -8 -113 -52q0 -26 16 -66l201 -515l199 518q16 41 16 65q0 23 -24 34t-87 16v50q91 -10 155 -10t155 10v-50q-70 -10 -98 -31t-51 -79l-240 -616v-415q0 -82 21 -104t107 -32v-50q-130 15 -205 15q-74 0 -204 -15v50q86 9 107 31.5
t21 104.5v415z" />
    <glyph glyph-name="alphatonos" unicode="&#x3ac;" horiz-adv-x="912" 
d="M663 697q24 137 40 270h130q-31 -243 -106 -552q27 -192 52 -273t58 -81q20 0 48 22v-48q-46 -51 -106 -51q-50 0 -79.5 48t-58.5 175q-44 -109 -112 -169.5t-146 -60.5q-107 0 -185 92q-123 144 -123 414q0 225 91.5 367t236.5 142q108 0 170.5 -70.5t89.5 -224.5z
M590 418q-26 306 -90 439q-39 82 -101 82q-84 0 -128.5 -118t-44.5 -341q0 -267 59 -374q41 -76 97 -76q122 0 208 388zM499 1447l-28 -354h-68l-29 354h125z" />
    <glyph glyph-name="epsilontonos" unicode="&#x3ad;" horiz-adv-x="722" 
d="M430 1447l-28 -354h-68l-28 354h124zM444 530v-55h-45q-175 0 -175 -210q0 -102 44 -160q44 -60 128 -60q155 0 182 270h66q-11 -120 -51 -199q-38 -75 -92 -107t-143 -32q-129 0 -205 73q-80 78 -80 216q0 123 63 189q35 36 100 55q-142 40 -142 220q0 131 80 201
q72 61 186 61q129 0 196 -87l41 104h30v-338h-44q-37 265 -191 265q-68 0 -107.5 -55t-39.5 -152q0 -199 156 -199h43z" />
    <glyph glyph-name="etatonos" unicode="&#x3ae;" horiz-adv-x="893" 
d="M61 907v35q131 23 220 61q12 -66 18 -178q85 161 224 161q61 0 113.5 -31.5t83.5 -86.5q42 -75 42 -220v-906q0 -66 20 -86t91 -25v-41q-106 12 -179 12q-75 0 -178 -12v40q61 3 81.5 25t20.5 83v917q0 124 -29 175q-36 63 -111 63q-89 0 -134 -82q-30 -57 -30 -164v-505
q0 -61 20 -82.5t80 -25.5v-40q-105 12 -177 12q-71 0 -178 -12v41q71 5 91 24.5t20 85.5v634q0 89 -15.5 107t-93.5 21zM509 1447l-28 -354h-68l-29 354h125z" />
    <glyph glyph-name="iotatonos" unicode="&#x3af;" horiz-adv-x="477" 
d="M314 1003v-858q0 -66 20 -85.5t90 -24.5v-41q-115 12 -182 12t-183 -12v41q71 5 91 24.5t20 85.5v648q0 78 -18.5 98t-91.5 22v35q134 16 254 55zM301 1447l-29 -354h-67l-29 354h125z" />
    <glyph glyph-name="upsilondieresistonos" unicode="&#x3b0;" horiz-adv-x="832" 
d="M235 1363q38 0 65 -27.5t27 -65.5q0 -39 -27 -66t-66 -27t-66 27.5t-27 66.5q0 38 27.5 65t66.5 27zM601 1363q37 0 64 -27.5t27 -65.5q0 -39 -27 -66t-66 -27t-66 27.5t-27 66.5q0 38 27.5 65t67.5 27zM478 1447l-28 -354h-68l-28 354h124zM289 1003v-697
q0 -123 14 -166q34 -102 133 -102q120 0 192 142q67 133 67 325q0 147 -35.5 219t-123.5 104q-71 27 -71 84q0 36 22 57.5t59 21.5q82 0 139 -110q71 -136 71 -351q0 -231 -84 -384q-92 -168 -272 -168q-145 0 -213 115q-42 72 -42 216v484q0 77 -19.5 98.5t-89.5 21.5v35
q130 16 253 55z" />
    <glyph glyph-name="alpha" unicode="&#x3b1;" horiz-adv-x="912" 
d="M663 697q24 137 40 270h130q-32 -249 -106 -552q27 -192 52 -273t57 -81q21 0 49 22v-48q-46 -51 -106 -51q-50 0 -79.5 48t-58.5 175q-44 -109 -112 -169.5t-146 -60.5q-107 0 -185 92q-123 144 -123 414q0 225 91.5 367t236.5 142q108 0 170.5 -70.5t89.5 -224.5z
M590 418q-26 306 -90 439q-39 82 -101 82q-84 0 -128.5 -118t-44.5 -341q0 -267 59 -374q41 -76 97 -76q122 0 208 388z" />
    <glyph glyph-name="beta" unicode="&#x3b2;" horiz-adv-x="865" 
d="M406 687v55h33q74 0 117 65q53 81 53 241q0 289 -150 289q-94 0 -135 -102q-29 -71 -29 -254v-495q0 -448 182 -448q77 0 114 77q48 99 48 268q0 165 -43 232q-46 72 -140 72h-50zM295 126v-384q0 -66 20 -86t90 -25v-41q-113 13 -186 13t-178 -13v41q70 4 90 24.5
t20 86.5v1222q0 190 55 286q82 144 261 144q161 0 238 -118q55 -83 55 -223q0 -135 -55.5 -217.5t-163.5 -108.5q124 -18 177 -81q72 -86 72 -256q0 -168 -67 -279q-41 -68 -94 -99t-130 -31q-72 0 -116.5 31.5t-87.5 113.5z" />
    <glyph glyph-name="gamma" unicode="&#x3b3;" horiz-adv-x="822" 
d="M337 119l-199 718q-15 54 -39 72.5t-85 22.5v41q93 -10 172 -10q80 0 173 10v-41q-85 -7 -85 -40q0 -15 12 -58l164 -620l171 612q13 46 13 64q0 38 -93 42v41q61 -8 123 -8q65 0 144 8v-41q-56 -8 -83 -29.5t-41 -71.5l-203 -712v-378q0 -65 20 -85t90 -25v-41
q-113 13 -186 13t-178 -13v41q70 4 90 24.5t20 85.5v378z" />
    <glyph glyph-name="delta" unicode="&#x3b4;" horiz-adv-x="789" 
d="M353 960q-106 101 -136 146.5t-30 104.5q0 85 64.5 134t174.5 49q94 0 153 -43t59 -112q0 -75 -65 -75q-29 0 -47 16t-18 42q0 13 5 33q4 18 4 27q0 59 -81 59q-47 0 -75.5 -28.5t-28.5 -74.5q0 -41 22 -76t96 -111q132 -136 183 -224q80 -139 80 -340q0 -212 -85 -359
q-41 -71 -102.5 -110.5t-132.5 -39.5q-97 0 -175 74q-68 64 -105.5 176.5t-37.5 251.5q0 288 151 417q58 51 127 63zM401 912q-175 0 -175 -432q0 -449 165 -449q171 0 171 445q0 161 -32.5 249t-128.5 187z" />
    <glyph glyph-name="epsilon" unicode="&#x3b5;" horiz-adv-x="722" 
d="M444 530v-55h-45q-175 0 -175 -210q0 -102 44 -160q44 -60 128 -60q155 0 182 270h66q-11 -120 -51 -199q-38 -75 -92 -107t-143 -32q-129 0 -205 73q-80 78 -80 216q0 123 63 189q35 36 100 55q-142 40 -142 220q0 131 80 201q72 61 186 61q129 0 196 -87l41 104h30
v-338h-44q-37 265 -191 265q-68 0 -107.5 -55t-39.5 -152q0 -199 156 -199h43z" />
    <glyph glyph-name="zeta" unicode="&#x3b6;" horiz-adv-x="654" 
d="M394 1104q-142 13 -142 131q0 99 105 159l20 -28q-46 -54 -46 -111q0 -91 108 -91q54 0 105 18q33 11 48 11q13 0 23 -10t10 -23q0 -49 -128 -57q-61 -29 -99 -65.5t-74 -99.5q-95 -169 -95 -452q0 -237 76 -323q30 -33 65.5 -48.5t102.5 -23.5q90 -11 118 -39
q35 -34 35 -98q0 -97 -71 -169q-90 -91 -214 -91q-56 0 -89.5 26t-33.5 69q0 29 21 50t51 21q42 0 69 -56q11 -21 19.5 -27.5t28.5 -6.5q58 0 99 38t41 91q0 33 -19.5 46t-78.5 20q-102 12 -149.5 31.5t-94.5 69.5q-127 136 -127 406q0 258 111 438q86 140 205 194z" />
    <glyph glyph-name="eta" unicode="&#x3b7;" horiz-adv-x="893" 
d="M61 907v35q131 23 220 61q13 -67 18 -178q85 161 224 161q61 0 113.5 -31.5t83.5 -86.5q42 -75 42 -220v-906q0 -66 20 -86t91 -25v-41q-106 12 -179 12q-75 0 -178 -12v40q61 3 81.5 25t20.5 83v917q0 124 -29 175q-36 63 -111 63q-89 0 -134 -82q-30 -57 -30 -164v-505
q0 -61 20 -82.5t80 -25.5v-40q-105 12 -177 12q-71 0 -178 -12v41q71 5 91 24.5t20 85.5v634q0 89 -15.5 107t-93.5 21z" />
    <glyph glyph-name="theta" unicode="&#x3b8;" horiz-adv-x="789" 
d="M562 672h-336q3 -226 15.5 -339t44.5 -195q40 -107 107 -107t108 109q31 82 43 188t18 344zM227 738h334q-8 361 -59 497q-39 105 -105 105q-67 0 -108 -110q-54 -142 -62 -492zM401 1394q112 0 193 -130q52 -84 85.5 -246t33.5 -327q0 -294 -85 -503q-42 -104 -117 -168
q-51 -42 -118 -42q-96 0 -174 102q-69 90 -106.5 248.5t-37.5 356.5q0 293 82 490q46 110 122 175q51 44 122 44z" />
    <glyph glyph-name="iota" unicode="&#x3b9;" horiz-adv-x="477" 
d="M314 1003v-858q0 -66 20 -85.5t90 -24.5v-41q-115 12 -182 12t-183 -12v41q71 5 91 24.5t20 85.5v648q0 78 -19 98.5t-91 21.5v35q134 16 254 55z" />
    <glyph glyph-name="kappa" unicode="&#x3ba;" horiz-adv-x="869" 
d="M299 375v-233q0 -61 20 -82.5t80 -25.5v-40q-104 12 -177 12q-71 0 -178 -12v41q71 5 91 24.5t20 85.5v677q0 66 -20 85.5t-91 24.5v41q107 -12 178 -12q73 0 177 12v-40q-60 -4 -80 -25.5t-20 -82.5v-362l251 339q39 54 39 83q0 41 -90 47v41q83 -10 150 -10
q68 0 163 10v-41q-64 -7 -94 -25t-71 -72l-174 -230l249 -459q39 -72 63 -89.5t84 -21.5v-41q-109 10 -168 10t-169 -10v40q54 7 67 12.5t13 23.5q0 13 -18 46l-206 376z" />
    <glyph glyph-name="lambda" unicode="&#x3bb;" horiz-adv-x="822" 
d="M808 35v-41q-95 10 -173 10q-77 0 -172 -10v41q85 8 85 41q0 9 -12 57l-143 602l-192 -594q-13 -40 -13 -63q0 -39 93 -43v-41q-64 8 -123 8q-62 0 -144 -8v41q56 8 81.5 28.5t42.5 72.5l229 701l-92 385q-11 48 -35 62t-97 14v36q156 21 242 54l31 -156l268 -1101
q13 -53 38 -72.5t86 -23.5z" />
    <glyph glyph-name="uni03BC" unicode="&#x3bc;" horiz-adv-x="901" 
d="M213 58q-3 -19 -3 -47q0 -74 45 -181q35 -82 35 -119q0 -45 -24.5 -74.5t-61.5 -29.5q-35 0 -55.5 29t-20.5 79t18 184q16 115 16 212q0 32 -6 73q-11 76 -11 128v481q0 78 -19.5 99t-89.5 21v35q130 16 253 55v-694q0 -110 20 -155q35 -79 122 -79q163 0 163 261v457
q0 78 -19.5 99t-89.5 21v35q130 15 253 55v-820q0 -79 16 -95.5t97 -18.5v-36q-133 -16 -227 -54q-13 89 -13 155v27q-39 -94 -92 -136t-132 -42q-105 0 -174 75z" />
    <glyph glyph-name="nu" unicode="&#x3bd;" horiz-adv-x="815" 
d="M430 -26h-44l-255 865q-16 56 -37.5 72.5t-84.5 20.5v41q121 -11 182 -11q67 0 172 11v-41q-88 1 -88 -44q0 -16 10 -51l165 -597l173 592q13 44 13 62q0 39 -82 38v41q84 -9 127 -9q41 0 125 9v-41q-59 -4 -81.5 -22.5t-39.5 -76.5z" />
    <glyph glyph-name="xi" unicode="&#x3be;" horiz-adv-x="667" 
d="M461 1098q-179 -69 -179 -241q0 -78 27.5 -127t72.5 -52q74 26 105 26q40 0 40 -35q0 -27 -28 -41t-79 -14q-27 0 -54 3q-137 -63 -137 -268q0 -121 56 -181t188 -78q91 -12 118 -39q35 -33 35 -98q0 -97 -71 -169q-91 -91 -214 -91q-55 0 -89 26.5t-34 68.5q0 30 21 51
t52 21q40 0 63 -47q15 -29 24 -36.5t28 -7.5q59 0 100 38t41 91q0 33 -19.5 46t-78.5 20q-116 14 -183 45q-188 88 -188 311q0 235 205 318q-138 65 -138 215q0 181 212 255q-105 25 -105 127q0 99 105 159l20 -28q-46 -54 -46 -111q0 -91 108 -91q54 0 105 18q33 11 48 11
q13 0 23 -10t10 -23q0 -58 -164 -62z" />
    <glyph glyph-name="omicron" unicode="&#x3bf;" horiz-adv-x="789" 
d="M402 992q110 0 190 -91q54 -62 87.5 -177t33.5 -237q0 -213 -85 -359q-87 -150 -235 -150q-95 0 -172 71q-70 64 -108 177.5t-38 256.5q0 213 82 352q93 157 245 157zM397 939q-66 0 -109 -77q-62 -112 -62 -383q0 -448 167 -448q66 0 108 75q61 109 61 374
q0 459 -165 459z" />
    <glyph glyph-name="pi" unicode="&#x3c0;" horiz-adv-x="944" 
d="M609 844h-237v-638q0 -91 -7 -128t-30 -63q-31 -37 -88 -37q-51 0 -93.5 33t-94.5 113l28 28q36 -45 53 -58.5t38 -13.5q26 0 38 27t12 86v651h-45q-84 0 -162 -132l-35 21q75 143 108 184q27 34 52 42t104 8h483q105 0 132.5 11.5t47.5 64.5h40q-50 -141 -61 -199h-139
v-641q0 -99 17 -127t78 -28h6v-38q-126 -3 -185 -32h-10q-50 64 -50 221v645z" />
    <glyph glyph-name="rho" unicode="&#x3c1;" horiz-adv-x="838" 
d="M268 119v-377q0 -66 20 -86.5t90 -24.5v-41q-113 13 -186 13t-178 -13v41q70 5 90 25t20 86v703q0 214 50 334q87 207 269 207q148 0 236 -148q84 -143 84 -354q0 -213 -82 -357q-81 -145 -219 -145q-64 0 -108.5 31t-85.5 106zM443 939q-85 0 -131 -112.5t-46 -322.5
q0 -465 179 -465q167 0 167 432q0 468 -169 468z" />
    <glyph glyph-name="uni03C2" unicode="&#x3c2;" horiz-adv-x="716" 
d="M598 671q-40 266 -176 266q-88 0 -137.5 -120t-49.5 -333q0 -235 75 -321q30 -33 64.5 -48t101.5 -24q88 -11 116 -39q34 -33 34 -98q0 -97 -71 -169q-90 -91 -214 -91q-56 0 -89.5 26t-33.5 69q0 30 21 50.5t51 20.5q25 0 39.5 -13t35.5 -54q12 -23 42 -23q58 0 99 38
t41 91q0 34 -22 48q-17 10 -118 23q-71 10 -115.5 30.5t-86.5 65.5q-127 136 -127 411q0 216 82 358q90 157 242 157q101 0 168 -87l41 104h30v-338h-43z" />
    <glyph glyph-name="sigma" unicode="&#x3c3;" horiz-adv-x="794" 
d="M739 990v-103q-93 6 -165 23q64 -62 101.5 -174.5t37.5 -243.5q0 -218 -85 -364q-42 -72 -103 -111t-132 -39q-95 0 -172 71q-70 64 -108 178t-38 256q0 296 147 435q79 74 171 74q26 0 79 -5q77 -8 142 -8q71 0 125 11zM397 939q-84 0 -127.5 -119.5t-43.5 -352.5
q0 -436 167 -436q82 0 125.5 113.5t43.5 328.5q0 466 -165 466z" />
    <glyph glyph-name="tau" unicode="&#x3c4;" horiz-adv-x="704" 
d="M435 844v-699q0 -66 20 -85.5t91 -24.5v-41q-116 12 -183 12t-183 -12v41q71 5 91 24.5t20 85.5v699h-108q-88 -3 -162 -132l-35 21q75 143 108 184q27 34 52 42t104 8h247q105 0 132.5 11.5t46.5 64.5h41q-51 -141 -61 -199h-221z" />
    <glyph glyph-name="upsilon" unicode="&#x3c5;" horiz-adv-x="832" 
d="M289 1003v-697q0 -123 14 -166q34 -102 133 -102q120 0 192 142q67 133 67 325q0 147 -35.5 219t-123.5 104q-71 27 -71 84q0 36 22 57.5t59 21.5q82 0 139 -110q71 -136 71 -351q0 -231 -84 -384q-92 -168 -272 -168q-145 0 -213 115q-42 72 -42 216v484
q0 77 -19.5 98.5t-89.5 21.5v35q130 16 253 55z" />
    <glyph glyph-name="phi" unicode="&#x3c6;" horiz-adv-x="1000" 
d="M430 31v723q0 107 40 165q52 73 151 73q120 0 204 -124q100 -147 100 -382q0 -302 -161 -439q-83 -70 -194 -70v-236q0 -65 20 -85t91 -25v-41q-115 12 -181 12t-181 -12v41q71 5 91 24.5t20 85.5v236q-128 0 -219 95q-136 141 -136 411q0 342 222 475l28 -38
q-57 -81 -80 -176t-23 -250q0 -228 50.5 -340.5t157.5 -122.5zM570 31q208 18 208 441q0 258 -75 402q-33 65 -74 65q-59 0 -59 -113v-795z" />
    <glyph glyph-name="chi" unicode="&#x3c7;" horiz-adv-x="757" 
d="M770 -369v-41q-105 12 -174 12t-178 -12v41q82 4 82 40q0 11 -14 57l-135 438l-152 -420q-19 -52 -19 -71q0 -23 16 -32t64 -12v-41q-92 9 -137 9t-137 -9v41q55 4 85 22q45 28 70 97l182 502l-184 594q-14 46 -41 64.5t-82 21.5v41q98 -11 166 -11t168 11v-41
q-77 -4 -77 -39q0 -9 15 -55l114 -370l133 368q14 39 14 58q0 34 -80 38v41q82 -8 134 -8q53 0 128 8v-41q-60 -5 -88 -23.5t-45 -65.5l-168 -461l201 -645q19 -60 47.5 -81.5t91.5 -24.5z" />
    <glyph glyph-name="psi" unicode="&#x3c8;" horiz-adv-x="1021" 
d="M620 46q81 19 145 95q55 67 87 173.5t32 228.5q0 120 -27.5 186t-92.5 100q-63 34 -63 84q0 35 21.5 56.5t56.5 21.5q75 0 121 -118t46 -309q0 -335 -168 -494q-68 -65 -158 -85v-244q0 -65 20 -85t91 -25v-41q-115 12 -181 12t-181 -12v41q71 5 91 24.5t20 85.5v240
q-103 10 -168 49q-107 63 -145 197q-22 80 -22 205v361q0 77 -19.5 98.5t-89.5 21.5v35q130 16 253 55v-575q0 -189 42.5 -274t148.5 -110v923q60 12 140 36v-957z" />
    <glyph glyph-name="omega" unicode="&#x3c9;" horiz-adv-x="995" 
d="M469 262q-1 37 -3 56q-5 92 -5 117q0 130 52 130q23 0 39 -27.5t16 -67.5q0 -22 -10 -62q-14 -56 -14 -95q0 -80 38.5 -136.5t92.5 -56.5q82 0 132.5 97t50.5 252q0 158 -36 242.5t-116 113.5q-75 27 -75 84q0 34 22.5 56t58.5 22q78 0 134 -113q73 -145 73 -398
q0 -268 -106 -411q-65 -88 -147 -88q-57 0 -96 35t-71 116q-28 -72 -54 -102q-45 -50 -111 -50q-111 0 -179 130q-77 147 -77 357q0 412 263 529l28 -38q-52 -43 -76 -99q-58 -131 -58 -364q0 -225 51 -337q36 -78 81 -78q83 0 102 186z" />
    <glyph glyph-name="iotadieresis" unicode="&#x3ca;" horiz-adv-x="484" 
d="M311 1003v-858q0 -66 20 -85.5t91 -24.5v-41q-113 12 -183 12t-183 -12v41q71 5 91 24.5t20 85.5v648q0 78 -18.5 98t-90.5 22v35q131 15 253 55zM115 1363q37 0 64 -27.5t27 -65.5q0 -39 -27 -66t-66 -27t-66 27.5t-27 66.5q0 38 27.5 65t67.5 27zM348 1363
q38 0 65 -27.5t27 -65.5q0 -39 -27 -66t-66 -27t-66 27.5t-27 66.5q0 38 27.5 65t66.5 27z" />
    <glyph glyph-name="upsilondieresis" unicode="&#x3cb;" horiz-adv-x="832" 
d="M250 1363q38 0 65 -27.5t27 -65.5q0 -39 -27 -66t-66 -27t-66 27.5t-27 66.5q0 38 27.5 65t66.5 27zM546 1363q37 0 64 -27.5t27 -65.5q0 -39 -27 -66t-66 -27t-66 27.5t-27 66.5q0 38 27.5 65t67.5 27zM289 1003v-697q0 -123 14 -166q34 -102 133 -102q120 0 192 142
q67 133 67 325q0 147 -35.5 219t-123.5 104q-71 27 -71 84q0 36 22 57.5t59 21.5q82 0 139 -110q71 -136 71 -351q0 -231 -84 -384q-92 -168 -272 -168q-145 0 -213 115q-42 72 -42 216v484q0 77 -19.5 98.5t-89.5 21.5v35q130 16 253 55z" />
    <glyph glyph-name="omicrontonos" unicode="&#x3cc;" horiz-adv-x="789" 
d="M402 992q110 0 190 -91q54 -62 87.5 -177t33.5 -237q0 -213 -85 -359q-87 -150 -235 -150q-95 0 -172 71q-70 64 -108 177.5t-38 256.5q0 213 82 352q93 157 245 157zM397 939q-66 0 -109 -77q-62 -112 -62 -383q0 -448 167 -448q66 0 108 75q61 109 61 374
q0 459 -165 459zM456 1447l-28 -354h-68l-28 354h124z" />
    <glyph glyph-name="upsilontonos" unicode="&#x3cd;" horiz-adv-x="832" 
d="M491 1447l-28 -354h-68l-29 354h125zM289 1003v-697q0 -123 14 -166q34 -102 133 -102q120 0 192 142q67 133 67 325q0 147 -35.5 219t-123.5 104q-71 27 -71 84q0 36 22 57.5t59 21.5q82 0 139 -110q71 -136 71 -351q0 -231 -84 -384q-92 -168 -272 -168
q-145 0 -213 115q-42 72 -42 216v484q0 77 -19.5 98.5t-89.5 21.5v35q130 16 253 55z" />
    <glyph glyph-name="omegatonos" unicode="&#x3ce;" horiz-adv-x="995" 
d="M560 1447l-29 -354h-68l-28 354h125zM469 262q-1 37 -3 56q-5 92 -5 117q0 130 52 130q23 0 39 -27.5t16 -67.5q0 -22 -10 -62q-14 -56 -14 -95q0 -80 38.5 -136.5t92.5 -56.5q82 0 132.5 97t50.5 252q0 158 -36 242.5t-116 113.5q-75 27 -75 84q0 34 22.5 56t58.5 22
q78 0 134 -113q73 -145 73 -398q0 -268 -106 -411q-65 -88 -147 -88q-57 0 -96 35t-71 116q-28 -72 -54 -102q-45 -50 -111 -50q-111 0 -179 130q-77 147 -77 357q0 412 263 529l28 -38q-52 -43 -76 -99q-58 -131 -58 -364q0 -225 51 -337q36 -78 81 -78q83 0 102 186z" />
    <glyph glyph-name="theta1" unicode="&#x3d1;" horiz-adv-x="864" 
d="M770 886h66v-68h-62q3 -42 3 -104q0 -736 -371 -736q-148 0 -218 115q-43 71 -43 216v44q0 75 -17.5 98t-73.5 23q-4 0 -18 -1v36q131 15 253 54v-257q0 -125 14 -170q15 -46 49 -75t74 -29q96 0 147 161.5t51 466.5q0 54 -2 156v5q-155 6 -250 42q-101 39 -155.5 114.5
t-54.5 175.5q0 135 94 200q60 41 145 41q182 0 277 -166q37 -65 63 -161.5t29 -180.5zM619 889q-8 173 -43 283q-25 80 -71 124.5t-103 44.5q-53 0 -83.5 -42.5t-30.5 -116.5q0 -156 128 -238q69 -45 203 -55z" />
    <glyph glyph-name="Upsilon1" unicode="&#x3d2;" horiz-adv-x="962" 
d="M512 758q22 198 76 337q109 283 275 283q85 0 85 -70q0 -32 -21 -54.5t-51 -22.5q-17 0 -43 21q-24 19 -43 19q-73 0 -148 -199q-87 -230 -87 -551v-341q0 -82 21.5 -105t106.5 -31v-50q-130 15 -205 15t-205 -15v50q85 8 107 31t22 105v341q0 789 -375 800v50
q241 5 363 -168q100 -148 122 -445z" />
    <glyph glyph-name="phi1" unicode="&#x3d5;" horiz-adv-x="1000" 
d="M570 991q124 -7 214 -98q141 -143 141 -412q0 -225 -98.5 -364.5t-256.5 -139.5v-236q0 -65 20 -85t91 -25v-41q-115 12 -181 12t-181 -12v41q71 5 91 24.5t20 85.5v236q-128 0 -219 95q-136 141 -136 409q0 169 60 293q99 206 295 217v187q0 78 -18.5 98.5t-90.5 21.5
v36q124 14 249 54v-397zM430 937q-208 -22 -208 -460q0 -215 51.5 -326t156.5 -120v906zM570 937v-906q208 18 208 446q0 215 -53 332t-155 128z" />
    <glyph glyph-name="uni0400" unicode="&#x400;" horiz-adv-x="911" 
d="M822 330l-37 -330h-722v50q83 8 105.5 31.5t22.5 104.5v993q0 81 -22 104.5t-106 31.5v50h713l29 -308h-46q-28 145 -66 195t-118 50h-231v-561h223q38 0 54.5 11.5t26.5 47.5q12 39 14 110h46v-402h-46q-2 98 -24 134t-80 36h-214v-494q0 -73 21.5 -97t86.5 -24h112
q65 0 99 20t60 74q31 62 53 173h46zM534 1483h-78l-323 281h195z" />
    <glyph glyph-name="afii10023" unicode="&#x401;" horiz-adv-x="911" 
d="M297 1725q40 0 69 -29.5t29 -69.5q0 -42 -29 -71t-70 -29q-42 0 -71 29.5t-29 70.5t29.5 70t71.5 29zM591 1725q40 0 69 -29.5t29 -69.5q0 -42 -29 -71t-71 -29q-41 0 -70 29.5t-29 70.5t29.5 70t71.5 29zM822 330l-37 -330h-722v50q83 8 105.5 31.5t22.5 104.5v993
q0 81 -22 104.5t-106 31.5v50h713l29 -308h-46q-28 145 -66 195t-118 50h-231v-561h223q38 0 54.5 11.5t26.5 47.5q12 39 14 110h46v-402h-46q-2 98 -24 134t-80 36h-214v-494q0 -73 21.5 -97t86.5 -24h112q65 0 99 20t60 74q31 62 53 173h46z" />
    <glyph glyph-name="afii10051" unicode="&#x402;" horiz-adv-x="1030" 
d="M423 768q118 37 207 37q164 0 255 -111q58 -71 79 -155q25 -102 25 -226q0 -373 -179 -551q-90 -88 -238 -89v50q64 2 94 16q84 40 122 173q45 157 45 371q0 458 -246 458q-85 0 -164 -40v-521q0 -81 22 -104.5t106 -31.5v-50q-126 15 -204 15t-205 -15v50q84 8 106 31
t22 105v1122h-28q-58 0 -90.5 -20.5t-56.5 -70.5q-26 -54 -49 -158h-46l44 312h717l45 -312h-46q-31 150 -68.5 199.5t-119.5 49.5h-149v-534z" />
    <glyph glyph-name="afii10052" unicode="&#x403;" horiz-adv-x="832" 
d="M360 1483l206 281h199l-323 -281h-82zM472 44v-50q-130 15 -204 15q-75 0 -205 -15v50q84 8 106 31.5t22 104.5v999q0 81 -22 104.5t-106 31.5v50h713l30 -308h-46q-30 144 -71 194.5t-128 50.5h-217v-1122q0 -81 22 -104.5t106 -31.5z" />
    <glyph glyph-name="afii10053" unicode="&#x404;" horiz-adv-x="1003" 
d="M258 741h339v-63h-340q8 -268 67 -426q32 -87 94.5 -137t138.5 -50q121 0 193 104t81 291h59q-6 -194 -82 -326q-43 -75 -117 -117.5t-160 -42.5q-134 0 -239 97q-109 99 -160 298q-37 141 -37 310q0 307 117 512q58 101 154 156q77 44 174 44q152 0 252 -120l53 116h34
v-403h-46q-30 156 -92 247q-64 94 -183 94q-273 0 -300 -584z" />
    <glyph glyph-name="afii10054" unicode="&#x405;" horiz-adv-x="871" 
d="M106 413h46q48 -367 281 -367q96 0 155 70q66 77 66 195q0 103 -46 167t-179 147q-111 69 -174 120q-70 57 -101 125t-31 164q0 84 29 157t80 118q85 75 205 75q131 0 214 -105l46 113h31v-377h-46q-25 144 -79 227q-53 80 -153 80q-86 0 -140 -64q-61 -72 -61 -177
q0 -94 43.5 -147.5t208.5 -160.5q108 -70 162 -119q118 -107 118 -290q0 -170 -94 -277q-92 -105 -236 -105t-258 115l-56 -128h-31v444z" />
    <glyph glyph-name="afii10055" unicode="&#x406;" horiz-adv-x="534" 
d="M472 44v-50q-130 15 -204 15q-75 0 -205 -15v50q84 8 106 31.5t22 104.5v1005q0 81 -22 105t-106 31v50q124 -15 205 -15q80 0 204 15v-50q-83 -7 -105.5 -31t-22.5 -105v-1005q0 -81 22 -104.5t106 -31.5z" />
    <glyph glyph-name="afii10056" unicode="&#x407;" horiz-adv-x="542" 
d="M141 1725q40 0 69 -29.5t29 -69.5q0 -42 -29 -71t-70 -29q-42 0 -71 29.5t-29 70.5t29.5 70t71.5 29zM405 1725q40 0 69 -29.5t29 -69.5q0 -42 -29 -71t-71 -29q-41 0 -70 29t-29 71q0 41 29.5 70t71.5 29zM471 44v-50q-130 15 -204 15q-75 0 -205 -15v50q84 8 106 31.5
t22 104.5v1005q0 81 -22.5 105t-105.5 31v50q124 -15 205 -15q80 0 204 15v-50q-83 -7 -105.5 -31t-22.5 -105v-1005q0 -81 22 -104.5t106 -31.5z" />
    <glyph glyph-name="afii10057" unicode="&#x408;" horiz-adv-x="531" 
d="M1 -142v61q20 -2 33 -2q90 0 124 55t34 202v1011q0 82 -21.5 105t-106.5 31v50q124 -15 205 -15q80 0 204 15v-50q-84 -8 -106 -31t-22 -105v-940q0 -103 -10 -157.5t-37 -103.5q-74 -129 -239 -129q-26 0 -58 3z" />
    <glyph glyph-name="afii10058" unicode="&#x409;" horiz-adv-x="1432" 
d="M893 749h148q173 0 264 -105q88 -103 88 -269q0 -86 -30 -166t-80 -130q-82 -79 -259 -79h-412v50q84 7 106 30.5t22 105.5v980q0 53 -7.5 77.5t-25.5 35.5q-39 23 -135 23q-111 0 -133 -36.5t-27 -225.5q-12 -417 -58 -676q-69 -382 -239 -382q-51 0 -83 30t-32 79
q0 39 25 65.5t62 26.5q44 0 66 -43q10 -20 21 -20q60 0 107 224q24 118 44 363t20 426q0 88 -6 117t-28 42q-28 17 -95 23v50h805v-50q-83 -8 -105.5 -31.5t-22.5 -104.5v-430zM893 686v-517q0 -66 18.5 -85.5t80.5 -19.5h10q118 0 169 63q29 37 47.5 103.5t18.5 137.5
q0 318 -245 318h-99z" />
    <glyph glyph-name="afii10059" unicode="&#x40a;" horiz-adv-x="1453" 
d="M762 744v441q0 81 -22 104.5t-106 31.5v50q127 -15 205 -15q77 0 204 15v-50q-84 -8 -106 -31.5t-22 -104.5v-441h144q174 0 267 -105q90 -102 90 -266q0 -87 -30 -165.5t-83 -128.5q-84 -79 -261 -79h-408v50q84 7 106 30.5t22 105.5v495h-418v-501q0 -81 22 -104.5
t106 -31.5v-50q-130 15 -206 15q-77 0 -203 -15v50q84 8 106 31.5t22 104.5v1006q0 80 -22.5 104t-105.5 31v50q121 -15 203 -15t206 15v-50q-83 -7 -105.5 -31t-22.5 -104v-442h418zM915 681v-512q0 -64 19 -84.5t79 -20.5q85 0 134 26q52 29 82.5 104.5t30.5 177.5
q0 122 -48 205q-30 53 -73 76q-52 28 -132 28h-92z" />
    <glyph glyph-name="afii10060" unicode="&#x40b;" horiz-adv-x="1154" 
d="M430 768q117 37 213 37q238 0 330 -172q46 -86 46 -268v-185q0 -81 22.5 -104.5t105.5 -31.5v-50q-127 15 -204 15q-78 0 -205 -15v50q83 8 105.5 31.5t22.5 104.5v217q0 99 -10.5 154.5t-36.5 93.5q-66 96 -211 96q-99 0 -178 -40v-521q0 -82 22 -105t106 -31v-50
q-126 15 -204 15t-205 -15v50q84 8 106 31.5t22 104.5v1122h-28q-59 0 -92 -21t-57 -74q-24 -52 -47 -154h-46l44 312h716l46 -312h-46q-32 149 -69.5 199t-118.5 50h-149v-534z" />
    <glyph glyph-name="afii10061" unicode="&#x40c;" horiz-adv-x="1064" 
d="M443 1483l206 281h198l-322 -281h-82zM493 828l359 -653q41 -74 77 -100t105 -31v-50q-123 16 -212 16q-88 0 -218 -16v50q18 2 26 3q87 8 87 45q0 24 -29 78l-284 535l-66 -92v-433q0 -81 21.5 -104.5t102.5 -31.5v-50q-108 15 -192 15t-207 -15v50q83 7 105.5 31
t22.5 105v1005q0 81 -22 105t-106 31v50q125 -15 206 -15q82 0 197 15v-50q-84 -7 -106 -30.5t-22 -105.5v-470l365 511q22 31 22 54q0 20 -20 28t-81 13v50q91 -9 169 -9q77 0 168 9v-50q-73 -5 -111 -26t-82 -82z" />
    <glyph glyph-name="uni040D" unicode="&#x40d;" horiz-adv-x="1131" 
d="M698 1483h-78l-323 281h194zM342 331l447 832v22q0 81 -22.5 105t-105.5 31v50q124 -15 205 -15t202 15v-50q-83 -7 -105.5 -31t-22.5 -105v-1005q0 -81 22 -104.5t106 -31.5v-50q-127 15 -202 15t-205 -15v50q84 8 106 31.5t22 104.5v853l-447 -828v-25q0 -81 22 -104.5
t106 -31.5v-50q-130 15 -205 15q-76 0 -202 -15v50q84 8 106 31.5t22 104.5v1005q0 81 -22.5 105t-105.5 31v50q121 -15 202 -15t205 15v-50q-83 -7 -105.5 -31t-22.5 -105v-854z" />
    <glyph glyph-name="afii10062" unicode="&#x40e;" horiz-adv-x="977" 
d="M678 1760h56q-10 -111 -51 -182q-25 -43 -71.5 -69t-97.5 -26q-95 0 -152.5 72t-67.5 205h56q45 -151 164 -151t164 151zM536 530l216 676q13 42 13 60q0 28 -22 39t-86 16v50q91 -10 153 -10t153 10v-50q-72 -10 -101 -33t-48 -82l-279 -869q-61 -188 -125 -271.5
t-148 -83.5q-52 0 -83 26.5t-31 70.5q0 38 24.5 63.5t60.5 25.5q32 0 54 -33q18 -26 39 -26q71 0 131 188l-273 897q-21 70 -51 95t-101 32v50q110 -14 205 -14q94 0 204 14v-50q-65 -5 -89.5 -16.5t-24.5 -38.5q0 -19 13 -62z" />
    <glyph glyph-name="afii10145" unicode="&#x40f;" horiz-adv-x="1131" 
d="M1068 50v-50h-200q-89 0 -132 -10.5t-72 -39.5q-67 -68 -79 -219h-47q-13 139 -75 212q-29 34 -69 45.5t-125 11.5h-206v50q83 8 105.5 31.5t22.5 104.5v999q0 81 -22 104.5t-106 31.5v50q123 -15 203 -15t206 15v-50q-84 -8 -106 -31.5t-22 -104.5v-986q0 -53 7 -77.5
t26 -35.5q26 -15 57.5 -19t132.5 -4q98 0 129.5 4t57.5 19q18 11 25.5 35.5t7.5 77.5v986q0 81 -22 104.5t-106 31.5v50q126 -15 206 -15q79 0 203 15v-50q-84 -8 -106 -31.5t-22 -104.5v-999q0 -81 22.5 -105t105.5 -31z" />
    <glyph glyph-name="afii10017" unicode="&#x410;" horiz-adv-x="1074" 
d="M310 397l-58 -194q-21 -73 -21 -101q0 -51 108 -58v-50q-94 11 -156 11t-156 -11v50q75 7 101 31t53 112l377 1224l341 -1246q19 -71 45 -92t103 -29v-50q-112 15 -199 15t-200 -15v50q98 10 98 59q0 28 -11 71l-56 223h-369zM329 460h335l-153 604z" />
    <glyph glyph-name="afii10018" unicode="&#x411;" horiz-adv-x="898" 
d="M344 749h156q178 0 270 -105q90 -103 90 -270q0 -86 -30.5 -165.5t-82.5 -129.5q-83 -79 -263 -79h-421v50q84 7 106 30.5t22 105.5v993q0 81 -22 104.5t-106 31.5v50h659l29 -307h-46q-29 144 -66.5 194t-118.5 50h-176v-553zM344 686v-517q0 -66 18.5 -85.5t80.5 -19.5
h19q121 0 173 63q31 37 50 103.5t19 137.5q0 318 -252 318h-108z" />
    <glyph glyph-name="afii10019" unicode="&#x412;" horiz-adv-x="958" 
d="M344 683v-514q0 -66 18 -85.5t79 -19.5h37q127 0 185 102q49 85 49 223q0 77 -21.5 145.5t-56.5 100.5q-51 48 -162 48h-128zM627 729q83 -20 134 -65q109 -96 109 -273q0 -166 -98 -279q-53 -61 -122 -86.5t-181 -25.5h-406v50q85 9 106.5 32t21.5 104v993
q0 81 -22 104.5t-106 31.5v50h423q173 0 252 -93q81 -95 81 -238q0 -221 -192 -305zM344 745h85q77 0 120 20t72 69q41 72 41 195q0 77 -19 140.5t-50 91.5q-45 41 -137 41h-112v-557z" />
    <glyph glyph-name="afii10020" unicode="&#x413;" horiz-adv-x="832" 
d="M472 44v-50q-130 15 -204 15q-75 0 -205 -15v50q84 8 106 31.5t22 104.5v999q0 81 -22 104.5t-106 31.5v50h713l30 -308h-46q-30 144 -71 194.5t-128 50.5h-217v-1122q0 -81 22 -104.5t106 -31.5z" />
    <glyph glyph-name="afii10021" unicode="&#x414;" horiz-adv-x="1075" 
d="M1012 1315q-83 -8 -105.5 -31.5t-22.5 -104.5v-984q0 -89 21.5 -113.5t106.5 -31.5v-319h-46q-6 175 -97 232q-58 37 -204 37h-312q-146 0 -203 -37q-91 -58 -97 -232h-46v319q87 9 131.5 46t75.5 127q39 113 67.5 383.5t28.5 529.5q0 116 -19.5 143.5t-108.5 35.5v50
h830v-50zM731 198v968q0 53 -7 77.5t-26 35.5q-24 15 -51.5 19t-101.5 4q-72 0 -100.5 -7t-42.5 -28q-20 -28 -25 -221q-18 -617 -113 -884q-9 -27 -9 -39q0 -33 66.5 -47t222.5 -14q124 0 155.5 23t31.5 113z" />
    <glyph glyph-name="afii10022" unicode="&#x415;" horiz-adv-x="911" 
d="M822 330l-37 -330h-722v50q83 8 105.5 31.5t22.5 104.5v993q0 81 -22 104.5t-106 31.5v50h713l29 -308h-46q-28 145 -66 195t-118 50h-231v-561h223q38 0 54.5 11.5t26.5 47.5q12 39 14 110h46v-402h-46q-2 98 -24 134t-80 36h-214v-494q0 -73 21.5 -97t86.5 -24h112
q65 0 99 20t60 74q31 62 53 173h46z" />
    <glyph glyph-name="afii10024" unicode="&#x416;" horiz-adv-x="1556" 
d="M703 681h-80l-273 -511q-29 -54 -29 -78q0 -20 24.5 -30.5t88.5 -17.5v-50q-123 16 -213 16q-91 0 -214 -16v50q45 3 73 13q54 19 108 118l341 616l-275 422q-37 57 -78 80t-115 28v50q92 -9 168 -9q77 0 168 9v-50q-18 -1 -28 -2q-73 -5 -73 -39q0 -19 22 -54l305 -482
h80v442q0 81 -22.5 104.5t-105.5 30.5v50q125 -15 208 -15t198 15v-50q-84 -7 -106 -30.5t-22 -104.5v-442h80l47 75l258 407q22 35 22 54q0 20 -19.5 28t-81.5 13v50q91 -9 168 -9q76 0 168 9v-50q-49 -3 -79 -12q-65 -20 -114 -96l-275 -422l341 -616q41 -74 76.5 -100
t104.5 -31v-50q-123 16 -214 16q-90 0 -213 -16v50q18 2 26 3q87 8 87 45q0 24 -29 78l-273 511h-80v-501q0 -81 21.5 -104.5t102.5 -31.5v-50q-109 15 -194 15t-208 -15v50q83 7 105.5 31t22.5 105v501z" />
    <glyph glyph-name="afii10025" unicode="&#x417;" horiz-adv-x="966" 
d="M174 460q8 -159 40 -233q70 -162 242 -162q131 0 195 108q55 92 55 224q0 208 -140 264q-44 17 -122 17h-38v63h38q96 0 150 54q40 39 63.5 107t23.5 144q0 125 -63.5 201.5t-167.5 76.5q-124 0 -188 -94q-63 -91 -92 -246h-46v403h34l53 -116q41 49 78 72q77 48 200 48
q136 0 226 -73q121 -97 121 -273q0 -134 -61.5 -220t-174.5 -109q81 -14 136 -52q128 -88 128 -282q0 -157 -76 -266q-99 -142 -295 -142q-262 0 -346 246q-30 88 -34 240h61z" />
    <glyph glyph-name="afii10026" unicode="&#x418;" horiz-adv-x="1131" 
d="M342 331l447 832v22q0 81 -22.5 105t-105.5 31v50q124 -15 205 -15t202 15v-50q-83 -7 -105.5 -31t-22.5 -105v-1005q0 -81 22 -104.5t106 -31.5v-50q-127 15 -202 15t-205 -15v50q84 8 106 31.5t22 104.5v853l-447 -828v-25q0 -81 22 -104.5t106 -31.5v-50
q-130 15 -205 15q-76 0 -202 -15v50q84 8 106 31.5t22 104.5v1005q0 81 -22.5 105t-105.5 31v50q121 -15 202 -15t205 15v-50q-83 -7 -105.5 -31t-22.5 -105v-854z" />
    <glyph glyph-name="afii10027" unicode="&#x419;" horiz-adv-x="1131" 
d="M746 1760h56q-10 -111 -51 -182q-25 -43 -71 -69t-98 -26q-95 0 -152.5 72t-67.5 205h56q45 -151 164 -151t164 151zM342 331l447 832v22q0 81 -22.5 105t-105.5 31v50q124 -15 205 -15t202 15v-50q-83 -7 -105.5 -31t-22.5 -105v-1005q0 -81 22 -104.5t106 -31.5v-50
q-127 15 -202 15t-205 -15v50q84 8 106 31.5t22 104.5v853l-447 -828v-25q0 -81 22 -104.5t106 -31.5v-50q-130 15 -205 15q-76 0 -202 -15v50q84 8 106 31.5t22 104.5v1005q0 81 -22.5 105t-105.5 31v50q121 -15 202 -15t205 15v-50q-83 -7 -105.5 -31t-22.5 -105v-854z
" />
    <glyph glyph-name="afii10028" unicode="&#x41a;" horiz-adv-x="1064" 
d="M493 828l359 -653q41 -74 77 -100t105 -31v-50q-123 16 -212 16q-88 0 -218 -16v50q18 2 26 3q87 8 87 45q0 24 -29 78l-284 535l-66 -92v-433q0 -81 21.5 -104.5t102.5 -31.5v-50q-108 15 -192 15t-207 -15v50q83 7 105.5 31t22.5 105v1005q0 81 -22 105t-106 31v50
q125 -15 206 -15q82 0 197 15v-50q-84 -7 -106 -30.5t-22 -105.5v-470l365 511q22 31 22 54q0 20 -20 28t-81 13v50q91 -9 169 -9q77 0 168 9v-50q-73 -5 -111 -26t-82 -82z" />
    <glyph glyph-name="afii10029" unicode="&#x41b;" horiz-adv-x="1109" 
d="M216 1315v50h831v-50q-83 -8 -105.5 -31.5t-22.5 -104.5v-999q0 -81 22 -104.5t106 -31.5v-50q-126 15 -203 15t-206 -15v50q84 8 106 31.5t22 104.5v986q0 93 -33 113q-39 23 -147 23q-72 0 -102.5 -7.5t-45.5 -28.5q-21 -30 -26 -227q-11 -418 -58 -675
q-69 -382 -239 -382q-51 0 -83 30t-32 79q0 39 25 65.5t62 26.5q44 0 66 -43q10 -20 21 -20q60 0 107 224q24 118 44 363t20 426q0 88 -6 117t-28 42q-28 17 -95 23z" />
    <glyph glyph-name="afii10030" unicode="&#x41c;" horiz-adv-x="1366" 
d="M293 1218l-34 -1038q-1 -17 -1 -19q0 -66 24.5 -87.5t110.5 -29.5v-50q-102 10 -164 10q-60 0 -167 -10v50q12 1 19 2q71 6 92 30.5t24 103.5l34 1005l1 17q0 67 -26 89.5t-110 29.5v50q78 -8 138 -8q82 0 160 11l300 -1020l298 1020q96 -11 163 -11q54 0 131 8v-50
q-87 -7 -111.5 -32t-23.5 -104l17 -1005q2 -93 34 -112q30 -17 101 -24v-50q-127 15 -207 15t-207 -15v50q86 6 111 31t24 105l-16 1035l-344 -1179h-27z" />
    <glyph glyph-name="afii10031" unicode="&#x41d;" horiz-adv-x="1131" 
d="M344 744h443v442q0 80 -22 103.5t-106 31.5v50q124 -15 206 -15t203 15v-50q-85 -8 -106.5 -31t-21.5 -104v-1006q0 -81 21.5 -104t106.5 -32v-50q-126 15 -203 15t-206 -15v50q85 9 106.5 32t21.5 104v501h-443v-501q0 -81 21.5 -104t106.5 -32v-50q-129 15 -206 15
t-203 -15v50q85 9 106.5 32t21.5 104v1006q0 80 -21.5 103t-106.5 32v50q121 -15 203 -15t206 15v-50q-84 -8 -106 -31.5t-22 -103.5v-442z" />
    <glyph glyph-name="afii10032" unicode="&#x41e;" horiz-adv-x="1056" 
d="M528 1391q119 0 219 -76q107 -82 164 -250t57 -403q0 -270 -113 -487q-52 -99 -154 -158q-75 -43 -169 -43q-163 0 -280 130q-79 89 -125 267q-38 145 -38 308q0 312 111 507q60 105 157 160q77 45 171 45zM530 1334q-111 0 -184 -128q-29 -50 -42 -97q-52 -187 -52 -418
q0 -173 25.5 -313.5t71.5 -221.5q71 -125 184 -125q109 0 177 120q29 53 43 104q52 193 52 424q0 174 -25 316t-70 217q-72 122 -180 122z" />
    <glyph glyph-name="afii10033" unicode="&#x41f;" horiz-adv-x="1131" 
d="M1068 1365v-50q-83 -8 -105.5 -31.5t-22.5 -104.5v-999q0 -81 22 -104.5t106 -31.5v-50q-127 15 -203 15q-75 0 -206 -15v50q84 8 106 31.5t22 104.5v986q0 53 -7 77.5t-26 35.5q-26 15 -57 19t-130 4q-101 0 -132.5 -4t-57.5 -19q-33 -20 -33 -113v-986q0 -81 22 -104.5
t106 -31.5v-50q-131 15 -206 15q-77 0 -203 -15v50q84 8 106 31.5t22 104.5v999q0 81 -22.5 104.5t-105.5 31.5v50h1005z" />
    <glyph glyph-name="afii10034" unicode="&#x420;" horiz-adv-x="914" 
d="M344 616v-436q0 -81 21.5 -104t106.5 -32v-50q-130 15 -204 15q-75 0 -205 -15v50q85 9 106.5 32t21.5 104v999q0 81 -22 104.5t-106 31.5v50h421q196 0 281 -101q92 -109 92 -274q0 -88 -29.5 -166t-81.5 -125q-90 -83 -246 -83h-156zM344 679h101q256 0 256 318
q0 80 -23 150.5t-60 105.5q-53 49 -163 49h-111v-623z" />
    <glyph glyph-name="afii10035" unicode="&#x421;" horiz-adv-x="1003" 
d="M823 460h61q-5 -155 -52 -265q-46 -108 -125 -164q-81 -57 -182 -57q-134 0 -240 97q-108 99 -159 298q-37 141 -37 311q0 306 117 511q58 101 154 156q77 44 174 44q152 0 252 -120l54 116h33v-403h-46q-30 156 -92 247q-64 94 -183 94q-138 0 -205 -130
q-96 -185 -96 -520q0 -311 91 -475q76 -135 208 -135q121 0 192.5 103.5t80.5 291.5z" />
    <glyph glyph-name="afii10036" unicode="&#x422;" horiz-adv-x="884" 
d="M798 1053q-31 149 -69 199t-119 50h-92v-1122q0 -82 21 -104t107 -32v-50q-126 15 -204 15q-79 0 -205 -15v50q86 9 107 31.5t21 104.5v1122h-83q-59 0 -92 -21.5t-58 -76.5q-23 -50 -46 -151h-46l44 312h715l45 -312h-46z" />
    <glyph glyph-name="afii10037" unicode="&#x423;" horiz-adv-x="977" 
d="M536 530l216 676q13 42 13 60q0 28 -22 39t-86 16v50q91 -10 153 -10t153 10v-50q-72 -10 -101 -33t-48 -82l-279 -869q-61 -188 -125 -271.5t-148 -83.5q-52 0 -83 26.5t-31 70.5q0 38 24.5 63.5t60.5 25.5q32 0 54 -33q18 -26 39 -26q71 0 131 188l-273 897
q-21 70 -51 95t-101 32v50q110 -14 205 -14q94 0 204 14v-50q-65 -5 -89.5 -16.5t-24.5 -38.5q0 -19 13 -62z" />
    <glyph glyph-name="afii10038" unicode="&#x424;" horiz-adv-x="1241" 
d="M695 1186q191 -14 294 -89q97 -72 146 -196q38 -98 38 -208q0 -224 -124 -369q-108 -127 -354 -145v-7q1 -61 12 -83t48 -33q24 -8 68 -12v-50q-130 15 -202 15q-73 0 -203 -15v50q84 8 105 30.5t23 104.5q-109 8 -183 33q-107 37 -171 112q-124 146 -124 369
q0 157 74 281q61 103 156 152.5t248 59.5v10q0 56 -11.5 78.5t-44.5 34.5q-25 8 -72 12v50q124 -15 203 -15q78 0 202 15v-50q-83 -7 -104.5 -29.5t-23.5 -105.5zM546 1128q-96 -1 -169 -53q-51 -36 -81 -86q-69 -114 -69 -299q0 -212 83 -330t236 -123v891zM695 1128v-891
q97 3 167 53q51 35 80 86q72 122 72 314q0 204 -84.5 320t-234.5 118z" />
    <glyph glyph-name="afii10039" unicode="&#x425;" horiz-adv-x="1038" 
d="M579 774l258 -598q36 -83 65 -105t109 -27v-50q-135 14 -221 14q-88 0 -209 -14v50q19 2 29 3q84 9 84 50q0 33 -29 101l-174 401l-211 -416q-31 -62 -31 -91q0 -41 104 -48v-50q-91 9 -162 9t-162 -9v50q43 2 70 12q60 23 120 142l240 475l-227 524q-32 74 -59.5 95.5
t-99.5 28.5v50q106 -14 207 -14q100 0 206 14v-50q-62 -6 -86 -18t-24 -35q0 -24 18 -66l153 -354l182 361q20 40 20 64q0 41 -103 48v50q81 -10 160 -10t159 10v-50q-71 -8 -102 -28t-61 -78z" />
    <glyph glyph-name="afii10040" unicode="&#x426;" horiz-adv-x="1131" 
d="M1069 50v-319h-46q-6 174 -98 232q-58 37 -203 37h-659v50q83 8 105.5 31.5t22.5 104.5v999q0 81 -22 104.5t-106 31.5v50q123 -15 203 -15t206 15v-50q-84 -8 -106 -31.5t-22 -104.5v-986q0 -93 33 -113q26 -15 57.5 -19t132.5 -4q98 0 129.5 4t57.5 19q33 20 33 113
v986q0 81 -22 104.5t-106 31.5v50q126 -15 206 -15t204 15v-50q-85 -8 -107 -31.5t-22 -104.5v-989q0 -89 21.5 -113.5t107.5 -32.5z" />
    <glyph glyph-name="afii10041" unicode="&#x427;" horiz-adv-x="1088" 
d="M1030 44v-50q-130 15 -204 15q-75 0 -205 -15v50q84 8 106 31.5t22 104.5v417q-118 -37 -213 -37q-146 0 -241 70q-77 57 -106 136.5t-29 233.5v185q0 81 -22.5 105t-105.5 31v50q124 -15 205 -15q80 0 204 15v-50q-83 -7 -105.5 -31t-22.5 -105v-217q0 -99 10.5 -154.5
t36.5 -93.5q65 -96 210 -96q102 0 179 40v521q0 81 -22.5 105t-105.5 31v50q124 -15 205 -15q80 0 204 15v-50q-83 -7 -105.5 -31t-22.5 -105v-1005q0 -81 22 -104.5t106 -31.5z" />
    <glyph glyph-name="afii10042" unicode="&#x428;" horiz-adv-x="1483" 
d="M1420 50v-50h-1357v50q83 8 105.5 31.5t22.5 104.5v999q0 81 -22 104.5t-106 31.5v50q124 -15 201 -15t199 15v-50q-79 -8 -100 -31.5t-21 -104.5v-986q0 -94 33 -113q40 -23 129 -23q102 0 132 25t30 111v986q0 81 -21 104.5t-100 31.5v50q119 -15 195 -15t198 15v-50
q-79 -8 -100 -31.5t-21 -104.5v-986q0 -94 33 -113q40 -23 129 -23q102 0 132 25t30 111v986q0 81 -21 104.5t-100 31.5v50q122 -15 199 -15t201 15v-50q-84 -8 -106 -31.5t-22 -104.5v-999q0 -81 22.5 -104.5t105.5 -31.5z" />
    <glyph glyph-name="afii10043" unicode="&#x429;" horiz-adv-x="1483" 
d="M1421 50v-319h-46q-6 174 -98 232q-58 37 -203 37h-1011v50q83 8 105.5 31.5t22.5 104.5v999q0 81 -22 104.5t-106 31.5v50q124 -15 201 -15t199 15v-50q-79 -8 -100 -31.5t-21 -104.5v-986q0 -94 33 -113q40 -23 129 -23q102 0 132 25t30 111v986q0 81 -21 104.5
t-100 31.5v50q119 -15 195 -15t198 15v-50q-79 -8 -100 -31.5t-21 -104.5v-986q0 -94 33 -113q40 -23 129 -23q102 0 132 25t30 111v986q0 81 -21 104.5t-100 31.5v50q122 -15 199 -15t202 15v-50q-85 -8 -107 -31.5t-22 -104.5v-989q0 -89 21.5 -113.5t107.5 -32.5z" />
    <glyph glyph-name="afii10044" unicode="&#x42a;" horiz-adv-x="1056" 
d="M501 745h156q178 0 270 -105q90 -103 90 -269q0 -85 -30.5 -164t-82.5 -129q-83 -78 -264 -78h-420v50q83 6 105.5 30t22.5 105v1117h-87q-58 0 -89 -21t-55 -78q-22 -51 -41 -146h-45l29 308h569v-50q-83 -8 -105.5 -31.5t-22.5 -104.5v-434zM501 682v-513
q0 -66 18.5 -85.5t80.5 -19.5h19q121 0 173 62q31 37 50 102.5t19 136.5q0 317 -252 317h-108z" />
    </font>
</defs>
</svg>
