<?xml version="1.0" standalone="no"?>
<!DOCTYPE svg PUBLIC "-//W3C//DTD SVG 1.1//EN" "http://www.w3.org/Graphics/SVG/1.1/DTD/svg11.dtd" >
<svg>
<metadata>
Created by FontForge 20090622 at Fri Aug 10 12:14:07 2018
 By deploy user
Copyright (c) The Font Bureau, Inc., 2006. All rights reserved.
</metadata>
<defs>
<font id="FordAntenna-Medium" horiz-adv-x="750" >
  <font-face 
    font-family="Ford Antenna Medium"
    font-weight="500"
    font-stretch="normal"
    units-per-em="1000"
    panose-1="2 0 5 5 0 0 0 2 0 4"
    ascent="800"
    descent="-200"
    x-height="560"
    cap-height="741"
    bbox="-88 -287 1616 1238"
    underline-thickness="50"
    underline-position="-50"
    unicode-range="U+0020-U+FB04"
  />
<missing-glyph horiz-adv-x="500" 
d="M0 0v700h500v-700h-500zM50 650v-600h400v600h-400z" />
    <glyph glyph-name="f_f" unicode="ff" horiz-adv-x="753" 
d="M472 0v454h-223v-454h-115v454h-106v106h106v41q0 94 41.5 141t146.5 47q56 0 68 -1v-101h-53q-50 0 -69 -21.5t-19 -64.5v-41h223v41q0 94 42 141t147 47q56 0 68 -1v-101h-53q-50 0 -68.5 -21.5t-18.5 -64.5v-41h140v-106h-140v-454h-117z" />
    <glyph glyph-name="fi" unicode="fi" horiz-adv-x="663" 
d="M28 454v106h106v41q0 94 41.5 141t146.5 47q56 0 68 -1v-101h-53q-50 0 -69 -21.5t-19 -64.5v-41h141v-106h-141v-454h-115v454h-106zM472 0v560h117v-560h-117zM471 621v128h118v-128h-118z" />
    <glyph glyph-name="fl" unicode="fl" horiz-adv-x="713" 
d="M28 454v106h106v41q0 94 41.5 141t146.5 47q56 0 68 -1v-101h-53q-50 0 -69 -21.5t-19 -64.5v-41h141v-106h-141v-454h-115v454h-106zM607 -1q-73 0 -104 34.5t-31 120.5v622h117v-608q0 -39 11 -52t48 -13h21v-102q-20 -2 -62 -2z" />
    <glyph glyph-name="f_f_i" unicode="ffi" horiz-adv-x="1002" 
d="M472 0v454h-223v-454h-115v454h-106v106h106v41q0 94 41.5 141t146.5 47q56 0 68 -1v-101h-53q-50 0 -69 -21.5t-19 -64.5v-41h223v41q0 94 42 141t147 47q56 0 68 -1v-101h-53q-50 0 -68.5 -21.5t-18.5 -64.5v-41h140v-106h-140v-454h-117zM811 0v560h116v-560h-116z
M810 621v128h118v-128h-118z" />
    <glyph glyph-name="f_f_l" unicode="ffl" horiz-adv-x="1053" 
d="M472 0v454h-223v-454h-115v454h-106v106h106v41q0 94 41.5 141t146.5 47q56 0 68 -1v-101h-53q-50 0 -69 -21.5t-19 -64.5v-41h223v41q0 94 42 141t147 47q56 0 68 -1v-101h-53q-50 0 -68.5 -21.5t-18.5 -64.5v-41h140v-106h-140v-454h-117zM946 -1q-73 0 -104 34.5
t-31 120.5v622h116v-608q0 -38 11 -51.5t48 -13.5h22v-102q-20 -2 -62 -2z" />
    <glyph glyph-name="f_j" unicode="fj" horiz-adv-x="663" 
d="M28 454v106h106v41q0 94 41.5 141t146.5 47q56 0 68 -1v-101h-53q-50 0 -69 -21.5t-19 -64.5v-41h141v-106h-141v-454h-115v454h-106zM400 -168v94h10q40 1 51 16t11 63v555h117v-554q0 -103 -34 -138.5t-134 -35.5h-21zM471 621v128h118v-128h-118z" />
    <glyph glyph-name="f_t" unicode="ft" horiz-adv-x="775" 
d="M642 -1q-101 0 -137 37t-36 125v293h-220v-454h-115v454h-106v106h106v41q0 94 41.5 141t146.5 47q56 0 68 -1v-101h-53q-50 0 -69 -21.5t-19 -64.5v-41h224l21 150l91 19v-169h143v-106h-143v-276q0 -40 14.5 -57.5t64.5 -17.5h64v-103q-16 -1 -86 -1z" />
    <glyph glyph-name=".notdef" horiz-adv-x="500" 
d="M0 0v700h500v-700h-500zM50 650v-600h400v600h-400z" />
    <glyph glyph-name=".null" horiz-adv-x="0" 
 />
    <glyph glyph-name="nonmarkingreturn" horiz-adv-x="333" 
 />
    <glyph glyph-name="space" unicode=" " horiz-adv-x="225" 
 />
    <glyph glyph-name="exclam" unicode="!" horiz-adv-x="380" 
d="M119 0v147h141v-147h-141zM138 220l-12 521h128l-13 -521h-103z" />
    <glyph glyph-name="quotedbl" unicode="&#x22;" horiz-adv-x="528" 
d="M100 423l-8 318h120l-7 -318h-105zM324 423l-8 318h121l-8 -318h-105z" />
    <glyph glyph-name="numbersign" unicode="#" horiz-adv-x="769" 
d="M137 0l39 197h-115v107h134l23 118h-157v108h177l42 211h111l-42 -211h130l41 211h111l-40 -211h118v-108h-138l-23 -118h161v-107h-181l-38 -197h-112l38 197h-129l-38 -197h-112zM297 298h146l26 131h-146z" />
    <glyph glyph-name="dollar" unicode="$" horiz-adv-x="675" 
d="M287 -94v95q-146 10 -238 75l55 86q102 -64 229 -64q92 0 130.5 28t38.5 86q0 57 -38.5 79.5t-136.5 39.5q-47 8 -74.5 14t-64.5 21t-57 35t-34.5 54t-14.5 80q0 97 50.5 146.5t154.5 57.5v70h107v-69q109 -10 183 -55l-54 -91q-71 45 -184 45q-81 0 -113 -24t-32 -74
q0 -53 39 -73.5t138 -38.5q46 -8 74.5 -15t64.5 -22.5t55.5 -36t33.5 -54.5t14 -80q0 -198 -219 -219v-96h-107z" />
    <glyph glyph-name="percent" unicode="%" horiz-adv-x="1178" 
d="M257 272q-109 0 -164 63t-55 177q0 113 55 177t164 64q107 0 161.5 -64t54.5 -177q0 -114 -54.5 -177t-161.5 -63zM257 365q112 0 112 147q0 145 -112 145q-114 0 -114 -145q0 -147 114 -147zM922 -10q-108 0 -163 63.5t-55 177.5q0 113 55 177t163 64q107 0 162 -64
t55 -177q0 -114 -54.5 -177.5t-162.5 -63.5zM922 83q112 0 112 148q0 144 -112 144q-113 0 -113 -144q0 -148 113 -148zM327 0l414 742h109l-414 -742h-109z" />
    <glyph glyph-name="ampersand" unicode="&#x26;" horiz-adv-x="818" 
d="M308 -10q-141 0 -203.5 49t-62.5 164q0 78 41 128t113 88q-36 85 -36 157q0 88 48.5 132.5t134.5 44.5t128.5 -42.5t42.5 -134.5q0 -71 -44.5 -115.5t-123.5 -84.5q49 -75 108 -129q31 -29 64 -56q47 69 97 250l98 -25q-50 -192 -108 -280q63 -31 140 -31h9v-105h-13
q-126 0 -215 51q-83 -61 -218 -61zM308 88q76 0 127 27q-33 27 -71 65q-70 67 -122 151q-87 -55 -87 -126q0 -59 30.5 -88t122.5 -29zM270 576q0 -54 31 -119q54 28 82.5 55t28.5 64q0 39 -15.5 57t-53.5 18q-73 0 -73 -75z" />
    <glyph glyph-name="quotesingle" unicode="'" horiz-adv-x="305" 
d="M100 423l-8 319h120l-7 -319h-105z" />
    <glyph glyph-name="parenleft" unicode="(" horiz-adv-x="499" 
d="M318 -188q-85 72 -148 198.5t-63 291.5q0 155 64.5 289.5t146.5 203.5l84 -59q-176 -178 -176 -434q0 -148 52.5 -256.5t123.5 -174.5z" />
    <glyph glyph-name="parenright" unicode=")" horiz-adv-x="499" 
d="M180 -188l-82 59q174 176 174 431q0 147 -52 257.5t-122 176.5l82 59q85 -72 148.5 -200t63.5 -293q0 -156 -64.5 -288t-147.5 -202z" />
    <glyph glyph-name="asterisk" unicode="*" horiz-adv-x="592" 
d="M250 252l10 177l-152 -97l-46 84l161 80l-161 82l46 83l152 -98l-10 179h91l-10 -180l153 99l46 -83l-162 -82l162 -81l-46 -82l-153 97l10 -178h-91z" />
    <glyph glyph-name="plus" unicode="+" horiz-adv-x="709" 
d="M296 101v196h-196v111h196v195h116v-195h197v-111h-197v-196h-116z" />
    <glyph glyph-name="comma" unicode="," horiz-adv-x="266" 
d="M92 -140l-30 61q43 22 55.5 36t12.5 43h-68v150h141v-109q0 -80 -20.5 -114.5t-90.5 -66.5z" />
    <glyph glyph-name="hyphen" unicode="-" horiz-adv-x="438" 
d="M45 264v110h347v-110h-347z" />
    <glyph glyph-name="hyphen" unicode="&#xad;" horiz-adv-x="438" 
d="M45 264v110h347v-110h-347z" />
    <glyph glyph-name="period" unicode="." horiz-adv-x="266" 
d="M62 0v150h141v-150h-141z" />
    <glyph glyph-name="slash" unicode="/" horiz-adv-x="534" 
d="M0 0l415 741h119l-415 -741h-119z" />
    <glyph glyph-name="zero" unicode="0" horiz-adv-x="751" 
d="M376 -11q-168 0 -236.5 96t-68.5 286q0 191 68.5 286.5t236.5 95.5q166 0 235 -96t69 -286q0 -189 -69 -285.5t-235 -96.5zM376 96q107 0 145.5 69t38.5 206q0 67 -7.5 113t-27 83.5t-56.5 55.5t-93 18q-108 0 -146.5 -66t-38.5 -204q0 -67 7.5 -113.5t27 -85t57 -57.5
t93.5 -19z" />
    <glyph glyph-name="one" unicode="1" horiz-adv-x="394" 
d="M168 0v630h-134v111h248v-741h-114z" />
    <glyph glyph-name="two" unicode="2" horiz-adv-x="617" 
d="M35 0v97l246 227q91 85 122 126.5t31 95.5q0 52 -32 75.5t-110 23.5q-118 0 -201 -45l-52 95q55 30 115 44t149 14q125 0 186 -46.5t61 -149.5q0 -81 -37 -140.5t-134 -148.5l-181 -166h362v-102h-525z" />
    <glyph glyph-name="three" unicode="3" horiz-adv-x="630" 
d="M303 -12q-89 0 -156 17.5t-134 57.5l58 93q118 -65 226 -65q88 0 125 28t37 103q0 68 -36.5 96.5t-139.5 28.5h-116v104h114q89 0 123 22.5t34 80.5q0 53 -31.5 73.5t-111.5 20.5q-115 0 -201 -52l-62 90q107 67 273 67q126 0 186.5 -40.5t60.5 -135.5q0 -75 -21 -115.5
t-68 -54.5q59 -14 84 -59t25 -135q0 -125 -68 -175t-201 -50z" />
    <glyph glyph-name="four" unicode="4" horiz-adv-x="684" 
d="M44 167v93l328 481h126l-326 -474h246l24 226h83v-226h128v-100h-128v-167h-108v167h-373z" />
    <glyph glyph-name="five" unicode="5" horiz-adv-x="654" 
d="M323 -11q-153 0 -277 75l59 93q38 -21 63.5 -33t67 -22.5t84.5 -10.5q85 0 131 31t46 117t-43.5 118t-125.5 32q-91 0 -156 -31l-98 30l19 353h465v-105h-360l-9 -173q62 29 167 29q58 0 101 -10t80.5 -35.5t57 -76.5t19.5 -127q0 -77 -21 -129t-62.5 -78.5t-90 -36.5
t-117.5 -10z" />
    <glyph glyph-name="six" unicode="6" horiz-adv-x="709" 
d="M373 -11q-159 0 -232.5 77.5t-73.5 244.5q0 120 19 197.5t68.5 132t134 77.5t216.5 23h50v-105h-53q-79 0 -136.5 -11.5t-90 -29t-53 -46t-27.5 -53.5t-11 -62q53 66 225 66q136 0 191.5 -63t55.5 -187q0 -129 -65 -195t-218 -66zM374 90q96 0 132 39t36 117
q0 77 -37.5 116.5t-130.5 39.5q-88 0 -137.5 -36t-49.5 -106q0 -91 46.5 -130.5t140.5 -39.5z" />
    <glyph glyph-name="seven" unicode="7" horiz-adv-x="561" 
d="M135 0l279 636h-397v105h524v-91l-284 -650h-122z" />
    <glyph glyph-name="eight" unicode="8" horiz-adv-x="717" 
d="M358 -15q-157 0 -228 59.5t-71 163.5q0 164 119 199q-53 19 -73.5 59t-20.5 100q0 88 61.5 137.5t212.5 49.5q152 0 213.5 -50t61.5 -137q0 -129 -95 -159q121 -36 121 -199q0 -104 -71.5 -163.5t-229.5 -59.5zM358 85q183 0 183 132q0 133 -183 133q-95 0 -138.5 -33.5
t-43.5 -99.5t43.5 -99t138.5 -33zM358 448q88 0 125 25.5t37 78.5q0 51 -37 76.5t-125 25.5t-124.5 -25.5t-36.5 -76.5q0 -53 36.5 -78.5t124.5 -25.5z" />
    <glyph glyph-name="nine" unicode="9" horiz-adv-x="709" 
d="M159 0v102h54q80 0 137.5 12t90 29t52.5 46.5t27 54t11 61.5q-54 -65 -225 -65q-135 0 -191 64t-56 186q0 129 65.5 196t217.5 67q159 0 232.5 -77.5t73.5 -244.5q0 -121 -19 -198.5t-68.5 -132t-134 -77.5t-216.5 -23h-51zM340 335q88 0 138 35.5t50 105.5
q0 92 -46.5 131.5t-139.5 39.5q-97 0 -133 -39t-36 -117q0 -77 37.5 -116.5t129.5 -39.5z" />
    <glyph glyph-name="colon" unicode=":" horiz-adv-x="286" 
d="M72 0v145h141v-145h-141zM72 414v146h141v-146h-141z" />
    <glyph glyph-name="semicolon" unicode=";" horiz-adv-x="286" 
d="M102 -140l-30 61q43 22 55.5 36t12.5 43h-68v145h141v-104q0 -75 -21 -112t-90 -69zM72 414v146h141v-146h-141z" />
    <glyph glyph-name="less" unicode="&#x3c;" horiz-adv-x="709" 
d="M562 75l-454 228v86l454 226v-110l-334 -159l334 -158v-113z" />
    <glyph glyph-name="equal" unicode="=" horiz-adv-x="709" 
d="M106 182v110h498v-110h-498zM106 413v109h498v-109h-498z" />
    <glyph glyph-name="greater" unicode="&#x3e;" horiz-adv-x="709" 
d="M147 75v113l334 157l-334 159v111l455 -227v-86z" />
    <glyph glyph-name="question" unicode="?" horiz-adv-x="683" 
d="M264 207q-13 100 10.5 146.5t105.5 86.5q69 35 89.5 55t20.5 60q0 46 -29 67t-118 21q-115 0 -215 -50l-49 102q110 58 272 58q140 0 199.5 -44.5t59.5 -143.5q0 -74 -32.5 -114.5t-105.5 -76.5q-69 -34 -84.5 -61.5t-9.5 -105.5h-114zM250 0v133h141v-133h-141z" />
    <glyph glyph-name="at" unicode="@" horiz-adv-x="1074" 
d="M549 -165q-237 0 -353 110t-116 347t118 349.5t338 112.5q460 0 460 -462q0 -151 -37.5 -206t-143.5 -55q-52 0 -83 12.5t-39.5 27t-12.5 36.5q-48 -71 -192 -71q-215 0 -215 261q0 259 220 259q76 0 115 -15t59 -50l25 59l71 -6v-369q0 -39 14.5 -59.5t59.5 -20.5
q58 0 74.5 40t16.5 157q0 205 -98.5 300t-293.5 95q-388 0 -388 -395q0 -201 100 -295.5t300 -94.5q155 0 270 56l29 -59q-130 -64 -298 -64zM512 129q77 0 112 39t35 129q0 88 -34 124t-113 36q-72 0 -103 -41t-31 -119q0 -168 134 -168z" />
    <glyph glyph-name="A" unicode="A" horiz-adv-x="757" 
d="M19 0l297 746h124l298 -746h-125l-55 142h-363l-55 -142h-121zM237 254h278l-139 347z" />
    <glyph glyph-name="B" unicode="B" horiz-adv-x="729" 
d="M81 0v741h332q135 0 197 -44.5t62 -141.5q0 -132 -105 -167q65 -16 94.5 -60.5t29.5 -122.5q0 -114 -68 -159.5t-214 -45.5h-328zM200 107h222q77 0 112 25.5t35 83.5q0 57 -35 82t-113 25h-221v-216zM200 434h217q74 0 103 26t29 77q0 49 -30.5 72t-101.5 23h-217v-198z
" />
    <glyph glyph-name="C" unicode="C" horiz-adv-x="740" 
d="M412 -11q-193 0 -283 96t-90 286q0 193 97.5 287.5t282.5 94.5q172 0 275 -101l-88 -87q-76 71 -188 71q-257 0 -257 -266q0 -133 61.5 -200t196.5 -67q71 0 112.5 18.5t81.5 56.5l86 -82q-49 -50 -114.5 -78.5t-172.5 -28.5z" />
    <glyph glyph-name="D" unicode="D" horiz-adv-x="769" 
d="M81 0v741h253q111 0 183.5 -17t122 -59.5t70.5 -113.5t21 -180q0 -209 -92.5 -290t-312.5 -81h-245zM202 112h130q161 0 219 57t58 202q0 75 -11 121t-41.5 77.5t-83 44t-137.5 12.5h-134v-514z" />
    <glyph glyph-name="E" unicode="E" horiz-adv-x="663" 
d="M81 0v741h523v-116h-402v-186h392v-115h-392v-210h406v-114h-527z" />
    <glyph glyph-name="F" unicode="F" horiz-adv-x="626" 
d="M81 0v741h508v-116h-387v-199h377v-115h-377v-311h-121z" />
    <glyph glyph-name="G" unicode="G" horiz-adv-x="788" 
d="M411 -11q-203 0 -287.5 94t-84.5 288q0 382 379 382q188 0 285 -99l-87 -89q-76 71 -199 71q-132 0 -194.5 -66t-62.5 -200q0 -143 57.5 -208t198.5 -65q123 0 169 46t46 149v19h-229v109h349v-105q0 -82 -15 -139t-52.5 -101t-105 -65t-167.5 -21z" />
    <glyph glyph-name="H" unicode="H" horiz-adv-x="796" 
d="M81 0v741h121v-298h392v298h121v-741h-121v323h-392v-323h-121z" />
    <glyph glyph-name="I" unicode="I" horiz-adv-x="300" 
d="M90 0v741h120v-741h-120z" />
    <glyph glyph-name="J" unicode="J" horiz-adv-x="427" 
d="M118 -1q-61 0 -92 1v111h78q70 0 98.5 27t28.5 90v513h120v-518q0 -123 -58.5 -173.5t-174.5 -50.5z" />
    <glyph glyph-name="K" unicode="K" horiz-adv-x="732" 
d="M562 0l-236 358l-126 -143v-215h-119v741h119v-370l325 370h139l-258 -293l294 -448h-138z" />
    <glyph glyph-name="L" unicode="L" horiz-adv-x="602" 
d="M81 0v741h121v-630h379v-111h-500z" />
    <glyph glyph-name="M" unicode="M" horiz-adv-x="946" 
d="M81 0v741h158l235 -569l235 569h156v-741h-119v538l-224 -538h-100l-224 537v-537h-117z" />
    <glyph glyph-name="N" unicode="N" horiz-adv-x="801" 
d="M81 0v741h131l390 -535v535h118v-741h-111l-410 561v-561h-118z" />
    <glyph glyph-name="O" unicode="O" horiz-adv-x="843" 
d="M421 -12q-382 0 -382 383q0 382 382 382q383 0 383 -382q0 -383 -383 -383zM421 101q136 0 198.5 68t62.5 200q0 131 -62.5 199t-198.5 68q-260 0 -260 -267q0 -132 62.5 -200t197.5 -68z" />
    <glyph glyph-name="P" unicode="P" horiz-adv-x="733" 
d="M81 0v741h340q146 0 209.5 -59t63.5 -177q0 -122 -64.5 -187t-213.5 -65h-217v-253h-118zM199 363h222q78 0 115 31.5t37 104.5q0 74 -36 103t-118 29h-220v-268z" />
    <glyph glyph-name="Q" unicode="Q" horiz-adv-x="843" 
d="M543 -191q-128 0 -171.5 42t-38.5 149q-145 19 -219.5 108t-74.5 263q0 199 97.5 290.5t284.5 91.5q188 0 285.5 -91.5t97.5 -290.5q0 -191 -90 -280.5t-265 -94.5q-3 -50 15 -66t79 -16h86v-104q-5 0 -36.5 -0.5t-49.5 -0.5zM421 101q139 0 200 67.5t61 200.5
q0 132 -61 199.5t-200 67.5q-138 0 -199 -67.5t-61 -199.5q0 -133 61 -200.5t199 -67.5z" />
    <glyph glyph-name="R" unicode="R" horiz-adv-x="745" 
d="M549 0l-155 270h-195v-270h-118v741h339q145 0 207 -58.5t62 -172.5q0 -190 -171 -230l161 -280h-130zM199 381h218q77 0 113.5 27t36.5 97q0 71 -36 98.5t-116 27.5h-216v-250z" />
    <glyph glyph-name="S" unicode="S" horiz-adv-x="722" 
d="M361 -10q-198 0 -329 91l61 93q118 -78 265 -78q109 0 152.5 27t43.5 88q0 55 -45 76t-153 38q-61 9 -99.5 18t-77 25t-60 37.5t-34.5 55t-13 79.5q0 114 70 163.5t218 49.5q175 0 279 -70l-65 -99q-38 25 -96.5 41t-118.5 16q-92 0 -129.5 -23t-37.5 -75q0 -22 9 -38.5
t22.5 -26.5t41.5 -18.5t52 -13.5t69 -12q61 -10 96.5 -17.5t77 -23.5t63 -37t36.5 -56t15 -83q0 -115 -74 -171t-239 -56z" />
    <glyph glyph-name="T" unicode="T" horiz-adv-x="697" 
d="M288 0v625h-267v116h656v-116h-267v-625h-122z" />
    <glyph glyph-name="U" unicode="U" horiz-adv-x="797" 
d="M398 -13q-83 0 -143.5 17t-94.5 42.5t-53.5 66t-25 77.5t-5.5 86v465h121v-449q0 -97 42 -144.5t160 -47.5q119 0 162 47t43 145v449h118v-465q0 -49 -6 -86t-26 -77t-54 -66t-94.5 -43t-143.5 -17z" />
    <glyph glyph-name="V" unicode="V" horiz-adv-x="752" 
d="M313 -5l-294 746h127l231 -594l229 594h127l-296 -746h-124z" />
    <glyph glyph-name="W" unicode="W" horiz-adv-x="1083" 
d="M260 -5l-233 746h126l167 -545l171 545h108l172 -545l166 545h119l-232 -746h-108l-174 550l-173 -550h-109z" />
    <glyph glyph-name="X" unicode="X" horiz-adv-x="745" 
d="M576 0l-208 298l-200 -298h-135l271 389l-245 352h135l182 -261l176 261h135l-247 -352l273 -389h-137z" />
    <glyph glyph-name="Y" unicode="Y" horiz-adv-x="730" 
d="M305 0v273l-297 468h131l228 -358l229 358h125l-296 -466v-275h-120z" />
    <glyph glyph-name="Z" unicode="Z" horiz-adv-x="678" 
d="M39 0v96l435 529h-418v116h570v-105l-432 -525h443v-111h-598z" />
    <glyph glyph-name="bracketleft" unicode="[" horiz-adv-x="489" 
d="M116 -165v941h279v-106h-161v-732h164v-103h-282z" />
    <glyph glyph-name="backslash" unicode="\" horiz-adv-x="534" 
d="M415 0l-415 741h119l415 -741h-119z" />
    <glyph glyph-name="bracketright" unicode="]" horiz-adv-x="489" 
d="M92 -165v103h162v732h-162v106h280v-941h-280z" />
    <glyph glyph-name="asciicircum" unicode="^" horiz-adv-x="590" 
d="M79 574l154 171h123l154 -171h-111l-106 95l-104 -95h-110z" />
    <glyph glyph-name="underscore" unicode="_" horiz-adv-x="453" 
d="M-37 -141v93h527v-93h-527z" />
    <glyph glyph-name="grave" unicode="`" horiz-adv-x="590" 
d="M279 616l-181 171h141l146 -171h-106z" />
    <glyph glyph-name="a" unicode="a" horiz-adv-x="633" 
d="M238 -10q-115 0 -159 45t-44 126q0 118 78.5 161.5t286.5 43.5h28q-2 54 -27 76t-104 22q-84 0 -162 -47l-61 91q35 24 99.5 44.5t135.5 20.5q73 0 118.5 -12t70.5 -41t33.5 -68t8.5 -103v-188q0 -39 8.5 -49t44.5 -10v-101q-8 -2 -48 -2q-44 0 -66 12t-33 46
q-50 -67 -208 -67zM258 90q90 0 130 36t40 115v29h-21q-110 0 -166.5 -10t-76 -30t-19.5 -60q0 -41 24.5 -60.5t88.5 -19.5z" />
    <glyph glyph-name="b" unicode="b" horiz-adv-x="664" 
d="M376 -10q-156 0 -205 63l-23 -58l-79 9v772h116v-265q46 62 198 62q69 0 117 -21.5t74 -62.5t37 -91.5t11 -116.5q0 -138 -55 -214.5t-191 -76.5zM356 94q83 0 115.5 46.5t32.5 135.5q0 91 -32 138t-116 47q-93 0 -131.5 -42.5t-38.5 -142.5t37.5 -141t132.5 -41z" />
    <glyph glyph-name="c" unicode="c" horiz-adv-x="575" 
d="M319 -10q-80 0 -135.5 21t-86 61.5t-43 90.5t-12.5 118t12.5 118t43 91t87.5 62t139 21q137 0 214 -87l-85 -80q-52 54 -129 54q-92 0 -128.5 -45.5t-36.5 -136.5q0 -92 36 -138t129 -46q75 0 135 56l78 -74q-48 -45 -96.5 -65.5t-121.5 -20.5z" />
    <glyph glyph-name="d" unicode="d" horiz-adv-x="664" 
d="M283 -10q-69 0 -117 21.5t-74.5 62.5t-38 91.5t-11.5 117.5q0 137 55 213t190 76q150 0 191 -61v265h117v-771l-89 -9l-13 60q-51 -66 -210 -66zM309 96q92 0 130.5 43t38.5 144q0 99 -37 139t-132 40q-85 0 -117 -45t-32 -134q0 -92 32.5 -139.5t116.5 -47.5z" />
    <glyph glyph-name="e" unicode="e" horiz-adv-x="606" 
d="M322 -11q-85 0 -142 22t-86 64.5t-40.5 91t-11.5 114.5q0 65 12 113.5t41 91t86 65t139 22.5q49 0 87.5 -9.5t64 -27t43.5 -42t26.5 -54t14 -63.5t5 -70.5t-0.5 -74.5h-405q6 -72 42.5 -107.5t124.5 -35.5q61 0 100 13.5t76 40.5l62 -81q-95 -73 -238 -73zM317 470
q-82 0 -118.5 -35t-43.5 -102h295q-2 37 -6 56.5t-17 41t-40 30.5t-70 9z" />
    <glyph glyph-name="f" unicode="f" horiz-adv-x="414" 
d="M28 454v106h106v41q0 94 41.5 141t146.5 47q56 0 68 -1v-101h-53q-50 0 -69 -21.5t-19 -64.5v-41h141v-106h-141v-454h-115v454h-106z" />
    <glyph glyph-name="g" unicode="g" horiz-adv-x="624" 
d="M301 204q-49 0 -87 6q-10 -13 -10 -28q0 -23 20.5 -30t84.5 -7q162 0 220.5 -31t58.5 -119q0 -93 -67.5 -133.5t-222.5 -40.5q-153 0 -213.5 28.5t-60.5 109.5q0 106 112 129q-35 22 -35 75q0 44 23 78q-68 44 -68 143q0 94 59 141t186 47h14l250 40v-96h-87
q69 -38 69 -132q0 -93 -59 -136.5t-187 -43.5zM301 294q71 0 101 21.5t30 68.5t-31.5 68.5t-99.5 21.5q-72 0 -102 -21t-30 -69q0 -47 30 -68.5t102 -21.5zM302 -89q97 0 132.5 18.5t35.5 59.5q0 37 -35 49.5t-133 12.5q-68 0 -105 -10t-46.5 -24t-9.5 -38q0 -38 35.5 -53
t125.5 -15z" />
    <glyph glyph-name="h" unicode="h" horiz-adv-x="642" 
d="M69 0v776h116v-259q42 56 190 56q63 0 104.5 -16t61.5 -49.5t27.5 -71.5t7.5 -96v-340h-116v317q0 36 -3.5 57.5t-15 42.5t-37.5 30.5t-68 9.5q-89 0 -119.5 -37.5t-30.5 -112.5v-307h-117z" />
    <glyph glyph-name="i" unicode="i" horiz-adv-x="265" 
d="M75 0v560h115v-560h-115zM74 621v128h117v-128h-117z" />
    <glyph glyph-name="j" unicode="j" horiz-adv-x="265" 
d="M2 -168v94h10q40 1 51.5 16t11.5 63v555h115v-554q0 -103 -33 -138.5t-133 -35.5h-22zM74 621v128h117v-128h-117z" />
    <glyph glyph-name="k" unicode="k" horiz-adv-x="573" 
d="M69 0v776h115v-485l228 269h129l-195 -232l214 -328h-129l-162 243l-85 -97v-146h-115z" />
    <glyph glyph-name="l" unicode="l" horiz-adv-x="317" 
d="M209 -1q-72 0 -103 34.5t-31 120.5v622h115v-608q0 -38 11 -51.5t49 -13.5h21v-102q-20 -2 -62 -2z" />
    <glyph glyph-name="m" unicode="m" horiz-adv-x="1010" 
d="M69 0v553l91 7l10 -49q42 62 199 62q140 0 168 -66q47 66 212 66q63 0 103.5 -16t60 -49.5t26 -71t6.5 -96.5v-340h-117v317q0 31 -1 47t-7 37t-18 31t-35 17.5t-57 7.5q-88 0 -116.5 -37t-28.5 -113v-307h-116v317q0 30 -1 46.5t-7.5 37.5t-18.5 31t-35 17.5t-57 7.5
q-88 0 -116 -37t-28 -113v-307h-117z" />
    <glyph glyph-name="n" unicode="n" horiz-adv-x="642" 
d="M69 0v553l91 7l10 -49q51 62 205 62q63 0 104.5 -16t61.5 -49.5t27.5 -71.5t7.5 -96v-340h-116v317q0 36 -3.5 57.5t-15 42.5t-37.5 30.5t-68 9.5q-89 0 -119.5 -37.5t-30.5 -112.5v-307h-117z" />
    <glyph glyph-name="o" unicode="o" horiz-adv-x="646" 
d="M323 -11q-148 0 -214.5 73t-66.5 219t66.5 219t214.5 73t214.5 -73t66.5 -219t-66.5 -219t-214.5 -73zM323 94q89 0 126.5 46.5t37.5 137.5t-37.5 137t-126.5 46t-126.5 -46t-37.5 -137q0 -92 37.5 -138t126.5 -46z" />
    <glyph glyph-name="p" unicode="p" horiz-adv-x="664" 
d="M69 -165v718l91 7l10 -54q48 67 213 67q69 0 117 -21.5t74 -62.5t37 -91t11 -117q0 -66 -11.5 -116t-38.5 -91t-76 -62t-119 -21q-150 0 -191 61v-217h-117zM356 96q83 0 115.5 45.5t32.5 135.5q0 91 -32 137.5t-116 46.5q-93 0 -131.5 -42t-38.5 -142t37.5 -140.5
t132.5 -40.5z" />
    <glyph glyph-name="q" unicode="q" horiz-adv-x="664" 
d="M478 -165v213q-27 -32 -71.5 -45t-123.5 -13q-69 0 -117 21.5t-74.5 62t-38 91t-11.5 117.5q0 66 11.5 116.5t38.5 91t76 62t119 21.5q156 0 206 -62l23 54l79 -7v-723h-117zM309 96q92 0 130.5 43t38.5 143t-37 140t-132 40q-85 0 -117 -45t-32 -135q0 -91 32.5 -138.5
t116.5 -47.5z" />
    <glyph glyph-name="r" unicode="r" horiz-adv-x="381" 
d="M69 0v553l91 7l12 -64q18 30 67.5 49.5t118.5 20.5v-117q-95 -1 -133.5 -42t-38.5 -119v-288h-117z" />
    <glyph glyph-name="s" unicode="s" horiz-adv-x="548" 
d="M270 -10q-149 0 -250 68l60 90q88 -57 197 -57q70 0 97 14t27 55q0 33 -24.5 45.5t-98.5 24.5q-48 8 -76 14t-61 18.5t-50 30t-28.5 46.5t-11.5 68q0 83 53 124.5t174 41.5q134 0 220 -50l-55 -96q-71 38 -162 38q-66 0 -90.5 -14t-24.5 -44q0 -32 24 -45.5t91 -24.5
q53 -9 79 -14.5t61.5 -18t52 -28.5t28.5 -44t12 -66q0 -96 -56.5 -136t-187.5 -40z" />
    <glyph glyph-name="t" unicode="t" horiz-adv-x="429" 
d="M28 454v106h100l21 150l91 19v-169h143v-106h-143v-276q0 -40 14 -57.5t64 -17.5h65v-103q-16 -1 -87 -1q-100 0 -136 37t-36 125v293h-96z" />
    <glyph glyph-name="u" unicode="u" horiz-adv-x="635" 
d="M319 -10q-80 0 -130 15t-77 49.5t-36.5 79t-9.5 114.5v312h116v-315q0 -32 1 -48.5t8 -39t21 -33.5t40.5 -19t66.5 -8t66.5 8.5t40 19t20.5 33.5t8 39t1 50v313h114v-310q0 -71 -9 -115.5t-35 -79.5t-76 -50t-130 -15z" />
    <glyph glyph-name="v" unicode="v" horiz-adv-x="578" 
d="M226 -5l-222 565h124l162 -426l163 426h121l-222 -565h-126z" />
    <glyph glyph-name="w" unicode="w" horiz-adv-x="898" 
d="M203 -5l-192 565h122l132 -397l128 397h115l128 -396l132 396h119l-192 -565h-118l-128 389l-128 -389h-118z" />
    <glyph glyph-name="x" unicode="x" horiz-adv-x="570" 
d="M427 0l-147 207l-141 -207h-127l207 293l-188 267h129l129 -183l125 183h126l-190 -269l207 -291h-130z" />
    <glyph glyph-name="y" unicode="y" horiz-adv-x="557" 
d="M129 -168q-39 0 -52 1v93h42q43 0 60.5 9t26.5 37l13 36l-215 552h124l154 -412l150 412h122l-233 -600q-26 -70 -68 -99t-124 -29z" />
    <glyph glyph-name="z" unicode="z" horiz-adv-x="521" 
d="M27 0v84l305 370h-289v106h443v-86l-307 -375h318v-99h-470z" />
    <glyph glyph-name="braceleft" unicode="{" horiz-adv-x="526" 
d="M333 -165q-97 0 -140 33.5t-43 102.5q0 33 26.5 122.5t26.5 111.5q0 31 -26.5 40.5t-101.5 9.5v100q74 0 101 9t27 42q0 22 -26.5 111.5t-26.5 122.5q0 69 43 102.5t140 33.5h102v-106h-76q-52 0 -70.5 -14t-18.5 -49q0 -17 24.5 -103t24.5 -119q0 -61 -62 -79
q62 -19 62 -80q0 -32 -24.5 -119.5t-24.5 -105.5q0 -35 18.5 -49t70.5 -14h76v-103h-102z" />
    <glyph glyph-name="bar" unicode="|" horiz-adv-x="351" 
d="M116 -165v941h118v-941h-118z" />
    <glyph glyph-name="braceright" unicode="}" horiz-adv-x="526" 
d="M91 -165v103h77q52 0 70.5 14t18.5 49q0 18 -25 105t-25 120q0 61 62 80q-62 18 -62 79q0 33 25 119t25 103q0 35 -18.5 49t-70.5 14h-77v106h102q97 0 140 -33t43 -103q0 -33 -26.5 -122.5t-26.5 -111.5q0 -31 26.5 -40.5t101.5 -9.5v-100q-74 0 -101 -9t-27 -42
q0 -22 26.5 -111.5t26.5 -122.5q0 -70 -43 -103t-140 -33h-102z" />
    <glyph glyph-name="asciitilde" unicode="~" horiz-adv-x="590" 
d="M149 394l-70 56q72 91 145 91q37 0 77 -25.5t62 -25.5q34 0 80 56l68 -55q-78 -97 -146 -97q-34 0 -75.5 25.5t-63.5 25.5q-38 0 -77 -51z" />
    <glyph glyph-name="uni00A0" unicode="&#xa0;" horiz-adv-x="225" 
 />
    <glyph glyph-name="exclamdown" unicode="&#xa1;" horiz-adv-x="380" 
d="M126 0l12 521h104l12 -521h-128zM120 594v147h141v-147h-141z" />
    <glyph glyph-name="cent" unicode="&#xa2;" horiz-adv-x="574" 
d="M262 -94v90q-121 13 -169.5 86t-48.5 199q0 124 48 197t170 88v66h111v-65q101 -12 161 -81l-83 -78q-52 54 -127 54q-92 0 -129.5 -46.5t-37.5 -137.5t37.5 -138.5t129.5 -47.5q43 0 72.5 13t61.5 43l76 -72q-75 -69 -161 -80v-90h-111z" />
    <glyph glyph-name="sterling" unicode="&#xa3;" horiz-adv-x="642" 
d="M421 -8q-101 0 -198 54q-57 -46 -188 -46v100q49 0 77 5t41.5 19.5t17 30t3.5 46.5q0 36 -25 132h-119v95h93q-20 80 -20 125q0 96 54.5 148.5t183.5 52.5q116 0 210 -39l-45 -102q-69 31 -168 31q-67 0 -93.5 -27t-26.5 -80q0 -39 17 -109h209v-95h-185q20 -85 20 -129
q0 -43 -7 -75q77 -33 146 -33q53 0 69.5 20.5t16.5 73.5v27h101v-31q0 -107 -41.5 -150.5t-142.5 -43.5z" />
    <glyph glyph-name="yen" unicode="&#xa5;" horiz-adv-x="654" 
d="M70 228v97h199l-257 416h124l191 -319l191 319h123l-257 -416h199v-97h-199v-63h199v-97h-199v-68h-115v68h-199v97h199v63h-199z" />
    <glyph glyph-name="brokenbar" unicode="&#xa6;" horiz-adv-x="351" 
d="M116 -165v392h118v-392h-118zM116 384v392h118v-392h-118z" />
    <glyph glyph-name="section" unicode="&#xa7;" horiz-adv-x="575" 
d="M158 -7q-42 0 -68 2v96h54q55 0 71 20.5t16 65.5v39q-173 16 -173 153q0 135 163 154v35q0 45 6.5 75.5t25.5 58t58.5 41.5t99.5 14q42 0 68 -2v-101h-54q-55 0 -71.5 -20.5t-16.5 -64.5v-34q180 -16 180 -156q0 -134 -169 -152v-35q0 -45 -6.5 -75t-25.5 -58t-58.5 -42
t-99.5 -14zM287 293q70 0 102.5 17.5t32.5 55.5q0 39 -32.5 56t-102.5 17t-102 -17t-32 -56q0 -38 32 -55.5t102 -17.5z" />
    <glyph glyph-name="dieresis" unicode="&#xa8;" horiz-adv-x="590" 
d="M133 619v121h106v-121h-106zM352 619v121h105v-121h-105z" />
    <glyph glyph-name="copyright" unicode="&#xa9;" horiz-adv-x="820" 
d="M417 126q-122 0 -183 63.5t-61 185.5q0 125 65.5 187t182.5 62q112 0 179 -65l-54 -57q-51 46 -126 46q-81 0 -124 -44t-43 -129q0 -174 168 -174q78 0 130 48l52 -53q-70 -70 -186 -70zM409 -12q-180 0 -275 105.5t-95 277.5t95 277.5t275 105.5q181 0 276.5 -105.5
t95.5 -277.5t-95.5 -277.5t-276.5 -105.5zM409 36q162 0 242.5 91.5t80.5 243.5t-80.5 243.5t-242.5 91.5q-163 0 -242.5 -91t-79.5 -244t79.5 -244t242.5 -91z" />
    <glyph glyph-name="ordfeminine" unicode="&#xaa;" horiz-adv-x="603" 
d="M221 280q-160 0 -160 139q0 94 70 130.5t228 36.5h20q-2 43 -22 60t-81 17q-70 0 -129 -37l-51 74q28 20 80 36t110 16q114 0 150 -39.5t36 -141.5v-150q0 -32 7 -40t37 -8v-85q-14 -2 -38 -2q-44 0 -63.5 12.5t-25.5 50.5q-19 -37 -56.5 -53t-111.5 -16zM104 131v88h369
v-88h-369zM244 362q68 0 101.5 29.5t33.5 92.5v26h-14q-126 0 -168.5 -17t-42.5 -66q0 -65 90 -65z" />
    <glyph glyph-name="guillemotleft" unicode="&#xab;" horiz-adv-x="722" 
d="M249 0l-151 279l151 281h102l-143 -281l143 -279h-102zM495 0l-151 279l151 281h103l-142 -281l142 -279h-103z" />
    <glyph glyph-name="logicalnot" unicode="&#xac;" horiz-adv-x="709" 
d="M100 405h509v-302h-116v197h-393v105z" />
    <glyph glyph-name="registered" unicode="&#xae;" horiz-adv-x="820" 
d="M409 -12q-180 0 -275 105.5t-95 277.5t95 277.5t275 105.5q181 0 276.5 -105.5t95.5 -277.5t-95.5 -277.5t-276.5 -105.5zM409 36q162 0 242.5 91.5t80.5 243.5t-80.5 243.5t-242.5 91.5q-163 0 -242.5 -91t-79.5 -244t79.5 -244t242.5 -91zM531 133l-101 178h-127v-178
h-74v472h215q96 0 132.5 -36t36.5 -109q0 -59 -24 -95t-84 -48l106 -184h-80zM303 378h139q52 0 74 17t22 62q0 46 -22 63t-75 17h-138v-159z" />
    <glyph glyph-name="macron" unicode="&#xaf;" horiz-adv-x="590" 
d="M100 608v99h390v-99h-390z" />
    <glyph glyph-name="macron" unicode="&#x304;" horiz-adv-x="590" 
d="M100 608v99h390v-99h-390z" />
    <glyph glyph-name="degree" unicode="&#xb0;" horiz-adv-x="569" 
d="M284 272q-115 0 -172 66.5t-57 174.5t57 174t172 66t172.5 -66t57.5 -174t-57.5 -174.5t-172.5 -66.5zM284 363q135 0 135 147q0 146 -135 146q-134 0 -134 -146q0 -147 134 -147z" />
    <glyph glyph-name="plusminus" unicode="&#xb1;" horiz-adv-x="709" 
d="M100 11v110h196v176h-196v111h196v195h116v-195h197v-111h-197v-176h197v-110h-509z" />
    <glyph glyph-name="two.superior" unicode="&#xb2;" horiz-adv-x="477" 
d="M63 271v65l149 138q61 56 78 79t17 58q0 31 -20 45.5t-68 14.5q-69 0 -121 -28l-41 69q70 36 173 36q84 0 125 -30t41 -97q0 -53 -23.5 -88.5t-90.5 -97.5l-97 -90h216v-74h-338z" />
    <glyph glyph-name="threesuperior" unicode="&#xb3;" horiz-adv-x="493" 
d="M239 265q-110 0 -191 49l45 66q66 -38 138 -38q55 0 77 16t22 60q0 40 -22.5 55.5t-85.5 15.5h-75v72h73q55 0 75.5 11t20.5 45q0 31 -19.5 42t-67.5 11q-75 0 -129 -32l-43 68q69 43 184 43q89 0 128 -27.5t39 -85.5q0 -82 -63 -105q76 -20 76 -123q0 -77 -44 -110
t-138 -33z" />
    <glyph glyph-name="acute" unicode="&#xb4;" horiz-adv-x="590" 
d="M205 616l146 171h141l-181 -171h-106z" />
    <glyph glyph-name="mu" unicode="&#xb5;" horiz-adv-x="644" 
d="M272 -11q-54 0 -95 13v-167h-108v725h116v-318q0 -75 23.5 -110t100.5 -35q89 0 118.5 39t29.5 115v309h117v-555l-89 -9l-12 58q-52 -65 -201 -65z" />
    <glyph glyph-name="paragraph" unicode="&#xb6;" horiz-adv-x="649" 
d="M241 0v267q-107 16 -149.5 74.5t-42.5 163.5q0 121 60 178.5t213 57.5h241v-741h-110v262h-102v-262h-110zM318 360h135v274h-133q-86 0 -120 -29t-34 -106q0 -76 34.5 -107.5t117.5 -31.5z" />
    <glyph glyph-name="periodcentered" unicode="&#xb7;" horiz-adv-x="266" 
d="M62 274v153h141v-153h-141z" />
    <glyph glyph-name="periodcentered" unicode="&#x2219;" horiz-adv-x="266" 
d="M62 274v153h141v-153h-141z" />
    <glyph glyph-name="cedilla" unicode="&#xb8;" horiz-adv-x="590" 
d="M299 -238q-71 0 -125 31l31 59q46 -23 90 -23q40 0 55 11t15 35q0 25 -21 33.5t-69 5.5l-26 18l15 75h68l-9 -50q27 1 45.5 -1.5t37.5 -11t28.5 -28t9.5 -49.5q0 -54 -35.5 -79.5t-109.5 -25.5z" />
    <glyph glyph-name="one.superior" unicode="&#xb9;" horiz-adv-x="351" 
d="M148 271v390h-87v80h179v-470h-92z" />
    <glyph glyph-name="ordmasculine" unicode="&#xba;" horiz-adv-x="601" 
d="M301 281q-228 0 -228 237q0 235 228 235q227 0 227 -235q0 -237 -227 -237zM301 369q130 0 130 146q0 145 -130 145t-130 -145q0 -146 130 -146zM102 129v89h398v-89h-398z" />
    <glyph glyph-name="guillemotright" unicode="&#xbb;" horiz-adv-x="722" 
d="M125 0l142 280l-142 280h102l151 -280l-151 -280h-102zM371 0l142 280l-142 280h103l151 -280l-151 -280h-103z" />
    <glyph glyph-name="onequarter" unicode="&#xbc;" horiz-adv-x="957" 
d="M759 0v97h-233v70l209 305h101l-206 -298h130l17 111h70v-111h75v-77h-75v-97h-88zM134 269v388h-87v84h182v-472h-95zM194 0l414 741h103l-413 -741h-104z" />
    <glyph glyph-name="onehalf" unicode="&#xbd;" horiz-adv-x="1017" 
d="M611 0v69l148 136q65 59 80.5 79.5t15.5 53.5q0 30 -19.5 44t-67.5 14q-68 0 -122 -28l-41 73q72 36 174 36q84 0 124.5 -30t40.5 -99q0 -52 -22.5 -86.5t-91.5 -98.5l-92 -85h207v-78h-334zM134 269v388h-87v84h182v-472h-95zM194 0l414 741h103l-413 -741h-104z" />
    <glyph glyph-name="threequarters" unicode="&#xbe;" horiz-adv-x="1072" 
d="M229 266q-107 0 -192 49l49 71q68 -39 134 -39q55 0 77 14.5t22 58.5q0 38 -22 53t-86 15h-74v78h72q56 0 76.5 10.5t20.5 42.5q0 30 -19.5 40.5t-68.5 10.5q-72 0 -126 -32l-45 71q68 44 184 44q88 0 127 -27.5t39 -86.5q0 -80 -66 -105q80 -22 80 -124
q0 -77 -44.5 -110.5t-137.5 -33.5zM873 0v97h-233v70l209 305h101l-206 -298h131l17 111h70v-111h74v-77h-74v-97h-89zM309 0l414 741h103l-414 -741h-103z" />
    <glyph glyph-name="questiondown" unicode="&#xbf;" horiz-adv-x="683" 
d="M331 -12q-140 0 -199.5 44.5t-59.5 143.5q0 74 32.5 114.5t105.5 76.5q69 34 84.5 61.5t9.5 105.5h114q13 -100 -10.5 -146.5t-105.5 -86.5q-69 -35 -89.5 -55t-20.5 -60q0 -46 29 -67t118 -21q115 0 215 50l49 -102q-110 -58 -272 -58zM291 608v133h141v-133h-141z" />
    <glyph glyph-name="Agrave" unicode="&#xc0;" horiz-adv-x="757" 
d="M19 0l297 746h124l298 -746h-125l-55 142h-363l-55 -142h-121zM237 254h278l-139 347zM361 784l-181 171h141l146 -171h-106z" />
    <glyph glyph-name="Aacute" unicode="&#xc1;" horiz-adv-x="757" 
d="M19 0l297 746h124l298 -746h-125l-55 142h-363l-55 -142h-121zM237 254h278l-139 347zM287 784l146 171h141l-181 -171h-106z" />
    <glyph glyph-name="Acircumflex" unicode="&#xc2;" horiz-adv-x="757" 
d="M19 0l297 746h124l298 -746h-125l-55 142h-363l-55 -142h-121zM237 254h278l-139 347zM161 784l154 171h123l154 -171h-111l-106 95l-104 -95h-110z" />
    <glyph glyph-name="Atilde" unicode="&#xc3;" horiz-adv-x="757" 
d="M19 0l297 746h124l298 -746h-125l-55 142h-363l-55 -142h-121zM237 254h278l-139 347zM231 784l-70 56q72 91 145 91q37 0 77 -25.5t62 -25.5q34 0 80 56l68 -55q-78 -97 -146 -97q-34 0 -75.5 25.5t-63.5 25.5q-38 0 -77 -51z" />
    <glyph glyph-name="Adieresis" unicode="&#xc4;" horiz-adv-x="757" 
d="M19 0l297 746h124l298 -746h-125l-55 142h-363l-55 -142h-121zM237 254h278l-139 347zM215 787v121h106v-121h-106zM434 787v121h105v-121h-105z" />
    <glyph glyph-name="Aring" unicode="&#xc5;" horiz-adv-x="757" 
d="M19 0l278 698q-50 34 -50 113q0 60 32.5 97.5t98.5 37.5q64 0 97.5 -38t33.5 -97q0 -76 -51 -112l280 -699h-123l-57 142h-364l-54 -142h-121zM237 254h278l-139 347zM378 738q69 0 69 73q0 74 -69 74q-70 0 -70 -74q0 -73 70 -73z" />
    <glyph glyph-name="AE" unicode="&#xc6;" horiz-adv-x="1109" 
d="M11 0l466 741h573v-116h-402v-188h392v-112h-392v-214h406v-111h-522v145h-308l-94 -145h-119zM285 249h247v385z" />
    <glyph glyph-name="Ccedilla" unicode="&#xc7;" horiz-adv-x="740" 
d="M373 -238q-71 0 -125 31l31 59q46 -23 90 -23q40 0 55 11t15 35q0 25 -21 33.5t-69 5.5l-26 18l12 62q-153 18 -224.5 112t-71.5 265q0 193 97.5 287.5t282.5 94.5q172 0 275 -101l-88 -87q-76 71 -188 71q-257 0 -257 -266q0 -133 61.5 -200t196.5 -67q71 0 112.5 18.5
t81.5 56.5l86 -82q-49 -50 -114.5 -78.5t-172.5 -28.5h-9l-6 -32q27 1 45.5 -1.5t37.5 -11t28.5 -28t9.5 -49.5q0 -54 -35.5 -79.5t-109.5 -25.5z" />
    <glyph glyph-name="Egrave" unicode="&#xc8;" horiz-adv-x="663" 
d="M81 0v741h523v-116h-402v-186h392v-115h-392v-210h406v-114h-527zM314 784l-181 171h141l146 -171h-106z" />
    <glyph glyph-name="Eacute" unicode="&#xc9;" horiz-adv-x="663" 
d="M240 784l146 171h141l-181 -171h-106zM81 0v741h523v-116h-402v-186h392v-115h-392v-210h406v-114h-527z" />
    <glyph glyph-name="Ecircumflex" unicode="&#xca;" horiz-adv-x="663" 
d="M114 784l154 171h123l154 -171h-111l-106 95l-104 -95h-110zM81 0v741h523v-116h-402v-186h392v-115h-392v-210h406v-114h-527z" />
    <glyph glyph-name="Edieresis" unicode="&#xcb;" horiz-adv-x="663" 
d="M168 787v121h106v-121h-106zM387 787v121h105v-121h-105zM81 0v741h523v-116h-402v-186h392v-115h-392v-210h406v-114h-527z" />
    <glyph glyph-name="Igrave" unicode="&#xcc;" horiz-adv-x="300" 
d="M100 783l-169 170h146l133 -170h-110zM90 0v741h120v-741h-120z" />
    <glyph glyph-name="Iacute" unicode="&#xcd;" horiz-adv-x="300" 
d="M90 783l132 170h146l-169 -170h-109zM90 0v741h120v-741h-120z" />
    <glyph glyph-name="Icircumflex" unicode="&#xce;" horiz-adv-x="300" 
d="M-46 783l134 170h122l135 -170h-112l-85 97l-85 -97h-109zM90 0v741h120v-741h-120z" />
    <glyph glyph-name="Idieresis" unicode="&#xcf;" horiz-adv-x="300" 
d="M90 0v741h120v-741h-120zM-11 787v121h106v-121h-106zM208 787v121h105v-121h-105z" />
    <glyph glyph-name="Eth" unicode="&#xd0;" horiz-adv-x="769" 
d="M0 328v101h81v312h253q111 0 183.5 -17t122 -59.5t70.5 -113.5t21 -180q0 -208 -94.5 -289.5t-310.5 -81.5h-245v328h-81zM202 112h130q161 0 219 57t58 202q0 75 -11 121t-41.5 77.5t-83 44t-137.5 12.5h-134v-197h153v-101h-153v-216z" />
    <glyph glyph-name="Ntilde" unicode="&#xd1;" horiz-adv-x="801" 
d="M81 0v741h131l390 -535v535h118v-741h-111l-410 561v-561h-118zM253 784l-70 56q72 91 145 91q37 0 77 -25.5t62 -25.5q34 0 80 56l68 -55q-78 -97 -146 -97q-34 0 -75.5 25.5t-63.5 25.5q-38 0 -77 -51z" />
    <glyph glyph-name="Ograve" unicode="&#xd2;" horiz-adv-x="843" 
d="M421 -12q-382 0 -382 383q0 382 382 382q383 0 383 -382q0 -383 -383 -383zM421 101q136 0 198.5 68t62.5 200q0 131 -62.5 199t-198.5 68q-260 0 -260 -267q0 -132 62.5 -200t197.5 -68zM405 784l-181 171h141l146 -171h-106z" />
    <glyph glyph-name="Oacute" unicode="&#xd3;" horiz-adv-x="843" 
d="M331 784l146 171h141l-181 -171h-106zM421 -12q-382 0 -382 383q0 382 382 382q383 0 383 -382q0 -383 -383 -383zM421 101q136 0 198.5 68t62.5 200q0 131 -62.5 199t-198.5 68q-260 0 -260 -267q0 -132 62.5 -200t197.5 -68z" />
    <glyph glyph-name="Ocircumflex" unicode="&#xd4;" horiz-adv-x="843" 
d="M205 784l154 171h123l154 -171h-111l-106 95l-104 -95h-110zM421 -12q-382 0 -382 383q0 382 382 382q383 0 383 -382q0 -383 -383 -383zM421 101q136 0 198.5 68t62.5 200q0 131 -62.5 199t-198.5 68q-260 0 -260 -267q0 -132 62.5 -200t197.5 -68z" />
    <glyph glyph-name="Otilde" unicode="&#xd5;" horiz-adv-x="843" 
d="M421 -12q-382 0 -382 383q0 382 382 382q383 0 383 -382q0 -383 -383 -383zM421 101q136 0 198.5 68t62.5 200q0 131 -62.5 199t-198.5 68q-260 0 -260 -267q0 -132 62.5 -200t197.5 -68zM275 784l-70 56q72 91 145 91q37 0 77 -25.5t62 -25.5q34 0 80 56l68 -55
q-78 -97 -146 -97q-34 0 -75.5 25.5t-63.5 25.5q-38 0 -77 -51z" />
    <glyph glyph-name="Odieresis" unicode="&#xd6;" horiz-adv-x="843" 
d="M259 787v121h106v-121h-106zM478 787v121h105v-121h-105zM421 -12q-382 0 -382 383q0 382 382 382q383 0 383 -382q0 -383 -383 -383zM421 101q136 0 198.5 68t62.5 200q0 131 -62.5 199t-198.5 68q-260 0 -260 -267q0 -132 62.5 -200t197.5 -68z" />
    <glyph glyph-name="multiply" unicode="&#xd7;" horiz-adv-x="709" 
d="M200 125l-71 73l154 154l-154 154l72 74l154 -154l153 154l72 -74l-154 -154l154 -153l-72 -74l-153 154z" />
    <glyph glyph-name="Oslash" unicode="&#xd8;" horiz-adv-x="843" 
d="M421 -12q-89 0 -156 19l-27 -48h-115l51 90q-135 91 -135 322q0 199 97.5 290.5t284.5 91.5q82 0 148 -18l28 48h114l-50 -87q143 -89 143 -325q0 -199 -97.5 -291t-285.5 -92zM421 97q141 0 203 68.5t62 203.5q0 162 -88 225l-280 -485q45 -12 103 -12zM157 369
q0 -156 80 -221l278 482q-47 10 -94 10q-140 0 -202 -68.5t-62 -202.5z" />
    <glyph glyph-name="Ugrave" unicode="&#xd9;" horiz-adv-x="797" 
d="M398 -13q-83 0 -143.5 17t-94.5 42.5t-53.5 66t-25 77.5t-5.5 86v465h121v-449q0 -97 42 -144.5t160 -47.5q119 0 162 47t43 145v449h118v-465q0 -49 -6 -86t-26 -77t-54 -66t-94.5 -43t-143.5 -17zM381 784l-181 171h141l146 -171h-106z" />
    <glyph glyph-name="Uacute" unicode="&#xda;" horiz-adv-x="797" 
d="M307 784l146 171h141l-181 -171h-106zM398 -13q-83 0 -143.5 17t-94.5 42.5t-53.5 66t-25 77.5t-5.5 86v465h121v-449q0 -97 42 -144.5t160 -47.5q119 0 162 47t43 145v449h118v-465q0 -49 -6 -86t-26 -77t-54 -66t-94.5 -43t-143.5 -17z" />
    <glyph glyph-name="Ucircumflex" unicode="&#xdb;" horiz-adv-x="797" 
d="M181 784l154 171h123l154 -171h-111l-106 95l-104 -95h-110zM398 -13q-83 0 -143.5 17t-94.5 42.5t-53.5 66t-25 77.5t-5.5 86v465h121v-449q0 -97 42 -144.5t160 -47.5q119 0 162 47t43 145v449h118v-465q0 -49 -6 -86t-26 -77t-54 -66t-94.5 -43t-143.5 -17z" />
    <glyph glyph-name="Udieresis" unicode="&#xdc;" horiz-adv-x="797" 
d="M235 787v121h106v-121h-106zM454 787v121h105v-121h-105zM398 -13q-83 0 -143.5 17t-94.5 42.5t-53.5 66t-25 77.5t-5.5 86v465h121v-449q0 -97 42 -144.5t160 -47.5q119 0 162 47t43 145v449h118v-465q0 -49 -6 -86t-26 -77t-54 -66t-94.5 -43t-143.5 -17z" />
    <glyph glyph-name="Yacute" unicode="&#xdd;" horiz-adv-x="730" 
d="M305 0v273l-297 468h131l228 -358l229 358h125l-296 -466v-275h-120zM274 784l146 171h141l-181 -171h-106z" />
    <glyph glyph-name="Thorn" unicode="&#xde;" horiz-adv-x="733" 
d="M81 0v741h118v-109h222q153 0 213 -58t60 -180q0 -124 -60.5 -187.5t-217.5 -63.5h-217v-143h-118zM199 254h222q83 0 117.5 31t34.5 105q0 75 -34 103.5t-120 28.5h-220v-268z" />
    <glyph glyph-name="germandbls" unicode="&#xdf;" horiz-adv-x="671" 
d="M69 0v529q0 253 265 253q245 0 245 -198q0 -75 -23.5 -116t-73.5 -60q79 -15 117 -58.5t38 -132.5q0 -58 -11.5 -95.5t-43.5 -66.5t-91 -42t-151 -13h-62v105h59q112 0 148.5 29.5t36.5 90.5q0 64 -43.5 90t-163.5 26v97q80 0 114.5 27t34.5 88q0 56 -30.5 83t-101.5 27
q-148 0 -148 -138v-525h-115z" />
    <glyph glyph-name="agrave" unicode="&#xe0;" horiz-adv-x="633" 
d="M238 -10q-115 0 -159 45t-44 126q0 118 78.5 161.5t286.5 43.5h28q-2 54 -27 76t-104 22q-84 0 -162 -47l-61 91q35 24 99.5 44.5t135.5 20.5q73 0 118.5 -12t70.5 -41t33.5 -68t8.5 -103v-188q0 -39 8.5 -49t44.5 -10v-101q-8 -2 -48 -2q-44 0 -66 12t-33 46
q-50 -67 -208 -67zM258 90q90 0 130 36t40 115v29h-21q-110 0 -166.5 -10t-76 -30t-19.5 -60q0 -41 24.5 -60.5t88.5 -19.5zM301 616l-181 171h141l146 -171h-106z" />
    <glyph glyph-name="aacute" unicode="&#xe1;" horiz-adv-x="633" 
d="M238 -10q-115 0 -159 45t-44 126q0 118 78.5 161.5t286.5 43.5h28q-2 54 -27 76t-104 22q-84 0 -162 -47l-61 91q35 24 99.5 44.5t135.5 20.5q73 0 118.5 -12t70.5 -41t33.5 -68t8.5 -103v-188q0 -39 8.5 -49t44.5 -10v-101q-8 -2 -48 -2q-44 0 -66 12t-33 46
q-50 -67 -208 -67zM258 90q90 0 130 36t40 115v29h-21q-110 0 -166.5 -10t-76 -30t-19.5 -60q0 -41 24.5 -60.5t88.5 -19.5zM227 616l146 171h141l-181 -171h-106z" />
    <glyph glyph-name="acircumflex" unicode="&#xe2;" horiz-adv-x="633" 
d="M238 -10q-115 0 -159 45t-44 126q0 118 78.5 161.5t286.5 43.5h28q-2 54 -27 76t-104 22q-84 0 -162 -47l-61 91q35 24 99.5 44.5t135.5 20.5q73 0 118.5 -12t70.5 -41t33.5 -68t8.5 -103v-188q0 -39 8.5 -49t44.5 -10v-101q-8 -2 -48 -2q-44 0 -66 12t-33 46
q-50 -67 -208 -67zM258 90q90 0 130 36t40 115v29h-21q-110 0 -166.5 -10t-76 -30t-19.5 -60q0 -41 24.5 -60.5t88.5 -19.5zM101 616l154 171h123l154 -171h-111l-106 95l-104 -95h-110z" />
    <glyph glyph-name="atilde" unicode="&#xe3;" horiz-adv-x="633" 
d="M238 -10q-115 0 -159 45t-44 126q0 118 78.5 161.5t286.5 43.5h28q-2 54 -27 76t-104 22q-84 0 -162 -47l-61 91q35 24 99.5 44.5t135.5 20.5q73 0 118.5 -12t70.5 -41t33.5 -68t8.5 -103v-188q0 -39 8.5 -49t44.5 -10v-101q-8 -2 -48 -2q-44 0 -66 12t-33 46
q-50 -67 -208 -67zM258 90q90 0 130 36t40 115v29h-21q-110 0 -166.5 -10t-76 -30t-19.5 -60q0 -41 24.5 -60.5t88.5 -19.5zM171 616l-70 56q72 91 145 91q37 0 77 -25.5t62 -25.5q34 0 80 56l68 -55q-78 -97 -146 -97q-34 0 -75.5 25.5t-63.5 25.5q-38 0 -77 -51z" />
    <glyph glyph-name="adieresis" unicode="&#xe4;" horiz-adv-x="633" 
d="M238 -10q-115 0 -159 45t-44 126q0 118 78.5 161.5t286.5 43.5h28q-2 54 -27 76t-104 22q-84 0 -162 -47l-61 91q35 24 99.5 44.5t135.5 20.5q73 0 118.5 -12t70.5 -41t33.5 -68t8.5 -103v-188q0 -39 8.5 -49t44.5 -10v-101q-8 -2 -48 -2q-44 0 -66 12t-33 46
q-50 -67 -208 -67zM258 90q90 0 130 36t40 115v29h-21q-110 0 -166.5 -10t-76 -30t-19.5 -60q0 -41 24.5 -60.5t88.5 -19.5zM155 619v121h106v-121h-106zM374 619v121h105v-121h-105z" />
    <glyph glyph-name="aring" unicode="&#xe5;" horiz-adv-x="633" 
d="M238 -10q-115 0 -159 45t-44 126q0 118 78.5 161.5t286.5 43.5h28q-2 54 -27 76t-104 22q-84 0 -162 -47l-61 91q35 24 99.5 44.5t135.5 20.5q73 0 118.5 -12t70.5 -41t33.5 -68t8.5 -103v-188q0 -39 8.5 -49t44.5 -10v-101q-8 -2 -48 -2q-44 0 -66 12t-33 46
q-50 -67 -208 -67zM258 90q90 0 130 36t40 115v29h-21q-110 0 -166.5 -10t-76 -30t-19.5 -60q0 -41 24.5 -60.5t88.5 -19.5zM317 602q-66 0 -99 37t-33 98q0 62 33 99.5t99 37.5q64 0 97.5 -38t33.5 -99q0 -60 -33.5 -97.5t-97.5 -37.5zM317 665q69 0 69 72q0 33 -17 53
t-52 20q-70 0 -70 -73q0 -72 70 -72z" />
    <glyph glyph-name="ae" unicode="&#xe6;" horiz-adv-x="987" 
d="M703 -11q-170 0 -229 95q-33 -57 -87 -75.5t-147 -18.5q-111 0 -158 42.5t-47 128.5q0 117 82.5 161t282.5 44h28q-2 54 -27 76t-104 22q-88 0 -165 -46l-58 90q35 24 99.5 44.5t135.5 20.5q145 0 186 -69q63 69 206 69q71 0 119.5 -18.5t72 -50.5t36.5 -75.5t12.5 -93
t-0.5 -103.5h-405q6 -72 42.5 -107.5t124.5 -35.5q61 0 100 13.5t76 40.5l63 -81q-50 -38 -104 -55.5t-135 -17.5zM259 90q90 0 129.5 36t39.5 115v29h-21q-109 0 -163.5 -8.5t-76.5 -29.5t-22 -62t24.5 -60.5t89.5 -19.5zM698 470q-83 0 -119 -35t-43 -103h295
q-2 36 -6 56.5t-16.5 41.5t-40 30.5t-70.5 9.5z" />
    <glyph glyph-name="ccedilla" unicode="&#xe7;" horiz-adv-x="575" 
d="M292 -238q-71 0 -125 31l31 59q46 -23 90 -23q40 0 55 11t15 35q0 25 -21 33.5t-69 5.5l-26 18l12 62q-117 16 -164.5 89.5t-47.5 197.5q0 68 12.5 118t43 91t87.5 62t139 21q137 0 214 -87l-85 -80q-52 54 -129 54q-92 0 -128.5 -45.5t-36.5 -136.5q0 -92 36 -138
t129 -46q75 0 135 56l78 -74q-48 -45 -95.5 -65t-119.5 -21l-6 -33q27 1 45.5 -1.5t37.5 -11t28.5 -28t9.5 -49.5q0 -54 -35.5 -79.5t-109.5 -25.5z" />
    <glyph glyph-name="egrave" unicode="&#xe8;" horiz-adv-x="606" 
d="M322 -11q-85 0 -142 22t-86 64.5t-40.5 91t-11.5 114.5q0 65 12 113.5t41 91t86 65t139 22.5q49 0 87.5 -9.5t64 -27t43.5 -42t26.5 -54t14 -63.5t5 -70.5t-0.5 -74.5h-405q6 -72 42.5 -107.5t124.5 -35.5q61 0 100 13.5t76 40.5l62 -81q-95 -73 -238 -73zM317 470
q-82 0 -118.5 -35t-43.5 -102h295q-2 37 -6 56.5t-17 41t-40 30.5t-70 9zM286 616l-181 171h141l146 -171h-106z" />
    <glyph glyph-name="eacute" unicode="&#xe9;" horiz-adv-x="606" 
d="M212 616l146 171h141l-181 -171h-106zM322 -11q-85 0 -142 22t-86 64.5t-40.5 91t-11.5 114.5q0 65 12 113.5t41 91t86 65t139 22.5q49 0 87.5 -9.5t64 -27t43.5 -42t26.5 -54t14 -63.5t5 -70.5t-0.5 -74.5h-405q6 -72 42.5 -107.5t124.5 -35.5q61 0 100 13.5t76 40.5
l62 -81q-95 -73 -238 -73zM317 470q-82 0 -118.5 -35t-43.5 -102h295q-2 37 -6 56.5t-17 41t-40 30.5t-70 9z" />
    <glyph glyph-name="ecircumflex" unicode="&#xea;" horiz-adv-x="606" 
d="M86 616l154 171h123l154 -171h-111l-106 95l-104 -95h-110zM322 -11q-85 0 -142 22t-86 64.5t-40.5 91t-11.5 114.5q0 65 12 113.5t41 91t86 65t139 22.5q49 0 87.5 -9.5t64 -27t43.5 -42t26.5 -54t14 -63.5t5 -70.5t-0.5 -74.5h-405q6 -72 42.5 -107.5t124.5 -35.5
q61 0 100 13.5t76 40.5l62 -81q-95 -73 -238 -73zM317 470q-82 0 -118.5 -35t-43.5 -102h295q-2 37 -6 56.5t-17 41t-40 30.5t-70 9z" />
    <glyph glyph-name="edieresis" unicode="&#xeb;" horiz-adv-x="606" 
d="M140 619v121h106v-121h-106zM359 619v121h105v-121h-105zM322 -11q-85 0 -142 22t-86 64.5t-40.5 91t-11.5 114.5q0 65 12 113.5t41 91t86 65t139 22.5q49 0 87.5 -9.5t64 -27t43.5 -42t26.5 -54t14 -63.5t5 -70.5t-0.5 -74.5h-405q6 -72 42.5 -107.5t124.5 -35.5
q61 0 100 13.5t76 40.5l62 -81q-95 -73 -238 -73zM317 470q-82 0 -118.5 -35t-43.5 -102h295q-2 37 -6 56.5t-17 41t-40 30.5t-70 9z" />
    <glyph glyph-name="igrave" unicode="&#xec;" horiz-adv-x="265" 
d="M83 615l-138 169h141l104 -169h-107zM75 0v560h115v-560h-115z" />
    <glyph glyph-name="iacute" unicode="&#xed;" horiz-adv-x="265" 
d="M77 615l102 169h142l-138 -169h-106zM75 0v560h115v-560h-115z" />
    <glyph glyph-name="icircumflex" unicode="&#xee;" horiz-adv-x="265" 
d="M-50 615l124 169h116l125 -169h-109l-75 97l-76 -97h-105zM75 0v560h115v-560h-115z" />
    <glyph glyph-name="idieresis" unicode="&#xef;" horiz-adv-x="265" 
d="M-11 624v119h95v-119h-95zM182 624v119h95v-119h-95zM75 0v560h115v-560h-115z" />
    <glyph glyph-name="eth" unicode="&#xf0;" horiz-adv-x="647" 
d="M289 584v82l69 16q-27 33 -62 68l109 42q44 -39 76 -81l136 32v-82l-90 -21q77 -146 77 -343q0 -162 -68.5 -235t-213.5 -73q-280 0 -280 277q0 276 248 276q128 0 174 -50q-16 61 -54 120zM322 94q88 0 126.5 44t38.5 131t-38 129.5t-127 42.5q-87 0 -125 -42.5
t-38 -129.5t38.5 -131t124.5 -44z" />
    <glyph glyph-name="ntilde" unicode="&#xf1;" horiz-adv-x="642" 
d="M69 0v553l91 7l10 -49q51 62 205 62q63 0 104.5 -16t61.5 -49.5t27.5 -71.5t7.5 -96v-340h-116v317q0 36 -3.5 57.5t-15 42.5t-37.5 30.5t-68 9.5q-89 0 -119.5 -37.5t-30.5 -112.5v-307h-117zM174 616l-70 56q72 91 145 91q37 0 77 -25.5t62 -25.5q34 0 80 56l68 -55
q-78 -97 -146 -97q-34 0 -75.5 25.5t-63.5 25.5q-38 0 -77 -51z" />
    <glyph glyph-name="ograve" unicode="&#xf2;" horiz-adv-x="646" 
d="M323 -11q-148 0 -214.5 73t-66.5 219t66.5 219t214.5 73t214.5 -73t66.5 -219t-66.5 -219t-214.5 -73zM323 94q89 0 126.5 46.5t37.5 137.5t-37.5 137t-126.5 46t-126.5 -46t-37.5 -137q0 -92 37.5 -138t126.5 -46zM306 616l-181 171h141l146 -171h-106z" />
    <glyph glyph-name="oacute" unicode="&#xf3;" horiz-adv-x="646" 
d="M232 616l146 171h141l-181 -171h-106zM323 -11q-148 0 -214.5 73t-66.5 219t66.5 219t214.5 73t214.5 -73t66.5 -219t-66.5 -219t-214.5 -73zM323 94q89 0 126.5 46.5t37.5 137.5t-37.5 137t-126.5 46t-126.5 -46t-37.5 -137q0 -92 37.5 -138t126.5 -46z" />
    <glyph glyph-name="ocircumflex" unicode="&#xf4;" horiz-adv-x="646" 
d="M106 616l154 171h123l154 -171h-111l-106 95l-104 -95h-110zM323 -11q-148 0 -214.5 73t-66.5 219t66.5 219t214.5 73t214.5 -73t66.5 -219t-66.5 -219t-214.5 -73zM323 94q89 0 126.5 46.5t37.5 137.5t-37.5 137t-126.5 46t-126.5 -46t-37.5 -137q0 -92 37.5 -138
t126.5 -46z" />
    <glyph glyph-name="otilde" unicode="&#xf5;" horiz-adv-x="646" 
d="M323 -11q-148 0 -214.5 73t-66.5 219t66.5 219t214.5 73t214.5 -73t66.5 -219t-66.5 -219t-214.5 -73zM323 94q89 0 126.5 46.5t37.5 137.5t-37.5 137t-126.5 46t-126.5 -46t-37.5 -137q0 -92 37.5 -138t126.5 -46zM176 616l-70 56q72 91 145 91q37 0 77 -25.5t62 -25.5
q34 0 80 56l68 -55q-78 -97 -146 -97q-34 0 -75.5 25.5t-63.5 25.5q-38 0 -77 -51z" />
    <glyph glyph-name="odieresis" unicode="&#xf6;" horiz-adv-x="646" 
d="M160 619v121h106v-121h-106zM379 619v121h105v-121h-105zM323 -11q-148 0 -214.5 73t-66.5 219t66.5 219t214.5 73t214.5 -73t66.5 -219t-66.5 -219t-214.5 -73zM323 94q89 0 126.5 46.5t37.5 137.5t-37.5 137t-126.5 46t-126.5 -46t-37.5 -137q0 -92 37.5 -138
t126.5 -46z" />
    <glyph glyph-name="divide" unicode="&#xf7;" horiz-adv-x="709" 
d="M292 92v116h125v-116h-125zM100 297v111h509v-111h-509zM292 497v117h125v-117h-125z" />
    <glyph glyph-name="oslash" unicode="&#xf8;" horiz-adv-x="646" 
d="M323 -11q-65 0 -116 14l-28 -45h-105l52 85q-84 69 -84 238q0 147 65 219.5t216 72.5q65 0 116 -14l27 45h106l-52 -86q84 -69 84 -237q0 -147 -65 -219.5t-216 -72.5zM323 91q90 0 128 47t38 140q0 94 -37 138l-192 -318q25 -7 63 -7zM157 278q0 -93 34 -137l191 317
q-26 6 -59 6q-91 0 -128.5 -46.5t-37.5 -139.5z" />
    <glyph glyph-name="ugrave" unicode="&#xf9;" horiz-adv-x="635" 
d="M319 -10q-80 0 -130 15t-77 49.5t-36.5 79t-9.5 114.5v312h116v-315q0 -32 1 -48.5t8 -39t21 -33.5t40.5 -19t66.5 -8t66.5 8.5t40 19t20.5 33.5t8 39t1 50v313h114v-310q0 -71 -9 -115.5t-35 -79.5t-76 -50t-130 -15zM301 616l-181 171h141l146 -171h-106z" />
    <glyph glyph-name="uacute" unicode="&#xfa;" horiz-adv-x="635" 
d="M227 616l146 171h141l-181 -171h-106zM319 -10q-80 0 -130 15t-77 49.5t-36.5 79t-9.5 114.5v312h116v-315q0 -32 1 -48.5t8 -39t21 -33.5t40.5 -19t66.5 -8t66.5 8.5t40 19t20.5 33.5t8 39t1 50v313h114v-310q0 -71 -9 -115.5t-35 -79.5t-76 -50t-130 -15z" />
    <glyph glyph-name="ucircumflex" unicode="&#xfb;" horiz-adv-x="635" 
d="M101 616l154 171h123l154 -171h-111l-106 95l-104 -95h-110zM319 -10q-80 0 -130 15t-77 49.5t-36.5 79t-9.5 114.5v312h116v-315q0 -32 1 -48.5t8 -39t21 -33.5t40.5 -19t66.5 -8t66.5 8.5t40 19t20.5 33.5t8 39t1 50v313h114v-310q0 -71 -9 -115.5t-35 -79.5t-76 -50
t-130 -15z" />
    <glyph glyph-name="udieresis" unicode="&#xfc;" horiz-adv-x="635" 
d="M155 619v121h106v-121h-106zM374 619v121h105v-121h-105zM319 -10q-80 0 -130 15t-77 49.5t-36.5 79t-9.5 114.5v312h116v-315q0 -32 1 -48.5t8 -39t21 -33.5t40.5 -19t66.5 -8t66.5 8.5t40 19t20.5 33.5t8 39t1 50v313h114v-310q0 -71 -9 -115.5t-35 -79.5t-76 -50
t-130 -15z" />
    <glyph glyph-name="yacute" unicode="&#xfd;" horiz-adv-x="557" 
d="M129 -168q-39 0 -52 1v93h42q43 0 60.5 9t26.5 37l13 36l-215 552h124l154 -412l150 412h122l-233 -600q-26 -70 -68 -99t-124 -29zM190 616l146 171h141l-181 -171h-106z" />
    <glyph glyph-name="thorn" unicode="&#xfe;" horiz-adv-x="664" 
d="M69 -165v941h116v-265q46 62 198 62q69 0 117 -21.5t74 -62.5t37 -91t11 -117q0 -66 -11.5 -116.5t-38.5 -91t-76 -62t-119 -21.5q-150 0 -191 61v-216h-117zM356 96q83 0 115.5 45.5t32.5 135.5q0 91 -32 137.5t-116 46.5q-93 0 -131.5 -42t-38.5 -142t37.5 -140.5
t132.5 -40.5z" />
    <glyph glyph-name="ydieresis" unicode="&#xff;" horiz-adv-x="557" 
d="M129 -168q-39 0 -52 1v93h42q43 0 60.5 9t26.5 37l13 36l-215 552h124l154 -412l150 412h122l-233 -600q-26 -70 -68 -99t-124 -29zM118 619v121h106v-121h-106zM337 619v121h105v-121h-105z" />
    <glyph glyph-name="Amacron" unicode="&#x100;" horiz-adv-x="757" 
d="M19 0l297 746h124l298 -746h-125l-55 142h-363l-55 -142h-121zM237 254h278l-139 347zM182 776v99h390v-99h-390z" />
    <glyph glyph-name="amacron" unicode="&#x101;" horiz-adv-x="633" 
d="M238 -10q-115 0 -159 45t-44 126q0 118 78.5 161.5t286.5 43.5h28q-2 54 -27 76t-104 22q-84 0 -162 -47l-61 91q35 24 99.5 44.5t135.5 20.5q73 0 118.5 -12t70.5 -41t33.5 -68t8.5 -103v-188q0 -39 8.5 -49t44.5 -10v-101q-8 -2 -48 -2q-44 0 -66 12t-33 46
q-50 -67 -208 -67zM258 90q90 0 130 36t40 115v29h-21q-110 0 -166.5 -10t-76 -30t-19.5 -60q0 -41 24.5 -60.5t88.5 -19.5zM122 608v99h390v-99h-390z" />
    <glyph glyph-name="Abreve" unicode="&#x102;" horiz-adv-x="757" 
d="M19 0l297 746h124l298 -746h-125l-55 142h-363l-55 -142h-121zM237 254h278l-139 347zM377 771q-97 0 -140.5 44.5t-60.5 130.5l85 17q11 -51 35.5 -74t80.5 -23t80 23t35 74l87 -16q-19 -87 -62 -131.5t-140 -44.5z" />
    <glyph glyph-name="abreve" unicode="&#x103;" horiz-adv-x="633" 
d="M238 -10q-115 0 -159 45t-44 126q0 118 78.5 161.5t286.5 43.5h28q-2 54 -27 76t-104 22q-84 0 -162 -47l-61 91q35 24 99.5 44.5t135.5 20.5q73 0 118.5 -12t70.5 -41t33.5 -68t8.5 -103v-188q0 -39 8.5 -49t44.5 -10v-101q-8 -2 -48 -2q-44 0 -66 12t-33 46
q-50 -67 -208 -67zM258 90q90 0 130 36t40 115v29h-21q-110 0 -166.5 -10t-76 -30t-19.5 -60q0 -41 24.5 -60.5t88.5 -19.5zM317 603q-97 0 -140.5 44.5t-60.5 130.5l85 17q11 -51 35.5 -74t80.5 -23t80 23t35 74l87 -16q-19 -87 -62 -131.5t-140 -44.5z" />
    <glyph glyph-name="Aogonek" unicode="&#x104;" horiz-adv-x="757" 
d="M19 0l297 746h124l298 -746h-34q-93 -55 -93 -107q0 -21 12 -32t47 -11q33 0 71 12l22 -65q-51 -23 -108 -23q-75 0 -105 25t-30 72q0 42 27.5 78t62.5 58l-52 135h-363l-55 -142h-121zM237 254h278l-139 347z" />
    <glyph glyph-name="aogonek" unicode="&#x105;" horiz-adv-x="633" 
d="M238 -10q-115 0 -159 45t-44 126q0 118 78.5 161.5t286.5 43.5h28q-2 54 -27 76t-104 22q-84 0 -162 -47l-61 91q35 24 99.5 44.5t135.5 20.5q73 0 118.5 -12t70.5 -41t33.5 -68t8.5 -103v-188q0 -39 8.5 -49t44.5 -10v-101q-104 -60 -104 -108q0 -21 12 -32t47 -11
q44 0 75 14l25 -65q-52 -25 -114 -25q-75 0 -105 25t-30 72q0 46 29 80t67 53q-17 5 -25 13q-18 15 -24 40q-50 -67 -208 -67zM258 90q90 0 130 36t40 115v29h-21q-110 0 -166.5 -10t-76 -30t-19.5 -60q0 -41 24.5 -60.5t88.5 -19.5z" />
    <glyph glyph-name="Cacute" unicode="&#x106;" horiz-adv-x="740" 
d="M279 784l146 171h141l-181 -171h-106zM412 -11q-193 0 -283 96t-90 286q0 193 97.5 287.5t282.5 94.5q172 0 275 -101l-88 -87q-76 71 -188 71q-257 0 -257 -266q0 -133 61.5 -200t196.5 -67q71 0 112.5 18.5t81.5 56.5l86 -82q-49 -50 -114.5 -78.5t-172.5 -28.5z" />
    <glyph glyph-name="cacute" unicode="&#x107;" horiz-adv-x="575" 
d="M198 616l146 171h141l-181 -171h-106zM319 -10q-80 0 -135.5 21t-86 61.5t-43 90.5t-12.5 118t12.5 118t43 91t87.5 62t139 21q137 0 214 -87l-85 -80q-52 54 -129 54q-92 0 -128.5 -45.5t-36.5 -136.5q0 -92 36 -138t129 -46q75 0 135 56l78 -74q-48 -45 -96.5 -65.5
t-121.5 -20.5z" />
    <glyph glyph-name="Ccircumflex" unicode="&#x108;" horiz-adv-x="740" 
d="M173 784l154 171h123l154 -171h-111l-106 95l-104 -95h-110zM412 -11q-193 0 -283 96t-90 286q0 193 97.5 287.5t282.5 94.5q172 0 275 -101l-88 -87q-76 71 -188 71q-257 0 -257 -266q0 -133 61.5 -200t196.5 -67q71 0 112.5 18.5t81.5 56.5l86 -82
q-49 -50 -114.5 -78.5t-172.5 -28.5z" />
    <glyph glyph-name="ccircumflex" unicode="&#x109;" horiz-adv-x="575" 
d="M80 616l154 171h123l154 -171h-111l-106 95l-104 -95h-110zM319 -10q-80 0 -135.5 21t-86 61.5t-43 90.5t-12.5 118t12.5 118t43 91t87.5 62t139 21q137 0 214 -87l-85 -80q-52 54 -129 54q-92 0 -128.5 -45.5t-36.5 -136.5q0 -92 36 -138t129 -46q75 0 135 56l78 -74
q-48 -45 -96.5 -65.5t-121.5 -20.5z" />
    <glyph glyph-name="Cdotaccent" unicode="&#x10a;" horiz-adv-x="740" 
d="M412 -11q-193 0 -283 96t-90 286q0 193 97.5 287.5t282.5 94.5q172 0 275 -101l-88 -87q-76 71 -188 71q-257 0 -257 -266q0 -133 61.5 -200t196.5 -67q71 0 112.5 18.5t81.5 56.5l86 -82q-49 -50 -114.5 -78.5t-172.5 -28.5zM330 782v125h118v-125h-118z" />
    <glyph glyph-name="cdotaccent" unicode="&#x10b;" horiz-adv-x="575" 
d="M319 -10q-80 0 -135.5 21t-86 61.5t-43 90.5t-12.5 118t12.5 118t43 91t87.5 62t139 21q137 0 214 -87l-85 -80q-52 54 -129 54q-92 0 -128.5 -45.5t-36.5 -136.5q0 -92 36 -138t129 -46q75 0 135 56l78 -74q-48 -45 -96.5 -65.5t-121.5 -20.5zM245 614v125h118v-125
h-118z" />
    <glyph glyph-name="Ccaron" unicode="&#x10c;" horiz-adv-x="740" 
d="M307 784l-154 171h112l105 -95l105 95h109l-154 -171h-123zM412 -11q-193 0 -283 96t-90 286q0 193 97.5 287.5t282.5 94.5q172 0 275 -101l-88 -87q-76 71 -188 71q-257 0 -257 -266q0 -133 61.5 -200t196.5 -67q71 0 112.5 18.5t81.5 56.5l86 -82q-49 -50 -114.5 -78.5
t-172.5 -28.5z" />
    <glyph glyph-name="ccaron" unicode="&#x10d;" horiz-adv-x="575" 
d="M226 616l-154 171h112l105 -95l105 95h109l-154 -171h-123zM319 -10q-80 0 -135.5 21t-86 61.5t-43 90.5t-12.5 118t12.5 118t43 91t87.5 62t139 21q137 0 214 -87l-85 -80q-52 54 -129 54q-92 0 -128.5 -45.5t-36.5 -136.5q0 -92 36 -138t129 -46q75 0 135 56l78 -74
q-48 -45 -96.5 -65.5t-121.5 -20.5z" />
    <glyph glyph-name="Dcaron" unicode="&#x10e;" horiz-adv-x="769" 
d="M321 784l-154 171h112l105 -95l105 95h109l-154 -171h-123zM81 0v741h253q111 0 183.5 -17t122 -59.5t70.5 -113.5t21 -180q0 -209 -92.5 -290t-312.5 -81h-245zM202 112h130q161 0 219 57t58 202q0 75 -11 121t-41.5 77.5t-83 44t-137.5 12.5h-134v-514z" />
    <glyph glyph-name="dcaron" unicode="&#x10f;" horiz-adv-x="793" 
d="M692 527l-27 52q38 19 49.5 32.5t11.5 39.5h-55v125h119v-91q0 -69 -18 -99t-80 -59zM283 -10q-69 0 -117 21.5t-74.5 62.5t-38 91.5t-11.5 117.5q0 137 55 213t190 76q150 0 191 -61v265h117v-771l-89 -9l-13 60q-51 -66 -210 -66zM309 96q92 0 130.5 43t38.5 144
q0 99 -37 139t-132 40q-85 0 -117 -45t-32 -134q0 -92 32.5 -139.5t116.5 -47.5z" />
    <glyph glyph-name="Dcroat" unicode="&#x110;" horiz-adv-x="769" 
d="M0 328v101h81v312h253q111 0 183.5 -17t122 -59.5t70.5 -113.5t21 -180q0 -208 -94.5 -289.5t-310.5 -81.5h-245v328h-81zM202 112h130q161 0 219 57t58 202q0 75 -11 121t-41.5 77.5t-83 44t-137.5 12.5h-134v-197h153v-101h-153v-216z" />
    <glyph glyph-name="dcroat" unicode="&#x111;" horiz-adv-x="664" 
d="M338 613v99h140v64h117v-64h69v-99h-69v-608l-89 -9l-13 60q-51 -66 -210 -66q-69 0 -117 21.5t-74.5 62.5t-38 91.5t-11.5 117.5q0 137 55 213t190 76q150 0 191 -61v102h-140zM309 96q92 0 130.5 43t38.5 144q0 99 -37 139t-132 40q-85 0 -117 -45t-32 -134
q0 -92 32.5 -139.5t116.5 -47.5z" />
    <glyph glyph-name="Emacron" unicode="&#x112;" horiz-adv-x="663" 
d="M81 0v741h523v-116h-402v-186h392v-115h-392v-210h406v-114h-527zM135 776v99h390v-99h-390z" />
    <glyph glyph-name="emacron" unicode="&#x113;" horiz-adv-x="606" 
d="M322 -11q-85 0 -142 22t-86 64.5t-40.5 91t-11.5 114.5q0 65 12 113.5t41 91t86 65t139 22.5q49 0 87.5 -9.5t64 -27t43.5 -42t26.5 -54t14 -63.5t5 -70.5t-0.5 -74.5h-405q6 -72 42.5 -107.5t124.5 -35.5q61 0 100 13.5t76 40.5l62 -81q-95 -73 -238 -73zM317 470
q-82 0 -118.5 -35t-43.5 -102h295q-2 37 -6 56.5t-17 41t-40 30.5t-70 9zM107 608v99h390v-99h-390z" />
    <glyph glyph-name="Ebreve" unicode="&#x114;" horiz-adv-x="663" 
d="M81 0v741h523v-116h-402v-186h392v-115h-392v-210h406v-114h-527zM331 771q-97 0 -140.5 44.5t-60.5 130.5l85 17q11 -51 35.5 -74t80.5 -23t80 23t35 74l87 -16q-19 -87 -62 -131.5t-140 -44.5z" />
    <glyph glyph-name="ebreve" unicode="&#x115;" horiz-adv-x="606" 
d="M322 -11q-85 0 -142 22t-86 64.5t-40.5 91t-11.5 114.5q0 65 12 113.5t41 91t86 65t139 22.5q49 0 87.5 -9.5t64 -27t43.5 -42t26.5 -54t14 -63.5t5 -70.5t-0.5 -74.5h-405q6 -72 42.5 -107.5t124.5 -35.5q61 0 100 13.5t76 40.5l62 -81q-95 -73 -238 -73zM317 470
q-82 0 -118.5 -35t-43.5 -102h295q-2 37 -6 56.5t-17 41t-40 30.5t-70 9zM303 603q-97 0 -140.5 44.5t-60.5 130.5l85 17q11 -51 35.5 -74t80.5 -23t80 23t35 74l87 -16q-19 -87 -62 -131.5t-140 -44.5z" />
    <glyph glyph-name="Edotaccent" unicode="&#x116;" horiz-adv-x="663" 
d="M81 0v741h523v-116h-402v-186h392v-115h-392v-210h406v-114h-527zM271 782v125h118v-125h-118z" />
    <glyph glyph-name="edotaccent" unicode="&#x117;" horiz-adv-x="606" 
d="M322 -11q-85 0 -142 22t-86 64.5t-40.5 91t-11.5 114.5q0 65 12 113.5t41 91t86 65t139 22.5q49 0 87.5 -9.5t64 -27t43.5 -42t26.5 -54t14 -63.5t5 -70.5t-0.5 -74.5h-405q6 -72 42.5 -107.5t124.5 -35.5q61 0 100 13.5t76 40.5l62 -81q-95 -73 -238 -73zM317 470
q-82 0 -118.5 -35t-43.5 -102h295q-2 37 -6 56.5t-17 41t-40 30.5t-70 9zM243 614v125h118v-125h-118z" />
    <glyph glyph-name="Eogonek" unicode="&#x118;" horiz-adv-x="663" 
d="M81 0v741h523v-116h-402v-186h392v-115h-392v-210h406v-114h-81q-43 -27 -65.5 -55.5t-22.5 -51.5q0 -21 12 -32t47 -11q46 0 86 17l25 -65q-56 -28 -126 -28q-75 0 -105 25t-30 72q0 76 80 129h-347z" />
    <glyph glyph-name="eogonek" unicode="&#x119;" horiz-adv-x="606" 
d="M322 -11q-85 0 -142 22t-86 64.5t-40.5 91t-11.5 114.5q0 65 12 113.5t41 91t86 65t139 22.5q49 0 87.5 -9.5t64 -27t43.5 -42t26.5 -54t14 -63.5t5 -70.5t-0.5 -74.5h-405q6 -72 42.5 -107.5t124.5 -35.5q61 0 100 13.5t76 40.5l62 -81q-48 -37 -102 -55
q-49 -27 -74.5 -58t-25.5 -56q0 -21 12 -32t47 -11q46 0 86 17l25 -65q-56 -28 -126 -28q-75 0 -105 25t-30 72q0 67 65 118h-10zM317 470q-82 0 -118.5 -35t-43.5 -102h295q-2 37 -6 56.5t-17 41t-40 30.5t-70 9z" />
    <glyph glyph-name="Ecaron" unicode="&#x11a;" horiz-adv-x="663" 
d="M268 784l-154 171h112l105 -95l105 95h109l-154 -171h-123zM81 0v741h523v-116h-402v-186h392v-115h-392v-210h406v-114h-527z" />
    <glyph glyph-name="ecaron" unicode="&#x11b;" horiz-adv-x="606" 
d="M240 616l-154 171h112l105 -95l105 95h109l-154 -171h-123zM322 -11q-85 0 -142 22t-86 64.5t-40.5 91t-11.5 114.5q0 65 12 113.5t41 91t86 65t139 22.5q49 0 87.5 -9.5t64 -27t43.5 -42t26.5 -54t14 -63.5t5 -70.5t-0.5 -74.5h-405q6 -72 42.5 -107.5t124.5 -35.5
q61 0 100 13.5t76 40.5l62 -81q-95 -73 -238 -73zM317 470q-82 0 -118.5 -35t-43.5 -102h295q-2 37 -6 56.5t-17 41t-40 30.5t-70 9z" />
    <glyph glyph-name="Gcircumflex" unicode="&#x11c;" horiz-adv-x="788" 
d="M179 784l154 171h123l154 -171h-111l-106 95l-104 -95h-110zM411 -11q-203 0 -287.5 94t-84.5 288q0 382 379 382q188 0 285 -99l-87 -89q-76 71 -199 71q-132 0 -194.5 -66t-62.5 -200q0 -143 57.5 -208t198.5 -65q123 0 169 46t46 149v19h-229v109h349v-105
q0 -82 -15 -139t-52.5 -101t-105 -65t-167.5 -21z" />
    <glyph glyph-name="gcircumflex" unicode="&#x11d;" horiz-adv-x="624" 
d="M89 633l154 171h123l154 -171h-111l-106 95l-104 -95h-110zM301 204q-49 0 -87 6q-10 -13 -10 -28q0 -23 20.5 -30t84.5 -7q162 0 220.5 -31t58.5 -119q0 -93 -67.5 -133.5t-222.5 -40.5q-153 0 -213.5 28.5t-60.5 109.5q0 106 112 129q-35 22 -35 75q0 44 23 78
q-68 44 -68 143q0 94 59 141t186 47h14l250 40v-96h-87q69 -38 69 -132q0 -93 -59 -136.5t-187 -43.5zM301 294q71 0 101 21.5t30 68.5t-31.5 68.5t-99.5 21.5q-72 0 -102 -21t-30 -69q0 -47 30 -68.5t102 -21.5zM302 -89q97 0 132.5 18.5t35.5 59.5q0 37 -35 49.5
t-133 12.5q-68 0 -105 -10t-46.5 -24t-9.5 -38q0 -38 35.5 -53t125.5 -15z" />
    <glyph glyph-name="Gbreve" unicode="&#x11e;" horiz-adv-x="788" 
d="M411 -11q-203 0 -287.5 94t-84.5 288q0 382 379 382q188 0 285 -99l-87 -89q-76 71 -199 71q-132 0 -194.5 -66t-62.5 -200q0 -143 57.5 -208t198.5 -65q123 0 169 46t46 149v19h-229v109h349v-105q0 -82 -15 -139t-52.5 -101t-105 -65t-167.5 -21zM393 771
q-97 0 -140.5 44.5t-60.5 130.5l85 17q11 -51 35.5 -74t80.5 -23t80 23t35 74l87 -16q-19 -87 -62 -131.5t-140 -44.5z" />
    <glyph glyph-name="gbreve" unicode="&#x11f;" horiz-adv-x="624" 
d="M301 204q-49 0 -87 6q-10 -13 -10 -28q0 -23 20.5 -30t84.5 -7q162 0 220.5 -31t58.5 -119q0 -93 -67.5 -133.5t-222.5 -40.5q-153 0 -213.5 28.5t-60.5 109.5q0 106 112 129q-35 22 -35 75q0 44 23 78q-68 44 -68 143q0 94 59 141t186 47h14l250 40v-96h-87
q69 -38 69 -132q0 -93 -59 -136.5t-187 -43.5zM301 294q71 0 101 21.5t30 68.5t-31.5 68.5t-99.5 21.5q-72 0 -102 -21t-30 -69q0 -47 30 -68.5t102 -21.5zM302 -89q97 0 132.5 18.5t35.5 59.5q0 37 -35 49.5t-133 12.5q-68 0 -105 -10t-46.5 -24t-9.5 -38q0 -38 35.5 -53
t125.5 -15zM311 603q-97 0 -140.5 44.5t-60.5 130.5l85 17q11 -51 35.5 -74t80.5 -23t80 23t35 74l87 -16q-19 -87 -62 -131.5t-140 -44.5z" />
    <glyph glyph-name="Gdotaccent" unicode="&#x120;" horiz-adv-x="788" 
d="M411 -11q-203 0 -287.5 94t-84.5 288q0 382 379 382q188 0 285 -99l-87 -89q-76 71 -199 71q-132 0 -194.5 -66t-62.5 -200q0 -143 57.5 -208t198.5 -65q123 0 169 46t46 149v19h-229v109h349v-105q0 -82 -15 -139t-52.5 -101t-105 -65t-167.5 -21zM338 782v125h118v-125
h-118z" />
    <glyph glyph-name="gdotaccent" unicode="&#x121;" horiz-adv-x="624" 
d="M301 204q-49 0 -87 6q-10 -13 -10 -28q0 -23 20.5 -30t84.5 -7q162 0 220.5 -31t58.5 -119q0 -93 -67.5 -133.5t-222.5 -40.5q-153 0 -213.5 28.5t-60.5 109.5q0 106 112 129q-35 22 -35 75q0 44 23 78q-68 44 -68 143q0 94 59 141t186 47h14l250 40v-96h-87
q69 -38 69 -132q0 -93 -59 -136.5t-187 -43.5zM301 294q71 0 101 21.5t30 68.5t-31.5 68.5t-99.5 21.5q-72 0 -102 -21t-30 -69q0 -47 30 -68.5t102 -21.5zM302 -89q97 0 132.5 18.5t35.5 59.5q0 37 -35 49.5t-133 12.5q-68 0 -105 -10t-46.5 -24t-9.5 -38q0 -38 35.5 -53
t125.5 -15zM253 614v125h118v-125h-118z" />
    <glyph glyph-name="Gcommaaccent" unicode="&#x122;" horiz-adv-x="788" 
d="M358 -287l-28 51q38 19 49.5 32.5t11.5 39.5h-60v125h125v-91q0 -69 -18.5 -99t-79.5 -58zM411 -11q-203 0 -287.5 94t-84.5 288q0 382 379 382q188 0 285 -99l-87 -89q-76 71 -199 71q-132 0 -194.5 -66t-62.5 -200q0 -143 57.5 -208t198.5 -65q123 0 169 46t46 149v19
h-229v109h349v-105q0 -82 -15 -139t-52.5 -101t-105 -65t-167.5 -21z" />
    <glyph glyph-name="gcommaaccent" unicode="&#x123;" horiz-adv-x="624" 
d="M248 614v81q0 68 19 98.5t81 59.5l26 -51q-38 -19 -49 -32.5t-11 -40.5h59v-115h-125zM301 204q-49 0 -87 6q-10 -13 -10 -28q0 -23 20.5 -30t84.5 -7q162 0 220.5 -31t58.5 -119q0 -93 -67.5 -133.5t-222.5 -40.5q-153 0 -213.5 28.5t-60.5 109.5q0 106 112 129
q-35 22 -35 75q0 44 23 78q-68 44 -68 143q0 94 59 141t186 47h14l250 40v-96h-87q69 -38 69 -132q0 -93 -59 -136.5t-187 -43.5zM301 294q71 0 101 21.5t30 68.5t-31.5 68.5t-99.5 21.5q-72 0 -102 -21t-30 -69q0 -47 30 -68.5t102 -21.5zM302 -89q97 0 132.5 18.5
t35.5 59.5q0 37 -35 49.5t-133 12.5q-68 0 -105 -10t-46.5 -24t-9.5 -38q0 -38 35.5 -53t125.5 -15z" />
    <glyph glyph-name="Hcircumflex" unicode="&#x124;" horiz-adv-x="796" 
d="M181 784l154 171h123l154 -171h-111l-106 95l-104 -95h-110zM81 0v741h121v-298h392v298h121v-741h-121v323h-392v-323h-121z" />
    <glyph glyph-name="hcircumflex" unicode="&#x125;" horiz-adv-x="642" 
d="M-88 794l154 171h123l154 -171h-111l-106 95l-104 -95h-110zM69 0v776h116v-259q42 56 190 56q63 0 104.5 -16t61.5 -49.5t27.5 -71.5t7.5 -96v-340h-116v317q0 36 -3.5 57.5t-15 42.5t-37.5 30.5t-68 9.5q-89 0 -119.5 -37.5t-30.5 -112.5v-307h-117z" />
    <glyph glyph-name="Hbar" unicode="&#x126;" horiz-adv-x="796" 
d="M24 541v93h57v107h121v-107h392v107h121v-107h56v-93h-56v-541h-121v323h-392v-323h-121v541h-57zM202 443h392v98h-392v-98z" />
    <glyph glyph-name="hbar" unicode="&#x127;" horiz-adv-x="642" 
d="M69 0v622h-69v79h69v75h116v-75h141v-79h-141v-105q42 56 190 56q63 0 104.5 -16t61.5 -49.5t27.5 -71.5t7.5 -96v-340h-116v317q0 36 -3.5 57.5t-15 42.5t-37.5 30.5t-68 9.5q-89 0 -119.5 -37.5t-30.5 -112.5v-307h-117z" />
    <glyph glyph-name="Itilde" unicode="&#x128;" horiz-adv-x="300" 
d="M90 0v741h120v-741h-120zM4 784l-70 56q72 91 145 91q37 0 77 -25.5t62 -25.5q34 0 80 56l68 -55q-78 -97 -146 -97q-34 0 -75.5 25.5t-63.5 25.5q-38 0 -77 -51z" />
    <glyph glyph-name="itilde" unicode="&#x129;" horiz-adv-x="265" 
d="M75 0v560h115v-560h-115zM-13 616l-70 56q72 91 145 91q37 0 77 -25.5t62 -25.5q34 0 80 56l68 -55q-78 -97 -146 -97q-34 0 -75.5 25.5t-63.5 25.5q-38 0 -77 -51z" />
    <glyph glyph-name="Imacron" unicode="&#x12a;" horiz-adv-x="300" 
d="M90 0v741h120v-741h-120zM-44 776v99h390v-99h-390z" />
    <glyph glyph-name="imacron" unicode="&#x12b;" horiz-adv-x="265" 
d="M75 0v560h115v-560h-115zM-61 608v99h390v-99h-390z" />
    <glyph glyph-name="Ibreve" unicode="&#x12c;" horiz-adv-x="300" 
d="M90 0v741h120v-741h-120zM151 771q-97 0 -140.5 44.5t-60.5 130.5l85 17q11 -51 35.5 -74t80.5 -23t80 23t35 74l87 -16q-19 -87 -62 -131.5t-140 -44.5z" />
    <glyph glyph-name="ibreve" unicode="&#x12d;" horiz-adv-x="265" 
d="M75 0v560h115v-560h-115zM134 603q-97 0 -140.5 44.5t-60.5 130.5l85 17q11 -51 35.5 -74t80.5 -23t80 23t35 74l87 -16q-19 -87 -62 -131.5t-140 -44.5z" />
    <glyph glyph-name="Iogonek" unicode="&#x12e;" horiz-adv-x="300" 
d="M158 -226q-75 0 -105 25t-30 72q0 86 67 129v741h120v-741q-96 -60 -96 -107q0 -21 12 -32t47 -11q41 0 79 16l25 -65q-58 -27 -119 -27z" />
    <glyph glyph-name="iogonek" unicode="&#x12f;" horiz-adv-x="265" 
d="M138 -226q-75 0 -105 25t-30 72q0 83 72 130v559h115v-560q-96 -60 -96 -107q0 -21 12 -32t47 -11q41 0 79 16l25 -65q-58 -27 -119 -27zM74 621v128h117v-128h-117z" />
    <glyph glyph-name="Idotaccent" unicode="&#x130;" horiz-adv-x="300" 
d="M90 0v741h120v-741h-120zM92 782v125h118v-125h-118z" />
    <glyph glyph-name="dotlessi" unicode="&#x131;" horiz-adv-x="265" 
d="M75 0v560h115v-560h-115z" />
    <glyph glyph-name="IJ" unicode="&#x132;" horiz-adv-x="727" 
d="M90 0v741h120v-741h-120zM417 -1q-61 0 -92 1v111h78q70 0 98.5 27t28.5 90v513h120v-518q0 -123 -58.5 -173.5t-174.5 -50.5z" />
    <glyph glyph-name="ij" unicode="&#x133;" horiz-adv-x="531" 
d="M75 0v560h115v-560h-115zM74 621v128h117v-128h-117zM266 -168v94h10q40 1 51.5 16t11.5 63v555h115v-554q0 -103 -33 -138.5t-133 -35.5h-22zM338 621v128h117v-128h-117z" />
    <glyph glyph-name="Jcircumflex" unicode="&#x134;" horiz-adv-x="427" 
d="M75 784l154 171h123l154 -171h-111l-106 95l-104 -95h-110zM118 -1q-61 0 -92 1v111h78q70 0 98.5 27t28.5 90v513h120v-518q0 -123 -58.5 -173.5t-174.5 -50.5z" />
    <glyph glyph-name="jcircumflex" unicode="&#x135;" horiz-adv-x="265" 
d="M2 -168v90h10q40 0 51.5 15.5t11.5 63.5v558h115v-557q0 -100 -33.5 -135t-132.5 -35h-22zM-82 616l154 171h123l154 -171h-111l-106 95l-104 -95h-110z" />
    <glyph glyph-name="Kcommaaccent" unicode="&#x136;" horiz-adv-x="732" 
d="M329 -287l-28 51q38 19 49.5 32.5t11.5 39.5h-60v125h125v-91q0 -69 -18.5 -99t-79.5 -58zM562 0l-236 358l-126 -143v-215h-119v741h119v-370l325 370h139l-258 -293l294 -448h-138z" />
    <glyph glyph-name="kcommaaccent" unicode="&#x137;" horiz-adv-x="573" 
d="M249 -287l-28 51q38 19 49.5 32.5t11.5 39.5h-60v125h125v-91q0 -69 -18.5 -99t-79.5 -58zM69 0v776h115v-485l228 269h129l-195 -232l214 -328h-129l-162 243l-85 -97v-146h-115z" />
    <glyph glyph-name="kgreenlandic" unicode="&#x138;" horiz-adv-x="573" 
d="M69 0v560h115v-269l228 269h129l-195 -232l214 -328h-129l-162 243l-85 -97v-146h-115z" />
    <glyph glyph-name="Lacute" unicode="&#x139;" horiz-adv-x="602" 
d="M86 784l146 171h141l-181 -171h-106zM81 0v741h121v-630h379v-111h-500z" />
    <glyph glyph-name="lacute" unicode="&#x13a;" horiz-adv-x="317" 
d="M77 814l146 171h141l-181 -171h-106zM209 -1q-72 0 -103 34.5t-31 120.5v622h115v-608q0 -38 11 -51.5t49 -13.5h21v-102q-20 -2 -62 -2z" />
    <glyph glyph-name="Lcommaaccent" unicode="&#x13b;" horiz-adv-x="602" 
d="M264 -287l-28 51q38 19 49.5 32.5t11.5 39.5h-60v125h125v-91q0 -69 -18.5 -99t-79.5 -58zM81 0v741h121v-630h379v-111h-500z" />
    <glyph glyph-name="lcommaaccent" unicode="&#x13c;" horiz-adv-x="317" 
d="M122 -287l-28 51q38 19 49.5 32.5t11.5 39.5h-60v125h125v-91q0 -69 -18.5 -99t-79.5 -58zM209 -1q-72 0 -103 34.5t-31 120.5v622h115v-608q0 -38 11 -51.5t49 -13.5h21v-102q-20 -2 -62 -2z" />
    <glyph glyph-name="Lcaron" unicode="&#x13d;" horiz-adv-x="602" 
d="M314 527l-27 52q38 19 49.5 32.5t11.5 39.5h-55v125h119v-91q0 -69 -18 -99t-80 -59zM81 0v741h121v-630h379v-111h-500z" />
    <glyph glyph-name="lcaron" unicode="&#x13e;" horiz-adv-x="392" 
d="M291 527l-27 52q38 19 49.5 32.5t11.5 39.5h-55v125h119v-91q0 -69 -18 -99t-80 -59zM209 -1q-72 0 -103 34.5t-31 120.5v622h115v-608q0 -38 11 -51.5t49 -13.5h21v-102q-20 -2 -62 -2z" />
    <glyph glyph-name="Ldot" unicode="&#x13f;" horiz-adv-x="660" 
d="M81 0v741h121v-630h379v-111h-500zM405 306v153h141v-153h-141z" />
    <glyph glyph-name="ldot" unicode="&#x140;" horiz-adv-x="548" 
d="M209 -1q-72 0 -103 34.5t-31 120.5v622h115v-608q0 -38 11 -51.5t49 -13.5h21v-102q-20 -2 -62 -2zM338 274v153h141v-153h-141z" />
    <glyph glyph-name="Lslash" unicode="&#x141;" horiz-adv-x="602" 
d="M0 280v103l81 45v313h121v-245l152 85v-104l-152 -85v-281h379v-111h-500v325z" />
    <glyph glyph-name="lslash" unicode="&#x142;" horiz-adv-x="379" 
d="M23 356v99l94 54v267h116v-200l102 59v-99l-102 -59v-313q0 -39 11 -52.5t48 -13.5h22v-97q-20 -2 -62 -2q-73 0 -104 34t-31 118v259z" />
    <glyph glyph-name="Nacute" unicode="&#x143;" horiz-adv-x="801" 
d="M309 784l146 171h141l-181 -171h-106zM81 0v741h131l390 -535v535h118v-741h-111l-410 561v-561h-118z" />
    <glyph glyph-name="nacute" unicode="&#x144;" horiz-adv-x="642" 
d="M230 616l146 171h141l-181 -171h-106zM69 0v553l91 7l10 -49q51 62 205 62q63 0 104.5 -16t61.5 -49.5t27.5 -71.5t7.5 -96v-340h-116v317q0 36 -3.5 57.5t-15 42.5t-37.5 30.5t-68 9.5q-89 0 -119.5 -37.5t-30.5 -112.5v-307h-117z" />
    <glyph glyph-name="Ncommaaccent" unicode="&#x145;" horiz-adv-x="801" 
d="M363 -287l-28 51q38 19 49.5 32.5t11.5 39.5h-60v125h125v-91q0 -69 -18.5 -99t-79.5 -58zM81 0v741h131l390 -535v535h118v-741h-111l-410 561v-561h-118z" />
    <glyph glyph-name="ncommaaccent" unicode="&#x146;" horiz-adv-x="642" 
d="M284 -287l-28 51q38 19 49.5 32.5t11.5 39.5h-60v125h125v-91q0 -69 -18.5 -99t-79.5 -58zM69 0v553l91 7l10 -49q51 62 205 62q63 0 104.5 -16t61.5 -49.5t27.5 -71.5t7.5 -96v-340h-116v317q0 36 -3.5 57.5t-15 42.5t-37.5 30.5t-68 9.5q-89 0 -119.5 -37.5
t-30.5 -112.5v-307h-117z" />
    <glyph glyph-name="Ncaron" unicode="&#x147;" horiz-adv-x="801" 
d="M337 784l-154 171h112l105 -95l105 95h109l-154 -171h-123zM81 0v741h131l390 -535v535h118v-741h-111l-410 561v-561h-118z" />
    <glyph glyph-name="ncaron" unicode="&#x148;" horiz-adv-x="642" 
d="M258 616l-154 171h112l105 -95l105 95h109l-154 -171h-123zM69 0v553l91 7l10 -49q51 62 205 62q63 0 104.5 -16t61.5 -49.5t27.5 -71.5t7.5 -96v-340h-116v317q0 36 -3.5 57.5t-15 42.5t-37.5 30.5t-68 9.5q-89 0 -119.5 -37.5t-30.5 -112.5v-307h-117z" />
    <glyph glyph-name="napostrophe" unicode="&#x149;" horiz-adv-x="878" 
d="M92 441l-30 62q42 21 55 37.5t13 48.5h-68v152h141v-110q0 -83 -20.5 -120t-90.5 -70zM305 0v553l91 7l10 -49q51 62 205 62q63 0 104.5 -16t61.5 -49.5t27.5 -71.5t7.5 -96v-340h-116v317q0 36 -3.5 57.5t-15 42.5t-37.5 30.5t-68 9.5q-89 0 -119.5 -37.5t-30.5 -112.5
v-307h-117z" />
    <glyph glyph-name="Eng" unicode="&#x14a;" horiz-adv-x="801" 
d="M81 0v741h131l393 -540v540h115v-702q0 -121 -59 -172t-174 -51q-54 0 -92 2v105h78q61 0 90 22t35 69l-402 552v-566h-115z" />
    <glyph glyph-name="eng" unicode="&#x14b;" horiz-adv-x="642" 
d="M388 -168v90h9q41 0 52 15.5t11 63.5v318q0 37 -3.5 58.5t-15 43.5t-37.5 31.5t-68 9.5q-89 0 -119.5 -38.5t-30.5 -115.5v-308h-117v552l91 7l10 -72q51 85 205 85q63 0 104.5 -16t61.5 -49t27.5 -71.5t7.5 -95.5v-345q0 -95 -34.5 -129t-132.5 -34h-21z" />
    <glyph glyph-name="Omacron" unicode="&#x14c;" horiz-adv-x="843" 
d="M226 776v99h390v-99h-390zM421 -12q-382 0 -382 383q0 382 382 382q383 0 383 -382q0 -383 -383 -383zM421 101q136 0 198.5 68t62.5 200q0 131 -62.5 199t-198.5 68q-260 0 -260 -267q0 -132 62.5 -200t197.5 -68z" />
    <glyph glyph-name="omacron" unicode="&#x14d;" horiz-adv-x="646" 
d="M127 608v99h390v-99h-390zM323 -11q-148 0 -214.5 73t-66.5 219t66.5 219t214.5 73t214.5 -73t66.5 -219t-66.5 -219t-214.5 -73zM323 94q89 0 126.5 46.5t37.5 137.5t-37.5 137t-126.5 46t-126.5 -46t-37.5 -137q0 -92 37.5 -138t126.5 -46z" />
    <glyph glyph-name="Obreve" unicode="&#x14e;" horiz-adv-x="843" 
d="M421 -12q-382 0 -382 383q0 382 382 382q383 0 383 -382q0 -383 -383 -383zM421 101q136 0 198.5 68t62.5 200q0 131 -62.5 199t-198.5 68q-260 0 -260 -267q0 -132 62.5 -200t197.5 -68zM421 771q-97 0 -140.5 44.5t-60.5 130.5l85 17q11 -51 35.5 -74t80.5 -23t80 23
t35 74l87 -16q-19 -87 -62 -131.5t-140 -44.5z" />
    <glyph glyph-name="obreve" unicode="&#x14f;" horiz-adv-x="646" 
d="M323 -11q-148 0 -214.5 73t-66.5 219t66.5 219t214.5 73t214.5 -73t66.5 -219t-66.5 -219t-214.5 -73zM323 94q89 0 126.5 46.5t37.5 137.5t-37.5 137t-126.5 46t-126.5 -46t-37.5 -137q0 -92 37.5 -138t126.5 -46zM322 603q-97 0 -140.5 44.5t-60.5 130.5l85 17
q11 -51 35.5 -74t80.5 -23t80 23t35 74l87 -16q-19 -87 -62 -131.5t-140 -44.5z" />
    <glyph glyph-name="Ohungarumlaut" unicode="&#x150;" horiz-adv-x="843" 
d="M209 783l126 169h135l-162 -169h-99zM457 783l126 169h135l-161 -169h-100zM421 -12q-382 0 -382 383q0 382 382 382q383 0 383 -382q0 -383 -383 -383zM421 101q136 0 198.5 68t62.5 200q0 131 -62.5 199t-198.5 68q-260 0 -260 -267q0 -132 62.5 -200t197.5 -68z" />
    <glyph glyph-name="ohungarumlaut" unicode="&#x151;" horiz-adv-x="646" 
d="M110 615l126 169h135l-162 -169h-99zM358 615l126 169h135l-161 -169h-100zM323 -11q-148 0 -214.5 73t-66.5 219t66.5 219t214.5 73t214.5 -73t66.5 -219t-66.5 -219t-214.5 -73zM323 94q89 0 126.5 46.5t37.5 137.5t-37.5 137t-126.5 46t-126.5 -46t-37.5 -137
q0 -92 37.5 -138t126.5 -46z" />
    <glyph glyph-name="OE" unicode="&#x152;" horiz-adv-x="1261" 
d="M690 0v83q-88 -95 -269 -95q-187 0 -284.5 92t-97.5 291t97.5 290.5t284.5 91.5q180 0 269 -95v83h512v-116h-402v-188h392v-112h-392v-214h406v-111h-516zM421 101q139 0 200 67.5t61 200.5q0 132 -61 199.5t-200 67.5q-138 0 -199 -67.5t-61 -199.5q0 -133 61 -200.5
t199 -67.5z" />
    <glyph glyph-name="oe" unicode="&#x153;" horiz-adv-x="1051" 
d="M767 -11q-163 0 -224 87q-63 -87 -220 -87q-151 0 -216 72.5t-65 219.5t65 219.5t216 72.5q158 0 221 -88q61 88 221 88q71 0 119.5 -18.5t72 -50.5t36.5 -75.5t12.5 -93t-0.5 -103.5h-405q6 -72 42.5 -107.5t124.5 -35.5q61 0 100 13.5t76 40.5l63 -81
q-50 -38 -104 -55.5t-135 -17.5zM323 94q89 0 126.5 46.5t37.5 137.5t-37.5 137t-126.5 46t-126.5 -46t-37.5 -137q0 -92 37.5 -138t126.5 -46zM762 470q-83 0 -119 -35t-43 -103h295q-2 36 -6 56.5t-16.5 41.5t-40 30.5t-70.5 9.5z" />
    <glyph glyph-name="Racute" unicode="&#x154;" horiz-adv-x="745" 
d="M281 784l146 171h141l-181 -171h-106zM549 0l-155 270h-195v-270h-118v741h339q145 0 207 -58.5t62 -172.5q0 -190 -171 -230l161 -280h-130zM199 381h218q77 0 113.5 27t36.5 97q0 71 -36 98.5t-116 27.5h-216v-250z" />
    <glyph glyph-name="racute" unicode="&#x155;" horiz-adv-x="381" 
d="M107 616l146 171h141l-181 -171h-106zM69 0v553l91 7l12 -64q18 30 67.5 49.5t118.5 20.5v-117q-95 -1 -133.5 -42t-38.5 -119v-288h-117z" />
    <glyph glyph-name="Rcommaaccent" unicode="&#x156;" horiz-adv-x="745" 
d="M336 -287l-28 51q38 19 49.5 32.5t11.5 39.5h-60v125h125v-91q0 -69 -18.5 -99t-79.5 -58zM549 0l-155 270h-195v-270h-118v741h339q145 0 207 -58.5t62 -172.5q0 -190 -171 -230l161 -280h-130zM199 381h218q77 0 113.5 27t36.5 97q0 71 -36 98.5t-116 27.5h-216v-250z
" />
    <glyph glyph-name="rcommaaccent" unicode="&#x157;" horiz-adv-x="381" 
d="M92 -287l-28 51q38 19 49.5 32.5t11.5 39.5h-60v125h125v-91q0 -69 -18.5 -99t-79.5 -58zM69 0v553l91 7l12 -64q18 30 67.5 49.5t118.5 20.5v-117q-95 -1 -133.5 -42t-38.5 -119v-288h-117z" />
    <glyph glyph-name="Rcaron" unicode="&#x158;" horiz-adv-x="745" 
d="M309 784l-154 171h112l105 -95l105 95h109l-154 -171h-123zM549 0l-155 270h-195v-270h-118v741h339q145 0 207 -58.5t62 -172.5q0 -190 -171 -230l161 -280h-130zM199 381h218q77 0 113.5 27t36.5 97q0 71 -36 98.5t-116 27.5h-216v-250z" />
    <glyph glyph-name="rcaron" unicode="&#x159;" horiz-adv-x="374" 
d="M126 616l-154 171h112l105 -95l105 95h109l-154 -171h-123zM69 0v553l91 7l12 -64q18 30 67.5 49.5t118.5 20.5v-117q-95 -1 -133.5 -42t-38.5 -119v-288h-117z" />
    <glyph glyph-name="Sacute" unicode="&#x15a;" horiz-adv-x="722" 
d="M270 784l146 171h141l-181 -171h-106zM361 -10q-198 0 -329 91l61 93q118 -78 265 -78q109 0 152.5 27t43.5 88q0 55 -45 76t-153 38q-61 9 -99.5 18t-77 25t-60 37.5t-34.5 55t-13 79.5q0 114 70 163.5t218 49.5q175 0 279 -70l-65 -99q-38 25 -96.5 41t-118.5 16
q-92 0 -129.5 -23t-37.5 -75q0 -22 9 -38.5t22.5 -26.5t41.5 -18.5t52 -13.5t69 -12q61 -10 96.5 -17.5t77 -23.5t63 -37t36.5 -56t15 -83q0 -115 -74 -171t-239 -56z" />
    <glyph glyph-name="sacute" unicode="&#x15b;" horiz-adv-x="548" 
d="M184 616l146 171h141l-181 -171h-106zM270 -10q-149 0 -250 68l60 90q88 -57 197 -57q70 0 97 14t27 55q0 33 -24.5 45.5t-98.5 24.5q-48 8 -76 14t-61 18.5t-50 30t-28.5 46.5t-11.5 68q0 83 53 124.5t174 41.5q134 0 220 -50l-55 -96q-71 38 -162 38q-66 0 -90.5 -14
t-24.5 -44q0 -32 24 -45.5t91 -24.5q53 -9 79 -14.5t61.5 -18t52 -28.5t28.5 -44t12 -66q0 -96 -56.5 -136t-187.5 -40z" />
    <glyph glyph-name="Scircumflex" unicode="&#x15c;" horiz-adv-x="722" 
d="M132 784l154 171h123l154 -171h-111l-106 95l-104 -95h-110zM361 -10q-198 0 -329 91l61 93q118 -78 265 -78q109 0 152.5 27t43.5 88q0 55 -45 76t-153 38q-61 9 -99.5 18t-77 25t-60 37.5t-34.5 55t-13 79.5q0 114 70 163.5t218 49.5q175 0 279 -70l-65 -99
q-38 25 -96.5 41t-118.5 16q-92 0 -129.5 -23t-37.5 -75q0 -22 9 -38.5t22.5 -26.5t41.5 -18.5t52 -13.5t69 -12q61 -10 96.5 -17.5t77 -23.5t63 -37t36.5 -56t15 -83q0 -115 -74 -171t-239 -56z" />
    <glyph glyph-name="scircumflex" unicode="&#x15d;" horiz-adv-x="548" 
d="M55 616l154 171h123l154 -171h-111l-106 95l-104 -95h-110zM270 -10q-149 0 -250 68l60 90q88 -57 197 -57q70 0 97 14t27 55q0 33 -24.5 45.5t-98.5 24.5q-48 8 -76 14t-61 18.5t-50 30t-28.5 46.5t-11.5 68q0 83 53 124.5t174 41.5q134 0 220 -50l-55 -96
q-71 38 -162 38q-66 0 -90.5 -14t-24.5 -44q0 -32 24 -45.5t91 -24.5q53 -9 79 -14.5t61.5 -18t52 -28.5t28.5 -44t12 -66q0 -96 -56.5 -136t-187.5 -40z" />
    <glyph glyph-name="Scedilla" unicode="&#x15e;" horiz-adv-x="722" 
d="M364 -238q-71 0 -125 31l31 59q46 -23 90 -23q40 0 55 11t15 35q0 25 -21 33.5t-69 5.5l-26 18l12 59q-177 8 -294 90l61 93q118 -78 265 -78q109 0 152.5 27t43.5 88q0 55 -45 76t-153 38q-61 9 -99.5 18t-77 25t-60 37.5t-34.5 55t-13 79.5q0 114 70 163.5t218 49.5
q175 0 279 -70l-65 -99q-38 25 -96.5 41t-118.5 16q-92 0 -129.5 -23t-37.5 -75q0 -22 9 -38.5t22.5 -26.5t41.5 -18.5t52 -13.5t69 -12q61 -10 96.5 -17.5t77 -23.5t63 -37t36.5 -56t15 -83q0 -109 -66.5 -165t-213.5 -61l-6 -34q27 1 45.5 -1.5t37.5 -11t28.5 -28
t9.5 -49.5q0 -54 -35.5 -79.5t-109.5 -25.5z" />
    <glyph glyph-name="scedilla" unicode="&#x15f;" horiz-adv-x="548" 
d="M278 -238q-71 0 -125 31l31 59q46 -23 90 -23q40 0 55 11t15 35q0 25 -21 33.5t-69 5.5l-26 18l11 59q-130 7 -219 67l60 90q88 -57 197 -57q70 0 97 14t27 55q0 33 -24.5 45.5t-98.5 24.5q-48 8 -76 14t-61 18.5t-50 30t-28.5 46.5t-11.5 68q0 83 53 124.5t174 41.5
q134 0 220 -50l-55 -96q-71 38 -162 38q-66 0 -90.5 -14t-24.5 -44q0 -32 24 -45.5t91 -24.5q53 -9 79 -14.5t61.5 -18t52 -28.5t28.5 -44t12 -66q0 -89 -48 -129.5t-158 -45.5l-6 -34q27 1 45.5 -1.5t37.5 -11t28.5 -28t9.5 -49.5q0 -54 -35.5 -79.5t-109.5 -25.5z" />
    <glyph glyph-name="Scaron" unicode="&#x160;" horiz-adv-x="722" 
d="M298 784l-154 171h112l105 -95l105 95h109l-154 -171h-123zM361 -10q-198 0 -329 91l61 93q118 -78 265 -78q109 0 152.5 27t43.5 88q0 55 -45 76t-153 38q-61 9 -99.5 18t-77 25t-60 37.5t-34.5 55t-13 79.5q0 114 70 163.5t218 49.5q175 0 279 -70l-65 -99
q-38 25 -96.5 41t-118.5 16q-92 0 -129.5 -23t-37.5 -75q0 -22 9 -38.5t22.5 -26.5t41.5 -18.5t52 -13.5t69 -12q61 -10 96.5 -17.5t77 -23.5t63 -37t36.5 -56t15 -83q0 -115 -74 -171t-239 -56z" />
    <glyph glyph-name="scaron" unicode="&#x161;" horiz-adv-x="548" 
d="M212 616l-154 171h112l105 -95l105 95h109l-154 -171h-123zM270 -10q-149 0 -250 68l60 90q88 -57 197 -57q70 0 97 14t27 55q0 33 -24.5 45.5t-98.5 24.5q-48 8 -76 14t-61 18.5t-50 30t-28.5 46.5t-11.5 68q0 83 53 124.5t174 41.5q134 0 220 -50l-55 -96
q-71 38 -162 38q-66 0 -90.5 -14t-24.5 -44q0 -32 24 -45.5t91 -24.5q53 -9 79 -14.5t61.5 -18t52 -28.5t28.5 -44t12 -66q0 -96 -56.5 -136t-187.5 -40z" />
    <glyph glyph-name="Tcommaaccent" unicode="&#x162;" horiz-adv-x="697" 
d="M312 -287l-28 51q38 19 49.5 32.5t11.5 39.5h-60v125h125v-91q0 -69 -18.5 -99t-79.5 -58zM288 0v625h-267v116h656v-116h-267v-625h-122z" />
    <glyph glyph-name="Tcommaaccent" unicode="&#x21a;" horiz-adv-x="697" 
d="M312 -287l-28 51q38 19 49.5 32.5t11.5 39.5h-60v125h125v-91q0 -69 -18.5 -99t-79.5 -58zM288 0v625h-267v116h656v-116h-267v-625h-122z" />
    <glyph glyph-name="tcommaaccent" unicode="&#x163;" horiz-adv-x="429" 
d="M151 -287l-28 51q38 19 49.5 32.5t11.5 39.5h-60v125h125v-91q0 -69 -18.5 -99t-79.5 -58zM28 454v106h100l21 150l91 19v-169h143v-106h-143v-276q0 -40 14 -57.5t64 -17.5h65v-103q-16 -1 -87 -1q-100 0 -136 37t-36 125v293h-96z" />
    <glyph glyph-name="tcommaaccent" unicode="&#x21b;" horiz-adv-x="429" 
d="M151 -287l-28 51q38 19 49.5 32.5t11.5 39.5h-60v125h125v-91q0 -69 -18.5 -99t-79.5 -58zM28 454v106h100l21 150l91 19v-169h143v-106h-143v-276q0 -40 14 -57.5t64 -17.5h65v-103q-16 -1 -87 -1q-100 0 -136 37t-36 125v293h-96z" />
    <glyph glyph-name="Tcaron" unicode="&#x164;" horiz-adv-x="697" 
d="M285 784l-154 171h112l105 -95l105 95h109l-154 -171h-123zM288 0v625h-267v116h656v-116h-267v-625h-122z" />
    <glyph glyph-name="tcaron" unicode="&#x165;" horiz-adv-x="429" 
d="M334 643l-26 49q37 19 48 32.5t11 39.5h-52v119h113v-88q0 -66 -17.5 -95.5t-76.5 -56.5zM28 454v106h100l21 150l91 19v-169h143v-106h-143v-276q0 -40 14 -57.5t64 -17.5h65v-103q-16 -1 -87 -1q-100 0 -136 37t-36 125v293h-96z" />
    <glyph glyph-name="Tbar" unicode="&#x166;" horiz-adv-x="697" 
d="M148 294v98h140v233h-267v116h656v-116h-267v-233h138v-98h-138v-294h-122v294h-140z" />
    <glyph glyph-name="tbar" unicode="&#x167;" horiz-adv-x="429" 
d="M28 454v106h100l21 150l91 19v-169h143v-106h-143v-114h143v-93h-143v-69q0 -40 14 -57.5t64 -17.5h65v-103q-16 -1 -87 -1q-100 0 -136 37t-36 125v86h-96v93h96v114h-96z" />
    <glyph glyph-name="Utilde" unicode="&#x168;" horiz-adv-x="797" 
d="M398 -13q-83 0 -143.5 17t-94.5 42.5t-53.5 66t-25 77.5t-5.5 86v465h121v-449q0 -97 42 -144.5t160 -47.5q119 0 162 47t43 145v449h118v-465q0 -49 -6 -86t-26 -77t-54 -66t-94.5 -43t-143.5 -17zM257 784l-70 56q72 91 145 91q37 0 77 -25.5t62 -25.5q34 0 80 56
l68 -55q-78 -97 -146 -97q-34 0 -75.5 25.5t-63.5 25.5q-38 0 -77 -51z" />
    <glyph glyph-name="utilde" unicode="&#x169;" horiz-adv-x="635" 
d="M319 -10q-80 0 -130 15t-77 49.5t-36.5 79t-9.5 114.5v312h116v-315q0 -32 1 -48.5t8 -39t21 -33.5t40.5 -19t66.5 -8t66.5 8.5t40 19t20.5 33.5t8 39t1 50v313h114v-310q0 -71 -9 -115.5t-35 -79.5t-76 -50t-130 -15zM174 616l-70 56q72 91 145 91q37 0 77 -25.5
t62 -25.5q34 0 80 56l68 -55q-78 -97 -146 -97q-34 0 -75.5 25.5t-63.5 25.5q-38 0 -77 -51z" />
    <glyph glyph-name="Umacron" unicode="&#x16a;" horiz-adv-x="797" 
d="M398 -13q-83 0 -143.5 17t-94.5 42.5t-53.5 66t-25 77.5t-5.5 86v465h121v-449q0 -97 42 -144.5t160 -47.5q119 0 162 47t43 145v449h118v-465q0 -49 -6 -86t-26 -77t-54 -66t-94.5 -43t-143.5 -17zM202 776v99h390v-99h-390z" />
    <glyph glyph-name="umacron" unicode="&#x16b;" horiz-adv-x="635" 
d="M319 -10q-80 0 -130 15t-77 49.5t-36.5 79t-9.5 114.5v312h116v-315q0 -32 1 -48.5t8 -39t21 -33.5t40.5 -19t66.5 -8t66.5 8.5t40 19t20.5 33.5t8 39t1 50v313h114v-310q0 -71 -9 -115.5t-35 -79.5t-76 -50t-130 -15zM122 608v99h390v-99h-390z" />
    <glyph glyph-name="Ubreve" unicode="&#x16c;" horiz-adv-x="797" 
d="M398 -13q-83 0 -143.5 17t-94.5 42.5t-53.5 66t-25 77.5t-5.5 86v465h121v-449q0 -97 42 -144.5t160 -47.5q119 0 162 47t43 145v449h118v-465q0 -49 -6 -86t-26 -77t-54 -66t-94.5 -43t-143.5 -17zM398 771q-97 0 -140.5 44.5t-60.5 130.5l85 17q11 -51 35.5 -74
t80.5 -23t80 23t35 74l87 -16q-19 -87 -62 -131.5t-140 -44.5z" />
    <glyph glyph-name="ubreve" unicode="&#x16d;" horiz-adv-x="635" 
d="M319 -10q-80 0 -130 15t-77 49.5t-36.5 79t-9.5 114.5v312h116v-315q0 -32 1 -48.5t8 -39t21 -33.5t40.5 -19t66.5 -8t66.5 8.5t40 19t20.5 33.5t8 39t1 50v313h114v-310q0 -71 -9 -115.5t-35 -79.5t-76 -50t-130 -15zM317 603q-97 0 -140.5 44.5t-60.5 130.5l85 17
q11 -51 35.5 -74t80.5 -23t80 23t35 74l87 -16q-19 -87 -62 -131.5t-140 -44.5z" />
    <glyph glyph-name="Uring" unicode="&#x16e;" horiz-adv-x="797" 
d="M397 770q-66 0 -99 37t-33 98q0 62 33 99.5t99 37.5q64 0 97.5 -38t33.5 -99q0 -60 -33.5 -97.5t-97.5 -37.5zM397 833q69 0 69 72q0 33 -17 53t-52 20q-70 0 -70 -73q0 -72 70 -72zM398 -13q-83 0 -143.5 17t-94.5 42.5t-53.5 66t-25 77.5t-5.5 86v465h121v-449
q0 -97 42 -144.5t160 -47.5q119 0 162 47t43 145v449h118v-465q0 -49 -6 -86t-26 -77t-54 -66t-94.5 -43t-143.5 -17z" />
    <glyph glyph-name="uring" unicode="&#x16f;" horiz-adv-x="635" 
d="M317 602q-66 0 -99 37t-33 98q0 62 33 99.5t99 37.5q64 0 97.5 -38t33.5 -99q0 -60 -33.5 -97.5t-97.5 -37.5zM317 665q69 0 69 72q0 33 -17 53t-52 20q-70 0 -70 -73q0 -72 70 -72zM319 -10q-80 0 -130 15t-77 49.5t-36.5 79t-9.5 114.5v312h116v-315q0 -32 1 -48.5
t8 -39t21 -33.5t40.5 -19t66.5 -8t66.5 8.5t40 19t20.5 33.5t8 39t1 50v313h114v-310q0 -71 -9 -115.5t-35 -79.5t-76 -50t-130 -15z" />
    <glyph glyph-name="Uhungarumlaut" unicode="&#x170;" horiz-adv-x="797" 
d="M398 -13q-83 0 -143.5 17t-94.5 42.5t-53.5 66t-25 77.5t-5.5 86v465h121v-449q0 -97 42 -144.5t160 -47.5q119 0 162 47t43 145v449h118v-465q0 -49 -6 -86t-26 -77t-54 -66t-94.5 -43t-143.5 -17zM185 783l126 169h135l-162 -169h-99zM433 783l126 169h135l-161 -169
h-100z" />
    <glyph glyph-name="uhungarumlaut" unicode="&#x171;" horiz-adv-x="635" 
d="M319 -10q-80 0 -130 15t-77 49.5t-36.5 79t-9.5 114.5v312h116v-315q0 -32 1 -48.5t8 -39t21 -33.5t40.5 -19t66.5 -8t66.5 8.5t40 19t20.5 33.5t8 39t1 50v313h114v-310q0 -71 -9 -115.5t-35 -79.5t-76 -50t-130 -15zM105 615l126 169h135l-162 -169h-99zM353 615
l126 169h135l-161 -169h-100z" />
    <glyph glyph-name="Uogonek" unicode="&#x172;" horiz-adv-x="797" 
d="M507 -226q-75 0 -102 24.5t-27 72.5q0 68 78 119q-27 -3 -58 -3q-70 0 -123.5 11t-88 32t-57.5 46t-34 60t-15 66.5t-4 72.5v466h121v-452q0 -48 8 -81t29.5 -60t62 -40.5t102.5 -13.5q120 0 162.5 47.5t42.5 147.5v452h118v-466q0 -96 -29 -159.5t-111 -100.5
q-59 -29 -90.5 -64t-31.5 -67q0 -21 13.5 -32t51.5 -11q47 0 92 21l21 -56q-66 -32 -131 -32z" />
    <glyph glyph-name="uogonek" unicode="&#x173;" horiz-adv-x="635" 
d="M403 -226q-74 0 -101 24.5t-27 72.5q0 68 79 120q-9 -2 -37 -2q-79 0 -129.5 15t-76.5 50t-35.5 78t-9.5 112v315h116v-317q0 -33 1 -49.5t8 -39.5t21 -33.5t40.5 -19t66.5 -8.5t66.5 8.5t40 19t20.5 34.5t8 40.5t1 50.5v314h114v-312q0 -101 -22 -155t-85 -86
q-47 -23 -76 -57t-29 -65q0 -21 13.5 -32t50.5 -11q48 0 92 21l22 -56q-67 -32 -132 -32z" />
    <glyph glyph-name="Wcircumflex" unicode="&#x174;" horiz-adv-x="1083" 
d="M326 784l154 171h123l154 -171h-111l-106 95l-104 -95h-110zM260 -5l-233 746h126l167 -545l171 545h108l172 -545l166 545h119l-232 -746h-108l-174 550l-173 -550h-109z" />
    <glyph glyph-name="wcircumflex" unicode="&#x175;" horiz-adv-x="898" 
d="M232 616l154 171h123l154 -171h-111l-106 95l-104 -95h-110zM203 -5l-192 565h122l132 -397l128 397h115l128 -396l132 396h119l-192 -565h-118l-128 389l-128 -389h-118z" />
    <glyph glyph-name="Ycircumflex" unicode="&#x176;" horiz-adv-x="730" 
d="M305 0v273l-297 468h131l228 -358l229 358h125l-296 -466v-275h-120zM148 784l154 171h123l154 -171h-111l-106 95l-104 -95h-110z" />
    <glyph glyph-name="ycircumflex" unicode="&#x177;" horiz-adv-x="557" 
d="M129 -168q-39 0 -52 1v93h42q43 0 60.5 9t26.5 37l13 36l-215 552h124l154 -412l150 412h122l-233 -600q-26 -70 -68 -99t-124 -29zM66 616l154 171h123l154 -171h-111l-106 95l-104 -95h-110z" />
    <glyph glyph-name="Ydieresis" unicode="&#x178;" horiz-adv-x="730" 
d="M305 0v273l-297 468h131l228 -358l229 358h125l-296 -466v-275h-120zM202 787v121h106v-121h-106zM421 787v121h105v-121h-105z" />
    <glyph glyph-name="Zacute" unicode="&#x179;" horiz-adv-x="678" 
d="M249 784l146 171h141l-181 -171h-106zM39 0v96l435 529h-418v116h570v-105l-432 -525h443v-111h-598z" />
    <glyph glyph-name="zacute" unicode="&#x17a;" horiz-adv-x="521" 
d="M172 616l146 171h141l-181 -171h-106zM27 0v84l305 370h-289v106h443v-86l-307 -375h318v-99h-470z" />
    <glyph glyph-name="Zdotaccent" unicode="&#x17b;" horiz-adv-x="678" 
d="M39 0v96l435 529h-418v116h570v-105l-432 -525h443v-111h-598zM280 782v125h118v-125h-118z" />
    <glyph glyph-name="zdotaccent" unicode="&#x17c;" horiz-adv-x="521" 
d="M27 0v84l305 370h-289v106h443v-86l-307 -375h318v-99h-470zM203 614v125h118v-125h-118z" />
    <glyph glyph-name="Zcaron" unicode="&#x17d;" horiz-adv-x="678" 
d="M277 784l-154 171h112l105 -95l105 95h109l-154 -171h-123zM39 0v96l435 529h-418v116h570v-105l-432 -525h443v-111h-598z" />
    <glyph glyph-name="zcaron" unicode="&#x17e;" horiz-adv-x="521" 
d="M200 616l-154 171h112l105 -95l105 95h109l-154 -171h-123zM27 0v84l305 370h-289v106h443v-86l-307 -375h318v-99h-470z" />
    <glyph glyph-name="longs" unicode="&#x17f;" horiz-adv-x="414" 
d="M134 0v602q0 93 41.5 139.5t146.5 46.5q56 0 68 -1v-96h-53q-50 0 -69 -22.5t-19 -65.5v-603h-115z" />
    <glyph glyph-name="florin" unicode="&#x192;" horiz-adv-x="573" 
d="M86 351v106h128l26 119q8 41 18 66.5t31.5 50.5t60 36.5t96.5 11.5h44v-110h-38q-54 0 -73.5 -21.5t-29.5 -68.5l-18 -84h159v-106h-182l-110 -517h-117l111 517h-106z" />
    <glyph glyph-name="Ohorn" unicode="&#x1a0;" horiz-adv-x="843" 
d="M421 -12q-382 0 -382 383q0 382 382 382q141 0 232 -53q37 1 53.5 18.5t17.5 39.5h-54v124h118v-113q0 -87 -75 -117q91 -96 91 -281q0 -383 -383 -383zM421 101q136 0 198.5 68t62.5 200q0 131 -62.5 199t-198.5 68q-260 0 -260 -267q0 -132 62.5 -200t197.5 -68z" />
    <glyph glyph-name="ohorn" unicode="&#x1a1;" horiz-adv-x="657" 
d="M323 -11q-148 0 -214.5 73t-66.5 219t66.5 219t214.5 73q106 0 172 -40q61 6 65 57h-56v124h119v-112q0 -87 -72 -118q53 -69 53 -203q0 -146 -66.5 -219t-214.5 -73zM323 94q89 0 126.5 46.5t37.5 137.5t-37.5 137t-126.5 46t-126.5 -46t-37.5 -137q0 -92 37.5 -138
t126.5 -46z" />
    <glyph glyph-name="Uhorn" unicode="&#x1af;" horiz-adv-x="818" 
d="M398 -13q-83 0 -143.5 17t-94.5 42.5t-53.5 66t-25 77.5t-5.5 86v465h121v-449q0 -97 42 -144.5t160 -47.5q119 0 162 47t43 145v449h102q36 2 52.5 19t17.5 39h-54v124h117v-113q0 -51 -28.5 -86.5t-88.5 -41.5v-406q0 -49 -6 -86t-26 -77t-54 -66t-94.5 -43t-143.5 -17
z" />
    <glyph glyph-name="uhorn" unicode="&#x1b0;" horiz-adv-x="687" 
d="M319 -10q-80 0 -130 15t-77 49.5t-36.5 79t-9.5 114.5v312h116v-315q0 -32 1 -48.5t8 -39t21 -33.5t40.5 -19t66.5 -8t66.5 8.5t40 19t20.5 33.5t8 39t1 50v313h111q60 6 62 56h-55v124h118v-113q0 -52 -30 -87.5t-92 -40.5v-249q0 -71 -9 -115.5t-35 -79.5t-76 -50
t-130 -15z" />
    <glyph glyph-name="Aringacute" unicode="&#x1fa;" horiz-adv-x="757" 
d="M287 972l146 171h141l-181 -171h-106zM19 0l278 698q-50 34 -50 113q0 60 32.5 97.5t98.5 37.5q64 0 97.5 -38t33.5 -97q0 -76 -51 -112l280 -699h-123l-57 142h-364l-54 -142h-121zM237 254h278l-139 347zM378 738q69 0 69 73q0 74 -69 74q-70 0 -70 -74q0 -73 70 -73z
" />
    <glyph glyph-name="aringacute" unicode="&#x1fb;" horiz-adv-x="633" 
d="M238 -10q-115 0 -159 45t-44 126q0 118 78.5 161.5t286.5 43.5h28q-2 54 -27 76t-104 22q-84 0 -162 -47l-61 91q35 24 99.5 44.5t135.5 20.5q73 0 118.5 -12t70.5 -41t33.5 -68t8.5 -103v-188q0 -39 8.5 -49t44.5 -10v-101q-8 -2 -48 -2q-44 0 -66 12t-33 46
q-50 -67 -208 -67zM258 90q90 0 130 36t40 115v29h-21q-110 0 -166.5 -10t-76 -30t-19.5 -60q0 -41 24.5 -60.5t88.5 -19.5zM227 911l146 171h141l-181 -171h-106zM317 602q-66 0 -99 37t-33 98q0 62 33 99.5t99 37.5q64 0 97.5 -38t33.5 -99q0 -60 -33.5 -97.5t-97.5 -37.5
zM317 665q69 0 69 72q0 33 -17 53t-52 20q-70 0 -70 -73q0 -72 70 -72z" />
    <glyph glyph-name="AEacute" unicode="&#x1fc;" horiz-adv-x="1109" 
d="M440 784l146 171h141l-181 -171h-106zM11 0l466 741h573v-116h-402v-188h392v-112h-392v-214h406v-111h-522v145h-308l-94 -145h-119zM285 249h247v385z" />
    <glyph glyph-name="aeacute" unicode="&#x1fd;" horiz-adv-x="987" 
d="M372 616l146 171h141l-181 -171h-106zM703 -11q-170 0 -229 95q-33 -57 -87 -75.5t-147 -18.5q-111 0 -158 42.5t-47 128.5q0 117 82.5 161t282.5 44h28q-2 54 -27 76t-104 22q-88 0 -165 -46l-58 90q35 24 99.5 44.5t135.5 20.5q145 0 186 -69q63 69 206 69
q71 0 119.5 -18.5t72 -50.5t36.5 -75.5t12.5 -93t-0.5 -103.5h-405q6 -72 42.5 -107.5t124.5 -35.5q61 0 100 13.5t76 40.5l63 -81q-50 -38 -104 -55.5t-135 -17.5zM259 90q90 0 129.5 36t39.5 115v29h-21q-109 0 -163.5 -8.5t-76.5 -29.5t-22 -62t24.5 -60.5t89.5 -19.5z
M698 470q-83 0 -119 -35t-43 -103h295q-2 36 -6 56.5t-16.5 41.5t-40 30.5t-70.5 9.5z" />
    <glyph glyph-name="Oslashacute" unicode="&#x1fe;" horiz-adv-x="843" 
d="M421 -12q-89 0 -156 19l-27 -48h-115l51 90q-135 91 -135 322q0 199 97.5 290.5t284.5 91.5q82 0 148 -18l28 48h114l-50 -87q143 -89 143 -325q0 -199 -97.5 -291t-285.5 -92zM421 97q141 0 203 68.5t62 203.5q0 162 -88 225l-280 -485q45 -12 103 -12zM157 369
q0 -156 80 -221l278 482q-47 10 -94 10q-140 0 -202 -68.5t-62 -202.5zM331 784l146 171h141l-181 -171h-106z" />
    <glyph glyph-name="oslashacute" unicode="&#x1ff;" horiz-adv-x="646" 
d="M323 -11q-65 0 -116 14l-28 -45h-105l52 85q-84 69 -84 238q0 147 65 219.5t216 72.5q65 0 116 -14l27 45h106l-52 -86q84 -69 84 -237q0 -147 -65 -219.5t-216 -72.5zM323 91q90 0 128 47t38 140q0 94 -37 138l-192 -318q25 -7 63 -7zM157 278q0 -93 34 -137l191 317
q-26 6 -59 6q-91 0 -128.5 -46.5t-37.5 -139.5zM232 616l146 171h141l-181 -171h-106z" />
    <glyph glyph-name="Scommaaccent" unicode="&#x218;" horiz-adv-x="722" 
d="M324 -287l-28 51q38 19 49.5 32.5t11.5 39.5h-60v125h125v-91q0 -69 -18.5 -99t-79.5 -58zM361 -10q-198 0 -329 91l61 93q118 -78 265 -78q109 0 152.5 27t43.5 88q0 55 -45 76t-153 38q-61 9 -99.5 18t-77 25t-60 37.5t-34.5 55t-13 79.5q0 114 70 163.5t218 49.5
q175 0 279 -70l-65 -99q-38 25 -96.5 41t-118.5 16q-92 0 -129.5 -23t-37.5 -75q0 -22 9 -38.5t22.5 -26.5t41.5 -18.5t52 -13.5t69 -12q61 -10 96.5 -17.5t77 -23.5t63 -37t36.5 -56t15 -83q0 -115 -74 -171t-239 -56z" />
    <glyph glyph-name="scommaaccent" unicode="&#x219;" horiz-adv-x="548" 
d="M236 -287l-28 51q38 19 49.5 32.5t11.5 39.5h-60v125h125v-91q0 -69 -18.5 -99t-79.5 -58zM270 -10q-149 0 -250 68l60 90q88 -57 197 -57q70 0 97 14t27 55q0 33 -24.5 45.5t-98.5 24.5q-48 8 -76 14t-61 18.5t-50 30t-28.5 46.5t-11.5 68q0 83 53 124.5t174 41.5
q134 0 220 -50l-55 -96q-71 38 -162 38q-66 0 -90.5 -14t-24.5 -44q0 -32 24 -45.5t91 -24.5q53 -9 79 -14.5t61.5 -18t52 -28.5t28.5 -44t12 -66q0 -96 -56.5 -136t-187.5 -40z" />
    <glyph glyph-name="circumflex" unicode="&#x2c6;" horiz-adv-x="590" 
d="M79 616l154 171h123l154 -171h-111l-106 95l-104 -95h-110z" />
    <glyph glyph-name="caron" unicode="&#x2c7;" horiz-adv-x="590" 
d="M233 616l-154 171h112l105 -95l105 95h109l-154 -171h-123z" />
    <glyph glyph-name="breve" unicode="&#x2d8;" horiz-adv-x="590" 
d="M295 603q-97 0 -140.5 44.5t-60.5 130.5l85 17q11 -51 35.5 -74t80.5 -23t80 23t35 74l87 -16q-19 -87 -62 -131.5t-140 -44.5z" />
    <glyph glyph-name="dotaccent" unicode="&#x2d9;" horiz-adv-x="590" 
d="M236 614v125h118v-125h-118z" />
    <glyph glyph-name="ring" unicode="&#x2da;" horiz-adv-x="590" 
d="M295 602q-66 0 -99 37t-33 98q0 62 33 99.5t99 37.5q64 0 97.5 -38t33.5 -99q0 -60 -33.5 -97.5t-97.5 -37.5zM295 665q69 0 69 72q0 33 -17 53t-52 20q-70 0 -70 -73q0 -72 70 -72z" />
    <glyph glyph-name="ogonek" unicode="&#x2db;" horiz-adv-x="590" 
d="M307 -226q-75 0 -105 25t-30 72q0 46 28.5 81.5t64.5 55.5h99q-49 -28 -75 -59t-26 -56q0 -21 12 -32t47 -11q46 0 86 17l25 -65q-56 -28 -126 -28z" />
    <glyph glyph-name="tilde" unicode="&#x2dc;" horiz-adv-x="590" 
d="M149 616l-70 56q72 91 145 91q37 0 77 -25.5t62 -25.5q34 0 80 56l68 -55q-78 -97 -146 -97q-34 0 -75.5 25.5t-63.5 25.5q-38 0 -77 -51z" />
    <glyph glyph-name="hungarumlaut" unicode="&#x2dd;" horiz-adv-x="590" 
d="M83 615l126 169h135l-162 -169h-99zM331 615l126 169h135l-161 -169h-100z" />
    <glyph glyph-name="hookabovecomb" unicode="&#x309;" horiz-adv-x="590" 
d="M253 549q-5 38 5 61.5t44 44.5q28 17 36.5 25t8.5 22q0 32 -56 32q-49 0 -89 -20l-33 68q49 26 126 26q70 0 105.5 -25.5t35.5 -67.5q0 -35 -14.5 -55.5t-45.5 -38.5q-27 -17 -35.5 -30.5t-7.5 -41.5h-80z" />
    <glyph glyph-name="dotbelowcomb" unicode="&#x323;" horiz-adv-x="590" 
d="M236 -186v125h118v-125h-118z" />
    <glyph glyph-name="commaaccent" unicode="&#x326;" horiz-adv-x="266" 
d="M97 -287l-28 51q38 19 49.5 32.5t11.5 39.5h-60v125h125v-91q0 -69 -18.5 -99t-79.5 -58z" />
    <glyph glyph-name="uni0340" unicode="&#x340;" horiz-adv-x="590" 
d="M279 616l-181 171h141l146 -171h-106z" />
    <glyph glyph-name="uni0341" unicode="&#x341;" horiz-adv-x="590" 
d="M205 616l146 171h141l-181 -171h-106z" />
    <glyph glyph-name="tonos" unicode="&#x384;" horiz-adv-x="590" 
d="M238 615l73 169h108l-92 -169h-89z" />
    <glyph glyph-name="dieresistonos" unicode="&#x385;" horiz-adv-x="590" 
d="M99 615v118h85v-118h-85zM407 615v118h84v-118h-84zM222 615l67 169h103l-87 -169h-83z" />
    <glyph glyph-name="Alphatonos" unicode="&#x386;" horiz-adv-x="768" 
d="M42 575l73 169h108l-92 -169h-89zM29 0l297 746h124l298 -746h-125l-55 142h-363l-55 -142h-121zM247 254h278l-139 347z" />
    <glyph glyph-name="Epsilontonos" unicode="&#x388;" horiz-adv-x="861" 
d="M42 573l73 169h108l-92 -169h-89zM278 0v741h523v-116h-402v-186h392v-115h-392v-210h406v-114h-527z" />
    <glyph glyph-name="Etatonos" unicode="&#x389;" horiz-adv-x="994" 
d="M42 573l73 169h108l-92 -169h-89zM278 0v741h121v-298h392v298h121v-741h-121v323h-392v-323h-121z" />
    <glyph glyph-name="Iotatonos" unicode="&#x38a;" horiz-adv-x="495" 
d="M42 573l73 169h108l-92 -169h-89zM283 0v741h120v-741h-120z" />
    <glyph glyph-name="Omicrontonos" unicode="&#x38c;" horiz-adv-x="1000" 
d="M42 573l73 169h108l-92 -169h-89zM577 -12q-382 0 -382 383q0 382 382 382q383 0 383 -382q0 -383 -383 -383zM577 101q136 0 198.5 68t62.5 200q0 131 -62.5 199t-198.5 68q-260 0 -260 -267q0 -132 62.5 -200t197.5 -68z" />
    <glyph glyph-name="Upsilontonos" unicode="&#x38e;" horiz-adv-x="985" 
d="M42 573l73 169h108l-92 -169h-89zM559 0v273l-297 468h131l228 -358l229 358h125l-296 -466v-275h-120z" />
    <glyph glyph-name="Omegatonos" unicode="&#x38f;" horiz-adv-x="1018" 
d="M584 753q188 0 285.5 -92t97.5 -242q0 -117 -56 -192.5t-160 -97.5v-23h223v-106h-312v181q183 38 183 220q0 114 -66.5 177.5t-194.5 63.5t-195 -63.5t-67 -177.5q0 -182 183 -220v-181h-312v106h223v23q-104 23 -160 98t-56 192q0 150 97.5 242t286.5 92zM42 573
l73 169h108l-92 -169h-89z" />
    <glyph glyph-name="iotadieresistonos" unicode="&#x390;" horiz-adv-x="265" 
d="M-62 615v118h85v-118h-85zM246 615v118h84v-118h-84zM61 615l67 169h103l-87 -169h-83zM75 0v560h115v-560h-115z" />
    <glyph glyph-name="Alpha" unicode="&#x391;" horiz-adv-x="757" 
d="M19 0l297 746h124l298 -746h-125l-55 142h-363l-55 -142h-121zM237 254h278l-139 347z" />
    <glyph glyph-name="Beta" unicode="&#x392;" horiz-adv-x="729" 
d="M81 0v741h332q135 0 197 -44.5t62 -141.5q0 -132 -105 -167q65 -16 94.5 -60.5t29.5 -122.5q0 -114 -68 -159.5t-214 -45.5h-328zM200 107h222q77 0 112 25.5t35 83.5q0 57 -35 82t-113 25h-221v-216zM200 434h217q74 0 103 26t29 77q0 49 -30.5 72t-101.5 23h-217v-198z
" />
    <glyph glyph-name="Gamma" unicode="&#x393;" horiz-adv-x="626" 
d="M202 631v-631h-121v741h508v-110h-387z" />
    <glyph glyph-name="Delta" unicode="&#x394;" horiz-adv-x="757" 
d="M21 0l297 746h121l298 -746h-716zM177 100h396l-198 501z" />
    <glyph glyph-name="Delta" unicode="&#x2206;" horiz-adv-x="757" 
d="M21 0l297 746h121l298 -746h-716zM177 100h396l-198 501z" />
    <glyph glyph-name="Epsilon" unicode="&#x395;" horiz-adv-x="663" 
d="M81 0v741h523v-116h-402v-186h392v-115h-392v-210h406v-114h-527z" />
    <glyph glyph-name="Zeta" unicode="&#x396;" horiz-adv-x="678" 
d="M39 0v96l435 529h-418v116h570v-105l-432 -525h443v-111h-598z" />
    <glyph glyph-name="Eta" unicode="&#x397;" horiz-adv-x="796" 
d="M81 0v741h121v-298h392v298h121v-741h-121v323h-392v-323h-121z" />
    <glyph glyph-name="Theta" unicode="&#x398;" horiz-adv-x="843" 
d="M276 317v106h287v-106h-287zM421 -12q-382 0 -382 383q0 382 382 382q383 0 383 -382q0 -383 -383 -383zM421 101q136 0 198.5 68t62.5 200q0 131 -62.5 199t-198.5 68q-260 0 -260 -267q0 -132 62.5 -200t197.5 -68z" />
    <glyph glyph-name="Iota" unicode="&#x399;" horiz-adv-x="300" 
d="M90 0v741h120v-741h-120z" />
    <glyph glyph-name="Kappa" unicode="&#x39a;" horiz-adv-x="732" 
d="M562 0l-236 358l-126 -143v-215h-119v741h119v-370l325 370h139l-258 -293l294 -448h-138z" />
    <glyph glyph-name="Lambda" unicode="&#x39b;" horiz-adv-x="752" 
d="M439 746l294 -746h-127l-231 594l-229 -594h-127l296 746h124z" />
    <glyph glyph-name="Mu" unicode="&#x39c;" horiz-adv-x="946" 
d="M81 0v741h158l235 -569l235 569h156v-741h-119v538l-224 -538h-100l-224 537v-537h-117z" />
    <glyph glyph-name="Nu" unicode="&#x39d;" horiz-adv-x="801" 
d="M81 0v741h131l390 -535v535h118v-741h-111l-410 561v-561h-118z" />
    <glyph glyph-name="Xi" unicode="&#x39e;" horiz-adv-x="672" 
d="M60 625v116h552v-116h-552zM121 323v115h431v-115h-431zM52 0v114h568v-114h-568z" />
    <glyph glyph-name="Omicron" unicode="&#x39f;" horiz-adv-x="843" 
d="M421 -12q-382 0 -382 383q0 382 382 382q383 0 383 -382q0 -383 -383 -383zM421 101q136 0 198.5 68t62.5 200q0 131 -62.5 199t-198.5 68q-260 0 -260 -267q0 -132 62.5 -200t197.5 -68z" />
    <glyph glyph-name="Pi" unicode="&#x3a0;" horiz-adv-x="748" 
d="M81 0v741h586v-741h-121v633h-346v-633h-119z" />
    <glyph glyph-name="Rho" unicode="&#x3a1;" horiz-adv-x="733" 
d="M81 0v741h340q146 0 209.5 -59t63.5 -177q0 -122 -64.5 -187t-213.5 -65h-217v-253h-118zM199 363h222q78 0 115 31.5t37 104.5q0 74 -36 103t-118 29h-220v-268z" />
    <glyph glyph-name="Sigma" unicode="&#x3a3;" horiz-adv-x="658" 
d="M39 0v91l251 281l-240 269v100h549v-116h-385l225 -253l-230 -258h407v-114h-577z" />
    <glyph glyph-name="Tau" unicode="&#x3a4;" horiz-adv-x="697" 
d="M288 0v625h-267v116h656v-116h-267v-625h-122z" />
    <glyph glyph-name="Upsilon" unicode="&#x3a5;" horiz-adv-x="730" 
d="M305 0v273l-297 468h131l228 -358l229 358h125l-296 -466v-275h-120z" />
    <glyph glyph-name="Phi" unicode="&#x3a6;" horiz-adv-x="885" 
d="M383 0v50q-172 11 -265 91t-93 230q0 149 93 229t265 91v50h121v-50q171 -12 264.5 -92t93.5 -228q0 -149 -93.5 -229t-264.5 -91v-51h-121zM147 369q0 -189 236 -211v421q-236 -21 -236 -210zM740 369q0 189 -236 210v-421q236 22 236 211z" />
    <glyph glyph-name="Chi" unicode="&#x3a7;" horiz-adv-x="745" 
d="M576 0l-208 298l-200 -298h-135l271 389l-245 352h135l182 -261l176 261h135l-247 -352l273 -389h-137z" />
    <glyph glyph-name="Psi" unicode="&#x3a8;" horiz-adv-x="758" 
d="M318 0v263q-79 5 -130 22.5t-78 51.5t-37.5 75.5t-10.5 103.5v225h115v-227q0 -35 3 -54t15.5 -41.5t43 -34.5t79.5 -17v374h122v-374q49 5 79.5 17t43 35t15.5 42t3 55v225h115v-223q0 -62 -11 -104.5t-39 -76t-78.5 -51.5t-127.5 -23v-263h-122z" />
    <glyph glyph-name="Omega" unicode="&#x3a9;" horiz-adv-x="867" 
d="M434 753q188 0 285.5 -92t97.5 -242q0 -117 -56 -192.5t-160 -97.5v-23h223v-106h-312v181q183 38 183 220q0 114 -66.5 177.5t-194.5 63.5t-195 -63.5t-67 -177.5q0 -182 183 -220v-181h-312v106h223v23q-104 23 -160 98t-56 192q0 150 97.5 242t286.5 92z" />
    <glyph glyph-name="Omega" unicode="&#x2126;" horiz-adv-x="867" 
d="M434 753q188 0 285.5 -92t97.5 -242q0 -117 -56 -192.5t-160 -97.5v-23h223v-106h-312v181q183 38 183 220q0 114 -66.5 177.5t-194.5 63.5t-195 -63.5t-67 -177.5q0 -182 183 -220v-181h-312v106h223v23q-104 23 -160 98t-56 192q0 150 97.5 242t286.5 92z" />
    <glyph glyph-name="Iotadieresis" unicode="&#x3aa;" horiz-adv-x="300" 
d="M-11 793v121h106v-121h-106zM208 793v121h105v-121h-105zM90 0v741h120v-741h-120z" />
    <glyph glyph-name="Upsilondieresis" unicode="&#x3ab;" horiz-adv-x="730" 
d="M202 793v121h106v-121h-106zM421 793v121h105v-121h-105zM305 0v273l-297 468h131l228 -358l229 358h125l-296 -466v-275h-120z" />
    <glyph glyph-name="alphatonos" unicode="&#x3ac;" horiz-adv-x="683" 
d="M261 615l73 169h108l-92 -169h-89zM590 558v-397q0 -39 8.5 -49t44.5 -10v-101q-8 -2 -48 -2q-46 0 -71 12t-36 45q-27 -34 -73.5 -49.5t-131.5 -15.5q-132 0 -186.5 77t-54.5 215q0 137 55 213t190 76q156 0 200 -62l23 55zM309 96q90 0 127 43t37 144q0 99 -35.5 139
t-128.5 40q-85 0 -117 -45t-32 -134q0 -92 32.5 -139.5t116.5 -47.5z" />
    <glyph glyph-name="epsilontonos" unicode="&#x3ad;" horiz-adv-x="501" 
d="M214 615l73 169h108l-92 -169h-89zM258 -12q-117 0 -167 41.5t-50 130.5q0 60 22 93t72 45q-41 14 -59.5 43t-18.5 82q0 150 196 150q138 0 224 -64l-59 -83q-61 38 -149 38q-53 0 -75.5 -13t-22.5 -43q0 -32 22 -47t86 -15h80v-102h-77q-78 0 -103 -18t-25 -55
q0 -42 26 -59.5t88 -17.5q87 0 159 46l63 -82q-92 -70 -232 -70z" />
    <glyph glyph-name="etatonos" unicode="&#x3ae;" horiz-adv-x="642" 
d="M278 615l73 169h108l-92 -169h-89zM69 0v553l91 7l10 -49q51 62 205 62q63 0 104.5 -16t61.5 -49.5t27.5 -71.5t7.5 -96v-505h-116v482q0 36 -3.5 57.5t-15 42.5t-37.5 30.5t-68 9.5q-89 0 -119.5 -37.5t-30.5 -112.5v-307h-117z" />
    <glyph glyph-name="iotatonos" unicode="&#x3af;" horiz-adv-x="265" 
d="M86 615l73 169h108l-92 -169h-89zM75 0v560h115v-560h-115z" />
    <glyph glyph-name="upsilondieresistonos" unicode="&#x3b0;" horiz-adv-x="635" 
d="M121 615v118h85v-118h-85zM429 615v118h84v-118h-84zM244 615l67 169h103l-87 -169h-83zM319 -10q-80 0 -130 15t-77 49.5t-36.5 79t-9.5 114.5v312h116v-315q0 -32 1 -48.5t8 -39t21 -33.5t40.5 -19t66.5 -8t66.5 8.5t40 19t20.5 33.5t8 39t1 50v313h114v-310
q0 -71 -9 -115.5t-35 -79.5t-76 -50t-130 -15z" />
    <glyph glyph-name="alpha" unicode="&#x3b1;" horiz-adv-x="683" 
d="M590 558v-397q0 -39 8.5 -49t44.5 -10v-101q-8 -2 -48 -2q-46 0 -71 12t-36 45q-27 -34 -73.5 -49.5t-131.5 -15.5q-132 0 -186.5 77t-54.5 215q0 137 55 213t190 76q156 0 200 -62l23 55zM309 96q90 0 127 43t37 144q0 99 -35.5 139t-128.5 40q-85 0 -117 -45t-32 -134
q0 -92 32.5 -139.5t116.5 -47.5z" />
    <glyph glyph-name="beta" unicode="&#x3b2;" horiz-adv-x="671" 
d="M69 -165v694q0 253 265 253q245 0 245 -198q0 -75 -23.5 -116t-73.5 -60q79 -15 117 -58.5t38 -132.5q0 -58 -11.5 -95.5t-43.5 -66.5t-91 -42t-151 -13h-62v105h59q112 0 148.5 29.5t36.5 90.5q0 64 -43.5 90t-163.5 26v97q80 0 114.5 27t34.5 88q0 56 -30.5 83
t-101.5 27q-148 0 -148 -138v-690h-115z" />
    <glyph glyph-name="gamma" unicode="&#x3b3;" horiz-adv-x="578" 
d="M226 -5l-222 565h124l162 -426l163 426h121l-222 -565h-3v-161h-121v161h-2z" />
    <glyph glyph-name="delta" unicode="&#x3b4;" horiz-adv-x="646" 
d="M323 -11q-281 0 -281 271q0 263 271 269l-200 166v81h420v-99h-252l234 -199q89 -65 89 -218q0 -271 -281 -271zM323 94q164 0 164 162q0 168 -164 168t-164 -168q0 -162 164 -162z" />
    <glyph glyph-name="epsilon" unicode="&#x3b5;" horiz-adv-x="510" 
d="M258 -12q-117 0 -167 41.5t-50 130.5q0 60 22 93t72 45q-41 14 -59.5 43t-18.5 82q0 150 196 150q138 0 224 -64l-59 -83q-61 38 -149 38q-53 0 -75.5 -13t-22.5 -43q0 -32 22 -47t86 -15h80v-102h-77q-78 0 -103 -18t-25 -55q0 -42 26 -59.5t88 -17.5q87 0 159 46
l63 -82q-92 -70 -232 -70z" />
    <glyph glyph-name="zeta" unicode="&#x3b6;" horiz-adv-x="521" 
d="M317 -154q-70 0 -124 31l30 57q46 -24 90 -24q71 0 71 45q0 22 -18 31.5t-67 13.5q-257 12 -257 237q0 112 65 207.5t225 232.5h-289v99h443v-83q-131 -106 -204.5 -187.5t-98 -138t-24.5 -118.5q0 -137 152 -154q86 -9 120 -37.5t34 -85.5q0 -63 -34.5 -94.5
t-113.5 -31.5z" />
    <glyph glyph-name="eta" unicode="&#x3b7;" horiz-adv-x="642" 
d="M69 0v553l91 7l10 -49q51 62 205 62q63 0 104.5 -16t61.5 -49.5t27.5 -71.5t7.5 -96v-505h-116v482q0 36 -3.5 57.5t-15 42.5t-37.5 30.5t-68 9.5q-89 0 -119.5 -37.5t-30.5 -112.5v-307h-117z" />
    <glyph glyph-name="theta" unicode="&#x3b8;" horiz-adv-x="751" 
d="M376 -11q-86 0 -146.5 28t-94.5 82.5t-49 124t-15 162.5t15 162.5t49 123.5t94.5 82t146.5 28q165 0 234.5 -103t69.5 -293q0 -92 -15 -162t-49.5 -124.5t-94.5 -82.5t-145 -28zM376 677q-97 0 -138 -62t-46 -178h367q-6 116 -46.5 178t-136.5 62zM376 90
q95 0 135.5 62.5t46.5 177.5h-366q7 -116 47.5 -178t136.5 -62z" />
    <glyph glyph-name="iota" unicode="&#x3b9;" horiz-adv-x="265" 
d="M75 0v560h115v-560h-115z" />
    <glyph glyph-name="kappa" unicode="&#x3ba;" horiz-adv-x="573" 
d="M69 0v560h115v-269l228 269h129l-195 -232l214 -328h-129l-162 243l-85 -97v-146h-115z" />
    <glyph glyph-name="lambda" unicode="&#x3bb;" horiz-adv-x="576" 
d="M131 777q82 0 126 -29.5t71 -99.5l242 -648h-125l-156 437l-166 -437h-117l227 574l-24 62q-11 29 -28.5 39.5t-59.5 10.5h-42v89q26 2 52 2z" />
    <glyph glyph-name="uni03BC" unicode="&#x3bc;" horiz-adv-x="644" 
d="M272 -11q-54 0 -95 13v-167h-108v725h116v-318q0 -75 23.5 -110t100.5 -35q89 0 118.5 39t29.5 115v309h117v-555l-89 -9l-12 58q-52 -65 -201 -65z" />
    <glyph glyph-name="nu" unicode="&#x3bd;" horiz-adv-x="578" 
d="M226 -5l-222 565h124l162 -426l163 426h121l-222 -565h-126z" />
    <glyph glyph-name="xi" unicode="&#x3be;" horiz-adv-x="521" 
d="M317 -154q-70 0 -124 31l30 57q46 -24 90 -24q71 0 71 45q0 22 -18 31.5t-67 13.5q-140 5 -198.5 60t-58.5 156q0 168 171 197q-116 22 -116 138q0 45 21 78.5t56 47.5h-131v99h443v-99h-130q-147 0 -147 -112q0 -56 34.5 -83.5t132.5 -31.5v-82q-33 0 -41 -1
q-102 -4 -140 -36t-38 -94q0 -68 36 -101t118 -41q86 -8 120 -37t34 -86q0 -63 -34.5 -94.5t-113.5 -31.5z" />
    <glyph glyph-name="omicron" unicode="&#x3bf;" horiz-adv-x="646" 
d="M323 -11q-148 0 -214.5 73t-66.5 219t66.5 219t214.5 73t214.5 -73t66.5 -219t-66.5 -219t-214.5 -73zM323 94q89 0 126.5 46.5t37.5 137.5t-37.5 137t-126.5 46t-126.5 -46t-37.5 -137q0 -92 37.5 -138t126.5 -46z" />
    <glyph glyph-name="pi" unicode="&#x3c0;" horiz-adv-x="646" 
d="M69 0v560h508v-560h-116v457h-277v-457h-115z" />
    <glyph glyph-name="rho" unicode="&#x3c1;" horiz-adv-x="664" 
d="M356 96q83 0 115.5 45.5t32.5 135.5q0 91 -32 137.5t-116 46.5q-93 0 -131.5 -42t-38.5 -142t37.5 -140.5t132.5 -40.5zM349 573q83 0 138.5 -21t84 -63t39.5 -90.5t11 -117.5q0 -66 -11.5 -116t-38.5 -91t-76 -62t-119 -21q-150 0 -191 61v-217h-117l-1 446
q0 146 66.5 219t214.5 73z" />
    <glyph glyph-name="sigma1" unicode="&#x3c2;" horiz-adv-x="575" 
d="M337 -154q-71 0 -125 31l30 57q46 -24 90 -24q41 0 56 11.5t15 33.5q0 25 -17.5 32.5t-66.5 7.5q-156 0 -216.5 72t-60.5 213q0 69 12.5 119.5t43 91.5t87 61.5t139.5 20.5q137 0 214 -87l-85 -79q-53 53 -129 53q-90 0 -127.5 -44.5t-37.5 -137.5q0 -95 35.5 -139
t131.5 -48q83 -7 120.5 -31t37.5 -89q0 -61 -34 -93t-113 -32z" />
    <glyph glyph-name="sigma" unicode="&#x3c3;" horiz-adv-x="668" 
d="M323 -11q-148 0 -214.5 73t-66.5 219t66.5 219t214.5 73q85 0 144 -25h193v-102h-87q31 -65 31 -165q0 -146 -66.5 -219t-214.5 -73zM323 94q89 0 126.5 46.5t37.5 137.5t-37.5 137t-126.5 46t-126.5 -46t-37.5 -137q0 -92 37.5 -138t126.5 -46z" />
    <glyph glyph-name="tau" unicode="&#x3c4;" horiz-adv-x="552" 
d="M10 457v102h532v-102h-208v-457h-116v457h-208z" />
    <glyph glyph-name="upsilon" unicode="&#x3c5;" horiz-adv-x="635" 
d="M319 -10q-80 0 -130 15t-77 49.5t-36.5 79t-9.5 114.5v312h116v-315q0 -32 1 -48.5t8 -39t21 -33.5t40.5 -19t66.5 -8t66.5 8.5t40 19t20.5 33.5t8 39t1 50v313h114v-310q0 -71 -9 -115.5t-35 -79.5t-76 -50t-130 -15z" />
    <glyph glyph-name="phi" unicode="&#x3c6;" horiz-adv-x="758" 
d="M42 280q0 191 118 249l45 -101q-46 -42 -46 -150q0 -90 35 -134.5t122 -49.5v478h105h16h1q148 -4 212.5 -75.5t64.5 -216.5q0 -144 -64.5 -215.5t-212.5 -75.5v-154h-122v154q-146 5 -210 76.5t-64 214.5zM599 278q0 90 -35.5 133.5t-125.5 47.5v-365q89 4 125 48.5
t36 135.5z" />
    <glyph glyph-name="chi" unicode="&#x3c7;" horiz-adv-x="570" 
d="M427 0l-147 207l-141 -207h-127l207 293l-188 267h129l129 -183l125 183h126l-190 -269l207 -291h-130z" />
    <glyph glyph-name="psi" unicode="&#x3c8;" horiz-adv-x="763" 
d="M322 -165v154q-82 1 -133 17t-78 50.5t-36 77t-9 110.5v315h116v-317q0 -30 1 -45.5t8 -37.5t21.5 -32.5t42 -19.5t67.5 -10v462h121v-462q34 1 59 6t40 16.5t23.5 22t12.5 31t4.5 33t0.5 39.5v314h114v-312q0 -68 -9 -111t-36 -78t-78 -51.5t-131 -17.5v-154h-121z" />
    <glyph glyph-name="omega" unicode="&#x3c9;" horiz-adv-x="892" 
d="M503 501v-257q0 -84 28.5 -117t82.5 -33q58 0 84.5 35t26.5 115q0 118 -87 265l95 58q59 -98 83 -176t24 -162q0 -123 -57 -181.5t-155 -58.5q-79 0 -122.5 34t-60.5 107q-17 -73 -60 -107t-121 -34q-99 0 -155.5 58.5t-56.5 181.5q0 84 23.5 162.5t83.5 175.5l94 -58
q-86 -145 -86 -265q0 -80 26.5 -115t84.5 -35q54 0 82.5 33t28.5 117v257h114z" />
    <glyph glyph-name="iotadieresis" unicode="&#x3ca;" horiz-adv-x="265" 
d="M-11 624v122h95v-122h-95zM182 624v122h95v-122h-95zM75 0v560h115v-560h-115z" />
    <glyph glyph-name="upsilondieresis" unicode="&#x3cb;" horiz-adv-x="635" 
d="M155 619v121h106v-121h-106zM374 619v121h105v-121h-105zM319 -10q-80 0 -130 15t-77 49.5t-36.5 79t-9.5 114.5v312h116v-315q0 -32 1 -48.5t8 -39t21 -33.5t40.5 -19t66.5 -8t66.5 8.5t40 19t20.5 33.5t8 39t1 50v313h114v-310q0 -71 -9 -115.5t-35 -79.5t-76 -50
t-130 -15z" />
    <glyph glyph-name="omicrontonos" unicode="&#x3cc;" horiz-adv-x="646" 
d="M274 615l73 169h108l-92 -169h-89zM323 -11q-148 0 -214.5 73t-66.5 219t66.5 219t214.5 73t214.5 -73t66.5 -219t-66.5 -219t-214.5 -73zM323 94q89 0 126.5 46.5t37.5 137.5t-37.5 137t-126.5 46t-126.5 -46t-37.5 -137q0 -92 37.5 -138t126.5 -46z" />
    <glyph glyph-name="upsilontonos" unicode="&#x3cd;" horiz-adv-x="635" 
d="M269 615l73 169h108l-92 -169h-89zM319 -10q-80 0 -130 15t-77 49.5t-36.5 79t-9.5 114.5v312h116v-315q0 -32 1 -48.5t8 -39t21 -33.5t40.5 -19t66.5 -8t66.5 8.5t40 19t20.5 33.5t8 39t1 50v313h114v-310q0 -71 -9 -115.5t-35 -79.5t-76 -50t-130 -15z" />
    <glyph glyph-name="omegatonos" unicode="&#x3ce;" horiz-adv-x="895" 
d="M411 615l73 169h108l-92 -169h-89zM511 501v-257q0 -84 28.5 -117t82.5 -33q58 0 84.5 35t26.5 115q0 118 -87 265l95 58q59 -98 83 -176t24 -162q0 -123 -57 -181.5t-155 -58.5q-79 0 -122.5 34t-60.5 107q-17 -73 -60 -107t-121 -34q-99 0 -155.5 58.5t-56.5 181.5
q0 84 23.5 162.5t83.5 175.5l94 -58q-86 -145 -86 -265q0 -80 26.5 -115t84.5 -35q54 0 82.5 33t28.5 117v257h114z" />
    <glyph glyph-name="afii10023" unicode="&#x401;" horiz-adv-x="663" 
d="M168 786v121h106v-121h-106zM387 786v121h105v-121h-105zM81 0v741h523v-116h-402v-186h392v-115h-392v-210h406v-114h-527z" />
    <glyph glyph-name="afii10051" unicode="&#x402;" horiz-adv-x="876" 
d="M606 -168v94h10q40 1 51 16t11 63v256q0 37 -3 57.5t-14 42t-36.5 31t-67.5 9.5q-88 0 -117.5 -36.5t-29.5 -109.5v-255h-122v625h-267v116h656v-116h-267v-165q42 57 186 57q63 0 105 -16t63 -49t28.5 -72t7.5 -96v-278q0 -102 -35.5 -138t-136.5 -36h-22z" />
    <glyph glyph-name="afii10052" unicode="&#x403;" horiz-adv-x="603" 
d="M210 783l146 171h141l-181 -171h-106zM81 0v741h501v-116h-380v-625h-121z" />
    <glyph glyph-name="afii10053" unicode="&#x404;" horiz-adv-x="739" 
d="M411 -11q-190 0 -281 96.5t-91 285.5q0 192 97.5 287t274.5 95q181 0 282 -101l-83 -88q-77 72 -193 72q-226 0 -256 -202h412v-112h-414q23 -219 252 -219q74 0 121 19.5t87 56.5l79 -83q-105 -107 -287 -107z" />
    <glyph glyph-name="afii10054" unicode="&#x405;" horiz-adv-x="722" 
d="M361 -10q-198 0 -329 91l61 93q118 -78 265 -78q109 0 152.5 27t43.5 88q0 55 -45 76t-153 38q-61 9 -99.5 18t-77 25t-60 37.5t-34.5 55t-13 79.5q0 114 70 163.5t218 49.5q175 0 279 -70l-65 -99q-38 25 -96.5 41t-118.5 16q-92 0 -129.5 -23t-37.5 -75q0 -22 9 -38.5
t22.5 -26.5t41.5 -18.5t52 -13.5t69 -12q61 -10 96.5 -17.5t77 -23.5t63 -37t36.5 -56t15 -83q0 -115 -74 -171t-239 -56z" />
    <glyph glyph-name="afii10055" unicode="&#x406;" horiz-adv-x="300" 
d="M90 0v741h120v-741h-120z" />
    <glyph glyph-name="afii10056" unicode="&#x407;" horiz-adv-x="300" 
d="M90 0v741h120v-741h-120zM-11 786v121h106v-121h-106zM208 786v121h105v-121h-105z" />
    <glyph glyph-name="afii10057" unicode="&#x408;" horiz-adv-x="427" 
d="M118 -1q-61 0 -92 1v111h78q70 0 98.5 27t28.5 90v513h120v-518q0 -123 -58.5 -173.5t-174.5 -50.5z" />
    <glyph glyph-name="afii10058" unicode="&#x409;" horiz-adv-x="1286" 
d="M43 1v110h21q37 0 48 13t11 52v565h629v-262h221q147 0 210.5 -57.5t63.5 -175.5q0 -121 -64.5 -183.5t-213.5 -62.5h-335v627h-389v-473q0 -85 -33 -120t-107 -35q-48 0 -62 2zM752 107h222q78 0 115 30.5t37 102.5q0 73 -36.5 101.5t-118.5 28.5h-219v-263z" />
    <glyph glyph-name="afii10059" unicode="&#x40a;" horiz-adv-x="1246" 
d="M81 0v741h121v-298h392v298h118v-262h222q146 0 209.5 -57.5t63.5 -175.5q0 -121 -64.5 -183.5t-213.5 -62.5h-335v323h-392v-323h-121zM712 107h222q78 0 115 30.5t37 102.5q0 73 -36.5 101.5t-118.5 28.5h-219v-263z" />
    <glyph glyph-name="afii10060" unicode="&#x40b;" horiz-adv-x="876" 
d="M288 0v625h-267v116h656v-116h-267v-165q42 57 186 57q63 0 105 -16t63 -49t28.5 -72t7.5 -96v-284h-122v261q0 37 -3 57.5t-14 42t-36.5 31t-67.5 9.5q-88 0 -117.5 -36.5t-29.5 -109.5v-255h-122z" />
    <glyph glyph-name="afii10061" unicode="&#x40c;" horiz-adv-x="737" 
d="M275 784l146 171h141l-181 -171h-106zM563 0l-258 341h-104v-341h-119v741h119v-288h98l231 288h139l-273 -334l309 -407h-142z" />
    <glyph glyph-name="afii10062" unicode="&#x40e;" horiz-adv-x="706" 
d="M216 -1q-59 0 -73 1v108h53q43 0 59.5 9t30.5 40l15 33l-283 551h130l223 -439l204 439h123l-298 -612q-36 -75 -72 -102.5t-112 -27.5zM352 770q-97 0 -140.5 44.5t-60.5 130.5l85 17q11 -51 35.5 -74t80.5 -23t80 23t35 74l87 -16q-19 -87 -62 -131.5t-140 -44.5z" />
    <glyph glyph-name="afii10145" unicode="&#x40f;" horiz-adv-x="792" 
d="M335 -166v166h-254v741h121v-632h389v632h120v-741h-254v-166h-122z" />
    <glyph glyph-name="afii10017" unicode="&#x410;" horiz-adv-x="757" 
d="M19 0l297 746h124l298 -746h-125l-55 142h-363l-55 -142h-121zM237 254h278l-139 347z" />
    <glyph glyph-name="afii10018" unicode="&#x411;" horiz-adv-x="736" 
d="M81 0v741h522v-116h-407v-164h225q147 0 210 -53.5t63 -169.5q0 -120 -63.5 -179t-214.5 -59h-335zM196 106h225q80 0 116 27t36 98q0 73 -35 97.5t-119 24.5h-223v-247z" />
    <glyph glyph-name="afii10019" unicode="&#x412;" horiz-adv-x="729" 
d="M81 0v741h332q135 0 197 -44.5t62 -141.5q0 -132 -105 -167q65 -16 94.5 -60.5t29.5 -122.5q0 -114 -68 -159.5t-214 -45.5h-328zM200 107h222q77 0 112 25.5t35 83.5q0 57 -35 82t-113 25h-221v-216zM200 434h217q74 0 103 26t29 77q0 49 -30.5 72t-101.5 23h-217v-198z
" />
    <glyph glyph-name="afii10020" unicode="&#x413;" horiz-adv-x="603" 
d="M81 0v741h501v-116h-380v-625h-121z" />
    <glyph glyph-name="afii10021" unicode="&#x414;" horiz-adv-x="883" 
d="M45 -166v277h24q37 0 48.5 13.5t11.5 51.5v565h629v-630h80v-277h-122v166h-550v-166h-121zM230 108h406v519h-388v-456q0 -49 -18 -63z" />
    <glyph glyph-name="afii10022" unicode="&#x415;" horiz-adv-x="663" 
d="M81 0v741h523v-116h-402v-186h392v-115h-392v-210h406v-114h-527z" />
    <glyph glyph-name="afii10024" unicode="&#x416;" horiz-adv-x="1191" 
d="M1017 0l-258 341h-104v-341h-119v341h-105l-257 -341h-142l308 407l-272 334h139l231 -288h98v288h119v-288h98l231 288h139l-273 -334l309 -407h-142z" />
    <glyph glyph-name="afii10025" unicode="&#x417;" horiz-adv-x="688" 
d="M340 -12q-196 0 -320 75l58 102q116 -64 258 -64q108 0 150 23t42 97q0 63 -41.5 89t-165.5 26h-168v112h166q104 0 146 21.5t42 79.5q0 53 -39.5 71.5t-134.5 18.5q-59 0 -125.5 -14.5t-106.5 -37.5l-63 99q53 32 137.5 49.5t167.5 17.5q140 0 213 -40.5t73 -135.5
q0 -77 -20 -113t-72 -57q66 -25 89 -64.5t23 -129.5q0 -65 -22.5 -110t-65.5 -69.5t-96.5 -35t-124.5 -10.5z" />
    <glyph glyph-name="afii10026" unicode="&#x418;" horiz-adv-x="801" 
d="M81 0v741h115v-528l393 528h131v-741h-115v555l-413 -555h-111z" />
    <glyph glyph-name="afii10027" unicode="&#x419;" horiz-adv-x="801" 
d="M81 0v741h115v-528l393 528h131v-741h-115v555l-413 -555h-111zM399 770q-97 0 -140.5 44.5t-60.5 130.5l85 17q11 -51 35.5 -74t80.5 -23t80 23t35 74l87 -16q-19 -87 -62 -131.5t-140 -44.5z" />
    <glyph glyph-name="afii10028" unicode="&#x41a;" horiz-adv-x="737" 
d="M563 0l-258 341h-104v-341h-119v741h119v-288h98l231 288h139l-273 -334l309 -407h-142z" />
    <glyph glyph-name="afii10029" unicode="&#x41b;" horiz-adv-x="839" 
d="M45 1v110h22q37 0 48 13.5t11 51.5v565h632v-741h-122v627h-389v-473q0 -85 -33 -120t-107 -35q-46 0 -62 2z" />
    <glyph glyph-name="afii10030" unicode="&#x41c;" horiz-adv-x="946" 
d="M81 0v741h158l235 -569l235 569h156v-741h-119v538l-224 -538h-100l-224 537v-537h-117z" />
    <glyph glyph-name="afii10031" unicode="&#x41d;" horiz-adv-x="796" 
d="M81 0v741h121v-298h392v298h121v-741h-121v323h-392v-323h-121z" />
    <glyph glyph-name="afii10032" unicode="&#x41e;" horiz-adv-x="843" 
d="M421 -12q-382 0 -382 383q0 382 382 382q383 0 383 -382q0 -383 -383 -383zM421 101q136 0 198.5 68t62.5 200q0 131 -62.5 199t-198.5 68q-260 0 -260 -267q0 -132 62.5 -200t197.5 -68z" />
    <glyph glyph-name="afii10033" unicode="&#x41f;" horiz-adv-x="792" 
d="M81 0v741h630v-741h-121v627h-390v-627h-119z" />
    <glyph glyph-name="afii10034" unicode="&#x420;" horiz-adv-x="733" 
d="M81 0v741h340q146 0 209.5 -59t63.5 -177q0 -122 -64.5 -187t-213.5 -65h-217v-253h-118zM199 363h222q78 0 115 31.5t37 104.5q0 74 -36 103t-118 29h-220v-268z" />
    <glyph glyph-name="afii10035" unicode="&#x421;" horiz-adv-x="740" 
d="M412 -11q-193 0 -283 96t-90 286q0 193 97.5 287.5t282.5 94.5q172 0 275 -101l-88 -87q-76 71 -188 71q-257 0 -257 -266q0 -133 61.5 -200t196.5 -67q71 0 112.5 18.5t81.5 56.5l86 -82q-49 -50 -114.5 -78.5t-172.5 -28.5z" />
    <glyph glyph-name="afii10036" unicode="&#x422;" horiz-adv-x="697" 
d="M288 0v625h-267v116h656v-116h-267v-625h-122z" />
    <glyph glyph-name="afii10037" unicode="&#x423;" horiz-adv-x="706" 
d="M216 -1q-59 0 -73 1v108h53q43 0 59.5 9t30.5 40l15 33l-283 551h130l223 -439l204 439h123l-298 -612q-36 -75 -72 -102.5t-112 -27.5z" />
    <glyph glyph-name="afii10038" unicode="&#x424;" horiz-adv-x="915" 
d="M397 0v50q-172 11 -265 91t-93 230q0 149 93 229t265 91v50h121v-50q171 -12 264.5 -92t93.5 -228q0 -149 -93.5 -229t-264.5 -91v-51h-121zM161 369q0 -189 236 -211v421q-236 -21 -236 -210zM754 369q0 189 -236 210v-421q236 22 236 211z" />
    <glyph glyph-name="afii10039" unicode="&#x425;" horiz-adv-x="745" 
d="M576 0l-208 298l-200 -298h-135l271 389l-245 352h135l182 -261l176 261h135l-247 -352l273 -389h-137z" />
    <glyph glyph-name="afii10040" unicode="&#x426;" horiz-adv-x="838" 
d="M671 -166v166h-590v741h121v-632h389v632h120v-630h82v-277h-122z" />
    <glyph glyph-name="afii10041" unicode="&#x427;" horiz-adv-x="757" 
d="M555 0v284q-19 -29 -79.5 -50t-160.5 -21q-77 0 -129 17t-78.5 50.5t-37 74t-10.5 96.5v290h120v-264q0 -76 34.5 -111.5t139.5 -35.5q116 0 158.5 40.5t42.5 116.5v254h121v-741h-121z" />
    <glyph glyph-name="afii10042" unicode="&#x428;" horiz-adv-x="1191" 
d="M81 0v748h121v-639h333v639h122v-639h333v639h120v-748h-1029z" />
    <glyph glyph-name="afii10043" unicode="&#x429;" horiz-adv-x="1236" 
d="M1070 -166v166h-989v748h121v-639h333v639h122v-639h333v639h120v-637h81v-277h-121z" />
    <glyph glyph-name="afii10044" unicode="&#x42a;" horiz-adv-x="772" 
d="M120 0v625h-81v116h199v-262h222q146 0 209.5 -57.5t63.5 -175.5q0 -121 -64 -183.5t-214 -62.5h-335zM238 107h222q79 0 115.5 30.5t36.5 102.5q0 74 -36 102t-118 28h-220v-263z" />
    <glyph glyph-name="afii10045" unicode="&#x42b;" horiz-adv-x="962" 
d="M81 0v741h118v-262h222q146 0 209.5 -57.5t63.5 -175.5q0 -121 -64 -183.5t-214 -62.5h-335zM199 107h222q79 0 115.5 30.5t36.5 102.5q0 74 -36 102t-118 28h-220v-263zM761 0v741h121v-741h-121z" />
    <glyph glyph-name="afii10046" unicode="&#x42c;" horiz-adv-x="733" 
d="M81 0v741h118v-262h222q146 0 209.5 -57.5t63.5 -175.5q0 -121 -64 -183.5t-214 -62.5h-335zM199 107h222q79 0 115.5 30.5t36.5 102.5q0 74 -36 102t-118 28h-220v-263z" />
    <glyph glyph-name="afii10047" unicode="&#x42d;" horiz-adv-x="739" 
d="M328 -11q-182 0 -287 107l80 83q39 -37 86 -56.5t121 -19.5q229 0 250 219h-413v112h411q-30 202 -254 202q-116 0 -193 -72l-83 88q103 101 282 101q177 0 274.5 -95t97.5 -287q0 -189 -91 -285.5t-281 -96.5z" />
    <glyph glyph-name="afii10048" unicode="&#x42e;" horiz-adv-x="1129" 
d="M81 0v741h121v-304h131q30 316 373 316q384 0 384 -382q0 -383 -384 -383q-352 0 -375 335h-129v-323h-121zM706 101q136 0 198.5 68t62.5 200q0 131 -62.5 199t-198.5 68q-260 0 -260 -267q0 -132 62.5 -200t197.5 -68z" />
    <glyph glyph-name="afii10049" unicode="&#x42f;" horiz-adv-x="745" 
d="M66 0l160 280q-171 40 -171 230q0 114 62 172.5t208 58.5h339v-741h-119v270h-196l-153 -270h-130zM327 381h218v250h-215q-80 0 -116.5 -27.5t-36.5 -98.5q0 -70 37 -97t113 -27z" />
    <glyph glyph-name="afii10065" unicode="&#x430;" horiz-adv-x="633" 
d="M238 -10q-115 0 -159 45t-44 126q0 118 78.5 161.5t286.5 43.5h28q-2 54 -27 76t-104 22q-84 0 -162 -47l-61 91q35 24 99.5 44.5t135.5 20.5q73 0 118.5 -12t70.5 -41t33.5 -68t8.5 -103v-188q0 -39 8.5 -49t44.5 -10v-101q-8 -2 -48 -2q-44 0 -66 12t-33 46
q-50 -67 -208 -67zM258 90q90 0 130 36t40 115v29h-21q-110 0 -166.5 -10t-76 -30t-19.5 -60q0 -41 24.5 -60.5t88.5 -19.5z" />
    <glyph glyph-name="afii10066" unicode="&#x431;" horiz-adv-x="647" 
d="M324 -11q-145 0 -213.5 73t-68.5 235v105q0 112 21 186.5t65 115t99.5 56.5t135.5 16h89v-109h-84q-105 0 -157 -43.5t-52 -144.5q46 71 198 71q73 0 123 -21t76.5 -61t37 -88.5t10.5 -113.5q0 -277 -280 -277zM324 94q87 0 125 44t38 131t-38 129.5t-125 42.5
q-88 0 -126.5 -42.5t-38.5 -129.5t38.5 -131t126.5 -44z" />
    <glyph glyph-name="afii10067" unicode="&#x432;" horiz-adv-x="630" 
d="M69 0v560h282q113 0 164 -30.5t51 -105.5q0 -54 -15.5 -86t-55.5 -45q48 -12 67 -44t19 -95q0 -90 -54.5 -122t-178.5 -32h-279zM179 101h180q59 0 83.5 14.5t24.5 54.5q0 36 -25.5 51t-84.5 15h-178v-135zM179 335h175q56 0 77.5 16.5t21.5 48.5t-22 44.5t-77 12.5h-175
v-122z" />
    <glyph glyph-name="afii10068" unicode="&#x433;" horiz-adv-x="523" 
d="M69 0v560h431v-106h-314v-454h-117z" />
    <glyph glyph-name="afii10069" unicode="&#x434;" horiz-adv-x="755" 
d="M43 -166v269h21q37 0 48 13t11 52v392h508v-457h81v-269h-109v166h-451v-166h-109zM222 97h295v360h-277v-297q0 -46 -18 -63z" />
    <glyph glyph-name="afii10070" unicode="&#x435;" horiz-adv-x="606" 
d="M322 -11q-85 0 -142 22t-86 64.5t-40.5 91t-11.5 114.5q0 65 12 113.5t41 91t86 65t139 22.5q49 0 87.5 -9.5t64 -27t43.5 -42t26.5 -54t14 -63.5t5 -70.5t-0.5 -74.5h-405q6 -72 42.5 -107.5t124.5 -35.5q61 0 100 13.5t76 40.5l62 -81q-95 -73 -238 -73zM317 470
q-82 0 -118.5 -35t-43.5 -102h295q-2 37 -6 56.5t-17 41t-40 30.5t-70 9z" />
    <glyph glyph-name="afii10072" unicode="&#x436;" horiz-adv-x="907" 
d="M511 560v-209h69l161 209h134l-205 -258l224 -302h-136l-176 245h-71v-245h-115v245h-71l-176 -245h-136l224 302l-205 258h134l161 -209h69v209h115z" />
    <glyph glyph-name="afii10073" unicode="&#x437;" horiz-adv-x="584" 
d="M280 -12q-165 0 -262 58l51 93q87 -47 197 -47q91 0 121 13.5t30 64.5q0 46 -29.5 61t-132.5 15h-125v103h123q92 0 119.5 10.5t27.5 52.5q0 37 -27.5 46.5t-108.5 9.5q-108 0 -176 -38l-57 91q41 24 112.5 38t138.5 14q123 0 180 -30t57 -105q0 -59 -15.5 -88t-56.5 -42
q52 -12 69.5 -44.5t17.5 -103.5q0 -98 -62 -135t-192 -37z" />
    <glyph glyph-name="afii10074" unicode="&#x438;" horiz-adv-x="650" 
d="M69 0v560h113v-366l273 366h126v-560h-114v394l-292 -394h-106z" />
    <glyph glyph-name="afii10075" unicode="&#x439;" horiz-adv-x="650" 
d="M69 0v560h113v-366l273 366h126v-560h-114v394l-292 -394h-106zM324 603q-97 0 -140.5 44.5t-60.5 130.5l85 17q11 -51 35.5 -74t80.5 -23t80 23t35 74l87 -16q-19 -87 -62 -131.5t-140 -44.5z" />
    <glyph glyph-name="afii10076" unicode="&#x43a;" horiz-adv-x="580" 
d="M184 560v-209h69l161 209h134l-205 -258l224 -302h-136l-176 245h-71v-245h-115v560h115z" />
    <glyph glyph-name="afii10077" unicode="&#x43b;" horiz-adv-x="702" 
d="M43 1v102h21q38 0 49.5 13.5t11.5 51.5v392h508v-560h-116v457h-277v-303q0 -86 -31 -120.5t-104 -34.5q-48 0 -62 2z" />
    <glyph glyph-name="afii10078" unicode="&#x43c;" horiz-adv-x="777" 
d="M69 0v560h147l178 -406l178 406h145v-560h-116v379l-164 -379h-95l-164 380v-380h-109z" />
    <glyph glyph-name="afii10079" unicode="&#x43d;" horiz-adv-x="648" 
d="M69 0v560h117v-215h276v215h117v-560h-117v235h-276v-235h-117z" />
    <glyph glyph-name="afii10080" unicode="&#x43e;" horiz-adv-x="646" 
d="M323 -11q-148 0 -214.5 73t-66.5 219t66.5 219t214.5 73t214.5 -73t66.5 -219t-66.5 -219t-214.5 -73zM323 94q89 0 126.5 46.5t37.5 137.5t-37.5 137t-126.5 46t-126.5 -46t-37.5 -137q0 -92 37.5 -138t126.5 -46z" />
    <glyph glyph-name="afii10081" unicode="&#x43f;" horiz-adv-x="646" 
d="M69 0v560h508v-560h-116v457h-277v-457h-115z" />
    <glyph glyph-name="afii10082" unicode="&#x440;" horiz-adv-x="664" 
d="M69 -165v718l91 7l10 -54q48 67 213 67q69 0 117 -21.5t74 -62.5t37 -91t11 -117q0 -66 -11.5 -116t-38.5 -91t-76 -62t-119 -21q-150 0 -191 61v-217h-117zM356 96q83 0 115.5 45.5t32.5 135.5q0 91 -32 137.5t-116 46.5q-93 0 -131.5 -42t-38.5 -142t37.5 -140.5
t132.5 -40.5z" />
    <glyph glyph-name="afii10083" unicode="&#x441;" horiz-adv-x="575" 
d="M319 -10q-80 0 -135.5 21t-86 61.5t-43 90.5t-12.5 118t12.5 118t43 91t87.5 62t139 21q137 0 214 -87l-85 -80q-52 54 -129 54q-92 0 -128.5 -45.5t-36.5 -136.5q0 -92 36 -138t129 -46q75 0 135 56l78 -74q-48 -45 -96.5 -65.5t-121.5 -20.5z" />
    <glyph glyph-name="afii10084" unicode="&#x442;" horiz-adv-x="569" 
d="M226 0v454h-202v106h521v-106h-202v-454h-117z" />
    <glyph glyph-name="afii10085" unicode="&#x443;" horiz-adv-x="557" 
d="M129 -168q-39 0 -52 1v93h42q43 0 60.5 9t26.5 37l13 36l-215 552h124l154 -412l150 412h122l-233 -600q-26 -70 -68 -99t-124 -29z" />
    <glyph glyph-name="afii10086" unicode="&#x444;" horiz-adv-x="1068" 
d="M478 -165v218q-51 -63 -195 -63q-69 0 -117 21.5t-74.5 62.5t-38 91.5t-11.5 117.5q0 137 55 213.5t190 76.5q150 0 191 -61v264h111v-265q44 62 198 62q69 0 117 -21.5t74 -62.5t37 -91t11 -117q0 -66 -11.5 -116t-38.5 -91t-76 -62t-119 -21q-149 0 -192 61v-217h-111z
M309 96q92 0 130.5 43t38.5 144q0 99 -37 139t-132 40q-85 0 -117 -45t-32 -134q0 -92 32.5 -139.5t116.5 -47.5zM759 96q84 0 116.5 45.5t32.5 135.5t-32.5 137t-116.5 47q-92 0 -131 -42t-39 -142t37.5 -140.5t132.5 -40.5z" />
    <glyph glyph-name="afii10087" unicode="&#x445;" horiz-adv-x="570" 
d="M427 0l-147 207l-141 -207h-127l207 293l-188 267h129l129 -183l125 183h126l-190 -269l207 -291h-130z" />
    <glyph glyph-name="afii10088" unicode="&#x446;" horiz-adv-x="701" 
d="M548 -166v166h-479v560h117v-460h276v460h115v-457h81v-269h-110z" />
    <glyph glyph-name="afii10089" unicode="&#x447;" horiz-adv-x="637" 
d="M453 0v196q-42 -63 -195 -63q-64 0 -106 16t-63 49t-29 72t-8 96v194h116v-171q0 -71 24.5 -105.5t104.5 -34.5q89 0 122 38t33 112v161h116v-560h-115z" />
    <glyph glyph-name="afii10090" unicode="&#x448;" horiz-adv-x="1012" 
d="M69 0v560h117v-460h263v460h116v-460h263v460h114v-560h-873z" />
    <glyph glyph-name="afii10091" unicode="&#x449;" horiz-adv-x="1066" 
d="M914 -166v166h-845v560h117v-460h263v460h116v-460h263v460h114v-457h81v-269h-109z" />
    <glyph glyph-name="afii10092" unicode="&#x44a;" horiz-adv-x="681" 
d="M123 0v454h-80v106h196v-151h186q210 0 210 -200q0 -209 -214 -209h-298zM239 96h165q58 0 86 26t28 82q0 57 -27.5 81.5t-87.5 24.5h-164v-214z" />
    <glyph glyph-name="afii10093" unicode="&#x44b;" horiz-adv-x="820" 
d="M69 0v560h115v-151h187q210 0 210 -200q0 -209 -214 -209h-298zM184 96h166q58 0 85.5 26t27.5 82q0 57 -27.5 81.5t-87.5 24.5h-164v-214zM634 0v560h117v-560h-117z" />
    <glyph glyph-name="afii10094" unicode="&#x44c;" horiz-adv-x="627" 
d="M69 0v560h115v-150h187q210 0 210 -201q0 -209 -214 -209h-298zM184 96h166q58 0 85.5 26t27.5 82q0 57 -27.5 81.5t-87.5 24.5h-164v-214z" />
    <glyph glyph-name="afii10095" unicode="&#x44d;" horiz-adv-x="575" 
d="M256 -10q-73 0 -122 20.5t-98 65.5l73 73q59 -55 143 -55q83 0 120 32.5t44 106.5h-286v103h284q-8 67 -46 98.5t-116 31.5q-79 0 -135 -60l-79 80q75 87 216 87q82 0 138 -20.5t86 -61.5t42.5 -91t12.5 -119t-12.5 -119.5t-43 -90.5t-86 -60.5t-135.5 -20.5z" />
    <glyph glyph-name="afii10096" unicode="&#x44e;" horiz-adv-x="864" 
d="M69 0v560h117v-218h82q12 116 76.5 173.5t196.5 57.5q148 0 214.5 -72.5t66.5 -219.5t-66.5 -219.5t-214.5 -72.5q-136 0 -201 61.5t-73 186.5h-81v-237h-117zM541 94q90 0 127 45.5t37 138.5t-37 138t-127 45t-126.5 -45t-36.5 -138t36.5 -138.5t126.5 -45.5z" />
    <glyph glyph-name="afii10097" unicode="&#x44f;" horiz-adv-x="644" 
d="M59 0l111 195q-119 36 -119 177q0 95 53.5 141.5t162.5 46.5h308v-560h-116v183h-172l-103 -183h-125zM270 282h189v175h-187q-53 0 -77.5 -19t-24.5 -69q0 -49 24 -68t76 -19z" />
    <glyph glyph-name="afii10071" unicode="&#x451;" horiz-adv-x="606" 
d="M140 619v121h106v-121h-106zM359 619v121h105v-121h-105zM322 -11q-85 0 -142 22t-86 64.5t-40.5 91t-11.5 114.5q0 65 12 113.5t41 91t86 65t139 22.5q49 0 87.5 -9.5t64 -27t43.5 -42t26.5 -54t14 -63.5t5 -70.5t-0.5 -74.5h-405q6 -72 42.5 -107.5t124.5 -35.5
q61 0 100 13.5t76 40.5l62 -81q-95 -73 -238 -73zM317 470q-82 0 -118.5 -35t-43.5 -102h295q-2 37 -6 56.5t-17 41t-40 30.5t-70 9z" />
    <glyph glyph-name="afii10099" unicode="&#x452;" horiz-adv-x="647" 
d="M-4 601v105h78v70h116v-70h131v-105h-131v-101q42 56 190 56q63 0 104.5 -16t61.5 -49.5t27.5 -71.5t7.5 -96v-343q0 -84 -36 -116t-131 -32h-21v94h9q38 1 50 14.5t13 53.5v306q0 36 -3.5 57.5t-15 43t-37.5 31t-68 9.5q-89 0 -120 -38t-31 -113v-290h-116v601h-78z" />
    <glyph glyph-name="afii10100" unicode="&#x453;" horiz-adv-x="523" 
d="M173 616l146 171h141l-181 -171h-106zM69 0v560h431v-106h-314v-454h-117z" />
    <glyph glyph-name="afii10101" unicode="&#x454;" horiz-adv-x="575" 
d="M319 -10q-80 0 -135.5 20.5t-86 60.5t-43 90.5t-12.5 119.5q0 54 7.5 96.5t27 80t50.5 62.5t81 39t116 14q139 0 214 -87l-80 -80q-53 60 -134 60q-79 0 -117 -31t-47 -99h285v-103h-286q7 -74 44 -106.5t121 -32.5q82 0 141 55l72 -73q-48 -45 -96.5 -65.5t-121.5 -20.5
z" />
    <glyph glyph-name="afii10102" unicode="&#x455;" horiz-adv-x="548" 
d="M270 -10q-149 0 -250 68l60 90q88 -57 197 -57q70 0 97 14t27 55q0 33 -24.5 45.5t-98.5 24.5q-48 8 -76 14t-61 18.5t-50 30t-28.5 46.5t-11.5 68q0 83 53 124.5t174 41.5q134 0 220 -50l-55 -96q-71 38 -162 38q-66 0 -90.5 -14t-24.5 -44q0 -32 24 -45.5t91 -24.5
q53 -9 79 -14.5t61.5 -18t52 -28.5t28.5 -44t12 -66q0 -96 -56.5 -136t-187.5 -40z" />
    <glyph glyph-name="afii10103" unicode="&#x456;" horiz-adv-x="265" 
d="M75 0v560h115v-560h-115zM74 621v128h117v-128h-117z" />
    <glyph glyph-name="afii10104" unicode="&#x457;" horiz-adv-x="265" 
d="M-11 624v122h95v-122h-95zM182 624v122h95v-122h-95zM75 0v560h115v-560h-115z" />
    <glyph glyph-name="afii10105" unicode="&#x458;" horiz-adv-x="265" 
d="M2 -168v94h10q40 1 51.5 16t11.5 63v555h115v-554q0 -103 -33 -138.5t-133 -35.5h-22zM74 621v128h117v-128h-117z" />
    <glyph glyph-name="afii10106" unicode="&#x459;" horiz-adv-x="1068" 
d="M43 1v102h21q38 0 49.5 13.5t11.5 51.5v392h502v-151h185q210 0 210 -200q0 -97 -51 -153t-163 -56h-294v457h-274v-303q0 -86 -31 -120.5t-104 -34.5q-48 0 -62 2zM627 96h164q57 0 85 26t28 82q0 57 -27.5 81.5t-87.5 24.5h-162v-214z" />
    <glyph glyph-name="afii10107" unicode="&#x45a;" horiz-adv-x="1013" 
d="M69 0v560h117v-215h274v215h113v-151h185q209 0 209 -200q0 -209 -213 -209h-294v235h-274v-235h-117zM573 96h164q57 0 84.5 26t27.5 82q0 57 -27 81.5t-87 24.5h-162v-214z" />
    <glyph glyph-name="afii10108" unicode="&#x45b;" horiz-adv-x="647" 
d="M-4 601v105h78v70h116v-70h131v-105h-131v-101q42 56 190 56q63 0 104.5 -16t61.5 -49.5t27.5 -71.5t7.5 -96v-323h-116v300q0 36 -3.5 57.5t-15 43t-37.5 31t-68 9.5q-89 0 -120 -38t-31 -113v-290h-116v601h-78z" />
    <glyph glyph-name="afii10109" unicode="&#x45c;" horiz-adv-x="580" 
d="M184 560v-209h69l161 209h134l-205 -258l224 -302h-136l-176 245h-71v-245h-115v560h115zM232 616l146 171h141l-181 -171h-106z" />
    <glyph glyph-name="afii10110" unicode="&#x45e;" horiz-adv-x="557" 
d="M129 -168q-39 0 -52 1v93h42q43 0 60.5 9t26.5 37l13 36l-215 552h124l154 -412l150 412h122l-233 -600q-26 -70 -68 -99t-124 -29zM280 603q-97 0 -140.5 44.5t-60.5 130.5l85 17q11 -51 35.5 -74t80.5 -23t80 23t35 74l87 -16q-19 -87 -62 -131.5t-140 -44.5z" />
    <glyph glyph-name="afii10193" unicode="&#x45f;" horiz-adv-x="646" 
d="M268 -166v166h-199v560h117v-460h276v460h115v-560h-199v-166h-110z" />
    <glyph glyph-name="afii10050" unicode="&#x490;" horiz-adv-x="603" 
d="M81 0v741h379v166h122v-282h-380v-625h-121z" />
    <glyph glyph-name="afii10098" unicode="&#x491;" horiz-adv-x="523" 
d="M69 0v560h321v166h110v-272h-314v-454h-117z" />
    <glyph glyph-name="Wgrave" unicode="&#x1e80;" horiz-adv-x="1083" 
d="M260 -5l-233 746h126l167 -545l171 545h108l172 -545l166 545h119l-232 -746h-108l-174 550l-173 -550h-109zM528 784l-181 171h141l146 -171h-106z" />
    <glyph glyph-name="wgrave" unicode="&#x1e81;" horiz-adv-x="898" 
d="M203 -5l-192 565h122l132 -397l128 397h115l128 -396l132 396h119l-192 -565h-118l-128 389l-128 -389h-118zM432 616l-181 171h141l146 -171h-106z" />
    <glyph glyph-name="Wacute" unicode="&#x1e82;" horiz-adv-x="1083" 
d="M454 784l146 171h141l-181 -171h-106zM260 -5l-233 746h126l167 -545l171 545h108l172 -545l166 545h119l-232 -746h-108l-174 550l-173 -550h-109z" />
    <glyph glyph-name="wacute" unicode="&#x1e83;" horiz-adv-x="898" 
d="M358 616l146 171h141l-181 -171h-106zM203 -5l-192 565h122l132 -397l128 397h115l128 -396l132 396h119l-192 -565h-118l-128 389l-128 -389h-118z" />
    <glyph glyph-name="Wdieresis" unicode="&#x1e84;" horiz-adv-x="1083" 
d="M379 787v121h106v-121h-106zM598 787v121h105v-121h-105zM260 -5l-233 746h126l167 -545l171 545h108l172 -545l166 545h119l-232 -746h-108l-174 550l-173 -550h-109z" />
    <glyph glyph-name="wdieresis" unicode="&#x1e85;" horiz-adv-x="898" 
d="M286 619v121h106v-121h-106zM505 619v121h105v-121h-105zM203 -5l-192 565h122l132 -397l128 397h115l128 -396l132 396h119l-192 -565h-118l-128 389l-128 -389h-118z" />
    <glyph glyph-name="uni1EA0" unicode="&#x1ea0;" horiz-adv-x="757" 
d="M19 0l297 746h124l298 -746h-125l-55 142h-363l-55 -142h-121zM237 254h278l-139 347zM319 -186v125h118v-125h-118z" />
    <glyph glyph-name="uni1EA1" unicode="&#x1ea1;" horiz-adv-x="633" 
d="M238 -10q-115 0 -159 45t-44 126q0 118 78.5 161.5t286.5 43.5h28q-2 54 -27 76t-104 22q-84 0 -162 -47l-61 91q35 24 99.5 44.5t135.5 20.5q73 0 118.5 -12t70.5 -41t33.5 -68t8.5 -103v-188q0 -39 8.5 -49t44.5 -10v-101q-8 -2 -48 -2q-44 0 -66 12t-33 46
q-50 -67 -208 -67zM258 90q90 0 130 36t40 115v29h-21q-110 0 -166.5 -10t-76 -30t-19.5 -60q0 -41 24.5 -60.5t88.5 -19.5zM255 -186v125h118v-125h-118z" />
    <glyph glyph-name="uni1EA2" unicode="&#x1ea2;" horiz-adv-x="757" 
d="M19 0l297 746h124l298 -746h-125l-55 142h-363l-55 -142h-121zM237 254h278l-139 347zM338 772q-5 38 5 61.5t44 44.5q28 17 36.5 25t8.5 22q0 32 -56 32q-49 0 -89 -20l-33 68q49 26 126 26q70 0 105.5 -25.5t35.5 -67.5q0 -35 -14.5 -55.5t-45.5 -38.5
q-27 -17 -35.5 -30.5t-7.5 -41.5h-80z" />
    <glyph glyph-name="uni1EA3" unicode="&#x1ea3;" horiz-adv-x="633" 
d="M238 -10q-115 0 -159 45t-44 126q0 118 78.5 161.5t286.5 43.5h28q-2 54 -27 76t-104 22q-84 0 -162 -47l-61 91q35 24 99.5 44.5t135.5 20.5q73 0 118.5 -12t70.5 -41t33.5 -68t8.5 -103v-188q0 -39 8.5 -49t44.5 -10v-101q-8 -2 -48 -2q-44 0 -66 12t-33 46
q-50 -67 -208 -67zM258 90q90 0 130 36t40 115v29h-21q-110 0 -166.5 -10t-76 -30t-19.5 -60q0 -41 24.5 -60.5t88.5 -19.5zM269 606q-5 38 5 61.5t44 44.5q28 17 36.5 25t8.5 22q0 32 -56 32q-49 0 -89 -20l-33 68q49 26 126 26q70 0 105.5 -25.5t35.5 -67.5
q0 -35 -14.5 -55.5t-45.5 -38.5q-27 -17 -35.5 -30.5t-7.5 -41.5h-80z" />
    <glyph glyph-name="uni1EA4" unicode="&#x1ea4;" horiz-adv-x="757" 
d="M19 0l297 746h124l298 -746h-125l-55 142h-363l-55 -142h-121zM237 254h278l-139 347zM45 873l146 171h141l-181 -171h-106zM161 783l154 171h123l154 -171h-111l-106 95l-104 -95h-110z" />
    <glyph glyph-name="uni1EA5" unicode="&#x1ea5;" horiz-adv-x="633" 
d="M238 -10q-115 0 -159 45t-44 126q0 118 78.5 161.5t286.5 43.5h28q-2 54 -27 76t-104 22q-84 0 -162 -47l-61 91q35 24 99.5 44.5t135.5 20.5q73 0 118.5 -12t70.5 -41t33.5 -68t8.5 -103v-188q0 -39 8.5 -49t44.5 -10v-101q-8 -2 -48 -2q-44 0 -66 12t-33 46
q-50 -67 -208 -67zM258 90q90 0 130 36t40 115v29h-21q-110 0 -166.5 -10t-76 -30t-19.5 -60q0 -41 24.5 -60.5t88.5 -19.5zM-16 705l146 171h141l-181 -171h-106zM100 615l154 171h123l154 -171h-111l-106 95l-104 -95h-110z" />
    <glyph glyph-name="uni1EA6" unicode="&#x1ea6;" horiz-adv-x="757" 
d="M19 0l297 746h124l298 -746h-125l-55 142h-363l-55 -142h-121zM237 254h278l-139 347zM606 873l-181 171h141l146 -171h-106zM162 783l154 171h123l154 -171h-111l-106 95l-104 -95h-110z" />
    <glyph glyph-name="uni1EA7" unicode="&#x1ea7;" horiz-adv-x="633" 
d="M238 -10q-115 0 -159 45t-44 126q0 118 78.5 161.5t286.5 43.5h28q-2 54 -27 76t-104 22q-84 0 -162 -47l-61 91q35 24 99.5 44.5t135.5 20.5q73 0 118.5 -12t70.5 -41t33.5 -68t8.5 -103v-188q0 -39 8.5 -49t44.5 -10v-101q-8 -2 -48 -2q-44 0 -66 12t-33 46
q-50 -67 -208 -67zM258 90q90 0 130 36t40 115v29h-21q-110 0 -166.5 -10t-76 -30t-19.5 -60q0 -41 24.5 -60.5t88.5 -19.5zM545 705l-181 171h141l146 -171h-106zM101 615l154 171h123l154 -171h-111l-106 95l-104 -95h-110z" />
    <glyph glyph-name="uni1EA8" unicode="&#x1ea8;" horiz-adv-x="757" 
d="M19 0l297 746h124l298 -746h-125l-55 142h-363l-55 -142h-121zM237 254h278l-139 347zM337 979q-5 38 5 61.5t44 44.5q28 17 36.5 25t8.5 22q0 32 -56 32q-49 0 -89 -20l-33 68q49 26 126 26q70 0 105.5 -25.5t35.5 -67.5q0 -35 -14.5 -55.5t-45.5 -38.5
q-27 -17 -35.5 -30.5t-7.5 -41.5h-80zM161 783l154 171h123l154 -171h-111l-106 95l-104 -95h-110z" />
    <glyph glyph-name="uni1EA9" unicode="&#x1ea9;" horiz-adv-x="633" 
d="M238 -10q-115 0 -159 45t-44 126q0 118 78.5 161.5t286.5 43.5h28q-2 54 -27 76t-104 22q-84 0 -162 -47l-61 91q35 24 99.5 44.5t135.5 20.5q73 0 118.5 -12t70.5 -41t33.5 -68t8.5 -103v-188q0 -39 8.5 -49t44.5 -10v-101q-8 -2 -48 -2q-44 0 -66 12t-33 46
q-50 -67 -208 -67zM258 90q90 0 130 36t40 115v29h-21q-110 0 -166.5 -10t-76 -30t-19.5 -60q0 -41 24.5 -60.5t88.5 -19.5zM276 811q-5 38 5 61.5t44 44.5q28 17 36.5 25t8.5 22q0 32 -56 32q-49 0 -89 -20l-33 68q49 26 126 26q70 0 105.5 -25.5t35.5 -67.5
q0 -35 -14.5 -55.5t-45.5 -38.5q-27 -17 -35.5 -30.5t-7.5 -41.5h-80zM100 615l154 171h123l154 -171h-111l-106 95l-104 -95h-110z" />
    <glyph glyph-name="uni1EAA" unicode="&#x1eaa;" horiz-adv-x="757" 
d="M19 0l297 746h124l298 -746h-125l-55 142h-363l-55 -142h-121zM237 254h278l-139 347zM236 977l-70 56q72 91 145 91q37 0 77 -25.5t62 -25.5q34 0 80 56l68 -55q-78 -97 -146 -97q-34 0 -75.5 25.5t-63.5 25.5q-38 0 -77 -51zM161 783l154 171h123l154 -171h-111
l-106 95l-104 -95h-110z" />
    <glyph glyph-name="uni1EAB" unicode="&#x1eab;" horiz-adv-x="633" 
d="M238 -10q-115 0 -159 45t-44 126q0 118 78.5 161.5t286.5 43.5h28q-2 54 -27 76t-104 22q-84 0 -162 -47l-61 91q35 24 99.5 44.5t135.5 20.5q73 0 118.5 -12t70.5 -41t33.5 -68t8.5 -103v-188q0 -39 8.5 -49t44.5 -10v-101q-8 -2 -48 -2q-44 0 -66 12t-33 46
q-50 -67 -208 -67zM258 90q90 0 130 36t40 115v29h-21q-110 0 -166.5 -10t-76 -30t-19.5 -60q0 -41 24.5 -60.5t88.5 -19.5zM176 809l-70 56q72 91 145 91q37 0 77 -25.5t62 -25.5q34 0 80 56l68 -55q-78 -97 -146 -97q-34 0 -75.5 25.5t-63.5 25.5q-38 0 -77 -51zM101 615
l154 171h123l154 -171h-111l-106 95l-104 -95h-110z" />
    <glyph glyph-name="uni1EAC" unicode="&#x1eac;" horiz-adv-x="757" 
d="M19 0l297 746h124l298 -746h-125l-55 142h-363l-55 -142h-121zM237 254h278l-139 347zM161 784l154 171h123l154 -171h-111l-106 95l-104 -95h-110zM319 -186v125h118v-125h-118z" />
    <glyph glyph-name="uni1EAD" unicode="&#x1ead;" horiz-adv-x="633" 
d="M238 -10q-115 0 -159 45t-44 126q0 118 78.5 161.5t286.5 43.5h28q-2 54 -27 76t-104 22q-84 0 -162 -47l-61 91q35 24 99.5 44.5t135.5 20.5q73 0 118.5 -12t70.5 -41t33.5 -68t8.5 -103v-188q0 -39 8.5 -49t44.5 -10v-101q-8 -2 -48 -2q-44 0 -66 12t-33 46
q-50 -67 -208 -67zM258 90q90 0 130 36t40 115v29h-21q-110 0 -166.5 -10t-76 -30t-19.5 -60q0 -41 24.5 -60.5t88.5 -19.5zM101 616l154 171h123l154 -171h-111l-106 95l-104 -95h-110zM255 -186v125h118v-125h-118z" />
    <glyph glyph-name="uni1EAE" unicode="&#x1eae;" horiz-adv-x="757" 
d="M19 0l297 746h124l298 -746h-125l-55 142h-363l-55 -142h-121zM237 254h278l-139 347zM319 987l146 171h141l-181 -171h-106zM377 771q-97 0 -140.5 44.5t-60.5 130.5l85 17q11 -51 35.5 -74t80.5 -23t80 23t35 74l87 -16q-19 -87 -62 -131.5t-140 -44.5z" />
    <glyph glyph-name="uni1EAF" unicode="&#x1eaf;" horiz-adv-x="633" 
d="M238 -10q-115 0 -159 45t-44 126q0 118 78.5 161.5t286.5 43.5h28q-2 54 -27 76t-104 22q-84 0 -162 -47l-61 91q35 24 99.5 44.5t135.5 20.5q73 0 118.5 -12t70.5 -41t33.5 -68t8.5 -103v-188q0 -39 8.5 -49t44.5 -10v-101q-8 -2 -48 -2q-44 0 -66 12t-33 46
q-50 -67 -208 -67zM258 90q90 0 130 36t40 115v29h-21q-110 0 -166.5 -10t-76 -30t-19.5 -60q0 -41 24.5 -60.5t88.5 -19.5zM259 819l146 171h141l-181 -171h-106zM317 603q-97 0 -140.5 44.5t-60.5 130.5l85 17q11 -51 35.5 -74t80.5 -23t80 23t35 74l87 -16
q-19 -87 -62 -131.5t-140 -44.5z" />
    <glyph glyph-name="uni1EB0" unicode="&#x1eb0;" horiz-adv-x="757" 
d="M19 0l297 746h124l298 -746h-125l-55 142h-363l-55 -142h-121zM237 254h278l-139 347zM332 987l-181 171h141l146 -171h-106zM377 771q-97 0 -140.5 44.5t-60.5 130.5l85 17q11 -51 35.5 -74t80.5 -23t80 23t35 74l87 -16q-19 -87 -62 -131.5t-140 -44.5z" />
    <glyph glyph-name="uni1EB1" unicode="&#x1eb1;" horiz-adv-x="633" 
d="M238 -10q-115 0 -159 45t-44 126q0 118 78.5 161.5t286.5 43.5h28q-2 54 -27 76t-104 22q-84 0 -162 -47l-61 91q35 24 99.5 44.5t135.5 20.5q73 0 118.5 -12t70.5 -41t33.5 -68t8.5 -103v-188q0 -39 8.5 -49t44.5 -10v-101q-8 -2 -48 -2q-44 0 -66 12t-33 46
q-50 -67 -208 -67zM258 90q90 0 130 36t40 115v29h-21q-110 0 -166.5 -10t-76 -30t-19.5 -60q0 -41 24.5 -60.5t88.5 -19.5zM272 819l-181 171h141l146 -171h-106zM317 603q-97 0 -140.5 44.5t-60.5 130.5l85 17q11 -51 35.5 -74t80.5 -23t80 23t35 74l87 -16
q-19 -87 -62 -131.5t-140 -44.5z" />
    <glyph glyph-name="uni1EB2" unicode="&#x1eb2;" horiz-adv-x="757" 
d="M19 0l297 746h124l298 -746h-125l-55 142h-363l-55 -142h-121zM237 254h278l-139 347zM337 968q-5 38 5 61.5t44 44.5q28 17 36.5 25t8.5 22q0 32 -56 32q-49 0 -89 -20l-33 68q49 26 126 26q70 0 105.5 -25.5t35.5 -67.5q0 -35 -14.5 -55.5t-45.5 -38.5
q-27 -17 -35.5 -30.5t-7.5 -41.5h-80zM377 771q-97 0 -140.5 44.5t-60.5 130.5l85 17q11 -51 35.5 -74t80.5 -23t80 23t35 74l87 -16q-19 -87 -62 -131.5t-140 -44.5z" />
    <glyph glyph-name="uni1EB3" unicode="&#x1eb3;" horiz-adv-x="633" 
d="M238 -10q-115 0 -159 45t-44 126q0 118 78.5 161.5t286.5 43.5h28q-2 54 -27 76t-104 22q-84 0 -162 -47l-61 91q35 24 99.5 44.5t135.5 20.5q73 0 118.5 -12t70.5 -41t33.5 -68t8.5 -103v-188q0 -39 8.5 -49t44.5 -10v-101q-8 -2 -48 -2q-44 0 -66 12t-33 46
q-50 -67 -208 -67zM258 90q90 0 130 36t40 115v29h-21q-110 0 -166.5 -10t-76 -30t-19.5 -60q0 -41 24.5 -60.5t88.5 -19.5zM277 800q-5 38 5 61.5t44 44.5q28 17 36.5 25t8.5 22q0 32 -56 32q-49 0 -89 -20l-33 68q49 26 126 26q70 0 105.5 -25.5t35.5 -67.5
q0 -35 -14.5 -55.5t-45.5 -38.5q-27 -17 -35.5 -30.5t-7.5 -41.5h-80zM317 603q-97 0 -140.5 44.5t-60.5 130.5l85 17q11 -51 35.5 -74t80.5 -23t80 23t35 74l87 -16q-19 -87 -62 -131.5t-140 -44.5z" />
    <glyph glyph-name="uni1EB4" unicode="&#x1eb4;" horiz-adv-x="757" 
d="M19 0l297 746h124l298 -746h-125l-55 142h-363l-55 -142h-121zM237 254h278l-139 347zM236 996l-70 56q72 91 145 91q37 0 77 -25.5t62 -25.5q34 0 80 56l68 -55q-78 -97 -146 -97q-34 0 -75.5 25.5t-63.5 25.5q-38 0 -77 -51zM377 771q-97 0 -140.5 44.5t-60.5 130.5
l85 17q11 -51 35.5 -74t80.5 -23t80 23t35 74l87 -16q-19 -87 -62 -131.5t-140 -44.5z" />
    <glyph glyph-name="uni1EB5" unicode="&#x1eb5;" horiz-adv-x="633" 
d="M238 -10q-115 0 -159 45t-44 126q0 118 78.5 161.5t286.5 43.5h28q-2 54 -27 76t-104 22q-84 0 -162 -47l-61 91q35 24 99.5 44.5t135.5 20.5q73 0 118.5 -12t70.5 -41t33.5 -68t8.5 -103v-188q0 -39 8.5 -49t44.5 -10v-101q-8 -2 -48 -2q-44 0 -66 12t-33 46
q-50 -67 -208 -67zM258 90q90 0 130 36t40 115v29h-21q-110 0 -166.5 -10t-76 -30t-19.5 -60q0 -41 24.5 -60.5t88.5 -19.5zM176 828l-70 56q72 91 145 91q37 0 77 -25.5t62 -25.5q34 0 80 56l68 -55q-78 -97 -146 -97q-34 0 -75.5 25.5t-63.5 25.5q-38 0 -77 -51zM317 603
q-97 0 -140.5 44.5t-60.5 130.5l85 17q11 -51 35.5 -74t80.5 -23t80 23t35 74l87 -16q-19 -87 -62 -131.5t-140 -44.5z" />
    <glyph glyph-name="uni1EB6" unicode="&#x1eb6;" horiz-adv-x="757" 
d="M19 0l297 746h124l298 -746h-125l-55 142h-363l-55 -142h-121zM237 254h278l-139 347zM319 -186v125h118v-125h-118zM377 771q-97 0 -140.5 44.5t-60.5 130.5l85 17q11 -51 35.5 -74t80.5 -23t80 23t35 74l87 -16q-19 -87 -62 -131.5t-140 -44.5z" />
    <glyph glyph-name="uni1EB7" unicode="&#x1eb7;" horiz-adv-x="633" 
d="M238 -10q-115 0 -159 45t-44 126q0 118 78.5 161.5t286.5 43.5h28q-2 54 -27 76t-104 22q-84 0 -162 -47l-61 91q35 24 99.5 44.5t135.5 20.5q73 0 118.5 -12t70.5 -41t33.5 -68t8.5 -103v-188q0 -39 8.5 -49t44.5 -10v-101q-8 -2 -48 -2q-44 0 -66 12t-33 46
q-50 -67 -208 -67zM258 90q90 0 130 36t40 115v29h-21q-110 0 -166.5 -10t-76 -30t-19.5 -60q0 -41 24.5 -60.5t88.5 -19.5zM255 -186v125h118v-125h-118zM317 603q-97 0 -140.5 44.5t-60.5 130.5l85 17q11 -51 35.5 -74t80.5 -23t80 23t35 74l87 -16q-19 -87 -62 -131.5
t-140 -44.5z" />
    <glyph glyph-name="uni1EB8" unicode="&#x1eb8;" horiz-adv-x="663" 
d="M81 0v741h523v-116h-402v-186h392v-115h-392v-210h406v-114h-527zM290 -186v125h118v-125h-118z" />
    <glyph glyph-name="uni1EB9" unicode="&#x1eb9;" horiz-adv-x="606" 
d="M322 -11q-85 0 -142 22t-86 64.5t-40.5 91t-11.5 114.5q0 65 12 113.5t41 91t86 65t139 22.5q49 0 87.5 -9.5t64 -27t43.5 -42t26.5 -54t14 -63.5t5 -70.5t-0.5 -74.5h-405q6 -72 42.5 -107.5t124.5 -35.5q61 0 100 13.5t76 40.5l62 -81q-95 -73 -238 -73zM317 470
q-82 0 -118.5 -35t-43.5 -102h295q-2 37 -6 56.5t-17 41t-40 30.5t-70 9zM254 -186v125h118v-125h-118z" />
    <glyph glyph-name="uni1EBA" unicode="&#x1eba;" horiz-adv-x="663" 
d="M81 0v741h523v-116h-402v-186h392v-115h-392v-210h406v-114h-527zM309 772q-5 38 5 61.5t44 44.5q28 17 36.5 25t8.5 22q0 32 -56 32q-49 0 -89 -20l-33 68q49 26 126 26q70 0 105.5 -25.5t35.5 -67.5q0 -35 -14.5 -55.5t-45.5 -38.5q-27 -17 -35.5 -30.5t-7.5 -41.5h-80
z" />
    <glyph glyph-name="uni1EBB" unicode="&#x1ebb;" horiz-adv-x="606" 
d="M322 -11q-85 0 -142 22t-86 64.5t-40.5 91t-11.5 114.5q0 65 12 113.5t41 91t86 65t139 22.5q49 0 87.5 -9.5t64 -27t43.5 -42t26.5 -54t14 -63.5t5 -70.5t-0.5 -74.5h-405q6 -72 42.5 -107.5t124.5 -35.5q61 0 100 13.5t76 40.5l62 -81q-95 -73 -238 -73zM317 470
q-82 0 -118.5 -35t-43.5 -102h295q-2 37 -6 56.5t-17 41t-40 30.5t-70 9zM267 606q-5 38 5 61.5t44 44.5q28 17 36.5 25t8.5 22q0 32 -56 32q-49 0 -89 -20l-33 68q49 26 126 26q70 0 105.5 -25.5t35.5 -67.5q0 -35 -14.5 -55.5t-45.5 -38.5q-27 -17 -35.5 -30.5t-7.5 -41.5
h-80z" />
    <glyph glyph-name="uni1EBC" unicode="&#x1ebc;" horiz-adv-x="663" 
d="M81 0v741h523v-116h-402v-186h392v-115h-392v-210h406v-114h-527zM193 797l-70 56q72 91 145 91q37 0 77 -25.5t62 -25.5q34 0 80 56l68 -55q-78 -97 -146 -97q-34 0 -75.5 25.5t-63.5 25.5q-38 0 -77 -51z" />
    <glyph glyph-name="uni1EBD" unicode="&#x1ebd;" horiz-adv-x="606" 
d="M322 -11q-85 0 -142 22t-86 64.5t-40.5 91t-11.5 114.5q0 65 12 113.5t41 91t86 65t139 22.5q49 0 87.5 -9.5t64 -27t43.5 -42t26.5 -54t14 -63.5t5 -70.5t-0.5 -74.5h-405q6 -72 42.5 -107.5t124.5 -35.5q61 0 100 13.5t76 40.5l62 -81q-95 -73 -238 -73zM317 470
q-82 0 -118.5 -35t-43.5 -102h295q-2 37 -6 56.5t-17 41t-40 30.5t-70 9zM155 617l-70 56q72 91 145 91q37 0 77 -25.5t62 -25.5q34 0 80 56l68 -55q-78 -97 -146 -97q-34 0 -75.5 25.5t-63.5 25.5q-38 0 -77 -51z" />
    <glyph glyph-name="uni1EBE" unicode="&#x1ebe;" horiz-adv-x="663" 
d="M-2 873l146 171h141l-181 -171h-106zM114 783l154 171h123l154 -171h-111l-106 95l-104 -95h-110zM81 0v741h523v-116h-402v-186h392v-115h-392v-210h406v-114h-527z" />
    <glyph glyph-name="uni1EBF" unicode="&#x1ebf;" horiz-adv-x="606" 
d="M-30 705l146 171h141l-181 -171h-106zM86 615l154 171h123l154 -171h-111l-106 95l-104 -95h-110zM322 -11q-85 0 -142 22t-86 64.5t-40.5 91t-11.5 114.5q0 65 12 113.5t41 91t86 65t139 22.5q49 0 87.5 -9.5t64 -27t43.5 -42t26.5 -54t14 -63.5t5 -70.5t-0.5 -74.5
h-405q6 -72 42.5 -107.5t124.5 -35.5q61 0 100 13.5t76 40.5l62 -81q-95 -73 -238 -73zM317 470q-82 0 -118.5 -35t-43.5 -102h295q-2 37 -6 56.5t-17 41t-40 30.5t-70 9z" />
    <glyph glyph-name="uni1EC0" unicode="&#x1ec0;" horiz-adv-x="663" 
d="M559 873l-181 171h141l146 -171h-106zM115 783l154 171h123l154 -171h-111l-106 95l-104 -95h-110zM81 0v741h523v-116h-402v-186h392v-115h-392v-210h406v-114h-527z" />
    <glyph glyph-name="uni1EC1" unicode="&#x1ec1;" horiz-adv-x="606" 
d="M531 705l-181 171h141l146 -171h-106zM87 615l154 171h123l154 -171h-111l-106 95l-104 -95h-110zM322 -11q-85 0 -142 22t-86 64.5t-40.5 91t-11.5 114.5q0 65 12 113.5t41 91t86 65t139 22.5q49 0 87.5 -9.5t64 -27t43.5 -42t26.5 -54t14 -63.5t5 -70.5t-0.5 -74.5
h-405q6 -72 42.5 -107.5t124.5 -35.5q61 0 100 13.5t76 40.5l62 -81q-95 -73 -238 -73zM317 470q-82 0 -118.5 -35t-43.5 -102h295q-2 37 -6 56.5t-17 41t-40 30.5t-70 9z" />
    <glyph glyph-name="uni1EC2" unicode="&#x1ec2;" horiz-adv-x="663" 
d="M81 0v741h523v-116h-402v-186h392v-115h-392v-210h406v-114h-527zM292 979q-5 38 5 61.5t44 44.5q28 17 36.5 25t8.5 22q0 32 -56 32q-49 0 -89 -20l-33 68q49 26 126 26q70 0 105.5 -25.5t35.5 -67.5q0 -35 -14.5 -55.5t-45.5 -38.5q-27 -17 -35.5 -30.5t-7.5 -41.5h-80
zM116 783l154 171h123l154 -171h-111l-106 95l-104 -95h-110z" />
    <glyph glyph-name="uni1EC3" unicode="&#x1ec3;" horiz-adv-x="606" 
d="M322 -11q-85 0 -142 22t-86 64.5t-40.5 91t-11.5 114.5q0 65 12 113.5t41 91t86 65t139 22.5q49 0 87.5 -9.5t64 -27t43.5 -42t26.5 -54t14 -63.5t5 -70.5t-0.5 -74.5h-405q6 -72 42.5 -107.5t124.5 -35.5q61 0 100 13.5t76 40.5l62 -81q-95 -73 -238 -73zM317 470
q-82 0 -118.5 -35t-43.5 -102h295q-2 37 -6 56.5t-17 41t-40 30.5t-70 9zM262 811q-5 38 5 61.5t44 44.5q28 17 36.5 25t8.5 22q0 32 -56 32q-49 0 -89 -20l-33 68q49 26 126 26q70 0 105.5 -25.5t35.5 -67.5q0 -35 -14.5 -55.5t-45.5 -38.5q-27 -17 -35.5 -30.5t-7.5 -41.5
h-80zM86 615l154 171h123l154 -171h-111l-106 95l-104 -95h-110z" />
    <glyph glyph-name="uni1EC4" unicode="&#x1ec4;" horiz-adv-x="663" 
d="M81 0v741h523v-116h-402v-186h392v-115h-392v-210h406v-114h-527zM189 977l-70 56q72 91 145 91q37 0 77 -25.5t62 -25.5q34 0 80 56l68 -55q-78 -97 -146 -97q-34 0 -75.5 25.5t-63.5 25.5q-38 0 -77 -51zM114 783l154 171h123l154 -171h-111l-106 95l-104 -95h-110z
" />
    <glyph glyph-name="uni1EC5" unicode="&#x1ec5;" horiz-adv-x="606" 
d="M322 -11q-85 0 -142 22t-86 64.5t-40.5 91t-11.5 114.5q0 65 12 113.5t41 91t86 65t139 22.5q49 0 87.5 -9.5t64 -27t43.5 -42t26.5 -54t14 -63.5t5 -70.5t-0.5 -74.5h-405q6 -72 42.5 -107.5t124.5 -35.5q61 0 100 13.5t76 40.5l62 -81q-95 -73 -238 -73zM317 470
q-82 0 -118.5 -35t-43.5 -102h295q-2 37 -6 56.5t-17 41t-40 30.5t-70 9zM161 809l-70 56q72 91 145 91q37 0 77 -25.5t62 -25.5q34 0 80 56l68 -55q-78 -97 -146 -97q-34 0 -75.5 25.5t-63.5 25.5q-38 0 -77 -51zM86 615l154 171h123l154 -171h-111l-106 95l-104 -95h-110z
" />
    <glyph glyph-name="uni1EC6" unicode="&#x1ec6;" horiz-adv-x="663" 
d="M114 784l154 171h123l154 -171h-111l-106 95l-104 -95h-110zM81 0v741h523v-116h-402v-186h392v-115h-392v-210h406v-114h-527zM290 -186v125h118v-125h-118z" />
    <glyph glyph-name="uni1EC7" unicode="&#x1ec7;" horiz-adv-x="606" 
d="M86 616l154 171h123l154 -171h-111l-106 95l-104 -95h-110zM322 -11q-85 0 -142 22t-86 64.5t-40.5 91t-11.5 114.5q0 65 12 113.5t41 91t86 65t139 22.5q49 0 87.5 -9.5t64 -27t43.5 -42t26.5 -54t14 -63.5t5 -70.5t-0.5 -74.5h-405q6 -72 42.5 -107.5t124.5 -35.5
q61 0 100 13.5t76 40.5l62 -81q-95 -73 -238 -73zM317 470q-82 0 -118.5 -35t-43.5 -102h295q-2 37 -6 56.5t-17 41t-40 30.5t-70 9zM254 -186v125h118v-125h-118z" />
    <glyph glyph-name="uni1EC8" unicode="&#x1ec8;" horiz-adv-x="300" 
d="M90 0v741h120v-741h-120zM111 772q-5 38 5 61.5t44 44.5q28 17 36.5 25t8.5 22q0 32 -56 32q-49 0 -89 -20l-33 68q49 26 126 26q70 0 105.5 -25.5t35.5 -67.5q0 -35 -14.5 -55.5t-45.5 -38.5q-27 -17 -35.5 -30.5t-7.5 -41.5h-80z" />
    <glyph glyph-name="uni1EC9" unicode="&#x1ec9;" horiz-adv-x="265" 
d="M75 0v560h115v-560h-115zM94 606q-5 38 5 61.5t44 44.5q28 17 36.5 25t8.5 22q0 32 -56 32q-49 0 -89 -20l-33 68q49 26 126 26q70 0 105.5 -25.5t35.5 -67.5q0 -35 -14.5 -55.5t-45.5 -38.5q-27 -17 -35.5 -30.5t-7.5 -41.5h-80z" />
    <glyph glyph-name="uni1ECA" unicode="&#x1eca;" horiz-adv-x="300" 
d="M90 0v741h120v-741h-120zM92 -186v125h118v-125h-118z" />
    <glyph glyph-name="uni1ECB" unicode="&#x1ecb;" horiz-adv-x="265" 
d="M75 0v560h115v-560h-115zM74 621v128h117v-128h-117zM75 -186v125h118v-125h-118z" />
    <glyph glyph-name="uni1ECC" unicode="&#x1ecc;" horiz-adv-x="843" 
d="M421 -12q-382 0 -382 383q0 382 382 382q383 0 383 -382q0 -383 -383 -383zM421 101q136 0 198.5 68t62.5 200q0 131 -62.5 199t-198.5 68q-260 0 -260 -267q0 -132 62.5 -200t197.5 -68zM365 -186v125h118v-125h-118z" />
    <glyph glyph-name="uni1ECD" unicode="&#x1ecd;" horiz-adv-x="646" 
d="M323 -11q-148 0 -214.5 73t-66.5 219t66.5 219t214.5 73t214.5 -73t66.5 -219t-66.5 -219t-214.5 -73zM323 94q89 0 126.5 46.5t37.5 137.5t-37.5 137t-126.5 46t-126.5 -46t-37.5 -137q0 -92 37.5 -138t126.5 -46zM264 -186v125h118v-125h-118z" />
    <glyph glyph-name="uni1ECE" unicode="&#x1ece;" horiz-adv-x="843" 
d="M421 -12q-382 0 -382 383q0 382 382 382q383 0 383 -382q0 -383 -383 -383zM421 101q136 0 198.5 68t62.5 200q0 131 -62.5 199t-198.5 68q-260 0 -260 -267q0 -132 62.5 -200t197.5 -68zM379 782q-5 38 5 61.5t44 44.5q28 17 36.5 25t8.5 22q0 32 -56 32q-49 0 -89 -20
l-33 68q49 26 126 26q70 0 105.5 -25.5t35.5 -67.5q0 -35 -14.5 -55.5t-45.5 -38.5q-27 -17 -35.5 -30.5t-7.5 -41.5h-80z" />
    <glyph glyph-name="uni1ECF" unicode="&#x1ecf;" horiz-adv-x="646" 
d="M323 -11q-148 0 -214.5 73t-66.5 219t66.5 219t214.5 73t214.5 -73t66.5 -219t-66.5 -219t-214.5 -73zM323 94q89 0 126.5 46.5t37.5 137.5t-37.5 137t-126.5 46t-126.5 -46t-37.5 -137q0 -92 37.5 -138t126.5 -46zM281 606q-5 38 5 61.5t44 44.5q28 17 36.5 25t8.5 22
q0 32 -56 32q-49 0 -89 -20l-33 68q49 26 126 26q70 0 105.5 -25.5t35.5 -67.5q0 -35 -14.5 -55.5t-45.5 -38.5q-27 -17 -35.5 -30.5t-7.5 -41.5h-80z" />
    <glyph glyph-name="uni1ED0" unicode="&#x1ed0;" horiz-adv-x="843" 
d="M88 873l146 171h141l-181 -171h-106zM204 783l154 171h123l154 -171h-111l-106 95l-104 -95h-110zM421 -12q-382 0 -382 383q0 382 382 382q383 0 383 -382q0 -383 -383 -383zM421 101q136 0 198.5 68t62.5 200q0 131 -62.5 199t-198.5 68q-260 0 -260 -267
q0 -132 62.5 -200t197.5 -68z" />
    <glyph glyph-name="uni1ED1" unicode="&#x1ed1;" horiz-adv-x="646" 
d="M-10 705l146 171h141l-181 -171h-106zM106 615l154 171h123l154 -171h-111l-106 95l-104 -95h-110zM323 -11q-148 0 -214.5 73t-66.5 219t66.5 219t214.5 73t214.5 -73t66.5 -219t-66.5 -219t-214.5 -73zM323 94q89 0 126.5 46.5t37.5 137.5t-37.5 137t-126.5 46
t-126.5 -46t-37.5 -137q0 -92 37.5 -138t126.5 -46z" />
    <glyph glyph-name="uni1ED2" unicode="&#x1ed2;" horiz-adv-x="843" 
d="M649 873l-181 171h141l146 -171h-106zM205 783l154 171h123l154 -171h-111l-106 95l-104 -95h-110zM421 -12q-382 0 -382 383q0 382 382 382q383 0 383 -382q0 -383 -383 -383zM421 101q136 0 198.5 68t62.5 200q0 131 -62.5 199t-198.5 68q-260 0 -260 -267
q0 -132 62.5 -200t197.5 -68z" />
    <glyph glyph-name="uni1ED3" unicode="&#x1ed3;" horiz-adv-x="646" 
d="M551 705l-181 171h141l146 -171h-106zM107 615l154 171h123l154 -171h-111l-106 95l-104 -95h-110zM323 -11q-148 0 -214.5 73t-66.5 219t66.5 219t214.5 73t214.5 -73t66.5 -219t-66.5 -219t-214.5 -73zM323 94q89 0 126.5 46.5t37.5 137.5t-37.5 137t-126.5 46
t-126.5 -46t-37.5 -137q0 -92 37.5 -138t126.5 -46z" />
    <glyph glyph-name="uni1ED4" unicode="&#x1ed4;" horiz-adv-x="843" 
d="M381 979q-5 38 5 61.5t44 44.5q28 17 36.5 25t8.5 22q0 32 -56 32q-49 0 -89 -20l-33 68q49 26 126 26q70 0 105.5 -25.5t35.5 -67.5q0 -35 -14.5 -55.5t-45.5 -38.5q-27 -17 -35.5 -30.5t-7.5 -41.5h-80zM205 783l154 171h123l154 -171h-111l-106 95l-104 -95h-110z
M421 -12q-382 0 -382 383q0 382 382 382q383 0 383 -382q0 -383 -383 -383zM421 101q136 0 198.5 68t62.5 200q0 131 -62.5 199t-198.5 68q-260 0 -260 -267q0 -132 62.5 -200t197.5 -68z" />
    <glyph glyph-name="uni1ED5" unicode="&#x1ed5;" horiz-adv-x="646" 
d="M281 811q-5 38 5 61.5t44 44.5q28 17 36.5 25t8.5 22q0 32 -56 32q-49 0 -89 -20l-33 68q49 26 126 26q70 0 105.5 -25.5t35.5 -67.5q0 -35 -14.5 -55.5t-45.5 -38.5q-27 -17 -35.5 -30.5t-7.5 -41.5h-80zM105 615l154 171h123l154 -171h-111l-106 95l-104 -95h-110z
M323 -11q-148 0 -214.5 73t-66.5 219t66.5 219t214.5 73t214.5 -73t66.5 -219t-66.5 -219t-214.5 -73zM323 94q89 0 126.5 46.5t37.5 137.5t-37.5 137t-126.5 46t-126.5 -46t-37.5 -137q0 -92 37.5 -138t126.5 -46z" />
    <glyph glyph-name="uni1ED6" unicode="&#x1ed6;" horiz-adv-x="843" 
d="M421 -12q-382 0 -382 383q0 382 382 382q383 0 383 -382q0 -383 -383 -383zM421 101q136 0 198.5 68t62.5 200q0 131 -62.5 199t-198.5 68q-260 0 -260 -267q0 -132 62.5 -200t197.5 -68zM280 977l-70 56q72 91 145 91q37 0 77 -25.5t62 -25.5q34 0 80 56l68 -55
q-78 -97 -146 -97q-34 0 -75.5 25.5t-63.5 25.5q-38 0 -77 -51zM205 783l154 171h123l154 -171h-111l-106 95l-104 -95h-110z" />
    <glyph glyph-name="uni1ED7" unicode="&#x1ed7;" horiz-adv-x="646" 
d="M323 -11q-148 0 -214.5 73t-66.5 219t66.5 219t214.5 73t214.5 -73t66.5 -219t-66.5 -219t-214.5 -73zM323 94q89 0 126.5 46.5t37.5 137.5t-37.5 137t-126.5 46t-126.5 -46t-37.5 -137q0 -92 37.5 -138t126.5 -46zM181 809l-70 56q72 91 145 91q37 0 77 -25.5t62 -25.5
q34 0 80 56l68 -55q-78 -97 -146 -97q-34 0 -75.5 25.5t-63.5 25.5q-38 0 -77 -51zM106 615l154 171h123l154 -171h-111l-106 95l-104 -95h-110z" />
    <glyph glyph-name="uni1ED8" unicode="&#x1ed8;" horiz-adv-x="843" 
d="M205 784l154 171h123l154 -171h-111l-106 95l-104 -95h-110zM362 -186v125h118v-125h-118zM421 -12q-382 0 -382 383q0 382 382 382q383 0 383 -382q0 -383 -383 -383zM421 101q136 0 198.5 68t62.5 200q0 131 -62.5 199t-198.5 68q-260 0 -260 -267q0 -132 62.5 -200
t197.5 -68z" />
    <glyph glyph-name="uni1ED9" unicode="&#x1ed9;" horiz-adv-x="646" 
d="M106 616l154 171h123l154 -171h-111l-106 95l-104 -95h-110zM264 -186v125h118v-125h-118zM323 -11q-148 0 -214.5 73t-66.5 219t66.5 219t214.5 73t214.5 -73t66.5 -219t-66.5 -219t-214.5 -73zM323 94q89 0 126.5 46.5t37.5 137.5t-37.5 137t-126.5 46t-126.5 -46
t-37.5 -137q0 -92 37.5 -138t126.5 -46z" />
    <glyph glyph-name="uni1EDA" unicode="&#x1eda;" horiz-adv-x="843" 
d="M331 784l146 171h141l-181 -171h-106zM421 -12q-382 0 -382 383q0 382 382 382q141 0 232 -53q37 1 53.5 18.5t17.5 39.5h-54v124h118v-113q0 -87 -75 -117q91 -96 91 -281q0 -383 -383 -383zM421 101q136 0 198.5 68t62.5 200q0 131 -62.5 199t-198.5 68
q-260 0 -260 -267q0 -132 62.5 -200t197.5 -68z" />
    <glyph glyph-name="uni1EDB" unicode="&#x1edb;" horiz-adv-x="657" 
d="M202 616l146 171h141l-181 -171h-106zM323 -11q-148 0 -214.5 73t-66.5 219t66.5 219t214.5 73q106 0 172 -40q61 6 65 57h-56v124h119v-112q0 -87 -72 -118q53 -69 53 -203q0 -146 -66.5 -219t-214.5 -73zM323 94q89 0 126.5 46.5t37.5 137.5t-37.5 137t-126.5 46
t-126.5 -46t-37.5 -137q0 -92 37.5 -138t126.5 -46z" />
    <glyph glyph-name="uni1EDC" unicode="&#x1edc;" horiz-adv-x="843" 
d="M421 -12q-382 0 -382 383q0 382 382 382q141 0 232 -53q37 1 53.5 18.5t17.5 39.5h-54v124h118v-113q0 -87 -75 -117q91 -96 91 -281q0 -383 -383 -383zM421 101q136 0 198.5 68t62.5 200q0 131 -62.5 199t-198.5 68q-260 0 -260 -267q0 -132 62.5 -200t197.5 -68z
M405 784l-181 171h141l146 -171h-106z" />
    <glyph glyph-name="uni1EDD" unicode="&#x1edd;" horiz-adv-x="657" 
d="M323 -11q-148 0 -214.5 73t-66.5 219t66.5 219t214.5 73q106 0 172 -40q61 6 65 57h-56v124h119v-112q0 -87 -72 -118q53 -69 53 -203q0 -146 -66.5 -219t-214.5 -73zM323 94q89 0 126.5 46.5t37.5 137.5t-37.5 137t-126.5 46t-126.5 -46t-37.5 -137q0 -92 37.5 -138
t126.5 -46zM306 616l-181 171h141l146 -171h-106z" />
    <glyph glyph-name="uni1EDE" unicode="&#x1ede;" horiz-adv-x="843" 
d="M421 -12q-382 0 -382 383q0 382 382 382q141 0 232 -53q37 1 53.5 18.5t17.5 39.5h-54v124h118v-113q0 -87 -75 -117q91 -96 91 -281q0 -383 -383 -383zM421 101q136 0 198.5 68t62.5 200q0 131 -62.5 199t-198.5 68q-260 0 -260 -267q0 -132 62.5 -200t197.5 -68z
M377 782q-5 38 5 61.5t44 44.5q28 17 36.5 25t8.5 22q0 32 -56 32q-49 0 -89 -20l-33 68q49 26 126 26q70 0 105.5 -25.5t35.5 -67.5q0 -35 -14.5 -55.5t-45.5 -38.5q-27 -17 -35.5 -30.5t-7.5 -41.5h-80z" />
    <glyph glyph-name="uni1EDF" unicode="&#x1edf;" horiz-adv-x="657" 
d="M323 -11q-148 0 -214.5 73t-66.5 219t66.5 219t214.5 73q106 0 172 -40q61 6 65 57h-56v124h119v-112q0 -87 -72 -118q53 -69 53 -203q0 -146 -66.5 -219t-214.5 -73zM323 94q89 0 126.5 46.5t37.5 137.5t-37.5 137t-126.5 46t-126.5 -46t-37.5 -137q0 -92 37.5 -138
t126.5 -46zM264 606q-5 38 5 61.5t44 44.5q28 17 36.5 25t8.5 22q0 32 -56 32q-49 0 -89 -20l-33 68q49 26 126 26q70 0 105.5 -25.5t35.5 -67.5q0 -35 -14.5 -55.5t-45.5 -38.5q-27 -17 -35.5 -30.5t-7.5 -41.5h-80z" />
    <glyph glyph-name="uni1EE0" unicode="&#x1ee0;" horiz-adv-x="843" 
d="M421 -12q-382 0 -382 383q0 382 382 382q141 0 232 -53q37 1 53.5 18.5t17.5 39.5h-54v124h118v-113q0 -87 -75 -117q91 -96 91 -281q0 -383 -383 -383zM421 101q136 0 198.5 68t62.5 200q0 131 -62.5 199t-198.5 68q-260 0 -260 -267q0 -132 62.5 -200t197.5 -68z
M253 784l-70 56q72 91 145 91q37 0 77 -25.5t62 -25.5q34 0 80 56l68 -55q-78 -97 -146 -97q-34 0 -75.5 25.5t-63.5 25.5q-38 0 -77 -51z" />
    <glyph glyph-name="uni1EE1" unicode="&#x1ee1;" horiz-adv-x="657" 
d="M623 714v-112q0 -87 -73 -118q54 -70 54 -204q0 -147 -66.5 -219t-214.5 -72t-214.5 72t-66.5 219t66.5 219.5t214.5 72.5q107 0 172 -39q61 6 65 57h-47v124h110zM323 89q89 0 126.5 46t37.5 143q0 96 -37.5 141.5t-126.5 45.5q-90 0 -127 -45.5t-37 -141.5
q0 -97 37 -143t127 -46zM153 618l-59 48q20 42 53 67t70 25q36 0 78.5 -25.5t64.5 -25.5q41 0 70 54l59 -52q-21 -41 -53 -66t-69 -25q-34 0 -78 26t-65 26q-19 0 -39 -13.5t-32 -38.5z" />
    <glyph glyph-name="uni1EE2" unicode="&#x1ee2;" horiz-adv-x="843" 
d="M421 -12q-382 0 -382 383q0 382 382 382q141 0 232 -53q37 1 53.5 18.5t17.5 39.5h-54v124h118v-113q0 -87 -75 -117q91 -96 91 -281q0 -383 -383 -383zM421 101q136 0 198.5 68t62.5 200q0 131 -62.5 199t-198.5 68q-260 0 -260 -267q0 -132 62.5 -200t197.5 -68z
M362 -186v125h118v-125h-118z" />
    <glyph glyph-name="uni1EE3" unicode="&#x1ee3;" horiz-adv-x="657" 
d="M323 -11q-148 0 -214.5 73t-66.5 219t66.5 219t214.5 73q106 0 172 -40q61 6 65 57h-56v124h119v-112q0 -87 -72 -118q53 -69 53 -203q0 -146 -66.5 -219t-214.5 -73zM323 94q89 0 126.5 46.5t37.5 137.5t-37.5 137t-126.5 46t-126.5 -46t-37.5 -137q0 -92 37.5 -138
t126.5 -46zM264 -186v125h118v-125h-118z" />
    <glyph glyph-name="uni1EE4" unicode="&#x1ee4;" horiz-adv-x="797" 
d="M398 -13q-83 0 -143.5 17t-94.5 42.5t-53.5 66t-25 77.5t-5.5 86v465h121v-449q0 -97 42 -144.5t160 -47.5q119 0 162 47t43 145v449h118v-465q0 -49 -6 -86t-26 -77t-54 -66t-94.5 -43t-143.5 -17zM339 -186v125h118v-125h-118z" />
    <glyph glyph-name="uni1EE5" unicode="&#x1ee5;" horiz-adv-x="635" 
d="M319 -10q-80 0 -130 15t-77 49.5t-36.5 79t-9.5 114.5v312h116v-315q0 -32 1 -48.5t8 -39t21 -33.5t40.5 -19t66.5 -8t66.5 8.5t40 19t20.5 33.5t8 39t1 50v313h114v-310q0 -71 -9 -115.5t-35 -79.5t-76 -50t-130 -15zM258 -186v125h118v-125h-118z" />
    <glyph glyph-name="uni1EE6" unicode="&#x1ee6;" horiz-adv-x="797" 
d="M398 -13q-83 0 -143.5 17t-94.5 42.5t-53.5 66t-25 77.5t-5.5 86v465h121v-449q0 -97 42 -144.5t160 -47.5q119 0 162 47t43 145v449h118v-465q0 -49 -6 -86t-26 -77t-54 -66t-94.5 -43t-143.5 -17zM359 762q-5 38 5 61.5t44 44.5q28 17 36.5 25t8.5 22q0 32 -56 32
q-49 0 -89 -20l-33 68q49 26 126 26q70 0 105.5 -25.5t35.5 -67.5q0 -35 -14.5 -55.5t-45.5 -38.5q-27 -17 -35.5 -30.5t-7.5 -41.5h-80z" />
    <glyph glyph-name="uni1EE7" unicode="&#x1ee7;" horiz-adv-x="635" 
d="M319 -10q-80 0 -130 15t-77 49.5t-36.5 79t-9.5 114.5v312h116v-315q0 -32 1 -48.5t8 -39t21 -33.5t40.5 -19t66.5 -8t66.5 8.5t40 19t20.5 33.5t8 39t1 50v313h114v-310q0 -71 -9 -115.5t-35 -79.5t-76 -50t-130 -15zM276 606q-5 38 5 61.5t44 44.5q28 17 36.5 25
t8.5 22q0 32 -56 32q-49 0 -89 -20l-33 68q49 26 126 26q70 0 105.5 -25.5t35.5 -67.5q0 -35 -14.5 -55.5t-45.5 -38.5q-27 -17 -35.5 -30.5t-7.5 -41.5h-80z" />
    <glyph glyph-name="uni1EE8" unicode="&#x1ee8;" horiz-adv-x="818" 
d="M307 784l146 171h141l-181 -171h-106zM398 -13q-83 0 -143.5 17t-94.5 42.5t-53.5 66t-25 77.5t-5.5 86v465h121v-449q0 -97 42 -144.5t160 -47.5q119 0 162 47t43 145v449h102q36 2 52.5 19t17.5 39h-54v124h117v-113q0 -51 -28.5 -86.5t-88.5 -41.5v-406q0 -49 -6 -86
t-26 -77t-54 -66t-94.5 -43t-143.5 -17z" />
    <glyph glyph-name="uni1EE9" unicode="&#x1ee9;" horiz-adv-x="687" 
d="M227 616l146 171h141l-181 -171h-106zM319 -10q-80 0 -130 15t-77 49.5t-36.5 79t-9.5 114.5v312h116v-315q0 -32 1 -48.5t8 -39t21 -33.5t40.5 -19t66.5 -8t66.5 8.5t40 19t20.5 33.5t8 39t1 50v313h111q60 6 62 56h-55v124h118v-113q0 -52 -30 -87.5t-92 -40.5v-249
q0 -71 -9 -115.5t-35 -79.5t-76 -50t-130 -15z" />
    <glyph glyph-name="uni1EEA" unicode="&#x1eea;" horiz-adv-x="818" 
d="M381 784l-181 171h141l146 -171h-106zM398 -13q-83 0 -143.5 17t-94.5 42.5t-53.5 66t-25 77.5t-5.5 86v465h121v-449q0 -97 42 -144.5t160 -47.5q119 0 162 47t43 145v449h102q36 2 52.5 19t17.5 39h-54v124h117v-113q0 -51 -28.5 -86.5t-88.5 -41.5v-406q0 -49 -6 -86
t-26 -77t-54 -66t-94.5 -43t-143.5 -17z" />
    <glyph glyph-name="uni1EEB" unicode="&#x1eeb;" horiz-adv-x="687" 
d="M301 616l-181 171h141l146 -171h-106zM319 -10q-80 0 -130 15t-77 49.5t-36.5 79t-9.5 114.5v312h116v-315q0 -32 1 -48.5t8 -39t21 -33.5t40.5 -19t66.5 -8t66.5 8.5t40 19t20.5 33.5t8 39t1 50v313h111q60 6 62 56h-55v124h118v-113q0 -52 -30 -87.5t-92 -40.5v-249
q0 -71 -9 -115.5t-35 -79.5t-76 -50t-130 -15z" />
    <glyph glyph-name="uni1EEC" unicode="&#x1eec;" horiz-adv-x="818" 
d="M359 762q-5 38 5 61.5t44 44.5q28 17 36.5 25t8.5 22q0 32 -56 32q-49 0 -89 -20l-33 68q49 26 126 26q70 0 105.5 -25.5t35.5 -67.5q0 -35 -14.5 -55.5t-45.5 -38.5q-27 -17 -35.5 -30.5t-7.5 -41.5h-80zM398 -13q-83 0 -143.5 17t-94.5 42.5t-53.5 66t-25 77.5t-5.5 86
v465h121v-449q0 -97 42 -144.5t160 -47.5q119 0 162 47t43 145v449h102q36 2 52.5 19t17.5 39h-54v124h117v-113q0 -51 -28.5 -86.5t-88.5 -41.5v-406q0 -49 -6 -86t-26 -77t-54 -66t-94.5 -43t-143.5 -17z" />
    <glyph glyph-name="uni1EED" unicode="&#x1eed;" horiz-adv-x="687" 
d="M278 606q-5 38 5 61.5t44 44.5q28 17 36.5 25t8.5 22q0 32 -56 32q-49 0 -89 -20l-33 68q49 26 126 26q70 0 105.5 -25.5t35.5 -67.5q0 -35 -14.5 -55.5t-45.5 -38.5q-27 -17 -35.5 -30.5t-7.5 -41.5h-80zM319 -10q-80 0 -130 15t-77 49.5t-36.5 79t-9.5 114.5v312h116
v-315q0 -32 1 -48.5t8 -39t21 -33.5t40.5 -19t66.5 -8t66.5 8.5t40 19t20.5 33.5t8 39t1 50v313h111q60 6 62 56h-55v124h118v-113q0 -52 -30 -87.5t-92 -40.5v-249q0 -71 -9 -115.5t-35 -79.5t-76 -50t-130 -15z" />
    <glyph glyph-name="uni1EEE" unicode="&#x1eee;" horiz-adv-x="818" 
d="M398 -13q-83 0 -143.5 17t-94.5 42.5t-53.5 66t-25 77.5t-5.5 86v465h121v-449q0 -97 42 -144.5t160 -47.5q119 0 162 47t43 145v449h102q36 2 52.5 19t17.5 39h-54v124h117v-113q0 -51 -28.5 -86.5t-88.5 -41.5v-406q0 -49 -6 -86t-26 -77t-54 -66t-94.5 -43t-143.5 -17
zM257 784l-70 56q72 91 145 91q37 0 77 -25.5t62 -25.5q34 0 80 56l68 -55q-78 -97 -146 -97q-34 0 -75.5 25.5t-63.5 25.5q-38 0 -77 -51z" />
    <glyph glyph-name="uni1EEF" unicode="&#x1eef;" horiz-adv-x="687" 
d="M319 -10q-80 0 -130 15t-77 49.5t-36.5 79t-9.5 114.5v312h116v-315q0 -32 1 -48.5t8 -39t21 -33.5t40.5 -19t66.5 -8t66.5 8.5t40 19t20.5 33.5t8 39t1 50v313h111q60 6 62 56h-55v124h118v-113q0 -52 -30 -87.5t-92 -40.5v-249q0 -71 -9 -115.5t-35 -79.5t-76 -50
t-130 -15zM159 616l-70 56q72 91 145 91q37 0 77 -25.5t62 -25.5q34 0 80 56l68 -55q-78 -97 -146 -97q-34 0 -75.5 25.5t-63.5 25.5q-38 0 -77 -51z" />
    <glyph glyph-name="uni1EF0" unicode="&#x1ef0;" horiz-adv-x="818" 
d="M339 -186v125h118v-125h-118zM398 -13q-83 0 -143.5 17t-94.5 42.5t-53.5 66t-25 77.5t-5.5 86v465h121v-449q0 -97 42 -144.5t160 -47.5q119 0 162 47t43 145v449h102q36 2 52.5 19t17.5 39h-54v124h117v-113q0 -51 -28.5 -86.5t-88.5 -41.5v-406q0 -49 -6 -86t-26 -77
t-54 -66t-94.5 -43t-143.5 -17z" />
    <glyph glyph-name="uni1EF1" unicode="&#x1ef1;" horiz-adv-x="687" 
d="M258 -186v125h118v-125h-118zM319 -10q-80 0 -130 15t-77 49.5t-36.5 79t-9.5 114.5v312h116v-315q0 -32 1 -48.5t8 -39t21 -33.5t40.5 -19t66.5 -8t66.5 8.5t40 19t20.5 33.5t8 39t1 50v313h111q60 6 62 56h-55v124h118v-113q0 -52 -30 -87.5t-92 -40.5v-249
q0 -71 -9 -115.5t-35 -79.5t-76 -50t-130 -15z" />
    <glyph glyph-name="Ygrave" unicode="&#x1ef2;" horiz-adv-x="730" 
d="M305 0v273l-297 468h131l228 -358l229 358h125l-296 -466v-275h-120zM353 784l-181 171h141l146 -171h-106z" />
    <glyph glyph-name="ygrave" unicode="&#x1ef3;" horiz-adv-x="557" 
d="M129 -168q-39 0 -52 1v93h42q43 0 60.5 9t26.5 37l13 36l-215 552h124l154 -412l150 412h122l-233 -600q-26 -70 -68 -99t-124 -29zM271 616l-181 171h141l146 -171h-106z" />
    <glyph glyph-name="uni1EF4" unicode="&#x1ef4;" horiz-adv-x="730" 
d="M305 0v273l-297 468h131l228 -358l229 358h125l-296 -466v-275h-120zM305 -186v125h118v-125h-118z" />
    <glyph glyph-name="uni1EF5" unicode="&#x1ef5;" horiz-adv-x="557" 
d="M129 -168q-39 0 -52 1v93h42q43 0 60.5 9t26.5 37l13 36l-215 552h124l154 -412l150 412h122l-233 -600q-26 -70 -68 -99t-124 -29zM410 -186v125h118v-125h-118z" />
    <glyph glyph-name="uni1EF6" unicode="&#x1ef6;" horiz-adv-x="730" 
d="M305 0v273l-297 468h131l228 -358l229 358h125l-296 -466v-275h-120zM324 762q-5 38 5 61.5t44 44.5q28 17 36.5 25t8.5 22q0 32 -56 32q-49 0 -89 -20l-33 68q49 26 126 26q70 0 105.5 -25.5t35.5 -67.5q0 -35 -14.5 -55.5t-45.5 -38.5q-27 -17 -35.5 -30.5t-7.5 -41.5
h-80z" />
    <glyph glyph-name="uni1EF7" unicode="&#x1ef7;" horiz-adv-x="557" 
d="M129 -168q-39 0 -52 1v93h42q43 0 60.5 9t26.5 37l13 36l-215 552h124l154 -412l150 412h122l-233 -600q-26 -70 -68 -99t-124 -29zM241 606q-5 38 5 61.5t44 44.5q28 17 36.5 25t8.5 22q0 32 -56 32q-49 0 -89 -20l-33 68q49 26 126 26q70 0 105.5 -25.5t35.5 -67.5
q0 -35 -14.5 -55.5t-45.5 -38.5q-27 -17 -35.5 -30.5t-7.5 -41.5h-80z" />
    <glyph glyph-name="uni1EF8" unicode="&#x1ef8;" horiz-adv-x="730" 
d="M305 0v273l-297 468h131l228 -358l229 358h125l-296 -466v-275h-120zM217 797l-70 56q72 91 145 91q37 0 77 -25.5t62 -25.5q34 0 80 56l68 -55q-78 -97 -146 -97q-34 0 -75.5 25.5t-63.5 25.5q-38 0 -77 -51z" />
    <glyph glyph-name="uni1EF9" unicode="&#x1ef9;" horiz-adv-x="557" 
d="M129 -168q-39 0 -52 1v93h42q43 0 60.5 9t26.5 37l13 36l-215 552h124l154 -412l150 412h122l-233 -600q-26 -70 -68 -99t-124 -29zM136 617l-70 56q72 91 145 91q37 0 77 -25.5t62 -25.5q34 0 80 56l68 -55q-78 -97 -146 -97q-34 0 -75.5 25.5t-63.5 25.5q-38 0 -77 -51
z" />
    <glyph glyph-name="endash" unicode="&#x2013;" horiz-adv-x="724" 
d="M45 264v110h634v-110h-634z" />
    <glyph glyph-name="emdash" unicode="&#x2014;" horiz-adv-x="942" 
d="M45 264v110h852v-110h-852z" />
    <glyph glyph-name="quoteleft" unicode="&#x2018;" horiz-adv-x="266" 
d="M62 444v110q0 82 21.5 119t90.5 71l30 -62q-42 -22 -55 -38.5t-13 -48.5h67v-151h-141z" />
    <glyph glyph-name="quoteright" unicode="&#x2019;" horiz-adv-x="266" 
d="M92 441l-30 62q42 21 55 37.5t13 48.5h-68v152h141v-110q0 -83 -20.5 -120t-90.5 -70z" />
    <glyph glyph-name="quotesinglbase" unicode="&#x201a;" horiz-adv-x="266" 
d="M92 -138l-30 61q42 22 55 38.5t13 49.5h-68v151h141v-111q0 -78 -21.5 -117.5t-89.5 -71.5z" />
    <glyph glyph-name="quotedblleft" unicode="&#x201c;" horiz-adv-x="475" 
d="M62 448v108q0 80 21 116.5t89 68.5l29 -60q-41 -21 -54 -37.5t-13 -47.5h66v-148h-138zM275 448v108q0 80 20.5 116.5t87.5 68.5l30 -60q-41 -21 -54 -37.5t-13 -47.5h66v-148h-137z" />
    <glyph glyph-name="quotedblright" unicode="&#x201d;" horiz-adv-x="475" 
d="M90 448l-28 59q42 22 54.5 38t12.5 49h-67v147h138v-108q0 -80 -20.5 -116.5t-89.5 -68.5zM303 448l-30 59q42 22 55 38.5t13 48.5h-66v147h137v-108q0 -80 -20.5 -116.5t-88.5 -68.5z" />
    <glyph glyph-name="quotedblbase" unicode="&#x201e;" horiz-adv-x="475" 
d="M90 -134l-28 59q41 20 54 36.5t13 49.5h-67v147h138v-107q0 -77 -21 -115.5t-89 -69.5zM303 -134l-30 59q42 20 55 36.5t13 49.5h-66v147h137v-107q0 -77 -21 -115.5t-88 -69.5z" />
    <glyph glyph-name="dagger" unicode="&#x2020;" horiz-adv-x="569" 
d="M227 -166v602h-174v110h174v230h115v-230h175v-110h-175v-602h-115z" />
    <glyph glyph-name="daggerdbl" unicode="&#x2021;" horiz-adv-x="569" 
d="M227 -166v246h-174v111h174v245h-174v110h174v230h115v-230h175v-110h-175v-245h175v-111h-175v-246h-115z" />
    <glyph glyph-name="bullet" unicode="&#x2022;" horiz-adv-x="365" 
d="M95 205v198h176v-198h-176z" />
    <glyph glyph-name="ellipsis" unicode="&#x2026;" horiz-adv-x="763" 
d="M62 0v150h141v-150h-141zM310 0v150h142v-150h-142zM559 0v150h142v-150h-142z" />
    <glyph glyph-name="perthousand" unicode="&#x2030;" horiz-adv-x="1654" 
d="M257 272q-109 0 -164 63t-55 177q0 113 55 177t164 64q107 0 161.5 -64t54.5 -177q0 -114 -54.5 -177t-161.5 -63zM257 365q112 0 112 147q0 145 -112 145q-114 0 -114 -145q0 -147 114 -147zM922 -10q-108 0 -163 63.5t-55 177.5q0 113 55 177t163 64q107 0 162 -64
t55 -177q0 -114 -54.5 -177.5t-162.5 -63.5zM922 83q112 0 112 148q0 144 -112 144q-113 0 -113 -144q0 -148 113 -148zM1399 -10q-108 0 -162.5 63.5t-54.5 177.5q0 113 54.5 177t162.5 64q107 0 162 -64t55 -177q0 -114 -54.5 -177.5t-162.5 -63.5zM1399 83q113 0 113 148
q0 144 -113 144t-113 -144q0 -148 113 -148zM327 0l414 742h109l-414 -742h-109z" />
    <glyph glyph-name="guilsinglleft" unicode="&#x2039;" horiz-adv-x="454" 
d="M237 0l-151 279l151 281h105l-143 -281l143 -279h-105z" />
    <glyph glyph-name="guilsinglright" unicode="&#x203a;" horiz-adv-x="454" 
d="M112 0l143 280l-143 280h106l151 -280l-151 -280h-106z" />
    <glyph glyph-name="fraction" unicode="&#x2044;" horiz-adv-x="520" 
d="M0 0l415 741h105l-416 -741h-104z" />
    <glyph glyph-name="fraction" unicode="&#x2215;" horiz-adv-x="520" 
d="M0 0l415 741h105l-416 -741h-104z" />
    <glyph glyph-name="zero.superior" unicode="&#x2070;" horiz-adv-x="565" 
d="M283 265q-107 0 -152.5 61.5t-45.5 181.5q0 119 45.5 180t152.5 61q106 0 151.5 -61t45.5 -180t-45.5 -181t-151.5 -62zM283 343q64 0 85.5 40t21.5 125q0 84 -21.5 122.5t-85.5 38.5q-65 0 -86 -38.5t-21 -122.5q0 -86 21.5 -125.5t85.5 -39.5z" />
    <glyph glyph-name="four.superior" unicode="&#x2074;" horiz-adv-x="524" 
d="M67 367v70l207 304h98l-206 -301h137l16 133h70v-133h76v-73h-76v-96h-87v96h-235z" />
    <glyph glyph-name="five.superior" unicode="&#x2075;" horiz-adv-x="513" 
d="M255 266q-104 0 -186 47l47 70q74 -40 133 -40q58 0 83.5 17t25.5 69q0 50 -24.5 67.5t-80.5 17.5q-55 0 -88 -16l-71 20l13 223h304v-77h-228l-6 -92q39 15 99 15q39 0 66.5 -6t53.5 -21.5t39 -48.5t13 -82q0 -97 -48 -130t-145 -33z" />
    <glyph glyph-name="six.superior" unicode="&#x2076;" horiz-adv-x="541" 
d="M283 265q-103 0 -152 49.5t-49 156.5q0 146 60.5 208t215.5 62h34v-77h-36q-101 0 -139 -28t-46 -90q33 46 136 46q88 0 124.5 -40t36.5 -119q0 -82 -43 -125t-142 -43zM283 336q57 0 76.5 23t19.5 71q0 47 -20.5 70.5t-74.5 23.5q-108 0 -108 -85q0 -56 26 -79.5
t81 -23.5z" />
    <glyph glyph-name="seven.superior" unicode="&#x2077;" horiz-adv-x="444" 
d="M123 271l169 390h-243v80h342v-75l-171 -395h-97z" />
    <glyph glyph-name="eight.superior" unicode="&#x2078;" horiz-adv-x="550" 
d="M275 265q-198 0 -198 142q0 98 77 124q-35 14 -48 38.5t-13 62.5q0 56 40.5 87.5t141.5 31.5q182 0 182 -119q0 -39 -13 -63.5t-50 -38.5q79 -25 79 -123q0 -142 -198 -142zM275 335q107 0 107 79q0 80 -107 80q-56 0 -81 -20t-25 -60t25 -59.5t81 -19.5zM275 557
q52 0 72.5 15.5t20.5 47.5q0 31 -20.5 46t-72.5 15t-72.5 -15t-20.5 -46q0 -32 20.5 -47.5t72.5 -15.5z" />
    <glyph glyph-name="nine.superior" unicode="&#x2079;" horiz-adv-x="541" 
d="M153 271v76h37q100 0 138.5 30t46.5 92q-34 -47 -137 -47q-88 0 -124.5 40t-36.5 120q0 82 43.5 124.5t142.5 42.5q103 0 151.5 -49.5t48.5 -156.5q0 -147 -60.5 -209.5t-214.5 -62.5h-35zM262 487q107 0 107 84q0 56 -25.5 80t-80.5 24q-57 0 -77 -23t-20 -71
q0 -47 20.5 -70.5t75.5 -23.5z" />
    <glyph glyph-name="zero.inferior" unicode="&#x2080;" horiz-adv-x="565" 
d="M283 -6q-107 0 -152.5 61.5t-45.5 181.5q0 119 45.5 180t152.5 61q106 0 151.5 -61t45.5 -180t-45.5 -181t-151.5 -62zM283 72q64 0 85.5 40t21.5 125q0 84 -21.5 122.5t-85.5 38.5q-65 0 -86 -38.5t-21 -122.5q0 -86 21.5 -125.5t85.5 -39.5z" />
    <glyph glyph-name="one.inferior" unicode="&#x2081;" horiz-adv-x="351" 
d="M148 0v390h-87v80h179v-470h-92z" />
    <glyph glyph-name="two.inferior" unicode="&#x2082;" horiz-adv-x="477" 
d="M63 0v65l149 138q61 56 78 79t17 58q0 31 -20 45.5t-68 14.5q-69 0 -121 -28l-41 69q70 36 173 36q84 0 125 -30t41 -97q0 -53 -23.5 -88.5t-90.5 -97.5l-97 -90h216v-74h-338z" />
    <glyph glyph-name="three.inferior" unicode="&#x2083;" horiz-adv-x="493" 
d="M239 -6q-110 0 -191 49l45 66q66 -38 138 -38q55 0 77 16t22 60q0 40 -22.5 55.5t-85.5 15.5h-75v72h73q55 0 75.5 11t20.5 45q0 31 -19.5 42t-67.5 11q-75 0 -129 -32l-43 68q69 43 184 43q89 0 128 -27.5t39 -85.5q0 -82 -63 -105q76 -20 76 -123q0 -77 -44 -110
t-138 -33z" />
    <glyph glyph-name="four.inferior" unicode="&#x2084;" horiz-adv-x="524" 
d="M67 96v70l207 304h98l-206 -301h137l16 133h70v-133h76v-73h-76v-96h-87v96h-235z" />
    <glyph glyph-name="five.inferior" unicode="&#x2085;" horiz-adv-x="513" 
d="M255 -5q-104 0 -186 47l47 70q74 -40 133 -40q58 0 83.5 17t25.5 69q0 50 -24.5 67.5t-80.5 17.5q-55 0 -88 -16l-71 20l13 223h304v-77h-228l-6 -92q39 15 99 15q39 0 66.5 -6t53.5 -21.5t39 -48.5t13 -82q0 -97 -48 -130t-145 -33z" />
    <glyph glyph-name="six.inferior" unicode="&#x2086;" horiz-adv-x="541" 
d="M283 -6q-103 0 -152 49.5t-49 156.5q0 146 60.5 208t215.5 62h34v-77h-36q-101 0 -139 -28t-46 -90q33 46 136 46q88 0 124.5 -40t36.5 -119q0 -82 -43 -125t-142 -43zM283 65q57 0 76.5 23t19.5 71q0 47 -20.5 70.5t-74.5 23.5q-108 0 -108 -85q0 -56 26 -79.5t81 -23.5
z" />
    <glyph glyph-name="seven.inferior" unicode="&#x2087;" horiz-adv-x="444" 
d="M123 0l169 390h-243v80h342v-75l-171 -395h-97z" />
    <glyph glyph-name="eight.inferior" unicode="&#x2088;" horiz-adv-x="550" 
d="M275 -6q-198 0 -198 142q0 98 77 124q-35 14 -48 38.5t-13 62.5q0 56 40.5 87.5t141.5 31.5q182 0 182 -119q0 -39 -13 -63.5t-50 -38.5q79 -25 79 -123q0 -142 -198 -142zM275 64q107 0 107 79q0 80 -107 80q-56 0 -81 -20t-25 -60t25 -59.5t81 -19.5zM275 286
q52 0 72.5 15.5t20.5 47.5q0 31 -20.5 46t-72.5 15t-72.5 -15t-20.5 -46q0 -32 20.5 -47.5t72.5 -15.5z" />
    <glyph glyph-name="nine.inferior" unicode="&#x2089;" horiz-adv-x="541" 
d="M153 0v76h37q100 0 138.5 30t46.5 92q-34 -47 -137 -47q-88 0 -124.5 40t-36.5 120q0 82 43.5 124.5t142.5 42.5q103 0 151.5 -49.5t48.5 -156.5q0 -147 -60.5 -209.5t-214.5 -62.5h-35zM262 216q107 0 107 84q0 56 -25.5 80t-80.5 24q-57 0 -77 -23t-20 -71
q0 -47 20.5 -70.5t75.5 -23.5z" />
    <glyph glyph-name="dong" unicode="&#x20ab;" horiz-adv-x="664" 
d="M338 613v99h140v64h117v-64h69v-99h-69v-608l-89 -9l-13 60q-51 -66 -210 -66q-69 0 -117 21.5t-74.5 62.5t-38 91.5t-11.5 117.5q0 137 55 213t190 76q150 0 191 -61v102h-140zM309 96q92 0 130.5 43t38.5 144q0 99 -37 139t-132 40q-85 0 -117 -45t-32 -134
q0 -92 32.5 -139.5t116.5 -47.5zM90 -165v99h506v-99h-506z" />
    <glyph glyph-name="Euro" unicode="&#x20ac;" horiz-adv-x="690" 
d="M34 400v97h120q19 128 87 192t194 64q117 0 197 -41l-54 -101q-61 32 -140 32t-119 -36.5t-53 -109.5h238v-97h-246v-25v-38h246v-97h-236q15 -73 54.5 -109.5t113.5 -36.5q83 0 142 37l59 -93q-81 -50 -207 -50q-124 0 -190 64t-85 188h-121v97h112v36v27h-112z" />
    <glyph glyph-name="litre" unicode="&#x2113;" horiz-adv-x="538" 
d="M270 337v-159q0 -48 15.5 -67t50.5 -19q48 0 86 45l44 -58q-69 -86 -168 -86q-74 0 -109 37.5t-35 132.5v71l-55 -49l-39 69l94 82v224q0 90 39 141.5t115 51.5q65 0 97.5 -39t32.5 -101q0 -70 -34.5 -128.5t-104.5 -121.5zM361 608q0 36 -9.5 51t-31.5 15q-26 0 -38 -25
t-12 -89v-123q91 84 91 171z" />
    <glyph glyph-name="afii61352" unicode="&#x2116;" horiz-adv-x="1380" 
d="M81 0v741h131l393 -528v528h115v-741h-111l-413 555v-555h-115zM1044 281q-226 0 -226 237q0 235 226 235q228 0 228 -235q0 -237 -228 -237zM1044 369q131 0 131 146q0 145 -131 145q-129 0 -129 -145q0 -146 129 -146zM846 129v89h398v-89h-398z" />
    <glyph glyph-name="copyrightsound" unicode="&#x2117;" horiz-adv-x="820" 
d="M409 -12q-180 0 -275 105.5t-95 277.5t95 277.5t275 105.5q181 0 276.5 -105.5t95.5 -277.5t-95.5 -277.5t-276.5 -105.5zM409 36q162 0 242.5 91.5t80.5 243.5t-80.5 243.5t-242.5 91.5q-163 0 -242.5 -91t-79.5 -244t79.5 -244t242.5 -91zM235 121v489h224
q100 0 139.5 -38t39.5 -117q0 -81 -40 -121.5t-142 -40.5h-143v-172h-78zM313 363h147q53 0 75.5 20t22.5 68t-23 67.5t-78 19.5h-144v-175z" />
    <glyph glyph-name="trademark" unicode="&#x2122;" horiz-adv-x="1099" 
d="M494 284v457h100l139 -338l139 338h100v-457h-87v302l-123 -302h-60l-124 302v-302h-84zM209 284v374h-153v83h395v-83h-153v-374h-89z" />
    <glyph glyph-name="estimated" unicode="&#x212e;" horiz-adv-x="656" 
d="M621 289h-441q0 -84 3.5 -119t17.5 -59q47 -78 158 -78q67 0 120 25.5t85 68.5h12l26 -31q-41 -51 -106.5 -79.5t-140.5 -28.5q-143 0 -220.5 84t-77.5 221q0 132 77.5 216.5t213.5 84.5q67 0 121 -26t86 -67t49 -86.5t17 -88.5v-37zM180 328h308q-4 117 -12 146
q-15 58 -71 73q-28 8 -71 8q-100 0 -129.5 -47t-24.5 -180z" />
    <glyph glyph-name="partialdiff" unicode="&#x2202;" horiz-adv-x="647" 
d="M322 -11q-280 0 -280 277q0 132 57.5 204t190.5 72q130 0 176 -61q-14 70 -55 134t-115 135l109 40q199 -168 199 -495q0 -160 -68.5 -233t-213.5 -73zM322 89q88 0 126.5 45t38.5 135t-38 134t-127 44q-87 0 -125 -44t-38 -134q0 -89 38 -134.5t125 -45.5z" />
    <glyph glyph-name="product" unicode="&#x220f;" horiz-adv-x="748" 
d="M81 -181v922h586v-922h-121v814h-346v-814h-119z" />
    <glyph glyph-name="summation" unicode="&#x2211;" horiz-adv-x="658" 
d="M39 -165v91l251 366l-240 349v100h549v-110h-404l232 -339l-238 -352h427v-105h-577z" />
    <glyph glyph-name="minus" unicode="&#x2212;" horiz-adv-x="709" 
d="M100 297v111h509v-111h-509z" />
    <glyph glyph-name="radical" unicode="&#x221a;" horiz-adv-x="676" 
d="M218 -5l-170 434h122l112 -287l232 599h115l-290 -746h-121z" />
    <glyph glyph-name="infinity" unicode="&#x221e;" horiz-adv-x="877" 
d="M249 174q-92 0 -139.5 44.5t-47.5 125.5t48 126t139 45q55 0 99.5 -28t91.5 -77q48 49 92 77t97 28q85 0 136 -41.5t51 -129.5q0 -87 -52 -128.5t-135 -41.5q-93 0 -192 105q-99 -105 -188 -105zM252 265q53 0 127 78q-74 81 -127 81q-97 0 -97 -80q0 -79 97 -79z
M627 424q-54 0 -128 -79q36 -39 66 -59.5t62 -20.5q96 0 96 79q0 80 -96 80z" />
    <glyph glyph-name="integral" unicode="&#x222b;" horiz-adv-x="414" 
d="M-8 -166v96h55q49 0 68 22.5t19 66.5v583q0 93 41.5 139.5t146.5 46.5q56 0 68 -1v-96h-53q-50 0 -69 -22.5t-19 -65.5v-584q0 -93 -41.5 -140t-147.5 -47q-40 0 -68 2z" />
    <glyph glyph-name="approxequal" unicode="&#x2248;" horiz-adv-x="709" 
d="M169 387l-66 56q81 103 160 103q43 0 100.5 -29t83.5 -29q39 0 92 64l66 -57q-83 -103 -157 -103q-38 0 -95 29t-88 29q-46 0 -96 -63zM169 150l-66 56q80 102 160 102q43 0 100.5 -29t83.5 -29q40 0 92 65l66 -57q-84 -104 -157 -104q-38 0 -95 29t-88 29q-46 0 -96 -62
z" />
    <glyph glyph-name="notequal" unicode="&#x2260;" horiz-adv-x="709" 
d="M178 74l50 108h-122v107h171l60 127h-231v106h276l51 109h97l-52 -109h126v-106h-174l-60 -127h234v-107h-278l-50 -108h-98z" />
    <glyph glyph-name="lessequal" unicode="&#x2264;" horiz-adv-x="709" 
d="M108 11v106h410l-410 199v81l454 219v-111l-334 -151l334 -151v-192h-454z" />
    <glyph glyph-name="greaterequal" unicode="&#x2265;" horiz-adv-x="709" 
d="M147 11v192l334 151l-334 151v111l454 -219v-81l-411 -199h411v-106h-454z" />
    <glyph glyph-name="lozenge" unicode="&#x25ca;" horiz-adv-x="634" 
d="M257 0l-226 371l227 370h113l227 -370l-227 -371h-114zM315 95l165 273l-167 278l-166 -275z" />
    <glyph glyph-name="apple" unicode="&#xf8ff;" horiz-adv-x="832" 
d="M172 654l-7 8q107 97 251 97t252 -97l-7 -8q-105 95 -245 95q-139 0 -244 -95zM416 -17q-144 0 -252 97l7 8q105 -95 245 -95q139 0 244 94l2 -1l4 -4l1 -2q-107 -97 -251 -97zM706 120q-3 3 -8 7q88 106 88 244t-88 244l8 7q90 -108 90 -251q0 -142 -90 -251zM126 120
q-90 108 -90 251q0 142 90 250q3 -2 7 -6q-87 -106 -87 -244t88 -244zM416 60q-116 0 -201 77l7 7q84 -74 194 -74q111 0 193 74l7 -8q-86 -76 -200 -76zM610 597q-81 75 -194 75q-110 0 -194 -74l-7 7q87 77 201 77t201 -77zM183 170q-72 88 -72 201t71 200l8 -7
q-69 -83 -69 -193q0 -111 69 -194zM649 171l-7 6q69 85 69 194q0 110 -70 193l8 7q72 -86 72 -200t-72 -200zM416 121q-92 0 -161 61l7 8q65 -59 154 -59t153 59l7 -8q-67 -61 -160 -61zM604 211q-3 2 -8 7q55 66 55 153q0 89 -55 153l8 7q57 -68 57 -160t-57 -160zM570 552
q-65 59 -154 59q-87 0 -153 -58l-7 7q69 61 160 61q92 0 161 -61zM228 211q-57 70 -57 160t56 160l8 -7q-54 -67 -54 -153q0 -88 54 -153zM295 516l-7 8q54 48 128 48t128 -49l-2 -1l-2 -4l-2 -2q-52 46 -122 46t-121 -46zM568 243l-8 7q43 53 43 121t-43 121l8 7
q45 -56 45 -128t-45 -128zM264 243q-45 56 -45 128t45 128l8 -7q-43 -53 -43 -121t43 -121zM416 170q-72 0 -129 49l7 7q52 -46 122 -46t121 46l7 -8q-54 -48 -128 -48zM540 269l-8 7q33 43 33 95q0 53 -34 95l8 7q36 -44 36 -102q0 -57 -35 -102zM416 209q-57 0 -103 38
l7 8q43 -36 96 -36t96 36l6 -8q-45 -38 -102 -38zM292 269q-35 45 -35 102q0 58 36 102l7 -7q-33 -43 -33 -95t33 -95zM320 487l-7 8q44 38 103 38q58 0 102 -39l-6 -7q-41 36 -96 36q-53 0 -96 -36zM416 240q-48 0 -83 30l7 8q35 -28 76 -28q42 0 75 28l7 -7
q-36 -31 -82 -31zM316 289q-28 36 -28 82q0 47 28 81q1 -1 2.5 -2t2.5 -2.5t2 -2.5q-25 -33 -25 -74t26 -75zM516 290l-7 7q25 33 25 74t-26 75l8 7q28 -36 28 -82q0 -47 -28 -81zM341 464l-7 7q36 31 82 31q47 0 82 -30l-7 -8q-33 28 -75 28t-75 -28zM358 445l-8 8
q29 24 66 24t66 -24l-8 -8q-25 22 -58 22t-58 -22zM416 265q-37 0 -66 24l7 8q25 -22 59 -22q33 0 58 22l7 -8q-29 -24 -65 -24zM334 306q-21 29 -21 65t21 65l8 -7q-19 -25 -19 -58q0 -32 19 -57zM498 306l-8 7q19 25 19 58t-19 58l7 7q22 -28 22 -65q0 -34 -21 -65z
M416 285q-29 0 -53 19l7 8q22 -17 46 -17q25 0 45 17l7 -8q-22 -19 -52 -19zM371 430l-7 8q22 19 52 19t52 -19l-7 -8q-19 17 -45 17t-45 -17zM349 320q-16 22 -16 51t16 51l8 -7q-14 -20 -14 -44t14 -44zM482 319q-3 4 -7 7q14 20 14 45t-14 44l7 7q17 -22 17 -51t-17 -52z
M468 333l-8 7q10 15 10 31t-10 31l8 7q12 -16 12 -38q0 -21 -12 -38zM416 305q-21 0 -40 14l7 7q17 -12 33 -12q17 0 32 12l7 -7q-17 -14 -39 -14zM364 333q-12 17 -12 38t12 38l7 -7q-9 -16 -9 -31t9 -31zM384 416l-7 7q17 14 39 14q21 0 38 -14l-6 -7q-14 12 -32 12
q-17 0 -32 -12zM416 324q-15 0 -27 9l6 6q11 -7 21 -7q13 0 21 7q2 -2 5 -6q-10 -9 -26 -9zM395 403l-5 6q10 9 26 9t26 -9l-5 -6q-10 7 -21 7q-13 0 -21 -7zM378 346q-7 12 -7 25t7 25l6 -5q-5 -10 -5 -20t5 -20q-2 -2 -6 -5zM454 346l-6 5q5 10 5 20t-5 20l6 5
q7 -12 7 -25t-7 -25z" />
    <glyph glyph-name="onesuperior" horiz-adv-x="351" 
d="M148 271v390h-87v80h179v-470h-92z" />
    <glyph glyph-name="twosuperior" horiz-adv-x="477" 
d="M63 271v65l149 138q61 56 78 79t17 58q0 31 -20 45.5t-68 14.5q-69 0 -121 -28l-41 69q70 36 173 36q84 0 125 -30t41 -97q0 -53 -23.5 -88.5t-90.5 -97.5l-97 -90h216v-74h-338z" />
    <glyph glyph-name="a.alt" horiz-adv-x="659" 
d="M283 -9q-132 0 -186.5 77t-54.5 215q0 137 55 213t190 76q156 0 200 -62l23 55l80 -7v-553l-90 -9l-12 60q-27 -34 -73.5 -49.5t-131.5 -15.5zM309 96q90 0 127 43t37 144q0 99 -35.5 139t-128.5 40q-85 0 -117 -45t-32 -134q0 -92 32.5 -139.5t116.5 -47.5z" />
    <glyph glyph-name="g.alt" horiz-adv-x="664" 
d="M318 -179q-147 0 -242 38l37 99q94 -35 190 -35q59 0 95 7.5t53 26t22 38.5t5 55v13q-33 -34 -77.5 -47.5t-119.5 -13.5q-123 0 -181 76t-58 209q0 136 56.5 211t188.5 75q155 0 205 -62l24 54l79 -7v-477q0 -39 -2 -65.5t-8 -56t-18 -48.5t-32 -37.5t-49.5 -29
t-71.5 -17t-96 -6.5zM309 107q90 0 129.5 42t39.5 137q0 96 -38 136t-131 40q-84 0 -116.5 -44.5t-32.5 -131.5t32.5 -133t116.5 -46z" />
    <glyph glyph-name="l.alt" horiz-adv-x="265" 
d="M75 0v776h115v-776h-115z" />
    <glyph glyph-name="u.alt" horiz-adv-x="641" 
d="M269 -11q-119 0 -161 58t-42 175v338h116v-318q0 -75 23.5 -110t100.5 -35q89 0 118.5 39t29.5 115v309h117v-555l-89 -9l-12 58q-52 -65 -201 -65z" />
    <glyph glyph-name="aacute.alt" horiz-adv-x="659" 
d="M238 616l146 171h141l-181 -171h-106zM283 -9q-132 0 -186.5 77t-54.5 215q0 137 55 213t190 76q156 0 200 -62l23 55l80 -7v-553l-90 -9l-12 60q-27 -34 -73.5 -49.5t-131.5 -15.5zM309 96q90 0 127 43t37 144q0 99 -35.5 139t-128.5 40q-85 0 -117 -45t-32 -134
q0 -92 32.5 -139.5t116.5 -47.5z" />
    <glyph glyph-name="abreve.alt" horiz-adv-x="659" 
d="M283 -9q-132 0 -186.5 77t-54.5 215q0 137 55 213t190 76q156 0 200 -62l23 55l80 -7v-553l-90 -9l-12 60q-27 -34 -73.5 -49.5t-131.5 -15.5zM309 96q90 0 127 43t37 144q0 99 -35.5 139t-128.5 40q-85 0 -117 -45t-32 -134q0 -92 32.5 -139.5t116.5 -47.5zM328 603
q-97 0 -140.5 44.5t-60.5 130.5l85 17q11 -51 35.5 -74t80.5 -23t80 23t35 74l87 -16q-19 -87 -62 -131.5t-140 -44.5z" />
    <glyph glyph-name="acircumflex.alt" horiz-adv-x="659" 
d="M112 616l154 171h123l154 -171h-111l-106 95l-104 -95h-110zM283 -9q-132 0 -186.5 77t-54.5 215q0 137 55 213t190 76q156 0 200 -62l23 55l80 -7v-553l-90 -9l-12 60q-27 -34 -73.5 -49.5t-131.5 -15.5zM309 96q90 0 127 43t37 144q0 99 -35.5 139t-128.5 40
q-85 0 -117 -45t-32 -134q0 -92 32.5 -139.5t116.5 -47.5z" />
    <glyph glyph-name="adieresis.alt" horiz-adv-x="659" 
d="M166 619v121h106v-121h-106zM385 619v121h105v-121h-105zM283 -9q-132 0 -186.5 77t-54.5 215q0 137 55 213t190 76q156 0 200 -62l23 55l80 -7v-553l-90 -9l-12 60q-27 -34 -73.5 -49.5t-131.5 -15.5zM309 96q90 0 127 43t37 144q0 99 -35.5 139t-128.5 40
q-85 0 -117 -45t-32 -134q0 -92 32.5 -139.5t116.5 -47.5z" />
    <glyph glyph-name="agrave.alt" horiz-adv-x="659" 
d="M283 -9q-132 0 -186.5 77t-54.5 215q0 137 55 213t190 76q156 0 200 -62l23 55l80 -7v-553l-90 -9l-12 60q-27 -34 -73.5 -49.5t-131.5 -15.5zM309 96q90 0 127 43t37 144q0 99 -35.5 139t-128.5 40q-85 0 -117 -45t-32 -134q0 -92 32.5 -139.5t116.5 -47.5zM312 616
l-181 171h141l146 -171h-106z" />
    <glyph glyph-name="amacron.alt" horiz-adv-x="659" 
d="M283 -9q-132 0 -186.5 77t-54.5 215q0 137 55 213t190 76q156 0 200 -62l23 55l80 -7v-553l-90 -9l-12 60q-27 -34 -73.5 -49.5t-131.5 -15.5zM309 96q90 0 127 43t37 144q0 99 -35.5 139t-128.5 40q-85 0 -117 -45t-32 -134q0 -92 32.5 -139.5t116.5 -47.5zM133 608v99
h390v-99h-390z" />
    <glyph glyph-name="aogonek.alt" horiz-adv-x="659" 
d="M283 -9q-132 0 -186.5 77t-54.5 215q0 137 55 213t190 76q156 0 200 -62l23 55l80 -7v-554q-101 -58 -101 -111q0 -21 12 -32t47 -11q40 0 80 16l24 -65q-58 -27 -118 -27q-75 0 -105.5 25t-30.5 72q0 45 29 81.5t70 59.5l-9 44q-27 -34 -73.5 -49.5t-131.5 -15.5z
M309 96q90 0 127 43t37 144q0 99 -35.5 139t-128.5 40q-85 0 -117 -45t-32 -134q0 -92 32.5 -139.5t116.5 -47.5z" />
    <glyph glyph-name="aring.alt" horiz-adv-x="659" 
d="M328 602q-66 0 -99 37t-33 98q0 62 33 99.5t99 37.5q64 0 97.5 -38t33.5 -99q0 -60 -33.5 -97.5t-97.5 -37.5zM328 665q69 0 69 72q0 33 -17 53t-52 20q-70 0 -70 -73q0 -72 70 -72zM283 -9q-132 0 -186.5 77t-54.5 215q0 137 55 213t190 76q156 0 200 -62l23 55l80 -7
v-553l-90 -9l-12 60q-27 -34 -73.5 -49.5t-131.5 -15.5zM309 96q90 0 127 43t37 144q0 99 -35.5 139t-128.5 40q-85 0 -117 -45t-32 -134q0 -92 32.5 -139.5t116.5 -47.5z" />
    <glyph glyph-name="atilde.alt" horiz-adv-x="659" 
d="M283 -9q-132 0 -186.5 77t-54.5 215q0 137 55 213t190 76q156 0 200 -62l23 55l80 -7v-553l-90 -9l-12 60q-27 -34 -73.5 -49.5t-131.5 -15.5zM309 96q90 0 127 43t37 144q0 99 -35.5 139t-128.5 40q-85 0 -117 -45t-32 -134q0 -92 32.5 -139.5t116.5 -47.5zM182 616
l-70 56q72 91 145 91q37 0 77 -25.5t62 -25.5q34 0 80 56l68 -55q-78 -97 -146 -97q-34 0 -75.5 25.5t-63.5 25.5q-38 0 -77 -51z" />
    <glyph glyph-name="gbreve.alt" horiz-adv-x="664" 
d="M318 -179q-147 0 -242 38l37 99q94 -35 190 -35q59 0 95 7.5t53 26t22 38.5t5 55v13q-33 -34 -77.5 -47.5t-119.5 -13.5q-123 0 -181 76t-58 209q0 136 56.5 211t188.5 75q155 0 205 -62l24 54l79 -7v-477q0 -39 -2 -65.5t-8 -56t-18 -48.5t-32 -37.5t-49.5 -29
t-71.5 -17t-96 -6.5zM309 107q90 0 129.5 42t39.5 137q0 96 -38 136t-131 40q-84 0 -116.5 -44.5t-32.5 -131.5t32.5 -133t116.5 -46zM332 603q-97 0 -140.5 44.5t-60.5 130.5l85 17q11 -51 35.5 -74t80.5 -23t80 23t35 74l87 -16q-19 -87 -62 -131.5t-140 -44.5z" />
    <glyph glyph-name="gcommaaccent.alt" horiz-adv-x="664" 
d="M268 614v81q0 68 19 98.5t81 59.5l26 -51q-38 -19 -49 -32.5t-11 -40.5h59v-115h-125zM318 -179q-147 0 -242 38l37 99q94 -35 190 -35q59 0 95 7.5t53 26t22 38.5t5 55v13q-33 -34 -77.5 -47.5t-119.5 -13.5q-123 0 -181 76t-58 209q0 136 56.5 211t188.5 75
q155 0 205 -62l24 54l79 -7v-477q0 -39 -2 -65.5t-8 -56t-18 -48.5t-32 -37.5t-49.5 -29t-71.5 -17t-96 -6.5zM309 107q90 0 129.5 42t39.5 137q0 96 -38 136t-131 40q-84 0 -116.5 -44.5t-32.5 -131.5t32.5 -133t116.5 -46z" />
    <glyph glyph-name="lacute.alt" horiz-adv-x="265" 
d="M78 814l146 171h141l-181 -171h-106zM75 0v776h115v-776h-115z" />
    <glyph glyph-name="lcommaaccent.alt" horiz-adv-x="265" 
d="M97 -287l-28 51q38 19 49.5 32.5t11.5 39.5h-60v125h125v-91q0 -69 -18.5 -99t-79.5 -58zM75 0v776h115v-776h-115z" />
    <glyph glyph-name="lslash.alt" horiz-adv-x="305" 
d="M0 351v104l95 55v266h115v-198l94 55v-104l-94 -55v-474h-115v406z" />
    <glyph glyph-name="lcaron.alt" horiz-adv-x="389" 
d="M287 527l-26 52q37 19 48.5 32.5t11.5 39.5h-54v125h119v-91q0 -69 -18.5 -99t-80.5 -59zM75 0v776h115v-776h-115z" />
    <glyph glyph-name="uacute.alt" horiz-adv-x="641" 
d="M229 616l146 171h141l-181 -171h-106zM269 -11q-119 0 -161 58t-42 175v338h116v-318q0 -75 23.5 -110t100.5 -35q89 0 118.5 39t29.5 115v309h117v-555l-89 -9l-12 58q-52 -65 -201 -65z" />
    <glyph glyph-name="ucircumflex.alt" horiz-adv-x="641" 
d="M103 616l154 171h123l154 -171h-111l-106 95l-104 -95h-110zM269 -11q-119 0 -161 58t-42 175v338h116v-318q0 -75 23.5 -110t100.5 -35q89 0 118.5 39t29.5 115v309h117v-555l-89 -9l-12 58q-52 -65 -201 -65z" />
    <glyph glyph-name="udieresis.alt" horiz-adv-x="641" 
d="M157 619v121h106v-121h-106zM376 619v121h105v-121h-105zM269 -11q-119 0 -161 58t-42 175v338h116v-318q0 -75 23.5 -110t100.5 -35q89 0 118.5 39t29.5 115v309h117v-555l-89 -9l-12 58q-52 -65 -201 -65z" />
    <glyph glyph-name="ugrave.alt" horiz-adv-x="641" 
d="M303 616l-181 171h141l146 -171h-106zM269 -11q-119 0 -161 58t-42 175v338h116v-318q0 -75 23.5 -110t100.5 -35q89 0 118.5 39t29.5 115v309h117v-555l-89 -9l-12 58q-52 -65 -201 -65z" />
    <glyph glyph-name="uhungarumlaut.alt" horiz-adv-x="641" 
d="M107 615l126 169h135l-162 -169h-99zM355 615l126 169h135l-161 -169h-100zM269 -11q-119 0 -161 58t-42 175v338h116v-318q0 -75 23.5 -110t100.5 -35q89 0 118.5 39t29.5 115v309h117v-555l-89 -9l-12 58q-52 -65 -201 -65z" />
    <glyph glyph-name="umacron.alt" horiz-adv-x="641" 
d="M124 608v99h390v-99h-390zM269 -11q-119 0 -161 58t-42 175v338h116v-318q0 -75 23.5 -110t100.5 -35q89 0 118.5 39t29.5 115v309h117v-555l-89 -9l-12 58q-52 -65 -201 -65z" />
    <glyph glyph-name="uogonek.alt" horiz-adv-x="641" 
d="M269 -11q-119 0 -161 58t-42 175v338h116v-318q0 -75 23.5 -110t100.5 -35q89 0 118.5 39t29.5 115v309h117v-555l-5 -1h5q-100 -57 -100 -111q0 -21 11.5 -32t46.5 -11q40 0 80 16l24 -65q-58 -27 -118 -27q-75 0 -105 25t-30 72q0 45 29.5 82t68.5 59l-8 42
q-52 -65 -201 -65z" />
    <glyph glyph-name="uring.alt" horiz-adv-x="641" 
d="M319 602q-66 0 -99 37t-33 98q0 62 33 99.5t99 37.5q64 0 97.5 -38t33.5 -99q0 -60 -33.5 -97.5t-97.5 -37.5zM319 665q69 0 69 72q0 33 -17 53t-52 20q-70 0 -70 -73q0 -72 70 -72zM269 -11q-119 0 -161 58t-42 175v338h116v-318q0 -75 23.5 -110t100.5 -35
q89 0 118.5 39t29.5 115v309h117v-555l-89 -9l-12 58q-52 -65 -201 -65z" />
    <glyph glyph-name="fl.alt" horiz-adv-x="663" 
d="M28 454v106h106v41q0 94 41.5 141t146.5 47q56 0 68 -1v-101h-53q-50 0 -69 -21.5t-19 -64.5v-41h141v-106h-141v-454h-115v454h-106zM472 0v776h117v-776h-117z" />
    <glyph glyph-name="f_f_l.alt" horiz-adv-x="1002" 
d="M472 0v454h-223v-454h-115v454h-106v106h106v41q0 94 41.5 141t146.5 47q56 0 68 -1v-101h-53q-50 0 -69 -21.5t-19 -64.5v-41h223v41q0 94 42 141t147 47q56 0 68 -1v-101h-53q-50 0 -68.5 -21.5t-18.5 -64.5v-41h140v-106h-140v-454h-117zM811 0v776h116v-776h-116z
" />
    <glyph glyph-name="commaaccent.2" horiz-adv-x="266" 
d="M70 614v81q0 68 19 98.5t81 59.5l26 -51q-38 -19 -49 -32.5t-11 -40.5h59v-115h-125z" />
    <glyph glyph-name="space.lftab" horiz-adv-x="375" 
 />
    <glyph glyph-name="comma.lftab" horiz-adv-x="375" 
d="M146 -137l-30 58q43 21 55.5 35.5t12.5 43.5h-67v144h141v-105q0 -76 -21 -110t-91 -66z" />
    <glyph glyph-name="period.lftab" horiz-adv-x="375" 
d="M117 0v144h141v-144h-141z" />
    <glyph glyph-name="minus.lftab" 
d="M120 297v111h509v-111h-509z" />
    </font>
</defs>
</svg>
