<?xml version="1.0" standalone="no"?>
<!DOCTYPE svg PUBLIC "-//W3C//DTD SVG 1.1//EN" "http://www.w3.org/Graphics/SVG/1.1/DTD/svg11.dtd" >
<svg xmlns="http://www.w3.org/2000/svg" xmlns:xlink="http://www.w3.org/1999/xlink" version="1.1">
<metadata>
Created by FontForge 20170924 at Wed May 24 11:04:55 2006
 By www-data
Copyright 2006 Monotype Imaging Ltd. All rights reserved
</metadata>
<defs>
<font id="OpelSansCondensed-ExtraBold" horiz-adv-x="1239" >
  <font-face 
    font-family="Opel Sans Condensed ExtraBold"
    font-weight="800"
    font-stretch="condensed"
    units-per-em="2048"
    panose-1="2 11 9 3 0 0 0 0 0 4"
    ascent="1638"
    descent="-410"
    x-height="942"
    cap-height="1358"
    bbox="-430 -551 2269 1929"
    underline-thickness="54"
    underline-position="-129"
    unicode-range="U+0020-FB02"
  />
<missing-glyph horiz-adv-x="2048" 
d="M256 0v1536h1536v-1536h-1536zM384 128h1280v1280h-1280v-1280z" />
    <glyph glyph-name="fi" unicode="fi" horiz-adv-x="1200" 
d="M1108 0h-299v696h-350v-696h-299v696h-119v246h119q12 479 473 520l90 -186q-141 -29 -201.5 -107.5t-62.5 -226.5h594l55 21v-963zM958 1374q73 0 125 -52t52 -128q0 -74 -52 -126t-125 -52q-72 0 -124 52.5t-52 125.5q0 74 52 127t124 53z" />
    <glyph glyph-name="fl" unicode="fl" horiz-adv-x="1192" 
d="M1106 0h-299v1401l299 88v-1489zM725 1276q-142 -29 -203 -108t-63 -226h196v-246h-196v-696h-299v696h-119v246h119q12 479 473 520z" />
    <glyph glyph-name=".notdef" horiz-adv-x="2048" 
d="M256 0v1536h1536v-1536h-1536zM384 128h1280v1280h-1280v-1280z" />
    <glyph glyph-name=".null" horiz-adv-x="0" 
 />
    <glyph glyph-name="nonmarkingreturn" horiz-adv-x="414" 
 />
    <glyph glyph-name="space" unicode=" " horiz-adv-x="414" 
 />
    <glyph glyph-name="exclam" unicode="!" horiz-adv-x="473" 
d="M401 1479l-51 -1073h-231l-41 978zM236 311q68 0 116.5 -48.5t48.5 -117.5q0 -68 -48.5 -116.5t-116.5 -48.5q-70 0 -119 48.5t-49 116.5q0 69 49 117.5t119 48.5z" />
    <glyph glyph-name="quotedbl" unicode="&#x22;" horiz-adv-x="913" 
d="M807 1358l-39 -590h-233l-31 590h303zM410 1358l-39 -590h-234l-31 590h304z" />
    <glyph glyph-name="numbersign" unicode="#" horiz-adv-x="1042" 
d="M991 786h-170l-24 -192h151v-207h-178l-49 -387h-219l49 387h-145l-50 -387h-219l49 387h-135v207h162l27 192h-146v205h170l49 367h219l-49 -367h148l47 367h219l-49 -367h143v-205zM604 786h-147l-25 -192h146z" />
    <glyph glyph-name="dollar" unicode="$" horiz-adv-x="1028" 
d="M373 -207v199q-181 32 -318 139l150 240q148 -107 307 -107q135 0 135 107q0 41 -33 79t-172 105q-115 55 -189.5 105t-128.5 137.5t-54 218.5q0 134 78 227t225 129v166h272v-154q178 -22 309 -112l-149 -217q-126 84 -264 84q-76 0 -118 -32t-42 -87q0 -44 36.5 -85.5
t187.5 -113.5q117 -55 191.5 -103t128.5 -129.5t54 -199.5q0 -333 -334 -397v-199h-272z" />
    <glyph glyph-name="percent" unicode="%" horiz-adv-x="1677" 
d="M1329 1384l-747 -1411h-240l748 1411h239zM352 1380q135 0 209 -115t74 -317q0 -191 -73 -311.5t-210 -120.5q-132 0 -208 118t-76 314q0 194 71 313t213 119zM352 698q43 0 62.5 57t19.5 193q0 137 -19.5 193.5t-62.5 56.5q-84 0 -84 -250q0 -133 20.5 -191.5
t63.5 -58.5zM1327 846q136 0 209.5 -114.5t73.5 -317.5q0 -191 -73.5 -311.5t-209.5 -120.5q-133 0 -209 117t-76 315q0 203 74 317.5t211 114.5zM1327 164q43 0 62.5 58.5t19.5 191.5q0 134 -19.5 193t-62.5 59q-44 0 -64 -57.5t-20 -194.5t20 -193.5t64 -56.5z" />
    <glyph glyph-name="ampersand" unicode="&#x26;" horiz-adv-x="1108" 
d="M1036 659q8 -79 8 -120q0 -255 -132 -407t-369 -152q-207 0 -343.5 122t-136.5 330q0 101 56 194t149 148q-151 84 -151 250q0 165 116.5 259.5t296.5 94.5q197 0 344 -118l-120 -218q-96 72 -201 72q-145 0 -145 -115q0 -65 41 -89.5t124 -24.5h152l-147 -262h-27
q-81 0 -129.5 -54.5t-48.5 -136.5q0 -81 51 -136.5t135 -55.5q168 0 191 172h-158l137 247h307z" />
    <glyph glyph-name="quotesingle" unicode="'" horiz-adv-x="416" 
d="M360 1358l-38 -590h-234l-33 590h305z" />
    <glyph glyph-name="parenleft" unicode="(" horiz-adv-x="666" 
d="M623 -260h-301q-248 399 -248 885q0 485 248 884h301q-250 -407 -250 -884q0 -478 250 -885z" />
    <glyph glyph-name="parenright" unicode=")" horiz-adv-x="666" 
d="M344 1509q248 -399 248 -884q0 -486 -248 -885h-301q250 407 250 885q0 477 -250 884h301z" />
    <glyph glyph-name="asterisk" unicode="*" horiz-adv-x="879" 
d="M819 1087l-227 -47l158 -184l-205 -158l-103 195l-104 -199l-207 162l154 180l-228 49l72 246l203 -100l-25 231h264l-26 -227l205 96z" />
    <glyph glyph-name="plus" unicode="+" horiz-adv-x="1024" 
d="M924 555h-293v-295h-238v295h-295v238h295v297h238v-297h293v-238z" />
    <glyph glyph-name="comma" unicode="," horiz-adv-x="453" 
d="M176 -16q-60 14 -97.5 62.5t-37.5 109.5q0 73 53 125.5t125 52.5q73 0 124.5 -52.5t51.5 -127.5q0 -197 -186 -459h-162q88 145 129 289z" />
    <glyph glyph-name="hyphen" unicode="-" horiz-adv-x="647" 
d="M598 379h-549v256h549v-256z" />
    <glyph glyph-name="period" unicode="." horiz-adv-x="438" 
d="M219 334q73 0 124.5 -52.5t51.5 -125.5q0 -74 -51 -125t-125 -51t-126 51.5t-52 124.5t52.5 125.5t125.5 52.5z" />
    <glyph glyph-name="slash" unicode="/" horiz-adv-x="551" 
d="M600 1493l-416 -1645h-266l416 1645h266z" />
    <glyph glyph-name="zero" unicode="0" horiz-adv-x="1014" 
d="M506 1378q217 0 334.5 -184.5t117.5 -513.5q0 -320 -120.5 -510t-331.5 -190q-209 0 -331 192t-122 508q0 313 114.5 505.5t338.5 192.5zM506 252q80 0 115.5 95.5t35.5 332.5t-35.5 332.5t-115.5 95.5q-77 0 -112.5 -97.5t-35.5 -330.5q0 -234 35 -331t113 -97z" />
    <glyph glyph-name="one" unicode="1" horiz-adv-x="780" 
d="M598 0h-322v838l-170 -146v340l330 346h162v-1378z" />
    <glyph glyph-name="two" unicode="2" horiz-adv-x="1010" 
d="M936 0h-891v129l446 531q72 86 107 155t35 148q0 139 -139 139q-148 0 -275 -164l-168 209q214 231 473 231q206 0 316 -99t110 -286q0 -123 -49.5 -232t-168.5 -247l-214 -246h418v-268z" />
    <glyph glyph-name="three" unicode="3" horiz-adv-x="991" 
d="M731 727q97 -36 152 -121.5t55 -185.5q0 -211 -135.5 -325.5t-333.5 -114.5q-267 0 -440 233l178 197q50 -69 110 -110.5t148 -41.5q160 0 160 162q0 70 -34.5 101.5t-95.5 39.5t-182 8v252q115 0 171.5 7.5t88 39.5t31.5 103q0 129 -135 129q-136 0 -248 -135l-172 182
q191 231 459 231q190 0 295.5 -95t105.5 -261q0 -201 -178 -295z" />
    <glyph glyph-name="four" unicode="4" horiz-adv-x="1022" 
d="M977 229h-117v-229h-321v229h-502v189l610 960h213v-897h117v-252zM539 481v305l-185 -305h185z" />
    <glyph glyph-name="five" unicode="5" horiz-adv-x="1001" 
d="M373 874q64 13 123 13q201 0 325.5 -114t124.5 -316t-132 -339.5t-349 -137.5q-136 0 -228 39.5t-182 132.5l181 204q60 -58 109 -78t120 -20q84 0 134 58t50 143q0 98 -58 146t-147 48q-37 0 -72 -7t-68 -22l-64 -30h-158l53 764h772l-131 -268h-385z" />
    <glyph glyph-name="six" unicode="6" horiz-adv-x="1010" 
d="M504 866q28 6 61 6q182 0 285.5 -116t103.5 -316q0 -209 -125.5 -334.5t-318.5 -125.5q-203 0 -329 127t-126 344q0 210 128 445t362 462h360q-278 -271 -401 -492zM512 250q61 0 97 52t36 140t-36 139.5t-97 51.5q-65 0 -105 -53t-40 -144q0 -81 41 -133.5t104 -52.5z
" />
    <glyph glyph-name="seven" unicode="7" horiz-adv-x="1001" 
d="M975 1358l-572 -1358h-337l481 1090h-502l131 268h799z" />
    <glyph glyph-name="eight" unicode="8" horiz-adv-x="1020" 
d="M768 707q94 -50 145.5 -135.5t51.5 -188.5q0 -191 -124 -297t-331 -106t-332 106t-125 297q0 103 51.5 188.5t145.5 135.5q-156 114 -156 290q0 183 113 282t303 99t304 -99.5t114 -281.5q0 -173 -160 -290zM510 823q53 0 88 41t35 107q0 65 -33 102t-90 37t-89 -36.5
t-32 -102.5q0 -67 34 -107.5t87 -40.5zM510 254q66 0 103.5 42t37.5 120q0 73 -40 117.5t-101 44.5q-62 0 -101.5 -44.5t-39.5 -117.5q0 -78 37.5 -120t103.5 -42z" />
    <glyph glyph-name="nine" unicode="9" horiz-adv-x="1010" 
d="M506 492q-28 -7 -62 -7q-181 0 -285 116t-104 314q0 217 127.5 340t317.5 123q203 0 328.5 -127t125.5 -342q0 -210 -127 -444.5t-362 -464.5h-361q283 279 402 492zM498 725q65 0 105 53t40 144q0 81 -41.5 133.5t-103.5 52.5q-61 0 -97 -52t-36 -141q0 -87 35.5 -138.5
t97.5 -51.5z" />
    <glyph glyph-name="colon" unicode=":" horiz-adv-x="469" 
d="M236 967q72 0 124 -52.5t52 -126.5q0 -71 -52.5 -123.5t-123.5 -52.5q-74 0 -126.5 52t-52.5 124q0 74 52.5 126.5t126.5 52.5zM236 334q72 0 124 -52.5t52 -125.5q0 -74 -52 -125t-124 -51q-74 0 -126.5 51.5t-52.5 124.5t52.5 125.5t126.5 52.5z" />
    <glyph glyph-name="semicolon" unicode=";" horiz-adv-x="469" 
d="M236 967q72 0 124 -52.5t52 -126.5q0 -71 -52.5 -123.5t-123.5 -52.5q-74 0 -126.5 52t-52.5 124q0 74 52.5 126.5t126.5 52.5zM190 -16q-60 15 -96.5 63.5t-36.5 108.5q0 73 52.5 125.5t126.5 52.5q72 0 124 -53t52 -127q0 -198 -189 -459h-162q94 154 129 289z" />
    <glyph glyph-name="less" unicode="&#x3c;" horiz-adv-x="1024" 
d="M889 238l-752 329v211l752 330v-242l-440 -192l440 -193v-243z" />
    <glyph glyph-name="equal" unicode="=" horiz-adv-x="1044" 
d="M893 743h-743v205h743v-205zM893 410h-743v206h743v-206z" />
    <glyph glyph-name="greater" unicode="&#x3e;" horiz-adv-x="1024" 
d="M889 569l-752 -333v245l473 193l-473 194v240l752 -330v-209z" />
    <glyph glyph-name="question" unicode="?" horiz-adv-x="930" 
d="M43 1292q189 135 408 135q199 0 317.5 -112.5t118.5 -286.5q0 -180 -111 -296t-323 -154v-121l-285 -95v398q418 18 418 246q0 80 -45.5 120.5t-120.5 40.5q-131 0 -254 -98zM309 311q69 0 118.5 -48.5t49.5 -117.5q0 -68 -49.5 -116.5t-118.5 -48.5t-117.5 48.5
t-48.5 116.5q0 69 48.5 117.5t117.5 48.5z" />
    <glyph glyph-name="at" unicode="@" horiz-adv-x="1772" 
d="M1561 -164q-298 -244 -666 -244q-361 0 -601.5 236.5t-240.5 626.5q0 259 121 468.5t332 328t444 118.5q337 0 552.5 -194.5t215.5 -526.5q0 -283 -134 -466t-351 -183q-166 0 -189 123q-121 -113 -274 -113q-151 0 -248.5 106t-97.5 273q0 216 133 373.5t336 157.5
q151 0 242 -109l206 84q-104 -622 -104 -637q0 -45 49 -45q92 0 149.5 117t57.5 319q0 230 -147.5 370t-395.5 140q-276 0 -473.5 -202.5t-197.5 -503.5q0 -299 181.5 -474.5t467.5 -175.5q283 0 534 183zM817 233q93 0 154 88t61 207q0 73 -39 119.5t-108 46.5
q-93 0 -151 -86t-58 -196q0 -179 141 -179z" />
    <glyph glyph-name="A" unicode="A" horiz-adv-x="1292" 
d="M1278 0h-340l-84 223h-432l-80 -223h-330l541 1374h184zM764 475l-125 344l-125 -344h250z" />
    <glyph glyph-name="B" unicode="B" horiz-adv-x="1051" 
d="M811 729q195 -95 195 -313q0 -206 -134 -311t-391 -105h-379v1358h377q251 0 371.5 -85t120.5 -263q0 -208 -160 -281zM424 840h57q170 0 170 131q0 64 -42.5 91.5t-129.5 27.5h-55v-250zM424 291h57q111 0 157 35.5t46 119.5q0 148 -205 148h-55v-303z" />
    <glyph glyph-name="C" unicode="C" horiz-adv-x="1169" 
d="M1143 113q-171 -133 -418 -133q-290 0 -480 196t-190 504q0 310 189 504t481 194q247 0 418 -133l-168 -258q-110 98 -250 98q-155 0 -248.5 -110t-93.5 -295q0 -186 93 -297t249 -111q137 0 250 99z" />
    <glyph glyph-name="D" unicode="D" horiz-adv-x="1229" 
d="M100 1358h340q348 0 539.5 -171t191.5 -493q0 -326 -198 -510t-533 -184h-340v1358zM424 293h33q387 0 387 401q0 181 -99.5 277t-285.5 96h-35v-774z" />
    <glyph glyph-name="E" unicode="E" horiz-adv-x="993" 
d="M969 0h-869v1358h844l-137 -268h-383v-240h369v-293h-369v-266h395z" />
    <glyph glyph-name="F" unicode="F" horiz-adv-x="989" 
d="M985 1358l-139 -268h-422v-267h416v-293h-416v-530h-324v1358h885z" />
    <glyph glyph-name="G" unicode="G" horiz-adv-x="1253" 
d="M1165 113q-176 -133 -440 -133q-290 0 -480 196t-190 504q0 310 189 504t481 194q248 0 420 -133l-166 -258q-110 98 -254 98q-155 0 -248.5 -110t-93.5 -295q0 -186 93 -297t249 -111q66 0 119 19v201h-219l133 266h407v-645z" />
    <glyph glyph-name="H" unicode="H" horiz-adv-x="1243" 
d="M1141 0h-318v557h-399v-557h-324v1358h324v-508h399v508h318v-1358z" />
    <glyph glyph-name="I" unicode="I" horiz-adv-x="530" 
d="M426 0h-324v1358h324v-1358z" />
    <glyph glyph-name="J" unicode="J" horiz-adv-x="754" 
d="M653 426q0 -446 -342 -446q-181 0 -307 100l119 233q60 -47 115 -47q53 0 72.5 32.5t19.5 129.5v930h323v-932z" />
    <glyph glyph-name="K" unicode="K" horiz-adv-x="1202" 
d="M1198 0h-401l-373 516v-516h-324v1358h324v-508l348 508h361l-471 -647z" />
    <glyph glyph-name="L" unicode="L" horiz-adv-x="1001" 
d="M985 0h-885v1358h324v-1067h416z" />
    <glyph glyph-name="M" unicode="M" horiz-adv-x="1544" 
d="M1497 0h-344l-90 643l-215 -647h-152l-221 649l-100 -645h-328l236 1360h213l297 -750l258 750h213z" />
    <glyph glyph-name="N" unicode="N" horiz-adv-x="1272" 
d="M1171 -4h-174l-585 711v-707h-312v1360h176l584 -705v703h311v-1362z" />
    <glyph glyph-name="O" unicode="O" horiz-adv-x="1432" 
d="M717 1378q279 0 469 -193t190 -503q0 -312 -190.5 -507t-468.5 -195q-279 0 -470.5 195.5t-191.5 506.5q0 315 193.5 505.5t468.5 190.5zM717 279q145 0 239.5 109t94.5 294q0 183 -94.5 291t-239.5 108q-146 0 -240 -108t-94 -291q0 -185 94 -294t240 -109z" />
    <glyph glyph-name="P" unicode="P" horiz-adv-x="1022" 
d="M100 1362h349q528 0 528 -447q0 -223 -135.5 -336.5t-392.5 -113.5h-25v-465h-324v1362zM424 729h16q116 0 162.5 45.5t46.5 140.5t-45.5 140t-161.5 45h-18v-371z" />
    <glyph glyph-name="Q" unicode="Q" horiz-adv-x="1432" 
d="M514 10q-214 68 -336.5 248.5t-122.5 423.5q0 315 193.5 505.5t468.5 190.5q279 0 469 -193t190 -503q0 -268 -145.5 -456.5t-390.5 -231.5l-60 -62l504 -43l-110 -198l-986 -19zM717 279q145 0 239.5 109t94.5 294q0 183 -94.5 291t-239.5 108q-146 0 -240 -108
t-94 -291q0 -185 94 -294t240 -109z" />
    <glyph glyph-name="R" unicode="R" horiz-adv-x="1100" 
d="M1075 0h-354l-254 479h-43v-479h-324v1358h351q262 0 395 -108t133 -316q0 -269 -219 -391zM424 735h22q207 0 207 185q0 172 -204 172h-25v-357z" />
    <glyph glyph-name="S" unicode="S" horiz-adv-x="1028" 
d="M805 1055q-126 84 -264 84q-76 0 -118 -32t-42 -87q0 -44 36.5 -85.5t187.5 -113.5q117 -55 191.5 -103t128.5 -129.5t54 -199.5q0 -199 -124 -304t-351 -105q-253 0 -449 151l150 240q148 -107 307 -107q135 0 135 107q0 41 -33 79t-172 105q-115 55 -189.5 105
t-128.5 137.5t-54 218.5q0 172 126.5 273.5t344.5 101.5q241 0 413 -119z" />
    <glyph glyph-name="T" unicode="T" horiz-adv-x="1081" 
d="M1047 1067h-347v-1067h-321v1067h-346v291h1014v-291z" />
    <glyph glyph-name="U" unicode="U" 
d="M1141 594q0 -299 -134 -456.5t-386 -157.5q-253 0 -387 157.5t-134 456.5v764h322v-764q0 -168 43.5 -245t155.5 -77q108 0 154 72t46 252v762h320v-764z" />
    <glyph glyph-name="V" unicode="V" horiz-adv-x="1247" 
d="M1225 1358l-484 -1362h-241l-477 1362h337l267 -854l268 854h330z" />
    <glyph glyph-name="W" unicode="W" horiz-adv-x="1628" 
d="M1604 1358l-422 -1378h-178l-197 688l-201 -688h-180l-401 1378h337l173 -678l204 680h176l187 -676l182 674h320z" />
    <glyph glyph-name="X" unicode="X" horiz-adv-x="1274" 
d="M1247 0h-360l-254 418l-246 -418h-360l430 707l-396 651h359l231 -381l211 381h361l-402 -662z" />
    <glyph glyph-name="Y" unicode="Y" 
d="M1214 1358l-444 -778v-580h-319v575l-426 783h344l249 -484l250 484h346z" />
    <glyph glyph-name="Z" unicode="Z" horiz-adv-x="1178" 
d="M1151 295l-147 -295h-975l553 1067h-516l145 291h903l-551 -1063h588z" />
    <glyph glyph-name="bracketleft" unicode="[" horiz-adv-x="596" 
d="M545 -229h-486v1710h486v-256h-187v-1198h187v-256z" />
    <glyph glyph-name="backslash" unicode="\" horiz-adv-x="551" 
d="M598 -152h-266l-414 1645h266z" />
    <glyph glyph-name="bracketright" unicode="]" horiz-adv-x="596" 
d="M537 -229h-486v256h187v1198h-187v256h486v-1710z" />
    <glyph glyph-name="asciicircum" unicode="^" horiz-adv-x="821" 
d="M834 504h-295l-146 454l-145 -454h-295l307 854h268z" />
    <glyph glyph-name="underscore" unicode="_" horiz-adv-x="1133" 
d="M1143 -352h-1151v241h1151v-241z" />
    <glyph glyph-name="grave" unicode="`" horiz-adv-x="631" 
d="M559 1096h-223l-289 321h315z" />
    <glyph glyph-name="a" unicode="a" horiz-adv-x="1130" 
d="M1079 100l-235 -120q-50 39 -72 108q-98 -108 -256 -108q-203 0 -333 134.5t-130 358.5q0 223 133.5 356.5t348.5 133.5q170 0 266 -121l225 116v-655q0 -81 12 -119t41 -84zM535 219q90 0 141 69t51 185q0 117 -48 183.5t-144 66.5q-88 0 -136.5 -68.5t-48.5 -181.5
q0 -115 48.5 -184.5t136.5 -69.5z" />
    <glyph glyph-name="b" unicode="b" horiz-adv-x="1133" 
d="M401 883q102 80 238 80q188 0 313 -136.5t125 -353.5q0 -222 -129 -357.5t-332 -135.5q-166 0 -260 108q-20 -64 -73 -108l-234 120q30 44 41.5 82.5t11.5 120.5v1098l299 88v-606zM594 219q89 0 138.5 69.5t49.5 184.5q0 113 -49.5 181.5t-138.5 68.5q-94 0 -144.5 -65
t-50.5 -185q0 -116 51.5 -185t143.5 -69z" />
    <glyph glyph-name="c" unicode="c" horiz-adv-x="907" 
d="M874 72q-126 -92 -327 -92q-227 0 -360.5 131.5t-133.5 357.5q0 228 133.5 361t360.5 133q202 0 325 -93l-124 -213q-98 66 -193 66q-93 0 -149 -70t-56 -184q0 -111 55.5 -180.5t149.5 -69.5q100 0 195 68z" />
    <glyph glyph-name="d" unicode="d" horiz-adv-x="1133" 
d="M1081 100l-231 -120q-51 39 -76 108q-91 -108 -258 -108q-202 0 -332.5 136t-130.5 357q0 220 127.5 355t313.5 135q136 0 237 -80v518l297 88v-1186q0 -75 11.5 -115t41.5 -88zM539 219q91 0 142.5 69.5t51.5 184.5q0 120 -50 185t-144 65q-89 0 -139 -68.5t-50 -181.5
q0 -115 49.5 -184.5t139.5 -69.5z" />
    <glyph glyph-name="e" unicode="e" horiz-adv-x="1092" 
d="M1047 489l-672 -145q44 -125 184 -125q135 0 281 96l116 -211q-189 -124 -407 -124q-206 0 -351 136t-145 355q0 228 147.5 360t354.5 132q206 0 342 -123t150 -351zM729 612q-56 113 -170 113q-80 0 -136.5 -52t-70.5 -145z" />
    <glyph glyph-name="f" unicode="f" horiz-adv-x="690" 
d="M725 1276q-142 -29 -203 -108t-63 -226h196v-246h-196v-696h-299v696h-119v246h119q12 479 473 520z" />
    <glyph glyph-name="g" unicode="g" horiz-adv-x="1100" 
d="M1028 63q0 -489 -514 -489q-234 0 -432 133l156 215q125 -88 276 -88q112 0 162.5 50.5t50.5 166.5q-95 -71 -209 -71q-201 0 -332 135t-131 358q0 225 135.5 357.5t350.5 132.5q160 0 270 -115l217 113v-898zM541 219q89 0 138.5 68t49.5 186q0 250 -188 250
q-90 0 -139.5 -68t-49.5 -182q0 -115 49.5 -184.5t139.5 -69.5z" />
    <glyph glyph-name="h" unicode="h" horiz-adv-x="975" 
d="M905 0h-299v588q0 60 -21 83t-67 23q-70 0 -108.5 -59.5t-38.5 -159.5v-475h-299v1386l288 103v-664q43 64 114 101t149 37q152 0 217 -87.5t65 -283.5v-592z" />
    <glyph glyph-name="i" unicode="i" horiz-adv-x="477" 
d="M238 1374q73 0 125.5 -52.5t52.5 -127.5q0 -74 -53 -126t-125 -52t-124.5 52.5t-52.5 125.5q0 75 52 127.5t125 52.5zM387 0h-299v854l299 109v-963z" />
    <glyph glyph-name="j" unicode="j" horiz-adv-x="492" 
d="M242 1374q73 0 125.5 -52.5t52.5 -127.5q0 -74 -53 -126t-125 -52t-123 52.5t-51 125.5q0 75 51 127.5t123 52.5zM393 156q0 -238 -98 -366t-332 -198l-104 220q121 33 178 96.5t57 197.5v748l299 109v-807z" />
    <glyph glyph-name="k" unicode="k" horiz-adv-x="954" 
d="M950 0h-377l-202 367v-367h-299v1403l299 86v-864l200 317h359l-312 -424z" />
    <glyph glyph-name="l" unicode="l" horiz-adv-x="442" 
d="M371 0h-299v1401l299 88v-1489z" />
    <glyph glyph-name="m" unicode="m" horiz-adv-x="1423" 
d="M1362 0h-299v590q0 104 -74 104q-59 0 -91 -54t-32 -146v-494h-299v590q0 104 -75 104q-121 0 -121 -219v-475h-299v858l288 105v-121q84 121 254 121q167 0 222 -136q42 62 116.5 99t149.5 37q132 0 196 -78.5t64 -286.5v-598z" />
    <glyph glyph-name="n" unicode="n" horiz-adv-x="975" 
d="M905 0h-299v588q0 60 -21 83t-67 23q-70 0 -108.5 -59.5t-38.5 -159.5v-475h-299v858l288 105v-138q43 64 114 101t149 37q150 0 216 -88t66 -283v-592z" />
    <glyph glyph-name="o" unicode="o" horiz-adv-x="1110" 
d="M555 963q216 0 358 -135.5t142 -354.5q0 -222 -142.5 -357.5t-357.5 -135.5t-358.5 137.5t-143.5 355.5q0 217 142.5 353.5t359.5 136.5zM555 219q94 0 148.5 69t54.5 185q0 115 -54 182.5t-149 67.5q-94 0 -149.5 -68t-55.5 -182t55.5 -184t149.5 -70z" />
    <glyph glyph-name="p" unicode="p" horiz-adv-x="1102" 
d="M301 854q117 109 307 109q188 0 313.5 -137t125.5 -353q0 -224 -130 -358.5t-333 -134.5q-128 0 -213 67v-371l-299 -88v1375zM563 219q89 0 139 70.5t50 183.5q0 114 -49.5 182t-139.5 68q-95 0 -144.5 -64.5t-49.5 -185.5q0 -115 51.5 -184.5t142.5 -69.5z" />
    <glyph glyph-name="q" unicode="q" horiz-adv-x="1102" 
d="M1030 -324l-299 -88v459q-86 -67 -215 -67q-202 0 -332.5 135t-130.5 358q0 216 126.5 353t314.5 137q192 0 307 -111l229 109v-1285zM539 219q91 0 142.5 69.5t51.5 184.5q0 120 -50 185t-144 65q-90 0 -139.5 -68t-49.5 -182q0 -113 50 -183.5t139 -70.5z" />
    <glyph glyph-name="r" unicode="r" horiz-adv-x="743" 
d="M717 950l-51 -276q-57 18 -131 18q-164 0 -164 -215v-477h-299v858l288 103v-140q95 142 258 142q58 0 99 -13z" />
    <glyph glyph-name="s" unicode="s" horiz-adv-x="784" 
d="M612 692q-96 53 -194 53q-86 0 -86 -59q0 -33 25.5 -50.5t105.5 -45.5q175 -64 230 -137.5t55 -169.5q0 -142 -105.5 -222.5t-259.5 -80.5q-193 0 -346 124l121 179q98 -86 225 -86q78 0 78 63q0 28 -25.5 44t-96.5 41q-96 34 -151 62.5t-103 94.5t-48 172q0 137 104 213
t269 76q198 0 321 -97z" />
    <glyph glyph-name="t" unicode="t" horiz-adv-x="717" 
d="M713 942l-127 -246h-133v-276q0 -120 37 -190t122 -126l-184 -149q-274 100 -274 401v340h-121v246h121v250l299 180v-430h260z" />
    <glyph glyph-name="u" unicode="u" horiz-adv-x="999" 
d="M956 100l-219 -120q-96 84 -112 151q-96 -151 -273 -151q-149 0 -215.5 86.5t-66.5 283.5v592h299v-588q0 -56 18.5 -81t67.5 -25q72 0 110.5 59.5t38.5 159.5v475h299v-639q0 -78 10 -114t43 -89z" />
    <glyph glyph-name="v" unicode="v" horiz-adv-x="983" 
d="M961 942l-359 -946h-252l-327 946h317l152 -536l167 536h302z" />
    <glyph glyph-name="w" unicode="w" horiz-adv-x="1348" 
d="M1323 942l-360 -946h-150l-143 453l-152 -453h-149l-346 946h313l123 -438l145 405h158l135 -403l131 436h295z" />
    <glyph glyph-name="x" unicode="x" horiz-adv-x="1042" 
d="M1018 0h-348l-164 244l-139 -244h-342l319 489l-299 453h348l142 -215l120 215h338l-295 -457z" />
    <glyph glyph-name="y" unicode="y" horiz-adv-x="983" 
d="M961 942l-484 -1282l-338 -94l191 491l-307 885h315l135 -536l191 536h297z" />
    <glyph glyph-name="z" unicode="z" horiz-adv-x="934" 
d="M918 256l-125 -256h-779l404 690h-363l123 252h733l-401 -686h408z" />
    <glyph glyph-name="braceleft" unicode="{" horiz-adv-x="655" 
d="M608 -233q-267 0 -343.5 79.5t-76.5 233.5v252q0 115 -35.5 148.5t-103.5 33.5v227q88 2 113.5 44.5t25.5 134.5v251q0 135 50.5 203t138.5 89.5t231 21.5v-254q-80 0 -99.5 -23t-19.5 -75v-213q0 -214 -145 -291q145 -85 145 -320v-190q0 -57 19 -78t100 -21v-253z" />
    <glyph glyph-name="bar" unicode="|" horiz-adv-x="412" 
d="M340 -514h-268v2050h268v-2050z" />
    <glyph glyph-name="braceright" unicode="}" horiz-adv-x="655" 
d="M608 514q-68 0 -104.5 -33t-36.5 -149v-252q0 -135 -50.5 -203t-137.5 -89t-230 -21v253q81 0 100 21t19 78v190q0 235 145 320q-145 77 -145 291v213q0 52 -19.5 75t-99.5 23v254q265 0 341.5 -80t76.5 -234v-251q0 -92 26.5 -134.5t114.5 -44.5v-227z" />
    <glyph glyph-name="asciitilde" unicode="~" horiz-adv-x="991" 
d="M981 973q-14 -171 -96 -267t-205 -96q-84 0 -201 66q-65 37 -92 48t-57 11q-80 0 -97 -112h-223q14 176 94 268t218 92q53 0 96 -14.5t140 -60.5q82 -40 118 -40q66 0 82 105h223z" />
    <glyph glyph-name="Adieresis" unicode="&#xc4;" horiz-adv-x="1292" 
d="M1278 0h-340l-84 223h-432l-80 -223h-330l541 1374h184zM764 475l-125 344l-125 -344h250zM849 1776q67 0 115.5 -49t48.5 -117q0 -69 -48 -117.5t-116 -48.5q-66 0 -114 49t-48 117q0 67 48.5 116.5t113.5 49.5zM438 1776q65 0 114 -49.5t49 -116.5q0 -68 -48.5 -117
t-114.5 -49q-68 0 -117 49t-49 117q0 67 49 116.5t117 49.5z" />
    <glyph glyph-name="Aring" unicode="&#xc5;" horiz-adv-x="1292" 
d="M1278 0h-340l-84 223h-432l-80 -223h-330l541 1374h184zM764 475l-125 344l-125 -344h250zM637 1928q103 0 174.5 -71t71.5 -175q0 -102 -71.5 -174t-174.5 -72q-102 0 -174 72t-72 174q0 104 71.5 175t174.5 71zM637 1592q36 0 63 27.5t27 62.5q0 37 -26.5 63.5
t-63.5 26.5t-64.5 -26.5t-27.5 -63.5q0 -35 28 -62.5t64 -27.5z" />
    <glyph glyph-name="Ccedilla" unicode="&#xc7;" horiz-adv-x="1186" 
d="M1143 113q-162 -128 -391 -133l-27 -39q6 2 20 2q90 0 147.5 -49t57.5 -130q0 -101 -81 -160t-199 -59q-124 0 -260 64l63 131q105 -43 178 -43q86 0 86 61q0 52 -78 52q-49 0 -96 -17l-88 62l113 137q-247 48 -390 236t-143 452q0 310 189 504t481 194q247 0 418 -133
l-168 -258q-110 98 -250 98q-155 0 -248.5 -110t-93.5 -295q0 -186 93 -297t249 -111q137 0 250 99z" />
    <glyph glyph-name="Eacute" unicode="&#xc9;" horiz-adv-x="993" 
d="M969 0h-869v1358h844l-137 -268h-383v-240h369v-293h-369v-266h395zM907 1759l-289 -321h-223l196 321h316z" />
    <glyph glyph-name="Ntilde" unicode="&#xd1;" horiz-adv-x="1272" 
d="M1171 -4h-174l-585 711v-707h-312v1360h176l584 -705v703h311v-1362zM1075 1761q-9 -145 -77 -225t-173 -80q-71 0 -166 51q-86 47 -115 47q-67 0 -80 -92h-188q8 149 75.5 227t184.5 78q47 0 85.5 -14t106.5 -46q63 -30 91 -30q54 0 67 84h189z" />
    <glyph glyph-name="Odieresis" unicode="&#xd6;" horiz-adv-x="1432" 
d="M717 1378q279 0 469 -193t190 -503q0 -312 -190.5 -507t-468.5 -195q-279 0 -470.5 195.5t-191.5 506.5q0 315 193.5 505.5t468.5 190.5zM717 279q145 0 239.5 109t94.5 294q0 183 -94.5 291t-239.5 108q-146 0 -240 -108t-94 -291q0 -185 94 -294t240 -109zM923 1772
q67 0 115.5 -49t48.5 -117q0 -69 -48 -117.5t-116 -48.5q-66 0 -114 49t-48 117q0 67 48.5 116.5t113.5 49.5zM512 1772q65 0 114 -49.5t49 -116.5q0 -68 -48.5 -117t-114.5 -49q-68 0 -117 49t-49 117q0 67 49 116.5t117 49.5z" />
    <glyph glyph-name="Udieresis" unicode="&#xdc;" 
d="M1141 594q0 -299 -134 -456.5t-386 -157.5q-253 0 -387 157.5t-134 456.5v764h322v-764q0 -168 43.5 -245t155.5 -77q108 0 154 72t46 252v762h320v-764zM830 1774q67 0 115.5 -49t48.5 -117q0 -69 -48 -117.5t-116 -48.5q-66 0 -114 49t-48 117q0 67 48.5 116.5
t113.5 49.5zM419 1774q65 0 114 -49.5t49 -116.5q0 -68 -48.5 -117t-114.5 -49q-68 0 -117 49t-49 117q0 67 49 116.5t117 49.5z" />
    <glyph glyph-name="aacute" unicode="&#xe1;" horiz-adv-x="1130" 
d="M1079 100l-235 -120q-50 39 -72 108q-98 -108 -256 -108q-203 0 -333 134.5t-130 358.5q0 223 133.5 356.5t348.5 133.5q170 0 266 -121l225 116v-655q0 -81 12 -119t41 -84zM535 219q90 0 141 69t51 185q0 117 -48 183.5t-144 66.5q-88 0 -136.5 -68.5t-48.5 -181.5
q0 -115 48.5 -184.5t136.5 -69.5zM927 1417l-289 -321h-223l196 321h316z" />
    <glyph glyph-name="agrave" unicode="&#xe0;" horiz-adv-x="1130" 
d="M1079 100l-235 -120q-50 39 -72 108q-98 -108 -256 -108q-203 0 -333 134.5t-130 358.5q0 223 133.5 356.5t348.5 133.5q170 0 266 -121l225 116v-655q0 -81 12 -119t41 -84zM535 219q90 0 141 69t51 185q0 117 -48 183.5t-144 66.5q-88 0 -136.5 -68.5t-48.5 -181.5
q0 -115 48.5 -184.5t136.5 -69.5zM698 1096h-223l-289 321h315z" />
    <glyph glyph-name="acircumflex" unicode="&#xe2;" horiz-adv-x="1130" 
d="M1079 100l-235 -120q-50 39 -72 108q-98 -108 -256 -108q-203 0 -333 134.5t-130 358.5q0 223 133.5 356.5t348.5 133.5q170 0 266 -121l225 116v-655q0 -81 12 -119t41 -84zM535 219q90 0 141 69t51 185q0 117 -48 183.5t-144 66.5q-88 0 -136.5 -68.5t-48.5 -181.5
q0 -115 48.5 -184.5t136.5 -69.5zM901 1096h-236l-115 180l-114 -180h-234l207 346h283z" />
    <glyph glyph-name="adieresis" unicode="&#xe4;" horiz-adv-x="1130" 
d="M1079 100l-235 -120q-50 39 -72 108q-98 -108 -256 -108q-203 0 -333 134.5t-130 358.5q0 223 133.5 356.5t348.5 133.5q170 0 266 -121l225 116v-655q0 -81 12 -119t41 -84zM535 219q90 0 141 69t51 185q0 117 -48 183.5t-144 66.5q-88 0 -136.5 -68.5t-48.5 -181.5
q0 -115 48.5 -184.5t136.5 -69.5zM766 1446q67 0 115.5 -49t48.5 -117q0 -69 -48 -117.5t-116 -48.5q-66 0 -114 49t-48 117q0 67 48.5 116.5t113.5 49.5zM355 1446q65 0 114 -49.5t49 -116.5q0 -68 -48.5 -117t-114.5 -49q-68 0 -117 49t-49 117q0 67 49 116.5t117 49.5z
" />
    <glyph glyph-name="atilde" unicode="&#xe3;" horiz-adv-x="1130" 
d="M1079 100l-235 -120q-50 39 -72 108q-98 -108 -256 -108q-203 0 -333 134.5t-130 358.5q0 223 133.5 356.5t348.5 133.5q170 0 266 -121l225 116v-655q0 -81 12 -119t41 -84zM535 219q90 0 141 69t51 185q0 117 -48 183.5t-144 66.5q-88 0 -136.5 -68.5t-48.5 -181.5
q0 -115 48.5 -184.5t136.5 -69.5zM969 1415q-9 -145 -77 -225t-173 -80q-71 0 -166 51q-86 47 -115 47q-67 0 -80 -92h-188q8 149 75.5 227t184.5 78q47 0 85.5 -14t106.5 -46q63 -30 91 -30q54 0 67 84h189z" />
    <glyph glyph-name="aring" unicode="&#xe5;" horiz-adv-x="1130" 
d="M1079 100l-235 -120q-50 39 -72 108q-98 -108 -256 -108q-203 0 -333 134.5t-130 358.5q0 223 133.5 356.5t348.5 133.5q170 0 266 -121l225 116v-655q0 -81 12 -119t41 -84zM535 219q90 0 141 69t51 185q0 117 -48 183.5t-144 66.5q-88 0 -136.5 -68.5t-48.5 -181.5
q0 -115 48.5 -184.5t136.5 -69.5zM553 1579q103 0 174.5 -71t71.5 -175q0 -102 -71.5 -174t-174.5 -72q-102 0 -174 72t-72 174q0 104 71.5 175t174.5 71zM553 1243q36 0 63 27.5t27 62.5q0 37 -26.5 63.5t-63.5 26.5t-64.5 -26.5t-27.5 -63.5q0 -35 28 -62.5t64 -27.5z" />
    <glyph glyph-name="ccedilla" unicode="&#xe7;" horiz-adv-x="907" 
d="M874 72q-119 -88 -323 -92l-27 -39q6 2 21 2q91 0 148 -48.5t57 -130.5q0 -108 -84.5 -163.5t-196.5 -55.5q-121 0 -260 64l63 131q105 -43 179 -43q86 0 86 61q0 52 -78 52q-50 0 -97 -17l-88 62l117 143q-163 42 -250.5 165.5t-87.5 305.5q0 228 133.5 361t360.5 133
q202 0 325 -93l-124 -213q-98 66 -193 66q-93 0 -149 -70t-56 -184q0 -111 55.5 -180.5t149.5 -69.5q100 0 195 68z" />
    <glyph glyph-name="eacute" unicode="&#xe9;" horiz-adv-x="1092" 
d="M1047 489l-672 -145q44 -125 184 -125q135 0 281 96l116 -211q-189 -124 -407 -124q-206 0 -351 136t-145 355q0 228 147.5 360t354.5 132q206 0 342 -123t150 -351zM729 612q-56 113 -170 113q-80 0 -136.5 -52t-70.5 -145zM950 1417l-289 -321h-223l196 321h316z" />
    <glyph glyph-name="egrave" unicode="&#xe8;" horiz-adv-x="1092" 
d="M1047 489l-672 -145q44 -125 184 -125q135 0 281 96l116 -211q-189 -124 -407 -124q-206 0 -351 136t-145 355q0 228 147.5 360t354.5 132q206 0 342 -123t150 -351zM729 612q-56 113 -170 113q-80 0 -136.5 -52t-70.5 -145zM725 1096h-223l-289 321h315z" />
    <glyph glyph-name="ecircumflex" unicode="&#xea;" horiz-adv-x="1092" 
d="M1047 489l-672 -145q44 -125 184 -125q135 0 281 96l116 -211q-189 -124 -407 -124q-206 0 -351 136t-145 355q0 228 147.5 360t354.5 132q206 0 342 -123t150 -351zM729 612q-56 113 -170 113q-80 0 -136.5 -52t-70.5 -145zM896 1096h-236l-115 180l-114 -180h-234
l207 346h283z" />
    <glyph glyph-name="edieresis" unicode="&#xeb;" horiz-adv-x="1092" 
d="M1047 489l-672 -145q44 -125 184 -125q135 0 281 96l116 -211q-189 -124 -407 -124q-206 0 -351 136t-145 355q0 228 147.5 360t354.5 132q206 0 342 -123t150 -351zM729 612q-56 113 -170 113q-80 0 -136.5 -52t-70.5 -145zM754 1446q67 0 115.5 -49t48.5 -117
q0 -69 -48 -117.5t-116 -48.5q-66 0 -114 49t-48 117q0 67 48.5 116.5t113.5 49.5zM343 1446q65 0 114 -49.5t49 -116.5q0 -68 -48.5 -117t-114.5 -49q-68 0 -117 49t-49 117q0 67 49 116.5t117 49.5z" />
    <glyph glyph-name="iacute" unicode="&#xed;" horiz-adv-x="477" 
d="M387 0h-297v854l297 109v-963zM606 1417l-289 -321h-223l196 321h316z" />
    <glyph glyph-name="igrave" unicode="&#xec;" horiz-adv-x="477" 
d="M387 0h-297v854l297 109v-963zM410 1096h-223l-289 321h315z" />
    <glyph glyph-name="icircumflex" unicode="&#xee;" horiz-adv-x="477" 
d="M387 0h-297v854l297 109v-963zM583 1096h-236l-115 180l-114 -180h-234l207 346h283z" />
    <glyph glyph-name="idieresis" unicode="&#xef;" horiz-adv-x="477" 
d="M387 0h-297v854l297 109v-963zM446 1446q67 0 115.5 -49t48.5 -117q0 -69 -48 -117.5t-116 -48.5q-66 0 -114 49t-48 117q0 67 48.5 116.5t113.5 49.5zM35 1446q65 0 114 -49.5t49 -116.5q0 -68 -48.5 -117t-114.5 -49q-68 0 -117 49t-49 117q0 67 49 116.5t117 49.5z
" />
    <glyph glyph-name="ntilde" unicode="&#xf1;" horiz-adv-x="975" 
d="M905 0h-299v588q0 60 -21 83t-67 23q-70 0 -108.5 -59.5t-38.5 -159.5v-475h-299v858l288 105v-138q43 64 114 101t149 37q150 0 216 -88t66 -283v-592zM903 1415q-9 -145 -77 -225t-173 -80q-71 0 -166 51q-86 47 -115 47q-67 0 -80 -92h-188q8 149 75.5 227t184.5 78
q47 0 85.5 -14t106.5 -46q63 -30 91 -30q54 0 67 84h189z" />
    <glyph glyph-name="oacute" unicode="&#xf3;" horiz-adv-x="1110" 
d="M555 963q216 0 358 -135.5t142 -354.5q0 -222 -142.5 -357.5t-357.5 -135.5t-358.5 137.5t-143.5 355.5q0 217 142.5 353.5t359.5 136.5zM555 219q94 0 148.5 69t54.5 185q0 115 -54 182.5t-149 67.5q-94 0 -149.5 -68t-55.5 -182t55.5 -184t149.5 -70zM931 1417
l-289 -321h-223l196 321h316z" />
    <glyph glyph-name="ograve" unicode="&#xf2;" horiz-adv-x="1110" 
d="M555 963q216 0 358 -135.5t142 -354.5q0 -222 -142.5 -357.5t-357.5 -135.5t-358.5 137.5t-143.5 355.5q0 217 142.5 353.5t359.5 136.5zM555 219q94 0 148.5 69t54.5 185q0 115 -54 182.5t-149 67.5q-94 0 -149.5 -68t-55.5 -182t55.5 -184t149.5 -70zM762 1096h-223
l-289 321h315z" />
    <glyph glyph-name="ocircumflex" unicode="&#xf4;" horiz-adv-x="1110" 
d="M555 963q216 0 358 -135.5t142 -354.5q0 -222 -142.5 -357.5t-357.5 -135.5t-358.5 137.5t-143.5 355.5q0 217 142.5 353.5t359.5 136.5zM555 219q94 0 148.5 69t54.5 185q0 115 -54 182.5t-149 67.5q-94 0 -149.5 -68t-55.5 -182t55.5 -184t149.5 -70zM907 1096h-236
l-115 180l-114 -180h-234l207 346h283z" />
    <glyph glyph-name="odieresis" unicode="&#xf6;" horiz-adv-x="1110" 
d="M555 963q216 0 358 -135.5t142 -354.5q0 -222 -142.5 -357.5t-357.5 -135.5t-358.5 137.5t-143.5 355.5q0 217 142.5 353.5t359.5 136.5zM555 219q94 0 148.5 69t54.5 185q0 115 -54 182.5t-149 67.5q-94 0 -149.5 -68t-55.5 -182t55.5 -184t149.5 -70zM762 1446
q67 0 115.5 -49t48.5 -117q0 -69 -48 -117.5t-116 -48.5q-66 0 -114 49t-48 117q0 67 48.5 116.5t113.5 49.5zM351 1446q65 0 114 -49.5t49 -116.5q0 -68 -48.5 -117t-114.5 -49q-68 0 -117 49t-49 117q0 67 49 116.5t117 49.5z" />
    <glyph glyph-name="otilde" unicode="&#xf5;" horiz-adv-x="1110" 
d="M555 963q216 0 358 -135.5t142 -354.5q0 -222 -142.5 -357.5t-357.5 -135.5t-358.5 137.5t-143.5 355.5q0 217 142.5 353.5t359.5 136.5zM555 219q94 0 148.5 69t54.5 185q0 115 -54 182.5t-149 67.5q-94 0 -149.5 -68t-55.5 -182t55.5 -184t149.5 -70zM959 1415
q-9 -145 -77 -225t-173 -80q-71 0 -166 51q-86 47 -115 47q-67 0 -80 -92h-188q8 149 75.5 227t184.5 78q47 0 85.5 -14t106.5 -46q63 -30 91 -30q54 0 67 84h189z" />
    <glyph glyph-name="uacute" unicode="&#xfa;" horiz-adv-x="999" 
d="M956 100l-219 -120q-96 84 -112 151q-96 -151 -273 -151q-149 0 -215.5 86.5t-66.5 283.5v592h299v-588q0 -56 18.5 -81t67.5 -25q72 0 110.5 59.5t38.5 159.5v475h299v-639q0 -78 10 -114t43 -89zM869 1417l-289 -321h-223l196 321h316z" />
    <glyph glyph-name="ugrave" unicode="&#xf9;" horiz-adv-x="999" 
d="M956 100l-219 -120q-96 84 -112 151q-96 -151 -273 -151q-149 0 -215.5 86.5t-66.5 283.5v592h299v-588q0 -56 18.5 -81t67.5 -25q72 0 110.5 59.5t38.5 159.5v475h299v-639q0 -78 10 -114t43 -89zM676 1096h-223l-289 321h315z" />
    <glyph glyph-name="ucircumflex" unicode="&#xfb;" horiz-adv-x="999" 
d="M956 100l-219 -120q-96 84 -112 151q-96 -151 -273 -151q-149 0 -215.5 86.5t-66.5 283.5v592h299v-588q0 -56 18.5 -81t67.5 -25q72 0 110.5 59.5t38.5 159.5v475h299v-639q0 -78 10 -114t43 -89zM837 1096h-236l-115 180l-114 -180h-234l207 346h283z" />
    <glyph glyph-name="udieresis" unicode="&#xfc;" horiz-adv-x="999" 
d="M956 100l-219 -120q-96 84 -112 151q-96 -151 -273 -151q-149 0 -215.5 86.5t-66.5 283.5v592h299v-588q0 -56 18.5 -81t67.5 -25q72 0 110.5 59.5t38.5 159.5v475h299v-639q0 -78 10 -114t43 -89zM704 1446q67 0 115.5 -49t48.5 -117q0 -69 -48 -117.5t-116 -48.5
q-66 0 -114 49t-48 117q0 67 48.5 116.5t113.5 49.5zM293 1446q65 0 114 -49.5t49 -116.5q0 -68 -48.5 -117t-114.5 -49q-68 0 -117 49t-49 117q0 67 49 116.5t117 49.5z" />
    <glyph glyph-name="dagger" unicode="&#x2020;" horiz-adv-x="956" 
d="M911 963l-108 -252h-174v-1037l-297 -86v1123h-287l109 252h178v440l297 88v-528h282z" />
    <glyph glyph-name="degree" unicode="&#xb0;" horiz-adv-x="795" 
d="M397 1384q144 0 246 -103t102 -247t-101.5 -246t-246.5 -102q-144 0 -246 102t-102 246q0 145 101.5 247.5t246.5 102.5zM399 885q62 0 106 43.5t44 105.5t-44 106t-106 44q-63 0 -107 -43.5t-44 -106.5q0 -62 44 -105.5t107 -43.5z" />
    <glyph glyph-name="cent" unicode="&#xa2;" horiz-adv-x="907" 
d="M874 276q-126 -92 -327 -92h-12l-52 -254h-213l60 293q-134 53 -205.5 170t-71.5 281q0 219 124 352t347 141l54 254h213l-58 -278q78 -23 139 -68l-124 -213q-98 66 -193 66q-93 0 -149 -70t-56 -184q0 -112 56.5 -181t148.5 -69q100 0 195 68z" />
    <glyph glyph-name="sterling" unicode="&#xa3;" horiz-adv-x="1016" 
d="M979 319l-53 -288q-111 -51 -238 -51q-81 0 -207 25q-121 24 -194 24q-92 0 -207 -49v272q93 37 133 41q38 100 47 207h-178v266h98q-47 112 -47 213q0 178 117 291.5t309 113.5q229 0 418 -143l-125 -223q-126 104 -256 104q-78 0 -119 -41t-41 -102q0 -58 47 -213h355
l-93 -266h-210q0 -44 -13.5 -110t-40.5 -114q148 -26 211 -26q141 0 287 69z" />
    <glyph glyph-name="section" unicode="&#xa7;" horiz-adv-x="1047" 
d="M811 1169q-144 91 -276 91q-63 0 -101.5 -32.5t-38.5 -82.5q0 -54 40 -94t198 -123q117 -61 188 -112t116.5 -126t45.5 -182q0 -174 -109 -279q101 -103 101 -247q0 -180 -123.5 -293t-316.5 -113q-227 0 -461 154l149 237q147 -108 312 -108q116 0 116 102
q0 46 -41 81.5t-162 109.5q-245 150 -307.5 249t-62.5 195q0 161 115 276q-99 112 -99 279q0 153 110.5 255.5t287.5 102.5q260 0 469 -123zM629 395q41 30 41 84q0 51 -38 87t-140 98q-70 42 -95 61q-35 -37 -35 -88q0 -46 33.5 -88t233.5 -154z" />
    <glyph glyph-name="bullet" unicode="&#x2022;" horiz-adv-x="1073" 
d="M535 1067q166 0 285.5 -118.5t119.5 -284.5q0 -167 -119 -284.5t-286 -117.5t-284.5 117.5t-117.5 284.5q0 166 117.5 284.5t284.5 118.5z" />
    <glyph glyph-name="paragraph" unicode="&#xb6;" horiz-adv-x="1133" 
d="M1085 1174h-98v-1514h-207v1514h-129v-1514h-207v811q-185 13 -291 135t-106 307q0 198 118 321.5t318 123.5h602v-184z" />
    <glyph glyph-name="germandbls" unicode="&#xdf;" horiz-adv-x="1133" 
d="M862 813q215 -117 215 -373q0 -207 -120.5 -335t-299.5 -128q-144 0 -251 84l133 211q53 -26 96 -26q66 0 104.5 52t38.5 142q0 122 -75 173t-293 51l110 225q172 0 172 170q0 77 -44.5 118.5t-110.5 41.5q-75 0 -120.5 -50.5t-45.5 -136.5v-1032h-299v979
q0 256 126.5 393t368.5 137q198 0 312 -114t114 -291t-131 -291z" />
    <glyph glyph-name="registered" unicode="&#xae;" horiz-adv-x="1368" 
d="M686 1384q256 0 441.5 -199.5t185.5 -502.5q0 -199 -84.5 -362t-231 -255t-311.5 -92q-257 0 -444 202t-187 507q0 303 187 502.5t444 199.5zM686 127q199 0 338 156t139 399t-138.5 397t-338.5 154q-201 0 -340 -154t-139 -397q0 -244 139.5 -399.5t339.5 -155.5z
M997 281h-215l-153 282h-51v-282h-183v798h221q194 0 275.5 -61t81.5 -187q0 -169 -168 -233zM578 715h34q117 0 150 28t33 86q0 52 -37.5 75.5t-141.5 23.5h-38v-213z" />
    <glyph glyph-name="copyright" unicode="&#xa9;" horiz-adv-x="1368" 
d="M686 1384q256 0 441.5 -199.5t185.5 -502.5q0 -199 -84.5 -362t-231 -255t-311.5 -92q-257 0 -444 202t-187 507q0 303 187 502.5t444 199.5zM686 127q199 0 338 156t139 399t-138.5 397t-338.5 154q-201 0 -340 -154t-139 -397q0 -244 139.5 -399.5t339.5 -155.5z
M967 338q-108 -78 -252 -78q-177 0 -290.5 115.5t-113.5 300.5q0 189 114 304.5t290 115.5q145 0 252 -80l-103 -158q-64 60 -149 60q-94 0 -148.5 -65t-54.5 -177q0 -111 55 -175.5t148 -64.5q81 0 149 60z" />
    <glyph glyph-name="trademark" unicode="&#x2122;" horiz-adv-x="1606" 
d="M1554 561h-217l-51 340l-119 -342h-98l-125 348l-55 -346h-207l141 799h135l168 -418l152 418h137zM668 1171h-203v-610h-207v610h-205v187h615v-187z" />
    <glyph glyph-name="acute" unicode="&#xb4;" horiz-adv-x="631" 
d="M582 1417l-289 -321h-223l196 321h316z" />
    <glyph glyph-name="dieresis" unicode="&#xa8;" horiz-adv-x="631" 
d="M522 1446q67 0 115.5 -49t48.5 -117q0 -69 -48 -117.5t-116 -48.5q-66 0 -114 49t-48 117q0 67 48.5 116.5t113.5 49.5zM111 1446q65 0 114 -49.5t49 -116.5q0 -68 -48.5 -117t-114.5 -49q-68 0 -117 49t-49 117q0 67 49 116.5t117 49.5z" />
    <glyph glyph-name="notequal" unicode="&#x2260;" horiz-adv-x="903" 
d="M838 403h-336l-146 -536h-266l148 536h-175v211h230l45 146h-275v209h332l144 522h264l-141 -522h176v-209h-236l-43 -146h279v-211z" />
    <glyph glyph-name="AE" unicode="&#xc6;" horiz-adv-x="1720" 
d="M1696 0h-867v223h-374l-129 -223h-314l789 1358h872l-139 -268h-383v-240h369v-293h-369v-266h397zM829 475v395l-229 -395h229z" />
    <glyph glyph-name="Oslash" unicode="&#xd8;" horiz-adv-x="1432" 
d="M1219 1147q157 -190 157 -465q0 -312 -190.5 -507t-468.5 -195q-166 0 -311 75l-41 -55h-310l158 211q-158 192 -158 471q0 315 193.5 505.5t468.5 190.5q157 0 309 -75l43 55h307zM840 1053q-65 28 -123 28q-146 0 -240 -108t-94 -291q0 -111 37 -195zM592 305
q53 -26 125 -26q145 0 239.5 109t94.5 294q0 100 -37 190z" />
    <glyph glyph-name="infinity" unicode="&#x221e;" horiz-adv-x="1460" 
d="M688 811q104 135 179 184t155 49q133 0 211 -89t78 -232q0 -190 -94.5 -263t-194.5 -73q-80 0 -155 49t-179 185q-134 -172 -289 -172q-104 0 -174.5 79t-70.5 189q0 108 70.5 187t174.5 79q155 0 289 -172zM758 717q137 -217 262 -217q83 0 130.5 59.5t47.5 153.5
q0 98 -48 158.5t-134 60.5q-49 0 -104.5 -39t-153.5 -176zM621 717q-122 155 -222 155q-61 0 -98 -43.5t-37 -109.5t38 -111t99 -45q104 0 220 154z" />
    <glyph glyph-name="plusminus" unicode="&#xb1;" horiz-adv-x="1024" 
d="M926 645h-295v-297h-238v297h-295v238h295v295h238v-295h295v-238zM926 27h-828v237h828v-237z" />
    <glyph glyph-name="lessequal" unicode="&#x2264;" horiz-adv-x="1038" 
d="M129 762v213l782 346v-250l-497 -205l497 -202v-254zM90 258h858v-242h-858v242z" />
    <glyph glyph-name="greaterequal" unicode="&#x2265;" horiz-adv-x="1038" 
d="M909 975v-213l-782 -352v254l498 202l-498 205v250zM90 258h858v-242h-858v242z" />
    <glyph glyph-name="yen" unicode="&#xa5;" horiz-adv-x="1255" 
d="M1223 1358l-369 -647h215v-217h-291v-103h291v-217h-291v-174h-319v174h-307v217h307v103h-307v217h233l-352 647h344l250 -484l250 484h346z" />
    <glyph glyph-name="mu1" unicode="&#xb5;" horiz-adv-x="999" 
d="M956 100l-219 -120q-96 84 -112 151q-90 -141 -256 -151v-304l-299 -88v1354h299v-588q0 -56 18.5 -81t67.5 -25q72 0 110.5 59.5t38.5 159.5v475h299v-639q0 -78 10 -114t43 -89z" />
    <glyph glyph-name="partialdiff" unicode="&#x2202;" horiz-adv-x="1012" 
d="M426 1139l-135 59q136 293 360 293q159 0 240.5 -150t81.5 -415q0 -273 -82 -500.5t-231.5 -339t-294.5 -111.5t-227.5 95t-82.5 252q0 282 211 437.5t592 164.5q-4 243 -55.5 341.5t-149.5 98.5q-143 0 -227 -225zM854 797q-250 -13 -367.5 -75.5t-184 -181.5
t-66.5 -237q0 -76 48.5 -133t121.5 -57q133 0 270 157.5t178 526.5z" />
    <glyph glyph-name="summation" unicode="&#x2211;" horiz-adv-x="1460" 
d="M139 1491h1237v-164h-989l608 -774l-649 -823h1040v-160h-1263v186l618 789l-602 772v174z" />
    <glyph glyph-name="product" unicode="&#x220f;" horiz-adv-x="1686" 
d="M162 1491h1362v-1921h-193v1747h-977v-1747h-192v1921z" />
    <glyph glyph-name="pi1" unicode="&#xf006;" horiz-adv-x="1413" 
d="M506 915v-915h-180v915h-281v148h1323v-148h-242v-915h-180v915h-440z" />
    <glyph glyph-name="integral" unicode="&#x222b;" horiz-adv-x="561" 
d="M201 895l16 561q3 112 28 208.5t73 148t116 51.5q48 0 87.5 -32t39.5 -77q0 -43 -26.5 -72.5t-67.5 -29.5q-33 0 -74 33q-27 22 -41 22q-41 0 -41 -63q0 -28 11 -146q36 -376 36 -633q0 -137 -7.5 -340.5t-9 -306t-22.5 -210t-71.5 -168t-128.5 -60.5q-53 0 -86 33.5
t-33 87.5q0 42 24 70t66 28q38 0 74 -37q26 -26 45 -26q39 0 39 61q0 21 -10 119q-37 313 -37 739v39z" />
    <glyph glyph-name="ordfeminine" unicode="&#xaa;" horiz-adv-x="733" 
d="M690 985l-151 -76q-24 16 -47 68q-60 -68 -162 -68q-128 0 -208.5 84t-80.5 224q0 138 84 220.5t219 82.5q111 0 166 -74l143 72v-406q0 -77 37 -127zM344 1061q57 0 89 42t32 114q0 151 -121 151q-56 0 -86.5 -41t-30.5 -110q0 -73 30.5 -114.5t86.5 -41.5z" />
    <glyph glyph-name="ordmasculine" unicode="&#xba;" horiz-adv-x="711" 
d="M354 1520q136 0 225 -84.5t89 -218.5q0 -141 -90 -224.5t-224 -83.5q-135 0 -224 86t-89 222q0 135 88.5 219t224.5 84zM354 1061q58 0 90.5 42.5t32.5 113.5q0 70 -32 110.5t-91 40.5q-58 0 -92.5 -42t-34.5 -109q0 -68 34 -112t93 -44z" />
    <glyph glyph-name="Ohm" unicode="&#x2126;" horiz-adv-x="1573" 
d="M496 160q-346 214 -346 643q0 307 177 503.5t482 196.5q292 0 468.5 -196.5t176.5 -505.5q0 -414 -344 -641l365 6v-166h-576v176q169 86 258.5 244t89.5 356q0 248 -117 405.5t-325 157.5q-209 0 -326 -155.5t-117 -403.5q0 -208 87.5 -366t255.5 -234v-180h-578v168z
" />
    <glyph glyph-name="ae" unicode="&#xe6;" horiz-adv-x="1767" 
d="M1722 489l-673 -145q48 -125 184 -125q135 0 280 96l117 -211q-187 -124 -405 -124q-226 0 -361 159q-148 -159 -348 -159q-203 0 -333 134.5t-130 358.5q0 223 133.5 356.5t348.5 133.5q160 0 266 -125v49l225 76v-43q100 43 203 43q206 0 343 -123t150 -351zM1405 612
q-56 113 -170 113q-81 0 -138 -52.5t-69 -144.5zM743 317v289q-97 117 -208 117q-88 0 -136.5 -68.5t-48.5 -181.5q0 -115 48.5 -184.5t136.5 -69.5q120 0 208 98z" />
    <glyph glyph-name="oslash" unicode="&#xf8;" horiz-adv-x="1112" 
d="M938 801q117 -135 117 -328q0 -222 -142.5 -357.5t-357.5 -135.5q-127 0 -242 55l-28 -35h-242l121 150q-111 131 -111 323q0 217 142.5 353.5t359.5 136.5q125 0 231 -52l41 50h244zM623 711q-31 12 -68 12q-94 0 -149.5 -68t-55.5 -182q0 -43 10 -84zM477 236
q36 -17 78 -17q94 0 148.5 69t54.5 185q0 48 -13 88z" />
    <glyph glyph-name="questiondown" unicode="&#xbf;" horiz-adv-x="930" 
d="M621 1075q69 0 118 -48.5t49 -117.5q0 -68 -49.5 -118t-117.5 -50q-69 0 -117.5 49.5t-48.5 118.5t48 117.5t118 48.5zM889 -238q-190 -135 -408 -135q-201 0 -319.5 112t-118.5 288q0 180 110.5 296t323.5 154v121l287 94v-397q-418 -18 -418 -246q0 -162 164 -162
q134 0 256 99z" />
    <glyph glyph-name="exclamdown" unicode="&#xa1;" horiz-adv-x="473" 
d="M238 1075q69 0 118.5 -48.5t49.5 -117.5q0 -68 -50 -118t-118 -50q-69 0 -117.5 49.5t-48.5 118.5t48.5 117.5t117.5 48.5zM395 -340l-323 -76l49 1065h233z" />
    <glyph glyph-name="logicalnot" unicode="&#xac;" horiz-adv-x="1044" 
d="M893 412h-205v331h-536v205h741v-536z" />
    <glyph glyph-name="radical" unicode="&#x221a;" horiz-adv-x="1124" 
d="M1124 1870l-311 -1948l-496 1022l-198 -92l-35 63l301 152l403 -823h5l258 1626h73z" />
    <glyph glyph-name="florin" unicode="&#x192;" horiz-adv-x="983" 
d="M1008 1325q-107 -20 -171.5 -59.5t-101.5 -104t-54 -157.5l-36 -201h273l-52 -246h-268l-85 -431q-32 -165 -107.5 -277.5t-192.5 -174.5t-272 -71l-56 186q154 30 227.5 108t100.5 216l88 444h-186l49 246h184q46 243 67.5 315t74.5 149.5t123.5 129.5t156 79.5
t182.5 32.5z" />
    <glyph glyph-name="approxequal" unicode="&#x2248;" horiz-adv-x="1124" 
d="M1073 854q-119 -115 -276 -115q-96 0 -257 71q-148 64 -229 64q-124 0 -260 -137v205q104 121 279 121q98 0 268 -72q145 -61 217 -61q133 0 258 137v-213zM1073 492q-117 -113 -276 -113q-96 0 -257 69q-148 64 -229 64q-123 0 -260 -135v205q105 118 279 118
q100 0 276 -73q142 -60 209 -60q133 0 258 138v-213z" />
    <glyph glyph-name="increment" unicode="&#x2206;" horiz-adv-x="1253" 
d="M1227 0h-1200l628 1386zM991 82l-399 967l-440 -967h839z" />
    <glyph glyph-name="guillemotleft" unicode="&#xab;" horiz-adv-x="1167" 
d="M1096 141h-295l-262 336l262 336h295l-262 -336zM629 141h-295l-262 336l262 336h295l-262 -336z" />
    <glyph glyph-name="guillemotright" unicode="&#xbb;" horiz-adv-x="1167" 
d="M367 141h-295l262 336l-262 336h295l262 -336zM834 141h-295l262 336l-262 336h295l262 -336z" />
    <glyph glyph-name="ellipsis" unicode="&#x2026;" horiz-adv-x="1528" 
d="M1239 334q73 0 124.5 -52.5t51.5 -125.5q0 -74 -51.5 -125t-124.5 -51q-74 0 -126 51.5t-52 124.5t52 125.5t126 52.5zM764 334q73 0 125.5 -52.5t52.5 -125.5t-52 -124.5t-126 -51.5q-72 0 -124 51.5t-52 124.5t52 125.5t124 52.5zM291 334q72 0 124 -52.5t52 -125.5
t-52 -124.5t-124 -51.5q-74 0 -126 51.5t-52 124.5t52 125.5t126 52.5z" />
    <glyph glyph-name="Agrave" unicode="&#xc0;" horiz-adv-x="1292" 
d="M1278 0h-340l-84 223h-432l-80 -223h-330l541 1374h184zM764 475l-125 344l-125 -344h250zM823 1438h-223l-289 321h315z" />
    <glyph glyph-name="Atilde" unicode="&#xc3;" horiz-adv-x="1292" 
d="M1278 0h-340l-84 223h-432l-80 -223h-330l541 1374h184zM764 475l-125 344l-125 -344h250zM1040 1739q-9 -145 -77 -225t-173 -80q-71 0 -166 51q-86 47 -115 47q-67 0 -80 -92h-188q8 149 75.5 227t184.5 78q47 0 85.5 -14t106.5 -46q63 -30 91 -30q54 0 67 84h189z" />
    <glyph glyph-name="Otilde" unicode="&#xd5;" horiz-adv-x="1432" 
d="M717 1378q279 0 469 -193t190 -503q0 -312 -190.5 -507t-468.5 -195q-279 0 -470.5 195.5t-191.5 506.5q0 315 193.5 505.5t468.5 190.5zM717 279q145 0 239.5 109t94.5 294q0 183 -94.5 291t-239.5 108q-146 0 -240 -108t-94 -291q0 -185 94 -294t240 -109zM1118 1739
q-9 -145 -77 -225t-173 -80q-71 0 -166 51q-86 47 -115 47q-67 0 -80 -92h-188q8 149 75.5 227t184.5 78q47 0 85.5 -14t106.5 -46q63 -30 91 -30q54 0 67 84h189z" />
    <glyph glyph-name="OE" unicode="&#x152;" horiz-adv-x="1946" 
d="M1921 0h-868v82q-147 -102 -336 -102q-279 0 -470.5 195.5t-191.5 506.5q0 315 193.5 505.5t468.5 190.5q189 0 336 -102v82h843l-137 -268h-383v-240h369v-293h-369v-266h396zM717 279q145 0 240.5 109.5t95.5 293.5q0 183 -95.5 291t-240.5 108q-146 0 -240 -108
t-94 -291q0 -185 94 -294t240 -109z" />
    <glyph glyph-name="oe" unicode="&#x153;" horiz-adv-x="1794" 
d="M1751 489l-674 -145q48 -125 185 -125q135 0 280 96l117 -211q-187 -124 -406 -124q-207 0 -346 133q-138 -133 -352 -133q-215 0 -358.5 137.5t-143.5 355.5q0 217 142.5 353.5t359.5 136.5q210 0 354 -134q143 134 348 134q207 0 344 -123t150 -351zM1434 612
q-56 113 -170 113q-81 0 -138 -52.5t-69 -144.5zM555 219q94 0 148.5 69t54.5 185q0 115 -54 182.5t-149 67.5q-94 0 -149.5 -68t-55.5 -182t55.5 -184t149.5 -70z" />
    <glyph glyph-name="endash" unicode="&#x2013;" horiz-adv-x="1004" 
d="M965 381h-926v252h926v-252z" />
    <glyph glyph-name="emdash" unicode="&#x2014;" horiz-adv-x="1790" 
d="M1755 381h-1720v252h1720v-252z" />
    <glyph glyph-name="quotedblleft" unicode="&#x201c;" horiz-adv-x="885" 
d="M276 1214q115 -33 115 -157q0 -81 -47.5 -124.5t-120.5 -43.5q-77 0 -121.5 48.5t-44.5 131.5q0 192 189 438h162q-89 -144 -132 -293zM696 1214q115 -33 115 -157q0 -81 -47.5 -124.5t-120.5 -43.5q-78 0 -122 48.5t-44 131.5q0 192 189 438h161q-88 -144 -131 -293z
" />
    <glyph glyph-name="quotedblright" unicode="&#x201d;" horiz-adv-x="885" 
d="M608 1182q-114 33 -114 157q0 79 46 123.5t122 44.5q77 0 121 -48t44 -132q0 -192 -188 -438h-162q89 144 131 293zM188 1182q-114 33 -114 157q0 81 47.5 124.5t120.5 43.5q77 0 121.5 -48t44.5 -132q0 -192 -189 -438h-162q89 144 131 293z" />
    <glyph glyph-name="quoteleft" unicode="&#x2018;" horiz-adv-x="463" 
d="M279 1217q51 -19 81.5 -62t30.5 -96q0 -69 -48.5 -118.5t-117.5 -49.5q-75 0 -121.5 51.5t-46.5 128.5q0 180 189 438h164q-95 -153 -131 -292z" />
    <glyph glyph-name="quoteright" unicode="&#x2019;" horiz-adv-x="463" 
d="M186 1186q-53 16 -83.5 59.5t-30.5 97.5q0 69 48.5 117.5t117.5 48.5q75 0 121.5 -51.5t46.5 -128.5q0 -174 -189 -438h-164q92 149 133 295z" />
    <glyph glyph-name="divide" unicode="&#xf7;" horiz-adv-x="1024" 
d="M512 1243q72 0 123 -50.5t51 -121.5t-51.5 -122.5t-122.5 -51.5q-70 0 -121 52t-51 122t51 121t121 51zM924 555h-826v238h826v-238zM512 469q72 0 123 -50t51 -122q0 -71 -51 -121.5t-123 -50.5q-70 0 -121 51t-51 121q0 71 50.5 121.5t121.5 50.5z" />
    <glyph glyph-name="lozenge" unicode="&#x25ca;" horiz-adv-x="1012" 
d="M549 1421l418 -712l-418 -709h-111l-391 709l391 712h111zM496 1325l-340 -616l340 -615l358 615z" />
    <glyph glyph-name="ydieresis" unicode="&#xff;" horiz-adv-x="983" 
d="M961 942l-484 -1282l-338 -94l191 491l-307 885h315l135 -536l191 536h297zM696 1446q67 0 115.5 -49t48.5 -117q0 -69 -48 -117.5t-116 -48.5q-66 0 -114 49t-48 117q0 67 48.5 116.5t113.5 49.5zM285 1446q65 0 114 -49.5t49 -116.5q0 -68 -48.5 -117t-114.5 -49
q-68 0 -117 49t-49 117q0 67 49 116.5t117 49.5z" />
    <glyph glyph-name="Ydieresis" unicode="&#x178;" 
d="M1214 1358l-444 -778v-580h-319v575l-426 783h344l249 -484l250 484h346zM816 1774q67 0 115.5 -49t48.5 -117q0 -69 -48 -117.5t-116 -48.5q-66 0 -114 49t-48 117q0 67 48.5 116.5t113.5 49.5zM405 1774q65 0 114 -49.5t49 -116.5q0 -68 -48.5 -117t-114.5 -49
q-68 0 -117 49t-49 117q0 67 49 116.5t117 49.5z" />
    <glyph glyph-name="fraction" unicode="&#x2215;" horiz-adv-x="117" 
d="M557 1384l-747 -1411h-240l747 1411h240z" />
    <glyph glyph-name="guilsinglleft" unicode="&#x2039;" horiz-adv-x="655" 
d="M606 141h-295l-262 336l262 336h295l-262 -336z" />
    <glyph glyph-name="guilsinglright" unicode="&#x203a;" horiz-adv-x="655" 
d="M608 477l-264 -336h-295l262 336l-262 336h295z" />
    <glyph glyph-name="daggerdbl" unicode="&#x2021;" horiz-adv-x="956" 
d="M911 588l-108 -252h-174v-662l-297 -86v748h-287l109 252h178v241h-287l109 252h178v322l297 88v-410h282l-108 -252h-174v-241h282z" />
    <glyph glyph-name="periodcentered" unicode="&#x2219;" horiz-adv-x="455" 
d="M225 860q72 0 124 -52t52 -124q0 -73 -52 -125.5t-124 -52.5q-73 0 -125.5 52.5t-52.5 125.5q0 72 52.5 124t125.5 52z" />
    <glyph glyph-name="quotesinglbase" unicode="&#x201a;" horiz-adv-x="463" 
d="M180 -16q-60 15 -96.5 63.5t-36.5 108.5q0 73 52.5 125.5t125.5 52.5t124.5 -53t51.5 -127q0 -198 -188 -459h-164q89 142 131 289z" />
    <glyph glyph-name="quotedblbase" unicode="&#x201e;" horiz-adv-x="1034" 
d="M698 -16q-59 15 -95 63t-36 109q0 73 52 125.5t124 52.5q75 0 127 -53t52 -127q0 -193 -189 -459h-164q94 154 129 289zM244 -16q-60 15 -95.5 63t-35.5 109q0 73 52 125.5t124 52.5q74 0 126 -53t52 -127q0 -193 -188 -459h-164q93 154 129 289z" />
    <glyph glyph-name="perthousand" unicode="&#x2030;" horiz-adv-x="2337" 
d="M1329 1384l-747 -1411h-240l748 1411h239zM352 1380q135 0 209 -115t74 -317q0 -191 -73 -311.5t-210 -120.5q-132 0 -208 118t-76 314q0 194 71 313t213 119zM352 698q43 0 62.5 57t19.5 193q0 137 -19.5 193.5t-62.5 56.5q-84 0 -84 -250q0 -133 20.5 -191.5
t63.5 -58.5zM1987 844q135 0 208.5 -114.5t73.5 -315.5q0 -198 -75 -315t-207 -117q-134 0 -209.5 116.5t-75.5 315.5q0 193 71 311.5t214 118.5zM1987 164q42 0 61.5 58.5t19.5 191.5q0 132 -19.5 191t-61.5 59q-44 0 -64 -57.5t-20 -192.5q0 -137 19.5 -193.5t64.5 -56.5z
M1327 844q135 0 209 -114.5t74 -315.5q0 -198 -75.5 -315t-207.5 -117q-133 0 -209 116.5t-76 315.5q0 193 71.5 311.5t213.5 118.5zM1327 164q43 0 62.5 58.5t19.5 191.5q0 132 -19.5 191t-62.5 59q-44 0 -64 -57.5t-20 -192.5q0 -137 20 -193.5t64 -56.5z" />
    <glyph glyph-name="Acircumflex" unicode="&#xc2;" horiz-adv-x="1292" 
d="M1278 0h-340l-84 223h-432l-80 -223h-330l541 1374h184zM764 475l-125 344l-125 -344h250zM989 1438h-236l-115 180l-114 -180h-234l207 346h283z" />
    <glyph glyph-name="Ecircumflex" unicode="&#xca;" horiz-adv-x="993" 
d="M969 0h-869v1358h844l-137 -268h-383v-240h369v-293h-369v-266h395zM865 1440h-236l-115 180l-114 -180h-234l207 346h283z" />
    <glyph glyph-name="Aacute" unicode="&#xc1;" horiz-adv-x="1292" 
d="M1278 0h-340l-84 223h-432l-80 -223h-330l541 1374h184zM764 475l-125 344l-125 -344h250zM1010 1759l-289 -321h-223l196 321h316z" />
    <glyph glyph-name="Edieresis" unicode="&#xcb;" horiz-adv-x="993" 
d="M969 0h-869v1358h844l-137 -268h-383v-240h369v-293h-369v-266h395zM731 1769q67 0 115.5 -49t48.5 -117q0 -69 -48 -117.5t-116 -48.5q-66 0 -114 49t-48 117q0 67 48.5 116.5t113.5 49.5zM320 1769q65 0 114 -49.5t49 -116.5q0 -68 -48.5 -117t-114.5 -49
q-68 0 -117 49t-49 117q0 67 49 116.5t117 49.5z" />
    <glyph glyph-name="Egrave" unicode="&#xc8;" horiz-adv-x="993" 
d="M969 0h-869v1358h844l-137 -268h-383v-240h369v-293h-369v-266h395zM672 1438h-223l-289 321h315z" />
    <glyph glyph-name="Iacute" unicode="&#xcd;" horiz-adv-x="530" 
d="M426 0h-324v1358h324v-1358zM641 1761l-289 -321h-223l196 321h316z" />
    <glyph glyph-name="Icircumflex" unicode="&#xce;" horiz-adv-x="530" 
d="M426 0h-324v1358h324v-1358zM614 1440h-236l-115 180l-114 -180h-234l207 346h283z" />
    <glyph glyph-name="Idieresis" unicode="&#xcf;" horiz-adv-x="530" 
d="M426 0h-324v1358h324v-1358zM471 1769q67 0 115.5 -49t48.5 -117q0 -69 -48 -117.5t-116 -48.5q-66 0 -114 49t-48 117q0 67 48.5 116.5t113.5 49.5zM60 1769q65 0 114 -49.5t49 -116.5q0 -68 -48.5 -117t-114.5 -49q-68 0 -117 49t-49 117q0 67 49 116.5t117 49.5z" />
    <glyph glyph-name="Igrave" unicode="&#xcc;" horiz-adv-x="530" 
d="M426 0h-324v1358h324v-1358zM453 1440h-223l-289 321h315z" />
    <glyph glyph-name="Oacute" unicode="&#xd3;" horiz-adv-x="1432" 
d="M717 1378q279 0 469 -193t190 -503q0 -312 -190.5 -507t-468.5 -195q-279 0 -470.5 195.5t-191.5 506.5q0 315 193.5 505.5t468.5 190.5zM717 279q145 0 239.5 109t94.5 294q0 183 -94.5 291t-239.5 108q-146 0 -240 -108t-94 -291q0 -185 94 -294t240 -109zM1081 1759
l-289 -321h-223l196 321h316z" />
    <glyph glyph-name="Ocircumflex" unicode="&#xd4;" horiz-adv-x="1432" 
d="M717 1378q279 0 469 -193t190 -503q0 -312 -190.5 -507t-468.5 -195q-279 0 -470.5 195.5t-191.5 506.5q0 315 193.5 505.5t468.5 190.5zM717 279q145 0 239.5 109t94.5 294q0 183 -94.5 291t-239.5 108q-146 0 -240 -108t-94 -291q0 -185 94 -294t240 -109zM1068 1438
h-236l-115 180l-114 -180h-234l207 346h283z" />
    <glyph glyph-name="Euro" unicode="&#x20ac;" horiz-adv-x="1149" 
d="M-25 737l25 185h100q66 216 228 336t377 120q236 0 405 -141l-174 -252q-99 100 -231 100q-168 0 -256 -163h415l-33 -185h-436q-2 -19 -2 -57q0 -36 2 -49h416l-31 -187h-336q85 -172 261 -172q132 0 231 101l174 -252q-169 -141 -405 -141q-218 0 -381 122.5
t-228 341.5h-119l23 187l65 1l3 105h-93z" />
    <glyph glyph-name="Ograve" unicode="&#xd2;" horiz-adv-x="1432" 
d="M717 1378q279 0 469 -193t190 -503q0 -312 -190.5 -507t-468.5 -195q-279 0 -470.5 195.5t-191.5 506.5q0 315 193.5 505.5t468.5 190.5zM717 279q145 0 239.5 109t94.5 294q0 183 -94.5 291t-239.5 108q-146 0 -240 -108t-94 -291q0 -185 94 -294t240 -109zM903 1438
h-223l-289 321h315z" />
    <glyph glyph-name="Uacute" unicode="&#xda;" 
d="M1141 594q0 -299 -134 -456.5t-386 -157.5q-253 0 -387 157.5t-134 456.5v764h322v-764q0 -168 43.5 -245t155.5 -77q108 0 154 72t46 252v762h320v-764zM1006 1759l-289 -321h-223l196 321h316z" />
    <glyph glyph-name="Ucircumflex" unicode="&#xdb;" 
d="M1141 594q0 -299 -134 -456.5t-386 -157.5q-253 0 -387 157.5t-134 456.5v764h322v-764q0 -168 43.5 -245t155.5 -77q108 0 154 72t46 252v762h320v-764zM974 1438h-236l-115 180l-114 -180h-234l207 346h283z" />
    <glyph glyph-name="Ugrave" unicode="&#xd9;" 
d="M1141 594q0 -299 -134 -456.5t-386 -157.5q-253 0 -387 157.5t-134 456.5v764h322v-764q0 -168 43.5 -245t155.5 -77q108 0 154 72t46 252v762h320v-764zM791 1438h-223l-289 321h315z" />
    <glyph glyph-name="dotlessi" unicode="&#x131;" horiz-adv-x="477" 
d="M387 0h-297v854l297 109v-963z" />
    <glyph glyph-name="circumflex" unicode="&#x2c6;" horiz-adv-x="631" 
d="M666 1096h-236l-115 180l-114 -180h-234l207 346h283z" />
    <glyph glyph-name="tilde" unicode="&#x2dc;" horiz-adv-x="971" 
d="M885 1415q-9 -145 -77 -225t-173 -80q-71 0 -166 51q-86 47 -115 47q-67 0 -80 -92h-188q8 149 75.5 227t184.5 78q47 0 85.5 -14t106.5 -46q63 -30 91 -30q54 0 67 84h189z" />
    <glyph glyph-name="macron" unicode="&#x2c9;" horiz-adv-x="631" 
d="M645 1147h-659v223h659v-223z" />
    <glyph glyph-name="breve" unicode="&#x2d8;" horiz-adv-x="631" 
d="M649 1425q-12 -158 -98 -242.5t-234 -84.5q-146 0 -231.5 84.5t-97.5 242.5h223q13 -120 106 -120q96 0 109 120h223z" />
    <glyph glyph-name="dotaccent" unicode="&#x2d9;" horiz-adv-x="631" 
d="M315 1374q73 0 125 -52t52 -128q0 -75 -52 -125.5t-125 -50.5q-72 0 -124 51.5t-52 124.5q0 75 52 127.5t124 52.5z" />
    <glyph glyph-name="ring" unicode="&#x2da;" horiz-adv-x="618" 
d="M309 1579q103 0 174.5 -71t71.5 -175q0 -102 -71.5 -174t-174.5 -72q-102 0 -174 72t-72 174q0 104 71.5 175t174.5 71zM309 1243q36 0 63 27.5t27 62.5q0 37 -26.5 63.5t-63.5 26.5t-64.5 -26.5t-27.5 -63.5q0 -35 28 -62.5t64 -27.5z" />
    <glyph glyph-name="cedilla" unicode="&#xb8;" horiz-adv-x="631" 
d="M358 -59q6 2 21 2q91 0 148 -48.5t57 -130.5q0 -101 -81 -160t-200 -59q-121 0 -260 64l63 131q106 -43 179 -43q86 0 86 61q0 52 -78 52q-50 0 -96 -17l-88 62l151 184h168z" />
    <glyph glyph-name="hungarumlaut" unicode="&#x2dd;" horiz-adv-x="631" 
d="M492 1417l-291 -321h-224l197 321h318zM895 1417l-289 -321h-223l197 321h315z" />
    <glyph glyph-name="ogonek" unicode="&#x2db;" horiz-adv-x="631" 
d="M598 -330q-137 -125 -303 -125q-102 0 -162.5 54.5t-60.5 152.5q0 64 40 122.5t125 112.5t97 54h198q-219 -150 -219 -248q0 -53 56 -53q41 0 129 57z" />
    <glyph glyph-name="caron" unicode="&#x2c7;" horiz-adv-x="631" 
d="M666 1442l-209 -346h-283l-207 346h234l114 -180l115 180h236z" />
    <glyph glyph-name="Lslash" unicode="&#x141;" horiz-adv-x="1001" 
d="M985 0h-885v301l-108 -131v391l108 133v664h324v-266l129 153v-393l-129 -154v-407h416z" />
    <glyph glyph-name="lslash" unicode="&#x142;" horiz-adv-x="442" 
d="M485 838l-114 -142v-696h-299v328l-117 -144v394l117 141v682l299 88v-402l114 144v-393z" />
    <glyph glyph-name="Scaron" unicode="&#x160;" horiz-adv-x="1028" 
d="M805 1055q-126 84 -264 84q-76 0 -118 -32t-42 -87q0 -44 36.5 -85.5t187.5 -113.5q117 -55 191.5 -103t128.5 -129.5t54 -199.5q0 -199 -124 -304t-351 -105q-253 0 -449 151l150 240q148 -107 307 -107q135 0 135 107q0 41 -33 79t-172 105q-115 55 -189.5 105
t-128.5 137.5t-54 218.5q0 172 126.5 273.5t344.5 101.5q241 0 413 -119zM882 1892l-209 -346h-283l-207 346h234l114 -180l115 180h236z" />
    <glyph glyph-name="scaron" unicode="&#x161;" horiz-adv-x="784" 
d="M612 692q-96 53 -194 53q-86 0 -86 -59q0 -33 25.5 -50.5t105.5 -45.5q175 -64 230 -137.5t55 -169.5q0 -142 -105.5 -222.5t-259.5 -80.5q-193 0 -346 124l121 179q98 -86 225 -86q78 0 78 63q0 28 -25.5 44t-96.5 41q-96 34 -151 62.5t-103 94.5t-48 172q0 137 104 213
t269 76q198 0 321 -97zM763 1442l-209 -346h-283l-207 346h234l114 -180l115 180h236z" />
    <glyph glyph-name="Zcaron" unicode="&#x17d;" horiz-adv-x="1178" 
d="M1151 295l-147 -295h-975l553 1067h-516l145 291h903l-551 -1063h588zM999 1784l-209 -346h-283l-207 346h234l114 -180l115 180h236z" />
    <glyph glyph-name="zcaron" unicode="&#x17e;" horiz-adv-x="934" 
d="M918 256l-125 -256h-779l404 690h-363l123 252h733l-401 -686h408zM872 1442l-209 -346h-283l-207 346h234l114 -180l115 180h236z" />
    <glyph glyph-name="brokenbar" unicode="&#xa6;" horiz-adv-x="412" 
d="M340 612h-268v901h268v-901zM340 -492h-268v902h268v-902z" />
    <glyph glyph-name="eth" unicode="&#xf0;" horiz-adv-x="1110" 
d="M770 1229q285 -295 285 -756q0 -222 -142.5 -357.5t-357.5 -135.5t-358.5 137.5t-143.5 355.5q0 217 142.5 353.5t359.5 136.5q41 0 78 -7q-40 71 -92 129l-148 -92l-131 148l121 76q-52 43 -143 96l116 174q132 -49 252 -129l133 84l131 -150zM555 219q94 0 148.5 69
t54.5 185q0 115 -54 182.5t-149 67.5q-94 0 -149.5 -68t-55.5 -182t55.5 -184t149.5 -70z" />
    <glyph glyph-name="Yacute" unicode="&#xdd;" 
d="M1214 1358l-444 -778v-580h-319v575l-426 783h344l249 -484l250 484h346zM998 1759l-289 -321h-223l196 321h316z" />
    <glyph glyph-name="yacute" unicode="&#xfd;" horiz-adv-x="983" 
d="M961 942l-484 -1282l-338 -94l191 491l-307 885h315l135 -536l191 536h297zM874 1417l-289 -321h-223l196 321h316z" />
    <glyph glyph-name="Thorn" unicode="&#xde;" horiz-adv-x="1022" 
d="M424 1137h25q528 0 528 -447q0 -222 -135 -335t-393 -113h-25v-242h-324v1358h324v-221zM424 504h16q116 0 162.5 45.5t46.5 140.5q0 108 -52 146t-155 38h-18v-370z" />
    <glyph glyph-name="thorn" unicode="&#xfe;" horiz-adv-x="1102" 
d="M371 903q95 60 237 60q188 0 313.5 -137t125.5 -353q0 -224 -130 -358.5t-333 -134.5q-128 0 -213 67v-371l-299 -88v1817l299 88v-590zM563 219q89 0 139 70.5t50 183.5q0 114 -49.5 182t-139.5 68q-95 0 -144.5 -64.5t-49.5 -185.5q0 -115 51.5 -184.5t142.5 -69.5z
" />
    <glyph glyph-name="minus" unicode="&#x2212;" horiz-adv-x="889" 
d="M856 555h-825v238h825v-238z" />
    <glyph glyph-name="multiply" unicode="&#xd7;" horiz-adv-x="889" 
d="M827 457l-170 -170l-215 215l-215 -217l-172 172l217 215l-215 213l170 174l215 -217l217 219l168 -172l-215 -217z" />
    <glyph glyph-name="onesuperior" unicode="&#xb9;" horiz-adv-x="522" 
d="M385 549h-213v495l-104 -90v232l206 215h111v-852z" />
    <glyph glyph-name="twosuperior" unicode="&#xb2;" horiz-adv-x="702" 
d="M627 549h-559v92l269 320q43 51 65 93.5t22 86.5q0 76 -74 76q-84 0 -168 -107l-114 143q142 150 303 150q128 0 196 -62t68 -180q0 -67 -23 -126.5t-55.5 -102.5t-173.5 -203h244v-180z" />
    <glyph glyph-name="threesuperior" unicode="&#xb3;" horiz-adv-x="707" 
d="M526 999q53 -25 83 -77t30 -109q0 -134 -84 -205t-209 -71q-166 0 -278 151l120 133q72 -100 156 -100q88 0 88 92q0 56 -40 70t-148 14v162q103 0 139.5 14.5t36.5 71.5q0 72 -72 72q-78 0 -151 -89l-119 125q126 148 293 148q120 0 185 -59.5t65 -165.5
q0 -118 -95 -177z" />
    <glyph glyph-name="onehalf" unicode="&#xbd;" horiz-adv-x="1593" 
d="M1206 1384l-747 -1411h-240l748 1411h239zM385 524h-213v498l-104 -88v231l206 215h111v-856zM1518 0h-560v92l270 320q43 51 65 93.5t22 86.5q0 76 -74 76q-87 0 -168 -107l-115 144q140 149 302 149q129 0 197.5 -62t68.5 -180q0 -70 -33.5 -149t-218.5 -283h244v-180z
" />
    <glyph glyph-name="onequarter" unicode="&#xbc;" horiz-adv-x="1470" 
d="M1206 1384l-747 -1411h-240l748 1411h239zM385 524h-213v498l-104 -88v231l206 215h111v-856zM1403 139h-72v-139h-211v139h-309v127l379 590h141v-547h72v-170zM1120 309v193l-108 -193h108z" />
    <glyph glyph-name="threequarters" unicode="&#xbe;" horiz-adv-x="1638" 
d="M526 999q53 -25 83 -77t30 -109q0 -134 -84 -205t-209 -71q-166 0 -278 151l120 133q72 -100 156 -100q88 0 88 92q0 56 -40 70t-148 14v162q103 0 139.5 14.5t36.5 71.5q0 72 -72 72q-78 0 -151 -89l-119 125q126 148 293 148q120 0 185 -59.5t65 -165.5
q0 -118 -95 -177zM1378 1384l-747 -1411h-240l748 1411h239zM1571 139h-70v-139h-213v139h-307v127l377 590h143v-547h70v-170zM1288 309v193l-106 -193h106z" />
    <glyph glyph-name="middot" unicode="&#xb7;" horiz-adv-x="455" 
d="M225 860q72 0 124 -52t52 -124q0 -73 -52 -125.5t-124 -52.5q-73 0 -125.5 52.5t-52.5 125.5q0 72 52.5 124t125.5 52z" />
    <glyph glyph-name="Gbreve" unicode="&#x11e;" horiz-adv-x="1253" 
d="M1165 113q-176 -133 -440 -133q-290 0 -480 196t-190 504q0 310 189 504t481 194q248 0 420 -133l-166 -258q-110 98 -254 98q-155 0 -248.5 -110t-93.5 -295q0 -186 93 -297t249 -111q66 0 119 19v201h-219l133 266h407v-645zM1030 1767q-12 -158 -98 -242.5t-234 -84.5
q-146 0 -231.5 84.5t-97.5 242.5h223q13 -120 106 -120q96 0 109 120h223z" />
    <glyph glyph-name="gbreve" unicode="&#x11f;" horiz-adv-x="1100" 
d="M1028 63q0 -489 -514 -489q-234 0 -432 133l156 215q125 -88 276 -88q112 0 162.5 50.5t50.5 166.5q-95 -71 -209 -71q-201 0 -332 135t-131 358q0 225 135.5 357.5t350.5 132.5q160 0 270 -115l217 113v-898zM541 219q89 0 138.5 68t49.5 186q0 250 -188 250
q-90 0 -139.5 -68t-49.5 -182q0 -115 49.5 -184.5t139.5 -69.5zM920 1423q-12 -158 -98 -242.5t-234 -84.5q-146 0 -231.5 84.5t-97.5 242.5h223q13 -120 106 -120q96 0 109 120h223z" />
    <glyph glyph-name="Idotaccent" unicode="&#x130;" horiz-adv-x="530" 
d="M426 0h-324v1358h324v-1358zM266 1769q73 0 125 -52t52 -128q0 -75 -52 -125.5t-125 -50.5q-72 0 -124 51.5t-52 124.5q0 75 52 127.5t124 52.5z" />
    <glyph glyph-name="Scedilla" unicode="&#x15e;" horiz-adv-x="1028" 
d="M805 1055q-126 84 -264 84q-76 0 -118 -32t-42 -87q0 -44 36.5 -85.5t187.5 -113.5q117 -55 191.5 -103t128.5 -129.5t54 -199.5q0 -355 -379 -403l-31 -45q6 2 21 2q91 0 148 -48.5t57 -130.5q0 -101 -81 -160t-200 -59q-121 0 -260 64l63 131q105 -43 179 -43
q86 0 86 61q0 52 -78 52q-50 0 -96 -17l-89 62l107 129q-218 24 -371 147l150 240q148 -107 307 -107q135 0 135 107q0 41 -33 79t-172 105q-115 55 -189.5 105t-128.5 137.5t-54 218.5q0 172 126.5 273.5t344.5 101.5q241 0 413 -119z" />
    <glyph glyph-name="scedilla" unicode="&#x15f;" horiz-adv-x="784" 
d="M436 -59q6 2 21 2q91 0 148 -48.5t57 -130.5q0 -108 -85 -163.5t-196 -55.5q-121 0 -260 64l63 131q105 -43 178 -43q87 0 87 61q0 52 -78 52q-50 0 -97 -17l-88 62l107 131q-139 21 -256 118l121 179q98 -86 225 -86q78 0 78 63q0 30 -25.5 44.5t-114.5 46.5
q-172 62 -228 141.5t-56 181.5q0 137 104 213t269 76q198 0 321 -97l-119 -174q-96 53 -194 53q-86 0 -86 -59q0 -33 25.5 -50.5t105.5 -45.5q175 -64 230 -137.5t55 -169.5q0 -117 -74 -194t-205 -101z" />
    <glyph glyph-name="Cacute" unicode="&#x106;" horiz-adv-x="1169" 
d="M1143 113q-171 -133 -418 -133q-290 0 -480 196t-190 504q0 310 189 504t481 194q247 0 418 -133l-168 -258q-110 98 -250 98q-155 0 -248.5 -110t-93.5 -295q0 -186 93 -297t249 -111q137 0 250 99zM1083 1759l-289 -321h-223l196 321h316z" />
    <glyph glyph-name="cacute" unicode="&#x107;" horiz-adv-x="907" 
d="M874 72q-126 -92 -327 -92q-227 0 -360.5 131.5t-133.5 357.5q0 228 133.5 361t360.5 133q202 0 325 -93l-124 -213q-98 66 -193 66q-93 0 -149 -70t-56 -184q0 -111 55.5 -180.5t149.5 -69.5q100 0 195 68zM913 1417l-289 -321h-223l196 321h316z" />
    <glyph glyph-name="Ccaron" unicode="&#x10c;" horiz-adv-x="1169" 
d="M1143 113q-171 -133 -418 -133q-290 0 -480 196t-190 504q0 310 189 504t481 194q247 0 418 -133l-168 -258q-110 98 -250 98q-155 0 -248.5 -110t-93.5 -295q0 -186 93 -297t249 -111q137 0 250 99zM1053 1784l-209 -346h-283l-207 346h234l114 -180l115 180h236z" />
    <glyph glyph-name="ccaron" unicode="&#x10d;" horiz-adv-x="907" 
d="M874 72q-126 -92 -327 -92q-227 0 -360.5 131.5t-133.5 357.5q0 228 133.5 361t360.5 133q202 0 325 -93l-124 -213q-98 66 -193 66q-93 0 -149 -70t-56 -184q0 -111 55.5 -180.5t149.5 -69.5q100 0 195 68zM877 1442l-209 -346h-283l-207 346h234l114 -180l115 180h236z
" />
    <glyph glyph-name="dcroat" unicode="&#x111;" horiz-adv-x="1133" 
d="M1081 100l-231 -120q-51 39 -76 108q-91 -108 -258 -108q-202 0 -332.5 136t-130.5 357q0 220 127.5 355t313.5 135q136 0 237 -80v213h-231v215h231v90l297 88v-178h123v-215h-123v-793q0 -75 11.5 -115t41.5 -88zM539 219q91 0 142.5 69.5t51.5 184.5q0 120 -50 185
t-144 65q-89 0 -139 -68.5t-50 -181.5q0 -115 49.5 -184.5t139.5 -69.5z" />
    <glyph glyph-name="Amacron" unicode="&#x100;" horiz-adv-x="1292" 
d="M1278 0h-340l-84 223h-432l-80 -223h-330l541 1374h184zM764 475l-125 344l-125 -344h250zM969 1469h-659v223h659v-223z" />
    <glyph glyph-name="amacron" unicode="&#x101;" horiz-adv-x="1130" 
d="M1079 100l-235 -120q-50 39 -72 108q-98 -108 -256 -108q-203 0 -333 134.5t-130 358.5q0 223 133.5 356.5t348.5 133.5q170 0 266 -121l225 116v-655q0 -81 12 -119t41 -84zM535 219q90 0 141 69t51 185q0 117 -48 183.5t-144 66.5q-88 0 -136.5 -68.5t-48.5 -181.5
q0 -115 48.5 -184.5t136.5 -69.5zM895 1147h-659v223h659v-223z" />
    <glyph glyph-name="Abreve" unicode="&#x102;" horiz-adv-x="1292" 
d="M1278 0h-340l-84 223h-432l-80 -223h-330l541 1374h184zM764 475l-125 344l-125 -344h250zM973 1765q-12 -158 -98 -242.5t-234 -84.5q-146 0 -231.5 84.5t-97.5 242.5h223q13 -120 106 -120q96 0 109 120h223z" />
    <glyph glyph-name="abreve" unicode="&#x103;" horiz-adv-x="1130" 
d="M1079 100l-235 -120q-50 39 -72 108q-98 -108 -256 -108q-203 0 -333 134.5t-130 358.5q0 223 133.5 356.5t348.5 133.5q170 0 266 -121l225 116v-655q0 -81 12 -119t41 -84zM535 219q90 0 141 69t51 185q0 117 -48 183.5t-144 66.5q-88 0 -136.5 -68.5t-48.5 -181.5
q0 -115 48.5 -184.5t136.5 -69.5zM895 1425q-12 -158 -98 -242.5t-234 -84.5q-146 0 -231.5 84.5t-97.5 242.5h223q13 -120 106 -120q96 0 109 120h223z" />
    <glyph glyph-name="Aogonek" unicode="&#x104;" horiz-adv-x="1292" 
d="M1278 0q-208 -105 -246.5 -141t-38.5 -66q0 -53 56 -53q41 0 129 57l100 -127q-137 -125 -303 -125q-103 0 -163 54.5t-60 152.5q0 163 245 248h-59l-84 223h-432l-80 -223h-330l541 1374h184zM764 475l-125 344l-125 -344h250z" />
    <glyph glyph-name="aogonek" unicode="&#x105;" horiz-adv-x="1130" 
d="M1079 -330q-137 -125 -303 -125q-102 0 -162.5 54.5t-60.5 152.5q0 75 55.5 143.5t182.5 147.5q-15 29 -19 45q-98 -108 -256 -108q-203 0 -333 134.5t-130 358.5q0 223 133.5 356.5t348.5 133.5q170 0 266 -121l225 116v-655q0 -81 12 -119t41 -84q-284 -194 -284 -307
q0 -53 55 -53q41 0 129 57zM535 219q90 0 141 69t51 185q0 117 -48 183.5t-144 66.5q-88 0 -136.5 -68.5t-48.5 -181.5q0 -115 48.5 -184.5t136.5 -69.5z" />
    <glyph glyph-name="Dcaron" unicode="&#x10e;" horiz-adv-x="1229" 
d="M100 1358h340q348 0 539.5 -171t191.5 -493q0 -326 -198 -510t-533 -184h-340v1358zM424 293h33q387 0 387 401q0 181 -99.5 277t-285.5 96h-35v-774zM943 1784l-209 -346h-283l-207 346h234l114 -180l115 180h236z" />
    <glyph glyph-name="dcaron" unicode="&#x10f;" horiz-adv-x="1249" 
d="M1235 1186q-53 16 -84 59.5t-31 97.5q0 69 48.5 117.5t117.5 48.5q75 0 121.5 -51.5t46.5 -128.5q0 -174 -188 -438h-164q91 149 133 295zM1081 100l-231 -120q-51 39 -76 108q-91 -108 -258 -108q-202 0 -332.5 136t-130.5 357q0 220 127.5 355t313.5 135q136 0 237 -80
v518l297 88v-1186q0 -75 11.5 -115t41.5 -88zM539 219q91 0 142.5 69.5t51.5 184.5q0 120 -50 185t-144 65q-89 0 -139 -68.5t-50 -181.5q0 -115 49.5 -184.5t139.5 -69.5z" />
    <glyph glyph-name="Dcroat" unicode="&#x110;" horiz-adv-x="1194" 
d="M100 1356h340q348 0 539.5 -171t191.5 -493q0 -335 -202 -514.5t-529 -179.5h-340v555h-118v252h118v551zM424 291h33q387 0 387 401q0 182 -100 277.5t-285 95.5h-35v-260h151v-252h-151v-262z" />
    <glyph glyph-name="Emacron" unicode="&#x112;" horiz-adv-x="993" 
d="M969 0h-869v1358h844l-137 -268h-383v-240h369v-293h-369v-266h395zM850 1469h-659v223h659v-223z" />
    <glyph glyph-name="emacron" unicode="&#x113;" horiz-adv-x="1092" 
d="M1047 489l-672 -145q44 -125 184 -125q135 0 281 96l116 -211q-189 -124 -407 -124q-206 0 -351 136t-145 355q0 228 147.5 360t354.5 132q206 0 342 -123t150 -351zM729 612q-56 113 -170 113q-80 0 -136.5 -52t-70.5 -145zM874 1147h-659v223h659v-223z" />
    <glyph glyph-name="Edotaccent" unicode="&#x116;" horiz-adv-x="993" 
d="M969 0h-869v1358h844l-137 -268h-383v-240h369v-293h-369v-266h395zM532 1796q73 0 125 -52t52 -128q0 -75 -52 -125.5t-125 -50.5q-72 0 -124 51.5t-52 124.5q0 75 52 127.5t124 52.5z" />
    <glyph glyph-name="edotaccent" unicode="&#x117;" horiz-adv-x="1092" 
d="M1047 489l-672 -145q44 -125 184 -125q135 0 281 96l116 -211q-189 -124 -407 -124q-206 0 -351 136t-145 355q0 228 147.5 360t354.5 132q206 0 342 -123t150 -351zM729 612q-56 113 -170 113q-80 0 -136.5 -52t-70.5 -145zM547 1452q73 0 125 -52t52 -128
q0 -75 -52 -125.5t-125 -50.5q-72 0 -124 51.5t-52 124.5q0 75 52 127.5t124 52.5z" />
    <glyph glyph-name="Eogonek" unicode="&#x118;" horiz-adv-x="993" 
d="M969 -330q-137 -125 -303 -125q-103 0 -163.5 54.5t-60.5 152.5q0 139 185 248h-527v1358h844l-137 -268h-383v-240h369v-293h-369v-266h395l150 -291h-123q-162 -121 -162 -207q0 -53 55 -53q42 0 129 57z" />
    <glyph glyph-name="eogonek" unicode="&#x119;" horiz-adv-x="1092" 
d="M1047 489l-672 -145q44 -125 184 -125q135 0 281 96l116 -211q-223 -193 -223 -311q0 -53 55 -53q42 0 130 57l100 -127q-137 -125 -303 -125q-103 0 -163 54.5t-60 152.5q0 121 118 230l-61 -2q-206 0 -351 136t-145 355q0 228 147.5 360t354.5 132q206 0 342 -123
t150 -351zM729 612q-56 113 -170 113q-80 0 -136.5 -52t-70.5 -145z" />
    <glyph glyph-name="Ecaron" unicode="&#x11a;" horiz-adv-x="993" 
d="M969 0h-869v1358h844l-137 -268h-383v-240h369v-293h-369v-266h395zM889 1784l-209 -346h-283l-207 346h234l114 -180l115 180h236z" />
    <glyph glyph-name="ecaron" unicode="&#x11b;" horiz-adv-x="1092" 
d="M1047 489l-672 -145q44 -125 184 -125q135 0 281 96l116 -211q-189 -124 -407 -124q-206 0 -351 136t-145 355q0 228 147.5 360t354.5 132q206 0 342 -123t150 -351zM729 612q-56 113 -170 113q-80 0 -136.5 -52t-70.5 -145zM910 1442l-209 -346h-283l-207 346h234
l114 -180l115 180h236z" />
    <glyph glyph-name="Gcommaaccent" unicode="&#x122;" horiz-adv-x="1253" 
d="M1165 113q-176 -133 -440 -133q-290 0 -480 196t-190 504q0 310 189 504t481 194q248 0 420 -133l-166 -258q-110 98 -254 98q-155 0 -248.5 -110t-93.5 -295q0 -186 93 -297t249 -111q66 0 119 19v201h-219l133 266h407v-645zM778 -551h-141q39 88 55 156q-55 13 -89 55
t-34 98q0 65 45 107.5t104 42.5q68 0 112 -45t44 -111q0 -139 -96 -303z" />
    <glyph glyph-name="gcommaaccent" unicode="&#x123;" horiz-adv-x="1100" 
d="M500 1554h141q-39 -87 -55 -155q55 -13 89 -55.5t34 -98.5q0 -67 -46 -108t-104 -41q-68 0 -112 45t-44 110q0 139 97 303zM1028 63q0 -489 -514 -489q-234 0 -432 133l156 215q125 -88 276 -88q112 0 162.5 50.5t50.5 166.5q-95 -71 -209 -71q-201 0 -332 135t-131 358
q0 225 135.5 357.5t350.5 132.5q160 0 270 -115l217 113v-898zM541 219q89 0 138.5 68t49.5 186q0 250 -188 250q-90 0 -139.5 -68t-49.5 -182q0 -115 49.5 -184.5t139.5 -69.5z" />
    <glyph glyph-name="Imacron" unicode="&#x12a;" horiz-adv-x="530" 
d="M426 0h-324v1358h324v-1358zM592 1469h-659v223h659v-223z" />
    <glyph glyph-name="imacron" unicode="&#x12b;" horiz-adv-x="477" 
d="M387 0h-297v854l297 109v-963zM569 1147h-659v223h659v-223z" />
    <glyph glyph-name="Iogonek" unicode="&#x12e;" horiz-adv-x="530" 
d="M426 0q-174 -104 -174 -207q0 -53 55 -53q52 0 129 57l101 -127q-137 -125 -304 -125q-102 0 -162.5 54.5t-60.5 152.5q0 140 178 248h-86v1358h324v-1358z" />
    <glyph glyph-name="iogonek" unicode="&#x12f;" horiz-adv-x="477" 
d="M238 1374q73 0 125.5 -52.5t52.5 -127.5q0 -74 -53 -126t-125 -52t-124.5 52.5t-52.5 125.5q0 75 52 127.5t125 52.5zM387 0q-166 -113 -166 -207q0 -53 55 -53q52 0 130 57l100 -127q-135 -125 -303 -125q-103 0 -163 54.5t-60 152.5q0 140 178 248h-70v854l299 109
v-963z" />
    <glyph glyph-name="Kcommaaccent" unicode="&#x136;" horiz-adv-x="1202" 
d="M1198 0h-401l-373 516v-516h-324v1358h324v-508l348 508h361l-471 -647zM672 -551h-141q39 88 55 156q-55 13 -89 55t-34 98q0 65 45 107.5t104 42.5q68 0 112 -45t44 -111q0 -139 -96 -303z" />
    <glyph glyph-name="kcommaaccent" unicode="&#x137;" horiz-adv-x="954" 
d="M950 0h-377l-202 367v-367h-299v1403l299 86v-864l200 317h359l-312 -424zM549 -551h-141q39 88 55 156q-55 13 -89 55t-34 98q0 65 45 107.5t104 42.5q68 0 112 -45t44 -111q0 -139 -96 -303z" />
    <glyph glyph-name="Lacute" unicode="&#x139;" horiz-adv-x="1001" 
d="M985 0h-885v1358h324v-1067h416zM870 1759l-289 -321h-223l196 321h316z" />
    <glyph glyph-name="lacute" unicode="&#x13a;" horiz-adv-x="442" 
d="M371 0h-299v1401l299 88v-1489zM580 1790l-289 -321h-223l196 321h316z" />
    <glyph glyph-name="Lcommaaccent" unicode="&#x13b;" horiz-adv-x="1001" 
d="M985 0h-885v1358h324v-1067h416zM572 -551h-141q39 88 55 156q-55 13 -89 55t-34 98q0 65 45 107.5t104 42.5q68 0 112 -45t44 -111q0 -139 -96 -303z" />
    <glyph glyph-name="lcommaaccent" unicode="&#x13c;" horiz-adv-x="442" 
d="M371 0h-299v1401l299 88v-1489zM293 -551h-141q39 88 55 156q-55 13 -89 55t-34 98q0 65 45 107.5t104 42.5q68 0 112 -45t44 -111q0 -139 -96 -303z" />
    <glyph glyph-name="Lcaron" unicode="&#x13d;" horiz-adv-x="1001" 
d="M731 1186q-53 16 -84 59.5t-31 97.5q0 70 48.5 118t117.5 48q75 0 121.5 -51.5t46.5 -128.5q0 -174 -188 -438h-164q91 149 133 295zM985 0h-885v1358h324v-1067h416z" />
    <glyph glyph-name="lcaron" unicode="&#x13e;" horiz-adv-x="588" 
d="M573 1186q-53 16 -83.5 59.5t-30.5 97.5q0 69 48.5 117.5t117.5 48.5q75 0 121.5 -51.5t46.5 -128.5q0 -174 -189 -438h-164q92 149 133 295zM371 0h-299v1401l299 88v-1489z" />
    <glyph glyph-name="Nacute" unicode="&#x143;" horiz-adv-x="1272" 
d="M1171 -4h-174l-585 711v-707h-312v1360h176l584 -705v703h311v-1362zM1042 1759l-289 -321h-223l196 321h316z" />
    <glyph glyph-name="nacute" unicode="&#x144;" horiz-adv-x="975" 
d="M905 0h-299v588q0 60 -21 83t-67 23q-70 0 -108.5 -59.5t-38.5 -159.5v-475h-299v858l288 105v-138q43 64 114 101t149 37q150 0 216 -88t66 -283v-592zM864 1417l-289 -321h-223l196 321h316z" />
    <glyph glyph-name="Ncommaaccent" unicode="&#x145;" horiz-adv-x="1272" 
d="M1171 -4h-174l-585 711v-707h-312v1360h176l584 -705v703h311v-1362zM707 -551h-141q39 88 55 156q-55 13 -89 55t-34 98q0 65 45 107.5t104 42.5q68 0 112 -45t44 -111q0 -139 -96 -303z" />
    <glyph glyph-name="ncommaaccent" unicode="&#x146;" horiz-adv-x="975" 
d="M905 0h-299v588q0 60 -21 83t-67 23q-70 0 -108.5 -59.5t-38.5 -159.5v-475h-299v858l288 105v-138q43 64 114 101t149 37q150 0 216 -88t66 -283v-592zM559 -551h-141q39 88 55 156q-55 13 -89 55t-34 98q0 65 45 107.5t104 42.5q68 0 112 -45t44 -111q0 -139 -96 -303z
" />
    <glyph glyph-name="Ncaron" unicode="&#x147;" horiz-adv-x="1272" 
d="M1171 -4h-174l-585 711v-707h-312v1360h176l584 -705v703h311v-1362zM990 1784l-209 -346h-283l-207 346h234l114 -180l115 180h236z" />
    <glyph glyph-name="ncaron" unicode="&#x148;" horiz-adv-x="975" 
d="M905 0h-299v588q0 60 -21 83t-67 23q-70 0 -108.5 -59.5t-38.5 -159.5v-475h-299v858l288 105v-138q43 64 114 101t149 37q150 0 216 -88t66 -283v-592zM836 1442l-209 -346h-283l-207 346h234l114 -180l115 180h236z" />
    <glyph glyph-name="Omacron" unicode="&#x14c;" horiz-adv-x="1432" 
d="M717 1378q279 0 469 -193t190 -503q0 -312 -190.5 -507t-468.5 -195q-279 0 -470.5 195.5t-191.5 506.5q0 315 193.5 505.5t468.5 190.5zM717 279q145 0 239.5 109t94.5 294q0 183 -94.5 291t-239.5 108q-146 0 -240 -108t-94 -291q0 -185 94 -294t240 -109zM1044 1469
h-659v223h659v-223z" />
    <glyph glyph-name="omacron" unicode="&#x14d;" horiz-adv-x="1110" 
d="M555 963q216 0 358 -135.5t142 -354.5q0 -222 -142.5 -357.5t-357.5 -135.5t-358.5 137.5t-143.5 355.5q0 217 142.5 353.5t359.5 136.5zM555 219q94 0 148.5 69t54.5 185q0 115 -54 182.5t-149 67.5q-94 0 -149.5 -68t-55.5 -182t55.5 -184t149.5 -70zM885 1147h-659
v223h659v-223z" />
    <glyph glyph-name="Ohungarumlaut" unicode="&#x150;" horiz-adv-x="1432" 
d="M717 1378q279 0 469 -193t190 -503q0 -312 -190.5 -507t-468.5 -195q-279 0 -470.5 195.5t-191.5 506.5q0 315 193.5 505.5t468.5 190.5zM717 279q145 0 239.5 109t94.5 294q0 183 -94.5 291t-239.5 108q-146 0 -240 -108t-94 -291q0 -185 94 -294t240 -109zM848 1759
l-291 -321h-224l197 321h318zM1251 1759l-289 -321h-223l197 321h315z" />
    <glyph glyph-name="ohungarumlaut" unicode="&#x151;" horiz-adv-x="1110" 
d="M555 963q216 0 358 -135.5t142 -354.5q0 -222 -142.5 -357.5t-357.5 -135.5t-358.5 137.5t-143.5 355.5q0 217 142.5 353.5t359.5 136.5zM555 219q94 0 148.5 69t54.5 185q0 115 -54 182.5t-149 67.5q-94 0 -149.5 -68t-55.5 -182t55.5 -184t149.5 -70zM713 1417
l-291 -321h-224l197 321h318zM1116 1417l-289 -321h-223l197 321h315z" />
    <glyph glyph-name="Racute" unicode="&#x154;" horiz-adv-x="1100" 
d="M1075 0h-354l-254 479h-43v-479h-324v1358h351q262 0 395 -108t133 -316q0 -269 -219 -391zM424 735h22q207 0 207 185q0 172 -204 172h-25v-357zM885 1759l-289 -321h-223l196 321h316z" />
    <glyph glyph-name="racute" unicode="&#x155;" horiz-adv-x="743" 
d="M717 950l-51 -276q-57 18 -131 18q-164 0 -164 -215v-477h-299v858l288 103v-140q95 142 258 142q58 0 99 -13zM756 1417l-289 -321h-223l196 321h316z" />
    <glyph glyph-name="Rcommaaccent" unicode="&#x156;" horiz-adv-x="1100" 
d="M1075 0h-354l-254 479h-43v-479h-324v1358h351q262 0 395 -108t133 -316q0 -269 -219 -391zM424 735h22q207 0 207 185q0 172 -204 172h-25v-357zM621 -551h-141q39 88 55 156q-55 13 -89 55t-34 98q0 65 45 107.5t104 42.5q68 0 112 -45t44 -111q0 -139 -96 -303z" />
    <glyph glyph-name="rcommaaccent" unicode="&#x157;" horiz-adv-x="743" 
d="M717 950l-51 -276q-57 18 -131 18q-164 0 -164 -215v-477h-299v858l288 103v-140q95 142 258 142q58 0 99 -13zM443 -551h-141q39 88 55 156q-55 13 -89 55t-34 98q0 65 45 107.5t104 42.5q68 0 112 -45t44 -111q0 -139 -96 -303z" />
    <glyph glyph-name="Rcaron" unicode="&#x158;" horiz-adv-x="1100" 
d="M1075 0h-354l-254 479h-43v-479h-324v1358h351q262 0 395 -108t133 -316q0 -269 -219 -391zM424 735h22q207 0 207 185q0 172 -204 172h-25v-357zM871 1784l-209 -346h-283l-207 346h234l114 -180l115 180h236z" />
    <glyph glyph-name="rcaron" unicode="&#x159;" horiz-adv-x="743" 
d="M717 950l-51 -276q-57 18 -131 18q-164 0 -164 -215v-477h-299v858l288 103v-140q95 142 258 142q58 0 99 -13zM752 1442l-209 -346h-283l-207 346h234l114 -180l115 180h236z" />
    <glyph glyph-name="Sacute" unicode="&#x15a;" horiz-adv-x="1028" 
d="M805 1055q-126 84 -264 84q-76 0 -118 -32t-42 -87q0 -44 36.5 -85.5t187.5 -113.5q117 -55 191.5 -103t128.5 -129.5t54 -199.5q0 -199 -124 -304t-351 -105q-253 0 -449 151l150 240q148 -107 307 -107q135 0 135 107q0 41 -33 79t-172 105q-115 55 -189.5 105
t-128.5 137.5t-54 218.5q0 172 126.5 273.5t344.5 101.5q241 0 413 -119zM866 1759l-289 -321h-223l196 321h316z" />
    <glyph glyph-name="sacute" unicode="&#x15b;" horiz-adv-x="784" 
d="M612 692q-96 53 -194 53q-86 0 -86 -59q0 -33 25.5 -50.5t105.5 -45.5q175 -64 230 -137.5t55 -169.5q0 -142 -105.5 -222.5t-259.5 -80.5q-193 0 -346 124l121 179q98 -86 225 -86q78 0 78 63q0 28 -25.5 44t-96.5 41q-96 34 -151 62.5t-103 94.5t-48 172q0 137 104 213
t269 76q198 0 321 -97zM756 1417l-289 -321h-223l196 321h316z" />
    <glyph glyph-name="Tcommaaccent" unicode="&#x162;" horiz-adv-x="1081" 
d="M1047 1067h-347v-1067h-321v1067h-346v291h1014v-291zM613 -551h-141q39 88 55 156q-55 13 -89 55t-34 98q0 65 45 107.5t104 42.5q68 0 112 -45t44 -111q0 -139 -96 -303z" />
    <glyph glyph-name="Tcommaaccent" unicode="&#x21a;" horiz-adv-x="1081" 
d="M1047 1067h-347v-1067h-321v1067h-346v291h1014v-291zM613 -551h-141q39 88 55 156q-55 13 -89 55t-34 98q0 65 45 107.5t104 42.5q68 0 112 -45t44 -111q0 -139 -96 -303z" />
    <glyph glyph-name="tcommaaccent" unicode="&#x163;" horiz-adv-x="717" 
d="M713 942l-127 -246h-133v-276q0 -120 37 -190t122 -126l-184 -149q-274 100 -274 401v340h-121v246h121v250l299 180v-430h260zM430 -551h-141q39 88 55 156q-55 13 -89 55t-34 98q0 65 45 107.5t104 42.5q68 0 112 -45t44 -111q0 -139 -96 -303z" />
    <glyph glyph-name="tcommaaccent" unicode="&#x21b;" horiz-adv-x="717" 
d="M713 942l-127 -246h-133v-276q0 -120 37 -190t122 -126l-184 -149q-274 100 -274 401v340h-121v246h121v250l299 180v-430h260zM430 -551h-141q39 88 55 156q-55 13 -89 55t-34 98q0 65 45 107.5t104 42.5q68 0 112 -45t44 -111q0 -139 -96 -303z" />
    <glyph glyph-name="Tcaron" unicode="&#x164;" horiz-adv-x="1081" 
d="M1047 1067h-347v-1067h-321v1067h-346v291h1014v-291zM889 1786l-209 -346h-283l-207 346h234l114 -180l115 180h236z" />
    <glyph glyph-name="tcaron" unicode="&#x165;" horiz-adv-x="717" 
d="M668 1239q-53 13 -84 49t-31 80q0 57 48 97t116 40q75 0 120.5 -42.5t45.5 -104.5q0 -147 -187 -363h-161q91 124 133 244zM713 942l-127 -246h-133v-276q0 -120 37 -190t122 -126l-184 -149q-274 100 -274 401v340h-121v246h121v250l299 180v-430h260z" />
    <glyph glyph-name="Umacron" unicode="&#x16a;" 
d="M1141 594q0 -299 -134 -456.5t-386 -157.5q-253 0 -387 157.5t-134 456.5v764h322v-764q0 -168 43.5 -245t155.5 -77q108 0 154 72t46 252v762h320v-764zM948 1469h-659v223h659v-223z" />
    <glyph glyph-name="umacron" unicode="&#x16b;" horiz-adv-x="999" 
d="M956 100l-219 -120q-96 84 -112 151q-96 -151 -273 -151q-149 0 -215.5 86.5t-66.5 283.5v592h299v-588q0 -56 18.5 -81t67.5 -25q72 0 110.5 59.5t38.5 159.5v475h299v-639q0 -78 10 -114t43 -89zM829 1147h-659v223h659v-223z" />
    <glyph glyph-name="Uring" unicode="&#x16e;" 
d="M1141 594q0 -299 -134 -456.5t-386 -157.5q-253 0 -387 157.5t-134 456.5v764h322v-764q0 -168 43.5 -245t155.5 -77q108 0 154 72t46 252v762h320v-764zM618 1929q103 0 174.5 -71t71.5 -175q0 -102 -71.5 -174t-174.5 -72q-102 0 -174 72t-72 174q0 104 71.5 175
t174.5 71zM618 1593q36 0 63 27.5t27 62.5q0 37 -26.5 63.5t-63.5 26.5t-64.5 -26.5t-27.5 -63.5q0 -35 28 -62.5t64 -27.5z" />
    <glyph glyph-name="uring" unicode="&#x16f;" horiz-adv-x="999" 
d="M956 100l-219 -120q-96 84 -112 151q-96 -151 -273 -151q-149 0 -215.5 86.5t-66.5 283.5v592h299v-588q0 -56 18.5 -81t67.5 -25q72 0 110.5 59.5t38.5 159.5v475h299v-639q0 -78 10 -114t43 -89zM499 1579q103 0 174.5 -71t71.5 -175q0 -102 -71.5 -174t-174.5 -72
q-102 0 -174 72t-72 174q0 104 71.5 175t174.5 71zM499 1243q36 0 63 27.5t27 62.5q0 37 -26.5 63.5t-63.5 26.5t-64.5 -26.5t-27.5 -63.5q0 -35 28 -62.5t64 -27.5z" />
    <glyph glyph-name="Uhungarumlaut" unicode="&#x170;" 
d="M1141 594q0 -299 -134 -456.5t-386 -157.5q-253 0 -387 157.5t-134 456.5v764h322v-764q0 -168 43.5 -245t155.5 -77q108 0 154 72t46 252v762h320v-764zM783 1759l-291 -321h-224l197 321h318zM1186 1759l-289 -321h-223l197 321h315z" />
    <glyph glyph-name="uhungarumlaut" unicode="&#x171;" horiz-adv-x="999" 
d="M956 100l-219 -120q-96 84 -112 151q-96 -151 -273 -151q-149 0 -215.5 86.5t-66.5 283.5v592h299v-588q0 -56 18.5 -81t67.5 -25q72 0 110.5 59.5t38.5 159.5v475h299v-639q0 -78 10 -114t43 -89zM693 1417l-291 -321h-224l197 321h318zM1096 1417l-289 -321h-223
l197 321h315z" />
    <glyph glyph-name="Uogonek" unicode="&#x172;" 
d="M1141 594q0 -252 -96.5 -405.5t-280.5 -194.5q-154 -119 -154 -201q0 -53 56 -53q41 0 129 57l100 -127q-137 -125 -303 -125q-102 0 -162.5 54.5t-60.5 152.5q0 128 168 234q-215 25 -326 181t-111 427v764h322v-764q0 -168 43.5 -245t155.5 -77q108 0 154 72t46 252
v762h320v-764z" />
    <glyph glyph-name="uogonek" unicode="&#x173;" horiz-adv-x="999" 
d="M956 100q-135 -87 -209.5 -170.5t-74.5 -136.5t55 -53q41 0 129 57l100 -127q-137 -125 -303 -125q-102 0 -162.5 54.5t-60.5 152.5q0 137 246 287q-45 56 -51 92q-96 -151 -273 -151q-149 0 -215.5 86.5t-66.5 283.5v592h299v-588q0 -56 18.5 -81t67.5 -25
q72 0 110.5 59.5t38.5 159.5v475h299v-639q0 -78 10 -114t43 -89z" />
    <glyph glyph-name="Zacute" unicode="&#x179;" horiz-adv-x="1178" 
d="M1151 295l-147 -295h-975l553 1067h-516l145 291h903l-551 -1063h588zM1030 1759l-289 -321h-223l196 321h316z" />
    <glyph glyph-name="zacute" unicode="&#x17a;" horiz-adv-x="934" 
d="M918 256l-125 -256h-779l404 690h-363l123 252h733l-401 -686h408zM901 1417l-289 -321h-223l196 321h316z" />
    <glyph glyph-name="Zdotaccent" unicode="&#x17b;" horiz-adv-x="1178" 
d="M1151 295l-147 -295h-975l553 1067h-516l145 291h903l-551 -1063h588zM647 1796q73 0 125 -52t52 -128q0 -75 -52 -125.5t-125 -50.5q-72 0 -124 51.5t-52 124.5q0 75 52 127.5t124 52.5z" />
    <glyph glyph-name="zdotaccent" unicode="&#x17c;" horiz-adv-x="934" 
d="M918 256l-125 -256h-779l404 690h-363l123 252h733l-401 -686h408zM541 1452q73 0 125 -52t52 -128q0 -75 -52 -125.5t-125 -50.5q-72 0 -124 51.5t-52 124.5q0 75 52 127.5t124 52.5z" />
    <glyph glyph-name="Scommaaccent" unicode="&#x218;" horiz-adv-x="1028" 
d="M805 1055q-126 84 -264 84q-76 0 -118 -32t-42 -87q0 -44 36.5 -85.5t187.5 -113.5q117 -55 191.5 -103t128.5 -129.5t54 -199.5q0 -199 -124 -304t-351 -105q-253 0 -449 151l150 240q148 -107 307 -107q135 0 135 107q0 41 -33 79t-172 105q-115 55 -189.5 105
t-128.5 137.5t-54 218.5q0 172 126.5 273.5t344.5 101.5q241 0 413 -119zM613 -551h-141q39 88 55 156q-55 13 -89 55t-34 98q0 65 45 107.5t104 42.5q68 0 112 -45t44 -111q0 -139 -96 -303z" />
    <glyph glyph-name="scommaaccent" unicode="&#x219;" horiz-adv-x="784" 
d="M612 692q-96 53 -194 53q-86 0 -86 -59q0 -33 25.5 -50.5t105.5 -45.5q175 -64 230 -137.5t55 -169.5q0 -142 -105.5 -222.5t-259.5 -80.5q-193 0 -346 124l121 179q98 -86 225 -86q78 0 78 63q0 28 -25.5 44t-96.5 41q-96 34 -151 62.5t-103 94.5t-48 172q0 137 104 213
t269 76q198 0 321 -97zM463 -551h-141q39 88 55 156q-55 13 -89 55t-34 98q0 65 45 107.5t104 42.5q68 0 112 -45t44 -111q0 -139 -96 -303z" />
    <glyph glyph-name="commaaccent" horiz-adv-x="784" 
d="M463 -551h-141q39 88 55 156q-55 13 -89 55t-34 98q0 65 45 107.5t104 42.5q68 0 112 -45t44 -111q0 -139 -96 -303z" />
    <glyph glyph-name="glyph323" horiz-adv-x="1081" 
d="M1047 1067h-347v-1067h-321v1067h-346v291h1014v-291zM612 -551h-141q39 88 55 156q-55 13 -89 55t-34 98q0 65 45 107.5t104 42.5q68 0 112 -45t44 -111q0 -139 -96 -303z" />
    <glyph glyph-name="glyph324" horiz-adv-x="717" 
d="M713 942l-127 -246h-133v-276q0 -120 37 -190t122 -126l-184 -149q-274 100 -274 401v340h-121v246h121v250l299 180v-430h260zM430 -551h-141q39 88 55 156q-55 13 -89 55t-34 98q0 65 45 107.5t104 42.5q68 0 112 -45t44 -111q0 -139 -96 -303z" />
    <glyph glyph-name="Eth" unicode="&#xd0;" horiz-adv-x="1194" 
d="M100 1356h340q348 0 539.5 -171t191.5 -493q0 -335 -202 -514.5t-529 -179.5h-340v555h-118v252h118v551zM424 291h33q387 0 387 401q0 182 -100 277.5t-285 95.5h-35v-260h151v-252h-151v-262z" />
    <glyph glyph-name="nbspace" unicode="&#xa0;" horiz-adv-x="414" 
 />
    <glyph glyph-name="sfthyphen" unicode="&#xad;" horiz-adv-x="647" 
d="M598 379h-549v256h549v-256z" />
    <glyph glyph-name="overscore" unicode="&#xaf;" horiz-adv-x="1133" 
d="M1143 1469h-1151v241h1151v-241z" />
    <glyph glyph-name="currency" unicode="&#xa4;" horiz-adv-x="1241" 
d="M973 180l-148 148q-98 -52 -207 -52q-110 0 -208 52l-148 -146l-190 193l149 147q-49 94 -49 201q0 111 51 205l-151 151l190 193l152 -154q94 51 204 51q54 0 104 -13t97 -36l154 154l190 -193l-151 -151q53 -96 53 -207q0 -113 -51 -203l149 -147zM813 727
q0 96 -58.5 144.5t-136.5 48.5q-79 0 -136.5 -48.5t-57.5 -144.5q0 -94 57.5 -144.5t136.5 -50.5q80 0 137.5 50.5t57.5 144.5z" />
    <glyph glyph-name="afii10023" unicode="&#x401;" horiz-adv-x="993" 
d="M969 0h-869v1358h844l-137 -268h-383v-240h369v-293h-369v-266h395zM731 1769q67 0 115.5 -49t48.5 -117q0 -69 -48 -117.5t-116 -48.5q-66 0 -114 49t-48 117q0 67 48.5 116.5t113.5 49.5zM320 1769q65 0 114 -49.5t49 -116.5q0 -68 -48.5 -117t-114.5 -49
q-68 0 -117 49t-49 117q0 67 49 116.5t117 49.5z" />
    <glyph glyph-name="afii10051" unicode="&#x402;" horiz-adv-x="1520" 
d="M662 850q135 106 317 106q212 0 341.5 -146t129.5 -353t-130.5 -345.5t-352.5 -138.5q-88 0 -224 33l76 258q68 -24 131 -24q84 0 131 63t47 160q0 94 -55 157.5t-149 63.5q-116 0 -189 -71t-73 -181v-432h-322v1090h-346v268h1136l-143 -268h-325v-240z" />
    <glyph glyph-name="afii10052" unicode="&#x403;" horiz-adv-x="989" 
d="M897 1757l-289 -321h-223l197 321h315zM985 1358l-139 -268h-422v-1090h-324v1358h885z" />
    <glyph glyph-name="afii10053" unicode="&#x404;" horiz-adv-x="1169" 
d="M1143 113q-171 -133 -418 -133q-290 0 -480 196t-190 504q0 310 189 504t481 194q247 0 418 -133l-168 -258q-110 98 -250 98q-113 0 -196 -60.5t-121 -174.5h415v-291h-428q30 -138 116.5 -212.5t213.5 -74.5q137 0 250 99z" />
    <glyph glyph-name="afii10054" unicode="&#x405;" horiz-adv-x="1028" 
d="M805 1055q-126 84 -264 84q-76 0 -118 -32t-42 -87q0 -44 36.5 -85.5t187.5 -113.5q117 -55 191.5 -103t128.5 -129.5t54 -199.5q0 -199 -124 -304t-351 -105q-253 0 -449 151l150 240q148 -107 307 -107q135 0 135 107q0 41 -33 79t-172 105q-115 55 -189.5 105
t-128.5 137.5t-54 218.5q0 172 126.5 273.5t344.5 101.5q241 0 413 -119z" />
    <glyph glyph-name="afii10055" unicode="&#x406;" horiz-adv-x="530" 
d="M426 0h-324v1358h324v-1358z" />
    <glyph glyph-name="afii10056" unicode="&#x407;" horiz-adv-x="530" 
d="M426 0h-324v1358h324v-1358zM471 1769q67 0 115.5 -49t48.5 -117q0 -69 -48 -117.5t-116 -48.5q-66 0 -114 49t-48 117q0 67 48.5 116.5t113.5 49.5zM60 1769q65 0 114 -49.5t49 -116.5q0 -68 -48.5 -117t-114.5 -49q-68 0 -117 49t-49 117q0 67 49 116.5t117 49.5z" />
    <glyph glyph-name="afii10057" unicode="&#x408;" horiz-adv-x="754" 
d="M653 426q0 -446 -342 -446q-181 0 -307 100l119 233q60 -47 115 -47q53 0 72.5 32.5t19.5 129.5v930h323v-932z" />
    <glyph glyph-name="afii10058" unicode="&#x409;" horiz-adv-x="1866" 
d="M1190 848h47q265 0 403 -105.5t138 -310.5q0 -432 -541 -432h-369v1065h-364v-576q0 -139 -20 -234.5t-86.5 -170.5t-198.5 -113l-179 213q100 44 130 113t30 192v869h1010v-510zM1190 274h47q126 0 172.5 36.5t46.5 119.5q0 143 -219 143h-47v-299z" />
    <glyph glyph-name="afii10059" unicode="&#x40a;" horiz-adv-x="1780" 
d="M1141 842h47q265 0 403 -105.5t138 -310.5q0 -432 -541 -432h-365v563h-399v-557h-324v1358h324v-508h399v508h318v-516zM1141 268h47q126 0 172.5 36.5t46.5 119.5q0 143 -219 143h-47v-299z" />
    <glyph glyph-name="afii10060" unicode="&#x40b;" horiz-adv-x="1477" 
d="M1374 0h-272v322q0 162 -62 199.5t-213 37.5h-118v-559h-322v1067h-346v291h1083l-149 -291h-266v-242h139q277 0 401.5 -93t124.5 -370v-362z" />
    <glyph glyph-name="afii10061" unicode="&#x40c;" horiz-adv-x="1204" 
d="M1004 1759l-289 -321h-223l196 321h316zM1198 0h-389l-247 352q-95 136 -108.5 150t-27.5 14h-2v-516h-324v1358h324v-508h4q33 0 66 36t94 161q68 135 102.5 185.5t82.5 86.5t105 51.5t132 15.5q55 0 139 -10l-8 -231q-47 8 -82 8q-52 0 -92.5 -29t-104.5 -139l-57 -99
q-34 -59 -77 -102.5t-116 -83.5q51 -18 94.5 -62t118.5 -144z" />
    <glyph glyph-name="afii10062" unicode="&#x40e;" horiz-adv-x="1225" 
d="M756 1765h223q-13 -158 -98.5 -242.5t-233.5 -84.5q-146 0 -231.5 84.5t-98.5 242.5h224q13 -120 106 -120q96 0 109 120zM1194 1358l-391 -979q-83 -206 -183.5 -302.5t-283.5 -96.5q-161 0 -281 59l121 266q80 -35 154 -35q50 0 82.5 34.5t76.5 139.5l-458 914h356
l264 -584l203 584h340z" />
    <glyph glyph-name="afii10145" unicode="&#x40f;" horiz-adv-x="1243" 
d="M1141 0h-348l-103 -289h-248l60 289h-402v1358h324v-1065h399v1065h318v-1358z" />
    <glyph glyph-name="afii10017" unicode="&#x410;" horiz-adv-x="1292" 
d="M1278 0h-340l-84 223h-432l-80 -223h-330l541 1374h184zM764 475l-125 344l-125 -344h250z" />
    <glyph glyph-name="afii10018" unicode="&#x411;" horiz-adv-x="1051" 
d="M424 848h47q265 0 403 -105.5t138 -310.5q0 -432 -541 -432h-369v1358h820l-140 -268h-358v-242zM424 274h47q126 0 172.5 36.5t46.5 119.5q0 143 -219 143h-47v-299z" />
    <glyph glyph-name="afii10019" unicode="&#x412;" horiz-adv-x="1051" 
d="M811 729q195 -95 195 -313q0 -206 -134 -311t-391 -105h-379v1358h377q251 0 371.5 -85t120.5 -263q0 -208 -160 -281zM424 840h57q170 0 170 131q0 64 -42.5 91.5t-129.5 27.5h-55v-250zM424 291h57q111 0 157 35.5t46 119.5q0 148 -205 148h-55v-303z" />
    <glyph glyph-name="afii10020" unicode="&#x413;" horiz-adv-x="995" 
d="M985 1358l-139 -268h-422v-1090h-324v1358h885z" />
    <glyph glyph-name="afii10021" unicode="&#x414;" horiz-adv-x="1255" 
d="M1214 291l-268 -580h-207l84 289h-510l-84 -289h-188v580q91 12 137 52.5t60 97.5t14 143v774h842v-1067h120zM778 291v799h-233v-449q0 -141 -16 -210.5t-70 -139.5h319z" />
    <glyph glyph-name="afii10022" unicode="&#x415;" horiz-adv-x="993" 
d="M969 0h-869v1358h844l-137 -268h-383v-240h369v-293h-369v-266h395z" />
    <glyph glyph-name="afii10024" unicode="&#x416;" horiz-adv-x="1880" 
d="M1876 0h-389l-248 353q-96 136 -108.5 149.5t-28.5 13.5v-465l-324 -102v567q-16 0 -29.5 -15t-117.5 -162l-238 -339h-389l439 579q72 95 147 121q-122 65 -197 193q-76 132 -103 172t-62 64t-85 24q-35 0 -82 -8l-8 231q85 10 140 10q76 0 134.5 -16.5t107 -54.5
t82 -89t97.5 -179q62 -126 95.5 -161.5t68.5 -35.5v461l324 96v-557q35 0 68.5 35.5t95.5 161.5q68 135 102.5 185.5t82.5 86.5t105 51.5t132 15.5q54 0 139 -10l-8 -231q-47 8 -82 8q-52 0 -92.5 -29t-104.5 -139l-57 -99q-34 -59 -77 -102.5t-116 -83.5q51 -18 94.5 -62
t118.5 -144z" />
    <glyph glyph-name="afii10025" unicode="&#x417;" horiz-adv-x="991" 
d="M731 727q97 -36 152 -121.5t55 -185.5q0 -211 -135.5 -325.5t-333.5 -114.5q-267 0 -440 233l178 197q50 -69 110 -110.5t148 -41.5q160 0 160 162q0 74 -45.5 111.5t-239.5 37.5h-27v252h21q151 0 210.5 26t59.5 124q0 129 -135 129q-136 0 -248 -135l-172 182
q191 231 459 231q190 0 295.5 -95t105.5 -261q0 -201 -178 -295z" />
    <glyph glyph-name="afii10026" unicode="&#x418;" horiz-adv-x="1272" 
d="M1171 0h-311v707l-586 -711h-174v1362h312v-703l583 705h176v-1360z" />
    <glyph glyph-name="afii10027" unicode="&#x419;" horiz-adv-x="1272" 
d="M993 1765q-12 -158 -98 -242.5t-233 -84.5t-232.5 84.5t-97.5 242.5h223q13 -120 107 -120q95 0 108 120h223zM1171 0h-311v707l-586 -711h-174v1362h312v-703l583 705h176v-1360z" />
    <glyph glyph-name="afii10028" unicode="&#x41a;" horiz-adv-x="1219" 
d="M1198 0h-389l-247 352q-95 136 -108.5 150t-27.5 14h-2v-516h-324v1358h324v-508h4q33 0 66 36t94 161q68 135 102.5 185.5t82.5 86.5t105 51.5t132 15.5q55 0 139 -10l-8 -231q-47 8 -82 8q-52 0 -92.5 -29t-104.5 -139l-57 -99q-34 -59 -77 -102.5t-116 -83.5
q51 -18 94.5 -62t118.5 -144z" />
    <glyph glyph-name="afii10029" unicode="&#x41b;" horiz-adv-x="1243" 
d="M1141 0h-318v1065h-364v-576q0 -139 -20 -234.5t-86.5 -170.5t-198.5 -113l-179 213q100 44 130 113t30 192v869h1006v-1358z" />
    <glyph glyph-name="afii10030" unicode="&#x41c;" horiz-adv-x="1544" 
d="M1497 0h-344l-90 643l-215 -647h-152l-221 649l-100 -645h-328l236 1360h213l297 -750l258 750h213z" />
    <glyph glyph-name="afii10031" unicode="&#x41d;" horiz-adv-x="1243" 
d="M1141 0h-318v557h-399v-557h-324v1358h324v-508h399v508h318v-1358z" />
    <glyph glyph-name="afii10032" unicode="&#x41e;" horiz-adv-x="1432" 
d="M717 1378q279 0 469 -193t190 -503q0 -312 -190.5 -507t-468.5 -195q-279 0 -470.5 195.5t-191.5 506.5q0 315 193.5 505.5t468.5 190.5zM717 279q145 0 239.5 109t94.5 294q0 183 -94.5 291t-239.5 108q-146 0 -240 -108t-94 -291q0 -185 94 -294t240 -109z" />
    <glyph glyph-name="afii10033" unicode="&#x41f;" horiz-adv-x="1243" 
d="M1141 0h-318v1065h-399v-1065h-324v1358h1041v-1358z" />
    <glyph glyph-name="afii10034" unicode="&#x420;" horiz-adv-x="1022" 
d="M100 1362h349q528 0 528 -447q0 -223 -135.5 -336.5t-392.5 -113.5h-25v-465h-324v1362zM424 729h16q116 0 162.5 45.5t46.5 140.5t-45.5 140t-161.5 45h-18v-371z" />
    <glyph glyph-name="afii10035" unicode="&#x421;" horiz-adv-x="1169" 
d="M1143 113q-171 -133 -418 -133q-290 0 -480 196t-190 504q0 310 189 504t481 194q247 0 418 -133l-168 -258q-110 98 -250 98q-155 0 -248.5 -110t-93.5 -295q0 -186 93 -297t249 -111q137 0 250 99z" />
    <glyph glyph-name="afii10036" unicode="&#x422;" horiz-adv-x="1081" 
d="M1047 1067h-347v-1067h-321v1067h-346v291h1014v-291z" />
    <glyph glyph-name="afii10037" unicode="&#x423;" horiz-adv-x="1225" 
d="M1194 1358l-391 -979q-83 -206 -183.5 -302.5t-283.5 -96.5q-161 0 -281 59l121 266q80 -35 154 -35q50 0 82.5 34.5t76.5 139.5l-458 914h356l264 -584l203 584h340z" />
    <glyph glyph-name="afii10038" unicode="&#x424;" horiz-adv-x="1505" 
d="M903 1245q247 -14 397 -170t150 -407q0 -252 -150.5 -409.5t-396.5 -172.5v-133h-301v133q-246 15 -396.5 172.5t-150.5 409.5q0 251 150 407t397 170v158h301v-158zM903 365q96 7 157.5 89.5t61.5 213.5q0 130 -61 210.5t-158 88.5v-602zM602 365v602q-97 -8 -158 -88.5
t-61 -210.5q0 -131 61.5 -213.5t157.5 -89.5z" />
    <glyph glyph-name="afii10039" unicode="&#x425;" horiz-adv-x="1274" 
d="M1247 0h-360l-254 418l-246 -418h-360l430 707l-396 651h359l231 -381l211 381h361l-402 -662z" />
    <glyph glyph-name="afii10040" unicode="&#x426;" horiz-adv-x="1348" 
d="M1327 293l-207 -582h-248l60 289h-832v1358h324v-1065h399v1065h318v-1065h186z" />
    <glyph glyph-name="afii10041" unicode="&#x427;" horiz-adv-x="1225" 
d="M1122 0h-317v502h-203q-219 0 -321 49.5t-150.5 151.5t-48.5 258v397h324v-365q0 -81 13 -120t62 -58.5t156 -19.5h168v563h317v-1358z" />
    <glyph glyph-name="afii10042" unicode="&#x428;" horiz-adv-x="1726" 
d="M1626 0h-1526v1358h324v-1065h287v1065h311v-1065h293v1065h311v-1358z" />
    <glyph glyph-name="afii10043" unicode="&#x429;" horiz-adv-x="1835" 
d="M1815 293l-207 -582h-248l59 289h-1319v1358h324v-1065h287v1065h311v-1065h293v1065h311v-1065h189z" />
    <glyph glyph-name="afii10044" unicode="&#x42a;" horiz-adv-x="1169" 
d="M541 848h47q265 0 402.5 -105.5t137.5 -310.5q0 -432 -540 -432h-369v1090h-199v268h521v-510zM541 274h47q126 0 172.5 36.5t46.5 119.5q0 143 -219 143h-47v-299z" />
    <glyph glyph-name="afii10045" unicode="&#x42b;" horiz-adv-x="1556" 
d="M1454 0h-324v1358h324v-1358zM424 848h47q265 0 403 -105.5t138 -310.5q0 -432 -541 -432h-369v1358h322v-510zM424 274h47q126 0 172.5 36.5t46.5 119.5q0 143 -219 143h-47v-299z" />
    <glyph glyph-name="afii10046" unicode="&#x42c;" horiz-adv-x="1063" 
d="M424 848h47q265 0 403 -105.5t138 -310.5q0 -432 -541 -432h-369v1358h322v-510zM424 274h47q126 0 172.5 36.5t46.5 119.5q0 143 -219 143h-47v-299z" />
    <glyph glyph-name="afii10047" unicode="&#x42d;" horiz-adv-x="1169" 
d="M27 1245q171 133 417 133q292 0 481 -195t189 -503t-189.5 -504t-480.5 -196q-246 0 -417 133l168 258q113 -99 249 -99q127 0 214 74.5t116 212.5h-428v291h416q-39 114 -121.5 174.5t-196.5 60.5q-140 0 -249 -98z" />
    <glyph glyph-name="afii10048" unicode="&#x42e;" horiz-adv-x="1989" 
d="M584 831q49 256 231 401.5t418 145.5q279 0 469 -193t190 -503q0 -318 -192 -510t-467 -192q-235 0 -415 143.5t-232 396.5h-160v-520h-324v1358h324v-527h158zM1233 279q145 0 239.5 109t94.5 294q0 187 -96 293t-238 106q-146 0 -240 -108t-94 -291q0 -189 95.5 -296
t238.5 -107z" />
    <glyph glyph-name="afii10049" unicode="&#x42f;" horiz-adv-x="1100" 
d="M999 0h-323v479h-43l-254 -479h-354l315 543q-219 122 -219 391q0 196 125.5 310t402.5 114h350v-1358zM676 735v357h-25q-205 0 -205 -172q0 -185 207 -185h23z" />
    <glyph glyph-name="afii10065" unicode="&#x430;" horiz-adv-x="1130" 
d="M1079 100l-235 -120q-50 39 -72 108q-98 -108 -256 -108q-203 0 -333 134.5t-130 358.5q0 223 133.5 356.5t348.5 133.5q170 0 266 -121l225 116v-655q0 -81 12 -119t41 -84zM535 219q90 0 141 69t51 185q0 117 -48 183.5t-144 66.5q-88 0 -136.5 -68.5t-48.5 -181.5
q0 -115 48.5 -184.5t136.5 -69.5z" />
    <glyph glyph-name="afii10066" unicode="&#x431;" horiz-adv-x="1110" 
d="M391 938q77 25 164 25q216 0 358 -135.5t142 -354.5q0 -222 -142.5 -357.5t-357.5 -135.5q-251 0 -375.5 152t-124.5 431q0 351 133.5 550t413.5 273q158 41 225 63t127 58l109 -209q-131 -83 -363 -127q-238 -49 -309 -233zM555 219q94 0 148.5 69t54.5 185
q0 115 -54 182.5t-149 67.5q-94 0 -149.5 -68t-55.5 -182t55.5 -184t149.5 -70z" />
    <glyph glyph-name="afii10067" unicode="&#x432;" horiz-adv-x="973" 
d="M729 502q92 -18 142.5 -73.5t50.5 -133.5q0 -135 -78.5 -200t-176.5 -80t-225 -15h-370v942h372q428 0 428 -248q0 -147 -143 -192zM365 578h79q76 0 103.5 20.5t27.5 58.5q0 40 -27 62t-104 22h-79v-163zM365 201h81q115 0 145 26t30 72q0 47 -31 72.5t-146 25.5h-79
v-196z" />
    <glyph glyph-name="afii10068" unicode="&#x433;" horiz-adv-x="756" 
d="M731 942l-117 -246h-243v-696h-299v942h659z" />
    <glyph glyph-name="afii10069" unicode="&#x434;" horiz-adv-x="1161" 
d="M1130 246l-264 -514h-252l80 268h-366l-80 -268h-217v514h100q66 80 66 231v465h813v-696h120zM711 246v450h-232v-219q0 -157 -45 -231h277z" />
    <glyph glyph-name="afii10070" unicode="&#x435;" horiz-adv-x="1092" 
d="M1047 489l-672 -145q44 -125 184 -125q135 0 281 96l116 -211q-189 -124 -407 -124q-206 0 -351 136t-145 355q0 228 147.5 360t354.5 132q206 0 342 -123t150 -351zM729 612q-56 113 -170 113q-80 0 -136.5 -52t-70.5 -145z" />
    <glyph glyph-name="afii10072" unicode="&#x436;" horiz-adv-x="1499" 
d="M1479 0h-365l-156 299q-26 51 -33.5 58.5t-19.5 7.5h-6v-365h-299v365h-6q-12 0 -19 -7t-30 -51l-160 -307h-365l194 301q72 112 95.5 143t48.5 54q-56 24 -137 125q-38 46 -58 59.5t-50 13.5q-11 0 -64 -4v250q59 21 113 21q125 0 219 -142q82 -124 120.5 -161t98.5 -37
v319h299v-319q60 0 98.5 37t120.5 161q94 142 219 142q54 0 113 -21v-250q-53 4 -64 4q-30 0 -50 -13.5t-58 -59.5q-81 -101 -137 -125q42 -37 98 -125z" />
    <glyph glyph-name="afii10073" unicode="&#x437;" horiz-adv-x="879" 
d="M684 504q75 -29 114.5 -88t39.5 -131q0 -98 -52 -168t-149.5 -107t-216.5 -37q-226 0 -400 113l119 203q139 -82 273 -82q135 0 135 92q0 50 -39.5 71t-134.5 21h-88v193h98q73 0 100 19t27 56q0 64 -100 64q-132 0 -250 -68l-109 197q179 104 393 104q164 0 257.5 -65
t93.5 -186q0 -141 -111 -201z" />
    <glyph glyph-name="afii10074" unicode="&#x438;" horiz-adv-x="977" 
d="M905 0h-276v428l-453 -455h-104v969h276v-442l453 456h104v-956z" />
    <glyph glyph-name="afii10075" unicode="&#x439;" horiz-adv-x="977" 
d="M819 1425q-12 -158 -98 -242.5t-234 -84.5q-146 0 -231.5 84.5t-97.5 242.5h223q13 -120 106 -120q96 0 109 120h223zM905 0h-276v428l-453 -455h-104v969h276v-442l453 456h104v-956z" />
    <glyph glyph-name="afii10076" unicode="&#x43a;" horiz-adv-x="1022" 
d="M981 0h-365l-155 299q-27 51 -34.5 58.5t-18.5 7.5h-7v-365h-299v942h299v-319q62 0 95 30.5t125 167.5q94 142 219 142q54 0 112 -21v-250q-52 4 -63 4q-30 0 -50 -13.5t-59 -59.5q-81 -101 -137 -125q42 -37 98 -125z" />
    <glyph glyph-name="afii10077" unicode="&#x43b;" horiz-adv-x="1067" 
d="M995 0h-299v696h-219v-364q0 -184 -75.5 -254t-239.5 -105l-121 220q90 28 113.5 57t23.5 102v590h817v-942z" />
    <glyph glyph-name="afii10078" unicode="&#x43c;" horiz-adv-x="1305" 
d="M1262 0h-304l-55 371l-209 -391h-123l-184 389l-57 -369h-289l199 963h137l276 -519l285 519h137z" />
    <glyph glyph-name="afii10079" unicode="&#x43d;" horiz-adv-x="977" 
d="M905 0h-299v356h-235v-356h-299v942h299v-340h235v340h299v-942z" />
    <glyph glyph-name="afii10080" unicode="&#x43e;" horiz-adv-x="1110" 
d="M555 963q216 0 358 -135.5t142 -354.5q0 -222 -142.5 -357.5t-357.5 -135.5t-358.5 137.5t-143.5 355.5q0 217 142.5 353.5t359.5 136.5zM555 219q94 0 148.5 69t54.5 185q0 115 -54 182.5t-149 67.5q-94 0 -149.5 -68t-55.5 -182t55.5 -184t149.5 -70z" />
    <glyph glyph-name="afii10081" unicode="&#x43f;" horiz-adv-x="977" 
d="M905 0h-299v696h-235v-696h-299v942h833v-942z" />
    <glyph glyph-name="afii10082" unicode="&#x440;" horiz-adv-x="1102" 
d="M301 854q117 109 307 109q188 0 313.5 -137t125.5 -353q0 -224 -130 -358.5t-333 -134.5q-128 0 -213 67v-371l-299 -88v1375zM563 219q89 0 139 70.5t50 183.5q0 114 -49.5 182t-139.5 68q-95 0 -144.5 -64.5t-49.5 -185.5q0 -115 51.5 -184.5t142.5 -69.5z" />
    <glyph glyph-name="afii10083" unicode="&#x441;" horiz-adv-x="907" 
d="M874 72q-126 -92 -327 -92q-227 0 -360.5 131.5t-133.5 357.5q0 228 133.5 361t360.5 133q202 0 325 -93l-124 -213q-98 66 -193 66q-93 0 -149 -70t-56 -184q0 -111 55.5 -180.5t149.5 -69.5q100 0 195 68z" />
    <glyph glyph-name="afii10084" unicode="&#x442;" horiz-adv-x="1006" 
d="M965 942l-117 -246h-244v-696h-299v696h-264v246h924z" />
    <glyph glyph-name="afii10085" unicode="&#x443;" horiz-adv-x="983" 
d="M961 942l-484 -1282l-338 -94l191 491l-307 885h315l135 -536l191 536h297z" />
    <glyph glyph-name="afii10086" unicode="&#x444;" horiz-adv-x="1376" 
d="M838 963q219 0 351 -132t132 -358q0 -227 -132.5 -360t-350.5 -133v-304l-299 -88v392q-219 0 -351.5 133t-132.5 360q0 226 132 358t352 132v450l299 88v-538zM838 219q88 0 138 70.5t50 183.5t-50 181.5t-138 68.5v-504zM539 219v504q-89 0 -139 -68.5t-50 -181.5
t50 -183.5t139 -70.5z" />
    <glyph glyph-name="afii10087" unicode="&#x445;" horiz-adv-x="1042" 
d="M1018 0h-348l-164 244l-139 -244h-342l319 489l-299 453h348l142 -215l120 215h338l-295 -457z" />
    <glyph glyph-name="afii10088" unicode="&#x446;" horiz-adv-x="1047" 
d="M1006 246l-244 -514h-246l80 268h-524v942h299v-696h235v696h299v-696h101z" />
    <glyph glyph-name="afii10089" unicode="&#x447;" horiz-adv-x="965" 
d="M893 0h-299v279h-111q-219 0 -325.5 78t-106.5 315v270h252v-268q0 -106 42.5 -134t166.5 -28h82v430h299v-942z" />
    <glyph glyph-name="afii10090" unicode="&#x448;" horiz-adv-x="1470" 
d="M1399 0h-1327v942h301v-696h213v696h299v-696h215v696h299v-942z" />
    <glyph glyph-name="afii10091" unicode="&#x449;" horiz-adv-x="1540" 
d="M1499 246l-244 -514h-245l80 268h-1018v942h301v-696h213v696h299v-696h215v696h299v-696h100z" />
    <glyph glyph-name="afii10092" unicode="&#x44a;" horiz-adv-x="1128" 
d="M549 598h63q263 0 369 -74t106 -221q0 -151 -112.5 -227t-362.5 -76h-362v715h-209v227h508v-344zM549 205h63q109 0 142.5 22.5t33.5 71.5q0 50 -37 72t-139 22h-63v-188z" />
    <glyph glyph-name="afii10093" unicode="&#x44b;" horiz-adv-x="1352" 
d="M1280 0h-299v854l299 109v-963zM371 598h63q263 0 369 -74t106 -221q0 -151 -112.5 -227t-362.5 -76h-362v942h299v-344zM371 205h63q108 0 142 22.5t34 71.5q0 50 -37 72t-139 22h-63v-188z" />
    <glyph glyph-name="afii10094" unicode="&#x44c;" horiz-adv-x="950" 
d="M371 598h63q263 0 369 -74t106 -221q0 -151 -112.5 -227t-362.5 -76h-362v942h299v-344zM371 205h63q108 0 142 22.5t34 71.5q0 50 -37 72t-139 22h-63v-188z" />
    <glyph glyph-name="afii10095" unicode="&#x44d;" horiz-adv-x="907" 
d="M35 870q123 93 325 93q228 0 361 -133t133 -361q0 -226 -133 -357.5t-361 -131.5q-201 0 -327 92l125 215q94 -68 194 -68q152 0 195 162h-330v180h330q-47 162 -195 162q-95 0 -192 -66z" />
    <glyph glyph-name="afii10096" unicode="&#x44e;" horiz-adv-x="1561" 
d="M532 602q44 169 177.5 265t310.5 96q216 0 358 -135.5t142 -354.5q0 -227 -144.5 -360t-355.5 -133q-181 0 -316 100t-174 276h-159v-356h-299v854l299 109v-361h161zM1020 219q94 0 148.5 69t54.5 185q0 115 -54 182.5t-149 67.5q-94 0 -149.5 -68t-55.5 -182t55.5 -184
t149.5 -70z" />
    <glyph glyph-name="afii10097" unicode="&#x44f;" horiz-adv-x="995" 
d="M924 0h-297v336h-45l-172 -336h-369l254 385q-81 34 -128.5 101.5t-47.5 148.5q0 148 111.5 227.5t328.5 79.5h365v-942zM627 541v184h-54q-75 0 -108 -21t-33 -69q0 -50 32.5 -72t108.5 -22h54z" />
    <glyph glyph-name="afii10071" unicode="&#x451;" horiz-adv-x="1092" 
d="M1047 489l-672 -145q44 -125 184 -125q135 0 281 96l116 -211q-189 -124 -407 -124q-206 0 -351 136t-145 355q0 228 147.5 360t354.5 132q206 0 342 -123t150 -351zM729 612q-56 113 -170 113q-80 0 -136.5 -52t-70.5 -145zM754 1446q67 0 115.5 -49t48.5 -117
q0 -69 -48 -117.5t-116 -48.5q-66 0 -114 49t-48 117q0 67 48.5 116.5t113.5 49.5zM343 1446q65 0 114 -49.5t49 -116.5q0 -68 -48.5 -117t-114.5 -49q-68 0 -117 49t-49 117q0 67 49 116.5t117 49.5z" />
    <glyph glyph-name="afii10099" unicode="&#x452;" horiz-adv-x="1018" 
d="M948 156q0 -238 -98 -366t-332 -198l-104 220q121 33 178 96.5t57 197.5v482q0 60 -21 83t-67 23q-69 0 -108 -59.5t-39 -159.5v-475h-299v1077h-115v185h115v124l288 103v-227h334l-94 -185h-240v-252q43 64 114 101t149 37q152 0 217 -87.5t65 -283.5v-436z" />
    <glyph glyph-name="afii10100" unicode="&#x453;" horiz-adv-x="756" 
d="M731 942l-117 -246h-243v-696h-299v942h659zM770 1417l-289 -321h-223l196 321h316z" />
    <glyph glyph-name="afii10101" unicode="&#x454;" horiz-adv-x="907" 
d="M874 72q-126 -92 -327 -92q-227 0 -360.5 131.5t-133.5 357.5q0 228 133.5 361t360.5 133q202 0 325 -93l-124 -213q-98 66 -193 66q-147 0 -195 -162h330v-180h-330q44 -162 195 -162q100 0 195 68z" />
    <glyph glyph-name="afii10102" unicode="&#x455;" horiz-adv-x="784" 
d="M612 692q-96 53 -194 53q-86 0 -86 -59q0 -33 25.5 -50.5t105.5 -45.5q175 -64 230 -137.5t55 -169.5q0 -142 -105.5 -222.5t-259.5 -80.5q-193 0 -346 124l121 179q98 -86 225 -86q78 0 78 63q0 28 -25.5 44t-96.5 41q-96 34 -151 62.5t-103 94.5t-48 172q0 137 104 213
t269 76q198 0 321 -97z" />
    <glyph glyph-name="afii10103" unicode="&#x456;" horiz-adv-x="477" 
d="M238 1374q73 0 125.5 -52.5t52.5 -127.5q0 -74 -53 -126t-125 -52t-124.5 52.5t-52.5 125.5q0 75 52 127.5t125 52.5zM387 0h-299v854l299 109v-963z" />
    <glyph glyph-name="afii10104" unicode="&#x457;" horiz-adv-x="461" 
d="M438 1446q67 0 115.5 -49t48.5 -117q0 -69 -48 -117.5t-116 -48.5q-66 0 -114 49t-48 117q0 67 48.5 116.5t113.5 49.5zM27 1446q66 0 114.5 -49.5t48.5 -116.5q0 -69 -48.5 -117.5t-114.5 -48.5q-68 0 -117 49t-49 117q0 67 49 116.5t117 49.5zM379 0h-297v854l297 109
v-963z" />
    <glyph glyph-name="afii10105" unicode="&#x458;" horiz-adv-x="492" 
d="M242 1374q73 0 125.5 -52.5t52.5 -127.5q0 -74 -53 -126t-125 -52t-123 52.5t-51 125.5q0 75 51 127.5t123 52.5zM393 156q0 -238 -98 -366t-332 -198l-104 220q121 33 178 96.5t57 197.5v748l299 109v-807z" />
    <glyph glyph-name="afii10106" unicode="&#x459;" horiz-adv-x="1575" 
d="M995 598h64q262 0 368.5 -74t106.5 -221q0 -151 -112.5 -227t-362.5 -76h-363v696h-219v-364q0 -185 -75.5 -257.5t-239.5 -107.5l-121 219q89 28 113 60t24 106v590h817v-344zM995 205h64q108 0 142 22.5t34 71.5q0 50 -37.5 72t-138.5 22h-64v-188z" />
    <glyph glyph-name="afii10107" unicode="&#x45a;" horiz-adv-x="1485" 
d="M905 598h64q262 0 368.5 -74t106.5 -221q0 -151 -113 -227t-362 -76h-363v356h-235v-356h-299v854l299 111v-363h235v340h299v-344zM905 205h64q108 0 142 22.5t34 71.5q0 55 -42.5 74.5t-133.5 19.5h-64v-188z" />
    <glyph glyph-name="afii10108" unicode="&#x45b;" horiz-adv-x="1018" 
d="M948 0h-299v588q0 60 -21 83t-67 23q-69 0 -108 -59.5t-39 -159.5v-475h-299v1077h-115v185h115v124l288 103v-227h334l-94 -185h-240v-252q43 64 114 101t149 37q152 0 217 -87.5t65 -283.5v-592z" />
    <glyph glyph-name="afii10109" unicode="&#x45c;" horiz-adv-x="954" 
d="M825 1417l-288 -321h-224l197 321h315zM950 0h-364l-156 299q-27 51 -34 58.5t-19 7.5h-6v-365h-299v942h299v-319q60 0 98.5 37t120.5 161q94 142 219 142q54 0 113 -21v-250q-53 4 -64 4q-30 0 -50 -13.5t-58 -59.5q-82 -101 -138 -125q42 -37 99 -125z" />
    <glyph glyph-name="afii10110" unicode="&#x45e;" horiz-adv-x="983" 
d="M807 1425q-13 -158 -98.5 -242.5t-233.5 -84.5q-146 0 -231.5 84.5t-98.5 242.5h224q13 -120 106 -120q96 0 109 120h223zM961 942l-484 -1282l-338 -94l191 491l-307 885h315l135 -536l191 536h297z" />
    <glyph glyph-name="afii10193" unicode="&#x45f;" horiz-adv-x="977" 
d="M905 0h-280l-127 -268h-246l82 268h-262v942h299v-696h235v696h299v-942z" />
    <glyph glyph-name="afii10050" unicode="&#x490;" horiz-adv-x="1012" 
d="M967 1090h-543v-1090h-324v1358h568l84 291h215v-559z" />
    <glyph glyph-name="afii10098" unicode="&#x491;" horiz-adv-x="764" 
d="M723 696h-352v-696h-299v942h387l80 264h184v-510z" />
    <glyph glyph-name="afii61352" unicode="&#x2116;" horiz-adv-x="2052" 
d="M1171 -4h-174l-585 711v-707h-312v1360h176l584 -705v703h311v-1362zM1632 1012q139 0 229.5 -85.5t90.5 -226.5t-91 -228t-229 -87t-229.5 87.5t-91.5 227.5q0 139 90.5 225.5t230.5 86.5zM1632 553q54 0 85.5 40.5t31.5 106.5q0 65 -30.5 103.5t-86.5 38.5
q-55 0 -87 -38.5t-32 -103.5q0 -64 32 -105.5t87 -41.5zM1921 20h-571v222h571v-222z" />
    <glyph glyph-name="pi" unicode="&#x3c0;" horiz-adv-x="1315" 
d="M1274 942l-117 -246h-131v-272q0 -127 32.5 -192t129.5 -146l-264 -113q-103 73 -150 162t-47 219v342h-195v-696h-299v696h-192v246h1233z" />
    <glyph glyph-name="tonos" unicode="&#x384;" horiz-adv-x="743" 
d="M715 1417l-289 -321h-223l196 321h316z" />
    <glyph glyph-name="dieresistonos" unicode="&#x385;" horiz-adv-x="567" 
d="M653 1446q67 0 115.5 -49t48.5 -117q0 -69 -48 -117.5t-116 -48.5q-66 0 -113.5 49t-47.5 117t47.5 117t113.5 49zM-84 1446q66 0 115 -49.5t49 -116.5q0 -69 -48.5 -117.5t-115.5 -48.5q-68 0 -117 49t-49 117q0 67 49.5 116.5t116.5 49.5zM506 1438l-207 -342h-223
l114 342h316z" />
    <glyph glyph-name="Alphatonos" unicode="&#x386;" horiz-adv-x="1292" 
d="M1278 0h-340l-84 223h-432l-80 -223h-330l541 1374h184zM764 475l-125 344l-125 -344h250zM418 1358l-207 -295h-184l108 295h283z" />
    <glyph glyph-name="Epsilontonos" unicode="&#x388;" horiz-adv-x="993" 
d="M969 0h-869v1358h844l-137 -268h-383v-240h369v-293h-369v-266h395zM57 1358l-207 -295h-184l109 295h282z" />
    <glyph glyph-name="Etatonos" unicode="&#x389;" horiz-adv-x="1243" 
d="M1139 0h-318v557h-397v-557h-324v1358h324v-508h397v508h318v-1358zM57 1358l-207 -295h-184l109 295h282z" />
    <glyph glyph-name="Iotatonos" unicode="&#x38a;" horiz-adv-x="530" 
d="M426 0h-324v1358h324v-1358zM57 1358l-207 -295h-184l109 295h282z" />
    <glyph glyph-name="Omicrontonos" unicode="&#x38c;" horiz-adv-x="1432" 
d="M717 1378q279 0 469 -193t190 -503q0 -312 -190.5 -507t-468.5 -195q-279 0 -470.5 195.5t-191.5 506.5q0 315 193.5 505.5t468.5 190.5zM717 279q145 0 239.5 109t94.5 294q0 183 -94.5 291t-239.5 108q-146 0 -240 -108t-94 -291q0 -185 94 -294t240 -109zM182 1358
l-207 -295h-184l109 295h282z" />
    <glyph glyph-name="Upsilontonos" unicode="&#x38e;" 
d="M1214 1358l-444 -778v-580h-319v575l-426 783h344l249 -484l250 484h346zM-4 1358l-207 -295h-184l108 295h283z" />
    <glyph glyph-name="Omegatonos" unicode="&#x38f;" horiz-adv-x="1528" 
d="M1518 0h-648v131q106 124 167 270t61 281q0 183 -94 291t-240 108t-240 -108t-94 -291q0 -135 61 -281t166 -270v-131h-647l133 258h172q-213 198 -213 457q0 288 193.5 475.5t468.5 187.5t468 -187.5t193 -475.5q0 -259 -213 -457h172zM233 1358l-206 -295h-185l109 295
h282z" />
    <glyph glyph-name="iotadieresistonos" unicode="&#x390;" horiz-adv-x="567" 
d="M526 121l-207 -148q-123 73 -177 165t-54 253v463l299 109v-576q0 -106 32 -161.5t107 -104.5zM676 1446q67 0 115.5 -49t48.5 -117q0 -69 -48 -117.5t-116 -48.5q-66 0 -113.5 49t-47.5 117t47.5 117t113.5 49zM-61 1446q66 0 115 -49.5t49 -116.5q0 -69 -48.5 -117.5
t-115.5 -48.5q-68 0 -117 49t-49 117q0 67 49.5 116.5t116.5 49.5zM529 1438l-207 -342h-223l114 342h316z" />
    <glyph glyph-name="Alpha" unicode="&#x391;" horiz-adv-x="1292" 
d="M1278 0h-340l-84 223h-432l-80 -223h-330l541 1374h184zM764 475l-125 344l-125 -344h250z" />
    <glyph glyph-name="Beta" unicode="&#x392;" horiz-adv-x="1051" 
d="M811 729q195 -95 195 -313q0 -206 -134 -311t-391 -105h-379v1358h377q251 0 371.5 -85t120.5 -263q0 -208 -160 -281zM424 840h57q170 0 170 131q0 64 -42.5 91.5t-129.5 27.5h-55v-250zM424 291h57q111 0 157 35.5t46 119.5q0 148 -205 148h-55v-303z" />
    <glyph glyph-name="Gamma" unicode="&#x393;" horiz-adv-x="989" 
d="M985 1358l-139 -268h-422v-1090h-324v1358h885z" />
    <glyph glyph-name="Delta" unicode="&#x394;" horiz-adv-x="1286" 
d="M1276 0h-1266l541 1374h184zM844 252l-207 567l-207 -567h414z" />
    <glyph glyph-name="Epsilon" unicode="&#x395;" horiz-adv-x="993" 
d="M969 0h-869v1358h844l-137 -268h-383v-240h369v-293h-369v-266h395z" />
    <glyph glyph-name="Zeta" unicode="&#x396;" horiz-adv-x="1178" 
d="M1151 295l-147 -295h-975l553 1067h-516l145 291h903l-551 -1063h588z" />
    <glyph glyph-name="Eta" unicode="&#x397;" horiz-adv-x="1243" 
d="M1141 0h-318v557h-399v-557h-324v1358h324v-508h399v508h318v-1358z" />
    <glyph glyph-name="Theta" unicode="&#x398;" horiz-adv-x="1432" 
d="M717 1378q279 0 469 -193t190 -503q0 -312 -190.5 -507t-468.5 -195q-279 0 -470.5 195.5t-191.5 506.5q0 315 193.5 505.5t468.5 190.5zM717 279q145 0 239.5 109t94.5 294q0 183 -94.5 291t-239.5 108q-146 0 -240 -108t-94 -291q0 -185 94 -294t240 -109zM973 836
l-103 -308h-401l102 308h402z" />
    <glyph glyph-name="Iota" unicode="&#x399;" horiz-adv-x="530" 
d="M426 0h-324v1358h324v-1358z" />
    <glyph glyph-name="Kappa" unicode="&#x39a;" horiz-adv-x="1202" 
d="M1198 0h-401l-373 516v-516h-324v1358h324v-508l348 508h361l-471 -647z" />
    <glyph glyph-name="Lambda" unicode="&#x39b;" horiz-adv-x="1292" 
d="M1278 0h-340l-299 819l-297 -819h-330l541 1374h184z" />
    <glyph glyph-name="Mu" unicode="&#x39c;" horiz-adv-x="1544" 
d="M1497 0h-344l-90 643l-215 -647h-152l-221 649l-100 -645h-328l236 1360h213l297 -750l258 750h213z" />
    <glyph glyph-name="Nu" unicode="&#x39d;" horiz-adv-x="1272" 
d="M1171 -4h-174l-585 711v-707h-312v1360h176l584 -705v703h311v-1362z" />
    <glyph glyph-name="Xi" unicode="&#x39e;" horiz-adv-x="1075" 
d="M1026 1358l-137 -268h-703l-137 268h977zM874 557h-673v293h673v-293zM1051 0h-1026l149 291h727z" />
    <glyph glyph-name="Omicron" unicode="&#x39f;" horiz-adv-x="1432" 
d="M717 1378q279 0 469 -193t190 -503q0 -312 -190.5 -507t-468.5 -195q-279 0 -470.5 195.5t-191.5 506.5q0 315 193.5 505.5t468.5 190.5zM717 279q145 0 239.5 109t94.5 294q0 183 -94.5 291t-239.5 108q-146 0 -240 -108t-94 -291q0 -185 94 -294t240 -109z" />
    <glyph glyph-name="Pi" unicode="&#x3a0;" horiz-adv-x="1243" 
d="M1141 0h-318v1065h-399v-1065h-324v1358h1041v-1358z" />
    <glyph glyph-name="Rho" unicode="&#x3a1;" horiz-adv-x="1022" 
d="M100 1362h349q528 0 528 -447q0 -223 -135.5 -336.5t-392.5 -113.5h-25v-465h-324v1362zM424 729h16q116 0 162.5 45.5t46.5 140.5t-45.5 140t-161.5 45h-18v-371z" />
    <glyph glyph-name="Sigma" unicode="&#x3a3;" horiz-adv-x="993" 
d="M969 0h-869v289l318 403l-318 398v268h844l-137 -268h-356l315 -398l-315 -401h368z" />
    <glyph glyph-name="Tau" unicode="&#x3a4;" horiz-adv-x="1081" 
d="M1047 1067h-347v-1067h-321v1067h-346v291h1014v-291z" />
    <glyph glyph-name="Upsilon" unicode="&#x3a5;" 
d="M1214 1358l-444 -778v-580h-319v575l-426 783h344l249 -484l250 484h346z" />
    <glyph glyph-name="Phi" unicode="&#x3a6;" horiz-adv-x="1505" 
d="M903 1245q247 -14 397 -170t150 -407q0 -252 -150.5 -409.5t-396.5 -172.5v-133h-301v133q-246 15 -396.5 172.5t-150.5 409.5q0 251 150 407t397 170v158h301v-158zM903 365q96 7 157.5 89.5t61.5 213.5q0 130 -61 210.5t-158 88.5v-602zM602 365v602q-97 -8 -158 -88.5
t-61 -210.5q0 -131 61.5 -213.5t157.5 -89.5z" />
    <glyph glyph-name="Chi" unicode="&#x3a7;" horiz-adv-x="1274" 
d="M1247 0h-360l-254 418l-246 -418h-360l430 707l-396 651h359l231 -381l211 381h361l-402 -662z" />
    <glyph glyph-name="Psi" unicode="&#x3a8;" horiz-adv-x="1542" 
d="M1442 1358v-377q0 -292 -119.5 -441.5t-392.5 -189.5v-350h-318v350q-273 40 -392.5 189.5t-119.5 441.5v377h324v-342q0 -118 10.5 -184.5t51 -114.5t126.5 -74v680l318 70v-750q86 26 126.5 74t51 114.5t10.5 184.5v342h324z" />
    <glyph glyph-name="Omega" unicode="&#x3a9;" horiz-adv-x="1528" 
d="M1518 0h-648v131q106 124 167 270t61 281q0 183 -94 291t-240 108t-240 -108t-94 -291q0 -135 61 -281t166 -270v-131h-647l133 258h172q-213 198 -213 457q0 288 193.5 475.5t468.5 187.5t468 -187.5t193 -475.5q0 -259 -213 -457h172z" />
    <glyph glyph-name="Iotadieresis" unicode="&#x3aa;" horiz-adv-x="530" 
d="M426 0h-324v1358h324v-1358zM471 1769q67 0 115.5 -49t48.5 -117q0 -69 -48 -117.5t-116 -48.5q-66 0 -114 49t-48 117q0 67 48.5 116.5t113.5 49.5zM60 1769q65 0 114 -49.5t49 -116.5q0 -68 -48.5 -117t-114.5 -49q-68 0 -117 49t-49 117q0 67 49 116.5t117 49.5z" />
    <glyph glyph-name="Upsilondieresis" unicode="&#x3ab;" 
d="M1214 1358l-444 -778v-580h-319v575l-426 783h344l249 -484l250 484h346zM816 1774q67 0 115.5 -49t48.5 -117q0 -69 -48 -117.5t-116 -48.5q-66 0 -114 49t-48 117q0 67 48.5 116.5t113.5 49.5zM405 1774q65 0 114 -49.5t49 -116.5q0 -68 -48.5 -117t-114.5 -49
q-68 0 -117 49t-49 117q0 67 49 116.5t117 49.5z" />
    <glyph glyph-name="alphatonos" unicode="&#x3ac;" horiz-adv-x="1180" 
d="M1108 59l-258 -86q-54 50 -70 113q-106 -106 -266 -106q-188 0 -324.5 139.5t-136.5 353.5q0 213 136 351.5t325 138.5q159 0 266 -107q16 61 66 107l254 -107q-43 -50 -43 -145v-418q0 -115 13 -159.5t38 -74.5zM555 219q94 0 148.5 69t54.5 185q0 115 -54 182.5
t-149 67.5q-94 0 -149.5 -68t-55.5 -182t55.5 -184t149.5 -70zM905 1371l-289 -321h-223l196 321h316z" />
    <glyph glyph-name="epsilontonos" unicode="&#x3ad;" horiz-adv-x="907" 
d="M874 72q-126 -92 -327 -92q-227 0 -360.5 131.5t-133.5 357.5q0 228 133.5 361t360.5 133q202 0 325 -93l-124 -213q-98 66 -193 66q-147 0 -195 -162h330v-180h-330q44 -162 195 -162q100 0 195 68zM908 1371l-289 -321h-223l196 321h316z" />
    <glyph glyph-name="etatonos" unicode="&#x3ae;" horiz-adv-x="975" 
d="M905 -326l-299 -86v1000q0 60 -21 83t-67 23q-70 0 -108.5 -59.5t-38.5 -159.5v-475h-299v858l288 105v-138q43 64 114 101t149 37q150 0 216 -88t66 -283v-918zM867 1371l-289 -321h-223l196 321h316z" />
    <glyph glyph-name="iotatonos" unicode="&#x3af;" horiz-adv-x="567" 
d="M526 121l-207 -148q-123 73 -177 165t-54 253v463l299 109v-576q0 -106 32 -161.5t107 -104.5zM597 1371l-289 -321h-223l196 321h316z" />
    <glyph glyph-name="upsilondieresistonos" unicode="&#x3b0;" horiz-adv-x="973" 
d="M903 385q0 -199 -108 -302t-312 -103q-202 0 -307.5 102.5t-105.5 302.5v557h299v-557q0 -75 26 -106t88 -31q65 0 93 32.5t28 104.5v557h299v-557zM858 1446q67 0 115.5 -49t48.5 -117q0 -69 -48 -117.5t-116 -48.5q-66 0 -113.5 49t-47.5 117t47.5 117t113.5 49z
M121 1446q66 0 115 -49.5t49 -116.5q0 -69 -48.5 -117.5t-115.5 -48.5q-68 0 -117 49t-49 117q0 67 49.5 116.5t116.5 49.5zM711 1438l-207 -342h-223l114 342h316z" />
    <glyph glyph-name="alpha" unicode="&#x3b1;" horiz-adv-x="1180" 
d="M1108 59l-258 -86q-54 50 -70 113q-106 -106 -266 -106q-188 0 -324.5 139.5t-136.5 353.5q0 213 136 351.5t325 138.5q159 0 266 -107q16 61 66 107l254 -107q-43 -50 -43 -145v-418q0 -115 13 -159.5t38 -74.5zM555 219q94 0 148.5 69t54.5 185q0 115 -54 182.5
t-149 67.5q-94 0 -149.5 -68t-55.5 -182t55.5 -184t149.5 -70z" />
    <glyph glyph-name="beta" unicode="&#x3b2;" horiz-adv-x="1133" 
d="M862 813q215 -117 215 -373q0 -218 -119 -340.5t-340 -122.5q-134 0 -247 46v-347l-299 -88v1391q0 256 126.5 393t368.5 137q198 0 312 -114t114 -291t-131 -291zM371 279q99 -41 225 -41q182 0 182 202q0 122 -75 173t-293 51l110 225q172 0 172 170q0 77 -44.5 118.5
t-110.5 41.5q-75 0 -120.5 -50.5t-45.5 -136.5v-753z" />
    <glyph glyph-name="gamma" unicode="&#x3b3;" horiz-adv-x="1020" 
d="M979 942l-334 -883v-383l-299 -88v473l-305 881h317l152 -536l168 536h301z" />
    <glyph glyph-name="delta" unicode="&#x3b4;" horiz-adv-x="1110" 
d="M782 1272q-75 39 -166 39q-124 0 -124 -78q0 -25 60 -76t239 -168q264 -181 264 -516q0 -222 -142.5 -357.5t-357.5 -135.5t-358.5 137.5t-143.5 355.5q0 177 99.5 305.5t273.5 169.5q-197 118 -197 279q0 134 98.5 207t268.5 73q169 0 328 -69zM555 219q94 0 148.5 69
t54.5 185q0 115 -54 182.5t-149 67.5q-94 0 -149.5 -68t-55.5 -182t55.5 -184t149.5 -70z" />
    <glyph glyph-name="epsilon" unicode="&#x3b5;" horiz-adv-x="907" 
d="M874 72q-126 -92 -327 -92q-227 0 -360.5 131.5t-133.5 357.5q0 228 133.5 361t360.5 133q202 0 325 -93l-124 -213q-98 66 -193 66q-147 0 -195 -162h330v-180h-330q44 -162 195 -162q100 0 195 68z" />
    <glyph glyph-name="zeta" unicode="&#x3b6;" horiz-adv-x="983" 
d="M897 1339q-254 -225 -394.5 -471.5t-140.5 -464.5q0 -80 38.5 -115.5t129.5 -35.5h27q157 0 230.5 -21.5t123.5 -84.5t50 -177q0 -100 -63 -181t-163 -118l-123 146q86 45 86 108q0 31 -22.5 53.5t-120.5 22.5h-25q-277 0 -378 95.5t-101 295.5q0 394 404 832h-338v260
h780v-144z" />
    <glyph glyph-name="eta" unicode="&#x3b7;" horiz-adv-x="975" 
d="M905 -326l-299 -86v1000q0 60 -21 83t-67 23q-70 0 -108.5 -59.5t-38.5 -159.5v-475h-299v858l288 105v-138q43 64 114 101t149 37q150 0 216 -88t66 -283v-918z" />
    <glyph glyph-name="theta" unicode="&#x3b8;" horiz-adv-x="1038" 
d="M518 1507q225 0 346 -201t121 -561q0 -340 -120 -552.5t-347 -212.5q-214 0 -339.5 209.5t-125.5 555.5q0 355 122 558.5t343 203.5zM518 260q84 0 121 108t37 371q0 243 -34 362.5t-124 119.5q-79 0 -115 -111t-36 -371q0 -259 36 -369t115 -110zM666 846l-64 -205h-227
l63 205h228z" />
    <glyph glyph-name="iota" unicode="&#x3b9;" horiz-adv-x="567" 
d="M526 121l-207 -148q-123 73 -177 165t-54 253v463l299 109v-576q0 -106 32 -161.5t107 -104.5z" />
    <glyph glyph-name="kappa" unicode="&#x3ba;" horiz-adv-x="954" 
d="M950 0h-377l-202 367v-367h-299v948h299v-323l200 323h359l-312 -430z" />
    <glyph glyph-name="lambda" unicode="&#x3bb;" horiz-adv-x="989" 
d="M967 152l-211 -179q-63 51 -101.5 107t-66.5 134l-115 323l-135 -537h-315l307 885l-221 569h303l419 -1110q28 -70 55 -109.5t81 -82.5z" />
    <glyph glyph-name="mu" unicode="&#x3bc;" horiz-adv-x="999" 
d="M956 100l-219 -120q-96 84 -112 151q-98 -151 -236 -151h-20v-304l-299 -88v1354h299v-588q0 -56 18.5 -81t67.5 -25q72 0 110.5 59.5t38.5 159.5v475h299v-639q0 -78 10 -114t43 -89z" />
    <glyph glyph-name="nu" unicode="&#x3bd;" horiz-adv-x="983" 
d="M961 942l-359 -946h-252l-327 946h317l152 -536l167 536h302z" />
    <glyph glyph-name="xi" unicode="&#x3be;" horiz-adv-x="977" 
d="M657 696h-61q-109 0 -180.5 -74t-71.5 -180q0 -190 197 -190h26q157 0 230.5 -21.5t123.5 -84.5t50 -177q0 -100 -62.5 -181t-163.5 -118l-122 146q86 45 86 108q0 44 -31.5 60t-112.5 16h-24q-240 0 -365 111t-125 321q0 121 68.5 227t193.5 166q-180 98 -180 287
q0 157 123 275t332 118q192 0 354 -110l-106 -209q-141 82 -246 82q-73 0 -121.5 -44t-48.5 -112q0 -180 239 -180h99z" />
    <glyph glyph-name="omicron" unicode="&#x3bf;" horiz-adv-x="1110" 
d="M555 963q216 0 358 -135.5t142 -354.5q0 -222 -142.5 -357.5t-357.5 -135.5t-358.5 137.5t-143.5 355.5q0 217 142.5 353.5t359.5 136.5zM555 219q94 0 148.5 69t54.5 185q0 115 -54 182.5t-149 67.5q-94 0 -149.5 -68t-55.5 -182t55.5 -184t149.5 -70z" />
    <glyph glyph-name="rho" unicode="&#x3c1;" horiz-adv-x="1102" 
d="M72 -412v885q0 231 129.5 360.5t361.5 129.5q217 0 350.5 -134.5t133.5 -355.5q0 -224 -130 -358.5t-333 -134.5q-128 0 -213 67v-371zM563 219q89 0 139 70.5t50 183.5q0 114 -49.5 182t-139.5 68q-95 0 -144.5 -64.5t-49.5 -185.5q0 -115 51.5 -184.5t142.5 -69.5z" />
    <glyph glyph-name="sigma1" unicode="&#x3c2;" horiz-adv-x="903" 
d="M748 657q-98 66 -193 66t-155 -71t-60 -183q0 -116 52 -166.5t159 -50.5q334 0 334 -285q0 -98 -64 -179t-166 -118l-123 146q86 45 86 108q0 34 -18.5 55t-99.5 21q-222 0 -339.5 119t-117.5 350q0 226 137.5 360t366.5 134q202 0 325 -93z" />
    <glyph glyph-name="sigma" unicode="&#x3c3;" horiz-adv-x="1192" 
d="M1171 942l-112 -217h-119q115 -83 115 -252q0 -222 -142.5 -357.5t-357.5 -135.5t-358.5 137.5t-143.5 355.5q0 217 142.5 353.5t359.5 136.5q58 0 117 -7q162 -14 205 -14h294zM555 219q94 0 148.5 69t54.5 185q0 115 -54 182.5t-149 67.5q-94 0 -149.5 -68t-55.5 -182
t55.5 -184t149.5 -70z" />
    <glyph glyph-name="tau" unicode="&#x3c4;" horiz-adv-x="848" 
d="M817 942l-117 -246h-159v-309q0 -106 32 -161.5t107 -104.5l-207 -148q-123 73 -177 165t-54 253v305h-181v246h756z" />
    <glyph glyph-name="upsilon" unicode="&#x3c5;" horiz-adv-x="973" 
d="M903 385q0 -199 -108 -302t-312 -103q-202 0 -307.5 102.5t-105.5 302.5v557h299v-557q0 -75 26 -106t88 -31q65 0 93 32.5t28 104.5v557h299v-557z" />
    <glyph glyph-name="phi" unicode="&#x3c6;" horiz-adv-x="1376" 
d="M838 967q218 0 350.5 -133.5t132.5 -360.5t-132.5 -360t-350.5 -133v-304l-299 -88v392q-219 0 -351.5 133t-132.5 360t132.5 360.5t351.5 133.5v446l299 88v-534zM838 219q88 0 138 70.5t50 183.5q0 114 -50 184t-138 70v-508zM539 219v508q-89 0 -139 -70t-50 -184
q0 -113 50 -183.5t139 -70.5z" />
    <glyph glyph-name="chi" unicode="&#x3c7;" horiz-adv-x="1042" 
d="M1018 -414h-301l-199 412l-199 -412h-294l348 717l-307 639h301l157 -328l158 328h295l-307 -633z" />
    <glyph glyph-name="psi" unicode="&#x3c8;" horiz-adv-x="1405" 
d="M1335 473q0 -227 -132 -360t-351 -133v-304l-299 -88v392q-219 0 -351 133t-132 360v469h295v-469q0 -113 50 -183.5t138 -70.5v1194l299 88v-1282q88 0 138 70.5t50 183.5v469h295v-469z" />
    <glyph glyph-name="omega" unicode="&#x3c9;" horiz-adv-x="1520" 
d="M1311 942q155 -260 155 -473q0 -223 -107 -359.5t-290 -136.5q-217 0 -307 168q-96 -168 -309 -168q-183 0 -291.5 137.5t-108.5 352.5q0 213 158 479h326q-187 -264 -187 -479q0 -110 31 -177t86 -67q145 0 145 289v199l293 86v-281q0 -133 37.5 -213t112.5 -80
q54 0 85 67.5t31 176.5q0 215 -186 479h326z" />
    <glyph glyph-name="iotadieresis" unicode="&#x3ca;" horiz-adv-x="567" 
d="M526 121l-207 -148q-123 73 -177 165t-54 253v463l299 109v-576q0 -106 32 -161.5t107 -104.5zM491 1446q67 0 115.5 -49t48.5 -117q0 -69 -48 -117.5t-116 -48.5q-66 0 -114 49t-48 117q0 67 48.5 116.5t113.5 49.5zM80 1446q65 0 114 -49.5t49 -116.5q0 -68 -48.5 -117
t-114.5 -49q-68 0 -117 49t-49 117q0 67 49 116.5t117 49.5z" />
    <glyph glyph-name="upsilondieresis" unicode="&#x3cb;" horiz-adv-x="973" 
d="M903 385q0 -199 -108 -302t-312 -103q-202 0 -307.5 102.5t-105.5 302.5v557h299v-557q0 -75 26 -106t88 -31q65 0 93 32.5t28 104.5v557h299v-557zM698 1446q67 0 115.5 -49t48.5 -117q0 -69 -48 -117.5t-116 -48.5q-66 0 -114 49t-48 117q0 67 48.5 116.5t113.5 49.5z
M287 1446q65 0 114 -49.5t49 -116.5q0 -68 -48.5 -117t-114.5 -49q-68 0 -117 49t-49 117q0 67 49 116.5t117 49.5z" />
    <glyph glyph-name="omicrontonos" unicode="&#x3cc;" horiz-adv-x="1110" 
d="M555 963q216 0 358 -135.5t142 -354.5q0 -222 -142.5 -357.5t-357.5 -135.5t-358.5 137.5t-143.5 355.5q0 217 142.5 353.5t359.5 136.5zM555 219q94 0 148.5 69t54.5 185q0 115 -54 182.5t-149 67.5q-94 0 -149.5 -68t-55.5 -182t55.5 -184t149.5 -70zM913 1417
l-289 -321h-223l196 321h316z" />
    <glyph glyph-name="upsilontonos" unicode="&#x3cd;" horiz-adv-x="973" 
d="M903 385q0 -199 -108 -302t-312 -103q-202 0 -307.5 102.5t-105.5 302.5v557h299v-557q0 -75 26 -106t88 -31q65 0 93 32.5t28 104.5v557h299v-557zM852 1417l-289 -321h-223l196 321h316z" />
    <glyph glyph-name="omegatonos" unicode="&#x3ce;" horiz-adv-x="1520" 
d="M1311 942q155 -260 155 -473q0 -223 -107 -359.5t-290 -136.5q-217 0 -307 168q-96 -168 -309 -168q-183 0 -291.5 137.5t-108.5 352.5q0 213 158 479h326q-187 -264 -187 -479q0 -110 31 -177t86 -67q145 0 145 289v199l293 86v-281q0 -133 37.5 -213t112.5 -80
q54 0 85 67.5t31 176.5q0 215 -186 479h326zM1153 1417l-289 -321h-223l196 321h316z" />
    <glyph glyph-name="afii00208" unicode="&#x2015;" horiz-adv-x="1790" 
d="M1683 381h-1577v252h1577v-252z" />
    </font>
</defs>
</svg>
