<?xml version="1.0" standalone="no"?>
<!DOCTYPE svg PUBLIC "-//W3C//DTD SVG 1.1//EN" "http://www.w3.org/Graphics/SVG/1.1/DTD/svg11.dtd" >
<svg>
<metadata>
Created by FontForge 20090622 at Fri Aug 10 12:09:34 2018
 By deploy user
Copyright (c) The Font Bureau, Inc., 2006. All rights reserved.
</metadata>
<defs>
<font id="FordAntennaCond-Bold" horiz-adv-x="668" >
  <font-face 
    font-family="Ford Antenna Cond Regular"
    font-weight="700"
    font-stretch="normal"
    units-per-em="1000"
    panose-1="2 0 5 6 0 0 0 9 0 4"
    ascent="800"
    descent="-200"
    x-height="567"
    cap-height="741"
    bbox="-83 -287 1477 1260"
    underline-thickness="50"
    underline-position="-50"
    unicode-range="U+0020-U+FB04"
  />
<missing-glyph horiz-adv-x="500" 
d="M0 0v700h500v-700h-500zM50 650v-600h400v600h-400z" />
    <glyph glyph-name="f_f" unicode="ff" horiz-adv-x="689" 
d="M403 0v435h-148v-435h-151v435h-92v132h92v46q0 174 198 174q44 0 52 -1v-131h-37q-38 0 -50 -13.5t-12 -45.5v-29h148v46q0 174 199 174q46 0 82 -2v-130h-68q-37 0 -49.5 -13.5t-12.5 -45.5v-29h130v-132h-130v-435h-151z" />
    <glyph glyph-name="fi" unicode="fi" horiz-adv-x="607" 
d="M12 435v132h92v46q0 174 198 174q44 0 52 -1v-131h-37q-38 0 -50 -13.5t-12 -45.5v-29h99v-132h-99v-435h-151v435h-92zM403 0v567h151v-567h-151zM403 618v137h152v-137h-152z" />
    <glyph glyph-name="fl" unicode="fl" horiz-adv-x="644" 
d="M12 435v132h92v46q0 174 198 174q44 0 52 -1v-131h-37q-38 0 -50 -13.5t-12 -45.5v-29h99v-132h-99v-435h-151v435h-92zM613 0q-12 -2 -55 -2q-82 0 -118.5 34.5t-36.5 128.5v608h151v-587q0 -33 9.5 -42t49.5 -9v-131z" />
    <glyph glyph-name="f_f_i" unicode="ffi" horiz-adv-x="906" 
d="M403 0v435h-148v-435h-151v435h-92v132h92v46q0 174 198 174q44 0 52 -1v-131h-37q-38 0 -50 -13.5t-12 -45.5v-29h148v46q0 174 199 174q44 0 51 -1v-131h-37q-37 0 -49.5 -13.5t-12.5 -45.5v-29h99v-132h-99v-435h-151zM703 0v567h151v-567h-151zM702 618v137h153v-137
h-153z" />
    <glyph glyph-name="f_f_l" unicode="ffl" horiz-adv-x="944" 
d="M403 0v435h-148v-435h-151v435h-92v132h92v46q0 174 198 174q44 0 52 -1v-131h-37q-38 0 -50 -13.5t-12 -45.5v-29h148v46q0 174 199 174q44 0 51 -1v-131h-37q-37 0 -49.5 -13.5t-12.5 -45.5v-29h99v-132h-99v-435h-151zM913 0q-12 -2 -56 -2q-81 0 -117.5 34.5
t-36.5 128.5v608h151v-587q0 -34 9 -42.5t50 -8.5v-131z" />
    <glyph glyph-name="f_j" unicode="fj" horiz-adv-x="607" 
d="M12 435v132h92v46q0 174 198 174q44 0 52 -1v-131h-37q-38 0 -50 -13.5t-12 -45.5v-29h99v-132h-99v-435h-151v435h-92zM352 -158v121h11q27 0 33.5 11.5t6.5 47.5v545h151v-550q0 -99 -37.5 -137t-141.5 -38h-23zM403 618v137h152v-137h-152z" />
    <glyph glyph-name="f_t" unicode="ft" horiz-adv-x="719" 
d="M12 435v132h92v46q0 174 198 174q44 0 52 -1v-131h-37q-38 0 -50 -13.5t-12 -45.5v-29h157l24 127l120 27v-154h129v-132h-129v-244q0 -33 11.5 -46.5t52.5 -13.5h65v-131q-67 -5 -84 -5q-112 0 -154 40t-42 138v262h-150v-435h-151v435h-92z" />
    <glyph glyph-name=".notdef" horiz-adv-x="500" 
d="M0 0v700h500v-700h-500zM50 650v-600h400v600h-400z" />
    <glyph glyph-name=".null" horiz-adv-x="0" 
 />
    <glyph glyph-name="nonmarkingreturn" horiz-adv-x="333" 
 />
    <glyph glyph-name="space" unicode=" " horiz-adv-x="170" 
 />
    <glyph glyph-name="exclam" unicode="!" horiz-adv-x="345" 
d="M86 0v176h172v-176h-172zM104 231l-13 510h164l-14 -510h-137z" />
    <glyph glyph-name="quotedbl" unicode="&#x22;" horiz-adv-x="510" 
d="M76 392l-7 349h156l-7 -349h-142zM293 392l-8 349h156l-8 -349h-140z" />
    <glyph glyph-name="numbersign" unicode="#" horiz-adv-x="647" 
d="M88 0l27 181h-74v138h95l11 76h-106v137h127l31 209h143l-31 -209h75l31 209h143l-32 -209h77v-137h-97l-12 -76h109v-138h-130l-27 -181h-142l27 181h-75l-27 -181h-143zM265 308h99l15 98h-99z" />
    <glyph glyph-name="dollar" unicode="$" horiz-adv-x="563" 
d="M214 -93v93q-115 11 -195 69l71 113q84 -58 187 -58q60 0 82 20.5t22 63.5q0 39 -24 59.5t-87 41.5q-103 34 -136 53q-84 54 -85 165q0 95 40 145.5t124 64.5v82h145v-81q83 -13 145 -47l-69 -121q-66 35 -149 35q-48 0 -68 -18.5t-20 -54.5q0 -34 24.5 -52.5t87.5 -37.5
q36 -11 55 -17.5t49.5 -20t47 -28.5t34.5 -37t26 -52t8 -68q0 -97 -39.5 -149t-131.5 -67v-96h-144z" />
    <glyph glyph-name="percent" unicode="%" horiz-adv-x="1067" 
d="M227 258q-102 0 -151.5 56.5t-49.5 188.5t49.5 188.5t151.5 56.5q103 0 153 -56.5t50 -188.5t-50 -188.5t-153 -56.5zM228 370q38 0 53 27.5t15 101.5q0 73 -15 101t-53 28t-53 -28t-15 -101q0 -74 15 -101.5t53 -27.5zM838 -7q-102 0 -151.5 56.5t-49.5 189.5
q0 131 49.5 188t151.5 57q103 0 153 -57t50 -188q0 -133 -50 -189.5t-153 -56.5zM839 105q38 0 53.5 28t15.5 101q0 74 -15.5 101.5t-53.5 27.5t-53 -27.5t-15 -101.5q0 -73 15 -101t53 -28zM294 0l341 741h140l-342 -741h-139z" />
    <glyph glyph-name="ampersand" unicode="&#x26;" horiz-adv-x="727" 
d="M286 -8q-132 0 -196 50t-64 162q0 77 36.5 124.5t104.5 84.5q-50 79 -50 157q0 94 51 140t144 46q188 0 188 -186q0 -115 -129 -195l42 -46l78 -86q25 64 44 220l127 -15q-23 -214 -77 -310l126 -138h-187l-34 38q-78 -46 -204 -46zM286 116q70 0 114 22l-105 117
q-2 2 -52 58q-67 -49 -67 -102q0 -21 3.5 -35.5t14 -29.5t33.5 -22.5t59 -7.5zM263 570q0 -48 32 -98q67 45 67 98q0 56 -50 56q-27 0 -38 -13.5t-11 -42.5z" />
    <glyph glyph-name="quotesingle" unicode="'" horiz-adv-x="294" 
d="M76 392l-7 349h157l-7 -349h-143z" />
    <glyph glyph-name="parenleft" unicode="(" horiz-adv-x="446" 
d="M252 -178q-70 69 -120.5 191.5t-50.5 290.5q0 155 52 285.5t119 197.5l112 -69q-58 -79 -93.5 -173t-35.5 -240q0 -254 129 -415z" />
    <glyph glyph-name="parenright" unicode=")" horiz-adv-x="446" 
d="M194 -178l-111 68q37 51 61 96t45.5 130.5t21.5 187.5q0 253 -128 414l111 69q70 -69 120.5 -191.5t50.5 -290.5q0 -156 -52 -287t-119 -196z" />
    <glyph glyph-name="asterisk" unicode="*" horiz-adv-x="531" 
d="M204 250l14 154l-112 -88l-66 109l134 71l-134 72l65 108l113 -89l-14 155h120l-13 -157l114 91l65 -107l-135 -73l135 -72l-64 -107l-115 89l13 -156h-120z" />
    <glyph glyph-name="plus" unicode="+" horiz-adv-x="609" 
d="M233 105v182h-154v131h154v180h143v-180h154v-131h-154v-182h-143z" />
    <glyph glyph-name="comma" unicode="," horiz-adv-x="260" 
d="M89 -153l-42 76q50 26 61.5 38t11.5 39h-76v179h172v-164q0 -65 -23 -97t-104 -71z" />
    <glyph glyph-name="hyphen" unicode="-" horiz-adv-x="347" 
d="M30 264v138h286v-138h-286z" />
    <glyph glyph-name="hyphen" unicode="&#xad;" horiz-adv-x="347" 
d="M30 264v138h286v-138h-286z" />
    <glyph glyph-name="period" unicode="." horiz-adv-x="260" 
d="M44 0v179h172v-179h-172z" />
    <glyph glyph-name="slash" unicode="/" horiz-adv-x="495" 
d="M0 0l342 741h153l-342 -741h-153z" />
    <glyph glyph-name="zero" unicode="0" horiz-adv-x="641" 
d="M322 -9q-71 0 -120.5 17.5t-79 46.5t-46 79.5t-22 104t-5.5 131.5t5 130.5t21.5 103.5t46 80.5t79.5 47.5t121 18t120.5 -18.5t78.5 -48t45 -81t21 -103.5t5 -129q0 -66 -3.5 -112.5t-13.5 -92.5t-28.5 -75.5t-48 -53.5t-73.5 -34.5t-103 -10.5zM322 131q70 0 92.5 52
t22.5 187q0 133 -22.5 183.5t-92.5 50.5q-71 0 -94 -50.5t-23 -183.5q0 -134 23 -186.5t94 -52.5z" />
    <glyph glyph-name="one" unicode="1" horiz-adv-x="357" 
d="M125 0v603h-102v138h253v-741h-151z" />
    <glyph glyph-name="two" unicode="2" horiz-adv-x="540" 
d="M24 0v120l186 200q79 84 99.5 121t20.5 86q0 42 -21 60.5t-74 18.5q-75 0 -147 -35l-65 127q104 52 238 52q117 0 169 -49.5t52 -150.5q0 -86 -30.5 -143t-134.5 -170l-97 -105h274v-132h-470z" />
    <glyph glyph-name="three" unicode="3" horiz-adv-x="544" 
d="M250 -9q-133 0 -231 55l68 125q78 -42 153 -42q66 0 89.5 22t23.5 84q0 52 -23.5 72t-93.5 20h-105v125h107q57 0 77 18t20 61q0 44 -21.5 59.5t-74.5 15.5q-75 0 -146 -34l-64 123q96 55 234 55q114 0 167.5 -38.5t53.5 -140.5q0 -73 -16 -111t-56 -54q53 -17 72.5 -57
t19.5 -130q0 -125 -61 -176.5t-193 -51.5z" />
    <glyph glyph-name="four" unicode="4" horiz-adv-x="591" 
d="M27 146v117l259 478h158l-255 -470h152l30 207h109v-207h90v-125h-90v-146h-141v146h-312z" />
    <glyph glyph-name="five" unicode="5" horiz-adv-x="566" 
d="M274 -9q-152 0 -253 56l68 124q77 -42 175 -42q63 0 89.5 23.5t26.5 94.5q0 70 -25 93t-81 23q-63 0 -105 -26l-117 34l20 370h424v-138h-295l-7 -132q43 25 136 25q108 0 155 -53.5t47 -192.5q0 -80 -16 -131.5t-51.5 -79t-79.5 -38t-111 -10.5z" />
    <glyph glyph-name="six" unicode="6" horiz-adv-x="612" 
d="M318 -9q-72 0 -122 15.5t-79 41t-45 69.5t-21 89.5t-5 113.5q0 67 2.5 112.5t10.5 93.5t23.5 78.5t40.5 59t62 44t88.5 24.5t119.5 9h87v-138h-95q-57 0 -93 -9t-55 -30t-26.5 -45t-10.5 -63q43 51 170 51q63 0 105 -17.5t63.5 -53t30 -77.5t8.5 -102
q0 -139 -57.5 -202.5t-201.5 -63.5zM321 124q59 0 81.5 31t22.5 101q0 68 -23 97.5t-79 29.5q-119 0 -119 -122q0 -75 23.5 -106t93.5 -31z" />
    <glyph glyph-name="seven" unicode="7" horiz-adv-x="501" 
d="M105 0l212 603h-299v138h464v-119l-215 -622h-162z" />
    <glyph glyph-name="eight" unicode="8" horiz-adv-x="611" 
d="M305 -9q-68 0 -117.5 12.5t-77 32t-44 50t-21 59t-4.5 67.5q0 38 3 64t12.5 53.5t30 47t52.5 31.5q-46 21 -61.5 60.5t-15.5 99.5q0 39 10 69t35 57t75 41.5t123 14.5t123.5 -14.5t75 -42t34.5 -57t10 -68.5q0 -60 -16.5 -100.5t-61.5 -59.5q34 -12 55.5 -31.5t31 -47.5
t12 -53t2.5 -64t-4.5 -67.5t-21 -59t-44.5 -50t-77.5 -32t-118.5 -12.5zM305 120q64 0 88 28.5t24 84.5t-23.5 83.5t-88.5 27.5q-64 0 -87 -27.5t-23 -83.5t23 -84.5t87 -28.5zM305 453q53 0 74 20.5t21 63.5t-21 63.5t-74 20.5q-52 0 -73.5 -20.5t-21.5 -63.5t21.5 -63.5
t73.5 -20.5z" />
    <glyph glyph-name="nine" unicode="9" horiz-adv-x="612" 
d="M131 0v132h96q105 0 142 34t42 115q-40 -51 -169 -51q-63 0 -105 17.5t-63.5 52.5t-30 77t-8.5 102q0 140 57 205.5t201 65.5q72 0 122 -15.5t79.5 -41t45.5 -69.5t21 -89.5t5 -113.5q0 -67 -3 -113.5t-11 -94t-24 -78.5t-41.5 -58.5t-62.5 -43t-88 -24.5t-118 -9h-87z
M288 353q120 0 120 123q0 75 -24 105.5t-94 30.5q-59 0 -81.5 -31t-22.5 -101q0 -68 23.5 -97.5t78.5 -29.5z" />
    <glyph glyph-name="colon" unicode=":" horiz-adv-x="276" 
d="M52 0v175h171v-175h-171zM52 392v175h171v-175h-171z" />
    <glyph glyph-name="semicolon" unicode=";" horiz-adv-x="276" 
d="M52 392v175h171v-175h-171zM97 -153l-42 76q50 26 61.5 38t11.5 39h-76v175h171v-160q0 -65 -22.5 -97t-103.5 -71z" />
    <glyph glyph-name="less" unicode="&#x3c;" horiz-adv-x="608" 
d="M483 77l-392 217v104l392 217v-145l-234 -123l234 -124v-146z" />
    <glyph glyph-name="equal" unicode="=" horiz-adv-x="609" 
d="M80 166v139h449v-139h-449zM80 395v138h449v-138h-449z" />
    <glyph glyph-name="greater" unicode="&#x3e;" horiz-adv-x="609" 
d="M124 77v145l235 123l-235 124v146l393 -217v-104z" />
    <glyph glyph-name="question" unicode="?" horiz-adv-x="572" 
d="M194 217q-1 87 15.5 125t84.5 93q45 37 60 56.5t15 49.5q0 35 -21 52t-79 17q-71 0 -149 -37l-66 127q102 50 241 50q125 0 175.5 -46t50.5 -133q0 -51 -14 -87.5t-31 -55t-54 -49.5q-58 -48 -70 -72.5t-11 -89.5h-147zM181 0v157h172v-157h-172z" />
    <glyph glyph-name="at" unicode="@" horiz-adv-x="861" 
d="M431 -165q-215 0 -304.5 108t-89.5 348q0 239 89.5 348t304.5 109q214 0 303.5 -109t89.5 -348q0 -144 -32 -201.5t-128 -57.5q-108 0 -129 68q-39 -68 -164 -68q-44 0 -75.5 14t-50 36.5t-29 58t-13.5 69.5t-3 80q0 59 6.5 101t24 80.5t53.5 58.5t90 20q62 0 91 -11
t46 -37l25 43l97 -9v-334q1 -24 2 -32.5t3.5 -22t7 -17.5t12.5 -7.5t21 -3.5q35 0 45 31t10 141q0 203 -68.5 289t-234.5 86q-167 0 -235.5 -86t-68.5 -289t68.5 -288.5t235.5 -85.5q119 0 231 46l33 -77q-127 -51 -264 -51zM414 147q54 0 70 32.5t16 109.5
q0 78 -15.5 107.5t-70.5 29.5q-48 0 -63.5 -31.5t-15.5 -106.5q0 -76 15 -108.5t64 -32.5z" />
    <glyph glyph-name="A" unicode="A" horiz-adv-x="656" 
d="M13 0l231 746h168l231 -746h-161l-34 115h-245l-33 -115h-157zM240 253h170l-84 281z" />
    <glyph glyph-name="B" unicode="B" horiz-adv-x="616" 
d="M58 0v741h271q125 0 181 -48t56 -142q0 -127 -87 -163q53 -18 77.5 -61t24.5 -120q0 -207 -246 -207h-277zM212 131h121q45 0 67.5 20t22.5 68t-22.5 67t-68.5 19h-120v-174zM212 442h112q45 0 65 20.5t20 64.5q0 43 -19.5 61t-65.5 18h-112v-164z" />
    <glyph glyph-name="C" unicode="C" horiz-adv-x="564" 
d="M324 -9q-164 0 -230.5 96t-66.5 283q0 90 13.5 155t46.5 118.5t95 80t154 26.5q119 0 201 -54l-84 -130q-49 31 -122 31q-80 0 -112.5 -49t-32.5 -182q0 -132 32.5 -183t113.5 -51q72 0 131 38l77 -121q-92 -58 -216 -58z" />
    <glyph glyph-name="D" unicode="D" horiz-adv-x="642" 
d="M58 0v741h231q179 0 252.5 -80.5t73.5 -289.5q0 -145 -33 -225.5t-102 -113t-191 -32.5h-231zM215 136h88q85 0 119 48t34 186q0 94 -16.5 143.5t-48.5 67t-92 17.5h-84v-462z" />
    <glyph glyph-name="E" unicode="E" horiz-adv-x="557" 
d="M58 0v741h457v-143h-304v-148h291v-142h-291v-168h305v-140h-458z" />
    <glyph glyph-name="F" unicode="F" horiz-adv-x="543" 
d="M58 0v741h458v-143h-301v-160h287v-142h-287v-296h-157z" />
    <glyph glyph-name="G" unicode="G" horiz-adv-x="616" 
d="M315 -9q-84 0 -141.5 25.5t-89 77t-44.5 117.5t-13 159q0 202 70.5 291t244.5 89q125 0 215 -57l-83 -130q-64 36 -139 36q-39 0 -65 -9t-46.5 -33.5t-30 -71.5t-9.5 -119q0 -140 31.5 -191t113.5 -51q68 0 90 36t22 127v18h-144v135h293v-125q0 -184 -56 -254t-219 -70z
" />
    <glyph glyph-name="H" unicode="H" horiz-adv-x="677" 
d="M58 0v741h157v-281h246v281h158v-741h-158v305h-246v-305h-157z" />
    <glyph glyph-name="I" unicode="I" horiz-adv-x="290" 
d="M67 0v741h156v-741h-156z" />
    <glyph glyph-name="J" unicode="J" horiz-adv-x="391" 
d="M26 0v140h71q47 0 65 17t18 56v528h157v-538q0 -113 -55 -158t-159 -45h-97z" />
    <glyph glyph-name="K" unicode="K" horiz-adv-x="639" 
d="M58 0v741h155v-305l226 305h180l-223 -288l227 -453h-173l-159 321l-78 -107v-214h-155z" />
    <glyph glyph-name="L" unicode="L" horiz-adv-x="513" 
d="M58 0v741h157v-601h288v-140h-445z" />
    <glyph glyph-name="M" unicode="M" horiz-adv-x="805" 
d="M58 0v741h200l144 -470l146 470h200v-741h-153v473l-148 -473h-101l-149 473v-473h-139z" />
    <glyph glyph-name="N" unicode="N" horiz-adv-x="673" 
d="M58 0v741h166l243 -427v427h149v-741h-144l-265 462v-462h-149z" />
    <glyph glyph-name="O" unicode="O" 
d="M334 -9q-77 0 -133.5 21t-89.5 54t-52 84.5t-25.5 102t-6.5 117.5t6.5 118t25.5 102.5t52 84.5t89.5 54t133.5 21t133.5 -21t89.5 -54t52 -84.5t25.5 -102.5t6.5 -118t-6.5 -117.5t-25.5 -102t-52 -84.5t-89.5 -54t-133.5 -21zM334 130q39 0 66 11.5t43 30t25 50.5
t11.5 64t2.5 79q0 46 -2.5 78t-11.5 64t-25 50.5t-43 30t-66 11.5t-66 -11.5t-43 -30t-25 -50.5t-11.5 -64t-2.5 -78q0 -47 2.5 -79t11.5 -64t25 -50.5t43 -30t66 -11.5z" />
    <glyph glyph-name="P" unicode="P" horiz-adv-x="613" 
d="M58 0v741h285q129 0 186.5 -61.5t57.5 -179.5q0 -257 -247 -257h-128v-243h-154zM212 379h126q51 0 73.5 26t22.5 86t-22.5 86t-73.5 26h-126v-224z" />
    <glyph glyph-name="Q" unicode="Q" 
d="M434 -183q-101 0 -150.5 38.5t-48.5 120.5v30q-52 11 -89.5 36.5t-60 58t-36 78.5t-18 90t-4.5 101q0 67 6.5 118t25.5 102.5t52 84.5t89.5 54t133.5 21t133.5 -21t89.5 -54t52 -84.5t25.5 -102.5t6.5 -118q0 -61 -5.5 -108.5t-21.5 -95.5t-43.5 -81t-74.5 -56t-110 -29
q1 -30 15 -41t52 -11h75v-131h-94zM334 130q39 0 66 11.5t43 30t25 50.5t11.5 64t2.5 79q0 46 -2.5 78t-11.5 64t-25 50.5t-43 30t-66 11.5t-66 -11.5t-43 -30t-25 -50.5t-11.5 -64t-2.5 -78q0 -47 2.5 -79t11.5 -64t25 -50.5t43 -30t66 -11.5z" />
    <glyph glyph-name="R" unicode="R" horiz-adv-x="624" 
d="M416 0l-106 248h-98v-248h-154v741h283q129 0 186.5 -59.5t57.5 -176.5q0 -181 -124 -235l119 -270h-164zM212 385h125q51 0 73 25t22 84q0 60 -22 84.5t-73 24.5h-125v-218z" />
    <glyph glyph-name="S" unicode="S" horiz-adv-x="583" 
d="M293 -9q-178 0 -280 67l79 120q84 -53 197 -53q62 0 87.5 19t25.5 57q0 46 -27.5 64t-127.5 49q-106 33 -153.5 81.5t-47.5 136.5q0 108 66 163t190 55q130 0 227 -46l-68 -134q-68 33 -155 33q-56 0 -81.5 -15.5t-25.5 -50.5q0 -36 23 -52t95 -40q72 -23 112.5 -41.5
t71.5 -46t42 -63t11 -90.5q0 -101 -64.5 -157t-196.5 -56z" />
    <glyph glyph-name="T" unicode="T" horiz-adv-x="579" 
d="M210 0v598h-199v143h557v-143h-200v-598h-158z" />
    <glyph glyph-name="U" unicode="U" 
d="M334 -11q-153 0 -217 66.5t-64 204.5v481h157v-466q0 -79 26 -112t100 -33q73 0 100 32.5t27 112.5v466h152v-481q0 -138 -63 -204.5t-218 -66.5z" />
    <glyph glyph-name="V" unicode="V" horiz-adv-x="648" 
d="M240 -5l-227 746h161l153 -519l150 519h159l-228 -746h-168z" />
    <glyph glyph-name="W" unicode="W" horiz-adv-x="899" 
d="M187 -5l-166 746h160l96 -450l107 450h139l108 -450l96 450h150l-165 -746h-154l-108 442l-108 -442h-155z" />
    <glyph glyph-name="X" unicode="X" horiz-adv-x="648" 
d="M457 0l-142 251l-130 -251h-169l220 390l-197 351h173l119 -211l108 211h170l-199 -352l220 -389h-173z" />
    <glyph glyph-name="Y" unicode="Y" horiz-adv-x="626" 
d="M234 0v251l-236 490h167l150 -323l151 323h161l-237 -492v-249h-156z" />
    <glyph glyph-name="Z" unicode="Z" horiz-adv-x="564" 
d="M23 0v118l320 480h-306v143h493v-129l-317 -472h326v-140h-516z" />
    <glyph glyph-name="bracketleft" unicode="[" horiz-adv-x="444" 
d="M88 -158v927h287v-130h-133v-673h135v-124h-289z" />
    <glyph glyph-name="backslash" unicode="\" horiz-adv-x="495" 
d="M342 0l-342 741h153l342 -741h-153z" />
    <glyph glyph-name="bracketright" unicode="]" horiz-adv-x="444" 
d="M68 -158v124h135v673h-132v130h286v-927h-289z" />
    <glyph glyph-name="asciicircum" unicode="^" horiz-adv-x="487" 
d="M65 570l109 183h139l110 -183h-120l-61 79l-60 -79h-117z" />
    <glyph glyph-name="underscore" unicode="_" horiz-adv-x="374" 
d="M-31 -150v112h436v-112h-436z" />
    <glyph glyph-name="grave" unicode="`" horiz-adv-x="487" 
d="M203 620l-145 183h168l106 -183h-129z" />
    <glyph glyph-name="a" unicode="a" horiz-adv-x="545" 
d="M202 -7q-103 0 -141 46t-38 132q0 116 67 160t224 44h20q-2 37 -18 52t-57 15q-82 0 -144 -30l-61 122q87 45 222 45q115 0 159.5 -43t44.5 -150v-211q0 -28 6.5 -36t32.5 -8v-131q-16 -2 -45 -2q-56 0 -80 9t-36 38q-43 -52 -156 -52zM237 117q48 0 72.5 22t24.5 77v52
h-19q-86 0 -117 -16t-31 -64q0 -38 16 -54.5t54 -16.5z" />
    <glyph glyph-name="b" unicode="b" horiz-adv-x="568" 
d="M48 5v764h150v-245q40 54 154 54q49 0 84.5 -16.5t55.5 -41.5t31.5 -65.5t15 -79t3.5 -90.5t-4 -91.5t-16 -79t-33 -64.5t-57.5 -41t-85.5 -16q-74 0 -105 11t-60 39l-23 -49zM300 124q54 0 71.5 35t17.5 119q0 86 -17 122t-72 36q-62 0 -81.5 -37t-19.5 -121t19 -119
t82 -35z" />
    <glyph glyph-name="c" unicode="c" horiz-adv-x="448" 
d="M264 -8q-136 0 -187 72t-51 221q0 73 10.5 123t37 90t76 59.5t123.5 19.5q94 0 157 -30l-66 -131q-38 20 -83 20q-57 0 -79 -35t-22 -121q0 -88 22 -122.5t82 -34.5q41 0 95 23l57 -115q-81 -39 -172 -39z" />
    <glyph glyph-name="d" unicode="d" horiz-adv-x="568" 
d="M216 -7q-60 0 -99.5 22.5t-58 67t-25 90.5t-6.5 113q0 43 3 76.5t10 68.5t21 60t35.5 45.5t53.5 30.5t73 10q107 0 146 -43v235h152v-764l-121 -10l-12 52q-46 -54 -172 -54zM268 124q62 0 81.5 37t19.5 122q0 83 -19 118.5t-82 35.5q-54 0 -71.5 -35.5t-17.5 -118.5
q0 -86 17 -122.5t72 -36.5z" />
    <glyph glyph-name="e" unicode="e" horiz-adv-x="515" 
d="M267 -7q-73 0 -121.5 19t-74 59t-35.5 90t-10 124q0 146 54 219t191 73q65 0 108.5 -17.5t64.5 -49t31.5 -76.5t10 -100t-0.5 -118h-313q5 -52 26.5 -73t76.5 -21q79 0 149 33l57 -115q-88 -47 -214 -47zM267 445q-53 0 -73 -26t-23 -86h181q-2 64 -16.5 88t-68.5 24z
" />
    <glyph glyph-name="f" unicode="f" horiz-adv-x="390" 
d="M12 435v132h92v46q0 174 198 174q48 0 82 -2v-130h-67q-38 0 -50 -13.5t-12 -45.5v-29h129v-132h-129v-435h-151v435h-92z" />
    <glyph glyph-name="g" unicode="g" horiz-adv-x="547" 
d="M264 200q-42 0 -61 3q-1 -5 -1 -15q0 -18 14 -24t59 -6q146 0 196 -31.5t50 -116.5q0 -97 -61.5 -137.5t-194.5 -40.5q-138 0 -196.5 28t-58.5 107q0 106 96 129q-30 26 -30 78q0 38 20 67q-59 43 -59 143q0 101 57 147.5t170 46.5q18 0 29 -1l223 46v-117h-77
q53 -35 53 -122q0 -99 -59 -141.5t-169 -42.5zM263 -63q64 0 84.5 14.5t20.5 48.5q0 29 -19.5 39.5t-84.5 10.5q-59 0 -81.5 -13t-22.5 -43t22.5 -43.5t80.5 -13.5zM264 308q43 0 61.5 18t18.5 55q0 36 -18.5 54t-61.5 18q-79 0 -79 -72q0 -73 79 -73z" />
    <glyph glyph-name="h" unicode="h" horiz-adv-x="562" 
d="M48 0v769h150v-242q39 50 154 50q50 0 84 -15t51.5 -44.5t24 -64t6.5 -82.5v-371h-152v333q0 55 -13.5 77.5t-59.5 22.5q-57 0 -75.5 -26.5t-18.5 -94.5v-312h-151z" />
    <glyph glyph-name="i" unicode="i" horiz-adv-x="256" 
d="M52 0v567h151v-567h-151zM52 618v137h152v-137h-152z" />
    <glyph glyph-name="j" unicode="j" horiz-adv-x="256" 
d="M1 -158v121h11q27 0 33.5 11.5t6.5 47.5v545h151v-550q0 -99 -37.5 -137t-141.5 -38h-23zM52 618v137h152v-137h-152z" />
    <glyph glyph-name="k" unicode="k" horiz-adv-x="523" 
d="M48 0v769h148v-430l154 228h159l-167 -237l177 -330h-161l-115 207l-47 -70v-137h-148z" />
    <glyph glyph-name="l" unicode="l" horiz-adv-x="293" 
d="M262 0q-12 -2 -55 -2q-82 0 -118.5 34.5t-36.5 128.5v608h151v-587q0 -33 9.5 -42t49.5 -9v-131z" />
    <glyph glyph-name="m" unicode="m" horiz-adv-x="855" 
d="M48 0v558l121 10l11 -45q41 54 167 54q109 0 133 -55q45 55 176 55q51 0 83.5 -14.5t48.5 -45t21.5 -63.5t5.5 -83v-371h-150v333q0 57 -12 78.5t-57 21.5q-55 0 -72.5 -26.5t-17.5 -94.5v-312h-150v333q0 57 -11.5 78.5t-56.5 21.5q-56 0 -73.5 -27t-17.5 -94v-312h-149
z" />
    <glyph glyph-name="n" unicode="n" horiz-adv-x="562" 
d="M48 0v558l121 10l11 -45q43 54 172 54q50 0 84 -15t51.5 -44.5t24 -64t6.5 -82.5v-371h-152v333q0 55 -13.5 77.5t-59.5 22.5q-57 0 -75.5 -27.5t-18.5 -93.5v-312h-151z" />
    <glyph glyph-name="o" unicode="o" horiz-adv-x="551" 
d="M276 -9q-141 0 -195.5 74t-54.5 220q0 145 54 218.5t196 73.5q74 0 124 -20.5t76.5 -61t37.5 -90.5t11 -120q0 -73 -11 -123.5t-37.5 -91t-76.5 -60t-124 -19.5zM276 123q60 0 78.5 37t18.5 120q0 84 -18 120t-79 36t-79 -36t-18 -120q0 -83 18.5 -120t78.5 -37z" />
    <glyph glyph-name="p" unicode="p" horiz-adv-x="568" 
d="M48 -158v716l121 10l10 -45q45 54 173 54q49 0 84.5 -16t55.5 -41.5t31.5 -65.5t15 -78.5t3.5 -90.5q0 -66 -7.5 -113.5t-27 -90.5t-60 -65.5t-101.5 -22.5q-106 0 -147 44v-195h-151zM300 124q53 0 71 35t18 119q0 86 -17 122t-72 36q-62 0 -81.5 -37t-19.5 -121
t19 -119t82 -35z" />
    <glyph glyph-name="q" unicode="q" horiz-adv-x="568" 
d="M370 -158v202q-40 -51 -154 -51q-60 0 -99.5 22.5t-58 67t-25 90.5t-6.5 113q0 43 3 76.5t10 68.5t21 60t35.5 45.5t53.5 30.5t73 10q73 0 108.5 -11t56.5 -36l22 42l111 -10v-720h-151zM268 124q62 0 81.5 37t19.5 122q0 83 -19 118.5t-82 35.5q-54 0 -71.5 -35.5
t-17.5 -118.5q0 -86 17 -122.5t72 -36.5z" />
    <glyph glyph-name="r" unicode="r" horiz-adv-x="345" 
d="M48 0v558l120 10l13 -53q43 57 158 57v-143q-38 0 -64.5 -8t-41 -19.5t-22 -32t-9.5 -39t-2 -46.5v-284h-152z" />
    <glyph glyph-name="s" unicode="s" horiz-adv-x="454" 
d="M231 -7q-143 0 -223 42l58 117q76 -37 165 -37q63 0 63 44q0 24 -19.5 36.5t-90.5 35.5q-57 19 -87.5 37.5t-49 51t-18.5 83.5q0 174 212 174q103 0 176 -30l-58 -125q-58 24 -124 24q-35 0 -48.5 -9.5t-13.5 -30.5q0 -20 19 -32t79 -32q92 -30 128 -66t36 -115
q0 -168 -204 -168z" />
    <glyph glyph-name="t" unicode="t" horiz-adv-x="415" 
d="M12 435v132h96l23 127l120 27v-154h129v-132h-129v-244q0 -33 11.5 -46.5t52.5 -13.5h65v-131q-65 -5 -84 -5q-112 0 -153.5 40t-41.5 138v262h-89z" />
    <glyph glyph-name="u" unicode="u" horiz-adv-x="552" 
d="M276 -8q-134 0 -183 54t-49 186v335h152v-327q0 -67 13.5 -90.5t68.5 -23.5q53 0 67 24t14 91v326h149v-335q0 -133 -47.5 -186.5t-184.5 -53.5z" />
    <glyph glyph-name="v" unicode="v" horiz-adv-x="519" 
d="M176 -5l-174 572h158l103 -374l103 374h152l-176 -572h-166z" />
    <glyph glyph-name="w" unicode="w" horiz-adv-x="761" 
d="M148 -5l-138 572h153l69 -332l83 332h139l82 -326l70 326h145l-137 -572h-148l-85 318l-83 -318h-150z" />
    <glyph glyph-name="x" unicode="x" horiz-adv-x="507" 
d="M341 0l-96 167l-89 -167h-154l168 298l-154 269h164l82 -144l75 144h154l-154 -275l167 -292h-163z" />
    <glyph glyph-name="y" unicode="y" horiz-adv-x="498" 
d="M68 -158v121h64q19 0 27 5.5t12 18.5l3 13l-173 567h155l96 -348l95 348h149l-187 -611q-21 -69 -60.5 -91.5t-117.5 -22.5h-63z" />
    <glyph glyph-name="z" unicode="z" horiz-adv-x="447" 
d="M12 0v100l226 335h-212v132h402v-102l-228 -342h237v-123h-425z" />
    <glyph glyph-name="braceleft" unicode="{" horiz-adv-x="474" 
d="M300 -158q-96 0 -138.5 33.5t-42.5 101.5q0 29 20.5 118.5t20.5 102.5q0 28 -21 36t-84 8v127q63 0 84 7.5t21 35.5q0 19 -20.5 105t-20.5 116q0 69 42 102.5t137 33.5h110v-130h-62q-36 0 -53.5 -12t-17.5 -44q0 -20 18 -94.5t18 -102.5q0 -62 -56 -80q56 -21 56 -81
q0 -35 -18 -109.5t-18 -89.5q0 -60 71 -60h62v-124h-108z" />
    <glyph glyph-name="bar" unicode="|" horiz-adv-x="329" 
d="M88 -158v927h154v-927h-154z" />
    <glyph glyph-name="braceright" unicode="}" horiz-adv-x="474" 
d="M67 -158v124h61q72 0 72 60q0 15 -18.5 89.5t-18.5 109.5q0 61 56 81q-56 20 -56 80q0 28 18.5 102.5t18.5 94.5q0 32 -18 44t-54 12h-61v130h109q95 0 137 -33.5t42 -102.5q0 -30 -20.5 -116t-20.5 -105q0 -27 20.5 -34.5t85.5 -7.5v-128q-64 0 -85 -7.5t-21 -36.5
q0 -13 20.5 -102.5t20.5 -118.5q0 -68 -42.5 -101.5t-137.5 -33.5h-108z" />
    <glyph glyph-name="asciitilde" unicode="~" horiz-adv-x="487" 
d="M127 360l-97 56q56 110 146 110q30 0 68 -21.5t50 -21.5q28 0 63 48l96 -56q-30 -58 -64 -84.5t-81 -26.5q-30 0 -68.5 21t-49.5 21q-31 0 -63 -46z" />
    <glyph glyph-name="uni00A0" unicode="&#xa0;" horiz-adv-x="170" 
 />
    <glyph glyph-name="exclamdown" unicode="&#xa1;" horiz-adv-x="345" 
d="M90 0l14 510h138l13 -510h-165zM87 565v176h172v-176h-172z" />
    <glyph glyph-name="cent" unicode="&#xa2;" horiz-adv-x="477" 
d="M198 -95v99q-89 19 -123.5 87.5t-34.5 193.5q0 122 34 190.5t124 89.5v80h146v-74q55 -7 99 -27l-64 -128q-38 20 -84 20q-57 0 -78.5 -34.5t-21.5 -121.5q0 -88 21.5 -122.5t81.5 -34.5q41 0 95 23l56 -113q-51 -27 -105 -33v-95h-146z" />
    <glyph glyph-name="sterling" unicode="&#xa3;" horiz-adv-x="567" 
d="M384 -5q-93 0 -178 40q-53 -35 -191 -35v132q78 0 99 11t21 54q0 34 -18 115h-99v122h71q-16 76 -16 118q0 102 56 150t172 48q126 0 214 -45l-64 -123q-59 29 -149 29q-79 0 -79 -77q0 -33 12 -100h143v-122h-120q14 -75 14 -113q0 -23 -4 -59q48 -17 96 -17q31 0 41 17
t10 57v57h132v-63q0 -108 -36 -152t-127 -44z" />
    <glyph glyph-name="yen" unicode="&#xa5;" horiz-adv-x="580" 
d="M61 216v107h149l-203 418h161l122 -284l123 284h159l-202 -418h149v-107h-156v-53h156v-107h-156v-56h-147v56h-155v107h155v53h-155z" />
    <glyph glyph-name="brokenbar" unicode="&#xa6;" horiz-adv-x="329" 
d="M88 -158v383h154v-383h-154zM88 386v383h154v-383h-154z" />
    <glyph glyph-name="section" unicode="&#xa7;" horiz-adv-x="489" 
d="M126 -5q-28 0 -56 2v118h40q38 0 49.5 14.5t11.5 49.5v30q-66 12 -93.5 50t-27.5 108t28 109.5t93 51.5v22q0 46 7 78t26 60.5t57.5 42.5t97.5 14q28 0 56 -2v-124h-40q-38 0 -49.5 -14.5t-11.5 -50.5v-26q67 -12 96 -51t29 -110t-28.5 -109t-96.5 -50v-18
q0 -46 -7 -78.5t-26 -60.5t-58 -42t-97 -14zM244 302q76 0 76 61q0 32 -18 46.5t-58 14.5q-39 0 -57 -14.5t-18 -46.5q0 -61 75 -61z" />
    <glyph glyph-name="dieresis" unicode="&#xa8;" horiz-adv-x="487" 
d="M79 620v134h134v-134h-134zM275 620v134h133v-134h-133z" />
    <glyph glyph-name="copyright" unicode="&#xa9;" 
d="M340 138q-103 0 -144 59.5t-41 177.5q0 117 41 177t151 60q74 0 126 -33l-52 -80q-32 20 -77 20q-51 0 -71 -31t-20 -116q0 -83 20.5 -115.5t71.5 -32.5q45 0 82 25l48 -76q-58 -35 -135 -35zM334 -9q-89 0 -150 28t-94 81.5t-46.5 118.5t-13.5 151q0 69 8 123t29 104
t54.5 82.5t87.5 52t125 19.5q88 0 149.5 -28.5t94.5 -82t47 -119t14 -151.5t-14 -151t-47 -118.5t-94.5 -81.5t-149.5 -28zM334 45q59 0 102.5 16.5t71 44.5t44 70.5t23 88.5t6.5 105t-6.5 105.5t-23 89t-44 70.5t-71 44.5t-102.5 16.5q-73 0 -122.5 -24t-76 -70.5
t-37 -101.5t-10.5 -130q0 -74 10.5 -129t37 -101.5t76 -70.5t122.5 -24z" />
    <glyph glyph-name="ordfeminine" unicode="&#xaa;" horiz-adv-x="496" 
d="M183 276q-135 0 -135 143q0 93 53.5 126t182.5 33h15q-1 33 -13 46.5t-47 13.5q-63 0 -117 -24l-49 100q72 36 180 36q94 0 129.5 -35t35.5 -122v-170q0 -22 5.5 -28.5t26.5 -6.5v-108q-7 0 -19.5 -0.5t-17.5 -0.5q-47 0 -68 9t-30 39q-18 -28 -47 -39.5t-85 -11.5z
M63 118v108h365v-108h-365zM221 376q39 0 58.5 17.5t19.5 62.5v36h-15q-70 0 -94.5 -11t-24.5 -48q0 -30 13 -43.5t43 -13.5z" />
    <glyph glyph-name="guillemotleft" unicode="&#xab;" horiz-adv-x="654" 
d="M188 0l-125 283l125 284h133l-114 -284l114 -283h-133zM435 0l-125 283l125 284h132l-114 -284l114 -283h-132z" />
    <glyph glyph-name="logicalnot" unicode="&#xac;" horiz-adv-x="609" 
d="M530 418v-313h-143v182h-308v131h451z" />
    <glyph glyph-name="registered" unicode="&#xae;" 
d="M334 -9q-89 0 -150 28t-94 81.5t-46.5 118.5t-13.5 151q0 69 8 123t29 104t54.5 82.5t87.5 52t125 19.5q88 0 149.5 -28.5t94.5 -82t47 -119t14 -151.5t-14 -151t-47 -118.5t-94.5 -81.5t-149.5 -28zM334 45q59 0 102.5 16.5t71 44.5t44 70.5t23 88.5t6.5 105t-6.5 105.5
t-23 89t-44 70.5t-71 44.5t-102.5 16.5q-73 0 -122.5 -24t-76 -70.5t-37 -101.5t-10.5 -130q0 -74 10.5 -129t37 -101.5t76 -70.5t122.5 -24zM404 146l-70 160h-59v-160h-93v453h173q83 0 115 -35t32 -108q0 -57 -17.5 -92t-61.5 -49l76 -169h-95zM275 381h76
q33 0 46.5 15.5t13.5 52.5q0 38 -13.5 53.5t-46.5 15.5h-76v-137z" />
    <glyph glyph-name="macron" unicode="&#xaf;" horiz-adv-x="487" 
d="M63 620v125h360v-125h-360z" />
    <glyph glyph-name="macron" unicode="&#x304;" horiz-adv-x="487" 
d="M63 620v125h360v-125h-360z" />
    <glyph glyph-name="degree" unicode="&#xb0;" horiz-adv-x="474" 
d="M237 266q-60 0 -101 18.5t-62.5 54t-30.5 76t-9 93.5t9 93.5t30.5 75.5t62.5 54t101 19t101.5 -19t63.5 -54t31 -75.5t9 -93.5t-9 -93.5t-31 -76t-63.5 -54t-101.5 -18.5zM237 379q50 0 66.5 32t16.5 93t-16.5 92t-66.5 31q-48 0 -65 -31.5t-17 -91.5q0 -61 17 -93
t65 -32z" />
    <glyph glyph-name="plusminus" unicode="&#xb1;" horiz-adv-x="609" 
d="M79 6v131h154v150h-154v131h154v180h143v-180h154v-131h-154v-150h154v-131h-451z" />
    <glyph glyph-name="two.superior" unicode="&#xb2;" horiz-adv-x="431" 
d="M45 256v88l123 131q52 56 65 75.5t13 41.5q0 27 -13.5 36t-43.5 9q-48 0 -96 -23l-51 99q70 34 167 34q156 0 156 -133q0 -58 -20.5 -96t-89.5 -108l-55 -56h174v-98h-329z" />
    <glyph glyph-name="threesuperior" unicode="&#xb3;" horiz-adv-x="437" 
d="M207 250q-104 0 -166 37l51 93q50 -27 105 -27q42 0 55.5 12.5t13.5 47.5q0 28 -15 38.5t-60 10.5h-75v96h75q37 0 50 9t13 33q0 25 -12 32.5t-47 7.5q-54 0 -100 -22l-48 93q63 36 169 36q78 0 117 -25.5t39 -92.5q0 -45 -10 -70.5t-37 -36.5q35 -12 47 -38t12 -84
q0 -81 -43.5 -115.5t-133.5 -34.5z" />
    <glyph glyph-name="acute" unicode="&#xb4;" horiz-adv-x="487" 
d="M155 620l106 183h167l-144 -183h-129z" />
    <glyph glyph-name="mu" unicode="&#xb5;" horiz-adv-x="562" 
d="M213 -7q-4 0 -12 0.5t-11 0.5v-152h-143v725h152v-344q0 -55 13.5 -77t59.5 -22q57 0 74 26.5t17 93.5v323h151v-562l-121 -9l-11 49q-41 -52 -169 -52z" />
    <glyph glyph-name="paragraph" unicode="&#xb6;" horiz-adv-x="573" 
d="M169 0v264q-79 23 -110.5 81t-31.5 151q0 60 12 103t40.5 76t81.5 49.5t132 16.5h230v-741h-147v249h-60v-249h-147zM290 379h86v226h-86q-61 0 -85.5 -26t-24.5 -88q0 -61 24.5 -86.5t85.5 -25.5z" />
    <glyph glyph-name="periodcentered" unicode="&#xb7;" horiz-adv-x="260" 
d="M44 278v183h172v-183h-172z" />
    <glyph glyph-name="periodcentered" unicode="&#x2219;" horiz-adv-x="260" 
d="M44 278v183h172v-183h-172z" />
    <glyph glyph-name="cedilla" unicode="&#xb8;" horiz-adv-x="487" 
d="M250 -243q-64 0 -118 26l32 70q40 -15 75 -15q29 0 39.5 8.5t10.5 29.5q0 24 -15 29.5t-57 3.5l-26 19l16 79h82l-9 -49q51 3 78.5 -17t27.5 -76q0 -58 -31 -83t-105 -25z" />
    <glyph glyph-name="one.superior" unicode="&#xb9;" horiz-adv-x="321" 
d="M112 256v375h-68v110h194v-485h-126z" />
    <glyph glyph-name="ordmasculine" unicode="&#xba;" horiz-adv-x="496" 
d="M248 274q-114 0 -158 60t-44 178q0 117 44 177.5t158 60.5q116 0 159.5 -60.5t43.5 -177.5q0 -120 -43 -179t-160 -59zM248 382q49 0 63.5 29.5t14.5 97.5q0 67 -14.5 96.5t-63.5 29.5q-48 0 -63 -29.5t-15 -96.5t15 -97t63 -30zM63 118v108h369v-108h-369z" />
    <glyph glyph-name="guillemotright" unicode="&#xbb;" horiz-adv-x="654" 
d="M86 0l115 284l-115 283h133l125 -283l-125 -284h-133zM333 0l114 284l-114 283h133l124 -283l-124 -284h-133z" />
    <glyph glyph-name="onequarter" unicode="&#xbc;" horiz-adv-x="901" 
d="M187 0l341 741h134l-340 -741h-135zM489 82v91l169 312h124l-167 -306h80l21 104h90v-104h59v-97h-59v-82h-112v82h-205zM115 256v375h-67v110h193v-485h-126z" />
    <glyph glyph-name="onehalf" unicode="&#xbd;" horiz-adv-x="945" 
d="M187 0l341 741h134l-340 -741h-135zM115 256v375h-67v110h193v-485h-126zM568 0v88l123 131q53 57 65.5 75.5t12.5 41.5q0 28 -13 36.5t-44 8.5q-48 0 -96 -23l-50 99q72 35 167 35q156 0 156 -134q0 -57 -21.5 -96t-89.5 -108l-55 -56h174v-98h-329z" />
    <glyph glyph-name="threequarters" unicode="&#xbe;" horiz-adv-x="990" 
d="M207 250q-104 0 -166 37l51 93q50 -27 105 -27q42 0 55.5 12.5t13.5 47.5q0 28 -15 38.5t-60 10.5h-75v96h75q37 0 50 9t13 33q0 25 -12 32.5t-47 7.5q-54 0 -100 -22l-48 93q63 36 169 36q78 0 117 -25.5t39 -92.5q0 -45 -10 -70.5t-37 -36.5q35 -12 47 -38t12 -84
q0 -81 -43.5 -115.5t-133.5 -34.5zM276 0l341 741h134l-340 -741h-135zM578 82v91l170 312h124l-167 -306h80l21 104h90v-104h58v-97h-58v-82h-112v82h-206z" />
    <glyph glyph-name="questiondown" unicode="&#xbf;" horiz-adv-x="579" 
d="M284 -9q-125 0 -175.5 46t-50.5 133q0 51 14 87.5t31 55t54 49.5q58 48 70 72t11 90h148q0 -87 -16.5 -125t-84.5 -93q-45 -37 -59.5 -56.5t-14.5 -49.5q0 -35 20.5 -52t78.5 -17q71 0 149 37l66 -127q-100 -50 -241 -50zM226 584v157h172v-157h-172z" />
    <glyph glyph-name="Agrave" unicode="&#xc0;" horiz-adv-x="656" 
d="M13 0l231 746h168l231 -746h-161l-34 115h-245l-33 -115h-157zM240 253h170l-84 281zM287 779l-145 183h168l106 -183h-129z" />
    <glyph glyph-name="Aacute" unicode="&#xc1;" horiz-adv-x="656" 
d="M13 0l231 746h168l231 -746h-161l-34 115h-245l-33 -115h-157zM240 253h170l-84 281zM239 779l106 183h167l-144 -183h-129z" />
    <glyph glyph-name="Acircumflex" unicode="&#xc2;" horiz-adv-x="656" 
d="M13 0l231 746h168l231 -746h-161l-34 115h-245l-33 -115h-157zM240 253h170l-84 281zM149 779l109 183h139l110 -183h-120l-61 79l-60 -79h-117z" />
    <glyph glyph-name="Atilde" unicode="&#xc3;" horiz-adv-x="656" 
d="M13 0l231 746h168l231 -746h-161l-34 115h-245l-33 -115h-157zM240 253h170l-84 281zM211 773l-97 56q56 110 146 110q30 0 68 -21.5t50 -21.5q28 0 63 48l96 -56q-30 -58 -64 -84.5t-81 -26.5q-30 0 -68.5 21t-49.5 21q-31 0 -63 -46z" />
    <glyph glyph-name="Adieresis" unicode="&#xc4;" horiz-adv-x="656" 
d="M13 0l231 746h168l231 -746h-161l-34 115h-245l-33 -115h-157zM240 253h170l-84 281zM163 779v134h134v-134h-134zM359 779v134h133v-134h-133z" />
    <glyph glyph-name="Aring" unicode="&#xc5;" horiz-adv-x="656" 
d="M13 0l220 711q-29 35 -29 98q0 136 123 136q63 0 93.5 -37t30.5 -99q0 -61 -29 -96l221 -713h-161l-34 115h-245l-33 -115h-157zM240 253h170l-84 281zM327 747q49 0 49 62q0 63 -49 63t-49 -63q0 -62 49 -62z" />
    <glyph glyph-name="AE" unicode="&#xc6;" horiz-adv-x="940" 
d="M9 0l354 741h535v-143h-304v-150h290v-140h-290v-168h305v-140h-458v117h-223l-55 -117h-154zM281 251h160v334z" />
    <glyph glyph-name="Ccedilla" unicode="&#xc7;" horiz-adv-x="564" 
d="M288 -243q-64 0 -118 26l32 70q40 -15 75 -15q29 0 39.5 8.5t10.5 29.5q0 24 -15 29.5t-57 3.5l-26 19l14 71q-118 22 -167 115.5t-49 255.5q0 90 13.5 155t46.5 118.5t95 80t154 26.5q119 0 201 -54l-84 -130q-49 31 -122 31q-80 0 -112.5 -49t-32.5 -182
q0 -132 32.5 -183t113.5 -51q72 0 131 38l77 -121q-92 -58 -216 -58l-6 -33q51 3 78.5 -17t27.5 -76q0 -58 -31 -83t-105 -25z" />
    <glyph glyph-name="Egrave" unicode="&#xc8;" horiz-adv-x="557" 
d="M58 0v741h457v-143h-304v-148h291v-142h-291v-168h305v-140h-458zM238 779l-145 183h168l106 -183h-129z" />
    <glyph glyph-name="Eacute" unicode="&#xc9;" horiz-adv-x="557" 
d="M190 779l106 183h167l-144 -183h-129zM58 0v741h457v-143h-304v-148h291v-142h-291v-168h305v-140h-458z" />
    <glyph glyph-name="Ecircumflex" unicode="&#xca;" horiz-adv-x="557" 
d="M100 779l109 183h139l110 -183h-120l-61 79l-60 -79h-117zM58 0v741h457v-143h-304v-148h291v-142h-291v-168h305v-140h-458z" />
    <glyph glyph-name="Edieresis" unicode="&#xcb;" horiz-adv-x="557" 
d="M114 779v134h134v-134h-134zM310 779v134h133v-134h-133zM58 0v741h457v-143h-304v-148h291v-142h-291v-168h305v-140h-458z" />
    <glyph glyph-name="Igrave" unicode="&#xcc;" horiz-adv-x="290" 
d="M89 780l-129 183h167l91 -183h-129zM67 0v741h156v-741h-156z" />
    <glyph glyph-name="Iacute" unicode="&#xcd;" horiz-adv-x="290" 
d="M71 780l92 183h166l-130 -183h-128zM67 0v741h156v-741h-156z" />
    <glyph glyph-name="Icircumflex" unicode="&#xce;" horiz-adv-x="290" 
d="M-33 780l108 183h139l109 -183h-120l-60 79l-59 -79h-117zM67 0v741h156v-741h-156z" />
    <glyph glyph-name="Idieresis" unicode="&#xcf;" horiz-adv-x="290" 
d="M67 0v741h156v-741h-156zM-19 779v134h134v-134h-134zM177 779v134h133v-134h-133z" />
    <glyph glyph-name="Eth" unicode="&#xd0;" horiz-adv-x="642" 
d="M0 310v127h58v304h231q179 0 252.5 -80.5t73.5 -289.5q0 -145 -33 -225.5t-102 -113t-191 -32.5h-231v310h-58zM215 136h88q85 0 119 48t34 186q0 94 -16.5 143.5t-48.5 67t-92 17.5h-84v-161h105v-127h-105v-174z" />
    <glyph glyph-name="Ntilde" unicode="&#xd1;" horiz-adv-x="673" 
d="M58 0v741h166l243 -427v427h149v-741h-144l-265 462v-462h-149zM219 773l-97 56q56 110 146 110q30 0 68 -21.5t50 -21.5q28 0 63 48l96 -56q-30 -58 -64 -84.5t-81 -26.5q-30 0 -68.5 21t-49.5 21q-31 0 -63 -46z" />
    <glyph glyph-name="Ograve" unicode="&#xd2;" 
d="M334 -9q-77 0 -133.5 21t-89.5 54t-52 84.5t-25.5 102t-6.5 117.5t6.5 118t25.5 102.5t52 84.5t89.5 54t133.5 21t133.5 -21t89.5 -54t52 -84.5t25.5 -102.5t6.5 -118t-6.5 -117.5t-25.5 -102t-52 -84.5t-89.5 -54t-133.5 -21zM334 130q39 0 66 11.5t43 30t25 50.5
t11.5 64t2.5 79q0 46 -2.5 78t-11.5 64t-25 50.5t-43 30t-66 11.5t-66 -11.5t-43 -30t-25 -50.5t-11.5 -64t-2.5 -78q0 -47 2.5 -79t11.5 -64t25 -50.5t43 -30t66 -11.5zM293 779l-145 183h168l106 -183h-129z" />
    <glyph glyph-name="Oacute" unicode="&#xd3;" 
d="M245 779l106 183h167l-144 -183h-129zM334 -9q-77 0 -133.5 21t-89.5 54t-52 84.5t-25.5 102t-6.5 117.5t6.5 118t25.5 102.5t52 84.5t89.5 54t133.5 21t133.5 -21t89.5 -54t52 -84.5t25.5 -102.5t6.5 -118t-6.5 -117.5t-25.5 -102t-52 -84.5t-89.5 -54t-133.5 -21z
M334 130q39 0 66 11.5t43 30t25 50.5t11.5 64t2.5 79q0 46 -2.5 78t-11.5 64t-25 50.5t-43 30t-66 11.5t-66 -11.5t-43 -30t-25 -50.5t-11.5 -64t-2.5 -78q0 -47 2.5 -79t11.5 -64t25 -50.5t43 -30t66 -11.5z" />
    <glyph glyph-name="Ocircumflex" unicode="&#xd4;" 
d="M155 779l109 183h139l110 -183h-120l-61 79l-60 -79h-117zM334 -9q-77 0 -133.5 21t-89.5 54t-52 84.5t-25.5 102t-6.5 117.5t6.5 118t25.5 102.5t52 84.5t89.5 54t133.5 21t133.5 -21t89.5 -54t52 -84.5t25.5 -102.5t6.5 -118t-6.5 -117.5t-25.5 -102t-52 -84.5
t-89.5 -54t-133.5 -21zM334 130q39 0 66 11.5t43 30t25 50.5t11.5 64t2.5 79q0 46 -2.5 78t-11.5 64t-25 50.5t-43 30t-66 11.5t-66 -11.5t-43 -30t-25 -50.5t-11.5 -64t-2.5 -78q0 -47 2.5 -79t11.5 -64t25 -50.5t43 -30t66 -11.5z" />
    <glyph glyph-name="Otilde" unicode="&#xd5;" 
d="M334 -9q-77 0 -133.5 21t-89.5 54t-52 84.5t-25.5 102t-6.5 117.5t6.5 118t25.5 102.5t52 84.5t89.5 54t133.5 21t133.5 -21t89.5 -54t52 -84.5t25.5 -102.5t6.5 -118t-6.5 -117.5t-25.5 -102t-52 -84.5t-89.5 -54t-133.5 -21zM334 130q39 0 66 11.5t43 30t25 50.5
t11.5 64t2.5 79q0 46 -2.5 78t-11.5 64t-25 50.5t-43 30t-66 11.5t-66 -11.5t-43 -30t-25 -50.5t-11.5 -64t-2.5 -78q0 -47 2.5 -79t11.5 -64t25 -50.5t43 -30t66 -11.5zM217 773l-97 56q56 110 146 110q30 0 68 -21.5t50 -21.5q28 0 63 48l96 -56q-30 -58 -64 -84.5
t-81 -26.5q-30 0 -68.5 21t-49.5 21q-31 0 -63 -46z" />
    <glyph glyph-name="Odieresis" unicode="&#xd6;" 
d="M169 779v134h134v-134h-134zM365 779v134h133v-134h-133zM334 -9q-77 0 -133.5 21t-89.5 54t-52 84.5t-25.5 102t-6.5 117.5t6.5 118t25.5 102.5t52 84.5t89.5 54t133.5 21t133.5 -21t89.5 -54t52 -84.5t25.5 -102.5t6.5 -118t-6.5 -117.5t-25.5 -102t-52 -84.5
t-89.5 -54t-133.5 -21zM334 130q39 0 66 11.5t43 30t25 50.5t11.5 64t2.5 79q0 46 -2.5 78t-11.5 64t-25 50.5t-43 30t-66 11.5t-66 -11.5t-43 -30t-25 -50.5t-11.5 -64t-2.5 -78q0 -47 2.5 -79t11.5 -64t25 -50.5t43 -30t66 -11.5z" />
    <glyph glyph-name="multiply" unicode="&#xd7;" horiz-adv-x="609" 
d="M180 134l-92 94l124 124l-123 123l92 94l123 -123l124 123l92 -94l-124 -123l123 -122l-91 -95l-124 123z" />
    <glyph glyph-name="Oslash" unicode="&#xd8;" 
d="M78 -41l45 96q-96 85 -96 315q0 67 6.5 118t25.5 102.5t52 84.5t89.5 54t133.5 21q55 0 102 -11l21 44h134l-47 -97q55 -49 76 -128t21 -188q0 -67 -6.5 -117.5t-25.5 -102t-52 -84.5t-89.5 -54t-133.5 -21q-56 0 -103 11l-20 -43h-133zM334 123q40 0 68 12t44.5 31
t25.5 51.5t12 66t3 81.5q0 113 -21 164l-182 -401q25 -5 50 -5zM181 365q0 -111 18 -160l179 397q-26 4 -44 4q-40 0 -68 -12t-44.5 -31t-25.5 -52t-12 -65.5t-3 -80.5z" />
    <glyph glyph-name="Ugrave" unicode="&#xd9;" 
d="M334 -11q-153 0 -217 66.5t-64 204.5v481h157v-466q0 -79 26 -112t100 -33q73 0 100 32.5t27 112.5v466h152v-481q0 -138 -63 -204.5t-218 -66.5zM292 779l-145 183h168l106 -183h-129z" />
    <glyph glyph-name="Uacute" unicode="&#xda;" 
d="M244 779l106 183h167l-144 -183h-129zM334 -11q-153 0 -217 66.5t-64 204.5v481h157v-466q0 -79 26 -112t100 -33q73 0 100 32.5t27 112.5v466h152v-481q0 -138 -63 -204.5t-218 -66.5z" />
    <glyph glyph-name="Ucircumflex" unicode="&#xdb;" 
d="M154 779l109 183h139l110 -183h-120l-61 79l-60 -79h-117zM334 -11q-153 0 -217 66.5t-64 204.5v481h157v-466q0 -79 26 -112t100 -33q73 0 100 32.5t27 112.5v466h152v-481q0 -138 -63 -204.5t-218 -66.5z" />
    <glyph glyph-name="Udieresis" unicode="&#xdc;" 
d="M168 779v134h134v-134h-134zM364 779v134h133v-134h-133zM334 -11q-153 0 -217 66.5t-64 204.5v481h157v-466q0 -79 26 -112t100 -33q73 0 100 32.5t27 112.5v466h152v-481q0 -138 -63 -204.5t-218 -66.5z" />
    <glyph glyph-name="Yacute" unicode="&#xdd;" horiz-adv-x="626" 
d="M234 0v251l-236 490h167l150 -323l151 323h161l-237 -492v-249h-156zM224 779l106 183h167l-144 -183h-129z" />
    <glyph glyph-name="Thorn" unicode="&#xde;" horiz-adv-x="608" 
d="M58 0v741h154v-109h131q139 0 191.5 -60t52.5 -183q0 -124 -53 -187.5t-194 -63.5h-128v-138h-154zM212 270h126q53 0 74.5 26t21.5 86q0 62 -21.5 88t-74.5 26h-126v-226z" />
    <glyph glyph-name="germandbls" unicode="&#xdf;" horiz-adv-x="577" 
d="M48 0v562q0 217 235 217q123 0 176 -46.5t53 -148.5q0 -81 -15 -121.5t-53 -56.5q61 -13 84 -56.5t23 -137.5q0 -121 -56.5 -166.5t-207.5 -45.5h-34v135h34q67 0 90.5 21.5t23.5 77.5q0 54 -23.5 73t-92.5 19h-20v119h20q44 0 63 22t19 74q0 51 -19.5 72t-64.5 21
t-65.5 -21t-20.5 -67v-546h-149z" />
    <glyph glyph-name="agrave" unicode="&#xe0;" horiz-adv-x="545" 
d="M202 -7q-103 0 -141 46t-38 132q0 116 67 160t224 44h20q-2 37 -18 52t-57 15q-82 0 -144 -30l-61 122q87 45 222 45q115 0 159.5 -43t44.5 -150v-211q0 -28 6.5 -36t32.5 -8v-131q-16 -2 -45 -2q-56 0 -80 9t-36 38q-43 -52 -156 -52zM237 117q48 0 72.5 22t24.5 77v52
h-19q-86 0 -117 -16t-31 -64q0 -38 16 -54.5t54 -16.5zM232 620l-145 183h168l106 -183h-129z" />
    <glyph glyph-name="aacute" unicode="&#xe1;" horiz-adv-x="545" 
d="M202 -7q-103 0 -141 46t-38 132q0 116 67 160t224 44h20q-2 37 -18 52t-57 15q-82 0 -144 -30l-61 122q87 45 222 45q115 0 159.5 -43t44.5 -150v-211q0 -28 6.5 -36t32.5 -8v-131q-16 -2 -45 -2q-56 0 -80 9t-36 38q-43 -52 -156 -52zM237 117q48 0 72.5 22t24.5 77v52
h-19q-86 0 -117 -16t-31 -64q0 -38 16 -54.5t54 -16.5zM184 620l106 183h167l-144 -183h-129z" />
    <glyph glyph-name="acircumflex" unicode="&#xe2;" horiz-adv-x="545" 
d="M202 -7q-103 0 -141 46t-38 132q0 116 67 160t224 44h20q-2 37 -18 52t-57 15q-82 0 -144 -30l-61 122q87 45 222 45q115 0 159.5 -43t44.5 -150v-211q0 -28 6.5 -36t32.5 -8v-131q-16 -2 -45 -2q-56 0 -80 9t-36 38q-43 -52 -156 -52zM237 117q48 0 72.5 22t24.5 77v52
h-19q-86 0 -117 -16t-31 -64q0 -38 16 -54.5t54 -16.5zM94 620l109 183h139l110 -183h-120l-61 79l-60 -79h-117z" />
    <glyph glyph-name="atilde" unicode="&#xe3;" horiz-adv-x="545" 
d="M202 -7q-103 0 -141 46t-38 132q0 116 67 160t224 44h20q-2 37 -18 52t-57 15q-82 0 -144 -30l-61 122q87 45 222 45q115 0 159.5 -43t44.5 -150v-211q0 -28 6.5 -36t32.5 -8v-131q-16 -2 -45 -2q-56 0 -80 9t-36 38q-43 -52 -156 -52zM237 117q48 0 72.5 22t24.5 77v52
h-19q-86 0 -117 -16t-31 -64q0 -38 16 -54.5t54 -16.5zM156 614l-97 56q56 110 146 110q29 0 68 -21.5t50 -21.5q28 0 63 48l96 -56q-30 -58 -64 -84.5t-81 -26.5q-30 0 -68.5 21t-49.5 21q-31 0 -63 -46z" />
    <glyph glyph-name="adieresis" unicode="&#xe4;" horiz-adv-x="545" 
d="M202 -7q-103 0 -141 46t-38 132q0 116 67 160t224 44h20q-2 37 -18 52t-57 15q-82 0 -144 -30l-61 122q87 45 222 45q115 0 159.5 -43t44.5 -150v-211q0 -28 6.5 -36t32.5 -8v-131q-16 -2 -45 -2q-56 0 -80 9t-36 38q-43 -52 -156 -52zM237 117q48 0 72.5 22t24.5 77v52
h-19q-86 0 -117 -16t-31 -64q0 -38 16 -54.5t54 -16.5zM108 620v134h134v-134h-134zM304 620v134h133v-134h-133z" />
    <glyph glyph-name="aring" unicode="&#xe5;" horiz-adv-x="545" 
d="M202 -7q-103 0 -141 46t-38 132q0 116 67 160t224 44h20q-2 37 -18 52t-57 15q-82 0 -144 -30l-61 122q87 45 222 45q115 0 159.5 -43t44.5 -150v-211q0 -28 6.5 -36t32.5 -8v-131q-16 -2 -45 -2q-56 0 -80 9t-36 38q-43 -52 -156 -52zM237 117q48 0 72.5 22t24.5 77v52
h-19q-86 0 -117 -16t-31 -64q0 -38 16 -54.5t54 -16.5zM272 611q-123 0 -123 134q0 136 123 136q63 0 93.5 -37t30.5 -99q0 -61 -30.5 -97.5t-93.5 -36.5zM272 683q49 0 49 62q0 63 -49 63t-49 -63q0 -62 49 -62z" />
    <glyph glyph-name="ae" unicode="&#xe6;" horiz-adv-x="821" 
d="M573 -7q-127 0 -180 69q-48 -69 -191 -69q-103 0 -141 46t-38 132q0 116 67 160t224 44h20q-2 37 -18 52t-57 15q-82 0 -144 -30l-61 122q87 45 222 45q110 0 151 -45q56 43 149 43q66 0 109.5 -17.5t64.5 -49.5t31.5 -77t10 -99.5t-0.5 -117.5h-313q5 -52 26.5 -73
t76.5 -21q77 0 149 33l57 -115q-88 -47 -214 -47zM237 117q48 0 72.5 22t24.5 77v52h-19q-86 0 -117 -16t-31 -64q0 -38 16 -54.5t54 -16.5zM573 445q-53 0 -73 -26t-23 -86h180q-1 64 -15.5 88t-68.5 24z" />
    <glyph glyph-name="ccedilla" unicode="&#xe7;" horiz-adv-x="448" 
d="M230 -243q-64 0 -118 26l32 70q40 -15 75 -15q29 0 39.5 8.5t10.5 29.5q0 24 -15 29.5t-57 3.5l-26 19l14 72q-90 19 -124.5 89t-34.5 196q0 73 10.5 123t37 90t76 59.5t123.5 19.5q94 0 157 -30l-66 -131q-38 20 -83 20q-57 0 -79 -35t-22 -121q0 -88 22 -122.5
t82 -34.5q41 0 95 23l57 -115q-81 -39 -170 -39l-6 -34q51 3 78.5 -17t27.5 -76q0 -58 -31 -83t-105 -25z" />
    <glyph glyph-name="egrave" unicode="&#xe8;" horiz-adv-x="515" 
d="M267 -7q-73 0 -121.5 19t-74 59t-35.5 90t-10 124q0 146 54 219t191 73q65 0 108.5 -17.5t64.5 -49t31.5 -76.5t10 -100t-0.5 -118h-313q5 -52 26.5 -73t76.5 -21q79 0 149 33l57 -115q-88 -47 -214 -47zM267 445q-53 0 -73 -26t-23 -86h181q-2 64 -16.5 88t-68.5 24z
M216 620l-145 183h168l106 -183h-129z" />
    <glyph glyph-name="eacute" unicode="&#xe9;" horiz-adv-x="515" 
d="M168 620l106 183h167l-144 -183h-129zM267 -7q-73 0 -121.5 19t-74 59t-35.5 90t-10 124q0 146 54 219t191 73q65 0 108.5 -17.5t64.5 -49t31.5 -76.5t10 -100t-0.5 -118h-313q5 -52 26.5 -73t76.5 -21q79 0 149 33l57 -115q-88 -47 -214 -47zM267 445q-53 0 -73 -26
t-23 -86h181q-2 64 -16.5 88t-68.5 24z" />
    <glyph glyph-name="ecircumflex" unicode="&#xea;" horiz-adv-x="515" 
d="M78 620l109 183h139l110 -183h-120l-61 79l-60 -79h-117zM267 -7q-73 0 -121.5 19t-74 59t-35.5 90t-10 124q0 146 54 219t191 73q65 0 108.5 -17.5t64.5 -49t31.5 -76.5t10 -100t-0.5 -118h-313q5 -52 26.5 -73t76.5 -21q79 0 149 33l57 -115q-88 -47 -214 -47zM267 445
q-53 0 -73 -26t-23 -86h181q-2 64 -16.5 88t-68.5 24z" />
    <glyph glyph-name="edieresis" unicode="&#xeb;" horiz-adv-x="515" 
d="M92 620v134h134v-134h-134zM288 620v134h133v-134h-133zM267 -7q-73 0 -121.5 19t-74 59t-35.5 90t-10 124q0 146 54 219t191 73q65 0 108.5 -17.5t64.5 -49t31.5 -76.5t10 -100t-0.5 -118h-313q5 -52 26.5 -73t76.5 -21q79 0 149 33l57 -115q-88 -47 -214 -47zM267 445
q-53 0 -73 -26t-23 -86h181q-2 64 -16.5 88t-68.5 24z" />
    <glyph glyph-name="igrave" unicode="&#xec;" horiz-adv-x="256" 
d="M74 620l-111 183h166l74 -183h-129zM52 0v567h151v-567h-151z" />
    <glyph glyph-name="iacute" unicode="&#xed;" horiz-adv-x="256" 
d="M53 620l72 183h167l-111 -183h-128zM52 0v567h151v-567h-151z" />
    <glyph glyph-name="icircumflex" unicode="&#xee;" horiz-adv-x="256" 
d="M-39 620l97 183h139l97 -183h-120l-48 79l-48 -79h-117zM52 0v567h151v-567h-151z" />
    <glyph glyph-name="idieresis" unicode="&#xef;" horiz-adv-x="256" 
d="M-16 620v134h119v-134h-119zM152 620v134h119v-134h-119zM52 0v567h151v-567h-151z" />
    <glyph glyph-name="eth" unicode="&#xf0;" horiz-adv-x="553" 
d="M235 561v91l53 11q-21 31 -44 56l117 67q39 -31 74 -92l96 20v-91l-58 -12q53 -141 53 -299q0 -63 -5 -107.5t-20.5 -87.5t-42.5 -69t-72.5 -41.5t-109.5 -15.5q-133 0 -191.5 71t-58.5 207q0 260 210 260q88 0 127 -41q-10 37 -33 93zM276 123q60 0 78.5 36t18.5 107
t-18.5 106t-78.5 35t-78.5 -35t-18.5 -106t18.5 -107t78.5 -36z" />
    <glyph glyph-name="ntilde" unicode="&#xf1;" horiz-adv-x="562" 
d="M48 0v558l121 10l11 -45q43 54 172 54q50 0 84 -15t51.5 -44.5t24 -64t6.5 -82.5v-371h-152v333q0 55 -13.5 77.5t-59.5 22.5q-57 0 -75.5 -27.5t-18.5 -93.5v-312h-151zM163 614l-97 56q56 110 146 110q30 0 68 -21.5t50 -21.5q28 0 63 48l96 -56q-30 -58 -64 -84.5
t-81 -26.5q-30 0 -68.5 21t-49.5 21q-31 0 -63 -46z" />
    <glyph glyph-name="ograve" unicode="&#xf2;" horiz-adv-x="551" 
d="M276 -9q-141 0 -195.5 74t-54.5 220q0 145 54 218.5t196 73.5q74 0 124 -20.5t76.5 -61t37.5 -90.5t11 -120q0 -73 -11 -123.5t-37.5 -91t-76.5 -60t-124 -19.5zM276 123q60 0 78.5 37t18.5 120q0 84 -18 120t-79 36t-79 -36t-18 -120q0 -83 18.5 -120t78.5 -37zM234 620
l-145 183h168l106 -183h-129z" />
    <glyph glyph-name="oacute" unicode="&#xf3;" horiz-adv-x="551" 
d="M186 620l106 183h167l-144 -183h-129zM276 -9q-141 0 -195.5 74t-54.5 220q0 145 54 218.5t196 73.5q74 0 124 -20.5t76.5 -61t37.5 -90.5t11 -120q0 -73 -11 -123.5t-37.5 -91t-76.5 -60t-124 -19.5zM276 123q60 0 78.5 37t18.5 120q0 84 -18 120t-79 36t-79 -36
t-18 -120q0 -83 18.5 -120t78.5 -37z" />
    <glyph glyph-name="ocircumflex" unicode="&#xf4;" horiz-adv-x="551" 
d="M96 620l109 183h139l110 -183h-120l-61 79l-60 -79h-117zM276 -9q-141 0 -195.5 74t-54.5 220q0 145 54 218.5t196 73.5q74 0 124 -20.5t76.5 -61t37.5 -90.5t11 -120q0 -73 -11 -123.5t-37.5 -91t-76.5 -60t-124 -19.5zM276 123q60 0 78.5 37t18.5 120q0 84 -18 120
t-79 36t-79 -36t-18 -120q0 -83 18.5 -120t78.5 -37z" />
    <glyph glyph-name="otilde" unicode="&#xf5;" horiz-adv-x="551" 
d="M276 -9q-141 0 -195.5 74t-54.5 220q0 145 54 218.5t196 73.5q74 0 124 -20.5t76.5 -61t37.5 -90.5t11 -120q0 -73 -11 -123.5t-37.5 -91t-76.5 -60t-124 -19.5zM276 123q60 0 78.5 37t18.5 120q0 84 -18 120t-79 36t-79 -36t-18 -120q0 -83 18.5 -120t78.5 -37zM158 614
l-97 56q56 110 146 110q30 0 68.5 -21.5t49.5 -21.5q28 0 63 48l96 -56q-30 -58 -64 -84.5t-81 -26.5q-30 0 -68.5 21t-49.5 21q-31 0 -63 -46z" />
    <glyph glyph-name="odieresis" unicode="&#xf6;" horiz-adv-x="551" 
d="M110 620v134h134v-134h-134zM306 620v134h133v-134h-133zM276 -9q-141 0 -195.5 74t-54.5 220q0 145 54 218.5t196 73.5q74 0 124 -20.5t76.5 -61t37.5 -90.5t11 -120q0 -73 -11 -123.5t-37.5 -91t-76.5 -60t-124 -19.5zM276 123q60 0 78.5 37t18.5 120q0 84 -18 120
t-79 36t-79 -36t-18 -120q0 -83 18.5 -120t78.5 -37z" />
    <glyph glyph-name="divide" unicode="&#xf7;" horiz-adv-x="609" 
d="M229 94v130h150v-130h-150zM75 283v139h459v-139h-459zM229 480v130h150v-130h-150z" />
    <glyph glyph-name="oslash" unicode="&#xf8;" horiz-adv-x="551" 
d="M46 -44l49 93q-69 68 -69 236q0 145 54 218.5t196 73.5q50 0 91 -11l24 44h121l-52 -95q65 -66 65 -230q0 -73 -11 -123.5t-37.5 -91t-76.5 -60t-124 -19.5q-42 0 -87 9l-24 -44h-119zM173 280q0 -59 7 -87l126 245q-14 3 -30 3q-62 0 -82.5 -38t-20.5 -123zM276 119
q63 0 83 38t20 123q0 56 -6 84l-126 -242q12 -3 29 -3z" />
    <glyph glyph-name="ugrave" unicode="&#xf9;" horiz-adv-x="552" 
d="M276 -8q-134 0 -183 54t-49 186v335h152v-327q0 -67 13.5 -90.5t68.5 -23.5q53 0 67 24t14 91v326h149v-335q0 -133 -47.5 -186.5t-184.5 -53.5zM235 620l-145 183h168l106 -183h-129z" />
    <glyph glyph-name="uacute" unicode="&#xfa;" horiz-adv-x="552" 
d="M187 620l106 183h167l-144 -183h-129zM276 -8q-134 0 -183 54t-49 186v335h152v-327q0 -67 13.5 -90.5t68.5 -23.5q53 0 67 24t14 91v326h149v-335q0 -133 -47.5 -186.5t-184.5 -53.5z" />
    <glyph glyph-name="ucircumflex" unicode="&#xfb;" horiz-adv-x="552" 
d="M97 620l109 183h139l110 -183h-120l-61 79l-60 -79h-117zM276 -8q-134 0 -183 54t-49 186v335h152v-327q0 -67 13.5 -90.5t68.5 -23.5q53 0 67 24t14 91v326h149v-335q0 -133 -47.5 -186.5t-184.5 -53.5z" />
    <glyph glyph-name="udieresis" unicode="&#xfc;" horiz-adv-x="552" 
d="M111 620v134h134v-134h-134zM307 620v134h133v-134h-133zM276 -8q-134 0 -183 54t-49 186v335h152v-327q0 -67 13.5 -90.5t68.5 -23.5q53 0 67 24t14 91v326h149v-335q0 -133 -47.5 -186.5t-184.5 -53.5z" />
    <glyph glyph-name="yacute" unicode="&#xfd;" horiz-adv-x="498" 
d="M68 -158v121h64q19 0 27 5.5t12 18.5l3 13l-173 567h155l96 -348l95 348h149l-187 -611q-21 -69 -60.5 -91.5t-117.5 -22.5h-63zM160 620l106 183h167l-144 -183h-129z" />
    <glyph glyph-name="thorn" unicode="&#xfe;" horiz-adv-x="568" 
d="M48 -158v927h150v-246q35 54 154 54q49 0 84.5 -16t55.5 -41.5t31.5 -65.5t15 -78.5t3.5 -90.5q0 -66 -7.5 -113.5t-27 -90.5t-60 -65.5t-101.5 -22.5q-106 0 -147 44v-195h-151zM300 124q53 0 71 35t18 119q0 86 -17 122t-72 36q-62 0 -81.5 -37t-19.5 -121t19 -119
t82 -35z" />
    <glyph glyph-name="ydieresis" unicode="&#xff;" horiz-adv-x="498" 
d="M68 -158v121h64q19 0 27 5.5t12 18.5l3 13l-173 567h155l96 -348l95 348h149l-187 -611q-21 -69 -60.5 -91.5t-117.5 -22.5h-63zM84 620v134h134v-134h-134zM280 620v134h133v-134h-133z" />
    <glyph glyph-name="Amacron" unicode="&#x100;" horiz-adv-x="656" 
d="M13 0l231 746h168l231 -746h-161l-34 115h-245l-33 -115h-157zM240 253h170l-84 281zM147 779v125h360v-125h-360z" />
    <glyph glyph-name="amacron" unicode="&#x101;" horiz-adv-x="545" 
d="M202 -7q-103 0 -141 46t-38 132q0 116 67 160t224 44h20q-2 37 -18 52t-57 15q-82 0 -144 -30l-61 122q87 45 222 45q115 0 159.5 -43t44.5 -150v-211q0 -28 6.5 -36t32.5 -8v-131q-16 -2 -45 -2q-56 0 -80 9t-36 38q-43 -52 -156 -52zM237 117q48 0 72.5 22t24.5 77v52
h-19q-86 0 -117 -16t-31 -64q0 -38 16 -54.5t54 -16.5zM92 620v125h360v-125h-360z" />
    <glyph glyph-name="Abreve" unicode="&#x102;" horiz-adv-x="656" 
d="M13 0l231 746h168l231 -746h-161l-34 115h-245l-33 -115h-157zM240 253h170l-84 281zM327 773q-96 0 -133.5 41t-50.5 136l108 16q8 -46 23 -62.5t53 -16.5t53.5 16.5t22.5 62.5l109 -15q-14 -97 -51.5 -137.5t-133.5 -40.5z" />
    <glyph glyph-name="abreve" unicode="&#x103;" horiz-adv-x="545" 
d="M202 -7q-103 0 -141 46t-38 132q0 116 67 160t224 44h20q-2 37 -18 52t-57 15q-82 0 -144 -30l-61 122q87 45 222 45q115 0 159.5 -43t44.5 -150v-211q0 -28 6.5 -36t32.5 -8v-131q-16 -2 -45 -2q-56 0 -80 9t-36 38q-43 -52 -156 -52zM237 117q48 0 72.5 22t24.5 77v52
h-19q-86 0 -117 -16t-31 -64q0 -38 16 -54.5t54 -16.5zM272 614q-96 0 -133.5 41t-50.5 136l108 16q8 -46 23 -62.5t53 -16.5t53.5 16.5t22.5 62.5l109 -15q-14 -97 -51.5 -137.5t-133.5 -40.5z" />
    <glyph glyph-name="Aogonek" unicode="&#x104;" horiz-adv-x="656" 
d="M13 0l231 746h168l231 -746h-68q-66 -62 -66 -107q0 -42 49 -42h30v-85h-43q-74 0 -105.5 21.5t-31.5 81.5q0 73 73 133l-33 113h-245l-33 -115h-157zM240 253h170l-84 281z" />
    <glyph glyph-name="aogonek" unicode="&#x105;" horiz-adv-x="545" 
d="M202 -7q-103 0 -141 46t-38 132q0 116 67 160t224 44h20q-2 37 -18 52t-57 15q-82 0 -144 -30l-61 122q87 45 222 45q115 0 159.5 -43t44.5 -150v-211q0 -28 6.5 -36t32.5 -8v-131q-47 -35 -68.5 -58t-21.5 -49q0 -42 50 -42h29v-85h-43q-74 0 -105.5 21.5t-31.5 81.5
q0 45 27 79t61 53q-43 7 -58 44q-43 -52 -156 -52zM237 117q48 0 72.5 22t24.5 77v52h-19q-86 0 -117 -16t-31 -64q0 -38 16 -54.5t54 -16.5z" />
    <glyph glyph-name="Cacute" unicode="&#x106;" horiz-adv-x="564" 
d="M193 779l106 183h167l-144 -183h-129zM324 -9q-164 0 -230.5 96t-66.5 283q0 90 13.5 155t46.5 118.5t95 80t154 26.5q119 0 201 -54l-84 -130q-49 31 -122 31q-80 0 -112.5 -49t-32.5 -182q0 -132 32.5 -183t113.5 -51q72 0 131 38l77 -121q-92 -58 -216 -58z" />
    <glyph glyph-name="cacute" unicode="&#x107;" horiz-adv-x="448" 
d="M135 620l106 183h167l-144 -183h-129zM264 -8q-136 0 -187 72t-51 221q0 73 10.5 123t37 90t76 59.5t123.5 19.5q94 0 157 -30l-66 -131q-38 20 -83 20q-57 0 -79 -35t-22 -121q0 -88 22 -122.5t82 -34.5q41 0 95 23l57 -115q-81 -39 -172 -39z" />
    <glyph glyph-name="Ccircumflex" unicode="&#x108;" horiz-adv-x="564" 
d="M114 779l109 183h139l110 -183h-120l-61 79l-60 -79h-117zM324 -9q-164 0 -230.5 96t-66.5 283q0 90 13.5 155t46.5 118.5t95 80t154 26.5q119 0 201 -54l-84 -130q-49 31 -122 31q-80 0 -112.5 -49t-32.5 -182q0 -132 32.5 -183t113.5 -51q72 0 131 38l77 -121
q-92 -58 -216 -58z" />
    <glyph glyph-name="ccircumflex" unicode="&#x109;" horiz-adv-x="448" 
d="M58 620l109 183h139l110 -183h-120l-61 79l-60 -79h-117zM264 -8q-136 0 -187 72t-51 221q0 73 10.5 123t37 90t76 59.5t123.5 19.5q94 0 157 -30l-66 -131q-38 20 -83 20q-57 0 -79 -35t-22 -121q0 -88 22 -122.5t82 -34.5q41 0 95 23l57 -115q-81 -39 -172 -39z" />
    <glyph glyph-name="Cdotaccent" unicode="&#x10a;" horiz-adv-x="564" 
d="M324 -9q-164 0 -230.5 96t-66.5 283q0 90 13.5 155t46.5 118.5t95 80t154 26.5q119 0 201 -54l-84 -130q-49 31 -122 31q-80 0 -112.5 -49t-32.5 -182q0 -132 32.5 -183t113.5 -51q72 0 131 38l77 -121q-92 -58 -216 -58zM219 779v137h152v-137h-152z" />
    <glyph glyph-name="cdotaccent" unicode="&#x10b;" horiz-adv-x="448" 
d="M264 -8q-136 0 -187 72t-51 221q0 73 10.5 123t37 90t76 59.5t123.5 19.5q94 0 157 -30l-66 -131q-38 20 -83 20q-57 0 -79 -35t-22 -121q0 -88 22 -122.5t82 -34.5q41 0 95 23l57 -115q-81 -39 -172 -39zM163 620v137h152v-137h-152z" />
    <glyph glyph-name="Ccaron" unicode="&#x10c;" horiz-adv-x="564" 
d="M212 779l-109 183h120l60 -79l60 79h118l-110 -183h-139zM324 -9q-164 0 -230.5 96t-66.5 283q0 90 13.5 155t46.5 118.5t95 80t154 26.5q119 0 201 -54l-84 -130q-49 31 -122 31q-80 0 -112.5 -49t-32.5 -182q0 -132 32.5 -183t113.5 -51q72 0 131 38l77 -121
q-92 -58 -216 -58z" />
    <glyph glyph-name="ccaron" unicode="&#x10d;" horiz-adv-x="448" 
d="M154 620l-109 183h120l60 -79l60 79h118l-110 -183h-139zM264 -8q-136 0 -187 72t-51 221q0 73 10.5 123t37 90t76 59.5t123.5 19.5q94 0 157 -30l-66 -131q-38 20 -83 20q-57 0 -79 -35t-22 -121q0 -88 22 -122.5t82 -34.5q41 0 95 23l57 -115q-81 -39 -172 -39z" />
    <glyph glyph-name="Dcaron" unicode="&#x10e;" horiz-adv-x="642" 
d="M251 779l-109 183h120l60 -79l60 79h118l-110 -183h-139zM58 0v741h231q179 0 252.5 -80.5t73.5 -289.5q0 -145 -33 -225.5t-102 -113t-191 -32.5h-231zM215 136h88q85 0 119 48t34 186q0 94 -16.5 143.5t-48.5 67t-92 17.5h-84v-462z" />
    <glyph glyph-name="dcaron" unicode="&#x10f;" horiz-adv-x="693" 
d="M599 518l-31 56q39 23 48.5 33t9.5 32h-58v130h133v-118q0 -50 -18.5 -76.5t-83.5 -56.5zM216 -7q-60 0 -99.5 22.5t-58 67t-25 90.5t-6.5 113q0 43 3 76.5t10 68.5t21 60t35.5 45.5t53.5 30.5t73 10q107 0 146 -43v235h152v-764l-121 -10l-12 52q-46 -54 -172 -54z
M268 124q62 0 81.5 37t19.5 122q0 83 -19 118.5t-82 35.5q-54 0 -71.5 -35.5t-17.5 -118.5q0 -86 17 -122.5t72 -36.5z" />
    <glyph glyph-name="Dcroat" unicode="&#x110;" horiz-adv-x="642" 
d="M0 310v127h58v304h231q179 0 252.5 -80.5t73.5 -289.5q0 -145 -33 -225.5t-102 -113t-191 -32.5h-231v310h-58zM215 136h88q85 0 119 48t34 186q0 94 -16.5 143.5t-48.5 67t-92 17.5h-84v-161h105v-127h-105v-174z" />
    <glyph glyph-name="dcroat" unicode="&#x111;" horiz-adv-x="568" 
d="M269 603v116h100v50h152v-50h47v-116h-47v-598l-121 -10l-12 52q-46 -54 -172 -54q-60 0 -99.5 22.5t-58 67t-25 90.5t-6.5 113q0 43 3 76.5t10 68.5t21 60t35.5 45.5t53.5 30.5t73 10q107 0 146 -43v69h-100zM268 124q62 0 81.5 37t19.5 122q0 83 -19 118.5t-82 35.5
q-54 0 -71.5 -35.5t-17.5 -118.5q0 -86 17 -122.5t72 -36.5z" />
    <glyph glyph-name="Emacron" unicode="&#x112;" horiz-adv-x="557" 
d="M58 0v741h457v-143h-304v-148h291v-142h-291v-168h305v-140h-458zM98 779v125h360v-125h-360z" />
    <glyph glyph-name="emacron" unicode="&#x113;" horiz-adv-x="515" 
d="M267 -7q-73 0 -121.5 19t-74 59t-35.5 90t-10 124q0 146 54 219t191 73q65 0 108.5 -17.5t64.5 -49t31.5 -76.5t10 -100t-0.5 -118h-313q5 -52 26.5 -73t76.5 -21q79 0 149 33l57 -115q-88 -47 -214 -47zM267 445q-53 0 -73 -26t-23 -86h181q-2 64 -16.5 88t-68.5 24z
M76 620v125h360v-125h-360z" />
    <glyph glyph-name="Ebreve" unicode="&#x114;" horiz-adv-x="557" 
d="M58 0v741h457v-143h-304v-148h291v-142h-291v-168h305v-140h-458zM285 773q-96 0 -133.5 41t-50.5 136l108 16q8 -46 23 -62.5t53 -16.5t53.5 16.5t22.5 62.5l109 -15q-14 -97 -51.5 -137.5t-133.5 -40.5z" />
    <glyph glyph-name="ebreve" unicode="&#x115;" horiz-adv-x="515" 
d="M267 -7q-73 0 -121.5 19t-74 59t-35.5 90t-10 124q0 146 54 219t191 73q65 0 108.5 -17.5t64.5 -49t31.5 -76.5t10 -100t-0.5 -118h-313q5 -52 26.5 -73t76.5 -21q79 0 149 33l57 -115q-88 -47 -214 -47zM267 445q-53 0 -73 -26t-23 -86h181q-2 64 -16.5 88t-68.5 24z
M257 614q-96 0 -133.5 41t-50.5 136l108 16q8 -46 23 -62.5t53 -16.5t53.5 16.5t22.5 62.5l109 -15q-14 -97 -51.5 -137.5t-133.5 -40.5z" />
    <glyph glyph-name="Edotaccent" unicode="&#x116;" horiz-adv-x="557" 
d="M58 0v741h457v-143h-304v-148h291v-142h-291v-168h305v-140h-458zM203 779v137h152v-137h-152z" />
    <glyph glyph-name="edotaccent" unicode="&#x117;" horiz-adv-x="515" 
d="M267 -7q-73 0 -121.5 19t-74 59t-35.5 90t-10 124q0 146 54 219t191 73q65 0 108.5 -17.5t64.5 -49t31.5 -76.5t10 -100t-0.5 -118h-313q5 -52 26.5 -73t76.5 -21q79 0 149 33l57 -115q-88 -47 -214 -47zM267 445q-53 0 -73 -26t-23 -86h181q-2 64 -16.5 88t-68.5 24z
M181 620v137h152v-137h-152z" />
    <glyph glyph-name="Eogonek" unicode="&#x118;" horiz-adv-x="557" 
d="M58 0v741h457v-143h-304v-148h291v-142h-291v-168h305v-140h-29q-66 -63 -66 -107q0 -42 50 -42h29v-85h-43q-74 0 -105.5 21.5t-31.5 81.5q0 75 71 131h-333z" />
    <glyph glyph-name="eogonek" unicode="&#x119;" horiz-adv-x="515" 
d="M267 -7q-73 0 -121.5 19t-74 59t-35.5 90t-10 124q0 146 54 219t191 73q65 0 108.5 -17.5t64.5 -49t31.5 -76.5t10 -100t-0.5 -118h-313q5 -52 26.5 -73t76.5 -21q79 0 149 33l57 -115q-23 -13 -64 -27q-81 -68 -81 -120q0 -42 50 -42h29v-85h-43q-74 0 -105.5 21.5
t-31.5 81.5q0 69 64 125q-11 -1 -32 -1zM267 445q-53 0 -73 -26t-23 -86h181q-2 64 -16.5 88t-68.5 24z" />
    <glyph glyph-name="Ecaron" unicode="&#x11a;" horiz-adv-x="557" 
d="M209 779l-109 183h120l60 -79l60 79h118l-110 -183h-139zM58 0v741h457v-143h-304v-148h291v-142h-291v-168h305v-140h-458z" />
    <glyph glyph-name="ecaron" unicode="&#x11b;" horiz-adv-x="515" 
d="M187 620l-109 183h120l60 -79l60 79h118l-110 -183h-139zM267 -7q-73 0 -121.5 19t-74 59t-35.5 90t-10 124q0 146 54 219t191 73q65 0 108.5 -17.5t64.5 -49t31.5 -76.5t10 -100t-0.5 -118h-313q5 -52 26.5 -73t76.5 -21q79 0 149 33l57 -115q-88 -47 -214 -47zM267 445
q-53 0 -73 -26t-23 -86h181q-2 64 -16.5 88t-68.5 24z" />
    <glyph glyph-name="Gcircumflex" unicode="&#x11c;" horiz-adv-x="616" 
d="M129 779l109 183h139l110 -183h-120l-61 79l-60 -79h-117zM315 -9q-84 0 -141.5 25.5t-89 77t-44.5 117.5t-13 159q0 202 70.5 291t244.5 89q125 0 215 -57l-83 -130q-64 36 -139 36q-39 0 -65 -9t-46.5 -33.5t-30 -71.5t-9.5 -119q0 -140 31.5 -191t113.5 -51
q68 0 90 36t22 127v18h-144v135h293v-125q0 -184 -56 -254t-219 -70z" />
    <glyph glyph-name="gcircumflex" unicode="&#x11d;" horiz-adv-x="547" 
d="M85 630l109 183h139l110 -183h-120l-61 79l-60 -79h-117zM264 200q-42 0 -61 3q-1 -5 -1 -15q0 -18 14 -24t59 -6q146 0 196 -31.5t50 -116.5q0 -97 -61.5 -137.5t-194.5 -40.5q-138 0 -196.5 28t-58.5 107q0 106 96 129q-30 26 -30 78q0 38 20 67q-59 43 -59 143
q0 101 57 147.5t170 46.5q18 0 29 -1l223 46v-117h-77q53 -35 53 -122q0 -99 -59 -141.5t-169 -42.5zM263 -63q64 0 84.5 14.5t20.5 48.5q0 29 -19.5 39.5t-84.5 10.5q-59 0 -81.5 -13t-22.5 -43t22.5 -43.5t80.5 -13.5zM264 308q43 0 61.5 18t18.5 55q0 36 -18.5 54
t-61.5 18q-79 0 -79 -72q0 -73 79 -73z" />
    <glyph glyph-name="Gbreve" unicode="&#x11e;" horiz-adv-x="616" 
d="M315 -9q-84 0 -141.5 25.5t-89 77t-44.5 117.5t-13 159q0 202 70.5 291t244.5 89q125 0 215 -57l-83 -130q-64 36 -139 36q-39 0 -65 -9t-46.5 -33.5t-30 -71.5t-9.5 -119q0 -140 31.5 -191t113.5 -51q68 0 90 36t22 127v18h-144v135h293v-125q0 -184 -56 -254t-219 -70z
M307 773q-96 0 -133.5 41t-50.5 136l108 16q8 -46 23 -62.5t53 -16.5t53.5 16.5t22.5 62.5l109 -15q-14 -97 -51.5 -137.5t-133.5 -40.5z" />
    <glyph glyph-name="gbreve" unicode="&#x11f;" horiz-adv-x="547" 
d="M264 200q-42 0 -61 3q-1 -5 -1 -15q0 -18 14 -24t59 -6q146 0 196 -31.5t50 -116.5q0 -97 -61.5 -137.5t-194.5 -40.5q-138 0 -196.5 28t-58.5 107q0 106 96 129q-30 26 -30 78q0 38 20 67q-59 43 -59 143q0 101 57 147.5t170 46.5q18 0 29 -1l223 46v-117h-77
q53 -35 53 -122q0 -99 -59 -141.5t-169 -42.5zM263 -63q64 0 84.5 14.5t20.5 48.5q0 29 -19.5 39.5t-84.5 10.5q-59 0 -81.5 -13t-22.5 -43t22.5 -43.5t80.5 -13.5zM264 308q43 0 61.5 18t18.5 55q0 36 -18.5 54t-61.5 18q-79 0 -79 -72q0 -73 79 -73zM272 614
q-96 0 -133.5 41t-50.5 136l108 16q8 -46 23 -62.5t53 -16.5t53.5 16.5t22.5 62.5l109 -15q-14 -97 -51.5 -137.5t-133.5 -40.5z" />
    <glyph glyph-name="Gdotaccent" unicode="&#x120;" horiz-adv-x="616" 
d="M315 -9q-84 0 -141.5 25.5t-89 77t-44.5 117.5t-13 159q0 202 70.5 291t244.5 89q125 0 215 -57l-83 -130q-64 36 -139 36q-39 0 -65 -9t-46.5 -33.5t-30 -71.5t-9.5 -119q0 -140 31.5 -191t113.5 -51q68 0 90 36t22 127v18h-144v135h293v-125q0 -184 -56 -254t-219 -70z
M236 779v137h152v-137h-152z" />
    <glyph glyph-name="gdotaccent" unicode="&#x121;" horiz-adv-x="547" 
d="M264 200q-42 0 -61 3q-1 -5 -1 -15q0 -18 14 -24t59 -6q146 0 196 -31.5t50 -116.5q0 -97 -61.5 -137.5t-194.5 -40.5q-138 0 -196.5 28t-58.5 107q0 106 96 129q-30 26 -30 78q0 38 20 67q-59 43 -59 143q0 101 57 147.5t170 46.5q18 0 29 -1l223 46v-117h-77
q53 -35 53 -122q0 -99 -59 -141.5t-169 -42.5zM263 -63q64 0 84.5 14.5t20.5 48.5q0 29 -19.5 39.5t-84.5 10.5q-59 0 -81.5 -13t-22.5 -43t22.5 -43.5t80.5 -13.5zM264 308q43 0 61.5 18t18.5 55q0 36 -18.5 54t-61.5 18q-79 0 -79 -72q0 -73 79 -73zM190 620v137h152v-137
h-152z" />
    <glyph glyph-name="Gcommaaccent" unicode="&#x122;" horiz-adv-x="616" 
d="M272 -287l-32 57q39 22 49 32t10 33h-58v130h132v-118q0 -51 -18 -77t-83 -57zM315 -9q-84 0 -141.5 25.5t-89 77t-44.5 117.5t-13 159q0 202 70.5 291t244.5 89q125 0 215 -57l-83 -130q-64 36 -139 36q-39 0 -65 -9t-46.5 -33.5t-30 -71.5t-9.5 -119q0 -140 31.5 -191
t113.5 -51q68 0 90 36t22 127v18h-144v135h293v-125q0 -184 -56 -254t-219 -70z" />
    <glyph glyph-name="gcommaaccent" unicode="&#x123;" horiz-adv-x="547" 
d="M207 620v117q0 51 18.5 77t83.5 57l31 -56q-39 -23 -48.5 -33t-9.5 -32h57v-130h-132zM264 200q-42 0 -61 3q-1 -5 -1 -15q0 -18 14 -24t59 -6q146 0 196 -31.5t50 -116.5q0 -97 -61.5 -137.5t-194.5 -40.5q-138 0 -196.5 28t-58.5 107q0 106 96 129q-30 26 -30 78
q0 38 20 67q-59 43 -59 143q0 101 57 147.5t170 46.5q18 0 29 -1l223 46v-117h-77q53 -35 53 -122q0 -99 -59 -141.5t-169 -42.5zM263 -63q64 0 84.5 14.5t20.5 48.5q0 29 -19.5 39.5t-84.5 10.5q-59 0 -81.5 -13t-22.5 -43t22.5 -43.5t80.5 -13.5zM264 308q43 0 61.5 18
t18.5 55q0 36 -18.5 54t-61.5 18q-79 0 -79 -72q0 -73 79 -73z" />
    <glyph glyph-name="Hcircumflex" unicode="&#x124;" horiz-adv-x="677" 
d="M159 779l109 183h139l110 -183h-120l-61 79l-60 -79h-117zM58 0v741h157v-281h246v281h158v-741h-158v305h-246v-305h-157z" />
    <glyph glyph-name="hcircumflex" unicode="&#x125;" horiz-adv-x="562" 
d="M-55 779l109 183h139l110 -183h-120l-61 79l-60 -79h-117zM48 0v769h150v-242q39 50 154 50q50 0 84 -15t51.5 -44.5t24 -64t6.5 -82.5v-371h-152v333q0 55 -13.5 77.5t-59.5 22.5q-57 0 -75.5 -26.5t-18.5 -94.5v-312h-151z" />
    <glyph glyph-name="Hbar" unicode="&#x126;" horiz-adv-x="677" 
d="M18 531v130h40v80h157v-80h246v80h158v-80h40v-130h-40v-531h-158v305h-246v-305h-157v531h-40zM215 460h246v71h-246v-71z" />
    <glyph glyph-name="hbar" unicode="&#x127;" horiz-adv-x="562" 
d="M48 0v603h-48v116h48v50h150v-50h101v-116h-101v-76q39 50 154 50q50 0 84 -15t51.5 -44.5t24 -64t6.5 -82.5v-371h-152v333q0 55 -13.5 77.5t-59.5 22.5q-57 0 -75.5 -26.5t-18.5 -94.5v-312h-151z" />
    <glyph glyph-name="Itilde" unicode="&#x128;" horiz-adv-x="290" 
d="M67 0v741h156v-741h-156zM31 773l-97 56q56 110 146 110q30 0 68 -21.5t50 -21.5q28 0 63 48l96 -56q-30 -58 -64 -84.5t-81 -26.5q-30 0 -68.5 21t-49.5 21q-31 0 -63 -46z" />
    <glyph glyph-name="itilde" unicode="&#x129;" horiz-adv-x="256" 
d="M52 0v567h151v-567h-151zM14 614l-97 56q56 110 146 110q29 0 68 -21.5t50 -21.5q28 0 63 48l96 -56q-30 -58 -64 -84.5t-81 -26.5q-30 0 -68.5 21t-49.5 21q-31 0 -63 -46z" />
    <glyph glyph-name="Imacron" unicode="&#x12a;" horiz-adv-x="290" 
d="M67 0v741h156v-741h-156zM-35 779v125h360v-125h-360z" />
    <glyph glyph-name="imacron" unicode="&#x12b;" horiz-adv-x="256" 
d="M52 0v567h151v-567h-151zM-53 620v125h360v-125h-360z" />
    <glyph glyph-name="Ibreve" unicode="&#x12c;" horiz-adv-x="290" 
d="M67 0v741h156v-741h-156zM145 773q-96 0 -133.5 41t-50.5 136l108 16q8 -46 23 -62.5t53 -16.5t53.5 16.5t22.5 62.5l109 -15q-14 -97 -51.5 -137.5t-133.5 -40.5z" />
    <glyph glyph-name="ibreve" unicode="&#x12d;" horiz-adv-x="256" 
d="M52 0v567h151v-567h-151zM127 614q-96 0 -133.5 41t-50.5 136l108 16q8 -46 23 -62.5t53 -16.5t53.5 16.5t22.5 62.5l109 -15q-14 -97 -51.5 -137.5t-133.5 -40.5z" />
    <glyph glyph-name="Iogonek" unicode="&#x12e;" horiz-adv-x="290" 
d="M67 0v741h156v-741q-46 -34 -67.5 -57.5t-21.5 -49.5q0 -42 50 -42h29v-85h-43q-74 0 -105.5 21.5t-31.5 81.5q0 47 27.5 80t61.5 51h-55z" />
    <glyph glyph-name="iogonek" unicode="&#x12f;" horiz-adv-x="256" 
d="M52 0v567h151v-567q-46 -34 -67 -57.5t-21 -49.5q0 -42 49 -42h30v-85h-43q-74 0 -105.5 21.5t-31.5 81.5q0 47 27 80t61 51h-50zM52 618v137h152v-137h-152z" />
    <glyph glyph-name="Idotaccent" unicode="&#x130;" horiz-adv-x="290" 
d="M67 0v741h156v-741h-156zM70 779v137h152v-137h-152z" />
    <glyph glyph-name="dotlessi" unicode="&#x131;" horiz-adv-x="256" 
d="M52 0v567h151v-567h-151z" />
    <glyph glyph-name="IJ" unicode="&#x132;" horiz-adv-x="680" 
d="M67 0v741h156v-741h-156zM315 0v140h71q47 0 65 17t18 56v528h157v-538q0 -113 -55 -158t-159 -45h-97z" />
    <glyph glyph-name="ij" unicode="&#x133;" horiz-adv-x="511" 
d="M52 0v567h151v-567h-151zM52 618v137h152v-137h-152zM256 -158v121h11q27 0 33.5 11.5t6.5 47.5v545h151v-550q0 -99 -37.5 -137t-141.5 -38h-23zM307 618v137h152v-137h-152z" />
    <glyph glyph-name="Jcircumflex" unicode="&#x134;" horiz-adv-x="391" 
d="M79 779l109 183h139l110 -183h-120l-61 79l-60 -79h-117zM26 0v140h71q47 0 65 17t18 56v528h157v-538q0 -113 -55 -158t-159 -45h-97z" />
    <glyph glyph-name="jcircumflex" unicode="&#x135;" horiz-adv-x="256" 
d="M1 -158v121h11q27 0 33.5 11.5t6.5 47.5v545h151v-550q0 -99 -37.5 -137t-141.5 -38h-23zM-51 620l109 183h139l110 -183h-120l-61 79l-60 -79h-117z" />
    <glyph glyph-name="Kcommaaccent" unicode="&#x136;" horiz-adv-x="639" 
d="M284 -287l-32 57q39 22 49 32t10 33h-58v130h132v-118q0 -51 -18 -77t-83 -57zM58 0v741h155v-305l226 305h180l-223 -288l227 -453h-173l-159 321l-78 -107v-214h-155z" />
    <glyph glyph-name="kcommaaccent" unicode="&#x137;" horiz-adv-x="523" 
d="M226 -287l-32 57q39 22 49 32t10 33h-58v130h132v-118q0 -51 -18 -77t-83 -57zM48 0v769h148v-430l154 228h159l-167 -237l177 -330h-161l-115 207l-47 -70v-137h-148z" />
    <glyph glyph-name="kgreenlandic" unicode="&#x138;" horiz-adv-x="523" 
d="M48 0v567h148v-234l156 234h157l-167 -237l177 -330h-161l-115 207l-47 -70v-137h-148z" />
    <glyph glyph-name="Lacute" unicode="&#x139;" horiz-adv-x="513" 
d="M75 779l106 183h167l-144 -183h-129zM58 0v741h157v-601h288v-140h-445z" />
    <glyph glyph-name="lacute" unicode="&#x13a;" horiz-adv-x="293" 
d="M59 815l106 183h167l-144 -183h-129zM262 0q-12 -2 -55 -2q-82 0 -118.5 34.5t-36.5 128.5v608h151v-587q0 -33 9.5 -42t49.5 -9v-131z" />
    <glyph glyph-name="Lcommaaccent" unicode="&#x13b;" horiz-adv-x="513" 
d="M221 -287l-32 57q39 22 49 32t10 33h-58v130h132v-118q0 -51 -18 -77t-83 -57zM58 0v741h157v-601h288v-140h-445z" />
    <glyph glyph-name="lcommaaccent" unicode="&#x13c;" horiz-adv-x="293" 
d="M111 -287l-32 57q39 22 49 32t10 33h-58v130h132v-118q0 -51 -18 -77t-83 -57zM262 0q-12 -2 -55 -2q-82 0 -118.5 34.5t-36.5 128.5v608h151v-587q0 -33 9.5 -42t49.5 -9v-131z" />
    <glyph glyph-name="Lcaron" unicode="&#x13d;" horiz-adv-x="513" 
d="M301 518l-31 56q39 23 48.5 33t9.5 32h-58v130h133v-118q0 -50 -18.5 -76.5t-83.5 -56.5zM58 0v741h157v-601h288v-140h-445z" />
    <glyph glyph-name="lcaron" unicode="&#x13e;" horiz-adv-x="377" 
d="M282 518l-31 56q39 23 48.5 33t9.5 32h-58v130h133v-118q0 -50 -18.5 -76.5t-83.5 -56.5zM262 0q-12 -2 -55 -2q-82 0 -118.5 34.5t-36.5 128.5v608h151v-587q0 -33 9.5 -42t49.5 -9v-131z" />
    <glyph glyph-name="Ldot" unicode="&#x13f;" horiz-adv-x="574" 
d="M58 0v741h157v-601h288v-140h-445zM339 293v183h172v-183h-172z" />
    <glyph glyph-name="ldot" unicode="&#x140;" horiz-adv-x="505" 
d="M262 0q-12 -2 -55 -2q-82 0 -118.5 34.5t-36.5 128.5v608h151v-587q0 -33 9.5 -42t49.5 -9v-131zM294 278v183h172v-183h-172z" />
    <glyph glyph-name="Lslash" unicode="&#x141;" horiz-adv-x="513" 
d="M0 271v127l58 33v310h157v-221l104 60v-126l-104 -60v-254h288v-140h-445v304z" />
    <glyph glyph-name="lslash" unicode="&#x142;" horiz-adv-x="353" 
d="M20 340v132l72 41v256h151v-168l79 46v-132l-79 -46v-287q0 -33 9.5 -42t49.5 -9v-131q-12 -2 -55 -2q-82 0 -118.5 34.5t-36.5 128.5v220z" />
    <glyph glyph-name="Nacute" unicode="&#x143;" horiz-adv-x="673" 
d="M247 779l106 183h167l-144 -183h-129zM58 0v741h166l243 -427v427h149v-741h-144l-265 462v-462h-149z" />
    <glyph glyph-name="nacute" unicode="&#x144;" horiz-adv-x="562" 
d="M191 620l106 183h167l-144 -183h-129zM48 0v558l121 10l11 -45q43 54 172 54q50 0 84 -15t51.5 -44.5t24 -64t6.5 -82.5v-371h-152v333q0 55 -13.5 77.5t-59.5 22.5q-57 0 -75.5 -27.5t-18.5 -93.5v-312h-151z" />
    <glyph glyph-name="Ncommaaccent" unicode="&#x145;" horiz-adv-x="673" 
d="M301 -287l-32 57q39 22 49 32t10 33h-58v130h132v-118q0 -51 -18 -77t-83 -57zM58 0v741h166l243 -427v427h149v-741h-144l-265 462v-462h-149z" />
    <glyph glyph-name="ncommaaccent" unicode="&#x146;" horiz-adv-x="562" 
d="M245 -287l-32 57q39 22 49 32t10 33h-58v130h132v-118q0 -51 -18 -77t-83 -57zM48 0v558l121 10l11 -45q43 54 172 54q50 0 84 -15t51.5 -44.5t24 -64t6.5 -82.5v-371h-152v333q0 55 -13.5 77.5t-59.5 22.5q-57 0 -75.5 -27.5t-18.5 -93.5v-312h-151z" />
    <glyph glyph-name="Ncaron" unicode="&#x147;" horiz-adv-x="673" 
d="M266 779l-109 183h120l60 -79l60 79h118l-110 -183h-139zM58 0v741h166l243 -427v427h149v-741h-144l-265 462v-462h-149z" />
    <glyph glyph-name="ncaron" unicode="&#x148;" horiz-adv-x="562" 
d="M210 620l-109 183h120l60 -79l60 79h118l-110 -183h-139zM48 0v558l121 10l11 -45q43 54 172 54q50 0 84 -15t51.5 -44.5t24 -64t6.5 -82.5v-371h-152v333q0 55 -13.5 77.5t-59.5 22.5q-57 0 -75.5 -27.5t-18.5 -93.5v-312h-151z" />
    <glyph glyph-name="napostrophe" unicode="&#x149;" horiz-adv-x="773" 
d="M89 397l-42 76q47 26 60 40.5t13 44.5h-76v183h172v-156q0 -78 -23 -113.5t-104 -74.5zM259 0v558l121 10l11 -45q43 54 172 54q50 0 84 -15t51.5 -44.5t24 -64t6.5 -82.5v-371h-152v333q0 55 -13.5 77.5t-59.5 22.5q-57 0 -75.5 -27.5t-18.5 -93.5v-312h-151z" />
    <glyph glyph-name="Eng" unicode="&#x14a;" horiz-adv-x="673" 
d="M304 -190v140h71q47 0 65.5 16t18.5 54v1l-252 441v-462h-149v741h166l243 -427v427h149v-728q0 -113 -55 -158t-159 -45h-98z" />
    <glyph glyph-name="eng" unicode="&#x14b;" horiz-adv-x="562" 
d="M315 -158v121h10q27 0 34 11t7 48v311q0 55 -13.5 77.5t-59.5 22.5q-57 0 -75.5 -27.5t-18.5 -93.5v-312h-151v558l121 10l11 -55q43 64 172 64q50 0 84 -15t51.5 -44.5t24 -64t6.5 -82.5v-354q-1 -100 -38.5 -137.5t-141.5 -37.5h-23z" />
    <glyph glyph-name="Omacron" unicode="&#x14c;" 
d="M153 779v125h360v-125h-360zM334 -9q-77 0 -133.5 21t-89.5 54t-52 84.5t-25.5 102t-6.5 117.5t6.5 118t25.5 102.5t52 84.5t89.5 54t133.5 21t133.5 -21t89.5 -54t52 -84.5t25.5 -102.5t6.5 -118t-6.5 -117.5t-25.5 -102t-52 -84.5t-89.5 -54t-133.5 -21zM334 130
q39 0 66 11.5t43 30t25 50.5t11.5 64t2.5 79q0 46 -2.5 78t-11.5 64t-25 50.5t-43 30t-66 11.5t-66 -11.5t-43 -30t-25 -50.5t-11.5 -64t-2.5 -78q0 -47 2.5 -79t11.5 -64t25 -50.5t43 -30t66 -11.5z" />
    <glyph glyph-name="omacron" unicode="&#x14d;" horiz-adv-x="551" 
d="M94 620v125h360v-125h-360zM276 -9q-141 0 -195.5 74t-54.5 220q0 145 54 218.5t196 73.5q74 0 124 -20.5t76.5 -61t37.5 -90.5t11 -120q0 -73 -11 -123.5t-37.5 -91t-76.5 -60t-124 -19.5zM276 123q60 0 78.5 37t18.5 120q0 84 -18 120t-79 36t-79 -36t-18 -120
q0 -83 18.5 -120t78.5 -37z" />
    <glyph glyph-name="Obreve" unicode="&#x14e;" 
d="M334 -9q-77 0 -133.5 21t-89.5 54t-52 84.5t-25.5 102t-6.5 117.5t6.5 118t25.5 102.5t52 84.5t89.5 54t133.5 21t133.5 -21t89.5 -54t52 -84.5t25.5 -102.5t6.5 -118t-6.5 -117.5t-25.5 -102t-52 -84.5t-89.5 -54t-133.5 -21zM334 130q39 0 66 11.5t43 30t25 50.5
t11.5 64t2.5 79q0 46 -2.5 78t-11.5 64t-25 50.5t-43 30t-66 11.5t-66 -11.5t-43 -30t-25 -50.5t-11.5 -64t-2.5 -78q0 -47 2.5 -79t11.5 -64t25 -50.5t43 -30t66 -11.5zM332 773q-96 0 -133.5 41t-50.5 136l108 16q8 -46 23 -62.5t53 -16.5t53.5 16.5t22.5 62.5l109 -15
q-14 -97 -51.5 -137.5t-133.5 -40.5z" />
    <glyph glyph-name="obreve" unicode="&#x14f;" horiz-adv-x="551" 
d="M276 -9q-141 0 -195.5 74t-54.5 220q0 145 54 218.5t196 73.5q74 0 124 -20.5t76.5 -61t37.5 -90.5t11 -120q0 -73 -11 -123.5t-37.5 -91t-76.5 -60t-124 -19.5zM276 123q60 0 78.5 37t18.5 120q0 84 -18 120t-79 36t-79 -36t-18 -120q0 -83 18.5 -120t78.5 -37zM274 614
q-96 0 -133.5 41t-50.5 136l108 16q8 -46 23 -62.5t53 -16.5t53.5 16.5t22.5 62.5l109 -15q-14 -97 -51.5 -137.5t-133.5 -40.5z" />
    <glyph glyph-name="Ohungarumlaut" unicode="&#x150;" 
d="M159 779l101 183h155l-140 -183h-116zM366 779l101 183h154l-140 -183h-115zM334 -9q-77 0 -133.5 21t-89.5 54t-52 84.5t-25.5 102t-6.5 117.5t6.5 118t25.5 102.5t52 84.5t89.5 54t133.5 21t133.5 -21t89.5 -54t52 -84.5t25.5 -102.5t6.5 -118t-6.5 -117.5t-25.5 -102
t-52 -84.5t-89.5 -54t-133.5 -21zM334 130q39 0 66 11.5t43 30t25 50.5t11.5 64t2.5 79q0 46 -2.5 78t-11.5 64t-25 50.5t-43 30t-66 11.5t-66 -11.5t-43 -30t-25 -50.5t-11.5 -64t-2.5 -78q0 -47 2.5 -79t11.5 -64t25 -50.5t43 -30t66 -11.5z" />
    <glyph glyph-name="ohungarumlaut" unicode="&#x151;" horiz-adv-x="551" 
d="M100 620l101 183h155l-140 -183h-116zM307 620l101 183h154l-140 -183h-115zM276 -9q-141 0 -195.5 74t-54.5 220q0 145 54 218.5t196 73.5q74 0 124 -20.5t76.5 -61t37.5 -90.5t11 -120q0 -73 -11 -123.5t-37.5 -91t-76.5 -60t-124 -19.5zM276 123q60 0 78.5 37
t18.5 120q0 84 -18 120t-79 36t-79 -36t-18 -120q0 -83 18.5 -120t78.5 -37z" />
    <glyph glyph-name="OE" unicode="&#x152;" horiz-adv-x="983" 
d="M499 0v31q-64 -40 -165 -40q-77 0 -133.5 21t-89.5 54t-52 84.5t-25.5 102t-6.5 117.5t6.5 118t25.5 102.5t52 84.5t89.5 54t133.5 21q102 0 165 -41v32h442v-143h-304v-150h290v-140h-290v-168h304v-140h-442zM334 130q39 0 66 11.5t43 30t25 50.5t11.5 64t2.5 79
q0 46 -2.5 78t-11.5 64t-25 50.5t-43 30t-66 11.5t-66 -11.5t-43 -30t-25 -50.5t-11.5 -64t-2.5 -78q0 -47 2.5 -79t11.5 -64t25 -50.5t43 -30t66 -11.5z" />
    <glyph glyph-name="oe" unicode="&#x153;" horiz-adv-x="867" 
d="M276 -9q-141 0 -195.5 74t-54.5 220q0 145 54 218.5t196 73.5q117 0 175 -60q58 60 172 60q65 0 108.5 -18t64.5 -50.5t31.5 -77.5t10 -99.5t-0.5 -115.5h-312q5 -52 26 -73t76 -21q79 0 149 33l57 -115q-86 -47 -214 -47q-115 0 -170 55q-57 -57 -173 -57zM276 123
q60 0 78.5 37t18.5 120q0 84 -18 120t-79 36t-79 -36t-18 -120q0 -83 18.5 -120t78.5 -37zM620 445q-54 0 -73.5 -25.5t-22.5 -86.5h180q-1 33 -3.5 50t-10.5 33.5t-25 22.5t-45 6z" />
    <glyph glyph-name="Racute" unicode="&#x154;" horiz-adv-x="624" 
d="M223 779l106 183h167l-144 -183h-129zM416 0l-106 248h-98v-248h-154v741h283q129 0 186.5 -59.5t57.5 -176.5q0 -181 -124 -235l119 -270h-164zM212 385h125q51 0 73 25t22 84q0 60 -22 84.5t-73 24.5h-125v-218z" />
    <glyph glyph-name="racute" unicode="&#x155;" horiz-adv-x="345" 
d="M84 620l106 183h167l-144 -183h-129zM48 0v558l120 10l13 -53q43 57 158 57v-143q-38 0 -64.5 -8t-41 -19.5t-22 -32t-9.5 -39t-2 -46.5v-284h-152z" />
    <glyph glyph-name="Rcommaaccent" unicode="&#x156;" horiz-adv-x="624" 
d="M277 -287l-32 57q39 22 49 32t10 33h-58v130h132v-118q0 -51 -18 -77t-83 -57zM416 0l-106 248h-98v-248h-154v741h283q129 0 186.5 -59.5t57.5 -176.5q0 -181 -124 -235l119 -270h-164zM212 385h125q51 0 73 25t22 84q0 60 -22 84.5t-73 24.5h-125v-218z" />
    <glyph glyph-name="rcommaaccent" unicode="&#x157;" horiz-adv-x="345" 
d="M89 -287l-32 57q39 22 49 32t10 33h-58v130h132v-118q0 -51 -18 -77t-83 -57zM48 0v558l120 10l13 -53q43 57 158 57v-143q-38 0 -64.5 -8t-41 -19.5t-22 -32t-9.5 -39t-2 -46.5v-284h-152z" />
    <glyph glyph-name="Rcaron" unicode="&#x158;" horiz-adv-x="624" 
d="M242 779l-109 183h120l60 -79l60 79h118l-110 -183h-139zM416 0l-106 248h-98v-248h-154v741h283q129 0 186.5 -59.5t57.5 -176.5q0 -181 -124 -235l119 -270h-164zM212 385h125q51 0 73 25t22 84q0 60 -22 84.5t-73 24.5h-125v-218z" />
    <glyph glyph-name="rcaron" unicode="&#x159;" horiz-adv-x="345" 
d="M103 620l-109 183h120l60 -79l60 79h118l-110 -183h-139zM48 0v558l120 10l13 -53q43 57 158 57v-143q-38 0 -64.5 -8t-41 -19.5t-22 -32t-9.5 -39t-2 -46.5v-284h-152z" />
    <glyph glyph-name="Sacute" unicode="&#x15a;" horiz-adv-x="583" 
d="M202 779l106 183h167l-144 -183h-129zM293 -9q-178 0 -280 67l79 120q84 -53 197 -53q62 0 87.5 19t25.5 57q0 46 -27.5 64t-127.5 49q-106 33 -153.5 81.5t-47.5 136.5q0 108 66 163t190 55q130 0 227 -46l-68 -134q-68 33 -155 33q-56 0 -81.5 -15.5t-25.5 -50.5
q0 -36 23 -52t95 -40q72 -23 112.5 -41.5t71.5 -46t42 -63t11 -90.5q0 -101 -64.5 -157t-196.5 -56z" />
    <glyph glyph-name="sacute" unicode="&#x15b;" horiz-adv-x="454" 
d="M139 620l106 183h167l-144 -183h-129zM231 -7q-143 0 -223 42l58 117q76 -37 165 -37q63 0 63 44q0 24 -19.5 36.5t-90.5 35.5q-57 19 -87.5 37.5t-49 51t-18.5 83.5q0 174 212 174q103 0 176 -30l-58 -125q-58 24 -124 24q-35 0 -48.5 -9.5t-13.5 -30.5q0 -20 19 -32
t79 -32q92 -30 128 -66t36 -115q0 -168 -204 -168z" />
    <glyph glyph-name="Scircumflex" unicode="&#x15c;" horiz-adv-x="583" 
d="M111 779l109 183h139l110 -183h-120l-61 79l-60 -79h-117zM293 -9q-178 0 -280 67l79 120q84 -53 197 -53q62 0 87.5 19t25.5 57q0 46 -27.5 64t-127.5 49q-106 33 -153.5 81.5t-47.5 136.5q0 108 66 163t190 55q130 0 227 -46l-68 -134q-68 33 -155 33
q-56 0 -81.5 -15.5t-25.5 -50.5q0 -36 23 -52t95 -40q72 -23 112.5 -41.5t71.5 -46t42 -63t11 -90.5q0 -101 -64.5 -157t-196.5 -56z" />
    <glyph glyph-name="scircumflex" unicode="&#x15d;" horiz-adv-x="454" 
d="M48 620l109 183h139l110 -183h-120l-61 79l-60 -79h-117zM231 -7q-143 0 -223 42l58 117q76 -37 165 -37q63 0 63 44q0 24 -19.5 36.5t-90.5 35.5q-57 19 -87.5 37.5t-49 51t-18.5 83.5q0 174 212 174q103 0 176 -30l-58 -125q-58 24 -124 24q-35 0 -48.5 -9.5
t-13.5 -30.5q0 -20 19 -32t79 -32q92 -30 128 -66t36 -115q0 -168 -204 -168z" />
    <glyph glyph-name="Scedilla" unicode="&#x15e;" horiz-adv-x="583" 
d="M297 -243q-64 0 -118 26l32 70q40 -15 75 -15q29 0 39.5 8.5t10.5 29.5q0 24 -15 29.5t-57 3.5l-26 19l13 64q-149 7 -238 66l79 120q84 -53 197 -53q62 0 87.5 19t25.5 57q0 46 -27.5 64t-127.5 49q-106 33 -153.5 81.5t-47.5 136.5q0 108 66 163t190 55q130 0 227 -46
l-68 -134q-68 33 -155 33q-56 0 -81.5 -15.5t-25.5 -50.5q0 -36 23 -52t95 -40q72 -23 112.5 -41.5t71.5 -46t42 -63t11 -90.5q0 -93 -54.5 -148t-166.5 -63l-6 -35q51 3 78.5 -17t27.5 -76q0 -58 -31 -83t-105 -25z" />
    <glyph glyph-name="scedilla" unicode="&#x15f;" horiz-adv-x="454" 
d="M234 -243q-64 0 -118 26l32 70q40 -15 75 -15q29 0 39.5 8.5t10.5 29.5q0 24 -15 29.5t-57 3.5l-26 19l13 66q-116 7 -180 41l58 117q76 -37 165 -37q63 0 63 44q0 24 -19.5 36.5t-90.5 35.5q-57 19 -87.5 37.5t-49 51t-18.5 83.5q0 174 212 174q103 0 176 -30l-58 -125
q-58 24 -124 24q-35 0 -48.5 -9.5t-13.5 -30.5q0 -20 19 -32t79 -32q92 -30 128 -66t36 -115q0 -152 -165 -166l-6 -37q51 3 78.5 -17t27.5 -76q0 -58 -31 -83t-105 -25z" />
    <glyph glyph-name="Scaron" unicode="&#x160;" horiz-adv-x="583" 
d="M221 779l-109 183h120l60 -79l60 79h118l-110 -183h-139zM293 -9q-178 0 -280 67l79 120q84 -53 197 -53q62 0 87.5 19t25.5 57q0 46 -27.5 64t-127.5 49q-106 33 -153.5 81.5t-47.5 136.5q0 108 66 163t190 55q130 0 227 -46l-68 -134q-68 33 -155 33q-56 0 -81.5 -15.5
t-25.5 -50.5q0 -36 23 -52t95 -40q72 -23 112.5 -41.5t71.5 -46t42 -63t11 -90.5q0 -101 -64.5 -157t-196.5 -56z" />
    <glyph glyph-name="scaron" unicode="&#x161;" horiz-adv-x="454" 
d="M158 620l-109 183h120l60 -79l60 79h118l-110 -183h-139zM231 -7q-143 0 -223 42l58 117q76 -37 165 -37q63 0 63 44q0 24 -19.5 36.5t-90.5 35.5q-57 19 -87.5 37.5t-49 51t-18.5 83.5q0 174 212 174q103 0 176 -30l-58 -125q-58 24 -124 24q-35 0 -48.5 -9.5
t-13.5 -30.5q0 -20 19 -32t79 -32q92 -30 128 -66t36 -115q0 -168 -204 -168z" />
    <glyph glyph-name="Tcommaaccent" unicode="&#x162;" horiz-adv-x="579" 
d="M254 -287l-32 57q39 22 49 32t10 33h-58v130h132v-118q0 -51 -18 -77t-83 -57zM210 0v598h-199v143h557v-143h-200v-598h-158z" />
    <glyph glyph-name="Tcommaaccent" unicode="&#x21a;" horiz-adv-x="579" 
d="M254 -287l-32 57q39 22 49 32t10 33h-58v130h132v-118q0 -51 -18 -77t-83 -57zM210 0v598h-199v143h557v-143h-200v-598h-158z" />
    <glyph glyph-name="tcommaaccent" unicode="&#x163;" horiz-adv-x="415" 
d="M151 -287l-32 57q39 22 49 32t10 33h-58v130h132v-118q0 -51 -18 -77t-83 -57zM12 435v132h96l23 127l120 27v-154h129v-132h-129v-244q0 -33 11.5 -46.5t52.5 -13.5h65v-131q-65 -5 -84 -5q-112 0 -153.5 40t-41.5 138v262h-89z" />
    <glyph glyph-name="tcommaaccent" unicode="&#x21b;" horiz-adv-x="415" 
d="M151 -287l-32 57q39 22 49 32t10 33h-58v130h132v-118q0 -51 -18 -77t-83 -57zM12 435v132h96l23 127l120 27v-154h129v-132h-129v-244q0 -33 11.5 -46.5t52.5 -13.5h65v-131q-65 -5 -84 -5q-112 0 -153.5 40t-41.5 138v262h-89z" />
    <glyph glyph-name="Tcaron" unicode="&#x164;" horiz-adv-x="579" 
d="M219 779l-109 183h120l60 -79l60 79h118l-110 -183h-139zM210 0v598h-199v143h557v-143h-200v-598h-158z" />
    <glyph glyph-name="tcaron" unicode="&#x165;" horiz-adv-x="415" 
d="M327 621l-31 56q39 23 48.5 33t9.5 32h-58v130h133v-117q0 -51 -18.5 -77t-83.5 -57zM12 435v132h96l23 127l120 27v-154h129v-132h-129v-244q0 -33 11.5 -46.5t52.5 -13.5h65v-131q-65 -5 -84 -5q-112 0 -153.5 40t-41.5 138v262h-89z" />
    <glyph glyph-name="Tbar" unicode="&#x166;" horiz-adv-x="579" 
d="M102 257v129h108v212h-199v143h557v-143h-200v-212h109v-129h-109v-257h-158v257h-108z" />
    <glyph glyph-name="tbar" unicode="&#x167;" horiz-adv-x="415" 
d="M12 435v132h96l23 127l120 27v-154h129v-132h-129v-73h131v-132h-131v-39q0 -33 11.5 -46.5t52.5 -13.5h65v-131q-65 -5 -84 -5q-112 0 -153.5 40t-41.5 138v57h-89v132h89v73h-89z" />
    <glyph glyph-name="Utilde" unicode="&#x168;" 
d="M334 -11q-153 0 -217 66.5t-64 204.5v481h157v-466q0 -79 26 -112t100 -33q73 0 100 32.5t27 112.5v466h152v-481q0 -138 -63 -204.5t-218 -66.5zM222 773l-97 56q56 110 146 110q29 0 68 -21.5t50 -21.5q28 0 63 48l96 -56q-30 -58 -64 -84.5t-81 -26.5q-30 0 -68.5 21
t-49.5 21q-31 0 -63 -46z" />
    <glyph glyph-name="utilde" unicode="&#x169;" horiz-adv-x="552" 
d="M276 -8q-134 0 -183 54t-49 186v335h152v-327q0 -67 13.5 -90.5t68.5 -23.5q53 0 67 24t14 91v326h149v-335q0 -133 -47.5 -186.5t-184.5 -53.5zM163 614l-97 56q56 110 146 110q30 0 68 -21.5t50 -21.5q28 0 63 48l96 -56q-30 -58 -64 -84.5t-81 -26.5q-30 0 -68.5 21
t-49.5 21q-31 0 -63 -46z" />
    <glyph glyph-name="Umacron" unicode="&#x16a;" 
d="M334 -11q-153 0 -217 66.5t-64 204.5v481h157v-466q0 -79 26 -112t100 -33q73 0 100 32.5t27 112.5v466h152v-481q0 -138 -63 -204.5t-218 -66.5zM152 779v125h360v-125h-360z" />
    <glyph glyph-name="umacron" unicode="&#x16b;" horiz-adv-x="552" 
d="M276 -8q-134 0 -183 54t-49 186v335h152v-327q0 -67 13.5 -90.5t68.5 -23.5q53 0 67 24t14 91v326h149v-335q0 -133 -47.5 -186.5t-184.5 -53.5zM95 620v125h360v-125h-360z" />
    <glyph glyph-name="Ubreve" unicode="&#x16c;" 
d="M334 -11q-153 0 -217 66.5t-64 204.5v481h157v-466q0 -79 26 -112t100 -33q73 0 100 32.5t27 112.5v466h152v-481q0 -138 -63 -204.5t-218 -66.5zM336 773q-96 0 -133.5 41t-50.5 136l108 16q8 -46 23 -62.5t53 -16.5t53.5 16.5t22.5 62.5l109 -15q-14 -97 -51.5 -137.5
t-133.5 -40.5z" />
    <glyph glyph-name="ubreve" unicode="&#x16d;" horiz-adv-x="552" 
d="M276 -8q-134 0 -183 54t-49 186v335h152v-327q0 -67 13.5 -90.5t68.5 -23.5q53 0 67 24t14 91v326h149v-335q0 -133 -47.5 -186.5t-184.5 -53.5zM275 614q-96 0 -133.5 41t-50.5 136l108 16q8 -46 23 -62.5t53 -16.5t53.5 16.5t22.5 62.5l109 -15q-14 -97 -51.5 -137.5
t-133.5 -40.5z" />
    <glyph glyph-name="Uring" unicode="&#x16e;" 
d="M332 770q-123 0 -123 134q0 136 123 136q63 0 93.5 -37t30.5 -99q0 -61 -30.5 -97.5t-93.5 -36.5zM332 842q49 0 49 62q0 63 -49 63t-49 -63q0 -62 49 -62zM334 -11q-153 0 -217 66.5t-64 204.5v481h157v-466q0 -79 26 -112t100 -33q73 0 100 32.5t27 112.5v466h152v-481
q0 -138 -63 -204.5t-218 -66.5z" />
    <glyph glyph-name="uring" unicode="&#x16f;" horiz-adv-x="552" 
d="M275 611q-123 0 -123 134q0 136 123 136q63 0 93.5 -37t30.5 -99q0 -61 -30.5 -97.5t-93.5 -36.5zM275 683q49 0 49 62q0 63 -49 63t-49 -63q0 -62 49 -62zM276 -8q-134 0 -183 54t-49 186v335h152v-327q0 -67 13.5 -90.5t68.5 -23.5q53 0 67 24t14 91v326h149v-335
q0 -133 -47.5 -186.5t-184.5 -53.5z" />
    <glyph glyph-name="Uhungarumlaut" unicode="&#x170;" 
d="M334 -11q-153 0 -217 66.5t-64 204.5v481h157v-466q0 -79 26 -112t100 -33q73 0 100 32.5t27 112.5v466h152v-481q0 -138 -63 -204.5t-218 -66.5zM158 779l101 183h155l-140 -183h-116zM365 779l101 183h154l-140 -183h-115z" />
    <glyph glyph-name="uhungarumlaut" unicode="&#x171;" horiz-adv-x="552" 
d="M276 -8q-134 0 -183 54t-49 186v335h152v-327q0 -67 13.5 -90.5t68.5 -23.5q53 0 67 24t14 91v326h149v-335q0 -133 -47.5 -186.5t-184.5 -53.5zM101 620l101 183h155l-140 -183h-116zM308 620l101 183h154l-140 -183h-115z" />
    <glyph glyph-name="Uogonek" unicode="&#x172;" 
d="M453 -234q-74 0 -105.5 21.5t-31.5 81.5q0 67 61 122q-28 -2 -43 -2q-153 0 -217 66.5t-64 204.5v481h157v-466q0 -79 26 -112t100 -33q73 0 100 32.5t27 112.5v466h152v-481q0 -88 -22.5 -143t-77.5 -93q-42 -28 -70 -65.5t-28 -65.5q0 -42 50 -42h29v-85h-43z" />
    <glyph glyph-name="uogonek" unicode="&#x173;" horiz-adv-x="552" 
d="M377 -234q-74 0 -105.5 21.5t-31.5 81.5q0 67 63 124q-3 -1 -27 -1q-134 0 -183 54t-49 186v335h152v-327q0 -67 13.5 -90.5t68.5 -23.5q53 0 67 24t14 91v326h149v-335q0 -84 -15.5 -131t-57.5 -78q-40 -28 -66.5 -65t-26.5 -65q0 -22 11 -32t38 -10h29v-85h-43z" />
    <glyph glyph-name="Wcircumflex" unicode="&#x174;" horiz-adv-x="899" 
d="M271 779l109 183h139l110 -183h-120l-61 79l-60 -79h-117zM187 -5l-166 746h160l96 -450l107 450h139l108 -450l96 450h150l-165 -746h-154l-108 442l-108 -442h-155z" />
    <glyph glyph-name="wcircumflex" unicode="&#x175;" horiz-adv-x="761" 
d="M205 620l109 183h139l110 -183h-120l-61 79l-60 -79h-117zM148 -5l-138 572h153l69 -332l83 332h139l82 -326l70 326h145l-137 -572h-148l-85 318l-83 -318h-150z" />
    <glyph glyph-name="Ycircumflex" unicode="&#x176;" horiz-adv-x="626" 
d="M234 0v251l-236 490h167l150 -323l151 323h161l-237 -492v-249h-156zM136 779l109 183h139l110 -183h-120l-61 79l-60 -79h-117z" />
    <glyph glyph-name="ycircumflex" unicode="&#x177;" horiz-adv-x="498" 
d="M68 -158v121h64q19 0 27 5.5t12 18.5l3 13l-173 567h155l96 -348l95 348h149l-187 -611q-21 -69 -60.5 -91.5t-117.5 -22.5h-63zM73 620l109 183h139l110 -183h-120l-61 79l-60 -79h-117z" />
    <glyph glyph-name="Ydieresis" unicode="&#x178;" horiz-adv-x="626" 
d="M234 0v251l-236 490h167l150 -323l151 323h161l-237 -492v-249h-156zM148 779v134h134v-134h-134zM344 779v134h133v-134h-133z" />
    <glyph glyph-name="Zacute" unicode="&#x179;" horiz-adv-x="564" 
d="M193 779l106 183h167l-144 -183h-129zM23 0v118l320 480h-306v143h493v-129l-317 -472h326v-140h-516z" />
    <glyph glyph-name="zacute" unicode="&#x17a;" horiz-adv-x="447" 
d="M135 620l106 183h167l-144 -183h-129zM12 0v100l226 335h-212v132h402v-102l-228 -342h237v-123h-425z" />
    <glyph glyph-name="Zdotaccent" unicode="&#x17b;" horiz-adv-x="564" 
d="M23 0v118l320 480h-306v143h493v-129l-317 -472h326v-140h-516zM206 779v137h152v-137h-152z" />
    <glyph glyph-name="zdotaccent" unicode="&#x17c;" horiz-adv-x="447" 
d="M12 0v100l226 335h-212v132h402v-102l-228 -342h237v-123h-425zM148 620v137h152v-137h-152z" />
    <glyph glyph-name="Zcaron" unicode="&#x17d;" horiz-adv-x="564" 
d="M212 779l-109 183h120l60 -79l60 79h118l-110 -183h-139zM23 0v118l320 480h-306v143h493v-129l-317 -472h326v-140h-516z" />
    <glyph glyph-name="zcaron" unicode="&#x17e;" horiz-adv-x="447" 
d="M154 620l-109 183h120l60 -79l60 79h118l-110 -183h-139zM12 0v100l226 335h-212v132h402v-102l-228 -342h237v-123h-425z" />
    <glyph glyph-name="longs" unicode="&#x17f;" horiz-adv-x="390" 
d="M104 0v613q0 174 198 174q48 0 82 -2v-130h-67q-38 0 -50 -13.5t-12 -45.5v-596h-151z" />
    <glyph glyph-name="florin" unicode="&#x192;" horiz-adv-x="507" 
d="M65 329v131h99l16 107q7 45 18 74.5t32.5 53.5t58 35t90.5 11q30 0 64 -2v-131h-50q-33 0 -44.5 -13t-16.5 -45l-14 -90h125v-131h-146l-75 -487h-151l73 487h-79z" />
    <glyph glyph-name="Ohorn" unicode="&#x1a0;" horiz-adv-x="675" 
d="M667 896v-136q0 -42 -20.5 -76t-57.5 -52q52 -85 52 -262q0 -67 -6.5 -117.5t-25.5 -102t-52 -84.5t-89.5 -54t-133.5 -21t-133.5 21t-89.5 54t-52 84.5t-25.5 102t-6.5 117.5t6.5 118t25.5 102.5t52 84.5t89.5 54t133.5 21q125 0 199 -55q43 6 47 53h-57v148h144z
M334 130q39 0 66 11.5t43 30t25 50.5t11.5 64t2.5 79q0 46 -2.5 78t-11.5 64t-25 50.5t-43 30t-66 11.5t-66 -11.5t-43 -30t-25 -50.5t-11.5 -64t-2.5 -78q0 -47 2.5 -79t11.5 -64t25 -50.5t43 -30t66 -11.5z" />
    <glyph glyph-name="ohorn" unicode="&#x1a1;" horiz-adv-x="576" 
d="M568 735v-136q0 -42 -20.5 -76t-56.5 -52q34 -67 34 -186q0 -73 -11 -123.5t-37.5 -91t-76.5 -60t-124 -19.5q-141 0 -195.5 74t-54.5 220q0 145 54 218.5t196 73.5q104 0 162 -42q39 8 43 52h-57v148h144zM276 123q60 0 78.5 37t18.5 120q0 84 -18 120t-79 36t-79 -36
t-18 -120q0 -83 18.5 -120t78.5 -37z" />
    <glyph glyph-name="Uhorn" unicode="&#x1af;" horiz-adv-x="702" 
d="M718 944v-137q0 -49 -27.5 -86.5t-75.5 -50.5v-410q0 -138 -63 -204.5t-218 -66.5q-153 0 -217 66.5t-64 204.5v481h157v-466q0 -79 26 -112t100 -33q73 0 100 32.5t27 112.5v466h112q52 3 56 54h-57v149h144z" />
    <glyph glyph-name="uhorn" unicode="&#x1b0;" horiz-adv-x="599" 
d="M606 769v-137q0 -47 -26 -84t-72 -51v-265q0 -133 -47.5 -186.5t-184.5 -53.5q-134 0 -183 54t-49 186v335h152v-327q0 -67 13.5 -90.5t68.5 -23.5q53 0 67 24t14 91v326h112q45 7 47 53h-56v149h144z" />
    <glyph glyph-name="Aringacute" unicode="&#x1fa;" horiz-adv-x="656" 
d="M239 970l106 183h167l-144 -183h-129zM13 0l220 711q-29 35 -29 98q0 136 123 136q63 0 93.5 -37t30.5 -99q0 -61 -29 -96l221 -713h-161l-34 115h-245l-33 -115h-157zM240 253h170l-84 281zM327 747q49 0 49 62q0 63 -49 63t-49 -63q0 -62 49 -62z" />
    <glyph glyph-name="aringacute" unicode="&#x1fb;" horiz-adv-x="545" 
d="M202 -7q-103 0 -141 46t-38 132q0 116 67 160t224 44h20q-2 37 -18 52t-57 15q-82 0 -144 -30l-61 122q87 45 222 45q115 0 159.5 -43t44.5 -150v-211q0 -28 6.5 -36t32.5 -8v-131q-16 -2 -45 -2q-56 0 -80 9t-36 38q-43 -52 -156 -52zM237 117q48 0 72.5 22t24.5 77v52
h-19q-86 0 -117 -16t-31 -64q0 -38 16 -54.5t54 -16.5zM184 909l106 183h167l-144 -183h-129zM272 611q-123 0 -123 134q0 136 123 136q63 0 93.5 -37t30.5 -99q0 -61 -30.5 -97.5t-93.5 -36.5zM272 683q49 0 49 62q0 63 -49 63t-49 -63q0 -62 49 -62z" />
    <glyph glyph-name="AEacute" unicode="&#x1fc;" horiz-adv-x="940" 
d="M383 779l106 183h167l-144 -183h-129zM9 0l354 741h535v-143h-304v-150h290v-140h-290v-168h305v-140h-458v117h-223l-55 -117h-154zM281 251h160v334z" />
    <glyph glyph-name="aeacute" unicode="&#x1fd;" horiz-adv-x="821" 
d="M314 620l106 183h167l-144 -183h-129zM573 -7q-127 0 -180 69q-48 -69 -191 -69q-103 0 -141 46t-38 132q0 116 67 160t224 44h20q-2 37 -18 52t-57 15q-82 0 -144 -30l-61 122q87 45 222 45q110 0 151 -45q56 43 149 43q66 0 109.5 -17.5t64.5 -49.5t31.5 -77t10 -99.5
t-0.5 -117.5h-313q5 -52 26.5 -73t76.5 -21q77 0 149 33l57 -115q-88 -47 -214 -47zM237 117q48 0 72.5 22t24.5 77v52h-19q-86 0 -117 -16t-31 -64q0 -38 16 -54.5t54 -16.5zM573 445q-53 0 -73 -26t-23 -86h180q-1 64 -15.5 88t-68.5 24z" />
    <glyph glyph-name="Oslashacute" unicode="&#x1fe;" 
d="M78 -41l45 96q-96 85 -96 315q0 67 6.5 118t25.5 102.5t52 84.5t89.5 54t133.5 21q55 0 102 -11l21 44h134l-47 -97q55 -49 76 -128t21 -188q0 -67 -6.5 -117.5t-25.5 -102t-52 -84.5t-89.5 -54t-133.5 -21q-56 0 -103 11l-20 -43h-133zM334 123q40 0 68 12t44.5 31
t25.5 51.5t12 66t3 81.5q0 113 -21 164l-182 -401q25 -5 50 -5zM181 365q0 -111 18 -160l179 397q-26 4 -44 4q-40 0 -68 -12t-44.5 -31t-25.5 -52t-12 -65.5t-3 -80.5zM245 779l106 183h167l-144 -183h-129z" />
    <glyph glyph-name="oslashacute" unicode="&#x1ff;" horiz-adv-x="551" 
d="M46 -44l49 93q-69 68 -69 236q0 145 54 218.5t196 73.5q50 0 91 -11l24 44h121l-52 -95q65 -66 65 -230q0 -73 -11 -123.5t-37.5 -91t-76.5 -60t-124 -19.5q-42 0 -87 9l-24 -44h-119zM173 280q0 -59 7 -87l126 245q-14 3 -30 3q-62 0 -82.5 -38t-20.5 -123zM276 119
q63 0 83 38t20 123q0 56 -6 84l-126 -242q12 -3 29 -3zM186 620l106 183h167l-144 -183h-129z" />
    <glyph glyph-name="Scommaaccent" unicode="&#x218;" horiz-adv-x="583" 
d="M256 -287l-32 57q39 22 49 32t10 33h-58v130h132v-118q0 -51 -18 -77t-83 -57zM293 -9q-178 0 -280 67l79 120q84 -53 197 -53q62 0 87.5 19t25.5 57q0 46 -27.5 64t-127.5 49q-106 33 -153.5 81.5t-47.5 136.5q0 108 66 163t190 55q130 0 227 -46l-68 -134
q-68 33 -155 33q-56 0 -81.5 -15.5t-25.5 -50.5q0 -36 23 -52t95 -40q72 -23 112.5 -41.5t71.5 -46t42 -63t11 -90.5q0 -101 -64.5 -157t-196.5 -56z" />
    <glyph glyph-name="scommaaccent" unicode="&#x219;" horiz-adv-x="454" 
d="M192 -287l-32 57q39 22 49 32t10 33h-58v130h132v-118q0 -51 -18 -77t-83 -57zM231 -7q-143 0 -223 42l58 117q76 -37 165 -37q63 0 63 44q0 24 -19.5 36.5t-90.5 35.5q-57 19 -87.5 37.5t-49 51t-18.5 83.5q0 174 212 174q103 0 176 -30l-58 -125q-58 24 -124 24
q-35 0 -48.5 -9.5t-13.5 -30.5q0 -20 19 -32t79 -32q92 -30 128 -66t36 -115q0 -168 -204 -168z" />
    <glyph glyph-name="circumflex" unicode="&#x2c6;" horiz-adv-x="487" 
d="M65 620l109 183h139l110 -183h-120l-61 79l-60 -79h-117z" />
    <glyph glyph-name="caron" unicode="&#x2c7;" horiz-adv-x="487" 
d="M174 620l-109 183h120l60 -79l60 79h118l-110 -183h-139z" />
    <glyph glyph-name="breve" unicode="&#x2d8;" horiz-adv-x="487" 
d="M243 614q-96 0 -133.5 41t-50.5 136l108 16q8 -46 23 -62.5t53 -16.5t53.5 16.5t22.5 62.5l109 -15q-14 -97 -51.5 -137.5t-133.5 -40.5z" />
    <glyph glyph-name="dotaccent" unicode="&#x2d9;" horiz-adv-x="487" 
d="M168 620v137h152v-137h-152z" />
    <glyph glyph-name="ring" unicode="&#x2da;" horiz-adv-x="487" 
d="M243 611q-123 0 -123 134q0 136 123 136q63 0 93.5 -37t30.5 -99q0 -61 -30.5 -97.5t-93.5 -36.5zM243 683q49 0 49 62q0 63 -49 63t-49 -63q0 -62 49 -62z" />
    <glyph glyph-name="ogonek" unicode="&#x2db;" horiz-adv-x="487" 
d="M271 -234q-74 0 -105.5 21.5t-31.5 81.5q0 53 34.5 93.5t70.5 60.5h89q-93 -75 -93 -130q0 -42 50 -42h29v-85h-43z" />
    <glyph glyph-name="tilde" unicode="&#x2dc;" horiz-adv-x="487" 
d="M127 614l-97 56q56 110 146 110q30 0 68 -21.5t50 -21.5q28 0 63 48l96 -56q-30 -58 -64 -84.5t-81 -26.5q-30 0 -68.5 21t-49.5 21q-31 0 -63 -46z" />
    <glyph glyph-name="hungarumlaut" unicode="&#x2dd;" horiz-adv-x="487" 
d="M69 620l101 183h155l-140 -183h-116zM276 620l101 183h154l-140 -183h-115z" />
    <glyph glyph-name="hookabovecomb" unicode="&#x309;" horiz-adv-x="487" 
d="M207 616q-6 35 5 59.5t47 52.5q32 25 35 33q2 4 2 11q0 27 -42 27q-35 0 -79 -21l-44 85q54 28 130 28q69 0 104.5 -28t35.5 -74q0 -37 -12.5 -58.5t-39.5 -42.5q-26 -21 -36.5 -36t-10.5 -36h-95z" />
    <glyph glyph-name="dotbelowcomb" unicode="&#x323;" horiz-adv-x="557" 
d="M202 -230v137h152v-137h-152z" />
    <glyph glyph-name="commaaccent" unicode="&#x326;" horiz-adv-x="260" 
d="M95 -287l-32 57q39 22 49 32t10 33h-58v130h132v-118q0 -51 -18 -77t-83 -57z" />
    <glyph glyph-name="uni0340" unicode="&#x340;" horiz-adv-x="557" 
d="M277 620l-145 183h168l106 -183h-129z" />
    <glyph glyph-name="uni0341" unicode="&#x341;" horiz-adv-x="557" 
d="M150 620l106 183h167l-144 -183h-129z" />
    <glyph glyph-name="tonos" unicode="&#x384;" horiz-adv-x="557" 
d="M202 620l68 183h144l-91 -183h-121z" />
    <glyph glyph-name="dieresistonos" unicode="&#x385;" horiz-adv-x="557" 
d="M66 620v135h103v-135h-103zM388 620v135h103v-135h-103zM199 620l61 183h121l-83 -183h-99z" />
    <glyph glyph-name="Alphatonos" unicode="&#x386;" horiz-adv-x="694" 
d="M51 0l231 746h168l231 -746h-161l-34 115h-245l-33 -115h-157zM278 253h170l-84 281zM17 562l68 183h144l-91 -183h-121z" />
    <glyph glyph-name="Epsilontonos" unicode="&#x388;" horiz-adv-x="777" 
d="M17 558l68 183h144l-91 -183h-121zM267 0v741h457v-143h-304v-148h291v-142h-291v-168h305v-140h-458z" />
    <glyph glyph-name="Etatonos" unicode="&#x389;" horiz-adv-x="896" 
d="M17 558l68 183h144l-91 -183h-121zM267 0v741h157v-281h246v281h158v-741h-158v305h-246v-305h-157z" />
    <glyph glyph-name="Iotatonos" unicode="&#x38a;" horiz-adv-x="502" 
d="M269 0v741h156v-741h-156zM17 558l68 183h144l-91 -183h-121z" />
    <glyph glyph-name="Omicrontonos" unicode="&#x38c;" horiz-adv-x="835" 
d="M17 558l68 183h144l-91 -183h-121zM501 -9q-77 0 -133.5 21t-89.5 54t-52 84.5t-25.5 102t-6.5 117.5t6.5 118t25.5 102.5t52 84.5t89.5 54t133.5 21t133.5 -21t89.5 -54t52 -84.5t25.5 -102.5t6.5 -118t-6.5 -117.5t-25.5 -102t-52 -84.5t-89.5 -54t-133.5 -21zM501 130
q39 0 66 11.5t43 30t25 50.5t11.5 64t2.5 79q0 46 -2.5 78t-11.5 64t-25 50.5t-43 30t-66 11.5t-66 -11.5t-43 -30t-25 -50.5t-11.5 -64t-2.5 -78q0 -47 2.5 -79t11.5 -64t25 -50.5t43 -30t66 -11.5z" />
    <glyph glyph-name="Upsilontonos" unicode="&#x38e;" horiz-adv-x="883" 
d="M491 0v251l-236 490h167l150 -323l151 323h161l-237 -492v-249h-156zM17 558l68 183h144l-91 -183h-121z" />
    <glyph glyph-name="Omegatonos" unicode="&#x38f;" horiz-adv-x="842" 
d="M189 0v136h172v34q-166 58 -166 271q0 151 79.5 230t225.5 79q149 0 228.5 -79t79.5 -230q0 -213 -168 -271v-34h173v-136h-271v230q106 27 106 190q0 87 -31 133t-117 46q-83 0 -115 -46.5t-32 -132.5q0 -162 106 -190v-230h-270zM17 558l68 183h144l-91 -183h-121z" />
    <glyph glyph-name="iotadieresistonos" unicode="&#x390;" horiz-adv-x="293" 
d="M-66 620v135h103v-135h-103zM256 620v135h103v-135h-103zM67 620l61 183h121l-83 -183h-99zM64 0v567h151v-567h-151z" />
    <glyph glyph-name="Alpha" unicode="&#x391;" horiz-adv-x="656" 
d="M13 0l231 746h168l231 -746h-161l-34 115h-245l-33 -115h-157zM240 253h170l-84 281z" />
    <glyph glyph-name="Beta" unicode="&#x392;" horiz-adv-x="616" 
d="M58 0v741h271q125 0 181 -48t56 -142q0 -127 -87 -163q53 -18 77.5 -61t24.5 -120q0 -207 -246 -207h-277zM212 131h121q45 0 67.5 20t22.5 68t-22.5 67t-68.5 19h-120v-174zM212 442h112q45 0 65 20.5t20 64.5q0 43 -19.5 61t-65.5 18h-112v-164z" />
    <glyph glyph-name="Gamma" unicode="&#x393;" horiz-adv-x="543" 
d="M215 598v-598h-157v741h458v-143h-301z" />
    <glyph glyph-name="Delta" unicode="&#x394;" horiz-adv-x="656" 
d="M13 0l231 746h168l231 -746h-630zM205 134h240l-119 400z" />
    <glyph glyph-name="Delta" unicode="&#x2206;" horiz-adv-x="656" 
d="M13 0l231 746h168l231 -746h-630zM205 134h240l-119 400z" />
    <glyph glyph-name="Epsilon" unicode="&#x395;" horiz-adv-x="557" 
d="M58 0v741h457v-143h-304v-148h291v-142h-291v-168h305v-140h-458z" />
    <glyph glyph-name="Zeta" unicode="&#x396;" horiz-adv-x="564" 
d="M23 0v118l320 480h-306v143h493v-129l-317 -472h326v-140h-516z" />
    <glyph glyph-name="Eta" unicode="&#x397;" horiz-adv-x="677" 
d="M58 0v741h157v-281h246v281h158v-741h-158v305h-246v-305h-157z" />
    <glyph glyph-name="Theta" unicode="&#x398;" 
d="M230 298v143h208v-143h-208zM334 -9q-77 0 -133.5 21t-89.5 54t-52 84.5t-25.5 102t-6.5 117.5t6.5 118t25.5 102.5t52 84.5t89.5 54t133.5 21t133.5 -21t89.5 -54t52 -84.5t25.5 -102.5t6.5 -118t-6.5 -117.5t-25.5 -102t-52 -84.5t-89.5 -54t-133.5 -21zM334 130
q39 0 66 11.5t43 30t25 50.5t11.5 64t2.5 79q0 46 -2.5 78t-11.5 64t-25 50.5t-43 30t-66 11.5t-66 -11.5t-43 -30t-25 -50.5t-11.5 -64t-2.5 -78q0 -47 2.5 -79t11.5 -64t25 -50.5t43 -30t66 -11.5z" />
    <glyph glyph-name="Iota" unicode="&#x399;" horiz-adv-x="290" 
d="M67 0v741h156v-741h-156z" />
    <glyph glyph-name="Kappa" unicode="&#x39a;" horiz-adv-x="639" 
d="M58 0v741h155v-305l226 305h180l-223 -288l227 -453h-173l-159 321l-78 -107v-214h-155z" />
    <glyph glyph-name="Lambda" unicode="&#x39b;" horiz-adv-x="648" 
d="M409 746l227 -746h-161l-153 519l-150 -519h-159l228 746h168z" />
    <glyph glyph-name="Mu" unicode="&#x39c;" horiz-adv-x="805" 
d="M58 0v741h200l144 -470l146 470h200v-741h-153v473l-148 -473h-101l-149 473v-473h-139z" />
    <glyph glyph-name="Nu" unicode="&#x39d;" horiz-adv-x="673" 
d="M58 0v741h166l243 -427v427h149v-741h-144l-265 462v-462h-149z" />
    <glyph glyph-name="Xi" unicode="&#x39e;" horiz-adv-x="571" 
d="M44 598v143h482v-143h-482zM89 308v142h394v-142h-394zM41 0v140h489v-140h-489z" />
    <glyph glyph-name="Omicron" unicode="&#x39f;" 
d="M334 -9q-77 0 -133.5 21t-89.5 54t-52 84.5t-25.5 102t-6.5 117.5t6.5 118t25.5 102.5t52 84.5t89.5 54t133.5 21t133.5 -21t89.5 -54t52 -84.5t25.5 -102.5t6.5 -118t-6.5 -117.5t-25.5 -102t-52 -84.5t-89.5 -54t-133.5 -21zM334 130q39 0 66 11.5t43 30t25 50.5
t11.5 64t2.5 79q0 46 -2.5 78t-11.5 64t-25 50.5t-43 30t-66 11.5t-66 -11.5t-43 -30t-25 -50.5t-11.5 -64t-2.5 -78q0 -47 2.5 -79t11.5 -64t25 -50.5t43 -30t66 -11.5z" />
    <glyph glyph-name="Pi" unicode="&#x3a0;" horiz-adv-x="659" 
d="M58 0v741h543v-741h-158v598h-228v-598h-157z" />
    <glyph glyph-name="Rho" unicode="&#x3a1;" horiz-adv-x="613" 
d="M58 0v741h285q129 0 186.5 -61.5t57.5 -179.5q0 -257 -247 -257h-128v-243h-154zM212 379h126q51 0 73.5 26t22.5 86t-22.5 86t-73.5 26h-126v-224z" />
    <glyph glyph-name="Sigma" unicode="&#x3a3;" horiz-adv-x="577" 
d="M26 0v122l185 248l-176 237v134h488v-144h-293l166 -227l-170 -230h311v-140h-511z" />
    <glyph glyph-name="Tau" unicode="&#x3a4;" horiz-adv-x="579" 
d="M210 0v598h-199v143h557v-143h-200v-598h-158z" />
    <glyph glyph-name="Upsilon" unicode="&#x3a5;" horiz-adv-x="626" 
d="M234 0v251l-236 490h167l150 -323l151 323h161l-237 -492v-249h-156z" />
    <glyph glyph-name="Phi" unicode="&#x3a6;" horiz-adv-x="761" 
d="M302 0v53q-281 30 -281 318q0 286 281 316v54h156v-53q132 -15 207 -88.5t75 -228.5q0 -288 -282 -318v-53h-156zM592 371q0 80 -32.5 120.5t-101.5 51.5v-344q69 11 101.5 51.5t32.5 120.5zM169 371q0 -79 32 -119t101 -52v342q-69 -12 -101 -52t-32 -119z" />
    <glyph glyph-name="Chi" unicode="&#x3a7;" horiz-adv-x="648" 
d="M457 0l-142 251l-130 -251h-169l220 390l-197 351h173l119 -211l108 211h170l-199 -352l220 -389h-173z" />
    <glyph glyph-name="Psi" unicode="&#x3a8;" horiz-adv-x="688" 
d="M267 0v241q-129 12 -176.5 71t-47.5 179v250h152v-242q0 -27 0.5 -36t3.5 -27t10 -25t21.5 -15.5t36.5 -12.5v358h157v-358q26 5 41 14.5t21.5 27t8 32t1.5 44.5v240h149v-249q0 -121 -46 -180t-175 -71v-241h-157z" />
    <glyph glyph-name="Omega" unicode="&#x3a9;" horiz-adv-x="682" 
d="M29 0v136h172v34q-166 58 -166 271q0 151 79.5 230t225.5 79q149 0 228.5 -79t79.5 -230q0 -213 -168 -271v-34h173v-136h-271v230q106 27 106 190q0 87 -31 133t-117 46q-83 0 -115 -46.5t-32 -132.5q0 -162 106 -190v-230h-270z" />
    <glyph glyph-name="Omega" unicode="&#x2126;" horiz-adv-x="682" 
d="M29 0v136h172v34q-166 58 -166 271q0 151 79.5 230t225.5 79q149 0 228.5 -79t79.5 -230q0 -213 -168 -271v-34h173v-136h-271v230q106 27 106 190q0 87 -31 133t-117 46q-83 0 -115 -46.5t-32 -132.5q0 -162 106 -190v-230h-270z" />
    <glyph glyph-name="Iotadieresis" unicode="&#x3aa;" horiz-adv-x="290" 
d="M67 0v741h156v-741h-156zM-19 779v134h134v-134h-134zM177 779v134h133v-134h-133z" />
    <glyph glyph-name="Upsilondieresis" unicode="&#x3ab;" horiz-adv-x="626" 
d="M234 0v251l-236 490h167l150 -323l151 323h161l-237 -492v-249h-156zM148 779v134h134v-134h-134zM344 779v134h133v-134h-133z" />
    <glyph glyph-name="alphatonos" unicode="&#x3ac;" horiz-adv-x="576" 
d="M205 620l68 183h144l-91 -183h-121zM268 124q61 0 79 36.5t18 122.5q0 85 -17.5 119.5t-79.5 34.5q-54 0 -71.5 -35.5t-17.5 -118.5q0 -86 17 -122.5t72 -36.5zM390 66q-35 -73 -174 -73q-60 0 -99.5 22.5t-58 67t-25 90.5t-6.5 113q0 43 3 76.5t10 68.5t21 60t35.5 45.5
t53.5 30.5t73 10q73 0 106.5 -13t52.5 -41l24 49l110 -10l1 -387q0 -28 6 -36t33 -8v-131q-16 -2 -46 -2q-58 0 -84.5 13t-35.5 55z" />
    <glyph glyph-name="epsilontonos" unicode="&#x3ad;" horiz-adv-x="437" 
d="M168 620l68 183h144l-91 -183h-121zM232 -12q-105 0 -156 37.5t-51 137.5q0 109 75 133q-62 29 -62 123q0 160 196 160q122 0 187 -45l-60 -117q-42 31 -105 31q-67 0 -67 -49q0 -26 13.5 -37.5t57.5 -11.5h71v-114h-66q-56 0 -73.5 -14t-17.5 -43q0 -32 18 -47.5
t62 -15.5q67 0 115 42l57 -114q-72 -56 -194 -56z" />
    <glyph glyph-name="etatonos" unicode="&#x3ae;" horiz-adv-x="562" 
d="M217 620l68 183h144l-91 -183h-121zM48 0v558l121 10l11 -45q43 54 172 54q50 0 84 -15t51.5 -44.5t24 -64t6.5 -82.5v-531h-152v493q0 55 -13.5 77.5t-59.5 22.5q-57 0 -75.5 -27.5t-18.5 -93.5v-312h-151z" />
    <glyph glyph-name="iotatonos" unicode="&#x3af;" horiz-adv-x="256" 
d="M67 620l68 183h144l-91 -183h-121zM52 0v567h151v-567h-151z" />
    <glyph glyph-name="upsilondieresistonos" unicode="&#x3b0;" horiz-adv-x="552" 
d="M64 620v135h103v-135h-103zM386 620v135h103v-135h-103zM197 620l61 183h121l-83 -183h-99zM276 -8q-134 0 -183 54t-49 186v335h152v-327q0 -67 13.5 -90.5t68.5 -23.5q53 0 67 24t14 91v326h149v-335q0 -133 -47.5 -186.5t-184.5 -53.5z" />
    <glyph glyph-name="alpha" unicode="&#x3b1;" horiz-adv-x="576" 
d="M268 124q61 0 79 36.5t18 122.5q0 85 -17.5 119.5t-79.5 34.5q-54 0 -71.5 -35.5t-17.5 -118.5q0 -86 17 -122.5t72 -36.5zM390 66q-35 -73 -174 -73q-60 0 -99.5 22.5t-58 67t-25 90.5t-6.5 113q0 43 3 76.5t10 68.5t21 60t35.5 45.5t53.5 30.5t73 10q73 0 106.5 -13
t52.5 -41l24 49l110 -10l1 -387q0 -28 6 -36t33 -8v-131q-16 -2 -46 -2q-58 0 -84.5 13t-35.5 55z" />
    <glyph glyph-name="beta" unicode="&#x3b2;" horiz-adv-x="577" 
d="M48 -158v720q0 217 235 217q123 0 176 -46.5t53 -148.5q0 -81 -15 -121.5t-53 -56.5q61 -13 84 -56.5t23 -137.5q0 -121 -56.5 -166.5t-207.5 -45.5h-34v135h34q67 0 90.5 21.5t23.5 77.5q0 54 -23.5 73t-92.5 19h-20v119h20q44 0 63 22t19 74q0 51 -19.5 72t-64.5 21
t-65.5 -21t-20.5 -67v-704h-149z" />
    <glyph glyph-name="gamma" unicode="&#x3b3;" horiz-adv-x="519" 
d="M174 -164v165l-172 566h158l103 -374l103 374h152l-174 -566v-165h-170z" />
    <glyph glyph-name="delta" unicode="&#x3b4;" horiz-adv-x="551" 
d="M467 451h-2q60 -64 60 -197q0 -59 -11 -103.5t-37.5 -82t-77 -57.5t-123.5 -20q-72 0 -122.5 20t-77.5 57.5t-38.5 82.5t-11.5 103q0 113 48 182.5t168 78.5l-151 155v99h384v-126h-193zM276 123q31 0 51.5 10.5t30 30.5t12.5 39.5t3 46.5t-3 46.5t-12.5 39t-30 30
t-51.5 10.5t-51.5 -10.5t-30 -30t-12.5 -39t-3 -46.5t3 -46.5t12.5 -39.5t30 -30.5t51.5 -10.5z" />
    <glyph glyph-name="epsilon" unicode="&#x3b5;" horiz-adv-x="437" 
d="M232 -12q-105 0 -156 37.5t-51 137.5q0 109 75 133q-62 29 -62 123q0 160 196 160q122 0 187 -45l-60 -117q-42 31 -105 31q-67 0 -67 -49q0 -26 13.5 -37.5t57.5 -11.5h71v-114h-66q-56 0 -73.5 -14t-17.5 -43q0 -32 18 -47.5t62 -15.5q67 0 115 42l57 -114
q-72 -56 -194 -56z" />
    <glyph glyph-name="zeta" unicode="&#x3b6;" horiz-adv-x="447" 
d="M283 -157q-64 0 -118 26l32 70q40 -15 75 -15q29 0 39.5 7.5t10.5 26.5q0 18 -14 25t-53 10q-66 2 -113 23.5t-71.5 57.5t-35 76t-10.5 88q0 102 45.5 190t168.5 211h-213v130h402v-102q-135 -139 -191.5 -229t-56.5 -177q0 -63 22.5 -96.5t81.5 -43.5q72 -12 103.5 -42
t31.5 -97q0 -139 -136 -139z" />
    <glyph glyph-name="eta" unicode="&#x3b7;" horiz-adv-x="562" 
d="M48 0v558l121 10l11 -45q43 54 172 54q50 0 84 -15t51.5 -44.5t24 -64t6.5 -82.5v-531h-152v493q0 55 -13.5 77.5t-59.5 22.5q-57 0 -75.5 -27.5t-18.5 -93.5v-312h-151z" />
    <glyph glyph-name="theta" unicode="&#x3b8;" horiz-adv-x="641" 
d="M322 -9q-71 0 -120.5 18t-79 48t-46 82t-22 106.5t-5.5 135.5q0 80 5 134t21.5 106.5t46 82.5t79.5 48.5t121 18.5q51 0 90.5 -9.5t68 -26t48.5 -43.5t32 -57t19 -73t9.5 -84t2.5 -97q0 -82 -5 -137t-21 -107t-45.5 -81.5t-78.5 -47t-120 -17.5zM322 131q63 0 87 43.5
t27 149.5h-230q3 -106 27.5 -149.5t88.5 -43.5zM322 626q-64 0 -88.5 -42t-27.5 -146h230q-4 105 -27.5 146.5t-86.5 41.5z" />
    <glyph glyph-name="iota" unicode="&#x3b9;" horiz-adv-x="256" 
d="M52 0v567h151v-567h-151z" />
    <glyph glyph-name="kappa" unicode="&#x3ba;" horiz-adv-x="523" 
d="M48 0v567h148v-234l156 234h157l-167 -237l177 -330h-161l-115 207l-47 -70v-137h-148z" />
    <glyph glyph-name="lambda" unicode="&#x3bb;" horiz-adv-x="498" 
d="M68 648v121h63q78 0 117.5 -22.5t60.5 -91.5l187 -655h-149l-91 368l-99 -368h-156l180 587l-11 37q-3 13 -11 18.5t-28 5.5h-63z" />
    <glyph glyph-name="uni03BC" unicode="&#x3bc;" horiz-adv-x="562" 
d="M213 -7q-4 0 -12 0.5t-11 0.5v-152h-143v725h152v-344q0 -55 13.5 -77t59.5 -22q57 0 74 26.5t17 93.5v323h151v-562l-121 -9l-11 49q-41 -52 -169 -52z" />
    <glyph glyph-name="nu" unicode="&#x3bd;" horiz-adv-x="519" 
d="M176 -5l-174 572h158l103 -374l103 374h152l-176 -572h-166z" />
    <glyph glyph-name="xi" unicode="&#x3be;" horiz-adv-x="469" 
d="M286 -157q-63 0 -117 26l31 70q40 -15 76 -15q28 0 38.5 7.5t10.5 26.5q0 18 -13.5 25t-52.5 10q-129 5 -179.5 60t-50.5 153q0 167 136 195q-91 19 -91 128q0 43 16 72.5t43 41.5h-104v126h414v-126h-103q-64 0 -91.5 -22.5t-27.5 -71.5q0 -50 27 -73t105 -24v-108
q-1 0 -9 -0.5t-11 -0.5q-90 0 -121.5 -27t-31.5 -79q0 -54 23.5 -80t84.5 -36q71 -12 102.5 -42t31.5 -97q0 -139 -136 -139z" />
    <glyph glyph-name="omicron" unicode="&#x3bf;" horiz-adv-x="551" 
d="M276 -9q-141 0 -195.5 74t-54.5 220q0 145 54 218.5t196 73.5q74 0 124 -20.5t76.5 -61t37.5 -90.5t11 -120q0 -73 -11 -123.5t-37.5 -91t-76.5 -60t-124 -19.5zM276 123q60 0 78.5 37t18.5 120q0 84 -18 120t-79 36t-79 -36t-18 -120q0 -83 18.5 -120t78.5 -37z" />
    <glyph glyph-name="pi" unicode="&#x3c0;" horiz-adv-x="561" 
d="M47 0v567h467v-567h-149v440h-167v-440h-151z" />
    <glyph glyph-name="rho" unicode="&#x3c1;" horiz-adv-x="568" 
d="M48 -158v443q0 71 11 121t38.5 90.5t77.5 60.5t124 20q61 0 105.5 -16t70.5 -41.5t41.5 -65t20.5 -79t5 -90.5q0 -66 -7.5 -113.5t-27 -90.5t-60 -65.5t-101.5 -22.5q-108 0 -147 44v-195h-151zM300 124q53 0 71 35t18 119q0 86 -17 122t-72 36q-62 0 -81.5 -37
t-19.5 -121t19 -119t82 -35z" />
    <glyph glyph-name="sigma1" unicode="&#x3c2;" horiz-adv-x="448" 
d="M290 -157q-64 0 -118 26l32 70q40 -15 75 -15q29 0 39.5 7.5t10.5 26.5q0 17 -14 25t-51 9q-136 3 -187 74t-51 219q0 73 10.5 123t37 90t76 59.5t123.5 19.5q94 0 157 -30l-66 -131q-38 20 -83 20q-57 0 -79 -35t-22 -121q0 -87 23 -120t91 -40q69 -8 100.5 -40
t31.5 -98q0 -139 -136 -139z" />
    <glyph glyph-name="sigma" unicode="&#x3c3;" horiz-adv-x="574" 
d="M276 -9q-141 0 -195.5 74t-54.5 220q0 145 54 218.5t196 73.5q80 0 136 -27h157v-125h-60q16 -55 16 -140q0 -73 -11 -123.5t-37.5 -91t-76.5 -60t-124 -19.5zM276 123q60 0 78.5 37t18.5 120q0 84 -18 120t-79 36t-79 -36t-18 -120q0 -83 18.5 -120t78.5 -37z" />
    <glyph glyph-name="tau" unicode="&#x3c4;" horiz-adv-x="510" 
d="M8 439v128h494v-128h-170v-439h-154v439h-170z" />
    <glyph glyph-name="upsilon" unicode="&#x3c5;" horiz-adv-x="552" 
d="M276 -8q-134 0 -183 54t-49 186v335h152v-327q0 -67 13.5 -90.5t68.5 -23.5q53 0 67 24t14 91v326h149v-335q0 -133 -47.5 -186.5t-184.5 -53.5z" />
    <glyph glyph-name="phi" unicode="&#x3c6;" 
d="M257 -160v152q-68 3 -114 24t-71 61t-35.5 90t-10.5 118q0 99 23 161t77 94l74 -136q-21 -33 -21 -124q0 -78 14.5 -114t63.5 -42v453h136q141 0 195 -72.5t54 -219.5q0 -69 -10 -118.5t-35 -90t-72 -62t-116 -23.5v-151h-152zM490 280q0 79 -15.5 114.5t-65.5 40.5v-311
q50 5 65.5 41t15.5 115z" />
    <glyph glyph-name="chi" unicode="&#x3c7;" horiz-adv-x="507" 
d="M341 0l-96 167l-89 -167h-154l168 298l-154 269h164l82 -144l75 144h154l-154 -275l167 -292h-163z" />
    <glyph glyph-name="psi" unicode="&#x3c8;" horiz-adv-x="738" 
d="M294 -160v151q-141 1 -195.5 58t-54.5 189v329h151v-320q0 -66 19 -93.5t80 -28.5v442h151v-442q60 1 80 29.5t20 94.5v318h149v-328q0 -133 -53.5 -190t-195.5 -58v-151h-151z" />
    <glyph glyph-name="omega" unicode="&#x3c9;" horiz-adv-x="756" 
d="M454 482v-238q0 -66 14.5 -93t45.5 -27q32 0 45.5 27t13.5 87q0 118 -67 259l131 77q87 -162 87 -342q0 -126 -52 -184.5t-141 -58.5q-71 0 -105 33t-48 108q-15 -75 -48.5 -108t-104.5 -33q-90 0 -141.5 58.5t-51.5 184.5q0 180 87 342l130 -77q-66 -142 -66 -259
q0 -60 13.5 -87t45.5 -27q30 0 45 27t15 93v238h152z" />
    <glyph glyph-name="iotadieresis" unicode="&#x3ca;" horiz-adv-x="256" 
d="M-16 620v134h119v-134h-119zM152 620v134h119v-134h-119zM52 0v567h151v-567h-151z" />
    <glyph glyph-name="upsilondieresis" unicode="&#x3cb;" horiz-adv-x="552" 
d="M111 620v134h134v-134h-134zM307 620v134h133v-134h-133zM276 -8q-134 0 -183 54t-49 186v335h152v-327q0 -67 13.5 -90.5t68.5 -23.5q53 0 67 24t14 91v326h149v-335q0 -133 -47.5 -186.5t-184.5 -53.5z" />
    <glyph glyph-name="omicrontonos" unicode="&#x3cc;" horiz-adv-x="551" 
d="M208 620l68 183h144l-91 -183h-121zM276 -9q-141 0 -195.5 74t-54.5 220q0 145 54 218.5t196 73.5q74 0 124 -20.5t76.5 -61t37.5 -90.5t11 -120q0 -73 -11 -123.5t-37.5 -91t-76.5 -60t-124 -19.5zM276 123q60 0 78.5 37t18.5 120q0 84 -18 120t-79 36t-79 -36t-18 -120
q0 -83 18.5 -120t78.5 -37z" />
    <glyph glyph-name="upsilontonos" unicode="&#x3cd;" horiz-adv-x="552" 
d="M218 620l68 183h144l-91 -183h-121zM276 -8q-134 0 -183 54t-49 186v335h152v-327q0 -67 13.5 -90.5t68.5 -23.5q53 0 67 24t14 91v326h149v-335q0 -133 -47.5 -186.5t-184.5 -53.5z" />
    <glyph glyph-name="omegatonos" unicode="&#x3ce;" horiz-adv-x="756" 
d="M310 620l68 183h144l-91 -183h-121zM454 482v-238q0 -66 14.5 -93t45.5 -27q32 0 45.5 27t13.5 87q0 118 -67 259l131 77q87 -162 87 -342q0 -126 -52 -184.5t-141 -58.5q-71 0 -105 33t-48 108q-15 -75 -48.5 -108t-104.5 -33q-90 0 -141.5 58.5t-51.5 184.5
q0 180 87 342l130 -77q-66 -142 -66 -259q0 -60 13.5 -87t45.5 -27q30 0 45 27t15 93v238h152z" />
    <glyph glyph-name="afii10023" unicode="&#x401;" horiz-adv-x="557" 
d="M127 781v134h134v-134h-134zM323 781v134h133v-134h-133zM58 0v741h457v-143h-304v-148h291v-142h-291v-168h305v-140h-458z" />
    <glyph glyph-name="afii10051" unicode="&#x402;" horiz-adv-x="732" 
d="M475 -160v121h9q26 1 33.5 10.5t8.5 40.5v241q0 57 -12.5 81t-56.5 24q-53 0 -70 -25.5t-18 -83.5v-249h-158v598h-199v143h557v-143h-200v-141q50 46 150 46q95 0 130 -55t35 -158v-269q0 -103 -39.5 -142t-147.5 -39h-22z" />
    <glyph glyph-name="afii10052" unicode="&#x403;" horiz-adv-x="514" 
d="M182 781l106 183h167l-144 -183h-129zM215 598v-598h-157v741h458v-143h-301z" />
    <glyph glyph-name="afii10053" unicode="&#x404;" horiz-adv-x="579" 
d="M437 301h-253q9 -94 47.5 -132t107.5 -38q71 0 133 48l79 -122q-92 -66 -220 -66q-160 0 -232 96.5t-72 282.5t71.5 283.5t244.5 97.5q121 0 207 -64l-85 -130q-52 41 -127 41q-65 0 -103.5 -34t-49.5 -121h252v-142z" />
    <glyph glyph-name="afii10054" unicode="&#x405;" horiz-adv-x="583" 
d="M293 -9q-178 0 -280 67l79 120q84 -53 197 -53q62 0 87.5 19t25.5 57q0 46 -27.5 64t-127.5 49q-106 33 -153.5 81.5t-47.5 136.5q0 108 66 163t190 55q130 0 227 -46l-68 -134q-68 33 -155 33q-56 0 -81.5 -15.5t-25.5 -50.5q0 -36 23 -52t95 -40q72 -23 112.5 -41.5
t71.5 -46t42 -63t11 -90.5q0 -101 -64.5 -157t-196.5 -56z" />
    <glyph glyph-name="afii10055" unicode="&#x406;" horiz-adv-x="290" 
d="M67 0v741h156v-741h-156z" />
    <glyph glyph-name="afii10056" unicode="&#x407;" horiz-adv-x="290" 
d="M67 0v741h156v-741h-156zM-19 779v134h134v-134h-134zM177 779v134h133v-134h-133z" />
    <glyph glyph-name="afii10057" unicode="&#x408;" horiz-adv-x="391" 
d="M26 0v140h71q47 0 65 17t18 56v528h157v-538q0 -113 -55 -158t-159 -45h-97z" />
    <glyph glyph-name="afii10058" unicode="&#x409;" horiz-adv-x="1040" 
d="M485 0v595h-240v-430q0 -95 -36 -131t-114 -36q-53 0 -65 2v140h12q31 0 38.5 10t7.5 43v548h551v-247h131q129 0 186.5 -61.5t57.5 -179.5q0 -253 -247 -253h-282zM639 134h126q51 0 73.5 25.5t22.5 84.5q0 61 -22.5 87t-73.5 26h-126v-223z" />
    <glyph glyph-name="afii10059" unicode="&#x40a;" horiz-adv-x="1019" 
d="M465 0v307h-250v-307h-157v741h157v-281h250v281h154v-247h131q129 0 186.5 -61.5t57.5 -179.5q0 -253 -247 -253h-282zM619 134h126q51 0 73 25.5t22 84.5q0 61 -22 87t-73 26h-126v-223z" />
    <glyph glyph-name="afii10060" unicode="&#x40b;" horiz-adv-x="731" 
d="M210 0v598h-199v143h557v-143h-200v-141q50 46 150 46q95 0 130 -55t35 -158v-290h-158v253q0 57 -12.5 81t-56.5 24q-53 0 -70 -25.5t-18 -83.5v-249h-158z" />
    <glyph glyph-name="afii10061" unicode="&#x40c;" horiz-adv-x="657" 
d="M239 781l106 183h167l-144 -183h-129zM460 0l-189 325h-58v-325h-155v741h155v-280h48l178 280h176l-218 -330l243 -411h-180z" />
    <glyph glyph-name="afii10062" unicode="&#x40e;" horiz-adv-x="604" 
d="M199 -2q-61 0 -91 2v137h46q37 0 50.5 8.5t21.5 33.5l4 8l-222 554h168l139 -373l127 373h159l-223 -598q-33 -87 -66.5 -116t-112.5 -29zM313 775q-96 0 -133.5 41t-50.5 136l108 16q8 -46 23 -62.5t53 -16.5t53.5 16.5t22.5 62.5l109 -15q-14 -97 -51.5 -137.5
t-133.5 -40.5z" />
    <glyph glyph-name="afii10145" unicode="&#x40f;" horiz-adv-x="698" 
d="M256 -160v160h-198v741h157v-605h245v605h158v-741h-198v-160h-164z" />
    <glyph glyph-name="afii10017" unicode="&#x410;" horiz-adv-x="656" 
d="M13 0l231 746h168l231 -746h-161l-34 115h-245l-33 -115h-157zM240 253h170l-84 281z" />
    <glyph glyph-name="afii10018" unicode="&#x411;" horiz-adv-x="613" 
d="M58 0v741h438v-143h-285v-127h137q127 0 183 -55.5t56 -171.5q0 -244 -242 -244h-287zM211 134h132q48 0 69 23t21 82q0 60 -20.5 82t-70.5 22h-131v-209z" />
    <glyph glyph-name="afii10019" unicode="&#x412;" horiz-adv-x="616" 
d="M58 0v741h271q125 0 181 -48t56 -142q0 -127 -87 -163q53 -18 77.5 -61t24.5 -120q0 -207 -246 -207h-277zM212 131h121q45 0 67.5 20t22.5 68t-22.5 67t-68.5 19h-120v-174zM212 442h112q45 0 65 20.5t20 64.5q0 43 -19.5 61t-65.5 18h-112v-164z" />
    <glyph glyph-name="afii10020" unicode="&#x413;" horiz-adv-x="543" 
d="M215 598v-598h-157v741h458v-143h-301z" />
    <glyph glyph-name="afii10021" unicode="&#x414;" horiz-adv-x="738" 
d="M31 -160v300h12q28 0 37 11.5t9 46.5v543h560v-601h58v-300h-164v160h-348v-160h-164zM234 136h259v461h-246v-405q0 -45 -13 -56z" />
    <glyph glyph-name="afii10022" unicode="&#x415;" horiz-adv-x="557" 
d="M58 0v741h457v-143h-304v-148h291v-142h-291v-168h305v-140h-458z" />
    <glyph glyph-name="afii10024" unicode="&#x416;" horiz-adv-x="1043" 
d="M845 0l-193 332h-53v-332h-155v332h-54l-193 -332h-180l242 411l-217 330h176l178 -280h48v280h155v-280h47l178 280h177l-218 -331l243 -410h-181z" />
    <glyph glyph-name="afii10025" unicode="&#x417;" horiz-adv-x="592" 
d="M282 -9q-162 0 -260 61l68 124q81 -47 182 -47q75 0 105 19.5t30 79.5q0 51 -31.5 70t-109.5 19h-130v136h129q66 0 95 18t29 63q0 41 -30 57t-89 16q-100 0 -173 -39l-64 123q44 27 115 43.5t146 16.5q120 0 182 -39.5t62 -137.5q0 -74 -17.5 -113.5t-63.5 -56.5
q58 -18 79 -57t21 -128q0 -124 -68 -176t-207 -52z" />
    <glyph glyph-name="afii10026" unicode="&#x418;" horiz-adv-x="673" 
d="M615 741v-741h-149v462l-265 -462h-144v741h149v-427l243 427h166z" />
    <glyph glyph-name="afii10027" unicode="&#x419;" horiz-adv-x="673" 
d="M615 741v-741h-149v462l-265 -462h-144v741h149v-427l243 427h166zM331 775q-96 0 -133.5 41t-50.5 136l108 16q8 -46 23 -62.5t53 -16.5t53.5 16.5t22.5 62.5l109 -15q-14 -97 -51.5 -137.5t-133.5 -40.5z" />
    <glyph glyph-name="afii10028" unicode="&#x41a;" horiz-adv-x="657" 
d="M460 0l-189 325h-58v-325h-155v741h155v-280h48l178 280h176l-218 -330l243 -411h-180z" />
    <glyph glyph-name="afii10029" unicode="&#x41b;" horiz-adv-x="696" 
d="M31 0v140h11q32 0 39.5 10t7.5 43v548h551v-741h-158v595h-237v-430q0 -95 -36 -131t-114 -36q-54 0 -64 2z" />
    <glyph glyph-name="afii10030" unicode="&#x41c;" horiz-adv-x="805" 
d="M58 0v741h200l144 -470l146 470h200v-741h-153v473l-148 -473h-101l-149 473v-473h-139z" />
    <glyph glyph-name="afii10031" unicode="&#x41d;" horiz-adv-x="677" 
d="M58 0v741h157v-281h246v281h158v-741h-158v305h-246v-305h-157z" />
    <glyph glyph-name="afii10032" unicode="&#x41e;" 
d="M334 -9q-77 0 -133.5 21t-89.5 54t-52 84.5t-25.5 102t-6.5 117.5t6.5 118t25.5 102.5t52 84.5t89.5 54t133.5 21t133.5 -21t89.5 -54t52 -84.5t25.5 -102.5t6.5 -118t-6.5 -117.5t-25.5 -102t-52 -84.5t-89.5 -54t-133.5 -21zM334 130q39 0 66 11.5t43 30t25 50.5
t11.5 64t2.5 79q0 46 -2.5 78t-11.5 64t-25 50.5t-43 30t-66 11.5t-66 -11.5t-43 -30t-25 -50.5t-11.5 -64t-2.5 -78q0 -47 2.5 -79t11.5 -64t25 -50.5t43 -30t66 -11.5z" />
    <glyph glyph-name="afii10033" unicode="&#x41f;" horiz-adv-x="676" 
d="M58 0v741h560v-741h-158v598h-245v-598h-157z" />
    <glyph glyph-name="afii10034" unicode="&#x420;" horiz-adv-x="613" 
d="M58 0v741h285q129 0 186.5 -61.5t57.5 -179.5q0 -257 -247 -257h-128v-243h-154zM212 379h126q51 0 73.5 26t22.5 86t-22.5 86t-73.5 26h-126v-224z" />
    <glyph glyph-name="afii10035" unicode="&#x421;" horiz-adv-x="564" 
d="M324 -9q-164 0 -230.5 96t-66.5 283q0 90 13.5 155t46.5 118.5t95 80t154 26.5q119 0 201 -54l-84 -130q-49 31 -122 31q-80 0 -112.5 -49t-32.5 -182q0 -132 32.5 -183t113.5 -51q72 0 131 38l77 -121q-92 -58 -216 -58z" />
    <glyph glyph-name="afii10036" unicode="&#x422;" horiz-adv-x="579" 
d="M210 0v598h-199v143h557v-143h-200v-598h-158z" />
    <glyph glyph-name="afii10037" unicode="&#x423;" horiz-adv-x="604" 
d="M199 -2q-61 0 -91 2v137h46q37 0 50.5 8.5t21.5 33.5l4 8l-222 554h168l139 -373l127 373h159l-223 -598q-33 -87 -66.5 -116t-112.5 -29z" />
    <glyph glyph-name="afii10038" unicode="&#x424;" horiz-adv-x="771" 
d="M307 0v53q-281 30 -281 318q0 286 281 316v54h156v-53q132 -15 207 -88.5t75 -228.5q0 -288 -282 -318v-53h-156zM597 371q0 80 -32.5 120.5t-101.5 51.5v-344q69 11 101.5 51.5t32.5 120.5zM174 371q0 -79 32 -119t101 -52v342q-69 -12 -101 -52t-32 -119z" />
    <glyph glyph-name="afii10039" unicode="&#x425;" horiz-adv-x="648" 
d="M457 0l-142 251l-130 -251h-169l220 390l-197 351h173l119 -211l108 211h170l-199 -352l220 -389h-173z" />
    <glyph glyph-name="afii10040" unicode="&#x426;" horiz-adv-x="707" 
d="M58 0v741h157v-605h245v605h158v-601h58v-300h-164v160h-454z" />
    <glyph glyph-name="afii10041" unicode="&#x427;" horiz-adv-x="649" 
d="M435 0v259q-41 -61 -177 -61q-121 0 -168.5 63.5t-47.5 180.5v299h157v-265q0 -66 22.5 -97t85.5 -31q75 0 101.5 35t26.5 100v258h156v-741h-156z" />
    <glyph glyph-name="afii10042" unicode="&#x428;" horiz-adv-x="1055" 
d="M58 0v741h157v-605h233v605h158v-605h233v605h158v-741h-939z" />
    <glyph glyph-name="afii10043" unicode="&#x429;" horiz-adv-x="1086" 
d="M58 0v741h157v-605h233v605h158v-605h233v605h158v-601h58v-300h-164v160h-833z" />
    <glyph glyph-name="afii10044" unicode="&#x42a;" horiz-adv-x="644" 
d="M90 0v598h-60v143h214v-247h131q129 0 186.5 -61.5t57.5 -179.5q0 -253 -247 -253h-282zM244 137h135q46 0 66.5 25.5t20.5 81.5q0 61 -22.5 87t-73.5 26h-126v-220z" />
    <glyph glyph-name="afii10045" unicode="&#x42b;" horiz-adv-x="855" 
d="M58 0v741h154v-247h131q129 0 186.5 -61.5t57.5 -179.5q0 -253 -247 -253h-282zM212 134h126q51 0 73.5 25.5t22.5 84.5q0 61 -22.5 87t-73.5 26h-126v-223zM633 0v741h156v-741h-156z" />
    <glyph glyph-name="afii10046" unicode="&#x42c;" horiz-adv-x="612" 
d="M58 0v741h154v-247h131q129 0 186.5 -61.5t57.5 -179.5q0 -253 -247 -253h-282zM212 134h126q51 0 73.5 25.5t22.5 84.5q0 61 -22.5 87t-73.5 26h-126v-223z" />
    <glyph glyph-name="afii10047" unicode="&#x42d;" horiz-adv-x="579" 
d="M248 -9q-128 0 -220 66l79 122q63 -48 133 -48q68 0 106.5 37t48.5 130h-253v142h253q-11 89 -49.5 123.5t-104.5 34.5q-74 0 -127 -41l-85 130q86 64 207 64q173 0 244.5 -97.5t71.5 -283.5t-71.5 -282.5t-232.5 -96.5z" />
    <glyph glyph-name="afii10048" unicode="&#x42e;" horiz-adv-x="930" 
d="M597 -9q-86 0 -145.5 24t-91 70.5t-45.5 98.5t-18 124h-82v-308h-157v741h157v-287h83q4 53 14 94.5t31 80.5t53.5 64.5t83 41t117.5 15.5q77 0 133.5 -21t89 -54t52 -84.5t25.5 -102.5t6 -118q0 -66 -6.5 -117t-25.5 -102.5t-52 -84.5t-89 -54t-133 -21zM597 130
q39 0 66 11.5t43 30t25 50.5t11.5 64t2.5 79q0 46 -3 78t-11.5 63.5t-24.5 50.5t-43.5 30.5t-65.5 11.5q-39 0 -66.5 -11.5t-43.5 -30t-25 -50.5t-11.5 -63.5t-2.5 -78.5t2.5 -79t11.5 -64t25 -50.5t43.5 -30t66.5 -11.5z" />
    <glyph glyph-name="afii10049" unicode="&#x42f;" horiz-adv-x="623" 
d="M44 0l119 276q-124 51 -124 229q0 117 56.5 176.5t181.5 59.5h289v-741h-155v256h-95l-108 -256h-164zM281 388h130v217h-129q-47 0 -68.5 -25.5t-21.5 -84.5t21 -83t68 -24z" />
    <glyph glyph-name="afii10065" unicode="&#x430;" horiz-adv-x="545" 
d="M202 -7q-103 0 -141 46t-38 132q0 116 67 160t224 44h20q-2 37 -18 52t-57 15q-82 0 -144 -30l-61 122q87 45 222 45q115 0 159.5 -43t44.5 -150v-211q0 -28 6.5 -36t32.5 -8v-131q-16 -2 -45 -2q-56 0 -80 9t-36 38q-43 -52 -156 -52zM237 117q48 0 72.5 22t24.5 77v52
h-19q-86 0 -117 -16t-31 -64q0 -38 16 -54.5t54 -16.5z" />
    <glyph glyph-name="afii10066" unicode="&#x431;" horiz-adv-x="550" 
d="M276 -9q-138 0 -194 69t-56 213v121q0 218 63 300t224 82h94v-139h-88q-77 0 -106 -34.5t-29 -131.5q35 77 146 77q194 0 194 -275q0 -150 -54 -216t-194 -66zM276 123q57 0 76.5 34.5t19.5 112.5q0 76 -19.5 107.5t-76.5 31.5q-58 0 -78 -32t-20 -107q0 -77 20.5 -112
t77.5 -35z" />
    <glyph glyph-name="afii10067" unicode="&#x432;" horiz-adv-x="553" 
d="M50 0v567h260q104 0 150.5 -30t46.5 -108q0 -110 -68 -133q45 -12 62.5 -44.5t17.5 -95.5q0 -91 -49.5 -123.5t-161.5 -32.5h-258zM195 116h104q41 0 56 10.5t15 46.5q0 34 -16 46t-55 12h-104v-115zM195 342h97q39 0 53 13t14 44q0 29 -14.5 40.5t-52.5 11.5h-97v-109z
" />
    <glyph glyph-name="afii10068" unicode="&#x433;" horiz-adv-x="442" 
d="M47 0v567h378v-133h-245v-434h-133z" />
    <glyph glyph-name="afii10069" unicode="&#x434;" horiz-adv-x="650" 
d="M33 -166v297h16q28 0 36.5 12t8.5 47v377h467v-436h60v-297h-144v166h-303v-166h-141zM230 123h183v314h-169v-258q0 -41 -14 -56z" />
    <glyph glyph-name="afii10070" unicode="&#x435;" horiz-adv-x="515" 
d="M267 -7q-73 0 -121.5 19t-74 59t-35.5 90t-10 124q0 146 54 219t191 73q65 0 108.5 -17.5t64.5 -49t31.5 -76.5t10 -100t-0.5 -118h-313q5 -52 26.5 -73t76.5 -21q79 0 149 33l57 -115q-88 -47 -214 -47zM267 445q-53 0 -73 -26t-23 -86h181q-2 64 -16.5 88t-68.5 24z
" />
    <glyph glyph-name="afii10072" unicode="&#x436;" horiz-adv-x="800" 
d="M326 0v242h-40l-126 -242h-158l173 311l-160 256h155l117 -199h39v199h148v-199h39l116 199h156l-160 -256l173 -311h-158l-126 242h-40v-242h-148z" />
    <glyph glyph-name="afii10073" unicode="&#x437;" horiz-adv-x="517" 
d="M250 -12q-158 0 -241 62l70 112q68 -49 154 -49q55 0 75.5 12.5t20.5 51.5q0 31 -20.5 42t-82.5 11h-115v127h114q52 0 71.5 9.5t19.5 38.5q0 28 -20 38t-66 10q-78 0 -134 -36l-76 107q35 25 101.5 40t131.5 15q111 0 165.5 -31t54.5 -107q0 -58 -14.5 -87.5
t-47.5 -43.5q39 -12 56.5 -45.5t17.5 -101.5q0 -98 -61.5 -136.5t-173.5 -38.5z" />
    <glyph glyph-name="afii10074" unicode="&#x438;" horiz-adv-x="552" 
d="M47 0v567h136v-307l165 307h157l-2 -567h-137v333l-177 -333h-142z" />
    <glyph glyph-name="afii10075" unicode="&#x439;" horiz-adv-x="553" 
d="M47 0v567h136v-307l165 307h157l-2 -567h-137v333l-177 -333h-142zM272 614q-96 0 -133.5 41t-50.5 136l108 16q8 -46 23 -62.5t53 -16.5t53.5 16.5t22.5 62.5l109 -15q-14 -97 -51.5 -137.5t-133.5 -40.5z" />
    <glyph glyph-name="afii10076" unicode="&#x43a;" horiz-adv-x="521" 
d="M47 0v567h149v-199h39l116 199h156l-160 -256l172 -311h-158l-126 242h-39v-242h-149z" />
    <glyph glyph-name="afii10077" unicode="&#x43b;" horiz-adv-x="602" 
d="M30 0v131h11q31 0 39 10t8 44v382h467v-567h-150v438h-166v-273q0 -95 -36 -131t-114 -36q-49 0 -59 2z" />
    <glyph glyph-name="afii10078" unicode="&#x43c;" horiz-adv-x="661" 
d="M47 0v567h182l105 -355l106 355h174v-567h-137v315l-91 -315h-116l-93 316v-316h-130z" />
    <glyph glyph-name="afii10079" unicode="&#x43d;" horiz-adv-x="562" 
d="M47 0v567h152v-206h166v206h149v-567h-149v223h-166v-223h-152z" />
    <glyph glyph-name="afii10080" unicode="&#x43e;" horiz-adv-x="551" 
d="M276 -9q-141 0 -195.5 74t-54.5 220q0 145 54 218.5t196 73.5q74 0 124 -20.5t76.5 -61t37.5 -90.5t11 -120q0 -73 -11 -123.5t-37.5 -91t-76.5 -60t-124 -19.5zM276 123q60 0 78.5 37t18.5 120q0 84 -18 120t-79 36t-79 -36t-18 -120q0 -83 18.5 -120t78.5 -37z" />
    <glyph glyph-name="afii10081" unicode="&#x43f;" horiz-adv-x="561" 
d="M47 0v567h467v-567h-149v438h-167v-438h-151z" />
    <glyph glyph-name="afii10082" unicode="&#x440;" horiz-adv-x="568" 
d="M48 -158v716l121 10l10 -45q45 54 173 54q49 0 84.5 -16t55.5 -41.5t31.5 -65.5t15 -78.5t3.5 -90.5q0 -66 -7.5 -113.5t-27 -90.5t-60 -65.5t-101.5 -22.5q-106 0 -147 44v-195h-151zM300 124q53 0 71 35t18 119q0 86 -17 122t-72 36q-62 0 -81.5 -37t-19.5 -121
t19 -119t82 -35z" />
    <glyph glyph-name="afii10083" unicode="&#x441;" horiz-adv-x="448" 
d="M264 -8q-136 0 -187 72t-51 221q0 73 10.5 123t37 90t76 59.5t123.5 19.5q94 0 157 -30l-66 -131q-38 20 -83 20q-57 0 -79 -35t-22 -121q0 -88 22 -122.5t82 -34.5q41 0 95 23l57 -115q-81 -39 -172 -39z" />
    <glyph glyph-name="afii10084" unicode="&#x442;" horiz-adv-x="505" 
d="M176 0v432h-161v135h475v-135h-161v-432h-153z" />
    <glyph glyph-name="afii10085" unicode="&#x443;" horiz-adv-x="498" 
d="M68 -158v121h64q19 0 27 5.5t12 18.5l3 13l-173 567h155l96 -348l95 348h149l-187 -611q-21 -69 -60.5 -91.5t-117.5 -22.5h-63z" />
    <glyph glyph-name="afii10086" unicode="&#x444;" horiz-adv-x="890" 
d="M369 -158v198q-47 -47 -153 -47q-60 0 -99.5 22.5t-58 67t-25 90.5t-6.5 113q0 43 3 76.5t10 68.5t21 60t35.5 45.5t53.5 30.5t73 10q107 0 146 -51v243h152v-239q45 47 153 47q49 0 84 -16t55 -41.5t31.5 -65.5t15 -78.5t3.5 -90.5t-4 -91.5t-16 -79t-33 -64.5
t-57.5 -41t-85.5 -16q-59 0 -91.5 12t-54.5 40v-203h-152zM268 124q62 0 81.5 37t19.5 122q0 83 -19 118.5t-82 35.5q-54 0 -71.5 -35.5t-17.5 -118.5q0 -86 17 -122.5t72 -36.5zM622 124q53 0 71 35t18 119q0 85 -17.5 121.5t-71.5 36.5q-60 0 -80.5 -35.5t-20.5 -115.5
v-22q1 -74 20.5 -106.5t80.5 -32.5z" />
    <glyph glyph-name="afii10087" unicode="&#x445;" horiz-adv-x="507" 
d="M341 0l-96 167l-89 -167h-154l168 298l-154 269h164l82 -144l75 144h154l-154 -275l167 -292h-163z" />
    <glyph glyph-name="afii10088" unicode="&#x446;" horiz-adv-x="604" 
d="M430 -166v166h-383v567h152v-440h166v440h149v-436h60v-297h-144z" />
    <glyph glyph-name="afii10089" unicode="&#x447;" horiz-adv-x="558" 
d="M357 0v185q-41 -58 -146 -58q-90 0 -131.5 53.5t-41.5 182.5v204h153v-173q0 -61 14 -90t58 -29q53 0 73 32t20 94v166h155v-567h-154z" />
    <glyph glyph-name="afii10090" unicode="&#x448;" horiz-adv-x="874" 
d="M47 0v567h152v-440h164v440h150v-440h164v440h150v-567h-780z" />
    <glyph glyph-name="afii10091" unicode="&#x449;" horiz-adv-x="916" 
d="M743 -166v166h-696v567h152v-440h164v440h150v-440h164v440h150v-436h60v-297h-144z" />
    <glyph glyph-name="afii10092" unicode="&#x44a;" horiz-adv-x="595" 
d="M94 0v434h-61v133h214v-138h106q117 0 163.5 -55t46.5 -154q0 -48 -9.5 -85t-32.5 -69t-67 -49t-108 -17h-252zM247 122h79q43 0 62 21.5t19 70.5q0 51 -18.5 71.5t-63.5 20.5h-78v-184z" />
    <glyph glyph-name="afii10093" unicode="&#x44b;" horiz-adv-x="777" 
d="M47 0v567h153v-138h106q117 0 163.5 -54.5t46.5 -154.5q0 -102 -47.5 -161t-168.5 -59h-253zM200 122h79q43 0 62.5 21.5t19.5 70.5q0 51 -18.5 71.5t-63.5 20.5h-79v-184zM579 0v567h151v-567h-151z" />
    <glyph glyph-name="afii10094" unicode="&#x44c;" horiz-adv-x="551" 
d="M50 0v567h153v-138h106q117 0 163.5 -54.5t46.5 -154.5q0 -102 -47.5 -161t-168.5 -59h-253zM203 122h79q43 0 62.5 21.5t19.5 70.5q0 51 -18.5 71.5t-63.5 20.5h-79v-184z" />
    <glyph glyph-name="afii10095" unicode="&#x44d;" horiz-adv-x="454" 
d="M191 -9q-92 0 -176 48l59 114q53 -31 97 -31q51 0 74 21.5t30 77.5h-175v118h175q-7 56 -30 79t-71 23t-90 -32l-65 128q69 42 163 42q141 0 193.5 -72t52.5 -222q0 -151 -52 -222.5t-185 -71.5z" />
    <glyph glyph-name="afii10096" unicode="&#x44e;" horiz-adv-x="761" 
d="M485 -9q-125 0 -180 59t-64 175h-43v-225h-151v567h151v-208h44q11 108 66 163t177 55q143 0 196.5 -74t53.5 -218q0 -148 -53 -221t-197 -73zM485 123q61 0 79.5 37t18.5 120q0 84 -18.5 120t-79.5 36q-60 0 -78.5 -36.5t-18.5 -119.5t18.5 -120t78.5 -37z" />
    <glyph glyph-name="afii10097" unicode="&#x44f;" horiz-adv-x="565" 
d="M45 0l81 180q-87 43 -87 181q0 205 196 205h284v-566h-152v158h-88l-71 -158h-163zM263 289h104v147h-103q-36 0 -52.5 -16t-16.5 -58t16 -57.5t52 -15.5z" />
    <glyph glyph-name="afii10071" unicode="&#x451;" horiz-adv-x="515" 
d="M92 620v134h134v-134h-134zM288 620v134h133v-134h-133zM267 -7q-73 0 -121.5 19t-74 59t-35.5 90t-10 124q0 146 54 219t191 73q65 0 108.5 -17.5t64.5 -49t31.5 -76.5t10 -100t-0.5 -118h-313q5 -52 26.5 -73t76.5 -21q79 0 149 33l57 -115q-88 -47 -214 -47zM267 445
q-53 0 -73 -26t-23 -86h181q-2 64 -16.5 88t-68.5 24z" />
    <glyph glyph-name="afii10099" unicode="&#x452;" horiz-adv-x="558" 
d="M-1 595v123h50v53h150v-53h75v-123h-75v-98q39 56 151 56q95 0 130 -54.5t35 -157.5v-320q0 -103 -38.5 -142t-142.5 -39h-22v121h9q28 1 35 12.5t7 52.5v278q0 57 -13.5 81t-58.5 24q-55 0 -73 -26t-18 -85v-298h-151v595h-50z" />
    <glyph glyph-name="afii10100" unicode="&#x453;" horiz-adv-x="442" 
d="M147 620l106 183h167l-144 -183h-129zM47 0v567h378v-133h-245v-434h-133z" />
    <glyph glyph-name="afii10101" unicode="&#x454;" horiz-adv-x="454" 
d="M263 -9q-133 0 -185 71.5t-52 222.5q0 150 52.5 222t193.5 72q94 0 163 -42l-65 -128q-42 32 -90 32t-71.5 -23t-29.5 -79h175v-118h-175q6 -55 29.5 -77t74.5 -22q44 0 97 31l59 -114q-84 -48 -176 -48z" />
    <glyph glyph-name="afii10102" unicode="&#x455;" horiz-adv-x="454" 
d="M231 -7q-143 0 -223 42l58 117q76 -37 165 -37q63 0 63 44q0 24 -19.5 36.5t-90.5 35.5q-57 19 -87.5 37.5t-49 51t-18.5 83.5q0 174 212 174q103 0 176 -30l-58 -125q-58 24 -124 24q-35 0 -48.5 -9.5t-13.5 -30.5q0 -20 19 -32t79 -32q92 -30 128 -66t36 -115
q0 -168 -204 -168z" />
    <glyph glyph-name="afii10103" unicode="&#x456;" horiz-adv-x="256" 
d="M52 0v567h151v-567h-151zM52 618v137h152v-137h-152z" />
    <glyph glyph-name="afii10104" unicode="&#x457;" horiz-adv-x="256" 
d="M-16 620v134h119v-134h-119zM152 620v134h119v-134h-119zM52 0v567h151v-567h-151z" />
    <glyph glyph-name="afii10105" unicode="&#x458;" horiz-adv-x="256" 
d="M1 -158v121h11q27 0 33.5 11.5t6.5 47.5v545h151v-550q0 -99 -37.5 -137t-141.5 -38h-23zM52 618v137h152v-137h-152z" />
    <glyph glyph-name="afii10106" unicode="&#x459;" horiz-adv-x="901" 
d="M404 0v440h-165v-275q0 -95 -36 -131t-114 -36q-49 0 -59 2v131h11q32 1 39.5 11t7.5 43v382h466v-138h105q117 0 163.5 -54.5t46.5 -154.5q0 -102 -47.5 -161t-168.5 -59h-249zM554 122h78q43 0 62.5 21.5t19.5 70.5q0 51 -18.5 71.5t-63.5 20.5h-78v-184z" />
    <glyph glyph-name="afii10107" unicode="&#x45a;" horiz-adv-x="860" 
d="M47 0v567h151v-206h166v206h149v-138h106q116 0 162.5 -54.5t46.5 -154.5q0 -102 -47.5 -161t-168.5 -59h-248v223h-166v-223h-151zM513 122h79q43 0 62 21.5t19 70.5q0 51 -18.5 71.5t-63.5 20.5h-78v-184z" />
    <glyph glyph-name="afii10108" unicode="&#x45b;" horiz-adv-x="558" 
d="M-1 595v123h50v53h150v-53h75v-123h-75v-98q39 56 151 56q95 0 130 -54.5t35 -157.5v-341h-152v304q0 57 -13.5 81t-58.5 24q-55 0 -73 -26t-18 -85v-298h-151v595h-50z" />
    <glyph glyph-name="afii10109" unicode="&#x45c;" horiz-adv-x="521" 
d="M47 0v567h149v-199h39l116 199h156l-160 -256l172 -311h-158l-126 242h-39v-242h-149zM199 620l106 183h167l-144 -183h-129z" />
    <glyph glyph-name="afii10110" unicode="&#x45e;" horiz-adv-x="495" 
d="M68 -158v121h64q19 0 27 5.5t12 18.5l3 13l-173 567h155l96 -348l95 348h149l-187 -611q-21 -69 -60.5 -91.5t-117.5 -22.5h-63zM251 614q-96 0 -133.5 41t-50.5 136l108 16q8 -46 23 -62.5t53 -16.5t53.5 16.5t22.5 62.5l109 -15q-14 -97 -51.5 -137.5t-133.5 -40.5z
" />
    <glyph glyph-name="afii10193" unicode="&#x45f;" horiz-adv-x="593" 
d="M208 -166v166h-161v567h151v-440h167v440h149v-567h-162v-166h-144z" />
    <glyph glyph-name="afii10050" unicode="&#x490;" horiz-adv-x="582" 
d="M59 0v741h350v160h164v-303h-358v-598h-156z" />
    <glyph glyph-name="afii10098" unicode="&#x491;" horiz-adv-x="442" 
d="M47 0v567h253v166h125v-299h-245v-434h-133z" />
    <glyph glyph-name="Wgrave" unicode="&#x1e80;" horiz-adv-x="899" 
d="M187 -5l-166 746h160l96 -450l107 450h139l108 -450l96 450h150l-165 -746h-154l-108 442l-108 -442h-155zM395 779l-145 183h168l106 -183h-129z" />
    <glyph glyph-name="wgrave" unicode="&#x1e81;" horiz-adv-x="761" 
d="M148 -5l-138 572h153l69 -332l83 332h139l82 -326l70 326h145l-137 -572h-148l-85 318l-83 -318h-150zM329 620l-145 183h168l106 -183h-129z" />
    <glyph glyph-name="Wacute" unicode="&#x1e82;" horiz-adv-x="899" 
d="M383 779l106 183h167l-144 -183h-129zM187 -5l-166 746h160l96 -450l107 450h139l108 -450l96 450h150l-165 -746h-154l-108 442l-108 -442h-155z" />
    <glyph glyph-name="wacute" unicode="&#x1e83;" horiz-adv-x="761" 
d="M319 620l106 183h167l-144 -183h-129zM148 -5l-138 572h153l69 -332l83 332h139l82 -326l70 326h145l-137 -572h-148l-85 318l-83 -318h-150z" />
    <glyph glyph-name="Wdieresis" unicode="&#x1e84;" horiz-adv-x="899" 
d="M285 779v134h134v-134h-134zM481 779v134h133v-134h-133zM187 -5l-166 746h160l96 -450l107 450h139l108 -450l96 450h150l-165 -746h-154l-108 442l-108 -442h-155z" />
    <glyph glyph-name="wdieresis" unicode="&#x1e85;" horiz-adv-x="761" 
d="M219 620v134h134v-134h-134zM415 620v134h133v-134h-133zM148 -5l-138 572h153l69 -332l83 332h139l82 -326l70 326h145l-137 -572h-148l-85 318l-83 -318h-150z" />
    <glyph glyph-name="uni1EA0" unicode="&#x1ea0;" horiz-adv-x="656" 
d="M13 0l231 746h168l231 -746h-161l-34 115h-245l-33 -115h-157zM240 253h170l-84 281zM252 -195v137h152v-137h-152z" />
    <glyph glyph-name="uni1EA1" unicode="&#x1ea1;" horiz-adv-x="545" 
d="M202 -7q-103 0 -141 46t-38 132q0 116 67 160t224 44h20q-2 37 -18 52t-57 15q-82 0 -144 -30l-61 122q87 45 222 45q115 0 159.5 -43t44.5 -150v-211q0 -28 6.5 -36t32.5 -8v-131q-16 -2 -45 -2q-56 0 -80 9t-36 38q-43 -52 -156 -52zM237 117q48 0 72.5 22t24.5 77v52
h-19q-86 0 -117 -16t-31 -64q0 -38 16 -54.5t54 -16.5zM187 -195v137h152v-137h-152z" />
    <glyph glyph-name="uni1EA2" unicode="&#x1ea2;" horiz-adv-x="656" 
d="M13 0l231 746h168l231 -746h-161l-34 115h-245l-33 -115h-157zM240 253h170l-84 281zM280 775q-6 35 5 59.5t47 52.5q32 25 35 33q2 4 2 11q0 27 -42 27q-35 0 -79 -21l-44 85q54 28 130 28q69 0 104.5 -28t35.5 -74q0 -37 -12.5 -58.5t-39.5 -42.5q-26 -21 -36.5 -36
t-10.5 -36h-95z" />
    <glyph glyph-name="uni1EA3" unicode="&#x1ea3;" horiz-adv-x="545" 
d="M202 -7q-103 0 -141 46t-38 132q0 116 67 160t224 44h20q-2 37 -18 52t-57 15q-82 0 -144 -30l-61 122q87 45 222 45q115 0 159.5 -43t44.5 -150v-211q0 -28 6.5 -36t32.5 -8v-131q-16 -2 -45 -2q-56 0 -80 9t-36 38q-43 -52 -156 -52zM237 117q48 0 72.5 22t24.5 77v52
h-19q-86 0 -117 -16t-31 -64q0 -38 16 -54.5t54 -16.5zM221 616q-6 35 5 59.5t47 52.5q32 25 35 33q2 4 2 11q0 27 -42 27q-35 0 -79 -21l-44 85q54 28 130 28q69 0 104.5 -28t35.5 -74q0 -37 -12.5 -58.5t-39.5 -42.5q-26 -21 -36.5 -36t-10.5 -36h-95z" />
    <glyph glyph-name="uni1EA4" unicode="&#x1ea4;" horiz-adv-x="656" 
d="M13 0l231 746h168l231 -746h-161l-34 115h-245l-33 -115h-157zM240 253h170l-84 281zM148 779l109 183h140l109 -183h-120l-61 79l-60 -79h-117zM12 881l107 184h167l-145 -184h-129z" />
    <glyph glyph-name="uni1EA5" unicode="&#x1ea5;" horiz-adv-x="545" 
d="M202 -7q-103 0 -141 46t-38 132q0 116 67 160t224 44h20q-2 37 -18 52t-57 15q-82 0 -144 -30l-61 122q87 45 222 45q115 0 159.5 -43t44.5 -150v-211q0 -28 6.5 -36t32.5 -8v-131q-16 -2 -45 -2q-56 0 -80 9t-36 38q-43 -52 -156 -52zM237 117q48 0 72.5 22t24.5 77v52
h-19q-86 0 -117 -16t-31 -64q0 -38 16 -54.5t54 -16.5zM93 620l109 183h140l109 -183h-120l-61 79l-60 -79h-117zM-43 722l107 184h167l-145 -184h-129z" />
    <glyph glyph-name="uni1EA6" unicode="&#x1ea6;" horiz-adv-x="656" 
d="M13 0l231 746h168l231 -746h-161l-34 115h-245l-33 -115h-157zM240 253h170l-84 281zM148 779l110 183h139l109 -183h-120l-60 79l-60 -79h-118zM514 881l-145 184h167l107 -184h-129z" />
    <glyph glyph-name="uni1EA7" unicode="&#x1ea7;" horiz-adv-x="545" 
d="M202 -7q-103 0 -141 46t-38 132q0 116 67 160t224 44h20q-2 37 -18 52t-57 15q-82 0 -144 -30l-61 122q87 45 222 45q115 0 159.5 -43t44.5 -150v-211q0 -28 6.5 -36t32.5 -8v-131q-16 -2 -45 -2q-56 0 -80 9t-36 38q-43 -52 -156 -52zM237 117q48 0 72.5 22t24.5 77v52
h-19q-86 0 -117 -16t-31 -64q0 -38 16 -54.5t54 -16.5zM93 620l110 183h139l109 -183h-120l-60 79l-60 -79h-118zM459 722l-145 184h167l107 -184h-129z" />
    <glyph glyph-name="uni1EA8" unicode="&#x1ea8;" horiz-adv-x="656" 
d="M13 0l231 746h168l231 -746h-161l-34 115h-245l-33 -115h-157zM240 253h170l-84 281zM148 779l110 183h139l109 -183h-120l-60 79l-60 -79h-118zM280 986q-6 35 5 59t48 52q23 18 29.5 26t6.5 19q0 26 -42 26q-38 0 -78 -21l-44 86q56 27 130 27q69 0 104.5 -28t35.5 -74
q0 -36 -12.5 -57.5t-40.5 -42.5q-26 -21 -36 -36t-11 -36h-95z" />
    <glyph glyph-name="uni1EA9" unicode="&#x1ea9;" horiz-adv-x="545" 
d="M202 -7q-103 0 -141 46t-38 132q0 116 67 160t224 44h20q-2 37 -18 52t-57 15q-82 0 -144 -30l-61 122q87 45 222 45q115 0 159.5 -43t44.5 -150v-211q0 -28 6.5 -36t32.5 -8v-131q-16 -2 -45 -2q-56 0 -80 9t-36 38q-43 -52 -156 -52zM237 117q48 0 72.5 22t24.5 77v52
h-19q-86 0 -117 -16t-31 -64q0 -38 16 -54.5t54 -16.5zM93 620l110 183h139l109 -183h-120l-60 79l-60 -79h-118zM225 827q-6 35 5 59t48 52q23 18 29.5 26t6.5 19q0 26 -42 26q-38 0 -78 -21l-44 86q56 27 130 27q69 0 104.5 -28t35.5 -74q0 -36 -12.5 -57.5t-40.5 -42.5
q-26 -21 -36 -36t-11 -36h-95z" />
    <glyph glyph-name="uni1EAA" unicode="&#x1eaa;" horiz-adv-x="656" 
d="M13 0l231 746h168l231 -746h-161l-34 115h-245l-33 -115h-157zM240 253h170l-84 281zM149 779l109 183h139l110 -183h-120l-61 79l-60 -79h-117zM214 984l-97 56q56 110 146 110q30 0 68.5 -21t49.5 -21q30 0 63 47l97 -56q-30 -58 -64.5 -84t-81.5 -26q-30 0 -68.5 20.5
t-49.5 20.5q-31 0 -63 -46z" />
    <glyph glyph-name="uni1EAB" unicode="&#x1eab;" horiz-adv-x="545" 
d="M202 -7q-103 0 -141 46t-38 132q0 116 67 160t224 44h20q-2 37 -18 52t-57 15q-82 0 -144 -30l-61 122q87 45 222 45q115 0 159.5 -43t44.5 -150v-211q0 -28 6.5 -36t32.5 -8v-131q-16 -2 -45 -2q-56 0 -80 9t-36 38q-43 -52 -156 -52zM237 117q48 0 72.5 22t24.5 77v52
h-19q-86 0 -117 -16t-31 -64q0 -38 16 -54.5t54 -16.5zM93 620l109 183h139l110 -183h-120l-61 79l-60 -79h-117zM158 825l-97 56q56 110 146 110q30 0 68.5 -21t49.5 -21q30 0 63 47l97 -56q-30 -58 -64.5 -84t-81.5 -26q-30 0 -68.5 20.5t-49.5 20.5q-31 0 -63 -46z" />
    <glyph glyph-name="uni1EAC" unicode="&#x1eac;" horiz-adv-x="656" 
d="M13 0l231 746h168l231 -746h-161l-34 115h-245l-33 -115h-157zM240 253h170l-84 281zM149 779l109 183h139l110 -183h-120l-61 79l-60 -79h-117zM265 -195v137h152v-137h-152z" />
    <glyph glyph-name="uni1EAD" unicode="&#x1ead;" horiz-adv-x="545" 
d="M202 -7q-103 0 -141 46t-38 132q0 116 67 160t224 44h20q-2 37 -18 52t-57 15q-82 0 -144 -30l-61 122q87 45 222 45q115 0 159.5 -43t44.5 -150v-211q0 -28 6.5 -36t32.5 -8v-131q-16 -2 -45 -2q-56 0 -80 9t-36 38q-43 -52 -156 -52zM237 117q48 0 72.5 22t24.5 77v52
h-19q-86 0 -117 -16t-31 -64q0 -38 16 -54.5t54 -16.5zM94 620l109 183h139l110 -183h-120l-61 79l-60 -79h-117zM195 -195v137h152v-137h-152z" />
    <glyph glyph-name="uni1EAE" unicode="&#x1eae;" horiz-adv-x="656" 
d="M13 0l231 746h168l231 -746h-161l-34 115h-245l-33 -115h-157zM240 253h170l-84 281zM327 773q-96 0 -133.5 41t-50.5 136l108 16q8 -46 23 -62.5t53 -16.5t53.5 16.5t22.5 62.5l109 -15q-14 -97 -51.5 -137.5t-133.5 -40.5zM263 997l107 183h167l-145 -183h-129z" />
    <glyph glyph-name="uni1EAF" unicode="&#x1eaf;" horiz-adv-x="545" 
d="M202 -7q-103 0 -141 46t-38 132q0 116 67 160t224 44h20q-2 37 -18 52t-57 15q-82 0 -144 -30l-61 122q87 45 222 45q115 0 159.5 -43t44.5 -150v-211q0 -28 6.5 -36t32.5 -8v-131q-16 -2 -45 -2q-56 0 -80 9t-36 38q-43 -52 -156 -52zM237 117q48 0 72.5 22t24.5 77v52
h-19q-86 0 -117 -16t-31 -64q0 -38 16 -54.5t54 -16.5zM272 614q-96 0 -133.5 41t-50.5 136l108 16q8 -46 23 -62.5t53 -16.5t53.5 16.5t22.5 62.5l109 -15q-14 -97 -51.5 -137.5t-133.5 -40.5zM208 838l107 183h167l-145 -183h-129z" />
    <glyph glyph-name="uni1EB0" unicode="&#x1eb0;" horiz-adv-x="656" 
d="M13 0l231 746h168l231 -746h-161l-34 115h-245l-33 -115h-157zM240 253h170l-84 281zM327 773q-96 0 -134 41t-50 136l107 16q8 -46 23.5 -62.5t53.5 -16.5t53 16.5t23 62.5l109 -15q-14 -97 -52 -137.5t-133 -40.5zM265 997l-145 183h167l106 -183h-128z" />
    <glyph glyph-name="uni1EB1" unicode="&#x1eb1;" horiz-adv-x="545" 
d="M202 -7q-103 0 -141 46t-38 132q0 116 67 160t224 44h20q-2 37 -18 52t-57 15q-82 0 -144 -30l-61 122q87 45 222 45q115 0 159.5 -43t44.5 -150v-211q0 -28 6.5 -36t32.5 -8v-131q-16 -2 -45 -2q-56 0 -80 9t-36 38q-43 -52 -156 -52zM237 117q48 0 72.5 22t24.5 77v52
h-19q-86 0 -117 -16t-31 -64q0 -38 16 -54.5t54 -16.5zM272 614q-96 0 -134 41t-50 136l107 16q8 -46 23.5 -62.5t53.5 -16.5t53 16.5t23 62.5l109 -15q-14 -97 -52 -137.5t-133 -40.5zM210 838l-145 183h167l106 -183h-128z" />
    <glyph glyph-name="uni1EB2" unicode="&#x1eb2;" horiz-adv-x="656" 
d="M13 0l231 746h168l231 -746h-161l-34 115h-245l-33 -115h-157zM240 253h170l-84 281zM327 773q-96 0 -134 41t-50 136l107 16q8 -46 23.5 -62.5t53.5 -16.5t53 16.5t23 62.5l109 -15q-14 -97 -51.5 -137.5t-133.5 -40.5zM279 986q-6 35 5 59t48 52q23 18 29.5 26t6.5 19
q0 26 -42 26q-38 0 -78 -21l-44 86q53 27 130 27q69 0 104.5 -28t35.5 -74q0 -36 -12.5 -57.5t-40.5 -42.5q-46 -36 -47 -72h-95z" />
    <glyph glyph-name="uni1EB3" unicode="&#x1eb3;" horiz-adv-x="545" 
d="M202 -7q-103 0 -141 46t-38 132q0 116 67 160t224 44h20q-2 37 -18 52t-57 15q-82 0 -144 -30l-61 122q87 45 222 45q115 0 159.5 -43t44.5 -150v-211q0 -28 6.5 -36t32.5 -8v-131q-16 -2 -45 -2q-56 0 -80 9t-36 38q-43 -52 -156 -52zM237 117q48 0 72.5 22t24.5 77v52
h-19q-86 0 -117 -16t-31 -64q0 -38 16 -54.5t54 -16.5zM272 614q-96 0 -134 41t-50 136l107 16q8 -46 23.5 -62.5t53.5 -16.5t53 16.5t23 62.5l109 -15q-14 -97 -51.5 -137.5t-133.5 -40.5zM224 827q-6 35 5 59t48 52q23 18 29.5 26t6.5 19q0 26 -42 26q-38 0 -78 -21
l-44 86q53 27 130 27q69 0 104.5 -28t35.5 -74q0 -36 -12.5 -57.5t-40.5 -42.5q-46 -36 -47 -72h-95z" />
    <glyph glyph-name="uni1EB4" unicode="&#x1eb4;" horiz-adv-x="656" 
d="M13 0l231 746h168l231 -746h-161l-34 115h-245l-33 -115h-157zM240 253h170l-84 281zM327 773q-96 0 -134 41t-50 136l107 16q8 -46 23.5 -62.5t53.5 -16.5t53 16.5t23 62.5l109 -15q-14 -97 -51.5 -137.5t-133.5 -40.5zM212 987l-97 56q56 110 146 110q30 0 68.5 -21
t49.5 -21q28 0 63 47l96 -56q-30 -58 -64 -84.5t-81 -26.5q-30 0 -68.5 21t-49.5 21q-31 0 -63 -46z" />
    <glyph glyph-name="uni1EB5" unicode="&#x1eb5;" horiz-adv-x="545" 
d="M202 -7q-103 0 -141 46t-38 132q0 116 67 160t224 44h20q-2 37 -18 52t-57 15q-82 0 -144 -30l-61 122q87 45 222 45q115 0 159.5 -43t44.5 -150v-211q0 -28 6.5 -36t32.5 -8v-131q-16 -2 -45 -2q-56 0 -80 9t-36 38q-43 -52 -156 -52zM237 117q48 0 72.5 22t24.5 77v52
h-19q-86 0 -117 -16t-31 -64q0 -38 16 -54.5t54 -16.5zM272 614q-96 0 -134 41t-50 136l107 16q8 -46 23.5 -62.5t53.5 -16.5t53 16.5t23 62.5l109 -15q-14 -97 -51.5 -137.5t-133.5 -40.5zM157 828l-97 56q56 110 146 110q30 0 68.5 -21t49.5 -21q28 0 63 47l96 -56
q-30 -58 -64 -84.5t-81 -26.5q-30 0 -68.5 21t-49.5 21q-31 0 -63 -46z" />
    <glyph glyph-name="uni1EB6" unicode="&#x1eb6;" horiz-adv-x="656" 
d="M13 0l231 746h168l231 -746h-161l-34 115h-245l-33 -115h-157zM240 253h170l-84 281zM265 -195v137h152v-137h-152zM327 773q-96 0 -133.5 41t-50.5 136l108 16q8 -46 23 -62.5t53 -16.5t53.5 16.5t22.5 62.5l109 -15q-14 -97 -51.5 -137.5t-133.5 -40.5z" />
    <glyph glyph-name="uni1EB7" unicode="&#x1eb7;" horiz-adv-x="545" 
d="M202 -7q-103 0 -141 46t-38 132q0 116 67 160t224 44h20q-2 37 -18 52t-57 15q-82 0 -144 -30l-61 122q87 45 222 45q115 0 159.5 -43t44.5 -150v-211q0 -28 6.5 -36t32.5 -8v-131q-16 -2 -45 -2q-56 0 -80 9t-36 38q-43 -52 -156 -52zM237 117q48 0 72.5 22t24.5 77v52
h-19q-86 0 -117 -16t-31 -64q0 -38 16 -54.5t54 -16.5zM194 -195v137h152v-137h-152zM272 614q-96 0 -133.5 41t-50.5 136l108 16q8 -46 23 -62.5t53 -16.5t53.5 16.5t22.5 62.5l109 -15q-14 -97 -51.5 -137.5t-133.5 -40.5z" />
    <glyph glyph-name="uni1EB8" unicode="&#x1eb8;" horiz-adv-x="557" 
d="M58 0v741h457v-143h-304v-148h291v-142h-291v-168h305v-140h-458zM217 -195v137h152v-137h-152z" />
    <glyph glyph-name="uni1EB9" unicode="&#x1eb9;" horiz-adv-x="515" 
d="M267 -7q-73 0 -121.5 19t-74 59t-35.5 90t-10 124q0 146 54 219t191 73q65 0 108.5 -17.5t64.5 -49t31.5 -76.5t10 -100t-0.5 -118h-313q5 -52 26.5 -73t76.5 -21q79 0 149 33l57 -115q-88 -47 -214 -47zM267 445q-53 0 -73 -26t-23 -86h181q-2 64 -16.5 88t-68.5 24z
M192 -195v137h152v-137h-152z" />
    <glyph glyph-name="uni1EBA" unicode="&#x1eba;" horiz-adv-x="557" 
d="M58 0v741h457v-143h-304v-148h291v-142h-291v-168h305v-140h-458zM241 775q-6 35 5 59.5t47 52.5q32 25 35 33q2 4 2 11q0 27 -42 27q-35 0 -79 -21l-44 85q54 28 130 28q69 0 104.5 -28t35.5 -74q0 -37 -12.5 -58.5t-39.5 -42.5q-26 -21 -36.5 -36t-10.5 -36h-95z" />
    <glyph glyph-name="uni1EBB" unicode="&#x1ebb;" horiz-adv-x="515" 
d="M267 -7q-73 0 -121.5 19t-74 59t-35.5 90t-10 124q0 146 54 219t191 73q65 0 108.5 -17.5t64.5 -49t31.5 -76.5t10 -100t-0.5 -118h-313q5 -52 26.5 -73t76.5 -21q79 0 149 33l57 -115q-88 -47 -214 -47zM267 445q-53 0 -73 -26t-23 -86h181q-2 64 -16.5 88t-68.5 24z
M216 616q-6 35 5 59.5t47 52.5q32 25 35 33q2 4 2 11q0 27 -42 27q-35 0 -79 -21l-44 85q54 28 130 28q69 0 104.5 -28t35.5 -74q0 -37 -12.5 -58.5t-39.5 -42.5q-26 -21 -36.5 -36t-10.5 -36h-95z" />
    <glyph glyph-name="uni1EBC" unicode="&#x1ebc;" horiz-adv-x="557" 
d="M58 0v741h457v-143h-304v-148h291v-142h-291v-168h305v-140h-458zM174 795l-97 56q56 110 146 110q29 0 68 -21.5t50 -21.5q28 0 63 48l96 -56q-30 -58 -64 -84.5t-81 -26.5q-30 0 -68.5 21t-49.5 21q-31 0 -63 -46z" />
    <glyph glyph-name="uni1EBD" unicode="&#x1ebd;" horiz-adv-x="515" 
d="M267 -7q-73 0 -121.5 19t-74 59t-35.5 90t-10 124q0 146 54 219t191 73q65 0 108.5 -17.5t64.5 -49t31.5 -76.5t10 -100t-0.5 -118h-313q5 -52 26.5 -73t76.5 -21q79 0 149 33l57 -115q-88 -47 -214 -47zM267 445q-53 0 -73 -26t-23 -86h181q-2 64 -16.5 88t-68.5 24z
M148 615l-97 56q56 110 146 110q29 0 68 -21.5t50 -21.5q28 0 63 48l96 -56q-30 -58 -64 -84.5t-81 -26.5q-30 0 -68.5 21t-49.5 21q-31 0 -63 -46z" />
    <glyph glyph-name="uni1EBE" unicode="&#x1ebe;" horiz-adv-x="557" 
d="M107 779l109 183h140l109 -183h-120l-61 79l-60 -79h-117zM-29 881l107 184h167l-145 -184h-129zM58 0v741h457v-143h-304v-148h291v-142h-291v-168h305v-140h-458z" />
    <glyph glyph-name="uni1EBF" unicode="&#x1ebf;" horiz-adv-x="515" 
d="M78 620l109 183h140l109 -183h-120l-61 79l-60 -79h-117zM-58 722l107 184h167l-145 -184h-129zM267 -7q-73 0 -121.5 19t-74 59t-35.5 90t-10 124q0 146 54 219t191 73q65 0 108.5 -17.5t64.5 -49t31.5 -76.5t10 -100t-0.5 -118h-313q5 -52 26.5 -73t76.5 -21
q79 0 149 33l57 -115q-88 -47 -214 -47zM267 445q-53 0 -73 -26t-23 -86h181q-2 64 -16.5 88t-68.5 24z" />
    <glyph glyph-name="uni1EC0" unicode="&#x1ec0;" horiz-adv-x="557" 
d="M107 779l110 183h139l109 -183h-120l-60 79l-60 -79h-118zM473 881l-145 184h167l107 -184h-129zM58 0v741h457v-143h-304v-148h291v-142h-291v-168h305v-140h-458z" />
    <glyph glyph-name="uni1EC1" unicode="&#x1ec1;" horiz-adv-x="515" 
d="M78 620l110 183h139l109 -183h-120l-60 79l-60 -79h-118zM444 722l-145 184h167l107 -184h-129zM267 -7q-73 0 -121.5 19t-74 59t-35.5 90t-10 124q0 146 54 219t191 73q65 0 108.5 -17.5t64.5 -49t31.5 -76.5t10 -100t-0.5 -118h-313q5 -52 26.5 -73t76.5 -21
q79 0 149 33l57 -115q-88 -47 -214 -47zM267 445q-53 0 -73 -26t-23 -86h181q-2 64 -16.5 88t-68.5 24z" />
    <glyph glyph-name="uni1EC2" unicode="&#x1ec2;" horiz-adv-x="557" 
d="M58 0v741h457v-143h-304v-148h291v-142h-291v-168h305v-140h-458zM107 779l110 183h139l109 -183h-120l-60 79l-60 -79h-118zM239 986q-6 35 5 59t48 52q23 18 29.5 26t6.5 19q0 26 -42 26q-38 0 -78 -21l-44 86q56 27 130 27q69 0 104.5 -28t35.5 -74q0 -36 -12.5 -57.5
t-40.5 -42.5q-26 -21 -36 -36t-11 -36h-95z" />
    <glyph glyph-name="uni1EC3" unicode="&#x1ec3;" horiz-adv-x="515" 
d="M267 -7q-73 0 -121.5 19t-74 59t-35.5 90t-10 124q0 146 54 219t191 73q65 0 108.5 -17.5t64.5 -49t31.5 -76.5t10 -100t-0.5 -118h-313q5 -52 26.5 -73t76.5 -21q79 0 149 33l57 -115q-88 -47 -214 -47zM267 445q-53 0 -73 -26t-23 -86h181q-2 64 -16.5 88t-68.5 24z
M78 620l110 183h139l109 -183h-120l-60 79l-60 -79h-118zM210 827q-6 35 5 59t48 52q23 18 29.5 26t6.5 19q0 26 -42 26q-38 0 -78 -21l-44 86q56 27 130 27q69 0 104.5 -28t35.5 -74q0 -36 -12.5 -57.5t-40.5 -42.5q-26 -21 -36 -36t-11 -36h-95z" />
    <glyph glyph-name="uni1EC4" unicode="&#x1ec4;" horiz-adv-x="557" 
d="M58 0v741h457v-143h-304v-148h291v-142h-291v-168h305v-140h-458zM108 779l109 183h139l110 -183h-120l-61 79l-60 -79h-117zM173 984l-97 56q56 110 146 110q30 0 68.5 -21t49.5 -21q30 0 63 47l97 -56q-30 -58 -64.5 -84t-81.5 -26q-30 0 -68.5 20.5t-49.5 20.5
q-31 0 -63 -46z" />
    <glyph glyph-name="uni1EC5" unicode="&#x1ec5;" horiz-adv-x="515" 
d="M267 -7q-73 0 -121.5 19t-74 59t-35.5 90t-10 124q0 146 54 219t191 73q65 0 108.5 -17.5t64.5 -49t31.5 -76.5t10 -100t-0.5 -118h-313q5 -52 26.5 -73t76.5 -21q79 0 149 33l57 -115q-88 -47 -214 -47zM267 445q-53 0 -73 -26t-23 -86h181q-2 64 -16.5 88t-68.5 24z
M78 620l109 183h139l110 -183h-120l-61 79l-60 -79h-117zM143 825l-97 56q56 110 146 110q30 0 68.5 -21t49.5 -21q30 0 63 47l97 -56q-30 -58 -64.5 -84t-81.5 -26q-30 0 -68.5 20.5t-49.5 20.5q-31 0 -63 -46z" />
    <glyph glyph-name="uni1EC6" unicode="&#x1ec6;" horiz-adv-x="557" 
d="M108 779l109 183h139l110 -183h-120l-61 79l-60 -79h-117zM58 0v741h457v-143h-304v-148h291v-142h-291v-168h305v-140h-458zM217 -195v137h152v-137h-152z" />
    <glyph glyph-name="uni1EC7" unicode="&#x1ec7;" horiz-adv-x="515" 
d="M78 620l109 183h139l110 -183h-120l-61 79l-60 -79h-117zM267 -7q-73 0 -121.5 19t-74 59t-35.5 90t-10 124q0 146 54 219t191 73q65 0 108.5 -17.5t64.5 -49t31.5 -76.5t10 -100t-0.5 -118h-313q5 -52 26.5 -73t76.5 -21q79 0 149 33l57 -115q-88 -47 -214 -47zM267 445
q-53 0 -73 -26t-23 -86h181q-2 64 -16.5 88t-68.5 24zM192 -195v137h152v-137h-152z" />
    <glyph glyph-name="uni1EC8" unicode="&#x1ec8;" horiz-adv-x="290" 
d="M67 0v741h156v-741h-156zM99 775q-6 35 5 59.5t47 52.5q32 25 35 33q2 4 2 11q0 27 -42 27q-35 0 -79 -21l-44 85q54 28 130 28q69 0 104.5 -28t35.5 -74q0 -37 -12.5 -58.5t-39.5 -42.5q-26 -21 -36.5 -36t-10.5 -36h-95z" />
    <glyph glyph-name="uni1EC9" unicode="&#x1ec9;" horiz-adv-x="256" 
d="M52 0v567h151v-567h-151zM80 616q-6 35 5 59.5t47 52.5q32 25 35 33q2 4 2 11q0 27 -42 27q-35 0 -79 -21l-44 85q54 28 130 28q69 0 104.5 -28t35.5 -74q0 -37 -12.5 -58.5t-39.5 -42.5q-26 -21 -36.5 -36t-10.5 -36h-95z" />
    <glyph glyph-name="uni1ECA" unicode="&#x1eca;" horiz-adv-x="290" 
d="M67 0v741h156v-741h-156zM70 -195v137h152v-137h-152z" />
    <glyph glyph-name="uni1ECB" unicode="&#x1ecb;" horiz-adv-x="256" 
d="M52 0v567h151v-567h-151zM52 618v137h152v-137h-152zM52 -195v137h152v-137h-152z" />
    <glyph glyph-name="uni1ECC" unicode="&#x1ecc;" 
d="M334 -9q-77 0 -133.5 21t-89.5 54t-52 84.5t-25.5 102t-6.5 117.5t6.5 118t25.5 102.5t52 84.5t89.5 54t133.5 21t133.5 -21t89.5 -54t52 -84.5t25.5 -102.5t6.5 -118t-6.5 -117.5t-25.5 -102t-52 -84.5t-89.5 -54t-133.5 -21zM334 130q39 0 66 11.5t43 30t25 50.5
t11.5 64t2.5 79q0 46 -2.5 78t-11.5 64t-25 50.5t-43 30t-66 11.5t-66 -11.5t-43 -30t-25 -50.5t-11.5 -64t-2.5 -78q0 -47 2.5 -79t11.5 -64t25 -50.5t43 -30t66 -11.5zM258 -195v137h152v-137h-152z" />
    <glyph glyph-name="uni1ECD" unicode="&#x1ecd;" horiz-adv-x="551" 
d="M276 -9q-141 0 -195.5 74t-54.5 220q0 145 54 218.5t196 73.5q74 0 124 -20.5t76.5 -61t37.5 -90.5t11 -120q0 -73 -11 -123.5t-37.5 -91t-76.5 -60t-124 -19.5zM276 123q60 0 78.5 37t18.5 120q0 84 -18 120t-79 36t-79 -36t-18 -120q0 -83 18.5 -120t78.5 -37z
M199 -195v137h152v-137h-152z" />
    <glyph glyph-name="uni1ECE" unicode="&#x1ece;" 
d="M334 -9q-77 0 -133.5 21t-89.5 54t-52 84.5t-25.5 102t-6.5 117.5t6.5 118t25.5 102.5t52 84.5t89.5 54t133.5 21t133.5 -21t89.5 -54t52 -84.5t25.5 -102.5t6.5 -118t-6.5 -117.5t-25.5 -102t-52 -84.5t-89.5 -54t-133.5 -21zM334 130q39 0 66 11.5t43 30t25 50.5
t11.5 64t2.5 79q0 46 -2.5 78t-11.5 64t-25 50.5t-43 30t-66 11.5t-66 -11.5t-43 -30t-25 -50.5t-11.5 -64t-2.5 -78q0 -47 2.5 -79t11.5 -64t25 -50.5t43 -30t66 -11.5zM286 780q-6 35 5 59.5t47 52.5q32 25 35 33q2 4 2 11q0 27 -42 27q-35 0 -79 -21l-44 85q54 28 130 28
q69 0 104.5 -28t35.5 -74q0 -37 -12.5 -58.5t-39.5 -42.5q-26 -21 -36.5 -36t-10.5 -36h-95z" />
    <glyph glyph-name="uni1ECF" unicode="&#x1ecf;" horiz-adv-x="551" 
d="M276 -9q-141 0 -195.5 74t-54.5 220q0 145 54 218.5t196 73.5q74 0 124 -20.5t76.5 -61t37.5 -90.5t11 -120q0 -73 -11 -123.5t-37.5 -91t-76.5 -60t-124 -19.5zM276 123q60 0 78.5 37t18.5 120q0 84 -18 120t-79 36t-79 -36t-18 -120q0 -83 18.5 -120t78.5 -37zM227 616
q-6 35 5 59.5t47 52.5q32 25 35 33q2 4 2 11q0 27 -42 27q-35 0 -79 -21l-44 85q54 28 130 28q69 0 104.5 -28t35.5 -74q0 -37 -12.5 -58.5t-39.5 -42.5q-26 -21 -36.5 -36t-10.5 -36h-95z" />
    <glyph glyph-name="uni1ED0" unicode="&#x1ed0;" 
d="M154 779l109 183h140l109 -183h-120l-61 79l-60 -79h-117zM18 881l107 184h167l-145 -184h-129zM334 -9q-77 0 -133.5 21t-89.5 54t-52 84.5t-25.5 102t-6.5 117.5t6.5 118t25.5 102.5t52 84.5t89.5 54t133.5 21t133.5 -21t89.5 -54t52 -84.5t25.5 -102.5t6.5 -118
t-6.5 -117.5t-25.5 -102t-52 -84.5t-89.5 -54t-133.5 -21zM334 130q39 0 66 11.5t43 30t25 50.5t11.5 64t2.5 79q0 46 -2.5 78t-11.5 64t-25 50.5t-43 30t-66 11.5t-66 -11.5t-43 -30t-25 -50.5t-11.5 -64t-2.5 -78q0 -47 2.5 -79t11.5 -64t25 -50.5t43 -30t66 -11.5z" />
    <glyph glyph-name="uni1ED1" unicode="&#x1ed1;" horiz-adv-x="551" 
d="M96 620l109 183h140l109 -183h-120l-61 79l-60 -79h-117zM-40 722l107 184h167l-145 -184h-129zM276 -9q-141 0 -195.5 74t-54.5 220q0 145 54 218.5t196 73.5q74 0 124 -20.5t76.5 -61t37.5 -90.5t11 -120q0 -73 -11 -123.5t-37.5 -91t-76.5 -60t-124 -19.5zM276 123
q60 0 78.5 37t18.5 120q0 84 -18 120t-79 36t-79 -36t-18 -120q0 -83 18.5 -120t78.5 -37z" />
    <glyph glyph-name="uni1ED2" unicode="&#x1ed2;" 
d="M154 779l110 183h139l109 -183h-120l-60 79l-60 -79h-118zM520 881l-145 184h167l107 -184h-129zM334 -9q-77 0 -133.5 21t-89.5 54t-52 84.5t-25.5 102t-6.5 117.5t6.5 118t25.5 102.5t52 84.5t89.5 54t133.5 21t133.5 -21t89.5 -54t52 -84.5t25.5 -102.5t6.5 -118
t-6.5 -117.5t-25.5 -102t-52 -84.5t-89.5 -54t-133.5 -21zM334 130q39 0 66 11.5t43 30t25 50.5t11.5 64t2.5 79q0 46 -2.5 78t-11.5 64t-25 50.5t-43 30t-66 11.5t-66 -11.5t-43 -30t-25 -50.5t-11.5 -64t-2.5 -78q0 -47 2.5 -79t11.5 -64t25 -50.5t43 -30t66 -11.5z" />
    <glyph glyph-name="uni1ED3" unicode="&#x1ed3;" horiz-adv-x="551" 
d="M95 620l110 183h139l109 -183h-120l-60 79l-60 -79h-118zM461 722l-145 184h167l107 -184h-129zM276 -9q-141 0 -195.5 74t-54.5 220q0 145 54 218.5t196 73.5q74 0 124 -20.5t76.5 -61t37.5 -90.5t11 -120q0 -73 -11 -123.5t-37.5 -91t-76.5 -60t-124 -19.5zM276 123
q60 0 78.5 37t18.5 120q0 84 -18 120t-79 36t-79 -36t-18 -120q0 -83 18.5 -120t78.5 -37z" />
    <glyph glyph-name="uni1ED4" unicode="&#x1ed4;" 
d="M154 779l110 183h139l109 -183h-120l-60 79l-60 -79h-118zM286 986q-6 35 5 59t48 52q23 18 29.5 26t6.5 19q0 26 -42 26q-38 0 -78 -21l-44 86q56 27 130 27q69 0 104.5 -28t35.5 -74q0 -36 -12.5 -57.5t-40.5 -42.5q-26 -21 -36 -36t-11 -36h-95zM334 -9
q-77 0 -133.5 21t-89.5 54t-52 84.5t-25.5 102t-6.5 117.5t6.5 118t25.5 102.5t52 84.5t89.5 54t133.5 21t133.5 -21t89.5 -54t52 -84.5t25.5 -102.5t6.5 -118t-6.5 -117.5t-25.5 -102t-52 -84.5t-89.5 -54t-133.5 -21zM334 130q39 0 66 11.5t43 30t25 50.5t11.5 64t2.5 79
q0 46 -2.5 78t-11.5 64t-25 50.5t-43 30t-66 11.5t-66 -11.5t-43 -30t-25 -50.5t-11.5 -64t-2.5 -78q0 -47 2.5 -79t11.5 -64t25 -50.5t43 -30t66 -11.5z" />
    <glyph glyph-name="uni1ED5" unicode="&#x1ed5;" horiz-adv-x="551" 
d="M95 620l110 183h139l109 -183h-120l-60 79l-60 -79h-118zM227 827q-6 35 5 59t48 52q23 18 29.5 26t6.5 19q0 26 -42 26q-38 0 -78 -21l-44 86q56 27 130 27q69 0 104.5 -28t35.5 -74q0 -36 -12.5 -57.5t-40.5 -42.5q-26 -21 -36 -36t-11 -36h-95zM276 -9
q-141 0 -195.5 74t-54.5 220q0 145 54 218.5t196 73.5q74 0 124 -20.5t76.5 -61t37.5 -90.5t11 -120q0 -73 -11 -123.5t-37.5 -91t-76.5 -60t-124 -19.5zM276 123q60 0 78.5 37t18.5 120q0 84 -18 120t-79 36t-79 -36t-18 -120q0 -83 18.5 -120t78.5 -37z" />
    <glyph glyph-name="uni1ED6" unicode="&#x1ed6;" 
d="M334 -9q-77 0 -133.5 21t-89.5 54t-52 84.5t-25.5 102t-6.5 117.5t6.5 118t25.5 102.5t52 84.5t89.5 54t133.5 21t133.5 -21t89.5 -54t52 -84.5t25.5 -102.5t6.5 -118t-6.5 -117.5t-25.5 -102t-52 -84.5t-89.5 -54t-133.5 -21zM334 130q39 0 66 11.5t43 30t25 50.5
t11.5 64t2.5 79q0 46 -2.5 78t-11.5 64t-25 50.5t-43 30t-66 11.5t-66 -11.5t-43 -30t-25 -50.5t-11.5 -64t-2.5 -78q0 -47 2.5 -79t11.5 -64t25 -50.5t43 -30t66 -11.5zM154 779l109 183h139l110 -183h-120l-61 79l-60 -79h-117zM219 984l-97 56q56 110 146 110
q30 0 68.5 -21t49.5 -21q30 0 63 47l97 -56q-30 -58 -64.5 -84t-81.5 -26q-30 0 -68.5 20.5t-49.5 20.5q-31 0 -63 -46z" />
    <glyph glyph-name="uni1ED7" unicode="&#x1ed7;" horiz-adv-x="551" 
d="M276 -9q-141 0 -195.5 74t-54.5 220q0 145 54 218.5t196 73.5q74 0 124 -20.5t76.5 -61t37.5 -90.5t11 -120q0 -73 -11 -123.5t-37.5 -91t-76.5 -60t-124 -19.5zM276 123q60 0 78.5 37t18.5 120q0 84 -18 120t-79 36t-79 -36t-18 -120q0 -83 18.5 -120t78.5 -37zM96 620
l109 183h139l110 -183h-120l-61 79l-60 -79h-117zM161 825l-97 56q56 110 146 110q30 0 68.5 -21t49.5 -21q30 0 63 47l97 -56q-30 -58 -64.5 -84t-81.5 -26q-30 0 -68.5 20.5t-49.5 20.5q-31 0 -63 -46z" />
    <glyph glyph-name="uni1ED8" unicode="&#x1ed8;" 
d="M155 779l109 183h139l110 -183h-120l-61 79l-60 -79h-117zM334 -9q-77 0 -133.5 21t-89.5 54t-52 84.5t-25.5 102t-6.5 117.5t6.5 118t25.5 102.5t52 84.5t89.5 54t133.5 21t133.5 -21t89.5 -54t52 -84.5t25.5 -102.5t6.5 -118t-6.5 -117.5t-25.5 -102t-52 -84.5
t-89.5 -54t-133.5 -21zM334 130q39 0 66 11.5t43 30t25 50.5t11.5 64t2.5 79q0 46 -2.5 78t-11.5 64t-25 50.5t-43 30t-66 11.5t-66 -11.5t-43 -30t-25 -50.5t-11.5 -64t-2.5 -78q0 -47 2.5 -79t11.5 -64t25 -50.5t43 -30t66 -11.5zM258 -195v137h152v-137h-152z" />
    <glyph glyph-name="uni1ED9" unicode="&#x1ed9;" horiz-adv-x="551" 
d="M96 620l109 183h139l110 -183h-120l-61 79l-60 -79h-117zM276 -9q-141 0 -195.5 74t-54.5 220q0 145 54 218.5t196 73.5q74 0 124 -20.5t76.5 -61t37.5 -90.5t11 -120q0 -73 -11 -123.5t-37.5 -91t-76.5 -60t-124 -19.5zM276 123q60 0 78.5 37t18.5 120q0 84 -18 120
t-79 36t-79 -36t-18 -120q0 -83 18.5 -120t78.5 -37zM199 -195v137h152v-137h-152z" />
    <glyph glyph-name="uni1EDA" unicode="&#x1eda;" horiz-adv-x="675" 
d="M245 779l106 183h167l-144 -183h-129zM667 896v-136q0 -42 -20.5 -76t-57.5 -52q52 -85 52 -262q0 -67 -6.5 -117.5t-25.5 -102t-52 -84.5t-89.5 -54t-133.5 -21t-133.5 21t-89.5 54t-52 84.5t-25.5 102t-6.5 117.5t6.5 118t25.5 102.5t52 84.5t89.5 54t133.5 21
q125 0 199 -55q43 6 47 53h-57v148h144zM334 130q39 0 66 11.5t43 30t25 50.5t11.5 64t2.5 79q0 46 -2.5 78t-11.5 64t-25 50.5t-43 30t-66 11.5t-66 -11.5t-43 -30t-25 -50.5t-11.5 -64t-2.5 -78q0 -47 2.5 -79t11.5 -64t25 -50.5t43 -30t66 -11.5z" />
    <glyph glyph-name="uni1EDB" unicode="&#x1edb;" horiz-adv-x="576" 
d="M149 620l106 183h167l-144 -183h-129zM568 735v-136q0 -42 -20.5 -76t-56.5 -52q34 -67 34 -186q0 -73 -11 -123.5t-37.5 -91t-76.5 -60t-124 -19.5q-141 0 -195.5 74t-54.5 220q0 145 54 218.5t196 73.5q104 0 162 -42q39 8 43 52h-57v148h144zM276 123q60 0 78.5 37
t18.5 120q0 84 -18 120t-79 36t-79 -36t-18 -120q0 -83 18.5 -120t78.5 -37z" />
    <glyph glyph-name="uni1EDC" unicode="&#x1edc;" horiz-adv-x="675" 
d="M667 896v-136q0 -42 -20.5 -76t-57.5 -52q52 -85 52 -262q0 -67 -6.5 -117.5t-25.5 -102t-52 -84.5t-89.5 -54t-133.5 -21t-133.5 21t-89.5 54t-52 84.5t-25.5 102t-6.5 117.5t6.5 118t25.5 102.5t52 84.5t89.5 54t133.5 21q125 0 199 -55q43 6 47 53h-57v148h144z
M334 130q39 0 66 11.5t43 30t25 50.5t11.5 64t2.5 79q0 46 -2.5 78t-11.5 64t-25 50.5t-43 30t-66 11.5t-66 -11.5t-43 -30t-25 -50.5t-11.5 -64t-2.5 -78q0 -47 2.5 -79t11.5 -64t25 -50.5t43 -30t66 -11.5zM293 779l-145 183h168l106 -183h-129z" />
    <glyph glyph-name="uni1EDD" unicode="&#x1edd;" horiz-adv-x="576" 
d="M568 735v-136q0 -42 -20.5 -76t-56.5 -52q34 -67 34 -186q0 -73 -11 -123.5t-37.5 -91t-76.5 -60t-124 -19.5q-141 0 -195.5 74t-54.5 220q0 145 54 218.5t196 73.5q104 0 162 -42q39 8 43 52h-57v148h144zM276 123q60 0 78.5 37t18.5 120q0 84 -18 120t-79 36t-79 -36
t-18 -120q0 -83 18.5 -120t78.5 -37zM234 620l-145 183h168l106 -183h-129z" />
    <glyph glyph-name="uni1EDE" unicode="&#x1ede;" horiz-adv-x="675" 
d="M667 896v-136q0 -42 -20.5 -76t-57.5 -52q52 -85 52 -262q0 -67 -6.5 -117.5t-25.5 -102t-52 -84.5t-89.5 -54t-133.5 -21t-133.5 21t-89.5 54t-52 84.5t-25.5 102t-6.5 117.5t6.5 118t25.5 102.5t52 84.5t89.5 54t133.5 21q125 0 199 -55q43 6 47 53h-57v148h144z
M334 130q39 0 66 11.5t43 30t25 50.5t11.5 64t2.5 79q0 46 -2.5 78t-11.5 64t-25 50.5t-43 30t-66 11.5t-66 -11.5t-43 -30t-25 -50.5t-11.5 -64t-2.5 -78q0 -47 2.5 -79t11.5 -64t25 -50.5t43 -30t66 -11.5zM280 780q-6 35 5 59.5t47 52.5q32 25 35 33q2 4 2 11
q0 27 -42 27q-35 0 -79 -21l-44 85q54 28 130 28q69 0 104.5 -28t35.5 -74q0 -37 -12.5 -58.5t-39.5 -42.5q-26 -21 -36.5 -36t-10.5 -36h-95z" />
    <glyph glyph-name="uni1EDF" unicode="&#x1edf;" horiz-adv-x="576" 
d="M568 735v-136q0 -42 -20.5 -76t-56.5 -52q34 -67 34 -186q0 -73 -11 -123.5t-37.5 -91t-76.5 -60t-124 -19.5q-141 0 -195.5 74t-54.5 220q0 145 54 218.5t196 73.5q104 0 162 -42q39 8 43 52h-57v148h144zM276 123q60 0 78.5 37t18.5 120q0 84 -18 120t-79 36t-79 -36
t-18 -120q0 -83 18.5 -120t78.5 -37zM198 616q-6 35 5 59.5t47 52.5q32 25 35 33q2 4 2 11q0 27 -42 27q-35 0 -79 -21l-44 85q54 28 130 28q69 0 104.5 -28t35.5 -74q0 -37 -12.5 -58.5t-39.5 -42.5q-26 -21 -36.5 -36t-10.5 -36h-95z" />
    <glyph glyph-name="uni1EE0" unicode="&#x1ee0;" horiz-adv-x="675" 
d="M667 896v-136q0 -42 -20.5 -76t-57.5 -52q52 -85 52 -262q0 -67 -6.5 -117.5t-25.5 -102t-52 -84.5t-89.5 -54t-133.5 -21t-133.5 21t-89.5 54t-52 84.5t-25.5 102t-6.5 117.5t6.5 118t25.5 102.5t52 84.5t89.5 54t133.5 21q125 0 199 -55q43 6 47 53h-57v148h144z
M334 130q39 0 66 11.5t43 30t25 50.5t11.5 64t2.5 79q0 46 -2.5 78t-11.5 64t-25 50.5t-43 30t-66 11.5t-66 -11.5t-43 -30t-25 -50.5t-11.5 -64t-2.5 -78q0 -47 2.5 -79t11.5 -64t25 -50.5t43 -30t66 -11.5zM165 773l-97 56q56 110 146 110q30 0 68 -21.5t50 -21.5
q28 0 63 48l96 -56q-30 -58 -64 -84.5t-81 -26.5q-30 0 -68.5 21t-49.5 21q-31 0 -63 -46z" />
    <glyph glyph-name="uni1EE1" unicode="&#x1ee1;" horiz-adv-x="576" 
d="M117 617l-82 53q24 59 50.5 84.5t68.5 25.5q33 0 72 -21.5t53 -21.5q26 0 48 44l81 -52q-24 -59 -50.5 -85t-67.5 -26q-33 0 -72.5 21t-53.5 21q-27 0 -47 -43zM568 735v-136q0 -42 -20.5 -76t-56.5 -52q34 -67 34 -186q0 -73 -11 -123.5t-37.5 -91t-76.5 -60t-124 -19.5
q-141 0 -195.5 74t-54.5 220q0 145 54 218.5t196 73.5q104 0 162 -42q39 8 43 52h-57v148h144zM276 123q60 0 78.5 37t18.5 120q0 84 -18 120t-79 36t-79 -36t-18 -120q0 -83 18.5 -120t78.5 -37z" />
    <glyph glyph-name="uni1EE2" unicode="&#x1ee2;" horiz-adv-x="675" 
d="M667 896v-136q0 -42 -20.5 -76t-57.5 -52q52 -85 52 -262q0 -67 -6.5 -117.5t-25.5 -102t-52 -84.5t-89.5 -54t-133.5 -21t-133.5 21t-89.5 54t-52 84.5t-25.5 102t-6.5 117.5t6.5 118t25.5 102.5t52 84.5t89.5 54t133.5 21q125 0 199 -55q43 6 47 53h-57v148h144z
M334 130q39 0 66 11.5t43 30t25 50.5t11.5 64t2.5 79q0 46 -2.5 78t-11.5 64t-25 50.5t-43 30t-66 11.5t-66 -11.5t-43 -30t-25 -50.5t-11.5 -64t-2.5 -78q0 -47 2.5 -79t11.5 -64t25 -50.5t43 -30t66 -11.5zM258 -195v137h152v-137h-152z" />
    <glyph glyph-name="uni1EE3" unicode="&#x1ee3;" horiz-adv-x="576" 
d="M568 735v-136q0 -42 -20.5 -76t-56.5 -52q34 -67 34 -186q0 -73 -11 -123.5t-37.5 -91t-76.5 -60t-124 -19.5q-141 0 -195.5 74t-54.5 220q0 145 54 218.5t196 73.5q104 0 162 -42q39 8 43 52h-57v148h144zM276 123q60 0 78.5 37t18.5 120q0 84 -18 120t-79 36t-79 -36
t-18 -120q0 -83 18.5 -120t78.5 -37zM199 -195v137h152v-137h-152z" />
    <glyph glyph-name="uni1EE4" unicode="&#x1ee4;" 
d="M334 -11q-153 0 -217 66.5t-64 204.5v481h157v-466q0 -79 26 -112t100 -33q73 0 100 32.5t27 112.5v466h152v-481q0 -138 -63 -204.5t-218 -66.5zM257 -195v137h152v-137h-152z" />
    <glyph glyph-name="uni1EE5" unicode="&#x1ee5;" horiz-adv-x="552" 
d="M276 -8q-134 0 -183 54t-49 186v335h152v-327q0 -67 13.5 -90.5t68.5 -23.5q53 0 67 24t14 91v326h149v-335q0 -133 -47.5 -186.5t-184.5 -53.5zM200 -195v137h152v-137h-152z" />
    <glyph glyph-name="uni1EE6" unicode="&#x1ee6;" 
d="M334 -11q-153 0 -217 66.5t-64 204.5v481h157v-466q0 -79 26 -112t100 -33q73 0 100 32.5t27 112.5v466h152v-481q0 -138 -63 -204.5t-218 -66.5zM287 775q-6 35 5 59.5t47 52.5q32 25 35 33q2 4 2 11q0 27 -42 27q-35 0 -79 -21l-44 85q54 28 130 28q69 0 104.5 -28
t35.5 -74q0 -37 -12.5 -58.5t-39.5 -42.5q-26 -21 -36.5 -36t-10.5 -36h-95z" />
    <glyph glyph-name="uni1EE7" unicode="&#x1ee7;" horiz-adv-x="552" 
d="M276 -8q-134 0 -183 54t-49 186v335h152v-327q0 -67 13.5 -90.5t68.5 -23.5q53 0 67 24t14 91v326h149v-335q0 -133 -47.5 -186.5t-184.5 -53.5zM229 616q-6 35 5 59.5t47 52.5q32 25 35 33q2 4 2 11q0 27 -42 27q-35 0 -79 -21l-44 85q54 28 130 28q69 0 104.5 -28
t35.5 -74q0 -37 -12.5 -58.5t-39.5 -42.5q-26 -21 -36.5 -36t-10.5 -36h-95z" />
    <glyph glyph-name="uni1EE8" unicode="&#x1ee8;" horiz-adv-x="702" 
d="M244 779l106 183h167l-144 -183h-129zM718 944v-137q0 -49 -27.5 -86.5t-75.5 -50.5v-410q0 -138 -63 -204.5t-218 -66.5q-153 0 -217 66.5t-64 204.5v481h157v-466q0 -79 26 -112t100 -33q73 0 100 32.5t27 112.5v466h112q52 3 56 54h-57v149h144z" />
    <glyph glyph-name="uni1EE9" unicode="&#x1ee9;" horiz-adv-x="599" 
d="M164 620l106 183h167l-144 -183h-129zM606 769v-137q0 -47 -26 -84t-72 -51v-265q0 -133 -47.5 -186.5t-184.5 -53.5q-134 0 -183 54t-49 186v335h152v-327q0 -67 13.5 -90.5t68.5 -23.5q53 0 67 24t14 91v326h112q45 7 47 53h-56v149h144z" />
    <glyph glyph-name="uni1EEA" unicode="&#x1eea;" horiz-adv-x="702" 
d="M292 779l-145 183h168l106 -183h-129zM718 944v-137q0 -49 -27.5 -86.5t-75.5 -50.5v-410q0 -138 -63 -204.5t-218 -66.5q-153 0 -217 66.5t-64 204.5v481h157v-466q0 -79 26 -112t100 -33q73 0 100 32.5t27 112.5v466h112q52 3 56 54h-57v149h144z" />
    <glyph glyph-name="uni1EEB" unicode="&#x1eeb;" horiz-adv-x="599" 
d="M235 620l-145 183h168l106 -183h-129zM606 769v-137q0 -47 -26 -84t-72 -51v-265q0 -133 -47.5 -186.5t-184.5 -53.5q-134 0 -183 54t-49 186v335h152v-327q0 -67 13.5 -90.5t68.5 -23.5q53 0 67 24t14 91v326h112q45 7 47 53h-56v149h144z" />
    <glyph glyph-name="uni1EEC" unicode="&#x1eec;" horiz-adv-x="702" 
d="M287 775q-6 35 5 59.5t47 52.5q32 25 35 33q2 4 2 11q0 27 -42 27q-35 0 -79 -21l-44 85q54 28 130 28q69 0 104.5 -28t35.5 -74q0 -37 -12.5 -58.5t-39.5 -42.5q-26 -21 -36.5 -36t-10.5 -36h-95zM718 944v-137q0 -49 -27.5 -86.5t-75.5 -50.5v-410q0 -138 -63 -204.5
t-218 -66.5q-153 0 -217 66.5t-64 204.5v481h157v-466q0 -79 26 -112t100 -33q73 0 100 32.5t27 112.5v466h112q52 3 56 54h-57v149h144z" />
    <glyph glyph-name="uni1EED" unicode="&#x1eed;" horiz-adv-x="599" 
d="M221 616q-6 35 5 59.5t47 52.5q32 25 35 33q2 4 2 11q0 27 -42 27q-35 0 -79 -21l-44 85q54 28 130 28q69 0 104.5 -28t35.5 -74q0 -37 -12.5 -58.5t-39.5 -42.5q-26 -21 -36.5 -36t-10.5 -36h-95zM606 769v-137q0 -47 -26 -84t-72 -51v-265q0 -133 -47.5 -186.5
t-184.5 -53.5q-134 0 -183 54t-49 186v335h152v-327q0 -67 13.5 -90.5t68.5 -23.5q53 0 67 24t14 91v326h112q45 7 47 53h-56v149h144z" />
    <glyph glyph-name="uni1EEE" unicode="&#x1eee;" horiz-adv-x="702" 
d="M718 944v-137q0 -49 -27.5 -86.5t-75.5 -50.5v-410q0 -138 -63 -204.5t-218 -66.5q-153 0 -217 66.5t-64 204.5v481h157v-466q0 -79 26 -112t100 -33q73 0 100 32.5t27 112.5v466h112q52 3 56 54h-57v149h144zM200 775l-97 56q56 110 146 110q29 0 68 -21.5t50 -21.5
q28 0 63 48l96 -56q-30 -58 -64 -84.5t-81 -26.5q-30 0 -68.5 21t-49.5 21q-31 0 -63 -46z" />
    <glyph glyph-name="uni1EEF" unicode="&#x1eef;" horiz-adv-x="599" 
d="M138 617l-82 53q24 59 50.5 84.5t68.5 25.5q33 0 72 -21.5t53 -21.5q26 0 48 44l81 -52q-24 -59 -50 -85t-67 -26q-34 0 -73.5 21t-53.5 21q-27 0 -47 -43zM606 769v-137q0 -47 -26 -84t-72 -51v-265q0 -133 -47.5 -186.5t-184.5 -53.5q-134 0 -183 54t-49 186v335h152
v-327q0 -67 13.5 -90.5t68.5 -23.5q53 0 67 24t14 91v326h112q45 7 47 53h-56v149h144z" />
    <glyph glyph-name="uni1EF0" unicode="&#x1ef0;" horiz-adv-x="702" 
d="M257 -195v137h152v-137h-152zM718 944v-137q0 -49 -27.5 -86.5t-75.5 -50.5v-410q0 -138 -63 -204.5t-218 -66.5q-153 0 -217 66.5t-64 204.5v481h157v-466q0 -79 26 -112t100 -33q73 0 100 32.5t27 112.5v466h112q52 3 56 54h-57v149h144z" />
    <glyph glyph-name="uni1EF1" unicode="&#x1ef1;" horiz-adv-x="599" 
d="M200 -195v137h152v-137h-152zM606 769v-137q0 -47 -26 -84t-72 -51v-265q0 -133 -47.5 -186.5t-184.5 -53.5q-134 0 -183 54t-49 186v335h152v-327q0 -67 13.5 -90.5t68.5 -23.5q53 0 67 24t14 91v326h112q45 7 47 53h-56v149h144z" />
    <glyph glyph-name="Ygrave" unicode="&#x1ef2;" horiz-adv-x="626" 
d="M234 0v251l-236 490h167l150 -323l151 323h161l-237 -492v-249h-156zM272 779l-145 183h168l106 -183h-129z" />
    <glyph glyph-name="ygrave" unicode="&#x1ef3;" horiz-adv-x="498" 
d="M68 -158v121h64q19 0 27 5.5t12 18.5l3 13l-173 567h155l96 -348l95 348h149l-187 -611q-21 -69 -60.5 -91.5t-117.5 -22.5h-63zM211 620l-145 183h168l106 -183h-129z" />
    <glyph glyph-name="uni1EF4" unicode="&#x1ef4;" horiz-adv-x="626" 
d="M234 0v251l-236 490h167l150 -323l151 323h161l-237 -492v-249h-156zM237 -195v137h152v-137h-152z" />
    <glyph glyph-name="uni1EF5" unicode="&#x1ef5;" horiz-adv-x="518" 
d="M68 -158v121h64q19 0 27 5.5t12 18.5l3 13l-173 567h155l96 -348l95 348h149l-187 -611q-21 -69 -60.5 -91.5t-117.5 -22.5h-63zM363 -195v137h152v-137h-152z" />
    <glyph glyph-name="uni1EF6" unicode="&#x1ef6;" horiz-adv-x="626" 
d="M234 0v251l-236 490h167l150 -323l151 323h161l-237 -492v-249h-156zM268 767q-6 35 5 59.5t47 52.5q32 25 35 33q2 4 2 11q0 27 -42 27q-35 0 -79 -21l-44 85q54 28 130 28q69 0 104.5 -28t35.5 -74q0 -37 -12.5 -58.5t-39.5 -42.5q-26 -21 -36.5 -36t-10.5 -36h-95z
" />
    <glyph glyph-name="uni1EF7" unicode="&#x1ef7;" horiz-adv-x="498" 
d="M68 -158v121h64q19 0 27 5.5t12 18.5l3 13l-173 567h155l96 -348l95 348h149l-187 -611q-21 -69 -60.5 -91.5t-117.5 -22.5h-63zM204 616q-6 35 5 59.5t47 52.5q32 25 35 33q2 4 2 11q0 27 -42 27q-35 0 -79 -21l-44 85q54 28 130 28q69 0 104.5 -28t35.5 -74
q0 -37 -12.5 -58.5t-39.5 -42.5q-26 -21 -36.5 -36t-10.5 -36h-95z" />
    <glyph glyph-name="uni1EF8" unicode="&#x1ef8;" horiz-adv-x="626" 
d="M234 0v251l-236 490h167l150 -323l151 323h161l-237 -492v-249h-156zM203 795l-97 56q56 110 146 110q30 0 68 -21.5t50 -21.5q28 0 63 48l96 -56q-30 -58 -64 -84.5t-81 -26.5q-30 0 -68.5 21t-49.5 21q-31 0 -63 -46z" />
    <glyph glyph-name="uni1EF9" unicode="&#x1ef9;" horiz-adv-x="498" 
d="M68 -158v121h64q19 0 27 5.5t12 18.5l3 13l-173 567h155l96 -348l95 348h149l-187 -611q-21 -69 -60.5 -91.5t-117.5 -22.5h-63zM136 615l-97 56q56 110 146 110q29 0 68 -21.5t50 -21.5q28 0 63 48l96 -56q-30 -58 -64 -84.5t-81 -26.5q-30 0 -68.5 21t-49.5 21
q-31 0 -63 -46z" />
    <glyph glyph-name="endash" unicode="&#x2013;" horiz-adv-x="623" 
d="M30 264v138h563v-138h-563z" />
    <glyph glyph-name="emdash" unicode="&#x2014;" horiz-adv-x="799" 
d="M30 264v138h740v-138h-740z" />
    <glyph glyph-name="quoteleft" unicode="&#x2018;" horiz-adv-x="260" 
d="M44 398v157q0 77 23.5 112.5t104.5 74.5l41 -76q-47 -26 -60 -40.5t-13 -44.5h76v-183h-172z" />
    <glyph glyph-name="quoteright" unicode="&#x2019;" horiz-adv-x="260" 
d="M89 397l-42 76q47 26 60 40.5t13 44.5h-76v183h172v-156q0 -78 -23 -113.5t-104 -74.5z" />
    <glyph glyph-name="quotesinglbase" unicode="&#x201a;" horiz-adv-x="260" 
d="M89 -161l-42 76q47 26 60 40.5t13 44.5h-76v183h172v-156q0 -78 -23 -113.5t-104 -74.5z" />
    <glyph glyph-name="quotedblleft" unicode="&#x201c;" horiz-adv-x="475" 
d="M44 407v156q0 75 22.5 107.5t102.5 71.5l39 -72q-46 -26 -58.5 -40.5t-12.5 -43.5h75v-179h-168zM264 407v156q0 75 22 108t102 71l40 -72q-46 -26 -59 -40.5t-13 -43.5h75v-179h-167z" />
    <glyph glyph-name="quotedblright" unicode="&#x201d;" horiz-adv-x="475" 
d="M87 406l-40 72q46 25 59 40t13 43h-75v180h167v-156q0 -76 -22 -108.5t-102 -70.5zM306 406l-38 72q45 25 57.5 39.5t12.5 43.5h-75v180h168v-156q0 -76 -22.5 -108.5t-102.5 -70.5z" />
    <glyph glyph-name="quotedblbase" unicode="&#x201e;" horiz-adv-x="475" 
d="M87 -152l-40 72q46 25 59 40t13 43h-75v180h167v-156q0 -76 -22 -108.5t-102 -70.5zM306 -152l-38 72q45 25 57.5 39.5t12.5 43.5h-75v180h168v-156q0 -76 -22.5 -108.5t-102.5 -70.5z" />
    <glyph glyph-name="dagger" unicode="&#x2020;" horiz-adv-x="512" 
d="M181 -158v566h-144v140h144v221h150v-221h144v-140h-144v-566h-150z" />
    <glyph glyph-name="daggerdbl" unicode="&#x2021;" horiz-adv-x="512" 
d="M181 -158v225h-144v140h144v202h-144v140h144v220h150v-220h144v-140h-144v-202h144v-140h-144v-225h-150z" />
    <glyph glyph-name="bullet" unicode="&#x2022;" horiz-adv-x="338" 
d="M72 188v232h194v-232h-194z" />
    <glyph glyph-name="ellipsis" unicode="&#x2026;" horiz-adv-x="748" 
d="M44 0v179h172v-179h-172zM288 0v179h172v-179h-172zM533 0v179h171v-179h-171z" />
    <glyph glyph-name="perthousand" unicode="&#x2030;" horiz-adv-x="1502" 
d="M227 258q-102 0 -151.5 56.5t-49.5 188.5t49.5 188.5t151.5 56.5q103 0 153 -56.5t50 -188.5t-50 -188.5t-153 -56.5zM228 370q38 0 53 27.5t15 101.5q0 73 -15 101t-53 28t-53 -28t-15 -101q0 -74 15 -101.5t53 -27.5zM838 -7q-102 0 -151.5 56.5t-49.5 189.5
q0 131 49.5 188t151.5 57q103 0 153 -57t50 -188q0 -133 -50 -189.5t-153 -56.5zM839 105q38 0 53.5 28t15.5 101q0 74 -15.5 101.5t-53.5 27.5t-53 -27.5t-15 -101.5q0 -73 15 -101t53 -28zM294 0l341 741h140l-342 -741h-139zM1274 -7q-102 0 -151.5 56.5t-49.5 189.5
q0 131 49.5 188t151.5 57t152.5 -57t50.5 -188q0 -132 -50 -189t-153 -57zM1275 105q38 0 53 28t15 101q0 74 -15 101.5t-53 27.5t-53 -27.5t-15 -101.5q0 -73 15 -101t53 -28z" />
    <glyph glyph-name="guilsinglleft" unicode="&#x2039;" horiz-adv-x="411" 
d="M188 0l-125 283l125 284h137l-114 -284l114 -283h-137z" />
    <glyph glyph-name="guilsinglright" unicode="&#x203a;" horiz-adv-x="411" 
d="M86 0l114 284l-114 283h137l125 -283l-125 -284h-137z" />
    <glyph glyph-name="fraction" unicode="&#x2044;" horiz-adv-x="477" 
d="M1 0l340 741h134l-340 -741h-134z" />
    <glyph glyph-name="fraction" unicode="&#x2215;" horiz-adv-x="477" 
d="M1 0l340 741h134l-340 -741h-134z" />
    <glyph glyph-name="zero.superior" unicode="&#x2070;" horiz-adv-x="498" 
d="M250 250q-61 0 -99.5 15.5t-57.5 51t-25.5 76t-6.5 105.5q0 51 3.5 85t14.5 68t31.5 53t55 31t84.5 12q61 0 99 -16.5t57 -52.5t25 -76.5t6 -103.5q0 -66 -6 -106.5t-25 -75.5t-57 -50.5t-99 -15.5zM250 357q41 0 52.5 28t11.5 113q0 84 -11.5 111t-52.5 27
q-42 0 -54 -27t-12 -111q0 -85 12 -113t54 -28z" />
    <glyph glyph-name="four.superior" unicode="&#x2074;" horiz-adv-x="468" 
d="M47 337v92l170 312h123l-167 -307h80l21 105h90v-105h59v-97h-59v-81h-112v81h-205z" />
    <glyph glyph-name="five.superior" unicode="&#x2075;" horiz-adv-x="451" 
d="M218 250q-108 0 -175 36l52 96q50 -27 115 -27q40 0 54.5 13.5t14.5 54.5q0 38 -14.5 49.5t-54.5 11.5q-38 0 -65 -17l-82 23l13 251h299v-104h-197l-4 -71q24 19 82 19q78 0 110.5 -36t32.5 -129q0 -101 -44 -135.5t-137 -34.5z" />
    <glyph glyph-name="six.superior" unicode="&#x2076;" horiz-adv-x="481" 
d="M249 250q-60 0 -98.5 14.5t-58 45t-26.5 66.5t-7 91q0 79 8 125.5t32.5 83t72 51t125.5 14.5h67v-102h-72q-68 0 -90.5 -16t-25.5 -61q28 31 107 31q81 0 113 -44.5t32 -124.5q0 -89 -41 -131.5t-138 -42.5zM250 350q35 0 47 18t12 63q0 42 -12.5 59t-44.5 17
q-35 0 -52 -17t-17 -57q0 -46 13 -64.5t54 -18.5z" />
    <glyph glyph-name="seven.superior" unicode="&#x2077;" horiz-adv-x="413" 
d="M99 256l137 375h-195v110h328v-96l-141 -389h-129z" />
    <glyph glyph-name="eight.superior" unicode="&#x2078;" horiz-adv-x="479" 
d="M238 250q-59 0 -97.5 11.5t-56.5 33.5t-24.5 45t-6.5 55q0 50 12.5 81t51.5 47q-49 24 -49 104q0 55 37 87.5t133 32.5q98 0 134.5 -32.5t36.5 -87.5q0 -81 -50 -104q29 -11 44 -32t18 -41.5t3 -54.5q0 -32 -6.5 -55t-24.5 -45t-57 -33.5t-98 -11.5zM238 343
q40 0 53 16.5t13 50.5t-13 50t-53 16q-39 0 -51.5 -16t-12.5 -50t12.5 -50.5t51.5 -16.5zM238 557q33 0 44.5 11.5t11.5 37.5t-11.5 37t-44.5 11q-32 0 -43.5 -11.5t-11.5 -36.5q0 -26 11.5 -37.5t43.5 -11.5z" />
    <glyph glyph-name="nine.superior" unicode="&#x2079;" horiz-adv-x="466" 
d="M102 256v100h72q67 0 90 16t26 60q-27 -30 -107 -30q-81 0 -113 45t-32 126q0 89 41 131.5t138 42.5q60 0 98 -14t57.5 -45t26.5 -67t7 -91q0 -80 -7.5 -126.5t-32.5 -82.5t-72 -50.5t-125 -14.5h-67zM214 488q34 0 51 17t17 57q0 47 -12.5 65t-53.5 18q-35 0 -47 -18
t-12 -62q0 -43 12.5 -60t44.5 -17z" />
    <glyph glyph-name="zero.inferior" unicode="&#x2080;" horiz-adv-x="498" 
d="M250 -5q-61 0 -99.5 15.5t-57.5 51t-25.5 76t-6.5 105.5q0 51 3.5 85t14.5 68t31.5 53t55 31t84.5 12q61 0 99 -16.5t57 -52.5t25 -76.5t6 -103.5q0 -66 -6 -106.5t-25 -75.5t-57 -50.5t-99 -15.5zM250 102q41 0 52.5 28t11.5 113q0 84 -11.5 111t-52.5 27q-42 0 -54 -27
t-12 -111q0 -85 12 -113t54 -28z" />
    <glyph glyph-name="one.inferior" unicode="&#x2081;" horiz-adv-x="321" 
d="M112 1v375h-68v110h194v-485h-126z" />
    <glyph glyph-name="two.inferior" unicode="&#x2082;" horiz-adv-x="431" 
d="M45 1v88l123 131q52 56 65 75t13 42q0 27 -13.5 36t-43.5 9q-48 0 -96 -23l-51 99q70 34 167 34q156 0 156 -133q0 -58 -20.5 -96t-89.5 -108l-55 -56h174v-98h-329z" />
    <glyph glyph-name="three.inferior" unicode="&#x2083;" horiz-adv-x="437" 
d="M207 -5q-104 0 -166 37l51 93q50 -27 105 -27q42 0 55.5 12.5t13.5 47.5q0 28 -15 38.5t-60 10.5h-75v96h75q37 0 50 9t13 33q0 25 -12 32.5t-47 7.5q-54 0 -100 -22l-48 93q63 36 169 36q78 0 117 -25.5t39 -92.5q0 -45 -10 -70.5t-37 -36.5q35 -12 47 -38t12 -84
q0 -81 -43.5 -115.5t-133.5 -34.5z" />
    <glyph glyph-name="four.inferior" unicode="&#x2084;" horiz-adv-x="468" 
d="M47 82v92l170 312h123l-167 -307h80l21 105h90v-105h59v-97h-59v-81h-112v81h-205z" />
    <glyph glyph-name="five.inferior" unicode="&#x2085;" horiz-adv-x="453" 
d="M217 -5q-107 0 -175 36l52 96q50 -27 115 -27q40 0 54.5 13.5t14.5 54.5q0 38 -14.5 49.5t-54.5 11.5q-38 0 -65 -17l-82 23l13 251h299v-104h-197l-4 -71q24 19 82 19q78 0 110.5 -36t32.5 -129q0 -101 -44 -135.5t-137 -34.5z" />
    <glyph glyph-name="six.inferior" unicode="&#x2086;" horiz-adv-x="481" 
d="M249 -5q-60 0 -98.5 14.5t-58 45t-26.5 66.5t-7 91q0 79 8 125.5t32.5 83t72 51t125.5 14.5h67v-102h-72q-68 0 -90.5 -16t-25.5 -61q28 31 107 31q81 0 113 -44.5t32 -124.5q0 -89 -41 -131.5t-138 -42.5zM250 95q35 0 47 18t12 63q0 42 -12.5 59t-44.5 17
q-35 0 -52 -17t-17 -57q0 -46 13 -64.5t54 -18.5z" />
    <glyph glyph-name="seven.inferior" unicode="&#x2087;" horiz-adv-x="413" 
d="M99 1l137 375h-195v110h328v-96l-141 -389h-129z" />
    <glyph glyph-name="eight.inferior" unicode="&#x2088;" horiz-adv-x="479" 
d="M238 -5q-59 0 -97.5 11.5t-56.5 33.5t-24.5 45t-6.5 55q0 50 12.5 81t51.5 47q-49 24 -49 104q0 55 37 87.5t133 32.5q98 0 134.5 -32.5t36.5 -87.5q0 -81 -50 -104q29 -11 44 -32t18 -41.5t3 -54.5q0 -32 -6.5 -55t-24.5 -45t-57 -33.5t-98 -11.5zM238 88q40 0 53 16.5
t13 50.5t-13 50t-53 16q-39 0 -51.5 -16t-12.5 -50t12.5 -50.5t51.5 -16.5zM238 302q33 0 44.5 11.5t11.5 37.5t-11.5 37t-44.5 11q-32 0 -43.5 -11.5t-11.5 -36.5t11.5 -37t43.5 -12z" />
    <glyph glyph-name="nine.inferior" unicode="&#x2089;" horiz-adv-x="466" 
d="M102 1v100h72q67 0 90 16t26 60q-27 -30 -107 -30q-81 0 -113 45t-32 126q0 89 41 131.5t138 42.5q60 0 98 -14t57.5 -45t26.5 -67t7 -91q0 -80 -7.5 -126.5t-32.5 -82.5t-72 -50.5t-125 -14.5h-67zM214 233q34 0 51 17t17 57q0 47 -12.5 65t-53.5 18q-35 0 -47 -18
t-12 -62q0 -43 12.5 -60t44.5 -17z" />
    <glyph glyph-name="dong" unicode="&#x20ab;" horiz-adv-x="568" 
d="M269 603v116h100v50h152v-50h47v-116h-47v-598l-121 -10l-12 52q-46 -54 -172 -54q-60 0 -99.5 22.5t-58 67t-25 90.5t-6.5 113q0 43 3 76.5t10 68.5t21 60t35.5 45.5t53.5 30.5t73 10q107 0 146 -43v69h-100zM268 124q62 0 81.5 37t19.5 122q0 83 -19 118.5t-82 35.5
q-54 0 -71.5 -35.5t-17.5 -118.5q0 -86 17 -122.5t72 -36.5zM76 -186v116h445v-116h-445z" />
    <glyph glyph-name="Euro" unicode="&#x20ac;" horiz-adv-x="609" 
d="M23 396v107h101q16 131 77 189t187 58q115 0 194 -47l-71 -128q-56 29 -124 29q-49 0 -74 -23.5t-35 -77.5h170v-107h-178v-25v-27h178v-107h-170q10 -56 35 -81t74 -25q64 0 126 33l68 -121q-91 -52 -204 -52q-120 0 -178.5 57.5t-73.5 188.5h-102v107h95v26v26h-95z
" />
    <glyph glyph-name="litre" unicode="&#x2113;" horiz-adv-x="456" 
d="M259 341v-140q0 -42 11.5 -57.5t33.5 -15.5q29 0 54 34l49 -74q-59 -93 -150 -93q-78 0 -114.5 39t-36.5 142v29l-33 -29l-41 92l74 64v228q0 92 38 148t121 56q71 0 103.5 -42t32.5 -109q0 -77 -31.5 -135.5t-94.5 -122.5zM316 606q0 55 -26 55q-31 0 -31 -101v-91
q57 67 57 137z" />
    <glyph glyph-name="afii61352" unicode="&#x2116;" horiz-adv-x="1129" 
d="M881 274q-114 0 -158 60t-44 178q0 117 44 177.5t158 60.5q116 0 159.5 -60.5t43.5 -177.5q0 -120 -43 -179t-160 -59zM881 382q49 0 63.5 29.5t14.5 97.5q0 67 -14.5 96.5t-63.5 29.5q-48 0 -63 -29.5t-15 -96.5t15 -97t63 -30zM696 118v108h369v-108h-369zM58 0v741
h166l243 -427v427h149v-741h-144l-265 462v-462h-149z" />
    <glyph glyph-name="copyrightsound" unicode="&#x2117;" 
d="M334 -9q-89 0 -150 28t-94 81.5t-46.5 118.5t-13.5 151q0 69 8 123t29 104t54.5 82.5t87.5 52t125 19.5q88 0 149.5 -28.5t94.5 -82t47 -119t14 -151.5t-14 -151t-47 -118.5t-94.5 -81.5t-149.5 -28zM334 45q59 0 102.5 16.5t71 44.5t44 70.5t23 88.5t6.5 105t-6.5 105.5
t-23 89t-44 70.5t-71 44.5t-102.5 16.5q-73 0 -122.5 -24t-76 -70.5t-37 -101.5t-10.5 -130q0 -74 10.5 -129t37 -101.5t76 -70.5t122.5 -24zM190 133v466h177q87 0 119.5 -36.5t32.5 -113.5q0 -78 -33 -117t-120 -39h-81v-160h-95zM285 371h79q34 0 48 16.5t14 54.5
q0 40 -14 56.5t-48 16.5h-79v-144z" />
    <glyph glyph-name="trademark" unicode="&#x2122;" horiz-adv-x="916" 
d="M410 267v474h126l90 -296l89 296h127v-474h-108v265l-75 -265h-71l-76 265v-265h-102zM150 267v373h-119v101h351v-101h-120v-373h-112z" />
    <glyph glyph-name="estimated" unicode="&#x212e;" horiz-adv-x="656" 
d="M621 289h-441q0 -84 3.5 -119t17.5 -59q47 -78 158 -78q67 0 120 25.5t85 68.5h12l26 -31q-41 -51 -106.5 -79.5t-140.5 -28.5q-143 0 -220.5 84t-77.5 221q0 132 77.5 216.5t213.5 84.5q67 0 121 -26t86 -67t49 -86.5t17 -88.5v-37zM180 328h308q-4 117 -12 146
q-15 58 -71 73q-28 8 -71 8q-100 0 -129.5 -47t-24.5 -180z" />
    <glyph glyph-name="partialdiff" unicode="&#x2202;" horiz-adv-x="553" 
d="M276 -9q-133 0 -191.5 71t-58.5 207q0 260 210 260q88 0 127 -41q-16 59 -48 126t-71 105l117 67q70 -53 117.5 -189.5t47.5 -284.5q0 -63 -5 -107.5t-20.5 -87.5t-42.5 -69t-72.5 -41.5t-109.5 -15.5zM276 123q60 0 78.5 36t18.5 107t-18.5 106t-78.5 35t-78.5 -35
t-18.5 -106t18.5 -107t78.5 -36z" />
    <glyph glyph-name="product" unicode="&#x220f;" horiz-adv-x="659" 
d="M58 -158v899h543v-899h-158v756h-228v-756h-157z" />
    <glyph glyph-name="summation" unicode="&#x2211;" horiz-adv-x="577" 
d="M26 -158v122l185 327l-176 316v134h488v-148h-291l164 -302l-168 -307h309v-142h-511z" />
    <glyph glyph-name="minus" unicode="&#x2212;" horiz-adv-x="609" 
d="M79 287v131h451v-131h-451z" />
    <glyph glyph-name="radical" unicode="&#x221a;" horiz-adv-x="584" 
d="M169 -5l-146 452h159l71 -252l160 546h149l-235 -746h-158z" />
    <glyph glyph-name="infinity" unicode="&#x221e;" horiz-adv-x="711" 
d="M202 165q-79 0 -119.5 42t-40.5 137t41 137.5t119 42.5t155 -100q79 100 153 100q75 0 116.5 -37.5t41.5 -142.5q0 -104 -42 -141.5t-116 -37.5q-77 0 -156 100q-79 -100 -152 -100zM213 278q32 0 81 65q-48 68 -81 68q-61 0 -61 -67q0 -66 61 -66zM500 279q59 0 59 65
q0 66 -59 66q-21 0 -40 -16.5t-44 -48.5q25 -33 44 -49.5t40 -16.5z" />
    <glyph glyph-name="integral" unicode="&#x222b;" horiz-adv-x="390" 
d="M255 596v-581q0 -174 -199 -174q-55 0 -82 3v130h68q35 0 47.5 12t14.5 41v586q0 174 198 174q48 0 82 -2v-130h-67q-38 0 -50 -13.5t-12 -45.5z" />
    <glyph glyph-name="approxequal" unicode="&#x2248;" horiz-adv-x="609" 
d="M157 378l-103 60q30 59 66.5 86t86.5 27q38 0 99 -21t82 -21q30 0 65 48l102 -59q-30 -59 -66.5 -86.5t-86.5 -27.5q-39 0 -99 21t-82 21q-31 0 -64 -48zM157 149l-103 60q30 59 66.5 86t86.5 27q38 0 99 -21t82 -21q31 0 65 48l102 -59q-30 -59 -66.5 -86.5t-86.5 -27.5
q-39 0 -99 20.5t-82 20.5q-32 0 -64 -47z" />
    <glyph glyph-name="notequal" unicode="&#x2260;" horiz-adv-x="609" 
d="M121 54l44 112h-85v139h150l36 90h-186v138h236l44 112h128l-45 -112h86v-138h-151l-36 -90h187v-139h-236l-45 -112h-127z" />
    <glyph glyph-name="lessequal" unicode="&#x2264;" horiz-adv-x="609" 
d="M91 6v131h308l-308 165v104l392 209v-145l-234 -116l234 -116v-232h-392z" />
    <glyph glyph-name="greaterequal" unicode="&#x2265;" horiz-adv-x="609" 
d="M126 6v232l233 116l-233 116v145l392 -209v-104l-308 -165h308v-131h-392z" />
    <glyph glyph-name="lozenge" unicode="&#x25ca;" horiz-adv-x="487" 
d="M181 0l-171 371l171 370h118l172 -370l-172 -371h-118zM241 144l99 224l-100 229l-100 -225z" />
    <glyph glyph-name="apple" unicode="&#xf8ff;" horiz-adv-x="832" 
d="M172 654l-7 8q107 97 251 97t252 -97l-7 -8q-105 95 -245 95q-139 0 -244 -95zM416 -17q-144 0 -252 97l7 8q105 -95 245 -95q139 0 244 94l2 -1l4 -4l1 -2q-107 -97 -251 -97zM706 120q-3 3 -8 7q88 106 88 244t-88 244l8 7q90 -108 90 -251q0 -142 -90 -251zM126 120
q-90 108 -90 251q0 142 90 250q3 -2 7 -6q-87 -106 -87 -244t88 -244zM416 60q-116 0 -201 77l7 7q84 -74 194 -74q111 0 193 74l7 -8q-86 -76 -200 -76zM610 597q-81 75 -194 75q-110 0 -194 -74l-7 7q87 77 201 77t201 -77zM183 170q-72 88 -72 201t71 200l8 -7
q-69 -83 -69 -193q0 -111 69 -194zM649 171l-7 6q69 85 69 194q0 110 -70 193l8 7q72 -86 72 -200t-72 -200zM416 121q-92 0 -161 61l7 8q65 -59 154 -59t153 59l7 -8q-67 -61 -160 -61zM604 211q-3 2 -8 7q55 66 55 153q0 89 -55 153l8 7q57 -68 57 -160t-57 -160zM570 552
q-65 59 -154 59q-87 0 -153 -58l-7 7q69 61 160 61q92 0 161 -61zM228 211q-57 70 -57 160t56 160l8 -7q-54 -67 -54 -153q0 -88 54 -153zM295 516l-7 8q54 48 128 48t128 -49l-2 -1l-2 -4l-2 -2q-52 46 -122 46t-121 -46zM568 243l-8 7q43 53 43 121t-43 121l8 7
q45 -56 45 -128t-45 -128zM264 243q-45 56 -45 128t45 128l8 -7q-43 -53 -43 -121t43 -121zM416 170q-72 0 -129 49l7 7q52 -46 122 -46t121 46l7 -8q-54 -48 -128 -48zM540 269l-8 7q33 43 33 95q0 53 -34 95l8 7q36 -44 36 -102q0 -57 -35 -102zM416 209q-57 0 -103 38
l7 8q43 -36 96 -36t96 36l6 -8q-45 -38 -102 -38zM292 269q-35 45 -35 102q0 58 36 102l7 -7q-33 -43 -33 -95t33 -95zM320 487l-7 8q44 38 103 38q58 0 102 -39l-6 -7q-41 36 -96 36q-53 0 -96 -36zM416 240q-48 0 -83 30l7 8q35 -28 76 -28q42 0 75 28l7 -7
q-36 -31 -82 -31zM316 289q-28 36 -28 82q0 47 28 81q1 -1 2.5 -2t2.5 -2.5t2 -2.5q-25 -33 -25 -74t26 -75zM516 290l-7 7q25 33 25 74t-26 75l8 7q28 -36 28 -82q0 -47 -28 -81zM341 464l-7 7q36 31 82 31q47 0 82 -30l-7 -8q-33 28 -75 28t-75 -28zM358 445l-8 8
q29 24 66 24t66 -24l-8 -8q-25 22 -58 22t-58 -22zM416 265q-37 0 -66 24l7 8q25 -22 59 -22q33 0 58 22l7 -8q-29 -24 -65 -24zM334 306q-21 29 -21 65t21 65l8 -7q-19 -25 -19 -58q0 -32 19 -57zM498 306l-8 7q19 25 19 58t-19 58l7 7q22 -28 22 -65q0 -34 -21 -65z
M416 285q-29 0 -53 19l7 8q22 -17 46 -17q25 0 45 17l7 -8q-22 -19 -52 -19zM371 430l-7 8q22 19 52 19t52 -19l-7 -8q-19 17 -45 17t-45 -17zM349 320q-16 22 -16 51t16 51l8 -7q-14 -20 -14 -44t14 -44zM482 319q-3 4 -7 7q14 20 14 45t-14 44l7 7q17 -22 17 -51t-17 -52z
M468 333l-8 7q10 15 10 31t-10 31l8 7q12 -16 12 -38q0 -21 -12 -38zM416 305q-21 0 -40 14l7 7q17 -12 33 -12q17 0 32 12l7 -7q-17 -14 -39 -14zM364 333q-12 17 -12 38t12 38l7 -7q-9 -16 -9 -31t9 -31zM384 416l-7 7q17 14 39 14q21 0 38 -14l-6 -7q-14 12 -32 12
q-17 0 -32 -12zM416 324q-15 0 -27 9l6 6q11 -7 21 -7q13 0 21 7q2 -2 5 -6q-10 -9 -26 -9zM395 403l-5 6q10 9 26 9t26 -9l-5 -6q-10 7 -21 7q-13 0 -21 -7zM378 346q-7 12 -7 25t7 25l6 -5q-5 -10 -5 -20t5 -20q-2 -2 -6 -5zM454 346l-6 5q5 10 5 20t-5 20l6 5
q7 -12 7 -25t-7 -25z" />
    <glyph glyph-name="onesuperior" horiz-adv-x="321" 
d="M112 256v375h-68v110h194v-485h-126z" />
    <glyph glyph-name="twosuperior" horiz-adv-x="431" 
d="M45 256v88l123 131q52 56 65 75.5t13 41.5q0 27 -13.5 36t-43.5 9q-48 0 -96 -23l-51 99q70 34 167 34q156 0 156 -133q0 -58 -20.5 -96t-89.5 -108l-55 -56h174v-98h-329z" />
    <glyph glyph-name="a.alt" horiz-adv-x="564" 
d="M216 -7q-60 0 -99.5 22.5t-58 67t-25 90.5t-6.5 113q0 43 3 76.5t10 68.5t21 60t35.5 45.5t53.5 30.5t73 10q73 0 106.5 -11t52.5 -35l24 41l110 -10v-557l-121 -10l-11 51q-40 -53 -168 -53zM268 124q61 0 79 36.5t18 122.5q0 85 -17.5 119.5t-79.5 34.5
q-54 0 -71.5 -35.5t-17.5 -118.5q0 -86 17 -122.5t72 -36.5z" />
    <glyph glyph-name="g.alt" horiz-adv-x="568" 
d="M288 -167q-128 0 -218 25l41 128q75 -23 152 -23q62 0 84.5 19.5t22.5 57.5v20q-39 -50 -154 -50q-49 0 -84 14.5t-55 37t-31.5 60.5t-15 75t-3.5 89q0 43 3 76.5t10 68.5t21 60t35.5 45.5t53.5 30.5t73 10q73 0 108.5 -11t56.5 -36l22 42l111 -10v-512q0 -111 -50 -164
t-183 -53zM268 132q62 0 81.5 36.5t19.5 117.5t-19 116t-82 35q-54 0 -71.5 -35t-17.5 -116q0 -82 17 -118t72 -36z" />
    <glyph glyph-name="l.alt" horiz-adv-x="256" 
d="M52 0v769h151v-769h-151z" />
    <glyph glyph-name="u.alt" horiz-adv-x="559" 
d="M210 -7q-50 0 -84 15t-51.5 44.5t-24 64t-6.5 83.5v367h152v-344q0 -55 13.5 -77t59.5 -22q57 0 74 26.5t17 93.5v323h151v-562l-121 -9l-11 49q-41 -52 -169 -52z" />
    <glyph glyph-name="aacute.alt" horiz-adv-x="564" 
d="M193 620l106 183h167l-144 -183h-129zM216 -7q-60 0 -99.5 22.5t-58 67t-25 90.5t-6.5 113q0 43 3 76.5t10 68.5t21 60t35.5 45.5t53.5 30.5t73 10q73 0 106.5 -11t52.5 -35l24 41l110 -10v-557l-121 -10l-11 51q-40 -53 -168 -53zM268 124q61 0 79 36.5t18 122.5
q0 85 -17.5 119.5t-79.5 34.5q-54 0 -71.5 -35.5t-17.5 -118.5q0 -86 17 -122.5t72 -36.5z" />
    <glyph glyph-name="abreve.alt" horiz-adv-x="564" 
d="M216 -7q-60 0 -99.5 22.5t-58 67t-25 90.5t-6.5 113q0 43 3 76.5t10 68.5t21 60t35.5 45.5t53.5 30.5t73 10q73 0 106.5 -11t52.5 -35l24 41l110 -10v-557l-121 -10l-11 51q-40 -53 -168 -53zM268 124q61 0 79 36.5t18 122.5q0 85 -17.5 119.5t-79.5 34.5
q-54 0 -71.5 -35.5t-17.5 -118.5q0 -86 17 -122.5t72 -36.5zM281 614q-96 0 -133.5 41t-50.5 136l108 16q8 -46 23 -62.5t53 -16.5t53.5 16.5t22.5 62.5l109 -15q-14 -97 -51.5 -137.5t-133.5 -40.5z" />
    <glyph glyph-name="acircumflex.alt" horiz-adv-x="564" 
d="M103 620l109 183h139l110 -183h-120l-61 79l-60 -79h-117zM216 -7q-60 0 -99.5 22.5t-58 67t-25 90.5t-6.5 113q0 43 3 76.5t10 68.5t21 60t35.5 45.5t53.5 30.5t73 10q73 0 106.5 -11t52.5 -35l24 41l110 -10v-557l-121 -10l-11 51q-40 -53 -168 -53zM268 124
q61 0 79 36.5t18 122.5q0 85 -17.5 119.5t-79.5 34.5q-54 0 -71.5 -35.5t-17.5 -118.5q0 -86 17 -122.5t72 -36.5z" />
    <glyph glyph-name="adieresis.alt" horiz-adv-x="564" 
d="M117 620v134h134v-134h-134zM313 620v134h133v-134h-133zM216 -7q-60 0 -99.5 22.5t-58 67t-25 90.5t-6.5 113q0 43 3 76.5t10 68.5t21 60t35.5 45.5t53.5 30.5t73 10q73 0 106.5 -11t52.5 -35l24 41l110 -10v-557l-121 -10l-11 51q-40 -53 -168 -53zM268 124
q61 0 79 36.5t18 122.5q0 85 -17.5 119.5t-79.5 34.5q-54 0 -71.5 -35.5t-17.5 -118.5q0 -86 17 -122.5t72 -36.5z" />
    <glyph glyph-name="agrave.alt" horiz-adv-x="564" 
d="M216 -7q-60 0 -99.5 22.5t-58 67t-25 90.5t-6.5 113q0 43 3 76.5t10 68.5t21 60t35.5 45.5t53.5 30.5t73 10q73 0 106.5 -11t52.5 -35l24 41l110 -10v-557l-121 -10l-11 51q-40 -53 -168 -53zM268 124q61 0 79 36.5t18 122.5q0 85 -17.5 119.5t-79.5 34.5
q-54 0 -71.5 -35.5t-17.5 -118.5q0 -86 17 -122.5t72 -36.5zM241 620l-145 183h168l106 -183h-129z" />
    <glyph glyph-name="amacron.alt" horiz-adv-x="564" 
d="M216 -7q-60 0 -99.5 22.5t-58 67t-25 90.5t-6.5 113q0 43 3 76.5t10 68.5t21 60t35.5 45.5t53.5 30.5t73 10q73 0 106.5 -11t52.5 -35l24 41l110 -10v-557l-121 -10l-11 51q-40 -53 -168 -53zM268 124q61 0 79 36.5t18 122.5q0 85 -17.5 119.5t-79.5 34.5
q-54 0 -71.5 -35.5t-17.5 -118.5q0 -86 17 -122.5t72 -36.5zM101 620v125h360v-125h-360z" />
    <glyph glyph-name="aogonek.alt" horiz-adv-x="564" 
d="M216 -7q-60 0 -99.5 22.5t-58 67t-25 90.5t-6.5 113q0 43 3 76.5t10 68.5t21 60t35.5 45.5t53.5 30.5t73 10q73 0 106.5 -11t52.5 -35l24 41l110 -10v-557q-44 -33 -67 -59.5t-23 -52.5q0 -42 49 -42h30v-85h-43q-74 0 -105.5 21.5t-31.5 81.5q0 42 20.5 75.5t48.5 53.5
l-10 48q-40 -53 -168 -53zM268 124q61 0 79 36.5t18 122.5q0 85 -17.5 119.5t-79.5 34.5q-54 0 -71.5 -35.5t-17.5 -118.5q0 -86 17 -122.5t72 -36.5z" />
    <glyph glyph-name="aring.alt" horiz-adv-x="564" 
d="M281 611q-123 0 -123 134q0 136 123 136q63 0 93.5 -37t30.5 -99q0 -61 -30.5 -97.5t-93.5 -36.5zM281 683q49 0 49 62q0 63 -49 63t-49 -63q0 -62 49 -62zM216 -7q-60 0 -99.5 22.5t-58 67t-25 90.5t-6.5 113q0 43 3 76.5t10 68.5t21 60t35.5 45.5t53.5 30.5t73 10
q73 0 106.5 -11t52.5 -35l24 41l110 -10v-557l-121 -10l-11 51q-40 -53 -168 -53zM268 124q61 0 79 36.5t18 122.5q0 85 -17.5 119.5t-79.5 34.5q-54 0 -71.5 -35.5t-17.5 -118.5q0 -86 17 -122.5t72 -36.5z" />
    <glyph glyph-name="atilde.alt" horiz-adv-x="564" 
d="M216 -7q-60 0 -99.5 22.5t-58 67t-25 90.5t-6.5 113q0 43 3 76.5t10 68.5t21 60t35.5 45.5t53.5 30.5t73 10q73 0 106.5 -11t52.5 -35l24 41l110 -10v-557l-121 -10l-11 51q-40 -53 -168 -53zM268 124q61 0 79 36.5t18 122.5q0 85 -17.5 119.5t-79.5 34.5
q-54 0 -71.5 -35.5t-17.5 -118.5q0 -86 17 -122.5t72 -36.5zM165 614l-97 56q56 110 146 110q30 0 68 -21.5t50 -21.5q28 0 63 48l96 -56q-30 -58 -64 -84.5t-81 -26.5q-30 0 -68.5 21t-49.5 21q-31 0 -63 -46z" />
    <glyph glyph-name="gbreve.alt" horiz-adv-x="568" 
d="M288 -167q-128 0 -218 25l41 128q75 -23 152 -23q62 0 84.5 19.5t22.5 57.5v20q-39 -50 -154 -50q-49 0 -84 14.5t-55 37t-31.5 60.5t-15 75t-3.5 89q0 43 3 76.5t10 68.5t21 60t35.5 45.5t53.5 30.5t73 10q73 0 108.5 -11t56.5 -36l22 42l111 -10v-512q0 -111 -50 -164
t-183 -53zM268 132q62 0 81.5 36.5t19.5 117.5t-19 116t-82 35q-54 0 -71.5 -35t-17.5 -116q0 -82 17 -118t72 -36zM284 614q-96 0 -133.5 41t-50.5 136l108 16q8 -46 23 -62.5t53 -16.5t53.5 16.5t22.5 62.5l109 -15q-14 -97 -51.5 -137.5t-133.5 -40.5z" />
    <glyph glyph-name="gcommaaccent.alt" horiz-adv-x="568" 
d="M218 620v117q0 51 18.5 77t83.5 57l31 -56q-39 -23 -48.5 -33t-9.5 -32h57v-130h-132zM288 -167q-128 0 -218 25l41 128q75 -23 152 -23q62 0 84.5 19.5t22.5 57.5v20q-39 -50 -154 -50q-49 0 -84 14.5t-55 37t-31.5 60.5t-15 75t-3.5 89q0 43 3 76.5t10 68.5t21 60
t35.5 45.5t53.5 30.5t73 10q73 0 108.5 -11t56.5 -36l22 42l111 -10v-512q0 -111 -50 -164t-183 -53zM268 132q62 0 81.5 36.5t19.5 117.5t-19 116t-82 35q-54 0 -71.5 -35t-17.5 -116q0 -82 17 -118t72 -36z" />
    <glyph glyph-name="lacute.alt" horiz-adv-x="256" 
d="M65 816l106 183h167l-144 -183h-129zM52 0v769h151v-769h-151z" />
    <glyph glyph-name="lcommaaccent.alt" horiz-adv-x="256" 
d="M93 -287l-32 57q39 22 49 32t10 33h-58v130h132v-118q0 -51 -18 -77t-83 -57zM52 0v769h151v-769h-151z" />
    <glyph glyph-name="lslash.alt" horiz-adv-x="296" 
d="M1 341v132l71 41v255h151v-168l71 42v-132l-71 -42v-469h-151v382z" />
    <glyph glyph-name="lcaron.alt" horiz-adv-x="376" 
d="M282 518l-31 56q39 23 48.5 33t9.5 32h-58v130h133v-118q0 -50 -18.5 -76.5t-83.5 -56.5zM52 0v769h151v-769h-151z" />
    <glyph glyph-name="uacute.alt" horiz-adv-x="559" 
d="M190 620l106 183h167l-144 -183h-129zM210 -7q-50 0 -84 15t-51.5 44.5t-24 64t-6.5 83.5v367h152v-344q0 -55 13.5 -77t59.5 -22q57 0 74 26.5t17 93.5v323h151v-562l-121 -9l-11 49q-41 -52 -169 -52z" />
    <glyph glyph-name="ucircumflex.alt" horiz-adv-x="559" 
d="M100 620l109 183h139l110 -183h-120l-61 79l-60 -79h-117zM210 -7q-50 0 -84 15t-51.5 44.5t-24 64t-6.5 83.5v367h152v-344q0 -55 13.5 -77t59.5 -22q57 0 74 26.5t17 93.5v323h151v-562l-121 -9l-11 49q-41 -52 -169 -52z" />
    <glyph glyph-name="udieresis.alt" horiz-adv-x="559" 
d="M114 620v134h134v-134h-134zM310 620v134h133v-134h-133zM210 -7q-50 0 -84 15t-51.5 44.5t-24 64t-6.5 83.5v367h152v-344q0 -55 13.5 -77t59.5 -22q57 0 74 26.5t17 93.5v323h151v-562l-121 -9l-11 49q-41 -52 -169 -52z" />
    <glyph glyph-name="ugrave.alt" horiz-adv-x="559" 
d="M238 620l-145 183h168l106 -183h-129zM210 -7q-50 0 -84 15t-51.5 44.5t-24 64t-6.5 83.5v367h152v-344q0 -55 13.5 -77t59.5 -22q57 0 74 26.5t17 93.5v323h151v-562l-121 -9l-11 49q-41 -52 -169 -52z" />
    <glyph glyph-name="uhungarumlaut.alt" horiz-adv-x="559" 
d="M104 620l101 183h155l-140 -183h-116zM311 620l101 183h154l-140 -183h-115zM210 -7q-50 0 -84 15t-51.5 44.5t-24 64t-6.5 83.5v367h152v-344q0 -55 13.5 -77t59.5 -22q57 0 74 26.5t17 93.5v323h151v-562l-121 -9l-11 49q-41 -52 -169 -52z" />
    <glyph glyph-name="umacron.alt" horiz-adv-x="559" 
d="M98 620v125h360v-125h-360zM210 -7q-50 0 -84 15t-51.5 44.5t-24 64t-6.5 83.5v367h152v-344q0 -55 13.5 -77t59.5 -22q57 0 74 26.5t17 93.5v323h151v-562l-121 -9l-11 49q-41 -52 -169 -52z" />
    <glyph glyph-name="uogonek.alt" horiz-adv-x="559" 
d="M210 -7q-50 0 -84 15t-51.5 44.5t-24 64t-6.5 83.5v367h152v-344q0 -55 13.5 -77t59.5 -22q57 0 74 26.5t17 93.5v323h151v-562q-44 -33 -67 -59.5t-23 -52.5q0 -42 49 -42h30v-85h-43q-74 0 -105.5 21.5t-31.5 81.5q0 42 20.5 75.5t48.5 53.5l-10 47q-41 -52 -169 -52z
" />
    <glyph glyph-name="uring.alt" horiz-adv-x="559" 
d="M278 611q-123 0 -123 134q0 136 123 136q63 0 93.5 -37t30.5 -99q0 -61 -30.5 -97.5t-93.5 -36.5zM278 683q49 0 49 62q0 63 -49 63t-49 -63q0 -62 49 -62zM210 -7q-50 0 -84 15t-51.5 44.5t-24 64t-6.5 83.5v367h152v-344q0 -55 13.5 -77t59.5 -22q57 0 74 26.5t17 93.5
v323h151v-562l-121 -9l-11 49q-41 -52 -169 -52z" />
    </font>
</defs>
</svg>
