<?xml version="1.0" standalone="no"?>
<!DOCTYPE svg PUBLIC "-//W3C//DTD SVG 1.1//EN" "http://www.w3.org/Graphics/SVG/1.1/DTD/svg11.dtd" >
<svg>
<metadata>
Created by FontForge 20090622 at Fri Aug 10 12:11:53 2018
 By deploy user
Copyright (c) The Font Bureau, Inc., 2006. All rights reserved.
</metadata>
<defs>
<font id="FordAntennaCond-Regular" horiz-adv-x="1062" >
  <font-face 
    font-family="Ford Antenna Cond Regular"
    font-weight="400"
    font-stretch="normal"
    units-per-em="2048"
    panose-1="2 0 5 6 0 0 0 9 0 4"
    ascent="1638"
    descent="-410"
    x-height="1137"
    cap-height="1518"
    bbox="-131 -494 2621 2501"
    underline-thickness="102"
    underline-position="-102"
    unicode-range="U+0020-U+FB04"
  />
<missing-glyph horiz-adv-x="1024" 
d="M0 0v1434h1024v-1434h-1024zM102 1331v-1229h820v1229h-820z" />
    <glyph glyph-name="f_f" unicode="ff" horiz-adv-x="1241" 
d="M768 0v969h-360v-969h-193v969h-178v168h178v127q0 315 324 315h96v-170h-80q-88 0 -117.5 -40t-29.5 -124v-108h360v127q0 152 76.5 233.5t249.5 81.5q108 0 129 -2v-168h-115q-88 0 -117.5 -40t-29.5 -124v-108h262v-168h-262v-969h-193z" />
    <glyph glyph-name="fi" unicode="fi" horiz-adv-x="1083" 
d="M37 969v168h178v127q0 315 324 315h96v-170h-80q-88 0 -117.5 -40t-29.5 -124v-108h227v-168h-227v-969h-193v969h-178zM768 0v1137h193v-1137h-193zM768 1276v229h193v-229h-193z" />
    <glyph glyph-name="fl" unicode="fl" horiz-adv-x="1165" 
d="M37 969v168h178v127q0 315 324 315h96v-170h-80q-88 0 -117.5 -40t-29.5 -124v-108h227v-168h-227v-969h-193v969h-178zM1094 0q-11 -2 -66 -2q-149 0 -204.5 58.5t-55.5 209.5v1309h193v-1286q0 -40 2.5 -58.5t15.5 -35.5t39.5 -22t75.5 -5v-168z" />
    <glyph glyph-name="f_f_i" unicode="ffi" horiz-adv-x="1636" 
d="M768 0v969h-360v-969h-193v969h-178v168h178v127q0 315 324 315h96v-170h-80q-88 0 -117.5 -40t-29.5 -124v-108h360v127q0 152 76.5 233.5t249.5 81.5h94v-170h-80q-88 0 -117.5 -40t-29.5 -124v-108h227v-168h-227v-969h-193zM1321 0v1137h192v-1137h-192zM1321 1276
v229h192v-229h-192z" />
    <glyph glyph-name="f_f_l" unicode="ffl" horiz-adv-x="1720" 
d="M768 0v969h-360v-969h-193v969h-178v168h178v127q0 315 324 315h96v-170h-80q-88 0 -117.5 -40t-29.5 -124v-108h360v127q0 152 76.5 233.5t249.5 81.5h94v-170h-80q-88 0 -117.5 -40t-29.5 -124v-108h227v-168h-227v-969h-193zM1647 0q-9 -2 -66 -2q-148 0 -204 58.5
t-56 209.5v1309h192v-1286q0 -27 1 -41.5t5 -30.5t12.5 -23.5t23.5 -14.5t37 -9t55 -2v-168z" />
    <glyph glyph-name="f_j" unicode="fj" horiz-adv-x="1083" 
d="M37 969v168h178v127q0 315 324 315h96v-170h-80q-88 0 -117.5 -40t-29.5 -124v-108h227v-168h-227v-969h-193v969h-178zM651 -324v158h17q63 0 81.5 27.5t18.5 103.5v1172h193v-1178q0 -158 -58 -220.5t-223 -62.5h-29zM768 1276v229h193v-229h-193z" />
    <glyph glyph-name="f_t" unicode="ft" horiz-adv-x="1339" 
d="M37 969v168h178v127q0 315 324 315h96v-170h-80q-88 0 -117.5 -40t-29.5 -124v-108h403l31 301l153 35v-336h269v-168h-269v-647q0 -83 27 -118.5t115 -35.5h127v-168q-93 -6 -148 -6q-94 0 -155 17.5t-95.5 57.5t-47.5 95t-13 139v666h-397v-969h-193v969h-178z" />
    <glyph glyph-name=".notdef" horiz-adv-x="1024" 
d="M0 0v1434h1024v-1434h-1024zM102 1331v-1229h820v1229h-820z" />
    <glyph glyph-name=".null" horiz-adv-x="0" 
 />
    <glyph glyph-name="nonmarkingreturn" horiz-adv-x="682" 
 />
    <glyph glyph-name="space" unicode=" " horiz-adv-x="368" 
 />
    <glyph glyph-name="exclam" unicode="!" horiz-adv-x="626" 
d="M197 0v256h231v-256h-231zM227 432l-16 1086h209l-21 -1086h-172z" />
    <glyph glyph-name="quotedbl" unicode="&#x22;" horiz-adv-x="870" 
d="M162 899l-8 619h196l-10 -619h-178zM532 899l-12 619h199l-12 -619h-175z" />
    <glyph glyph-name="numbersign" unicode="#" horiz-adv-x="1214" 
d="M201 0l67 449h-172v178h199l37 241h-236v176h262l72 474h182l-71 -474h219l69 474h183l-72 -474h176v-176h-203l-36 -241h239v-178h-266l-68 -449h-180l68 449h-219l-68 -449h-182zM461 612h246l43 269h-248z" />
    <glyph glyph-name="dollar" unicode="$" horiz-adv-x="1101" 
d="M465 -188v188q-226 13 -377 123l90 145q132 -87 295 -104v559q-65 27 -108.5 49.5t-89 57t-72 73.5t-43.5 95t-17 126q0 175 77 272.5t245 116.5v177h184v-174q164 -18 293 -86l-86 -154q-93 49 -217 63v-491q67 -28 113 -52t96.5 -62t81 -80.5t50 -104t19.5 -137.5
q0 -184 -82.5 -286.5t-267.5 -123.5v-190h-184zM811 401q0 90 -41.5 145.5t-130.5 102.5v-481q172 37 172 233zM332 1130q0 -71 34 -118.5t107 -87.5v409q-141 -31 -141 -203z" />
    <glyph glyph-name="percent" unicode="%" horiz-adv-x="1914" 
d="M414 565q-179 0 -263.5 111.5t-84.5 372.5q0 262 84.5 372.5t263.5 110.5q120 0 195.5 -45.5t116 -153t40.5 -284.5q0 -261 -86 -372.5t-266 -111.5zM416 713q96 0 136 73t40 258t-40 258.5t-136 73.5t-136 -73.5t-40 -258.5t40 -258t136 -73zM1499 -14
q-179 0 -263.5 111t-84.5 372t84.5 373t263.5 112q180 0 265 -112t85 -373t-85 -372t-265 -111zM1499 133q95 0 136.5 74.5t41.5 257.5q0 184 -41 258t-137 74q-95 0 -135.5 -73.5t-40.5 -258.5q0 -184 40.5 -258t135.5 -74zM537 0l665 1518h180l-667 -1518h-178z" />
    <glyph glyph-name="ampersand" unicode="&#x26;" horiz-adv-x="1359" 
d="M528 -14q-238 0 -345 108t-107 316q0 79 22 146t65.5 121t89.5 94t112 85q-123 183 -123 361q0 327 321 327q161 0 238.5 -82t77.5 -245q0 -68 -20.5 -128t-60 -110t-81.5 -88.5t-99 -79.5l125 -145l199 -238q26 65 46.5 158.5t30.5 163t25 196.5l173 -22
q-28 -227 -60 -376t-92 -263l242 -285h-238l-113 133q-153 -147 -428 -147zM528 150q205 0 316 116l-252 301l-131 158q-93 -74 -144 -145.5t-51 -161.5q0 -46 5 -81t21.5 -72t44 -60.5t76.5 -39t115 -15.5zM428 1217q0 -127 96 -277q83 63 128.5 130t45.5 147
q0 78 -29.5 118.5t-105.5 40.5q-77 0 -106 -39.5t-29 -119.5z" />
    <glyph glyph-name="quotesingle" unicode="'" horiz-adv-x="501" 
d="M162 899l-8 619h198l-12 -619h-178z" />
    <glyph glyph-name="parenleft" unicode="(" horiz-adv-x="817" 
d="M522 -354q-48 48 -94 110.5t-92 154t-80.5 195t-56 238t-21.5 277.5q0 168 32 328t84 282t110 214t118 152l142 -94q-55 -63 -102 -139.5t-92 -184t-71 -251t-26 -305.5q0 -163 27.5 -310.5t73 -256.5t92.5 -186t98 -132z" />
    <glyph glyph-name="parenright" unicode=")" horiz-adv-x="817" 
d="M295 -354l-139 92q288 342 288 885q0 162 -27 308.5t-72.5 255t-92 184.5t-96.5 132l139 94q49 -48 95 -111.5t92.5 -154.5t80 -194.5t55 -237t21.5 -276.5q0 -169 -31.5 -329t-83.5 -282.5t-110 -214.5t-119 -151z" />
    <glyph glyph-name="asterisk" unicode="*" horiz-adv-x="985" 
d="M414 616l18 334l-258 -176l-84 141l283 152l-283 156l84 137l258 -176l-18 336h153l-14 -338l258 180l84 -137l-285 -158l285 -154l-82 -139l-260 178l14 -336h-153z" />
    <glyph glyph-name="plus" unicode="+" horiz-adv-x="1159" 
d="M489 254v383h-319v168h319v381h181v-381h319v-168h-319v-383h-181z" />
    <glyph glyph-name="comma" unicode="," horiz-adv-x="442" 
d="M158 -244l-58 101q74 40 92.5 63.5t18.5 79.5h-107v258h234v-242q0 -103 -33.5 -154t-146.5 -106z" />
    <glyph glyph-name="hyphen" unicode="-" horiz-adv-x="722" 
d="M76 555v178h569v-178h-569z" />
    <glyph glyph-name="hyphen" unicode="&#xad;" horiz-adv-x="722" 
d="M76 555v178h569v-178h-569z" />
    <glyph glyph-name="period" unicode="." horiz-adv-x="442" 
d="M104 0v258h234v-258h-234z" />
    <glyph glyph-name="slash" unicode="/" horiz-adv-x="872" 
d="M0 0l680 1518h192l-679 -1518h-193z" />
    <glyph glyph-name="zero" unicode="0" horiz-adv-x="1208" 
d="M606 -16q-88 0 -157 16t-120.5 45t-88.5 78.5t-60.5 109t-37.5 143t-19.5 173.5t-5.5 209q0 139 7.5 239t26.5 192.5t53.5 152.5t88.5 105.5t131.5 66t181.5 20.5q87 0 155.5 -16.5t119.5 -46.5t87.5 -80.5t60 -110t37 -143.5t19 -173t5.5 -206q0 -120 -5.5 -210
t-19 -174t-37 -143t-60 -108.5t-87.5 -78.5t-119 -44.5t-156 -15.5zM606 162q71 0 120.5 21.5t83 63t52 115.5t26 167t7.5 229q0 332 -59.5 461t-229.5 129q-72 0 -122 -21t-83.5 -62t-52 -114.5t-26 -165.5t-7.5 -227q0 -136 7.5 -228.5t26 -167t52 -116t83.5 -63
t122 -21.5z" />
    <glyph glyph-name="one" unicode="1" horiz-adv-x="636" 
d="M268 0v1341h-221v177h414v-1518h-193z" />
    <glyph glyph-name="two" unicode="2" horiz-adv-x="1011" 
d="M70 0v156l336 415q133 165 196 263t80.5 157.5t17.5 141.5q0 116 -50 167.5t-173 51.5q-166 0 -307 -72l-82 162q89 45 185.5 68.5t232.5 23.5q207 0 297 -91.5t90 -283.5q0 -164 -64.5 -292t-283.5 -400l-238 -297h604v-170h-841z" />
    <glyph glyph-name="three" unicode="3" horiz-adv-x="1009" 
d="M461 -16q-132 0 -222.5 23t-179.5 73l88 158q73 -40 142 -59t160 -19q151 0 211.5 64.5t60.5 232.5q0 69 -9.5 113t-38 82t-86.5 55.5t-149 17.5h-180v172h191q71 0 119 16t73 48t35 70.5t10 92.5q0 70 -13.5 115t-44 70t-71.5 34t-104 9q-146 0 -289 -70l-80 156
q168 96 397 96q102 0 171 -16t122 -55.5t78 -112t25 -181.5q0 -148 -38 -227.5t-122 -112.5q111 -34 152.5 -118t41.5 -273q0 -127 -26.5 -214t-83.5 -140.5t-139.5 -76.5t-200.5 -23z" />
    <glyph glyph-name="four" unicode="4" horiz-adv-x="1116" 
d="M74 344v154l530 1020h203l-528 -1012h405l39 467h139v-467h203v-162h-203v-344h-180v344h-608z" />
    <glyph glyph-name="five" unicode="5" horiz-adv-x="1050" 
d="M502 -16q-255 0 -434 98l88 158q146 -80 333 -80q79 0 129 13.5t87.5 50t54 102.5t16.5 170q0 102 -16 167t-51.5 99.5t-81 46.5t-115.5 12q-148 0 -244 -80l-149 43l37 734h739v-177h-576l-20 -409q95 65 274 65q107 0 178 -23t121.5 -79t73.5 -152.5t23 -242.5
q0 -126 -19.5 -216.5t-55 -148.5t-94.5 -91.5t-129.5 -46.5t-168.5 -13z" />
    <glyph glyph-name="six" unicode="6" horiz-adv-x="1142" 
d="M598 -16q-92 0 -163 14t-122.5 39t-87.5 67.5t-58.5 90.5t-34.5 117.5t-16.5 139t-4.5 164.5q0 337 28 484q39 211 163 306q146 112 464 112h117v-177h-127q-83 0 -148 -11t-110.5 -28.5t-78.5 -49.5t-52.5 -64t-32 -83t-18 -95.5t-9.5 -110.5q95 123 348 123
q99 0 171 -23.5t116 -63.5t69.5 -105t34.5 -136t9 -168q0 -142 -21 -238.5t-72.5 -167t-140.5 -103.5t-223 -33zM600 154q153 0 208.5 87.5t55.5 282.5q0 176 -55 255t-205 79q-137 0 -216 -77.5t-79 -243.5q0 -105 11.5 -172t43 -117t89 -72t147.5 -22z" />
    <glyph glyph-name="seven" unicode="7" horiz-adv-x="905" 
d="M221 0l447 1341h-629v177h838v-152l-451 -1366h-205z" />
    <glyph glyph-name="eight" unicode="8" horiz-adv-x="1148" 
d="M575 -16q-101 0 -179 16t-129.5 48t-85.5 70.5t-51.5 92.5t-24.5 105t-7 116q0 63 3.5 108.5t16 96t34.5 85.5t61 66t94 48q-53 21 -87.5 53.5t-51 78.5t-22 90.5t-5.5 106.5q0 64 10.5 114.5t39 100t76 82t125.5 52.5t183 20q130 0 219 -29t134 -83t62.5 -115t17.5 -142
q0 -62 -6 -107t-22.5 -91t-51 -78.5t-86.5 -52.5q47 -15 82.5 -37.5t58 -54t36.5 -63.5t21 -76.5t9 -81.5t2 -91q0 -65 -7 -116t-24.5 -105t-51.5 -92.5t-85 -70.5t-129 -48t-179 -16zM575 152q86 0 143 21.5t86.5 64.5t40.5 93.5t11 121.5q0 70 -11 118.5t-40.5 89
t-86.5 60.5t-143 20t-142.5 -20t-86 -60.5t-40.5 -89t-11 -118.5q0 -71 11 -121.5t40.5 -93.5t86.5 -64.5t142 -21.5zM575 905q139 0 191.5 58t52.5 174q0 114 -52.5 171.5t-191.5 57.5q-137 0 -191 -58t-54 -171q0 -115 53.5 -173.5t191.5 -58.5z" />
    <glyph glyph-name="nine" unicode="9" horiz-adv-x="1142" 
d="M256 0v170h131q94 0 164 13t118 41t78.5 62.5t48.5 89t26 107.5t12 129q-92 -123 -347 -123q-100 0 -172 23.5t-116 64t-69.5 105.5t-34.5 135.5t-9 167.5q0 142 21 239.5t72.5 169.5t142 106t225.5 34q91 0 161.5 -14t121.5 -39t87.5 -67.5t58.5 -90.5t34.5 -117.5
t17 -138.5t4.5 -164q0 -341 -30 -493q-42 -210 -170 -303q-145 -107 -455 -107h-121zM539 653q137 0 216 79t79 245q0 104 -11.5 171t-43.5 117t-89 71.5t-147 21.5q-64 0 -110 -15.5t-76 -43.5t-47 -75t-24 -103.5t-7 -135.5q0 -174 55 -253t205 -79z" />
    <glyph glyph-name="colon" unicode=":" horiz-adv-x="475" 
d="M121 0v254h231v-254h-231zM121 885v252h231v-252h-231z" />
    <glyph glyph-name="semicolon" unicode=";" horiz-adv-x="475" 
d="M121 885v252h231v-252h-231zM174 -244l-57 101q73 40 91.5 63.5t18.5 79.5h-106v254h231v-238q0 -104 -32.5 -154.5t-145.5 -105.5z" />
    <glyph glyph-name="less" unicode="&#x3c;" horiz-adv-x="1157" 
d="M918 217l-744 422v139l744 422v-186l-549 -303l549 -305v-189z" />
    <glyph glyph-name="equal" unicode="=" horiz-adv-x="1161" 
d="M176 416v178h811v-178h-811zM176 823v176h811v-176h-811z" />
    <glyph glyph-name="greater" unicode="&#x3e;" horiz-adv-x="1159" 
d="M240 217v186l546 304l-546 307v186l743 -422v-139z" />
    <glyph glyph-name="question" unicode="?" horiz-adv-x="1060" 
d="M395 418q-1 76 2.5 121t13 88t33.5 81t57 77.5t91 99.5q89 89 121 142t32 130q0 97 -48.5 148t-180.5 51q-159 0 -307 -76l-86 162q184 92 422 92q113 0 192 -25t122 -73t61 -107.5t18 -138.5q0 -67 -12 -120t-40.5 -100t-55 -78t-76.5 -83q-87 -87 -120.5 -136
t-42.5 -98.5t-7 -156.5h-189zM373 0v233h229v-233h-229z" />
    <glyph glyph-name="at" unicode="@" horiz-adv-x="1726" 
d="M864 -338q-198 0 -336.5 48.5t-234 158t-140 288.5t-44.5 439q0 259 44.5 438t140 289.5t234 159.5t336.5 49t336.5 -49t234 -159.5t140.5 -289.5t45 -438q0 -121 -7.5 -204t-26 -148t-51.5 -102t-81.5 -55.5t-118.5 -18.5q-111 0 -165 33.5t-68 105.5
q-38 -70 -113.5 -103.5t-208.5 -33.5q-74 0 -131 18.5t-94 56t-61.5 82.5t-36.5 108.5t-16.5 123t-4.5 137.5q0 79 5 139.5t17.5 124.5t37 109.5t62 82.5t94 55.5t130.5 18.5q131 0 194 -27t97 -87l31 108l129 -10v-702q1 -42 2 -64t4 -50t8 -41t13 -28t21 -21t31 -10t42 -4
q58 0 87 31t42.5 117t13.5 258q0 187 -25.5 326t-74.5 234t-127 153t-176.5 83t-229.5 25q-132 0 -230.5 -25.5t-176 -83t-126 -152.5t-73.5 -233.5t-25 -326.5t25 -326t73.5 -233t126 -152.5t176 -82.5t230.5 -25q251 0 479 94l43 -104q-236 -105 -522 -105zM827 219
q47 0 83.5 10t61 26t41.5 45t26.5 56t14.5 71t6 79t1 90q0 67 -2.5 112t-11 91t-24.5 74t-41.5 51t-64 33t-90.5 10q-57 0 -97 -18.5t-63 -48t-36 -80.5t-17 -101.5t-4 -124.5q0 -73 4 -123.5t17 -101.5t36 -81.5t63 -49.5t97 -19z" />
    <glyph glyph-name="A" unicode="A" horiz-adv-x="1224" 
d="M41 0l467 1528h209l467 -1528h-201l-94 315h-561l-90 -315h-197zM381 496h457l-228 753z" />
    <glyph glyph-name="B" unicode="B" horiz-adv-x="1167" 
d="M133 0v1518h483q227 0 335 -91t108 -292q0 -271 -189 -338q110 -33 165 -122.5t55 -256.5q0 -225 -118.5 -321.5t-342.5 -96.5h-496zM330 170h297q63 0 109 12t82 41t54.5 81t18.5 128q0 145 -67.5 202.5t-196.5 57.5h-297v-522zM330 870h280q128 0 190 53.5t62 186.5
q0 131 -61.5 182t-190.5 51h-280v-473z" />
    <glyph glyph-name="C" unicode="C" horiz-adv-x="1067" 
d="M621 -16q-132 0 -229.5 36t-159 99.5t-99 163t-51.5 212.5t-14 263q0 105 6.5 190t23 167t44.5 144t71.5 115.5t102 87.5t139 53t180.5 19q228 0 369 -96l-105 -164q-109 67 -270 67q-106 0 -176.5 -34t-111 -109.5t-57 -181t-16.5 -262.5q0 -126 10 -216.5t34 -164.5
t65.5 -119t104 -68.5t149.5 -23.5q95 0 160.5 19.5t132.5 62.5l98 -154q-87 -54 -176.5 -80t-224.5 -26z" />
    <glyph glyph-name="D" unicode="D" horiz-adv-x="1228" 
d="M133 0v1518h430q177 0 294 -45t184 -143.5t93.5 -233.5t26.5 -336q0 -136 -11 -238t-37.5 -190.5t-71 -148t-112 -102t-160 -62t-214.5 -19.5h-422zM332 174h237q97 0 166 23.5t113 66.5t69 117.5t34.5 162.5t9.5 214q0 125 -9.5 212t-34 160t-68 116t-111.5 66t-165 23
h-241v-1161z" />
    <glyph glyph-name="E" unicode="E" 
d="M133 0v1518h834v-183h-639v-461h606v-180h-606v-516h645v-178h-840z" />
    <glyph glyph-name="F" unicode="F" horiz-adv-x="1021" 
d="M133 0v1518h836v-183h-637v-473h602v-180h-602v-682h-199z" />
    <glyph glyph-name="G" unicode="G" horiz-adv-x="1181" 
d="M612 -16q-127 0 -220.5 32t-155.5 92t-99.5 157t-53 215t-15.5 278q0 214 29.5 358.5t98.5 239.5t177.5 136.5t269.5 41.5q231 0 397 -104l-102 -164q-134 77 -303 77q-100 0 -166 -26t-113.5 -92.5t-68.5 -181t-21 -289.5q0 -335 78.5 -467.5t284.5 -132.5
q92 0 147.5 21t89.5 78t46 144.5t12 233.5v51h-359v172h549v-195q0 -133 -9 -229t-31.5 -174t-58.5 -127.5t-93 -83t-132 -47.5t-178 -14z" />
    <glyph glyph-name="H" unicode="H" horiz-adv-x="1290" 
d="M133 0v1518h199v-631h626v631h199v-1518h-199v692h-626v-692h-199z" />
    <glyph glyph-name="I" unicode="I" horiz-adv-x="491" 
d="M147 0v1518h199v-1518h-199z" />
    <glyph glyph-name="J" unicode="J" horiz-adv-x="724" 
d="M51 0v178h144q114 0 160 48t46 153v1139h199v-1151q0 -196 -94 -281.5t-283 -85.5h-172z" />
    <glyph glyph-name="K" unicode="K" horiz-adv-x="1198" 
d="M133 0v1518h197v-721l573 721h230l-463 -574l477 -944h-219l-391 782l-207 -266v-516h-197z" />
    <glyph glyph-name="L" unicode="L" horiz-adv-x="987" 
d="M133 0v1518h199v-1340h620v-178h-819z" />
    <glyph glyph-name="M" unicode="M" horiz-adv-x="1519" 
d="M133 0v1518h250l377 -1180l377 1180h249v-1518h-194v1143l-369 -1143h-143l-371 1143v-1143h-176z" />
    <glyph glyph-name="N" unicode="N" horiz-adv-x="1284" 
d="M133 0v1518h215l615 -1123v1123h190v-1518h-184l-647 1174v-1174h-189z" />
    <glyph glyph-name="O" unicode="O" horiz-adv-x="1286" 
d="M645 -16q-107 0 -193 21.5t-145.5 58t-103.5 94t-69.5 119t-40.5 145t-20 160.5t-5 176t5 176t20 161t40.5 145.5t69.5 119.5t103.5 94.5t145.5 58t193 21.5q84 0 154 -13t124 -36t97.5 -59t74 -77t53 -95t36 -107.5t21.5 -121.5t11 -129.5t3 -137.5q0 -99 -5 -176
t-20 -160.5t-40.5 -145t-69 -119.5t-103 -94t-144.5 -57.5t-192 -21.5zM645 162q72 0 128 15.5t95 41.5t67 69t44.5 88.5t25.5 110.5t12 124.5t3 140.5t-3 140.5t-12.5 124.5t-26 111t-44.5 89t-67 69t-95 41.5t-127 15.5q-63 0 -114 -11t-89 -34t-66.5 -52t-47.5 -71.5
t-31 -85.5t-18.5 -101.5t-8.5 -112t-2 -123.5q0 -81 3 -140.5t12 -124.5t25.5 -110.5t44.5 -88.5t67.5 -69t96 -41.5t128.5 -15.5z" />
    <glyph glyph-name="P" unicode="P" horiz-adv-x="1167" 
d="M133 0v1518h516q234 0 342.5 -113.5t108.5 -347.5q0 -236 -110 -359t-345 -123h-315v-575h-197zM330 754h311q139 0 201.5 67t62.5 228q0 159 -62 224.5t-202 65.5h-311v-585z" />
    <glyph glyph-name="Q" unicode="Q" horiz-adv-x="1286" 
d="M846 -348q-169 0 -253 69.5t-83 223.5q0 37 2 55q-82 12 -147.5 40.5t-111.5 67.5t-79.5 95t-53.5 114t-32 134.5t-16 147t-4 159.5q0 99 5 176t20 161t40.5 145.5t69.5 119.5t103.5 94.5t145.5 58t193 21.5q84 0 154 -13t124 -36t97.5 -59t74 -77t53 -95t36 -107.5
t21.5 -121.5t11 -129.5t3 -137.5q0 -95 -4.5 -169t-18 -154t-37 -140t-62.5 -116.5t-92.5 -93.5t-130 -61.5t-172.5 -29.5v-19q0 -85 39 -119t127 -34h129v-170h-151zM645 162q72 0 128 15.5t95 41.5t67 69t44.5 88.5t25.5 110.5t12 124.5t3 140.5t-3 140.5t-12.5 124.5
t-26 111t-44.5 89t-67 69t-95 41.5t-127 15.5q-63 0 -114 -11t-89 -34t-66.5 -52t-47.5 -71.5t-31 -85.5t-18.5 -101.5t-8.5 -112t-2 -123.5q0 -81 3 -140.5t12 -124.5t25.5 -110.5t44.5 -88.5t67.5 -69t96 -41.5t128.5 -15.5z" />
    <glyph glyph-name="R" unicode="R" horiz-adv-x="1185" 
d="M870 0l-264 586h-276v-586h-197v1518h512q234 0 342.5 -111.5t108.5 -341.5q0 -388 -293 -461l274 -604h-207zM330 764h309q138 0 199 66.5t61 224.5q0 155 -61 219.5t-199 64.5h-309v-575z" />
    <glyph glyph-name="S" unicode="S" horiz-adv-x="1103" 
d="M553 -16q-297 0 -494 122l99 154q173 -104 391 -104q145 0 217 59t72 170q0 43 -7 76t-26.5 61t-41 48t-65.5 44t-83.5 41.5t-110.5 46.5q-103 43 -168 80t-118.5 88t-77 116t-23.5 153q0 187 116.5 291t337.5 104q225 0 404 -82l-84 -170q-139 66 -316 66
q-134 0 -199 -53.5t-65 -149.5q0 -43 9.5 -74.5t26 -55.5t54 -48.5t78 -45t113.5 -53.5l108 -47.5t90.5 -44t77 -46t60 -49t47.5 -56.5t31.5 -65.5t20 -78.5t5.5 -94q0 -191 -122 -297t-357 -106z" />
    <glyph glyph-name="T" unicode="T" horiz-adv-x="1122" 
d="M461 0v1335h-426v183h1052v-183h-428v-1335h-198z" />
    <glyph glyph-name="U" unicode="U" horiz-adv-x="1280" 
d="M641 -20q-147 0 -248 34t-160 103.5t-84.5 163.5t-25.5 225v1012h199v-998q0 -93 14 -156t49.5 -110.5t99 -69.5t158.5 -22t158.5 21.5t99.5 68.5t51 110.5t15 157.5v998h190v-1012q0 -132 -24.5 -225t-82 -163t-159 -104t-250.5 -34z" />
    <glyph glyph-name="V" unicode="V" horiz-adv-x="1216" 
d="M504 -10l-463 1528h201l370 -1235l365 1235h199l-463 -1528h-209z" />
    <glyph glyph-name="W" unicode="W" horiz-adv-x="1763" 
d="M416 -10l-361 1528h201l268 -1147l277 1147h174l278 -1147l269 1147h186l-358 -1528h-193l-274 1126l-275 -1126h-192z" />
    <glyph glyph-name="X" unicode="X" horiz-adv-x="1196" 
d="M926 0l-340 616l-322 -616h-213l436 795l-395 723h217l297 -545l285 545h211l-395 -725l436 -793h-217z" />
    <glyph glyph-name="Y" unicode="Y" horiz-adv-x="1167" 
d="M485 0v547l-473 971h213l361 -756l364 756h203l-471 -971v-547h-197z" />
    <glyph glyph-name="Z" unicode="Z" horiz-adv-x="1089" 
d="M63 0v154l703 1181h-674v183h909v-164l-700 -1176h719v-178h-957z" />
    <glyph glyph-name="bracketleft" unicode="[" horiz-adv-x="806" 
d="M193 -324v1899h458v-166h-264v-1573h270v-160h-464z" />
    <glyph glyph-name="backslash" unicode="\" horiz-adv-x="872" 
d="M680 0l-680 1518h193l679 -1518h-192z" />
    <glyph glyph-name="bracketright" unicode="]" horiz-adv-x="806" 
d="M156 -324v160h266v1573h-264v166h460v-1899h-462z" />
    <glyph glyph-name="asciicircum" unicode="^" horiz-adv-x="964" 
d="M164 1221l229 331h182l228 -331h-160l-162 196l-162 -196h-155z" />
    <glyph glyph-name="underscore" unicode="_" horiz-adv-x="741" 
d="M-61 -256v147h864v-147h-864z" />
    <glyph glyph-name="grave" unicode="`" horiz-adv-x="964" 
d="M449 1255l-277 332h219l227 -332h-169z" />
    <glyph glyph-name="a" unicode="a" horiz-adv-x="1044" 
d="M406 -12q-183 0 -260.5 89.5t-77.5 264.5q0 98 24 170t68.5 119t117.5 75.5t162 40t211 11.5h47q-3 121 -43.5 173t-156.5 52q-155 0 -281 -61l-80 157q156 80 379 80q113 0 185.5 -23t113.5 -75t56.5 -123t15.5 -180v-479q0 -70 14.5 -90.5t73.5 -20.5v-168
q-17 -2 -53 -2q-93 0 -136 23t-59 85q-49 -65 -126.5 -91.5t-194.5 -26.5zM444 147q55 0 98.5 13.5t80 45t56 91t19.5 143.5v160h-45q-91 0 -151 -5t-112 -19.5t-80.5 -41.5t-44 -69.5t-15.5 -104.5q0 -118 48 -165.5t146 -47.5z" />
    <glyph glyph-name="b" unicode="b" horiz-adv-x="1081" 
d="M115 6v1569h190v-547q39 65 117 97t211 32q71 0 127.5 -17t95.5 -44.5t67.5 -72t45 -91t26 -110t12.5 -120.5t3 -131t-3.5 -131.5t-13.5 -120.5t-27 -110t-46 -91t-68.5 -71.5t-96.5 -44t-128 -16.5q-81 0 -137.5 8t-94.5 26.5t-61 38.5t-47 52l-29 -119zM575 154
q62 0 106.5 20t70.5 53t41 88t19.5 111t4.5 137t-4.5 137t-19 112.5t-40 89.5t-70.5 54t-108 21q-52 0 -92 -11t-68 -29t-48 -48t-31.5 -61.5t-18 -78t-8.5 -87.5t-2 -99t2 -98.5t8 -86.5t17.5 -77t31.5 -61t48 -47.5t68.5 -28t92.5 -10.5z" />
    <glyph glyph-name="c" unicode="c" horiz-adv-x="860" 
d="M512 -16q-107 0 -185 27.5t-126.5 75t-77.5 123.5t-40 161t-11 200t10.5 199.5t40 161t79 123.5t130 74.5t190.5 27.5q165 0 279 -57l-82 -166q-85 43 -189 43q-79 0 -131 -25.5t-81 -79.5t-40.5 -126.5t-11.5 -178.5q0 -108 11 -180t39.5 -127.5t81.5 -81.5t134 -26
q99 0 211 53l74 -148q-77 -38 -146 -55.5t-159 -17.5z" />
    <glyph glyph-name="d" unicode="d" horiz-adv-x="1081" 
d="M449 -14q-71 0 -127.5 16.5t-95.5 44.5t-67.5 72t-45 91t-26 110.5t-12.5 121t-3 131.5t3.5 132t13.5 120.5t27.5 109.5t46.5 90.5t69 71t97 44t128 16.5q134 0 206 -29t113 -88v535h191v-1567l-152 -14l-18 125q-42 -66 -121.5 -99.5t-226.5 -33.5zM506 154q52 0 93 11
t69 29t48 48.5t31.5 62t18 78t8.5 87.5t2 99t-2 98.5t-8 86.5t-17.5 77t-31.5 61t-48 47.5t-69 28.5t-94 11q-52 0 -91.5 -13t-66 -40t-43.5 -60.5t-26 -83t-12 -98.5t-3 -115q0 -81 4.5 -137t19 -112.5t40.5 -90t70.5 -54.5t107.5 -21z" />
    <glyph glyph-name="e" unicode="e" horiz-adv-x="978" 
d="M514 -14q-110 0 -189.5 27.5t-128 74.5t-76.5 123.5t-38 160t-10 199.5q0 112 11.5 197t41.5 161t79.5 124t128 76t185.5 28q58 0 106 -7.5t85 -22t66 -36t50 -49.5t36 -63t24 -75.5t14.5 -87.5t7 -100t2.5 -111t0 -122h-655q6 -174 62.5 -252.5t207.5 -78.5q69 0 128 11
t86.5 22t74.5 32l74 -147q-157 -84 -373 -84zM514 987q-75 0 -125 -22t-77.5 -67.5t-40 -103t-15.5 -141.5h475q-3 156 -18 210q-26 90 -110 114q-37 10 -89 10z" />
    <glyph glyph-name="f" unicode="f" horiz-adv-x="688" 
d="M37 969v168h178v127q0 315 324 315q110 0 131 -2v-168h-115q-88 0 -117.5 -40t-29.5 -124v-108h262v-168h-262v-969h-193v969h-178z" />
    <glyph glyph-name="g" unicode="g" horiz-adv-x="1017" 
d="M492 408q-80 0 -144 12q-12 -28 -12 -62q0 -44 35.5 -59.5t134.5 -15.5q174 0 270.5 -28.5t136 -89t39.5 -169.5q0 -177 -110 -257.5t-348 -80.5q-249 0 -354 60t-105 216q0 220 198 269q-65 40 -65 141q0 73 45 133q-123 85 -123 301q0 201 102.5 291t299.5 90
q26 0 92 -4l358 55v-153h-164q115 -78 115 -279q0 -199 -103.5 -284.5t-297.5 -85.5zM492 565q109 0 161 50.5t52 160.5q0 111 -52 162t-161 51q-107 0 -160 -51t-53 -162q0 -110 53 -160.5t160 -50.5zM492 -190q107 0 165 19t79.5 55.5t21.5 103.5q0 55 -20.5 84t-78 44
t-167.5 15q-149 0 -208 -39t-59 -127q0 -91 55.5 -123t211.5 -32z" />
    <glyph glyph-name="h" unicode="h" 
d="M115 0v1575h190v-541q74 123 324 123q85 0 145.5 -20.5t95.5 -54t54.5 -90t25.5 -113.5t6 -140v-739h-192v696q0 61 -3.5 100t-15 76.5t-33.5 57.5t-59.5 32.5t-91.5 12.5q-64 0 -108.5 -14.5t-73 -41t-44.5 -74.5t-22 -105t-6 -142v-598h-192z" />
    <glyph glyph-name="i" unicode="i" horiz-adv-x="436" 
d="M121 0v1137h192v-1137h-192zM121 1276v231h194v-231h-194z" />
    <glyph glyph-name="j" unicode="j" horiz-adv-x="436" 
d="M4 -324v158h19q63 0 80.5 27t17.5 104v1172h192v-1178q0 -80 -11.5 -131t-43 -86.5t-85 -50.5t-138.5 -15h-31zM121 1276v231h194v-231h-194z" />
    <glyph glyph-name="k" unicode="k" horiz-adv-x="954" 
d="M115 0v1575h188v-1000l393 562h207l-342 -482l369 -655h-203l-293 502l-131 -191v-311h-188z" />
    <glyph glyph-name="l" unicode="l" horiz-adv-x="520" 
d="M449 0q-11 -2 -68 -2q-148 0 -204 58.5t-56 209.5v1309h192v-1286q0 -40 3 -58.5t16.5 -35.5t40.5 -22t76 -5v-168z" />
    <glyph glyph-name="m" unicode="m" horiz-adv-x="1650" 
d="M115 0v1126l153 13l17 -113q35 64 110.5 97.5t222.5 33.5q94 0 152.5 -19t82.5 -45.5t40 -70.5q38 66 120 100.5t232 34.5q55 0 98.5 -7.5t75.5 -23.5t56 -35.5t39.5 -50t25.5 -60t15 -72t6.5 -80t1.5 -89.5v-739h-191v696q0 46 -1 73.5t-5 61t-12 52.5t-21.5 39
t-34.5 30t-50.5 16.5t-69.5 6.5q-63 0 -106 -14.5t-70 -41.5t-42 -75t-20.5 -104.5t-5.5 -141.5v-598h-191v696q0 46 -1 73.5t-5 61t-11.5 52.5t-21.5 39t-34.5 30t-50 16.5t-68.5 6.5q-79 0 -128 -21t-75.5 -70.5t-35.5 -114.5t-9 -171v-598h-188z" />
    <glyph glyph-name="n" unicode="n" 
d="M115 0v1126l153 13l17 -113q38 64 117 97.5t225 33.5q85 0 145.5 -20.5t96 -54t55.5 -90t26 -114t6 -139.5v-739h-192v696q0 61 -3.5 100t-15 76.5t-33.5 57.5t-59.5 32.5t-91.5 12.5q-66 0 -111.5 -16t-73.5 -43.5t-43.5 -76.5t-20.5 -104t-5 -137v-598h-192z" />
    <glyph glyph-name="o" unicode="o" horiz-adv-x="1052" 
d="M526 -16q-112 0 -193.5 29.5t-131 78.5t-79 126.5t-40 160t-10.5 192.5q0 109 10 191t39 159.5t78.5 127t131.5 79t195 29.5t195.5 -30t132 -79.5t78.5 -127.5t39 -159.5t10 -189.5q0 -111 -10 -193.5t-39 -160t-78.5 -126.5t-132 -78t-195.5 -29zM526 152q58 0 102 13.5
t72 42t46 62t27 84.5t12 98t3 113t-3 113t-12 98t-27 84.5t-46 61.5t-72 41.5t-102 13.5q-69 0 -117.5 -21t-76.5 -55t-43.5 -90.5t-20 -111t-4.5 -134.5q0 -65 3 -112.5t12.5 -98t27.5 -84.5t46.5 -62.5t72 -42t100.5 -13.5z" />
    <glyph glyph-name="p" unicode="p" horiz-adv-x="1081" 
d="M115 -324v1450l153 13l15 -115q84 133 350 133q71 0 127.5 -17t95.5 -44.5t67.5 -72t45 -91t26 -110t12.5 -120.5t3 -131q0 -86 -5 -152.5t-19 -137.5t-41 -121t-68 -91t-104.5 -62t-145.5 -21q-135 0 -207 28.5t-113 87.5v-426h-192zM575 154q62 0 106 20t70.5 53
t41 87.5t19.5 111.5t5 137t-4.5 136.5t-19.5 112.5t-41 90t-70.5 54.5t-106.5 20.5q-52 0 -92 -11t-68 -29t-48 -48t-31.5 -61.5t-18 -78t-8.5 -87.5t-2 -99t2 -98.5t8 -86.5t17.5 -77t31.5 -61t48 -47.5t68.5 -28t92.5 -10.5z" />
    <glyph glyph-name="q" unicode="q" horiz-adv-x="1081" 
d="M776 -324v435q-41 -62 -116 -93.5t-211 -31.5q-71 0 -127.5 16.5t-95.5 44.5t-67.5 72t-45 91t-26 110.5t-12.5 121t-3 131.5t3.5 132t13.5 120.5t27.5 109.5t46.5 90.5t69 71t97 44t128 16.5q151 0 225.5 -30t114.5 -91l28 115l142 -12v-1463h-191zM506 154q52 0 93 11
t69 29t48 48.5t31.5 62t18 78t8.5 87.5t2 99t-2 98.5t-8 86.5t-17.5 77t-31.5 61t-48 47.5t-69 28.5t-94 11q-52 0 -91.5 -13t-66 -40t-43.5 -60.5t-26 -83t-12 -98.5t-3 -115q0 -81 4.5 -137t19 -112.5t40.5 -90t70.5 -54.5t107.5 -21z" />
    <glyph glyph-name="r" unicode="r" horiz-adv-x="618" 
d="M115 0v1126l151 13l19 -129q77 137 315 137v-180q-58 -1 -103 -14t-75.5 -32t-52.5 -50.5t-34 -62t-18.5 -75t-8 -80.5t-1.5 -88v-565h-192z" />
    <glyph glyph-name="s" unicode="s" horiz-adv-x="829" 
d="M410 -14q-227 0 -377 75l76 152q131 -70 301 -70q190 0 190 152q0 39 -12 67t-44.5 53.5t-70 45.5t-108.5 51q-62 27 -104 49t-81.5 52t-62 62t-36 75.5t-13.5 97.5q0 156 93.5 232.5t268.5 76.5q180 0 309 -57l-75 -160q-113 49 -240 49q-92 0 -132 -34.5t-40 -102.5
q0 -64 46 -102.5t175 -94.5q84 -35 133.5 -63t93 -69t62 -95.5t18.5 -130.5q0 -156 -96 -233.5t-274 -77.5z" />
    <glyph glyph-name="t" unicode="t" horiz-adv-x="747" 
d="M37 969v168h180l31 301l155 35v-336h267v-168h-267v-647q0 -84 26 -119t114 -35h127v-168q-87 -6 -148 -6q-95 0 -156 17.5t-95 58t-47 95t-13 138.5v666h-174z" />
    <glyph glyph-name="u" unicode="u" horiz-adv-x="1040" 
d="M520 -16q-101 0 -172.5 17.5t-118 50.5t-73 88.5t-37 121.5t-10.5 160v715h192v-705q0 -62 3.5 -100t16 -75.5t36.5 -57t65 -31.5t102 -12q59 0 99 12t64 31.5t36.5 56.5t16 75.5t3.5 100.5v705h189v-715q0 -119 -16 -195t-60 -134t-126 -83.5t-210 -25.5z" />
    <glyph glyph-name="v" unicode="v" horiz-adv-x="946" 
d="M369 -8l-353 1145h201l260 -889l260 889h193l-352 -1145h-209z" />
    <glyph glyph-name="w" unicode="w" horiz-adv-x="1462" 
d="M330 -8l-303 1145h192l211 -840l217 840h178l215 -834l213 834h183l-301 -1145h-185l-219 813l-215 -813h-186z" />
    <glyph glyph-name="x" unicode="x" horiz-adv-x="933" 
d="M702 0l-247 432l-236 -432h-194l335 598l-307 539h207l217 -383l209 383h195l-308 -549l336 -588h-207z" />
    <glyph glyph-name="y" unicode="y" horiz-adv-x="917" 
d="M133 -324v158h105q45 0 66.5 16.5t33.5 57.5l24 88l-346 1141h195l250 -865l250 865h188l-387 -1270q-34 -113 -96 -152t-183 -39h-100z" />
    <glyph glyph-name="z" unicode="z" horiz-adv-x="839" 
d="M41 0v133l504 836h-473v168h708v-133l-504 -846h523v-158h-758z" />
    <glyph glyph-name="braceleft" unicode="{" horiz-adv-x="866" 
d="M563 -324q-166 0 -241.5 61.5t-75.5 194.5q0 63 44 266t44 246q0 62 -43.5 81.5t-163.5 19.5v162q119 0 163 18.5t44 79.5q0 50 -44 250t-44 264q0 133 75 194.5t240 61.5h156v-166h-103q-86 0 -128 -32.5t-42 -112.5q0 -50 41 -236.5t41 -251.5q0 -115 -100 -149
q100 -40 100 -152q0 -71 -41 -258t-41 -229q0 -82 42 -117t128 -35h103v-160h-154z" />
    <glyph glyph-name="bar" unicode="|" horiz-adv-x="577" 
d="M193 -324v1899h194v-1899h-194z" />
    <glyph glyph-name="braceright" unicode="}" horiz-adv-x="866" 
d="M150 -324v160h102q87 0 128.5 34.5t41.5 117.5q0 42 -41 228t-41 259q0 113 100 152q-100 37 -100 149q0 64 41 251t41 237q0 80 -41 112.5t-129 32.5h-102v166h157q164 0 237.5 -61.5t73.5 -194.5q0 -64 -43 -264t-43 -250q0 -61 42.5 -78.5t164.5 -17.5v-164
q-119 0 -163 -19t-44 -82q0 -43 43 -246t43 -266q0 -133 -73.5 -194.5t-239.5 -61.5h-155z" />
    <glyph glyph-name="asciitilde" unicode="~" horiz-adv-x="964" 
d="M254 825l-127 72q86 170 227 170q44 0 89 -21t83.5 -42t65.5 -21q33 0 59 22.5t58 71.5l125 -71q-43 -89 -97.5 -133t-128.5 -44q-44 0 -89.5 20.5t-84.5 41t-65 20.5q-33 0 -59.5 -20.5t-55.5 -65.5z" />
    <glyph glyph-name="uni00A0" unicode="&#xa0;" horiz-adv-x="368" 
 />
    <glyph glyph-name="exclamdown" unicode="&#xa1;" horiz-adv-x="628" 
d="M209 0l18 1087h174l19 -1087h-211zM199 1262v256h231v-256h-231z" />
    <glyph glyph-name="cent" unicode="&#xa2;" horiz-adv-x="892" 
d="M420 -197v195q-80 12 -139 45t-96.5 81t-59.5 119t-30.5 148.5t-8.5 179.5q0 101 8.5 178t30.5 147t59.5 118t96.5 82t139 47v174h186v-168q111 -8 209 -53l-82 -162q-71 33 -137 41v-821q69 7 164 51l71 -144q-107 -59 -225 -67v-191h-186zM283 567q0 -174 30.5 -268
t116.5 -127v784q-83 -33 -115 -127t-32 -262z" />
    <glyph glyph-name="sterling" unicode="&#xa3;" horiz-adv-x="1026" 
d="M715 -10q-174 0 -340 88q-48 -43 -128.5 -60.5t-211.5 -17.5v170q153 0 198.5 31t45.5 141q0 88 -58 348h-182v160h149q-41 211 -41 305q0 191 95 285t303 94q226 0 389 -84l-82 -156q-130 62 -307 62q-112 0 -160.5 -56t-48.5 -163q0 -95 39 -287h334v-160h-303
q49 -272 49 -346q0 -69 -11 -127q125 -61 248 -61q68 0 91.5 35.5t23.5 115.5v119h170v-125q0 -168 -57 -239.5t-205 -71.5z" />
    <glyph glyph-name="yen" unicode="&#xa5;" horiz-adv-x="1064" 
d="M113 459v159h327v11l-413 889h204l304 -691l303 691h198l-409 -889v-11h327v-159h-327v-146h327v-159h-327v-154h-187v154h-327v159h327v146h-327z" />
    <glyph glyph-name="brokenbar" unicode="&#xa6;" horiz-adv-x="577" 
d="M193 -324v787h194v-787h-194zM193 788v787h194v-787h-194z" />
    <glyph glyph-name="section" unicode="&#xa7;" horiz-adv-x="929" 
d="M238 -16q-65 0 -95 4v151h78q88 0 118 43t30 129v148q-141 16 -204 88.5t-63 212.5q0 141 63 213t204 88v133q0 80 12.5 136.5t44.5 104.5t96 72.5t160 24.5q19 0 54.5 -1t41.5 -1v-160h-80q-89 0 -119 -42t-30 -130v-135q145 -16 211.5 -89t66.5 -214t-66 -213.5
t-210 -87.5v-135q0 -63 -7 -111t-27.5 -92.5t-55 -73.5t-90.5 -46t-133 -17zM463 588q105 0 156 40t51 128q0 89 -51 127.5t-156 38.5q-104 0 -154.5 -38.5t-50.5 -127.5q0 -88 51 -128t154 -40z" />
    <glyph glyph-name="dieresis" unicode="&#xa8;" horiz-adv-x="964" 
d="M215 1255v215h172v-215h-172zM578 1255v215h174v-215h-174z" />
    <glyph glyph-name="copyright" unicode="&#xa9;" horiz-adv-x="1366" 
d="M694 252q-88 0 -152.5 24t-105 65.5t-64.5 108.5t-33 142t-9 176q0 99 8.5 172t32.5 140t64.5 109t107.5 66.5t159 24.5q151 0 246 -61l-71 -109q-70 47 -179 47q-137 0 -187 -91.5t-50 -301.5q0 -209 50.5 -301t188.5 -92q110 0 195 55l66 -104q-57 -37 -116.5 -53.5
t-150.5 -16.5zM682 -20q-139 0 -244.5 38t-172.5 104t-108.5 166.5t-58 213.5t-16.5 256q0 144 16.5 257.5t58 214t108.5 167t172.5 105t244.5 38.5t244.5 -38.5t173.5 -105t110 -167t59 -214.5t17 -257t-17 -256.5t-59 -213.5t-110 -166t-173.5 -104t-244.5 -38zM682 61
q120 0 210.5 34t148.5 93t93.5 149t49.5 191t14 230q0 130 -14 231.5t-49.5 191.5t-93.5 149.5t-148.5 93.5t-210.5 34t-210 -34t-147.5 -93.5t-93 -149.5t-49.5 -191.5t-14 -231.5q0 -129 14 -230t49.5 -191t93 -149t147.5 -93t210 -34z" />
    <glyph glyph-name="ordfeminine" unicode="&#xaa;" horiz-adv-x="925" 
d="M365 586q-140 0 -202.5 72.5t-62.5 211.5q0 81 19.5 138.5t55.5 94t96.5 58t131.5 29.5t172 8h35q-1 52 -7 84t-22.5 58t-48 37.5t-81.5 11.5q-116 0 -228 -50l-65 131q130 64 309 64q92 0 150.5 -18.5t91.5 -60.5t45 -99.5t12 -147.5v-387q0 -52 12.5 -69t61.5 -17v-141
q-8 0 -24.5 -1t-22.5 -1q-83 0 -117.5 26t-46.5 95q-37 -69 -101 -98t-163 -29zM408 719q93 0 147.5 51.5t54.5 179.5v127h-35q-92 0 -148 -7t-97.5 -27.5t-58.5 -57.5t-17 -98q0 -94 37.5 -131t116.5 -37zM127 293v143h659v-143h-659z" />
    <glyph glyph-name="guillemotleft" unicode="&#xab;" horiz-adv-x="1177" 
d="M385 0l-248 567l248 570h172l-235 -570l235 -567h-172zM827 0l-245 567l245 570h170l-235 -570l235 -567h-170z" />
    <glyph glyph-name="logicalnot" unicode="&#xac;" horiz-adv-x="1159" 
d="M989 805v-551h-182v383h-637v168h819z" />
    <glyph glyph-name="registered" unicode="&#xae;" horiz-adv-x="1366" 
d="M682 -20q-139 0 -244.5 38t-172.5 104t-108.5 166.5t-58 213.5t-16.5 256q0 144 16.5 257.5t58 214t108.5 167t172.5 105t244.5 38.5t244.5 -38.5t173.5 -105t110 -167t59 -214.5t17 -257t-17 -256.5t-59 -213.5t-110 -166t-173.5 -104t-244.5 -38zM682 61
q120 0 210.5 34t148.5 93t93.5 149t49.5 191t14 230q0 130 -14 231.5t-49.5 191.5t-93.5 149.5t-148.5 93.5t-210.5 34t-210 -34t-147.5 -93.5t-93 -149.5t-49.5 -191.5t-14 -231.5q0 -129 14 -230t49.5 -191t93 -149t147.5 -93t210 -34zM879 266l-181 398h-178v-398h-127
v994h332q160 0 225.5 -70t65.5 -223q0 -131 -44 -203t-149 -92l185 -406h-129zM520 768h201q94 0 133 43t39 147q0 105 -39 148t-133 43h-201v-381z" />
    <glyph glyph-name="macron" unicode="&#xaf;" horiz-adv-x="964" 
d="M166 1255v160h631v-160h-631z" />
    <glyph glyph-name="macron" unicode="&#x304;" horiz-adv-x="964" 
d="M166 1255v160h631v-160h-631z" />
    <glyph glyph-name="degree" unicode="&#xb0;" horiz-adv-x="935" 
d="M469 567q-90 0 -156.5 25t-107.5 66.5t-66 105.5t-34 132t-9 155q0 86 9 153.5t34 131.5t66 106t107.5 67t156.5 25t156.5 -25t107.5 -67t66 -106t34 -131.5t9 -153.5q0 -87 -9 -155t-34 -132t-66 -105.5t-107.5 -66.5t-156.5 -25zM469 717q54 0 93 17t62 44.5t36 71.5
t17.5 89.5t4.5 107.5t-4.5 107t-17.5 88.5t-36 71t-62 44t-93 16.5q-65 0 -108.5 -23.5t-65.5 -70.5t-30.5 -101.5t-8.5 -131.5q0 -78 8.5 -132.5t30.5 -102t65.5 -71.5t108.5 -24z" />
    <glyph glyph-name="plusminus" unicode="&#xb1;" horiz-adv-x="1159" 
d="M489 287v366h-319v168h319v365h181v-365h319v-168h-319v-366h-181zM170 27v170h819v-170h-819z" />
    <glyph glyph-name="two.superior" unicode="&#xb2;" horiz-adv-x="774" 
d="M104 575v111l209 260q123 153 153 204t30 112q0 69 -30.5 96.5t-103.5 27.5q-105 0 -190 -45l-66 129q116 58 279 58q138 0 200 -59.5t62 -184.5q0 -70 -17.5 -122t-59.5 -113.5t-142 -186.5l-123 -157h359v-130h-560z" />
    <glyph glyph-name="threesuperior" unicode="&#xb3;" horiz-adv-x="780" 
d="M365 565q-162 0 -273 66l68 119q86 -50 192 -50q92 0 127 36.5t35 131.5q0 40 -5.5 64t-23 44t-52.5 28t-91 8h-119v133h123q85 0 116.5 30t31.5 91q0 76 -31 99.5t-109 23.5q-95 0 -186 -41l-64 120q120 60 273 60q138 0 203 -48t65 -182q0 -82 -20 -131.5t-74 -72.5
q71 -25 93 -78t22 -162q0 -158 -73 -223.5t-228 -65.5z" />
    <glyph glyph-name="acute" unicode="&#xb4;" horiz-adv-x="964" 
d="M346 1255l229 332h213l-272 -332h-170z" />
    <glyph glyph-name="mu" unicode="&#xb5;" 
d="M442 -14q-82 0 -147 20v-330h-180v1461h192v-707q0 -61 3.5 -99.5t15 -75.5t33.5 -57t59 -32t92 -12q65 0 110 15.5t72 42.5t41.5 76t19.5 102.5t5 135.5v611h192v-1129l-153 -12l-15 117q-40 -63 -116.5 -95t-223.5 -32z" />
    <glyph glyph-name="paragraph" unicode="&#xb6;" horiz-adv-x="1058" 
d="M397 0v598q-177 30 -250 140.5t-73 314.5q0 121 23.5 205t78 144t146.5 88t227 28h381v-1518h-187v586h-159v-586h-187zM545 754h198v589h-198q-153 0 -216 -66t-63 -228t63.5 -228.5t215.5 -66.5z" />
    <glyph glyph-name="periodcentered" unicode="&#xb7;" horiz-adv-x="442" 
d="M104 571v263h234v-263h-234z" />
    <glyph glyph-name="periodcentered" unicode="&#x2219;" horiz-adv-x="442" 
d="M104 571v263h234v-263h-234z" />
    <glyph glyph-name="cedilla" unicode="&#xb8;" horiz-adv-x="964" 
d="M512 -451q-106 0 -205 43l43 99q78 -29 150 -29q68 0 93 22t25 70q0 54 -32 69.5t-119 10.5l-45 33l29 147h114l-18 -104q205 15 205 -166q0 -100 -55 -147.5t-185 -47.5z" />
    <glyph glyph-name="one.superior" unicode="&#xb9;" horiz-adv-x="557" 
d="M227 575v801h-139v142h299v-943h-160z" />
    <glyph glyph-name="ordmasculine" unicode="&#xba;" horiz-adv-x="925" 
d="M463 582q-90 0 -156.5 24t-107 64t-64.5 102.5t-32.5 129.5t-8.5 155t8.5 154.5t32 130t64 104t107 64.5t157.5 24t158.5 -24.5t107.5 -65t64 -104t32.5 -129.5t8.5 -154q0 -90 -8.5 -156.5t-32.5 -129.5t-64.5 -102.5t-107 -63t-158.5 -23.5zM463 723q55 0 93.5 17
t60.5 44t34 72.5t15.5 89.5t3.5 109q0 52 -2.5 89.5t-9.5 78t-21 67.5t-36.5 49.5t-57 33.5t-80.5 11q-55 0 -94 -17t-61 -44t-34.5 -72.5t-16 -89t-3.5 -106.5q0 -65 3.5 -109t16 -89.5t34.5 -72.5t61 -44t94 -17zM123 293v143h680v-143h-680z" />
    <glyph glyph-name="guillemotright" unicode="&#xbb;" horiz-adv-x="1177" 
d="M178 0l236 569l-236 568h170l248 -568l-248 -569h-170zM621 0l235 569l-235 568h172l243 -568l-243 -569h-172z" />
    <glyph glyph-name="onequarter" unicode="&#xbc;" horiz-adv-x="1554" 
d="M324 0l663 1518h176l-665 -1518h-174zM831 190v121l328 631h162l-326 -625h219l29 252h115v-252h125v-127h-125v-190h-146v190h-381zM244 575v801h-140v142h302v-943h-162z" />
    <glyph glyph-name="onehalf" unicode="&#xbd;" horiz-adv-x="1654" 
d="M324 0l663 1518h176l-665 -1518h-174zM244 575v801h-140v142h302v-943h-162zM981 0v111l211 256q123 153 152.5 204.5t29.5 114.5q0 69 -30.5 96t-102.5 27q-102 0 -190 -43l-66 127q115 61 279 61q137 0 200.5 -61t63.5 -184q0 -99 -39.5 -173t-181.5 -251l-125 -156
h356v-129h-557z" />
    <glyph glyph-name="threequarters" unicode="&#xbe;" horiz-adv-x="1705" 
d="M365 565q-162 0 -273 66l68 119q86 -50 192 -50q92 0 127 36.5t35 131.5q0 40 -5.5 64t-23 44t-52.5 28t-91 8h-119v133h123q85 0 116.5 30t31.5 91q0 76 -31 99.5t-109 23.5q-95 0 -186 -41l-64 120q120 60 273 60q138 0 203 -48t65 -182q0 -82 -20 -131.5t-74 -72.5
q71 -25 93 -78t22 -162q0 -158 -73 -223.5t-228 -65.5zM471 0l668 1518h174l-668 -1518h-174zM983 190v121l330 631h162l-330 -625h221l29 252h114v-252h125v-127h-125v-190h-145v190h-381z" />
    <glyph glyph-name="questiondown" unicode="&#xbf;" horiz-adv-x="1095" 
d="M549 -16q-113 0 -191 25t-121 73t-61 107.5t-18 138.5q0 68 11.5 120.5t40 99t55.5 78.5t77 83l55 56t42 46.5t31 41t21 39t13 41t6.5 46t2 54.5t-0.5 67h188q1 -95 -3.5 -145t-26.5 -105t-58.5 -99t-109.5 -118q-89 -91 -120.5 -143.5t-31.5 -129.5q0 -96 49 -147
t181 -51q159 0 307 76l86 -162q-182 -92 -424 -92zM492 1284v234h229v-234h-229z" />
    <glyph glyph-name="Agrave" unicode="&#xc0;" horiz-adv-x="1224" 
d="M41 0l467 1528h209l467 -1528h-201l-94 315h-561l-90 -315h-197zM381 496h457l-228 753zM575 1604l-276 331h219l227 -331h-170z" />
    <glyph glyph-name="Aacute" unicode="&#xc1;" horiz-adv-x="1224" 
d="M41 0l467 1528h209l467 -1528h-201l-94 315h-561l-90 -315h-197zM381 496h457l-228 753zM473 1604l229 331h213l-272 -331h-170z" />
    <glyph glyph-name="Acircumflex" unicode="&#xc2;" horiz-adv-x="1224" 
d="M41 0l467 1528h209l467 -1528h-201l-94 315h-561l-90 -315h-197zM381 496h457l-228 753zM291 1604l229 331h182l228 -331h-160l-162 196l-162 -196h-155z" />
    <glyph glyph-name="Atilde" unicode="&#xc3;" horiz-adv-x="1224" 
d="M41 0l467 1528h209l467 -1528h-201l-94 315h-561l-90 -315h-197zM381 496h457l-228 753zM381 1595l-127 72q86 170 227 170q44 0 89 -21t83.5 -42t65.5 -21q33 0 59 22.5t58 71.5l125 -71q-43 -89 -97.5 -133t-128.5 -44q-44 0 -89.5 20.5t-84.5 41t-65 20.5
q-33 0 -59.5 -20.5t-55.5 -65.5z" />
    <glyph glyph-name="Adieresis" unicode="&#xc4;" horiz-adv-x="1224" 
d="M41 0l467 1528h209l467 -1528h-201l-94 315h-561l-90 -315h-197zM381 496h457l-228 753zM342 1604v215h172v-215h-172zM705 1604v215h174v-215h-174z" />
    <glyph glyph-name="Aring" unicode="&#xc5;" horiz-adv-x="1224" 
d="M41 0l444 1456q-90 57 -90 209q0 111 51 176.5t164 65.5q110 0 162.5 -66t52.5 -176q0 -149 -88 -207l447 -1458h-201l-94 315h-561l-90 -315h-197zM381 496h457l-228 753zM610 1528q109 0 109 137q0 139 -109 139q-110 0 -110 -139q0 -132 98 -137h12z" />
    <glyph glyph-name="AE" unicode="&#xc6;" horiz-adv-x="1789" 
d="M31 0l731 1518h932v-183h-639v-463h606v-178h-606v-516h645v-178h-840v324h-479l-156 -324h-194zM461 494h399v827z" />
    <glyph glyph-name="Ccedilla" unicode="&#xc7;" horiz-adv-x="1067" 
d="M559 -451q-106 0 -205 43l43 99q79 -29 150 -29q68 0 93.5 22t25.5 70q0 54 -32.5 69.5t-119.5 10.5l-45 33l25 127q-101 16 -175.5 60t-122 108.5t-76.5 158.5t-40.5 198.5t-11.5 238.5q0 105 6.5 190t23 167t44.5 144t71.5 115.5t102 87.5t139 53t180.5 19
q228 0 369 -96l-105 -164q-109 67 -270 67q-106 0 -176.5 -34t-111 -109.5t-57 -181t-16.5 -262.5q0 -126 10 -216.5t34 -164.5t65.5 -119t104 -68.5t149.5 -23.5q95 0 160.5 19.5t132.5 62.5l98 -154q-87 -54 -176.5 -80t-224.5 -26h-15l-12 -74q45 3 79.5 -2.5t64 -23
t45.5 -53t16 -87.5q0 -100 -55 -147.5t-185 -47.5z" />
    <glyph glyph-name="Egrave" unicode="&#xc8;" 
d="M133 0v1518h834v-183h-639v-461h606v-180h-606v-516h645v-178h-840zM496 1604l-277 331h219l228 -331h-170z" />
    <glyph glyph-name="Eacute" unicode="&#xc9;" 
d="M393 1604l230 331h213l-273 -331h-170zM133 0v1518h834v-183h-639v-461h606v-180h-606v-516h645v-178h-840z" />
    <glyph glyph-name="Ecircumflex" unicode="&#xca;" 
d="M211 1604l229 331h183l227 -331h-160l-162 196l-161 -196h-156zM133 0v1518h834v-183h-639v-461h606v-180h-606v-516h645v-178h-840z" />
    <glyph glyph-name="Edieresis" unicode="&#xcb;" 
d="M262 1604v215h172v-215h-172zM625 1604v215h174v-215h-174zM133 0v1518h834v-183h-639v-461h606v-180h-606v-516h645v-178h-840z" />
    <glyph glyph-name="Igrave" unicode="&#xcc;" horiz-adv-x="491" 
d="M170 1604l-231 333h213l184 -333h-166zM147 0v1518h199v-1518h-199z" />
    <glyph glyph-name="Iacute" unicode="&#xcd;" horiz-adv-x="491" 
d="M154 1604l184 333h213l-232 -333h-165zM147 0v1518h199v-1518h-199z" />
    <glyph glyph-name="Icircumflex" unicode="&#xce;" horiz-adv-x="491" 
d="M-68 1604l222 333h182l223 -333h-158l-157 200l-156 -200h-156zM147 0v1518h199v-1518h-199z" />
    <glyph glyph-name="Idieresis" unicode="&#xcf;" horiz-adv-x="491" 
d="M147 0v1518h199v-1518h-199zM-18 1604v215h172v-215h-172zM344 1604v215h174v-215h-174z" />
    <glyph glyph-name="Eth" unicode="&#xd0;" horiz-adv-x="1228" 
d="M2 698v164h131v656h430q177 0 294 -45t184 -143.5t93.5 -233.5t26.5 -336q0 -136 -11 -238t-37.5 -190.5t-71 -148t-112 -102t-160 -62t-214.5 -19.5h-422v698h-131zM332 174h237q97 0 166 23.5t113 66.5t69 117.5t34.5 162.5t9.5 214q0 125 -9.5 212t-34 160t-68 116
t-111.5 66t-165 23h-241v-473h252v-164h-252v-524z" />
    <glyph glyph-name="Ntilde" unicode="&#xd1;" horiz-adv-x="1284" 
d="M133 0v1518h215l615 -1123v1123h190v-1518h-184l-647 1174v-1174h-189zM412 1595l-127 72q86 170 227 170q43 0 88.5 -21t84 -42t65.5 -21q33 0 58 22.5t58 71.5l125 -71q-85 -177 -225 -177q-44 0 -90 20.5t-85 41t-65 20.5q-33 0 -59 -20.5t-55 -65.5z" />
    <glyph glyph-name="Ograve" unicode="&#xd2;" horiz-adv-x="1286" 
d="M645 -16q-107 0 -193 21.5t-145.5 58t-103.5 94t-69.5 119t-40.5 145t-20 160.5t-5 176t5 176t20 161t40.5 145.5t69.5 119.5t103.5 94.5t145.5 58t193 21.5q84 0 154 -13t124 -36t97.5 -59t74 -77t53 -95t36 -107.5t21.5 -121.5t11 -129.5t3 -137.5q0 -99 -5 -176
t-20 -160.5t-40.5 -145t-69 -119.5t-103 -94t-144.5 -57.5t-192 -21.5zM645 162q72 0 128 15.5t95 41.5t67 69t44.5 88.5t25.5 110.5t12 124.5t3 140.5t-3 140.5t-12.5 124.5t-26 111t-44.5 89t-67 69t-95 41.5t-127 15.5q-63 0 -114 -11t-89 -34t-66.5 -52t-47.5 -71.5
t-31 -85.5t-18.5 -101.5t-8.5 -112t-2 -123.5q0 -81 3 -140.5t12 -124.5t25.5 -110.5t44.5 -88.5t67.5 -69t96 -41.5t128.5 -15.5zM608 1604l-276 331h219l227 -331h-170z" />
    <glyph glyph-name="Oacute" unicode="&#xd3;" horiz-adv-x="1286" 
d="M506 1604l229 331h213l-272 -331h-170zM645 -16q-107 0 -193 21.5t-145.5 58t-103.5 94t-69.5 119t-40.5 145t-20 160.5t-5 176t5 176t20 161t40.5 145.5t69.5 119.5t103.5 94.5t145.5 58t193 21.5q84 0 154 -13t124 -36t97.5 -59t74 -77t53 -95t36 -107.5t21.5 -121.5
t11 -129.5t3 -137.5q0 -99 -5 -176t-20 -160.5t-40.5 -145t-69 -119.5t-103 -94t-144.5 -57.5t-192 -21.5zM645 162q72 0 128 15.5t95 41.5t67 69t44.5 88.5t25.5 110.5t12 124.5t3 140.5t-3 140.5t-12.5 124.5t-26 111t-44.5 89t-67 69t-95 41.5t-127 15.5q-63 0 -114 -11
t-89 -34t-66.5 -52t-47.5 -71.5t-31 -85.5t-18.5 -101.5t-8.5 -112t-2 -123.5q0 -81 3 -140.5t12 -124.5t25.5 -110.5t44.5 -88.5t67.5 -69t96 -41.5t128.5 -15.5z" />
    <glyph glyph-name="Ocircumflex" unicode="&#xd4;" horiz-adv-x="1286" 
d="M324 1604l229 331h182l228 -331h-160l-162 196l-162 -196h-155zM645 -16q-107 0 -193 21.5t-145.5 58t-103.5 94t-69.5 119t-40.5 145t-20 160.5t-5 176t5 176t20 161t40.5 145.5t69.5 119.5t103.5 94.5t145.5 58t193 21.5q84 0 154 -13t124 -36t97.5 -59t74 -77t53 -95
t36 -107.5t21.5 -121.5t11 -129.5t3 -137.5q0 -99 -5 -176t-20 -160.5t-40.5 -145t-69 -119.5t-103 -94t-144.5 -57.5t-192 -21.5zM645 162q72 0 128 15.5t95 41.5t67 69t44.5 88.5t25.5 110.5t12 124.5t3 140.5t-3 140.5t-12.5 124.5t-26 111t-44.5 89t-67 69t-95 41.5
t-127 15.5q-63 0 -114 -11t-89 -34t-66.5 -52t-47.5 -71.5t-31 -85.5t-18.5 -101.5t-8.5 -112t-2 -123.5q0 -81 3 -140.5t12 -124.5t25.5 -110.5t44.5 -88.5t67.5 -69t96 -41.5t128.5 -15.5z" />
    <glyph glyph-name="Otilde" unicode="&#xd5;" horiz-adv-x="1286" 
d="M645 -16q-107 0 -193 21.5t-145.5 58t-103.5 94t-69.5 119t-40.5 145t-20 160.5t-5 176t5 176t20 161t40.5 145.5t69.5 119.5t103.5 94.5t145.5 58t193 21.5q84 0 154 -13t124 -36t97.5 -59t74 -77t53 -95t36 -107.5t21.5 -121.5t11 -129.5t3 -137.5q0 -99 -5 -176
t-20 -160.5t-40.5 -145t-69 -119.5t-103 -94t-144.5 -57.5t-192 -21.5zM645 162q72 0 128 15.5t95 41.5t67 69t44.5 88.5t25.5 110.5t12 124.5t3 140.5t-3 140.5t-12.5 124.5t-26 111t-44.5 89t-67 69t-95 41.5t-127 15.5q-63 0 -114 -11t-89 -34t-66.5 -52t-47.5 -71.5
t-31 -85.5t-18.5 -101.5t-8.5 -112t-2 -123.5q0 -81 3 -140.5t12 -124.5t25.5 -110.5t44.5 -88.5t67.5 -69t96 -41.5t128.5 -15.5zM414 1595l-127 72q86 170 227 170q43 0 88.5 -21t84 -42t65.5 -21q33 0 58 22.5t58 71.5l125 -71q-85 -177 -225 -177q-44 0 -90 20.5t-85 41
t-65 20.5q-33 0 -59 -20.5t-55 -65.5z" />
    <glyph glyph-name="Odieresis" unicode="&#xd6;" horiz-adv-x="1286" 
d="M375 1604v215h172v-215h-172zM737 1604v215h174v-215h-174zM645 -16q-107 0 -193 21.5t-145.5 58t-103.5 94t-69.5 119t-40.5 145t-20 160.5t-5 176t5 176t20 161t40.5 145.5t69.5 119.5t103.5 94.5t145.5 58t193 21.5q84 0 154 -13t124 -36t97.5 -59t74 -77t53 -95
t36 -107.5t21.5 -121.5t11 -129.5t3 -137.5q0 -99 -5 -176t-20 -160.5t-40.5 -145t-69 -119.5t-103 -94t-144.5 -57.5t-192 -21.5zM645 162q72 0 128 15.5t95 41.5t67 69t44.5 88.5t25.5 110.5t12 124.5t3 140.5t-3 140.5t-12.5 124.5t-26 111t-44.5 89t-67 69t-95 41.5
t-127 15.5q-63 0 -114 -11t-89 -34t-66.5 -52t-47.5 -71.5t-31 -85.5t-18.5 -101.5t-8.5 -112t-2 -123.5q0 -81 3 -140.5t12 -124.5t25.5 -110.5t44.5 -88.5t67.5 -69t96 -41.5t128.5 -15.5z" />
    <glyph glyph-name="multiply" unicode="&#xd7;" horiz-adv-x="1159" 
d="M324 344l-117 121l254 256l-254 254l117 121l256 -256l258 256l116 -121l-258 -254l256 -254l-114 -121l-258 254z" />
    <glyph glyph-name="Oslash" unicode="&#xd8;" horiz-adv-x="1286" 
d="M197 -84l75 170q-64 49 -106 120t-62.5 163t-28 181.5t-7.5 207.5q0 99 5 176t20 161t40.5 145.5t69.5 119.5t103.5 94.5t145.5 58t193 21.5q130 0 223 -31l52 101h174l-80 -172q64 -49 106 -120.5t63 -164t28.5 -182t7.5 -207.5q0 -99 -5 -176t-20 -160.5t-40.5 -145
t-69 -119.5t-103 -94t-144.5 -57.5t-192 -21.5q-126 0 -221 28l-43 -96h-184zM645 152q72 0 129 16t96.5 42t68 70t45 90t25.5 112.5t12 127t3 142.5q0 176 -20 295t-78 192l-441 -1065q68 -22 160 -22zM262 752q0 -180 19 -297t77 -191l435 1065q-67 23 -148 23
q-73 0 -130.5 -16t-97.5 -42.5t-68.5 -70.5t-45 -90.5t-26 -112.5t-12.5 -126t-3 -142z" />
    <glyph glyph-name="Ugrave" unicode="&#xd9;" horiz-adv-x="1280" 
d="M641 -20q-147 0 -248 34t-160 103.5t-84.5 163.5t-25.5 225v1012h199v-998q0 -93 14 -156t49.5 -110.5t99 -69.5t158.5 -22t158.5 21.5t99.5 68.5t51 110.5t15 157.5v998h190v-1012q0 -132 -24.5 -225t-82 -163t-159 -104t-250.5 -34zM602 1604l-276 331h219l227 -331
h-170z" />
    <glyph glyph-name="Uacute" unicode="&#xda;" horiz-adv-x="1280" 
d="M500 1604l229 331h213l-272 -331h-170zM641 -20q-147 0 -248 34t-160 103.5t-84.5 163.5t-25.5 225v1012h199v-998q0 -93 14 -156t49.5 -110.5t99 -69.5t158.5 -22t158.5 21.5t99.5 68.5t51 110.5t15 157.5v998h190v-1012q0 -132 -24.5 -225t-82 -163t-159 -104
t-250.5 -34z" />
    <glyph glyph-name="Ucircumflex" unicode="&#xdb;" horiz-adv-x="1280" 
d="M317 1604l230 331h182l227 -331h-159l-162 196l-162 -196h-156zM641 -20q-147 0 -248 34t-160 103.5t-84.5 163.5t-25.5 225v1012h199v-998q0 -93 14 -156t49.5 -110.5t99 -69.5t158.5 -22t158.5 21.5t99.5 68.5t51 110.5t15 157.5v998h190v-1012q0 -132 -24.5 -225
t-82 -163t-159 -104t-250.5 -34z" />
    <glyph glyph-name="Udieresis" unicode="&#xdc;" horiz-adv-x="1280" 
d="M369 1604v215h172v-215h-172zM731 1604v215h174v-215h-174zM641 -20q-147 0 -248 34t-160 103.5t-84.5 163.5t-25.5 225v1012h199v-998q0 -93 14 -156t49.5 -110.5t99 -69.5t158.5 -22t158.5 21.5t99.5 68.5t51 110.5t15 157.5v998h190v-1012q0 -132 -24.5 -225t-82 -163
t-159 -104t-250.5 -34z" />
    <glyph glyph-name="Yacute" unicode="&#xdd;" horiz-adv-x="1167" 
d="M485 0v547l-473 971h213l361 -756l364 756h203l-471 -971v-547h-197zM444 1604l230 331h213l-273 -331h-170z" />
    <glyph glyph-name="Thorn" unicode="&#xde;" horiz-adv-x="1142" 
d="M133 0v1518h197v-252h319q245 0 348 -111.5t103 -351.5q0 -239 -104 -355t-351 -116h-315v-332h-197zM330 502h311q141 0 202.5 67.5t61.5 225.5q0 162 -61.5 229.5t-202.5 67.5h-311v-590z" />
    <glyph glyph-name="germandbls" unicode="&#xdf;" horiz-adv-x="1093" 
d="M115 0v1184q0 197 99 300t323 103q218 0 313.5 -93t95.5 -302q0 -162 -32.5 -246.5t-114.5 -118.5q130 -28 178.5 -120t48.5 -279q0 -160 -44.5 -251.5t-149 -134t-289.5 -42.5h-101v174h101q168 0 230.5 63t62.5 216q0 148 -62 210t-227 62h-43v164h43q115 0 165 58
t50 198t-52.5 199t-172.5 59q-122 0 -178 -57.5t-56 -178.5v-1167h-188z" />
    <glyph glyph-name="agrave" unicode="&#xe0;" horiz-adv-x="1044" 
d="M406 -12q-183 0 -260.5 89.5t-77.5 264.5q0 98 24 170t68.5 119t117.5 75.5t162 40t211 11.5h47q-3 121 -43.5 173t-156.5 52q-155 0 -281 -61l-80 157q156 80 379 80q113 0 185.5 -23t113.5 -75t56.5 -123t15.5 -180v-479q0 -70 14.5 -90.5t73.5 -20.5v-168
q-17 -2 -53 -2q-93 0 -136 23t-59 85q-49 -65 -126.5 -91.5t-194.5 -26.5zM444 147q55 0 98.5 13.5t80 45t56 91t19.5 143.5v160h-45q-91 0 -151 -5t-112 -19.5t-80.5 -41.5t-44 -69.5t-15.5 -104.5q0 -118 48 -165.5t146 -47.5zM485 1255l-276 332h219l227 -332h-170z" />
    <glyph glyph-name="aacute" unicode="&#xe1;" horiz-adv-x="1044" 
d="M406 -12q-183 0 -260.5 89.5t-77.5 264.5q0 98 24 170t68.5 119t117.5 75.5t162 40t211 11.5h47q-3 121 -43.5 173t-156.5 52q-155 0 -281 -61l-80 157q156 80 379 80q113 0 185.5 -23t113.5 -75t56.5 -123t15.5 -180v-479q0 -70 14.5 -90.5t73.5 -20.5v-168
q-17 -2 -53 -2q-93 0 -136 23t-59 85q-49 -65 -126.5 -91.5t-194.5 -26.5zM444 147q55 0 98.5 13.5t80 45t56 91t19.5 143.5v160h-45q-91 0 -151 -5t-112 -19.5t-80.5 -41.5t-44 -69.5t-15.5 -104.5q0 -118 48 -165.5t146 -47.5zM383 1255l229 332h213l-272 -332h-170z" />
    <glyph glyph-name="acircumflex" unicode="&#xe2;" horiz-adv-x="1044" 
d="M406 -12q-183 0 -260.5 89.5t-77.5 264.5q0 98 24 170t68.5 119t117.5 75.5t162 40t211 11.5h47q-3 121 -43.5 173t-156.5 52q-155 0 -281 -61l-80 157q156 80 379 80q113 0 185.5 -23t113.5 -75t56.5 -123t15.5 -180v-479q0 -70 14.5 -90.5t73.5 -20.5v-168
q-17 -2 -53 -2q-93 0 -136 23t-59 85q-49 -65 -126.5 -91.5t-194.5 -26.5zM444 147q55 0 98.5 13.5t80 45t56 91t19.5 143.5v160h-45q-91 0 -151 -5t-112 -19.5t-80.5 -41.5t-44 -69.5t-15.5 -104.5q0 -118 48 -165.5t146 -47.5zM201 1255l229 332h182l228 -332h-160
l-162 197l-162 -197h-155z" />
    <glyph glyph-name="atilde" unicode="&#xe3;" horiz-adv-x="1044" 
d="M406 -12q-183 0 -260.5 89.5t-77.5 264.5q0 98 24 170t68.5 119t117.5 75.5t162 40t211 11.5h47q-3 121 -43.5 173t-156.5 52q-155 0 -281 -61l-80 157q156 80 379 80q113 0 185.5 -23t113.5 -75t56.5 -123t15.5 -180v-479q0 -70 14.5 -90.5t73.5 -20.5v-168
q-17 -2 -53 -2q-93 0 -136 23t-59 85q-49 -65 -126.5 -91.5t-194.5 -26.5zM444 147q55 0 98.5 13.5t80 45t56 91t19.5 143.5v160h-45q-91 0 -151 -5t-112 -19.5t-80.5 -41.5t-44 -69.5t-15.5 -104.5q0 -118 48 -165.5t146 -47.5zM291 1247l-127 72q86 170 227 170
q44 0 89 -21t83.5 -42t65.5 -21q33 0 59 22.5t57 71.5l125 -72q-85 -176 -225 -176q-44 0 -89.5 20.5t-84.5 41t-65 20.5q-33 0 -59.5 -20.5t-55.5 -65.5z" />
    <glyph glyph-name="adieresis" unicode="&#xe4;" horiz-adv-x="1044" 
d="M406 -12q-183 0 -260.5 89.5t-77.5 264.5q0 98 24 170t68.5 119t117.5 75.5t162 40t211 11.5h47q-3 121 -43.5 173t-156.5 52q-155 0 -281 -61l-80 157q156 80 379 80q113 0 185.5 -23t113.5 -75t56.5 -123t15.5 -180v-479q0 -70 14.5 -90.5t73.5 -20.5v-168
q-17 -2 -53 -2q-93 0 -136 23t-59 85q-49 -65 -126.5 -91.5t-194.5 -26.5zM444 147q55 0 98.5 13.5t80 45t56 91t19.5 143.5v160h-45q-91 0 -151 -5t-112 -19.5t-80.5 -41.5t-44 -69.5t-15.5 -104.5q0 -118 48 -165.5t146 -47.5zM252 1255v215h172v-215h-172zM614 1255v215
h174v-215h-174z" />
    <glyph glyph-name="aring" unicode="&#xe5;" horiz-adv-x="1044" 
d="M406 -12q-183 0 -260.5 89.5t-77.5 264.5q0 98 24 170t68.5 119t117.5 75.5t162 40t211 11.5h47q-3 121 -43.5 173t-156.5 52q-155 0 -281 -61l-80 157q156 80 379 80q113 0 185.5 -23t113.5 -75t56.5 -123t15.5 -180v-479q0 -70 14.5 -90.5t73.5 -20.5v-168
q-17 -2 -53 -2q-93 0 -136 23t-59 85q-49 -65 -126.5 -91.5t-194.5 -26.5zM444 147q55 0 98.5 13.5t80 45t56 91t19.5 143.5v160h-45q-91 0 -151 -5t-112 -19.5t-80.5 -41.5t-44 -69.5t-15.5 -104.5q0 -118 48 -165.5t146 -47.5zM520 1241q-113 0 -164 65t-51 175
q0 241 215 241q110 0 162.5 -65.5t52.5 -175.5q0 -108 -52.5 -174t-162.5 -66zM520 1343q109 0 109 138q0 139 -109 139q-110 0 -110 -139q0 -138 110 -138z" />
    <glyph glyph-name="ae" unicode="&#xe6;" horiz-adv-x="1605" 
d="M1141 -14q-144 0 -232 46t-135 136q-47 -96 -139 -138t-246 -42q-169 0 -245 90.5t-76 263.5q0 123 35.5 204.5t111.5 128.5t180 66t256 19h47q-3 119 -44 171t-156 52q-155 0 -281 -61l-80 157q156 80 379 80q126 0 198.5 -31t106.5 -96q106 125 322 125q99 0 170.5 -24
t112.5 -67.5t66.5 -105t32.5 -136t10 -161t-1 -180.5h-653q6 -174 62.5 -252.5t207.5 -78.5q67 0 125.5 11t87 22t74.5 32l73 -147q-154 -84 -370 -84zM444 147q55 0 98.5 13.5t80 45t56 91t19.5 143.5v160h-45q-91 0 -151 -5t-112 -19.5t-80.5 -41.5t-44 -69.5
t-15.5 -104.5q0 -118 48 -165.5t146 -47.5zM1139 987q-75 0 -125 -22t-77.5 -67.5t-40 -103t-15.5 -141.5h479q0 38 -0.5 59.5t-2.5 53.5t-5 50t-8.5 43t-14 38.5t-20.5 30.5t-28 26t-36.5 17.5t-47 12t-58.5 3.5z" />
    <glyph glyph-name="ccedilla" unicode="&#xe7;" horiz-adv-x="860" 
d="M461 -451q-107 0 -205 43l43 99q78 -29 150 -29q68 0 93 22t25 70q0 54 -32.5 69.5t-118.5 10.5l-45 33l24 127q-78 13 -135 47.5t-93 83t-57.5 120t-29.5 148.5t-8 178q0 115 10.5 199.5t40 161t79 123.5t130 74.5t190.5 27.5q165 0 279 -57l-82 -166q-85 43 -189 43
q-79 0 -131 -25.5t-81 -79.5t-40.5 -126.5t-11.5 -178.5q0 -108 11 -180t39.5 -127.5t81.5 -81.5t134 -26q99 0 211 53l74 -148q-77 -38 -146 -55.5t-159 -17.5h-4l-12 -74q204 15 204 -166q0 -100 -54.5 -147.5t-184.5 -47.5z" />
    <glyph glyph-name="egrave" unicode="&#xe8;" horiz-adv-x="978" 
d="M514 -14q-110 0 -189.5 27.5t-128 74.5t-76.5 123.5t-38 160t-10 199.5q0 112 11.5 197t41.5 161t79.5 124t128 76t185.5 28q58 0 106 -7.5t85 -22t66 -36t50 -49.5t36 -63t24 -75.5t14.5 -87.5t7 -100t2.5 -111t0 -122h-655q6 -174 62.5 -252.5t207.5 -78.5q69 0 128 11
t86.5 22t74.5 32l74 -147q-157 -84 -373 -84zM514 987q-75 0 -125 -22t-77.5 -67.5t-40 -103t-15.5 -141.5h475q-3 156 -18 210q-26 90 -110 114q-37 10 -89 10zM455 1255l-277 332h219l228 -332h-170z" />
    <glyph glyph-name="eacute" unicode="&#xe9;" horiz-adv-x="978" 
d="M352 1255l230 332h213l-273 -332h-170zM514 -14q-110 0 -189.5 27.5t-128 74.5t-76.5 123.5t-38 160t-10 199.5q0 112 11.5 197t41.5 161t79.5 124t128 76t185.5 28q58 0 106 -7.5t85 -22t66 -36t50 -49.5t36 -63t24 -75.5t14.5 -87.5t7 -100t2.5 -111t0 -122h-655
q6 -174 62.5 -252.5t207.5 -78.5q69 0 128 11t86.5 22t74.5 32l74 -147q-157 -84 -373 -84zM514 987q-75 0 -125 -22t-77.5 -67.5t-40 -103t-15.5 -141.5h475q-3 156 -18 210q-26 90 -110 114q-37 10 -89 10z" />
    <glyph glyph-name="ecircumflex" unicode="&#xea;" horiz-adv-x="978" 
d="M170 1255l229 332h183l227 -332h-160l-162 197l-161 -197h-156zM514 -14q-110 0 -189.5 27.5t-128 74.5t-76.5 123.5t-38 160t-10 199.5q0 112 11.5 197t41.5 161t79.5 124t128 76t185.5 28q58 0 106 -7.5t85 -22t66 -36t50 -49.5t36 -63t24 -75.5t14.5 -87.5t7 -100
t2.5 -111t0 -122h-655q6 -174 62.5 -252.5t207.5 -78.5q69 0 128 11t86.5 22t74.5 32l74 -147q-157 -84 -373 -84zM514 987q-75 0 -125 -22t-77.5 -67.5t-40 -103t-15.5 -141.5h475q-3 156 -18 210q-26 90 -110 114q-37 10 -89 10z" />
    <glyph glyph-name="edieresis" unicode="&#xeb;" horiz-adv-x="978" 
d="M221 1255v215h172v-215h-172zM584 1255v215h174v-215h-174zM514 -14q-110 0 -189.5 27.5t-128 74.5t-76.5 123.5t-38 160t-10 199.5q0 112 11.5 197t41.5 161t79.5 124t128 76t185.5 28q58 0 106 -7.5t85 -22t66 -36t50 -49.5t36 -63t24 -75.5t14.5 -87.5t7 -100
t2.5 -111t0 -122h-655q6 -174 62.5 -252.5t207.5 -78.5q69 0 128 11t86.5 22t74.5 32l74 -147q-157 -84 -373 -84zM514 987q-75 0 -125 -22t-77.5 -67.5t-40 -103t-15.5 -141.5h475q-3 156 -18 210q-26 90 -110 114q-37 10 -89 10z" />
    <glyph glyph-name="igrave" unicode="&#xec;" horiz-adv-x="436" 
d="M145 1255l-192 332h211l147 -332h-166zM121 0v1137h192v-1137h-192z" />
    <glyph glyph-name="iacute" unicode="&#xed;" horiz-adv-x="436" 
d="M125 1255l143 332h215l-192 -332h-166zM121 0v1137h192v-1137h-192z" />
    <glyph glyph-name="icircumflex" unicode="&#xee;" horiz-adv-x="436" 
d="M-68 1255l195 332h182l197 -332h-162l-129 197l-127 -197h-156zM121 0v1137h192v-1137h-192z" />
    <glyph glyph-name="idieresis" unicode="&#xef;" horiz-adv-x="436" 
d="M-18 1255v215h157v-215h-157zM297 1255v215h156v-215h-156zM121 0v1137h192v-1137h-192z" />
    <glyph glyph-name="eth" unicode="&#xf0;" horiz-adv-x="1054" 
d="M461 1194v143l143 37q-51 72 -112 125l143 96q93 -74 158 -172l194 52v-144l-127 -33q121 -269 121 -698q0 -82 -4 -145t-15.5 -130t-32 -115t-55 -93t-81.5 -72.5t-114.5 -44t-152.5 -16.5q-107 0 -187.5 28t-131 76t-81 122t-42.5 156t-12 187q0 69 4.5 126.5t17 116
t32.5 104.5t51.5 86t73.5 67t100.5 42t129.5 15q199 0 285 -96q-30 123 -86 237zM526 152q58 0 102 14t72 42t46 61t27 82t12 93t3 105t-3 105t-12 92.5t-27 81.5t-46 61t-72 41.5t-102 13.5q-68 0 -117 -21.5t-77 -54.5t-43.5 -88t-20 -106.5t-4.5 -124.5q0 -60 3 -104.5
t12.5 -93t27.5 -82t46.5 -61.5t72 -42t100.5 -14z" />
    <glyph glyph-name="ntilde" unicode="&#xf1;" 
d="M115 0v1126l153 13l17 -113q38 64 117 97.5t225 33.5q85 0 145.5 -20.5t96 -54t55.5 -90t26 -114t6 -139.5v-739h-192v696q0 61 -3.5 100t-15 76.5t-33.5 57.5t-59.5 32.5t-91.5 12.5q-66 0 -111.5 -16t-73.5 -43.5t-43.5 -76.5t-20.5 -104t-5 -137v-598h-192zM299 1247
l-127 72q86 170 227 170q44 0 89 -21t83.5 -42t65.5 -21q33 0 59 22.5t58 71.5l125 -72q-86 -176 -226 -176q-44 0 -89.5 20.5t-84.5 41t-65 20.5q-33 0 -59.5 -20.5t-55.5 -65.5z" />
    <glyph glyph-name="ograve" unicode="&#xf2;" horiz-adv-x="1052" 
d="M526 -16q-112 0 -193.5 29.5t-131 78.5t-79 126.5t-40 160t-10.5 192.5q0 109 10 191t39 159.5t78.5 127t131.5 79t195 29.5t195.5 -30t132 -79.5t78.5 -127.5t39 -159.5t10 -189.5q0 -111 -10 -193.5t-39 -160t-78.5 -126.5t-132 -78t-195.5 -29zM526 152q58 0 102 13.5
t72 42t46 62t27 84.5t12 98t3 113t-3 113t-12 98t-27 84.5t-46 61.5t-72 41.5t-102 13.5q-69 0 -117.5 -21t-76.5 -55t-43.5 -90.5t-20 -111t-4.5 -134.5q0 -65 3 -112.5t12.5 -98t27.5 -84.5t46.5 -62.5t72 -42t100.5 -13.5zM487 1255l-276 332h219l227 -332h-170z" />
    <glyph glyph-name="oacute" unicode="&#xf3;" horiz-adv-x="1052" 
d="M385 1255l229 332h213l-272 -332h-170zM526 -16q-112 0 -193.5 29.5t-131 78.5t-79 126.5t-40 160t-10.5 192.5q0 109 10 191t39 159.5t78.5 127t131.5 79t195 29.5t195.5 -30t132 -79.5t78.5 -127.5t39 -159.5t10 -189.5q0 -111 -10 -193.5t-39 -160t-78.5 -126.5
t-132 -78t-195.5 -29zM526 152q58 0 102 13.5t72 42t46 62t27 84.5t12 98t3 113t-3 113t-12 98t-27 84.5t-46 61.5t-72 41.5t-102 13.5q-69 0 -117.5 -21t-76.5 -55t-43.5 -90.5t-20 -111t-4.5 -134.5q0 -65 3 -112.5t12.5 -98t27.5 -84.5t46.5 -62.5t72 -42t100.5 -13.5z
" />
    <glyph glyph-name="ocircumflex" unicode="&#xf4;" horiz-adv-x="1052" 
d="M203 1255l229 332h182l228 -332h-160l-162 197l-162 -197h-155zM526 -16q-112 0 -193.5 29.5t-131 78.5t-79 126.5t-40 160t-10.5 192.5q0 109 10 191t39 159.5t78.5 127t131.5 79t195 29.5t195.5 -30t132 -79.5t78.5 -127.5t39 -159.5t10 -189.5q0 -111 -10 -193.5
t-39 -160t-78.5 -126.5t-132 -78t-195.5 -29zM526 152q58 0 102 13.5t72 42t46 62t27 84.5t12 98t3 113t-3 113t-12 98t-27 84.5t-46 61.5t-72 41.5t-102 13.5q-69 0 -117.5 -21t-76.5 -55t-43.5 -90.5t-20 -111t-4.5 -134.5q0 -65 3 -112.5t12.5 -98t27.5 -84.5t46.5 -62.5
t72 -42t100.5 -13.5z" />
    <glyph glyph-name="otilde" unicode="&#xf5;" horiz-adv-x="1052" 
d="M526 -16q-112 0 -193.5 29.5t-131 78.5t-79 126.5t-40 160t-10.5 192.5q0 109 10 191t39 159.5t78.5 127t131.5 79t195 29.5t195.5 -30t132 -79.5t78.5 -127.5t39 -159.5t10 -189.5q0 -111 -10 -193.5t-39 -160t-78.5 -126.5t-132 -78t-195.5 -29zM526 152q58 0 102 13.5
t72 42t46 62t27 84.5t12 98t3 113t-3 113t-12 98t-27 84.5t-46 61.5t-72 41.5t-102 13.5q-69 0 -117.5 -21t-76.5 -55t-43.5 -90.5t-20 -111t-4.5 -134.5q0 -65 3 -112.5t12.5 -98t27.5 -84.5t46.5 -62.5t72 -42t100.5 -13.5zM293 1247l-127 72q86 170 227 170q44 0 89 -21
t83.5 -42t65.5 -21q33 0 59 22.5t58 71.5l124 -72q-42 -88 -96.5 -132t-128.5 -44q-44 0 -89.5 20.5t-84.5 41t-65 20.5q-33 0 -59.5 -20.5t-55.5 -65.5z" />
    <glyph glyph-name="odieresis" unicode="&#xf6;" horiz-adv-x="1052" 
d="M254 1255v215h172v-215h-172zM616 1255v215h175v-215h-175zM526 -16q-112 0 -193.5 29.5t-131 78.5t-79 126.5t-40 160t-10.5 192.5q0 109 10 191t39 159.5t78.5 127t131.5 79t195 29.5t195.5 -30t132 -79.5t78.5 -127.5t39 -159.5t10 -189.5q0 -111 -10 -193.5t-39 -160
t-78.5 -126.5t-132 -78t-195.5 -29zM526 152q58 0 102 13.5t72 42t46 62t27 84.5t12 98t3 113t-3 113t-12 98t-27 84.5t-46 61.5t-72 41.5t-102 13.5q-69 0 -117.5 -21t-76.5 -55t-43.5 -90.5t-20 -111t-4.5 -134.5q0 -65 3 -112.5t12.5 -98t27.5 -84.5t46.5 -62.5t72 -42
t100.5 -13.5z" />
    <glyph glyph-name="divide" unicode="&#xf7;" horiz-adv-x="1159" 
d="M477 256v201h205v-201h-205zM166 633v178h827v-178h-827zM477 985v201h205v-201h-205z" />
    <glyph glyph-name="oslash" unicode="&#xf8;" horiz-adv-x="1052" 
d="M127 -88l86 168q-79 72 -110 193.5t-31 297.5q0 109 10 191t39 159.5t78.5 127t131.5 79t195 29.5q101 0 187 -27l47 95h172l-86 -172q76 -74 105.5 -194t29.5 -288q0 -111 -10 -193.5t-39 -160t-78.5 -126.5t-132 -78t-195.5 -29q-106 0 -182 24l-47 -96h-170zM258 565
q0 -221 51 -311l332 711q-49 18 -115 18q-70 0 -119.5 -21.5t-78 -55.5t-44.5 -91t-21 -113t-5 -137zM526 147q59 0 103.5 14t73.5 42.5t47.5 63t28 85.5t13 99t3.5 114q0 216 -50 305l-331 -706q51 -17 112 -17z" />
    <glyph glyph-name="ugrave" unicode="&#xf9;" horiz-adv-x="1040" 
d="M520 -16q-101 0 -172.5 17.5t-118 50.5t-73 88.5t-37 121.5t-10.5 160v715h192v-705q0 -62 3.5 -100t16 -75.5t36.5 -57t65 -31.5t102 -12q59 0 99 12t64 31.5t36.5 56.5t16 75.5t3.5 100.5v705h189v-715q0 -119 -16 -195t-60 -134t-126 -83.5t-210 -25.5zM483 1255
l-276 332h219l227 -332h-170z" />
    <glyph glyph-name="uacute" unicode="&#xfa;" horiz-adv-x="1040" 
d="M381 1255l229 332h213l-272 -332h-170zM520 -16q-101 0 -172.5 17.5t-118 50.5t-73 88.5t-37 121.5t-10.5 160v715h192v-705q0 -62 3.5 -100t16 -75.5t36.5 -57t65 -31.5t102 -12q59 0 99 12t64 31.5t36.5 56.5t16 75.5t3.5 100.5v705h189v-715q0 -119 -16 -195t-60 -134
t-126 -83.5t-210 -25.5z" />
    <glyph glyph-name="ucircumflex" unicode="&#xfb;" horiz-adv-x="1040" 
d="M199 1255l229 332h182l228 -332h-160l-162 197l-162 -197h-155zM520 -16q-101 0 -172.5 17.5t-118 50.5t-73 88.5t-37 121.5t-10.5 160v715h192v-705q0 -62 3.5 -100t16 -75.5t36.5 -57t65 -31.5t102 -12q59 0 99 12t64 31.5t36.5 56.5t16 75.5t3.5 100.5v705h189v-715
q0 -119 -16 -195t-60 -134t-126 -83.5t-210 -25.5z" />
    <glyph glyph-name="udieresis" unicode="&#xfc;" horiz-adv-x="1040" 
d="M250 1255v215h172v-215h-172zM612 1255v215h174v-215h-174zM520 -16q-101 0 -172.5 17.5t-118 50.5t-73 88.5t-37 121.5t-10.5 160v715h192v-705q0 -62 3.5 -100t16 -75.5t36.5 -57t65 -31.5t102 -12q59 0 99 12t64 31.5t36.5 56.5t16 75.5t3.5 100.5v705h189v-715
q0 -119 -16 -195t-60 -134t-126 -83.5t-210 -25.5z" />
    <glyph glyph-name="yacute" unicode="&#xfd;" horiz-adv-x="917" 
d="M133 -324v158h105q45 0 66.5 16.5t33.5 57.5l24 88l-346 1141h195l250 -865l250 865h188l-387 -1270q-34 -113 -96 -152t-183 -39h-100zM324 1255l229 332h213l-272 -332h-170z" />
    <glyph glyph-name="thorn" unicode="&#xfe;" horiz-adv-x="1081" 
d="M115 -324v1899h190v-547q37 64 111.5 96.5t216.5 32.5q71 0 127.5 -17t95.5 -44.5t67.5 -72t45 -91t26 -110t12.5 -120.5t3 -131q0 -86 -5 -152.5t-19 -137.5t-41 -121t-68 -91t-104.5 -62t-145.5 -21q-135 0 -207 28.5t-113 87.5v-426h-192zM575 154q62 0 106 20
t70.5 53t41 87.5t19.5 111.5t5 137t-4.5 136.5t-19.5 112.5t-41 90t-70.5 54.5t-106.5 20.5q-52 0 -92 -11t-68 -29t-48 -48t-31.5 -61.5t-18 -78t-8.5 -87.5t-2 -99t2 -98.5t8 -86.5t17.5 -77t31.5 -61t48 -47.5t68.5 -28t92.5 -10.5z" />
    <glyph glyph-name="ydieresis" unicode="&#xff;" horiz-adv-x="917" 
d="M133 -324v158h105q45 0 66.5 16.5t33.5 57.5l24 88l-346 1141h195l250 -865l250 865h188l-387 -1270q-34 -113 -96 -152t-183 -39h-100zM193 1255v215h172v-215h-172zM555 1255v215h174v-215h-174z" />
    <glyph glyph-name="Amacron" unicode="&#x100;" horiz-adv-x="1224" 
d="M41 0l467 1528h209l467 -1528h-201l-94 315h-561l-90 -315h-197zM381 496h457l-228 753zM293 1604v159h631v-159h-631z" />
    <glyph glyph-name="amacron" unicode="&#x101;" horiz-adv-x="1044" 
d="M406 -12q-183 0 -260.5 89.5t-77.5 264.5q0 98 24 170t68.5 119t117.5 75.5t162 40t211 11.5h47q-3 121 -43.5 173t-156.5 52q-155 0 -281 -61l-80 157q156 80 379 80q113 0 185.5 -23t113.5 -75t56.5 -123t15.5 -180v-479q0 -70 14.5 -90.5t73.5 -20.5v-168
q-17 -2 -53 -2q-93 0 -136 23t-59 85q-49 -65 -126.5 -91.5t-194.5 -26.5zM444 147q55 0 98.5 13.5t80 45t56 91t19.5 143.5v160h-45q-91 0 -151 -5t-112 -19.5t-80.5 -41.5t-44 -69.5t-15.5 -104.5q0 -118 48 -165.5t146 -47.5zM203 1255v160h631v-160h-631z" />
    <glyph glyph-name="Abreve" unicode="&#x102;" horiz-adv-x="1224" 
d="M41 0l467 1528h209l467 -1528h-201l-94 315h-561l-90 -315h-197zM381 496h457l-228 753zM610 1593q-86 0 -146 19.5t-96 60t-54.5 90t-28.5 121.5l141 21q15 -84 54 -124t130 -40q89 0 128 40t53 124l143 -19q-11 -73 -29.5 -122.5t-54.5 -90.5t-95 -60.5t-145 -19.5z
" />
    <glyph glyph-name="abreve" unicode="&#x103;" horiz-adv-x="1044" 
d="M406 -12q-183 0 -260.5 89.5t-77.5 264.5q0 98 24 170t68.5 119t117.5 75.5t162 40t211 11.5h47q-3 121 -43.5 173t-156.5 52q-155 0 -281 -61l-80 157q156 80 379 80q113 0 185.5 -23t113.5 -75t56.5 -123t15.5 -180v-479q0 -70 14.5 -90.5t73.5 -20.5v-168
q-17 -2 -53 -2q-93 0 -136 23t-59 85q-49 -65 -126.5 -91.5t-194.5 -26.5zM444 147q55 0 98.5 13.5t80 45t56 91t19.5 143.5v160h-45q-91 0 -151 -5t-112 -19.5t-80.5 -41.5t-44 -69.5t-15.5 -104.5q0 -118 48 -165.5t146 -47.5zM520 1245q-86 0 -146 19.5t-96 60t-54.5 90
t-28.5 121.5l141 20q15 -84 54 -123.5t130 -39.5q89 0 128 40t52 123l144 -18q-11 -73 -29.5 -122.5t-54.5 -90.5t-95 -60.5t-145 -19.5z" />
    <glyph glyph-name="Aogonek" unicode="&#x104;" horiz-adv-x="1224" 
d="M41 0l467 1528h209l467 -1528h-56q-157 -126 -157 -227q0 -46 24.5 -67t85.5 -21h66v-127h-84q-125 0 -185.5 42.5t-60.5 143.5q0 166 160 276l-88 295h-561l-90 -315h-197zM381 496h457l-228 753z" />
    <glyph glyph-name="aogonek" unicode="&#x105;" horiz-adv-x="1044" 
d="M406 -12q-183 0 -260.5 89.5t-77.5 264.5q0 98 24 170t68.5 119t117.5 75.5t162 40t211 11.5h47q-3 121 -43.5 173t-156.5 52q-155 0 -281 -61l-80 157q156 80 379 80q113 0 185.5 -23t113.5 -75t56.5 -123t15.5 -180v-479q0 -70 14.5 -90.5t73.5 -20.5v-168
q-49 -37 -76.5 -60t-55 -52.5t-39 -56.5t-11.5 -58q0 -46 24.5 -67t85.5 -21h66v-127h-84q-126 0 -187 42.5t-61 143.5q0 161 176 264q-69 22 -86 98q-49 -65 -126.5 -91.5t-194.5 -26.5zM444 147q55 0 98.5 13.5t80 45t56 91t19.5 143.5v160h-45q-91 0 -151 -5t-112 -19.5
t-80.5 -41.5t-44 -69.5t-15.5 -104.5q0 -118 48 -165.5t146 -47.5z" />
    <glyph glyph-name="Cacute" unicode="&#x106;" horiz-adv-x="1067" 
d="M393 1604l230 331h213l-273 -331h-170zM621 -16q-132 0 -229.5 36t-159 99.5t-99 163t-51.5 212.5t-14 263q0 105 6.5 190t23 167t44.5 144t71.5 115.5t102 87.5t139 53t180.5 19q228 0 369 -96l-105 -164q-109 67 -270 67q-106 0 -176.5 -34t-111 -109.5t-57 -181
t-16.5 -262.5q0 -126 10 -216.5t34 -164.5t65.5 -119t104 -68.5t149.5 -23.5q95 0 160.5 19.5t132.5 62.5l98 -154q-87 -54 -176.5 -80t-224.5 -26z" />
    <glyph glyph-name="cacute" unicode="&#x107;" horiz-adv-x="860" 
d="M295 1255l229 332h213l-272 -332h-170zM512 -16q-107 0 -185 27.5t-126.5 75t-77.5 123.5t-40 161t-11 200t10.5 199.5t40 161t79 123.5t130 74.5t190.5 27.5q165 0 279 -57l-82 -166q-85 43 -189 43q-79 0 -131 -25.5t-81 -79.5t-40.5 -126.5t-11.5 -178.5
q0 -108 11 -180t39.5 -127.5t81.5 -81.5t134 -26q99 0 211 53l74 -148q-77 -38 -146 -55.5t-159 -17.5z" />
    <glyph glyph-name="Ccircumflex" unicode="&#x108;" horiz-adv-x="1067" 
d="M236 1604l229 331h182l227 -331h-159l-162 196l-162 -196h-155zM621 -16q-132 0 -229.5 36t-159 99.5t-99 163t-51.5 212.5t-14 263q0 105 6.5 190t23 167t44.5 144t71.5 115.5t102 87.5t139 53t180.5 19q228 0 369 -96l-105 -164q-109 67 -270 67q-106 0 -176.5 -34
t-111 -109.5t-57 -181t-16.5 -262.5q0 -126 10 -216.5t34 -164.5t65.5 -119t104 -68.5t149.5 -23.5q95 0 160.5 19.5t132.5 62.5l98 -154q-87 -54 -176.5 -80t-224.5 -26z" />
    <glyph glyph-name="ccircumflex" unicode="&#x109;" horiz-adv-x="860" 
d="M147 1255l230 332h182l227 -332h-159l-162 197l-162 -197h-156zM512 -16q-107 0 -185 27.5t-126.5 75t-77.5 123.5t-40 161t-11 200t10.5 199.5t40 161t79 123.5t130 74.5t190.5 27.5q165 0 279 -57l-82 -166q-85 43 -189 43q-79 0 -131 -25.5t-81 -79.5t-40.5 -126.5
t-11.5 -178.5q0 -108 11 -180t39.5 -127.5t81.5 -81.5t134 -26q99 0 211 53l74 -148q-77 -38 -146 -55.5t-159 -17.5z" />
    <glyph glyph-name="Cdotaccent" unicode="&#x10a;" horiz-adv-x="1067" 
d="M621 -16q-132 0 -229.5 36t-159 99.5t-99 163t-51.5 212.5t-14 263q0 105 6.5 190t23 167t44.5 144t71.5 115.5t102 87.5t139 53t180.5 19q228 0 369 -96l-105 -164q-109 67 -270 67q-106 0 -176.5 -34t-111 -109.5t-57 -181t-16.5 -262.5q0 -126 10 -216.5t34 -164.5
t65.5 -119t104 -68.5t149.5 -23.5q95 0 160.5 19.5t132.5 62.5l98 -154q-87 -54 -176.5 -80t-224.5 -26zM473 1604v229h193v-229h-193z" />
    <glyph glyph-name="cdotaccent" unicode="&#x10b;" horiz-adv-x="860" 
d="M512 -16q-107 0 -185 27.5t-126.5 75t-77.5 123.5t-40 161t-11 200t10.5 199.5t40 161t79 123.5t130 74.5t190.5 27.5q165 0 279 -57l-82 -166q-85 43 -189 43q-79 0 -131 -25.5t-81 -79.5t-40.5 -126.5t-11.5 -178.5q0 -108 11 -180t39.5 -127.5t81.5 -81.5t134 -26
q99 0 211 53l74 -148q-77 -38 -146 -55.5t-159 -17.5zM377 1255v230h192v-230h-192z" />
    <glyph glyph-name="Ccaron" unicode="&#x10c;" horiz-adv-x="1067" 
d="M440 1604l-229 331h162l159 -198l160 198h158l-227 -331h-183zM621 -16q-132 0 -229.5 36t-159 99.5t-99 163t-51.5 212.5t-14 263q0 105 6.5 190t23 167t44.5 144t71.5 115.5t102 87.5t139 53t180.5 19q228 0 369 -96l-105 -164q-109 67 -270 67q-106 0 -176.5 -34
t-111 -109.5t-57 -181t-16.5 -262.5q0 -126 10 -216.5t34 -164.5t65.5 -119t104 -68.5t149.5 -23.5q95 0 160.5 19.5t132.5 62.5l98 -154q-87 -54 -176.5 -80t-224.5 -26z" />
    <glyph glyph-name="ccaron" unicode="&#x10d;" horiz-adv-x="860" 
d="M342 1255l-229 332h161l160 -198l160 198h158l-228 -332h-182zM512 -16q-107 0 -185 27.5t-126.5 75t-77.5 123.5t-40 161t-11 200t10.5 199.5t40 161t79 123.5t130 74.5t190.5 27.5q165 0 279 -57l-82 -166q-85 43 -189 43q-79 0 -131 -25.5t-81 -79.5t-40.5 -126.5
t-11.5 -178.5q0 -108 11 -180t39.5 -127.5t81.5 -81.5t134 -26q99 0 211 53l74 -148q-77 -38 -146 -55.5t-159 -17.5z" />
    <glyph glyph-name="Dcaron" unicode="&#x10e;" horiz-adv-x="1228" 
d="M522 1604l-229 331h162l159 -198l160 198h158l-227 -331h-183zM133 0v1518h430q177 0 294 -45t184 -143.5t93.5 -233.5t26.5 -336q0 -136 -11 -238t-37.5 -190.5t-71 -148t-112 -102t-160 -62t-214.5 -19.5h-422zM332 174h237q97 0 166 23.5t113 66.5t69 117.5
t34.5 162.5t9.5 214q0 125 -9.5 212t-34 160t-68 116t-111.5 66t-165 23h-241v-1161z" />
    <glyph glyph-name="dcaron" unicode="&#x10f;" horiz-adv-x="1259" 
d="M1118 1163l-43 78q60 34 76 56.5t16 74.5h-86v203h189v-191q0 -87 -28.5 -131.5t-123.5 -89.5zM449 -14q-71 0 -127.5 16.5t-95.5 44.5t-67.5 72t-45 91t-26 110.5t-12.5 121t-3 131.5t3.5 132t13.5 120.5t27.5 109.5t46.5 90.5t69 71t97 44t128 16.5q134 0 206 -29
t113 -88v535h191v-1567l-152 -14l-18 125q-42 -66 -121.5 -99.5t-226.5 -33.5zM506 154q52 0 93 11t69 29t48 48.5t31.5 62t18 78t8.5 87.5t2 99t-2 98.5t-8 86.5t-17.5 77t-31.5 61t-48 47.5t-69 28.5t-94 11q-52 0 -91.5 -13t-66 -40t-43.5 -60.5t-26 -83t-12 -98.5
t-3 -115q0 -81 4.5 -137t19 -112.5t40.5 -90t70.5 -54.5t107.5 -21z" />
    <glyph glyph-name="Dcroat" unicode="&#x110;" horiz-adv-x="1228" 
d="M2 698v164h131v656h430q177 0 294 -45t184 -143.5t93.5 -233.5t26.5 -336q0 -136 -11 -238t-37.5 -190.5t-71 -148t-112 -102t-160 -62t-214.5 -19.5h-422v698h-131zM332 174h237q97 0 166 23.5t113 66.5t69 117.5t34.5 162.5t9.5 214q0 125 -9.5 212t-34 160t-68 116
t-111.5 66t-165 23h-241v-473h252v-164h-252v-524z" />
    <glyph glyph-name="dcroat" unicode="&#x111;" horiz-adv-x="1081" 
d="M539 1276v151h237v148h191v-148h114v-151h-114v-1268l-152 -14l-18 125q-42 -66 -121.5 -99.5t-226.5 -33.5q-71 0 -127.5 16.5t-95.5 44.5t-67.5 72t-45 91t-26 110.5t-12.5 121t-3 131.5t3.5 132t13.5 120.5t27.5 109.5t46.5 90.5t69 71t97 44t128 16.5q134 0 206 -29
t113 -88v236h-237zM506 154q52 0 93 11t69 29t48 48.5t31.5 62t18 78t8.5 87.5t2 99t-2 98.5t-8 86.5t-17.5 77t-31.5 61t-48 47.5t-69 28.5t-94 11q-52 0 -91.5 -13t-66 -40t-43.5 -60.5t-26 -83t-12 -98.5t-3 -115q0 -81 4.5 -137t19 -112.5t40.5 -90t70.5 -54.5
t107.5 -21z" />
    <glyph glyph-name="Emacron" unicode="&#x112;" 
d="M133 0v1518h834v-183h-639v-461h606v-180h-606v-516h645v-178h-840zM213 1604v159h631v-159h-631z" />
    <glyph glyph-name="emacron" unicode="&#x113;" horiz-adv-x="978" 
d="M514 -14q-110 0 -189.5 27.5t-128 74.5t-76.5 123.5t-38 160t-10 199.5q0 112 11.5 197t41.5 161t79.5 124t128 76t185.5 28q58 0 106 -7.5t85 -22t66 -36t50 -49.5t36 -63t24 -75.5t14.5 -87.5t7 -100t2.5 -111t0 -122h-655q6 -174 62.5 -252.5t207.5 -78.5q69 0 128 11
t86.5 22t74.5 32l74 -147q-157 -84 -373 -84zM514 987q-75 0 -125 -22t-77.5 -67.5t-40 -103t-15.5 -141.5h475q-3 156 -18 210q-26 90 -110 114q-37 10 -89 10zM172 1255v160h631v-160h-631z" />
    <glyph glyph-name="Ebreve" unicode="&#x114;" 
d="M133 0v1518h834v-183h-639v-461h606v-180h-606v-516h645v-178h-840zM539 1593q-86 0 -146.5 19.5t-96.5 60t-54.5 90t-28.5 121.5l141 21q8 -42 19 -70t32 -50.5t54 -33t80 -10.5q88 0 127 40t53 124l143 -19q-10 -73 -29 -123t-54.5 -90.5t-95 -60t-144.5 -19.5z" />
    <glyph glyph-name="ebreve" unicode="&#x115;" horiz-adv-x="978" 
d="M514 -14q-110 0 -189.5 27.5t-128 74.5t-76.5 123.5t-38 160t-10 199.5q0 112 11.5 197t41.5 161t79.5 124t128 76t185.5 28q58 0 106 -7.5t85 -22t66 -36t50 -49.5t36 -63t24 -75.5t14.5 -87.5t7 -100t2.5 -111t0 -122h-655q6 -174 62.5 -252.5t207.5 -78.5q69 0 128 11
t86.5 22t74.5 32l74 -147q-157 -84 -373 -84zM514 987q-75 0 -125 -22t-77.5 -67.5t-40 -103t-15.5 -141.5h475q-3 156 -18 210q-26 90 -110 114q-37 10 -89 10zM494 1245q-86 0 -146.5 19.5t-96.5 60t-54.5 90t-28.5 121.5l141 20q16 -84 55 -123.5t130 -39.5q88 0 127 40
t53 123l143 -18q-10 -73 -29 -123t-54.5 -90.5t-95 -60t-144.5 -19.5z" />
    <glyph glyph-name="Edotaccent" unicode="&#x116;" 
d="M133 0v1518h834v-183h-639v-461h606v-180h-606v-516h645v-178h-840zM434 1604v229h193v-229h-193z" />
    <glyph glyph-name="edotaccent" unicode="&#x117;" horiz-adv-x="978" 
d="M514 -14q-110 0 -189.5 27.5t-128 74.5t-76.5 123.5t-38 160t-10 199.5q0 112 11.5 197t41.5 161t79.5 124t128 76t185.5 28q58 0 106 -7.5t85 -22t66 -36t50 -49.5t36 -63t24 -75.5t14.5 -87.5t7 -100t2.5 -111t0 -122h-655q6 -174 62.5 -252.5t207.5 -78.5q69 0 128 11
t86.5 22t74.5 32l74 -147q-157 -84 -373 -84zM514 987q-75 0 -125 -22t-77.5 -67.5t-40 -103t-15.5 -141.5h475q-3 156 -18 210q-26 90 -110 114q-37 10 -89 10zM393 1255v230h193v-230h-193z" />
    <glyph glyph-name="Eogonek" unicode="&#x118;" 
d="M133 0v1518h834v-183h-639v-461h606v-180h-606v-516h645v-178h-47q-146 -126 -146 -227q0 -46 25 -67t86 -21h65v-127h-86q-124 0 -184.5 42.5t-60.5 143.5q0 80 42 145t103 111h-637z" />
    <glyph glyph-name="eogonek" unicode="&#x119;" horiz-adv-x="978" 
d="M514 -14q-110 0 -189.5 27.5t-128 74.5t-76.5 123.5t-38 160t-10 199.5q0 112 11.5 197t41.5 161t79.5 124t128 76t185.5 28q58 0 106 -7.5t85 -22t66 -36t50 -49.5t36 -63t24 -75.5t14.5 -87.5t7 -100t2.5 -111t0 -122h-655q6 -174 62.5 -252.5t207.5 -78.5q69 0 128 11
t86.5 22t74.5 32l74 -147q-50 -28 -121 -52q-168 -133 -168 -245q0 -46 25 -67t86 -21h65v-127h-86q-125 0 -185.5 42.5t-60.5 143.5q0 130 129 244q-18 -2 -57 -2zM514 987q-75 0 -125 -22t-77.5 -67.5t-40 -103t-15.5 -141.5h475q-3 156 -18 210q-26 90 -110 114
q-37 10 -89 10z" />
    <glyph glyph-name="Ecaron" unicode="&#x11a;" 
d="M440 1604l-229 331h162l159 -198l160 198h158l-227 -331h-183zM133 0v1518h834v-183h-639v-461h606v-180h-606v-516h645v-178h-840z" />
    <glyph glyph-name="ecaron" unicode="&#x11b;" horiz-adv-x="978" 
d="M399 1255l-229 332h162l160 -198l159 198h158l-227 -332h-183zM514 -14q-110 0 -189.5 27.5t-128 74.5t-76.5 123.5t-38 160t-10 199.5q0 112 11.5 197t41.5 161t79.5 124t128 76t185.5 28q58 0 106 -7.5t85 -22t66 -36t50 -49.5t36 -63t24 -75.5t14.5 -87.5t7 -100
t2.5 -111t0 -122h-655q6 -174 62.5 -252.5t207.5 -78.5q69 0 128 11t86.5 22t74.5 32l74 -147q-157 -84 -373 -84zM514 987q-75 0 -125 -22t-77.5 -67.5t-40 -103t-15.5 -141.5h475q-3 156 -18 210q-26 90 -110 114q-37 10 -89 10z" />
    <glyph glyph-name="Gcircumflex" unicode="&#x11c;" horiz-adv-x="1181" 
d="M270 1604l230 331h182l227 -331h-159l-162 196l-162 -196h-156zM612 -16q-127 0 -220.5 32t-155.5 92t-99.5 157t-53 215t-15.5 278q0 214 29.5 358.5t98.5 239.5t177.5 136.5t269.5 41.5q231 0 397 -104l-102 -164q-134 77 -303 77q-100 0 -166 -26t-113.5 -92.5
t-68.5 -181t-21 -289.5q0 -335 78.5 -467.5t284.5 -132.5q92 0 147.5 21t89.5 78t46 144.5t12 233.5v51h-359v172h549v-195q0 -133 -9 -229t-31.5 -174t-58.5 -127.5t-93 -83t-132 -47.5t-178 -14z" />
    <glyph glyph-name="gcircumflex" unicode="&#x11d;" horiz-adv-x="1017" 
d="M174 1264l229 331h183l227 -331h-160l-161 196l-162 -196h-156zM492 408q-80 0 -144 12q-12 -28 -12 -62q0 -44 35.5 -59.5t134.5 -15.5q174 0 270.5 -28.5t136 -89t39.5 -169.5q0 -177 -110 -257.5t-348 -80.5q-249 0 -354 60t-105 216q0 220 198 269q-65 40 -65 141
q0 73 45 133q-123 85 -123 301q0 201 102.5 291t299.5 90q26 0 92 -4l358 55v-153h-164q115 -78 115 -279q0 -199 -103.5 -284.5t-297.5 -85.5zM492 565q109 0 161 50.5t52 160.5q0 111 -52 162t-161 51q-107 0 -160 -51t-53 -162q0 -110 53 -160.5t160 -50.5zM492 -190
q107 0 165 19t79.5 55.5t21.5 103.5q0 55 -20.5 84t-78 44t-167.5 15q-149 0 -208 -39t-59 -127q0 -91 55.5 -123t211.5 -32z" />
    <glyph glyph-name="Gbreve" unicode="&#x11e;" horiz-adv-x="1181" 
d="M612 -16q-127 0 -220.5 32t-155.5 92t-99.5 157t-53 215t-15.5 278q0 214 29.5 358.5t98.5 239.5t177.5 136.5t269.5 41.5q231 0 397 -104l-102 -164q-134 77 -303 77q-100 0 -166 -26t-113.5 -92.5t-68.5 -181t-21 -289.5q0 -335 78.5 -467.5t284.5 -132.5
q92 0 147.5 21t89.5 78t46 144.5t12 233.5v51h-359v172h549v-195q0 -133 -9 -229t-31.5 -174t-58.5 -127.5t-93 -83t-132 -47.5t-178 -14zM590 1593q-86 0 -146.5 19.5t-96.5 60t-54.5 90t-28.5 121.5l142 21q15 -84 54 -124t130 -40q89 0 128 40.5t52 123.5l143 -19
q-10 -73 -29 -123t-54.5 -90.5t-95 -60t-144.5 -19.5z" />
    <glyph glyph-name="gbreve" unicode="&#x11f;" horiz-adv-x="1017" 
d="M492 408q-80 0 -144 12q-12 -28 -12 -62q0 -44 35.5 -59.5t134.5 -15.5q174 0 270.5 -28.5t136 -89t39.5 -169.5q0 -177 -110 -257.5t-348 -80.5q-249 0 -354 60t-105 216q0 220 198 269q-65 40 -65 141q0 73 45 133q-123 85 -123 301q0 201 102.5 291t299.5 90
q26 0 92 -4l358 55v-153h-164q115 -78 115 -279q0 -199 -103.5 -284.5t-297.5 -85.5zM492 565q109 0 161 50.5t52 160.5q0 111 -52 162t-161 51q-107 0 -160 -51t-53 -162q0 -110 53 -160.5t160 -50.5zM492 -190q107 0 165 19t79.5 55.5t21.5 103.5q0 55 -20.5 84t-78 44
t-167.5 15q-149 0 -208 -39t-59 -127q0 -91 55.5 -123t211.5 -32zM506 1245q-86 0 -146.5 19.5t-96.5 60t-54.5 90t-28.5 121.5l142 20q15 -84 54 -123.5t130 -39.5q89 0 128 40t52 123l143 -18q-10 -73 -29 -123t-54.5 -90.5t-95 -60t-144.5 -19.5z" />
    <glyph glyph-name="Gdotaccent" unicode="&#x120;" horiz-adv-x="1181" 
d="M612 -16q-127 0 -220.5 32t-155.5 92t-99.5 157t-53 215t-15.5 278q0 214 29.5 358.5t98.5 239.5t177.5 136.5t269.5 41.5q231 0 397 -104l-102 -164q-134 77 -303 77q-100 0 -166 -26t-113.5 -92.5t-68.5 -181t-21 -289.5q0 -335 78.5 -467.5t284.5 -132.5
q92 0 147.5 21t89.5 78t46 144.5t12 233.5v51h-359v172h549v-195q0 -133 -9 -229t-31.5 -174t-58.5 -127.5t-93 -83t-132 -47.5t-178 -14zM502 1604v229h192v-229h-192z" />
    <glyph glyph-name="gdotaccent" unicode="&#x121;" horiz-adv-x="1017" 
d="M492 408q-80 0 -144 12q-12 -28 -12 -62q0 -44 35.5 -59.5t134.5 -15.5q174 0 270.5 -28.5t136 -89t39.5 -169.5q0 -177 -110 -257.5t-348 -80.5q-249 0 -354 60t-105 216q0 220 198 269q-65 40 -65 141q0 73 45 133q-123 85 -123 301q0 201 102.5 291t299.5 90
q26 0 92 -4l358 55v-153h-164q115 -78 115 -279q0 -199 -103.5 -284.5t-297.5 -85.5zM492 565q109 0 161 50.5t52 160.5q0 111 -52 162t-161 51q-107 0 -160 -51t-53 -162q0 -110 53 -160.5t160 -50.5zM492 -190q107 0 165 19t79.5 55.5t21.5 103.5q0 55 -20.5 84t-78 44
t-167.5 15q-149 0 -208 -39t-59 -127q0 -91 55.5 -123t211.5 -32zM403 1255v230h193v-230h-193z" />
    <glyph glyph-name="Gcommaaccent" unicode="&#x122;" horiz-adv-x="1181" 
d="M530 -494l-45 76q61 35 78 58.5t17 72.5h-84v205h184v-190q0 -89 -27.5 -133t-122.5 -89zM612 -16q-127 0 -220.5 32t-155.5 92t-99.5 157t-53 215t-15.5 278q0 214 29.5 358.5t98.5 239.5t177.5 136.5t269.5 41.5q231 0 397 -104l-102 -164q-134 77 -303 77
q-100 0 -166 -26t-113.5 -92.5t-68.5 -181t-21 -289.5q0 -335 78.5 -467.5t284.5 -132.5q92 0 147.5 21t89.5 78t46 144.5t12 233.5v51h-359v172h549v-195q0 -133 -9 -229t-31.5 -174t-58.5 -127.5t-93 -83t-132 -47.5t-178 -14z" />
    <glyph glyph-name="gcommaaccent" unicode="&#x123;" horiz-adv-x="1017" 
d="M416 1255v189q0 87 28 131.5t123 91.5l41 -80q-59 -34 -74.5 -56t-15.5 -73h82v-203h-184zM492 408q-80 0 -144 12q-12 -28 -12 -62q0 -44 35.5 -59.5t134.5 -15.5q174 0 270.5 -28.5t136 -89t39.5 -169.5q0 -177 -110 -257.5t-348 -80.5q-249 0 -354 60t-105 216
q0 220 198 269q-65 40 -65 141q0 73 45 133q-123 85 -123 301q0 201 102.5 291t299.5 90q26 0 92 -4l358 55v-153h-164q115 -78 115 -279q0 -199 -103.5 -284.5t-297.5 -85.5zM492 565q109 0 161 50.5t52 160.5q0 111 -52 162t-161 51q-107 0 -160 -51t-53 -162
q0 -110 53 -160.5t160 -50.5zM492 -190q107 0 165 19t79.5 55.5t21.5 103.5q0 55 -20.5 84t-78 44t-167.5 15q-149 0 -208 -39t-59 -127q0 -91 55.5 -123t211.5 -32z" />
    <glyph glyph-name="Hcircumflex" unicode="&#x124;" horiz-adv-x="1290" 
d="M324 1604l229 331h182l228 -331h-160l-162 196l-162 -196h-155zM133 0v1518h199v-631h626v631h199v-1518h-199v692h-626v-692h-199z" />
    <glyph glyph-name="hcircumflex" unicode="&#x125;" 
d="M-104 1604l229 331h182l228 -331h-160l-162 196l-162 -196h-155zM115 0v1575h190v-541q74 123 324 123q85 0 145.5 -20.5t95.5 -54t54.5 -90t25.5 -113.5t6 -140v-739h-192v696q0 61 -3.5 100t-15 76.5t-33.5 57.5t-59.5 32.5t-91.5 12.5q-64 0 -108.5 -14.5t-73 -41
t-44.5 -74.5t-22 -105t-6 -142v-598h-192z" />
    <glyph glyph-name="Hbar" unicode="&#x126;" horiz-adv-x="1290" 
d="M25 1104v184h108v230h199v-230h626v230h199v-230h109v-184h-109v-1104h-199v692h-626v-692h-199v1104h-108zM332 887h626v217h-626v-217z" />
    <glyph glyph-name="hbar" unicode="&#x127;" 
d="M115 0v1278h-115v149h115v148h190v-148h240v-149h-240v-244q74 123 324 123q85 0 145.5 -20.5t95.5 -54t54.5 -90t25.5 -113.5t6 -140v-739h-192v696q0 61 -3.5 100t-15 76.5t-33.5 57.5t-59.5 32.5t-91.5 12.5q-64 0 -108.5 -14.5t-73 -41t-44.5 -74.5t-22 -105t-6 -142
v-598h-192z" />
    <glyph glyph-name="Itilde" unicode="&#x128;" horiz-adv-x="491" 
d="M147 0v1518h199v-1518h-199zM23 1595l-127 72q86 170 227 170q43 0 88.5 -21t83.5 -42t65 -21q34 0 59 22.5t58 71.5l125 -71q-85 -177 -225 -177q-44 0 -90 20.5t-85 41t-65 20.5q-61 0 -114 -86z" />
    <glyph glyph-name="itilde" unicode="&#x129;" horiz-adv-x="436" 
d="M121 0v1137h192v-1137h-192zM-4 1247l-127 72q86 170 227 170q44 0 89 -21t83.5 -42t65.5 -21q33 0 59 22.5t58 71.5l124 -72q-42 -88 -96.5 -132t-128.5 -44q-44 0 -89.5 20.5t-84.5 41t-65 20.5q-33 0 -59.5 -20.5t-55.5 -65.5z" />
    <glyph glyph-name="Imacron" unicode="&#x12a;" horiz-adv-x="491" 
d="M147 0v1518h199v-1518h-199zM-68 1604v159h631v-159h-631z" />
    <glyph glyph-name="imacron" unicode="&#x12b;" horiz-adv-x="436" 
d="M121 0v1137h192v-1137h-192zM-96 1255v160h631v-160h-631z" />
    <glyph glyph-name="Ibreve" unicode="&#x12c;" horiz-adv-x="491" 
d="M147 0v1518h199v-1518h-199zM250 1593q-86 0 -146.5 19.5t-96.5 60t-54.5 90t-28.5 121.5l142 21q15 -84 54 -124t130 -40q89 0 128 40.5t52 123.5l143 -19q-10 -73 -29 -123t-54.5 -90.5t-95 -60t-144.5 -19.5z" />
    <glyph glyph-name="ibreve" unicode="&#x12d;" horiz-adv-x="436" 
d="M121 0v1137h192v-1137h-192zM221 1245q-86 0 -146 19.5t-96 60t-54.5 90t-28.5 121.5l141 20q15 -84 54 -123.5t130 -39.5q89 0 128 40t52 123l144 -18q-11 -73 -29.5 -122.5t-54.5 -90.5t-95 -60.5t-145 -19.5z" />
    <glyph glyph-name="Iogonek" unicode="&#x12e;" horiz-adv-x="491" 
d="M147 0v1518h199v-1518q-96 -71 -138 -120t-42 -107q0 -47 24 -67.5t86 -20.5h66v-127h-84q-126 0 -188 42.5t-62 143.5q0 153 139 256z" />
    <glyph glyph-name="iogonek" unicode="&#x12f;" horiz-adv-x="436" 
d="M121 0v1137h192v-1137q-95 -73 -136.5 -121t-41.5 -106q0 -47 24 -67.5t85 -20.5h65v-127h-84q-124 0 -184.5 42.5t-60.5 143.5q0 156 141 256zM121 1276v231h194v-231h-194z" />
    <glyph glyph-name="Idotaccent" unicode="&#x130;" horiz-adv-x="491" 
d="M147 0v1518h199v-1518h-199zM154 1604v229h192v-229h-192z" />
    <glyph glyph-name="dotlessi" unicode="&#x131;" horiz-adv-x="436" 
d="M121 0v1137h192v-1137h-192z" />
    <glyph glyph-name="IJ" unicode="&#x132;" horiz-adv-x="1216" 
d="M147 0v1518h199v-1518h-199zM541 0v178h143q115 0 161 48t46 153v1139h199v-1151q0 -196 -94 -281.5t-283 -85.5h-172z" />
    <glyph glyph-name="ij" unicode="&#x133;" horiz-adv-x="874" 
d="M121 0v1137h192v-1137h-192zM121 1276v231h194v-231h-194zM438 -324v158h19q63 0 80.5 27t17.5 104v1172h193v-1178q0 -80 -12 -131t-43.5 -86.5t-85 -50.5t-138.5 -15h-31zM555 1276v231h195v-231h-195z" />
    <glyph glyph-name="Jcircumflex" unicode="&#x134;" horiz-adv-x="724" 
d="M180 1604l230 331h182l227 -331h-160l-161 196l-162 -196h-156zM51 0v178h144q114 0 160 48t46 153v1139h199v-1151q0 -196 -94 -281.5t-283 -85.5h-172z" />
    <glyph glyph-name="jcircumflex" unicode="&#x135;" horiz-adv-x="436" 
d="M4 -324v158h19q63 0 80.5 27t17.5 104v1172h192v-1178q0 -80 -11.5 -131t-43 -86.5t-85 -50.5t-138.5 -15h-31zM-98 1255l229 332h182l228 -332h-160l-162 197l-162 -197h-155z" />
    <glyph glyph-name="Kcommaaccent" unicode="&#x136;" horiz-adv-x="1198" 
d="M539 -494l-45 76q61 35 77.5 58.5t16.5 72.5h-84v205h184v-190q0 -89 -27.5 -133t-121.5 -89zM133 0v1518h197v-721l573 721h230l-463 -574l477 -944h-219l-391 782l-207 -266v-516h-197z" />
    <glyph glyph-name="kcommaaccent" unicode="&#x137;" horiz-adv-x="954" 
d="M418 -494l-45 76q61 35 77.5 58.5t16.5 72.5h-84v205h184v-190q0 -89 -27.5 -133t-121.5 -89zM115 0v1575h188v-1000l393 562h207l-342 -482l369 -655h-203l-293 502l-131 -191v-311h-188z" />
    <glyph glyph-name="kgreenlandic" unicode="&#x138;" horiz-adv-x="954" 
d="M115 0v1137h188v-576l397 576h203l-342 -482l369 -655h-203l-293 502l-131 -191v-311h-188z" />
    <glyph glyph-name="Lacute" unicode="&#x139;" horiz-adv-x="987" 
d="M156 1604l229 331h213l-272 -331h-170zM133 0v1518h199v-1340h620v-178h-819z" />
    <glyph glyph-name="lacute" unicode="&#x13a;" horiz-adv-x="520" 
d="M129 1673l229 332h213l-272 -332h-170zM449 0q-11 -2 -68 -2q-148 0 -204 58.5t-56 209.5v1309h192v-1286q0 -40 3 -58.5t16.5 -35.5t40.5 -22t76 -5v-168z" />
    <glyph glyph-name="Lcommaaccent" unicode="&#x13b;" horiz-adv-x="987" 
d="M432 -494l-45 76q61 35 77.5 58.5t16.5 72.5h-84v205h185v-190q0 -89 -27.5 -133t-122.5 -89zM133 0v1518h199v-1340h620v-178h-819z" />
    <glyph glyph-name="lcommaaccent" unicode="&#x13c;" horiz-adv-x="520" 
d="M201 -494l-45 76q61 35 77.5 58.5t16.5 72.5h-84v205h184v-190q0 -89 -27.5 -133t-121.5 -89zM449 0q-11 -2 -68 -2q-148 0 -204 58.5t-56 209.5v1309h192v-1286q0 -40 3 -58.5t16.5 -35.5t40.5 -22t76 -5v-168z" />
    <glyph glyph-name="Lcaron" unicode="&#x13d;" horiz-adv-x="987" 
d="M522 1163l-43 78q60 34 76 56.5t16 74.5h-84v203h189v-191q0 -87 -29 -131.5t-125 -89.5zM133 0v1518h199v-1340h620v-178h-819z" />
    <glyph glyph-name="lcaron" unicode="&#x13e;" horiz-adv-x="614" 
d="M465 1163l-45 78q61 34 77.5 56.5t16.5 74.5h-86v203h188v-191q0 -87 -28.5 -131.5t-122.5 -89.5zM449 0q-11 -2 -68 -2q-148 0 -204 58.5t-56 209.5v1309h192v-1286q0 -40 3 -58.5t16.5 -35.5t40.5 -22t76 -5v-168z" />
    <glyph glyph-name="Ldot" unicode="&#x13f;" horiz-adv-x="1054" 
d="M133 0v1518h199v-1340h620v-178h-819zM643 647v262h234v-262h-234z" />
    <glyph glyph-name="ldot" unicode="&#x140;" horiz-adv-x="862" 
d="M449 0q-11 -2 -68 -2q-148 0 -204 58.5t-56 209.5v1309h192v-1286q0 -40 3 -58.5t16.5 -35.5t40.5 -22t76 -5v-168zM528 571v263h234v-263h-234z" />
    <glyph glyph-name="Lslash" unicode="&#x141;" horiz-adv-x="987" 
d="M2 618v164l131 72v664h199v-555l250 137v-164l-250 -137v-621h620v-178h-819v690z" />
    <glyph glyph-name="lslash" unicode="&#x142;" horiz-adv-x="643" 
d="M41 799v168l162 92v516h192v-404l180 105v-170l-180 -105v-712q0 -40 3 -58.5t16.5 -35.5t40 -22t75.5 -5v-168q-10 -2 -67 -2q-148 0 -204 58.5t-56 209.5v625z" />
    <glyph glyph-name="Nacute" unicode="&#x143;" horiz-adv-x="1284" 
d="M504 1604l229 331h213l-272 -331h-170zM133 0v1518h215l615 -1123v1123h190v-1518h-184l-647 1174v-1174h-189z" />
    <glyph glyph-name="nacute" unicode="&#x144;" 
d="M391 1255l230 332h213l-273 -332h-170zM115 0v1126l153 13l17 -113q38 64 117 97.5t225 33.5q85 0 145.5 -20.5t96 -54t55.5 -90t26 -114t6 -139.5v-739h-192v696q0 61 -3.5 100t-15 76.5t-33.5 57.5t-59.5 32.5t-91.5 12.5q-66 0 -111.5 -16t-73.5 -43.5t-43.5 -76.5
t-20.5 -104t-5 -137v-598h-192z" />
    <glyph glyph-name="Ncommaaccent" unicode="&#x145;" horiz-adv-x="1284" 
d="M584 -494l-45 76q61 35 77.5 58.5t16.5 72.5h-84v205h184v-190q0 -89 -27.5 -133t-121.5 -89zM133 0v1518h215l615 -1123v1123h190v-1518h-184l-647 1174v-1174h-189z" />
    <glyph glyph-name="ncommaaccent" unicode="&#x146;" 
d="M471 -494l-45 76q61 35 77.5 58.5t16.5 72.5h-84v205h185v-190q0 -89 -27.5 -133t-122.5 -89zM115 0v1126l153 13l17 -113q38 64 117 97.5t225 33.5q85 0 145.5 -20.5t96 -54t55.5 -90t26 -114t6 -139.5v-739h-192v696q0 61 -3.5 100t-15 76.5t-33.5 57.5t-59.5 32.5
t-91.5 12.5q-66 0 -111.5 -16t-73.5 -43.5t-43.5 -76.5t-20.5 -104t-5 -137v-598h-192z" />
    <glyph glyph-name="Ncaron" unicode="&#x147;" horiz-adv-x="1284" 
d="M551 1604l-229 331h161l160 -198l160 198h158l-228 -331h-182zM133 0v1518h215l615 -1123v1123h190v-1518h-184l-647 1174v-1174h-189z" />
    <glyph glyph-name="ncaron" unicode="&#x148;" 
d="M438 1255l-229 332h162l159 -198l160 198h158l-227 -332h-183zM115 0v1126l153 13l17 -113q38 64 117 97.5t225 33.5q85 0 145.5 -20.5t96 -54t55.5 -90t26 -114t6 -139.5v-739h-192v696q0 61 -3.5 100t-15 76.5t-33.5 57.5t-59.5 32.5t-91.5 12.5q-66 0 -111.5 -16
t-73.5 -43.5t-43.5 -76.5t-20.5 -104t-5 -137v-598h-192z" />
    <glyph glyph-name="napostrophe" unicode="&#x149;" horiz-adv-x="1384" 
d="M158 995l-58 101q69 38 90 67t21 86h-107v269h234v-238q0 -117 -35.5 -173.5t-144.5 -111.5zM432 0v1126l154 13l16 -113q38 64 117 97.5t225 33.5q85 0 146 -20.5t96 -54t55.5 -90t26.5 -114t6 -139.5v-739h-193v696q0 62 -3.5 100.5t-15 76t-33 57.5t-59 32.5
t-91.5 12.5q-66 0 -111.5 -16t-73.5 -43.5t-43.5 -77t-20.5 -104t-5 -136.5v-598h-193z" />
    <glyph glyph-name="Eng" unicode="&#x14a;" horiz-adv-x="1284" 
d="M602 -358v178h143q115 0 162 47t47 149v7l-632 1151v-1174h-189v1518h215l615 -1123v1123h190v-1510q0 -197 -93.5 -281.5t-285.5 -84.5h-172z" />
    <glyph glyph-name="eng" unicode="&#x14b;" 
d="M647 -324v158h17q63 0 81.5 27.5t18.5 103.5v731q0 61 -3.5 100t-15 76.5t-33.5 57.5t-59.5 32.5t-91.5 12.5q-66 0 -111.5 -16t-73.5 -43.5t-43.5 -76.5t-20.5 -104t-5 -137v-598h-192v1126l153 13l17 -152q25 54 63.5 89.5t108.5 58t170 22.5q85 0 145.5 -20.5t96 -54
t55.5 -90t26 -114t6 -139.5v-780q0 -80 -12 -131t-43.5 -86.5t-85 -50.5t-137.5 -15h-31z" />
    <glyph glyph-name="Omacron" unicode="&#x14c;" horiz-adv-x="1286" 
d="M326 1604v159h630v-159h-630zM645 -16q-107 0 -193 21.5t-145.5 58t-103.5 94t-69.5 119t-40.5 145t-20 160.5t-5 176t5 176t20 161t40.5 145.5t69.5 119.5t103.5 94.5t145.5 58t193 21.5q84 0 154 -13t124 -36t97.5 -59t74 -77t53 -95t36 -107.5t21.5 -121.5t11 -129.5
t3 -137.5q0 -99 -5 -176t-20 -160.5t-40.5 -145t-69 -119.5t-103 -94t-144.5 -57.5t-192 -21.5zM645 162q72 0 128 15.5t95 41.5t67 69t44.5 88.5t25.5 110.5t12 124.5t3 140.5t-3 140.5t-12.5 124.5t-26 111t-44.5 89t-67 69t-95 41.5t-127 15.5q-63 0 -114 -11t-89 -34
t-66.5 -52t-47.5 -71.5t-31 -85.5t-18.5 -101.5t-8.5 -112t-2 -123.5q0 -81 3 -140.5t12 -124.5t25.5 -110.5t44.5 -88.5t67.5 -69t96 -41.5t128.5 -15.5z" />
    <glyph glyph-name="omacron" unicode="&#x14d;" horiz-adv-x="1052" 
d="M205 1255v160h631v-160h-631zM526 -16q-112 0 -193.5 29.5t-131 78.5t-79 126.5t-40 160t-10.5 192.5q0 109 10 191t39 159.5t78.5 127t131.5 79t195 29.5t195.5 -30t132 -79.5t78.5 -127.5t39 -159.5t10 -189.5q0 -111 -10 -193.5t-39 -160t-78.5 -126.5t-132 -78
t-195.5 -29zM526 152q58 0 102 13.5t72 42t46 62t27 84.5t12 98t3 113t-3 113t-12 98t-27 84.5t-46 61.5t-72 41.5t-102 13.5q-69 0 -117.5 -21t-76.5 -55t-43.5 -90.5t-20 -111t-4.5 -134.5q0 -65 3 -112.5t12.5 -98t27.5 -84.5t46.5 -62.5t72 -42t100.5 -13.5z" />
    <glyph glyph-name="Obreve" unicode="&#x14e;" horiz-adv-x="1286" 
d="M645 -16q-107 0 -193 21.5t-145.5 58t-103.5 94t-69.5 119t-40.5 145t-20 160.5t-5 176t5 176t20 161t40.5 145.5t69.5 119.5t103.5 94.5t145.5 58t193 21.5q84 0 154 -13t124 -36t97.5 -59t74 -77t53 -95t36 -107.5t21.5 -121.5t11 -129.5t3 -137.5q0 -99 -5 -176
t-20 -160.5t-40.5 -145t-69 -119.5t-103 -94t-144.5 -57.5t-192 -21.5zM645 162q72 0 128 15.5t95 41.5t67 69t44.5 88.5t25.5 110.5t12 124.5t3 140.5t-3 140.5t-12.5 124.5t-26 111t-44.5 89t-67 69t-95 41.5t-127 15.5q-63 0 -114 -11t-89 -34t-66.5 -52t-47.5 -71.5
t-31 -85.5t-18.5 -101.5t-8.5 -112t-2 -123.5q0 -81 3 -140.5t12 -124.5t25.5 -110.5t44.5 -88.5t67.5 -69t96 -41.5t128.5 -15.5zM641 1593q-86 0 -146 19.5t-96 60t-55 90t-29 121.5l142 21q15 -84 54 -124t130 -40q89 0 128 40.5t52 123.5l144 -19q-9 -58 -22 -100
t-37 -80.5t-58.5 -62t-86 -37t-120.5 -13.5z" />
    <glyph glyph-name="obreve" unicode="&#x14f;" horiz-adv-x="1052" 
d="M526 -16q-112 0 -193.5 29.5t-131 78.5t-79 126.5t-40 160t-10.5 192.5q0 109 10 191t39 159.5t78.5 127t131.5 79t195 29.5t195.5 -30t132 -79.5t78.5 -127.5t39 -159.5t10 -189.5q0 -111 -10 -193.5t-39 -160t-78.5 -126.5t-132 -78t-195.5 -29zM526 152q58 0 102 13.5
t72 42t46 62t27 84.5t12 98t3 113t-3 113t-12 98t-27 84.5t-46 61.5t-72 41.5t-102 13.5q-69 0 -117.5 -21t-76.5 -55t-43.5 -90.5t-20 -111t-4.5 -134.5q0 -65 3 -112.5t12.5 -98t27.5 -84.5t46.5 -62.5t72 -42t100.5 -13.5zM522 1245q-86 0 -146 19.5t-96 60t-54.5 90
t-28.5 121.5l141 20q15 -84 54 -123.5t130 -39.5q89 0 128 40t52 123l144 -18q-11 -73 -29.5 -122.5t-54.5 -90.5t-95 -60.5t-145 -19.5z" />
    <glyph glyph-name="Ohungarumlaut" unicode="&#x150;" horiz-adv-x="1286" 
d="M346 1604l221 331h205l-272 -331h-154zM723 1604l223 331h201l-270 -331h-154zM645 -16q-107 0 -193 21.5t-145.5 58t-103.5 94t-69.5 119t-40.5 145t-20 160.5t-5 176t5 176t20 161t40.5 145.5t69.5 119.5t103.5 94.5t145.5 58t193 21.5q84 0 154 -13t124 -36t97.5 -59
t74 -77t53 -95t36 -107.5t21.5 -121.5t11 -129.5t3 -137.5q0 -99 -5 -176t-20 -160.5t-40.5 -145t-69 -119.5t-103 -94t-144.5 -57.5t-192 -21.5zM645 162q72 0 128 15.5t95 41.5t67 69t44.5 88.5t25.5 110.5t12 124.5t3 140.5t-3 140.5t-12.5 124.5t-26 111t-44.5 89
t-67 69t-95 41.5t-127 15.5q-63 0 -114 -11t-89 -34t-66.5 -52t-47.5 -71.5t-31 -85.5t-18.5 -101.5t-8.5 -112t-2 -123.5q0 -81 3 -140.5t12 -124.5t25.5 -110.5t44.5 -88.5t67.5 -69t96 -41.5t128.5 -15.5z" />
    <glyph glyph-name="ohungarumlaut" unicode="&#x151;" horiz-adv-x="1052" 
d="M225 1255l221 332h205l-272 -332h-154zM602 1255l223 332h201l-270 -332h-154zM526 -16q-112 0 -193.5 29.5t-131 78.5t-79 126.5t-40 160t-10.5 192.5q0 109 10 191t39 159.5t78.5 127t131.5 79t195 29.5t195.5 -30t132 -79.5t78.5 -127.5t39 -159.5t10 -189.5
q0 -111 -10 -193.5t-39 -160t-78.5 -126.5t-132 -78t-195.5 -29zM526 152q58 0 102 13.5t72 42t46 62t27 84.5t12 98t3 113t-3 113t-12 98t-27 84.5t-46 61.5t-72 41.5t-102 13.5q-69 0 -117.5 -21t-76.5 -55t-43.5 -90.5t-20 -111t-4.5 -134.5q0 -65 3 -112.5t12.5 -98
t27.5 -84.5t46.5 -62.5t72 -42t100.5 -13.5z" />
    <glyph glyph-name="OE" unicode="&#x152;" horiz-adv-x="1949" 
d="M1040 0v123q-133 -139 -395 -139q-107 0 -193 21.5t-145.5 58t-103.5 94t-69.5 119t-40.5 145t-20 160.5t-5 176t5 176t20 161t40.5 145.5t69.5 119.5t103.5 94.5t145.5 58t193 21.5q261 0 395 -141v125h815v-183h-641v-463h607v-178h-607v-516h644v-178h-818zM645 162
q72 0 128 15.5t95 41.5t67 69t44.5 88.5t25.5 110.5t12 124.5t3 140.5t-3 140.5t-12.5 124.5t-26 111t-44.5 89t-67 69t-95 41.5t-127 15.5q-63 0 -114 -11t-89 -34t-66.5 -52t-47.5 -71.5t-31 -85.5t-18.5 -101.5t-8.5 -112t-2 -123.5q0 -81 3 -140.5t12 -124.5
t25.5 -110.5t44.5 -88.5t67.5 -69t96 -41.5t128.5 -15.5z" />
    <glyph glyph-name="oe" unicode="&#x153;" horiz-adv-x="1701" 
d="M526 -16q-112 0 -193.5 29.5t-131 78.5t-79 126.5t-40 160t-10.5 192.5q0 109 10 191t39 159.5t78.5 127t131.5 79t195 29.5q257 0 361 -164q103 164 352 164q99 0 170.5 -24.5t112.5 -68.5t66 -105.5t32 -136.5t10 -161t0 -178h-653q3 -86 15.5 -143t41.5 -102
t80.5 -65.5t130.5 -20.5q69 0 128.5 11.5t86.5 21.5t76 32l74 -147q-157 -84 -373 -84q-252 0 -352 155q-103 -157 -359 -157zM526 152q58 0 102 13.5t72 42t46 62t27 84.5t12 98t3 113t-3 113t-12 98t-27 84.5t-46 61.5t-72 41.5t-102 13.5q-69 0 -117.5 -21t-76.5 -55
t-43.5 -90.5t-20 -111t-4.5 -134.5q0 -65 3 -112.5t12.5 -98t27.5 -84.5t46.5 -62.5t72 -42t100.5 -13.5zM1237 987q-75 0 -125 -22t-77.5 -67.5t-40 -103t-15.5 -141.5h477l-1.5 59.5t-2.5 53.5t-5 50t-9 42.5t-14 39t-20 30.5t-27.5 26t-36 17.5t-46.5 12t-57 3.5z" />
    <glyph glyph-name="Racute" unicode="&#x154;" horiz-adv-x="1185" 
d="M455 1604l229 331h213l-272 -331h-170zM870 0l-264 586h-276v-586h-197v1518h512q234 0 342.5 -111.5t108.5 -341.5q0 -388 -293 -461l274 -604h-207zM330 764h309q138 0 199 66.5t61 224.5q0 155 -61 219.5t-199 64.5h-309v-575z" />
    <glyph glyph-name="racute" unicode="&#x155;" horiz-adv-x="618" 
d="M176 1255l230 332h212l-272 -332h-170zM115 0v1126l151 13l19 -129q77 137 315 137v-180q-58 -1 -103 -14t-75.5 -32t-52.5 -50.5t-34 -62t-18.5 -75t-8 -80.5t-1.5 -88v-565h-192z" />
    <glyph glyph-name="Rcommaaccent" unicode="&#x156;" horiz-adv-x="1185" 
d="M537 -494l-45 76q61 35 77.5 58.5t16.5 72.5h-84v205h184v-190q0 -89 -27.5 -133t-121.5 -89zM870 0l-264 586h-276v-586h-197v1518h512q234 0 342.5 -111.5t108.5 -341.5q0 -388 -293 -461l274 -604h-207zM330 764h309q138 0 199 66.5t61 224.5q0 155 -61 219.5
t-199 64.5h-309v-575z" />
    <glyph glyph-name="rcommaaccent" unicode="&#x157;" horiz-adv-x="618" 
d="M158 -494l-45 76q61 35 77.5 58.5t16.5 72.5h-84v205h184v-190q0 -89 -27.5 -133t-121.5 -89zM115 0v1126l151 13l19 -129q77 137 315 137v-180q-58 -1 -103 -14t-75.5 -32t-52.5 -50.5t-34 -62t-18.5 -75t-8 -80.5t-1.5 -88v-565h-192z" />
    <glyph glyph-name="Rcaron" unicode="&#x158;" horiz-adv-x="1185" 
d="M502 1604l-230 331h162l160 -198l160 198h157l-227 -331h-182zM870 0l-264 586h-276v-586h-197v1518h512q234 0 342.5 -111.5t108.5 -341.5q0 -388 -293 -461l274 -604h-207zM330 764h309q138 0 199 66.5t61 224.5q0 155 -61 219.5t-199 64.5h-309v-575z" />
    <glyph glyph-name="rcaron" unicode="&#x159;" horiz-adv-x="618" 
d="M223 1255l-229 332h162l159 -198l160 198h158l-227 -332h-183zM115 0v1126l151 13l19 -129q77 137 315 137v-180q-58 -1 -103 -14t-75.5 -32t-52.5 -50.5t-34 -62t-18.5 -75t-8 -80.5t-1.5 -88v-565h-192z" />
    <glyph glyph-name="Sacute" unicode="&#x15a;" horiz-adv-x="1103" 
d="M412 1604l229 331h213l-272 -331h-170zM553 -16q-297 0 -494 122l99 154q173 -104 391 -104q145 0 217 59t72 170q0 43 -7 76t-26.5 61t-41 48t-65.5 44t-83.5 41.5t-110.5 46.5q-103 43 -168 80t-118.5 88t-77 116t-23.5 153q0 187 116.5 291t337.5 104q225 0 404 -82
l-84 -170q-139 66 -316 66q-134 0 -199 -53.5t-65 -149.5q0 -43 9.5 -74.5t26 -55.5t54 -48.5t78 -45t113.5 -53.5l108 -47.5t90.5 -44t77 -46t60 -49t47.5 -56.5t31.5 -65.5t20 -78.5t5.5 -94q0 -191 -122 -297t-357 -106z" />
    <glyph glyph-name="sacute" unicode="&#x15b;" horiz-adv-x="829" 
d="M281 1255l229 332h213l-272 -332h-170zM410 -14q-227 0 -377 75l76 152q131 -70 301 -70q190 0 190 152q0 39 -12 67t-44.5 53.5t-70 45.5t-108.5 51q-62 27 -104 49t-81.5 52t-62 62t-36 75.5t-13.5 97.5q0 156 93.5 232.5t268.5 76.5q180 0 309 -57l-75 -160
q-113 49 -240 49q-92 0 -132 -34.5t-40 -102.5q0 -64 46 -102.5t175 -94.5q84 -35 133.5 -63t93 -69t62 -95.5t18.5 -130.5q0 -156 -96 -233.5t-274 -77.5z" />
    <glyph glyph-name="Scircumflex" unicode="&#x15c;" horiz-adv-x="1103" 
d="M223 1604l230 331h182l227 -331h-160l-161 196l-162 -196h-156zM553 -16q-297 0 -494 122l99 154q173 -104 391 -104q145 0 217 59t72 170q0 43 -7 76t-26.5 61t-41 48t-65.5 44t-83.5 41.5t-110.5 46.5q-103 43 -168 80t-118.5 88t-77 116t-23.5 153q0 187 116.5 291
t337.5 104q225 0 404 -82l-84 -170q-139 66 -316 66q-134 0 -199 -53.5t-65 -149.5q0 -43 9.5 -74.5t26 -55.5t54 -48.5t78 -45t113.5 -53.5l108 -47.5t90.5 -44t77 -46t60 -49t47.5 -56.5t31.5 -65.5t20 -78.5t5.5 -94q0 -191 -122 -297t-357 -106z" />
    <glyph glyph-name="scircumflex" unicode="&#x15d;" horiz-adv-x="829" 
d="M94 1255l230 332h182l227 -332h-160l-161 197l-162 -197h-156zM410 -14q-227 0 -377 75l76 152q131 -70 301 -70q190 0 190 152q0 39 -12 67t-44.5 53.5t-70 45.5t-108.5 51q-62 27 -104 49t-81.5 52t-62 62t-36 75.5t-13.5 97.5q0 156 93.5 232.5t268.5 76.5
q180 0 309 -57l-75 -160q-113 49 -240 49q-92 0 -132 -34.5t-40 -102.5q0 -64 46 -102.5t175 -94.5q84 -35 133.5 -63t93 -69t62 -95.5t18.5 -130.5q0 -156 -96 -233.5t-274 -77.5z" />
    <glyph glyph-name="Scedilla" unicode="&#x15e;" horiz-adv-x="1103" 
d="M578 -451q-107 0 -205 43l43 99q78 -29 149 -29q68 0 93.5 22t25.5 70q0 54 -32.5 69.5t-119.5 10.5l-45 33l23 119q-273 8 -451 120l99 154q173 -104 391 -104q145 0 217 59t72 170q0 43 -7 76t-26.5 61t-41 48t-65.5 44t-83.5 41.5t-110.5 46.5q-103 43 -168 80
t-118.5 88t-77 116t-23.5 153q0 187 116.5 291t337.5 104q225 0 404 -82l-84 -170q-139 66 -316 66q-134 0 -199 -53.5t-65 -149.5q0 -43 9.5 -74.5t26 -55.5t54 -48.5t78 -45t113.5 -53.5l108 -47.5t90.5 -44t77 -46t60 -49t47.5 -56.5t31.5 -65.5t20 -78.5t5.5 -94
q0 -176 -103 -280t-304 -119l-13 -78q45 3 79.5 -2.5t64 -23t45.5 -53t16 -87.5q0 -100 -54.5 -147.5t-184.5 -47.5z" />
    <glyph glyph-name="scedilla" unicode="&#x15f;" horiz-adv-x="829" 
d="M446 -451q-106 0 -204 43l43 99q78 -29 149 -29q68 0 93.5 22t25.5 70q0 54 -32.5 69.5t-119.5 10.5l-45 33l23 119q-211 6 -346 75l76 152q131 -70 301 -70q190 0 190 152q0 39 -12 67t-44.5 53.5t-70 45.5t-108.5 51q-62 27 -104 49t-81.5 52t-62 62t-36 75.5
t-13.5 97.5q0 156 93.5 232.5t268.5 76.5q180 0 309 -57l-75 -160q-113 49 -240 49q-92 0 -132 -34.5t-40 -102.5q0 -64 46 -102.5t175 -94.5q84 -35 133.5 -63t93 -69t62 -95.5t18.5 -130.5q0 -136 -73.5 -212t-210.5 -93l-15 -82q45 3 79.5 -2.5t64 -23t45.5 -53t16 -87.5
q0 -100 -55 -147.5t-185 -47.5z" />
    <glyph glyph-name="Scaron" unicode="&#x160;" horiz-adv-x="1103" 
d="M459 1604l-230 331h162l160 -198l160 198h157l-227 -331h-182zM553 -16q-297 0 -494 122l99 154q173 -104 391 -104q145 0 217 59t72 170q0 43 -7 76t-26.5 61t-41 48t-65.5 44t-83.5 41.5t-110.5 46.5q-103 43 -168 80t-118.5 88t-77 116t-23.5 153q0 187 116.5 291
t337.5 104q225 0 404 -82l-84 -170q-139 66 -316 66q-134 0 -199 -53.5t-65 -149.5q0 -43 9.5 -74.5t26 -55.5t54 -48.5t78 -45t113.5 -53.5l108 -47.5t90.5 -44t77 -46t60 -49t47.5 -56.5t31.5 -65.5t20 -78.5t5.5 -94q0 -191 -122 -297t-357 -106z" />
    <glyph glyph-name="scaron" unicode="&#x161;" horiz-adv-x="829" 
d="M328 1255l-230 332h162l160 -198l160 198h157l-227 -332h-182zM410 -14q-227 0 -377 75l76 152q131 -70 301 -70q190 0 190 152q0 39 -12 67t-44.5 53.5t-70 45.5t-108.5 51q-62 27 -104 49t-81.5 52t-62 62t-36 75.5t-13.5 97.5q0 156 93.5 232.5t268.5 76.5
q180 0 309 -57l-75 -160q-113 49 -240 49q-92 0 -132 -34.5t-40 -102.5q0 -64 46 -102.5t175 -94.5q84 -35 133.5 -63t93 -69t62 -95.5t18.5 -130.5q0 -156 -96 -233.5t-274 -77.5z" />
    <glyph glyph-name="Tcommaaccent" unicode="&#x162;" horiz-adv-x="1122" 
d="M500 -494l-45 76q61 35 77.5 58.5t16.5 72.5h-84v205h184v-190q0 -89 -27.5 -133t-121.5 -89zM461 0v1335h-426v183h1052v-183h-428v-1335h-198z" />
    <glyph glyph-name="Tcommaaccent" unicode="&#x21a;" horiz-adv-x="1122" 
d="M500 -494l-45 76q61 35 77.5 58.5t16.5 72.5h-84v205h184v-190q0 -89 -27.5 -133t-121.5 -89zM461 0v1335h-426v183h1052v-183h-428v-1335h-198z" />
    <glyph glyph-name="tcommaaccent" unicode="&#x163;" horiz-adv-x="747" 
d="M270 -494l-45 76q61 35 77.5 58.5t16.5 72.5h-83v205h184v-190q0 -89 -27.5 -133t-122.5 -89zM37 969v168h180l31 301l155 35v-336h267v-168h-267v-647q0 -84 26 -119t114 -35h127v-168q-87 -6 -148 -6q-95 0 -156 17.5t-95 58t-47 95t-13 138.5v666h-174z" />
    <glyph glyph-name="tcommaaccent" unicode="&#x21b;" horiz-adv-x="747" 
d="M270 -494l-45 76q61 35 77.5 58.5t16.5 72.5h-83v205h184v-190q0 -89 -27.5 -133t-122.5 -89zM37 969v168h180l31 301l155 35v-336h267v-168h-267v-647q0 -84 26 -119t114 -35h127v-168q-87 -6 -148 -6q-95 0 -156 17.5t-95 58t-47 95t-13 138.5v666h-174z" />
    <glyph glyph-name="Tcaron" unicode="&#x164;" horiz-adv-x="1122" 
d="M469 1604l-229 331h161l160 -198l160 198h158l-228 -331h-182zM461 0v1335h-426v183h1052v-183h-428v-1335h-198z" />
    <glyph glyph-name="tcaron" unicode="&#x165;" horiz-adv-x="747" 
d="M573 1278l-45 78q61 34 78 57.5t17 73.5h-86v203h188v-189q0 -88 -28.5 -133t-123.5 -90zM37 969v168h180l31 301l155 35v-336h267v-168h-267v-647q0 -84 26 -119t114 -35h127v-168q-87 -6 -148 -6q-95 0 -156 17.5t-95 58t-47 95t-13 138.5v666h-174z" />
    <glyph glyph-name="Tbar" unicode="&#x166;" horiz-adv-x="1122" 
d="M236 637v166h225v532h-426v183h1052v-183h-428v-532h224v-166h-224v-637h-198v637h-225z" />
    <glyph glyph-name="tbar" unicode="&#x167;" horiz-adv-x="747" 
d="M37 969v168h180l31 301l155 35v-336h267v-168h-267v-277h277v-168h-277v-202q0 -84 26 -119t114 -35h127v-168q-87 -6 -148 -6q-95 0 -156 17.5t-95 58t-47 95t-13 138.5v221h-174v168h174v277h-174z" />
    <glyph glyph-name="Utilde" unicode="&#x168;" horiz-adv-x="1280" 
d="M641 -20q-147 0 -248 34t-160 103.5t-84.5 163.5t-25.5 225v1012h199v-998q0 -93 14 -156t49.5 -110.5t99 -69.5t158.5 -22t158.5 21.5t99.5 68.5t51 110.5t15 157.5v998h190v-1012q0 -132 -24.5 -225t-82 -163t-159 -104t-250.5 -34zM418 1595l-127 72q86 170 227 170
q44 0 89 -21t83.5 -42t65.5 -21q33 0 59 22.5t57 71.5l125 -71q-85 -177 -225 -177q-43 0 -89.5 20.5t-85.5 41t-65 20.5q-33 0 -59 -20.5t-55 -65.5z" />
    <glyph glyph-name="utilde" unicode="&#x169;" horiz-adv-x="1040" 
d="M520 -16q-101 0 -172.5 17.5t-118 50.5t-73 88.5t-37 121.5t-10.5 160v715h192v-705q0 -62 3.5 -100t16 -75.5t36.5 -57t65 -31.5t102 -12q59 0 99 12t64 31.5t36.5 56.5t16 75.5t3.5 100.5v705h189v-715q0 -119 -16 -195t-60 -134t-126 -83.5t-210 -25.5zM297 1247
l-127 72q86 170 227 170q44 0 89 -21t83.5 -42t65.5 -21q33 0 59 22.5t58 71.5l125 -72q-86 -176 -226 -176q-44 0 -89.5 20.5t-84.5 41t-65 20.5q-33 0 -59.5 -20.5t-55.5 -65.5z" />
    <glyph glyph-name="Umacron" unicode="&#x16a;" horiz-adv-x="1280" 
d="M641 -20q-147 0 -248 34t-160 103.5t-84.5 163.5t-25.5 225v1012h199v-998q0 -93 14 -156t49.5 -110.5t99 -69.5t158.5 -22t158.5 21.5t99.5 68.5t51 110.5t15 157.5v998h190v-1012q0 -132 -24.5 -225t-82 -163t-159 -104t-250.5 -34zM319 1604v159h631v-159h-631z" />
    <glyph glyph-name="umacron" unicode="&#x16b;" horiz-adv-x="1040" 
d="M520 -16q-101 0 -172.5 17.5t-118 50.5t-73 88.5t-37 121.5t-10.5 160v715h192v-705q0 -62 3.5 -100t16 -75.5t36.5 -57t65 -31.5t102 -12q59 0 99 12t64 31.5t36.5 56.5t16 75.5t3.5 100.5v705h189v-715q0 -119 -16 -195t-60 -134t-126 -83.5t-210 -25.5zM201 1255v160
h630v-160h-630z" />
    <glyph glyph-name="Ubreve" unicode="&#x16c;" horiz-adv-x="1280" 
d="M641 -20q-147 0 -248 34t-160 103.5t-84.5 163.5t-25.5 225v1012h199v-998q0 -93 14 -156t49.5 -110.5t99 -69.5t158.5 -22t158.5 21.5t99.5 68.5t51 110.5t15 157.5v998h190v-1012q0 -132 -24.5 -225t-82 -163t-159 -104t-250.5 -34zM643 1593q-86 0 -146 19.5t-96 60
t-55 90t-29 121.5l142 21q15 -84 54 -124t130 -40q89 0 128 40.5t52 123.5l144 -19q-11 -73 -29.5 -122.5t-54.5 -90.5t-95 -60.5t-145 -19.5z" />
    <glyph glyph-name="ubreve" unicode="&#x16d;" horiz-adv-x="1040" 
d="M520 -16q-101 0 -172.5 17.5t-118 50.5t-73 88.5t-37 121.5t-10.5 160v715h192v-705q0 -62 3.5 -100t16 -75.5t36.5 -57t65 -31.5t102 -12q59 0 99 12t64 31.5t36.5 56.5t16 75.5t3.5 100.5v705h189v-715q0 -119 -16 -195t-60 -134t-126 -83.5t-210 -25.5zM518 1245
q-86 0 -146 19.5t-96 60t-54.5 90t-28.5 121.5l141 20q15 -84 54 -123.5t130 -39.5q89 0 128 40t52 123l144 -18q-11 -73 -29.5 -122.5t-54.5 -90.5t-95 -60.5t-145 -19.5z" />
    <glyph glyph-name="Uring" unicode="&#x16e;" horiz-adv-x="1280" 
d="M637 1589q-113 0 -164 65t-51 175q0 111 51 176.5t164 65.5q110 0 162.5 -66t52.5 -176q0 -108 -52.5 -174t-162.5 -66zM637 1692q108 0 108 137q0 139 -108 139q-111 0 -111 -139q0 -137 111 -137zM641 -20q-147 0 -248 34t-160 103.5t-84.5 163.5t-25.5 225v1012h199
v-998q0 -93 14 -156t49.5 -110.5t99 -69.5t158.5 -22t158.5 21.5t99.5 68.5t51 110.5t15 157.5v998h190v-1012q0 -132 -24.5 -225t-82 -163t-159 -104t-250.5 -34z" />
    <glyph glyph-name="uring" unicode="&#x16f;" horiz-adv-x="1040" 
d="M518 1241q-113 0 -164 65t-51 175q0 241 215 241q110 0 162.5 -65.5t52.5 -175.5q0 -108 -52.5 -174t-162.5 -66zM518 1343q109 0 109 138q0 139 -109 139q-110 0 -110 -139q0 -138 110 -138zM520 -16q-101 0 -172.5 17.5t-118 50.5t-73 88.5t-37 121.5t-10.5 160v715
h192v-705q0 -62 3.5 -100t16 -75.5t36.5 -57t65 -31.5t102 -12q59 0 99 12t64 31.5t36.5 56.5t16 75.5t3.5 100.5v705h189v-715q0 -119 -16 -195t-60 -134t-126 -83.5t-210 -25.5z" />
    <glyph glyph-name="Uhungarumlaut" unicode="&#x170;" horiz-adv-x="1280" 
d="M641 -20q-147 0 -248 34t-160 103.5t-84.5 163.5t-25.5 225v1012h199v-998q0 -93 14 -156t49.5 -110.5t99 -69.5t158.5 -22t158.5 21.5t99.5 68.5t51 110.5t15 157.5v998h190v-1012q0 -132 -24.5 -225t-82 -163t-159 -104t-250.5 -34zM340 1604l221 331h205l-272 -331
h-154zM717 1604l223 331h201l-271 -331h-153z" />
    <glyph glyph-name="uhungarumlaut" unicode="&#x171;" horiz-adv-x="1040" 
d="M520 -16q-101 0 -172.5 17.5t-118 50.5t-73 88.5t-37 121.5t-10.5 160v715h192v-705q0 -62 3.5 -100t16 -75.5t36.5 -57t65 -31.5t102 -12q59 0 99 12t64 31.5t36.5 56.5t16 75.5t3.5 100.5v705h189v-715q0 -119 -16 -195t-60 -134t-126 -83.5t-210 -25.5zM221 1255
l221 332h205l-272 -332h-154zM598 1255l223 332h201l-270 -332h-154z" />
    <glyph glyph-name="Uogonek" unicode="&#x172;" horiz-adv-x="1280" 
d="M844 -440q-122 0 -176 42t-54 142q0 128 131 244q-43 -8 -104 -8q-147 0 -248 34t-160 103.5t-84.5 163.5t-25.5 225v1012h199v-998q0 -93 14 -156t49.5 -110.5t99 -69.5t158.5 -22t158.5 21.5t99.5 68.5t51 110.5t15 157.5v998h190v-1012q0 -183 -46 -292t-163 -179
q-90 -55 -144 -127t-54 -135q0 -50 24.5 -74.5t85.5 -24.5h66v-114h-82z" />
    <glyph glyph-name="uogonek" unicode="&#x173;" horiz-adv-x="1040" 
d="M690 -440q-121 0 -173 42t-52 142q0 135 129 244q-32 -4 -74 -4q-101 0 -172.5 17.5t-118 50.5t-73 88.5t-37 121.5t-10.5 160v715h192v-705q0 -62 3.5 -100t16 -75.5t36.5 -57t65 -31.5t102 -12q59 0 99 12t64 31.5t36.5 56.5t16 75.5t3.5 100.5v705h189v-715
q0 -159 -29.5 -246t-114.5 -143q-84 -56 -137 -126.5t-53 -133.5q0 -49 24.5 -74t84.5 -25h65v-114h-82z" />
    <glyph glyph-name="Wcircumflex" unicode="&#x174;" horiz-adv-x="1763" 
d="M561 1604l230 331h182l227 -331h-160l-161 196l-162 -196h-156zM416 -10l-361 1528h201l268 -1147l277 1147h174l278 -1147l269 1147h186l-358 -1528h-193l-274 1126l-275 -1126h-192z" />
    <glyph glyph-name="wcircumflex" unicode="&#x175;" horiz-adv-x="1462" 
d="M414 1255l229 332h182l228 -332h-160l-162 197l-162 -197h-155zM330 -8l-303 1145h192l211 -840l217 840h178l215 -834l213 834h183l-301 -1145h-185l-219 813l-215 -813h-186z" />
    <glyph glyph-name="Ycircumflex" unicode="&#x176;" horiz-adv-x="1167" 
d="M485 0v547l-473 971h213l361 -756l364 756h203l-471 -971v-547h-197zM266 1604l230 331h182l227 -331h-160l-161 196l-162 -196h-156z" />
    <glyph glyph-name="ycircumflex" unicode="&#x177;" horiz-adv-x="917" 
d="M133 -324v158h105q45 0 66.5 16.5t33.5 57.5l24 88l-346 1141h195l250 -865l250 865h188l-387 -1270q-34 -113 -96 -152t-183 -39h-100zM143 1255l230 332h182l227 -332h-159l-162 197l-162 -197h-156z" />
    <glyph glyph-name="Ydieresis" unicode="&#x178;" horiz-adv-x="1167" 
d="M485 0v547l-473 971h213l361 -756l364 756h203l-471 -971v-547h-197zM313 1604v215h172v-215h-172zM676 1604v215h174v-215h-174z" />
    <glyph glyph-name="Zacute" unicode="&#x179;" horiz-adv-x="1089" 
d="M406 1604l229 331h213l-273 -331h-169zM63 0v154l703 1181h-674v183h909v-164l-700 -1176h719v-178h-957z" />
    <glyph glyph-name="zacute" unicode="&#x17a;" horiz-adv-x="839" 
d="M285 1255l229 332h213l-272 -332h-170zM41 0v133l504 836h-473v168h708v-133l-504 -846h523v-158h-758z" />
    <glyph glyph-name="Zdotaccent" unicode="&#x17b;" horiz-adv-x="1089" 
d="M63 0v154l703 1181h-674v183h909v-164l-700 -1176h719v-178h-957zM446 1604v229h193v-229h-193z" />
    <glyph glyph-name="zdotaccent" unicode="&#x17c;" horiz-adv-x="839" 
d="M41 0v133l504 836h-473v168h708v-133l-504 -846h523v-158h-758zM326 1255v230h192v-230h-192z" />
    <glyph glyph-name="Zcaron" unicode="&#x17d;" horiz-adv-x="1089" 
d="M453 1604l-230 331h162l160 -198l160 198h157l-227 -331h-182zM63 0v154l703 1181h-674v183h909v-164l-700 -1176h719v-178h-957z" />
    <glyph glyph-name="zcaron" unicode="&#x17e;" horiz-adv-x="839" 
d="M332 1255l-230 332h162l160 -198l160 198h157l-227 -332h-182zM41 0v133l504 836h-473v168h708v-133l-504 -846h523v-158h-758z" />
    <glyph glyph-name="longs" unicode="&#x17f;" horiz-adv-x="688" 
d="M215 0v1280q0 152 77 233.5t247 81.5q110 0 131 -2v-168h-115q-87 0 -117 -40t-30 -123v-1262h-193z" />
    <glyph glyph-name="florin" unicode="&#x192;" horiz-adv-x="915" 
d="M133 758v170h197l41 276q8 53 17.5 90t25 75.5t38.5 63.5t56 45.5t79.5 30t106.5 9.5q18 0 56 -1t47 -1v-168h-86q-29 0 -51 -5t-37 -17t-25 -23.5t-16.5 -33.5t-10 -39t-8.5 -46l-39 -256h273v-170h-299l-166 -1082h-191l162 1082h-170z" />
    <glyph glyph-name="Ohorn" unicode="&#x1a0;" horiz-adv-x="1294" 
d="M1253 1765v-206q0 -77 -37.5 -140.5t-107.5 -91.5q64 -99 87.5 -239.5t23.5 -329.5q0 -99 -5 -176t-20 -160.5t-40.5 -145t-69 -119.5t-103 -94t-144.5 -57.5t-192 -21.5t-193 21.5t-145.5 58t-103.5 94t-69.5 119t-40.5 145t-20 160.5t-5 176t5 176t20 161t40.5 145.5
t69.5 119.5t103.5 94.5t145.5 58t193 21.5q252 0 385 -117q93 12 105 119h-82v229h200zM645 162q72 0 128 15.5t95 41.5t67 69t44.5 88.5t25.5 110.5t12 124.5t3 140.5t-3 140.5t-12.5 124.5t-26 111t-44.5 89t-67 69t-95 41.5t-127 15.5q-63 0 -114 -11t-89 -34t-66.5 -52
t-47.5 -71.5t-31 -85.5t-18.5 -101.5t-8.5 -112t-2 -123.5q0 -81 3 -140.5t12 -124.5t25.5 -110.5t44.5 -88.5t67.5 -69t96 -41.5t128.5 -15.5z" />
    <glyph glyph-name="ohorn" unicode="&#x1a1;" horiz-adv-x="1085" 
d="M1040 1427v-206q0 -77 -36.5 -140.5t-104.5 -91.5q82 -132 82 -418q0 -111 -10 -193.5t-39 -160t-78.5 -126.5t-132 -78t-195.5 -29q-112 0 -193.5 29.5t-131 78.5t-79 126.5t-40 160t-10.5 192.5q0 109 10 191t39 159.5t78.5 127t131.5 79t195 29.5q184 0 289 -80
q54 7 78.5 42.5t26.5 78.5h-80v229h200zM526 152q58 0 102 13.5t72 42t46 62t27 84.5t12 98t3 113t-3 113t-12 98t-27 84.5t-46 61.5t-72 41.5t-102 13.5q-69 0 -117.5 -21t-76.5 -55t-43.5 -90.5t-20 -111t-4.5 -134.5q0 -65 3 -112.5t12.5 -98t27.5 -84.5t46.5 -62.5
t72 -42t100.5 -13.5z" />
    <glyph glyph-name="Uhorn" unicode="&#x1af;" horiz-adv-x="1318" 
d="M1341 1870v-209q0 -87 -48.5 -156t-135.5 -88v-911q0 -132 -24.5 -225t-82 -163t-159 -104t-250.5 -34q-147 0 -248 34t-160 103.5t-84.5 163.5t-25.5 225v1012h199v-998q0 -93 14 -156t49.5 -110.5t99 -69.5t158.5 -22t158.5 21.5t99.5 68.5t51 110.5t15 157.5v998h127
q66 0 95.5 37t31.5 85h-82v230h202z" />
    <glyph glyph-name="uhorn" unicode="&#x1b0;" horiz-adv-x="1116" 
d="M1108 1489v-209q0 -86 -46 -154.5t-130 -89.5v-614q0 -119 -16 -195t-60 -134t-126 -83.5t-210 -25.5q-101 0 -172.5 17.5t-118 50.5t-73 88.5t-37 121.5t-10.5 160v715h192v-705q0 -62 3.5 -100t16 -75.5t36.5 -57t65 -31.5t102 -12q59 0 99 12t64 31.5t36.5 56.5
t16 75.5t3.5 100.5v705h125q61 1 90 38t31 82h-80v232h199z" />
    <glyph glyph-name="Aringacute" unicode="&#x1fa;" horiz-adv-x="1224" 
d="M473 1976l229 332h213l-272 -332h-170zM41 0l444 1456q-90 57 -90 209q0 111 51 176.5t164 65.5q110 0 162.5 -66t52.5 -176q0 -149 -88 -207l447 -1458h-201l-94 315h-561l-90 -315h-197zM381 496h457l-228 753zM610 1528q109 0 109 137q0 139 -109 139
q-110 0 -110 -139q0 -132 98 -137h12z" />
    <glyph glyph-name="aringacute" unicode="&#x1fb;" horiz-adv-x="1044" 
d="M406 -12q-183 0 -260.5 89.5t-77.5 264.5q0 98 24 170t68.5 119t117.5 75.5t162 40t211 11.5h47q-3 121 -43.5 173t-156.5 52q-155 0 -281 -61l-80 157q156 80 379 80q113 0 185.5 -23t113.5 -75t56.5 -123t15.5 -180v-479q0 -70 14.5 -90.5t73.5 -20.5v-168
q-17 -2 -53 -2q-93 0 -136 23t-59 85q-49 -65 -126.5 -91.5t-194.5 -26.5zM444 147q55 0 98.5 13.5t80 45t56 91t19.5 143.5v160h-45q-91 0 -151 -5t-112 -19.5t-80.5 -41.5t-44 -69.5t-15.5 -104.5q0 -118 48 -165.5t146 -47.5zM383 1792l229 332h213l-272 -332h-170z
M520 1241q-113 0 -164 65t-51 175q0 241 215 241q110 0 162.5 -65.5t52.5 -175.5q0 -108 -52.5 -174t-162.5 -66zM520 1343q109 0 109 138q0 139 -109 139q-110 0 -110 -139q0 -138 110 -138z" />
    <glyph glyph-name="AEacute" unicode="&#x1fc;" horiz-adv-x="1789" 
d="M737 1604l230 331h213l-273 -331h-170zM31 0l731 1518h932v-183h-639v-463h606v-178h-606v-516h645v-178h-840v324h-479l-156 -324h-194zM461 494h399v827z" />
    <glyph glyph-name="aeacute" unicode="&#x1fd;" horiz-adv-x="1605" 
d="M635 1255l229 332h213l-272 -332h-170zM1141 -14q-144 0 -232 46t-135 136q-47 -96 -139 -138t-246 -42q-169 0 -245 90.5t-76 263.5q0 123 35.5 204.5t111.5 128.5t180 66t256 19h47q-3 119 -44 171t-156 52q-155 0 -281 -61l-80 157q156 80 379 80q126 0 198.5 -31
t106.5 -96q106 125 322 125q99 0 170.5 -24t112.5 -67.5t66.5 -105t32.5 -136t10 -161t-1 -180.5h-653q6 -174 62.5 -252.5t207.5 -78.5q67 0 125.5 11t87 22t74.5 32l73 -147q-154 -84 -370 -84zM444 147q55 0 98.5 13.5t80 45t56 91t19.5 143.5v160h-45q-91 0 -151 -5
t-112 -19.5t-80.5 -41.5t-44 -69.5t-15.5 -104.5q0 -118 48 -165.5t146 -47.5zM1139 987q-75 0 -125 -22t-77.5 -67.5t-40 -103t-15.5 -141.5h479q0 38 -0.5 59.5t-2.5 53.5t-5 50t-8.5 43t-14 38.5t-20.5 30.5t-28 26t-36.5 17.5t-47 12t-58.5 3.5z" />
    <glyph glyph-name="Oslashacute" unicode="&#x1fe;" horiz-adv-x="1286" 
d="M197 -84l75 170q-64 49 -106 120t-62.5 163t-28 181.5t-7.5 207.5q0 99 5 176t20 161t40.5 145.5t69.5 119.5t103.5 94.5t145.5 58t193 21.5q130 0 223 -31l52 101h174l-80 -172q64 -49 106 -120.5t63 -164t28.5 -182t7.5 -207.5q0 -99 -5 -176t-20 -160.5t-40.5 -145
t-69 -119.5t-103 -94t-144.5 -57.5t-192 -21.5q-126 0 -221 28l-43 -96h-184zM645 152q72 0 129 16t96.5 42t68 70t45 90t25.5 112.5t12 127t3 142.5q0 176 -20 295t-78 192l-441 -1065q68 -22 160 -22zM262 752q0 -180 19 -297t77 -191l435 1065q-67 23 -148 23
q-73 0 -130.5 -16t-97.5 -42.5t-68.5 -70.5t-45 -90.5t-26 -112.5t-12.5 -126t-3 -142zM506 1604l229 331h213l-272 -331h-170z" />
    <glyph glyph-name="oslashacute" unicode="&#x1ff;" horiz-adv-x="1052" 
d="M127 -88l86 168q-79 72 -110 193.5t-31 297.5q0 109 10 191t39 159.5t78.5 127t131.5 79t195 29.5q101 0 187 -27l47 95h172l-86 -172q76 -74 105.5 -194t29.5 -288q0 -111 -10 -193.5t-39 -160t-78.5 -126.5t-132 -78t-195.5 -29q-106 0 -182 24l-47 -96h-170zM258 565
q0 -221 51 -311l332 711q-49 18 -115 18q-70 0 -119.5 -21.5t-78 -55.5t-44.5 -91t-21 -113t-5 -137zM526 147q59 0 103.5 14t73.5 42.5t47.5 63t28 85.5t13 99t3.5 114q0 216 -50 305l-331 -706q51 -17 112 -17zM385 1255l229 332h213l-272 -332h-170z" />
    <glyph glyph-name="Scommaaccent" unicode="&#x218;" horiz-adv-x="1103" 
d="M494 -494l-45 76q61 35 77.5 58.5t16.5 72.5h-84v205h184v-190q0 -89 -27.5 -133t-121.5 -89zM553 -16q-297 0 -494 122l99 154q173 -104 391 -104q145 0 217 59t72 170q0 43 -7 76t-26.5 61t-41 48t-65.5 44t-83.5 41.5t-110.5 46.5q-103 43 -168 80t-118.5 88t-77 116
t-23.5 153q0 187 116.5 291t337.5 104q225 0 404 -82l-84 -170q-139 66 -316 66q-134 0 -199 -53.5t-65 -149.5q0 -43 9.5 -74.5t26 -55.5t54 -48.5t78 -45t113.5 -53.5l108 -47.5t90.5 -44t77 -46t60 -49t47.5 -56.5t31.5 -65.5t20 -78.5t5.5 -94q0 -191 -122 -297
t-357 -106z" />
    <glyph glyph-name="scommaaccent" unicode="&#x219;" horiz-adv-x="829" 
d="M356 -494l-45 76q61 35 78 58.5t17 72.5h-84v205h184v-190q0 -89 -27.5 -133t-122.5 -89zM410 -14q-227 0 -377 75l76 152q131 -70 301 -70q190 0 190 152q0 39 -12 67t-44.5 53.5t-70 45.5t-108.5 51q-62 27 -104 49t-81.5 52t-62 62t-36 75.5t-13.5 97.5
q0 156 93.5 232.5t268.5 76.5q180 0 309 -57l-75 -160q-113 49 -240 49q-92 0 -132 -34.5t-40 -102.5q0 -64 46 -102.5t175 -94.5q84 -35 133.5 -63t93 -69t62 -95.5t18.5 -130.5q0 -156 -96 -233.5t-274 -77.5z" />
    <glyph glyph-name="circumflex" unicode="&#x2c6;" horiz-adv-x="964" 
d="M164 1255l229 332h182l228 -332h-160l-162 197l-162 -197h-155z" />
    <glyph glyph-name="caron" unicode="&#x2c7;" horiz-adv-x="964" 
d="M393 1255l-229 332h162l159 -198l160 198h158l-228 -332h-182z" />
    <glyph glyph-name="breve" unicode="&#x2d8;" horiz-adv-x="964" 
d="M483 1245q-86 0 -146 19.5t-96 60t-54.5 90t-28.5 121.5l141 20q15 -84 54 -123.5t130 -39.5q89 0 128 40t53 123l143 -18q-11 -73 -29.5 -122.5t-54.5 -90.5t-95 -60.5t-145 -19.5z" />
    <glyph glyph-name="dotaccent" unicode="&#x2d9;" horiz-adv-x="964" 
d="M387 1255v230h193v-230h-193z" />
    <glyph glyph-name="ring" unicode="&#x2da;" horiz-adv-x="964" 
d="M483 1241q-113 0 -164 65t-51 175q0 111 51 176t164 65q110 0 162.5 -65.5t52.5 -175.5q0 -108 -52.5 -174t-162.5 -66zM483 1343q109 0 109 138q0 139 -109 139q-110 0 -110 -139q0 -138 110 -138z" />
    <glyph glyph-name="ogonek" unicode="&#x2db;" horiz-adv-x="966" 
d="M512 -442q-125 0 -185.5 42.5t-60.5 143.5q0 51 19.5 99t51.5 84.5t61.5 61.5t60.5 44h149q-186 -145 -186 -260q0 -46 24.5 -67t85.5 -21h66v-127h-86z" />
    <glyph glyph-name="tilde" unicode="&#x2dc;" horiz-adv-x="964" 
d="M254 1247l-127 72q86 170 227 170q44 0 89 -21t83.5 -42t65.5 -21q33 0 59 22.5t58 71.5l125 -72q-86 -176 -226 -176q-44 0 -89.5 20.5t-84.5 41t-65 20.5q-33 0 -59.5 -20.5t-55.5 -65.5z" />
    <glyph glyph-name="hungarumlaut" unicode="&#x2dd;" horiz-adv-x="964" 
d="M186 1255l222 332h204l-272 -332h-154zM563 1255l223 332h201l-270 -332h-154z" />
    <glyph glyph-name="hookabovecomb" unicode="&#x309;" horiz-adv-x="964" 
d="M426 1235q-7 72 10 112.5t82 100.5q41 41 55.5 62t14.5 44q0 30 -23 51t-71 21q-70 0 -150 -41l-61 113q88 51 217 51q114 0 170.5 -49t56.5 -127q0 -54 -21.5 -93t-66.5 -81q-53 -53 -68.5 -81.5t-15.5 -82.5h-129z" />
    <glyph glyph-name="dotbelowcomb" unicode="&#x323;" horiz-adv-x="1042" 
d="M422 -371v230h192v-230h-192z" />
    <glyph glyph-name="commaaccent" unicode="&#x326;" horiz-adv-x="442" 
d="M164 -494l-45 76q61 35 77.5 58.5t16.5 72.5h-84v205h184v-190q0 -89 -27.5 -133t-121.5 -89z" />
    <glyph glyph-name="uni0340" unicode="&#x340;" horiz-adv-x="1042" 
d="M530 1255l-276 332h219l227 -332h-170z" />
    <glyph glyph-name="uni0341" unicode="&#x341;" horiz-adv-x="1042" 
d="M342 1255l229 332h213l-272 -332h-170z" />
    <glyph glyph-name="tonos" unicode="&#x384;" horiz-adv-x="1042" 
d="M395 1255l131 332h187l-160 -332h-158z" />
    <glyph glyph-name="dieresistonos" unicode="&#x385;" horiz-adv-x="1042" 
d="M201 1255v215h139v-215h-139zM705 1255v215h139v-215h-139zM403 1255l123 332h158l-149 -332h-132z" />
    <glyph glyph-name="Alphatonos" unicode="&#x386;" horiz-adv-x="1267" 
d="M82 0l467 1528h209l467 -1528h-201l-94 315h-561l-90 -315h-197zM422 496h457l-228 753zM74 1192l131 332h186l-160 -332h-157z" />
    <glyph glyph-name="Epsilontonos" unicode="&#x388;" horiz-adv-x="1462" 
d="M74 1188l131 332h186l-160 -332h-157zM479 0v1518h834v-183h-639v-461h606v-180h-606v-516h645v-178h-840z" />
    <glyph glyph-name="Etatonos" unicode="&#x389;" horiz-adv-x="1689" 
d="M74 1188l131 332h186l-160 -332h-157zM479 0v1518h199v-631h627v631h198v-1518h-198v692h-627v-692h-199z" />
    <glyph glyph-name="Iotatonos" unicode="&#x38a;" horiz-adv-x="878" 
d="M481 0v1518h199v-1518h-199zM74 1188l131 332h186l-160 -332h-157z" />
    <glyph glyph-name="Omicrontonos" unicode="&#x38c;" horiz-adv-x="1574" 
d="M74 1188l131 332h186l-160 -332h-157zM930 -16q-107 0 -193 21.5t-146 58t-103.5 94t-69.5 119t-41 145t-20 160.5t-5 176t5 176t20 160.5t41 145.5t69.5 120t103.5 94.5t146 58t193 21.5t192 -21.5t144.5 -58t103 -94.5t69 -119.5t40 -145.5t19.5 -161t5 -176t-5 -176
t-19.5 -160.5t-40 -145t-69 -119.5t-103 -94t-144.5 -57.5t-192 -21.5zM930 162q72 0 128 15.5t95 41.5t67 69t44.5 88.5t25.5 110.5t12 124.5t3 140.5t-3 140.5t-12.5 124.5t-26 111t-44.5 89t-67 69t-95 41.5t-127 15.5q-63 0 -114 -11t-89 -34t-66.5 -52t-47.5 -71.5
t-31 -85.5t-18.5 -101.5t-8.5 -112t-2 -123.5q0 -81 3 -140.5t12 -124.5t25.5 -110.5t44.5 -88.5t67.5 -69t96 -41.5t128.5 -15.5z" />
    <glyph glyph-name="Upsilontonos" unicode="&#x38e;" horiz-adv-x="1603" 
d="M918 0v547l-474 971h213l361 -756l364 756h203l-471 -971v-547h-196zM74 1188l131 332h186l-160 -332h-157z" />
    <glyph glyph-name="Omegatonos" unicode="&#x38f;" horiz-adv-x="1581" 
d="M348 0v174h330v82q-153 44 -239.5 203.5t-86.5 417.5q0 329 142.5 493t431.5 164q296 0 436.5 -164.5t140.5 -492.5q0 -257 -87 -417t-240 -204v-82h329v-174h-463v354q135 39 198 171.5t63 326.5q0 123 -17.5 210t-60 152t-116.5 97t-183 32q-106 0 -179.5 -32t-116 -97
t-61 -152.5t-18.5 -209.5q0 -193 64 -325.5t198 -172.5v-354h-465zM74 1188l131 332h186l-160 -332h-157z" />
    <glyph glyph-name="iotadieresistonos" unicode="&#x390;" horiz-adv-x="516" 
d="M-59 1255v215h139v-215h-139zM444 1255v215h140v-215h-140zM143 1255l123 332h158l-150 -332h-131zM152 0v1137h192v-1137h-192z" />
    <glyph glyph-name="Alpha" unicode="&#x391;" horiz-adv-x="1224" 
d="M41 0l467 1528h209l467 -1528h-201l-94 315h-561l-90 -315h-197zM381 496h457l-228 753z" />
    <glyph glyph-name="Beta" unicode="&#x392;" horiz-adv-x="1167" 
d="M133 0v1518h483q227 0 335 -91t108 -292q0 -271 -189 -338q110 -33 165 -122.5t55 -256.5q0 -225 -118.5 -321.5t-342.5 -96.5h-496zM330 170h297q63 0 109 12t82 41t54.5 81t18.5 128q0 145 -67.5 202.5t-196.5 57.5h-297v-522zM330 870h280q128 0 190 53.5t62 186.5
q0 131 -61.5 182t-190.5 51h-280v-473z" />
    <glyph glyph-name="Gamma" unicode="&#x393;" horiz-adv-x="1021" 
d="M332 1335v-1335h-199v1518h836v-183h-637z" />
    <glyph glyph-name="Delta" unicode="&#x394;" horiz-adv-x="1224" 
d="M41 0l467 1528h209l467 -1528h-1143zM281 170h655l-326 1079z" />
    <glyph glyph-name="Delta" unicode="&#x2206;" horiz-adv-x="1224" 
d="M41 0l467 1528h209l467 -1528h-1143zM281 170h655l-326 1079z" />
    <glyph glyph-name="Epsilon" unicode="&#x395;" 
d="M133 0v1518h834v-183h-639v-461h606v-180h-606v-516h645v-178h-840z" />
    <glyph glyph-name="Zeta" unicode="&#x396;" horiz-adv-x="1089" 
d="M63 0v154l703 1181h-674v183h909v-164l-700 -1176h719v-178h-957z" />
    <glyph glyph-name="Eta" unicode="&#x397;" horiz-adv-x="1290" 
d="M133 0v1518h199v-631h626v631h199v-1518h-199v692h-626v-692h-199z" />
    <glyph glyph-name="Theta" unicode="&#x398;" horiz-adv-x="1286" 
d="M399 668v182h492v-182h-492zM645 -16q-107 0 -193 21.5t-145.5 58t-103.5 94t-69.5 119t-40.5 145t-20 160.5t-5 176t5 176t20 161t40.5 145.5t69.5 119.5t103.5 94.5t145.5 58t193 21.5q84 0 154 -13t124 -36t97.5 -59t74 -77t53 -95t36 -107.5t21.5 -121.5t11 -129.5
t3 -137.5q0 -99 -5 -176t-20 -160.5t-40.5 -145t-69 -119.5t-103 -94t-144.5 -57.5t-192 -21.5zM645 162q72 0 128 15.5t95 41.5t67 69t44.5 88.5t25.5 110.5t12 124.5t3 140.5t-3 140.5t-12.5 124.5t-26 111t-44.5 89t-67 69t-95 41.5t-127 15.5q-63 0 -114 -11t-89 -34
t-66.5 -52t-47.5 -71.5t-31 -85.5t-18.5 -101.5t-8.5 -112t-2 -123.5q0 -81 3 -140.5t12 -124.5t25.5 -110.5t44.5 -88.5t67.5 -69t96 -41.5t128.5 -15.5z" />
    <glyph glyph-name="Iota" unicode="&#x399;" horiz-adv-x="491" 
d="M147 0v1518h199v-1518h-199z" />
    <glyph glyph-name="Kappa" unicode="&#x39a;" horiz-adv-x="1198" 
d="M133 0v1518h197v-721l573 721h230l-463 -574l477 -944h-219l-391 782l-207 -266v-516h-197z" />
    <glyph glyph-name="Lambda" unicode="&#x39b;" horiz-adv-x="1216" 
d="M713 1528l463 -1528h-201l-371 1235l-364 -1235h-199l463 1528h209z" />
    <glyph glyph-name="Mu" unicode="&#x39c;" horiz-adv-x="1519" 
d="M133 0v1518h250l377 -1180l377 1180h249v-1518h-194v1143l-369 -1143h-143l-371 1143v-1143h-176z" />
    <glyph glyph-name="Nu" unicode="&#x39d;" horiz-adv-x="1284" 
d="M133 0v1518h215l615 -1123v1123h190v-1518h-184l-647 1174v-1174h-189z" />
    <glyph glyph-name="Xi" unicode="&#x39e;" horiz-adv-x="1103" 
d="M104 1335v183h895v-183h-895zM207 702v183h692v-183h-692zM90 0v178h922v-178h-922z" />
    <glyph glyph-name="Omicron" unicode="&#x39f;" horiz-adv-x="1286" 
d="M645 -16q-107 0 -193 21.5t-145.5 58t-103.5 94t-69.5 119t-40.5 145t-20 160.5t-5 176t5 176t20 161t40.5 145.5t69.5 119.5t103.5 94.5t145.5 58t193 21.5q84 0 154 -13t124 -36t97.5 -59t74 -77t53 -95t36 -107.5t21.5 -121.5t11 -129.5t3 -137.5q0 -99 -5 -176
t-20 -160.5t-40.5 -145t-69 -119.5t-103 -94t-144.5 -57.5t-192 -21.5zM645 162q72 0 128 15.5t95 41.5t67 69t44.5 88.5t25.5 110.5t12 124.5t3 140.5t-3 140.5t-12.5 124.5t-26 111t-44.5 89t-67 69t-95 41.5t-127 15.5q-63 0 -114 -11t-89 -34t-66.5 -52t-47.5 -71.5
t-31 -85.5t-18.5 -101.5t-8.5 -112t-2 -123.5q0 -81 3 -140.5t12 -124.5t25.5 -110.5t44.5 -88.5t67.5 -69t96 -41.5t128.5 -15.5z" />
    <glyph glyph-name="Pi" unicode="&#x3a0;" horiz-adv-x="1202" 
d="M133 0v1518h936v-1518h-201v1335h-536v-1335h-199z" />
    <glyph glyph-name="Rho" unicode="&#x3a1;" horiz-adv-x="1167" 
d="M133 0v1518h516q234 0 342.5 -113.5t108.5 -347.5q0 -236 -110 -359t-345 -123h-315v-575h-197zM330 754h311q139 0 201.5 67t62.5 228q0 159 -62 224.5t-202 65.5h-311v-585z" />
    <glyph glyph-name="Sigma" unicode="&#x3a3;" horiz-adv-x="1103" 
d="M68 0v156l419 608l-401 582v172h907v-185h-661l389 -569l-402 -586h701v-178h-952z" />
    <glyph glyph-name="Tau" unicode="&#x3a4;" horiz-adv-x="1122" 
d="M461 0v1335h-426v183h1052v-183h-428v-1335h-198z" />
    <glyph glyph-name="Upsilon" unicode="&#x3a5;" horiz-adv-x="1167" 
d="M485 0v547l-473 971h213l361 -756l364 756h203l-471 -971v-547h-197z" />
    <glyph glyph-name="Phi" unicode="&#x3a6;" horiz-adv-x="1421" 
d="M612 0v117q-269 22 -419 180.5t-150 462.5q0 303 150 461t419 182v115h199v-113q271 -24 421 -182.5t150 -462.5q0 -307 -150 -465t-421 -178v-117h-199zM1196 760q0 416 -385 459v-920q385 43 385 461zM231 760q0 -414 381 -459v918q-381 -45 -381 -459z" />
    <glyph glyph-name="Chi" unicode="&#x3a7;" horiz-adv-x="1196" 
d="M926 0l-340 616l-322 -616h-213l436 795l-395 723h217l297 -545l285 545h211l-395 -725l436 -793h-217z" />
    <glyph glyph-name="Psi" unicode="&#x3a8;" horiz-adv-x="1218" 
d="M512 0v545q-88 6 -154 24.5t-110.5 50.5t-73.5 70.5t-44.5 93.5t-21.5 110.5t-6 129.5v494h195v-486v-16v-50.5t2 -45t5.5 -43t11 -37t18 -34.5t27 -27.5t37.5 -24.5t50 -17t64 -12v793h201v-793q40 5 71 13.5t53.5 23.5t38 28.5t25.5 38t15.5 41.5t8 50.5t3 53t0.5 59.5
v5v480h192v-490q0 -64 -4 -112.5t-15 -98.5t-30 -86.5t-49.5 -70t-73 -55.5t-101.5 -37t-134 -21v-547h-201z" />
    <glyph glyph-name="Omega" unicode="&#x3a9;" horiz-adv-x="1302" 
d="M72 0v174h329v82q-153 44 -239 204t-86 417q0 330 142 493.5t431 163.5q296 0 437 -164.5t141 -492.5q0 -257 -87 -417t-241 -204v-82h330v-174h-463v354q134 39 197 171.5t63 326.5q0 123 -17.5 210t-60 152t-116.5 97t-183 32q-106 0 -179.5 -32t-116 -97t-61 -152.5
t-18.5 -209.5q0 -193 64 -325.5t199 -172.5v-354h-465z" />
    <glyph glyph-name="Omega" unicode="&#x2126;" horiz-adv-x="1302" 
d="M72 0v174h329v82q-153 44 -239 204t-86 417q0 330 142 493.5t431 163.5q296 0 437 -164.5t141 -492.5q0 -257 -87 -417t-241 -204v-82h330v-174h-463v354q134 39 197 171.5t63 326.5q0 123 -17.5 210t-60 152t-116.5 97t-183 32q-106 0 -179.5 -32t-116 -97t-61 -152.5
t-18.5 -209.5q0 -193 64 -325.5t199 -172.5v-354h-465z" />
    <glyph glyph-name="Iotadieresis" unicode="&#x3aa;" horiz-adv-x="491" 
d="M147 0v1518h199v-1518h-199zM-18 1604v215h172v-215h-172zM344 1604v215h174v-215h-174z" />
    <glyph glyph-name="Upsilondieresis" unicode="&#x3ab;" horiz-adv-x="1167" 
d="M485 0v547l-473 971h213l361 -756l364 756h203l-471 -971v-547h-197zM313 1604v215h172v-215h-172zM676 1604v215h174v-215h-174z" />
    <glyph glyph-name="alphatonos" unicode="&#x3ac;" horiz-adv-x="1085" 
d="M422 1255l131 332h186l-159 -332h-158zM506 154q51 0 91 11t67.5 29t46.5 49t29.5 61.5t16.5 78t7.5 87.5t1.5 99q0 60 -1.5 98.5t-7 86t-16 77.5t-29.5 61t-46 48t-67.5 28t-92.5 11t-91.5 -13t-66 -40t-43.5 -60.5t-26 -83t-12 -98.5t-3 -115q0 -81 4.5 -137t19 -112.5
t40.5 -90t70.5 -54.5t107.5 -21zM797 166q-72 -180 -348 -180q-71 0 -127.5 16.5t-95.5 44.5t-67.5 72t-45 91t-26 110.5t-12.5 121t-3 131.5t3.5 132t13.5 120.5t27.5 109.5t46.5 90.5t69 71t97 44t128 16.5q104 0 171 -20.5t99.5 -52t56.5 -83.5l31 150l141 -12l5 -860
q0 -70 14.5 -90.5t75.5 -20.5v-168q-19 -2 -56 -2q-106 0 -147 33.5t-51 134.5z" />
    <glyph glyph-name="epsilontonos" unicode="&#x3ad;" horiz-adv-x="806" 
d="M332 1255l131 332h186l-160 -332h-157zM422 -25q-89 0 -152.5 16.5t-110 56t-69 108t-22.5 168.5q0 124 38.5 193.5t120.5 94.5q-69 27 -102 87.5t-33 170.5q0 155 83 225t251 70q206 0 328 -94l-80 -147q-91 71 -225 71q-86 0 -125 -35t-39 -112q0 -88 36 -125t146 -37
h127v-158h-123q-69 0 -112.5 -12t-65.5 -38t-29.5 -57t-7.5 -79q0 -108 43 -154.5t147 -46.5q78 0 132.5 20t113.5 66l76 -143q-77 -59 -157.5 -84t-188.5 -25z" />
    <glyph glyph-name="etatonos" unicode="&#x3ae;" 
d="M451 1255l131 332h186l-160 -332h-157zM115 0v1126l153 13l17 -123q38 69 117 105t225 36q85 0 145.5 -20.5t96 -54t55.5 -90t26 -114t6 -139.5v-1071h-192v1028q0 61 -3.5 100t-15 76.5t-33.5 57.5t-59.5 32.5t-91.5 12.5q-66 0 -111.5 -16t-73.5 -43.5t-43.5 -76.5
t-20.5 -104t-5 -137v-598h-192z" />
    <glyph glyph-name="iotatonos" unicode="&#x3af;" horiz-adv-x="436" 
d="M135 1255l131 332h187l-160 -332h-158zM121 0v1137h192v-1137h-192z" />
    <glyph glyph-name="upsilondieresistonos" unicode="&#x3b0;" horiz-adv-x="1040" 
d="M201 1255v215h139v-215h-139zM705 1255v215h139v-215h-139zM403 1255l123 332h158l-149 -332h-132zM520 -16q-101 0 -172.5 17.5t-118 50.5t-73 88.5t-37 121.5t-10.5 160v715h192v-705q0 -62 3.5 -100t16 -75.5t36.5 -57t65 -31.5t102 -12q59 0 99 12t64 31.5t36.5 56.5
t16 75.5t3.5 100.5v705h189v-715q0 -119 -16 -195t-60 -134t-126 -83.5t-210 -25.5z" />
    <glyph glyph-name="alpha" unicode="&#x3b1;" horiz-adv-x="1085" 
d="M506 154q51 0 91 11t67.5 29t46.5 49t29.5 61.5t16.5 78t7.5 87.5t1.5 99q0 60 -1.5 98.5t-7 86t-16 77.5t-29.5 61t-46 48t-67.5 28t-92.5 11t-91.5 -13t-66 -40t-43.5 -60.5t-26 -83t-12 -98.5t-3 -115q0 -81 4.5 -137t19 -112.5t40.5 -90t70.5 -54.5t107.5 -21z
M797 166q-72 -180 -348 -180q-71 0 -127.5 16.5t-95.5 44.5t-67.5 72t-45 91t-26 110.5t-12.5 121t-3 131.5t3.5 132t13.5 120.5t27.5 109.5t46.5 90.5t69 71t97 44t128 16.5q104 0 171 -20.5t99.5 -52t56.5 -83.5l31 150l141 -12l5 -860q0 -70 14.5 -90.5t75.5 -20.5v-168
q-19 -2 -56 -2q-106 0 -147 33.5t-51 134.5z" />
    <glyph glyph-name="beta" unicode="&#x3b2;" horiz-adv-x="1093" 
d="M115 -324v1508q0 197 99 300t323 103q218 0 313.5 -93t95.5 -302q0 -160 -35.5 -245t-119.5 -120q131 -28 183 -121.5t52 -277.5q0 -160 -44.5 -251.5t-149 -134t-289.5 -42.5h-101v174h101q168 0 230.5 63t62.5 216q0 148 -62 210t-227 62h-43v154h43q114 0 164.5 62.5
t50.5 203.5q0 140 -52.5 199t-172.5 59q-122 0 -178 -57.5t-56 -178.5v-1491h-188z" />
    <glyph glyph-name="gamma" unicode="&#x3b3;" horiz-adv-x="946" 
d="M365 -330v334l-349 1133h201l260 -889l260 889h193l-352 -1145v-322h-213z" />
    <glyph glyph-name="delta" unicode="&#x3b4;" horiz-adv-x="1052" 
d="M862 973h-2q121 -132 121 -438q0 -69 -5 -125t-18 -114.5t-34.5 -103.5t-56.5 -85t-81.5 -66.5t-112.5 -41.5t-147 -15q-111 0 -193 29.5t-131.5 77.5t-79 121.5t-40 149.5t-10.5 173q0 98 10 173.5t39.5 150t78.5 123t131.5 78.5t194.5 30h15l-334 350v135h657v-164
h-415zM526 152q58 0 102 14t72 41.5t46 60t27 79.5t12 88t3 97q0 55 -3 96.5t-12 88t-27 79t-46 60t-72 41.5t-102 14q-68 0 -117 -21.5t-76.5 -54.5t-43.5 -86t-20.5 -101.5t-4.5 -115.5t4.5 -116t20.5 -101.5t43.5 -86t76.5 -55t117 -21.5z" />
    <glyph glyph-name="epsilon" unicode="&#x3b5;" horiz-adv-x="806" 
d="M422 -25q-89 0 -152.5 16.5t-110 56t-69 108t-22.5 168.5q0 124 38.5 193.5t120.5 94.5q-69 27 -102 87.5t-33 170.5q0 155 83 225t251 70q206 0 328 -94l-80 -147q-91 71 -225 71q-86 0 -125 -35t-39 -112q0 -88 36 -125t146 -37h127v-158h-123q-69 0 -112.5 -12
t-65.5 -38t-29.5 -57t-7.5 -79q0 -108 43 -154.5t147 -46.5q78 0 132.5 20t113.5 66l76 -143q-77 -59 -157.5 -84t-188.5 -25z" />
    <glyph glyph-name="zeta" unicode="&#x3b6;" horiz-adv-x="839" 
d="M512 -301q-111 0 -207 45l45 96q79 -28 150 -28q67 0 92.5 21t25.5 69q0 44 -29 59t-118 29q-401 44 -401 495q0 149 37.5 275.5t143 286t294.5 358.5h-473v170h708v-143q-203 -220 -315.5 -381.5t-155.5 -283.5t-43 -255q0 -158 54.5 -242.5t179.5 -111.5
q47 -10 77.5 -19t61.5 -21.5t49.5 -28.5t33.5 -39t21.5 -53.5t6.5 -70.5q0 -227 -238 -227z" />
    <glyph glyph-name="eta" unicode="&#x3b7;" 
d="M115 0v1126l153 13l17 -123q38 69 117 105t225 36q85 0 145.5 -20.5t96 -54t55.5 -90t26 -114t6 -139.5v-1071h-192v1028q0 61 -3.5 100t-15 76.5t-33.5 57.5t-59.5 32.5t-91.5 12.5q-66 0 -111.5 -16t-73.5 -43.5t-43.5 -76.5t-20.5 -104t-5 -137v-598h-192z" />
    <glyph glyph-name="theta" unicode="&#x3b8;" horiz-adv-x="1208" 
d="M606 -16q-88 0 -157 16.5t-120.5 47t-88.5 81.5t-60.5 112t-37.5 147.5t-19.5 179t-5.5 214.5q0 143 7.5 246.5t26.5 199t53.5 157.5t88.5 109t131.5 68t181.5 21q87 0 155.5 -17t119.5 -48t87.5 -82.5t60 -113t37 -148t19 -179t5.5 -213.5q0 -123 -5.5 -216t-19 -179.5
t-37 -147.5t-60 -111.5t-87.5 -81t-119 -46.5t-156 -16zM342 707l-27 22q1 -128 9.5 -217t28 -159t52.5 -110t82 -60.5t119 -20.5q67 0 115 19.5t81 59t53 107.5t29 155.5t11 211.5zM606 1399q-166 0 -227 -122t-64 -429l568 8l12 -10q-2 124 -11.5 212t-29.5 155.5
t-53.5 107t-81 59t-113.5 19.5z" />
    <glyph glyph-name="iota" unicode="&#x3b9;" horiz-adv-x="436" 
d="M121 0v1137h192v-1137h-192z" />
    <glyph glyph-name="kappa" unicode="&#x3ba;" horiz-adv-x="954" 
d="M115 0v1137h188v-576l397 576h203l-342 -482l369 -655h-203l-293 502l-131 -191v-311h-188z" />
    <glyph glyph-name="lambda" unicode="&#x3bb;" horiz-adv-x="917" 
d="M133 1417v158h100q121 0 182.5 -39t96.5 -152l387 -1384h-188l-238 915l-260 -915h-197l361 1188l-41 155q-11 41 -32.5 57.5t-67.5 16.5h-103z" />
    <glyph glyph-name="uni03BC" unicode="&#x3bc;" 
d="M442 -14q-82 0 -147 20v-330h-180v1461h192v-707q0 -61 3.5 -99.5t15 -75.5t33.5 -57t59 -32t92 -12q65 0 110 15.5t72 42.5t41.5 76t19.5 102.5t5 135.5v611h192v-1129l-153 -12l-15 117q-40 -63 -116.5 -95t-223.5 -32z" />
    <glyph glyph-name="nu" unicode="&#x3bd;" horiz-adv-x="946" 
d="M369 -8l-353 1145h201l260 -889l260 889h193l-352 -1145h-209z" />
    <glyph glyph-name="xi" unicode="&#x3be;" horiz-adv-x="858" 
d="M514 -301q-112 0 -205 45l43 96q79 -28 150 -28q67 0 93 21t26 69q0 44 -29 59t-119 29q-218 27 -309.5 139t-91.5 317q0 343 276 404q-94 25 -140 96t-46 195q0 95 33 165t92 99h-213v170h723v-170h-211q-119 0 -178.5 -57.5t-59.5 -182.5q0 -60 11.5 -101.5t41 -75.5
t84 -52.5t136.5 -22.5v-143q-22 0 -56 -4q-89 -4 -149 -24.5t-93 -59t-46 -86t-13 -115.5q0 -147 56.5 -221t181.5 -102q47 -10 77.5 -19t61.5 -21.5t49.5 -28.5t33.5 -39t21.5 -53.5t6.5 -70.5q0 -109 -55.5 -168t-182.5 -59z" />
    <glyph glyph-name="omicron" unicode="&#x3bf;" horiz-adv-x="1052" 
d="M526 -16q-112 0 -193.5 29.5t-131 78.5t-79 126.5t-40 160t-10.5 192.5q0 109 10 191t39 159.5t78.5 127t131.5 79t195 29.5t195.5 -30t132 -79.5t78.5 -127.5t39 -159.5t10 -189.5q0 -111 -10 -193.5t-39 -160t-78.5 -126.5t-132 -78t-195.5 -29zM526 152q58 0 102 13.5
t72 42t46 62t27 84.5t12 98t3 113t-3 113t-12 98t-27 84.5t-46 61.5t-72 41.5t-102 13.5q-69 0 -117.5 -21t-76.5 -55t-43.5 -90.5t-20 -111t-4.5 -134.5q0 -65 3 -112.5t12.5 -98t27.5 -84.5t46.5 -62.5t72 -42t100.5 -13.5z" />
    <glyph glyph-name="pi" unicode="&#x3c0;" horiz-adv-x="1046" 
d="M111 0v1137h825v-1137h-191v973h-442v-973h-192z" />
    <glyph glyph-name="rho" unicode="&#x3c1;" horiz-adv-x="1081" 
d="M115 -324v895q0 109 10.5 191t40 159.5t79.5 127t133 79t197 29.5q80 0 144.5 -16.5t109.5 -45t78 -72t52.5 -91t31 -110.5t15.5 -120.5t4 -130.5q0 -86 -5 -152.5t-19 -137.5t-41 -121t-68 -91t-104.5 -62t-145.5 -21q-134 0 -207 33t-113 96v-439h-192zM575 154
q62 0 106 20t70.5 53t41 87.5t19.5 111.5t5 137t-4.5 136.5t-19.5 112.5t-41 90t-70.5 54.5t-106.5 20.5q-52 0 -92 -11t-68 -29t-48 -48t-31.5 -61.5t-18 -78t-8.5 -87.5t-2 -99t2 -98.5t8 -86.5t17.5 -77t31.5 -61t48 -47.5t68.5 -28t92.5 -10.5z" />
    <glyph glyph-name="sigma1" unicode="&#x3c2;" horiz-adv-x="860" 
d="M543 -301q-110 0 -205 45l43 96q79 -28 151 -28q67 0 92 21t25 69q0 42 -30.5 61t-108.5 23q-107 6 -184 35t-126 75.5t-77.5 119.5t-39.5 157t-11 198q0 115 10.5 199.5t40 161t79 123.5t130 74.5t190.5 27.5q165 0 279 -57l-82 -166q-85 43 -189 43q-79 0 -131 -25.5
t-81 -79.5t-40.5 -126.5t-11.5 -178.5q0 -108 11 -176.5t42 -122t86.5 -80.5t143.5 -36q121 -13 177 -64t56 -162q0 -109 -56 -168t-183 -59z" />
    <glyph glyph-name="sigma" unicode="&#x3c3;" horiz-adv-x="1077" 
d="M526 -16q-112 0 -193.5 29.5t-131 78.5t-79 126.5t-40 160t-10.5 192.5q0 109 10 191t39 159.5t78.5 127t131.5 79t195 29.5q123 0 215 -37h303v-162h-129q66 -129 66 -387q0 -111 -10 -193.5t-39 -160t-78.5 -126.5t-132 -78t-195.5 -29zM526 152q58 0 102 13.5t72 42
t46 62t27 84.5t12 98t3 113t-3 113t-12 98t-27 84.5t-46 61.5t-72 41.5t-102 13.5q-69 0 -117.5 -21t-76.5 -55t-43.5 -90.5t-20 -111t-4.5 -134.5q0 -65 3 -112.5t12.5 -98t27.5 -84.5t46.5 -62.5t72 -42t100.5 -13.5z" />
    <glyph glyph-name="tau" unicode="&#x3c4;" horiz-adv-x="894" 
d="M16 965v172h865v-172h-336v-965h-195v965h-334z" />
    <glyph glyph-name="upsilon" unicode="&#x3c5;" horiz-adv-x="1040" 
d="M520 -16q-101 0 -172.5 17.5t-118 50.5t-73 88.5t-37 121.5t-10.5 160v715h192v-705q0 -62 3.5 -100t16 -75.5t36.5 -57t65 -31.5t102 -12q59 0 99 12t64 31.5t36.5 56.5t16 75.5t3.5 100.5v705h189v-715q0 -119 -16 -195t-60 -134t-126 -83.5t-210 -25.5z" />
    <glyph glyph-name="phi" unicode="&#x3c6;" horiz-adv-x="1181" 
d="M494 -332v316q-105 4 -182 36.5t-122.5 83t-72.5 128t-36 156.5t-9 183q0 189 34.5 304.5t116.5 181.5l103 -166q-33 -49 -47.5 -124.5t-14.5 -199.5q0 -77 4 -131t18 -109t38.5 -89.5t67 -57.5t102.5 -28v1005h192q102 -4 176.5 -32.5t122 -76.5t76.5 -122.5t40 -158.5
t11 -196q0 -86 -6.5 -153t-22.5 -136t-46.5 -119t-76.5 -91t-115 -63t-159 -25v-316h-192zM920 567q0 78 -5 134t-19.5 109t-40 86t-68 54t-101.5 25v-823q60 4 102.5 26t68 56t39.5 88t19 110t5 135z" />
    <glyph glyph-name="chi" unicode="&#x3c7;" horiz-adv-x="933" 
d="M702 0l-247 432l-236 -432h-194l335 598l-307 539h207l217 -383l209 383h195l-308 -549l336 -588h-207z" />
    <glyph glyph-name="psi" unicode="&#x3c8;" horiz-adv-x="1294" 
d="M551 -332v312q-113 2 -193.5 24.5t-129.5 59.5t-77 98.5t-37.5 128.5t-9.5 162v684h193v-674q0 -46 1 -74.5t6.5 -64.5t15.5 -57.5t28.5 -45.5t45.5 -37t66.5 -22t90.5 -10v985h192v-985q51 1 90.5 9.5t66.5 22t45.5 37t29 46.5t16 59.5t7 67t1.5 77.5v666h191v-678
q0 -97 -9.5 -165t-37.5 -130.5t-77 -100t-129.5 -60t-193.5 -23.5v-312h-192z" />
    <glyph glyph-name="omega" unicode="&#x3c9;" horiz-adv-x="1454" 
d="M823 1042v-542q0 -137 22.5 -215.5t59 -105.5t94.5 -27q94 0 135.5 76t41.5 245q0 136 -31 267.5t-115 314.5l166 98q94 -190 133 -352.5t39 -335.5q0 -488 -350 -488q-130 0 -197.5 69t-95.5 220q-27 -152 -93 -220.5t-196 -68.5q-350 0 -350 488q0 173 39 335.5
t133 352.5l164 -98q-83 -181 -113 -312.5t-30 -269.5q0 -170 39.5 -245.5t136.5 -75.5q57 0 93.5 27t59.5 106t23 215v542h192z" />
    <glyph glyph-name="iotadieresis" unicode="&#x3ca;" horiz-adv-x="436" 
d="M-18 1255v215h157v-215h-157zM297 1255v215h156v-215h-156zM121 0v1137h192v-1137h-192z" />
    <glyph glyph-name="upsilondieresis" unicode="&#x3cb;" horiz-adv-x="1040" 
d="M250 1255v215h172v-215h-172zM612 1255v215h174v-215h-174zM520 -16q-101 0 -172.5 17.5t-118 50.5t-73 88.5t-37 121.5t-10.5 160v715h192v-705q0 -62 3.5 -100t16 -75.5t36.5 -57t65 -31.5t102 -12q59 0 99 12t64 31.5t36.5 56.5t16 75.5t3.5 100.5v705h189v-715
q0 -119 -16 -195t-60 -134t-126 -83.5t-210 -25.5z" />
    <glyph glyph-name="omicrontonos" unicode="&#x3cc;" horiz-adv-x="1052" 
d="M432 1255l131 332h187l-160 -332h-158zM526 -16q-112 0 -193.5 29.5t-131 78.5t-79 126.5t-40 160t-10.5 192.5q0 109 10 191t39 159.5t78.5 127t131.5 79t195 29.5t195.5 -30t132 -79.5t78.5 -127.5t39 -159.5t10 -189.5q0 -111 -10 -193.5t-39 -160t-78.5 -126.5
t-132 -78t-195.5 -29zM526 152q58 0 102 13.5t72 42t46 62t27 84.5t12 98t3 113t-3 113t-12 98t-27 84.5t-46 61.5t-72 41.5t-102 13.5q-69 0 -117.5 -21t-76.5 -55t-43.5 -90.5t-20 -111t-4.5 -134.5q0 -65 3 -112.5t12.5 -98t27.5 -84.5t46.5 -62.5t72 -42t100.5 -13.5z
" />
    <glyph glyph-name="upsilontonos" unicode="&#x3cd;" horiz-adv-x="1040" 
d="M440 1255l131 332h187l-160 -332h-158zM520 -16q-101 0 -172.5 17.5t-118 50.5t-73 88.5t-37 121.5t-10.5 160v715h192v-705q0 -62 3.5 -100t16 -75.5t36.5 -57t65 -31.5t102 -12q59 0 99 12t64 31.5t36.5 56.5t16 75.5t3.5 100.5v705h189v-715q0 -119 -16 -195t-60 -134
t-126 -83.5t-210 -25.5z" />
    <glyph glyph-name="omegatonos" unicode="&#x3ce;" horiz-adv-x="1454" 
d="M645 1255l131 332h187l-160 -332h-158zM823 1042v-542q0 -137 22.5 -215.5t59 -105.5t94.5 -27q94 0 135.5 76t41.5 245q0 136 -31 267.5t-115 314.5l166 98q94 -190 133 -352.5t39 -335.5q0 -488 -350 -488q-130 0 -197.5 69t-95.5 220q-27 -152 -93 -220.5t-196 -68.5
q-350 0 -350 488q0 173 39 335.5t133 352.5l164 -98q-83 -181 -113 -312.5t-30 -269.5q0 -170 39.5 -245.5t136.5 -75.5q57 0 93.5 27t59.5 106t23 215v542h192z" />
    <glyph glyph-name="afii10023" unicode="&#x401;" 
d="M276 1606v215h173v-215h-173zM639 1606v215h174v-215h-174zM133 0v1518h834v-183h-639v-461h606v-180h-606v-516h645v-178h-840z" />
    <glyph glyph-name="afii10051" unicode="&#x402;" horiz-adv-x="1421" 
d="M977 -332v156h12q65 1 86 31.5t21 115.5v623q0 45 -1 75t-5.5 64.5t-13 56.5t-23 44t-35 34t-50.5 19.5t-69 7.5q-59 0 -101 -15.5t-67 -40.5t-39.5 -67.5t-19.5 -86t-6 -105.5v-580h-201v1335h-426v183h1053v-183h-426v-395q85 139 303 139q82 0 141.5 -22t95 -58.5
t56 -95.5t27.5 -121t7 -147v-655q0 -175 -61.5 -243.5t-228.5 -68.5h-29z" />
    <glyph glyph-name="afii10052" unicode="&#x403;" horiz-adv-x="989" 
d="M365 1606l229 331h213l-272 -331h-170zM332 1335v-1335h-199v1518h836v-183h-637z" />
    <glyph glyph-name="afii10053" unicode="&#x404;" horiz-adv-x="1140" 
d="M907 680h-643q24 -522 404 -522q174 0 301 127l106 -154q-81 -72 -178.5 -111.5t-239.5 -39.5q-296 0 -442.5 198.5t-146.5 579.5q0 782 602 782q110 0 216 -37.5t185 -109.5l-113 -164q-55 57 -133 88t-159 31q-365 0 -400 -488h641v-180z" />
    <glyph glyph-name="afii10054" unicode="&#x405;" horiz-adv-x="1103" 
d="M553 -16q-297 0 -494 122l99 154q173 -104 391 -104q145 0 217 59t72 170q0 43 -7 76t-26.5 61t-41 48t-65.5 44t-83.5 41.5t-110.5 46.5q-103 43 -168 80t-118.5 88t-77 116t-23.5 153q0 187 116.5 291t337.5 104q225 0 404 -82l-84 -170q-139 66 -316 66
q-134 0 -199 -53.5t-65 -149.5q0 -43 9.5 -74.5t26 -55.5t54 -48.5t78 -45t113.5 -53.5l108 -47.5t90.5 -44t77 -46t60 -49t47.5 -56.5t31.5 -65.5t20 -78.5t5.5 -94q0 -191 -122 -297t-357 -106z" />
    <glyph glyph-name="afii10055" unicode="&#x406;" horiz-adv-x="491" 
d="M147 0v1518h199v-1518h-199z" />
    <glyph glyph-name="afii10056" unicode="&#x407;" horiz-adv-x="491" 
d="M147 0v1518h199v-1518h-199zM-18 1604v215h172v-215h-172zM344 1604v215h174v-215h-174z" />
    <glyph glyph-name="afii10057" unicode="&#x408;" horiz-adv-x="724" 
d="M51 0v178h144q114 0 160 48t46 153v1139h199v-1151q0 -196 -94 -281.5t-283 -85.5h-172z" />
    <glyph glyph-name="afii10058" unicode="&#x409;" horiz-adv-x="2029" 
d="M999 0v1333h-600v-1048q0 -158 -54 -222.5t-183 -64.5q-86 0 -94 2v178h32q67 0 84 26.5t17 108.5v1205h993v-592h319q236 0 344.5 -111.5t108.5 -345.5q0 -235 -109 -352t-346 -117h-512zM1194 172h313q140 0 202.5 65t62.5 224q0 160 -62.5 225.5t-202.5 65.5h-313
v-580z" />
    <glyph glyph-name="afii10059" unicode="&#x40a;" horiz-adv-x="1992" 
d="M963 0v694h-631v-694h-199v1518h199v-629h631v629h194v-592h320q234 0 342 -111.5t108 -345.5q0 -235 -109 -352t-345 -117h-510zM1157 172h316q138 0 199 64.5t61 224.5t-61 225.5t-199 65.5h-316v-580z" />
    <glyph glyph-name="afii10060" unicode="&#x40b;" horiz-adv-x="1415" 
d="M461 0v1335h-426v183h1052v-183h-428v-395q91 139 306 139q82 0 141 -22t94.5 -58.5t55.5 -95.5t27 -121t7 -147v-635h-200v594q0 53 -2 87t-8 72t-19 61t-34.5 43t-54 29t-77.5 9q-59 0 -101.5 -15.5t-68 -40.5t-40 -67.5t-20 -86t-6.5 -105.5v-580h-198z" />
    <glyph glyph-name="afii10061" unicode="&#x40c;" horiz-adv-x="1218" 
d="M475 1606l230 331h213l-273 -331h-170zM940 0l-430 727h-180v-727h-197v1518h197v-607h168l407 607h225l-460 -684l495 -834h-225z" />
    <glyph glyph-name="afii10062" unicode="&#x40e;" horiz-adv-x="1161" 
d="M369 -2q-113 0 -133 2v176h81q64 0 90.5 22.5t49.5 88.5l39 90l-459 1141h211l354 -916l330 916h203l-484 -1274q-29 -75 -51 -116.5t-54 -74t-73 -44t-104 -11.5zM598 1595q-86 0 -146.5 19.5t-96.5 60t-54.5 90t-28.5 121.5l142 21q15 -84 54 -124t130 -40
q89 0 128 40.5t52 123.5l144 -19q-9 -58 -22 -100t-37 -80.5t-58.5 -62t-86 -37t-120.5 -13.5z" />
    <glyph glyph-name="afii10145" unicode="&#x40f;" horiz-adv-x="1310" 
d="M539 -332v332h-406v1518h199v-1344h622v1344h199v-1518h-408v-332h-206z" />
    <glyph glyph-name="afii10017" unicode="&#x410;" horiz-adv-x="1224" 
d="M41 0l467 1528h209l467 -1528h-201l-94 315h-561l-90 -315h-197zM381 496h457l-228 753z" />
    <glyph glyph-name="afii10018" unicode="&#x411;" horiz-adv-x="1167" 
d="M133 0v1518h795v-183h-600v-434h342q222 0 325 -103t103 -335q0 -233 -105 -348t-323 -115h-537zM328 172h338q121 0 178 64.5t57 222.5t-56 217t-181 59h-336v-563z" />
    <glyph glyph-name="afii10019" unicode="&#x412;" horiz-adv-x="1167" 
d="M133 0v1518h483q227 0 335 -91t108 -292q0 -271 -189 -338q110 -33 165 -122.5t55 -256.5q0 -225 -118.5 -321.5t-342.5 -96.5h-496zM330 170h297q63 0 109 12t82 41t54.5 81t18.5 128q0 145 -67.5 202.5t-196.5 57.5h-297v-522zM330 870h280q128 0 190 53.5t62 186.5
q0 131 -61.5 182t-190.5 51h-280v-473z" />
    <glyph glyph-name="afii10020" unicode="&#x413;" horiz-adv-x="1021" 
d="M332 1335v-1335h-199v1518h836v-183h-637z" />
    <glyph glyph-name="afii10021" unicode="&#x414;" horiz-adv-x="1427" 
d="M74 -332v510h32q61 0 80 28.5t19 112.5v1199h1020v-1340h129v-510h-205v332h-870v-332h-205zM375 174h651v1159h-623v-1022q0 -38 -1 -57.5t-7.5 -43t-19.5 -36.5z" />
    <glyph glyph-name="afii10022" unicode="&#x415;" 
d="M133 0v1518h834v-183h-639v-461h606v-180h-606v-516h645v-178h-840z" />
    <glyph glyph-name="afii10024" unicode="&#x416;" horiz-adv-x="1972" 
d="M1694 0l-437 727h-174v-727h-194v727h-176l-437 -727h-227l498 827l-459 691h223l410 -607h168v607h194v-607h168l410 607h223l-461 -693l498 -825h-227z" />
    <glyph glyph-name="afii10025" unicode="&#x417;" horiz-adv-x="1110" 
d="M539 -20q-303 0 -488 124l88 160q165 -108 387 -108q177 0 249.5 62t72.5 231q0 99 -28 156.5t-103.5 88.5t-210.5 31h-248v174h244q172 0 242.5 55.5t70.5 186.5q0 119 -70 168t-219 49q-93 0 -192 -25t-172 -69l-84 153q80 57 211.5 90t261.5 33q227 0 338.5 -80
t111.5 -276q0 -153 -43.5 -234.5t-154.5 -115.5q138 -36 186.5 -124.5t48.5 -271.5q0 -250 -121.5 -354t-377.5 -104z" />
    <glyph glyph-name="afii10026" unicode="&#x418;" horiz-adv-x="1284" 
d="M1151 1518v-1518h-190v1174l-646 -1174h-184v1518h188v-1123l617 1123h215z" />
    <glyph glyph-name="afii10027" unicode="&#x419;" horiz-adv-x="1284" 
d="M1151 1518v-1518h-190v1174l-646 -1174h-184v1518h188v-1123l617 1123h215zM635 1595q-86 0 -146.5 19.5t-96.5 60t-54.5 90t-28.5 121.5l142 21q15 -84 54 -124t130 -40q89 0 128 40.5t52 123.5l143 -19q-10 -73 -29 -123t-54.5 -90.5t-95 -60t-144.5 -19.5z" />
    <glyph glyph-name="afii10028" unicode="&#x41a;" horiz-adv-x="1218" 
d="M940 0l-430 727h-180v-727h-197v1518h197v-607h168l407 607h225l-460 -684l495 -834h-225z" />
    <glyph glyph-name="afii10029" unicode="&#x41b;" horiz-adv-x="1323" 
d="M70 0v178h30q68 0 85.5 27t17.5 108v1205h993v-1518h-199v1333h-598v-1048q0 -158 -53 -222.5t-182 -64.5q-88 0 -94 2z" />
    <glyph glyph-name="afii10030" unicode="&#x41c;" horiz-adv-x="1519" 
d="M133 0v1518h250l377 -1180l377 1180h249v-1518h-194v1143l-369 -1143h-143l-371 1143v-1143h-176z" />
    <glyph glyph-name="afii10031" unicode="&#x41d;" horiz-adv-x="1290" 
d="M133 0v1518h199v-631h626v631h199v-1518h-199v692h-626v-692h-199z" />
    <glyph glyph-name="afii10032" unicode="&#x41e;" horiz-adv-x="1286" 
d="M645 -16q-107 0 -193 21.5t-145.5 58t-103.5 94t-69.5 119t-40.5 145t-20 160.5t-5 176t5 176t20 161t40.5 145.5t69.5 119.5t103.5 94.5t145.5 58t193 21.5q84 0 154 -13t124 -36t97.5 -59t74 -77t53 -95t36 -107.5t21.5 -121.5t11 -129.5t3 -137.5q0 -99 -5 -176
t-20 -160.5t-40.5 -145t-69 -119.5t-103 -94t-144.5 -57.5t-192 -21.5zM645 162q72 0 128 15.5t95 41.5t67 69t44.5 88.5t25.5 110.5t12 124.5t3 140.5t-3 140.5t-12.5 124.5t-26 111t-44.5 89t-67 69t-95 41.5t-127 15.5q-63 0 -114 -11t-89 -34t-66.5 -52t-47.5 -71.5
t-31 -85.5t-18.5 -101.5t-8.5 -112t-2 -123.5q0 -81 3 -140.5t12 -124.5t25.5 -110.5t44.5 -88.5t67.5 -69t96 -41.5t128.5 -15.5z" />
    <glyph glyph-name="afii10033" unicode="&#x41f;" horiz-adv-x="1286" 
d="M133 0v1518h1020v-1518h-199v1335h-622v-1335h-199z" />
    <glyph glyph-name="afii10034" unicode="&#x420;" horiz-adv-x="1167" 
d="M133 0v1518h516q234 0 342.5 -113.5t108.5 -347.5q0 -236 -110 -359t-345 -123h-315v-575h-197zM330 754h311q139 0 201.5 67t62.5 228q0 159 -62 224.5t-202 65.5h-311v-585z" />
    <glyph glyph-name="afii10035" unicode="&#x421;" horiz-adv-x="1067" 
d="M621 -16q-132 0 -229.5 36t-159 99.5t-99 163t-51.5 212.5t-14 263q0 105 6.5 190t23 167t44.5 144t71.5 115.5t102 87.5t139 53t180.5 19q228 0 369 -96l-105 -164q-109 67 -270 67q-106 0 -176.5 -34t-111 -109.5t-57 -181t-16.5 -262.5q0 -126 10 -216.5t34 -164.5
t65.5 -119t104 -68.5t149.5 -23.5q95 0 160.5 19.5t132.5 62.5l98 -154q-87 -54 -176.5 -80t-224.5 -26z" />
    <glyph glyph-name="afii10036" unicode="&#x422;" horiz-adv-x="1122" 
d="M461 0v1335h-426v183h1052v-183h-428v-1335h-198z" />
    <glyph glyph-name="afii10037" unicode="&#x423;" horiz-adv-x="1161" 
d="M369 -2q-113 0 -133 2v176h81q64 0 90.5 22.5t49.5 88.5l39 90l-459 1141h211l354 -916l330 916h203l-484 -1274q-29 -75 -51 -116.5t-54 -74t-73 -44t-104 -11.5z" />
    <glyph glyph-name="afii10038" unicode="&#x424;" horiz-adv-x="1472" 
d="M635 0v117q-269 22 -419 180.5t-150 462.5q0 303 150 461t419 182v115h199v-113q271 -24 421 -182.5t150 -462.5q0 -307 -150 -465t-421 -178v-117h-199zM1219 760q0 416 -385 459v-920q385 43 385 461zM254 760q0 -414 381 -459v918q-381 -45 -381 -459z" />
    <glyph glyph-name="afii10039" unicode="&#x425;" horiz-adv-x="1196" 
d="M926 0l-340 616l-322 -616h-213l436 795l-395 723h217l297 -545l285 545h211l-395 -725l436 -793h-217z" />
    <glyph glyph-name="afii10040" unicode="&#x426;" horiz-adv-x="1353" 
d="M133 0v1518h199v-1344h622v1344h199v-1340h131v-510h-207v332h-944z" />
    <glyph glyph-name="afii10041" unicode="&#x427;" horiz-adv-x="1224" 
d="M893 0v633q-36 -77 -127.5 -125.5t-249.5 -48.5q-101 0 -176 23.5t-121 63.5t-73.5 102.5t-37.5 131t-10 158.5v580h199v-541q0 -66 5.5 -112.5t22.5 -90t46.5 -69t79 -41t118.5 -15.5q78 0 136 18t93.5 48t57 76t29.5 96t8 114v517h197v-1518h-197z" />
    <glyph glyph-name="afii10042" unicode="&#x428;" horiz-adv-x="1988" 
d="M133 0v1518h199v-1344h561v1344h201v-1344h561v1344h200v-1518h-1722z" />
    <glyph glyph-name="afii10043" unicode="&#x429;" horiz-adv-x="2058" 
d="M133 0v1518h199v-1344h561v1344h201v-1344h561v1344h200v-1340h132v-510h-207v332h-1647z" />
    <glyph glyph-name="afii10044" unicode="&#x42a;" horiz-adv-x="1224" 
d="M197 0v1335h-134v183h328v-592h320q236 0 344 -111.5t108 -345.5q0 -235 -109.5 -352t-344.5 -117h-512zM391 176h324q133 0 193.5 65t60.5 220q0 159 -63 225t-201 66h-314v-576z" />
    <glyph glyph-name="afii10045" unicode="&#x42b;" horiz-adv-x="1540" 
d="M133 0v1518h197v-592h319q235 0 343 -111.5t108 -345.5q0 -235 -109 -352t-346 -117h-512zM330 172h311q140 0 202 65t62 224q0 160 -62.5 225.5t-201.5 65.5h-311v-580zM1198 0v1518h199v-1518h-199z" />
    <glyph glyph-name="afii10046" unicode="&#x42c;" horiz-adv-x="1163" 
d="M133 0v1518h197v-592h319q235 0 343 -111.5t108 -345.5q0 -235 -109 -352t-346 -117h-512zM330 172h311q140 0 202 65t62 224q0 160 -62.5 225.5t-201.5 65.5h-311v-580z" />
    <glyph glyph-name="afii10047" unicode="&#x42d;" horiz-adv-x="1142" 
d="M485 -20q-250 0 -419 151l106 154q66 -61 137 -94t168 -33q185 0 286.5 124t115.5 394h-643v180h641q-32 492 -398 492q-81 0 -159.5 -31t-137.5 -88l-110 164q78 71 185 109t214 38q312 0 459 -199.5t147 -582.5q0 -778 -592 -778z" />
    <glyph glyph-name="afii10048" unicode="&#x42e;" horiz-adv-x="1730" 
d="M1087 -16q-141 0 -244 37t-164 97.5t-98 155t-50 190.5t-15 224h-184v-688h-199v1518h199v-644h186q3 84 11 152.5t26 138.5t46 123.5t71.5 101t101 78.5t136.5 48.5t177 17.5q84 0 154 -13t124 -36t97.5 -59t74 -77t53 -95t36 -107.5t21.5 -121.5t11 -129.5t3 -137.5
q0 -99 -5 -176t-20 -160.5t-40.5 -145t-69 -119.5t-103 -94t-144.5 -57.5t-192 -21.5zM1087 162q72 0 128 15.5t95 41.5t67 69t44.5 88.5t25.5 110.5t12 124.5t3 140.5t-3 140.5t-12.5 124.5t-26 111t-44.5 89t-67 69t-95 41.5t-127 15.5q-72 0 -129 -15.5t-96 -41.5
t-67 -69.5t-44.5 -88.5t-25.5 -111t-11.5 -124.5t-2.5 -140.5q0 -71 2 -123.5t8 -111.5t18 -101.5t31 -85.5t47 -71.5t66 -51.5t89 -34t115 -11z" />
    <glyph glyph-name="afii10049" unicode="&#x42f;" horiz-adv-x="1181" 
d="M109 0l270 616q-287 69 -287 451q0 231 104.5 341t319.5 110h535v-1518h-197v602h-279l-260 -602h-206zM518 772h336v571h-332q-118 0 -176.5 -65.5t-58.5 -220.5q0 -156 58 -220.5t173 -64.5z" />
    <glyph glyph-name="afii10065" unicode="&#x430;" horiz-adv-x="1044" 
d="M406 -12q-183 0 -260.5 89.5t-77.5 264.5q0 98 24 170t68.5 119t117.5 75.5t162 40t211 11.5h47q-3 121 -43.5 173t-156.5 52q-155 0 -281 -61l-80 157q156 80 379 80q113 0 185.5 -23t113.5 -75t56.5 -123t15.5 -180v-479q0 -70 14.5 -90.5t73.5 -20.5v-168
q-17 -2 -53 -2q-93 0 -136 23t-59 85q-49 -65 -126.5 -91.5t-194.5 -26.5zM444 147q55 0 98.5 13.5t80 45t56 91t19.5 143.5v160h-45q-91 0 -151 -5t-112 -19.5t-80.5 -41.5t-44 -69.5t-15.5 -104.5q0 -118 48 -165.5t146 -47.5z" />
    <glyph glyph-name="afii10066" unicode="&#x431;" horiz-adv-x="1046" 
d="M526 -16q-248 0 -353 140t-105 435v275q0 159 16.5 280t50.5 203t78 136t107.5 83.5t129 41t152.5 11.5h148v-176h-142q-67 0 -114.5 -10t-93 -40t-72.5 -82.5t-43.5 -141t-16.5 -211.5q74 200 318 200q202 0 296.5 -142t94.5 -427q0 -301 -101.5 -438t-349.5 -137z
M526 152q145 0 200.5 96t55.5 307q0 210 -55.5 303.5t-200.5 93.5q-147 0 -205.5 -94.5t-58.5 -302.5q0 -209 58.5 -306t205.5 -97z" />
    <glyph glyph-name="afii10067" unicode="&#x432;" horiz-adv-x="1024" 
d="M115 0v1137h475q175 0 253.5 -59.5t78.5 -211.5q0 -219 -134 -266q85 -24 119.5 -91t34.5 -194q0 -95 -21.5 -157t-69 -96.5t-111 -48t-158.5 -13.5h-467zM295 158h278q52 0 84 6t57 24.5t35.5 53.5t10.5 92q0 100 -43 134t-148 34h-274v-344zM295 659h276
q95 0 130.5 42.5t35.5 129.5q0 86 -37.5 118t-128.5 32h-276v-322z" />
    <glyph glyph-name="afii10068" unicode="&#x433;" horiz-adv-x="829" 
d="M111 0v1137h688v-170h-514v-967h-174z" />
    <glyph glyph-name="afii10069" unicode="&#x434;" horiz-adv-x="1226" 
d="M70 -340v508h36q63 0 81 29t18 114v826h823v-969h133v-508h-184v340h-725v-340h-182zM362 158h478v813h-445v-672q0 -102 -33 -141z" />
    <glyph glyph-name="afii10070" unicode="&#x435;" horiz-adv-x="978" 
d="M514 -14q-110 0 -189.5 27.5t-128 74.5t-76.5 123.5t-38 160t-10 199.5q0 112 11.5 197t41.5 161t79.5 124t128 76t185.5 28q58 0 106 -7.5t85 -22t66 -36t50 -49.5t36 -63t24 -75.5t14.5 -87.5t7 -100t2.5 -111t0 -122h-655q6 -174 62.5 -252.5t207.5 -78.5q69 0 128 11
t86.5 22t74.5 32l74 -147q-157 -84 -373 -84zM514 987q-75 0 -125 -22t-77.5 -67.5t-40 -103t-15.5 -141.5h475q-3 156 -18 210q-26 90 -110 114q-37 10 -89 10z" />
    <glyph glyph-name="afii10072" unicode="&#x436;" horiz-adv-x="1458" 
d="M635 0v528h-119l-295 -528h-205l355 623l-324 514h201l270 -435h117v435h188v-435h117l266 435h203l-324 -516l357 -621h-207l-295 528h-117v-528h-188z" />
    <glyph glyph-name="afii10073" unicode="&#x437;" horiz-adv-x="948" 
d="M457 -25q-273 0 -426 113l94 148q135 -95 313 -95q136 0 187 40t51 157q0 52 -9 83t-35.5 56t-78 35t-135.5 10h-211v168h209q137 0 187 35.5t50 128.5q0 85 -48.5 114t-170.5 29q-168 0 -280 -79l-101 143q66 49 179 75.5t227 26.5q205 0 299 -59t94 -211
q0 -115 -34 -175.5t-109 -88.5q92 -29 130 -100t38 -207q0 -102 -28.5 -171t-86 -107t-130.5 -53.5t-175 -15.5z" />
    <glyph glyph-name="afii10074" unicode="&#x438;" horiz-adv-x="1036" 
d="M111 0v1137h176v-801l436 801h203l-4 -1137h-174v836l-455 -836h-182z" />
    <glyph glyph-name="afii10075" unicode="&#x439;" horiz-adv-x="1038" 
d="M111 0v1137h176v-801l436 801h203l-4 -1137h-174v836l-455 -836h-182zM516 1245q-86 0 -146 19.5t-96 60t-55 90t-29 121.5l142 20q15 -84 54 -123.5t130 -39.5q89 0 128 40t52 123l144 -18q-11 -73 -29.5 -122.5t-54.5 -90.5t-95 -60.5t-145 -19.5z" />
    <glyph glyph-name="afii10076" unicode="&#x43a;" horiz-adv-x="933" 
d="M111 0v1137h190v-435h117l268 435h203l-326 -514l355 -623h-203l-295 528h-119v-528h-190z" />
    <glyph glyph-name="afii10077" unicode="&#x43b;" horiz-adv-x="1132" 
d="M66 0v168h30q66 0 83.5 27.5t17.5 109.5v832h825v-1137h-193v973h-440v-688q0 -158 -53 -222.5t-182 -64.5q-82 0 -88 2z" />
    <glyph glyph-name="afii10078" unicode="&#x43c;" horiz-adv-x="1230" 
d="M111 0v1137h231l276 -865l279 865h221v-1137h-178v797l-252 -797h-153l-254 797v-797h-170z" />
    <glyph glyph-name="afii10079" unicode="&#x43d;" horiz-adv-x="1048" 
d="M111 0v1137h194v-459h440v459h191v-1137h-191v502h-440v-502h-194z" />
    <glyph glyph-name="afii10080" unicode="&#x43e;" horiz-adv-x="1052" 
d="M526 -16q-112 0 -193.5 29.5t-131 78.5t-79 126.5t-40 160t-10.5 192.5q0 109 10 191t39 159.5t78.5 127t131.5 79t195 29.5t195.5 -30t132 -79.5t78.5 -127.5t39 -159.5t10 -189.5q0 -111 -10 -193.5t-39 -160t-78.5 -126.5t-132 -78t-195.5 -29zM526 152q58 0 102 13.5
t72 42t46 62t27 84.5t12 98t3 113t-3 113t-12 98t-27 84.5t-46 61.5t-72 41.5t-102 13.5q-69 0 -117.5 -21t-76.5 -55t-43.5 -90.5t-20 -111t-4.5 -134.5q0 -65 3 -112.5t12.5 -98t27.5 -84.5t46.5 -62.5t72 -42t100.5 -13.5z" />
    <glyph glyph-name="afii10081" unicode="&#x43f;" horiz-adv-x="1046" 
d="M111 0v1137h825v-1137h-191v973h-442v-973h-192z" />
    <glyph glyph-name="afii10082" unicode="&#x440;" horiz-adv-x="1081" 
d="M115 -324v1450l153 13l15 -115q84 133 350 133q71 0 127.5 -17t95.5 -44.5t67.5 -72t45 -91t26 -110t12.5 -120.5t3 -131q0 -86 -5 -152.5t-19 -137.5t-41 -121t-68 -91t-104.5 -62t-145.5 -21q-135 0 -207 28.5t-113 87.5v-426h-192zM575 154q62 0 106 20t70.5 53
t41 87.5t19.5 111.5t5 137t-4.5 136.5t-19.5 112.5t-41 90t-70.5 54.5t-106.5 20.5q-52 0 -92 -11t-68 -29t-48 -48t-31.5 -61.5t-18 -78t-8.5 -87.5t-2 -99t2 -98.5t8 -86.5t17.5 -77t31.5 -61t48 -47.5t68.5 -28t92.5 -10.5z" />
    <glyph glyph-name="afii10083" unicode="&#x441;" horiz-adv-x="860" 
d="M512 -16q-107 0 -185 27.5t-126.5 75t-77.5 123.5t-40 161t-11 200t10.5 199.5t40 161t79 123.5t130 74.5t190.5 27.5q165 0 279 -57l-82 -166q-85 43 -189 43q-79 0 -131 -25.5t-81 -79.5t-40.5 -126.5t-11.5 -178.5q0 -108 11 -180t39.5 -127.5t81.5 -81.5t134 -26
q99 0 211 53l74 -148q-77 -38 -146 -55.5t-159 -17.5z" />
    <glyph glyph-name="afii10084" unicode="&#x442;" horiz-adv-x="925" 
d="M365 0v967h-332v170h860v-170h-334v-967h-194z" />
    <glyph glyph-name="afii10085" unicode="&#x443;" horiz-adv-x="917" 
d="M133 -324v158h105q45 0 66.5 16.5t33.5 57.5l24 88l-346 1141h195l250 -865l250 865h188l-387 -1270q-34 -113 -96 -152t-183 -39h-100z" />
    <glyph glyph-name="afii10086" unicode="&#x444;" horiz-adv-x="1742" 
d="M776 -324v457q-45 -72 -121 -109.5t-206 -37.5q-71 0 -127.5 16.5t-95.5 44.5t-67.5 72t-45 91t-26 110.5t-12.5 121t-3 131.5t3.5 132t13.5 120.5t27.5 109.5t46.5 90.5t69 71t97 44t128 16.5q134 0 206 -37.5t113 -113.5v569h191v-565q87 147 329 147q70 0 126 -16.5
t94.5 -44.5t67 -72.5t45 -91.5t26.5 -110t13 -120.5t3 -130.5q0 -86 -5 -152.5t-19 -137.5t-41 -121t-68 -91t-104.5 -62t-145.5 -21q-134 0 -206 38t-115 117v-465h-191zM506 154q52 0 93 11t69 29t48 48.5t31.5 62t18 78t8.5 87.5t2 99t-2 98.5t-8 86.5t-17.5 77t-31.5 61
t-48 47.5t-69 28.5t-94 11q-52 0 -91.5 -13t-66 -40t-43.5 -60.5t-26 -83t-12 -98.5t-3 -115q0 -81 4.5 -137t19 -112.5t40.5 -90t70.5 -54.5t107.5 -21zM1237 154q62 0 106 20t70.5 53t41 87.5t19.5 111.5t5 137t-4.5 136.5t-19.5 112.5t-41 90t-70.5 54.5t-106.5 20.5
q-68 0 -116.5 -18.5t-77.5 -49t-46 -81.5t-23 -103.5t-7 -126.5v-53q1 -77 5.5 -128.5t20.5 -105.5t44 -85.5t78.5 -51.5t121.5 -20z" />
    <glyph glyph-name="afii10087" unicode="&#x445;" horiz-adv-x="933" 
d="M702 0l-247 432l-236 -432h-194l335 598l-307 539h207l217 -383l209 383h195l-308 -549l336 -588h-207z" />
    <glyph glyph-name="afii10088" unicode="&#x446;" horiz-adv-x="1134" 
d="M883 -340v340h-772v1137h194v-973h440v973h191v-969h133v-508h-186z" />
    <glyph glyph-name="afii10089" unicode="&#x447;" horiz-adv-x="1044" 
d="M737 0v442q-32 -67 -109.5 -113t-201.5 -46q-188 0 -263 110.5t-75 358.5v385h195v-351q0 -63 3.5 -106t15 -86t33 -68t58.5 -41t90 -16q75 0 125.5 25t77.5 73.5t38 107t11 138.5v324h197v-1137h-195z" />
    <glyph glyph-name="afii10090" unicode="&#x448;" horiz-adv-x="1660" 
d="M111 0v1137h194v-973h432v973h191v-973h430v973h190v-1137h-1437z" />
    <glyph glyph-name="afii10091" unicode="&#x449;" horiz-adv-x="1742" 
d="M1497 -340v340h-1386v1137h194v-973h432v973h191v-973h430v973h190v-969h133v-508h-184z" />
    <glyph glyph-name="afii10092" unicode="&#x44a;" horiz-adv-x="1114" 
d="M205 0v967h-135v170h327v-334h287q188 0 273 -100t85 -293q0 -198 -85.5 -304t-278.5 -106h-473zM397 162h258q96 0 142.5 57t46.5 182q0 128 -46.5 184t-146.5 56h-254v-479z" />
    <glyph glyph-name="afii10093" unicode="&#x44b;" horiz-adv-x="1368" 
d="M111 0v1137h196v-334h283q191 0 274.5 -99t83.5 -294q0 -198 -84 -304t-276 -106h-477zM307 162h258q94 0 140.5 57t46.5 182q0 129 -45.5 184.5t-145.5 55.5h-254v-479zM1063 0v1137h192v-1137h-192z" />
    <glyph glyph-name="afii10094" unicode="&#x44c;" horiz-adv-x="1026" 
d="M115 0v1137h196v-334h283q190 0 274 -99.5t84 -293.5q0 -198 -85 -304t-277 -106h-475zM311 162h256q96 0 142.5 57t46.5 182q0 129 -45.5 184.5t-145.5 55.5h-254v-479z" />
    <glyph glyph-name="afii10095" unicode="&#x44d;" horiz-adv-x="890" 
d="M387 -20q-97 0 -172 28.5t-154 89.5l84 146q54 -47 104 -70.5t116 -23.5q138 0 198.5 78t69.5 259h-459v168h459q-11 177 -71.5 254.5t-192.5 77.5q-123 0 -213 -94l-90 158q124 112 309 112q131 0 219.5 -37.5t138.5 -115.5t71 -183t21 -256q0 -152 -21 -257.5
t-70.5 -183t-135 -114t-211.5 -36.5z" />
    <glyph glyph-name="afii10096" unicode="&#x44e;" horiz-adv-x="1398" 
d="M870 -16q-104 0 -182 25.5t-127.5 69t-80.5 111.5t-44 142.5t-16 171.5h-117v-504h-192v1137h192v-461h119q4 89 18.5 158t46.5 131.5t81 103.5t125.5 64.5t176.5 23.5q114 0 197 -30t132.5 -79.5t78.5 -128t39 -159.5t10 -189q0 -111 -10 -193t-39 -160t-78.5 -127
t-132.5 -78t-197 -29zM870 152q70 0 119.5 21.5t77.5 55t43.5 90.5t20 111.5t4.5 134.5q0 66 -3 113t-12 98t-27.5 84.5t-47 61.5t-72.5 41.5t-103 13.5q-68 0 -116.5 -21t-76 -55t-43 -90.5t-20 -111t-4.5 -134.5q0 -55 2 -97t8.5 -87t18 -77.5t31 -62.5t47 -48.5t66 -29.5
t87.5 -11z" />
    <glyph glyph-name="afii10097" unicode="&#x44f;" horiz-adv-x="1046" 
d="M98 0l187 418q-201 62 -201 348q0 371 334 371h522v-1137h-195v399h-260l-180 -399h-207zM451 567h294v402h-292q-85 0 -127.5 -44.5t-42.5 -156.5q0 -113 42 -157t126 -44z" />
    <glyph glyph-name="afii10071" unicode="&#x451;" horiz-adv-x="978" 
d="M221 1255v215h172v-215h-172zM584 1255v215h174v-215h-174zM514 -14q-110 0 -189.5 27.5t-128 74.5t-76.5 123.5t-38 160t-10 199.5q0 112 11.5 197t41.5 161t79.5 124t128 76t185.5 28q58 0 106 -7.5t85 -22t66 -36t50 -49.5t36 -63t24 -75.5t14.5 -87.5t7 -100
t2.5 -111t0 -122h-655q6 -174 62.5 -252.5t207.5 -78.5q69 0 128 11t86.5 22t74.5 32l74 -147q-157 -84 -373 -84zM514 987q-75 0 -125 -22t-77.5 -67.5t-40 -103t-15.5 -141.5h475q-3 156 -18 210q-26 90 -110 114q-37 10 -89 10z" />
    <glyph glyph-name="afii10099" unicode="&#x452;" horiz-adv-x="1042" 
d="M-6 1268v157h127v158h190v-158h197v-157h-197v-283q75 150 305 150q82 0 141.5 -22t95.5 -58.5t56.5 -95.5t27.5 -121t7 -146v-712q0 -176 -60 -244t-225 -68h-26v156h12q67 1 86 33.5t19 128.5v663q0 64 -3 104t-14 82t-32.5 65t-58.5 37.5t-91 14.5q-61 0 -104.5 -16
t-69 -42.5t-40 -70t-19.5 -89t-5 -109.5v-625h-192v1268h-127z" />
    <glyph glyph-name="afii10100" unicode="&#x453;" horiz-adv-x="829" 
d="M291 1255l229 332h213l-272 -332h-170zM111 0v1137h688v-170h-514v-967h-174z" />
    <glyph glyph-name="afii10101" unicode="&#x454;" horiz-adv-x="890" 
d="M506 -20q-125 0 -210 37t-135 113.5t-71.5 183t-21.5 257.5t21 256t71.5 183t139 115.5t218.5 37.5q185 0 309 -112l-90 -160q-88 96 -211 96q-133 0 -194 -77.5t-70 -254.5h457v-168h-457q8 -181 68 -259t198 -78q68 0 119.5 22.5t104.5 69.5l82 -144
q-81 -61 -156.5 -89.5t-171.5 -28.5z" />
    <glyph glyph-name="afii10102" unicode="&#x455;" horiz-adv-x="829" 
d="M410 -14q-227 0 -377 75l76 152q131 -70 301 -70q190 0 190 152q0 39 -12 67t-44.5 53.5t-70 45.5t-108.5 51q-62 27 -104 49t-81.5 52t-62 62t-36 75.5t-13.5 97.5q0 156 93.5 232.5t268.5 76.5q180 0 309 -57l-75 -160q-113 49 -240 49q-92 0 -132 -34.5t-40 -102.5
q0 -64 46 -102.5t175 -94.5q84 -35 133.5 -63t93 -69t62 -95.5t18.5 -130.5q0 -156 -96 -233.5t-274 -77.5z" />
    <glyph glyph-name="afii10103" unicode="&#x456;" horiz-adv-x="436" 
d="M121 0v1137h192v-1137h-192zM121 1276v231h194v-231h-194z" />
    <glyph glyph-name="afii10104" unicode="&#x457;" horiz-adv-x="436" 
d="M-18 1255v215h157v-215h-157zM297 1255v215h156v-215h-156zM121 0v1137h192v-1137h-192z" />
    <glyph glyph-name="afii10105" unicode="&#x458;" horiz-adv-x="436" 
d="M4 -324v158h19q63 0 80.5 27t17.5 104v1172h192v-1178q0 -80 -11.5 -131t-43 -86.5t-85 -50.5t-138.5 -15h-31zM121 1276v231h194v-231h-194z" />
    <glyph glyph-name="afii10106" unicode="&#x459;" horiz-adv-x="1726" 
d="M825 0v973h-436v-688q0 -158 -53 -222.5t-182 -64.5q-82 0 -88 2v168h30q66 1 83.5 28.5t17.5 108.5v832h819v-336h280q189 0 274 -99t85 -292q0 -198 -85 -304t-278 -106h-467zM1016 158h252q96 0 144 59t48 184q0 128 -46.5 184t-145.5 56h-252v-483z" />
    <glyph glyph-name="afii10107" unicode="&#x45a;" horiz-adv-x="1640" 
d="M111 0v1137h192v-459h438v459h189v-336h284q187 0 271 -99t84 -292q0 -198 -85.5 -304t-277.5 -106h-465v502h-438v-502h-192zM930 158h256q94 0 140 58.5t46 184.5q0 128 -46 184t-144 56h-252v-483z" />
    <glyph glyph-name="afii10108" unicode="&#x45b;" horiz-adv-x="1042" 
d="M-6 1268v157h127v158h190v-158h197v-157h-197v-283q75 150 305 150q82 0 141.5 -22t95.5 -58.5t56.5 -95.5t27.5 -121t7 -146v-692h-194v649q0 64 -3 104t-14 82t-32.5 65t-58.5 37.5t-91 14.5q-61 0 -104.5 -16t-69 -42.5t-40 -70t-19.5 -89t-5 -109.5v-625h-192v1268
h-127z" />
    <glyph glyph-name="afii10109" unicode="&#x45c;" horiz-adv-x="933" 
d="M111 0v1137h190v-435h117l268 435h203l-326 -514l355 -623h-203l-295 528h-119v-528h-190zM352 1255l230 332h213l-273 -332h-170z" />
    <glyph glyph-name="afii10110" unicode="&#x45e;" horiz-adv-x="899" 
d="M133 -324v158h105q45 0 66.5 16.5t33.5 57.5l24 88l-346 1141h195l250 -865l250 865h188l-387 -1270q-34 -113 -96 -152t-183 -39h-100zM463 1245q-86 0 -146.5 19.5t-96.5 60t-54.5 90t-28.5 121.5l142 20q15 -84 54 -123.5t130 -39.5q89 0 128 40t52 123l143 -18
q-10 -73 -29 -123t-54.5 -90.5t-95 -60t-144.5 -19.5z" />
    <glyph glyph-name="afii10193" unicode="&#x45f;" horiz-adv-x="1081" 
d="M430 -340v340h-319v1137h192v-973h442v973h191v-1137h-322v-340h-184z" />
    <glyph glyph-name="afii10050" unicode="&#x490;" horiz-adv-x="1046" 
d="M135 0v1518h678v331h207v-514h-688v-1335h-197z" />
    <glyph glyph-name="afii10098" unicode="&#x491;" horiz-adv-x="829" 
d="M111 0v1137h524v340h162v-510h-512v-967h-174z" />
    <glyph glyph-name="Wgrave" unicode="&#x1e80;" horiz-adv-x="1763" 
d="M416 -10l-361 1528h201l268 -1147l277 1147h174l278 -1147l269 1147h186l-358 -1528h-193l-274 1126l-275 -1126h-192zM829 1604l-276 331h219l227 -331h-170z" />
    <glyph glyph-name="wgrave" unicode="&#x1e81;" horiz-adv-x="1462" 
d="M330 -8l-303 1145h192l211 -840l217 840h178l215 -834l213 834h183l-301 -1145h-185l-219 813l-215 -813h-186zM682 1255l-276 332h219l227 -332h-170z" />
    <glyph glyph-name="Wacute" unicode="&#x1e82;" horiz-adv-x="1763" 
d="M766 1604l229 331h213l-272 -331h-170zM416 -10l-361 1528h201l268 -1147l277 1147h174l278 -1147l269 1147h186l-358 -1528h-193l-274 1126l-275 -1126h-192z" />
    <glyph glyph-name="wacute" unicode="&#x1e83;" horiz-adv-x="1462" 
d="M625 1255l229 332h213l-272 -332h-170zM330 -8l-303 1145h192l211 -840l217 840h178l215 -834l213 834h183l-301 -1145h-185l-219 813l-215 -813h-186z" />
    <glyph glyph-name="Wdieresis" unicode="&#x1e84;" horiz-adv-x="1763" 
d="M612 1604v215h172v-215h-172zM975 1604v215h174v-215h-174zM416 -10l-361 1528h201l268 -1147l277 1147h174l278 -1147l269 1147h186l-358 -1528h-193l-274 1126l-275 -1126h-192z" />
    <glyph glyph-name="wdieresis" unicode="&#x1e85;" horiz-adv-x="1462" 
d="M465 1255v215h172v-215h-172zM827 1255v215h174v-215h-174zM330 -8l-303 1145h192l211 -840l217 840h178l215 -834l213 834h183l-301 -1145h-185l-219 813l-215 -813h-186z" />
    <glyph glyph-name="uni1EA0" unicode="&#x1ea0;" horiz-adv-x="1224" 
d="M41 0l467 1528h209l467 -1528h-201l-94 315h-561l-90 -315h-197zM381 496h457l-228 753zM514 -367v230h193v-230h-193z" />
    <glyph glyph-name="uni1EA1" unicode="&#x1ea1;" horiz-adv-x="1044" 
d="M406 -12q-183 0 -260.5 89.5t-77.5 264.5q0 98 24 170t68.5 119t117.5 75.5t162 40t211 11.5h47q-3 121 -43.5 173t-156.5 52q-155 0 -281 -61l-80 157q156 80 379 80q113 0 185.5 -23t113.5 -75t56.5 -123t15.5 -180v-479q0 -70 14.5 -90.5t73.5 -20.5v-168
q-17 -2 -53 -2q-93 0 -136 23t-59 85q-49 -65 -126.5 -91.5t-194.5 -26.5zM444 147q55 0 98.5 13.5t80 45t56 91t19.5 143.5v160h-45q-91 0 -151 -5t-112 -19.5t-80.5 -41.5t-44 -69.5t-15.5 -104.5q0 -118 48 -165.5t146 -47.5zM408 -367v230h192v-230h-192z" />
    <glyph glyph-name="uni1EA2" unicode="&#x1ea2;" horiz-adv-x="1224" 
d="M41 0l467 1528h209l467 -1528h-201l-94 315h-561l-90 -315h-197zM381 496h457l-228 753zM545 1581q-7 72 10 112.5t82 100.5q41 41 55.5 62t14.5 45q0 29 -23.5 50t-71.5 21q-69 0 -149 -41l-62 113q90 51 217 51q114 0 171 -49t57 -127q0 -54 -21.5 -93t-66.5 -81
q-53 -53 -68.5 -81.5t-15.5 -82.5h-129z" />
    <glyph glyph-name="uni1EA3" unicode="&#x1ea3;" horiz-adv-x="1044" 
d="M406 -12q-183 0 -260.5 89.5t-77.5 264.5q0 98 24 170t68.5 119t117.5 75.5t162 40t211 11.5h47q-3 121 -43.5 173t-156.5 52q-155 0 -281 -61l-80 157q156 80 379 80q113 0 185.5 -23t113.5 -75t56.5 -123t15.5 -180v-479q0 -70 14.5 -90.5t73.5 -20.5v-168
q-17 -2 -53 -2q-93 0 -136 23t-59 85q-49 -65 -126.5 -91.5t-194.5 -26.5zM444 147q55 0 98.5 13.5t80 45t56 91t19.5 143.5v160h-45q-91 0 -151 -5t-112 -19.5t-80.5 -41.5t-44 -69.5t-15.5 -104.5q0 -118 48 -165.5t146 -47.5zM442 1235q-7 72 10.5 112.5t82.5 100.5
q40 40 54.5 61.5t14.5 44.5q0 30 -23 51t-71 21q-70 0 -150 -41l-61 113q88 51 217 51q114 0 170.5 -48.5t56.5 -127.5q0 -54 -21.5 -93.5t-66.5 -80.5q-53 -54 -68.5 -82.5t-15.5 -81.5h-129z" />
    <glyph glyph-name="uni1EA4" unicode="&#x1ea4;" horiz-adv-x="1224" 
d="M41 0l467 1528h209l467 -1528h-201l-94 315h-561l-90 -315h-197zM381 496h457l-228 753zM291 1604l225 331h184l228 -331h-160l-162 196l-160 -196h-155zM39 1778l229 336h215l-276 -336h-168z" />
    <glyph glyph-name="uni1EA5" unicode="&#x1ea5;" horiz-adv-x="1044" 
d="M406 -12q-183 0 -260.5 89.5t-77.5 264.5q0 98 24 170t68.5 119t117.5 75.5t162 40t211 11.5h47q-3 121 -43.5 173t-156.5 52q-155 0 -281 -61l-80 157q156 80 379 80q113 0 185.5 -23t113.5 -75t56.5 -123t15.5 -180v-479q0 -70 14.5 -90.5t73.5 -20.5v-168
q-17 -2 -53 -2q-93 0 -136 23t-59 85q-49 -65 -126.5 -91.5t-194.5 -26.5zM444 147q55 0 98.5 13.5t80 45t56 91t19.5 143.5v160h-45q-91 0 -151 -5t-112 -19.5t-80.5 -41.5t-44 -69.5t-15.5 -104.5q0 -118 48 -165.5t146 -47.5zM207 1255l225 332h184l228 -332h-160
l-162 197l-160 -197h-155zM-45 1430l229 335h215l-276 -335h-168z" />
    <glyph glyph-name="uni1EA6" unicode="&#x1ea6;" horiz-adv-x="1224" 
d="M41 0l467 1528h209l467 -1528h-201l-94 315h-561l-90 -315h-197zM381 496h457l-228 753zM291 1604l229 331h180l228 -331h-158l-162 196l-164 -196h-153zM1014 1778l-277 336h215l232 -336h-170z" />
    <glyph glyph-name="uni1EA7" unicode="&#x1ea7;" horiz-adv-x="1044" 
d="M406 -12q-183 0 -260.5 89.5t-77.5 264.5q0 98 24 170t68.5 119t117.5 75.5t162 40t211 11.5h47q-3 121 -43.5 173t-156.5 52q-155 0 -281 -61l-80 157q156 80 379 80q113 0 185.5 -23t113.5 -75t56.5 -123t15.5 -180v-479q0 -70 14.5 -90.5t73.5 -20.5v-168
q-17 -2 -53 -2q-93 0 -136 23t-59 85q-49 -65 -126.5 -91.5t-194.5 -26.5zM444 147q55 0 98.5 13.5t80 45t56 91t19.5 143.5v160h-45q-91 0 -151 -5t-112 -19.5t-80.5 -41.5t-44 -69.5t-15.5 -104.5q0 -118 48 -165.5t146 -47.5zM201 1255l229 332h180l228 -332h-158
l-162 197l-164 -197h-153zM924 1430l-277 335h215l232 -335h-170z" />
    <glyph glyph-name="uni1EA8" unicode="&#x1ea8;" horiz-adv-x="1224" 
d="M41 0l467 1528h209l467 -1528h-201l-94 315h-561l-90 -315h-197zM381 496h457l-228 753zM291 1604l229 331h182l228 -331h-160l-160 196l-161 -196h-158zM545 1989q-6 71 11.5 110.5t82.5 100.5q42 41 56 61.5t14 46.5q0 27 -23 47.5t-74 20.5q-74 0 -147 -41l-62 114
q101 52 220 52q112 0 168.5 -49.5t56.5 -127.5q0 -54 -20.5 -93t-65.5 -81q-53 -52 -69.5 -81.5t-16.5 -79.5h-131z" />
    <glyph glyph-name="uni1EA9" unicode="&#x1ea9;" horiz-adv-x="1044" 
d="M406 -12q-183 0 -260.5 89.5t-77.5 264.5q0 98 24 170t68.5 119t117.5 75.5t162 40t211 11.5h47q-3 121 -43.5 173t-156.5 52q-155 0 -281 -61l-80 157q156 80 379 80q113 0 185.5 -23t113.5 -75t56.5 -123t15.5 -180v-479q0 -70 14.5 -90.5t73.5 -20.5v-168
q-17 -2 -53 -2q-93 0 -136 23t-59 85q-49 -65 -126.5 -91.5t-194.5 -26.5zM444 147q55 0 98.5 13.5t80 45t56 91t19.5 143.5v160h-45q-91 0 -151 -5t-112 -19.5t-80.5 -41.5t-44 -69.5t-15.5 -104.5q0 -118 48 -165.5t146 -47.5zM199 1255l229 332h182l228 -332h-160
l-160 197l-162 -197h-157zM453 1640q-7 71 10.5 110.5t83.5 100.5q42 41 55.5 61.5t13.5 47.5q0 28 -22.5 48t-73.5 20q-74 0 -147 -41l-62 114q99 51 219 51q113 0 169.5 -49t56.5 -127q0 -55 -20.5 -94t-65.5 -80q-53 -52 -69.5 -81.5t-16.5 -80.5h-131z" />
    <glyph glyph-name="uni1EAA" unicode="&#x1eaa;" horiz-adv-x="1224" 
d="M41 0l467 1528h209l467 -1528h-201l-94 315h-561l-90 -315h-197zM381 496h457l-228 753zM291 1604l227 331h182l230 -331h-160l-162 196l-159 -196h-158zM391 1987l-129 71q85 172 227 172q45 0 90.5 -21t84 -42t65.5 -21q32 0 59 22.5t58 69.5l125 -71
q-45 -87 -99 -129.5t-127 -42.5q-44 0 -90.5 20t-85 40t-63.5 20q-61 0 -115 -88z" />
    <glyph glyph-name="uni1EAB" unicode="&#x1eab;" horiz-adv-x="1044" 
d="M406 -12q-183 0 -260.5 89.5t-77.5 264.5q0 98 24 170t68.5 119t117.5 75.5t162 40t211 11.5h47q-3 121 -43.5 173t-156.5 52q-155 0 -281 -61l-80 157q156 80 379 80q113 0 185.5 -23t113.5 -75t56.5 -123t15.5 -180v-479q0 -70 14.5 -90.5t73.5 -20.5v-168
q-17 -2 -53 -2q-93 0 -136 23t-59 85q-49 -65 -126.5 -91.5t-194.5 -26.5zM444 147q55 0 98.5 13.5t80 45t56 91t19.5 143.5v160h-45q-91 0 -151 -5t-112 -19.5t-80.5 -41.5t-44 -69.5t-15.5 -104.5q0 -118 48 -165.5t146 -47.5zM201 1255l227 332h182l230 -332h-160
l-162 197l-160 -197h-157zM301 1638l-129 72q85 172 227 172q45 0 90.5 -21t84 -42t65.5 -21q32 0 59 22.5t58 69.5l125 -71q-45 -87 -99 -129.5t-127 -42.5q-44 0 -90.5 19.5t-85 39.5t-63.5 20q-62 0 -115 -88z" />
    <glyph glyph-name="uni1EAC" unicode="&#x1eac;" horiz-adv-x="1224" 
d="M41 0l467 1528h209l467 -1528h-201l-94 315h-561l-90 -315h-197zM381 496h457l-228 753zM291 1604l229 331h182l228 -331h-160l-162 196l-162 -196h-155zM528 -367v230h193v-230h-193z" />
    <glyph glyph-name="uni1EAD" unicode="&#x1ead;" horiz-adv-x="1044" 
d="M406 -12q-183 0 -260.5 89.5t-77.5 264.5q0 98 24 170t68.5 119t117.5 75.5t162 40t211 11.5h47q-3 121 -43.5 173t-156.5 52q-155 0 -281 -61l-80 157q156 80 379 80q113 0 185.5 -23t113.5 -75t56.5 -123t15.5 -180v-479q0 -70 14.5 -90.5t73.5 -20.5v-168
q-17 -2 -53 -2q-93 0 -136 23t-59 85q-49 -65 -126.5 -91.5t-194.5 -26.5zM444 147q55 0 98.5 13.5t80 45t56 91t19.5 143.5v160h-45q-91 0 -151 -5t-112 -19.5t-80.5 -41.5t-44 -69.5t-15.5 -104.5q0 -118 48 -165.5t146 -47.5zM201 1255l229 332h182l228 -332h-160
l-162 197l-162 -197h-155zM418 -367v230h192v-230h-192z" />
    <glyph glyph-name="uni1EAE" unicode="&#x1eae;" horiz-adv-x="1224" 
d="M41 0l467 1528h209l467 -1528h-201l-94 315h-561l-90 -315h-197zM381 496h457l-228 753zM608 1593q-85 0 -145 19.5t-95.5 60t-54 90.5t-28.5 121l141 21q15 -85 53 -124.5t129 -39.5q90 0 128.5 40t51.5 124l146 -19q-11 -73 -30 -123t-55 -90.5t-95.5 -60t-145.5 -19.5
zM524 1982l232 334h213l-275 -334h-170z" />
    <glyph glyph-name="uni1EAF" unicode="&#x1eaf;" horiz-adv-x="1044" 
d="M406 -12q-183 0 -260.5 89.5t-77.5 264.5q0 98 24 170t68.5 119t117.5 75.5t162 40t211 11.5h47q-3 121 -43.5 173t-156.5 52q-155 0 -281 -61l-80 157q156 80 379 80q113 0 185.5 -23t113.5 -75t56.5 -123t15.5 -180v-479q0 -70 14.5 -90.5t73.5 -20.5v-168
q-17 -2 -53 -2q-93 0 -136 23t-59 85q-49 -65 -126.5 -91.5t-194.5 -26.5zM444 147q55 0 98.5 13.5t80 45t56 91t19.5 143.5v160h-45q-91 0 -151 -5t-112 -19.5t-80.5 -41.5t-44 -69.5t-15.5 -104.5q0 -118 48 -165.5t146 -47.5zM518 1245q-85 0 -145 19.5t-95.5 60
t-54 90.5t-28.5 121l141 20q15 -84 53 -123.5t129 -39.5q90 0 128.5 40t51.5 123l146 -18q-11 -73 -30 -123t-55 -90.5t-95.5 -60t-145.5 -19.5zM434 1634l232 334h213l-275 -334h-170z" />
    <glyph glyph-name="uni1EB0" unicode="&#x1eb0;" horiz-adv-x="1224" 
d="M41 0l467 1528h209l467 -1528h-201l-94 315h-561l-90 -315h-197zM381 496h457l-228 753zM608 1593q-86 0 -146 19.5t-96 60t-54 90.5t-27 121l141 21q15 -85 53 -124.5t129 -39.5q90 0 128 39t55 125l143 -19q-11 -73 -30 -123t-55 -90.5t-95.5 -60t-145.5 -19.5z
M524 1982l-276 334h215l229 -334h-168z" />
    <glyph glyph-name="uni1EB1" unicode="&#x1eb1;" horiz-adv-x="1044" 
d="M406 -12q-183 0 -260.5 89.5t-77.5 264.5q0 98 24 170t68.5 119t117.5 75.5t162 40t211 11.5h47q-3 121 -43.5 173t-156.5 52q-155 0 -281 -61l-80 157q156 80 379 80q113 0 185.5 -23t113.5 -75t56.5 -123t15.5 -180v-479q0 -70 14.5 -90.5t73.5 -20.5v-168
q-17 -2 -53 -2q-93 0 -136 23t-59 85q-49 -65 -126.5 -91.5t-194.5 -26.5zM444 147q55 0 98.5 13.5t80 45t56 91t19.5 143.5v160h-45q-91 0 -151 -5t-112 -19.5t-80.5 -41.5t-44 -69.5t-15.5 -104.5q0 -118 48 -165.5t146 -47.5zM518 1245q-86 0 -146 19.5t-96 60t-54 90.5
t-27 121l141 20q15 -84 53 -123.5t129 -39.5q90 0 127.5 39t54.5 124l144 -18q-11 -73 -30 -123t-55 -90.5t-95.5 -60t-145.5 -19.5zM434 1634l-276 334h215l229 -334h-168z" />
    <glyph glyph-name="uni1EB2" unicode="&#x1eb2;" horiz-adv-x="1224" 
d="M41 0l467 1528h209l467 -1528h-201l-94 315h-561l-90 -315h-197zM381 496h457l-228 753zM608 1593q-86 0 -146 19.5t-96 60t-54.5 90t-28.5 121.5l141 21q15 -84 54 -124t130 -40q89 0 127.5 39.5t55.5 124.5l143 -19q-11 -73 -29.5 -122.5t-54.5 -90.5t-96 -60.5
t-146 -19.5zM543 1960q-8 70 10 110.5t84 102.5q40 38 54 59.5t14 46.5q0 30 -22.5 51t-72.5 21q-73 0 -147 -43l-62 117q92 49 217 49q114 0 171 -49.5t57 -126.5q0 -54 -21.5 -93t-66.5 -81q-52 -51 -68.5 -81t-17.5 -83h-129z" />
    <glyph glyph-name="uni1EB3" unicode="&#x1eb3;" horiz-adv-x="1044" 
d="M406 -12q-183 0 -260.5 89.5t-77.5 264.5q0 98 24 170t68.5 119t117.5 75.5t162 40t211 11.5h47q-3 121 -43.5 173t-156.5 52q-155 0 -281 -61l-80 157q156 80 379 80q113 0 185.5 -23t113.5 -75t56.5 -123t15.5 -180v-479q0 -70 14.5 -90.5t73.5 -20.5v-168
q-17 -2 -53 -2q-93 0 -136 23t-59 85q-49 -65 -126.5 -91.5t-194.5 -26.5zM444 147q55 0 98.5 13.5t80 45t56 91t19.5 143.5v160h-45q-91 0 -151 -5t-112 -19.5t-80.5 -41.5t-44 -69.5t-15.5 -104.5q0 -118 48 -165.5t146 -47.5zM524 1245q-86 0 -146 19.5t-96 60t-54.5 90
t-28.5 121.5l141 20q15 -84 54 -123.5t130 -39.5q89 0 127.5 39.5t55.5 123.5l143 -18q-11 -73 -29.5 -122.5t-54.5 -90.5t-96 -60.5t-146 -19.5zM459 1612q-8 71 10 111.5t84 101.5q40 38 54 59.5t14 46.5q0 30 -22.5 51t-72.5 21q-73 0 -147 -43l-62 117q95 49 218 49
q113 0 170 -49.5t57 -126.5q0 -54 -21.5 -93t-66.5 -81q-52 -50 -68.5 -81t-17.5 -83h-129z" />
    <glyph glyph-name="uni1EB4" unicode="&#x1eb4;" horiz-adv-x="1224" 
d="M41 0l467 1528h209l467 -1528h-201l-94 315h-561l-90 -315h-197zM381 496h457l-228 753zM608 1593q-86 0 -146 19.5t-96 60t-54.5 90t-28.5 121.5l141 21q15 -84 54 -124t130 -40q89 0 127.5 39.5t55.5 124.5l143 -19q-11 -73 -29.5 -122.5t-54.5 -90.5t-96 -60.5
t-146 -19.5zM383 1987l-129 71q84 172 227 172q44 0 89.5 -21t84 -42t64.5 -21q34 0 59.5 21.5t57.5 70.5l127 -71q-45 -89 -99 -131.5t-129 -42.5q-43 0 -89 20.5t-84.5 41t-65.5 20.5q-59 0 -113 -88z" />
    <glyph glyph-name="uni1EB5" unicode="&#x1eb5;" horiz-adv-x="1044" 
d="M406 -12q-183 0 -260.5 89.5t-77.5 264.5q0 98 24 170t68.5 119t117.5 75.5t162 40t211 11.5h47q-3 121 -43.5 173t-156.5 52q-155 0 -281 -61l-80 157q156 80 379 80q113 0 185.5 -23t113.5 -75t56.5 -123t15.5 -180v-479q0 -70 14.5 -90.5t73.5 -20.5v-168
q-17 -2 -53 -2q-93 0 -136 23t-59 85q-49 -65 -126.5 -91.5t-194.5 -26.5zM444 147q55 0 98.5 13.5t80 45t56 91t19.5 143.5v160h-45q-91 0 -151 -5t-112 -19.5t-80.5 -41.5t-44 -69.5t-15.5 -104.5q0 -118 48 -165.5t146 -47.5zM524 1245q-86 0 -146 19.5t-96 60t-54.5 90
t-28.5 121.5l141 20q15 -84 54 -123.5t130 -39.5q89 0 127.5 39.5t55.5 123.5l143 -18q-11 -73 -29.5 -122.5t-54.5 -90.5t-96 -60.5t-146 -19.5zM299 1638l-129 72q84 172 227 172q44 0 89.5 -21t84 -42t64.5 -21q34 0 59.5 21.5t57.5 70.5l127 -71q-45 -89 -99 -131.5
t-129 -42.5q-43 0 -89 20.5t-84.5 40.5t-65.5 20q-60 0 -113 -88z" />
    <glyph glyph-name="uni1EB6" unicode="&#x1eb6;" horiz-adv-x="1224" 
d="M41 0l467 1528h209l467 -1528h-201l-94 315h-561l-90 -315h-197zM381 496h457l-228 753zM528 -367v230h193v-230h-193zM610 1593q-86 0 -146 19.5t-96 60t-54.5 90t-28.5 121.5l141 21q15 -84 54 -124t130 -40q89 0 128 40t53 124l143 -19q-11 -73 -29.5 -122.5
t-54.5 -90.5t-95 -60.5t-145 -19.5z" />
    <glyph glyph-name="uni1EB7" unicode="&#x1eb7;" horiz-adv-x="1044" 
d="M406 -12q-183 0 -260.5 89.5t-77.5 264.5q0 98 24 170t68.5 119t117.5 75.5t162 40t211 11.5h47q-3 121 -43.5 173t-156.5 52q-155 0 -281 -61l-80 157q156 80 379 80q113 0 185.5 -23t113.5 -75t56.5 -123t15.5 -180v-479q0 -70 14.5 -90.5t73.5 -20.5v-168
q-17 -2 -53 -2q-93 0 -136 23t-59 85q-49 -65 -126.5 -91.5t-194.5 -26.5zM444 147q55 0 98.5 13.5t80 45t56 91t19.5 143.5v160h-45q-91 0 -151 -5t-112 -19.5t-80.5 -41.5t-44 -69.5t-15.5 -104.5q0 -118 48 -165.5t146 -47.5zM416 -367v230h192v-230h-192zM520 1245
q-86 0 -146 19.5t-96 60t-54.5 90t-28.5 121.5l141 20q15 -84 54 -123.5t130 -39.5q89 0 128 40t52 123l144 -18q-11 -73 -29.5 -122.5t-54.5 -90.5t-95 -60.5t-145 -19.5z" />
    <glyph glyph-name="uni1EB8" unicode="&#x1eb8;" 
d="M133 0v1518h834v-183h-639v-461h606v-180h-606v-516h645v-178h-840zM469 -367v230h193v-230h-193z" />
    <glyph glyph-name="uni1EB9" unicode="&#x1eb9;" horiz-adv-x="978" 
d="M514 -14q-110 0 -189.5 27.5t-128 74.5t-76.5 123.5t-38 160t-10 199.5q0 112 11.5 197t41.5 161t79.5 124t128 76t185.5 28q58 0 106 -7.5t85 -22t66 -36t50 -49.5t36 -63t24 -75.5t14.5 -87.5t7 -100t2.5 -111t0 -122h-655q6 -174 62.5 -252.5t207.5 -78.5q69 0 128 11
t86.5 22t74.5 32l74 -147q-157 -84 -373 -84zM514 987q-75 0 -125 -22t-77.5 -67.5t-40 -103t-15.5 -141.5h475q-3 156 -18 210q-26 90 -110 114q-37 10 -89 10zM418 -367v230h192v-230h-192z" />
    <glyph glyph-name="uni1EBA" unicode="&#x1eba;" 
d="M133 0v1518h834v-183h-639v-461h606v-180h-606v-516h645v-178h-840zM489 1581q-7 72 10.5 112.5t82.5 100.5q40 40 54.5 61.5t14.5 45.5q0 29 -23 50t-71 21q-69 0 -149 -41l-62 113q88 51 217 51q114 0 171 -49t57 -127q0 -54 -21.5 -93.5t-67.5 -80.5
q-53 -54 -68.5 -82.5t-15.5 -81.5h-129z" />
    <glyph glyph-name="uni1EBB" unicode="&#x1ebb;" horiz-adv-x="978" 
d="M514 -14q-110 0 -189.5 27.5t-128 74.5t-76.5 123.5t-38 160t-10 199.5q0 112 11.5 197t41.5 161t79.5 124t128 76t185.5 28q58 0 106 -7.5t85 -22t66 -36t50 -49.5t36 -63t24 -75.5t14.5 -87.5t7 -100t2.5 -111t0 -122h-655q6 -174 62.5 -252.5t207.5 -78.5q69 0 128 11
t86.5 22t74.5 32l74 -147q-157 -84 -373 -84zM514 987q-75 0 -125 -22t-77.5 -67.5t-40 -103t-15.5 -141.5h475q-3 156 -18 210q-26 90 -110 114q-37 10 -89 10zM432 1235q-7 72 10 112.5t82 100.5q41 41 55.5 62t14.5 44q0 30 -23 51t-71 21q-70 0 -150 -41l-61 113
q88 51 217 51q114 0 170.5 -48.5t56.5 -127.5q0 -54 -21.5 -93t-66.5 -81q-53 -54 -68.5 -82.5t-15.5 -81.5h-129z" />
    <glyph glyph-name="uni1EBC" unicode="&#x1ebc;" 
d="M133 0v1518h834v-183h-639v-461h606v-180h-606v-516h645v-178h-840zM328 1618l-127 72q87 170 227 170q43 0 88.5 -21t84 -42t65.5 -21q33 0 58.5 22.5t57.5 71.5l125 -72q-84 -176 -225 -176q-44 0 -90 20.5t-85 41t-65 20.5q-33 0 -59 -20.5t-55 -65.5z" />
    <glyph glyph-name="uni1EBD" unicode="&#x1ebd;" horiz-adv-x="978" 
d="M514 -14q-110 0 -189.5 27.5t-128 74.5t-76.5 123.5t-38 160t-10 199.5q0 112 11.5 197t41.5 161t79.5 124t128 76t185.5 28q58 0 106 -7.5t85 -22t66 -36t50 -49.5t36 -63t24 -75.5t14.5 -87.5t7 -100t2.5 -111t0 -122h-655q6 -174 62.5 -252.5t207.5 -78.5q69 0 128 11
t86.5 22t74.5 32l74 -147q-157 -84 -373 -84zM514 987q-75 0 -125 -22t-77.5 -67.5t-40 -103t-15.5 -141.5h475q-3 156 -18 210q-26 90 -110 114q-37 10 -89 10zM274 1249l-127 72q87 170 228 170q43 0 88.5 -21t83.5 -42t65 -21q33 0 59 22.5t58 71.5l125 -71
q-85 -177 -225 -177q-44 0 -90 20.5t-85 41t-65 20.5q-33 0 -59.5 -20.5t-55.5 -65.5z" />
    <glyph glyph-name="uni1EBE" unicode="&#x1ebe;" 
d="M221 1604l225 331h185l227 -331h-160l-161 196l-160 -196h-156zM-31 1778l230 336h215l-277 -336h-168zM133 0v1518h834v-183h-639v-461h606v-180h-606v-516h645v-178h-840z" />
    <glyph glyph-name="uni1EBF" unicode="&#x1ebf;" horiz-adv-x="978" 
d="M174 1255l225 332h185l227 -332h-160l-162 197l-159 -197h-156zM-78 1430l230 335h215l-277 -335h-168zM514 -14q-110 0 -189.5 27.5t-128 74.5t-76.5 123.5t-38 160t-10 199.5q0 112 11.5 197t41.5 161t79.5 124t128 76t185.5 28q58 0 106 -7.5t85 -22t66 -36t50 -49.5
t36 -63t24 -75.5t14.5 -87.5t7 -100t2.5 -111t0 -122h-655q6 -174 62.5 -252.5t207.5 -78.5q69 0 128 11t86.5 22t74.5 32l74 -147q-157 -84 -373 -84zM514 987q-75 0 -125 -22t-77.5 -67.5t-40 -103t-15.5 -141.5h475q-3 156 -18 210q-26 90 -110 114q-37 10 -89 10z" />
    <glyph glyph-name="uni1EC0" unicode="&#x1ec0;" 
d="M219 1604l230 331h180l227 -331h-158l-161 196l-164 -196h-154zM942 1778l-276 336h215l231 -336h-170zM133 0v1518h834v-183h-639v-461h606v-180h-606v-516h645v-178h-840z" />
    <glyph glyph-name="uni1EC1" unicode="&#x1ec1;" horiz-adv-x="978" 
d="M168 1255l229 332h181l227 -332h-158l-162 197l-163 -197h-154zM891 1430l-277 335h215l232 -335h-170zM514 -14q-110 0 -189.5 27.5t-128 74.5t-76.5 123.5t-38 160t-10 199.5q0 112 11.5 197t41.5 161t79.5 124t128 76t185.5 28q58 0 106 -7.5t85 -22t66 -36t50 -49.5
t36 -63t24 -75.5t14.5 -87.5t7 -100t2.5 -111t0 -122h-655q6 -174 62.5 -252.5t207.5 -78.5q69 0 128 11t86.5 22t74.5 32l74 -147q-157 -84 -373 -84zM514 987q-75 0 -125 -22t-77.5 -67.5t-40 -103t-15.5 -141.5h475q-3 156 -18 210q-26 90 -110 114q-37 10 -89 10z" />
    <glyph glyph-name="uni1EC2" unicode="&#x1ec2;" 
d="M133 0v1518h834v-183h-639v-461h606v-180h-606v-516h645v-178h-840zM219 1604l230 331h182l227 -331h-160l-159 196l-162 -196h-158zM473 1989q-6 71 11.5 110.5t82.5 100.5q42 40 56 60.5t14 47.5t-23 47.5t-73 20.5q-75 0 -148 -41l-61 114q99 52 219 52
q113 0 169 -49.5t56 -127.5q0 -54 -20.5 -93t-65.5 -81q-53 -53 -69.5 -82t-16.5 -79h-131z" />
    <glyph glyph-name="uni1EC3" unicode="&#x1ec3;" horiz-adv-x="978" 
d="M514 -14q-110 0 -189.5 27.5t-128 74.5t-76.5 123.5t-38 160t-10 199.5q0 112 11.5 197t41.5 161t79.5 124t128 76t185.5 28q58 0 106 -7.5t85 -22t66 -36t50 -49.5t36 -63t24 -75.5t14.5 -87.5t7 -100t2.5 -111t0 -122h-655q6 -174 62.5 -252.5t207.5 -78.5q69 0 128 11
t86.5 22t74.5 32l74 -147q-157 -84 -373 -84zM514 987q-75 0 -125 -22t-77.5 -67.5t-40 -103t-15.5 -141.5h475q-3 156 -18 210q-26 90 -110 114q-37 10 -89 10zM168 1255l229 332h183l227 -332h-160l-160 197l-161 -197h-158zM422 1640q-6 72 11 111t83 100q42 42 56 62.5
t14 46.5q0 27 -23 47.5t-74 20.5q-74 0 -147 -41l-61 114q97 51 219 51q112 0 168.5 -49t56.5 -127q0 -55 -20.5 -94t-65.5 -80q-53 -52 -69.5 -81.5t-16.5 -80.5h-131z" />
    <glyph glyph-name="uni1EC4" unicode="&#x1ec4;" 
d="M133 0v1518h834v-183h-639v-461h606v-180h-606v-516h645v-178h-840zM219 1604l227 331h183l229 -331h-160l-161 196l-160 -196h-158zM319 1987l-129 71q44 87 99.5 129.5t128.5 42.5q44 0 89.5 -21t84 -42t65.5 -21q32 0 59 22.5t58 69.5l125 -71q-87 -172 -225 -172
q-45 0 -91.5 20t-84.5 40t-64 20q-61 0 -115 -88z" />
    <glyph glyph-name="uni1EC5" unicode="&#x1ec5;" horiz-adv-x="978" 
d="M514 -14q-110 0 -189.5 27.5t-128 74.5t-76.5 123.5t-38 160t-10 199.5q0 112 11.5 197t41.5 161t79.5 124t128 76t185.5 28q58 0 106 -7.5t85 -22t66 -36t50 -49.5t36 -63t24 -75.5t14.5 -87.5t7 -100t2.5 -111t0 -122h-655q6 -174 62.5 -252.5t207.5 -78.5q69 0 128 11
t86.5 22t74.5 32l74 -147q-157 -84 -373 -84zM514 987q-75 0 -125 -22t-77.5 -67.5t-40 -103t-15.5 -141.5h475q-3 156 -18 210q-26 90 -110 114q-37 10 -89 10zM168 1255l227 332h183l229 -332h-160l-162 197l-159 -197h-158zM268 1638l-129 72q44 87 99.5 129.5
t128.5 42.5q44 0 89.5 -21t84 -42t65.5 -21q32 0 59 22.5t58 69.5l125 -71q-87 -172 -225 -172q-45 0 -91.5 19.5t-85 39.5t-63.5 20q-62 0 -115 -88z" />
    <glyph glyph-name="uni1EC6" unicode="&#x1ec6;" 
d="M219 1604l230 331h182l227 -331h-160l-161 196l-162 -196h-156zM133 0v1518h834v-183h-639v-461h606v-180h-606v-516h645v-178h-840zM469 -367v230h193v-230h-193z" />
    <glyph glyph-name="uni1EC7" unicode="&#x1ec7;" horiz-adv-x="978" 
d="M170 1255l229 332h183l227 -332h-160l-162 197l-161 -197h-156zM514 -14q-110 0 -189.5 27.5t-128 74.5t-76.5 123.5t-38 160t-10 199.5q0 112 11.5 197t41.5 161t79.5 124t128 76t185.5 28q58 0 106 -7.5t85 -22t66 -36t50 -49.5t36 -63t24 -75.5t14.5 -87.5t7 -100
t2.5 -111t0 -122h-655q6 -174 62.5 -252.5t207.5 -78.5q69 0 128 11t86.5 22t74.5 32l74 -147q-157 -84 -373 -84zM514 987q-75 0 -125 -22t-77.5 -67.5t-40 -103t-15.5 -141.5h475q-3 156 -18 210q-26 90 -110 114q-37 10 -89 10zM418 -367v230h192v-230h-192z" />
    <glyph glyph-name="uni1EC8" unicode="&#x1ec8;" horiz-adv-x="491" 
d="M147 0v1518h199v-1518h-199zM184 1581q-7 72 10 112.5t82 100.5q41 40 55.5 61.5t14.5 45.5q0 29 -23 50t-71 21q-70 0 -150 -41l-61 113q88 51 217 51q114 0 170.5 -48.5t56.5 -127.5q0 -54 -21.5 -93.5t-66.5 -80.5q-53 -54 -68.5 -82.5t-15.5 -81.5h-129z" />
    <glyph glyph-name="uni1EC9" unicode="&#x1ec9;" horiz-adv-x="436" 
d="M121 0v1137h192v-1137h-192zM156 1235q-8 72 9.5 112.5t82.5 100.5q40 40 54.5 61.5t14.5 44.5q0 30 -23 51t-71 21q-69 0 -149 -41l-62 113q90 51 217 51q114 0 171 -49t57 -127q0 -54 -21.5 -93t-66.5 -81q-53 -53 -68.5 -81.5t-15.5 -82.5h-129z" />
    <glyph glyph-name="uni1ECA" unicode="&#x1eca;" horiz-adv-x="491" 
d="M147 0v1518h199v-1518h-199zM154 -367v230h192v-230h-192z" />
    <glyph glyph-name="uni1ECB" unicode="&#x1ecb;" horiz-adv-x="436" 
d="M121 0v1137h192v-1137h-192zM121 1276v231h194v-231h-194zM125 -367v230h192v-230h-192z" />
    <glyph glyph-name="uni1ECC" unicode="&#x1ecc;" horiz-adv-x="1286" 
d="M645 -16q-107 0 -193 21.5t-145.5 58t-103.5 94t-69.5 119t-40.5 145t-20 160.5t-5 176t5 176t20 161t40.5 145.5t69.5 119.5t103.5 94.5t145.5 58t193 21.5q84 0 154 -13t124 -36t97.5 -59t74 -77t53 -95t36 -107.5t21.5 -121.5t11 -129.5t3 -137.5q0 -99 -5 -176
t-20 -160.5t-40.5 -145t-69 -119.5t-103 -94t-144.5 -57.5t-192 -21.5zM645 162q72 0 128 15.5t95 41.5t67 69t44.5 88.5t25.5 110.5t12 124.5t3 140.5t-3 140.5t-12.5 124.5t-26 111t-44.5 89t-67 69t-95 41.5t-127 15.5q-63 0 -114 -11t-89 -34t-66.5 -52t-47.5 -71.5
t-31 -85.5t-18.5 -101.5t-8.5 -112t-2 -123.5q0 -81 3 -140.5t12 -124.5t25.5 -110.5t44.5 -88.5t67.5 -69t96 -41.5t128.5 -15.5zM547 -367v230h192v-230h-192z" />
    <glyph glyph-name="uni1ECD" unicode="&#x1ecd;" horiz-adv-x="1052" 
d="M526 -16q-112 0 -193.5 29.5t-131 78.5t-79 126.5t-40 160t-10.5 192.5q0 109 10 191t39 159.5t78.5 127t131.5 79t195 29.5t195.5 -30t132 -79.5t78.5 -127.5t39 -159.5t10 -189.5q0 -111 -10 -193.5t-39 -160t-78.5 -126.5t-132 -78t-195.5 -29zM526 152q58 0 102 13.5
t72 42t46 62t27 84.5t12 98t3 113t-3 113t-12 98t-27 84.5t-46 61.5t-72 41.5t-102 13.5q-69 0 -117.5 -21t-76.5 -55t-43.5 -90.5t-20 -111t-4.5 -134.5q0 -65 3 -112.5t12.5 -98t27.5 -84.5t46.5 -62.5t72 -42t100.5 -13.5zM426 -367v230h192v-230h-192z" />
    <glyph glyph-name="uni1ECE" unicode="&#x1ece;" horiz-adv-x="1286" 
d="M645 -16q-107 0 -193 21.5t-145.5 58t-103.5 94t-69.5 119t-40.5 145t-20 160.5t-5 176t5 176t20 161t40.5 145.5t69.5 119.5t103.5 94.5t145.5 58t193 21.5q84 0 154 -13t124 -36t97.5 -59t74 -77t53 -95t36 -107.5t21.5 -121.5t11 -129.5t3 -137.5q0 -99 -5 -176
t-20 -160.5t-40.5 -145t-69 -119.5t-103 -94t-144.5 -57.5t-192 -21.5zM645 162q72 0 128 15.5t95 41.5t67 69t44.5 88.5t25.5 110.5t12 124.5t3 140.5t-3 140.5t-12.5 124.5t-26 111t-44.5 89t-67 69t-95 41.5t-127 15.5q-63 0 -114 -11t-89 -34t-66.5 -52t-47.5 -71.5
t-31 -85.5t-18.5 -101.5t-8.5 -112t-2 -123.5q0 -81 3 -140.5t12 -124.5t25.5 -110.5t44.5 -88.5t67.5 -69t96 -41.5t128.5 -15.5zM575 1604q-7 72 10.5 112.5t82.5 100.5q41 41 55 61.5t14 44.5q0 30 -23 51t-71 21q-65 0 -149 -41l-62 112q90 52 217 52q114 0 171 -49
t57 -127q0 -54 -21.5 -93.5t-67.5 -81.5q-52 -52 -67.5 -81t-15.5 -82h-130z" />
    <glyph glyph-name="uni1ECF" unicode="&#x1ecf;" horiz-adv-x="1052" 
d="M526 -16q-112 0 -193.5 29.5t-131 78.5t-79 126.5t-40 160t-10.5 192.5q0 109 10 191t39 159.5t78.5 127t131.5 79t195 29.5t195.5 -30t132 -79.5t78.5 -127.5t39 -159.5t10 -189.5q0 -111 -10 -193.5t-39 -160t-78.5 -126.5t-132 -78t-195.5 -29zM526 152q58 0 102 13.5
t72 42t46 62t27 84.5t12 98t3 113t-3 113t-12 98t-27 84.5t-46 61.5t-72 41.5t-102 13.5q-69 0 -117.5 -21t-76.5 -55t-43.5 -90.5t-20 -111t-4.5 -134.5q0 -65 3 -112.5t12.5 -98t27.5 -84.5t46.5 -62.5t72 -42t100.5 -13.5zM457 1235q-8 72 9.5 112.5t82.5 100.5
q40 40 54.5 61.5t14.5 44.5q0 30 -23 51t-71 21q-69 0 -149 -41l-62 113q90 51 217 51q114 0 171 -49t57 -127q0 -54 -21.5 -93t-66.5 -81q-53 -53 -68.5 -81.5t-15.5 -82.5h-129z" />
    <glyph glyph-name="uni1ED0" unicode="&#x1ed0;" horiz-adv-x="1286" 
d="M324 1604l225 331h184l228 -331h-160l-162 196l-160 -196h-155zM72 1778l229 336h215l-276 -336h-168zM645 -16q-107 0 -193 21.5t-145.5 58t-103.5 94t-69.5 119t-40.5 145t-20 160.5t-5 176t5 176t20 161t40.5 145.5t69.5 119.5t103.5 94.5t145.5 58t193 21.5
q84 0 154 -13t124 -36t97.5 -59t74 -77t53 -95t36 -107.5t21.5 -121.5t11 -129.5t3 -137.5q0 -99 -5 -176t-20 -160.5t-40.5 -145t-69 -119.5t-103 -94t-144.5 -57.5t-192 -21.5zM645 162q72 0 128 15.5t95 41.5t67 69t44.5 88.5t25.5 110.5t12 124.5t3 140.5t-3 140.5
t-12.5 124.5t-26 111t-44.5 89t-67 69t-95 41.5t-127 15.5q-63 0 -114 -11t-89 -34t-66.5 -52t-47.5 -71.5t-31 -85.5t-18.5 -101.5t-8.5 -112t-2 -123.5q0 -81 3 -140.5t12 -124.5t25.5 -110.5t44.5 -88.5t67.5 -69t96 -41.5t128.5 -15.5z" />
    <glyph glyph-name="uni1ED1" unicode="&#x1ed1;" horiz-adv-x="1052" 
d="M211 1255l225 332h185l227 -332h-160l-162 197l-159 -197h-156zM-41 1430l229 335h215l-276 -335h-168zM526 -16q-112 0 -193.5 29.5t-131 78.5t-79 126.5t-40 160t-10.5 192.5q0 109 10 191t39 159.5t78.5 127t131.5 79t195 29.5t195.5 -30t132 -79.5t78.5 -127.5
t39 -159.5t10 -189.5q0 -111 -10 -193.5t-39 -160t-78.5 -126.5t-132 -78t-195.5 -29zM526 152q58 0 102 13.5t72 42t46 62t27 84.5t12 98t3 113t-3 113t-12 98t-27 84.5t-46 61.5t-72 41.5t-102 13.5q-69 0 -117.5 -21t-76.5 -55t-43.5 -90.5t-20 -111t-4.5 -134.5
q0 -65 3 -112.5t12.5 -98t27.5 -84.5t46.5 -62.5t72 -42t100.5 -13.5z" />
    <glyph glyph-name="uni1ED2" unicode="&#x1ed2;" horiz-adv-x="1286" 
d="M324 1604l229 331h180l228 -331h-158l-162 196l-164 -196h-153zM1047 1778l-277 336h215l232 -336h-170zM645 -16q-107 0 -193 21.5t-145.5 58t-103.5 94t-69.5 119t-40.5 145t-20 160.5t-5 176t5 176t20 161t40.5 145.5t69.5 119.5t103.5 94.5t145.5 58t193 21.5
q84 0 154 -13t124 -36t97.5 -59t74 -77t53 -95t36 -107.5t21.5 -121.5t11 -129.5t3 -137.5q0 -99 -5 -176t-20 -160.5t-40.5 -145t-69 -119.5t-103 -94t-144.5 -57.5t-192 -21.5zM645 162q72 0 128 15.5t95 41.5t67 69t44.5 88.5t25.5 110.5t12 124.5t3 140.5t-3 140.5
t-12.5 124.5t-26 111t-44.5 89t-67 69t-95 41.5t-127 15.5q-63 0 -114 -11t-89 -34t-66.5 -52t-47.5 -71.5t-31 -85.5t-18.5 -101.5t-8.5 -112t-2 -123.5q0 -81 3 -140.5t12 -124.5t25.5 -110.5t44.5 -88.5t67.5 -69t96 -41.5t128.5 -15.5z" />
    <glyph glyph-name="uni1ED3" unicode="&#x1ed3;" horiz-adv-x="1052" 
d="M203 1255l229 332h180l228 -332h-158l-162 197l-164 -197h-153zM926 1430l-277 335h215l232 -335h-170zM526 -16q-112 0 -193.5 29.5t-131 78.5t-79 126.5t-40 160t-10.5 192.5q0 109 10 191t39 159.5t78.5 127t131.5 79t195 29.5t195.5 -30t132 -79.5t78.5 -127.5
t39 -159.5t10 -189.5q0 -111 -10 -193.5t-39 -160t-78.5 -126.5t-132 -78t-195.5 -29zM526 152q58 0 102 13.5t72 42t46 62t27 84.5t12 98t3 113t-3 113t-12 98t-27 84.5t-46 61.5t-72 41.5t-102 13.5q-69 0 -117.5 -21t-76.5 -55t-43.5 -90.5t-20 -111t-4.5 -134.5
q0 -65 3 -112.5t12.5 -98t27.5 -84.5t46.5 -62.5t72 -42t100.5 -13.5z" />
    <glyph glyph-name="uni1ED4" unicode="&#x1ed4;" horiz-adv-x="1286" 
d="M322 1604l229 331h182l228 -331h-160l-160 196l-162 -196h-157zM575 1989q-6 71 11.5 110.5t83.5 100.5q42 40 55.5 60.5t13.5 47.5q0 28 -22.5 48t-73.5 20q-74 0 -147 -41l-62 114q101 52 219 52q113 0 169.5 -49.5t56.5 -127.5q0 -54 -20.5 -93t-65.5 -81
q-53 -52 -69.5 -81.5t-16.5 -79.5h-132zM645 -16q-107 0 -193 21.5t-145.5 58t-103.5 94t-69.5 119t-40.5 145t-20 160.5t-5 176t5 176t20 161t40.5 145.5t69.5 119.5t103.5 94.5t145.5 58t193 21.5q84 0 154 -13t124 -36t97.5 -59t74 -77t53 -95t36 -107.5t21.5 -121.5
t11 -129.5t3 -137.5q0 -99 -5 -176t-20 -160.5t-40.5 -145t-69 -119.5t-103 -94t-144.5 -57.5t-192 -21.5zM645 162q72 0 128 15.5t95 41.5t67 69t44.5 88.5t25.5 110.5t12 124.5t3 140.5t-3 140.5t-12.5 124.5t-26 111t-44.5 89t-67 69t-95 41.5t-127 15.5q-63 0 -114 -11
t-89 -34t-66.5 -52t-47.5 -71.5t-31 -85.5t-18.5 -101.5t-8.5 -112t-2 -123.5q0 -81 3 -140.5t12 -124.5t25.5 -110.5t44.5 -88.5t67.5 -69t96 -41.5t128.5 -15.5z" />
    </font>
</defs>
</svg>
