<?xml version="1.0" standalone="no"?>
<!DOCTYPE svg PUBLIC "-//W3C//DTD SVG 1.1//EN" "http://www.w3.org/Graphics/SVG/1.1/DTD/svg11.dtd" >
<svg>
<metadata>
Created by FontForge 20090622 at Fri Aug 10 12:11:17 2018
 By deploy user
Copyright (c) The Font Bureau, Inc., 2006. All rights reserved.
</metadata>
<defs>
<font id="FordAntennaCond-Medium" horiz-adv-x="1331" >
  <font-face 
    font-family="Ford Antenna Cond Medium"
    font-weight="500"
    font-stretch="normal"
    units-per-em="2048"
    panose-1="2 0 5 6 0 0 0 9 0 4"
    ascent="1638"
    descent="-410"
    x-height="1145"
    cap-height="1518"
    bbox="-143 -524 2750 2527"
    underline-thickness="102"
    underline-position="-102"
    unicode-range="U+0020-U+FB04"
  />
<missing-glyph horiz-adv-x="1024" 
d="M0 0v1434h1024v-1434h-1024zM102 1331v-1229h820v1229h-820z" />
    <glyph glyph-name="f_f" unicode="ff" horiz-adv-x="1296" 
d="M786 0v944h-342v-944h-229v944h-182v201h182v104q0 160 83.5 244t266.5 84h99v-201h-78q-85 0 -113.5 -36t-28.5 -115v-80h342v104q0 160 84.5 244t268.5 84q114 0 141 -2v-199h-123q-84 0 -112.5 -36t-28.5 -115v-80h264v-201h-264v-944h-230z" />
    <glyph glyph-name="fi" unicode="fi" horiz-adv-x="1134" 
d="M33 944v201h182v104q0 160 83.5 244t266.5 84h99v-201h-78q-85 0 -113.5 -36t-28.5 -115v-80h220v-201h-220v-944h-229v944h-182zM786 0v1145h230v-1145h-230zM786 1272v246h230v-246h-230z" />
    <glyph glyph-name="fl" unicode="fl" horiz-adv-x="1214" 
d="M33 944v201h182v104q0 160 83.5 244t266.5 84h99v-201h-78q-85 0 -113.5 -36t-28.5 -115v-80h220v-201h-220v-944h-229v944h-182zM1145 0q-10 -2 -80 -2q-155 0 -217 62.5t-62 226.5v1288h230v-1260q0 -39 2.5 -57t16 -33t38.5 -19.5t72 -4.5v-201z" />
    <glyph glyph-name="f_f_i" unicode="ffi" horiz-adv-x="1705" 
d="M786 0v944h-342v-944h-229v944h-182v201h182v104q0 160 83.5 244t266.5 84h99v-201h-78q-85 0 -113.5 -36t-28.5 -115v-80h342v104q0 160 84.5 244t268.5 84h96v-201h-78q-84 0 -112.5 -36t-28.5 -115v-80h219v-201h-219v-944h-230zM1360 0v1145h229v-1145h-229z
M1358 1272v246h231v-246h-231z" />
    <glyph glyph-name="f_f_l" unicode="ffl" horiz-adv-x="1787" 
d="M786 0v944h-342v-944h-229v944h-182v201h182v104q0 160 83.5 244t266.5 84h99v-201h-78q-85 0 -113.5 -36t-28.5 -115v-80h342v104q0 160 84.5 244t268.5 84h96v-201h-78q-84 0 -112.5 -36t-28.5 -115v-80h219v-201h-219v-944h-230zM1718 0q-10 -2 -82 -2
q-153 0 -214.5 62.5t-61.5 226.5v1288h229v-1260q0 -39 2.5 -56.5t15.5 -33.5t38 -20t73 -4v-201z" />
    <glyph glyph-name="f_j" unicode="fj" horiz-adv-x="1134" 
d="M33 944v201h182v104q0 160 83.5 244t266.5 84h99v-201h-78q-85 0 -113.5 -36t-28.5 -115v-80h220v-201h-220v-944h-229v944h-182zM674 -324v187h18q60 0 77 26.5t17 102.5v1153h230v-1161q0 -173 -64 -240.5t-243 -67.5h-35zM786 1272v246h230v-246h-230z" />
    <glyph glyph-name="f_t" unicode="ft" horiz-adv-x="1382" 
d="M33 944v201h182v104q0 160 83.5 244t266.5 84h99v-201h-78q-85 0 -113.5 -36t-28.5 -115v-80h377l37 289l184 39v-328h267v-201h-267v-600q0 -78 26 -110.5t112 -32.5h129v-201q-117 -6 -156 -6q-102 0 -168 18t-104 59.5t-53 99.5t-15 148v625h-369v-944h-229v944h-182z
" />
    <glyph glyph-name=".notdef" horiz-adv-x="1024" 
d="M0 0v1434h1024v-1434h-1024zM102 1331v-1229h820v1229h-820z" />
    <glyph glyph-name=".null" horiz-adv-x="0" 
 />
    <glyph glyph-name="nonmarkingreturn" horiz-adv-x="682" 
 />
    <glyph glyph-name="space" unicode=" " horiz-adv-x="362" 
 />
    <glyph glyph-name="exclam" unicode="!" horiz-adv-x="653" 
d="M190 0v289h271v-289h-271zM223 444l-20 1074h250l-23 -1074h-207z" />
    <glyph glyph-name="quotedbl" unicode="&#x22;" horiz-adv-x="925" 
d="M160 868l-10 650h235l-10 -650h-215zM553 868l-12 650h237l-14 -650h-211z" />
    <glyph glyph-name="numbersign" unicode="#" horiz-adv-x="1249" 
d="M195 0l63 424h-166v211h199l31 215h-230v209h262l68 459h219l-70 -459h199l68 459h217l-70 -459h170v-209h-201l-32 -215h233v-211h-266l-64 -424h-215l64 424h-199l-63 -424h-217zM487 618h232l39 246h-234z" />
    <glyph glyph-name="dollar" unicode="$" horiz-adv-x="1118" 
d="M457 -188v188q-225 16 -385 129l108 172q168 -111 373 -111q136 0 192 55.5t56 164.5q0 53 -15.5 91.5t-51.5 69t-79.5 53t-115.5 50.5q-166 65 -226 100q-129 77 -166 200q-18 60 -18 136q0 181 78.5 280t247.5 121v175h221v-173q164 -19 295 -88l-105 -184
q-127 70 -297 70q-118 0 -166.5 -50t-48.5 -145q0 -86 56.5 -135t191.5 -100q170 -65 242 -111q149 -97 175 -261q7 -40 7 -85q0 -189 -81.5 -292.5t-268.5 -127.5v-192h-219z" />
    <glyph glyph-name="percent" unicode="%" horiz-adv-x="2000" 
d="M430 553q-125 0 -205 46.5t-122 155.5t-42 287q0 265 90 377.5t279 112.5q191 0 282 -112.5t91 -377.5q0 -263 -91.5 -376t-281.5 -113zM432 727q90 0 127 68t37 241q0 175 -37 243.5t-127 68.5t-127 -68.5t-37 -243.5q0 -173 37 -241t127 -68zM1569 -14
q-190 0 -279.5 112t-89.5 377t90 378.5t279 113.5q190 0 280 -114t90 -378q0 -265 -90 -377t-280 -112zM1569 160q91 0 129.5 68.5t38.5 240.5q0 174 -38.5 242.5t-129.5 68.5q-89 0 -126.5 -68.5t-37.5 -242.5q0 -172 37.5 -240.5t126.5 -68.5zM557 0l676 1518h215
l-678 -1518h-213z" />
    <glyph glyph-name="ampersand" unicode="&#x26;" horiz-adv-x="1400" 
d="M547 -14q-248 0 -363.5 106t-115.5 320q0 80 22 147.5t65 121t90 92.5t113 81q-116 178 -116 346q0 344 346 344q169 0 252.5 -85t83.5 -259q0 -68 -20.5 -128t-60 -109.5t-81 -86.5t-98.5 -77l112 -131l185 -215q25 61 44.5 153t27.5 146.5t26 193.5l203 -24
q-27 -220 -61 -372t-93 -265l246 -285h-285l-98 113q-153 -127 -424 -127zM547 180q180 0 291 90l-242 283l-123 145q-84 -64 -130 -129.5t-46 -146.5q0 -42 4.5 -73.5t20 -65t42 -55t73 -35t110.5 -13.5zM463 1200q0 -114 86 -250q164 119 164 250q0 72 -28 109t-97 37
q-71 0 -98 -36t-27 -110z" />
    <glyph glyph-name="quotesingle" unicode="'" horiz-adv-x="534" 
d="M160 868l-10 650h237l-12 -650h-215z" />
    <glyph glyph-name="parenleft" unicode="(" horiz-adv-x="847" 
d="M520 -358q-63 63 -119.5 149.5t-110 207t-85 282.5t-31.5 340q0 167 32 326.5t84.5 283t110.5 217t119 154.5l170 -109q-282 -341 -282 -870q0 -162 26.5 -307.5t71 -252.5t89.5 -182t95 -131z" />
    <glyph glyph-name="parenright" unicode=")" horiz-adv-x="847" 
d="M328 -358l-168 108q280 348 280 873q0 161 -26.5 306t-71 252t-89 181.5t-93.5 130.5l168 109q63 -63 120 -150t110 -207.5t84.5 -282t31.5 -339.5q0 -168 -31.5 -328t-84 -283t-110.5 -216t-120 -154z" />
    <glyph glyph-name="asterisk" unicode="*" horiz-adv-x="1017" 
d="M414 584l22 327l-248 -178l-100 168l281 150l-281 153l98 164l250 -178l-22 330h184l-18 -334l249 184l101 -164l-283 -155l283 -152l-99 -164l-251 178l18 -329h-184z" />
    <glyph glyph-name="plus" unicode="+" horiz-adv-x="1187" 
d="M485 242v379h-317v200h317v377h217v-377h318v-200h-318v-379h-217z" />
    <glyph glyph-name="comma" unicode="," horiz-adv-x="471" 
d="M166 -266l-66 119q82 44 102.5 67.5t20.5 79.5h-123v293h271v-273q0 -113 -37.5 -168t-167.5 -118z" />
    <glyph glyph-name="hyphen" unicode="-" horiz-adv-x="718" 
d="M72 551v211h573v-211h-573z" />
    <glyph glyph-name="hyphen" unicode="&#xad;" horiz-adv-x="718" 
d="M72 551v211h573v-211h-573z" />
    <glyph glyph-name="period" unicode="." horiz-adv-x="471" 
d="M100 0v293h271v-293h-271z" />
    <glyph glyph-name="slash" unicode="/" horiz-adv-x="917" 
d="M0 0l686 1518h232l-687 -1518h-231z" />
    <glyph glyph-name="zero" unicode="0" horiz-adv-x="1241" 
d="M623 -16q-94 0 -166.5 16.5t-126.5 46.5t-92 81t-62.5 110t-38.5 143.5t-19 172t-5 204.5q0 101 4 179t13.5 155.5t27 134t44.5 108.5t65 87t89 61.5t117.5 38.5t149.5 12q93 0 165.5 -17.5t125.5 -48t91 -82.5t61.5 -111.5t37.5 -144t19 -171t5 -201.5q0 -118 -5 -206.5
t-18.5 -173t-37.5 -143t-62 -109t-91.5 -80t-125.5 -46t-165 -16.5zM623 197q68 0 115 20t78 59.5t48 109.5t24 157t7 215q0 126 -7 213t-25 155.5t-49 107.5t-77.5 59t-113.5 20q-69 0 -116.5 -20t-79 -58.5t-48.5 -108t-24 -155.5t-7 -213q0 -128 7 -215t24 -157
t48.5 -109.5t79 -59.5t116.5 -20z" />
    <glyph glyph-name="one" unicode="1" horiz-adv-x="667" 
d="M264 0v1307h-217v211h447v-1518h-230z" />
    <glyph glyph-name="two" unicode="2" horiz-adv-x="1042" 
d="M63 0v184l351 414q127 149 186.5 239t75.5 145t16 134q0 106 -47.5 153.5t-167.5 47.5q-159 0 -303 -72l-100 193q189 96 440 96q218 0 314 -94.5t96 -290.5q0 -118 -27.5 -204t-96.5 -187.5t-222 -284.5l-228 -270h594v-203h-881z" />
    <glyph glyph-name="three" unicode="3" horiz-adv-x="1042" 
d="M477 -16q-139 0 -235.5 24t-188.5 76l105 188q77 -40 146.5 -59.5t158.5 -19.5q146 0 202 58.5t56 213.5q0 64 -9.5 104.5t-37 74t-81.5 48.5t-140 15h-191v202h199q130 0 177.5 50.5t47.5 152.5q0 121 -50.5 163t-170.5 42q-146 0 -293 -70l-96 187q176 100 424 100
q106 0 178.5 -16t127.5 -56t81 -112t26 -181q0 -150 -34.5 -229t-116.5 -111q109 -33 148.5 -116t39.5 -271q0 -252 -112.5 -355t-360.5 -103z" />
    <glyph glyph-name="four" unicode="4" horiz-adv-x="1146" 
d="M68 330v180l530 1008h242l-527 -996h375l47 453h166v-453h197v-192h-197v-330h-215v330h-618z" />
    <glyph glyph-name="five" unicode="5" horiz-adv-x="1085" 
d="M520 -16q-272 0 -461 102l105 188q152 -81 342 -81q74 0 121 12t82.5 45t51 94t15.5 156q0 93 -15 152.5t-49 91t-76 42.5t-108 11q-142 0 -235 -72l-178 51l39 742h780v-211h-586l-18 -365q95 64 276 64q144 0 229 -43.5t129 -154t44 -304.5q0 -128 -20.5 -219.5
t-58 -149.5t-99.5 -91.5t-135 -46.5t-175 -13z" />
    <glyph glyph-name="six" unicode="6" horiz-adv-x="1177" 
d="M614 -16q-84 0 -151.5 10.5t-118.5 33t-89 51.5t-64.5 73.5t-43 91t-25.5 111.5t-12.5 127.5t-3.5 146.5q0 333 31 483q43 206 174 299q149 107 467 107h137v-211h-149q-77 0 -137.5 -9.5t-103.5 -25.5t-74.5 -44t-51 -57.5t-32 -73.5t-18 -84.5t-9.5 -97.5
q89 115 348 115q101 0 174.5 -24.5t118 -65.5t71 -107.5t35.5 -138t9 -168.5q0 -141 -22.5 -238t-77 -167.5t-148.5 -103.5t-234 -33zM618 186q143 0 195.5 80t52.5 258q0 164 -52.5 237t-190.5 73q-130 0 -204.5 -71.5t-74.5 -225.5q0 -96 11 -157.5t41 -107.5t83.5 -66
t138.5 -20z" />
    <glyph glyph-name="seven" unicode="7" horiz-adv-x="944" 
d="M219 0l443 1307h-623v211h872v-183l-446 -1335h-246z" />
    <glyph glyph-name="eight" unicode="8" horiz-adv-x="1181" 
d="M592 -16q-91 0 -164.5 13t-125 34.5t-89.5 55t-60.5 70t-36 84.5t-18 92t-4.5 99q0 64 3 108.5t15 95.5t33 85.5t59.5 65.5t92.5 49q-52 21 -85 54t-49 79t-21 89.5t-5 106.5q0 52 8 95.5t26 86.5t52 76t83 58.5t121.5 39t164.5 13.5q110 0 192 -20t131 -53t78.5 -82.5
t40 -100t10.5 -113.5q0 -49 -3 -86t-13 -77t-27.5 -69.5t-47 -55t-70.5 -41.5q47 -16 82.5 -38.5t57.5 -54t36 -63t20.5 -76t8.5 -81.5t2 -91q0 -55 -4.5 -99t-18 -92t-36 -84.5t-60.5 -70t-89.5 -55t-125 -34.5t-164.5 -13zM592 184q80 0 133.5 19t81 57.5t38.5 85.5
t11 113q0 65 -11 110.5t-38.5 82.5t-81 55t-133.5 18q-81 0 -134 -18t-81 -55t-38.5 -82t-10.5 -111q0 -67 10.5 -113t38 -85t81 -58t134.5 -19zM592 915q128 0 177.5 52.5t49.5 158.5q0 105 -49.5 156t-177.5 51q-129 0 -179.5 -51t-50.5 -156t51 -158t179 -53z" />
    <glyph glyph-name="nine" unicode="9" horiz-adv-x="1177" 
d="M260 0v203h152q105 0 179.5 18.5t120 49t72.5 83t37.5 107t14.5 135.5q-88 -115 -347 -115q-101 0 -174.5 24.5t-118 65.5t-70.5 107.5t-35 138t-9 168.5q0 141 22.5 239t76.5 170t148 106t234 34q96 0 170.5 -15t128 -40.5t91.5 -69.5t61.5 -93t36.5 -120t17.5 -141
t4.5 -166q0 -338 -35 -493q-46 -204 -182 -296q-149 -100 -457 -100h-139zM555 676q130 0 204.5 72.5t74.5 228.5q0 96 -11 156.5t-40.5 106.5t-84 65.5t-139.5 19.5q-143 0 -195.5 -80t-52.5 -260q0 -163 53 -236t191 -73z" />
    <glyph glyph-name="colon" unicode=":" horiz-adv-x="503" 
d="M117 0v287h268v-287h-268zM117 858v287h268v-287h-268z" />
    <glyph glyph-name="semicolon" unicode=";" horiz-adv-x="503" 
d="M117 858v287h268v-287h-268zM182 -266l-65 119q82 44 102.5 67.5t20.5 79.5h-123v287h268v-267q0 -59 -6.5 -94.5t-28.5 -70t-61 -61.5t-107 -60z" />
    <glyph glyph-name="less" unicode="&#x3c;" horiz-adv-x="1185" 
d="M940 199l-762 428v164l762 428v-222l-526 -286l526 -289v-223z" />
    <glyph glyph-name="equal" unicode="=" horiz-adv-x="1187" 
d="M172 391v213h846v-213h-846zM172 819v211h846v-211h-846z" />
    <glyph glyph-name="greater" unicode="&#x3e;" horiz-adv-x="1187" 
d="M244 199v221l526 287l-526 290v222l764 -428v-164z" />
    <glyph glyph-name="question" unicode="?" horiz-adv-x="1095" 
d="M395 426q-1 95 3.5 145.5t27 104.5t60 98t110.5 113q62 58 91 91.5t46 73t17 89.5q0 88 -47.5 134t-174.5 46q-159 0 -307 -76l-102 195q195 94 444 94q120 0 203 -25t128.5 -73.5t65 -109.5t19.5 -142q0 -58 -9.5 -106t-23.5 -82.5t-42 -71.5t-51.5 -61.5t-64.5 -63.5
q-66 -63 -97 -97t-49.5 -78.5t-20.5 -81t0 -116.5h-226zM373 0v262h268v-262h-268z" />
    <glyph glyph-name="at" unicode="@" horiz-adv-x="1738" 
d="M870 -338q-275 0 -442.5 92.5t-248.5 297t-81 544.5q0 339 81 544t248.5 298.5t442.5 93.5q274 0 441.5 -93.5t248 -298.5t80.5 -544q0 -121 -7.5 -203t-26.5 -147.5t-53 -102.5t-85 -56t-125 -19q-113 0 -170.5 33.5t-72.5 101.5q-38 -67 -115.5 -100t-210.5 -33
q-64 0 -115.5 15t-87.5 40t-62 64t-41.5 81.5t-24.5 99t-12 108.5t-3 118q0 79 5 140t18 124.5t38 109t62.5 82.5t95 55.5t131.5 18.5q130 0 191.5 -24.5t95.5 -81.5l37 100l151 -14v-696q3 -125 21.5 -164t91.5 -39q55 0 81.5 29.5t39 111.5t12.5 248q0 300 -67.5 477
t-202.5 252.5t-359 75.5t-359 -75.5t-202 -252.5t-67 -477t67 -476.5t201.5 -251.5t359.5 -75q240 0 478 94l51 -120q-249 -105 -529 -105zM834 246q50 0 86 10.5t59.5 34.5t37.5 50.5t21 71.5t9 83.5t2 99.5q0 62 -2.5 104t-10 83.5t-22 67t-38.5 46.5t-59 30t-83 9
q-52 0 -88.5 -16.5t-58 -43t-33.5 -72.5t-15.5 -93t-3.5 -117t3.5 -117t15 -94.5t33 -75t58 -44.5t89.5 -17z" />
    <glyph glyph-name="A" unicode="A" horiz-adv-x="1263" 
d="M37 0l469 1528h252l469 -1528h-244l-86 289h-541l-84 -289h-235zM416 504h422l-209 696z" />
    <glyph glyph-name="B" unicode="B" horiz-adv-x="1198" 
d="M129 0v1518h506q236 0 346.5 -93.5t110.5 -291.5q0 -269 -189 -336q111 -35 165 -124t54 -253q0 -223 -121.5 -321.5t-353.5 -98.5h-518zM362 203h281q119 0 179.5 51.5t60.5 181.5q0 132 -60.5 184t-179.5 52h-281v-469zM362 883h265q116 0 171.5 49.5t55.5 167.5
q0 117 -55 164t-172 47h-265v-428z" />
    <glyph glyph-name="C" unicode="C" horiz-adv-x="1095" 
d="M635 -16q-135 0 -235 36t-164 99.5t-103 162.5t-54.5 213t-15.5 263q0 105 7 190t25 167t47 144t74 115.5t106 87.5t143.5 53t185.5 19q232 0 383 -100l-127 -197q-102 66 -262 66q-193 0 -267.5 -125t-74.5 -424q0 -303 74 -430t270 -127q90 0 154.5 18.5t130.5 60.5
l117 -182q-89 -57 -183 -83.5t-231 -26.5z" />
    <glyph glyph-name="D" unicode="D" horiz-adv-x="1255" 
d="M129 0v1518h442q180 0 299.5 -42.5t191 -138t101 -233.5t29.5 -344q0 -169 -18.5 -289t-61 -213t-115 -148t-178 -82.5t-252.5 -27.5h-438zM367 207h219q88 0 150.5 20t105 59.5t66.5 107.5t34 154t10 210q0 153 -15.5 250.5t-57 166t-112 97t-181.5 28.5h-219v-1093z
" />
    <glyph glyph-name="E" unicode="E" horiz-adv-x="1087" 
d="M129 0v1518h866v-218h-635v-409h605v-217h-605v-461h639v-213h-870z" />
    <glyph glyph-name="F" unicode="F" horiz-adv-x="1050" 
d="M129 0v1518h868v-218h-630v-428h598v-215h-598v-657h-238z" />
    <glyph glyph-name="G" unicode="G" horiz-adv-x="1208" 
d="M623 -16q-131 0 -227.5 33t-160 94t-102 158.5t-54.5 214.5t-16 274q0 421 134 598.5t465 177.5q244 0 411 -109l-125 -194q-131 76 -297 76q-74 0 -127 -14.5t-97 -51.5t-70.5 -99.5t-41 -158.5t-14.5 -229q0 -163 16.5 -269t57 -174.5t105 -96.5t163.5 -28q86 0 138 20
t83.5 72.5t42.5 130.5t11 207v48h-338v206h565v-215q0 -158 -14 -265t-48 -188.5t-95 -127.5t-149 -68t-216 -22z" />
    <glyph glyph-name="H" unicode="H" horiz-adv-x="1320" 
d="M166 0v1518h237v-615h588v615h238v-1518h-238v670h-588v-670h-237z" />
    <glyph glyph-name="I" unicode="I" horiz-adv-x="524" 
d="M143 0v1518h238v-1518h-238z" />
    <glyph glyph-name="J" unicode="J" horiz-adv-x="749" 
d="M51 0v213h144q109 0 152.5 43.5t43.5 140.5v1121h238v-1135q0 -208 -100 -295.5t-298 -87.5h-180z" />
    <glyph glyph-name="K" unicode="K" horiz-adv-x="1232" 
d="M129 0v1518h236v-691l538 691h273l-461 -580l473 -938h-262l-371 743l-190 -251v-492h-236z" />
    <glyph glyph-name="L" unicode="L" horiz-adv-x="1007" 
d="M129 0v1518h238v-1305h610v-213h-848z" />
    <glyph glyph-name="M" unicode="M" horiz-adv-x="1560" 
d="M129 0v1518h301l350 -1110l353 1110h301v-1518h-234v1075l-344 -1075h-170l-346 1077v-1077h-211z" />
    <glyph glyph-name="N" unicode="N" horiz-adv-x="1314" 
d="M129 0v1518h254l578 -1043v1043h227v-1518h-219l-615 1100v-1100h-225z" />
    <glyph glyph-name="O" unicode="O" horiz-adv-x="1312" 
d="M657 -16q-110 0 -197.5 21.5t-149 58t-106.5 94t-72 119.5t-42.5 145t-21 160.5t-5.5 175.5t5.5 175.5t21 160.5t42.5 145.5t72 120t106.5 94.5t149.5 58.5t197 21.5t196.5 -21.5t149 -58.5t106.5 -94.5t71.5 -120t42 -145.5t21 -160.5t5.5 -175.5t-5.5 -175.5
t-21 -160.5t-42 -145t-71.5 -119.5t-106.5 -94t-149 -58t-196.5 -21.5zM657 195q67 0 119.5 14.5t89.5 38.5t63.5 64.5t42 83.5t24 104.5t11.5 118t3 133.5q0 76 -3 132.5t-11.5 117.5t-24 104t-42 83t-63.5 64.5t-89.5 39t-119.5 14.5t-120 -14.5t-90 -39t-63.5 -64.5
t-42 -83t-24 -104t-11.5 -117.5t-3 -132.5q0 -67 2 -117.5t8 -105.5t18 -96t29.5 -81t44.5 -67t62 -48.5t83 -31.5t107 -10z" />
    <glyph glyph-name="P" unicode="P" horiz-adv-x="1196" 
d="M129 0v1518h537q244 0 355.5 -117t111.5 -354q0 -498 -471 -498h-300v-549h-233zM362 762h295q128 0 186 63t58 209q0 148 -57.5 209.5t-186.5 61.5h-295v-543z" />
    <glyph glyph-name="Q" unicode="Q" horiz-adv-x="1312" 
d="M860 -356q-182 0 -271.5 72.5t-88.5 230.5q0 6 -0.5 18t-0.5 21.5t1 17.5q-80 14 -143.5 43.5t-109 69t-78.5 95t-53.5 113.5t-32.5 132.5t-16 144.5t-4 156q0 98 5.5 175.5t21 160.5t42.5 145.5t72 120t106.5 94.5t149.5 58.5t197 21.5t196.5 -21.5t149 -58.5
t106.5 -94.5t71.5 -120t42 -145.5t21 -160.5t5.5 -175.5q0 -93 -5 -166.5t-19 -152.5t-37.5 -139t-62.5 -116t-93 -93.5t-130 -62.5t-171 -32v-8q0 -81 35 -112.5t121 -31.5h137v-200h-164zM657 195q67 0 119.5 14.5t89.5 38.5t63.5 64.5t42 83.5t24 104.5t11.5 118t3 133.5
q0 76 -3 132.5t-11.5 117.5t-24 104t-42 83t-63.5 64.5t-89.5 39t-119.5 14.5t-120 -14.5t-90 -39t-63.5 -64.5t-42 -83t-24 -104t-11.5 -117.5t-3 -132.5q0 -67 2 -117.5t8 -105.5t18 -96t29.5 -81t44.5 -67t62 -48.5t83 -31.5t107 -10z" />
    <glyph glyph-name="R" unicode="R" horiz-adv-x="1216" 
d="M864 0l-248 559h-254v-559h-233v1518h533q244 0 355 -115t111 -348q0 -380 -278 -469l262 -586h-248zM362 772h293q127 0 183.5 61.5t56.5 206.5q0 144 -56 204.5t-184 60.5h-293v-533z" />
    <glyph glyph-name="S" unicode="S" horiz-adv-x="1132" 
d="M569 -16q-323 0 -520 127l119 182q174 -105 395 -105q271 0 271 205q0 35 -6 62t-15.5 49t-31.5 42t-43 35t-61.5 33.5t-76 32.5l-96.5 37q-104 39 -172.5 76.5t-121.5 89t-77 118t-24 154.5q0 198 123 305t356 107q242 0 422 -86l-103 -203q-140 68 -315 68
q-250 0 -250 -183q0 -49 11.5 -81t46.5 -60.5t79.5 -50t130.5 -55.5l128.5 -53.5t104 -50t84 -53.5t61 -60t45 -73t24 -87.5t8.5 -108.5q0 -196 -125 -304.5t-371 -108.5z" />
    <glyph glyph-name="T" unicode="T" horiz-adv-x="1142" 
d="M451 0v1300h-420v218h1081v-218h-422v-1300h-239z" />
    <glyph glyph-name="U" unicode="U" horiz-adv-x="1308" 
d="M655 -20q-151 0 -256 34.5t-166 104.5t-87.5 165.5t-26.5 229.5v1004h237v-983q0 -90 13.5 -150t46.5 -104.5t92 -65t149 -20.5q174 0 239 79t65 261v983h229v-1004q0 -107 -16 -188t-53.5 -148t-98.5 -109.5t-152.5 -65.5t-214.5 -23z" />
    <glyph glyph-name="V" unicode="V" horiz-adv-x="1251" 
d="M500 -10l-463 1528h242l352 -1180l346 1180h240l-465 -1528h-252z" />
    <glyph glyph-name="W" unicode="W" horiz-adv-x="1787" 
d="M406 -10l-355 1528h242l246 -1078l258 1078h209l260 -1078l245 1078h226l-353 -1528h-233l-256 1048l-256 -1048h-233z" />
    <glyph glyph-name="X" unicode="X" horiz-adv-x="1239" 
d="M930 0l-324 584l-305 -584h-256l442 797l-399 721h260l281 -508l264 508h256l-401 -723l442 -795h-260z" />
    <glyph glyph-name="Y" unicode="Y" horiz-adv-x="1204" 
d="M483 0v537l-475 981h252l344 -725l346 725h244l-475 -981v-537h-236z" />
    <glyph glyph-name="Z" unicode="Z" horiz-adv-x="1110" 
d="M59 0v182l686 1118h-657v218h940v-197l-684 -1108h703v-213h-988z" />
    <glyph glyph-name="bracketleft" unicode="[" horiz-adv-x="839" 
d="M188 -324v1899h500v-199h-266v-1509h272v-191h-506z" />
    <glyph glyph-name="backslash" unicode="\" horiz-adv-x="917" 
d="M686 0l-686 1518h231l687 -1518h-232z" />
    <glyph glyph-name="bracketright" unicode="]" horiz-adv-x="839" 
d="M152 -324v191h268v1509h-266v199h499v-1899h-501z" />
    <glyph glyph-name="asciicircum" unicode="^" horiz-adv-x="974" 
d="M154 1202l227 346h215l227 -346h-188l-150 187l-149 -187h-182z" />
    <glyph glyph-name="underscore" unicode="_" horiz-adv-x="749" 
d="M-61 -272v174h872v-174h-872z" />
    <glyph glyph-name="grave" unicode="`" horiz-adv-x="974" 
d="M438 1260l-282 346h258l225 -346h-201z" />
    <glyph glyph-name="a" unicode="a" horiz-adv-x="1067" 
d="M408 -12q-99 0 -168 24.5t-107.5 73t-55 111t-16.5 147.5q0 122 35 204t110.5 129.5t181 67t261.5 19.5h45q-3 104 -42 149t-144 45q-163 0 -285 -61l-94 186q155 84 403 84q115 0 190 -22t118.5 -73t60.5 -122.5t17 -181.5v-463q0 -66 14 -85t72 -19v-201q-23 -2 -66 -2
q-97 0 -144 21t-65 81q-47 -61 -124 -86.5t-197 -25.5zM457 178q111 0 174 58t63 204v140h-43q-86 0 -141.5 -4.5t-103 -17t-73 -36.5t-39 -61t-13.5 -92q0 -106 42 -148.5t134 -42.5z" />
    <glyph glyph-name="b" unicode="b" horiz-adv-x="1107" 
d="M111 6v1569h227v-531q41 62 117.5 91.5t206.5 29.5q71 0 127.5 -17t96 -45t68.5 -72.5t45.5 -91.5t26.5 -111t13 -121.5t3 -131.5t-3.5 -133t-14 -122t-28 -110.5t-47 -91t-69.5 -71.5t-97.5 -44.5t-129.5 -16.5q-106 0 -173.5 15.5t-99 37.5t-67.5 63l-34 -110zM588 186
q57 0 97.5 18t65 47.5t38 80t18 104t4.5 129.5q0 77 -4 130t-17.5 105t-37.5 82.5t-65 49t-99 18.5q-66 0 -112.5 -19t-72.5 -49t-40.5 -83t-18.5 -104.5t-4 -129.5q0 -65 2.5 -108.5t11 -91t25 -77t43.5 -54.5t68.5 -36.5t97.5 -11.5z" />
    <glyph glyph-name="c" unicode="c" horiz-adv-x="878" 
d="M520 -16q-109 0 -189 27.5t-130.5 75t-81 124t-42 163t-11.5 201.5q0 116 11.5 201.5t42 162t82.5 124t135.5 75t197.5 27.5q172 0 292 -59l-100 -199q-79 43 -182 43q-141 0 -193.5 -89t-52.5 -292q0 -205 52 -295t198 -90q93 0 205 52l88 -177q-84 -40 -155.5 -57.5
t-166.5 -17.5z" />
    <glyph glyph-name="d" unicode="d" horiz-adv-x="1107" 
d="M446 -14q-71 0 -128 17t-96 44.5t-67.5 72.5t-45 92t-26 111t-12.5 122t-3 133q0 74 3.5 133t14 121.5t28 110t47 91t69.5 71t97.5 44t129.5 16.5q130 0 200.5 -26t112.5 -80v516h229v-1567l-184 -14l-18 117q-45 -62 -126 -93.5t-225 -31.5zM520 186q55 0 96.5 12
t68.5 37.5t44.5 56.5t26 78.5t11.5 93t3 109.5q0 54 -2 92.5t-8 81t-16.5 71t-29 56t-45 43.5t-64 25.5t-85.5 9.5q-57 0 -97.5 -18t-65 -48t-38 -80.5t-18 -103.5t-4.5 -129q0 -78 4 -131t17.5 -105t37.5 -82.5t65 -49.5t99 -19z" />
    <glyph glyph-name="e" unicode="e" horiz-adv-x="1003" 
d="M524 -14q-95 0 -167.5 18t-122.5 54.5t-83.5 85t-51.5 118t-25.5 143t-7.5 170.5q0 113 12.5 199.5t44 162.5t83.5 124.5t133 76t191 27.5q86 0 151 -15.5t108.5 -45.5t72.5 -74.5t44 -102.5t22.5 -129t7.5 -154.5v-178.5h-649q8 -151 60 -217t190 -66q69 0 128.5 11.5
t90 23.5t73.5 33l89 -176q-164 -88 -394 -88zM524 963q-68 0 -113.5 -19t-71.5 -59t-37.5 -91.5t-14.5 -127.5h438q0 37 -1 59.5t-3 52.5t-6 48t-11 40t-17.5 34.5t-25 26.5t-34.5 20.5t-45.5 11t-57.5 4.5z" />
    <glyph glyph-name="f" unicode="f" horiz-adv-x="722" 
d="M33 944v201h182v104q0 160 83.5 244t266.5 84q117 0 142 -2v-199h-121q-85 0 -113.5 -36t-28.5 -115v-80h263v-201h-263v-944h-229v944h-182z" />
    <glyph glyph-name="g" unicode="g" horiz-adv-x="1050" 
d="M508 408q-87 0 -141 10q-9 -22 -9 -51q0 -42 34.5 -57t131.5 -15q184 0 284 -28.5t140.5 -89.5t40.5 -173q0 -185 -114.5 -265.5t-364.5 -80.5q-260 0 -369.5 59.5t-109.5 216.5q0 216 198 267q-65 43 -65 147q0 72 43 133q-121 90 -121 299q0 203 107 295t315 92
q22 0 80 -4l391 68v-180h-164q115 -77 115 -271q0 -200 -109 -286t-313 -86zM508 -168q103 0 157.5 17t73.5 49.5t19 93.5q0 50 -19 76t-73 39.5t-158 13.5q-140 0 -195 -35.5t-55 -112.5q0 -81 52 -111t198 -30zM508 590q102 0 149.5 45t47.5 143t-47.5 143.5t-149.5 45.5
q-100 0 -148.5 -45.5t-48.5 -143.5q0 -97 48 -142.5t149 -45.5z" />
    <glyph glyph-name="h" unicode="h" horiz-adv-x="1091" 
d="M111 0v1575h227v-524q75 114 319 114q85 0 145.5 -21t96.5 -55t56.5 -90.5t27 -114.5t6.5 -139v-745h-229v692q0 56 -3.5 91.5t-14 69.5t-31 52.5t-54.5 29.5t-84 11q-73 0 -119 -18t-71 -61.5t-34 -102.5t-9 -154v-610h-229z" />
    <glyph glyph-name="i" unicode="i" horiz-adv-x="464" 
d="M117 0v1145h229v-1145h-229zM117 1272v248h231v-248h-231z" />
    <glyph glyph-name="j" unicode="j" horiz-adv-x="464" 
d="M4 -324v187h19q60 0 77 26.5t17 102.5v1153h229v-1161q0 -88 -13 -144t-48 -94t-94 -54t-152 -16h-35zM117 1272v248h231v-248h-231z" />
    <glyph glyph-name="k" unicode="k" horiz-adv-x="991" 
d="M111 0v1575h223v-961l366 531h248l-344 -483l369 -662h-244l-274 477l-121 -176v-301h-223z" />
    <glyph glyph-name="l" unicode="l" horiz-adv-x="546" 
d="M477 0q-12 -2 -82 -2q-155 0 -216.5 62.5t-61.5 226.5v1288h229v-1260q0 -51 6.5 -71.5t34 -31.5t90.5 -11v-201z" />
    <glyph glyph-name="m" unicode="m" horiz-adv-x="1683" 
d="M111 0v1130l182 17l18 -105q38 60 114.5 91.5t221.5 31.5q94 0 152.5 -17.5t83 -43t39.5 -66.5q41 63 123 95t231 32q62 0 110 -11t81.5 -29t57.5 -48.5t38 -62.5t21.5 -78.5t10 -89t2.5 -101.5v-745h-229v692q0 59 -2 92t-11.5 69t-28 53t-51.5 28.5t-83 11.5
q-58 0 -97.5 -13t-65 -36.5t-39 -66.5t-18.5 -93.5t-5 -126.5v-610h-228v692q0 59 -2 92t-11.5 69t-28 53t-51.5 28.5t-83 11.5q-58 0 -98 -13t-65.5 -37t-39.5 -67t-19 -93.5t-5 -125.5v-610h-225z" />
    <glyph glyph-name="n" unicode="n" horiz-adv-x="1091" 
d="M111 0v1130l182 17l18 -105q41 60 121 91.5t225 31.5q85 0 145.5 -21t96.5 -55t56.5 -90.5t27 -114.5t6.5 -139v-745h-229v692q0 56 -3.5 91.5t-14 69.5t-31 52.5t-54.5 29.5t-84 11q-75 0 -121.5 -19.5t-71 -65t-32.5 -102.5t-8 -149v-610h-229z" />
    <glyph glyph-name="o" unicode="o" horiz-adv-x="1077" 
d="M539 -16q-114 0 -198.5 29t-136.5 78t-83.5 126t-43 162t-11.5 196t11 194.5t42 161t83 127t136.5 78.5t200.5 29t201 -29.5t136.5 -79.5t82.5 -127.5t42 -160.5t11 -193q0 -113 -11 -197.5t-42 -162t-83 -126t-136.5 -77t-200.5 -28.5zM539 184q64 0 109 19.5t70.5 50
t39.5 83.5t18 103.5t4 126.5q0 77 -4 128t-18 103.5t-39.5 83t-70.5 49.5t-109 19t-108.5 -19t-70.5 -49.5t-40.5 -83t-18.5 -104t-4 -127.5q0 -53 2 -92t8 -81t17 -71.5t29 -57.5t43 -44.5t61 -26.5t82 -10z" />
    <glyph glyph-name="p" unicode="p" horiz-adv-x="1107" 
d="M111 -324v1454l182 17l16 -107q87 125 353 125q71 0 127.5 -17t96 -45t68.5 -72.5t45.5 -91.5t26.5 -111t13 -121.5t3 -131.5t-3.5 -133t-14 -122t-28.5 -110.5t-47.5 -91t-69.5 -71.5t-97.5 -44.5t-128.5 -16.5q-130 0 -200 26t-113 80v-416h-229zM588 186q57 0 97 18
t64.5 48t38.5 80t18.5 103.5t4.5 129.5q0 77 -4.5 130t-18 105t-37.5 82.5t-64.5 49t-98.5 18.5q-66 0 -112.5 -19t-72.5 -49t-40.5 -83t-18.5 -104.5t-4 -129.5q0 -65 2.5 -108.5t11 -91t25 -77t43.5 -54.5t68.5 -36.5t97.5 -11.5z" />
    <glyph glyph-name="q" unicode="q" horiz-adv-x="1107" 
d="M770 -324v426q-42 -59 -117 -87.5t-207 -28.5q-71 0 -128 17t-96 44.5t-67.5 72.5t-45 92t-26 111t-12.5 122t-3 133q0 74 3.5 133t14 121.5t28 110t47 91t69.5 71t97.5 44t129.5 16.5q151 0 224 -27.5t116 -84.5l32 104l170 -14v-1467h-229zM520 186q55 0 96.5 12
t68.5 37.5t44.5 56.5t26 78.5t11.5 93t3 109.5q0 54 -2 92.5t-8 81t-16.5 71t-29 56t-45 43.5t-64 25.5t-85.5 9.5q-57 0 -97.5 -18t-65 -48t-38 -80.5t-18 -103.5t-4.5 -129q0 -78 4 -131t17.5 -105t37.5 -82.5t65 -49.5t99 -19z" />
    <glyph glyph-name="r" unicode="r" horiz-adv-x="647" 
d="M111 0v1130l180 17l20 -121q39 61 113 95t207 34v-217q-58 -1 -103 -12t-75 -28t-51.5 -46t-33.5 -56.5t-18.5 -69t-8 -75t-1.5 -82.5v-569h-229z" />
    <glyph glyph-name="s" unicode="s" horiz-adv-x="862" 
d="M430 -14q-247 0 -401 80l88 178q140 -70 313 -70q170 0 170 131q0 66 -46.5 102.5t-184.5 92.5q-80 32 -131.5 60t-93 67.5t-60 91t-18.5 121.5q0 166 100.5 245.5t284.5 79.5q107 0 180.5 -14t144.5 -45l-90 -191q-117 50 -244 50q-85 0 -121 -29.5t-36 -89.5
q0 -58 44 -92.5t171 -83.5q87 -34 139 -62t95.5 -69.5t62 -97t18.5 -134.5q0 -321 -385 -321z" />
    <glyph glyph-name="t" unicode="t" horiz-adv-x="780" 
d="M33 944v201h186l35 289l184 39v-328h267v-201h-267v-600q0 -78 25.5 -110.5t111.5 -32.5h130v-201q-111 -6 -156 -6q-102 0 -168 18t-103.5 59.5t-52 99.5t-14.5 148v625h-178z" />
    <glyph glyph-name="u" unicode="u" horiz-adv-x="1069" 
d="M535 -16q-131 0 -215.5 26t-132.5 84.5t-66.5 139.5t-18.5 204v707h232v-694q0 -61 3 -96.5t14 -71.5t33 -54t60 -29.5t95 -11.5q68 0 109 15t61 52t26 80t6 118v692h226v-707q0 -99 -10.5 -168t-38.5 -126.5t-76.5 -90.5t-124 -51t-182.5 -18z" />
    <glyph glyph-name="v" unicode="v" horiz-adv-x="983" 
d="M369 -8l-357 1153h240l246 -850l243 850h230l-359 -1153h-243z" />
    <glyph glyph-name="w" unicode="w" horiz-adv-x="1492" 
d="M324 -8l-299 1153h231l188 -789l203 789h211l201 -780l190 780h219l-297 -1153h-219l-204 766l-203 -766h-221z" />
    <glyph glyph-name="x" unicode="x" horiz-adv-x="966" 
d="M702 0l-233 406l-217 -406h-234l338 602l-309 543h248l201 -354l190 354h234l-310 -553l338 -592h-246z" />
    <glyph glyph-name="y" unicode="y" horiz-adv-x="950" 
d="M135 -324v187h113q43 0 63 14.5t31 50.5l20 70l-350 1147h234l233 -819l232 819h225l-385 -1264q-37 -122 -105 -163.5t-200 -41.5h-111z" />
    <glyph glyph-name="z" unicode="z" horiz-adv-x="864" 
d="M37 0v156l489 788h-460v201h745v-158l-492 -799h510v-188h-792z" />
    <glyph glyph-name="braceleft" unicode="{" horiz-adv-x="899" 
d="M580 -324q-176 0 -255 63.5t-79 199.5q0 62 43 258.5t43 234.5q0 61 -42.5 78.5t-166.5 17.5v195q122 0 165.5 17t43.5 77q0 46 -43 239t-43 255q0 136 78.5 200t253.5 64h178v-199h-111q-83 0 -122.5 -30t-39.5 -105q0 -46 39 -222t39 -239q0 -120 -104 -153
q104 -40 104 -156q0 -72 -39 -248.5t-39 -214.5q0 -76 40.5 -108.5t121.5 -32.5h111v-191h-176z" />
    <glyph glyph-name="bar" unicode="|" horiz-adv-x="608" 
d="M188 -324v1899h234v-1899h-234z" />
    <glyph glyph-name="braceright" unicode="}" horiz-adv-x="899" 
d="M145 -324v191h111q81 0 121.5 32.5t40.5 108.5q0 38 -40 214.5t-40 248.5q0 118 104 156q-104 36 -104 153q0 62 40 238.5t40 222.5q0 75 -40 105t-122 30h-111v199h179q174 0 251.5 -63.5t77.5 -200.5q0 -62 -43 -255t-43 -239q0 -59 42.5 -75.5t168.5 -16.5v-197
q-124 0 -167.5 -17.5t-43.5 -78.5q0 -38 43 -234.5t43 -258.5q0 -136 -77.5 -199.5t-253.5 -63.5h-177z" />
    <glyph glyph-name="asciitilde" unicode="~" horiz-adv-x="974" 
d="M256 797l-150 84q48 96 109 142t141 46q45 0 91 -21.5t84.5 -43t64.5 -21.5q32 0 59.5 23t61.5 73l147 -86q-48 -97 -108 -144.5t-140 -47.5q-45 0 -92 21t-85.5 42t-63.5 21q-60 0 -119 -88z" />
    <glyph glyph-name="uni00A0" unicode="&#xa0;" horiz-adv-x="362" 
 />
    <glyph glyph-name="exclamdown" unicode="&#xa1;" horiz-adv-x="653" 
d="M201 0l22 1073h209l21 -1073h-252zM193 1229v289h270v-289h-270z" />
    <glyph glyph-name="cent" unicode="&#xa2;" horiz-adv-x="919" 
d="M416 -197v197q-79 14 -137.5 48t-95 82.5t-58.5 118.5t-30.5 147.5t-8.5 178.5q0 100 8.5 176t30.5 146t58.5 118.5t95 83t137.5 48.5v170h221v-162q113 -8 209 -53l-98 -195q-80 43 -183 43q-141 0 -193.5 -89t-52.5 -292q0 -102 10.5 -170t38 -118.5t76.5 -73.5
t125 -23q95 0 205 52l86 -173q-122 -59 -223 -67v-193h-221z" />
    <glyph glyph-name="sterling" unicode="&#xa3;" horiz-adv-x="1069" 
d="M737 -10q-179 0 -348 86q-52 -42 -137 -59t-217 -17v203q155 0 199.5 28t44.5 131q0 91 -52 312h-188v188h147q-39 190 -39 285q0 197 101 292t319 95q239 0 406 -86l-99 -186q-123 61 -305 61q-103 0 -148.5 -51.5t-45.5 -149.5q0 -88 35 -260h319v-188h-285
q43 -222 43 -309q0 -82 -10 -127q122 -52 232 -52q66 0 89 36t23 116v119h203v-127q0 -185 -63 -262.5t-224 -77.5z" />
    <glyph glyph-name="yen" unicode="&#xa5;" horiz-adv-x="1103" 
d="M117 455v188h317l-411 875h243l287 -656l287 656h239l-409 -875h319v-188h-325v-125h325v-189h-325v-141h-224v141h-323v189h323v125h-323z" />
    <glyph glyph-name="brokenbar" unicode="&#xa6;" horiz-adv-x="608" 
d="M188 -324v787h234v-787h-234zM188 788v787h234v-787h-234z" />
    <glyph glyph-name="section" unicode="&#xa7;" horiz-adv-x="952" 
d="M244 -14q-63 0 -101 4v180h78q86 0 113.5 38t27.5 120v121q-138 18 -199 92.5t-61 216.5q0 140 61.5 215.5t198.5 93.5v104q0 85 13 144.5t48 111t103.5 77.5t171.5 26q24 0 59.5 -1t43.5 -1v-191h-80q-86 0 -113.5 -38t-27.5 -121v-109q142 -19 206 -93.5t64 -217.5
t-63.5 -218t-204.5 -94v-102q0 -66 -7.5 -116.5t-29.5 -97.5t-59 -77.5t-98 -48.5t-144 -18zM475 598q97 0 144 36.5t47 117.5t-47 117t-144 36t-142.5 -36t-45.5 -117t46 -117.5t142 -36.5z" />
    <glyph glyph-name="dieresis" unicode="&#xa8;" horiz-adv-x="974" 
d="M199 1260v235h204v-235h-204zM573 1260v235h205v-235h-205z" />
    <glyph glyph-name="copyright" unicode="&#xa9;" horiz-adv-x="1366" 
d="M694 262q-88 0 -153 23.5t-106 64.5t-65.5 106t-34 139t-9.5 173q0 97 9 169t33.5 138t66.5 107t109.5 65.5t160.5 24.5q150 0 249 -64l-82 -127q-65 45 -172 45q-126 0 -173.5 -82.5t-47.5 -279.5q0 -198 47.5 -281.5t175.5 -83.5q58 0 100 12.5t87 41.5l76 -121
q-60 -36 -120.5 -53t-150.5 -17zM682 -20q-142 0 -248.5 38.5t-174 105t-109 167t-58 213t-16.5 254.5q0 101 8 186t27.5 166.5t50.5 145.5t78.5 118t110 90t146 56t185.5 20q119 0 213 -26t160.5 -76.5t113.5 -118.5t74 -158t39 -187.5t12 -215.5q0 -142 -17 -255
t-59.5 -213t-111 -166.5t-175.5 -105t-249 -38.5zM682 72q120 0 210.5 34t148 92.5t92.5 147t49 187.5t14 225q0 127 -14 226.5t-49 189t-92.5 148t-148 92.5t-210.5 34t-209.5 -34t-146.5 -92.5t-92 -148t-48.5 -189t-13.5 -226.5q0 -126 13.5 -225t48.5 -187.5t92 -147
t146.5 -92.5t209.5 -34z" />
    <glyph glyph-name="ordfeminine" unicode="&#xaa;" horiz-adv-x="954" 
d="M369 580q-144 0 -206.5 74t-62.5 212q0 100 28 164t91 99t146.5 48t212.5 13h32q-2 94 -30.5 133t-116.5 39q-118 0 -232 -49l-75 155q130 66 327 66q94 0 154.5 -18t95.5 -59t48.5 -99.5t13.5 -147.5v-374q0 -51 12 -66.5t59 -15.5v-166q-9 0 -29 -1t-28 -1
q-87 0 -124 23t-52 89q-36 -65 -98 -91.5t-166 -26.5zM127 276v168h688v-168h-688zM422 735q89 0 138.5 47t49.5 164v109h-32q-170 0 -233.5 -32.5t-63.5 -135.5q0 -84 34 -118t107 -34z" />
    <glyph glyph-name="guillemotleft" unicode="&#xab;" horiz-adv-x="1228" 
d="M385 0l-250 571l250 574h205l-236 -574l236 -571h-205zM848 0l-250 571l250 574h201l-234 -574l234 -571h-201z" />
    <glyph glyph-name="logicalnot" unicode="&#xac;" horiz-adv-x="1187" 
d="M1020 821v-579h-217v379h-635v200h852z" />
    <glyph glyph-name="registered" unicode="&#xae;" horiz-adv-x="1366" 
d="M682 -20q-142 0 -248.5 38.5t-174 105t-109 167t-58 213t-16.5 254.5q0 101 8 186t27.5 166.5t50.5 145.5t78.5 118t110 90t146 56t185.5 20q119 0 213 -26t160.5 -76.5t113.5 -118.5t74 -158t39 -187.5t12 -215.5q0 -142 -17 -255t-59.5 -213t-111 -166.5t-175.5 -105
t-249 -38.5zM682 72q120 0 210.5 34t148 92.5t92.5 147t49 187.5t14 225q0 127 -14 226.5t-49 189t-92.5 148t-148 92.5t-210.5 34t-209.5 -34t-146.5 -92.5t-92 -148t-48.5 -189t-13.5 -226.5q0 -126 13.5 -225t48.5 -187.5t92 -147t146.5 -92.5t209.5 -34zM862 276
l-170 375h-157v-375h-148v973h338q165 0 230 -70.5t65 -222.5q0 -125 -41.5 -198t-140.5 -96l174 -386h-150zM535 772h186q85 0 120.5 39.5t35.5 134.5t-35.5 134.5t-120.5 39.5h-186v-348z" />
    <glyph glyph-name="macron" unicode="&#xaf;" horiz-adv-x="974" 
d="M154 1260v190h665v-190h-665z" />
    <glyph glyph-name="macron" unicode="&#x304;" horiz-adv-x="974" 
d="M154 1260v190h665v-190h-665z" />
    <glyph glyph-name="degree" unicode="&#xb0;" horiz-adv-x="948" 
d="M473 559q-92 0 -161 25.5t-111 68t-68 107t-35.5 133t-9.5 154.5t9.5 154t35.5 132.5t68 107t111 68t161 25.5q93 0 163 -25.5t112.5 -68t68.5 -107t35.5 -132.5t9.5 -154t-9.5 -154.5t-35.5 -133t-68.5 -107t-112.5 -68t-163 -25.5zM473 735q51 0 87.5 16t58.5 41.5
t34.5 67t16.5 83.5t4 99q0 58 -4 99.5t-16.5 82.5t-34.5 66t-58.5 40.5t-87.5 15.5q-49 0 -85 -15.5t-57 -40.5t-33.5 -65.5t-17 -83t-4.5 -99.5t4.5 -99.5t17 -83.5t33.5 -66.5t57 -41.5t85 -16z" />
    <glyph glyph-name="plusminus" unicode="&#xb1;" horiz-adv-x="1187" 
d="M485 283v358h-317v201h317v356h217v-356h318v-201h-318v-358h-217zM168 23v200h852v-200h-852z" />
    <glyph glyph-name="two.superior" unicode="&#xb2;" horiz-adv-x="808" 
d="M100 559v133l224 262q116 137 145 186t29 105q0 66 -29.5 90.5t-97.5 24.5q-105 0 -193 -45l-78 151q120 62 299 62q146 0 213.5 -62t67.5 -190q0 -106 -39.5 -180.5t-181.5 -241.5l-121 -143h358v-152h-596z" />
    <glyph glyph-name="threesuperior" unicode="&#xb3;" horiz-adv-x="817" 
d="M383 549q-180 0 -293 67l78 142q91 -49 201 -49q91 0 123 32t32 119q0 72 -31.5 100.5t-134.5 28.5h-131v156h133q82 0 112 25.5t30 82.5q0 69 -29 90t-104 21q-105 0 -193 -43l-74 143q52 28 132.5 46t162.5 18q147 0 216 -49.5t69 -184.5q0 -85 -20 -135.5t-74 -73.5
q70 -24 93.5 -77.5t23.5 -165.5q0 -160 -78.5 -226.5t-243.5 -66.5z" />
    <glyph glyph-name="acute" unicode="&#xb4;" horiz-adv-x="974" 
d="M338 1260l223 346h256l-280 -346h-199z" />
    <glyph glyph-name="mu" unicode="&#xb5;" horiz-adv-x="1091" 
d="M440 -14q-66 0 -114 12v-322h-217v1469h231v-707q0 -57 3 -91.5t13.5 -69t30.5 -52t54.5 -28.5t84.5 -11q74 0 120 19t69.5 64t31 100.5t7.5 148.5v627h229v-1137l-184 -12l-17 108q-41 -59 -118.5 -88.5t-223.5 -29.5z" />
    <glyph glyph-name="paragraph" unicode="&#xb6;" horiz-adv-x="1095" 
d="M381 0v578q-174 37 -243.5 149.5t-69.5 312.5q0 123 23.5 208t79.5 148t153.5 92.5t240.5 29.5h410v-1518h-223v561h-148v-561h-223zM561 762h191v549h-191q-144 0 -203 -63t-59 -214q0 -148 59.5 -210t202.5 -62z" />
    <glyph glyph-name="periodcentered" unicode="&#xb7;" horiz-adv-x="471" 
d="M100 571v297h271v-297h-271z" />
    <glyph glyph-name="periodcentered" unicode="&#x2219;" horiz-adv-x="471" 
d="M100 571v297h271v-297h-271z" />
    <glyph glyph-name="cedilla" unicode="&#xb8;" horiz-adv-x="974" 
d="M512 -467q-115 0 -217 47l51 113q73 -29 150 -29q65 0 89.5 21t24.5 67q0 52 -32 66.5t-119 9.5l-47 35l30 151h131l-18 -104q99 7 154 -30t55 -142q0 -107 -57.5 -156t-194.5 -49z" />
    <glyph glyph-name="one.superior" unicode="&#xb9;" horiz-adv-x="589" 
d="M227 559v791h-139v168h332v-959h-193z" />
    <glyph glyph-name="ordmasculine" unicode="&#xba;" horiz-adv-x="954" 
d="M477 575q-92 0 -160.5 23.5t-110.5 64t-67.5 103t-35 131t-9.5 158.5q0 89 9 157t34.5 131t67.5 103t110.5 64t161.5 24q94 0 163.5 -24t111.5 -64.5t67 -103.5t34 -130.5t9 -156.5q0 -92 -9 -160t-34 -131t-67 -102.5t-111 -63t-164 -23.5zM477 741q51 0 87 15.5
t56.5 40t31.5 67t14.5 84t3.5 103.5q0 60 -3.5 101t-14.5 83t-31.5 67t-56.5 40.5t-87 15.5q-50 0 -86 -15.5t-56 -40.5t-31.5 -67t-15 -83t-3.5 -101q0 -61 3.5 -103t15 -84.5t32 -67t56 -40t85.5 -15.5zM125 276v168h704v-168h-704z" />
    <glyph glyph-name="guillemotright" unicode="&#xbb;" horiz-adv-x="1228" 
d="M178 0l236 573l-236 572h203l250 -572l-250 -573h-203zM641 0l233 573l-233 572h203l248 -572l-248 -573h-203z" />
    <glyph glyph-name="onequarter" unicode="&#xbc;" horiz-adv-x="1648" 
d="M342 0l676 1518h207l-676 -1518h-207zM887 182v144l334 632h190l-332 -624h203l33 239h137v-239h123v-152h-123v-182h-172v182h-393zM242 559v791h-140v168h332v-959h-192z" />
    <glyph glyph-name="onehalf" unicode="&#xbd;" horiz-adv-x="1744" 
d="M342 0l676 1518h207l-676 -1518h-207zM242 559v791h-140v168h332v-959h-192zM1040 0v133l224 260q117 138 145.5 186.5t28.5 106.5q0 66 -29.5 90.5t-97.5 24.5q-97 0 -193 -45l-78 151q128 64 299 64q146 0 214.5 -63.5t68.5 -190.5q0 -106 -41 -181.5t-182 -240.5
l-121 -143h356v-152h-594z" />
    <glyph glyph-name="threequarters" unicode="&#xbe;" horiz-adv-x="1808" 
d="M383 549q-180 0 -293 67l78 142q91 -49 201 -49q91 0 123 32t32 119q0 72 -31.5 100.5t-134.5 28.5h-131v156h133q82 0 112 25.5t30 82.5q0 69 -29 90t-104 21q-105 0 -193 -43l-74 143q52 28 132.5 46t162.5 18q147 0 216 -49.5t69 -184.5q0 -85 -20 -135.5t-74 -73.5
q70 -24 93.5 -77.5t23.5 -165.5q0 -160 -78.5 -226.5t-243.5 -66.5zM502 0l676 1518h206l-675 -1518h-207zM1047 182v144l335 632h191l-332 -624h203l33 239h137v-239h123v-152h-123v-182h-172v182h-395z" />
    <glyph glyph-name="questiondown" unicode="&#xbf;" horiz-adv-x="1124" 
d="M559 -16q-119 0 -201.5 25t-128 73.5t-65 109.5t-19.5 142q0 71 12 125.5t41.5 101.5t57.5 78t80 80q67 63 97.5 96t49.5 77t21 81t0 119h225q1 -125 -11 -188t-52.5 -122.5t-137.5 -150.5q-89 -85 -120 -134t-31 -120q0 -89 46.5 -134.5t172.5 -45.5q161 0 307 75
l103 -194q-193 -94 -447 -94zM483 1255v263h269v-263h-269z" />
    <glyph glyph-name="Agrave" unicode="&#xc0;" horiz-adv-x="1263" 
d="M37 0l469 1528h252l469 -1528h-244l-86 289h-541l-84 -289h-235zM416 504h422l-209 696zM580 1602l-283 346h258l225 -346h-200z" />
    <glyph glyph-name="Aacute" unicode="&#xc1;" horiz-adv-x="1263" 
d="M37 0l469 1528h252l469 -1528h-244l-86 289h-541l-84 -289h-235zM416 504h422l-209 696zM479 1602l223 346h256l-280 -346h-199z" />
    <glyph glyph-name="Acircumflex" unicode="&#xc2;" horiz-adv-x="1263" 
d="M37 0l469 1528h252l469 -1528h-244l-86 289h-541l-84 -289h-235zM416 504h422l-209 696zM295 1602l227 346h215l228 -346h-189l-149 186l-150 -186h-182z" />
    <glyph glyph-name="Atilde" unicode="&#xc3;" horiz-adv-x="1263" 
d="M37 0l469 1528h252l469 -1528h-244l-86 289h-541l-84 -289h-235zM416 504h422l-209 696zM397 1593l-149 84q48 96 108.5 142.5t141.5 46.5q44 0 90 -21.5t84.5 -43t64.5 -21.5q32 0 59.5 22.5t61.5 73.5l148 -86q-49 -97 -109 -145t-139 -48q-46 0 -93 21t-85.5 42
t-63.5 21q-61 0 -119 -88z" />
    <glyph glyph-name="Adieresis" unicode="&#xc4;" horiz-adv-x="1263" 
d="M37 0l469 1528h252l469 -1528h-244l-86 289h-541l-84 -289h-235zM416 504h422l-209 696zM340 1602v235h205v-235h-205zM715 1602v235h205v-235h-205z" />
    <glyph glyph-name="Aring" unicode="&#xc5;" horiz-adv-x="1263" 
d="M37 0l446 1454q-82 63 -82 209q0 116 54.5 185t173.5 69q117 0 172 -69.5t55 -184.5q0 -137 -78 -203l449 -1460h-244l-86 289h-541l-84 -289h-235zM416 504h422l-209 696zM629 1528q106 0 106 135q0 137 -106 137q-107 0 -107 -137q0 -135 107 -135z" />
    <glyph glyph-name="AE" unicode="&#xc6;" horiz-adv-x="1832" 
d="M27 0l729 1518h985v-218h-635v-413h602v-213h-602v-461h639v-213h-871v297h-473l-141 -297h-233zM498 500h376v782z" />
    <glyph glyph-name="Ccedilla" unicode="&#xc7;" horiz-adv-x="1095" 
d="M569 -467q-113 0 -217 47l51 113q75 -29 150 -29q65 0 90 21t25 67q0 52 -32.5 66.5t-119.5 9.5l-47 35l27 133q-101 17 -176.5 61.5t-124 109.5t-78.5 157.5t-42 197t-12 236.5q0 105 7 190t25 167t47 144t74 115.5t106 87.5t143.5 53t185.5 19q232 0 383 -100
l-127 -197q-102 66 -262 66q-193 0 -267.5 -125t-74.5 -424q0 -303 74 -430t270 -127q90 0 154.5 18.5t130.5 60.5l117 -182q-89 -57 -183 -83.5t-231 -26.5h-10l-13 -74q99 7 154 -30t55 -142q0 -107 -57.5 -156t-194.5 -49z" />
    <glyph glyph-name="Egrave" unicode="&#xc8;" horiz-adv-x="1087" 
d="M129 0v1518h866v-218h-635v-409h605v-217h-605v-461h639v-213h-870zM494 1602l-283 346h258l225 -346h-200z" />
    <glyph glyph-name="Eacute" unicode="&#xc9;" horiz-adv-x="1087" 
d="M393 1602l223 346h256l-280 -346h-199zM129 0v1518h866v-218h-635v-409h605v-217h-605v-461h639v-213h-870z" />
    <glyph glyph-name="Ecircumflex" unicode="&#xca;" horiz-adv-x="1087" 
d="M209 1602l227 346h215l228 -346h-189l-149 186l-150 -186h-182zM129 0v1518h866v-218h-635v-409h605v-217h-605v-461h639v-213h-870z" />
    <glyph glyph-name="Edieresis" unicode="&#xcb;" horiz-adv-x="1087" 
d="M254 1602v235h205v-235h-205zM629 1602v235h205v-235h-205zM129 0v1518h866v-218h-635v-409h605v-217h-605v-461h639v-213h-870z" />
    <glyph glyph-name="Igrave" unicode="&#xcc;" horiz-adv-x="524" 
d="M174 1602l-242 348h254l185 -348h-197zM143 0v1518h238v-1518h-238z" />
    <glyph glyph-name="Iacute" unicode="&#xcd;" horiz-adv-x="524" 
d="M152 1602l186 348h252l-242 -348h-196zM143 0v1518h238v-1518h-238z" />
    <glyph glyph-name="Icircumflex" unicode="&#xce;" horiz-adv-x="524" 
d="M-68 1602l222 348h215l223 -348h-186l-146 188l-145 -188h-183zM143 0v1518h238v-1518h-238z" />
    <glyph glyph-name="Idieresis" unicode="&#xcf;" horiz-adv-x="524" 
d="M143 0v1518h238v-1518h-238zM-25 1602v235h205v-235h-205zM350 1602v235h205v-235h-205z" />
    <glyph glyph-name="Eth" unicode="&#xd0;" horiz-adv-x="1255" 
d="M2 678v194h127v646h442q180 0 299.5 -42.5t191 -138t101 -233.5t29.5 -344q0 -169 -18.5 -289t-61 -213t-115 -148t-178 -82.5t-252.5 -27.5h-438v678h-127zM367 207h219q88 0 150.5 20t105 59.5t66.5 107.5t34 154t10 210q0 153 -15.5 250.5t-57 166t-112 97
t-181.5 28.5h-219v-428h239v-194h-239v-471z" />
    <glyph glyph-name="Ntilde" unicode="&#xd1;" horiz-adv-x="1314" 
d="M129 0v1518h254l578 -1043v1043h227v-1518h-219l-615 1100v-1100h-225zM424 1593l-150 84q48 96 109 142.5t141 46.5q45 0 91 -21.5t84.5 -43t64.5 -21.5q32 0 59.5 22.5t61.5 73.5l147 -86q-48 -97 -108 -145t-140 -48q-45 0 -92 21t-85.5 42t-63.5 21q-61 0 -119 -88z
" />
    <glyph glyph-name="Ograve" unicode="&#xd2;" horiz-adv-x="1312" 
d="M657 -16q-110 0 -197.5 21.5t-149 58t-106.5 94t-72 119.5t-42.5 145t-21 160.5t-5.5 175.5t5.5 175.5t21 160.5t42.5 145.5t72 120t106.5 94.5t149.5 58.5t197 21.5t196.5 -21.5t149 -58.5t106.5 -94.5t71.5 -120t42 -145.5t21 -160.5t5.5 -175.5t-5.5 -175.5
t-21 -160.5t-42 -145t-71.5 -119.5t-106.5 -94t-149 -58t-196.5 -21.5zM657 195q67 0 119.5 14.5t89.5 38.5t63.5 64.5t42 83.5t24 104.5t11.5 118t3 133.5q0 76 -3 132.5t-11.5 117.5t-24 104t-42 83t-63.5 64.5t-89.5 39t-119.5 14.5t-120 -14.5t-90 -39t-63.5 -64.5
t-42 -83t-24 -104t-11.5 -117.5t-3 -132.5q0 -67 2 -117.5t8 -105.5t18 -96t29.5 -81t44.5 -67t62 -48.5t83 -31.5t107 -10zM606 1602l-282 346h258l225 -346h-201z" />
    <glyph glyph-name="Oacute" unicode="&#xd3;" horiz-adv-x="1312" 
d="M506 1602l223 346h256l-280 -346h-199zM657 -16q-110 0 -197.5 21.5t-149 58t-106.5 94t-72 119.5t-42.5 145t-21 160.5t-5.5 175.5t5.5 175.5t21 160.5t42.5 145.5t72 120t106.5 94.5t149.5 58.5t197 21.5t196.5 -21.5t149 -58.5t106.5 -94.5t71.5 -120t42 -145.5
t21 -160.5t5.5 -175.5t-5.5 -175.5t-21 -160.5t-42 -145t-71.5 -119.5t-106.5 -94t-149 -58t-196.5 -21.5zM657 195q67 0 119.5 14.5t89.5 38.5t63.5 64.5t42 83.5t24 104.5t11.5 118t3 133.5q0 76 -3 132.5t-11.5 117.5t-24 104t-42 83t-63.5 64.5t-89.5 39t-119.5 14.5
t-120 -14.5t-90 -39t-63.5 -64.5t-42 -83t-24 -104t-11.5 -117.5t-3 -132.5q0 -67 2 -117.5t8 -105.5t18 -96t29.5 -81t44.5 -67t62 -48.5t83 -31.5t107 -10z" />
    <glyph glyph-name="Ocircumflex" unicode="&#xd4;" horiz-adv-x="1312" 
d="M322 1602l227 346h215l227 -346h-188l-150 186l-149 -186h-182zM657 -16q-110 0 -197.5 21.5t-149 58t-106.5 94t-72 119.5t-42.5 145t-21 160.5t-5.5 175.5t5.5 175.5t21 160.5t42.5 145.5t72 120t106.5 94.5t149.5 58.5t197 21.5t196.5 -21.5t149 -58.5t106.5 -94.5
t71.5 -120t42 -145.5t21 -160.5t5.5 -175.5t-5.5 -175.5t-21 -160.5t-42 -145t-71.5 -119.5t-106.5 -94t-149 -58t-196.5 -21.5zM657 195q67 0 119.5 14.5t89.5 38.5t63.5 64.5t42 83.5t24 104.5t11.5 118t3 133.5q0 76 -3 132.5t-11.5 117.5t-24 104t-42 83t-63.5 64.5
t-89.5 39t-119.5 14.5t-120 -14.5t-90 -39t-63.5 -64.5t-42 -83t-24 -104t-11.5 -117.5t-3 -132.5q0 -67 2 -117.5t8 -105.5t18 -96t29.5 -81t44.5 -67t62 -48.5t83 -31.5t107 -10z" />
    <glyph glyph-name="Otilde" unicode="&#xd5;" horiz-adv-x="1312" 
d="M657 -16q-110 0 -197.5 21.5t-149 58t-106.5 94t-72 119.5t-42.5 145t-21 160.5t-5.5 175.5t5.5 175.5t21 160.5t42.5 145.5t72 120t106.5 94.5t149.5 58.5t197 21.5t196.5 -21.5t149 -58.5t106.5 -94.5t71.5 -120t42 -145.5t21 -160.5t5.5 -175.5t-5.5 -175.5
t-21 -160.5t-42 -145t-71.5 -119.5t-106.5 -94t-149 -58t-196.5 -21.5zM657 195q67 0 119.5 14.5t89.5 38.5t63.5 64.5t42 83.5t24 104.5t11.5 118t3 133.5q0 76 -3 132.5t-11.5 117.5t-24 104t-42 83t-63.5 64.5t-89.5 39t-119.5 14.5t-120 -14.5t-90 -39t-63.5 -64.5
t-42 -83t-24 -104t-11.5 -117.5t-3 -132.5q0 -67 2 -117.5t8 -105.5t18 -96t29.5 -81t44.5 -67t62 -48.5t83 -31.5t107 -10zM424 1593l-150 84q48 96 109 142.5t141 46.5q45 0 91 -21.5t84.5 -43t64.5 -21.5q32 0 59.5 22.5t61.5 73.5l147 -86q-48 -97 -108 -145t-140 -48
q-45 0 -92 21t-85.5 42t-63.5 21q-61 0 -119 -88z" />
    <glyph glyph-name="Odieresis" unicode="&#xd6;" horiz-adv-x="1312" 
d="M367 1602v235h204v-235h-204zM741 1602v235h205v-235h-205zM657 -16q-110 0 -197.5 21.5t-149 58t-106.5 94t-72 119.5t-42.5 145t-21 160.5t-5.5 175.5t5.5 175.5t21 160.5t42.5 145.5t72 120t106.5 94.5t149.5 58.5t197 21.5t196.5 -21.5t149 -58.5t106.5 -94.5
t71.5 -120t42 -145.5t21 -160.5t5.5 -175.5t-5.5 -175.5t-21 -160.5t-42 -145t-71.5 -119.5t-106.5 -94t-149 -58t-196.5 -21.5zM657 195q67 0 119.5 14.5t89.5 38.5t63.5 64.5t42 83.5t24 104.5t11.5 118t3 133.5q0 76 -3 132.5t-11.5 117.5t-24 104t-42 83t-63.5 64.5
t-89.5 39t-119.5 14.5t-120 -14.5t-90 -39t-63.5 -64.5t-42 -83t-24 -104t-11.5 -117.5t-3 -132.5q0 -67 2 -117.5t8 -105.5t18 -96t29.5 -81t44.5 -67t62 -48.5t83 -31.5t107 -10z" />
    <glyph glyph-name="multiply" unicode="&#xd7;" horiz-adv-x="1187" 
d="M338 322l-139 143l254 256l-254 254l141 143l254 -254l256 254l139 -143l-256 -254l254 -254l-137 -143l-256 254z" />
    <glyph glyph-name="Oslash" unicode="&#xd8;" horiz-adv-x="1312" 
d="M180 -84l84 180q-61 50 -102.5 121t-62 160.5t-28.5 178t-8 202.5q0 98 5.5 175.5t21 160.5t42.5 145.5t72 120t106.5 94.5t149.5 58.5t197 21.5q122 0 220 -29l51 99h207l-86 -185q61 -50 102 -121t61.5 -160.5t28.5 -178t8 -201.5q0 -98 -5.5 -175.5t-21 -160.5
t-42 -145t-71.5 -119.5t-106.5 -94t-149 -58t-196.5 -21.5t-215 24l-41 -92h-221zM657 184q68 0 121.5 14.5t91 39.5t64.5 66t43 84.5t24.5 106t11.5 120.5t3 137q0 154 -16 260.5t-62 177.5l-420 -987q57 -19 139 -19zM297 752q0 -158 15 -262.5t59 -174.5l413 985
q-56 17 -127 17q-68 0 -122 -15t-91.5 -39.5t-64.5 -66t-42.5 -85t-24.5 -106t-12 -119.5t-3 -134z" />
    <glyph glyph-name="Ugrave" unicode="&#xd9;" horiz-adv-x="1308" 
d="M655 -20q-151 0 -256 34.5t-166 104.5t-87.5 165.5t-26.5 229.5v1004h237v-983q0 -90 13.5 -150t46.5 -104.5t92 -65t149 -20.5q174 0 239 79t65 261v983h229v-1004q0 -107 -16 -188t-53.5 -148t-98.5 -109.5t-152.5 -65.5t-214.5 -23zM602 1602l-283 346h259l225 -346
h-201z" />
    <glyph glyph-name="Uacute" unicode="&#xda;" horiz-adv-x="1308" 
d="M502 1602l223 346h256l-281 -346h-198zM655 -20q-151 0 -256 34.5t-166 104.5t-87.5 165.5t-26.5 229.5v1004h237v-983q0 -90 13.5 -150t46.5 -104.5t92 -65t149 -20.5q174 0 239 79t65 261v983h229v-1004q0 -107 -16 -188t-53.5 -148t-98.5 -109.5t-152.5 -65.5
t-214.5 -23z" />
    <glyph glyph-name="Ucircumflex" unicode="&#xdb;" horiz-adv-x="1308" 
d="M317 1602l228 346h215l227 -346h-188l-150 186l-149 -186h-183zM655 -20q-151 0 -256 34.5t-166 104.5t-87.5 165.5t-26.5 229.5v1004h237v-983q0 -90 13.5 -150t46.5 -104.5t92 -65t149 -20.5q174 0 239 79t65 261v983h229v-1004q0 -107 -16 -188t-53.5 -148
t-98.5 -109.5t-152.5 -65.5t-214.5 -23z" />
    <glyph glyph-name="Udieresis" unicode="&#xdc;" horiz-adv-x="1308" 
d="M362 1602v235h205v-235h-205zM737 1602v235h205v-235h-205zM655 -20q-151 0 -256 34.5t-166 104.5t-87.5 165.5t-26.5 229.5v1004h237v-983q0 -90 13.5 -150t46.5 -104.5t92 -65t149 -20.5q174 0 239 79t65 261v983h229v-1004q0 -107 -16 -188t-53.5 -148t-98.5 -109.5
t-152.5 -65.5t-214.5 -23z" />
    <glyph glyph-name="Yacute" unicode="&#xdd;" horiz-adv-x="1204" 
d="M483 0v537l-475 981h252l344 -725l346 725h244l-475 -981v-537h-236zM451 1602l223 346h256l-281 -346h-198z" />
    <glyph glyph-name="Thorn" unicode="&#xde;" horiz-adv-x="1175" 
d="M129 0v1518h233v-244h304q132 0 223 -29.5t144.5 -91t76.5 -146.5t23 -206q0 -120 -23 -206.5t-76.5 -151t-146 -96.5t-225.5 -32h-300v-315h-233zM362 518h295q131 0 187.5 63t56.5 210q0 150 -56.5 213t-187.5 63h-295v-549z" />
    <glyph glyph-name="germandbls" unicode="&#xdf;" horiz-adv-x="1122" 
d="M111 0v1174q0 199 103 307t337 108q229 0 328.5 -93.5t99.5 -303.5q0 -164 -30.5 -247.5t-110.5 -117.5q127 -26 174 -117t47 -280q0 -163 -46 -254.5t-154 -133.5t-302 -42h-90v207h90q158 0 216 57t58 197q0 137 -57.5 191.5t-214.5 54.5h-43v194h43q106 0 152.5 51.5
t46.5 180.5t-48 183t-159 54q-113 0 -164 -53t-51 -166v-1151h-225z" />
    <glyph glyph-name="agrave" unicode="&#xe0;" horiz-adv-x="1067" 
d="M408 -12q-99 0 -168 24.5t-107.5 73t-55 111t-16.5 147.5q0 122 35 204t110.5 129.5t181 67t261.5 19.5h45q-3 104 -42 149t-144 45q-163 0 -285 -61l-94 186q155 84 403 84q115 0 190 -22t118.5 -73t60.5 -122.5t17 -181.5v-463q0 -66 14 -85t72 -19v-201q-23 -2 -66 -2
q-97 0 -144 21t-65 81q-47 -61 -124 -86.5t-197 -25.5zM457 178q111 0 174 58t63 204v140h-43q-86 0 -141.5 -4.5t-103 -17t-73 -36.5t-39 -61t-13.5 -92q0 -106 42 -148.5t134 -42.5zM483 1260l-282 346h258l225 -346h-201z" />
    <glyph glyph-name="aacute" unicode="&#xe1;" horiz-adv-x="1067" 
d="M408 -12q-99 0 -168 24.5t-107.5 73t-55 111t-16.5 147.5q0 122 35 204t110.5 129.5t181 67t261.5 19.5h45q-3 104 -42 149t-144 45q-163 0 -285 -61l-94 186q155 84 403 84q115 0 190 -22t118.5 -73t60.5 -122.5t17 -181.5v-463q0 -66 14 -85t72 -19v-201q-23 -2 -66 -2
q-97 0 -144 21t-65 81q-47 -61 -124 -86.5t-197 -25.5zM457 178q111 0 174 58t63 204v140h-43q-86 0 -141.5 -4.5t-103 -17t-73 -36.5t-39 -61t-13.5 -92q0 -106 42 -148.5t134 -42.5zM383 1260l223 346h256l-280 -346h-199z" />
    <glyph glyph-name="acircumflex" unicode="&#xe2;" horiz-adv-x="1067" 
d="M408 -12q-99 0 -168 24.5t-107.5 73t-55 111t-16.5 147.5q0 122 35 204t110.5 129.5t181 67t261.5 19.5h45q-3 104 -42 149t-144 45q-163 0 -285 -61l-94 186q155 84 403 84q115 0 190 -22t118.5 -73t60.5 -122.5t17 -181.5v-463q0 -66 14 -85t72 -19v-201q-23 -2 -66 -2
q-97 0 -144 21t-65 81q-47 -61 -124 -86.5t-197 -25.5zM457 178q111 0 174 58t63 204v140h-43q-86 0 -141.5 -4.5t-103 -17t-73 -36.5t-39 -61t-13.5 -92q0 -106 42 -148.5t134 -42.5zM199 1260l227 346h215l227 -346h-188l-150 186l-149 -186h-182z" />
    <glyph glyph-name="atilde" unicode="&#xe3;" horiz-adv-x="1067" 
d="M408 -12q-99 0 -168 24.5t-107.5 73t-55 111t-16.5 147.5q0 122 35 204t110.5 129.5t181 67t261.5 19.5h45q-3 104 -42 149t-144 45q-163 0 -285 -61l-94 186q155 84 403 84q115 0 190 -22t118.5 -73t60.5 -122.5t17 -181.5v-463q0 -66 14 -85t72 -19v-201q-23 -2 -66 -2
q-97 0 -144 21t-65 81q-47 -61 -124 -86.5t-197 -25.5zM457 178q111 0 174 58t63 204v140h-43q-86 0 -141.5 -4.5t-103 -17t-73 -36.5t-39 -61t-13.5 -92q0 -106 42 -148.5t134 -42.5zM301 1251l-149 84q48 96 108.5 142.5t140.5 46.5q45 0 91 -21.5t84.5 -43t64.5 -21.5
q32 0 59.5 22.5t61.5 73.5l147 -86q-48 -97 -108 -145t-139 -48q-46 0 -93 21t-85.5 42t-63.5 21q-61 0 -119 -88z" />
    <glyph glyph-name="adieresis" unicode="&#xe4;" horiz-adv-x="1067" 
d="M408 -12q-99 0 -168 24.5t-107.5 73t-55 111t-16.5 147.5q0 122 35 204t110.5 129.5t181 67t261.5 19.5h45q-3 104 -42 149t-144 45q-163 0 -285 -61l-94 186q155 84 403 84q115 0 190 -22t118.5 -73t60.5 -122.5t17 -181.5v-463q0 -66 14 -85t72 -19v-201q-23 -2 -66 -2
q-97 0 -144 21t-65 81q-47 -61 -124 -86.5t-197 -25.5zM457 178q111 0 174 58t63 204v140h-43q-86 0 -141.5 -4.5t-103 -17t-73 -36.5t-39 -61t-13.5 -92q0 -106 42 -148.5t134 -42.5zM244 1260v235h205v-235h-205zM618 1260v235h205v-235h-205z" />
    <glyph glyph-name="aring" unicode="&#xe5;" horiz-adv-x="1067" 
d="M408 -12q-99 0 -168 24.5t-107.5 73t-55 111t-16.5 147.5q0 122 35 204t110.5 129.5t181 67t261.5 19.5h45q-3 104 -42 149t-144 45q-163 0 -285 -61l-94 186q155 84 403 84q115 0 190 -22t118.5 -73t60.5 -122.5t17 -181.5v-463q0 -66 14 -85t72 -19v-201q-23 -2 -66 -2
q-97 0 -144 21t-65 81q-47 -61 -124 -86.5t-197 -25.5zM457 178q111 0 174 58t63 204v140h-43q-86 0 -141.5 -4.5t-103 -17t-73 -36.5t-39 -61t-13.5 -92q0 -106 42 -148.5t134 -42.5zM532 1245q-118 0 -172.5 68t-54.5 182q0 116 54.5 185t172.5 69q117 0 172.5 -69.5
t55.5 -184.5q0 -113 -55.5 -181.5t-172.5 -68.5zM532 1360q107 0 107 135q0 137 -107 137q-106 0 -106 -137q0 -135 106 -135z" />
    <glyph glyph-name="ae" unicode="&#xe6;" horiz-adv-x="1630" 
d="M1151 -14q-264 0 -367 166q-47 -85 -137 -124.5t-239 -39.5q-188 0 -267.5 91.5t-79.5 264.5q0 122 35 204t110.5 129.5t181 67t261.5 19.5h45q-3 104 -42 149t-144 45q-163 0 -285 -61l-94 186q155 84 403 84q121 0 194.5 -27.5t111.5 -84.5q110 110 317 110
q103 0 177.5 -24.5t117.5 -70t69 -109t33.5 -141.5t10 -167.5t-1.5 -187.5h-648q4 -75 16.5 -124.5t40 -87t75 -54.5t118.5 -17q69 0 128 11.5t88.5 23t76.5 33.5l88 -176q-162 -88 -393 -88zM457 178q111 0 174 58t63 204v140h-43q-86 0 -141.5 -4.5t-103 -17t-73 -36.5
t-39 -61t-13.5 -92q0 -106 42 -148.5t134 -42.5zM1151 963q-132 0 -182.5 -71.5t-57.5 -225.5h445q0 43 -1 67.5t-4 58t-9 52t-15.5 41t-24.5 34.5t-36 23.5t-49.5 16t-65.5 4.5z" />
    <glyph glyph-name="ccedilla" unicode="&#xe7;" horiz-adv-x="878" 
d="M463 -467q-115 0 -217 47l51 113q73 -29 149 -29q66 0 90.5 21t24.5 67q0 52 -32 66.5t-119 9.5l-48 35l27 133q-95 18 -159.5 65.5t-99.5 125t-49.5 170t-14.5 218.5q0 116 11.5 201.5t42 162t82.5 124t135.5 75t197.5 27.5q172 0 292 -59l-100 -199q-79 43 -182 43
q-141 0 -193.5 -89t-52.5 -292q0 -205 52 -295t198 -90q93 0 205 52l88 -177q-84 -40 -155.5 -57.5t-166.5 -17.5h-2l-12 -74q99 7 154 -30t55 -142q0 -107 -57.5 -156t-194.5 -49z" />
    <glyph glyph-name="egrave" unicode="&#xe8;" horiz-adv-x="1003" 
d="M524 -14q-95 0 -167.5 18t-122.5 54.5t-83.5 85t-51.5 118t-25.5 143t-7.5 170.5q0 113 12.5 199.5t44 162.5t83.5 124.5t133 76t191 27.5q86 0 151 -15.5t108.5 -45.5t72.5 -74.5t44 -102.5t22.5 -129t7.5 -154.5v-178.5h-649q8 -151 60 -217t190 -66q69 0 128.5 11.5
t90 23.5t73.5 33l89 -176q-164 -88 -394 -88zM524 963q-68 0 -113.5 -19t-71.5 -59t-37.5 -91.5t-14.5 -127.5h438q0 37 -1 59.5t-3 52.5t-6 48t-11 40t-17.5 34.5t-25 26.5t-34.5 20.5t-45.5 11t-57.5 4.5zM451 1260l-283 346h258l225 -346h-200z" />
    <glyph glyph-name="eacute" unicode="&#xe9;" horiz-adv-x="1003" 
d="M350 1260l223 346h256l-280 -346h-199zM524 -14q-95 0 -167.5 18t-122.5 54.5t-83.5 85t-51.5 118t-25.5 143t-7.5 170.5q0 113 12.5 199.5t44 162.5t83.5 124.5t133 76t191 27.5q86 0 151 -15.5t108.5 -45.5t72.5 -74.5t44 -102.5t22.5 -129t7.5 -154.5v-178.5h-649
q8 -151 60 -217t190 -66q69 0 128.5 11.5t90 23.5t73.5 33l89 -176q-164 -88 -394 -88zM524 963q-68 0 -113.5 -19t-71.5 -59t-37.5 -91.5t-14.5 -127.5h438q0 37 -1 59.5t-3 52.5t-6 48t-11 40t-17.5 34.5t-25 26.5t-34.5 20.5t-45.5 11t-57.5 4.5z" />
    <glyph glyph-name="ecircumflex" unicode="&#xea;" horiz-adv-x="1003" 
d="M166 1260l227 346h215l228 -346h-189l-149 186l-150 -186h-182zM524 -14q-95 0 -167.5 18t-122.5 54.5t-83.5 85t-51.5 118t-25.5 143t-7.5 170.5q0 113 12.5 199.5t44 162.5t83.5 124.5t133 76t191 27.5q86 0 151 -15.5t108.5 -45.5t72.5 -74.5t44 -102.5t22.5 -129
t7.5 -154.5v-178.5h-649q8 -151 60 -217t190 -66q69 0 128.5 11.5t90 23.5t73.5 33l89 -176q-164 -88 -394 -88zM524 963q-68 0 -113.5 -19t-71.5 -59t-37.5 -91.5t-14.5 -127.5h438q0 37 -1 59.5t-3 52.5t-6 48t-11 40t-17.5 34.5t-25 26.5t-34.5 20.5t-45.5 11t-57.5 4.5z
" />
    <glyph glyph-name="edieresis" unicode="&#xeb;" horiz-adv-x="1003" 
d="M211 1260v235h205v-235h-205zM586 1260v235h205v-235h-205zM524 -14q-95 0 -167.5 18t-122.5 54.5t-83.5 85t-51.5 118t-25.5 143t-7.5 170.5q0 113 12.5 199.5t44 162.5t83.5 124.5t133 76t191 27.5q86 0 151 -15.5t108.5 -45.5t72.5 -74.5t44 -102.5t22.5 -129
t7.5 -154.5v-178.5h-649q8 -151 60 -217t190 -66q69 0 128.5 11.5t90 23.5t73.5 33l89 -176q-164 -88 -394 -88zM524 963q-68 0 -113.5 -19t-71.5 -59t-37.5 -91.5t-14.5 -127.5h438q0 37 -1 59.5t-3 52.5t-6 48t-11 40t-17.5 34.5t-25 26.5t-34.5 20.5t-45.5 11t-57.5 4.5z
" />
    <glyph glyph-name="igrave" unicode="&#xec;" horiz-adv-x="464" 
d="M147 1260l-202 346h252l147 -346h-197zM117 0v1145h229v-1145h-229z" />
    <glyph glyph-name="iacute" unicode="&#xed;" horiz-adv-x="464" 
d="M121 1260l143 346h256l-203 -346h-196zM117 0v1145h229v-1145h-229z" />
    <glyph glyph-name="icircumflex" unicode="&#xee;" horiz-adv-x="464" 
d="M-72 1260l197 346h215l197 -346h-189l-119 186l-118 -186h-183zM117 0v1145h229v-1145h-229z" />
    <glyph glyph-name="idieresis" unicode="&#xef;" horiz-adv-x="464" 
d="M-23 1260v235h185v-235h-185zM301 1260v235h184v-235h-184zM117 0v1145h229v-1145h-229z" />
    <glyph glyph-name="eth" unicode="&#xf0;" horiz-adv-x="1079" 
d="M467 1174v163l135 33q-49 70 -108 121l174 108q88 -60 157 -176l195 47v-163l-121 -29q113 -283 113 -666q0 -84 -4 -149t-16.5 -133t-34 -117.5t-57.5 -94.5t-85 -73t-118.5 -44.5t-157.5 -16.5q-109 0 -191.5 27t-135.5 75t-86 120.5t-46.5 156t-13.5 190.5
q0 97 10.5 174.5t39 150.5t74 121.5t119.5 77.5t172 29q193 0 279 -92q-29 107 -78 211zM539 184q64 0 109 19.5t70.5 50t39.5 81.5t18 98t4 116q0 68 -4 115t-18 97t-39.5 79.5t-70.5 49t-109 19.5q-63 0 -108 -19t-71 -49.5t-40.5 -80t-18.5 -97t-4 -114.5q0 -68 4 -116
t18.5 -98.5t40.5 -81t71 -50t108 -19.5z" />
    <glyph glyph-name="ntilde" unicode="&#xf1;" horiz-adv-x="1091" 
d="M111 0v1130l182 17l18 -105q41 60 121 91.5t225 31.5q85 0 145.5 -21t96.5 -55t56.5 -90.5t27 -114.5t6.5 -139v-745h-229v692q0 56 -3.5 91.5t-14 69.5t-31 52.5t-54.5 29.5t-84 11q-75 0 -121.5 -19.5t-71 -65t-32.5 -102.5t-8 -149v-610h-229zM311 1251l-149 84
q48 96 108.5 142.5t141.5 46.5q44 0 90 -21.5t84.5 -43t64.5 -21.5q32 0 59.5 22.5t61.5 73.5l148 -86q-49 -97 -109 -145t-139 -48q-46 0 -93 21t-85.5 42t-63.5 21q-61 0 -119 -88z" />
    <glyph glyph-name="ograve" unicode="&#xf2;" horiz-adv-x="1077" 
d="M539 -16q-114 0 -198.5 29t-136.5 78t-83.5 126t-43 162t-11.5 196t11 194.5t42 161t83 127t136.5 78.5t200.5 29t201 -29.5t136.5 -79.5t82.5 -127.5t42 -160.5t11 -193q0 -113 -11 -197.5t-42 -162t-83 -126t-136.5 -77t-200.5 -28.5zM539 184q64 0 109 19.5t70.5 50
t39.5 83.5t18 103.5t4 126.5q0 77 -4 128t-18 103.5t-39.5 83t-70.5 49.5t-109 19t-108.5 -19t-70.5 -49.5t-40.5 -83t-18.5 -104t-4 -127.5q0 -53 2 -92t8 -81t17 -71.5t29 -57.5t43 -44.5t61 -26.5t82 -10zM485 1260l-282 346h258l225 -346h-201z" />
    <glyph glyph-name="oacute" unicode="&#xf3;" horiz-adv-x="1077" 
d="M385 1260l223 346h256l-280 -346h-199zM539 -16q-114 0 -198.5 29t-136.5 78t-83.5 126t-43 162t-11.5 196t11 194.5t42 161t83 127t136.5 78.5t200.5 29t201 -29.5t136.5 -79.5t82.5 -127.5t42 -160.5t11 -193q0 -113 -11 -197.5t-42 -162t-83 -126t-136.5 -77
t-200.5 -28.5zM539 184q64 0 109 19.5t70.5 50t39.5 83.5t18 103.5t4 126.5q0 77 -4 128t-18 103.5t-39.5 83t-70.5 49.5t-109 19t-108.5 -19t-70.5 -49.5t-40.5 -83t-18.5 -104t-4 -127.5q0 -53 2 -92t8 -81t17 -71.5t29 -57.5t43 -44.5t61 -26.5t82 -10z" />
    <glyph glyph-name="ocircumflex" unicode="&#xf4;" horiz-adv-x="1077" 
d="M201 1260l227 346h215l227 -346h-188l-150 186l-149 -186h-182zM539 -16q-114 0 -198.5 29t-136.5 78t-83.5 126t-43 162t-11.5 196t11 194.5t42 161t83 127t136.5 78.5t200.5 29t201 -29.5t136.5 -79.5t82.5 -127.5t42 -160.5t11 -193q0 -113 -11 -197.5t-42 -162
t-83 -126t-136.5 -77t-200.5 -28.5zM539 184q64 0 109 19.5t70.5 50t39.5 83.5t18 103.5t4 126.5q0 77 -4 128t-18 103.5t-39.5 83t-70.5 49.5t-109 19t-108.5 -19t-70.5 -49.5t-40.5 -83t-18.5 -104t-4 -127.5q0 -53 2 -92t8 -81t17 -71.5t29 -57.5t43 -44.5t61 -26.5
t82 -10z" />
    <glyph glyph-name="otilde" unicode="&#xf5;" horiz-adv-x="1077" 
d="M539 -16q-114 0 -198.5 29t-136.5 78t-83.5 126t-43 162t-11.5 196t11 194.5t42 161t83 127t136.5 78.5t200.5 29t201 -29.5t136.5 -79.5t82.5 -127.5t42 -160.5t11 -193q0 -113 -11 -197.5t-42 -162t-83 -126t-136.5 -77t-200.5 -28.5zM539 184q64 0 109 19.5t70.5 50
t39.5 83.5t18 103.5t4 126.5q0 77 -4 128t-18 103.5t-39.5 83t-70.5 49.5t-109 19t-108.5 -19t-70.5 -49.5t-40.5 -83t-18.5 -104t-4 -127.5q0 -53 2 -92t8 -81t17 -71.5t29 -57.5t43 -44.5t61 -26.5t82 -10zM303 1251l-149 84q48 96 108.5 142.5t140.5 46.5q45 0 91 -21.5
t84.5 -43t64.5 -21.5q32 0 59.5 22.5t61.5 73.5l147 -86q-48 -97 -108 -145t-139 -48q-46 0 -93 21t-85.5 42t-63.5 21q-61 0 -119 -88z" />
    <glyph glyph-name="odieresis" unicode="&#xf6;" horiz-adv-x="1077" 
d="M246 1260v235h205v-235h-205zM621 1260v235h204v-235h-204zM539 -16q-114 0 -198.5 29t-136.5 78t-83.5 126t-43 162t-11.5 196t11 194.5t42 161t83 127t136.5 78.5t200.5 29t201 -29.5t136.5 -79.5t82.5 -127.5t42 -160.5t11 -193q0 -113 -11 -197.5t-42 -162t-83 -126
t-136.5 -77t-200.5 -28.5zM539 184q64 0 109 19.5t70.5 50t39.5 83.5t18 103.5t4 126.5q0 77 -4 128t-18 103.5t-39.5 83t-70.5 49.5t-109 19t-108.5 -19t-70.5 -49.5t-40.5 -83t-18.5 -104t-4 -127.5q0 -53 2 -92t8 -81t17 -71.5t29 -57.5t43 -44.5t61 -26.5t82 -10z" />
    <glyph glyph-name="divide" unicode="&#xf7;" horiz-adv-x="1187" 
d="M475 236v221h238v-221h-238zM162 616v211h864v-211h-864zM475 985v221h238v-221h-238z" />
    <glyph glyph-name="oslash" unicode="&#xf8;" horiz-adv-x="1077" 
d="M113 -88l92 178q-77 73 -108 193.5t-31 291.5q0 111 11 194.5t42 161t83 127t136.5 78.5t200.5 29q105 0 184 -24l47 92h203l-94 -182q73 -74 103 -193t30 -283q0 -113 -11 -197.5t-42 -162t-83 -126t-136.5 -77t-200.5 -28.5q-92 0 -179 20l-47 -92h-200zM289 567
q0 -184 35 -266l309 643q-41 12 -94 12q-65 0 -111 -19.5t-73 -50.5t-42 -83.5t-19.5 -105.5t-4.5 -130zM539 178q55 0 96 12.5t68 38.5t44 57.5t26 79t12 93t3 108.5q0 178 -32 260l-310 -637q40 -12 93 -12z" />
    <glyph glyph-name="ugrave" unicode="&#xf9;" horiz-adv-x="1069" 
d="M535 -16q-131 0 -215.5 26t-132.5 84.5t-66.5 139.5t-18.5 204v707h232v-694q0 -61 3 -96.5t14 -71.5t33 -54t60 -29.5t95 -11.5q68 0 109 15t61 52t26 80t6 118v692h226v-707q0 -99 -10.5 -168t-38.5 -126.5t-76.5 -90.5t-124 -51t-182.5 -18zM483 1260l-282 346h258
l225 -346h-201z" />
    <glyph glyph-name="uacute" unicode="&#xfa;" horiz-adv-x="1069" 
d="M383 1260l223 346h256l-280 -346h-199zM535 -16q-131 0 -215.5 26t-132.5 84.5t-66.5 139.5t-18.5 204v707h232v-694q0 -61 3 -96.5t14 -71.5t33 -54t60 -29.5t95 -11.5q68 0 109 15t61 52t26 80t6 118v692h226v-707q0 -99 -10.5 -168t-38.5 -126.5t-76.5 -90.5t-124 -51
t-182.5 -18z" />
    <glyph glyph-name="ucircumflex" unicode="&#xfb;" horiz-adv-x="1069" 
d="M199 1260l227 346h215l227 -346h-188l-150 186l-149 -186h-182zM535 -16q-131 0 -215.5 26t-132.5 84.5t-66.5 139.5t-18.5 204v707h232v-694q0 -61 3 -96.5t14 -71.5t33 -54t60 -29.5t95 -11.5q68 0 109 15t61 52t26 80t6 118v692h226v-707q0 -99 -10.5 -168
t-38.5 -126.5t-76.5 -90.5t-124 -51t-182.5 -18z" />
    <glyph glyph-name="udieresis" unicode="&#xfc;" horiz-adv-x="1069" 
d="M244 1260v235h205v-235h-205zM618 1260v235h205v-235h-205zM535 -16q-131 0 -215.5 26t-132.5 84.5t-66.5 139.5t-18.5 204v707h232v-694q0 -61 3 -96.5t14 -71.5t33 -54t60 -29.5t95 -11.5q68 0 109 15t61 52t26 80t6 118v692h226v-707q0 -99 -10.5 -168t-38.5 -126.5
t-76.5 -90.5t-124 -51t-182.5 -18z" />
    <glyph glyph-name="yacute" unicode="&#xfd;" horiz-adv-x="950" 
d="M135 -324v187h113q43 0 63 14.5t31 50.5l20 70l-350 1147h234l233 -819l232 819h225l-385 -1264q-37 -122 -105 -163.5t-200 -41.5h-111zM326 1260l223 346h256l-281 -346h-198z" />
    <glyph glyph-name="thorn" unicode="&#xfe;" horiz-adv-x="1107" 
d="M111 -324v1899h227v-531q36 60 110 90.5t214 30.5q71 0 127.5 -17t96 -45t68.5 -72.5t45.5 -91.5t26.5 -111t13 -121.5t3 -131.5t-3.5 -133t-14 -122t-28.5 -110.5t-47.5 -91t-69.5 -71.5t-97.5 -44.5t-128.5 -16.5q-130 0 -200 26t-113 80v-416h-229zM588 186
q57 0 97 18t64.5 48t38.5 80t18.5 103.5t4.5 129.5q0 77 -4.5 130t-18 105t-37.5 82.5t-64.5 49t-98.5 18.5q-66 0 -112.5 -19t-72.5 -49t-40.5 -83t-18.5 -104.5t-4 -129.5q0 -65 2.5 -108.5t11 -91t25 -77t43.5 -54.5t68.5 -36.5t97.5 -11.5z" />
    <glyph glyph-name="ydieresis" unicode="&#xff;" horiz-adv-x="950" 
d="M135 -324v187h113q43 0 63 14.5t31 50.5l20 70l-350 1147h234l233 -819l232 819h225l-385 -1264q-37 -122 -105 -163.5t-200 -41.5h-111zM186 1260v235h205v-235h-205zM561 1260v235h205v-235h-205z" />
    <glyph glyph-name="Amacron" unicode="&#x100;" horiz-adv-x="1263" 
d="M37 0l469 1528h252l469 -1528h-244l-86 289h-541l-84 -289h-235zM416 504h422l-209 696zM295 1602v190h666v-190h-666z" />
    <glyph glyph-name="amacron" unicode="&#x101;" horiz-adv-x="1067" 
d="M408 -12q-99 0 -168 24.5t-107.5 73t-55 111t-16.5 147.5q0 122 35 204t110.5 129.5t181 67t261.5 19.5h45q-3 104 -42 149t-144 45q-163 0 -285 -61l-94 186q155 84 403 84q115 0 190 -22t118.5 -73t60.5 -122.5t17 -181.5v-463q0 -66 14 -85t72 -19v-201q-23 -2 -66 -2
q-97 0 -144 21t-65 81q-47 -61 -124 -86.5t-197 -25.5zM457 178q111 0 174 58t63 204v140h-43q-86 0 -141.5 -4.5t-103 -17t-73 -36.5t-39 -61t-13.5 -92q0 -106 42 -148.5t134 -42.5zM199 1260v190h665v-190h-665z" />
    <glyph glyph-name="Abreve" unicode="&#x102;" horiz-adv-x="1263" 
d="M37 0l469 1528h252l469 -1528h-244l-86 289h-541l-84 -289h-235zM416 504h422l-209 696zM629 1591q-91 0 -153.5 20t-100.5 63t-57.5 97t-30.5 134l168 24q14 -87 51 -125.5t123 -38.5q85 0 121.5 39t50.5 125l170 -22q-9 -65 -23 -111.5t-39 -87t-62 -65t-91 -38.5
t-127 -14z" />
    <glyph glyph-name="abreve" unicode="&#x103;" horiz-adv-x="1067" 
d="M408 -12q-99 0 -168 24.5t-107.5 73t-55 111t-16.5 147.5q0 122 35 204t110.5 129.5t181 67t261.5 19.5h45q-3 104 -42 149t-144 45q-163 0 -285 -61l-94 186q155 84 403 84q115 0 190 -22t118.5 -73t60.5 -122.5t17 -181.5v-463q0 -66 14 -85t72 -19v-201q-23 -2 -66 -2
q-97 0 -144 21t-65 81q-47 -61 -124 -86.5t-197 -25.5zM457 178q111 0 174 58t63 204v140h-43q-86 0 -141.5 -4.5t-103 -17t-73 -36.5t-39 -61t-13.5 -92q0 -106 42 -148.5t134 -42.5zM532 1249q-91 0 -153 20t-100 63t-57.5 97t-31.5 134l168 24q15 -87 52 -125.5
t122 -38.5t122 39t51 125l169 -22q-11 -81 -31 -136t-58 -97.5t-100 -62.5t-153 -20z" />
    <glyph glyph-name="Aogonek" unicode="&#x104;" horiz-adv-x="1263" 
d="M37 0l469 1528h252l469 -1528h-99q-143 -124 -143 -225q0 -46 24 -65t85 -19h63v-144h-84q-134 0 -199 43t-65 150q0 89 50.5 160t117.5 118l-80 271h-541l-84 -289h-235zM416 504h422l-209 696z" />
    <glyph glyph-name="aogonek" unicode="&#x105;" horiz-adv-x="1067" 
d="M408 -12q-99 0 -168 24.5t-107.5 73t-55 111t-16.5 147.5q0 122 35 204t110.5 129.5t181 67t261.5 19.5h45q-3 104 -42 149t-144 45q-163 0 -285 -61l-94 186q155 84 403 84q115 0 190 -22t118.5 -73t60.5 -122.5t17 -181.5v-463q0 -66 14 -85t72 -19v-201
q-96 -71 -139.5 -119.5t-43.5 -105.5q0 -46 24 -65t85 -19h63v-144h-84q-135 0 -200.5 43t-65.5 150q0 48 18 93t48 78t58 55.5t58 39.5q-76 18 -96 94q-47 -61 -124 -86.5t-197 -25.5zM457 178q111 0 174 58t63 204v140h-43q-86 0 -141.5 -4.5t-103 -17t-73 -36.5t-39 -61
t-13.5 -92q0 -106 42 -148.5t134 -42.5z" />
    <glyph glyph-name="Cacute" unicode="&#x106;" horiz-adv-x="1095" 
d="M395 1602l223 346h256l-280 -346h-199zM635 -16q-135 0 -235 36t-164 99.5t-103 162.5t-54.5 213t-15.5 263q0 105 7 190t25 167t47 144t74 115.5t106 87.5t143.5 53t185.5 19q232 0 383 -100l-127 -197q-102 66 -262 66q-193 0 -267.5 -125t-74.5 -424q0 -303 74 -430
t270 -127q90 0 154.5 18.5t130.5 60.5l117 -182q-89 -57 -183 -83.5t-231 -26.5z" />
    <glyph glyph-name="cacute" unicode="&#x107;" horiz-adv-x="878" 
d="M289 1260l223 346h256l-281 -346h-198zM520 -16q-109 0 -189 27.5t-130.5 75t-81 124t-42 163t-11.5 201.5q0 116 11.5 201.5t42 162t82.5 124t135.5 75t197.5 27.5q172 0 292 -59l-100 -199q-79 43 -182 43q-141 0 -193.5 -89t-52.5 -292q0 -205 52 -295t198 -90
q93 0 205 52l88 -177q-84 -40 -155.5 -57.5t-166.5 -17.5z" />
    <glyph glyph-name="Ccircumflex" unicode="&#x108;" horiz-adv-x="1095" 
d="M236 1602l227 346h215l227 -346h-188l-150 186l-149 -186h-182zM635 -16q-135 0 -235 36t-164 99.5t-103 162.5t-54.5 213t-15.5 263q0 105 7 190t25 167t47 144t74 115.5t106 87.5t143.5 53t185.5 19q232 0 383 -100l-127 -197q-102 66 -262 66q-193 0 -267.5 -125
t-74.5 -424q0 -303 74 -430t270 -127q90 0 154.5 18.5t130.5 60.5l117 -182q-89 -57 -183 -83.5t-231 -26.5z" />
    <glyph glyph-name="ccircumflex" unicode="&#x109;" horiz-adv-x="878" 
d="M137 1260l228 346h215l227 -346h-189l-149 186l-150 -186h-182zM520 -16q-109 0 -189 27.5t-130.5 75t-81 124t-42 163t-11.5 201.5q0 116 11.5 201.5t42 162t82.5 124t135.5 75t197.5 27.5q172 0 292 -59l-100 -199q-79 43 -182 43q-141 0 -193.5 -89t-52.5 -292
q0 -205 52 -295t198 -90q93 0 205 52l88 -177q-84 -40 -155.5 -57.5t-166.5 -17.5z" />
    <glyph glyph-name="Cdotaccent" unicode="&#x10a;" horiz-adv-x="1095" 
d="M635 -16q-135 0 -235 36t-164 99.5t-103 162.5t-54.5 213t-15.5 263q0 105 7 190t25 167t47 144t74 115.5t106 87.5t143.5 53t185.5 19q232 0 383 -100l-127 -197q-102 66 -262 66q-193 0 -267.5 -125t-74.5 -424q0 -303 74 -430t270 -127q90 0 154.5 18.5t130.5 60.5
l117 -182q-89 -57 -183 -83.5t-231 -26.5zM465 1602v245h231v-245h-231z" />
    <glyph glyph-name="cdotaccent" unicode="&#x10b;" horiz-adv-x="878" 
d="M520 -16q-109 0 -189 27.5t-130.5 75t-81 124t-42 163t-11.5 201.5q0 116 11.5 201.5t42 162t82.5 124t135.5 75t197.5 27.5q172 0 292 -59l-100 -199q-79 43 -182 43q-141 0 -193.5 -89t-52.5 -292q0 -205 52 -295t198 -90q93 0 205 52l88 -177q-84 -40 -155.5 -57.5
t-166.5 -17.5zM362 1260v245h232v-245h-232z" />
    <glyph glyph-name="Ccaron" unicode="&#x10c;" horiz-adv-x="1095" 
d="M438 1602l-227 346h188l148 -187l149 187h185l-228 -346h-215zM635 -16q-135 0 -235 36t-164 99.5t-103 162.5t-54.5 213t-15.5 263q0 105 7 190t25 167t47 144t74 115.5t106 87.5t143.5 53t185.5 19q232 0 383 -100l-127 -197q-102 66 -262 66q-193 0 -267.5 -125
t-74.5 -424q0 -303 74 -430t270 -127q90 0 154.5 18.5t130.5 60.5l117 -182q-89 -57 -183 -83.5t-231 -26.5z" />
    <glyph glyph-name="ccaron" unicode="&#x10d;" horiz-adv-x="878" 
d="M332 1260l-228 346h189l147 -187l150 187h184l-227 -346h-215zM520 -16q-109 0 -189 27.5t-130.5 75t-81 124t-42 163t-11.5 201.5q0 116 11.5 201.5t42 162t82.5 124t135.5 75t197.5 27.5q172 0 292 -59l-100 -199q-79 43 -182 43q-141 0 -193.5 -89t-52.5 -292
q0 -205 52 -295t198 -90q93 0 205 52l88 -177q-84 -40 -155.5 -57.5t-166.5 -17.5z" />
    <glyph glyph-name="Dcaron" unicode="&#x10e;" horiz-adv-x="1255" 
d="M520 1602l-227 346h188l148 -187l149 187h185l-228 -346h-215zM129 0v1518h442q180 0 299.5 -42.5t191 -138t101 -233.5t29.5 -344q0 -169 -18.5 -289t-61 -213t-115 -148t-178 -82.5t-252.5 -27.5h-438zM367 207h219q88 0 150.5 20t105 59.5t66.5 107.5t34 154t10 210
q0 153 -15.5 250.5t-57 166t-112 97t-181.5 28.5h-219v-1093z" />
    <glyph glyph-name="dcaron" unicode="&#x10f;" horiz-adv-x="1310" 
d="M1153 1130l-49 91q66 38 83 59.5t17 71.5h-96v223h215v-207q0 -93 -31 -140.5t-139 -97.5zM446 -14q-71 0 -128 17t-96 44.5t-67.5 72.5t-45 92t-26 111t-12.5 122t-3 133q0 74 3.5 133t14 121.5t28 110t47 91t69.5 71t97.5 44t129.5 16.5q130 0 200.5 -26t112.5 -80v516
h229v-1567l-184 -14l-18 117q-45 -62 -126 -93.5t-225 -31.5zM520 186q55 0 96.5 12t68.5 37.5t44.5 56.5t26 78.5t11.5 93t3 109.5q0 54 -2 92.5t-8 81t-16.5 71t-29 56t-45 43.5t-64 25.5t-85.5 9.5q-57 0 -97.5 -18t-65 -48t-38 -80.5t-18 -103.5t-4.5 -129q0 -78 4 -131
t17.5 -105t37.5 -82.5t65 -49.5t99 -19z" />
    <glyph glyph-name="Dcroat" unicode="&#x110;" horiz-adv-x="1255" 
d="M2 678v194h127v646h442q180 0 299.5 -42.5t191 -138t101 -233.5t29.5 -344q0 -169 -18.5 -289t-61 -213t-115 -148t-178 -82.5t-252.5 -27.5h-438v678h-127zM367 207h219q88 0 150.5 20t105 59.5t66.5 107.5t34 154t10 210q0 153 -15.5 250.5t-57 166t-112 97
t-181.5 28.5h-219v-428h239v-194h-239v-471z" />
    <glyph glyph-name="dcroat" unicode="&#x111;" horiz-adv-x="1107" 
d="M543 1264v178h227v133h229v-133h109v-178h-109v-1256l-184 -14l-18 117q-45 -62 -126 -93.5t-225 -31.5q-71 0 -128 17t-96 44.5t-67.5 72.5t-45 92t-26 111t-12.5 122t-3 133q0 74 3.5 133t14 121.5t28 110t47 91t69.5 71t97.5 44t129.5 16.5q130 0 200.5 -26t112.5 -80
v205h-227zM520 186q55 0 96.5 12t68.5 37.5t44.5 56.5t26 78.5t11.5 93t3 109.5q0 54 -2 92.5t-8 81t-16.5 71t-29 56t-45 43.5t-64 25.5t-85.5 9.5q-57 0 -97.5 -18t-65 -48t-38 -80.5t-18 -103.5t-4.5 -129q0 -78 4 -131t17.5 -105t37.5 -82.5t65 -49.5t99 -19z" />
    <glyph glyph-name="Emacron" unicode="&#x112;" horiz-adv-x="1087" 
d="M129 0v1518h866v-218h-635v-409h605v-217h-605v-461h639v-213h-870zM209 1602v190h665v-190h-665z" />
    <glyph glyph-name="emacron" unicode="&#x113;" horiz-adv-x="1003" 
d="M524 -14q-95 0 -167.5 18t-122.5 54.5t-83.5 85t-51.5 118t-25.5 143t-7.5 170.5q0 113 12.5 199.5t44 162.5t83.5 124.5t133 76t191 27.5q86 0 151 -15.5t108.5 -45.5t72.5 -74.5t44 -102.5t22.5 -129t7.5 -154.5v-178.5h-649q8 -151 60 -217t190 -66q69 0 128.5 11.5
t90 23.5t73.5 33l89 -176q-164 -88 -394 -88zM524 963q-68 0 -113.5 -19t-71.5 -59t-37.5 -91.5t-14.5 -127.5h438q0 37 -1 59.5t-3 52.5t-6 48t-11 40t-17.5 34.5t-25 26.5t-34.5 20.5t-45.5 11t-57.5 4.5zM166 1260v190h665v-190h-665z" />
    <glyph glyph-name="Ebreve" unicode="&#x114;" horiz-adv-x="1087" 
d="M129 0v1518h866v-218h-635v-409h605v-217h-605v-461h639v-213h-870zM553 1591q-91 0 -153.5 20t-100 63t-57 97t-31.5 134l168 24q14 -87 51 -125.5t123 -38.5q85 0 122 39t50 125l170 -22q-12 -81 -31.5 -135.5t-57.5 -97.5t-100 -63t-153 -20z" />
    <glyph glyph-name="ebreve" unicode="&#x115;" horiz-adv-x="1003" 
d="M524 -14q-95 0 -167.5 18t-122.5 54.5t-83.5 85t-51.5 118t-25.5 143t-7.5 170.5q0 113 12.5 199.5t44 162.5t83.5 124.5t133 76t191 27.5q86 0 151 -15.5t108.5 -45.5t72.5 -74.5t44 -102.5t22.5 -129t7.5 -154.5v-178.5h-649q8 -151 60 -217t190 -66q69 0 128.5 11.5
t90 23.5t73.5 33l89 -176q-164 -88 -394 -88zM524 963q-68 0 -113.5 -19t-71.5 -59t-37.5 -91.5t-14.5 -127.5h438q0 37 -1 59.5t-3 52.5t-6 48t-11 40t-17.5 34.5t-25 26.5t-34.5 20.5t-45.5 11t-57.5 4.5zM504 1249q-91 0 -153.5 20t-100.5 63t-57.5 97t-30.5 134l168 24
q14 -87 51 -125.5t123 -38.5q85 0 121.5 39t50.5 125l170 -22q-12 -81 -31.5 -135.5t-57.5 -97.5t-100 -63t-153 -20z" />
    <glyph glyph-name="Edotaccent" unicode="&#x116;" horiz-adv-x="1087" 
d="M129 0v1518h866v-218h-635v-409h605v-217h-605v-461h639v-213h-870zM428 1602v245h231v-245h-231z" />
    <glyph glyph-name="edotaccent" unicode="&#x117;" horiz-adv-x="1003" 
d="M524 -14q-95 0 -167.5 18t-122.5 54.5t-83.5 85t-51.5 118t-25.5 143t-7.5 170.5q0 113 12.5 199.5t44 162.5t83.5 124.5t133 76t191 27.5q86 0 151 -15.5t108.5 -45.5t72.5 -74.5t44 -102.5t22.5 -129t7.5 -154.5v-178.5h-649q8 -151 60 -217t190 -66q69 0 128.5 11.5
t90 23.5t73.5 33l89 -176q-164 -88 -394 -88zM524 963q-68 0 -113.5 -19t-71.5 -59t-37.5 -91.5t-14.5 -127.5h438q0 37 -1 59.5t-3 52.5t-6 48t-11 40t-17.5 34.5t-25 26.5t-34.5 20.5t-45.5 11t-57.5 4.5zM385 1260v245h231v-245h-231z" />
    <glyph glyph-name="Eogonek" unicode="&#x118;" horiz-adv-x="1087" 
d="M129 0v1518h866v-218h-635v-409h605v-217h-605v-461h639v-213h-53q-141 -125 -141 -225q0 -46 23.5 -65t84.5 -19h64v-144h-86q-134 0 -199 43t-65 150q0 149 143 260h-641z" />
    <glyph glyph-name="eogonek" unicode="&#x119;" horiz-adv-x="1003" 
d="M524 -14q-95 0 -167.5 18t-122.5 54.5t-83.5 85t-51.5 118t-25.5 143t-7.5 170.5q0 113 12.5 199.5t44 162.5t83.5 124.5t133 76t191 27.5q86 0 151 -15.5t108.5 -45.5t72.5 -74.5t44 -102.5t22.5 -129t7.5 -154.5v-178.5h-649q8 -151 60 -217t190 -66q69 0 128.5 11.5
t90 23.5t73.5 33l89 -176q-61 -33 -127 -54q-166 -132 -166 -245q0 -46 23.5 -65t84.5 -19h64v-144h-86q-134 0 -199.5 43t-65.5 150q0 131 127 248q-16 -2 -49 -2zM524 963q-68 0 -113.5 -19t-71.5 -59t-37.5 -91.5t-14.5 -127.5h438q0 37 -1 59.5t-3 52.5t-6 48t-11 40
t-17.5 34.5t-25 26.5t-34.5 20.5t-45.5 11t-57.5 4.5z" />
    <glyph glyph-name="Ecaron" unicode="&#x11a;" horiz-adv-x="1087" 
d="M436 1602l-227 346h188l148 -187l149 187h185l-228 -346h-215zM129 0v1518h866v-218h-635v-409h605v-217h-605v-461h639v-213h-870z" />
    <glyph glyph-name="ecaron" unicode="&#x11b;" horiz-adv-x="1003" 
d="M393 1260l-227 346h188l148 -187l149 187h185l-228 -346h-215zM524 -14q-95 0 -167.5 18t-122.5 54.5t-83.5 85t-51.5 118t-25.5 143t-7.5 170.5q0 113 12.5 199.5t44 162.5t83.5 124.5t133 76t191 27.5q86 0 151 -15.5t108.5 -45.5t72.5 -74.5t44 -102.5t22.5 -129
t7.5 -154.5v-178.5h-649q8 -151 60 -217t190 -66q69 0 128.5 11.5t90 23.5t73.5 33l89 -176q-164 -88 -394 -88zM524 963q-68 0 -113.5 -19t-71.5 -59t-37.5 -91.5t-14.5 -127.5h438q0 37 -1 59.5t-3 52.5t-6 48t-11 40t-17.5 34.5t-25 26.5t-34.5 20.5t-45.5 11t-57.5 4.5z
" />
    <glyph glyph-name="Gcircumflex" unicode="&#x11c;" horiz-adv-x="1208" 
d="M268 1602l228 346h215l227 -346h-188l-150 186l-149 -186h-183zM623 -16q-131 0 -227.5 33t-160 94t-102 158.5t-54.5 214.5t-16 274q0 421 134 598.5t465 177.5q244 0 411 -109l-125 -194q-131 76 -297 76q-74 0 -127 -14.5t-97 -51.5t-70.5 -99.5t-41 -158.5
t-14.5 -229q0 -163 16.5 -269t57 -174.5t105 -96.5t163.5 -28q86 0 138 20t83.5 72.5t42.5 130.5t11 207v48h-338v206h565v-215q0 -158 -14 -265t-48 -188.5t-95 -127.5t-149 -68t-216 -22z" />
    <glyph glyph-name="gcircumflex" unicode="&#x11d;" horiz-adv-x="1050" 
d="M174 1272l227 346h215l228 -346h-189l-149 186l-150 -186h-182zM508 408q-87 0 -141 10q-9 -22 -9 -51q0 -42 34.5 -57t131.5 -15q184 0 284 -28.5t140.5 -89.5t40.5 -173q0 -185 -114.5 -265.5t-364.5 -80.5q-260 0 -369.5 59.5t-109.5 216.5q0 216 198 267
q-65 43 -65 147q0 72 43 133q-121 90 -121 299q0 203 107 295t315 92q22 0 80 -4l391 68v-180h-164q115 -77 115 -271q0 -200 -109 -286t-313 -86zM508 -168q103 0 157.5 17t73.5 49.5t19 93.5q0 50 -19 76t-73 39.5t-158 13.5q-140 0 -195 -35.5t-55 -112.5q0 -81 52 -111
t198 -30zM508 590q102 0 149.5 45t47.5 143t-47.5 143.5t-149.5 45.5q-100 0 -148.5 -45.5t-48.5 -143.5q0 -97 48 -142.5t149 -45.5z" />
    <glyph glyph-name="Gbreve" unicode="&#x11e;" horiz-adv-x="1208" 
d="M623 -16q-131 0 -227.5 33t-160 94t-102 158.5t-54.5 214.5t-16 274q0 421 134 598.5t465 177.5q244 0 411 -109l-125 -194q-131 76 -297 76q-74 0 -127 -14.5t-97 -51.5t-70.5 -99.5t-41 -158.5t-14.5 -229q0 -163 16.5 -269t57 -174.5t105 -96.5t163.5 -28q86 0 138 20
t83.5 72.5t42.5 130.5t11 207v48h-338v206h565v-215q0 -158 -14 -265t-48 -188.5t-95 -127.5t-149 -68t-216 -22zM602 1591q-91 0 -153.5 20t-100 63t-57 97t-31.5 134l168 24q14 -87 51 -125.5t123 -38.5q85 0 122 39t50 125l170 -22q-12 -81 -31.5 -135.5t-57.5 -97.5
t-100 -63t-153 -20z" />
    <glyph glyph-name="gbreve" unicode="&#x11f;" horiz-adv-x="1050" 
d="M508 408q-87 0 -141 10q-9 -22 -9 -51q0 -42 34.5 -57t131.5 -15q184 0 284 -28.5t140.5 -89.5t40.5 -173q0 -185 -114.5 -265.5t-364.5 -80.5q-260 0 -369.5 59.5t-109.5 216.5q0 216 198 267q-65 43 -65 147q0 72 43 133q-121 90 -121 299q0 203 107 295t315 92
q22 0 80 -4l391 68v-180h-164q115 -77 115 -271q0 -200 -109 -286t-313 -86zM508 -168q103 0 157.5 17t73.5 49.5t19 93.5q0 50 -19 76t-73 39.5t-158 13.5q-140 0 -195 -35.5t-55 -112.5q0 -81 52 -111t198 -30zM508 590q102 0 149.5 45t47.5 143t-47.5 143.5t-149.5 45.5
q-100 0 -148.5 -45.5t-48.5 -143.5q0 -97 48 -142.5t149 -45.5zM522 1249q-91 0 -153.5 20t-100 63t-57 97t-31.5 134l168 24q15 -87 51.5 -125.5t122.5 -38.5q85 0 122 39t50 125l170 -22q-11 -81 -31 -136t-58 -97.5t-100 -62.5t-153 -20z" />
    <glyph glyph-name="Gdotaccent" unicode="&#x120;" horiz-adv-x="1208" 
d="M623 -16q-131 0 -227.5 33t-160 94t-102 158.5t-54.5 214.5t-16 274q0 421 134 598.5t465 177.5q244 0 411 -109l-125 -194q-131 76 -297 76q-74 0 -127 -14.5t-97 -51.5t-70.5 -99.5t-41 -158.5t-14.5 -229q0 -163 16.5 -269t57 -174.5t105 -96.5t163.5 -28q86 0 138 20
t83.5 72.5t42.5 130.5t11 207v48h-338v206h565v-215q0 -158 -14 -265t-48 -188.5t-95 -127.5t-149 -68t-216 -22zM496 1602v245h231v-245h-231z" />
    <glyph glyph-name="gdotaccent" unicode="&#x121;" horiz-adv-x="1050" 
d="M508 408q-87 0 -141 10q-9 -22 -9 -51q0 -42 34.5 -57t131.5 -15q184 0 284 -28.5t140.5 -89.5t40.5 -173q0 -185 -114.5 -265.5t-364.5 -80.5q-260 0 -369.5 59.5t-109.5 216.5q0 216 198 267q-65 43 -65 147q0 72 43 133q-121 90 -121 299q0 203 107 295t315 92
q22 0 80 -4l391 68v-180h-164q115 -77 115 -271q0 -200 -109 -286t-313 -86zM508 -168q103 0 157.5 17t73.5 49.5t19 93.5q0 50 -19 76t-73 39.5t-158 13.5q-140 0 -195 -35.5t-55 -112.5q0 -81 52 -111t198 -30zM508 590q102 0 149.5 45t47.5 143t-47.5 143.5t-149.5 45.5
q-100 0 -148.5 -45.5t-48.5 -143.5q0 -97 48 -142.5t149 -45.5zM399 1260v245h232v-245h-232z" />
    <glyph glyph-name="Gcommaaccent" unicode="&#x122;" horiz-adv-x="1208" 
d="M541 -524l-52 90q67 37 85 59.5t18 71.5h-96v225h213v-207q0 -93 -31 -140.5t-137 -98.5zM623 -16q-131 0 -227.5 33t-160 94t-102 158.5t-54.5 214.5t-16 274q0 421 134 598.5t465 177.5q244 0 411 -109l-125 -194q-131 76 -297 76q-74 0 -127 -14.5t-97 -51.5
t-70.5 -99.5t-41 -158.5t-14.5 -229q0 -163 16.5 -269t57 -174.5t105 -96.5t163.5 -28q86 0 138 20t83.5 72.5t42.5 130.5t11 207v48h-338v206h565v-215q0 -158 -14 -265t-48 -188.5t-95 -127.5t-149 -68t-216 -22z" />
    <glyph glyph-name="gcommaaccent" unicode="&#x123;" horiz-adv-x="1050" 
d="M418 1260v204q0 93 31 140.5t139 99.5l49 -90q-66 -39 -83 -61t-17 -70h94v-223h-213zM508 408q-87 0 -141 10q-9 -22 -9 -51q0 -42 34.5 -57t131.5 -15q184 0 284 -28.5t140.5 -89.5t40.5 -173q0 -185 -114.5 -265.5t-364.5 -80.5q-260 0 -369.5 59.5t-109.5 216.5
q0 216 198 267q-65 43 -65 147q0 72 43 133q-121 90 -121 299q0 203 107 295t315 92q22 0 80 -4l391 68v-180h-164q115 -77 115 -271q0 -200 -109 -286t-313 -86zM508 -168q103 0 157.5 17t73.5 49.5t19 93.5q0 50 -19 76t-73 39.5t-158 13.5q-140 0 -195 -35.5t-55 -112.5
q0 -81 52 -111t198 -30zM508 590q102 0 149.5 45t47.5 143t-47.5 143.5t-149.5 45.5q-100 0 -148.5 -45.5t-48.5 -143.5q0 -97 48 -142.5t149 -45.5z" />
    <glyph glyph-name="Hcircumflex" unicode="&#x124;" horiz-adv-x="1320" 
d="M324 1602l227 346h215l227 -346h-188l-150 186l-149 -186h-182zM166 0v1518h237v-615h588v615h238v-1518h-238v670h-588v-670h-237z" />
    <glyph glyph-name="hcircumflex" unicode="&#x125;" horiz-adv-x="1091" 
d="M-109 1602l228 346h215l227 -346h-188l-150 186l-149 -186h-183zM111 0v1575h227v-524q75 114 319 114q85 0 145.5 -21t96.5 -55t56.5 -90.5t27 -114.5t6.5 -139v-745h-229v692q0 56 -3.5 91.5t-14 69.5t-31 52.5t-54.5 29.5t-84 11q-73 0 -119 -18t-71 -61.5t-34 -102.5
t-9 -154v-610h-229z" />
    <glyph glyph-name="Hbar" unicode="&#x126;" horiz-adv-x="1320" 
d="M29 1096v219h100v203h238v-203h587v203h238v-203h100v-219h-100v-1096h-238v670h-587v-670h-238v1096h-100zM367 903h587v193h-587v-193z" />
    <glyph glyph-name="hbar" unicode="&#x127;" horiz-adv-x="1091" 
d="M111 0v1264h-111v178h111v133h227v-133h227v-178h-227v-213q75 114 319 114q85 0 145.5 -21t96.5 -55t56.5 -90.5t27 -114.5t6.5 -139v-745h-229v692q0 56 -3.5 91.5t-14 69.5t-31 52.5t-54.5 29.5t-84 11q-73 0 -119 -18t-71 -61.5t-34 -102.5t-9 -154v-610h-229z" />
    <glyph glyph-name="Itilde" unicode="&#x128;" horiz-adv-x="524" 
d="M143 0v1518h238v-1518h-238zM35 1593l-150 84q48 96 109 142.5t141 46.5q45 0 91 -21.5t84.5 -43t64.5 -21.5q32 0 59.5 22.5t61.5 73.5l147 -86q-48 -97 -108 -145t-140 -48q-45 0 -92 21t-85.5 42t-63.5 21q-61 0 -119 -88z" />
    <glyph glyph-name="itilde" unicode="&#x129;" horiz-adv-x="464" 
d="M117 0v1145h229v-1145h-229zM6 1251l-149 84q48 96 108.5 142.5t140.5 46.5q45 0 91 -21.5t84.5 -43t64.5 -21.5q32 0 59.5 22.5t61.5 73.5l147 -86q-48 -97 -108 -145t-139 -48q-46 0 -93 21t-85.5 42t-63.5 21q-61 0 -119 -88z" />
    <glyph glyph-name="Imacron" unicode="&#x12a;" horiz-adv-x="524" 
d="M143 0v1518h238v-1518h-238zM-70 1602v190h666v-190h-666z" />
    <glyph glyph-name="imacron" unicode="&#x12b;" horiz-adv-x="464" 
d="M117 0v1145h229v-1145h-229zM-100 1260v190h665v-190h-665z" />
    <glyph glyph-name="Ibreve" unicode="&#x12c;" horiz-adv-x="524" 
d="M143 0v1518h238v-1518h-238zM264 1591q-91 0 -153.5 20t-100 63t-57 97t-31.5 134l168 24q15 -87 51.5 -125.5t122.5 -38.5q85 0 122 39t50 125l170 -22q-11 -81 -31 -136t-58 -97.5t-100 -62.5t-153 -20z" />
    <glyph glyph-name="ibreve" unicode="&#x12d;" horiz-adv-x="464" 
d="M117 0v1145h229v-1145h-229zM233 1249q-91 0 -153 20t-100 63t-57.5 97t-31.5 134l168 24q15 -87 52 -125.5t122 -38.5t122 39t51 125l169 -22q-11 -81 -31 -136t-58 -97.5t-100 -62.5t-153 -20z" />
    <glyph glyph-name="Iogonek" unicode="&#x12e;" horiz-adv-x="524" 
d="M143 0v1518h238v-1518q-93 -68 -135.5 -117.5t-42.5 -107.5q0 -46 23.5 -65t84.5 -19h64v-144h-84q-134 0 -200 43.5t-66 149.5q0 154 172 260h-54z" />
    <glyph glyph-name="iogonek" unicode="&#x12f;" horiz-adv-x="464" 
d="M117 0v1145h229v-1145q-92 -69 -134 -118.5t-42 -106.5q0 -46 23.5 -65t82.5 -19h66v-144h-84q-134 0 -199 43t-65 150q0 154 168 260h-45zM117 1272v248h231v-248h-231z" />
    <glyph glyph-name="Idotaccent" unicode="&#x130;" horiz-adv-x="524" 
d="M143 0v1518h238v-1518h-238zM150 1602v245h231v-245h-231z" />
    <glyph glyph-name="dotlessi" unicode="&#x131;" horiz-adv-x="464" 
d="M117 0v1145h229v-1145h-229z" />
    <glyph glyph-name="IJ" unicode="&#x132;" horiz-adv-x="1271" 
d="M143 0v1518h238v-1518h-238zM573 0v213h144q109 0 152.5 43.5t43.5 140.5v1121h238v-1135q0 -208 -100 -295.5t-297 -87.5h-181z" />
    <glyph glyph-name="ij" unicode="&#x133;" horiz-adv-x="929" 
d="M117 0v1145h229v-1145h-229zM117 1272v248h231v-248h-231zM467 -324v187h18q60 0 77.5 26.5t17.5 102.5v1153h229v-1161q0 -88 -13 -144t-48 -94t-94 -54t-152 -16h-35zM580 1272v248h231v-248h-231z" />
    <glyph glyph-name="Jcircumflex" unicode="&#x134;" horiz-adv-x="749" 
d="M174 1602l227 346h215l228 -346h-189l-149 186l-150 -186h-182zM51 0v213h144q109 0 152.5 43.5t43.5 140.5v1121h238v-1135q0 -208 -100 -295.5t-298 -87.5h-180z" />
    <glyph glyph-name="jcircumflex" unicode="&#x135;" horiz-adv-x="464" 
d="M4 -324v187h19q60 0 77 26.5t17 102.5v1153h229v-1161q0 -88 -13 -144t-48 -94t-94 -54t-152 -16h-35zM-100 1260l227 346h215l227 -346h-188l-150 186l-149 -186h-182z" />
    <glyph glyph-name="Kcommaaccent" unicode="&#x136;" horiz-adv-x="1232" 
d="M553 -524l-51 90q67 37 84.5 59.5t17.5 71.5h-96v225h213v-207q0 -93 -31 -140.5t-137 -98.5zM129 0v1518h236v-691l538 691h273l-461 -580l473 -938h-262l-371 743l-190 -251v-492h-236z" />
    <glyph glyph-name="kcommaaccent" unicode="&#x137;" horiz-adv-x="991" 
d="M432 -524l-51 90q67 37 84.5 59.5t17.5 71.5h-96v225h213v-207q0 -64 -11 -100.5t-47 -70t-110 -68.5zM111 0v1575h223v-961l366 531h248l-344 -483l369 -662h-244l-274 477l-121 -176v-301h-223z" />
    <glyph glyph-name="kgreenlandic" unicode="&#x138;" horiz-adv-x="991" 
d="M111 0v1145h223v-547l373 547h241l-344 -483l369 -662h-244l-274 477l-121 -176v-301h-223z" />
    <glyph glyph-name="Lacute" unicode="&#x139;" horiz-adv-x="1007" 
d="M156 1602l223 346h256l-281 -346h-198zM129 0v1518h238v-1305h610v-213h-848z" />
    <glyph glyph-name="lacute" unicode="&#x13a;" horiz-adv-x="546" 
d="M127 1671l223 346h256l-280 -346h-199zM477 0q-12 -2 -82 -2q-155 0 -216.5 62.5t-61.5 226.5v1288h229v-1260q0 -51 6.5 -71.5t34 -31.5t90.5 -11v-201z" />
    <glyph glyph-name="Lcommaaccent" unicode="&#x13b;" horiz-adv-x="1007" 
d="M440 -524l-51 90q67 37 85 59.5t18 71.5h-97v225h213v-207q0 -64 -11 -100.5t-47 -70t-110 -68.5zM129 0v1518h238v-1305h610v-213h-848z" />
    <glyph glyph-name="lcommaaccent" unicode="&#x13c;" horiz-adv-x="546" 
d="M211 -524l-51 90q67 37 84.5 59.5t17.5 71.5h-96v225h213v-207q0 -93 -31 -140.5t-137 -98.5zM477 0q-12 -2 -82 -2q-155 0 -216.5 62.5t-61.5 226.5v1288h229v-1260q0 -51 6.5 -71.5t34 -31.5t90.5 -11v-201z" />
    <glyph glyph-name="Lcaron" unicode="&#x13d;" horiz-adv-x="1007" 
d="M553 1130l-49 91q66 38 83 59.5t17 71.5h-96v223h215v-207q0 -93 -31.5 -140.5t-138.5 -97.5zM129 0v1518h238v-1305h610v-213h-848z" />
    <glyph glyph-name="lcaron" unicode="&#x13e;" horiz-adv-x="665" 
d="M500 1130l-49 91q67 37 84.5 59t17.5 72h-98v223h217v-207q0 -92 -32 -139.5t-140 -98.5zM477 0q-12 -2 -82 -2q-155 0 -216.5 62.5t-61.5 226.5v1288h229v-1260q0 -51 6.5 -71.5t34 -31.5t90.5 -11v-201z" />
    <glyph glyph-name="Ldot" unicode="&#x13f;" horiz-adv-x="1093" 
d="M129 0v1518h238v-1305h610v-213h-848zM659 633v297h271v-297h-271z" />
    <glyph glyph-name="ldot" unicode="&#x140;" horiz-adv-x="917" 
d="M477 0q-12 -2 -82 -2q-155 0 -216.5 62.5t-61.5 226.5v1288h229v-1260q0 -51 6.5 -71.5t34 -31.5t90.5 -11v-201zM553 571v297h270v-297h-270z" />
    <glyph glyph-name="Lslash" unicode="&#x141;" horiz-adv-x="1007" 
d="M2 598v195l127 69v656h238v-523l237 133v-194l-237 -133v-588h610v-213h-848v668z" />
    <glyph glyph-name="lslash" unicode="&#x142;" horiz-adv-x="669" 
d="M41 766v201l158 90v518h229v-385l174 102v-202l-174 -101v-674q0 -51 6.5 -71.5t34 -31.5t90.5 -11v-201q-12 -2 -82 -2q-155 0 -216.5 62.5t-61.5 226.5v569z" />
    <glyph glyph-name="Nacute" unicode="&#x143;" horiz-adv-x="1314" 
d="M506 1602l223 346h256l-280 -346h-199zM129 0v1518h254l578 -1043v1043h227v-1518h-219l-615 1100v-1100h-225z" />
    <glyph glyph-name="nacute" unicode="&#x144;" horiz-adv-x="1091" 
d="M393 1260l223 346h256l-280 -346h-199zM111 0v1130l182 17l18 -105q41 60 121 91.5t225 31.5q85 0 145.5 -21t96.5 -55t56.5 -90.5t27 -114.5t6.5 -139v-745h-229v692q0 56 -3.5 91.5t-14 69.5t-31 52.5t-54.5 29.5t-84 11q-75 0 -121.5 -19.5t-71 -65t-32.5 -102.5
t-8 -149v-610h-229z" />
    <glyph glyph-name="Ncommaaccent" unicode="&#x145;" horiz-adv-x="1314" 
d="M594 -524l-51 90q67 37 84.5 59.5t17.5 71.5h-96v225h213v-207q0 -93 -31 -140.5t-137 -98.5zM129 0v1518h254l578 -1043v1043h227v-1518h-219l-615 1100v-1100h-225z" />
    <glyph glyph-name="ncommaaccent" unicode="&#x146;" horiz-adv-x="1091" 
d="M481 -524l-51 90q67 37 84.5 59.5t17.5 71.5h-96v225h213v-207q0 -64 -11 -100.5t-47 -70t-110 -68.5zM111 0v1130l182 17l18 -105q41 60 121 91.5t225 31.5q85 0 145.5 -21t96.5 -55t56.5 -90.5t27 -114.5t6.5 -139v-745h-229v692q0 56 -3.5 91.5t-14 69.5t-31 52.5
t-54.5 29.5t-84 11q-75 0 -121.5 -19.5t-71 -65t-32.5 -102.5t-8 -149v-610h-229z" />
    <glyph glyph-name="Ncaron" unicode="&#x147;" horiz-adv-x="1314" 
d="M549 1602l-227 346h188l147 -187l150 187h184l-227 -346h-215zM129 0v1518h254l578 -1043v1043h227v-1518h-219l-615 1100v-1100h-225z" />
    <glyph glyph-name="ncaron" unicode="&#x148;" horiz-adv-x="1091" 
d="M436 1260l-227 346h188l148 -187l149 187h185l-228 -346h-215zM111 0v1130l182 17l18 -105q41 60 121 91.5t225 31.5q85 0 145.5 -21t96.5 -55t56.5 -90.5t27 -114.5t6.5 -139v-745h-229v692q0 56 -3.5 91.5t-14 69.5t-31 52.5t-54.5 29.5t-84 11q-75 0 -121.5 -19.5
t-71 -65t-32.5 -102.5t-8 -149v-610h-229z" />
    <glyph glyph-name="napostrophe" unicode="&#x149;" horiz-adv-x="1447" 
d="M166 936l-66 119q77 43 100 73t23 86h-123v304h271v-265q0 -130 -39 -191.5t-166 -125.5zM465 0v1130l182 17l19 -105q41 60 121 91.5t225 31.5q84 0 144.5 -21t96.5 -55t56.5 -90.5t27 -114.5t6.5 -139v-745h-229v692q0 71 -5.5 112t-24 76.5t-56.5 50.5t-100 15
q-75 0 -122 -19.5t-71.5 -65t-32.5 -102.5t-8 -149v-610h-229z" />
    <glyph glyph-name="Eng" unicode="&#x14a;" horiz-adv-x="1314" 
d="M608 -369v213h146q109 0 152.5 43t43.5 138v4l-596 1071v-1100h-225v1518h254l578 -1043v1043h227v-1504q0 -207 -100 -295t-297 -88h-183z" />
    <glyph glyph-name="eng" unicode="&#x14b;" horiz-adv-x="1091" 
d="M647 -324v187h17q62 0 79 26.5t17 102.5v700q0 56 -3.5 91.5t-14 69.5t-31 52.5t-54.5 29.5t-84 11q-75 0 -121.5 -19.5t-71 -65t-32.5 -102.5t-8 -149v-610h-229v1130l182 17l18 -139q41 76 121.5 116.5t224.5 40.5q85 0 145.5 -21t96.5 -55t56.5 -90.5t27 -114.5
t6.5 -139v-761q0 -88 -13.5 -144t-48.5 -94t-94 -54t-151 -16h-35z" />
    <glyph glyph-name="Omacron" unicode="&#x14c;" horiz-adv-x="1312" 
d="M322 1602v190h665v-190h-665zM657 -16q-110 0 -197.5 21.5t-149 58t-106.5 94t-72 119.5t-42.5 145t-21 160.5t-5.5 175.5t5.5 175.5t21 160.5t42.5 145.5t72 120t106.5 94.5t149.5 58.5t197 21.5t196.5 -21.5t149 -58.5t106.5 -94.5t71.5 -120t42 -145.5t21 -160.5
t5.5 -175.5t-5.5 -175.5t-21 -160.5t-42 -145t-71.5 -119.5t-106.5 -94t-149 -58t-196.5 -21.5zM657 195q67 0 119.5 14.5t89.5 38.5t63.5 64.5t42 83.5t24 104.5t11.5 118t3 133.5q0 76 -3 132.5t-11.5 117.5t-24 104t-42 83t-63.5 64.5t-89.5 39t-119.5 14.5t-120 -14.5
t-90 -39t-63.5 -64.5t-42 -83t-24 -104t-11.5 -117.5t-3 -132.5q0 -67 2 -117.5t8 -105.5t18 -96t29.5 -81t44.5 -67t62 -48.5t83 -31.5t107 -10z" />
    <glyph glyph-name="omacron" unicode="&#x14d;" horiz-adv-x="1077" 
d="M201 1260v190h665v-190h-665zM539 -16q-114 0 -198.5 29t-136.5 78t-83.5 126t-43 162t-11.5 196t11 194.5t42 161t83 127t136.5 78.5t200.5 29t201 -29.5t136.5 -79.5t82.5 -127.5t42 -160.5t11 -193q0 -113 -11 -197.5t-42 -162t-83 -126t-136.5 -77t-200.5 -28.5z
M539 184q64 0 109 19.5t70.5 50t39.5 83.5t18 103.5t4 126.5q0 77 -4 128t-18 103.5t-39.5 83t-70.5 49.5t-109 19t-108.5 -19t-70.5 -49.5t-40.5 -83t-18.5 -104t-4 -127.5q0 -53 2 -92t8 -81t17 -71.5t29 -57.5t43 -44.5t61 -26.5t82 -10z" />
    <glyph glyph-name="Obreve" unicode="&#x14e;" horiz-adv-x="1312" 
d="M657 -16q-110 0 -197.5 21.5t-149 58t-106.5 94t-72 119.5t-42.5 145t-21 160.5t-5.5 175.5t5.5 175.5t21 160.5t42.5 145.5t72 120t106.5 94.5t149.5 58.5t197 21.5t196.5 -21.5t149 -58.5t106.5 -94.5t71.5 -120t42 -145.5t21 -160.5t5.5 -175.5t-5.5 -175.5
t-21 -160.5t-42 -145t-71.5 -119.5t-106.5 -94t-149 -58t-196.5 -21.5zM657 195q67 0 119.5 14.5t89.5 38.5t63.5 64.5t42 83.5t24 104.5t11.5 118t3 133.5q0 76 -3 132.5t-11.5 117.5t-24 104t-42 83t-63.5 64.5t-89.5 39t-119.5 14.5t-120 -14.5t-90 -39t-63.5 -64.5
t-42 -83t-24 -104t-11.5 -117.5t-3 -132.5q0 -67 2 -117.5t8 -105.5t18 -96t29.5 -81t44.5 -67t62 -48.5t83 -31.5t107 -10zM653 1591q-91 0 -153 20t-100 63t-57.5 97t-31.5 134l168 24q15 -87 51.5 -125.5t122.5 -38.5q85 0 122 39t50 125l170 -22q-11 -81 -31 -136
t-58 -97.5t-100 -62.5t-153 -20z" />
    <glyph glyph-name="obreve" unicode="&#x14f;" horiz-adv-x="1077" 
d="M539 -16q-114 0 -198.5 29t-136.5 78t-83.5 126t-43 162t-11.5 196t11 194.5t42 161t83 127t136.5 78.5t200.5 29t201 -29.5t136.5 -79.5t82.5 -127.5t42 -160.5t11 -193q0 -113 -11 -197.5t-42 -162t-83 -126t-136.5 -77t-200.5 -28.5zM539 184q64 0 109 19.5t70.5 50
t39.5 83.5t18 103.5t4 126.5q0 77 -4 128t-18 103.5t-39.5 83t-70.5 49.5t-109 19t-108.5 -19t-70.5 -49.5t-40.5 -83t-18.5 -104t-4 -127.5q0 -53 2 -92t8 -81t17 -71.5t29 -57.5t43 -44.5t61 -26.5t82 -10zM535 1249q-91 0 -153.5 20t-100.5 63t-57.5 97t-30.5 134l167 24
q15 -87 52 -125.5t123 -38.5q84 0 121 39t51 125l170 -22q-9 -65 -23 -111.5t-39 -87t-62 -65t-91 -38.5t-127 -14z" />
    <glyph glyph-name="Ohungarumlaut" unicode="&#x150;" horiz-adv-x="1312" 
d="M340 1602l217 346h240l-277 -346h-180zM731 1602l219 346h238l-277 -346h-180zM657 -16q-110 0 -197.5 21.5t-149 58t-106.5 94t-72 119.5t-42.5 145t-21 160.5t-5.5 175.5t5.5 175.5t21 160.5t42.5 145.5t72 120t106.5 94.5t149.5 58.5t197 21.5t196.5 -21.5t149 -58.5
t106.5 -94.5t71.5 -120t42 -145.5t21 -160.5t5.5 -175.5t-5.5 -175.5t-21 -160.5t-42 -145t-71.5 -119.5t-106.5 -94t-149 -58t-196.5 -21.5zM657 195q67 0 119.5 14.5t89.5 38.5t63.5 64.5t42 83.5t24 104.5t11.5 118t3 133.5q0 76 -3 132.5t-11.5 117.5t-24 104t-42 83
t-63.5 64.5t-89.5 39t-119.5 14.5t-120 -14.5t-90 -39t-63.5 -64.5t-42 -83t-24 -104t-11.5 -117.5t-3 -132.5q0 -67 2 -117.5t8 -105.5t18 -96t29.5 -81t44.5 -67t62 -48.5t83 -31.5t107 -10z" />
    <glyph glyph-name="ohungarumlaut" unicode="&#x151;" horiz-adv-x="1077" 
d="M219 1260l217 346h240l-277 -346h-180zM610 1260l219 346h238l-276 -346h-181zM539 -16q-114 0 -198.5 29t-136.5 78t-83.5 126t-43 162t-11.5 196t11 194.5t42 161t83 127t136.5 78.5t200.5 29t201 -29.5t136.5 -79.5t82.5 -127.5t42 -160.5t11 -193q0 -113 -11 -197.5
t-42 -162t-83 -126t-136.5 -77t-200.5 -28.5zM539 184q64 0 109 19.5t70.5 50t39.5 83.5t18 103.5t4 126.5q0 77 -4 128t-18 103.5t-39.5 83t-70.5 49.5t-109 19t-108.5 -19t-70.5 -49.5t-40.5 -83t-18.5 -104t-4 -127.5q0 -53 2 -92t8 -81t17 -71.5t29 -57.5t43 -44.5
t61 -26.5t82 -10z" />
    <glyph glyph-name="OE" unicode="&#x152;" horiz-adv-x="1970" 
d="M1034 0v100q-133 -116 -377 -116q-110 0 -197.5 21.5t-149 58t-106.5 94t-72 119.5t-42.5 145t-21 160.5t-5.5 175.5t5.5 175.5t21 160.5t42.5 145.5t72 120t106.5 94.5t149.5 58.5t197 21.5q242 0 377 -119v103h844v-218h-635v-413h602v-213h-602v-461h637v-213h-846z
M657 195q67 0 119.5 14.5t89.5 38.5t63.5 64.5t42 83.5t24 104.5t11.5 118t3 133.5q0 76 -3 132.5t-11.5 117.5t-24 104t-42 83t-63.5 64.5t-89.5 39t-119.5 14.5t-120 -14.5t-90 -39t-63.5 -64.5t-42 -83t-24 -104t-11.5 -117.5t-3 -132.5q0 -67 2 -117.5t8 -105.5t18 -96
t29.5 -81t44.5 -67t62 -48.5t83 -31.5t107 -10z" />
    <glyph glyph-name="oe" unicode="&#x153;" horiz-adv-x="1726" 
d="M539 -16q-114 0 -198.5 29t-136.5 78t-83.5 126t-43 162t-11.5 196t11 194.5t42 161t83 127t136.5 78.5t200.5 29q250 0 360 -149q108 149 352 149q103 0 177.5 -25.5t117 -71t69 -110t33.5 -142t10 -166.5t-1 -185h-647q6 -150 58.5 -216.5t188.5 -66.5q70 0 129.5 11.5
t90 23t75.5 33.5l88 -176q-162 -88 -393 -88q-246 0 -350 139q-112 -141 -358 -141zM539 184q64 0 109 19.5t70.5 50t39.5 83.5t18 103.5t4 126.5q0 77 -4 128t-18 103.5t-39.5 83t-70.5 49.5t-109 19t-108.5 -19t-70.5 -49.5t-40.5 -83t-18.5 -104t-4 -127.5q0 -53 2 -92
t8 -81t17 -71.5t29 -57.5t43 -44.5t61 -26.5t82 -10zM1247 963q-132 0 -182.5 -71.5t-56.5 -225.5h442l-1.5 54.5t-2.5 48t-5 45t-8 38t-13 34l-18.5 26.5t-25.5 22.5t-33.5 15t-42.5 10.5t-53 3z" />
    <glyph glyph-name="Racute" unicode="&#x154;" horiz-adv-x="1216" 
d="M457 1602l223 346h256l-281 -346h-198zM864 0l-248 559h-254v-559h-233v1518h533q244 0 355 -115t111 -348q0 -380 -278 -469l262 -586h-248zM362 772h293q127 0 183.5 61.5t56.5 206.5q0 144 -56 204.5t-184 60.5h-293v-533z" />
    <glyph glyph-name="racute" unicode="&#x155;" horiz-adv-x="647" 
d="M176 1260l223 346h256l-280 -346h-199zM111 0v1130l180 17l20 -121q39 61 113 95t207 34v-217q-58 -1 -103 -12t-75 -28t-51.5 -46t-33.5 -56.5t-18.5 -69t-8 -75t-1.5 -82.5v-569h-229z" />
    <glyph glyph-name="Rcommaaccent" unicode="&#x156;" horiz-adv-x="1216" 
d="M547 -524l-51 90q67 37 84.5 59.5t17.5 71.5h-96v225h213v-207q0 -93 -31 -140.5t-137 -98.5zM864 0l-248 559h-254v-559h-233v1518h533q244 0 355 -115t111 -348q0 -380 -278 -469l262 -586h-248zM362 772h293q127 0 183.5 61.5t56.5 206.5q0 144 -56 204.5t-184 60.5
h-293v-533z" />
    <glyph glyph-name="rcommaaccent" unicode="&#x157;" horiz-adv-x="647" 
d="M166 -524l-51 90q67 37 84.5 59.5t17.5 71.5h-96v225h213v-207q0 -93 -31 -140.5t-137 -98.5zM111 0v1130l180 17l20 -121q39 61 113 95t207 34v-217q-58 -1 -103 -12t-75 -28t-51.5 -46t-33.5 -56.5t-18.5 -69t-8 -75t-1.5 -82.5v-569h-229z" />
    <glyph glyph-name="Rcaron" unicode="&#x158;" horiz-adv-x="1216" 
d="M500 1602l-228 346h189l147 -187l150 187h184l-227 -346h-215zM864 0l-248 559h-254v-559h-233v1518h533q244 0 355 -115t111 -348q0 -380 -278 -469l262 -586h-248zM362 772h293q127 0 183.5 61.5t56.5 206.5q0 144 -56 204.5t-184 60.5h-293v-533z" />
    <glyph glyph-name="rcaron" unicode="&#x159;" horiz-adv-x="647" 
d="M219 1260l-227 346h188l148 -187l149 187h185l-228 -346h-215zM111 0v1130l180 17l20 -121q39 61 113 95t207 34v-217q-58 -1 -103 -12t-75 -28t-51.5 -46t-33.5 -56.5t-18.5 -69t-8 -75t-1.5 -82.5v-569h-229z" />
    <glyph glyph-name="Sacute" unicode="&#x15a;" horiz-adv-x="1132" 
d="M414 1602l223 346h256l-281 -346h-198zM569 -16q-323 0 -520 127l119 182q174 -105 395 -105q271 0 271 205q0 35 -6 62t-15.5 49t-31.5 42t-43 35t-61.5 33.5t-76 32.5l-96.5 37q-104 39 -172.5 76.5t-121.5 89t-77 118t-24 154.5q0 198 123 305t356 107q242 0 422 -86
l-103 -203q-140 68 -315 68q-250 0 -250 -183q0 -49 11.5 -81t46.5 -60.5t79.5 -50t130.5 -55.5l128.5 -53.5t104 -50t84 -53.5t61 -60t45 -73t24 -87.5t8.5 -108.5q0 -196 -125 -304.5t-371 -108.5z" />
    <glyph glyph-name="sacute" unicode="&#x15b;" horiz-adv-x="862" 
d="M283 1260l223 346h256l-281 -346h-198zM430 -14q-247 0 -401 80l88 178q140 -70 313 -70q170 0 170 131q0 66 -46.5 102.5t-184.5 92.5q-80 32 -131.5 60t-93 67.5t-60 91t-18.5 121.5q0 166 100.5 245.5t284.5 79.5q107 0 180.5 -14t144.5 -45l-90 -191q-117 50 -244 50
q-85 0 -121 -29.5t-36 -89.5q0 -58 44 -92.5t171 -83.5q87 -34 139 -62t95.5 -69.5t62 -97t18.5 -134.5q0 -321 -385 -321z" />
    <glyph glyph-name="Scircumflex" unicode="&#x15c;" horiz-adv-x="1132" 
d="M225 1602l228 346h215l227 -346h-188l-150 186l-149 -186h-183zM569 -16q-323 0 -520 127l119 182q174 -105 395 -105q271 0 271 205q0 35 -6 62t-15.5 49t-31.5 42t-43 35t-61.5 33.5t-76 32.5l-96.5 37q-104 39 -172.5 76.5t-121.5 89t-77 118t-24 154.5q0 198 123 305
t356 107q242 0 422 -86l-103 -203q-140 68 -315 68q-250 0 -250 -183q0 -49 11.5 -81t46.5 -60.5t79.5 -50t130.5 -55.5l128.5 -53.5t104 -50t84 -53.5t61 -60t45 -73t24 -87.5t8.5 -108.5q0 -196 -125 -304.5t-371 -108.5z" />
    <glyph glyph-name="scircumflex" unicode="&#x15d;" horiz-adv-x="862" 
d="M94 1260l228 346h215l227 -346h-189l-149 186l-150 -186h-182zM430 -14q-247 0 -401 80l88 178q140 -70 313 -70q170 0 170 131q0 66 -46.5 102.5t-184.5 92.5q-80 32 -131.5 60t-93 67.5t-60 91t-18.5 121.5q0 166 100.5 245.5t284.5 79.5q107 0 180.5 -14t144.5 -45
l-90 -191q-117 50 -244 50q-85 0 -121 -29.5t-36 -89.5q0 -58 44 -92.5t171 -83.5q87 -34 139 -62t95.5 -69.5t62 -97t18.5 -134.5q0 -321 -385 -321z" />
    <glyph glyph-name="Scedilla" unicode="&#x15e;" horiz-adv-x="1132" 
d="M588 -467q-115 0 -217 47l51 113q73 -29 149 -29q66 0 90.5 21t24.5 67q0 52 -32 66.5t-119 9.5l-48 35l25 123q-287 11 -463 125l119 182q174 -105 395 -105q271 0 271 205q0 35 -6 62t-15.5 49t-31.5 42t-43 35t-61.5 33.5t-76 32.5l-96.5 37q-104 39 -172.5 76.5
t-121.5 89t-77 118t-24 154.5q0 198 123 305t356 107q242 0 422 -86l-103 -203q-140 68 -315 68q-250 0 -250 -183q0 -49 11.5 -81t46.5 -60.5t79.5 -50t130.5 -55.5l128.5 -53.5t104 -50t84 -53.5t61 -60t45 -73t24 -87.5t8.5 -108.5q0 -181 -106 -287.5t-316 -121.5
l-12 -78q99 7 154 -30t55 -142q0 -107 -57.5 -156t-194.5 -49z" />
    <glyph glyph-name="scedilla" unicode="&#x15f;" horiz-adv-x="862" 
d="M457 -467q-115 0 -217 47l51 113q73 -29 149 -29q65 0 90 21t25 67q0 52 -32.5 66.5t-119.5 9.5l-47 35l25 125q-215 6 -352 78l88 178q140 -70 313 -70q170 0 170 131q0 66 -46.5 102.5t-184.5 92.5q-80 32 -131.5 60t-93 67.5t-60 91t-18.5 121.5q0 166 100.5 245.5
t284.5 79.5q107 0 180.5 -14t144.5 -45l-90 -191q-117 50 -244 50q-85 0 -121 -29.5t-36 -89.5q0 -58 44 -92.5t171 -83.5q87 -34 139 -62t95.5 -69.5t62 -97t18.5 -134.5q0 -283 -301 -315l-14 -82q98 7 153.5 -30t55.5 -142q0 -107 -57.5 -156t-194.5 -49z" />
    <glyph glyph-name="Scaron" unicode="&#x160;" horiz-adv-x="1132" 
d="M457 1602l-228 346h189l147 -187l150 187h184l-227 -346h-215zM569 -16q-323 0 -520 127l119 182q174 -105 395 -105q271 0 271 205q0 35 -6 62t-15.5 49t-31.5 42t-43 35t-61.5 33.5t-76 32.5l-96.5 37q-104 39 -172.5 76.5t-121.5 89t-77 118t-24 154.5q0 198 123 305
t356 107q242 0 422 -86l-103 -203q-140 68 -315 68q-250 0 -250 -183q0 -49 11.5 -81t46.5 -60.5t79.5 -50t130.5 -55.5l128.5 -53.5t104 -50t84 -53.5t61 -60t45 -73t24 -87.5t8.5 -108.5q0 -196 -125 -304.5t-371 -108.5z" />
    <glyph glyph-name="scaron" unicode="&#x161;" horiz-adv-x="862" 
d="M326 1260l-228 346h189l147 -187l150 187h184l-227 -346h-215zM430 -14q-247 0 -401 80l88 178q140 -70 313 -70q170 0 170 131q0 66 -46.5 102.5t-184.5 92.5q-80 32 -131.5 60t-93 67.5t-60 91t-18.5 121.5q0 166 100.5 245.5t284.5 79.5q107 0 180.5 -14t144.5 -45
l-90 -191q-117 50 -244 50q-85 0 -121 -29.5t-36 -89.5q0 -58 44 -92.5t171 -83.5q87 -34 139 -62t95.5 -69.5t62 -97t18.5 -134.5q0 -321 -385 -321z" />
    <glyph glyph-name="Tcommaaccent" unicode="&#x162;" horiz-adv-x="1142" 
d="M508 -524l-51 90q67 37 84.5 59.5t17.5 71.5h-96v225h213v-207q0 -93 -31 -140.5t-137 -98.5zM451 0v1300h-420v218h1081v-218h-422v-1300h-239z" />
    <glyph glyph-name="Tcommaaccent" unicode="&#x21a;" horiz-adv-x="1142" 
d="M508 -524l-51 90q67 37 84.5 59.5t17.5 71.5h-96v225h213v-207q0 -93 -31 -140.5t-137 -98.5zM451 0v1300h-420v218h1081v-218h-422v-1300h-239z" />
    <glyph glyph-name="tcommaaccent" unicode="&#x163;" horiz-adv-x="780" 
d="M283 -524l-52 90q67 37 85 59.5t18 71.5h-96v225h213v-207q0 -93 -31 -140.5t-137 -98.5zM33 944v201h186l35 289l184 39v-328h267v-201h-267v-600q0 -78 25.5 -110.5t111.5 -32.5h130v-201q-111 -6 -156 -6q-102 0 -168 18t-103.5 59.5t-52 99.5t-14.5 148v625h-178z
" />
    <glyph glyph-name="Tcaron" unicode="&#x164;" horiz-adv-x="1142" 
d="M463 1602l-227 346h188l147 -187l150 187h184l-227 -346h-215zM451 0v1300h-420v218h1081v-218h-422v-1300h-239z" />
    <glyph glyph-name="tcaron" unicode="&#x165;" horiz-adv-x="780" 
d="M604 1276l-51 90q66 37 84 59.5t18 71.5h-96v223h215v-204q0 -93 -31.5 -140.5t-138.5 -99.5zM33 944v201h186l35 289l184 39v-328h267v-201h-267v-600q0 -78 25.5 -110.5t111.5 -32.5h130v-201q-111 -6 -156 -6q-102 0 -168 18t-103.5 59.5t-52 99.5t-14.5 148v625h-178
z" />
    <glyph glyph-name="Tbar" unicode="&#x166;" horiz-adv-x="1142" 
d="M227 602v197h224v501h-420v218h1081v-218h-422v-501h223v-197h-223v-602h-239v602h-224z" />
    <glyph glyph-name="tbar" unicode="&#x167;" horiz-adv-x="780" 
d="M33 944v201h186l35 289l184 39v-328h267v-201h-267v-235h275v-201h-275v-164q0 -78 25.5 -110.5t111.5 -32.5h130v-201q-111 -6 -156 -6q-102 0 -168 18t-103.5 59.5t-52 99.5t-14.5 148v189h-178v201h178v235h-178z" />
    <glyph glyph-name="Utilde" unicode="&#x168;" horiz-adv-x="1308" 
d="M655 -20q-151 0 -256 34.5t-166 104.5t-87.5 165.5t-26.5 229.5v1004h237v-983q0 -90 13.5 -150t46.5 -104.5t92 -65t149 -20.5q174 0 239 79t65 261v983h229v-1004q0 -107 -16 -188t-53.5 -148t-98.5 -109.5t-152.5 -65.5t-214.5 -23zM430 1593l-149 84
q48 96 108.5 142.5t140.5 46.5q45 0 91 -21.5t84.5 -43t64.5 -21.5q32 0 59.5 22.5t61.5 73.5l147 -86q-48 -97 -108 -145t-139 -48q-46 0 -93 21t-85.5 42t-63.5 21q-61 0 -119 -88z" />
    <glyph glyph-name="utilde" unicode="&#x169;" horiz-adv-x="1069" 
d="M535 -16q-131 0 -215.5 26t-132.5 84.5t-66.5 139.5t-18.5 204v707h232v-694q0 -61 3 -96.5t14 -71.5t33 -54t60 -29.5t95 -11.5q68 0 109 15t61 52t26 80t6 118v692h226v-707q0 -99 -10.5 -168t-38.5 -126.5t-76.5 -90.5t-124 -51t-182.5 -18zM309 1251l-149 84
q48 96 108.5 142.5t141.5 46.5q44 0 90 -21.5t84.5 -43t64.5 -21.5q32 0 59.5 22.5t61.5 73.5l148 -86q-49 -97 -109 -145t-139 -48q-46 0 -93 21t-85.5 42t-63.5 21q-61 0 -119 -88z" />
    <glyph glyph-name="Umacron" unicode="&#x16a;" horiz-adv-x="1308" 
d="M655 -20q-151 0 -256 34.5t-166 104.5t-87.5 165.5t-26.5 229.5v1004h237v-983q0 -90 13.5 -150t46.5 -104.5t92 -65t149 -20.5q174 0 239 79t65 261v983h229v-1004q0 -107 -16 -188t-53.5 -148t-98.5 -109.5t-152.5 -65.5t-214.5 -23zM317 1602v190h666v-190h-666z" />
    <glyph glyph-name="umacron" unicode="&#x16b;" horiz-adv-x="1069" 
d="M535 -16q-131 0 -215.5 26t-132.5 84.5t-66.5 139.5t-18.5 204v707h232v-694q0 -61 3 -96.5t14 -71.5t33 -54t60 -29.5t95 -11.5q68 0 109 15t61 52t26 80t6 118v692h226v-707q0 -99 -10.5 -168t-38.5 -126.5t-76.5 -90.5t-124 -51t-182.5 -18zM199 1260v190h665v-190
h-665z" />
    <glyph glyph-name="Ubreve" unicode="&#x16c;" horiz-adv-x="1308" 
d="M655 -20q-151 0 -256 34.5t-166 104.5t-87.5 165.5t-26.5 229.5v1004h237v-983q0 -90 13.5 -150t46.5 -104.5t92 -65t149 -20.5q174 0 239 79t65 261v983h229v-1004q0 -107 -16 -188t-53.5 -148t-98.5 -109.5t-152.5 -65.5t-214.5 -23zM657 1591q-91 0 -153 20t-100 63
t-57.5 97t-31.5 134l168 24q15 -87 52 -125.5t122 -38.5t122 39t50 125l170 -22q-11 -81 -31 -136t-58 -97.5t-100 -62.5t-153 -20z" />
    <glyph glyph-name="ubreve" unicode="&#x16d;" horiz-adv-x="1069" 
d="M535 -16q-131 0 -215.5 26t-132.5 84.5t-66.5 139.5t-18.5 204v707h232v-694q0 -61 3 -96.5t14 -71.5t33 -54t60 -29.5t95 -11.5q68 0 109 15t61 52t26 80t6 118v692h226v-707q0 -99 -10.5 -168t-38.5 -126.5t-76.5 -90.5t-124 -51t-182.5 -18zM532 1249q-91 0 -153 20
t-100 63t-57.5 97t-31.5 134l168 24q15 -87 52 -125.5t122 -38.5t122 39t51 125l169 -22q-11 -81 -31 -136t-58 -97.5t-100 -62.5t-153 -20z" />
    <glyph glyph-name="Uring" unicode="&#x16e;" horiz-adv-x="1308" 
d="M651 1587q-119 0 -173 68t-54 182q0 116 54 185t173 69q117 0 172.5 -69.5t55.5 -184.5q0 -113 -55.5 -181.5t-172.5 -68.5zM651 1702q107 0 107 135q0 137 -107 137q-106 0 -106 -137q0 -135 106 -135zM655 -20q-151 0 -256 34.5t-166 104.5t-87.5 165.5t-26.5 229.5
v1004h237v-983q0 -90 13.5 -150t46.5 -104.5t92 -65t149 -20.5q174 0 239 79t65 261v983h229v-1004q0 -107 -16 -188t-53.5 -148t-98.5 -109.5t-152.5 -65.5t-214.5 -23z" />
    <glyph glyph-name="uring" unicode="&#x16f;" horiz-adv-x="1069" 
d="M532 1245q-118 0 -172.5 68t-54.5 182q0 116 54.5 185t172.5 69q117 0 172.5 -69.5t55.5 -184.5q0 -113 -55.5 -181.5t-172.5 -68.5zM532 1360q107 0 107 135q0 137 -107 137q-106 0 -106 -137q0 -135 106 -135zM535 -16q-131 0 -215.5 26t-132.5 84.5t-66.5 139.5
t-18.5 204v707h232v-694q0 -61 3 -96.5t14 -71.5t33 -54t60 -29.5t95 -11.5q68 0 109 15t61 52t26 80t6 118v692h226v-707q0 -99 -10.5 -168t-38.5 -126.5t-76.5 -90.5t-124 -51t-182.5 -18z" />
    <glyph glyph-name="Uhungarumlaut" unicode="&#x170;" horiz-adv-x="1308" 
d="M655 -20q-151 0 -256 34.5t-166 104.5t-87.5 165.5t-26.5 229.5v1004h237v-983q0 -90 13.5 -150t46.5 -104.5t92 -65t149 -20.5q174 0 239 79t65 261v983h229v-1004q0 -107 -16 -188t-53.5 -148t-98.5 -109.5t-152.5 -65.5t-214.5 -23zM336 1602l217 346h240l-277 -346
h-180zM727 1602l219 346h238l-277 -346h-180z" />
    <glyph glyph-name="uhungarumlaut" unicode="&#x171;" horiz-adv-x="1069" 
d="M535 -16q-131 0 -215.5 26t-132.5 84.5t-66.5 139.5t-18.5 204v707h232v-694q0 -61 3 -96.5t14 -71.5t33 -54t60 -29.5t95 -11.5q68 0 109 15t61 52t26 80t6 118v692h226v-707q0 -99 -10.5 -168t-38.5 -126.5t-76.5 -90.5t-124 -51t-182.5 -18zM217 1260l217 346h240
l-277 -346h-180zM608 1260l219 346h238l-277 -346h-180z" />
    <glyph glyph-name="Uogonek" unicode="&#x172;" horiz-adv-x="1308" 
d="M870 -453q-131 0 -188 42.5t-57 150.5q0 133 129 246q-46 -6 -99 -6q-151 0 -256 34.5t-166 104.5t-87.5 165.5t-26.5 229.5v1004h237v-983q0 -90 13.5 -150t46.5 -104.5t92 -65t149 -20.5q174 0 239 79t65 261v983h229v-1004q0 -181 -46.5 -291.5t-160.5 -183.5
q-89 -55 -145 -128.5t-56 -135.5q0 -47 25 -70.5t84 -23.5h63v-134h-84z" />
    <glyph glyph-name="uogonek" unicode="&#x173;" horiz-adv-x="1069" 
d="M717 -453q-131 0 -187.5 42.5t-56.5 150.5q0 133 129 248q-24 -4 -67 -4q-131 0 -215.5 26t-132.5 84.5t-66.5 139.5t-18.5 204v707h232v-694q0 -61 3 -96.5t14 -71.5t33 -54t60 -29.5t95 -11.5q68 0 109 15t61 52t26 80t6 118v692h226v-707q0 -162 -30 -252t-116 -149
q-83 -55 -136.5 -127.5t-53.5 -134.5q0 -48 23.5 -71t82.5 -23h64v-134h-84z" />
    <glyph glyph-name="Wcircumflex" unicode="&#x174;" horiz-adv-x="1787" 
d="M559 1602l227 346h215l228 -346h-189l-149 186l-150 -186h-182zM406 -10l-355 1528h242l246 -1078l258 1078h209l260 -1078l245 1078h226l-353 -1528h-233l-256 1048l-256 -1048h-233z" />
    <glyph glyph-name="wcircumflex" unicode="&#x175;" horiz-adv-x="1492" 
d="M416 1260l227 346h215l227 -346h-188l-149 186l-150 -186h-182zM324 -8l-299 1153h231l188 -789l203 789h211l201 -780l190 780h219l-297 -1153h-219l-204 766l-203 -766h-221z" />
    <glyph glyph-name="Ycircumflex" unicode="&#x176;" horiz-adv-x="1204" 
d="M483 0v537l-475 981h252l344 -725l346 725h244l-475 -981v-537h-236zM270 1602l228 346h215l227 -346h-188l-150 186l-149 -186h-183z" />
    <glyph glyph-name="ycircumflex" unicode="&#x177;" horiz-adv-x="950" 
d="M135 -324v187h113q43 0 63 14.5t31 50.5l20 70l-350 1147h234l233 -819l232 819h225l-385 -1264q-37 -122 -105 -163.5t-200 -41.5h-111zM145 1260l228 346h215l227 -346h-188l-150 186l-149 -186h-183z" />
    <glyph glyph-name="Ydieresis" unicode="&#x178;" horiz-adv-x="1204" 
d="M483 0v537l-475 981h252l344 -725l346 725h244l-475 -981v-537h-236zM311 1602v235h205v-235h-205zM686 1602v235h205v-235h-205z" />
    <glyph glyph-name="Zacute" unicode="&#x179;" horiz-adv-x="1110" 
d="M403 1602l224 346h256l-281 -346h-199zM59 0v182l686 1118h-657v218h940v-197l-684 -1108h703v-213h-988z" />
    <glyph glyph-name="zacute" unicode="&#x17a;" horiz-adv-x="864" 
d="M283 1260l223 346h256l-281 -346h-198zM37 0v156l489 788h-460v201h745v-158l-492 -799h510v-188h-792z" />
    <glyph glyph-name="Zdotaccent" unicode="&#x17b;" horiz-adv-x="1110" 
d="M59 0v182l686 1118h-657v218h940v-197l-684 -1108h703v-213h-988zM438 1602v245h232v-245h-232z" />
    <glyph glyph-name="zdotaccent" unicode="&#x17c;" horiz-adv-x="864" 
d="M37 0v156l489 788h-460v201h745v-158l-492 -799h510v-188h-792zM317 1260v245h232v-245h-232z" />
    <glyph glyph-name="Zcaron" unicode="&#x17d;" horiz-adv-x="1110" 
d="M446 1602l-227 346h189l147 -187l150 187h184l-227 -346h-216zM59 0v182l686 1118h-657v218h940v-197l-684 -1108h703v-213h-988z" />
    <glyph glyph-name="zcaron" unicode="&#x17e;" horiz-adv-x="864" 
d="M326 1260l-228 346h189l147 -187l150 187h184l-227 -346h-215zM37 0v156l489 788h-460v201h745v-158l-492 -799h510v-188h-792z" />
    <glyph glyph-name="longs" unicode="&#x17f;" horiz-adv-x="722" 
d="M215 0v1272q0 160 83.5 243.5t266.5 83.5q117 0 142 -2v-198h-121q-85 0 -113.5 -36.5t-28.5 -115.5v-1247h-229z" />
    <glyph glyph-name="florin" unicode="&#x192;" horiz-adv-x="954" 
d="M133 731v201h199l39 258q12 84 30.5 138t56 100.5t102 68t161.5 21.5q21 0 60.5 -1t49.5 -1v-201h-90q-41 0 -67 -9.5t-40.5 -32.5t-21 -45.5t-12.5 -62.5l-37 -233h268v-201h-299l-161 -1055h-230l160 1055h-168z" />
    <glyph glyph-name="Ohorn" unicode="&#x1a0;" horiz-adv-x="1323" 
d="M1288 1788v-229q0 -81 -38.5 -146.5t-110.5 -95.5q63 -99 86.5 -238t23.5 -321q0 -98 -5.5 -175.5t-21 -160.5t-42 -145t-71.5 -119.5t-106.5 -94t-149 -58t-196.5 -21.5q-110 0 -197.5 21.5t-149 58t-106.5 94t-72 119.5t-42.5 145t-21 160.5t-5.5 175.5t5.5 175.5
t21 160.5t42.5 145.5t72 120t106.5 94.5t149.5 58.5t197 21.5q251 0 392 -115q94 14 102 117h-92v252h229zM657 195q67 0 119.5 14.5t89.5 38.5t63.5 64.5t42 83.5t24 104.5t11.5 118t3 133.5q0 76 -3 132.5t-11.5 117.5t-24 104t-42 83t-63.5 64.5t-89.5 39t-119.5 14.5
t-120 -14.5t-90 -39t-63.5 -64.5t-42 -83t-24 -104t-11.5 -117.5t-3 -132.5q0 -67 2 -117.5t8 -105.5t18 -96t29.5 -81t44.5 -67t62 -48.5t83 -31.5t107 -10z" />
    <glyph glyph-name="ohorn" unicode="&#x1a1;" horiz-adv-x="1116" 
d="M1079 1452v-229q0 -79 -38 -144.5t-107 -97.5q78 -137 78 -406q0 -113 -11 -197.5t-42 -162t-83 -126t-136.5 -77t-200.5 -28.5q-114 0 -198.5 29t-136.5 78t-83.5 126t-43 162t-11.5 196t11 194.5t42 161t83 127t136.5 78.5t200.5 29q193 0 303 -82q94 16 98 115h-92
v254h231zM539 184q64 0 109 19.5t70.5 50t39.5 83.5t18 103.5t4 126.5q0 77 -4 128t-18 103.5t-39.5 83t-70.5 49.5t-109 19t-108.5 -19t-70.5 -49.5t-40.5 -83t-18.5 -104t-4 -127.5q0 -53 2 -92t8 -81t17 -71.5t29 -57.5t43 -44.5t61 -26.5t82 -10z" />
    <glyph glyph-name="Uhorn" unicode="&#x1af;" horiz-adv-x="1357" 
d="M1382 1890v-231q0 -92 -50.5 -162.5t-141.5 -93.5v-889q0 -107 -16 -188t-53.5 -148t-98.5 -109.5t-152.5 -65.5t-214.5 -23q-151 0 -256 34.5t-166 104.5t-87.5 165.5t-26.5 229.5v1004h237v-983q0 -90 13.5 -150t46.5 -104.5t92 -65t149 -20.5q174 0 239 79t65 261v983
h155q65 0 95 35.5t32 82.5h-92v254h231z" />
    <glyph glyph-name="uhorn" unicode="&#x1b0;" horiz-adv-x="1150" 
d="M1151 1516v-232q0 -87 -49 -157.5t-135 -96.5v-592q0 -99 -10.5 -168t-38.5 -126.5t-76.5 -90.5t-124 -51t-182.5 -18q-131 0 -215.5 26t-132.5 84.5t-66.5 139.5t-18.5 204v707h232v-694q0 -61 3 -96.5t14 -71.5t33 -54t60 -29.5t95 -11.5q68 0 109 15t61 52t26 80
t6 118v692h144q65 0 95 35t32 82h-90v254h229z" />
    <glyph glyph-name="Aringacute" unicode="&#x1fa;" horiz-adv-x="1263" 
d="M479 1980l223 347h256l-280 -347h-199zM37 0l446 1454q-82 63 -82 209q0 116 54.5 185t173.5 69q117 0 172 -69.5t55 -184.5q0 -137 -78 -203l449 -1460h-244l-86 289h-541l-84 -289h-235zM416 504h422l-209 696zM629 1528q106 0 106 135q0 137 -106 137
q-107 0 -107 -137q0 -135 107 -135z" />
    <glyph glyph-name="aringacute" unicode="&#x1fb;" horiz-adv-x="1067" 
d="M408 -12q-99 0 -168 24.5t-107.5 73t-55 111t-16.5 147.5q0 122 35 204t110.5 129.5t181 67t261.5 19.5h45q-3 104 -42 149t-144 45q-163 0 -285 -61l-94 186q155 84 403 84q115 0 190 -22t118.5 -73t60.5 -122.5t17 -181.5v-463q0 -66 14 -85t72 -19v-201q-23 -2 -66 -2
q-97 0 -144 21t-65 81q-47 -61 -124 -86.5t-197 -25.5zM457 178q111 0 174 58t63 204v140h-43q-86 0 -141.5 -4.5t-103 -17t-73 -36.5t-39 -61t-13.5 -92q0 -106 42 -148.5t134 -42.5zM383 1815l223 346h256l-280 -346h-199zM532 1245q-118 0 -172.5 68t-54.5 182
q0 116 54.5 185t172.5 69q117 0 172.5 -69.5t55.5 -184.5q0 -113 -55.5 -181.5t-172.5 -68.5zM532 1360q107 0 107 135q0 137 -107 137q-106 0 -106 -137q0 -135 106 -135z" />
    <glyph glyph-name="AEacute" unicode="&#x1fc;" horiz-adv-x="1832" 
d="M754 1602l223 346h256l-281 -346h-198zM27 0l729 1518h985v-218h-635v-413h602v-213h-602v-461h639v-213h-871v297h-473l-141 -297h-233zM498 500h376v782z" />
    <glyph glyph-name="aeacute" unicode="&#x1fd;" horiz-adv-x="1630" 
d="M639 1260l223 346h256l-280 -346h-199zM1151 -14q-264 0 -367 166q-47 -85 -137 -124.5t-239 -39.5q-188 0 -267.5 91.5t-79.5 264.5q0 122 35 204t110.5 129.5t181 67t261.5 19.5h45q-3 104 -42 149t-144 45q-163 0 -285 -61l-94 186q155 84 403 84q121 0 194.5 -27.5
t111.5 -84.5q110 110 317 110q103 0 177.5 -24.5t117.5 -70t69 -109t33.5 -141.5t10 -167.5t-1.5 -187.5h-648q4 -75 16.5 -124.5t40 -87t75 -54.5t118.5 -17q69 0 128 11.5t88.5 23t76.5 33.5l88 -176q-162 -88 -393 -88zM457 178q111 0 174 58t63 204v140h-43
q-86 0 -141.5 -4.5t-103 -17t-73 -36.5t-39 -61t-13.5 -92q0 -106 42 -148.5t134 -42.5zM1151 963q-132 0 -182.5 -71.5t-57.5 -225.5h445q0 43 -1 67.5t-4 58t-9 52t-15.5 41t-24.5 34.5t-36 23.5t-49.5 16t-65.5 4.5z" />
    <glyph glyph-name="Oslashacute" unicode="&#x1fe;" horiz-adv-x="1312" 
d="M180 -84l84 180q-61 50 -102.5 121t-62 160.5t-28.5 178t-8 202.5q0 98 5.5 175.5t21 160.5t42.5 145.5t72 120t106.5 94.5t149.5 58.5t197 21.5q122 0 220 -29l51 99h207l-86 -185q61 -50 102 -121t61.5 -160.5t28.5 -178t8 -201.5q0 -98 -5.5 -175.5t-21 -160.5
t-42 -145t-71.5 -119.5t-106.5 -94t-149 -58t-196.5 -21.5t-215 24l-41 -92h-221zM657 184q68 0 121.5 14.5t91 39.5t64.5 66t43 84.5t24.5 106t11.5 120.5t3 137q0 154 -16 260.5t-62 177.5l-420 -987q57 -19 139 -19zM297 752q0 -158 15 -262.5t59 -174.5l413 985
q-56 17 -127 17q-68 0 -122 -15t-91.5 -39.5t-64.5 -66t-42.5 -85t-24.5 -106t-12 -119.5t-3 -134zM506 1602l223 346h256l-280 -346h-199z" />
    <glyph glyph-name="oslashacute" unicode="&#x1ff;" horiz-adv-x="1077" 
d="M113 -88l92 178q-77 73 -108 193.5t-31 291.5q0 111 11 194.5t42 161t83 127t136.5 78.5t200.5 29q105 0 184 -24l47 92h203l-94 -182q73 -74 103 -193t30 -283q0 -113 -11 -197.5t-42 -162t-83 -126t-136.5 -77t-200.5 -28.5q-92 0 -179 20l-47 -92h-200zM289 567
q0 -184 35 -266l309 643q-41 12 -94 12q-65 0 -111 -19.5t-73 -50.5t-42 -83.5t-19.5 -105.5t-4.5 -130zM539 178q55 0 96 12.5t68 38.5t44 57.5t26 79t12 93t3 108.5q0 178 -32 260l-310 -637q40 -12 93 -12zM385 1260l223 346h256l-280 -346h-199z" />
    <glyph glyph-name="Scommaaccent" unicode="&#x218;" horiz-adv-x="1132" 
d="M504 -524l-51 90q67 37 84.5 59.5t17.5 71.5h-96v225h213v-207q0 -93 -31 -140.5t-137 -98.5zM569 -16q-323 0 -520 127l119 182q174 -105 395 -105q271 0 271 205q0 35 -6 62t-15.5 49t-31.5 42t-43 35t-61.5 33.5t-76 32.5l-96.5 37q-104 39 -172.5 76.5t-121.5 89
t-77 118t-24 154.5q0 198 123 305t356 107q242 0 422 -86l-103 -203q-140 68 -315 68q-250 0 -250 -183q0 -49 11.5 -81t46.5 -60.5t79.5 -50t130.5 -55.5l128.5 -53.5t104 -50t84 -53.5t61 -60t45 -73t24 -87.5t8.5 -108.5q0 -196 -125 -304.5t-371 -108.5z" />
    <glyph glyph-name="scommaaccent" unicode="&#x219;" horiz-adv-x="862" 
d="M369 -524l-52 90q67 37 85 59.5t18 71.5h-96v225h213v-207q0 -93 -31 -140.5t-137 -98.5zM430 -14q-247 0 -401 80l88 178q140 -70 313 -70q170 0 170 131q0 66 -46.5 102.5t-184.5 92.5q-80 32 -131.5 60t-93 67.5t-60 91t-18.5 121.5q0 166 100.5 245.5t284.5 79.5
q107 0 180.5 -14t144.5 -45l-90 -191q-117 50 -244 50q-85 0 -121 -29.5t-36 -89.5q0 -58 44 -92.5t171 -83.5q87 -34 139 -62t95.5 -69.5t62 -97t18.5 -134.5q0 -321 -385 -321z" />
    <glyph glyph-name="tcedilla" unicode="&#x21b;" horiz-adv-x="0" 
 />
    <glyph glyph-name="circumflex" unicode="&#x2c6;" horiz-adv-x="974" 
d="M154 1260l227 346h215l227 -346h-188l-150 186l-149 -186h-182z" />
    <glyph glyph-name="caron" unicode="&#x2c7;" horiz-adv-x="974" 
d="M381 1260l-227 346h188l147 -187l150 187h184l-227 -346h-215z" />
    <glyph glyph-name="breve" unicode="&#x2d8;" horiz-adv-x="974" 
d="M487 1249q-91 0 -153 20t-100 63t-57.5 97t-31.5 134l168 24q15 -87 52 -125.5t122 -38.5t122 39t50 125l170 -22q-11 -81 -31 -136t-58 -97.5t-100 -62.5t-153 -20z" />
    <glyph glyph-name="dotaccent" unicode="&#x2d9;" horiz-adv-x="974" 
d="M373 1260v245h231v-245h-231z" />
    <glyph glyph-name="ring" unicode="&#x2da;" horiz-adv-x="974" 
d="M487 1245q-119 0 -173 68t-54 182q0 116 54 185t173 69q117 0 172.5 -69.5t55.5 -184.5q0 -113 -55.5 -181.5t-172.5 -68.5zM487 1360q107 0 107 135q0 137 -107 137q-106 0 -106 -137q0 -135 106 -135z" />
    <glyph glyph-name="ogonek" unicode="&#x2db;" horiz-adv-x="974" 
d="M524 -453q-134 0 -199 43t-65 150q0 53 20.5 103t53.5 87.5t63.5 63t61.5 43.5h166q-187 -148 -187 -262q0 -46 24 -65t85 -19h63v-144h-86z" />
    <glyph glyph-name="tilde" unicode="&#x2dc;" horiz-adv-x="974" 
d="M256 1251l-150 84q48 96 109 142.5t141 46.5q45 0 91 -21.5t84.5 -43t64.5 -21.5q32 0 59.5 22.5t61.5 73.5l147 -86q-48 -97 -108 -145t-140 -48q-45 0 -92 21t-85.5 42t-63.5 21q-61 0 -119 -88z" />
    <glyph glyph-name="hungarumlaut" unicode="&#x2dd;" horiz-adv-x="974" 
d="M172 1260l217 346h240l-277 -346h-180zM563 1260l219 346h238l-277 -346h-180z" />
    <glyph glyph-name="hookabovecomb" unicode="&#x309;" horiz-adv-x="974" 
d="M426 1243q-9 72 10 115.5t86 103.5q44 40 58 59t14 42q0 27 -23.5 47t-68.5 20q-70 0 -154 -43l-69 133q94 54 233 54q122 0 184 -52t62 -135q0 -61 -23 -101.5t-71 -82.5q-54 -51 -71.5 -80.5t-17.5 -79.5h-149z" />
    <glyph glyph-name="dotbelowcomb" unicode="&#x323;" horiz-adv-x="1073" 
d="M420 -403v245h231v-245h-231z" />
    <glyph glyph-name="commaaccent" unicode="&#x326;" horiz-adv-x="471" 
d="M174 -524l-51 90q67 37 84.5 59.5t17.5 71.5h-96v225h213v-207q0 -64 -11 -100.5t-47 -70t-110 -68.5z" />
    <glyph glyph-name="uni0340" unicode="&#x340;" horiz-adv-x="1073" 
d="M543 1260l-283 346h258l225 -346h-200z" />
    <glyph glyph-name="uni0341" unicode="&#x341;" horiz-adv-x="1073" 
d="M332 1260l223 346h256l-281 -346h-198z" />
    <glyph glyph-name="tonos" unicode="&#x384;" horiz-adv-x="1073" 
d="M401 1260l134 346h221l-168 -346h-187z" />
    <glyph glyph-name="dieresistonos" unicode="&#x385;" horiz-adv-x="1073" 
d="M180 1260v235h162v-235h-162zM733 1260v235h162v-235h-162zM403 1260l125 346h187l-156 -346h-156z" />
    <glyph glyph-name="Alphatonos" unicode="&#x386;" horiz-adv-x="1316" 
d="M90 0l469 1528h252l469 -1528h-244l-86 289h-540l-84 -289h-236zM469 504h422l-209 696zM61 1178l134 346h221l-168 -346h-187z" />
    <glyph glyph-name="Epsilontonos" unicode="&#x388;" horiz-adv-x="1503" 
d="M61 1174l134 346h221l-168 -346h-187zM502 0v1518h866v-218h-635v-409h604v-217h-604v-461h639v-213h-870z" />
    <glyph glyph-name="Etatonos" unicode="&#x389;" horiz-adv-x="1736" 
d="M61 1174l134 346h221l-168 -346h-187zM539 0v1518h237v-615h588v615h238v-1518h-238v670h-588v-670h-237z" />
    <glyph glyph-name="Iotatonos" unicode="&#x38a;" horiz-adv-x="925" 
d="M504 0v1518h237v-1518h-237zM61 1174l134 346h221l-168 -346h-187z" />
    <glyph glyph-name="Omicrontonos" unicode="&#x38c;" horiz-adv-x="1617" 
d="M61 1174l134 346h221l-168 -346h-187zM961 -16q-110 0 -197.5 21.5t-149 58t-106.5 94t-72 119.5t-42.5 145.5t-21 160.5t-5.5 175t5.5 175.5t21 160.5t42.5 145.5t72 120t106.5 94.5t149 58.5t197.5 21.5q109 0 196.5 -21.5t148.5 -58.5t106 -94.5t71.5 -120t42 -145.5
t21 -160.5t5.5 -175.5t-5.5 -175.5t-21 -160.5t-42 -145t-71.5 -119.5t-106 -94t-148.5 -58t-196.5 -21.5zM961 195q67 0 119.5 14.5t89 38.5t63 64.5t42 83.5t24 104.5t11.5 118t3 133.5q0 76 -3 132.5t-11.5 117.5t-24 104t-42 83t-63 64.5t-89 39t-119.5 14.5t-120 -14.5
t-90 -39t-64 -64.5t-42.5 -83t-24 -104t-11.5 -117.5t-3 -132.5q0 -77 3 -133.5t11.5 -118t24 -104.5t42.5 -83.5t64 -64.5t90 -38.5t120 -14.5z" />
    <glyph glyph-name="Upsilontonos" unicode="&#x38e;" horiz-adv-x="1669" 
d="M946 0v537l-475 981h252l344 -725l346 725h244l-475 -981v-537h-236zM61 1174l134 346h221l-168 -346h-187z" />
    <glyph glyph-name="Omegatonos" unicode="&#x38f;" horiz-adv-x="1626" 
d="M360 0v207h340v90q-331 116 -331 588q0 323 148 486t441 163q594 0 594 -649q0 -474 -335 -588v-90h339v-207h-493v391q88 25 145 94.5t80 161t23 207.5q0 111 -16 190t-55 140.5t-109 92t-173 30.5q-101 0 -170.5 -30.5t-108.5 -91.5t-56 -141t-17 -190
q0 -116 23.5 -207.5t80.5 -161t144 -94.5v-391h-494zM61 1174l134 346h221l-168 -346h-187z" />
    <glyph glyph-name="iotadieresistonos" unicode="&#x390;" horiz-adv-x="542" 
d="M-84 1260v235h162v-235h-162zM469 1260v235h162v-235h-162zM139 1260l125 346h187l-156 -346h-156zM145 0v1145h230v-1145h-230z" />
    <glyph glyph-name="Alpha" unicode="&#x391;" horiz-adv-x="1263" 
d="M37 0l469 1528h252l469 -1528h-244l-86 289h-541l-84 -289h-235zM416 504h422l-209 696z" />
    <glyph glyph-name="Beta" unicode="&#x392;" horiz-adv-x="1198" 
d="M129 0v1518h506q236 0 346.5 -93.5t110.5 -291.5q0 -269 -189 -336q111 -35 165 -124t54 -253q0 -223 -121.5 -321.5t-353.5 -98.5h-518zM362 203h281q119 0 179.5 51.5t60.5 181.5q0 132 -60.5 184t-179.5 52h-281v-469zM362 883h265q116 0 171.5 49.5t55.5 167.5
q0 117 -55 164t-172 47h-265v-428z" />
    <glyph glyph-name="Gamma" unicode="&#x393;" horiz-adv-x="1050" 
d="M367 1300v-1300h-238v1518h868v-218h-630z" />
    <glyph glyph-name="Delta" unicode="&#x394;" horiz-adv-x="1263" 
d="M37 0l469 1528h252l469 -1528h-1190zM326 203h602l-299 997z" />
    <glyph glyph-name="Delta" unicode="&#x2206;" horiz-adv-x="1263" 
d="M37 0l469 1528h252l469 -1528h-1190zM326 203h602l-299 997z" />
    <glyph glyph-name="Epsilon" unicode="&#x395;" horiz-adv-x="1087" 
d="M129 0v1518h866v-218h-635v-409h605v-217h-605v-461h639v-213h-870z" />
    <glyph glyph-name="Zeta" unicode="&#x396;" horiz-adv-x="1110" 
d="M59 0v182l686 1118h-657v218h940v-197l-684 -1108h703v-213h-988z" />
    <glyph glyph-name="Eta" unicode="&#x397;" horiz-adv-x="1320" 
d="M166 0v1518h237v-615h588v615h238v-1518h-238v670h-588v-670h-237z" />
    <glyph glyph-name="Theta" unicode="&#x398;" horiz-adv-x="1312" 
d="M422 649v217h471v-217h-471zM657 -16q-110 0 -197.5 21.5t-149 58t-106.5 94t-72 119.5t-42.5 145t-21 160.5t-5.5 175.5t5.5 175.5t21 160.5t42.5 145.5t72 120t106.5 94.5t149.5 58.5t197 21.5t196.5 -21.5t149 -58.5t106.5 -94.5t71.5 -120t42 -145.5t21 -160.5
t5.5 -175.5t-5.5 -175.5t-21 -160.5t-42 -145t-71.5 -119.5t-106.5 -94t-149 -58t-196.5 -21.5zM657 195q67 0 119.5 14.5t89.5 38.5t63.5 64.5t42 83.5t24 104.5t11.5 118t3 133.5q0 76 -3 132.5t-11.5 117.5t-24 104t-42 83t-63.5 64.5t-89.5 39t-119.5 14.5t-120 -14.5
t-90 -39t-63.5 -64.5t-42 -83t-24 -104t-11.5 -117.5t-3 -132.5q0 -67 2 -117.5t8 -105.5t18 -96t29.5 -81t44.5 -67t62 -48.5t83 -31.5t107 -10z" />
    <glyph glyph-name="Iota" unicode="&#x399;" horiz-adv-x="524" 
d="M143 0v1518h238v-1518h-238z" />
    <glyph glyph-name="Kappa" unicode="&#x39a;" horiz-adv-x="1232" 
d="M129 0v1518h236v-691l538 691h273l-461 -580l473 -938h-262l-371 743l-190 -251v-492h-236z" />
    <glyph glyph-name="Lambda" unicode="&#x39b;" horiz-adv-x="1251" 
d="M754 1528l463 -1528h-242l-352 1180l-347 -1180h-239l465 1528h252z" />
    <glyph glyph-name="Mu" unicode="&#x39c;" horiz-adv-x="1560" 
d="M129 0v1518h301l350 -1110l353 1110h301v-1518h-234v1075l-344 -1075h-170l-346 1077v-1077h-211z" />
    <glyph glyph-name="Nu" unicode="&#x39d;" horiz-adv-x="1314" 
d="M129 0v1518h254l578 -1043v1043h227v-1518h-219l-615 1100v-1100h-225z" />
    <glyph glyph-name="Xi" unicode="&#x39e;" horiz-adv-x="1124" 
d="M100 1300v218h924v-218h-924zM199 680v217h729v-217h-729zM88 0v213h948v-213h-948z" />
    <glyph glyph-name="Omicron" unicode="&#x39f;" horiz-adv-x="1312" 
d="M657 -16q-110 0 -197.5 21.5t-149 58t-106.5 94t-72 119.5t-42.5 145t-21 160.5t-5.5 175.5t5.5 175.5t21 160.5t42.5 145.5t72 120t106.5 94.5t149.5 58.5t197 21.5t196.5 -21.5t149 -58.5t106.5 -94.5t71.5 -120t42 -145.5t21 -160.5t5.5 -175.5t-5.5 -175.5
t-21 -160.5t-42 -145t-71.5 -119.5t-106.5 -94t-149 -58t-196.5 -21.5zM657 195q67 0 119.5 14.5t89.5 38.5t63.5 64.5t42 83.5t24 104.5t11.5 118t3 133.5q0 76 -3 132.5t-11.5 117.5t-24 104t-42 83t-63.5 64.5t-89.5 39t-119.5 14.5t-120 -14.5t-90 -39t-63.5 -64.5
t-42 -83t-24 -104t-11.5 -117.5t-3 -132.5q0 -67 2 -117.5t8 -105.5t18 -96t29.5 -81t44.5 -67t62 -48.5t83 -31.5t107 -10z" />
    <glyph glyph-name="Pi" unicode="&#x3a0;" horiz-adv-x="1249" 
d="M129 0v1518h991v-1518h-239v1300h-514v-1300h-238z" />
    <glyph glyph-name="Rho" unicode="&#x3a1;" horiz-adv-x="1196" 
d="M129 0v1518h537q244 0 355.5 -117t111.5 -354q0 -498 -471 -498h-300v-549h-233zM362 762h295q128 0 186 63t58 209q0 148 -57.5 209.5t-186.5 61.5h-295v-543z" />
    <glyph glyph-name="Sigma" unicode="&#x3a3;" horiz-adv-x="1128" 
d="M63 0v186l408 576l-389 551v205h936v-220h-641l373 -536l-383 -549h680v-213h-984z" />
    <glyph glyph-name="Tau" unicode="&#x3a4;" horiz-adv-x="1142" 
d="M451 0v1300h-420v218h1081v-218h-422v-1300h-239z" />
    <glyph glyph-name="Upsilon" unicode="&#x3a5;" horiz-adv-x="1204" 
d="M483 0v537l-475 981h252l344 -725l346 725h244l-475 -981v-537h-236z" />
    <glyph glyph-name="Phi" unicode="&#x3a6;" horiz-adv-x="1464" 
d="M614 0v113q-129 12 -231 54.5t-179.5 118.5t-119 196t-41.5 278q0 157 41.5 276t119 195t179.5 118.5t231 55.5v113h238v-113q130 -12 232.5 -54t180 -118t119 -195.5t41.5 -277.5q0 -159 -41.5 -279.5t-119 -196.5t-180 -117.5t-232.5 -53.5v-113h-238zM1200 760
q0 194 -85 298.5t-263 127.5v-852q178 23 263 127t85 299zM268 760q0 -192 85 -295.5t261 -128.5v848q-176 -25 -261 -129t-85 -295z" />
    <glyph glyph-name="Chi" unicode="&#x3a7;" horiz-adv-x="1239" 
d="M930 0l-324 584l-305 -584h-256l442 797l-399 721h260l281 -508l264 508h256l-401 -723l442 -795h-260z" />
    <glyph glyph-name="Psi" unicode="&#x3a8;" horiz-adv-x="1280" 
d="M524 0v530q-89 7 -156.5 26t-114 50.5t-77.5 71t-48 94.5t-23.5 112.5t-6.5 133.5v500h232v-490q0 -118 10 -157q20 -80 106 -110q33 -12 78 -18v775h238v-775q32 5 58 13t45 17t33.5 24.5t24 27.5t16 34.5t10 37t5.5 43t2 45v49.5v484h228v-496q0 -77 -6.5 -135
t-23 -114t-47 -95t-77 -71t-113.5 -51t-155 -26v-530h-238z" />
    <glyph glyph-name="Omega" unicode="&#x3a9;" horiz-adv-x="1333" 
d="M68 0v207h340v90q-332 116 -332 588q0 323 148 486t442 163q594 0 594 -649q0 -246 -89 -390t-247 -198v-90h340v-207h-494v391q88 25 145 94.5t80 161t23 207.5q0 111 -16 190t-54.5 140.5t-108.5 92t-173 30.5q-101 0 -171 -30.5t-109 -91.5t-56 -141t-17 -190
q0 -116 23.5 -207.5t80.5 -161t144 -94.5v-391h-493z" />
    <glyph glyph-name="Omega" unicode="&#x2126;" horiz-adv-x="1333" 
d="M68 0v207h340v90q-332 116 -332 588q0 323 148 486t442 163q594 0 594 -649q0 -246 -89 -390t-247 -198v-90h340v-207h-494v391q88 25 145 94.5t80 161t23 207.5q0 111 -16 190t-54.5 140.5t-108.5 92t-173 30.5q-101 0 -171 -30.5t-109 -91.5t-56 -141t-17 -190
q0 -116 23.5 -207.5t80.5 -161t144 -94.5v-391h-493z" />
    <glyph glyph-name="Iotadieresis" unicode="&#x3aa;" horiz-adv-x="524" 
d="M143 0v1518h238v-1518h-238zM-25 1602v235h205v-235h-205zM350 1602v235h205v-235h-205z" />
    <glyph glyph-name="Upsilondieresis" unicode="&#x3ab;" horiz-adv-x="1204" 
d="M483 0v537l-475 981h252l344 -725l346 725h244l-475 -981v-537h-236zM311 1602v235h205v-235h-205zM686 1602v235h205v-235h-205z" />
    <glyph glyph-name="alphatonos" unicode="&#x3ac;" horiz-adv-x="1116" 
d="M422 1260l133 346h221l-168 -346h-186zM520 186q47 0 83 10t61 26t43 44t28 57t16 72.5t7.5 82.5t1.5 95q0 66 -2 107.5t-9.5 90.5t-23 77.5t-41.5 54.5t-67 37.5t-97 11.5q-57 0 -97.5 -18t-65 -48t-38 -80.5t-18 -103.5t-4.5 -129q0 -78 4 -131t17.5 -105t37.5 -82.5
t65 -49.5t99 -19zM797 156q-69 -170 -351 -170q-71 0 -128 17t-96 44.5t-67.5 72.5t-45 92t-26 111t-12.5 122t-3 133q0 74 3.5 133t14 121.5t28 110t47 91t69.5 71t97.5 44t129.5 16.5q103 0 170 -18.5t99.5 -47t57.5 -75.5l35 133l170 -14l2 -838q0 -66 14.5 -85t73.5 -19
v-201q-22 -2 -67 -2q-110 0 -156 31.5t-59 126.5z" />
    <glyph glyph-name="epsilontonos" unicode="&#x3ad;" horiz-adv-x="835" 
d="M336 1260l133 346h221l-168 -346h-186zM438 -25q-192 0 -283.5 77t-91.5 276q0 123 38.5 190.5t117.5 91.5q-67 29 -99 88.5t-32 167.5q0 159 88.5 232t265.5 73q220 0 346 -92l-94 -178q-90 70 -221 70q-81 0 -118.5 -32.5t-37.5 -100.5q0 -77 33.5 -110.5t136.5 -33.5
h134v-178h-127q-66 0 -108 -11t-62.5 -35t-27.5 -51t-7 -69q0 -95 41 -136.5t141 -41.5q78 0 131 20t111 66l88 -172q-77 -60 -161 -85.5t-202 -25.5z" />
    <glyph glyph-name="etatonos" unicode="&#x3ae;" horiz-adv-x="1091" 
d="M449 1260l133 346h221l-168 -346h-186zM111 0v1130l182 17l18 -105q41 60 121 91.5t225 31.5q85 0 145.5 -21t96.5 -55t56.5 -90.5t27 -114.5t6.5 -139v-1077h-229v1024q0 56 -3.5 91.5t-14 69.5t-31 52.5t-54.5 29.5t-84 11q-75 0 -121.5 -19.5t-71 -65t-32.5 -102.5
t-8 -149v-610h-229z" />
    <glyph glyph-name="iotatonos" unicode="&#x3af;" horiz-adv-x="464" 
d="M137 1260l133 346h222l-168 -346h-187zM117 0v1145h229v-1145h-229z" />
    <glyph glyph-name="upsilondieresistonos" unicode="&#x3b0;" horiz-adv-x="1069" 
d="M178 1260v235h162v-235h-162zM731 1260v235h162v-235h-162zM401 1260l125 346h187l-156 -346h-156zM535 -16q-131 0 -215.5 26t-132.5 84.5t-66.5 139.5t-18.5 204v707h232v-694q0 -61 3 -96.5t14 -71.5t33 -54t60 -29.5t95 -11.5q68 0 109 15t61 52t26 80t6 118v692h226
v-707q0 -99 -10.5 -168t-38.5 -126.5t-76.5 -90.5t-124 -51t-182.5 -18z" />
    <glyph glyph-name="alpha" unicode="&#x3b1;" horiz-adv-x="1116" 
d="M520 186q47 0 83 10t61 26t43 44t28 57t16 72.5t7.5 82.5t1.5 95q0 66 -2 107.5t-9.5 90.5t-23 77.5t-41.5 54.5t-67 37.5t-97 11.5q-57 0 -97.5 -18t-65 -48t-38 -80.5t-18 -103.5t-4.5 -129q0 -78 4 -131t17.5 -105t37.5 -82.5t65 -49.5t99 -19zM797 156
q-69 -170 -351 -170q-71 0 -128 17t-96 44.5t-67.5 72.5t-45 92t-26 111t-12.5 122t-3 133q0 74 3.5 133t14 121.5t28 110t47 91t69.5 71t97.5 44t129.5 16.5q103 0 170 -18.5t99.5 -47t57.5 -75.5l35 133l170 -14l2 -838q0 -66 14.5 -85t73.5 -19v-201q-22 -2 -67 -2
q-110 0 -156 31.5t-59 126.5z" />
    <glyph glyph-name="beta" unicode="&#x3b2;" horiz-adv-x="1122" 
d="M111 -324v1498q0 199 103 307t337 108q229 0 328.5 -93.5t99.5 -303.5q0 -161 -34 -245.5t-116 -119.5q129 -26 179.5 -118t50.5 -279q0 -163 -46 -254.5t-154 -133.5t-302 -42h-90v207h90q158 0 216 57t58 197q0 137 -57.5 191.5t-214.5 54.5h-43v182h43q105 0 152 57
t47 187q0 129 -48 183t-159 54q-113 0 -164 -53t-51 -166v-1475h-225z" />
    <glyph glyph-name="gamma" unicode="&#x3b3;" horiz-adv-x="983" 
d="M362 -332v342l-350 1135h240l246 -850l243 850h230l-353 -1135v-342h-256z" />
    <glyph glyph-name="delta" unicode="&#x3b4;" horiz-adv-x="1077" 
d="M893 956h-4q123 -131 123 -426q0 -97 -11 -172.5t-42 -148t-82.5 -120t-137 -76.5t-200.5 -29q-113 0 -198 29t-137 76.5t-83.5 120t-43 148.5t-11.5 172q0 78 7.5 142.5t26 128.5t53 112t84 86t123 58.5t166.5 21.5l-325 336v160h698v-197h-410zM539 184q53 0 93.5 12.5
t66.5 38t42.5 54.5t24.5 71.5t11 79.5t3 86q0 60 -4 102.5t-18 90.5t-39 77.5t-71 49.5t-109 20q-53 0 -93.5 -12.5t-66 -38t-42.5 -54.5t-25.5 -70.5t-11.5 -79t-3 -85.5q0 -59 4 -103t18.5 -91.5t40 -78t71 -50t108.5 -19.5z" />
    <glyph glyph-name="epsilon" unicode="&#x3b5;" horiz-adv-x="835" 
d="M438 -25q-192 0 -283.5 77t-91.5 276q0 123 38.5 190.5t117.5 91.5q-67 29 -99 88.5t-32 167.5q0 159 88.5 232t265.5 73q220 0 346 -92l-94 -178q-90 70 -221 70q-81 0 -118.5 -32.5t-37.5 -100.5q0 -77 33.5 -110.5t136.5 -33.5h134v-178h-127q-66 0 -108 -11
t-62.5 -35t-27.5 -51t-7 -69q0 -95 41 -136.5t141 -41.5q78 0 131 20t111 66l88 -172q-77 -60 -161 -85.5t-202 -25.5z" />
    <glyph glyph-name="zeta" unicode="&#x3b6;" horiz-adv-x="864" 
d="M532 -307q-117 0 -217 47l52 113q81 -31 151 -31q64 0 88.5 19.5t24.5 64.5q0 42 -28 56t-116 28q-424 31 -424 495q0 146 38 269.5t140.5 275t286.5 342.5h-462v203h745v-166q-291 -311 -401.5 -505t-110.5 -384q0 -149 52 -228.5t175 -105.5q71 -14 114.5 -29.5
t78.5 -43t50 -69.5t15 -105q0 -119 -59 -182.5t-193 -63.5z" />
    <glyph glyph-name="eta" unicode="&#x3b7;" horiz-adv-x="1091" 
d="M111 0v1130l182 17l18 -105q41 60 121 91.5t225 31.5q85 0 145.5 -21t96.5 -55t56.5 -90.5t27 -114.5t6.5 -139v-1077h-229v1024q0 56 -3.5 91.5t-14 69.5t-31 52.5t-54.5 29.5t-84 11q-75 0 -121.5 -19.5t-71 -65t-32.5 -102.5t-8 -149v-610h-229z" />
    <glyph glyph-name="theta" unicode="&#x3b8;" horiz-adv-x="1241" 
d="M623 -16q-94 0 -166.5 17t-126.5 48t-92 83.5t-62.5 113.5t-38.5 147.5t-19 177t-5 211.5q0 105 4 185.5t13.5 160t27 138t44.5 112.5t65 90t89 63t117.5 39.5t149.5 12.5q81 0 146.5 -12.5t116 -40t88.5 -64t65 -90.5t44.5 -112.5t27 -138t13.5 -160t4 -183.5
q0 -122 -5 -213t-18.5 -178t-37.5 -147.5t-62 -112.5t-91.5 -82.5t-125.5 -47.5t-165 -17zM623 197q151 0 208 111t62 384h-545q6 -274 63.5 -384.5t211.5 -110.5zM623 1362q-154 0 -211.5 -109.5t-63.5 -384.5h545q-5 272 -62.5 383t-207.5 111z" />
    <glyph glyph-name="iota" unicode="&#x3b9;" horiz-adv-x="464" 
d="M117 0v1145h229v-1145h-229z" />
    <glyph glyph-name="kappa" unicode="&#x3ba;" horiz-adv-x="991" 
d="M111 0v1145h223v-547l373 547h241l-344 -483l369 -662h-244l-274 477l-121 -176v-301h-223z" />
    <glyph glyph-name="lambda" unicode="&#x3bb;" horiz-adv-x="950" 
d="M135 1389v186h111q132 0 199.5 -41.5t105.5 -163.5l385 -1370h-225l-222 866l-241 -866h-236l363 1194l-35 129q-9 36 -29 51t-65 15h-111z" />
    <glyph glyph-name="uni03BC" unicode="&#x3bc;" horiz-adv-x="1091" 
d="M440 -14q-66 0 -114 12v-322h-217v1469h231v-707q0 -57 3 -91.5t13.5 -69t30.5 -52t54.5 -28.5t84.5 -11q74 0 120 19t69.5 64t31 100.5t7.5 148.5v627h229v-1137l-184 -12l-17 108q-41 -59 -118.5 -88.5t-223.5 -29.5z" />
    <glyph glyph-name="nu" unicode="&#x3bd;" horiz-adv-x="983" 
d="M369 -8l-357 1153h240l246 -850l243 850h230l-359 -1153h-243z" />
    <glyph glyph-name="xi" unicode="&#x3be;" horiz-adv-x="890" 
d="M537 -307q-119 0 -215 47l49 113q78 -31 151 -31q64 0 88.5 19.5t24.5 64.5q0 42 -28 56t-115 28q-119 10 -202.5 44.5t-131.5 93.5t-69 134t-21 176q0 341 276 400q-95 22 -140.5 91t-45.5 191q0 92 33 158t92 94h-213v203h761v-203h-210q-123 0 -181.5 -53t-58.5 -170
q0 -57 11 -95.5t40 -70.5t83.5 -49t137.5 -21v-168q-6 0 -25 -1t-26 -1q-92 -3 -153 -21.5t-93.5 -54.5t-45.5 -79.5t-13 -106.5q0 -136 54 -202t179 -93q141 -27 198.5 -76.5t57.5 -170.5q0 -119 -58 -182.5t-191 -63.5z" />
    <glyph glyph-name="omicron" unicode="&#x3bf;" horiz-adv-x="1077" 
d="M539 -16q-114 0 -198.5 29t-136.5 78t-83.5 126t-43 162t-11.5 196t11 194.5t42 161t83 127t136.5 78.5t200.5 29t201 -29.5t136.5 -79.5t82.5 -127.5t42 -160.5t11 -193q0 -113 -11 -197.5t-42 -162t-83 -126t-136.5 -77t-200.5 -28.5zM539 184q64 0 109 19.5t70.5 50
t39.5 83.5t18 103.5t4 126.5q0 77 -4 128t-18 103.5t-39.5 83t-70.5 49.5t-109 19t-108.5 -19t-70.5 -49.5t-40.5 -83t-18.5 -104t-4 -127.5q0 -53 2 -92t8 -81t17 -71.5t29 -57.5t43 -44.5t61 -26.5t82 -10z" />
    <glyph glyph-name="pi" unicode="&#x3c0;" horiz-adv-x="1079" 
d="M106 0v1145h867v-1145h-228v950h-409v-950h-230z" />
    <glyph glyph-name="rho" unicode="&#x3c1;" horiz-adv-x="1107" 
d="M111 -324v899q0 111 11 194.5t42.5 161t83.5 127t137.5 78.5t202.5 29q83 0 150 -17t114 -45t81.5 -72.5t55 -92t33 -110.5t16.5 -121.5t4 -131.5q0 -74 -3.5 -133t-14 -122t-28.5 -110.5t-47.5 -91t-69.5 -71.5t-97.5 -44.5t-128.5 -16.5q-129 0 -201.5 27t-111.5 79
v-416h-229zM588 186q57 0 97 18t64.5 48t38.5 80t18.5 103.5t4.5 129.5q0 77 -4.5 130t-18 105t-37.5 82.5t-64.5 49t-98.5 18.5q-66 0 -112.5 -19t-72.5 -49t-40.5 -83t-18.5 -104.5t-4 -129.5q0 -65 2.5 -108.5t11 -91t25 -77t43.5 -54.5t68.5 -36.5t97.5 -11.5z" />
    <glyph glyph-name="sigma1" unicode="&#x3c2;" horiz-adv-x="878" 
d="M559 -307q-117 0 -217 47l51 113q78 -31 152 -31q64 0 88 19.5t24 64.5q0 39 -30 57.5t-107 22.5q-110 5 -189.5 33.5t-130.5 75.5t-81 121t-41.5 159t-11.5 200q0 116 11.5 201.5t42 162t82.5 124t135.5 75t197.5 27.5q172 0 292 -59l-100 -199q-79 43 -182 43
q-141 0 -193.5 -89t-52.5 -292q0 -102 10.5 -167t40 -114t81.5 -73t134 -33q128 -14 187 -69.5t59 -173.5q0 -119 -59 -182.5t-193 -63.5z" />
    <glyph glyph-name="sigma" unicode="&#x3c3;" horiz-adv-x="1107" 
d="M539 -16q-114 0 -198.5 29t-136.5 78t-83.5 126t-43 162t-11.5 196t11 194.5t42 161t83 127t136.5 78.5t200.5 29q140 0 237 -43h307v-192h-125q54 -130 54 -355q0 -113 -11 -197.5t-42 -162t-83 -126t-136.5 -77t-200.5 -28.5zM539 184q64 0 109 19.5t70.5 50t39.5 83.5
t18 103.5t4 126.5q0 77 -4 128t-18 103.5t-39.5 83t-70.5 49.5t-109 19t-108.5 -19t-70.5 -49.5t-40.5 -83t-18.5 -104t-4 -127.5q0 -53 2 -92t8 -81t17 -71.5t29 -57.5t43 -44.5t61 -26.5t82 -10z" />
    <glyph glyph-name="tau" unicode="&#x3c4;" horiz-adv-x="942" 
d="M16 940v205h912v-205h-340v-940h-234v940h-338z" />
    <glyph glyph-name="upsilon" unicode="&#x3c5;" horiz-adv-x="1069" 
d="M535 -16q-131 0 -215.5 26t-132.5 84.5t-66.5 139.5t-18.5 204v707h232v-694q0 -61 3 -96.5t14 -71.5t33 -54t60 -29.5t95 -11.5q68 0 109 15t61 52t26 80t6 118v692h226v-707q0 -99 -10.5 -168t-38.5 -126.5t-76.5 -90.5t-124 -51t-182.5 -18z" />
    <glyph glyph-name="phi" unicode="&#x3c6;" horiz-adv-x="1241" 
d="M504 -332v316q-108 4 -187 36t-127 82.5t-76 127.5t-38 157.5t-10 187.5q0 194 38.5 313t131.5 185l116 -203q-30 -45 -42.5 -115t-12.5 -186q0 -73 3.5 -123t16 -100.5t34.5 -82t60.5 -53t92.5 -26.5v981h201h26h2q105 -4 183 -33t127.5 -77t79.5 -123t41.5 -160
t11.5 -197q0 -106 -10 -186.5t-38.5 -158.5t-76.5 -128t-128 -82t-190 -36v-316h-229zM946 569q0 74 -4.5 126t-17.5 101t-36 79t-62 49.5t-93 23.5v-764q55 4 94 24.5t62 51t36 81t17 102t4 126.5z" />
    <glyph glyph-name="chi" unicode="&#x3c7;" horiz-adv-x="966" 
d="M702 0l-233 406l-217 -406h-234l338 602l-309 543h248l201 -354l190 354h234l-310 -553l338 -592h-246z" />
    <glyph glyph-name="psi" unicode="&#x3c8;" horiz-adv-x="1363" 
d="M567 -332v312q-115 1 -197 22.5t-134.5 59t-82.5 99.5t-41.5 133t-11.5 171v680h230v-668q0 -42 1.5 -71t7 -62t15.5 -54.5t27 -43t42 -33.5t61 -20t83 -9v961h230v-961q65 1 109.5 16t70 37.5t39 63.5t17 80t3.5 102v662h228v-676q0 -84 -7.5 -146.5t-27 -119.5
t-53.5 -96t-85 -68.5t-124.5 -43.5t-169.5 -15v-312h-230z" />
    <glyph glyph-name="omega" unicode="&#x3c9;" horiz-adv-x="1484" 
d="M858 1026v-526q0 -122 20 -193.5t53 -97t85 -25.5q85 0 122.5 70t37.5 223q0 131 -32 262t-112 303l199 119q93 -185 133.5 -350.5t40.5 -341.5q0 -253 -95.5 -372.5t-269.5 -119.5q-135 0 -203 68.5t-96 220.5q-28 -153 -95 -221t-202 -68q-364 0 -364 492
q0 176 40.5 341.5t133.5 350.5l197 -119q-80 -171 -111 -302t-31 -263q0 -155 36 -224t122 -69q52 0 85.5 25.5t54 97t20.5 193.5v526h231z" />
    <glyph glyph-name="iotadieresis" unicode="&#x3ca;" horiz-adv-x="464" 
d="M-23 1260v235h185v-235h-185zM301 1260v235h184v-235h-184zM117 0v1145h229v-1145h-229z" />
    <glyph glyph-name="upsilondieresis" unicode="&#x3cb;" horiz-adv-x="1069" 
d="M244 1260v235h205v-235h-205zM618 1260v235h205v-235h-205zM535 -16q-131 0 -215.5 26t-132.5 84.5t-66.5 139.5t-18.5 204v707h232v-694q0 -61 3 -96.5t14 -71.5t33 -54t60 -29.5t95 -11.5q68 0 109 15t61 52t26 80t6 118v692h226v-707q0 -99 -10.5 -168t-38.5 -126.5
t-76.5 -90.5t-124 -51t-182.5 -18z" />
    <glyph glyph-name="omicrontonos" unicode="&#x3cc;" horiz-adv-x="1077" 
d="M428 1260l133 346h221l-168 -346h-186zM539 -16q-114 0 -198.5 29t-136.5 78t-83.5 126t-43 162t-11.5 196t11 194.5t42 161t83 127t136.5 78.5t200.5 29t201 -29.5t136.5 -79.5t82.5 -127.5t42 -160.5t11 -193q0 -113 -11 -197.5t-42 -162t-83 -126t-136.5 -77
t-200.5 -28.5zM539 184q64 0 109 19.5t70.5 50t39.5 83.5t18 103.5t4 126.5q0 77 -4 128t-18 103.5t-39.5 83t-70.5 49.5t-109 19t-108.5 -19t-70.5 -49.5t-40.5 -83t-18.5 -104t-4 -127.5q0 -53 2 -92t8 -81t17 -71.5t29 -57.5t43 -44.5t61 -26.5t82 -10z" />
    <glyph glyph-name="upsilontonos" unicode="&#x3cd;" horiz-adv-x="1069" 
d="M442 1260l133 346h222l-168 -346h-187zM535 -16q-131 0 -215.5 26t-132.5 84.5t-66.5 139.5t-18.5 204v707h232v-694q0 -61 3 -96.5t14 -71.5t33 -54t60 -29.5t95 -11.5q68 0 109 15t61 52t26 80t6 118v692h226v-707q0 -99 -10.5 -168t-38.5 -126.5t-76.5 -90.5t-124 -51
t-182.5 -18z" />
    <glyph glyph-name="omegatonos" unicode="&#x3ce;" horiz-adv-x="1484" 
d="M649 1260l133 346h222l-168 -346h-187zM858 1026v-526q0 -122 20 -193.5t53 -97t85 -25.5q85 0 122.5 70t37.5 223q0 131 -32 262t-112 303l199 119q93 -185 133.5 -350.5t40.5 -341.5q0 -253 -95.5 -372.5t-269.5 -119.5q-135 0 -203 68.5t-96 220.5q-28 -153 -95 -221
t-202 -68q-364 0 -364 492q0 176 40.5 341.5t133.5 350.5l197 -119q-80 -171 -111 -302t-31 -263q0 -155 36 -224t122 -69q52 0 85.5 25.5t54 97t20.5 193.5v526h231z" />
    <glyph glyph-name="afii10023" unicode="&#x401;" horiz-adv-x="1087" 
d="M272 1604v235h205v-235h-205zM647 1604v235h205v-235h-205zM129 0v1518h866v-218h-635v-409h605v-217h-605v-461h639v-213h-870z" />
    <glyph glyph-name="afii10051" unicode="&#x402;" horiz-adv-x="1445" 
d="M977 -332v187h12q62 1 81.5 28t19.5 105v581q0 48 -2 80t-7.5 66.5t-17.5 55.5t-31.5 39t-49.5 26t-71 8q-55 0 -94 -13.5t-62.5 -36.5t-37 -61.5t-18 -78.5t-5.5 -97v-557h-239v1300h-420v218h1081v-218h-422v-360q95 123 305 123q82 0 142 -22t96 -58.5t57 -95
t28 -120.5t7 -146v-621q0 -187 -68 -259.5t-251 -72.5h-33z" />
    <glyph glyph-name="afii10052" unicode="&#x403;" horiz-adv-x="1009" 
d="M369 1604l223 346h256l-281 -346h-198zM367 1300v-1300h-238v1518h868v-218h-630z" />
    <glyph glyph-name="afii10053" unicode="&#x404;" horiz-adv-x="1155" 
d="M903 659h-604q14 -246 111 -356t266 -110q92 0 161 30.5t132 87.5l123 -184q-86 -71 -185.5 -109t-242.5 -38q-601 0 -601 778q0 381 147.5 581.5t469.5 200.5q111 0 218.5 -37t188.5 -106l-131 -197q-53 53 -128 81t-154 28q-162 0 -257 -101t-116 -331h602v-218z" />
    <glyph glyph-name="afii10054" unicode="&#x405;" horiz-adv-x="1132" 
d="M569 -16q-323 0 -520 127l119 182q174 -105 395 -105q271 0 271 205q0 35 -6 62t-15.5 49t-31.5 42t-43 35t-61.5 33.5t-76 32.5l-96.5 37q-104 39 -172.5 76.5t-121.5 89t-77 118t-24 154.5q0 198 123 305t356 107q242 0 422 -86l-103 -203q-140 68 -315 68
q-250 0 -250 -183q0 -49 11.5 -81t46.5 -60.5t79.5 -50t130.5 -55.5l128.5 -53.5t104 -50t84 -53.5t61 -60t45 -73t24 -87.5t8.5 -108.5q0 -196 -125 -304.5t-371 -108.5z" />
    <glyph glyph-name="afii10055" unicode="&#x406;" horiz-adv-x="524" 
d="M143 0v1518h238v-1518h-238z" />
    <glyph glyph-name="afii10056" unicode="&#x407;" horiz-adv-x="524" 
d="M143 0v1518h238v-1518h-238zM-25 1602v235h205v-235h-205zM350 1602v235h205v-235h-205z" />
    <glyph glyph-name="afii10057" unicode="&#x408;" horiz-adv-x="749" 
d="M51 0v213h144q109 0 152.5 43.5t43.5 140.5v1121h238v-1135q0 -208 -100 -295.5t-298 -87.5h-180z" />
    <glyph glyph-name="afii10058" unicode="&#x409;" horiz-adv-x="2062" 
d="M997 0v1296h-565v-995q0 -169 -60.5 -236t-199.5 -67q-96 0 -106 2v213h30q66 0 82.5 25t16.5 102v1178h1036v-566h303q245 0 356 -115t111 -352q0 -238 -112.5 -361.5t-358.5 -123.5h-533zM1231 205h295q128 0 185.5 60.5t57.5 207.5q0 148 -57.5 210t-185.5 62h-295
v-540z" />
    <glyph glyph-name="afii10059" unicode="&#x40a;" horiz-adv-x="2023" 
d="M958 0v674h-591v-674h-238v1518h238v-613h591v613h234v-566h303q245 0 356 -115t111 -352q0 -238 -112.5 -361.5t-358.5 -123.5h-533zM1192 205h297q128 0 184 60.5t56 207.5q0 149 -56 210.5t-184 61.5h-297v-540z" />
    <glyph glyph-name="afii10060" unicode="&#x40b;" horiz-adv-x="1441" 
d="M451 0v1300h-420v218h1081v-218h-422v-360q95 123 305 123q82 0 142 -22t96 -58.5t57 -95t28 -120.5t7 -146v-621h-240v569q0 59 -2.5 95t-12.5 74.5t-28.5 59t-52 33.5t-82.5 13q-55 0 -94 -13.5t-62.5 -36.5t-37 -61.5t-18 -78.5t-5.5 -97v-557h-239z" />
    <glyph glyph-name="afii10061" unicode="&#x40c;" horiz-adv-x="1259" 
d="M481 1604l224 346h256l-281 -346h-199zM940 0l-416 700h-159v-700h-236v1518h236v-596h145l393 596h268l-456 -689l497 -829h-272z" />
    <glyph glyph-name="afii10062" unicode="&#x40e;" horiz-adv-x="1185" 
d="M381 -2q-125 0 -150 2v209h86q68 0 94.5 21t47.5 83l28 66l-456 1139h252l333 -867l308 867h241l-475 -1258q-31 -81 -55 -126t-59 -78.5t-80 -45.5t-115 -12zM612 1593q-91 0 -153 20t-100 63t-57.5 97t-31.5 134l168 24q15 -87 52 -125.5t122 -38.5t122 39t50 125
l170 -22q-11 -81 -31 -136t-58 -97.5t-100 -62.5t-153 -20z" />
    <glyph glyph-name="afii10145" unicode="&#x40f;" horiz-adv-x="1349" 
d="M535 -332v332h-406v1518h238v-1311h583v1311h238v-1518h-406v-332h-247z" />
    <glyph glyph-name="afii10017" unicode="&#x410;" horiz-adv-x="1263" 
d="M37 0l469 1528h252l469 -1528h-244l-86 289h-541l-84 -289h-235zM416 504h422l-209 696z" />
    <glyph glyph-name="afii10018" unicode="&#x411;" horiz-adv-x="1196" 
d="M129 0v1518h827v-218h-596v-378h324q233 0 339.5 -107t106.5 -340q0 -236 -108.5 -355.5t-339.5 -119.5h-553zM360 205h318q114 0 166.5 59t52.5 205q0 147 -52 201.5t-169 54.5h-316v-520z" />
    <glyph glyph-name="afii10019" unicode="&#x412;" horiz-adv-x="1198" 
d="M129 0v1518h506q236 0 346.5 -93.5t110.5 -291.5q0 -269 -189 -336q111 -35 165 -124t54 -253q0 -223 -121.5 -321.5t-353.5 -98.5h-518zM362 203h281q119 0 179.5 51.5t60.5 181.5q0 132 -60.5 184t-179.5 52h-281v-469zM362 883h265q116 0 171.5 49.5t55.5 167.5
q0 117 -55 164t-172 47h-265v-428z" />
    <glyph glyph-name="afii10020" unicode="&#x413;" horiz-adv-x="1050" 
d="M367 1300v-1300h-238v1518h868v-218h-630z" />
    <glyph glyph-name="afii10021" unicode="&#x414;" horiz-adv-x="1454" 
d="M70 -332v545h30q60 0 78.5 27t18.5 106v1172h1060v-1305h127v-545h-247v332h-820v-332h-247zM408 207h614v1091h-586v-960q0 -36 -1 -54.5t-7.5 -41.5t-19.5 -35z" />
    <glyph glyph-name="afii10022" unicode="&#x415;" horiz-adv-x="1087" 
d="M129 0v1518h866v-218h-635v-409h605v-217h-605v-461h639v-213h-870z" />
    <glyph glyph-name="afii10024" unicode="&#x416;" horiz-adv-x="2023" 
d="M1706 0l-424 700h-152v-700h-235v700h-156l-422 -700h-272l498 821l-455 697h266l396 -596h145v596h235v-596h144l395 596h268l-456 -697l497 -821h-272z" />
    <glyph glyph-name="afii10025" unicode="&#x417;" horiz-adv-x="1142" 
d="M551 -20q-310 0 -502 124l105 191q165 -105 383 -105q169 0 238 55t69 210q0 134 -70 189.5t-256 55.5h-254v207h250q161 0 228 50t67 169q0 107 -67 151t-207 44q-93 0 -191.5 -23.5t-169.5 -66.5l-100 186q84 56 220 89.5t273 33.5q114 0 197 -17.5t145.5 -58
t93.5 -111t31 -171.5q0 -152 -41.5 -234t-146.5 -117q131 -36 178 -121.5t47 -267.5q0 -129 -33 -218.5t-100.5 -143t-161.5 -77t-225 -23.5z" />
    <glyph glyph-name="afii10026" unicode="&#x418;" horiz-adv-x="1314" 
d="M1186 1518v-1518h-228v1100l-612 -1100h-219v1518h225v-1043l580 1043h254z" />
    <glyph glyph-name="afii10027" unicode="&#x419;" horiz-adv-x="1314" 
d="M1186 1518v-1518h-228v1100l-612 -1100h-219v1518h225v-1043l580 1043h254zM649 1593q-91 0 -153.5 20t-100 63t-57 97t-31.5 134l168 24q15 -87 51.5 -125.5t122.5 -38.5q85 0 122 39t50 125l170 -22q-11 -81 -31 -136t-58 -97.5t-100 -62.5t-153 -20z" />
    <glyph glyph-name="afii10028" unicode="&#x41a;" horiz-adv-x="1259" 
d="M940 0l-416 700h-159v-700h-236v1518h236v-596h145l393 596h268l-456 -689l497 -829h-272z" />
    <glyph glyph-name="afii10029" unicode="&#x41b;" horiz-adv-x="1355" 
d="M68 0v213h28q67 0 84 25.5t17 101.5v1178h1036v-1518h-240v1296h-561v-995q0 -168 -60 -235.5t-198 -67.5q-98 0 -106 2z" />
    <glyph glyph-name="afii10030" unicode="&#x41c;" horiz-adv-x="1560" 
d="M129 0v1518h301l350 -1110l353 1110h301v-1518h-234v1075l-344 -1075h-170l-346 1077v-1077h-211z" />
    <glyph glyph-name="afii10031" unicode="&#x41d;" horiz-adv-x="1320" 
d="M166 0v1518h237v-615h588v615h238v-1518h-238v670h-588v-670h-237z" />
    <glyph glyph-name="afii10032" unicode="&#x41e;" horiz-adv-x="1312" 
d="M657 -16q-110 0 -197.5 21.5t-149 58t-106.5 94t-72 119.5t-42.5 145t-21 160.5t-5.5 175.5t5.5 175.5t21 160.5t42.5 145.5t72 120t106.5 94.5t149.5 58.5t197 21.5t196.5 -21.5t149 -58.5t106.5 -94.5t71.5 -120t42 -145.5t21 -160.5t5.5 -175.5t-5.5 -175.5
t-21 -160.5t-42 -145t-71.5 -119.5t-106.5 -94t-149 -58t-196.5 -21.5zM657 195q67 0 119.5 14.5t89.5 38.5t63.5 64.5t42 83.5t24 104.5t11.5 118t3 133.5q0 76 -3 132.5t-11.5 117.5t-24 104t-42 83t-63.5 64.5t-89.5 39t-119.5 14.5t-120 -14.5t-90 -39t-63.5 -64.5
t-42 -83t-24 -104t-11.5 -117.5t-3 -132.5q0 -67 2 -117.5t8 -105.5t18 -96t29.5 -81t44.5 -67t62 -48.5t83 -31.5t107 -10z" />
    <glyph glyph-name="afii10033" unicode="&#x41f;" horiz-adv-x="1316" 
d="M129 0v1518h1059v-1518h-238v1300h-583v-1300h-238z" />
    <glyph glyph-name="afii10034" unicode="&#x420;" horiz-adv-x="1196" 
d="M129 0v1518h537q244 0 355.5 -117t111.5 -354q0 -498 -471 -498h-300v-549h-233zM362 762h295q128 0 186 63t58 209q0 148 -57.5 209.5t-186.5 61.5h-295v-543z" />
    <glyph glyph-name="afii10035" unicode="&#x421;" horiz-adv-x="1095" 
d="M635 -16q-135 0 -235 36t-164 99.5t-103 162.5t-54.5 213t-15.5 263q0 105 7 190t25 167t47 144t74 115.5t106 87.5t143.5 53t185.5 19q232 0 383 -100l-127 -197q-102 66 -262 66q-193 0 -267.5 -125t-74.5 -424q0 -303 74 -430t270 -127q90 0 154.5 18.5t130.5 60.5
l117 -182q-89 -57 -183 -83.5t-231 -26.5z" />
    <glyph glyph-name="afii10036" unicode="&#x422;" horiz-adv-x="1142" 
d="M451 0v1300h-420v218h1081v-218h-422v-1300h-239z" />
    <glyph glyph-name="afii10037" unicode="&#x423;" horiz-adv-x="1185" 
d="M381 -2q-125 0 -150 2v209h86q68 0 94.5 21t47.5 83l28 66l-456 1139h252l333 -867l308 867h241l-475 -1258q-31 -81 -55 -126t-59 -78.5t-80 -45.5t-115 -12z" />
    <glyph glyph-name="afii10038" unicode="&#x424;" horiz-adv-x="1507" 
d="M633 0v113q-130 12 -232 54.5t-179.5 118.5t-119 196t-41.5 278q0 157 41.5 276t119 195t179.5 118.5t232 55.5v113h237v-113q130 -12 232.5 -54t180.5 -118t119.5 -195.5t41.5 -277.5q0 -159 -41.5 -279.5t-119.5 -196.5t-180 -117.5t-233 -53.5v-113h-237zM1219 760
q0 194 -85.5 298.5t-263.5 127.5v-852q179 23 264 127t85 299zM287 760q0 -192 84.5 -295.5t261.5 -128.5v848q-177 -25 -261.5 -129t-84.5 -295z" />
    <glyph glyph-name="afii10039" unicode="&#x425;" horiz-adv-x="1239" 
d="M930 0l-324 584l-305 -584h-256l442 797l-399 721h260l281 -508l264 508h256l-401 -723l442 -795h-260z" />
    <glyph glyph-name="afii10040" unicode="&#x426;" horiz-adv-x="1384" 
d="M129 0v1518h238v-1311h583v1311h238v-1305h129v-545h-248v332h-940z" />
    <glyph glyph-name="afii10041" unicode="&#x427;" horiz-adv-x="1257" 
d="M893 0v600q-36 -70 -127 -114t-246 -44q-102 0 -177.5 24t-123 64.5t-76 104t-39 133t-10.5 160.5v590h238v-541q0 -78 9.5 -129.5t36 -94.5t78.5 -63t132 -20q91 0 153 24t94.5 70.5t45 101.5t12.5 131v521h235v-1518h-235z" />
    <glyph glyph-name="afii10042" unicode="&#x428;" horiz-adv-x="2043" 
d="M129 0v1518h238v-1311h534v1311h240v-1311h534v1311h240v-1518h-1786z" />
    <glyph glyph-name="afii10043" unicode="&#x429;" horiz-adv-x="2111" 
d="M129 0v1518h238v-1311h534v1311h240v-1311h534v1311h240v-1305h127v-545h-248v332h-1665z" />
    <glyph glyph-name="afii10044" unicode="&#x42a;" horiz-adv-x="1255" 
d="M193 0v1300h-130v218h363v-566h303q245 0 356 -115t111 -352q0 -238 -112.5 -361.5t-358.5 -123.5h-532zM426 209h309q120 0 175 61t55 203q0 148 -58 210t-186 62h-295v-536z" />
    <glyph glyph-name="afii10045" unicode="&#x42b;" horiz-adv-x="1607" 
d="M129 0v1518h233v-566h304q244 0 355.5 -115t111.5 -352q0 -238 -112.5 -361.5t-358.5 -123.5h-533zM362 205h295q129 0 186.5 61t57.5 207q0 148 -58 210t-186 62h-295v-540zM1229 0v1518h237v-1518h-237z" />
    <glyph glyph-name="afii10046" unicode="&#x42c;" horiz-adv-x="1191" 
d="M129 0v1518h233v-566h304q244 0 355.5 -115t111.5 -352q0 -238 -112.5 -361.5t-358.5 -123.5h-533zM362 205h295q129 0 186.5 61t57.5 207q0 148 -58 210t-186 62h-295v-540z" />
    <glyph glyph-name="afii10047" unicode="&#x42d;" horiz-adv-x="1157" 
d="M494 -20q-143 0 -244.5 38t-186.5 109l125 184q65 -57 134 -87.5t159 -30.5q170 0 265.5 108t109.5 354h-604v215h604q-19 234 -114 336.5t-259 102.5q-167 0 -284 -109l-131 197q82 69 190.5 106t216.5 37q133 0 236.5 -34.5t175.5 -99.5t118.5 -162t67.5 -216.5
t21 -269.5q0 -383 -145.5 -580.5t-454.5 -197.5z" />
    <glyph glyph-name="afii10048" unicode="&#x42e;" horiz-adv-x="1785" 
d="M1130 -16q-102 0 -184.5 18.5t-142 50.5t-104 82t-72.5 105.5t-46 128t-26 143.5t-10 158h-178v-670h-238v1518h238v-627h180q4 81 13 148t28 135t48 120t74 98.5t103.5 76.5t138.5 47.5t178 17.5q109 0 196.5 -21.5t149 -58.5t106.5 -94.5t71.5 -120t42 -145.5
t21 -160.5t5.5 -175.5t-5.5 -175.5t-21 -160.5t-42 -145t-71.5 -119.5t-106.5 -94t-149 -58t-196.5 -21.5zM1130 195q67 0 119.5 14.5t89.5 38.5t63.5 64.5t42 83.5t24 104.5t11.5 118t3 133.5q0 76 -3 132.5t-12 117.5t-24.5 104t-42 83t-63.5 64.5t-89 39t-119 14.5
q-59 0 -107 -10t-83.5 -32t-62.5 -48.5t-44.5 -67t-29 -80.5t-17.5 -95t-8 -105.5t-2 -116.5q0 -67 2 -117.5t8 -106t17.5 -95.5t29 -80.5t44.5 -67.5t62.5 -48.5t83.5 -31.5t107 -10z" />
    <glyph glyph-name="afii10049" unicode="&#x42f;" horiz-adv-x="1212" 
d="M102 0l263 600q-277 81 -277 457q0 233 108.5 347t335.5 114h553v-1518h-235v578h-252l-248 -578h-248zM537 780h313v531h-311q-110 0 -163.5 -62t-53.5 -207q0 -143 52.5 -202.5t162.5 -59.5z" />
    <glyph glyph-name="afii10065" unicode="&#x430;" horiz-adv-x="1067" 
d="M408 -12q-99 0 -168 24.5t-107.5 73t-55 111t-16.5 147.5q0 122 35 204t110.5 129.5t181 67t261.5 19.5h45q-3 104 -42 149t-144 45q-163 0 -285 -61l-94 186q155 84 403 84q115 0 190 -22t118.5 -73t60.5 -122.5t17 -181.5v-463q0 -66 14 -85t72 -19v-201q-23 -2 -66 -2
q-97 0 -144 21t-65 81q-47 -61 -124 -86.5t-197 -25.5zM457 178q111 0 174 58t63 204v140h-43q-86 0 -141.5 -4.5t-103 -17t-73 -36.5t-39 -61t-13.5 -92q0 -106 42 -148.5t134 -42.5z" />
    <glyph glyph-name="afii10066" unicode="&#x431;" horiz-adv-x="1073" 
d="M539 -16q-260 0 -368 140t-108 435v266q0 156 15.5 275.5t48.5 203.5t77 139.5t108.5 87.5t136 45t165.5 13h162v-211h-153q-66 0 -112.5 -9.5t-88 -37t-66.5 -76t-39 -127t-14 -188.5q73 186 311 186q204 0 299 -142.5t95 -424.5q0 -151 -23.5 -255.5t-77.5 -178
t-144.5 -107.5t-223.5 -34zM539 184q135 0 186 88t51 283q0 192 -50.5 276t-186.5 84q-138 0 -191 -84.5t-53 -275.5q0 -194 53 -282.5t191 -88.5z" />
    <glyph glyph-name="afii10067" unicode="&#x432;" horiz-adv-x="1058" 
d="M111 0v1145h493q188 0 271 -60t83 -215q0 -108 -31 -175.5t-104 -92.5q87 -24 122.5 -91.5t35.5 -195.5q0 -95 -23 -157t-73.5 -96.5t-118 -48t-168.5 -13.5h-487zM328 178h258q96 0 135 32.5t39 129.5q0 90 -40 122t-136 32h-256v-316zM328 672h252q89 0 123 37.5
t34 117.5q0 78 -35.5 109t-121.5 31h-252v-295z" />
    <glyph glyph-name="afii10068" unicode="&#x433;" horiz-adv-x="854" 
d="M106 0v1145h715v-203h-510v-942h-205z" />
    <glyph glyph-name="afii10069" unicode="&#x434;" horiz-adv-x="1259" 
d="M70 -340v541h34q61 0 79 27.5t18 107.5v809h866v-944h129v-541h-219v340h-692v-340h-215zM397 188h445v758h-414v-627q0 -95 -31 -131z" />
    <glyph glyph-name="afii10070" unicode="&#x435;" horiz-adv-x="1003" 
d="M524 -14q-95 0 -167.5 18t-122.5 54.5t-83.5 85t-51.5 118t-25.5 143t-7.5 170.5q0 113 12.5 199.5t44 162.5t83.5 124.5t133 76t191 27.5q86 0 151 -15.5t108.5 -45.5t72.5 -74.5t44 -102.5t22.5 -129t7.5 -154.5v-178.5h-649q8 -151 60 -217t190 -66q69 0 128.5 11.5
t90 23.5t73.5 33l89 -176q-164 -88 -394 -88zM524 963q-68 0 -113.5 -19t-71.5 -59t-37.5 -91.5t-14.5 -127.5h438q0 37 -1 59.5t-3 52.5t-6 48t-11 40t-17.5 34.5t-25 26.5t-34.5 20.5t-45.5 11t-57.5 4.5z" />
    <glyph glyph-name="afii10072" unicode="&#x436;" horiz-adv-x="1515" 
d="M645 0v516h-108l-281 -516h-244l359 627l-328 518h238l260 -426h104v426h225v-426h105l258 426h240l-328 -518l358 -627h-243l-283 516h-107v-516h-225z" />
    <glyph glyph-name="afii10073" unicode="&#x437;" horiz-adv-x="983" 
d="M473 -25q-289 0 -446 117l110 176q135 -96 314 -96q128 0 176.5 35t48.5 139q0 61 -17 92.5t-70.5 48.5t-156.5 17h-219v198h217q127 0 174 31t47 113q0 75 -46 101t-159 26q-165 0 -278 -76l-119 168q67 50 188 78t240 28q213 0 312.5 -60.5t99.5 -213.5
q0 -117 -32.5 -177.5t-104.5 -88.5q87 -28 124 -98t37 -207q0 -103 -30.5 -173t-91.5 -108t-137 -54t-181 -16z" />
    <glyph glyph-name="afii10074" unicode="&#x438;" horiz-adv-x="1067" 
d="M106 0v1145h209v-746l404 746h242l-5 -1145h-208v786l-424 -786h-218z" />
    <glyph glyph-name="afii10075" unicode="&#x439;" horiz-adv-x="1069" 
d="M106 0v1145h209v-746l404 746h242l-5 -1145h-208v786l-424 -786h-218zM528 1249q-91 0 -153 20t-100 63t-57.5 97t-31.5 134l168 24q15 -87 52 -125.5t122 -38.5t122 39t50 125l170 -22q-11 -81 -31 -136t-58 -97.5t-100 -62.5t-153 -20z" />
    <glyph glyph-name="afii10076" unicode="&#x43a;" horiz-adv-x="976" 
d="M106 0v1145h228v-426h104l258 426h240l-328 -518l357 -627h-242l-283 516h-106v-516h-228z" />
    <glyph glyph-name="afii10077" unicode="&#x43b;" horiz-adv-x="1165" 
d="M66 0v201h26q66 0 83.5 25.5t17.5 103.5v815h866v-1145h-230v948h-407v-647q0 -169 -60.5 -236t-199.5 -67q-90 0 -96 2z" />
    <glyph glyph-name="afii10078" unicode="&#x43c;" horiz-adv-x="1269" 
d="M106 0v1145h277l256 -821l258 821h266v-1145h-211v748l-231 -748h-180l-234 748v-748h-201z" />
    <glyph glyph-name="afii10079" unicode="&#x43d;" horiz-adv-x="1081" 
d="M106 0v1145h232v-447h407v447h228v-1145h-228v487h-407v-487h-232z" />
    <glyph glyph-name="afii10080" unicode="&#x43e;" horiz-adv-x="1077" 
d="M539 -16q-114 0 -198.5 29t-136.5 78t-83.5 126t-43 162t-11.5 196t11 194.5t42 161t83 127t136.5 78.5t200.5 29t201 -29.5t136.5 -79.5t82.5 -127.5t42 -160.5t11 -193q0 -113 -11 -197.5t-42 -162t-83 -126t-136.5 -77t-200.5 -28.5zM539 184q64 0 109 19.5t70.5 50
t39.5 83.5t18 103.5t4 126.5q0 77 -4 128t-18 103.5t-39.5 83t-70.5 49.5t-109 19t-108.5 -19t-70.5 -49.5t-40.5 -83t-18.5 -104t-4 -127.5q0 -53 2 -92t8 -81t17 -71.5t29 -57.5t43 -44.5t61 -26.5t82 -10z" />
    <glyph glyph-name="afii10081" unicode="&#x43f;" horiz-adv-x="1079" 
d="M106 0v1145h867v-1145h-228v948h-409v-948h-230z" />
    <glyph glyph-name="afii10082" unicode="&#x440;" horiz-adv-x="1107" 
d="M111 -324v1454l182 17l16 -107q87 125 353 125q71 0 127.5 -17t96 -45t68.5 -72.5t45.5 -91.5t26.5 -111t13 -121.5t3 -131.5t-3.5 -133t-14 -122t-28.5 -110.5t-47.5 -91t-69.5 -71.5t-97.5 -44.5t-128.5 -16.5q-130 0 -200 26t-113 80v-416h-229zM588 186q57 0 97 18
t64.5 48t38.5 80t18.5 103.5t4.5 129.5q0 77 -4.5 130t-18 105t-37.5 82.5t-64.5 49t-98.5 18.5q-66 0 -112.5 -19t-72.5 -49t-40.5 -83t-18.5 -104.5t-4 -129.5q0 -65 2.5 -108.5t11 -91t25 -77t43.5 -54.5t68.5 -36.5t97.5 -11.5z" />
    <glyph glyph-name="afii10083" unicode="&#x441;" horiz-adv-x="878" 
d="M520 -16q-109 0 -189 27.5t-130.5 75t-81 124t-42 163t-11.5 201.5q0 116 11.5 201.5t42 162t82.5 124t135.5 75t197.5 27.5q172 0 292 -59l-100 -199q-79 43 -182 43q-141 0 -193.5 -89t-52.5 -292q0 -205 52 -295t198 -90q93 0 205 52l88 -177q-84 -40 -155.5 -57.5
t-166.5 -17.5z" />
    <glyph glyph-name="afii10084" unicode="&#x442;" horiz-adv-x="960" 
d="M365 0v940h-332v205h895v-205h-332v-940h-231z" />
    <glyph glyph-name="afii10085" unicode="&#x443;" horiz-adv-x="950" 
d="M135 -324v187h113q43 0 63 14.5t31 50.5l20 70l-350 1147h234l233 -819l232 819h225l-385 -1264q-37 -122 -105 -163.5t-200 -41.5h-111z" />
    <glyph glyph-name="afii10086" unicode="&#x444;" horiz-adv-x="1769" 
d="M770 -324v441q-46 -64 -122 -97.5t-202 -33.5q-71 0 -128 17t-96 44.5t-67.5 72.5t-45 92t-26 111t-12.5 122t-3 133q0 74 3.5 133t14 121.5t28 110t47 91t69.5 71t97.5 44t129.5 16.5q129 0 200 -33.5t113 -103.5v547h229v-541q91 131 324 131q71 0 127.5 -17t95.5 -45
t68 -72.5t45.5 -91.5t26.5 -111t13 -121.5t3 -131.5t-3.5 -133t-14 -122t-28 -110.5t-47 -91t-69.5 -71.5t-97.5 -44.5t-129.5 -16.5q-129 0 -200 34t-114 105v-449h-229zM520 186q55 0 96.5 12t68.5 37.5t44.5 56.5t26 78.5t11.5 93t3 109.5q0 54 -2 92.5t-8 81t-16.5 71
t-29 56t-45 43.5t-64 25.5t-85.5 9.5q-57 0 -97.5 -18t-65 -48t-38 -80.5t-18 -103.5t-4.5 -129q0 -78 4 -131t17.5 -105t37.5 -82.5t65 -49.5t99 -19zM1249 186q57 0 97 18t64 47.5t37.5 80t18 103.5t4.5 130t-4 130t-17.5 105t-37.5 82.5t-64.5 49t-97.5 18.5
q-78 0 -128.5 -24t-76 -74t-35 -109.5t-10.5 -148.5v-51q1 -59 4 -100.5t12 -85.5t26.5 -72.5t44 -52.5t67.5 -35t96 -11z" />
    <glyph glyph-name="afii10087" unicode="&#x445;" horiz-adv-x="966" 
d="M702 0l-233 406l-217 -406h-234l338 602l-309 543h248l201 -354l190 354h234l-310 -553l338 -592h-246z" />
    <glyph glyph-name="afii10088" unicode="&#x446;" horiz-adv-x="1167" 
d="M883 -340v340h-777v1145h232v-950h407v950h228v-944h131v-541h-221z" />
    <glyph glyph-name="afii10089" unicode="&#x447;" horiz-adv-x="1075" 
d="M735 0v422q-32 -62 -109 -105t-198 -43q-187 0 -265.5 111.5t-78.5 364.5v395h233v-352q0 -59 3 -98.5t14 -79.5t30.5 -63t53.5 -37.5t82 -14.5q69 0 116 22.5t72 67t35 98t10 127.5v330h236v-1145h-234z" />
    <glyph glyph-name="afii10090" unicode="&#x448;" horiz-adv-x="1701" 
d="M106 0v1145h232v-950h401v950h228v-950h399v950h229v-1145h-1489z" />
    <glyph glyph-name="afii10091" unicode="&#x449;" horiz-adv-x="1785" 
d="M1505 -340v340h-1399v1145h232v-950h401v950h228v-950h399v950h229v-944h129v-541h-219z" />
    <glyph glyph-name="afii10092" unicode="&#x44a;" horiz-adv-x="1146" 
d="M201 0v942h-131v203h362v-316h264q205 0 293 -104.5t88 -302.5q0 -96 -19.5 -170t-63 -132.5t-121 -89t-185.5 -30.5h-487zM432 193h227q93 0 137 51.5t44 169.5q0 119 -44 171t-141 52h-223v-444z" />
    <glyph glyph-name="afii10093" unicode="&#x44b;" horiz-adv-x="1439" 
d="M106 0v1145h234v-316h262q207 0 294 -104t87 -303q0 -97 -19 -170.5t-62.5 -132t-120.5 -89t-185 -30.5h-490zM340 193h227q93 0 137 51.5t44 169.5q0 120 -43.5 171.5t-139.5 51.5h-225v-444zM1104 0v1145h229v-1145h-229z" />
    <glyph glyph-name="afii10094" unicode="&#x44c;" horiz-adv-x="1058" 
d="M111 0v1145h233v-316h262q207 0 294 -104t87 -303q0 -97 -19 -170.5t-62.5 -132t-120.5 -89t-185 -30.5h-489zM344 193h227q93 0 137 51.5t44 169.5q0 120 -43.5 171.5t-139.5 51.5h-225v-444z" />
    <glyph glyph-name="afii10095" unicode="&#x44d;" horiz-adv-x="903" 
d="M387 -20q-98 0 -174.5 26.5t-161.5 85.5l96 174q54 -41 102.5 -62.5t110.5 -21.5q127 0 183 65.5t67 223.5h-426v201h426q-10 155 -67 222t-178 67q-113 0 -205 -84l-103 190q61 47 134.5 75.5t183.5 28.5t190.5 -26t133.5 -73t85 -122.5t45 -165t13 -209.5
q0 -152 -21.5 -258t-73 -184t-140.5 -115.5t-220 -37.5z" />
    <glyph glyph-name="afii10096" unicode="&#x44e;" horiz-adv-x="1449" 
d="M909 -16q-105 0 -184 24t-130 66t-84 107t-48 138.5t-19 169.5h-108v-489h-230v1145h230v-451h110q6 89 22.5 157.5t50 129t84.5 100t128 62t178 22.5q117 0 202 -29.5t137 -79t83 -127.5t42 -161t11 -193q0 -113 -11 -197.5t-42 -162t-83 -126t-137 -77t-202 -28.5z
M909 184q65 0 110.5 19.5t71 50t40 83.5t18.5 103.5t4 126.5q0 77 -4 128t-18.5 103.5t-40 83t-71 49.5t-110.5 19q-53 0 -92.5 -12t-65 -37.5t-42.5 -56.5t-25 -78t-11 -91.5t-3 -107.5q0 -62 3 -106.5t11 -91.5t25 -78t42.5 -56.5t65 -38t92.5 -12.5z" />
    <glyph glyph-name="afii10097" unicode="&#x44f;" horiz-adv-x="1081" 
d="M96 0l180 401q-192 73 -192 357q0 387 354 387h541v-1145h-231v375h-236l-168 -375h-248zM479 575h269v369h-267q-81 0 -121.5 -41t-40.5 -143q0 -104 40 -144.5t120 -40.5z" />
    <glyph glyph-name="afii10071" unicode="&#x451;" horiz-adv-x="1003" 
d="M211 1260v235h205v-235h-205zM586 1260v235h205v-235h-205zM524 -14q-95 0 -167.5 18t-122.5 54.5t-83.5 85t-51.5 118t-25.5 143t-7.5 170.5q0 113 12.5 199.5t44 162.5t83.5 124.5t133 76t191 27.5q86 0 151 -15.5t108.5 -45.5t72.5 -74.5t44 -102.5t22.5 -129
t7.5 -154.5v-178.5h-649q8 -151 60 -217t190 -66q69 0 128.5 11.5t90 23.5t73.5 33l89 -176q-164 -88 -394 -88zM524 963q-68 0 -113.5 -19t-71.5 -59t-37.5 -91.5t-14.5 -127.5h438q0 37 -1 59.5t-3 52.5t-6 48t-11 40t-17.5 34.5t-25 26.5t-34.5 20.5t-45.5 11t-57.5 4.5z
" />
    <glyph glyph-name="afii10099" unicode="&#x452;" horiz-adv-x="1075" 
d="M-6 1251v189h121v143h227v-143h182v-189h-182v-256q76 140 307 140q82 0 142 -22t96 -58.5t57 -95t28 -120.5t7 -145v-694q0 -187 -65.5 -259.5t-245.5 -72.5h-33v187h14q64 1 81.5 30.5t17.5 120.5v635q0 48 -2 80t-8 66t-18.5 55t-32.5 39t-50.5 26t-71.5 8
q-56 0 -96.5 -14t-64.5 -37.5t-37.5 -62.5t-18 -80.5t-4.5 -99.5v-621h-229v1251h-121z" />
    <glyph glyph-name="afii10100" unicode="&#x453;" horiz-adv-x="854" 
d="M295 1260l223 346h256l-280 -346h-199zM106 0v1145h715v-203h-510v-942h-205z" />
    <glyph glyph-name="afii10101" unicode="&#x454;" horiz-adv-x="903" 
d="M516 -20q-130 0 -218.5 37.5t-139.5 115.5t-73 184t-22 258q0 120 13 210t45.5 165t85.5 122t133.5 73t189.5 26q110 0 183.5 -28.5t134.5 -75.5l-105 -193q-91 87 -200 87q-121 0 -178.5 -67t-69.5 -222h426v-201h-426q11 -157 67.5 -223t182.5 -66q63 0 112.5 20.5
t102.5 61.5l94 -172q-84 -59 -162 -85.5t-176 -26.5z" />
    <glyph glyph-name="afii10102" unicode="&#x455;" horiz-adv-x="862" 
d="M430 -14q-247 0 -401 80l88 178q140 -70 313 -70q170 0 170 131q0 66 -46.5 102.5t-184.5 92.5q-80 32 -131.5 60t-93 67.5t-60 91t-18.5 121.5q0 166 100.5 245.5t284.5 79.5q107 0 180.5 -14t144.5 -45l-90 -191q-117 50 -244 50q-85 0 -121 -29.5t-36 -89.5
q0 -58 44 -92.5t171 -83.5q87 -34 139 -62t95.5 -69.5t62 -97t18.5 -134.5q0 -321 -385 -321z" />
    <glyph glyph-name="afii10103" unicode="&#x456;" horiz-adv-x="464" 
d="M117 0v1145h229v-1145h-229zM117 1272v248h231v-248h-231z" />
    <glyph glyph-name="afii10104" unicode="&#x457;" horiz-adv-x="464" 
d="M-23 1260v235h185v-235h-185zM301 1260v235h184v-235h-184zM117 0v1145h229v-1145h-229z" />
    <glyph glyph-name="afii10105" unicode="&#x458;" horiz-adv-x="464" 
d="M4 -324v187h19q60 0 77 26.5t17 102.5v1153h229v-1161q0 -88 -13 -144t-48 -94t-94 -54t-152 -16h-35zM117 1272v248h231v-248h-231z" />
    <glyph glyph-name="afii10106" unicode="&#x459;" horiz-adv-x="1765" 
d="M825 0v950h-403v-649q0 -169 -60.5 -236t-199.5 -67q-90 0 -96 2v201h26q66 1 83.5 26t17.5 103v815h862v-320h258q206 0 293.5 -102.5t87.5 -300.5q0 -97 -19 -170.5t-62.5 -132t-120.5 -89t-185 -30.5h-482zM1055 188h221q94 0 139 54t45 172q0 119 -44 171t-140 52
h-221v-449z" />
    <glyph glyph-name="afii10107" unicode="&#x45a;" horiz-adv-x="1679" 
d="M106 0v1145h230v-447h405v447h228v-320h262q203 0 291 -103t88 -300q0 -96 -19.5 -170t-63 -132.5t-120 -89t-184.5 -30.5h-482v487h-405v-487h-230zM969 188h225q92 0 136 54t44 172q0 119 -44 171t-140 52h-221v-449z" />
    <glyph glyph-name="afii10108" unicode="&#x45b;" horiz-adv-x="1075" 
d="M-6 1251v189h121v143h227v-143h182v-189h-182v-256q76 140 307 140q82 0 142 -22t96 -58.5t57 -95t28 -120.5t7 -145v-694h-231v641q0 48 -2 80t-8 66t-18.5 55t-32.5 39t-50.5 26t-71.5 8q-56 0 -96.5 -14t-64.5 -37.5t-37.5 -62.5t-18 -80.5t-4.5 -99.5v-621h-229v1251
h-121z" />
    <glyph glyph-name="afii10109" unicode="&#x45c;" horiz-adv-x="976" 
d="M106 0v1145h228v-426h104l258 426h240l-328 -518l357 -627h-242l-283 516h-106v-516h-228zM371 1260l223 346h256l-281 -346h-198z" />
    <glyph glyph-name="afii10110" unicode="&#x45e;" horiz-adv-x="935" 
d="M135 -324v187h113q43 0 63 14.5t31 50.5l20 70l-350 1147h234l233 -819l232 819h225l-385 -1264q-37 -122 -105 -163.5t-200 -41.5h-111zM479 1249q-91 0 -153.5 20t-100 63t-57 97t-31.5 134l168 24q15 -87 51.5 -125.5t122.5 -38.5q85 0 122 39t50 125l170 -22
q-11 -81 -31 -136t-58 -97.5t-100 -62.5t-153 -20z" />
    <glyph glyph-name="afii10193" unicode="&#x45f;" horiz-adv-x="1124" 
d="M430 -340v340h-324v1145h230v-950h409v950h228v-1145h-324v-340h-219z" />
    <glyph glyph-name="afii10050" unicode="&#x490;" horiz-adv-x="1093" 
d="M131 0v1518h690v331h248v-549h-702v-1300h-236z" />
    <glyph glyph-name="afii10098" unicode="&#x491;" horiz-adv-x="854" 
d="M106 0v1145h523v340h192v-543h-510v-942h-205z" />
    <glyph glyph-name="Wgrave" unicode="&#x1e80;" horiz-adv-x="1787" 
d="M406 -10l-355 1528h242l246 -1078l258 1078h209l260 -1078l245 1078h226l-353 -1528h-233l-256 1048l-256 -1048h-233zM823 1602l-282 346h258l225 -346h-201z" />
    <glyph glyph-name="wgrave" unicode="&#x1e81;" horiz-adv-x="1492" 
d="M324 -8l-299 1153h231l188 -789l203 789h211l201 -780l190 780h219l-297 -1153h-219l-204 766l-203 -766h-221zM680 1260l-283 346h258l226 -346h-201z" />
    <glyph glyph-name="Wacute" unicode="&#x1e82;" horiz-adv-x="1787" 
d="M774 1602l223 346h256l-280 -346h-199zM406 -10l-355 1528h242l246 -1078l258 1078h209l260 -1078l245 1078h226l-353 -1528h-233l-256 1048l-256 -1048h-233z" />
    <glyph glyph-name="wacute" unicode="&#x1e83;" horiz-adv-x="1492" 
d="M635 1260l223 346h256l-280 -346h-199zM324 -8l-299 1153h231l188 -789l203 789h211l201 -780l190 780h219l-297 -1153h-219l-204 766l-203 -766h-221z" />
    <glyph glyph-name="Wdieresis" unicode="&#x1e84;" horiz-adv-x="1787" 
d="M604 1602v235h205v-235h-205zM979 1602v235h205v-235h-205zM406 -10l-355 1528h242l246 -1078l258 1078h209l260 -1078l245 1078h226l-353 -1528h-233l-256 1048l-256 -1048h-233z" />
    <glyph glyph-name="wdieresis" unicode="&#x1e85;" horiz-adv-x="1492" 
d="M461 1260v235h205v-235h-205zM836 1260v235h204v-235h-204zM324 -8l-299 1153h231l188 -789l203 789h211l201 -780l190 780h219l-297 -1153h-219l-204 766l-203 -766h-221z" />
    <glyph glyph-name="uni1EA0" unicode="&#x1ea0;" horiz-adv-x="1263" 
d="M37 0l469 1528h252l469 -1528h-244l-86 289h-541l-84 -289h-235zM416 504h422l-209 696zM514 -379v246h231v-246h-231z" />
    <glyph glyph-name="uni1EA1" unicode="&#x1ea1;" horiz-adv-x="1067" 
d="M408 -12q-99 0 -168 24.5t-107.5 73t-55 111t-16.5 147.5q0 122 35 204t110.5 129.5t181 67t261.5 19.5h45q-3 104 -42 149t-144 45q-163 0 -285 -61l-94 186q155 84 403 84q115 0 190 -22t118.5 -73t60.5 -122.5t17 -181.5v-463q0 -66 14 -85t72 -19v-201q-23 -2 -66 -2
q-97 0 -144 21t-65 81q-47 -61 -124 -86.5t-197 -25.5zM457 178q111 0 174 58t63 204v140h-43q-86 0 -141.5 -4.5t-103 -17t-73 -36.5t-39 -61t-13.5 -92q0 -106 42 -148.5t134 -42.5zM399 -379v246h232v-246h-232z" />
    <glyph glyph-name="uni1EA2" unicode="&#x1ea2;" horiz-adv-x="1263" 
d="M37 0l469 1528h252l469 -1528h-244l-86 289h-541l-84 -289h-235zM416 504h422l-209 696zM555 1583q-9 72 10 115.5t86 103.5q43 39 57.5 58.5t14.5 42.5q0 27 -23.5 47t-68.5 20q-70 0 -154 -43l-69 133q94 54 233 54q122 0 184 -52t62 -135q0 -61 -23 -101.5t-71 -82.5
q-54 -51 -71 -80.5t-17 -79.5h-150z" />
    <glyph glyph-name="uni1EA3" unicode="&#x1ea3;" horiz-adv-x="1067" 
d="M408 -12q-99 0 -168 24.5t-107.5 73t-55 111t-16.5 147.5q0 122 35 204t110.5 129.5t181 67t261.5 19.5h45q-3 104 -42 149t-144 45q-163 0 -285 -61l-94 186q155 84 403 84q115 0 190 -22t118.5 -73t60.5 -122.5t17 -181.5v-463q0 -66 14 -85t72 -19v-201q-23 -2 -66 -2
q-97 0 -144 21t-65 81q-47 -61 -124 -86.5t-197 -25.5zM457 178q111 0 174 58t63 204v140h-43q-86 0 -141.5 -4.5t-103 -17t-73 -36.5t-39 -61t-13.5 -92q0 -106 42 -148.5t134 -42.5zM446 1243q-9 72 10.5 115.5t86.5 103.5q43 40 57 59t14 42q0 27 -23 47t-69 20
q-69 0 -153 -43l-70 133q94 54 233 54q122 0 184 -52t62 -135q0 -61 -23 -101.5t-71 -82.5q-54 -51 -71 -80.5t-17 -79.5h-150z" />
    <glyph glyph-name="uni1EA4" unicode="&#x1ea4;" horiz-adv-x="1263" 
d="M37 0l469 1528h252l469 -1528h-244l-86 289h-541l-84 -289h-235zM416 504h422l-209 696zM295 1602l225 346h217l226 -346h-187l-151 186l-148 -186h-182zM35 1788l225 348h256l-283 -348h-198z" />
    <glyph glyph-name="uni1EA5" unicode="&#x1ea5;" horiz-adv-x="1067" 
d="M408 -12q-99 0 -168 24.5t-107.5 73t-55 111t-16.5 147.5q0 122 35 204t110.5 129.5t181 67t261.5 19.5h45q-3 104 -42 149t-144 45q-163 0 -285 -61l-94 186q155 84 403 84q115 0 190 -22t118.5 -73t60.5 -122.5t17 -181.5v-463q0 -66 14 -85t72 -19v-201q-23 -2 -66 -2
q-97 0 -144 21t-65 81q-47 -61 -124 -86.5t-197 -25.5zM457 178q111 0 174 58t63 204v140h-43q-86 0 -141.5 -4.5t-103 -17t-73 -36.5t-39 -61t-13.5 -92q0 -106 42 -148.5t134 -42.5zM201 1260l225 346h217l225 -346h-186l-152 186l-147 -186h-182zM-59 1446l225 348h256
l-283 -348h-198z" />
    <glyph glyph-name="uni1EA6" unicode="&#x1ea6;" horiz-adv-x="1263" 
d="M37 0l469 1528h252l469 -1528h-244l-86 289h-541l-84 -289h-235zM416 504h422l-209 696zM295 1602l227 346h215l226 -346h-187l-149 186l-150 -186h-182zM1026 1788l-283 348h256l228 -348h-201z" />
    <glyph glyph-name="uni1EA7" unicode="&#x1ea7;" horiz-adv-x="1067" 
d="M408 -12q-99 0 -168 24.5t-107.5 73t-55 111t-16.5 147.5q0 122 35 204t110.5 129.5t181 67t261.5 19.5h45q-3 104 -42 149t-144 45q-163 0 -285 -61l-94 186q155 84 403 84q115 0 190 -22t118.5 -73t60.5 -122.5t17 -181.5v-463q0 -66 14 -85t72 -19v-201q-23 -2 -66 -2
q-97 0 -144 21t-65 81q-47 -61 -124 -86.5t-197 -25.5zM457 178q111 0 174 58t63 204v140h-43q-86 0 -141.5 -4.5t-103 -17t-73 -36.5t-39 -61t-13.5 -92q0 -106 42 -148.5t134 -42.5zM199 1260l227 346h215l225 -346h-186l-150 186l-149 -186h-182zM930 1446l-283 348h256
l227 -348h-200z" />
    <glyph glyph-name="uni1EA8" unicode="&#x1ea8;" horiz-adv-x="1263" 
d="M37 0l469 1528h252l469 -1528h-244l-86 289h-541l-84 -289h-235zM416 504h422l-209 696zM295 1602l227 346h215l228 -346h-189l-147 186l-150 -186h-184zM555 1999q-9 71 10 114t88 103q43 37 56.5 57t13.5 45q0 27 -22 45.5t-70 18.5q-72 0 -152 -41l-69 133
q101 53 233 53q122 0 184 -51.5t62 -134.5q0 -62 -22.5 -102t-71.5 -82q-53 -50 -70.5 -80t-17.5 -78h-152z" />
    <glyph glyph-name="uni1EA9" unicode="&#x1ea9;" horiz-adv-x="1067" 
d="M408 -12q-99 0 -168 24.5t-107.5 73t-55 111t-16.5 147.5q0 122 35 204t110.5 129.5t181 67t261.5 19.5h45q-3 104 -42 149t-144 45q-163 0 -285 -61l-94 186q155 84 403 84q115 0 190 -22t118.5 -73t60.5 -122.5t17 -181.5v-463q0 -66 14 -85t72 -19v-201q-23 -2 -66 -2
q-97 0 -144 21t-65 81q-47 -61 -124 -86.5t-197 -25.5zM457 178q111 0 174 58t63 204v140h-43q-86 0 -141.5 -4.5t-103 -17t-73 -36.5t-39 -61t-13.5 -92q0 -106 42 -148.5t134 -42.5zM197 1260l227 346h215l227 -346h-188l-148 186l-149 -186h-184zM457 1657
q-10 71 9.5 114t88.5 103q42 38 56 57.5t14 44.5q0 27 -22.5 45.5t-70.5 18.5q-71 0 -151 -41l-70 133q103 53 234 53q122 0 184 -51.5t62 -134.5q0 -62 -22.5 -102t-72.5 -82q-53 -51 -70.5 -80.5t-17.5 -77.5h-151z" />
    <glyph glyph-name="uni1EAA" unicode="&#x1eaa;" horiz-adv-x="1263" 
d="M37 0l469 1528h252l469 -1528h-244l-86 289h-541l-84 -289h-235zM416 504h422l-209 696zM297 1602l225 346h215l228 -346h-187l-151 186l-148 -186h-182zM406 1997l-150 86q48 96 108.5 142t141.5 46q45 0 91 -21t84 -42t64 -21q33 0 61 22t60 70l150 -84
q-50 -97 -110 -143.5t-140 -46.5q-46 0 -92.5 20.5t-84.5 41t-63 20.5q-61 0 -120 -90z" />
    <glyph glyph-name="uni1EAB" unicode="&#x1eab;" horiz-adv-x="1067" 
d="M408 -12q-99 0 -168 24.5t-107.5 73t-55 111t-16.5 147.5q0 122 35 204t110.5 129.5t181 67t261.5 19.5h45q-3 104 -42 149t-144 45q-163 0 -285 -61l-94 186q155 84 403 84q115 0 190 -22t118.5 -73t60.5 -122.5t17 -181.5v-463q0 -66 14 -85t72 -19v-201q-23 -2 -66 -2
q-97 0 -144 21t-65 81q-47 -61 -124 -86.5t-197 -25.5zM457 178q111 0 174 58t63 204v140h-43q-86 0 -141.5 -4.5t-103 -17t-73 -36.5t-39 -61t-13.5 -92q0 -106 42 -148.5t134 -42.5zM199 1260l225 346h215l227 -346h-186l-152 186l-147 -186h-182zM307 1655l-149 86
q48 96 108.5 142t141.5 46q45 0 91 -21t84 -42t64 -21q33 0 61 22t60 70l150 -84q-50 -97 -110 -143.5t-140 -46.5q-46 0 -93 20.5t-85 41t-62 20.5q-61 0 -121 -90z" />
    <glyph glyph-name="uni1EAC" unicode="&#x1eac;" horiz-adv-x="1263" 
d="M37 0l469 1528h252l469 -1528h-244l-86 289h-541l-84 -289h-235zM416 504h422l-209 696zM295 1602l227 346h215l228 -346h-189l-149 186l-150 -186h-182zM532 -379v246h232v-246h-232z" />
    <glyph glyph-name="uni1EAD" unicode="&#x1ead;" horiz-adv-x="1067" 
d="M408 -12q-99 0 -168 24.5t-107.5 73t-55 111t-16.5 147.5q0 122 35 204t110.5 129.5t181 67t261.5 19.5h45q-3 104 -42 149t-144 45q-163 0 -285 -61l-94 186q155 84 403 84q115 0 190 -22t118.5 -73t60.5 -122.5t17 -181.5v-463q0 -66 14 -85t72 -19v-201q-23 -2 -66 -2
q-97 0 -144 21t-65 81q-47 -61 -124 -86.5t-197 -25.5zM457 178q111 0 174 58t63 204v140h-43q-86 0 -141.5 -4.5t-103 -17t-73 -36.5t-39 -61t-13.5 -92q0 -106 42 -148.5t134 -42.5zM199 1260l227 346h215l227 -346h-188l-150 186l-149 -186h-182zM412 -379v246h231v-246
h-231z" />
    <glyph glyph-name="uni1EAE" unicode="&#x1eae;" horiz-adv-x="1263" 
d="M37 0l469 1528h252l469 -1528h-244l-86 289h-541l-84 -289h-235zM416 504h422l-209 696zM629 1591q-91 0 -154 20t-101 63t-57.5 97t-29.5 134l168 24q14 -87 51 -125.5t123 -38.5q85 0 121.5 39t50.5 125l170 -22q-12 -82 -32 -136t-58 -97t-100 -63t-152 -20zM528 2003
l228 346h256l-283 -346h-201z" />
    <glyph glyph-name="uni1EAF" unicode="&#x1eaf;" horiz-adv-x="1067" 
d="M408 -12q-99 0 -168 24.5t-107.5 73t-55 111t-16.5 147.5q0 122 35 204t110.5 129.5t181 67t261.5 19.5h45q-3 104 -42 149t-144 45q-163 0 -285 -61l-94 186q155 84 403 84q115 0 190 -22t118.5 -73t60.5 -122.5t17 -181.5v-463q0 -66 14 -85t72 -19v-201q-23 -2 -66 -2
q-97 0 -144 21t-65 81q-47 -61 -124 -86.5t-197 -25.5zM457 178q111 0 174 58t63 204v140h-43q-86 0 -141.5 -4.5t-103 -17t-73 -36.5t-39 -61t-13.5 -92q0 -106 42 -148.5t134 -42.5zM532 1249q-91 0 -153.5 20t-100.5 63t-57.5 97t-30.5 134l168 24q15 -87 52 -125.5
t122 -38.5t122 39t51 125l169 -22q-12 -82 -32 -136t-57.5 -97t-99.5 -63t-153 -20zM432 1661l227 346h256l-282 -346h-201z" />
    <glyph glyph-name="uni1EB0" unicode="&#x1eb0;" horiz-adv-x="1263" 
d="M37 0l469 1528h252l469 -1528h-244l-86 289h-541l-84 -289h-235zM416 504h422l-209 696zM629 1591q-91 0 -154 20t-101 63t-57.5 97t-29.5 134l168 24q14 -87 51 -125.5t123 -38.5t121.5 38t52.5 126l168 -22q-9 -65 -23 -111.5t-39 -87t-62 -65t-91 -38.5t-127 -14z
M530 2003l-282 346h256l225 -346h-199z" />
    <glyph glyph-name="uni1EB1" unicode="&#x1eb1;" horiz-adv-x="1067" 
d="M408 -12q-99 0 -168 24.5t-107.5 73t-55 111t-16.5 147.5q0 122 35 204t110.5 129.5t181 67t261.5 19.5h45q-3 104 -42 149t-144 45q-163 0 -285 -61l-94 186q155 84 403 84q115 0 190 -22t118.5 -73t60.5 -122.5t17 -181.5v-463q0 -66 14 -85t72 -19v-201q-23 -2 -66 -2
q-97 0 -144 21t-65 81q-47 -61 -124 -86.5t-197 -25.5zM457 178q111 0 174 58t63 204v140h-43q-86 0 -141.5 -4.5t-103 -17t-73 -36.5t-39 -61t-13.5 -92q0 -106 42 -148.5t134 -42.5zM530 1249q-91 0 -153.5 20t-100.5 63t-57.5 97t-30.5 134l168 24q15 -87 52 -125.5
t122 -38.5q86 0 122 38t53 126l167 -22q-11 -81 -31 -136t-58 -97.5t-100 -62.5t-153 -20zM432 1661l-282 346h256l225 -346h-199z" />
    <glyph glyph-name="uni1EB2" unicode="&#x1eb2;" horiz-adv-x="1263" 
d="M37 0l469 1528h252l469 -1528h-244l-86 289h-541l-84 -289h-235zM416 504h422l-209 696zM629 1591q-91 0 -154 20t-101 63t-57.5 97t-29.5 134l166 24q16 -87 53 -125.5t123 -38.5t121.5 38t52.5 126l168 -22q-12 -82 -31.5 -136t-57 -97t-100 -63t-153.5 -20zM553 1980
q-9 72 10 115t88 103q43 39 56.5 58t13.5 44q0 28 -22 46.5t-70 18.5q-75 0 -152 -43l-69 136q97 51 233 51q122 0 184 -52t62 -135q0 -61 -23 -101.5t-71 -82.5q-52 -47 -70.5 -77.5t-20.5 -80.5h-149z" />
    <glyph glyph-name="uni1EB3" unicode="&#x1eb3;" horiz-adv-x="1067" 
d="M408 -12q-99 0 -168 24.5t-107.5 73t-55 111t-16.5 147.5q0 122 35 204t110.5 129.5t181 67t261.5 19.5h45q-3 104 -42 149t-144 45q-163 0 -285 -61l-94 186q155 84 403 84q115 0 190 -22t118.5 -73t60.5 -122.5t17 -181.5v-463q0 -66 14 -85t72 -19v-201q-23 -2 -66 -2
q-97 0 -144 21t-65 81q-47 -61 -124 -86.5t-197 -25.5zM457 178q111 0 174 58t63 204v140h-43q-86 0 -141.5 -4.5t-103 -17t-73 -36.5t-39 -61t-13.5 -92q0 -106 42 -148.5t134 -42.5zM535 1249q-91 0 -154 20t-101 63t-57.5 97t-29.5 134l165 24q17 -87 54 -125.5
t123 -38.5q85 0 121 38t53 126l168 -22q-12 -82 -31.5 -136t-57.5 -97t-100 -63t-153 -20zM459 1638q-10 71 9.5 114.5t88.5 102.5q43 40 56.5 59t13.5 44q0 28 -22 46.5t-70 18.5q-75 0 -152 -43l-70 136q99 51 234 51q122 0 184 -52t62 -135q0 -61 -23 -101.5t-72 -82.5
q-52 -48 -70.5 -78.5t-19.5 -79.5h-149z" />
    <glyph glyph-name="uni1EB4" unicode="&#x1eb4;" horiz-adv-x="1263" 
d="M37 0l469 1528h252l469 -1528h-244l-86 289h-541l-84 -289h-235zM416 504h422l-209 696zM629 1591q-91 0 -154 20t-101 63t-57.5 97t-29.5 134l166 24q16 -87 53 -125.5t123 -38.5t121.5 38t52.5 126l168 -22q-12 -82 -31.5 -136t-57 -97t-100 -63t-153.5 -20zM399 1999
l-149 86q90 188 248 188q45 0 91.5 -21.5t84.5 -43t63 -21.5q33 0 59.5 22t61.5 72l150 -86q-49 -97 -109 -143.5t-141 -46.5q-45 0 -91.5 21t-84.5 42t-64 21q-33 0 -60 -21.5t-59 -68.5z" />
    <glyph glyph-name="uni1EB5" unicode="&#x1eb5;" horiz-adv-x="1067" 
d="M408 -12q-99 0 -168 24.5t-107.5 73t-55 111t-16.5 147.5q0 122 35 204t110.5 129.5t181 67t261.5 19.5h45q-3 104 -42 149t-144 45q-163 0 -285 -61l-94 186q155 84 403 84q115 0 190 -22t118.5 -73t60.5 -122.5t17 -181.5v-463q0 -66 14 -85t72 -19v-201q-23 -2 -66 -2
q-97 0 -144 21t-65 81q-47 -61 -124 -86.5t-197 -25.5zM457 178q111 0 174 58t63 204v140h-43q-86 0 -141.5 -4.5t-103 -17t-73 -36.5t-39 -61t-13.5 -92q0 -106 42 -148.5t134 -42.5zM535 1249q-91 0 -154 20t-101 63t-57.5 97t-29.5 134l165 24q17 -87 54 -125.5
t123 -38.5q85 0 121 38t53 126l168 -22q-12 -82 -31.5 -136t-57.5 -97t-100 -63t-153 -20zM305 1657l-149 86q90 188 247 188q46 0 92.5 -21.5t84.5 -43t63 -21.5q33 0 59.5 22t61.5 72l149 -86q-48 -97 -108 -143.5t-141 -46.5q-45 0 -91.5 21t-85 42t-63.5 21
q-33 0 -60 -21.5t-59 -68.5z" />
    <glyph glyph-name="uni1EB6" unicode="&#x1eb6;" horiz-adv-x="1263" 
d="M37 0l469 1528h252l469 -1528h-244l-86 289h-541l-84 -289h-235zM416 504h422l-209 696zM532 -379v246h232v-246h-232zM629 1591q-91 0 -153.5 20t-100.5 63t-57.5 97t-30.5 134l168 24q14 -87 51 -125.5t123 -38.5q85 0 121.5 39t50.5 125l170 -22q-9 -65 -23 -111.5
t-39 -87t-62 -65t-91 -38.5t-127 -14z" />
    <glyph glyph-name="uni1EB7" unicode="&#x1eb7;" horiz-adv-x="1067" 
d="M408 -12q-99 0 -168 24.5t-107.5 73t-55 111t-16.5 147.5q0 122 35 204t110.5 129.5t181 67t261.5 19.5h45q-3 104 -42 149t-144 45q-163 0 -285 -61l-94 186q155 84 403 84q115 0 190 -22t118.5 -73t60.5 -122.5t17 -181.5v-463q0 -66 14 -85t72 -19v-201q-23 -2 -66 -2
q-97 0 -144 21t-65 81q-47 -61 -124 -86.5t-197 -25.5zM457 178q111 0 174 58t63 204v140h-43q-86 0 -141.5 -4.5t-103 -17t-73 -36.5t-39 -61t-13.5 -92q0 -106 42 -148.5t134 -42.5zM410 -379v246h231v-246h-231zM532 1249q-91 0 -153 20t-100 63t-57.5 97t-31.5 134
l168 24q15 -87 52 -125.5t122 -38.5t122 39t51 125l169 -22q-11 -81 -31 -136t-58 -97.5t-100 -62.5t-153 -20z" />
    <glyph glyph-name="uni1EB8" unicode="&#x1eb8;" horiz-adv-x="1087" 
d="M129 0v1518h866v-218h-635v-409h605v-217h-605v-461h639v-213h-870zM461 -379v246h231v-246h-231z" />
    <glyph glyph-name="uni1EB9" unicode="&#x1eb9;" horiz-adv-x="1003" 
d="M524 -14q-95 0 -167.5 18t-122.5 54.5t-83.5 85t-51.5 118t-25.5 143t-7.5 170.5q0 113 12.5 199.5t44 162.5t83.5 124.5t133 76t191 27.5q86 0 151 -15.5t108.5 -45.5t72.5 -74.5t44 -102.5t22.5 -129t7.5 -154.5v-178.5h-649q8 -151 60 -217t190 -66q69 0 128.5 11.5
t90 23.5t73.5 33l89 -176q-164 -88 -394 -88zM524 963q-68 0 -113.5 -19t-71.5 -59t-37.5 -91.5t-14.5 -127.5h438q0 37 -1 59.5t-3 52.5t-6 48t-11 40t-17.5 34.5t-25 26.5t-34.5 20.5t-45.5 11t-57.5 4.5zM410 -379v246h231v-246h-231z" />
    <glyph glyph-name="uni1EBA" unicode="&#x1eba;" horiz-adv-x="1087" 
d="M129 0v1518h866v-218h-635v-409h605v-217h-605v-461h639v-213h-870zM492 1583q-10 72 9 115.5t87 103.5q43 40 57 59t14 42q0 27 -23 47t-69 20q-69 0 -153 -43l-70 133q96 54 234 54q122 0 183.5 -52t61.5 -135q0 -61 -23 -101.5t-71 -82.5q-54 -51 -71 -80.5t-17 -79.5
h-149z" />
    <glyph glyph-name="uni1EBB" unicode="&#x1ebb;" horiz-adv-x="1003" 
d="M524 -14q-95 0 -167.5 18t-122.5 54.5t-83.5 85t-51.5 118t-25.5 143t-7.5 170.5q0 113 12.5 199.5t44 162.5t83.5 124.5t133 76t191 27.5q86 0 151 -15.5t108.5 -45.5t72.5 -74.5t44 -102.5t22.5 -129t7.5 -154.5v-178.5h-649q8 -151 60 -217t190 -66q69 0 128.5 11.5
t90 23.5t73.5 33l89 -176q-164 -88 -394 -88zM524 963q-68 0 -113.5 -19t-71.5 -59t-37.5 -91.5t-14.5 -127.5h438q0 37 -1 59.5t-3 52.5t-6 48t-11 40t-17.5 34.5t-25 26.5t-34.5 20.5t-45.5 11t-57.5 4.5zM436 1243q-9 72 10 115.5t86 103.5q43 39 57.5 58.5t14.5 42.5
q0 27 -23 47t-69 20q-70 0 -154 -43l-69 133q94 54 233 54q122 0 184 -52t62 -135q0 -61 -23 -101.5t-71 -82.5q-54 -51 -71 -80.5t-17 -79.5h-150z" />
    <glyph glyph-name="uni1EBC" unicode="&#x1ebc;" horiz-adv-x="1087" 
d="M129 0v1518h866v-218h-635v-409h605v-217h-605v-461h639v-213h-870zM338 1622l-150 84q48 96 109 142t141 46q45 0 91 -21.5t84.5 -43t64.5 -21.5q32 0 59.5 23t61.5 74l147 -86q-48 -97 -108 -145t-140 -48q-45 0 -92 21t-85.5 42t-63.5 21q-60 0 -119 -88z" />
    <glyph glyph-name="uni1EBD" unicode="&#x1ebd;" horiz-adv-x="1003" 
d="M524 -14q-95 0 -167.5 18t-122.5 54.5t-83.5 85t-51.5 118t-25.5 143t-7.5 170.5q0 113 12.5 199.5t44 162.5t83.5 124.5t133 76t191 27.5q86 0 151 -15.5t108.5 -45.5t72.5 -74.5t44 -102.5t22.5 -129t7.5 -154.5v-178.5h-649q8 -151 60 -217t190 -66q69 0 128.5 11.5
t90 23.5t73.5 33l89 -176q-164 -88 -394 -88zM524 963q-68 0 -113.5 -19t-71.5 -59t-37.5 -91.5t-14.5 -127.5h438q0 37 -1 59.5t-3 52.5t-6 48t-11 40t-17.5 34.5t-25 26.5t-34.5 20.5t-45.5 11t-57.5 4.5zM285 1253l-150 84q49 96 109 142.5t141 46.5q44 0 90 -21.5
t85 -43t65 -21.5q32 0 58.5 22.5t61.5 73.5l148 -86q-49 -98 -108.5 -145.5t-139.5 -47.5q-45 0 -92 21t-86 42t-64 21q-60 0 -118 -88z" />
    <glyph glyph-name="uni1EBE" unicode="&#x1ebe;" horiz-adv-x="1087" 
d="M219 1602l225 346h218l225 -346h-187l-151 186l-148 -186h-182zM-41 1788l225 348h256l-282 -348h-199zM129 0v1518h866v-218h-635v-409h605v-217h-605v-461h639v-213h-870z" />
    <glyph glyph-name="uni1EBF" unicode="&#x1ebf;" horiz-adv-x="1003" 
d="M168 1260l225 346h217l226 -346h-187l-151 186l-148 -186h-182zM-92 1446l225 348h256l-283 -348h-198zM524 -14q-95 0 -167.5 18t-122.5 54.5t-83.5 85t-51.5 118t-25.5 143t-7.5 170.5q0 113 12.5 199.5t44 162.5t83.5 124.5t133 76t191 27.5q86 0 151 -15.5
t108.5 -45.5t72.5 -74.5t44 -102.5t22.5 -129t7.5 -154.5v-178.5h-649q8 -151 60 -217t190 -66q69 0 128.5 11.5t90 23.5t73.5 33l89 -176q-164 -88 -394 -88zM524 963q-68 0 -113.5 -19t-71.5 -59t-37.5 -91.5t-14.5 -127.5h438q0 37 -1 59.5t-3 52.5t-6 48t-11 40
t-17.5 34.5t-25 26.5t-34.5 20.5t-45.5 11t-57.5 4.5z" />
    <glyph glyph-name="uni1EC0" unicode="&#x1ec0;" horiz-adv-x="1087" 
d="M219 1602l227 346h216l225 -346h-187l-149 186l-150 -186h-182zM950 1788l-282 348h256l227 -348h-201zM129 0v1518h866v-218h-635v-409h605v-217h-605v-461h639v-213h-870z" />
    <glyph glyph-name="uni1EC1" unicode="&#x1ec1;" horiz-adv-x="1003" 
d="M166 1260l227 346h215l226 -346h-187l-149 186l-150 -186h-182zM897 1446l-283 348h256l228 -348h-201zM524 -14q-95 0 -167.5 18t-122.5 54.5t-83.5 85t-51.5 118t-25.5 143t-7.5 170.5q0 113 12.5 199.5t44 162.5t83.5 124.5t133 76t191 27.5q86 0 151 -15.5
t108.5 -45.5t72.5 -74.5t44 -102.5t22.5 -129t7.5 -154.5v-178.5h-649q8 -151 60 -217t190 -66q69 0 128.5 11.5t90 23.5t73.5 33l89 -176q-164 -88 -394 -88zM524 963q-68 0 -113.5 -19t-71.5 -59t-37.5 -91.5t-14.5 -127.5h438q0 37 -1 59.5t-3 52.5t-6 48t-11 40
t-17.5 34.5t-25 26.5t-34.5 20.5t-45.5 11t-57.5 4.5z" />
    <glyph glyph-name="uni1EC2" unicode="&#x1ec2;" horiz-adv-x="1087" 
d="M129 0v1518h866v-218h-635v-409h605v-217h-605v-461h639v-213h-870zM219 1602l227 346h216l227 -346h-189l-147 186l-150 -186h-184zM479 1999q-9 71 10.5 114t88.5 103q42 37 55.5 57t13.5 45q0 27 -22 45.5t-70 18.5q-70 0 -152 -41l-69 133q101 53 233 53
q122 0 184 -51.5t62 -134.5q0 -62 -22.5 -102t-71.5 -82q-53 -50 -70.5 -80t-17.5 -78h-152z" />
    <glyph glyph-name="uni1EC3" unicode="&#x1ec3;" horiz-adv-x="1003" 
d="M524 -14q-95 0 -167.5 18t-122.5 54.5t-83.5 85t-51.5 118t-25.5 143t-7.5 170.5q0 113 12.5 199.5t44 162.5t83.5 124.5t133 76t191 27.5q86 0 151 -15.5t108.5 -45.5t72.5 -74.5t44 -102.5t22.5 -129t7.5 -154.5v-178.5h-649q8 -151 60 -217t190 -66q69 0 128.5 11.5
t90 23.5t73.5 33l89 -176q-164 -88 -394 -88zM524 963q-68 0 -113.5 -19t-71.5 -59t-37.5 -91.5t-14.5 -127.5h438q0 37 -1 59.5t-3 52.5t-6 48t-11 40t-17.5 34.5t-25 26.5t-34.5 20.5t-45.5 11t-57.5 4.5zM166 1260l227 346h215l228 -346h-189l-147 186l-150 -186h-184z
M426 1657q-9 71 10 114t88 103q43 37 56.5 57t13.5 45q0 27 -22 45.5t-70 18.5q-72 0 -152 -41l-69 133q101 53 233 53q122 0 184 -51.5t62 -134.5q0 -62 -22.5 -102t-71.5 -82q-53 -50 -70.5 -80t-17.5 -78h-152z" />
    <glyph glyph-name="uni1EC4" unicode="&#x1ec4;" horiz-adv-x="1087" 
d="M129 0v1518h866v-218h-635v-409h605v-217h-605v-461h639v-213h-870zM221 1602l225 346h216l227 -346h-187l-151 186l-148 -186h-182zM330 1997l-150 86q48 96 109 142t141 46q46 0 92 -21t84 -42t64 -21q33 0 61 22t60 70l149 -84q-51 -97 -110.5 -143.5t-139.5 -46.5
q-45 0 -92 20.5t-85 41t-62 20.5q-61 0 -121 -90z" />
    <glyph glyph-name="uni1EC5" unicode="&#x1ec5;" horiz-adv-x="1003" 
d="M524 -14q-95 0 -167.5 18t-122.5 54.5t-83.5 85t-51.5 118t-25.5 143t-7.5 170.5q0 113 12.5 199.5t44 162.5t83.5 124.5t133 76t191 27.5q86 0 151 -15.5t108.5 -45.5t72.5 -74.5t44 -102.5t22.5 -129t7.5 -154.5v-178.5h-649q8 -151 60 -217t190 -66q69 0 128.5 11.5
t90 23.5t73.5 33l89 -176q-164 -88 -394 -88zM524 963q-68 0 -113.5 -19t-71.5 -59t-37.5 -91.5t-14.5 -127.5h438q0 37 -1 59.5t-3 52.5t-6 48t-11 40t-17.5 34.5t-25 26.5t-34.5 20.5t-45.5 11t-57.5 4.5zM166 1260l225 346h215l228 -346h-187l-151 186l-148 -186h-182z
M274 1655l-149 86q48 96 108.5 142t141.5 46q45 0 91 -21t84 -42t64 -21q33 0 61 22t60 70l150 -84q-50 -97 -110 -143.5t-140 -46.5q-46 0 -92.5 20.5t-84.5 41t-63 20.5q-61 0 -121 -90z" />
    <glyph glyph-name="uni1EC6" unicode="&#x1ec6;" horiz-adv-x="1087" 
d="M219 1602l227 346h216l227 -346h-189l-149 186l-150 -186h-182zM129 0v1518h866v-218h-635v-409h605v-217h-605v-461h639v-213h-870zM461 -379v246h231v-246h-231z" />
    <glyph glyph-name="uni1EC7" unicode="&#x1ec7;" horiz-adv-x="1003" 
d="M166 1260l227 346h215l228 -346h-189l-149 186l-150 -186h-182zM524 -14q-95 0 -167.5 18t-122.5 54.5t-83.5 85t-51.5 118t-25.5 143t-7.5 170.5q0 113 12.5 199.5t44 162.5t83.5 124.5t133 76t191 27.5q86 0 151 -15.5t108.5 -45.5t72.5 -74.5t44 -102.5t22.5 -129
t7.5 -154.5v-178.5h-649q8 -151 60 -217t190 -66q69 0 128.5 11.5t90 23.5t73.5 33l89 -176q-164 -88 -394 -88zM524 963q-68 0 -113.5 -19t-71.5 -59t-37.5 -91.5t-14.5 -127.5h438q0 37 -1 59.5t-3 52.5t-6 48t-11 40t-17.5 34.5t-25 26.5t-34.5 20.5t-45.5 11t-57.5 4.5z
M410 -379v246h231v-246h-231z" />
    <glyph glyph-name="uni1EC8" unicode="&#x1ec8;" horiz-adv-x="524" 
d="M143 0v1518h238v-1518h-238zM190 1583q-9 72 10.5 115.5t86.5 103.5q43 40 57 59t14 42q0 27 -23 47t-69 20q-69 0 -153 -43l-70 133q94 54 233 54q122 0 184 -52t62 -135q0 -61 -23 -101.5t-71 -82.5q-54 -51 -71 -80.5t-17 -79.5h-150z" />
    <glyph glyph-name="uni1EC9" unicode="&#x1ec9;" horiz-adv-x="464" 
d="M117 0v1145h229v-1145h-229zM158 1243q-10 72 9 115.5t87 103.5q44 40 58 59t14 42q0 27 -23.5 47t-69.5 20q-69 0 -153 -43l-70 133q96 54 234 54q122 0 183.5 -52t61.5 -135q0 -61 -22.5 -102t-71.5 -82q-54 -51 -71 -80.5t-17 -79.5h-149z" />
    <glyph glyph-name="uni1ECA" unicode="&#x1eca;" horiz-adv-x="524" 
d="M143 0v1518h238v-1518h-238zM150 -379v246h231v-246h-231z" />
    <glyph glyph-name="uni1ECB" unicode="&#x1ecb;" horiz-adv-x="464" 
d="M117 0v1145h229v-1145h-229zM117 1272v248h231v-248h-231zM119 -379v246h231v-246h-231z" />
    <glyph glyph-name="uni1ECC" unicode="&#x1ecc;" horiz-adv-x="1312" 
d="M657 -16q-110 0 -197.5 21.5t-149 58t-106.5 94t-72 119.5t-42.5 145t-21 160.5t-5.5 175.5t5.5 175.5t21 160.5t42.5 145.5t72 120t106.5 94.5t149.5 58.5t197 21.5t196.5 -21.5t149 -58.5t106.5 -94.5t71.5 -120t42 -145.5t21 -160.5t5.5 -175.5t-5.5 -175.5
t-21 -160.5t-42 -145t-71.5 -119.5t-106.5 -94t-149 -58t-196.5 -21.5zM657 195q67 0 119.5 14.5t89.5 38.5t63.5 64.5t42 83.5t24 104.5t11.5 118t3 133.5q0 76 -3 132.5t-11.5 117.5t-24 104t-42 83t-63.5 64.5t-89.5 39t-119.5 14.5t-120 -14.5t-90 -39t-63.5 -64.5
t-42 -83t-24 -104t-11.5 -117.5t-3 -132.5q0 -67 2 -117.5t8 -105.5t18 -96t29.5 -81t44.5 -67t62 -48.5t83 -31.5t107 -10zM541 -379v246h231v-246h-231z" />
    <glyph glyph-name="uni1ECD" unicode="&#x1ecd;" horiz-adv-x="1077" 
d="M539 -16q-114 0 -198.5 29t-136.5 78t-83.5 126t-43 162t-11.5 196t11 194.5t42 161t83 127t136.5 78.5t200.5 29t201 -29.5t136.5 -79.5t82.5 -127.5t42 -160.5t11 -193q0 -113 -11 -197.5t-42 -162t-83 -126t-136.5 -77t-200.5 -28.5zM539 184q64 0 109 19.5t70.5 50
t39.5 83.5t18 103.5t4 126.5q0 77 -4 128t-18 103.5t-39.5 83t-70.5 49.5t-109 19t-108.5 -19t-70.5 -49.5t-40.5 -83t-18.5 -104t-4 -127.5q0 -53 2 -92t8 -81t17 -71.5t29 -57.5t43 -44.5t61 -26.5t82 -10zM420 -379v246h231v-246h-231z" />
    <glyph glyph-name="uni1ECE" unicode="&#x1ece;" horiz-adv-x="1312" 
d="M657 -16q-110 0 -197.5 21.5t-149 58t-106.5 94t-72 119.5t-42.5 145t-21 160.5t-5.5 175.5t5.5 175.5t21 160.5t42.5 145.5t72 120t106.5 94.5t149.5 58.5t197 21.5t196.5 -21.5t149 -58.5t106.5 -94.5t71.5 -120t42 -145.5t21 -160.5t5.5 -175.5t-5.5 -175.5
t-21 -160.5t-42 -145t-71.5 -119.5t-106.5 -94t-149 -58t-196.5 -21.5zM657 195q67 0 119.5 14.5t89.5 38.5t63.5 64.5t42 83.5t24 104.5t11.5 118t3 133.5q0 76 -3 132.5t-11.5 117.5t-24 104t-42 83t-63.5 64.5t-89.5 39t-119.5 14.5t-120 -14.5t-90 -39t-63.5 -64.5
t-42 -83t-24 -104t-11.5 -117.5t-3 -132.5q0 -67 2 -117.5t8 -105.5t18 -96t29.5 -81t44.5 -67t62 -48.5t83 -31.5t107 -10zM580 1602q-10 72 9 115.5t87 103.5q44 41 58 59t14 41q0 28 -23.5 48t-69.5 20q-65 0 -153 -43l-70 133q94 53 234 53q122 0 183.5 -51.5
t61.5 -134.5q0 -61 -22.5 -102.5t-71.5 -82.5q-53 -50 -70.5 -79.5t-17.5 -79.5h-149z" />
    <glyph glyph-name="uni1ECF" unicode="&#x1ecf;" horiz-adv-x="1077" 
d="M539 -16q-114 0 -198.5 29t-136.5 78t-83.5 126t-43 162t-11.5 196t11 194.5t42 161t83 127t136.5 78.5t200.5 29t201 -29.5t136.5 -79.5t82.5 -127.5t42 -160.5t11 -193q0 -113 -11 -197.5t-42 -162t-83 -126t-136.5 -77t-200.5 -28.5zM539 184q64 0 109 19.5t70.5 50
t39.5 83.5t18 103.5t4 126.5q0 77 -4 128t-18 103.5t-39.5 83t-70.5 49.5t-109 19t-108.5 -19t-70.5 -49.5t-40.5 -83t-18.5 -104t-4 -127.5q0 -53 2 -92t8 -81t17 -71.5t29 -57.5t43 -44.5t61 -26.5t82 -10zM461 1243q-9 72 10 115.5t86 103.5q44 40 58 59t14 42
q0 27 -23.5 47t-68.5 20q-70 0 -154 -43l-70 133q96 54 234 54q122 0 184 -52t62 -135q0 -61 -23 -101.5t-72 -82.5q-54 -51 -71 -80.5t-17 -79.5h-149z" />
    <glyph glyph-name="uni1ED0" unicode="&#x1ed0;" horiz-adv-x="1312" 
d="M322 1602l225 346h217l225 -346h-186l-152 186l-147 -186h-182zM61 1788l226 348h256l-283 -348h-199zM657 -16q-110 0 -197.5 21.5t-149 58t-106.5 94t-72 119.5t-42.5 145t-21 160.5t-5.5 175.5t5.5 175.5t21 160.5t42.5 145.5t72 120t106.5 94.5t149.5 58.5t197 21.5
t196.5 -21.5t149 -58.5t106.5 -94.5t71.5 -120t42 -145.5t21 -160.5t5.5 -175.5t-5.5 -175.5t-21 -160.5t-42 -145t-71.5 -119.5t-106.5 -94t-149 -58t-196.5 -21.5zM657 195q67 0 119.5 14.5t89.5 38.5t63.5 64.5t42 83.5t24 104.5t11.5 118t3 133.5q0 76 -3 132.5
t-11.5 117.5t-24 104t-42 83t-63.5 64.5t-89.5 39t-119.5 14.5t-120 -14.5t-90 -39t-63.5 -64.5t-42 -83t-24 -104t-11.5 -117.5t-3 -132.5q0 -67 2 -117.5t8 -105.5t18 -96t29.5 -81t44.5 -67t62 -48.5t83 -31.5t107 -10z" />
    <glyph glyph-name="uni1ED1" unicode="&#x1ed1;" horiz-adv-x="1077" 
d="M205 1260l225 346h217l225 -346h-186l-151 186l-148 -186h-182zM-55 1446l225 348h256l-283 -348h-198zM539 -16q-114 0 -198.5 29t-136.5 78t-83.5 126t-43 162t-11.5 196t11 194.5t42 161t83 127t136.5 78.5t200.5 29t201 -29.5t136.5 -79.5t82.5 -127.5t42 -160.5
t11 -193q0 -113 -11 -197.5t-42 -162t-83 -126t-136.5 -77t-200.5 -28.5zM539 184q64 0 109 19.5t70.5 50t39.5 83.5t18 103.5t4 126.5q0 77 -4 128t-18 103.5t-39.5 83t-70.5 49.5t-109 19t-108.5 -19t-70.5 -49.5t-40.5 -83t-18.5 -104t-4 -127.5q0 -53 2 -92t8 -81
t17 -71.5t29 -57.5t43 -44.5t61 -26.5t82 -10z" />
    <glyph glyph-name="uni1ED2" unicode="&#x1ed2;" horiz-adv-x="1312" 
d="M322 1602l227 346h215l225 -346h-186l-150 186l-149 -186h-182zM1053 1788l-283 348h256l227 -348h-200zM657 -16q-110 0 -197.5 21.5t-149 58t-106.5 94t-72 119.5t-42.5 145t-21 160.5t-5.5 175.5t5.5 175.5t21 160.5t42.5 145.5t72 120t106.5 94.5t149.5 58.5
t197 21.5t196.5 -21.5t149 -58.5t106.5 -94.5t71.5 -120t42 -145.5t21 -160.5t5.5 -175.5t-5.5 -175.5t-21 -160.5t-42 -145t-71.5 -119.5t-106.5 -94t-149 -58t-196.5 -21.5zM657 195q67 0 119.5 14.5t89.5 38.5t63.5 64.5t42 83.5t24 104.5t11.5 118t3 133.5
q0 76 -3 132.5t-11.5 117.5t-24 104t-42 83t-63.5 64.5t-89.5 39t-119.5 14.5t-120 -14.5t-90 -39t-63.5 -64.5t-42 -83t-24 -104t-11.5 -117.5t-3 -132.5q0 -67 2 -117.5t8 -105.5t18 -96t29.5 -81t44.5 -67t62 -48.5t83 -31.5t107 -10z" />
    <glyph glyph-name="uni1ED3" unicode="&#x1ed3;" horiz-adv-x="1077" 
d="M201 1260l227 346h215l225 -346h-186l-150 186l-149 -186h-182zM932 1446l-283 348h256l228 -348h-201zM539 -16q-114 0 -198.5 29t-136.5 78t-83.5 126t-43 162t-11.5 196t11 194.5t42 161t83 127t136.5 78.5t200.5 29t201 -29.5t136.5 -79.5t82.5 -127.5t42 -160.5
t11 -193q0 -113 -11 -197.5t-42 -162t-83 -126t-136.5 -77t-200.5 -28.5zM539 184q64 0 109 19.5t70.5 50t39.5 83.5t18 103.5t4 126.5q0 77 -4 128t-18 103.5t-39.5 83t-70.5 49.5t-109 19t-108.5 -19t-70.5 -49.5t-40.5 -83t-18.5 -104t-4 -127.5q0 -53 2 -92t8 -81
t17 -71.5t29 -57.5t43 -44.5t61 -26.5t82 -10z" />
    <glyph glyph-name="uni1ED4" unicode="&#x1ed4;" horiz-adv-x="1312" 
d="M319 1602l228 346h215l227 -346h-188l-148 186l-149 -186h-185zM580 1999q-10 71 9.5 114t88.5 103q42 38 56 57.5t14 44.5q0 27 -22.5 45.5t-70.5 18.5q-71 0 -151 -41l-70 133q103 53 234 53q122 0 183.5 -51.5t61.5 -134.5q0 -62 -22.5 -102t-71.5 -82
q-53 -51 -70.5 -80.5t-17.5 -77.5h-151zM657 -16q-110 0 -197.5 21.5t-149 58t-106.5 94t-72 119.5t-42.5 145t-21 160.5t-5.5 175.5t5.5 175.5t21 160.5t42.5 145.5t72 120t106.5 94.5t149.5 58.5t197 21.5t196.5 -21.5t149 -58.5t106.5 -94.5t71.5 -120t42 -145.5
t21 -160.5t5.5 -175.5t-5.5 -175.5t-21 -160.5t-42 -145t-71.5 -119.5t-106.5 -94t-149 -58t-196.5 -21.5zM657 195q67 0 119.5 14.5t89.5 38.5t63.5 64.5t42 83.5t24 104.5t11.5 118t3 133.5q0 76 -3 132.5t-11.5 117.5t-24 104t-42 83t-63.5 64.5t-89.5 39t-119.5 14.5
t-120 -14.5t-90 -39t-63.5 -64.5t-42 -83t-24 -104t-11.5 -117.5t-3 -132.5q0 -67 2 -117.5t8 -105.5t18 -96t29.5 -81t44.5 -67t62 -48.5t83 -31.5t107 -10z" />
    <glyph glyph-name="uni1ED5" unicode="&#x1ed5;" horiz-adv-x="1077" 
d="M201 1260l227 346h215l227 -346h-188l-147 186l-150 -186h-184zM461 1657q-9 71 10 114t88 103q42 38 56 57.5t14 44.5q0 27 -22 45.5t-70 18.5q-72 0 -152 -41l-70 133q103 53 234 53q122 0 184 -51.5t62 -134.5q0 -62 -22.5 -102t-72.5 -82q-53 -51 -70.5 -80.5
t-17.5 -77.5h-151zM539 -16q-114 0 -198.5 29t-136.5 78t-83.5 126t-43 162t-11.5 196t11 194.5t42 161t83 127t136.5 78.5t200.5 29t201 -29.5t136.5 -79.5t82.5 -127.5t42 -160.5t11 -193q0 -113 -11 -197.5t-42 -162t-83 -126t-136.5 -77t-200.5 -28.5zM539 184
q64 0 109 19.5t70.5 50t39.5 83.5t18 103.5t4 126.5q0 77 -4 128t-18 103.5t-39.5 83t-70.5 49.5t-109 19t-108.5 -19t-70.5 -49.5t-40.5 -83t-18.5 -104t-4 -127.5q0 -53 2 -92t8 -81t17 -71.5t29 -57.5t43 -44.5t61 -26.5t82 -10z" />
    <glyph glyph-name="uni1ED6" unicode="&#x1ed6;" horiz-adv-x="1312" 
d="M657 -16q-110 0 -197.5 21.5t-149 58t-106.5 94t-72 119.5t-42.5 145t-21 160.5t-5.5 175.5t5.5 175.5t21 160.5t42.5 145.5t72 120t106.5 94.5t149.5 58.5t197 21.5t196.5 -21.5t149 -58.5t106.5 -94.5t71.5 -120t42 -145.5t21 -160.5t5.5 -175.5t-5.5 -175.5
t-21 -160.5t-42 -145t-71.5 -119.5t-106.5 -94t-149 -58t-196.5 -21.5zM657 195q67 0 119.5 14.5t89.5 38.5t63.5 64.5t42 83.5t24 104.5t11.5 118t3 133.5q0 76 -3 132.5t-11.5 117.5t-24 104t-42 83t-63.5 64.5t-89.5 39t-119.5 14.5t-120 -14.5t-90 -39t-63.5 -64.5
t-42 -83t-24 -104t-11.5 -117.5t-3 -132.5q0 -67 2 -117.5t8 -105.5t18 -96t29.5 -81t44.5 -67t62 -48.5t83 -31.5t107 -10zM322 1602l225 346h215l227 -346h-186l-152 186l-147 -186h-182zM430 1997l-149 86q93 188 249 188q46 0 92 -21t84 -42t64 -21q33 0 61 22t60 70
l149 -84q-50 -97 -109.5 -143.5t-139.5 -46.5q-46 0 -93 20.5t-85 41t-62 20.5q-61 0 -121 -90z" />
    </font>
</defs>
</svg>
