<?xml version="1.0" standalone="no"?>
<!DOCTYPE svg PUBLIC "-//W3C//DTD SVG 1.1//EN" "http://www.w3.org/Graphics/SVG/1.1/DTD/svg11.dtd" >
<svg xmlns="http://www.w3.org/2000/svg" xmlns:xlink="http://www.w3.org/1999/xlink" version="1.1">
<metadata>
Created by FontForge 20170924 at Tue May 23 18:04:00 2006
 By www-data
Copyright 2006 Monotype Imaging Ltd. All rights reserved
</metadata>
<defs>
<font id="OpelSansCondensed-Bold" horiz-adv-x="993" >
  <font-face 
    font-family="Opel Sans Condensed"
    font-weight="700"
    font-stretch="condensed"
    units-per-em="2048"
    panose-1="2 11 8 3 0 0 0 0 0 4"
    ascent="1638"
    descent="-410"
    x-height="944"
    cap-height="1358"
    bbox="-389 -532 2189 1900"
    underline-thickness="313"
    underline-position="-285"
    unicode-range="U+0020-FB02"
  />
<missing-glyph horiz-adv-x="2048" 
d="M256 0v1536h1536v-1536h-1536zM384 128h1280v1280h-1280v-1280z" />
    <glyph glyph-name="fi" unicode="fi" horiz-adv-x="1153" 
d="M1036 0h-243v743h-371v-743h-244v743h-137v201h137q10 484 426 535l78 -152q-139 -29 -198.5 -115t-61.5 -268h561l53 19v-963zM913 1366q62 0 107 -45t45 -109q0 -63 -44.5 -107t-107.5 -44q-62 0 -106.5 44.5t-44.5 106.5q0 65 44 109.5t107 44.5z" />
    <glyph glyph-name="fl" unicode="fl" horiz-adv-x="1128" 
d="M1024 0h-244v1421l244 76v-1497zM684 1327q-139 -29 -199.5 -116t-62.5 -267h211v-201h-211v-743h-244v743h-137v201h137q10 484 426 535z" />
    <glyph glyph-name=".notdef" horiz-adv-x="2048" 
d="M256 0v1536h1536v-1536h-1536zM384 128h1280v1280h-1280v-1280z" />
    <glyph glyph-name=".null" horiz-adv-x="0" 
 />
    <glyph glyph-name="nonmarkingreturn" horiz-adv-x="395" 
 />
    <glyph glyph-name="space" unicode=" " horiz-adv-x="395" 
 />
    <glyph glyph-name="exclam" unicode="!" horiz-adv-x="516" 
d="M393 1454l-45 -1063h-184l-39 981zM256 274q63 0 106.5 -43t43.5 -106q0 -62 -43.5 -106t-106.5 -44q-61 0 -105.5 44.5t-44.5 105.5q0 63 44 106t106 43z" />
    <glyph glyph-name="quotedbl" unicode="&#x22;" horiz-adv-x="844" 
d="M754 1358l-33 -590h-197l-28 590h258zM348 1358l-33 -590h-196l-29 590h258z" />
    <glyph glyph-name="numbersign" unicode="#" horiz-adv-x="1053" 
d="M981 803h-176l-33 -234h160v-161h-180l-56 -408h-174l56 408h-183l-53 -408h-176l55 408h-149v161h172l32 234h-155v160h176l55 395h174l-55 -395h180l56 395h174l-56 -395h156v-160zM631 803h-180l-33 -234h180z" />
    <glyph glyph-name="dollar" unicode="$" horiz-adv-x="942" 
d="M573 797q209 -98 285 -196.5t76 -231.5q0 -164 -93 -262.5t-268 -120.5v-193h-141v189q-221 20 -366 137l122 203q109 -85 244 -105v363q-204 93 -279 196t-75 248q0 146 93 239.5t261 114.5v119h141v-115q181 -17 320 -110l-119 -187q-98 64 -201 80v-368zM432 1157
q-100 -33 -100 -131q0 -89 100 -154v285zM573 225q95 30 95 135q0 84 -95 146v-281z" />
    <glyph glyph-name="percent" unicode="%" horiz-adv-x="1626" 
d="M1272 1384l-742 -1411h-186l741 1411h187zM356 1380q131 0 202 -116.5t71 -315.5q0 -195 -72 -313.5t-201 -118.5t-201.5 119.5t-72.5 312.5q0 198 71.5 315t202.5 117zM356 676q103 0 103 272q0 275 -103 275q-102 0 -102 -275q0 -272 102 -272zM1272 848
q130 0 201 -117t71 -315q0 -196 -71.5 -314t-200.5 -118t-202 119t-73 313q0 198 71.5 315t203.5 117zM1272 143q102 0 102 273q0 274 -102 274q-103 0 -103 -274q0 -273 103 -273z" />
    <glyph glyph-name="ampersand" unicode="&#x26;" horiz-adv-x="1069" 
d="M991 637q10 -65 10 -121q0 -244 -127 -390t-348 -146q-196 0 -327 121.5t-131 322.5q0 106 59 204t158 150q-162 84 -162 256q0 162 113 253t276 91q190 0 330 -114l-107 -187q-97 78 -211 78q-74 0 -115.5 -36t-41.5 -101q0 -148 176 -148h135l-123 -215h-35
q-88 0 -142 -65t-54 -168q0 -100 57 -162.5t156 -62.5q209 0 223 235h-172l112 205h291z" />
    <glyph glyph-name="quotesingle" unicode="'" horiz-adv-x="438" 
d="M348 1358l-33 -590h-196l-29 590h258z" />
    <glyph glyph-name="parenleft" unicode="(" horiz-adv-x="672" 
d="M600 -260h-246q-252 393 -252 885t252 884h246q-254 -400 -254 -884q0 -487 254 -885z" />
    <glyph glyph-name="parenright" unicode=")" horiz-adv-x="672" 
d="M317 1509q252 -392 252 -884t-252 -885h-245q254 398 254 885q0 484 -254 884h245z" />
    <glyph glyph-name="asterisk" unicode="*" horiz-adv-x="952" 
d="M856 1112l-258 -53l178 -201l-174 -133l-123 225l-125 -227l-174 135l174 199l-258 53l64 209l233 -111l-28 262h223l-31 -260l238 109z" />
    <glyph glyph-name="plus" unicode="+" horiz-adv-x="1026" 
d="M909 578h-299v-302h-196v302h-301v194h301v305h196v-305h299v-194z" />
    <glyph glyph-name="comma" unicode="," horiz-adv-x="465" 
d="M193 -18q-55 11 -88 52t-33 97q0 66 47 111t108 45q66 0 111 -46.5t45 -113.5q0 -181 -174 -444h-135q84 157 119 299z" />
    <glyph glyph-name="hyphen" unicode="-" horiz-adv-x="641" 
d="M571 391h-501v209h501v-209z" />
    <glyph glyph-name="period" unicode="." horiz-adv-x="457" 
d="M227 287q65 0 110.5 -46t45.5 -110t-45.5 -110t-110.5 -46q-64 0 -109.5 46t-45.5 110t45.5 110t109.5 46z" />
    <glyph glyph-name="slash" unicode="/" horiz-adv-x="545" 
d="M584 1493l-428 -1645h-211l426 1645h213z" />
    <glyph glyph-name="zero" unicode="0" horiz-adv-x="995" 
d="M498 1378q210 0 323 -187.5t113 -510.5q0 -319 -114.5 -509.5t-321.5 -190.5q-206 0 -321.5 192.5t-115.5 507.5q0 320 114 509t323 189zM498 207q94 0 140 109t46 364q0 254 -46 362.5t-140 108.5t-140.5 -112t-46.5 -359q0 -249 46.5 -361t140.5 -112z" />
    <glyph glyph-name="one" unicode="1" horiz-adv-x="858" 
d="M592 0h-260v936l-193 -160v268l340 336h113v-1380z" />
    <glyph glyph-name="two" unicode="2" 
d="M905 0h-850v94l465 570q59 73 96 147t37 172q0 164 -172 164q-159 0 -282 -162l-136 172q187 221 439 221q194 0 302.5 -98.5t108.5 -278.5q0 -120 -45.5 -223t-147.5 -227l-274 -334h459v-217z" />
    <glyph glyph-name="three" unicode="3" horiz-adv-x="983" 
d="M700 723q104 -35 163 -122t59 -193q0 -206 -128 -317t-317 -111q-263 0 -432 221l145 168q116 -158 275 -158q95 0 146 50.5t51 146.5q0 86 -39.5 126t-103 50t-177.5 10v215q108 0 167 9t95.5 48t36.5 123q0 76 -44.5 117t-123.5 41q-144 0 -264 -148l-139 156
q177 223 430 223q180 0 286.5 -96.5t106.5 -261.5q0 -202 -193 -297z" />
    <glyph glyph-name="four" unicode="4" horiz-adv-x="1001" 
d="M948 252h-114v-252h-261v252h-526v158l629 968h158v-919h114v-207zM573 459v395l-251 -395h251z" />
    <glyph glyph-name="five" unicode="5" horiz-adv-x="989" 
d="M350 866q72 19 137 19q200 0 319.5 -113.5t119.5 -316.5q0 -207 -124.5 -341t-332.5 -134q-131 0 -226 43t-182 139l148 172q64 -72 122 -98.5t138 -26.5q96 0 152.5 70t56.5 176q0 110 -62.5 169.5t-169.5 59.5q-111 0 -223 -66h-106l43 740h725l-117 -219h-401z" />
    <glyph glyph-name="six" unicode="6" 
d="M451 854q41 16 96 16q172 0 278.5 -121.5t106.5 -314.5q0 -205 -123 -329.5t-309 -124.5q-194 0 -316.5 126.5t-122.5 337.5q0 391 492 914h293q-268 -282 -395 -504zM500 205q76 0 126 63.5t50 163.5q0 102 -49 167t-127 65q-82 0 -132.5 -64.5t-50.5 -171.5
q0 -95 53 -159t130 -64z" />
    <glyph glyph-name="seven" unicode="7" horiz-adv-x="989" 
d="M952 1358l-579 -1358h-283l514 1139h-553l117 219h784z" />
    <glyph glyph-name="eight" unicode="8" horiz-adv-x="999" 
d="M729 713q100 -50 154.5 -138.5t54.5 -197.5q0 -195 -126 -296t-312 -101q-193 0 -316 105.5t-123 291.5q0 109 55 197.5t154 138.5q-170 118 -170 295q0 183 115 276.5t285 93.5q178 0 289.5 -98t111.5 -272q0 -175 -172 -295zM500 811q68 0 112.5 49t44.5 129t-42 125
t-115 45t-114.5 -44.5t-41.5 -125.5q0 -80 44.5 -129t111.5 -49zM500 205q84 0 133 52t49 146q0 88 -52.5 143.5t-129.5 55.5t-129 -55.5t-52 -143.5q0 -95 48.5 -146.5t132.5 -51.5z" />
    <glyph glyph-name="nine" unicode="9" 
d="M543 502q-42 -13 -97 -13q-172 0 -278.5 121t-106.5 314q0 204 123.5 329t309.5 125q192 0 315 -125.5t123 -330.5q0 -404 -492 -922h-293q261 271 396 502zM494 694q81 0 131.5 64t50.5 170q0 96 -53 160.5t-129 64.5q-77 0 -127 -64t-50 -165t48.5 -165.5t128.5 -64.5z
" />
    <glyph glyph-name="colon" unicode=":" horiz-adv-x="506" 
d="M252 973q64 0 110 -46t46 -110t-46 -109.5t-110 -45.5t-110 45.5t-46 109.5q0 65 45.5 110.5t110.5 45.5zM252 287q64 0 110 -46t46 -110t-46 -110t-110 -46t-110 46t-46 110q0 65 45.5 110.5t110.5 45.5z" />
    <glyph glyph-name="semicolon" unicode=";" horiz-adv-x="506" 
d="M252 973q64 0 110 -46t46 -110t-46 -109.5t-110 -45.5t-110 45.5t-46 109.5q0 65 45.5 110.5t110.5 45.5zM215 -18q-54 11 -86.5 53.5t-32.5 95.5q0 65 45.5 110.5t110.5 45.5q68 0 113 -48t45 -118q0 -160 -181 -438h-143q89 147 129 299z" />
    <glyph glyph-name="less" unicode="&#x3c;" horiz-adv-x="1026" 
d="M891 264l-756 320v182l756 319v-196l-508 -213l508 -213v-199z" />
    <glyph glyph-name="equal" unicode="=" horiz-adv-x="1036" 
d="M893 750h-750v178h750v-178zM893 430h-750v178h750v-178z" />
    <glyph glyph-name="greater" unicode="&#x3e;" horiz-adv-x="1026" 
d="M891 586l-756 -324v201l529 213l-529 213v196l756 -319v-180z" />
    <glyph glyph-name="question" unicode="?" horiz-adv-x="889" 
d="M45 1284q167 123 375 123q192 0 305 -108t113 -289q0 -185 -111 -304t-324 -161v-117l-227 -78v348q213 12 314.5 84t101.5 213q0 199 -189 199q-136 0 -260 -94zM291 274q63 0 106 -43t43 -106q0 -62 -43.5 -106t-105.5 -44q-61 0 -105.5 44.5t-44.5 105.5q0 63 44 106
t106 43z" />
    <glyph glyph-name="at" unicode="@" horiz-adv-x="1731" 
d="M1524 -170q-149 -127 -301 -185.5t-344 -58.5q-356 0 -587 236t-231 629q0 259 119 470t324 331t430 120q327 0 531 -191.5t204 -529.5q0 -285 -131 -468t-350 -183q-151 0 -166 125q-115 -119 -270 -119q-140 0 -233 109.5t-93 275.5q0 220 131.5 376.5t325.5 156.5
q146 0 227 -113l188 94q-108 -646 -108 -661q0 -60 51 -60q103 0 168.5 127t65.5 340q0 254 -146.5 399.5t-394.5 145.5q-277 0 -477.5 -215t-200.5 -530q0 -318 178 -503.5t465 -185.5q293 0 547 201zM795 195q99 0 163 104t64 242q0 87 -40 139.5t-110 52.5
q-100 0 -164.5 -98.5t-64.5 -228.5q0 -211 152 -211z" />
    <glyph glyph-name="A" unicode="A" horiz-adv-x="1243" 
d="M1223 0h-275l-100 268h-465l-98 -268h-265l539 1376h123zM772 477l-158 422l-155 -422h313z" />
    <glyph glyph-name="B" unicode="B" horiz-adv-x="1063" 
d="M786 727q106 -39 164 -123t58 -192q0 -412 -549 -412h-334v1358h342q258 0 380 -85t122 -261q0 -201 -183 -285zM385 817h74q248 0 248 172q0 152 -240 152h-82v-324zM385 231h74q149 0 216.5 49t67.5 148q0 94 -65 140t-211 46h-82v-383z" />
    <glyph glyph-name="C" unicode="C" horiz-adv-x="1163" 
d="M1122 111q-172 -131 -407 -131q-282 0 -465.5 195.5t-183.5 504.5t182.5 503.5t466.5 194.5q235 0 407 -131l-135 -213q-122 105 -272 105q-174 0 -278.5 -125t-104.5 -334q0 -211 104 -336t279 -125q150 0 272 105z" />
    <glyph glyph-name="D" unicode="D" horiz-adv-x="1210" 
d="M123 1358h315q338 0 522.5 -173t184.5 -497t-189.5 -506t-517.5 -182h-315v1358zM383 236h66q430 0 430 452q0 214 -109.5 324t-320.5 110h-66v-886z" />
    <glyph glyph-name="E" unicode="E" 
d="M956 0h-833v1358h809l-131 -219h-418v-320h414v-231h-414v-357h438z" />
    <glyph glyph-name="F" unicode="F" horiz-adv-x="971" 
d="M956 1358l-131 -219h-442v-348h442v-232h-442v-559h-260v1358h833z" />
    <glyph glyph-name="G" unicode="G" horiz-adv-x="1245" 
d="M1143 111q-173 -131 -428 -131q-282 0 -465.5 195.5t-183.5 504.5t182.5 503.5t466.5 194.5q244 0 418 -131l-136 -213q-123 105 -282 105q-174 0 -278.5 -125t-104.5 -334q0 -211 104 -336t279 -125q92 0 168 35v258h-244l121 215h383v-616z" />
    <glyph glyph-name="H" unicode="H" horiz-adv-x="1241" 
d="M1118 0h-258v588h-477v-588h-260v1358h260v-539h477v539h258v-1358z" />
    <glyph glyph-name="I" unicode="I" horiz-adv-x="528" 
d="M393 0h-260v1358h260v-1358z" />
    <glyph glyph-name="J" unicode="J" horiz-adv-x="739" 
d="M616 426q0 -446 -331 -446q-163 0 -271 90l101 192q62 -49 125 -49q61 0 88.5 43.5t27.5 177.5v924h260v-932z" />
    <glyph glyph-name="K" unicode="K" horiz-adv-x="1167" 
d="M1157 0h-323l-451 573v-573h-260v1358h260v-555l412 555h290l-493 -649z" />
    <glyph glyph-name="L" unicode="L" horiz-adv-x="971" 
d="M944 0h-821v1358h260v-1127h426z" />
    <glyph glyph-name="M" unicode="M" horiz-adv-x="1522" 
d="M1460 0h-268l-113 737l-264 -747h-106l-275 749l-119 -739h-254l234 1368h143l338 -864l311 864h142z" />
    <glyph glyph-name="N" unicode="N" horiz-adv-x="1266" 
d="M1143 -10h-119l-653 821v-811h-248v1368h117l653 -819v809h250v-1368z" />
    <glyph glyph-name="O" unicode="O" horiz-adv-x="1409" 
d="M705 1378q270 0 454 -195t184 -501q0 -309 -183.5 -505.5t-454.5 -196.5t-455 197t-184 505q0 305 184.5 500.5t454.5 195.5zM705 223q163 0 267.5 126t104.5 333q0 204 -104.5 328.5t-267.5 124.5q-165 0 -269 -124.5t-104 -328.5q0 -209 104.5 -334t268.5 -125z" />
    <glyph glyph-name="P" unicode="P" horiz-adv-x="1026" 
d="M123 1358h323q253 0 388 -109t135 -321q0 -144 -60.5 -241t-178.5 -146t-284 -49h-63v-492h-260v1358zM383 705h37q158 0 220 55t62 168q0 109 -59 163t-215 54h-45v-440z" />
    <glyph glyph-name="Q" unicode="Q" horiz-adv-x="1409" 
d="M506 10q-205 69 -322.5 249.5t-117.5 422.5q0 305 184.5 500.5t454.5 195.5t454 -195t184 -501q0 -281 -155 -474.5t-412 -219.5l-88 -88l561 -41l-92 -160l-975 -21zM705 223q163 0 267.5 126t104.5 333q0 204 -104.5 328.5t-267.5 124.5q-165 0 -269 -124.5
t-104 -328.5q0 -209 104.5 -334t268.5 -125z" />
    <glyph glyph-name="R" unicode="R" horiz-adv-x="1085" 
d="M1051 0h-289l-289 500h-90v-500h-260v1358h319q262 0 398.5 -106t136.5 -308q0 -289 -258 -397zM383 709h45q153 0 218 54t65 173q0 205 -269 205h-59v-432z" />
    <glyph glyph-name="S" unicode="S" horiz-adv-x="995" 
d="M774 1085q-123 84 -260 84q-82 0 -132 -38t-50 -105q0 -54 39.5 -102t200.5 -126q115 -56 187 -103t123.5 -127.5t51.5 -198.5q0 -188 -120.5 -288.5t-330.5 -100.5q-106 0 -221 37t-196 102l122 203q141 -107 299 -107q181 0 181 145q0 52 -37.5 98t-190.5 119
q-114 55 -186 103t-124 132.5t-52 211.5q0 166 119.5 263t316.5 97q216 0 379 -112z" />
    <glyph glyph-name="T" unicode="T" horiz-adv-x="1051" 
d="M1010 1126h-355v-1126h-260v1126h-354v232h969v-232z" />
    <glyph glyph-name="U" unicode="U" horiz-adv-x="1231" 
d="M1114 602q0 -303 -126.5 -462.5t-371.5 -159.5q-244 0 -371.5 160t-127.5 462v756h260v-756q0 -214 55 -299.5t184 -85.5q130 0 185 85t55 300v756h258v-756z" />
    <glyph glyph-name="V" unicode="V" horiz-adv-x="1196" 
d="M1171 1358l-499 -1372h-156l-491 1372h268l307 -918l311 918h260z" />
    <glyph glyph-name="W" unicode="W" horiz-adv-x="1608" 
d="M1573 1358l-418 -1378h-125l-227 792l-238 -792h-123l-407 1378h270l213 -780l240 790h123l219 -782l219 772h254z" />
    <glyph glyph-name="X" unicode="X" horiz-adv-x="1237" 
d="M1196 0h-291l-295 479l-282 -479h-287l434 702l-399 656h289l264 -434l256 434h286l-405 -660z" />
    <glyph glyph-name="Y" unicode="Y" horiz-adv-x="1196" 
d="M1159 1358l-440 -776v-582h-260v580l-424 778h276l285 -539l289 539h274z" />
    <glyph glyph-name="Z" unicode="Z" horiz-adv-x="1133" 
d="M1096 233l-127 -233h-924l604 1126h-563l127 232h860l-602 -1125h625z" />
    <glyph glyph-name="bracketleft" unicode="[" horiz-adv-x="627" 
d="M549 -229h-447v1710h447v-201h-203v-1311h203v-198z" />
    <glyph glyph-name="backslash" unicode="\" horiz-adv-x="545" 
d="M580 -152h-211l-428 1645h213z" />
    <glyph glyph-name="bracketright" unicode="]" horiz-adv-x="627" 
d="M524 -229h-448v198h203v1311h-203v201h448v-1710z" />
    <glyph glyph-name="asciicircum" unicode="^" horiz-adv-x="866" 
d="M846 504h-236l-186 518l-188 -518h-234l320 854h202z" />
    <glyph glyph-name="underscore" unicode="_" horiz-adv-x="1096" 
d="M1102 -313h-1108v184h1108v-184z" />
    <glyph glyph-name="grave" unicode="`" horiz-adv-x="645" 
d="M516 1096h-182l-281 307h273z" />
    <glyph glyph-name="a" unicode="a" horiz-adv-x="1110" 
d="M1038 74l-194 -94q-52 51 -66 120q-109 -120 -268 -120q-200 0 -324.5 133.5t-124.5 357.5q0 221 127.5 356.5t333.5 135.5q171 0 271 -125l200 114v-671q0 -134 45 -207zM522 180q104 0 166 80.5t62 210.5q0 135 -60.5 212t-167.5 77q-99 0 -158 -79.5t-59 -207.5
q0 -132 58 -212.5t159 -80.5z" />
    <glyph glyph-name="b" unicode="b" horiz-adv-x="1122" 
d="M358 856q111 107 263 107q191 0 315.5 -137.5t124.5 -356.5q0 -215 -126 -352t-325 -137q-176 0 -280 120q-17 -74 -70 -120l-188 94q43 67 43 207v1140l243 76v-641zM590 180q105 0 165 80.5t60 212.5q0 125 -60 206t-165 81q-108 0 -171 -77.5t-63 -209.5t63.5 -212.5
t170.5 -80.5z" />
    <glyph glyph-name="c" unicode="c" horiz-adv-x="905" 
d="M870 74q-138 -94 -327 -94q-222 0 -352 132t-130 355q0 225 129.5 360.5t352.5 135.5q192 0 321 -95l-106 -180q-107 72 -215 72t-173 -81t-65 -214q0 -128 65.5 -206.5t172.5 -78.5q118 0 223 76z" />
    <glyph glyph-name="d" unicode="d" horiz-adv-x="1122" 
d="M1051 74l-191 -94q-51 46 -69 120q-104 -120 -281 -120q-198 0 -323.5 137.5t-125.5 351.5q0 220 126 357t313 137q153 0 264 -107v565l244 76v-1216q0 -140 43 -207zM532 182q107 0 169.5 79.5t62.5 211.5q0 131 -62.5 209t-169.5 78q-104 0 -165.5 -79.5t-61.5 -207.5
t59.5 -209.5t167.5 -81.5z" />
    <glyph glyph-name="e" unicode="e" horiz-adv-x="1065" 
d="M1008 502l-686 -142q20 -86 78 -133t141 -47q136 0 288 92l95 -180q-173 -112 -387 -112q-195 0 -335.5 137t-140.5 350q0 230 142.5 363t335.5 133q195 0 326.5 -122t142.5 -339zM748 618q-61 144 -205 144q-94 0 -159 -62.5t-77 -173.5z" />
    <glyph glyph-name="f" unicode="f" horiz-adv-x="666" 
d="M684 1327q-139 -29 -199.5 -116t-62.5 -267h211v-201h-211v-743h-244v743h-137v201h137q10 484 426 535z" />
    <glyph glyph-name="g" unicode="g" horiz-adv-x="1094" 
d="M997 80q0 -238 -117.5 -371t-367.5 -133q-219 0 -408 129l123 182q140 -100 283 -100q239 0 240 285q-97 -92 -232 -92q-193 0 -322.5 136.5t-129.5 354.5q0 222 133 357t338 135q163 0 270 -119l190 110v-874zM537 182q104 0 160.5 77t56.5 214q0 134 -54.5 210.5
t-162.5 76.5q-104 0 -165 -79.5t-61 -207.5q0 -131 60.5 -211t165.5 -80z" />
    <glyph glyph-name="h" unicode="h" horiz-adv-x="987" 
d="M895 0h-244v575q0 89 -27.5 127.5t-88.5 38.5q-92 0 -143.5 -77t-51.5 -205v-459h-248v1413l240 84v-684q42 72 115.5 111t156.5 39q291 0 291 -369v-594z" />
    <glyph glyph-name="i" unicode="i" horiz-adv-x="477" 
d="M238 1366q61 0 106 -45t45 -109q0 -63 -44.5 -107t-106.5 -44q-63 0 -107.5 44.5t-44.5 106.5q0 65 44 109.5t108 44.5zM360 0h-243v874l243 84v-958z" />
    <glyph glyph-name="j" unicode="j" horiz-adv-x="479" 
d="M238 1366q62 0 107.5 -45t45.5 -109q0 -63 -45.5 -107t-107.5 -44t-106 44.5t-44 106.5q0 65 44 109.5t106 44.5zM360 125q0 -235 -91.5 -357.5t-297.5 -181.5l-86 170q120 34 176 106.5t56 217.5v792l243 86v-833z" />
    <glyph glyph-name="k" unicode="k" horiz-adv-x="938" 
d="M928 0h-314l-274 406v-406h-244v1421l244 76v-913l266 360h291l-340 -430z" />
    <glyph glyph-name="l" unicode="l" horiz-adv-x="436" 
d="M340 0h-244v1421l244 76v-1497z" />
    <glyph glyph-name="m" unicode="m" horiz-adv-x="1460" 
d="M1374 0h-246v578q0 163 -100 163q-82 0 -126 -72t-44 -196v-473h-246v578q0 163 -102 163q-82 0 -126 -75t-44 -203v-463h-244v877l236 81v-135q91 140 260 140q172 0 235 -150q45 70 121 110t158 40q268 0 268 -367v-596z" />
    <glyph glyph-name="n" unicode="n" horiz-adv-x="987" 
d="M895 0h-244v575q0 90 -28 129t-88 39q-92 0 -143.5 -78t-51.5 -206v-459h-244v877l234 81v-145q42 71 116.5 110.5t157.5 39.5q291 0 291 -369v-594z" />
    <glyph glyph-name="o" unicode="o" horiz-adv-x="1083" 
d="M543 963q205 0 342 -136t137 -356t-137.5 -355.5t-341.5 -135.5q-207 0 -344.5 136t-137.5 355t137 355.5t345 136.5zM543 182q107 0 170 79t63 210t-63 210t-170 79q-108 0 -173 -79.5t-65 -211.5q0 -129 64.5 -208t173.5 -79z" />
    <glyph glyph-name="p" unicode="p" horiz-adv-x="1104" 
d="M301 846q115 117 305 117t313 -139t123 -351q0 -220 -127.5 -356.5t-324.5 -136.5q-147 0 -250 98v-420l-244 -76v1376zM571 182q104 0 166 80.5t62 208.5q0 130 -61 209.5t-167 79.5q-108 0 -170.5 -78.5t-62.5 -212.5q0 -127 64 -207t169 -80z" />
    <glyph glyph-name="q" unicode="q" horiz-adv-x="1104" 
d="M1008 -342l-244 -76v496q-103 -98 -250 -98q-197 0 -325 136.5t-128 356.5q0 212 123.5 351t313.5 139t311 -123l199 118v-1300zM532 182q106 0 170 80t64 207q0 134 -62.5 212.5t-171.5 78.5q-105 0 -166 -79.5t-61 -209.5q0 -125 60.5 -207t166.5 -82z" />
    <glyph glyph-name="r" unicode="r" horiz-adv-x="702" 
d="M668 952l-43 -227q-46 12 -97 12q-188 0 -188 -268v-469h-244v877l236 81v-147q90 152 258 152q40 0 78 -11z" />
    <glyph glyph-name="s" unicode="s" horiz-adv-x="776" 
d="M602 717q-95 61 -201 61q-110 0 -110 -86q0 -45 31.5 -67t117.5 -52q176 -59 230.5 -132.5t54.5 -170.5q0 -138 -98.5 -214t-247.5 -76q-184 0 -328 112l99 156q102 -84 231 -84q111 0 111 92q0 34 -26.5 58.5t-121.5 56.5q-84 28 -143 58.5t-103.5 92.5t-44.5 162
q0 138 100 208.5t244 70.5q174 0 301 -97z" />
    <glyph glyph-name="t" unicode="t" horiz-adv-x="705" 
d="M694 944l-112 -201h-156v-331q0 -125 30 -198.5t113 -129.5l-143 -123q-244 88 -244 391v391h-141v201h141v248l244 158v-406h268z" />
    <glyph glyph-name="u" unicode="u" horiz-adv-x="1006" 
d="M936 78l-184 -98q-80 88 -90 155q-45 -74 -120 -114.5t-159 -40.5q-293 0 -293 366v598h246v-577q0 -85 26.5 -126.5t90.5 -41.5q92 0 143 77.5t51 206.5v461h244v-668q0 -75 8 -112.5t37 -85.5z" />
    <glyph glyph-name="v" unicode="v" horiz-adv-x="958" 
d="M928 944l-381 -954h-166l-350 954h260l190 -579l205 579h242z" />
    <glyph glyph-name="w" unicode="w" horiz-adv-x="1333" 
d="M1303 944l-353 -954h-106l-178 522l-185 -522h-106l-344 954h254l155 -506l185 494h110l170 -488l160 500h238z" />
    <glyph glyph-name="x" unicode="x" horiz-adv-x="1016" 
d="M981 0h-287l-196 293l-187 -293h-276l327 489l-305 455h283l176 -262l164 262h274l-303 -455z" />
    <glyph glyph-name="y" unicode="y" horiz-adv-x="958" 
d="M928 944l-506 -1288l-277 -86l205 510l-319 864h258l180 -579l221 579h238z" />
    <glyph glyph-name="z" unicode="z" horiz-adv-x="903" 
d="M870 207l-110 -207h-735l446 741h-393l106 203h688l-444 -737h442z" />
    <glyph glyph-name="braceleft" unicode="{" horiz-adv-x="662" 
d="M596 -246q-252 0 -317.5 78.5t-65.5 228.5v258q0 141 -39 179.5t-108 38.5v178q95 1 121 54t26 161v258q0 133 43.5 199.5t123 87t216.5 20.5v-195q-66 0 -95 -15t-35.5 -40.5t-6.5 -79.5v-235q0 -233 -156 -303q156 -75 156 -320v-223q0 -56 6.5 -81.5t35.5 -39.5
t95 -14v-195z" />
    <glyph glyph-name="bar" unicode="|" horiz-adv-x="412" 
d="M315 -514h-219v2050h219v-2050z" />
    <glyph glyph-name="braceright" unicode="}" horiz-adv-x="662" 
d="M596 537q-69 0 -108 -38.5t-39 -179.5v-258q0 -150 -65.5 -228.5t-317.5 -78.5v195q66 0 95 14t35.5 39.5t6.5 81.5v223q0 245 155 320q-155 70 -155 303v235q0 54 -6.5 79.5t-36 40.5t-94.5 15v195q252 0 317.5 -78.5t65.5 -228.5v-258q0 -108 26 -161t121 -54v-178z
" />
    <glyph glyph-name="asciitilde" unicode="~" horiz-adv-x="1061" 
d="M1024 918q-22 -162 -99 -253.5t-190 -91.5q-46 0 -89 13t-132 61q-82 44 -113.5 57t-66.5 13q-81 0 -107 -135h-192q20 163 96.5 251.5t196.5 88.5q46 0 88.5 -11.5t136.5 -58.5q83 -43 114.5 -55.5t63.5 -12.5q68 0 100 134h193z" />
    <glyph glyph-name="Adieresis" unicode="&#xc4;" horiz-adv-x="1243" 
d="M1223 0h-275l-100 268h-465l-98 -268h-265l539 1376h123zM772 477l-158 422l-155 -422h313zM834 1731q56 0 98.5 -43t42.5 -100q0 -58 -42.5 -101t-98.5 -43q-57 0 -99.5 43t-42.5 101t42.5 100.5t99.5 42.5zM397 1731q57 0 99.5 -43t42.5 -100q0 -58 -42.5 -101
t-99.5 -43q-58 0 -100.5 43t-42.5 101t42.5 100.5t100.5 42.5z" />
    <glyph glyph-name="Aring" unicode="&#xc5;" horiz-adv-x="1243" 
d="M1223 0h-275l-100 268h-465l-98 -268h-265l539 1376h123zM772 477l-158 422l-155 -422h313zM616 1900q97 0 165.5 -67t68.5 -164q0 -96 -68.5 -163.5t-165.5 -67.5t-165 67.5t-68 163.5q0 98 67.5 164.5t165.5 66.5zM616 1565q41 0 72 31.5t31 72.5q0 43 -30.5 74
t-72.5 31q-43 0 -73.5 -31t-30.5 -74q0 -42 31 -73t73 -31z" />
    <glyph glyph-name="Ccedilla" unicode="&#xc7;" horiz-adv-x="1167" 
d="M1122 111q-164 -127 -379 -131l-38 -56q19 8 43 8q83 0 137.5 -45.5t54.5 -122.5q0 -96 -77 -152t-189 -56q-116 0 -246 59l53 111q97 -41 166 -41q105 0 105 73q0 62 -95 62q-42 0 -88 -17l-69 54l108 131q-250 40 -396 230t-146 462q0 309 182.5 503.5t466.5 194.5
q235 0 407 -131l-135 -213q-122 105 -272 105q-174 0 -278.5 -125t-104.5 -334q0 -211 104 -336t279 -125q150 0 272 105z" />
    <glyph glyph-name="Eacute" unicode="&#xc9;" 
d="M956 0h-833v1358h809l-131 -219h-418v-320h414v-231h-414v-357h438zM871 1745l-281 -307h-182l190 307h273z" />
    <glyph glyph-name="Ntilde" unicode="&#xd1;" horiz-adv-x="1266" 
d="M1143 -10h-119l-653 821v-811h-248v1368h117l653 -819v809h250v-1368zM1024 1717q-8 -131 -68 -204t-158 -73q-63 0 -157 47q-88 47 -117 47q-66 0 -82 -96h-156q23 275 232 275q69 0 159 -45q86 -43 117 -43q58 0 76 92h154z" />
    <glyph glyph-name="Odieresis" unicode="&#xd6;" horiz-adv-x="1409" 
d="M705 1378q270 0 454 -195t184 -501q0 -309 -183.5 -505.5t-454.5 -196.5t-455 197t-184 505q0 305 184.5 500.5t454.5 195.5zM705 223q163 0 267.5 126t104.5 333q0 204 -104.5 328.5t-267.5 124.5q-165 0 -269 -124.5t-104 -328.5q0 -209 104.5 -334t268.5 -125z
M918 1737q56 0 98.5 -43t42.5 -100q0 -58 -42.5 -101t-98.5 -43q-57 0 -99.5 43t-42.5 101t42.5 100.5t99.5 42.5zM481 1737q57 0 99.5 -43t42.5 -100q0 -58 -42.5 -101t-99.5 -43q-58 0 -100.5 43t-42.5 101t42.5 100.5t100.5 42.5z" />
    <glyph glyph-name="Udieresis" unicode="&#xdc;" horiz-adv-x="1231" 
d="M1114 602q0 -303 -126.5 -462.5t-371.5 -159.5q-244 0 -371.5 160t-127.5 462v756h260v-756q0 -214 55 -299.5t184 -85.5q130 0 185 85t55 300v756h258v-756zM836 1737q56 0 98.5 -43t42.5 -100q0 -58 -42.5 -101t-98.5 -43q-57 0 -99.5 43t-42.5 101t42.5 100.5
t99.5 42.5zM399 1737q57 0 99.5 -43t42.5 -100q0 -58 -42.5 -101t-99.5 -43q-58 0 -100.5 43t-42.5 101t42.5 100.5t100.5 42.5z" />
    <glyph glyph-name="aacute" unicode="&#xe1;" horiz-adv-x="1110" 
d="M1038 74l-194 -94q-52 51 -66 120q-109 -120 -268 -120q-200 0 -324.5 133.5t-124.5 357.5q0 221 127.5 356.5t333.5 135.5q171 0 271 -125l200 114v-671q0 -134 45 -207zM522 180q104 0 166 80.5t62 210.5q0 135 -60.5 212t-167.5 77q-99 0 -158 -79.5t-59 -207.5
q0 -132 58 -212.5t159 -80.5zM895 1403l-281 -307h-182l190 307h273z" />
    <glyph glyph-name="agrave" unicode="&#xe0;" horiz-adv-x="1110" 
d="M1038 74l-194 -94q-52 51 -66 120q-109 -120 -268 -120q-200 0 -324.5 133.5t-124.5 357.5q0 221 127.5 356.5t333.5 135.5q171 0 271 -125l200 114v-671q0 -134 45 -207zM522 180q104 0 166 80.5t62 210.5q0 135 -60.5 212t-167.5 77q-99 0 -158 -79.5t-59 -207.5
q0 -132 58 -212.5t159 -80.5zM670 1096h-182l-281 307h273z" />
    <glyph glyph-name="acircumflex" unicode="&#xe2;" horiz-adv-x="1110" 
d="M1038 74l-194 -94q-52 51 -66 120q-109 -120 -268 -120q-200 0 -324.5 133.5t-124.5 357.5q0 221 127.5 356.5t333.5 135.5q171 0 271 -125l200 114v-671q0 -134 45 -207zM522 180q104 0 166 80.5t62 210.5q0 135 -60.5 212t-167.5 77q-99 0 -158 -79.5t-59 -207.5
q0 -132 58 -212.5t159 -80.5zM874 1096h-190l-139 186l-140 -186h-190l196 321h265z" />
    <glyph glyph-name="adieresis" unicode="&#xe4;" horiz-adv-x="1110" 
d="M1038 74l-194 -94q-52 51 -66 120q-109 -120 -268 -120q-200 0 -324.5 133.5t-124.5 357.5q0 221 127.5 356.5t333.5 135.5q171 0 271 -125l200 114v-671q0 -134 45 -207zM522 180q104 0 166 80.5t62 210.5q0 135 -60.5 212t-167.5 77q-99 0 -158 -79.5t-59 -207.5
q0 -132 58 -212.5t159 -80.5zM748 1407q56 0 98.5 -43t42.5 -100q0 -58 -42.5 -101t-98.5 -43q-57 0 -99.5 43t-42.5 101t42.5 100.5t99.5 42.5zM311 1407q57 0 99.5 -43t42.5 -100q0 -58 -42.5 -101t-99.5 -43q-58 0 -100.5 43t-42.5 101t42.5 100.5t100.5 42.5z" />
    <glyph glyph-name="atilde" unicode="&#xe3;" horiz-adv-x="1110" 
d="M1038 74l-194 -94q-52 51 -66 120q-109 -120 -268 -120q-200 0 -324.5 133.5t-124.5 357.5q0 221 127.5 356.5t333.5 135.5q171 0 271 -125l200 114v-671q0 -134 45 -207zM522 180q104 0 166 80.5t62 210.5q0 135 -60.5 212t-167.5 77q-99 0 -158 -79.5t-59 -207.5
q0 -132 58 -212.5t159 -80.5zM909 1395q-8 -131 -68 -204t-158 -73q-63 0 -157 47q-88 47 -117 47q-66 0 -82 -96h-156q23 275 232 275q69 0 159 -45q86 -43 117 -43q58 0 76 92h154z" />
    <glyph glyph-name="aring" unicode="&#xe5;" horiz-adv-x="1110" 
d="M1038 74l-194 -94q-52 51 -66 120q-109 -120 -268 -120q-200 0 -324.5 133.5t-124.5 357.5q0 221 127.5 356.5t333.5 135.5q171 0 271 -125l200 114v-671q0 -134 45 -207zM522 180q104 0 166 80.5t62 210.5q0 135 -60.5 212t-167.5 77q-99 0 -158 -79.5t-59 -207.5
q0 -132 58 -212.5t159 -80.5zM546 1556q97 0 165.5 -67t68.5 -164q0 -96 -68.5 -163.5t-165.5 -67.5t-165 67.5t-68 163.5q0 98 67.5 164.5t165.5 66.5zM546 1221q41 0 72 31.5t31 72.5q0 43 -30.5 74t-72.5 31q-43 0 -73.5 -31t-30.5 -74q0 -42 31 -73t73 -31z" />
    <glyph glyph-name="ccedilla" unicode="&#xe7;" horiz-adv-x="905" 
d="M526 -76q20 8 43 8q84 0 138.5 -45.5t54.5 -122.5q0 -96 -77 -152t-189 -56q-116 0 -246 59l53 111q96 -41 166 -41q104 0 104 73q0 62 -94 62q-42 0 -88 -17l-69 54l108 133q-176 34 -272.5 161t-96.5 316q0 225 129.5 360.5t352.5 135.5q192 0 321 -95l-106 -180
q-107 72 -215 72t-173 -81t-65 -214q0 -128 65.5 -206.5t172.5 -78.5q118 0 223 76l104 -182q-131 -88 -305 -94z" />
    <glyph glyph-name="eacute" unicode="&#xe9;" horiz-adv-x="1065" 
d="M1008 502l-686 -142q20 -86 78 -133t141 -47q136 0 288 92l95 -180q-173 -112 -387 -112q-195 0 -335.5 137t-140.5 350q0 230 142.5 363t335.5 133q195 0 326.5 -122t142.5 -339zM748 618q-61 144 -205 144q-94 0 -159 -62.5t-77 -173.5zM866 1403l-281 -307h-182
l190 307h273z" />
    <glyph glyph-name="egrave" unicode="&#xe8;" horiz-adv-x="1065" 
d="M1008 502l-686 -142q20 -86 78 -133t141 -47q136 0 288 92l95 -180q-173 -112 -387 -112q-195 0 -335.5 137t-140.5 350q0 230 142.5 363t335.5 133q195 0 326.5 -122t142.5 -339zM748 618q-61 144 -205 144q-94 0 -159 -62.5t-77 -173.5zM684 1096h-182l-281 307h273z
" />
    <glyph glyph-name="ecircumflex" unicode="&#xea;" horiz-adv-x="1065" 
d="M1008 502l-686 -142q20 -86 78 -133t141 -47q136 0 288 92l95 -180q-173 -112 -387 -112q-195 0 -335.5 137t-140.5 350q0 230 142.5 363t335.5 133q195 0 326.5 -122t142.5 -339zM748 618q-61 144 -205 144q-94 0 -159 -62.5t-77 -173.5zM868 1096h-190l-139 186
l-140 -186h-190l196 321h265z" />
    <glyph glyph-name="edieresis" unicode="&#xeb;" horiz-adv-x="1065" 
d="M1008 502l-686 -142q20 -86 78 -133t141 -47q136 0 288 92l95 -180q-173 -112 -387 -112q-195 0 -335.5 137t-140.5 350q0 230 142.5 363t335.5 133q195 0 326.5 -122t142.5 -339zM748 618q-61 144 -205 144q-94 0 -159 -62.5t-77 -173.5zM756 1407q56 0 98.5 -43
t42.5 -100q0 -58 -42.5 -101t-98.5 -43q-57 0 -99.5 43t-42.5 101t42.5 100.5t99.5 42.5zM319 1407q57 0 99.5 -43t42.5 -100q0 -58 -42.5 -101t-99.5 -43q-58 0 -100.5 43t-42.5 101t42.5 100.5t100.5 42.5z" />
    <glyph glyph-name="iacute" unicode="&#xed;" horiz-adv-x="477" 
d="M360 0h-243v874l243 84v-958zM592 1403l-281 -307h-182l190 307h273z" />
    <glyph glyph-name="igrave" unicode="&#xec;" horiz-adv-x="477" 
d="M360 0h-243v874l243 84v-958zM393 1096h-182l-281 307h273z" />
    <glyph glyph-name="icircumflex" unicode="&#xee;" horiz-adv-x="477" 
d="M360 0h-243v874l243 84v-958zM575 1096h-190l-139 186l-140 -186h-190l196 321h265z" />
    <glyph glyph-name="idieresis" unicode="&#xef;" horiz-adv-x="477" 
d="M360 0h-243v874l243 84v-958zM457 1407q56 0 98.5 -43t42.5 -100q0 -58 -42.5 -101t-98.5 -43q-57 0 -99.5 43t-42.5 101t42.5 100.5t99.5 42.5zM20 1407q57 0 99.5 -43t42.5 -100q0 -58 -42.5 -101t-99.5 -43q-58 0 -100.5 43t-42.5 101t42.5 100.5t100.5 42.5z" />
    <glyph glyph-name="ntilde" unicode="&#xf1;" horiz-adv-x="987" 
d="M895 0h-244v575q0 90 -28 129t-88 39q-92 0 -143.5 -78t-51.5 -206v-459h-244v877l234 81v-145q42 71 116.5 110.5t157.5 39.5q291 0 291 -369v-594zM874 1395q-8 -131 -68 -204t-158 -73q-63 0 -157 47q-88 47 -117 47q-66 0 -82 -96h-156q23 275 232 275q69 0 159 -45
q86 -43 117 -43q58 0 76 92h154z" />
    <glyph glyph-name="oacute" unicode="&#xf3;" horiz-adv-x="1083" 
d="M543 963q205 0 342 -136t137 -356t-137.5 -355.5t-341.5 -135.5q-207 0 -344.5 136t-137.5 355t137 355.5t345 136.5zM543 182q107 0 170 79t63 210t-63 210t-170 79q-108 0 -173 -79.5t-65 -211.5q0 -129 64.5 -208t173.5 -79zM883 1403l-281 -307h-182l190 307h273z
" />
    <glyph glyph-name="ograve" unicode="&#xf2;" horiz-adv-x="1083" 
d="M543 963q205 0 342 -136t137 -356t-137.5 -355.5t-341.5 -135.5q-207 0 -344.5 136t-137.5 355t137 355.5t345 136.5zM543 182q107 0 170 79t63 210t-63 210t-170 79q-108 0 -173 -79.5t-65 -211.5q0 -129 64.5 -208t173.5 -79zM707 1096h-182l-281 307h273z" />
    <glyph glyph-name="ocircumflex" unicode="&#xf4;" horiz-adv-x="1083" 
d="M543 963q205 0 342 -136t137 -356t-137.5 -355.5t-341.5 -135.5q-207 0 -344.5 136t-137.5 355t137 355.5t345 136.5zM543 182q107 0 170 79t63 210t-63 210t-170 79q-108 0 -173 -79.5t-65 -211.5q0 -129 64.5 -208t173.5 -79zM872 1096h-190l-139 186l-140 -186h-190
l196 321h265z" />
    <glyph glyph-name="odieresis" unicode="&#xf6;" horiz-adv-x="1083" 
d="M543 963q205 0 342 -136t137 -356t-137.5 -355.5t-341.5 -135.5q-207 0 -344.5 136t-137.5 355t137 355.5t345 136.5zM543 182q107 0 170 79t63 210t-63 210t-170 79q-108 0 -173 -79.5t-65 -211.5q0 -129 64.5 -208t173.5 -79zM760 1407q56 0 98.5 -43t42.5 -100
q0 -58 -42.5 -101t-98.5 -43q-57 0 -99.5 43t-42.5 101t42.5 100.5t99.5 42.5zM323 1407q57 0 99.5 -43t42.5 -100q0 -58 -42.5 -101t-99.5 -43q-58 0 -100.5 43t-42.5 101t42.5 100.5t100.5 42.5z" />
    <glyph glyph-name="otilde" unicode="&#xf5;" horiz-adv-x="1083" 
d="M543 963q205 0 342 -136t137 -356t-137.5 -355.5t-341.5 -135.5q-207 0 -344.5 136t-137.5 355t137 355.5t345 136.5zM543 182q107 0 170 79t63 210t-63 210t-170 79q-108 0 -173 -79.5t-65 -211.5q0 -129 64.5 -208t173.5 -79zM911 1395q-8 -131 -68 -204t-158 -73
q-63 0 -157 47q-88 47 -117 47q-66 0 -82 -96h-156q23 275 232 275q69 0 159 -45q86 -43 117 -43q58 0 76 92h154z" />
    <glyph glyph-name="uacute" unicode="&#xfa;" horiz-adv-x="1006" 
d="M936 78l-184 -98q-80 88 -90 155q-45 -74 -120 -114.5t-159 -40.5q-293 0 -293 366v598h246v-577q0 -85 26.5 -126.5t90.5 -41.5q92 0 143 77.5t51 206.5v461h244v-668q0 -75 8 -112.5t37 -85.5zM842 1403l-281 -307h-182l190 307h273z" />
    <glyph glyph-name="ugrave" unicode="&#xf9;" horiz-adv-x="1006" 
d="M936 78l-184 -98q-80 88 -90 155q-45 -74 -120 -114.5t-159 -40.5q-293 0 -293 366v598h246v-577q0 -85 26.5 -126.5t90.5 -41.5q92 0 143 77.5t51 206.5v461h244v-668q0 -75 8 -112.5t37 -85.5zM643 1096h-182l-281 307h273z" />
    <glyph glyph-name="ucircumflex" unicode="&#xfb;" horiz-adv-x="1006" 
d="M936 78l-184 -98q-80 88 -90 155q-45 -74 -120 -114.5t-159 -40.5q-293 0 -293 366v598h246v-577q0 -85 26.5 -126.5t90.5 -41.5q92 0 143 77.5t51 206.5v461h244v-668q0 -75 8 -112.5t37 -85.5zM823 1096h-190l-139 186l-140 -186h-190l196 321h265z" />
    <glyph glyph-name="udieresis" unicode="&#xfc;" horiz-adv-x="1006" 
d="M936 78l-184 -98q-80 88 -90 155q-45 -74 -120 -114.5t-159 -40.5q-293 0 -293 366v598h246v-577q0 -85 26.5 -126.5t90.5 -41.5q92 0 143 77.5t51 206.5v461h244v-668q0 -75 8 -112.5t37 -85.5zM711 1407q56 0 98.5 -43t42.5 -100q0 -58 -42.5 -101t-98.5 -43
q-57 0 -99.5 43t-42.5 101t42.5 100.5t99.5 42.5zM274 1407q57 0 99.5 -43t42.5 -100q0 -58 -42.5 -101t-99.5 -43q-58 0 -100.5 43t-42.5 101t42.5 100.5t100.5 42.5z" />
    <glyph glyph-name="dagger" unicode="&#x2020;" horiz-adv-x="940" 
d="M883 961l-101 -203h-192v-1104l-238 -72v1176h-297l101 203h196v464l238 72v-536h293z" />
    <glyph glyph-name="degree" unicode="&#xb0;" horiz-adv-x="791" 
d="M395 1380q135 0 231.5 -96t96.5 -231t-96.5 -230.5t-231.5 -95.5q-136 0 -231.5 95.5t-95.5 230.5q0 136 95.5 231.5t231.5 95.5zM395 897q66 0 112 45.5t46 110.5t-46 111t-112 46q-64 0 -109.5 -46t-45.5 -111t45.5 -110.5t109.5 -45.5z" />
    <glyph glyph-name="cent" unicode="&#xa2;" horiz-adv-x="1036" 
d="M928 285q-139 -95 -328 -95h-49l-53 -260h-152l60 291q-140 52 -213.5 171.5t-73.5 285.5q0 225 130.5 360.5t350.5 135.5h2l51 247h152l-55 -266q105 -26 172 -76l-107 -180q-58 39 -106 53l-117 -561h8q119 0 223 76zM559 967q-93 -17 -145 -95.5t-52 -195.5
q0 -153 91 -232z" />
    <glyph glyph-name="sterling" unicode="&#xa3;" horiz-adv-x="997" 
d="M952 276l-45 -237q-105 -59 -245 -59q-72 0 -192 26q-116 25 -183 25q-95 0 -199 -51v227q77 38 133 45q51 106 51 258h-166v217h101q-60 137 -60 250q0 182 111.5 292.5t294.5 110.5q216 0 387 -141l-106 -188q-132 110 -259 110q-86 0 -133 -51t-47 -141q0 -60 62 -242
h358l-74 -217h-239q0 -173 -62 -270q25 -4 79 -17q92 -22 153 -22q142 0 280 75z" />
    <glyph glyph-name="section" unicode="&#xa7;" horiz-adv-x="1012" 
d="M770 1198q-132 102 -260 102q-66 0 -109 -36.5t-43 -96.5q0 -54 40 -100.5t218 -155.5q113 -68 178.5 -119.5t107.5 -124t42 -171.5q0 -183 -147 -281q121 -121 121 -266q0 -167 -116.5 -271t-285.5 -104q-216 0 -414 150l119 198q136 -119 295 -119q62 0 101.5 35.5
t39.5 98.5q0 57 -52.5 104.5t-222.5 162.5q-206 138 -258 230.5t-52 188.5q0 172 149 278q-108 119 -108 266q0 148 106 245t266 97q229 0 404 -127zM621 340q73 53 73 129q0 51 -36 97.5t-136 113.5q-115 77 -151 106q-68 -53 -68 -133q0 -99 111 -174z" />
    <glyph glyph-name="bullet" unicode="&#x2022;" horiz-adv-x="1036" 
d="M518 1055q159 0 272 -113t113 -272t-113 -272t-272 -113t-272 113t-113 272t113 272t272 113z" />
    <glyph glyph-name="paragraph" unicode="&#xb6;" horiz-adv-x="1069" 
d="M1008 1204h-99v-1509h-172v1509h-127v-1509h-172v809q-176 8 -276.5 127t-100.5 297q0 194 110.5 313t303.5 119h533v-156z" />
    <glyph glyph-name="germandbls" unicode="&#xdf;" horiz-adv-x="1102" 
d="M782 817q258 -99 258 -389q0 -205 -111 -328t-288 -123q-142 0 -258 86l109 179q63 -45 137 -45q80 0 123 60.5t43 170.5q0 129 -71 195.5t-333 66.5l103 195q213 0 213 211q0 92 -48.5 137t-126.5 45q-93 0 -142.5 -65t-49.5 -187v-1026h-244v995q0 246 117 379t338 133
q184 0 292.5 -105.5t108.5 -281.5q0 -199 -170 -303z" />
    <glyph glyph-name="registered" unicode="&#xae;" horiz-adv-x="1378" 
d="M690 1384q257 0 440 -199t183 -505q0 -310 -184.5 -508.5t-438.5 -198.5q-257 0 -440.5 200.5t-183.5 506.5t183 505t441 199zM690 115q205 0 345.5 157.5t140.5 407.5t-140 406.5t-346 156.5t-345.5 -156.5t-139.5 -406.5t140 -407.5t345 -157.5zM1008 281h-187
l-176 290h-74v-290h-157v798h213q177 0 257.5 -60t80.5 -181q0 -171 -164 -234zM571 707h43q122 0 160.5 32.5t38.5 96.5q0 54 -37.5 81t-152.5 27h-52v-237z" />
    <glyph glyph-name="copyright" unicode="&#xa9;" horiz-adv-x="1378" 
d="M690 1384q257 0 440 -199t183 -505q0 -310 -184.5 -508.5t-438.5 -198.5q-257 0 -440.5 200.5t-183.5 506.5t183 505t441 199zM690 115q205 0 345.5 157.5t140.5 407.5t-140 406.5t-346 156.5t-345.5 -156.5t-139.5 -406.5t140 -407.5t345 -157.5zM967 340
q-109 -78 -250 -78q-176 0 -288 113t-112 303t112 303t288 113q141 0 250 -78l-86 -133q-73 59 -164 59q-105 0 -163 -69.5t-58 -194.5q0 -126 58 -195t163 -69q91 0 164 59z" />
    <glyph glyph-name="trademark" unicode="&#x2122;" horiz-adv-x="1606" 
d="M1554 561h-178l-67 402l-162 -410h-72l-166 414l-71 -406h-168l147 805h96l205 -485l193 485h96zM678 1202h-221v-641h-178v641h-222v156h621v-156z" />
    <glyph glyph-name="acute" unicode="&#xb4;" horiz-adv-x="645" 
d="M592 1403l-281 -307h-182l190 307h273z" />
    <glyph glyph-name="dieresis" unicode="&#xa8;" horiz-adv-x="645" 
d="M543 1407q56 0 98.5 -43t42.5 -100q0 -58 -42.5 -101t-98.5 -43q-57 0 -99.5 43t-42.5 101t42.5 100.5t99.5 42.5zM106 1407q57 0 99.5 -43t42.5 -100q0 -58 -42.5 -101t-99.5 -43q-58 0 -100.5 43t-42.5 101t42.5 100.5t100.5 42.5z" />
    <glyph glyph-name="notequal" unicode="&#x2260;" 
d="M924 410h-424l-166 -500h-213l166 500h-217v192h280l76 199h-356v192h422l163 490h211l-164 -490h222v-192h-285l-76 -199h361v-192z" />
    <glyph glyph-name="AE" unicode="&#xc6;" horiz-adv-x="1694" 
d="M1657 0h-834v272h-393l-156 -272h-256l777 1358h837l-131 -219h-418v-320h414v-231h-414v-357h439zM823 481v477l-272 -477h272z" />
    <glyph glyph-name="Oslash" unicode="&#xd8;" horiz-adv-x="1409" 
d="M1186 1151q157 -194 157 -469q0 -309 -183.5 -505.5t-454.5 -196.5q-186 0 -332 96l-60 -76h-247l155 207q-155 194 -155 475q0 305 184.5 500.5t454.5 195.5q176 0 331 -98l58 78h249zM883 1079q-79 56 -178 56q-165 0 -269 -124.5t-104 -328.5q0 -145 55 -254zM524 279
q74 -56 181 -56q163 0 267.5 126t104.5 333q0 139 -55 250z" />
    <glyph glyph-name="infinity" unicode="&#x221e;" horiz-adv-x="1460" 
d="M688 811q104 135 179 184t155 49q133 0 211 -89t78 -232q0 -190 -94.5 -263t-194.5 -73q-80 0 -155 49t-179 185q-134 -172 -289 -172q-104 0 -174.5 79t-70.5 189q0 108 70.5 187t174.5 79q155 0 289 -172zM758 717q137 -217 262 -217q83 0 130.5 59.5t47.5 153.5
q0 98 -48 158.5t-134 60.5q-101 0 -258 -215zM621 717q-122 155 -222 155q-61 0 -98 -43.5t-37 -109.5t38 -111t99 -45q104 0 220 154z" />
    <glyph glyph-name="plusminus" unicode="&#xb1;" horiz-adv-x="1026" 
d="M932 578h-299v-302h-197v302h-301v194h301v305h197v-305h299v-194zM936 0h-799v195h799v-195z" />
    <glyph glyph-name="lessequal" unicode="&#x2264;" horiz-adv-x="1124" 
d="M131 762v194l860 371v-219l-608 -250l608 -252v-223zM111 264h903v-211h-903v211z" />
    <glyph glyph-name="greaterequal" unicode="&#x2265;" horiz-adv-x="1073" 
d="M967 956v-194l-861 -379v223l609 252l-609 250v219zM84 264h903v-211h-903v211z" />
    <glyph glyph-name="yen" unicode="&#xa5;" horiz-adv-x="1206" 
d="M1165 1358l-383 -674h267v-184h-326v-113h326v-184h-326v-203h-258v203h-336v184h336v113h-336v184h279l-367 674h276l283 -539l289 539h276z" />
    <glyph glyph-name="mu1" unicode="&#xb5;" horiz-adv-x="1006" 
d="M90 944h246v-577q0 -85 26.5 -126.5t90.5 -41.5q92 0 143 77.5t51 206.5v461h244v-668q0 -75 8 -112.5t37 -85.5l-184 -98q-80 88 -90 155q-45 -74 -120 -114.5t-159 -40.5q-21 0 -49 4v-326l-244 -76v1362z" />
    <glyph glyph-name="partialdiff" unicode="&#x2202;" horiz-adv-x="1012" 
d="M426 1139l-135 59q136 293 360 293q159 0 240.5 -150t81.5 -415q0 -273 -82 -500.5t-231.5 -339t-294.5 -111.5t-227.5 95t-82.5 252q0 282 211 437.5t592 164.5q-4 243 -55.5 341.5t-149.5 98.5q-143 0 -227 -225zM854 797q-250 -13 -367.5 -75.5t-184 -181.5
t-66.5 -237q0 -76 48.5 -133t121.5 -57q133 0 270 157.5t178 526.5z" />
    <glyph glyph-name="summation" unicode="&#x2211;" horiz-adv-x="1460" 
d="M139 1491h1237v-164h-989l608 -774l-649 -823h1040v-160h-1263v186l618 789l-602 772v174z" />
    <glyph glyph-name="product" unicode="&#x220f;" horiz-adv-x="1686" 
d="M162 1491h1362v-1921h-193v1747h-977v-1747h-192v1921z" />
    <glyph glyph-name="integral" unicode="&#x222b;" horiz-adv-x="561" 
d="M201 895l16 561q3 112 28 208.5t73 148t116 51.5q48 0 87.5 -32t39.5 -77q0 -43 -26.5 -72.5t-67.5 -29.5q-33 0 -74 33q-27 22 -41 22q-41 0 -41 -63q0 -28 11 -146q36 -376 36 -633q0 -137 -7.5 -340.5t-9 -306t-22.5 -210t-71.5 -168t-128.5 -60.5q-53 0 -86 33.5
t-33 87.5q0 42 24 70t66 28q38 0 74 -37q26 -26 45 -26q39 0 39 61q0 21 -10 119q-37 313 -37 739v39z" />
    <glyph glyph-name="ordfeminine" unicode="&#xaa;" horiz-adv-x="739" 
d="M688 973l-133 -64q-33 25 -49 72q-72 -74 -180 -74q-125 0 -205 84.5t-80 222.5q0 135 84 220.5t215 85.5q116 0 180 -76l133 72v-416q0 -85 35 -127zM346 1040q67 0 104 46.5t37 127.5q0 78 -36 125t-105 47q-66 0 -102.5 -47t-36.5 -125q0 -82 36 -128t103 -46z" />
    <glyph glyph-name="ordmasculine" unicode="&#xba;" horiz-adv-x="709" 
d="M348 1520q135 0 221 -85.5t86 -220.5q0 -136 -86 -221.5t-221 -85.5t-221 86.5t-86 220.5t86 220t221 86zM348 1040q67 0 104 47.5t37 126.5q0 80 -36.5 126t-104.5 46t-105.5 -46t-37.5 -126q0 -78 38 -126t105 -48z" />
    <glyph glyph-name="Ohm" unicode="&#x2126;" horiz-adv-x="1573" 
d="M496 160q-346 214 -346 643q0 307 177 503.5t482 196.5q292 0 468.5 -196.5t176.5 -505.5q0 -414 -344 -641l365 6v-166h-576v176q169 86 258.5 244t89.5 356q0 248 -117 405.5t-325 157.5q-209 0 -326 -155.5t-117 -403.5q0 -208 87.5 -366t255.5 -234v-180h-578v168z
" />
    <glyph glyph-name="ae" unicode="&#xe6;" horiz-adv-x="1751" 
d="M1696 502l-688 -142q46 -180 221 -180q134 0 287 92l96 -180q-176 -112 -389 -112q-220 0 -357 172q-82 -89 -165 -130.5t-191 -41.5q-200 0 -324.5 133.5t-124.5 357.5q0 221 127.5 356.5t333.5 135.5q167 0 271 -127v51l200 71v-65q106 70 234 70q195 0 325.5 -122
t143.5 -339zM1436 618q-61 144 -207 144q-93 0 -157.5 -62.5t-78.5 -173.5zM760 297v330q-106 133 -238 133q-99 0 -158 -79.5t-59 -207.5q0 -132 58 -212.5t159 -80.5q137 0 238 117z" />
    <glyph glyph-name="oslash" unicode="&#xf8;" horiz-adv-x="1085" 
d="M907 803q115 -137 115 -332q0 -220 -137.5 -355.5t-341.5 -135.5q-135 0 -250 63l-35 -43h-205l117 143q-109 134 -109 328q0 219 137 355.5t345 136.5q126 0 239 -62l43 53h205zM645 731q-47 29 -102 29q-108 0 -173 -79.5t-65 -211.5q0 -74 25 -129zM430 211
q48 -29 113 -29q107 0 170 79t63 210q0 72 -26 135z" />
    <glyph glyph-name="questiondown" unicode="&#xbf;" horiz-adv-x="889" 
d="M598 1028q62 0 106 -43.5t44 -105.5t-44.5 -106t-105.5 -44q-62 0 -105.5 44t-43.5 106q0 63 43 106t106 43zM844 -281q-169 -120 -375 -120q-193 0 -305.5 107t-112.5 290q0 375 434 463v119l228 77v-348q-416 -21 -416 -299q0 -196 188 -196q141 0 260 94z" />
    <glyph glyph-name="exclamdown" unicode="&#xa1;" horiz-adv-x="516" 
d="M258 1028q63 0 106.5 -43.5t43.5 -105.5t-44 -106t-106 -44q-61 0 -105 44t-44 106t43.5 105.5t105.5 43.5zM391 -399l-270 -19l45 1030h184z" />
    <glyph glyph-name="logicalnot" unicode="&#xac;" horiz-adv-x="1036" 
d="M895 434h-176v316h-574v178h750v-494z" />
    <glyph glyph-name="radical" unicode="&#x221a;" horiz-adv-x="1124" 
d="M1124 1870l-311 -1948l-496 1022l-198 -92l-35 63l301 152l403 -823h5l258 1626h73z" />
    <glyph glyph-name="florin" unicode="&#x192;" horiz-adv-x="887" 
d="M920 1360q-107 -17 -169.5 -57t-97.5 -111t-54 -180l-42 -236h252l-39 -198h-252l-82 -444q-32 -179 -102 -296t-177 -179t-249 -69l-49 150q152 27 226.5 111.5t104.5 249.5l89 477h-183l41 198h180l43 237q21 113 65 206t108.5 156.5t149.5 97t187 36.5z" />
    <glyph glyph-name="approxequal" unicode="&#x2248;" horiz-adv-x="1124" 
d="M1073 854q-119 -115 -276 -115q-96 0 -257 71q-148 64 -229 64q-124 0 -260 -137v205q104 121 279 121q98 0 268 -72q145 -61 217 -61q133 0 258 137v-213zM1073 492q-117 -113 -276 -113q-96 0 -257 69q-148 64 -229 64q-123 0 -260 -135v205q105 118 279 118
q100 0 276 -73q142 -60 209 -60q133 0 258 138v-213z" />
    <glyph glyph-name="increment" unicode="&#x2206;" horiz-adv-x="1253" 
d="M1227 0h-1200l628 1386zM991 82l-399 967l-440 -967h839z" />
    <glyph glyph-name="guillemotleft" unicode="&#xab;" horiz-adv-x="1067" 
d="M1020 141h-242l-264 336l264 336h242l-264 -336zM567 141h-243l-265 336l265 336h243l-264 -336z" />
    <glyph glyph-name="guillemotright" unicode="&#xbb;" horiz-adv-x="1067" 
d="M289 141h-242l264 336l-264 336h242l264 -336zM743 141h-243l264 336l-264 336h243l265 -336z" />
    <glyph glyph-name="ellipsis" unicode="&#x2026;" horiz-adv-x="1397" 
d="M227 287q65 0 110.5 -46t45.5 -110t-45.5 -110t-110.5 -46q-64 0 -109.5 46t-45.5 110t45.5 110t109.5 46zM698 287q65 0 110.5 -46t45.5 -110t-45.5 -110t-110.5 -46q-64 0 -109.5 46t-45.5 110t45.5 110t109.5 46zM1169 287q65 0 110.5 -46t45.5 -110t-45.5 -110
t-110.5 -46q-64 0 -109.5 46t-45.5 110t45.5 110t109.5 46z" />
    <glyph glyph-name="nbspace" unicode="&#xa0;" horiz-adv-x="395" 
 />
    <glyph glyph-name="Agrave" unicode="&#xc0;" horiz-adv-x="1243" 
d="M1223 0h-275l-100 268h-465l-98 -268h-265l539 1376h123zM772 477l-158 422l-155 -422h313zM766 1438h-182l-281 307h273z" />
    <glyph glyph-name="Atilde" unicode="&#xc3;" horiz-adv-x="1243" 
d="M1223 0h-275l-100 268h-465l-98 -268h-265l539 1376h123zM772 477l-158 422l-155 -422h313zM981 1717q-8 -131 -68 -204t-158 -73q-63 0 -157 47q-88 47 -117 47q-66 0 -82 -96h-156q23 275 232 275q69 0 159 -45q86 -43 117 -43q58 0 76 92h154z" />
    <glyph glyph-name="Otilde" unicode="&#xd5;" horiz-adv-x="1409" 
d="M705 1378q270 0 454 -195t184 -501q0 -309 -183.5 -505.5t-454.5 -196.5t-455 197t-184 505q0 305 184.5 500.5t454.5 195.5zM705 223q163 0 267.5 126t104.5 333q0 204 -104.5 328.5t-267.5 124.5q-165 0 -269 -124.5t-104 -328.5q0 -209 104.5 -334t268.5 -125z
M1073 1717q-8 -131 -68 -204t-158 -73q-63 0 -157 47q-88 47 -117 47q-66 0 -82 -96h-156q23 275 232 275q69 0 159 -45q86 -43 117 -43q58 0 76 92h154z" />
    <glyph glyph-name="OE" unicode="&#x152;" horiz-adv-x="1954" 
d="M1919 0h-836v123q-160 -143 -378 -143q-271 0 -455 197t-184 505q0 305 184.5 500.5t454.5 195.5q214 0 378 -143v123h809l-129 -219h-420v-320h414v-231h-414v-357h439zM705 223q164 0 271 126.5t107 332.5t-107.5 329.5t-270.5 123.5q-165 0 -269 -124.5t-104 -328.5
q0 -209 104.5 -334t268.5 -125z" />
    <glyph glyph-name="oe" unicode="&#x153;" horiz-adv-x="1778" 
d="M1724 502l-688 -142q47 -180 221 -180q134 0 287 92l96 -180q-175 -112 -389 -112q-209 0 -350 159q-137 -159 -358 -159q-207 0 -344.5 136t-137.5 355t137 355.5t345 136.5q221 0 358 -160q141 160 354 160q196 0 326.5 -122t142.5 -339zM1464 618q-61 144 -207 144
q-92 0 -157 -62.5t-78 -173.5zM543 182q107 0 170 79t63 210t-63 210t-170 79q-108 0 -173 -79.5t-65 -211.5q0 -129 64.5 -208t173.5 -79z" />
    <glyph glyph-name="endash" unicode="&#x2013;" horiz-adv-x="956" 
d="M934 397h-911v197h911v-197z" />
    <glyph glyph-name="emdash" unicode="&#x2014;" horiz-adv-x="1778" 
d="M1757 397h-1737v197h1737v-197z" />
    <glyph glyph-name="quotedblleft" unicode="&#x201c;" horiz-adv-x="907" 
d="M309 1206q49 -13 78 -52.5t29 -88.5q0 -63 -43.5 -106.5t-106.5 -43.5q-68 0 -108.5 47t-40.5 119q0 158 178 426h143q-88 -149 -129 -301zM715 1206q49 -13 77.5 -52.5t28.5 -88.5q0 -63 -43.5 -106.5t-105.5 -43.5q-68 0 -109 47t-41 119q0 158 178 426h144
q-88 -149 -129 -301z" />
    <glyph glyph-name="quotedblright" unicode="&#x201d;" horiz-adv-x="907" 
d="M598 1217q-49 13 -77.5 52t-28.5 89q0 63 43 106t106 43q68 0 109 -46.5t41 -119.5q0 -158 -179 -426h-143q88 149 129 302zM193 1217q-50 13 -78.5 52t-28.5 89q0 63 43.5 106t106.5 43q67 0 108 -46.5t41 -119.5q0 -158 -178 -426h-144q89 149 130 302z" />
    <glyph glyph-name="quoteleft" unicode="&#x2018;" horiz-adv-x="502" 
d="M309 1206q49 -13 78 -52.5t29 -88.5q0 -63 -43.5 -106.5t-106.5 -43.5q-68 0 -108.5 47t-40.5 119q0 158 178 426h143q-88 -149 -129 -301z" />
    <glyph glyph-name="quoteright" unicode="&#x2019;" horiz-adv-x="502" 
d="M246 1219q-49 13 -78 52t-29 89q0 63 43.5 106t106.5 43q68 0 108.5 -46.5t40.5 -119.5q0 -157 -178 -425h-143q88 148 129 301z" />
    <glyph glyph-name="divide" unicode="&#xf7;" horiz-adv-x="1026" 
d="M514 1167q58 0 98.5 -41.5t40.5 -99.5q0 -57 -40.5 -99t-98.5 -42t-99.5 42t-41.5 99q0 58 41.5 99.5t99.5 41.5zM909 578h-796v194h796v-194zM514 477q58 0 98.5 -41.5t40.5 -99.5q0 -57 -40.5 -98t-98.5 -41t-99.5 41t-41.5 98q0 58 41.5 99.5t99.5 41.5z" />
    <glyph glyph-name="lozenge" unicode="&#x25ca;" horiz-adv-x="1012" 
d="M549 1421l418 -712l-418 -709h-111l-391 709l391 712h111zM496 1325l-340 -616l340 -615l358 615z" />
    <glyph glyph-name="ydieresis" unicode="&#xff;" horiz-adv-x="958" 
d="M928 944l-506 -1288l-277 -86l205 510l-319 864h258l180 -579l221 579h238zM691 1407q56 0 98.5 -43t42.5 -100q0 -58 -42.5 -101t-98.5 -43q-57 0 -99.5 43t-42.5 101t42.5 100.5t99.5 42.5zM254 1407q57 0 99.5 -43t42.5 -100q0 -58 -42.5 -101t-99.5 -43
q-58 0 -100.5 43t-42.5 101t42.5 100.5t100.5 42.5z" />
    <glyph glyph-name="Ydieresis" unicode="&#x178;" horiz-adv-x="1196" 
d="M1159 1358l-440 -776v-582h-260v580l-424 778h276l285 -539l289 539h274zM816 1737q56 0 98.5 -43t42.5 -100q0 -58 -42.5 -101t-98.5 -43q-57 0 -99.5 43t-42.5 101t42.5 100.5t99.5 42.5zM379 1737q57 0 99.5 -43t42.5 -100q0 -58 -42.5 -101t-99.5 -43
q-58 0 -100.5 43t-42.5 101t42.5 100.5t100.5 42.5z" />
    <glyph glyph-name="fraction" unicode="&#x2215;" horiz-adv-x="147" 
d="M539 1384l-742 -1411h-186l741 1411h187z" />
    <glyph glyph-name="currency" unicode="&#xa4;" horiz-adv-x="1257" 
d="M1141 367l-160 -162l-145 143q-101 -59 -218 -59q-124 0 -221 59l-143 -143l-162 162l148 143q-60 104 -60 213q0 118 60 217l-148 145l162 160l145 -145q102 59 219 59q114 0 216 -59l147 147l160 -162l-148 -145q62 -100 62 -217q0 -114 -60 -215zM618 506
q90 0 155 65.5t65 155.5q0 91 -65.5 154t-154.5 63q-92 0 -156.5 -63.5t-64.5 -153.5q0 -91 65 -156t156 -65z" />
    <glyph glyph-name="guilsinglleft" unicode="&#x2039;" horiz-adv-x="643" 
d="M573 141h-241l-264 336l264 336h241l-264 -336z" />
    <glyph glyph-name="guilsinglright" unicode="&#x203a;" horiz-adv-x="643" 
d="M575 477l-264 -336h-241l264 336l-264 336h241z" />
    <glyph glyph-name="daggerdbl" unicode="&#x2021;" horiz-adv-x="940" 
d="M883 573l-101 -202h-192v-717l-238 -72v789h-297l101 202h196v269h-297l101 202h196v381l238 72v-453h293l-101 -202h-192v-269h293z" />
    <glyph glyph-name="periodcentered" unicode="&#x2219;" horiz-adv-x="496" 
d="M246 836q64 0 109.5 -46t45.5 -110t-45.5 -110t-109.5 -46t-110 46t-46 110t45.5 110t110.5 46z" />
    <glyph glyph-name="quotesinglbase" unicode="&#x201a;" horiz-adv-x="502" 
d="M209 -18q-54 11 -86.5 53.5t-32.5 95.5q0 64 46 110t110 46q68 0 112.5 -48t44.5 -118q0 -160 -180 -438h-143q89 147 129 299z" />
    <glyph glyph-name="quotedblbase" unicode="&#x201e;" horiz-adv-x="909" 
d="M209 -18q-54 11 -86.5 53.5t-32.5 95.5q0 64 46 110t110 46q68 0 112.5 -48t44.5 -118q0 -160 -180 -438h-143q89 147 129 299zM616 -18q-53 11 -85.5 53.5t-32.5 95.5q0 64 45.5 110t109.5 46q68 0 113 -48t45 -118q0 -160 -180 -438h-144q90 147 129 299z" />
    <glyph glyph-name="perthousand" unicode="&#x2030;" horiz-adv-x="2271" 
d="M1272 1384l-742 -1411h-186l741 1411h187zM356 1380q131 0 202 -116.5t71 -315.5q0 -195 -72 -313.5t-201 -118.5t-201.5 119.5t-72.5 312.5q0 198 71.5 315t202.5 117zM356 676q103 0 103 272q0 275 -103 275q-102 0 -102 -275q0 -272 102 -272zM1917 846
q130 0 201 -116.5t71 -313.5q0 -196 -71.5 -314t-200.5 -118q-130 0 -202.5 118.5t-72.5 313.5q0 197 71.5 313.5t203.5 116.5zM1917 141q102 0 102 275q0 274 -102 274t-102 -274q0 -275 102 -275zM1272 846q130 0 201 -116.5t71 -313.5q0 -196 -71.5 -314t-200.5 -118
q-130 0 -202.5 118.5t-72.5 313.5q0 197 71.5 313.5t203.5 116.5zM1272 141q102 0 102 275q0 274 -102 274q-103 0 -103 -274q0 -275 103 -275z" />
    <glyph glyph-name="Acircumflex" unicode="&#xc2;" horiz-adv-x="1243" 
d="M1223 0h-275l-100 268h-465l-98 -268h-265l539 1376h123zM772 477l-158 422l-155 -422h313zM944 1438h-190l-139 186l-140 -186h-190l196 321h265z" />
    <glyph glyph-name="Ecircumflex" unicode="&#xca;" 
d="M956 0h-833v1358h809l-131 -219h-418v-320h414v-231h-414v-357h438zM848 1438h-190l-139 186l-140 -186h-190l196 321h265z" />
    <glyph glyph-name="Aacute" unicode="&#xc1;" horiz-adv-x="1243" 
d="M1223 0h-275l-100 268h-465l-98 -268h-265l539 1376h123zM772 477l-158 422l-155 -422h313zM952 1745l-281 -307h-182l190 307h273z" />
    <glyph glyph-name="Edieresis" unicode="&#xcb;" 
d="M956 0h-833v1358h809l-131 -219h-418v-320h414v-231h-414v-357h438zM748 1737q56 0 98.5 -43t42.5 -100q0 -58 -42.5 -101t-98.5 -43q-57 0 -99.5 43t-42.5 101t42.5 100.5t99.5 42.5zM311 1737q57 0 99.5 -43t42.5 -100q0 -58 -42.5 -101t-99.5 -43q-58 0 -100.5 43
t-42.5 101t42.5 100.5t100.5 42.5z" />
    <glyph glyph-name="Egrave" unicode="&#xc8;" 
d="M956 0h-833v1358h809l-131 -219h-418v-320h414v-231h-414v-357h438zM643 1438h-182l-281 307h273z" />
    <glyph glyph-name="Iacute" unicode="&#xcd;" horiz-adv-x="528" 
d="M393 0h-260v1358h260v-1358zM590 1745l-281 -307h-182l190 307h273z" />
    <glyph glyph-name="Icircumflex" unicode="&#xce;" horiz-adv-x="528" 
d="M393 0h-260v1358h260v-1358zM592 1438h-190l-139 186l-140 -186h-190l196 321h265z" />
    <glyph glyph-name="Idieresis" unicode="&#xcf;" horiz-adv-x="528" 
d="M393 0h-260v1358h260v-1358zM474 1737q56 0 98.5 -43t42.5 -100q0 -58 -42.5 -101t-98.5 -43q-57 0 -99.5 43t-42.5 101t42.5 100.5t99.5 42.5zM37 1737q57 0 99.5 -43t42.5 -100q0 -58 -42.5 -101t-99.5 -43q-58 0 -100.5 43t-42.5 101t42.5 100.5t100.5 42.5z" />
    <glyph glyph-name="Igrave" unicode="&#xcc;" horiz-adv-x="528" 
d="M393 0h-260v1358h260v-1358zM426 1436h-182l-281 307h273z" />
    <glyph glyph-name="Oacute" unicode="&#xd3;" horiz-adv-x="1409" 
d="M705 1378q270 0 454 -195t184 -501q0 -309 -183.5 -505.5t-454.5 -196.5t-455 197t-184 505q0 305 184.5 500.5t454.5 195.5zM705 223q163 0 267.5 126t104.5 333q0 204 -104.5 328.5t-267.5 124.5q-165 0 -269 -124.5t-104 -328.5q0 -209 104.5 -334t268.5 -125z
M1036 1745l-281 -307h-182l190 307h273z" />
    <glyph glyph-name="Ocircumflex" unicode="&#xd4;" horiz-adv-x="1409" 
d="M705 1378q270 0 454 -195t184 -501q0 -309 -183.5 -505.5t-454.5 -196.5t-455 197t-184 505q0 305 184.5 500.5t454.5 195.5zM705 223q163 0 267.5 126t104.5 333q0 204 -104.5 328.5t-267.5 124.5q-165 0 -269 -124.5t-104 -328.5q0 -209 104.5 -334t268.5 -125z
M1034 1438h-190l-139 186l-140 -186h-190l196 321h265z" />
    <glyph glyph-name="apple" unicode="&#xf000;" horiz-adv-x="1036" 
d="M518 1055q159 0 272 -113t113 -272t-113 -272t-272 -113t-272 113t-113 272t113 272t272 113z" />
    <glyph glyph-name="Ograve" unicode="&#xd2;" horiz-adv-x="1409" 
d="M705 1378q270 0 454 -195t184 -501q0 -309 -183.5 -505.5t-454.5 -196.5t-455 197t-184 505q0 305 184.5 500.5t454.5 195.5zM705 223q163 0 267.5 126t104.5 333q0 204 -104.5 328.5t-267.5 124.5q-165 0 -269 -124.5t-104 -328.5q0 -209 104.5 -334t268.5 -125z
M858 1438h-182l-281 307h273z" />
    <glyph glyph-name="Uacute" unicode="&#xda;" horiz-adv-x="1231" 
d="M1114 602q0 -303 -126.5 -462.5t-371.5 -159.5q-244 0 -371.5 160t-127.5 462v756h260v-756q0 -214 55 -299.5t184 -85.5q130 0 185 85t55 300v756h258v-756zM969 1745l-281 -307h-182l190 307h273z" />
    <glyph glyph-name="Ucircumflex" unicode="&#xdb;" horiz-adv-x="1231" 
d="M1114 602q0 -303 -126.5 -462.5t-371.5 -159.5q-244 0 -371.5 160t-127.5 462v756h260v-756q0 -214 55 -299.5t184 -85.5q130 0 185 85t55 300v756h258v-756zM952 1438h-190l-139 186l-140 -186h-190l196 321h265z" />
    <glyph glyph-name="Ugrave" unicode="&#xd9;" horiz-adv-x="1231" 
d="M1114 602q0 -303 -126.5 -462.5t-371.5 -159.5q-244 0 -371.5 160t-127.5 462v756h260v-756q0 -214 55 -299.5t184 -85.5q130 0 185 85t55 300v756h258v-756zM752 1438h-182l-281 307h273z" />
    <glyph glyph-name="dotlessi" unicode="&#x131;" horiz-adv-x="477" 
d="M360 0h-243v874l243 84v-958z" />
    <glyph glyph-name="circumflex" unicode="&#x2c6;" horiz-adv-x="645" 
d="M653 1096h-190l-139 186l-140 -186h-190l196 321h265z" />
    <glyph glyph-name="tilde" unicode="&#x2dc;" horiz-adv-x="846" 
d="M791 1395q-8 -131 -68 -204t-158 -73q-63 0 -157 47q-88 47 -117 47q-66 0 -82 -96h-156q23 275 232 275q69 0 159 -45q86 -43 117 -43q58 0 76 92h154z" />
    <glyph glyph-name="macron" unicode="&#x2c9;" horiz-adv-x="645" 
d="M653 1141h-659v188h659v-188z" />
    <glyph glyph-name="breve" unicode="&#x2d8;" horiz-adv-x="645" 
d="M637 1409q-27 -313 -311 -313q-287 0 -314 313h181q23 -137 133 -137t131 137h180z" />
    <glyph glyph-name="dotaccent" unicode="&#x2d9;" horiz-adv-x="645" 
d="M322 1366q61 0 106 -45t45 -109q0 -62 -44.5 -105.5t-106.5 -43.5t-106 44t-44 105q0 63 44 108.5t106 45.5z" />
    <glyph glyph-name="ring" unicode="&#x2da;" horiz-adv-x="606" 
d="M305 1556q97 0 165.5 -67t68.5 -164q0 -96 -68.5 -163.5t-165.5 -67.5t-165 67.5t-68 163.5q0 98 67.5 164.5t165.5 66.5zM305 1221q41 0 72 31.5t31 72.5q0 43 -30.5 74t-72.5 31q-43 0 -73.5 -31t-30.5 -74q0 -42 31 -73t73 -31z" />
    <glyph glyph-name="cedilla" unicode="&#xb8;" horiz-adv-x="645" 
d="M334 -76q19 8 43 8q84 0 138 -45.5t54 -122.5q0 -96 -77 -152t-189 -56q-116 0 -246 59l54 111q96 -41 165 -41q105 0 105 73q0 62 -94 62q-43 0 -88 -17l-70 54l141 172h140z" />
    <glyph glyph-name="hungarumlaut" unicode="&#x2dd;" horiz-adv-x="645" 
d="M489 1403l-280 -307h-184l190 307h274zM895 1403l-281 -307h-184l191 307h274z" />
    <glyph glyph-name="ogonek" unicode="&#x2db;" horiz-adv-x="645" 
d="M590 -334q-119 -110 -279 -110q-101 0 -162 51.5t-61 144.5q0 62 38 119.5t119.5 110.5t92.5 53h172q-209 -137 -209 -250q0 -34 20 -52t50 -18q51 0 135 56z" />
    <glyph glyph-name="caron" unicode="&#x2c7;" horiz-adv-x="645" 
d="M653 1417l-198 -321h-265l-196 321h190l140 -186l139 186h190z" />
    <glyph glyph-name="Lslash" unicode="&#x141;" horiz-adv-x="971" 
d="M0 236v299l123 139v684h260v-389l192 219v-299l-192 -219v-439h426l135 -231h-821v375z" />
    <glyph glyph-name="lslash" unicode="&#x142;" horiz-adv-x="436" 
d="M-23 283v303l119 137v698l244 76v-491l111 129v-304l-111 -129v-702h-244v420z" />
    <glyph glyph-name="Scaron" unicode="&#x160;" horiz-adv-x="995" 
d="M774 1085q-123 84 -260 84q-82 0 -132 -38t-50 -105q0 -54 39.5 -102t200.5 -126q115 -56 187 -103t123.5 -127.5t51.5 -198.5q0 -188 -120.5 -288.5t-330.5 -100.5q-106 0 -221 37t-196 102l122 203q141 -107 299 -107q181 0 181 145q0 52 -37.5 98t-190.5 119
q-114 55 -186 103t-124 132.5t-52 211.5q0 166 119.5 263t316.5 97q216 0 379 -112zM838 1772l-198 -321h-265l-196 321h190l140 -186l139 186h190z" />
    <glyph glyph-name="scaron" unicode="&#x161;" horiz-adv-x="776" 
d="M602 717q-95 61 -201 61q-110 0 -110 -86q0 -45 31.5 -67t117.5 -52q176 -59 230.5 -132.5t54.5 -170.5q0 -138 -98.5 -214t-247.5 -76q-184 0 -328 112l99 156q102 -84 231 -84q111 0 111 92q0 34 -26.5 58.5t-121.5 56.5q-84 28 -143 58.5t-103.5 92.5t-44.5 162
q0 138 100 208.5t244 70.5q174 0 301 -97zM717 1417l-198 -321h-265l-196 321h190l140 -186l139 186h190z" />
    <glyph glyph-name="Zcaron" unicode="&#x17d;" horiz-adv-x="1133" 
d="M1096 233l-127 -233h-924l604 1126h-563l127 232h860l-602 -1125h625zM956 1759l-198 -321h-265l-196 321h190l140 -186l139 186h190z" />
    <glyph glyph-name="zcaron" unicode="&#x17e;" horiz-adv-x="903" 
d="M870 207l-110 -207h-735l446 741h-393l106 203h688l-444 -737h442zM842 1417l-198 -321h-265l-196 321h190l140 -186l139 186h190z" />
    <glyph glyph-name="brokenbar" unicode="&#xa6;" horiz-adv-x="436" 
d="M340 633h-244v823h244v-823zM340 -436h-244v825h244v-825z" />
    <glyph glyph-name="Eth" unicode="&#xd0;" horiz-adv-x="1210" 
d="M0 573v211h123v574h315q338 0 522.5 -173t184.5 -497t-189.5 -506t-517.5 -182h-315v573h-123zM383 236h66q430 0 430 452q0 214 -109.5 324t-320.5 110h-66v-338h145v-211h-145v-337z" />
    <glyph glyph-name="eth" unicode="&#xf0;" horiz-adv-x="1083" 
d="M735 1198q287 -333 287 -727q0 -220 -137.5 -355.5t-341.5 -135.5q-207 0 -344.5 136t-137.5 355t137 355.5t345 136.5q41 0 92 -11q-57 90 -92 131l-170 -96l-99 131l148 82q-89 97 -193 186l150 103q134 -85 231 -178l148 84l96 -129zM543 182q107 0 170 79t63 210
t-63 210t-170 79q-108 0 -173 -79.5t-65 -211.5q0 -129 64.5 -208t173.5 -79z" />
    <glyph glyph-name="Yacute" unicode="&#xdd;" horiz-adv-x="1196" 
d="M1159 1358l-440 -776v-582h-260v580l-424 778h276l285 -539l289 539h274zM938 1745l-281 -307h-182l190 307h273z" />
    <glyph glyph-name="yacute" unicode="&#xfd;" horiz-adv-x="958" 
d="M928 944l-506 -1288l-277 -86l205 510l-319 864h258l180 -579l221 579h238zM830 1403l-281 -307h-182l190 307h273z" />
    <glyph glyph-name="Thorn" unicode="&#xde;" horiz-adv-x="1026" 
d="M383 1145h63q253 0 388 -109t135 -321q0 -217 -136.5 -328t-386.5 -111h-63v-276h-260v1358h260v-213zM383 492h37q158 0 220 55t62 168q0 129 -71.5 173t-202.5 44h-45v-440z" />
    <glyph glyph-name="thorn" unicode="&#xfe;" horiz-adv-x="1104" 
d="M340 872q102 91 266 91q190 0 313 -139t123 -351q0 -220 -127.5 -356.5t-324.5 -136.5q-147 0 -250 98v-420l-244 -76v1841l244 76v-627zM571 182q104 0 166 80.5t62 208.5q0 130 -61 209.5t-167 79.5q-108 0 -170.5 -78.5t-62.5 -212.5q0 -127 64 -207t169 -80z" />
    <glyph glyph-name="minus" unicode="&#x2212;" horiz-adv-x="946" 
d="M870 578h-798v194h798v-194z" />
    <glyph glyph-name="multiply" unicode="&#xd7;" horiz-adv-x="946" 
d="M852 432l-139 -139l-242 244l-240 -240l-141 139l242 240l-242 239l139 142l242 -242l242 246l139 -141l-242 -244z" />
    <glyph glyph-name="onesuperior" unicode="&#xb9;" horiz-adv-x="500" 
d="M377 549h-178v551l-117 -96v188l213 209h82v-852z" />
    <glyph glyph-name="twosuperior" unicode="&#xb2;" horiz-adv-x="702" 
d="M616 549h-534v72l272 327q49 59 69.5 103.5t20.5 95.5q0 90 -94 90q-91 0 -170 -107l-98 123q128 144 280 144q123 0 191 -62t68 -178q0 -75 -31.5 -143.5t-97.5 -146.5l-142 -167h266v-151z" />
    <glyph glyph-name="threesuperior" unicode="&#xb3;" horiz-adv-x="713" 
d="M514 991q54 -26 85.5 -78.5t31.5 -111.5q0 -129 -80 -199t-199 -70q-162 0 -270 144l98 119q75 -103 166 -103q109 0 109 109q0 50 -31.5 77t-159.5 27v144q122 0 150 26t28 74q0 42 -25 64t-65 22q-84 0 -159 -94l-99 108q114 144 273 144q115 0 180 -60t65 -166
q0 -115 -98 -176z" />
    <glyph glyph-name="onehalf" unicode="&#xbd;" horiz-adv-x="1530" 
d="M377 535h-178v552l-117 -96v189l213 209h82v-854zM1141 1384l-742 -1411h-188l743 1411h187zM1444 0h-535v72l273 327q49 59 69.5 103.5t20.5 95.5q0 90 -94 90q-92 0 -170 -106l-99 123q128 143 281 143q123 0 190.5 -62t67.5 -178q0 -75 -31 -143.5t-98 -146.5
l-141 -166h266v-152z" />
    <glyph glyph-name="onequarter" unicode="&#xbc;" horiz-adv-x="1393" 
d="M377 535h-178v552l-117 -96v189l213 209h82v-854zM1141 1384l-742 -1411h-188l743 1411h187zM1311 152h-68v-152h-178v152h-317v102l389 598h106v-555h68v-145zM1065 297v223l-133 -223h133z" />
    <glyph glyph-name="threequarters" unicode="&#xbe;" horiz-adv-x="1554" 
d="M514 991q54 -26 85.5 -78.5t31.5 -111.5q0 -129 -80 -199t-199 -70q-162 0 -270 144l98 119q75 -103 166 -103q109 0 109 109q0 50 -31.5 77t-159.5 27v144q122 0 150 26t28 74q0 42 -25 64t-65 22q-84 0 -159 -94l-99 108q114 144 273 144q115 0 180 -60t65 -166
q0 -115 -98 -176zM1311 1384l-742 -1411h-186l741 1411h187zM1473 152h-70v-152h-176v152h-320v102l389 598h107v-555h70v-145zM1227 297v223l-135 -223h135z" />
    <glyph glyph-name="overscore" unicode="&#xaf;" horiz-adv-x="1096" 
d="M1102 1548h-1108v185h1108v-185z" />
    <glyph glyph-name="middot" unicode="&#xb7;" horiz-adv-x="496" 
d="M246 836q64 0 109.5 -46t45.5 -110t-45.5 -110t-109.5 -46t-110 46t-46 110t45.5 110t110.5 46z" />
    <glyph glyph-name="Euro" unicode="&#x20ac;" horiz-adv-x="1059" 
d="M10 743l15 168h100q55 221 192.5 344t327.5 123q221 0 367 -161l-160 -187q-82 109 -207 109q-172 0 -242 -228h428l-38 -168h-422q-2 -19 -2 -63q0 -43 2 -62h389l-37 -167h-324q73 -232 246 -232q126 0 207 107l160 -187q-144 -159 -367 -159q-192 0 -329.5 123.5
t-192.5 347.5h-111l15 167h75q-2 36 -2 62q0 42 2 63h-92z" />
    <glyph glyph-name="pi1" unicode="&#xf006;" horiz-adv-x="1413" 
d="M506 915v-915h-180v915h-281v148h1323v-148h-242v-915h-180v915h-440z" />
    <glyph glyph-name="Gbreve" unicode="&#x11e;" horiz-adv-x="1245" 
d="M1143 111q-173 -131 -428 -131q-282 0 -465.5 195.5t-183.5 504.5t182.5 503.5t466.5 194.5q244 0 418 -131l-136 -213q-123 105 -282 105q-174 0 -278.5 -125t-104.5 -334q0 -211 104 -336t279 -125q92 0 168 35v258h-244l121 215h383v-616zM1006 1751
q-27 -313 -311 -313q-287 0 -314 313h181q23 -137 133 -137t131 137h180z" />
    <glyph glyph-name="gbreve" unicode="&#x11f;" horiz-adv-x="1094" 
d="M997 80q0 -238 -117.5 -371t-367.5 -133q-219 0 -408 129l123 182q140 -100 283 -100q239 0 240 285q-97 -92 -232 -92q-193 0 -322.5 136.5t-129.5 354.5q0 222 133 357t338 135q163 0 270 -119l190 110v-874zM537 182q104 0 160.5 77t56.5 214q0 134 -54.5 210.5
t-162.5 76.5q-104 0 -165 -79.5t-61 -207.5q0 -131 60.5 -211t165.5 -80zM863 1409q-27 -313 -311 -313q-287 0 -314 313h181q23 -137 133 -137t131 137h180z" />
    <glyph glyph-name="Idotaccent" unicode="&#x130;" horiz-adv-x="528" 
d="M393 0h-260v1358h260v-1358zM265 1761q61 0 106 -45t45 -109q0 -62 -44.5 -105.5t-106.5 -43.5t-106 44t-44 105q0 63 44 108.5t106 45.5z" />
    <glyph glyph-name="Scedilla" unicode="&#x15e;" horiz-adv-x="995" 
d="M518 -76q20 8 43 8q84 0 138.5 -45.5t54.5 -122.5q0 -102 -80.5 -155t-186.5 -53q-115 0 -245 59l53 111q96 -41 166 -41q104 0 104 73q0 62 -94 62q-42 0 -88 -17l-70 54l103 127q-211 23 -350 135l122 203q141 -107 299 -107q181 0 181 145q0 52 -37.5 98t-190.5 119
q-114 55 -186 103t-124 132.5t-52 211.5q0 166 119.5 263t316.5 97q216 0 379 -112l-119 -187q-123 84 -260 84q-82 0 -132 -38t-50 -105q0 -54 39.5 -102t200.5 -126q115 -56 187 -103t123.5 -127.5t51.5 -198.5q0 -166 -96.5 -265.5t-276.5 -119.5z" />
    <glyph glyph-name="scedilla" unicode="&#x15f;" horiz-adv-x="776" 
d="M399 -76q20 8 43 8q84 0 138.5 -45.5t54.5 -122.5q0 -102 -80 -155t-186 -53q-116 0 -246 59l53 111q96 -41 166 -41q104 0 104 73q0 62 -94 62q-42 0 -88 -17l-69 54l104 129q-138 19 -248 106l99 156q102 -84 231 -84q111 0 111 92q0 34 -26.5 58.5t-121.5 56.5
q-84 28 -143 58.5t-103.5 92.5t-44.5 162q0 138 100 208.5t244 70.5q174 0 301 -97l-96 -149q-95 61 -201 61q-110 0 -110 -86q0 -45 31.5 -67t117.5 -52q176 -59 230.5 -132.5t54.5 -170.5q0 -118 -75 -193t-208 -93z" />
    <glyph glyph-name="Cacute" unicode="&#x106;" horiz-adv-x="1163" 
d="M1122 111q-172 -131 -407 -131q-282 0 -465.5 195.5t-183.5 504.5t182.5 503.5t466.5 194.5q235 0 407 -131l-135 -213q-122 105 -272 105q-174 0 -278.5 -125t-104.5 -334q0 -211 104 -336t279 -125q150 0 272 105zM1038 1745l-281 -307h-182l190 307h273z" />
    <glyph glyph-name="cacute" unicode="&#x107;" horiz-adv-x="905" 
d="M870 74q-138 -94 -327 -94q-222 0 -352 132t-130 355q0 225 129.5 360.5t352.5 135.5q192 0 321 -95l-106 -180q-107 72 -215 72t-173 -81t-65 -214q0 -128 65.5 -206.5t172.5 -78.5q118 0 223 76zM860 1403l-281 -307h-182l190 307h273z" />
    <glyph glyph-name="Ccaron" unicode="&#x10c;" horiz-adv-x="1163" 
d="M1122 111q-172 -131 -407 -131q-282 0 -465.5 195.5t-183.5 504.5t182.5 503.5t466.5 194.5q235 0 407 -131l-135 -213q-122 105 -272 105q-174 0 -278.5 -125t-104.5 -334q0 -211 104 -336t279 -125q150 0 272 105zM1040 1759l-198 -321h-265l-196 321h190l140 -186
l139 186h190z" />
    <glyph glyph-name="ccaron" unicode="&#x10d;" horiz-adv-x="905" 
d="M870 74q-138 -94 -327 -94q-222 0 -352 132t-130 355q0 225 129.5 360.5t352.5 135.5q192 0 321 -95l-106 -180q-107 72 -215 72t-173 -81t-65 -214q0 -128 65.5 -206.5t172.5 -78.5q118 0 223 76zM848 1417l-198 -321h-265l-196 321h190l140 -186l139 186h190z" />
    <glyph glyph-name="dcroat" unicode="&#x111;" horiz-adv-x="1122" 
d="M1051 74l-191 -94q-51 46 -69 120q-104 -120 -281 -120q-198 0 -323.5 137.5t-125.5 351.5q0 220 126 357t313 137q153 0 264 -107v285h-250v188h250v92l244 76v-168h69v-188h-69v-860q0 -140 43 -207zM532 182q107 0 169.5 79.5t62.5 211.5q0 131 -62.5 209t-169.5 78
q-104 0 -165.5 -79.5t-61.5 -207.5t59.5 -209.5t167.5 -81.5z" />
    <glyph glyph-name="Amacron" unicode="&#x100;" horiz-adv-x="1243" 
d="M1223 0h-275l-100 268h-465l-98 -268h-265l539 1376h123zM772 477l-158 422l-155 -422h313zM946 1450h-659v188h659v-188z" />
    <glyph glyph-name="amacron" unicode="&#x101;" horiz-adv-x="1110" 
d="M1038 74l-194 -94q-52 51 -66 120q-109 -120 -268 -120q-200 0 -324.5 133.5t-124.5 357.5q0 221 127.5 356.5t333.5 135.5q171 0 271 -125l200 114v-671q0 -134 45 -207zM522 180q104 0 166 80.5t62 210.5q0 135 -60.5 212t-167.5 77q-99 0 -158 -79.5t-59 -207.5
q0 -132 58 -212.5t159 -80.5zM885 1141h-659v188h659v-188z" />
    <glyph glyph-name="Abreve" unicode="&#x102;" horiz-adv-x="1243" 
d="M1223 0h-275l-100 268h-465l-98 -268h-265l539 1376h123zM772 477l-158 422l-155 -422h313zM926 1751q-27 -313 -311 -313q-287 0 -314 313h181q23 -137 133 -137t131 137h180z" />
    <glyph glyph-name="abreve" unicode="&#x103;" horiz-adv-x="1110" 
d="M1038 74l-194 -94q-52 51 -66 120q-109 -120 -268 -120q-200 0 -324.5 133.5t-124.5 357.5q0 221 127.5 356.5t333.5 135.5q171 0 271 -125l200 114v-671q0 -134 45 -207zM522 180q104 0 166 80.5t62 210.5q0 135 -60.5 212t-167.5 77q-99 0 -158 -79.5t-59 -207.5
q0 -132 58 -212.5t159 -80.5zM867 1409q-27 -313 -311 -313q-287 0 -314 313h181q23 -137 133 -137t131 137h180z" />
    <glyph glyph-name="Aogonek" unicode="&#x104;" horiz-adv-x="1243" 
d="M1223 0q-182 -81 -235.5 -126t-53.5 -89q0 -70 70 -70q51 0 135 56l84 -105q-121 -110 -279 -110q-107 0 -165 44.5t-58 131.5q0 164 256 268h-29l-100 268h-465l-98 -268h-265l539 1376h123zM772 477l-158 422l-155 -422h313z" />
    <glyph glyph-name="aogonek" unicode="&#x105;" horiz-adv-x="1110" 
d="M1038 74q-163 -106 -225.5 -169t-62.5 -120q0 -32 19.5 -51t49.5 -19q51 0 135 56l84 -105q-119 -110 -278 -110q-99 0 -161 47.5t-62 130.5q0 155 262 303q-16 35 -21 63q-109 -120 -268 -120q-200 0 -324.5 133.5t-124.5 357.5q0 221 127.5 356.5t333.5 135.5
q171 0 271 -125l200 114v-671q0 -134 45 -207zM522 180q104 0 166 80.5t62 210.5q0 135 -60.5 212t-167.5 77q-99 0 -158 -79.5t-59 -207.5q0 -132 58 -212.5t159 -80.5z" />
    <glyph glyph-name="Dcaron" unicode="&#x10e;" horiz-adv-x="1210" 
d="M123 1358h315q338 0 522.5 -173t184.5 -497t-189.5 -506t-517.5 -182h-315v1358zM383 236h66q430 0 430 452q0 214 -109.5 324t-320.5 110h-66v-886zM934 1759l-198 -321h-265l-196 321h190l140 -186l139 186h190z" />
    <glyph glyph-name="dcaron" unicode="&#x10f;" horiz-adv-x="1260" 
d="M1221 1208q-49 14 -78 53t-29 89q0 62 43.5 105.5t106.5 43.5q67 0 108 -47t41 -119q0 -158 -178 -426h-143q88 149 129 301zM1051 74l-191 -94q-51 46 -69 120q-104 -120 -281 -120q-198 0 -323.5 137.5t-125.5 351.5q0 220 126 357t313 137q153 0 264 -107v565l244 76
v-1216q0 -140 43 -207zM532 182q107 0 169.5 79.5t62.5 211.5q0 131 -62.5 209t-169.5 78q-104 0 -165.5 -79.5t-61.5 -207.5t59.5 -209.5t167.5 -81.5z" />
    <glyph glyph-name="Dcroat" unicode="&#x110;" horiz-adv-x="1210" 
d="M0 573v211h123v574h315q338 0 522.5 -173t184.5 -497t-189.5 -506t-517.5 -182h-315v573h-123zM383 236h66q430 0 430 452q0 214 -109.5 324t-320.5 110h-66v-338h145v-211h-145v-337z" />
    <glyph glyph-name="Emacron" unicode="&#x112;" 
d="M956 0h-833v1358h809l-131 -219h-418v-320h414v-231h-414v-357h438zM852 1450h-659v188h659v-188z" />
    <glyph glyph-name="emacron" unicode="&#x113;" horiz-adv-x="1065" 
d="M1008 502l-686 -142q20 -86 78 -133t141 -47q136 0 288 92l95 -180q-173 -112 -387 -112q-195 0 -335.5 137t-140.5 350q0 230 142.5 363t335.5 133q195 0 326.5 -122t142.5 -339zM748 618q-61 144 -205 144q-94 0 -159 -62.5t-77 -173.5zM862 1141h-659v188h659v-188z
" />
    <glyph glyph-name="Edotaccent" unicode="&#x116;" 
d="M956 0h-833v1358h809l-131 -219h-418v-320h414v-231h-414v-357h438zM535 1741q61 0 106 -45t45 -109q0 -62 -44.5 -105.5t-106.5 -43.5t-106 44t-44 105q0 63 44 108.5t106 45.5z" />
    <glyph glyph-name="edotaccent" unicode="&#x117;" horiz-adv-x="1065" 
d="M1008 502l-686 -142q20 -86 78 -133t141 -47q136 0 288 92l95 -180q-173 -112 -387 -112q-195 0 -335.5 137t-140.5 350q0 230 142.5 363t335.5 133q195 0 326.5 -122t142.5 -339zM748 618q-61 144 -205 144q-94 0 -159 -62.5t-77 -173.5zM531 1399q61 0 106 -45t45 -109
q0 -62 -44.5 -105.5t-106.5 -43.5t-106 44t-44 105q0 63 44 108.5t106 45.5z" />
    <glyph glyph-name="Eogonek" unicode="&#x118;" 
d="M956 0h-131q-157 -113 -157 -215q0 -34 20 -52t49 -18q51 0 135 56l84 -105q-119 -110 -278 -110q-102 0 -162.5 51.5t-60.5 144.5q0 138 184 248h-516v1358h809l-131 -219h-418v-320h414v-231h-414v-357h438z" />
    <glyph glyph-name="eogonek" unicode="&#x119;" horiz-adv-x="1065" 
d="M1008 502l-686 -142q20 -86 78 -133t141 -47q136 0 288 92l95 -180q-105 -70 -164.5 -155t-59.5 -152q0 -32 19.5 -51t50.5 -19q51 0 135 56l84 -105q-119 -110 -278 -110q-100 0 -162 49t-62 135q0 121 134 246q-41 -6 -84 -6q-195 0 -335.5 137t-140.5 350
q0 230 142.5 363t335.5 133q195 0 326.5 -122t142.5 -339zM748 618q-61 144 -205 144q-94 0 -159 -62.5t-77 -173.5z" />
    <glyph glyph-name="Ecaron" unicode="&#x11a;" 
d="M956 0h-833v1358h809l-131 -219h-418v-320h414v-231h-414v-357h438zM862 1759l-198 -321h-265l-196 321h190l140 -186l139 186h190z" />
    <glyph glyph-name="ecaron" unicode="&#x11b;" horiz-adv-x="1065" 
d="M1008 502l-686 -142q20 -86 78 -133t141 -47q136 0 288 92l95 -180q-173 -112 -387 -112q-195 0 -335.5 137t-140.5 350q0 230 142.5 363t335.5 133q195 0 326.5 -122t142.5 -339zM748 618q-61 144 -205 144q-94 0 -159 -62.5t-77 -173.5zM862 1417l-198 -321h-265
l-196 321h190l140 -186l139 186h190z" />
    <glyph glyph-name="Gcommaaccent" unicode="&#x122;" horiz-adv-x="1245" 
d="M1143 111q-173 -131 -428 -131q-282 0 -465.5 195.5t-183.5 504.5t182.5 503.5t466.5 194.5q244 0 418 -131l-136 -213q-123 105 -282 105q-174 0 -278.5 -125t-104.5 -334q0 -211 104 -336t279 -125q92 0 168 35v258h-244l121 215h383v-616zM751 -532h-131q34 82 47 155
q-47 10 -77.5 48t-30.5 87q0 58 42 99t97 41q63 0 101 -42.5t38 -111.5q0 -111 -86 -276z" />
    <glyph glyph-name="gcommaaccent" unicode="&#x123;" horiz-adv-x="1094" 
d="M504 1526h131q-34 -83 -47 -156q47 -10 77.5 -47.5t30.5 -87.5q0 -58 -42 -98.5t-97 -40.5q-63 0 -101 42t-38 111q0 111 86 277zM997 80q0 -238 -117.5 -371t-367.5 -133q-219 0 -408 129l123 182q140 -100 283 -100q239 0 240 285q-97 -92 -232 -92
q-193 0 -322.5 136.5t-129.5 354.5q0 222 133 357t338 135q163 0 270 -119l190 110v-874zM537 182q104 0 160.5 77t56.5 214q0 134 -54.5 210.5t-162.5 76.5q-104 0 -165 -79.5t-61 -207.5q0 -131 60.5 -211t165.5 -80z" />
    <glyph glyph-name="Imacron" unicode="&#x12a;" horiz-adv-x="528" 
d="M393 0h-260v1358h260v-1358zM594 1450h-659v188h659v-188z" />
    <glyph glyph-name="imacron" unicode="&#x12b;" horiz-adv-x="477" 
d="M360 0h-243v874l243 84v-958zM569 1141h-659v188h659v-188z" />
    <glyph glyph-name="Iogonek" unicode="&#x12e;" horiz-adv-x="528" 
d="M393 0q-162 -119 -162 -215q0 -32 19.5 -51t50.5 -19q51 0 135 56l84 -105q-119 -110 -278 -110q-102 0 -163 51.5t-61 144.5q0 136 187 248h-72v1358h260v-1358z" />
    <glyph glyph-name="iogonek" unicode="&#x12f;" horiz-adv-x="477" 
d="M238 1366q61 0 106 -45t45 -109q0 -63 -44.5 -107t-106.5 -44q-63 0 -107.5 44.5t-44.5 106.5q0 65 44 109.5t108 44.5zM360 0q-157 -116 -157 -215q0 -34 20 -52t49 -18q52 0 136 56l84 -105q-119 -110 -279 -110q-102 0 -162.5 51.5t-60.5 144.5q0 136 186 248h-59v874
l243 84v-958z" />
    <glyph glyph-name="Kcommaaccent" unicode="&#x136;" horiz-adv-x="1167" 
d="M1157 0h-323l-451 573v-573h-260v1358h260v-555l412 555h290l-493 -649zM636 -532h-131q34 82 47 155q-47 10 -77.5 48t-30.5 87q0 58 42 99t97 41q63 0 101 -42.5t38 -111.5q0 -111 -86 -276z" />
    <glyph glyph-name="kcommaaccent" unicode="&#x137;" horiz-adv-x="938" 
d="M928 0h-314l-274 406v-406h-244v1421l244 76v-913l266 360h291l-340 -430zM540 -532h-131q34 82 47 155q-47 10 -77.5 48t-30.5 87q0 58 42 99t97 41q63 0 101 -42.5t38 -111.5q0 -111 -86 -276z" />
    <glyph glyph-name="Lacute" unicode="&#x139;" horiz-adv-x="971" 
d="M944 0h-821v1358h260v-1127h426zM840 1745l-281 -307h-182l190 307h273z" />
    <glyph glyph-name="lacute" unicode="&#x13a;" horiz-adv-x="436" 
d="M340 0h-244v1421l244 76v-1497zM535 1843l-281 -307h-182l190 307h273z" />
    <glyph glyph-name="Lcommaaccent" unicode="&#x13b;" horiz-adv-x="971" 
d="M944 0h-821v1358h260v-1127h426zM538 -532h-131q34 82 47 155q-47 10 -77.5 48t-30.5 87q0 58 42 99t97 41q63 0 101 -42.5t38 -111.5q0 -111 -86 -276z" />
    <glyph glyph-name="lcommaaccent" unicode="&#x13c;" horiz-adv-x="436" 
d="M340 0h-244v1421l244 76v-1497zM270 -532h-131q34 82 47 155q-47 10 -77.5 48t-30.5 87q0 58 42 99t97 41q63 0 101 -42.5t38 -111.5q0 -111 -86 -276z" />
    <glyph glyph-name="Lcaron" unicode="&#x13d;" horiz-adv-x="971" 
d="M659 1219q-49 13 -77.5 52t-28.5 89q0 63 43.5 106t105.5 43q68 0 109 -46.5t41 -119.5q0 -157 -178 -425h-144q89 148 129 301zM944 0h-821v1358h260v-1127h426z" />
    <glyph glyph-name="lcaron" unicode="&#x13e;" horiz-adv-x="588" 
d="M549 1219q-49 13 -78 52t-29 89q0 63 43.5 106t106.5 43q68 0 108.5 -46.5t40.5 -119.5q0 -157 -178 -425h-143q88 148 129 301zM340 0h-244v1421l244 76v-1497z" />
    <glyph glyph-name="Nacute" unicode="&#x143;" horiz-adv-x="1266" 
d="M1143 -10h-119l-653 821v-811h-248v1368h117l653 -819v809h250v-1368zM946 1757l-281 -307h-182l190 307h273z" />
    <glyph glyph-name="nacute" unicode="&#x144;" horiz-adv-x="987" 
d="M895 0h-244v575q0 90 -28 129t-88 39q-92 0 -143.5 -78t-51.5 -206v-459h-244v877l234 81v-145q42 71 116.5 110.5t157.5 39.5q291 0 291 -369v-594zM830 1403l-281 -307h-182l190 307h273z" />
    <glyph glyph-name="Ncommaaccent" unicode="&#x145;" horiz-adv-x="1266" 
d="M1143 -10h-119l-653 821v-811h-248v1368h117l653 -819v809h250v-1368zM686 -532h-131q34 82 47 155q-47 10 -77.5 48t-30.5 87q0 58 42 99t97 41q63 0 101 -42.5t38 -111.5q0 -111 -86 -276z" />
    <glyph glyph-name="ncommaaccent" unicode="&#x146;" horiz-adv-x="987" 
d="M895 0h-244v575q0 90 -28 129t-88 39q-92 0 -143.5 -78t-51.5 -206v-459h-244v877l234 81v-145q42 71 116.5 110.5t157.5 39.5q291 0 291 -369v-594zM546 -532h-131q34 82 47 155q-47 10 -77.5 48t-30.5 87q0 58 42 99t97 41q63 0 101 -42.5t38 -111.5q0 -111 -86 -276z
" />
    <glyph glyph-name="Ncaron" unicode="&#x147;" horiz-adv-x="1266" 
d="M1143 -10h-119l-653 821v-811h-248v1368h117l653 -819v809h250v-1368zM963 1759l-198 -321h-265l-196 321h190l140 -186l139 186h190z" />
    <glyph glyph-name="ncaron" unicode="&#x148;" horiz-adv-x="987" 
d="M895 0h-244v575q0 90 -28 129t-88 39q-92 0 -143.5 -78t-51.5 -206v-459h-244v877l234 81v-145q42 71 116.5 110.5t157.5 39.5q291 0 291 -369v-594zM823 1417l-198 -321h-265l-196 321h190l140 -186l139 186h190z" />
    <glyph glyph-name="Omacron" unicode="&#x14c;" horiz-adv-x="1409" 
d="M705 1378q270 0 454 -195t184 -501q0 -309 -183.5 -505.5t-454.5 -196.5t-455 197t-184 505q0 305 184.5 500.5t454.5 195.5zM705 223q163 0 267.5 126t104.5 333q0 204 -104.5 328.5t-267.5 124.5q-165 0 -269 -124.5t-104 -328.5q0 -209 104.5 -334t268.5 -125z
M1034 1450h-659v188h659v-188z" />
    <glyph glyph-name="omacron" unicode="&#x14d;" horiz-adv-x="1083" 
d="M543 963q205 0 342 -136t137 -356t-137.5 -355.5t-341.5 -135.5q-207 0 -344.5 136t-137.5 355t137 355.5t345 136.5zM543 182q107 0 170 79t63 210t-63 210t-170 79q-108 0 -173 -79.5t-65 -211.5q0 -129 64.5 -208t173.5 -79zM870 1141h-659v188h659v-188z" />
    <glyph glyph-name="Ohungarumlaut" unicode="&#x150;" horiz-adv-x="1409" 
d="M705 1378q270 0 454 -195t184 -501q0 -309 -183.5 -505.5t-454.5 -196.5t-455 197t-184 505q0 305 184.5 500.5t454.5 195.5zM705 223q163 0 267.5 126t104.5 333q0 204 -104.5 328.5t-267.5 124.5q-165 0 -269 -124.5t-104 -328.5q0 -209 104.5 -334t268.5 -125z
M814 1745l-280 -307h-184l190 307h274zM1220 1745l-281 -307h-184l191 307h274z" />
    <glyph glyph-name="ohungarumlaut" unicode="&#x151;" horiz-adv-x="1083" 
d="M543 963q205 0 342 -136t137 -356t-137.5 -355.5t-341.5 -135.5q-207 0 -344.5 136t-137.5 355t137 355.5t345 136.5zM543 182q107 0 170 79t63 210t-63 210t-170 79q-108 0 -173 -79.5t-65 -211.5q0 -129 64.5 -208t173.5 -79zM665 1403l-280 -307h-184l190 307h274z
M1071 1403l-281 -307h-184l191 307h274z" />
    <glyph glyph-name="Racute" unicode="&#x154;" horiz-adv-x="1085" 
d="M1051 0h-289l-289 500h-90v-500h-260v1358h319q262 0 398.5 -106t136.5 -308q0 -289 -258 -397zM383 709h45q153 0 218 54t65 173q0 205 -269 205h-59v-432zM856 1745l-281 -307h-182l190 307h273z" />
    <glyph glyph-name="racute" unicode="&#x155;" horiz-adv-x="702" 
d="M668 952l-43 -227q-46 12 -97 12q-188 0 -188 -268v-469h-244v877l236 81v-147q90 152 258 152q40 0 78 -11zM715 1403l-281 -307h-182l190 307h273z" />
    <glyph glyph-name="Rcommaaccent" unicode="&#x156;" horiz-adv-x="1085" 
d="M1051 0h-289l-289 500h-90v-500h-260v1358h319q262 0 398.5 -106t136.5 -308q0 -289 -258 -397zM383 709h45q153 0 218 54t65 173q0 205 -269 205h-59v-432zM595 -532h-131q34 82 47 155q-47 10 -77.5 48t-30.5 87q0 58 42 99t97 41q63 0 101 -42.5t38 -111.5
q0 -111 -86 -276z" />
    <glyph glyph-name="rcommaaccent" unicode="&#x157;" horiz-adv-x="702" 
d="M668 952l-43 -227q-46 12 -97 12q-188 0 -188 -268v-469h-244v877l236 81v-147q90 152 258 152q40 0 78 -11zM403 -532h-131q34 82 47 155q-47 10 -77.5 48t-30.5 87q0 58 42 99t97 41q63 0 101 -42.5t38 -111.5q0 -111 -86 -276z" />
    <glyph glyph-name="Rcaron" unicode="&#x158;" horiz-adv-x="1085" 
d="M1051 0h-289l-289 500h-90v-500h-260v1358h319q262 0 398.5 -106t136.5 -308q0 -289 -258 -397zM383 709h45q153 0 218 54t65 173q0 205 -269 205h-59v-432zM852 1759l-198 -321h-265l-196 321h190l140 -186l139 186h190z" />
    <glyph glyph-name="rcaron" unicode="&#x159;" horiz-adv-x="702" 
d="M668 952l-43 -227q-46 12 -97 12q-188 0 -188 -268v-469h-244v877l236 81v-147q90 152 258 152q40 0 78 -11zM702 1417l-198 -321h-265l-196 321h190l140 -186l139 186h190z" />
    <glyph glyph-name="Sacute" unicode="&#x15a;" horiz-adv-x="995" 
d="M774 1085q-123 84 -260 84q-82 0 -132 -38t-50 -105q0 -54 39.5 -102t200.5 -126q115 -56 187 -103t123.5 -127.5t51.5 -198.5q0 -188 -120.5 -288.5t-330.5 -100.5q-106 0 -221 37t-196 102l122 203q141 -107 299 -107q181 0 181 145q0 52 -37.5 98t-190.5 119
q-114 55 -186 103t-124 132.5t-52 211.5q0 166 119.5 263t316.5 97q216 0 379 -112zM811 1745l-281 -307h-182l190 307h273z" />
    <glyph glyph-name="sacute" unicode="&#x15b;" horiz-adv-x="776" 
d="M602 717q-95 61 -201 61q-110 0 -110 -86q0 -45 31.5 -67t117.5 -52q176 -59 230.5 -132.5t54.5 -170.5q0 -138 -98.5 -214t-247.5 -76q-184 0 -328 112l99 156q102 -84 231 -84q111 0 111 92q0 34 -26.5 58.5t-121.5 56.5q-84 28 -143 58.5t-103.5 92.5t-44.5 162
q0 138 100 208.5t244 70.5q174 0 301 -97zM715 1403l-281 -307h-182l190 307h273z" />
    <glyph glyph-name="Tcommaaccent" unicode="&#x162;" horiz-adv-x="1051" 
d="M1010 1126h-355v-1126h-260v1126h-354v232h969v-232zM577 -532h-131q34 82 47 155q-47 10 -77.5 48t-30.5 87q0 58 42 99t97 41q63 0 101 -42.5t38 -111.5q0 -111 -86 -276z" />
    <glyph glyph-name="Tcommaaccent" unicode="&#x21a;" horiz-adv-x="1051" 
d="M1010 1126h-355v-1126h-260v1126h-354v232h969v-232zM577 -532h-131q34 82 47 155q-47 10 -77.5 48t-30.5 87q0 58 42 99t97 41q63 0 101 -42.5t38 -111.5q0 -111 -86 -276z" />
    <glyph glyph-name="tcommaaccent" unicode="&#x163;" horiz-adv-x="705" 
d="M694 944l-112 -201h-156v-331q0 -125 30 -198.5t113 -129.5l-143 -123q-244 88 -244 391v391h-141v201h141v248l244 158v-406h268zM405 -532h-131q34 82 47 155q-47 10 -77.5 48t-30.5 87q0 58 42 99t97 41q63 0 101 -42.5t38 -111.5q0 -111 -86 -276z" />
    <glyph glyph-name="tcommaaccent" unicode="&#x21b;" horiz-adv-x="705" 
d="M694 944l-112 -201h-156v-331q0 -125 30 -198.5t113 -129.5l-143 -123q-244 88 -244 391v391h-141v201h141v248l244 158v-406h268zM405 -532h-131q34 82 47 155q-47 10 -77.5 48t-30.5 87q0 58 42 99t97 41q63 0 101 -42.5t38 -111.5q0 -111 -86 -276z" />
    <glyph glyph-name="Tcaron" unicode="&#x164;" horiz-adv-x="1051" 
d="M1010 1126h-355v-1126h-260v1126h-354v232h969v-232zM854 1759l-198 -321h-265l-196 321h190l140 -186l139 186h190z" />
    <glyph glyph-name="tcaron" unicode="&#x165;" horiz-adv-x="705" 
d="M627 1262q-50 11 -78.5 44t-28.5 74q0 54 43 90.5t105 36.5q67 0 107 -40t40 -101q0 -131 -174 -358h-141q88 129 127 254zM694 944l-112 -201h-156v-331q0 -125 30 -198.5t113 -129.5l-143 -123q-244 88 -244 391v391h-141v201h141v248l244 158v-406h268z" />
    <glyph glyph-name="Umacron" unicode="&#x16a;" horiz-adv-x="1231" 
d="M1114 602q0 -303 -126.5 -462.5t-371.5 -159.5q-244 0 -371.5 160t-127.5 462v756h260v-756q0 -214 55 -299.5t184 -85.5q130 0 185 85t55 300v756h258v-756zM944 1450h-659v188h659v-188z" />
    <glyph glyph-name="umacron" unicode="&#x16b;" horiz-adv-x="1006" 
d="M936 78l-184 -98q-80 88 -90 155q-45 -74 -120 -114.5t-159 -40.5q-293 0 -293 366v598h246v-577q0 -85 26.5 -126.5t90.5 -41.5q92 0 143 77.5t51 206.5v461h244v-668q0 -75 8 -112.5t37 -85.5zM831 1141h-659v188h659v-188z" />
    <glyph glyph-name="Uring" unicode="&#x16e;" horiz-adv-x="1231" 
d="M1114 602q0 -303 -126.5 -462.5t-371.5 -159.5q-244 0 -371.5 160t-127.5 462v756h260v-756q0 -214 55 -299.5t184 -85.5q130 0 185 85t55 300v756h258v-756zM618 1900q97 0 165.5 -67t68.5 -164q0 -96 -68.5 -163.5t-165.5 -67.5t-165 67.5t-68 163.5q0 98 67.5 164.5
t165.5 66.5zM618 1565q41 0 72 31.5t31 72.5q0 43 -30.5 74t-72.5 31q-43 0 -73.5 -31t-30.5 -74q0 -42 31 -73t73 -31z" />
    <glyph glyph-name="uring" unicode="&#x16f;" horiz-adv-x="1006" 
d="M936 78l-184 -98q-80 88 -90 155q-45 -74 -120 -114.5t-159 -40.5q-293 0 -293 366v598h246v-577q0 -85 26.5 -126.5t90.5 -41.5q92 0 143 77.5t51 206.5v461h244v-668q0 -75 8 -112.5t37 -85.5zM501 1558q97 0 165.5 -67t68.5 -164q0 -96 -68.5 -163.5t-165.5 -67.5
t-165 67.5t-68 163.5q0 98 67.5 164.5t165.5 66.5zM501 1223q41 0 72 31.5t31 72.5q0 43 -30.5 74t-72.5 31q-43 0 -73.5 -31t-30.5 -74q0 -42 31 -73t73 -31z" />
    <glyph glyph-name="Uhungarumlaut" unicode="&#x170;" horiz-adv-x="1231" 
d="M1114 602q0 -303 -126.5 -462.5t-371.5 -159.5q-244 0 -371.5 160t-127.5 462v756h260v-756q0 -214 55 -299.5t184 -85.5q130 0 185 85t55 300v756h258v-756zM767 1745l-280 -307h-184l190 307h274zM1173 1745l-281 -307h-184l191 307h274z" />
    <glyph glyph-name="uhungarumlaut" unicode="&#x171;" horiz-adv-x="1006" 
d="M936 78l-184 -98q-80 88 -90 155q-45 -74 -120 -114.5t-159 -40.5q-293 0 -293 366v598h246v-577q0 -85 26.5 -126.5t90.5 -41.5q92 0 143 77.5t51 206.5v461h244v-668q0 -75 8 -112.5t37 -85.5zM669 1403l-280 -307h-184l190 307h274zM1075 1403l-281 -307h-184l191 307
h274z" />
    <glyph glyph-name="Uogonek" unicode="&#x172;" horiz-adv-x="1231" 
d="M1114 602q0 -253 -89 -407t-261 -197q-154 -113 -154 -213q0 -32 19.5 -51t50.5 -19q51 0 135 56l84 -105q-119 -110 -278 -110q-102 0 -163 51.5t-61 144.5q0 127 156 232q-215 19 -325.5 179t-110.5 439v756h260v-756q0 -214 55 -299.5t184 -85.5q130 0 185 85t55 300
v756h258v-756z" />
    <glyph glyph-name="uogonek" unicode="&#x173;" horiz-adv-x="1006" 
d="M936 78q-283 -162 -283 -293q0 -34 20 -52t50 -18q51 0 135 56l84 -105q-119 -110 -278 -110q-102 0 -163 51.5t-61 144.5q0 161 262 289q-35 53 -40 94q-45 -74 -120 -114.5t-159 -40.5q-293 0 -293 366v598h246v-577q0 -85 26.5 -126.5t90.5 -41.5q92 0 143 77.5
t51 206.5v461h244v-668q0 -75 8 -112.5t37 -85.5z" />
    <glyph glyph-name="Zacute" unicode="&#x179;" horiz-adv-x="1133" 
d="M1096 233l-127 -233h-924l604 1126h-563l127 232h860l-602 -1125h625zM957 1745l-281 -307h-182l190 307h273z" />
    <glyph glyph-name="zacute" unicode="&#x17a;" horiz-adv-x="903" 
d="M870 207l-110 -207h-735l446 741h-393l106 203h688l-444 -737h442zM850 1403l-281 -307h-182l190 307h273z" />
    <glyph glyph-name="Zdotaccent" unicode="&#x17b;" horiz-adv-x="1133" 
d="M1096 233l-127 -233h-924l604 1126h-563l127 232h860l-602 -1125h625zM617 1741q61 0 106 -45t45 -109q0 -62 -44.5 -105.5t-106.5 -43.5t-106 44t-44 105q0 63 44 108.5t106 45.5z" />
    <glyph glyph-name="zdotaccent" unicode="&#x17c;" horiz-adv-x="903" 
d="M870 207l-110 -207h-735l446 741h-393l106 203h688l-444 -737h442zM517 1399q61 0 106 -45t45 -109q0 -62 -44.5 -105.5t-106.5 -43.5t-106 44t-44 105q0 63 44 108.5t106 45.5z" />
    <glyph glyph-name="Scommaaccent" unicode="&#x218;" horiz-adv-x="995" 
d="M774 1085q-123 84 -260 84q-82 0 -132 -38t-50 -105q0 -54 39.5 -102t200.5 -126q115 -56 187 -103t123.5 -127.5t51.5 -198.5q0 -188 -120.5 -288.5t-330.5 -100.5q-106 0 -221 37t-196 102l122 203q141 -107 299 -107q181 0 181 145q0 52 -37.5 98t-190.5 119
q-114 55 -186 103t-124 132.5t-52 211.5q0 166 119.5 263t316.5 97q216 0 379 -112zM569 -532h-131q34 82 47 155q-47 10 -77.5 48t-30.5 87q0 58 42 99t97 41q63 0 101 -42.5t38 -111.5q0 -111 -86 -276z" />
    <glyph glyph-name="scommaaccent" unicode="&#x219;" horiz-adv-x="776" 
d="M602 717q-95 61 -201 61q-110 0 -110 -86q0 -45 31.5 -67t117.5 -52q176 -59 230.5 -132.5t54.5 -170.5q0 -138 -98.5 -214t-247.5 -76q-184 0 -328 112l99 156q102 -84 231 -84q111 0 111 92q0 34 -26.5 58.5t-121.5 56.5q-84 28 -143 58.5t-103.5 92.5t-44.5 162
q0 138 100 208.5t244 70.5q174 0 301 -97zM440 -532h-131q34 82 47 155q-47 10 -77.5 48t-30.5 87q0 58 42 99t97 41q63 0 101 -42.5t38 -111.5q0 -111 -86 -276z" />
    <glyph glyph-name="commaaccent" horiz-adv-x="776" 
d="M440 -532h-131q34 82 47 155q-47 10 -77.5 48t-30.5 87q0 58 42 99t97 41q63 0 101 -42.5t38 -111.5q0 -111 -86 -276z" />
    <glyph glyph-name="sfthyphen" unicode="&#xad;" horiz-adv-x="641" 
d="M571 391h-501v209h501v-209z" />
    <glyph glyph-name="afii10023" unicode="&#x401;" 
d="M956 0h-833v1358h809l-131 -219h-418v-320h414v-231h-414v-357h438zM733 1733q56 0 98.5 -43t42.5 -100q0 -58 -42.5 -101t-98.5 -43q-57 0 -99.5 43t-42.5 101t42.5 100.5t99.5 42.5zM296 1733q57 0 99.5 -43t42.5 -100q0 -58 -42.5 -101t-99.5 -43q-58 0 -100.5 43
t-42.5 101t42.5 100.5t100.5 42.5z" />
    <glyph glyph-name="afii10051" unicode="&#x402;" horiz-adv-x="1413" 
d="M594 842q120 106 295 106q199 0 321.5 -136.5t122.5 -350.5q0 -208 -122.5 -347t-325.5 -139q-94 0 -199 35l76 207q61 -22 112 -22q92 0 144.5 75t52.5 195q0 113 -59 186.5t-160 73.5q-117 0 -187.5 -81t-70.5 -212v-432h-260v1141h-330v217h1014l-121 -217h-303v-299z
" />
    <glyph glyph-name="afii10052" unicode="&#x403;" horiz-adv-x="950" 
d="M944 1358l-131 -217h-430v-1141h-260v1358h821zM858 1755l-281 -307h-182l190 307h273z" />
    <glyph glyph-name="afii10053" unicode="&#x404;" horiz-adv-x="1163" 
d="M1122 109q-172 -129 -411 -129q-286 0 -465.5 193.5t-179.5 504.5t182.5 505.5t466.5 194.5q238 0 405 -127l-135 -211q-121 99 -270 99q-140 0 -237 -84t-130 -238h508v-231h-516q25 -176 123.5 -270.5t251.5 -94.5q148 0 274 96z" />
    <glyph glyph-name="afii10054" unicode="&#x405;" horiz-adv-x="997" 
d="M774 1085q-106 76 -260 76q-182 0 -182 -135q0 -54 39.5 -102.5t201.5 -125.5q114 -55 186 -102.5t123.5 -127.5t51.5 -197q0 -189 -120 -290t-329 -101q-106 0 -220.5 37.5t-198.5 103.5l122 201q141 -107 299 -107q181 0 181 145q0 52 -37.5 98t-190.5 119
q-114 55 -186 103t-124 132.5t-52 211.5q0 166 118 260t318 94q230 0 379 -106z" />
    <glyph glyph-name="afii10055" unicode="&#x406;" horiz-adv-x="528" 
d="M393 0h-262v1358h262v-1358z" />
    <glyph glyph-name="afii10056" unicode="&#x407;" horiz-adv-x="528" 
d="M393 0h-260v1358h260v-1358zM482 1733q56 0 98.5 -43t42.5 -100q0 -58 -42.5 -101t-98.5 -43q-57 0 -99.5 43t-42.5 101t42.5 100.5t99.5 42.5zM45 1733q57 0 99.5 -43t42.5 -100q0 -58 -42.5 -101t-99.5 -43q-58 0 -100.5 43t-42.5 101t42.5 100.5t100.5 42.5z" />
    <glyph glyph-name="afii10057" unicode="&#x408;" horiz-adv-x="739" 
d="M616 426q0 -446 -329 -446q-158 0 -273 90l103 194q55 -49 125 -49q60 0 87 41.5t27 177.5v924h260v-932z" />
    <glyph glyph-name="afii10058" unicode="&#x409;" horiz-adv-x="1819" 
d="M1114 817h80q281 0 414 -97.5t133 -299.5q0 -420 -559 -420h-328v1126h-393v-622q0 -145 -20 -241.5t-84.5 -171t-192.5 -118.5l-144 172q95 43 137 109t42 256v848h915v-541zM1114 221h68q170 0 232.5 48.5t62.5 146.5q0 91 -66.5 136.5t-228.5 45.5h-68v-377z" />
    <glyph glyph-name="afii10059" unicode="&#x40a;" horiz-adv-x="1741" 
d="M1055 813h82q280 0 412 -97.5t132 -299.5q0 -420 -557 -420h-325v594h-416v-590h-260v1358h260v-539h416v524l256 31v-561zM1055 217h69q171 0 233 48.5t62 146.5q0 92 -67.5 138t-227.5 46h-69v-379z" />
    <glyph glyph-name="afii10060" unicode="&#x40b;" horiz-adv-x="1389" 
d="M1266 0h-232v381q0 157 -57.5 204.5t-249.5 47.5h-104v-633h-261v1126h-329v232h981l-125 -232h-266v-276h120q302 0 412.5 -93t110.5 -356v-401z" />
    <glyph glyph-name="afii10061" unicode="&#x40c;" horiz-adv-x="1174" 
d="M1145 0h-316l-254 384q-96 145 -120.5 166t-57.5 21h-14v-571h-260v1358h260v-531h16q39 0 78 41t84 126l82 157q62 120 137.5 175.5t192.5 55.5q45 0 117 -10l-7 -194q-43 6 -65 6q-47 0 -88 -29t-105 -141l-59 -106q-41 -71 -86.5 -117t-110.5 -76q58 -16 105 -62.5
t112 -140.5zM940 1756l-281 -307h-182l190 307h273z" />
    <glyph glyph-name="afii10062" unicode="&#x40e;" horiz-adv-x="1161" 
d="M741 1749h183q-14 -144 -96 -222.5t-214 -78.5q-131 0 -212 78.5t-93 222.5h185q18 -123 122 -123q107 0 125 123zM1139 1358l-420 -1026q-76 -185 -166.5 -268.5t-243.5 -83.5q-135 0 -250 61l109 211q78 -39 139 -39q51 0 89.5 38t107.5 202l-469 905h291l307 -635
l235 635h271z" />
    <glyph glyph-name="afii10145" unicode="&#x40f;" horiz-adv-x="1231" 
d="M1118 0h-350l-121 -289h-201l70 289h-393v1358h260v-1127h477v1127h258v-1358z" />
    <glyph glyph-name="afii10017" unicode="&#x410;" horiz-adv-x="1243" 
d="M1223 0h-275l-100 268h-465l-98 -268h-265l539 1376h123zM772 477l-158 422l-155 -422h313z" />
    <glyph glyph-name="afii10018" unicode="&#x411;" horiz-adv-x="1063" 
d="M385 823h82q277 0 411 -99t134 -302q0 -422 -559 -422h-328v1358h790l-131 -217h-399v-318zM385 221h68q165 0 230 49t65 148q0 93 -68 139.5t-227 46.5h-68v-383z" />
    <glyph glyph-name="afii10019" unicode="&#x412;" horiz-adv-x="1063" 
d="M786 729q107 -41 164.5 -125t57.5 -192q0 -412 -549 -412h-334v1358h334q264 0 387 -84.5t123 -261.5q0 -209 -183 -283zM385 817h74q248 0 248 172q0 78 -59 115t-191 37h-72v-324zM385 231h74q156 0 221 49t65 150q0 94 -68 140t-218 46h-74v-385z" />
    <glyph glyph-name="afii10020" unicode="&#x413;" horiz-adv-x="950" 
d="M944 1358l-131 -217h-430v-1141h-260v1358h821z" />
    <glyph glyph-name="afii10021" unicode="&#x414;" horiz-adv-x="1198" 
d="M1139 231l-246 -520h-176l82 289h-527l-82 -289h-157v516q106 15 151 84.5t45 247.5v799h799v-1127h111zM772 231v910h-303v-551q0 -157 -19 -227.5t-71 -131.5h393z" />
    <glyph glyph-name="afii10022" unicode="&#x415;" 
d="M958 0h-835v1358h809l-129 -217h-420v-320h414v-233h-414v-357h438z" />
    <glyph glyph-name="afii10024" unicode="&#x416;" horiz-adv-x="1747" 
d="M1733 0h-318l-248 386q-93 145 -113 164.5t-50 20.5v-530l-261 -82v612q-32 -1 -52 -22t-119 -175l-240 -374h-318l412 591q70 100 152 122q-53 25 -92.5 62t-62 73.5t-87.5 161.5q-52 102 -96 138t-97 36q-25 0 -65 -6l-6 194q68 10 114 10q67 0 120.5 -18.5t101 -63
t91 -124.5t87.5 -164q47 -93 81 -138t76 -47v492l261 78v-570q29 1 63 33.5t94 151.5q86 169 115.5 216t75 85t96 53.5t113.5 15.5q46 0 114 -10l-6 -194q-40 6 -65 6q-49 0 -91 -31.5t-100 -138.5l-51 -97q-41 -79 -86 -126t-107 -76q58 -16 100 -60t111 -145z" />
    <glyph glyph-name="afii10025" unicode="&#x417;" 
d="M696 727q112 -34 173 -118.5t61 -198.5q0 -201 -131.5 -317t-333.5 -116q-249 0 -428 195l143 174q121 -137 287 -137q94 0 151.5 52.5t57.5 146.5q0 93 -61.5 141.5t-256.5 48.5h-24v211h31q157 0 218.5 44.5t61.5 135.5q0 83 -50 122.5t-126 39.5q-145 0 -266 -119
l-135 162q189 186 426 186q186 0 292.5 -91.5t106.5 -256.5q0 -218 -197 -305z" />
    <glyph glyph-name="afii10026" unicode="&#x418;" horiz-adv-x="1266" 
d="M1143 0h-250v811l-651 -821h-119v1368h248v-809l653 819h119v-1368z" />
    <glyph glyph-name="afii10027" unicode="&#x419;" horiz-adv-x="1266" 
d="M971 1749q-14 -144 -96 -222.5t-213 -78.5q-133 0 -213.5 78t-92.5 223h183q21 -123 125 -123q103 0 124 123h183zM1143 0h-250v811l-651 -821h-119v1368h248v-809l653 819h119v-1368z" />
    <glyph glyph-name="afii10028" unicode="&#x41a;" horiz-adv-x="1174" 
d="M1145 0h-316l-254 384q-96 145 -120.5 166t-57.5 21h-14v-571h-260v1358h260v-531h16q39 0 78 41t84 126l82 157q62 120 137.5 175.5t192.5 55.5q45 0 117 -10l-7 -194q-43 6 -65 6q-47 0 -88 -29t-105 -141l-59 -106q-41 -71 -86.5 -117t-110.5 -76q58 -16 105 -62.5
t112 -140.5z" />
    <glyph glyph-name="afii10029" unicode="&#x41b;" horiz-adv-x="1208" 
d="M1083 0h-256v1126h-393v-622q0 -145 -20 -241.5t-84.5 -171t-192.5 -118.5l-143 172q93 42 135.5 106t42.5 259v848h911v-1358z" />
    <glyph glyph-name="afii10030" unicode="&#x41c;" horiz-adv-x="1513" 
d="M1456 0h-268l-111 737l-266 -747h-106l-273 749l-119 -739h-256l234 1368h143l338 -864l311 864h142z" />
    <glyph glyph-name="afii10031" unicode="&#x41d;" horiz-adv-x="1243" 
d="M1118 0h-258v588h-477v-588h-260v1358h260v-539h477v539h258v-1358z" />
    <glyph glyph-name="afii10032" unicode="&#x41e;" horiz-adv-x="1380" 
d="M690 1378q272 0 455.5 -194.5t183.5 -501.5q0 -309 -183.5 -505.5t-455.5 -196.5q-271 0 -455 197t-184 505q0 310 185.5 503t453.5 193zM690 223q164 0 268.5 126t104.5 333t-105 331t-268 124t-268 -125.5t-105 -329.5q0 -206 105 -332.5t268 -126.5z" />
    <glyph glyph-name="afii10033" unicode="&#x41f;" horiz-adv-x="1243" 
d="M1118 0h-258v1126h-477v-1126h-260v1358h995v-1358z" />
    <glyph glyph-name="afii10034" unicode="&#x420;" horiz-adv-x="1026" 
d="M123 1358h323q255 0 390 -108t135 -320q0 -217 -137 -327.5t-388 -110.5h-63v-492h-260v1358zM383 705h37q157 0 221 55.5t64 169.5q0 108 -60.5 161.5t-216.5 53.5h-45v-440z" />
    <glyph glyph-name="afii10035" unicode="&#x421;" horiz-adv-x="1167" 
d="M1122 111q-169 -131 -407 -131q-281 0 -465 196t-184 504q0 309 182.5 503.5t466.5 194.5q238 0 407 -131l-135 -213q-122 105 -272 105q-173 0 -278 -125.5t-105 -333.5q0 -211 103.5 -335t279.5 -124q149 0 272 103z" />
    <glyph glyph-name="afii10036" unicode="&#x422;" horiz-adv-x="1034" 
d="M1001 1126h-354v-1126h-260v1126h-354v232h968v-232z" />
    <glyph glyph-name="afii10037" unicode="&#x423;" horiz-adv-x="1161" 
d="M1139 1358l-420 -1026q-76 -185 -166.5 -268.5t-243.5 -83.5q-135 0 -250 61l109 211q78 -39 139 -39q51 0 89.5 38t107.5 202l-469 905h291l307 -635l235 635h271z" />
    <glyph glyph-name="afii10038" unicode="&#x424;" horiz-adv-x="1423" 
d="M836 1229q247 -17 392.5 -167t145.5 -388t-145 -390t-393 -173v-150h-248v150q-246 16 -392.5 167.5t-146.5 389.5q0 236 146 387t393 172v168h248v-166zM836 338q127 8 201.5 98t74.5 236q0 142 -75 231.5t-201 95.5v-661zM588 338v661q-127 -8 -202 -96.5t-75 -230.5
q0 -141 74.5 -230.5t202.5 -103.5z" />
    <glyph glyph-name="afii10039" unicode="&#x425;" horiz-adv-x="1194" 
d="M1176 0h-291l-295 479l-283 -479h-287l435 705l-400 653h289l264 -434l254 434h289l-406 -658z" />
    <glyph glyph-name="afii10040" unicode="&#x426;" horiz-adv-x="1315" 
d="M1268 231l-209 -520h-201l68 289h-803v1358h260v-1127h477v1127h258v-1127h150z" />
    <glyph glyph-name="afii10041" unicode="&#x427;" horiz-adv-x="1169" 
d="M1047 0h-259v473h-159q-175 0 -281.5 27t-171.5 124t-65 296v438h262v-422q0 -99 19.5 -146t78 -66t184.5 -19h133v653h259v-1358z" />
    <glyph glyph-name="afii10042" unicode="&#x428;" horiz-adv-x="1679" 
d="M1559 0h-1436v1358h260v-1127h332v1127h254v-1127h336v1127h254v-1358z" />
    <glyph glyph-name="afii10043" unicode="&#x429;" horiz-adv-x="1755" 
d="M1708 231l-209 -520h-201l68 289h-1243v1358h260v-1127h332v1127h254v-1127h336v1127h254v-1127h149z" />
    <glyph glyph-name="afii10044" unicode="&#x42a;" horiz-adv-x="1212" 
d="M532 817h82q280 0 412.5 -97.5t132.5 -299.5q0 -420 -557 -420h-330v1141h-252v217h512v-541zM532 221h70q170 0 232.5 48.5t62.5 146.5q0 91 -66.5 136.5t-228.5 45.5h-70v-377z" />
    <glyph glyph-name="afii10045" unicode="&#x42b;" horiz-adv-x="1522" 
d="M1399 0h-262v1358h262v-1358zM383 817h82q279 0 412 -97.5t133 -299.5q0 -420 -557 -420h-330v1358h260v-541zM383 221h70q169 0 232 48.5t63 146.5q0 91 -67.5 136.5t-227.5 45.5h-70v-377z" />
    <glyph glyph-name="afii10046" unicode="&#x42c;" horiz-adv-x="1067" 
d="M383 817h82q279 0 412 -97.5t133 -299.5q0 -420 -557 -420h-330v1358h260v-541zM383 221h70q169 0 232 48.5t63 146.5q0 91 -67.5 136.5t-227.5 45.5h-70v-377z" />
    <glyph glyph-name="afii10047" unicode="&#x42d;" horiz-adv-x="1165" 
d="M47 1249q169 129 410 129q285 0 464 -193t179 -505q0 -309 -183.5 -504.5t-465.5 -195.5q-246 0 -410 122l137 211q128 -94 273 -94q151 0 251 96.5t123 272.5h-514v231h506q-32 153 -129 235.5t-237 82.5q-149 0 -271 -97z" />
    <glyph glyph-name="afii10048" unicode="&#x42e;" horiz-adv-x="1894" 
d="M535 799q40 268 217 423.5t413 155.5q271 0 455 -194.5t184 -501.5q0 -314 -184.5 -508t-454.5 -194q-235 0 -411 154.5t-217 422.5h-152v-557h-262v1358h262v-559h150zM1165 223q164 0 268.5 126t104.5 333q0 205 -104.5 330t-268.5 125q-163 0 -267.5 -125.5
t-104.5 -329.5q0 -206 104.5 -332.5t267.5 -126.5z" />
    <glyph glyph-name="afii10049" unicode="&#x42f;" horiz-adv-x="1085" 
d="M963 0h-261v500h-92l-286 -500h-289l330 547q-256 109 -256 399q0 201 136.5 306.5t397.5 105.5h320v-1358zM702 709v434h-59q-268 0 -268 -205q0 -120 64.5 -174.5t215.5 -54.5h47z" />
    <glyph glyph-name="afii10065" unicode="&#x430;" horiz-adv-x="1114" 
d="M1038 76l-194 -96q-51 51 -66 120q-107 -120 -266 -120q-200 0 -325.5 134.5t-125.5 358.5q0 221 127.5 355.5t333.5 134.5q170 0 273 -125l198 114v-671q0 -134 45 -205zM522 180q104 0 166 80.5t62 212.5q0 134 -60.5 210.5t-167.5 76.5q-99 0 -157 -78.5t-58 -208.5
q0 -133 57 -213t158 -80z" />
    <glyph glyph-name="afii10066" unicode="&#x431;" horiz-adv-x="1085" 
d="M334 887q89 69 217 69q202 0 337.5 -136.5t135.5 -350.5t-138.5 -351.5t-340.5 -137.5q-229 0 -355.5 152t-126.5 456q0 347 129.5 542.5t395.5 264.5q242 60 317 112l96 -172q-100 -73 -354 -131q-255 -57 -313 -317zM545 182q106 0 169.5 79.5t63.5 207.5
q0 127 -63.5 206t-169.5 79q-105 0 -169.5 -79t-64.5 -204q0 -128 64 -208.5t170 -80.5z" />
    <glyph glyph-name="afii10067" unicode="&#x432;" horiz-adv-x="963" 
d="M715 510q87 -18 138.5 -78t51.5 -143q0 -289 -434 -289h-375v944h369q190 0 290.5 -61.5t100.5 -177.5q0 -145 -141 -195zM336 578h115q97 0 129 24.5t32 73.5q0 47 -33 70.5t-116 23.5h-127v-192zM336 174h137q107 0 145.5 30t38.5 91q0 62 -42 91.5t-158 29.5h-121
v-242z" />
    <glyph glyph-name="afii10068" unicode="&#x433;" horiz-adv-x="725" 
d="M698 944l-108 -203h-250v-741h-244v944h602z" />
    <glyph glyph-name="afii10069" unicode="&#x434;" horiz-adv-x="1081" 
d="M1034 201l-239 -469h-199l76 268h-389l-76 -268h-176v469h80q71 81 71 260v483h748v-743h104zM686 201v542h-272v-286q0 -167 -56 -256h328z" />
    <glyph glyph-name="afii10070" unicode="&#x435;" horiz-adv-x="1065" 
d="M1010 502l-688 -142q43 -178 221 -178q137 0 286 90l97 -180q-176 -112 -389 -112q-195 0 -335.5 137.5t-140.5 351.5q0 223 139.5 358.5t340.5 135.5q196 0 326 -121.5t143 -339.5zM748 618q-61 144 -205 144q-94 0 -158.5 -62t-77.5 -174z" />
    <glyph glyph-name="afii10072" unicode="&#x436;" horiz-adv-x="1395" 
d="M1370 0h-291q-184 317 -206.5 351t-49.5 34h-4v-371l-246 -20v391h-4q-34 0 -72 -65l-184 -320h-290l184 284q73 112 108.5 151.5t71.5 58.5q-56 21 -158 165q-36 53 -61 73t-55 20q-33 0 -58 -4v204q47 17 97 17q64 0 117 -39.5t116 -143.5q72 -112 105 -148t83 -42v340
l246 20v-360q51 6 84.5 42t104.5 148q66 106 118 144.5t113 38.5q52 0 98 -17v-204q-26 4 -57 4q-30 0 -55 -20t-62 -73q-101 -144 -157 -165q65 -34 129 -132z" />
    <glyph glyph-name="afii10073" unicode="&#x437;" horiz-adv-x="842" 
d="M616 508q86 -27 132.5 -88t46.5 -137q0 -149 -110 -229.5t-288 -80.5q-217 0 -377 109l101 170q135 -82 266 -82q76 0 120 30.5t44 88.5q0 69 -55 95t-152 26h-70v165h84q158 0 158 107q0 88 -123 88q-124 0 -250 -72l-92 168q165 99 363 99q155 0 246.5 -65t91.5 -185
q0 -150 -136 -207z" />
    <glyph glyph-name="afii10074" unicode="&#x438;" horiz-adv-x="987" 
d="M891 0h-232v500l-479 -527h-84v971h232v-506l479 527h84v-965z" />
    <glyph glyph-name="afii10075" unicode="&#x439;" horiz-adv-x="987" 
d="M807 1397q-14 -143 -96 -221t-213 -78q-134 0 -214.5 77.5t-90.5 221.5h182q23 -127 125 -127t125 127h182zM891 0h-232v500l-479 -527h-84v971h232v-506l479 527h84v-965z" />
    <glyph glyph-name="afii10076" unicode="&#x43a;" horiz-adv-x="967" 
d="M928 0h-297q-185 321 -206.5 353t-53.5 32h-13v-385h-243v944h243v-350q57 0 92.5 36.5t114.5 160.5q65 102 117 140t113 38q53 0 100 -17v-202q-26 2 -59 2q-37 0 -60.5 -21t-62.5 -78q-80 -121 -154 -155q68 -32 133 -133z" />
    <glyph glyph-name="afii10077" unicode="&#x43b;" horiz-adv-x="1018" 
d="M922 0h-244v743h-260v-397q0 -193 -67 -265.5t-208 -107.5l-100 172q82 29 106.5 66t24.5 117v616h748v-944z" />
    <glyph glyph-name="afii10078" unicode="&#x43c;" horiz-adv-x="1257" 
d="M1202 0h-246l-69 438l-223 -461h-93l-211 461l-69 -438h-236l191 967h96l291 -590l293 590h94z" />
    <glyph glyph-name="afii10079" unicode="&#x43d;" horiz-adv-x="987" 
d="M891 0h-246v381h-305v-381h-244v944h244v-362h305v362h246v-944z" />
    <glyph glyph-name="afii10080" unicode="&#x43e;" horiz-adv-x="1083" 
d="M543 963q205 0 342 -136t137 -356t-137.5 -355.5t-341.5 -135.5q-206 0 -344 136.5t-138 354.5q0 219 137 355.5t345 136.5zM543 182q107 0 170 79t63 210t-63 210t-170 79q-108 0 -172 -79t-64 -210t64 -210t172 -79z" />
    <glyph glyph-name="afii10081" unicode="&#x43f;" horiz-adv-x="987" 
d="M891 0h-246v743h-305v-743h-244v944h795v-944z" />
    <glyph glyph-name="afii10082" unicode="&#x440;" horiz-adv-x="1106" 
d="M301 846q116 117 307 117q190 0 312 -138.5t122 -351.5q0 -221 -127 -357t-325 -136q-147 0 -250 98v-420l-244 -74v1377zM573 182q103 0 164.5 80.5t61.5 208.5q0 132 -60 210.5t-166 78.5q-109 0 -171 -77.5t-62 -211.5q0 -127 62.5 -208t170.5 -81z" />
    <glyph glyph-name="afii10083" unicode="&#x441;" horiz-adv-x="905" 
d="M870 74q-136 -94 -327 -94q-222 0 -352 132t-130 355q0 226 130.5 361t351.5 135q199 0 321 -95l-104 -178q-113 70 -215 70q-109 0 -173.5 -80.5t-64.5 -214.5q0 -127 65.5 -205t172.5 -78q117 0 221 74z" />
    <glyph glyph-name="afii10084" unicode="&#x442;" horiz-adv-x="881" 
d="M858 944l-104 -203h-219v-741h-244v741h-254v203h821z" />
    <glyph glyph-name="afii10085" unicode="&#x443;" horiz-adv-x="934" 
d="M922 944l-506 -1288l-279 -86l205 510l-319 864h258l180 -577l221 577h240z" />
    <glyph glyph-name="afii10086" unicode="&#x444;" horiz-adv-x="1282" 
d="M762 958q213 -10 335 -142.5t122 -346.5q0 -212 -122.5 -344.5t-334.5 -144.5v-318l-244 -76v394q-215 12 -336 145.5t-121 343.5q0 212 123 345.5t334 143.5v455l244 76v-531zM762 180q100 4 157.5 84t57.5 205q0 119 -58 200.5t-157 86.5v-576zM518 180v576
q-99 -3 -156 -82.5t-57 -202.5q0 -121 56.5 -203t156.5 -88z" />
    <glyph glyph-name="afii10087" unicode="&#x445;" horiz-adv-x="991" 
d="M969 0h-285l-199 293l-184 -293h-278l327 489l-305 455h283l176 -262l164 262h274l-301 -455z" />
    <glyph glyph-name="afii10088" unicode="&#x446;" horiz-adv-x="1036" 
d="M983 201l-227 -469h-195l76 268h-541v944h244v-743h307v743h244v-743h92z" />
    <glyph glyph-name="afii10089" unicode="&#x447;" horiz-adv-x="926" 
d="M829 0h-245v287h-144q-207 0 -296 76.5t-89 293.5v287h217v-278q0 -123 38.5 -155t158.5 -32h115v465h245v-944z" />
    <glyph glyph-name="afii10090" unicode="&#x448;" horiz-adv-x="1485" 
d="M1389 0h-1293v944h246v-743h279v743h243v-743h281v743h244v-944z" />
    <glyph glyph-name="afii10091" unicode="&#x449;" horiz-adv-x="1536" 
d="M1483 201l-228 -469h-196l78 268h-1041v944h246v-743h279v743h243v-743h281v743h244v-743h94z" />
    <glyph glyph-name="afii10092" unicode="&#x44a;" horiz-adv-x="1106" 
d="M502 590h121q229 0 332.5 -72.5t103.5 -218.5q0 -299 -443 -299h-360v756h-219v188h465v-354zM502 176h114q108 0 149.5 27.5t41.5 91.5q0 62 -46 90.5t-145 28.5h-114v-238z" />
    <glyph glyph-name="afii10093" unicode="&#x44b;" horiz-adv-x="1333" 
d="M1237 0h-244v877l244 88v-965zM340 590h123q228 0 332 -72.5t104 -218.5q0 -299 -442 -299h-361v944h244v-354zM340 176h115q108 0 150 27.5t42 91.5q0 62 -45.5 90.5t-144.5 28.5h-117v-238z" />
    <glyph glyph-name="afii10094" unicode="&#x44c;" horiz-adv-x="946" 
d="M340 590h123q228 0 332 -72.5t104 -218.5q0 -299 -442 -299h-361v944h244v-354zM340 176h115q108 0 150 27.5t42 91.5q0 62 -45.5 90.5t-144.5 28.5h-117v-238z" />
    <glyph glyph-name="afii10095" unicode="&#x44d;" horiz-adv-x="905" 
d="M39 868q133 95 323 95q222 0 352 -133t130 -357q0 -225 -130.5 -359t-351.5 -134q-198 0 -325 92l102 180q101 -70 223 -70q89 0 149.5 54.5t78.5 154.5h-371v160h373q-20 100 -80.5 154.5t-149.5 54.5q-117 0 -217 -68z" />
    <glyph glyph-name="afii10096" unicode="&#x44e;" horiz-adv-x="1503" 
d="M500 578q35 180 165.5 282.5t305.5 102.5q205 0 342 -136t137 -356q0 -224 -139 -357.5t-340 -133.5q-179 0 -310.5 106t-162.5 293h-158v-379h-244v877l244 88v-387h160zM971 182q107 0 170 79t63 210t-63 210t-170 79q-108 0 -172 -79t-64 -210q0 -129 63 -209t173 -80
z" />
    <glyph glyph-name="afii10097" unicode="&#x44f;" horiz-adv-x="944" 
d="M848 0h-242v344h-57l-221 -344h-299l278 381q-93 28 -144.5 96t-51.5 162q0 144 108 224.5t311 80.5h318v-944zM606 520v242h-71q-89 0 -129.5 -28.5t-40.5 -90.5q0 -123 161 -123h80z" />
    <glyph glyph-name="afii10071" unicode="&#x451;" horiz-adv-x="1065" 
d="M1008 502l-686 -142q20 -86 78 -133t141 -47q136 0 288 92l95 -180q-173 -112 -387 -112q-195 0 -335.5 137t-140.5 350q0 230 142.5 363t335.5 133q195 0 326.5 -122t142.5 -339zM748 618q-61 144 -205 144q-94 0 -159 -62.5t-77 -173.5zM750 1407q56 0 98.5 -43
t42.5 -100q0 -58 -42.5 -101t-98.5 -43q-57 0 -99.5 43t-42.5 101t42.5 100.5t99.5 42.5zM313 1407q57 0 99.5 -43t42.5 -100q0 -58 -42.5 -101t-99.5 -43q-58 0 -100.5 43t-42.5 101t42.5 100.5t100.5 42.5z" />
    <glyph glyph-name="afii10099" unicode="&#x452;" horiz-adv-x="1014" 
d="M924 125q0 -232 -91.5 -355t-297.5 -184l-86 170q119 36 175 108t56 216v495q0 90 -28 128t-91 38q-91 0 -142.5 -77t-51.5 -205v-459h-246v1096h-111v164h111v137l239 116v-253h357l-90 -164h-267v-281q43 70 116.5 109t156.5 39q291 0 291 -367v-471z" />
    <glyph glyph-name="afii10100" unicode="&#x453;" horiz-adv-x="731" 
d="M727 1401l-281 -309h-184l193 309h272zM694 944l-110 -203h-244v-741h-244v944h598z" />
    <glyph glyph-name="afii10101" unicode="&#x454;" horiz-adv-x="909" 
d="M870 74q-136 -94 -327 -94q-222 0 -352 132t-130 355q0 226 130.5 361t351.5 135q199 0 321 -95l-104 -178q-113 70 -215 70q-87 0 -148.5 -54.5t-83.5 -154.5h373v-160h-373q18 -99 80 -154t152 -55q115 0 221 72z" />
    <glyph glyph-name="afii10102" unicode="&#x455;" horiz-adv-x="776" 
d="M602 717q-95 61 -201 61q-110 0 -110 -86q0 -44 30.5 -65t115.5 -50q91 -32 148.5 -63t98.5 -91t41 -153q0 -137 -99.5 -213.5t-246.5 -76.5q-184 0 -328 112l99 158q103 -86 231 -86q111 0 111 94q0 41 -33.5 62.5t-123.5 53.5q-83 29 -139.5 59.5t-99.5 92.5t-43 160
q0 130 97 203.5t247 73.5q176 0 301 -97z" />
    <glyph glyph-name="afii10103" unicode="&#x456;" horiz-adv-x="477" 
d="M238 1366q62 0 107.5 -44.5t45.5 -109.5q0 -63 -45.5 -107t-107.5 -44t-107 44.5t-45 106.5q0 64 45 109t107 45zM360 0h-243v874l243 87v-961z" />
    <glyph glyph-name="afii10104" unicode="&#x457;" horiz-adv-x="467" 
d="M432 1407q58 0 99.5 -42.5t41.5 -100.5q0 -59 -41.5 -101.5t-99.5 -42.5q-57 0 -99 43t-42 101q0 57 42 100t99 43zM37 1407q58 0 100.5 -42.5t42.5 -100.5t-42.5 -101t-100.5 -43q-57 0 -100 43t-43 101q0 57 43 100t100 43zM354 0h-241v874l241 87v-961z" />
    <glyph glyph-name="afii10105" unicode="&#x458;" horiz-adv-x="475" 
d="M229 1366q63 0 108.5 -44.5t45.5 -109.5q0 -63 -45.5 -107t-108.5 -44q-61 0 -105 44.5t-44 106.5q0 65 44 109.5t105 44.5zM354 125q0 -233 -92 -355.5t-299 -183.5l-86 170q120 36 176 108t56 216v792l245 89v-836z" />
    <glyph glyph-name="afii10106" unicode="&#x459;" horiz-adv-x="1530" 
d="M922 590h122q228 0 332.5 -72.5t104.5 -218.5q0 -299 -443 -299h-360v743h-260v-397q0 -194 -67 -268t-208 -107l-100 170q81 28 106 67t25 120v616h748v-354zM922 176h114q109 0 151 27.5t42 91.5q0 62 -46 90.5t-145 28.5h-116v-238z" />
    <glyph glyph-name="afii10107" unicode="&#x45a;" horiz-adv-x="1495" 
d="M891 590h121q229 0 332.5 -72.5t103.5 -218.5q0 -299 -442 -299h-361v391h-305v-391h-244v879l244 88v-375h305v352h246v-354zM891 176h115q107 0 148.5 27.5t41.5 91.5q0 62 -46 90.5t-144 28.5h-115v-238z" />
    <glyph glyph-name="afii10108" unicode="&#x45b;" horiz-adv-x="1014" 
d="M924 0h-244v575q0 90 -28 128t-91 38q-91 0 -142.5 -77t-51.5 -205v-459h-246v1096h-111v164h111v137l239 116v-253h357l-90 -164h-267v-281q43 70 116.5 109t156.5 39q291 0 291 -367v-596z" />
    <glyph glyph-name="afii10109" unicode="&#x45c;" horiz-adv-x="928" 
d="M793 1401l-281 -309h-182l190 309h273zM909 0h-297q-184 321 -206 353t-54 32h-12v-385h-244v944h244v-350q56 0 95.5 41t111.5 156q64 102 116.5 140t112.5 38q54 0 101 -17v-202q-25 2 -60 2q-36 0 -59.5 -21t-63.5 -78q-81 -123 -153 -155q67 -32 133 -133z" />
    <glyph glyph-name="afii10110" unicode="&#x45e;" horiz-adv-x="934" 
d="M774 1397q-15 -144 -97 -221.5t-212 -77.5q-133 0 -214 77.5t-91 221.5h182q23 -127 123 -127q105 0 125 127h184zM922 944l-506 -1288l-279 -86l205 510l-319 864h258l180 -577l221 577h240z" />
    <glyph glyph-name="afii10193" unicode="&#x45f;" horiz-adv-x="987" 
d="M891 0h-281l-131 -268h-194l77 268h-266v944h244v-743h305v743h246v-944z" />
    <glyph glyph-name="afii10050" unicode="&#x490;" horiz-adv-x="952" 
d="M905 1141h-522v-1141h-260v1358h539l61 289h182v-506z" />
    <glyph glyph-name="afii10098" unicode="&#x491;" horiz-adv-x="752" 
d="M707 741h-367v-741h-244v944h379l76 262h156v-465z" />
    <glyph glyph-name="afii61352" unicode="&#x2116;" horiz-adv-x="1989" 
d="M1143 -10h-119l-653 821v-811h-248v1368h119l651 -819v809h250v-1368zM1571 993q128 0 211.5 -84.5t83.5 -224.5q0 -138 -83.5 -223.5t-211.5 -85.5q-131 0 -215 85.5t-84 223.5q0 142 85 225.5t214 83.5zM1571 520q56 0 89.5 46.5t33.5 117.5t-33.5 116.5t-89.5 45.5
q-58 0 -92.5 -45t-34.5 -117q0 -71 35 -117.5t92 -46.5zM1827 33h-510v186h510v-186z" />
    <glyph glyph-name="pi" unicode="&#x3c0;" horiz-adv-x="1200" 
d="M1176 944l-105 -201h-141v-333q0 -141 35 -211t110 -127l-203 -99q-186 110 -186 381v389h-223v-743h-244v743h-190v201h1147z" />
    <glyph glyph-name="tonos" unicode="&#x384;" horiz-adv-x="719" 
d="M625 1413l-246 -317h-176l166 317h256z" />
    <glyph glyph-name="dieresistonos" unicode="&#x385;" horiz-adv-x="600" 
d="M496 1425l-197 -329h-176l119 329h254zM625 1407q58 0 100.5 -42.5t42.5 -100.5t-42.5 -101t-100.5 -43q-57 0 -98.5 42.5t-41.5 101.5q0 58 41.5 100.5t98.5 42.5zM-25 1407q57 0 99.5 -43t42.5 -100q0 -58 -42.5 -101t-99.5 -43q-58 0 -100.5 43t-42.5 101t42.5 100.5
t100.5 42.5z" />
    <glyph glyph-name="Alphatonos" unicode="&#x386;" horiz-adv-x="1243" 
d="M1223 0h-273l-102 270h-465l-98 -270h-265l539 1376h123zM772 477l-158 422l-153 -422h311zM379 1358l-197 -303h-153l114 303h236z" />
    <glyph glyph-name="Epsilontonos" unicode="&#x388;" 
d="M958 0h-835v1358h809l-129 -217h-420v-320h414v-233h-414v-357h438zM68 1358l-197 -303h-154l115 303h236z" />
    <glyph glyph-name="Etatonos" unicode="&#x389;" horiz-adv-x="1243" 
d="M1118 0h-258v588h-477v-588h-260v1358h260v-539h477v539h258v-1358zM68 1358l-197 -303h-154l115 303h236z" />
    <glyph glyph-name="Iotatonos" unicode="&#x38a;" horiz-adv-x="528" 
d="M393 0h-262v1358h262v-1358zM76 1358l-197 -303h-153l114 303h236z" />
    <glyph glyph-name="Omicrontonos" unicode="&#x38c;" horiz-adv-x="1409" 
d="M705 1378q272 0 455 -194.5t183 -501.5q0 -309 -183.5 -505.5t-454.5 -196.5t-455 197t-184 505q0 310 185 503t454 193zM705 223q164 0 269 126t105 333q0 204 -105.5 329.5t-268.5 125.5t-268 -125.5t-105 -329.5q0 -206 104.5 -332.5t268.5 -126.5zM193 1358
l-199 -303h-152l115 303h236z" />
    <glyph glyph-name="Upsilontonos" unicode="&#x38e;" horiz-adv-x="1153" 
d="M1139 1358l-441 -774v-584h-260v580l-424 778h277l284 -537l289 537h275zM-25 1358l-196 -303h-154l115 303h235z" />
    <glyph glyph-name="Omegatonos" unicode="&#x38f;" horiz-adv-x="1462" 
d="M1444 0h-584v102q238 276 238 594q0 200 -103.5 320.5t-263.5 120.5t-263 -120t-103 -321q0 -321 237 -594v-102h-584l115 211h176q-211 217 -211 504q0 284 183.5 473.5t449.5 189.5q270 0 451.5 -186.5t181.5 -476.5q0 -271 -211 -504h174zM223 1358l-196 -303h-154
l115 303h235z" />
    <glyph glyph-name="iotadieresistonos" unicode="&#x390;" horiz-adv-x="520" 
d="M483 92l-168 -119q-107 58 -158 148.5t-51 245.5v526l246 63v-567q0 -110 28 -178.5t103 -118.5zM483 1425l-197 -329h-176l119 329h254zM612 1407q58 0 100.5 -42.5t42.5 -100.5t-42.5 -101t-100.5 -43q-57 0 -98.5 42.5t-41.5 101.5q0 58 41.5 100.5t98.5 42.5z
M-38 1407q57 0 99.5 -43t42.5 -100q0 -58 -42.5 -101t-99.5 -43q-58 0 -100.5 43t-42.5 101t42.5 100.5t100.5 42.5z" />
    <glyph glyph-name="Alpha" unicode="&#x391;" horiz-adv-x="1243" 
d="M1223 0h-275l-100 268h-465l-98 -268h-265l539 1376h123zM772 477l-158 422l-155 -422h313z" />
    <glyph glyph-name="Beta" unicode="&#x392;" horiz-adv-x="1063" 
d="M786 729q107 -41 164.5 -125t57.5 -192q0 -412 -549 -412h-334v1358h334q264 0 387 -84.5t123 -261.5q0 -209 -183 -283zM385 817h74q248 0 248 172q0 78 -59 115t-191 37h-72v-324zM385 231h74q156 0 221 49t65 150q0 94 -68 140t-218 46h-74v-385z" />
    <glyph glyph-name="Gamma" unicode="&#x393;" horiz-adv-x="946" 
d="M944 1358l-131 -217h-430v-1141h-260v1358h821z" />
    <glyph glyph-name="Delta" unicode="&#x394;" horiz-adv-x="1174" 
d="M1233 0h-1202l540 1376h123zM885 209l-258 690l-256 -690h514z" />
    <glyph glyph-name="Epsilon" unicode="&#x395;" 
d="M958 0h-835v1358h809l-129 -217h-420v-320h414v-233h-414v-357h438z" />
    <glyph glyph-name="Zeta" unicode="&#x396;" horiz-adv-x="1116" 
d="M1079 233l-127 -233h-923l604 1126h-563l127 232h860l-602 -1125h624z" />
    <glyph glyph-name="Eta" unicode="&#x397;" horiz-adv-x="1243" 
d="M1118 0h-258v588h-477v-588h-260v1358h260v-539h477v539h258v-1358z" />
    <glyph glyph-name="Theta" unicode="&#x398;" horiz-adv-x="1409" 
d="M705 1378q272 0 455 -194.5t183 -501.5q0 -309 -183.5 -505.5t-454.5 -196.5t-455 197t-184 505q0 310 185 503t454 193zM705 223q164 0 269 126t105 333q0 204 -105.5 329.5t-268.5 125.5t-268 -125.5t-105 -329.5q0 -206 104.5 -332.5t268.5 -126.5zM965 803l-99 -242
h-415l98 242h416z" />
    <glyph glyph-name="Iota" unicode="&#x399;" horiz-adv-x="528" 
d="M393 0h-262v1358h262v-1358z" />
    <glyph glyph-name="Kappa" unicode="&#x39a;" horiz-adv-x="1169" 
d="M1157 0h-323l-449 573v-573h-262v1358h262v-553l410 553h292l-493 -649z" />
    <glyph glyph-name="Lambda" unicode="&#x39b;" horiz-adv-x="1225" 
d="M1202 0h-264l-330 895l-325 -895h-263l527 1376h123z" />
    <glyph glyph-name="Mu" unicode="&#x39c;" horiz-adv-x="1522" 
d="M1460 0h-268l-111 737l-266 -747h-106l-273 749l-119 -739h-256l234 1368h143l338 -864l311 864h142z" />
    <glyph glyph-name="Nu" unicode="&#x39d;" horiz-adv-x="1266" 
d="M1143 -10h-119l-653 821v-811h-248v1368h119l651 -819v809h250v-1368z" />
    <glyph glyph-name="Xi" unicode="&#x39e;" horiz-adv-x="1040" 
d="M989 1358l-129 -221h-680l-129 221h938zM852 588h-664v233h664v-233zM1014 0h-987l135 233h717z" />
    <glyph glyph-name="Omicron" unicode="&#x39f;" horiz-adv-x="1409" 
d="M705 1378q272 0 455 -194.5t183 -501.5q0 -309 -183.5 -505.5t-454.5 -196.5t-455 197t-184 505q0 310 185 503t454 193zM705 223q164 0 269 126t105 333q0 204 -105.5 329.5t-268.5 125.5t-268 -125.5t-105 -329.5q0 -206 104.5 -332.5t268.5 -126.5z" />
    <glyph glyph-name="Pi" unicode="&#x3a0;" horiz-adv-x="1243" 
d="M1118 0h-258v1126h-477v-1126h-260v1358h995v-1358z" />
    <glyph glyph-name="Rho" unicode="&#x3a1;" horiz-adv-x="1026" 
d="M123 1360h323q253 0 389 -109t136 -321q0 -217 -137 -327.5t-388 -110.5h-63v-492h-260v1360zM383 705h37q157 0 221 55.5t64 169.5q0 109 -61.5 163t-215.5 54h-45v-442z" />
    <glyph glyph-name="Sigma" unicode="&#x3a3;" horiz-adv-x="979" 
d="M956 0h-868v172l348 524l-340 502v160h838l-121 -217h-403l309 -447l-318 -463h428z" />
    <glyph glyph-name="Tau" unicode="&#x3a4;" horiz-adv-x="1034" 
d="M1001 1126h-354v-1126h-260v1126h-354v232h968v-232z" />
    <glyph glyph-name="Upsilon" unicode="&#x3a5;" horiz-adv-x="1153" 
d="M1139 1358l-441 -774v-584h-260v580l-424 778h277l284 -537l289 537h275z" />
    <glyph glyph-name="Phi" unicode="&#x3a6;" horiz-adv-x="1423" 
d="M836 1229q247 -17 392.5 -167t145.5 -388t-145 -390t-393 -173v-150h-248v150q-246 16 -392.5 167.5t-146.5 389.5q0 236 146 387t393 172v168h248v-166zM836 338q127 8 201.5 98t74.5 236q0 142 -75 231.5t-201 95.5v-661zM588 338v661q-127 -8 -202 -96.5t-75 -230.5
q0 -141 74.5 -230.5t202.5 -103.5z" />
    <glyph glyph-name="Chi" unicode="&#x3a7;" horiz-adv-x="1194" 
d="M1176 0h-291l-295 479l-283 -479h-287l435 705l-400 653h289l264 -434l254 434h289l-406 -658z" />
    <glyph glyph-name="Psi" unicode="&#x3a8;" horiz-adv-x="1454" 
d="M1362 1358v-391q0 -272 -121.5 -414t-384.5 -176v-377h-258v377q-264 34 -385 175.5t-121 414.5v391h262v-371q0 -191 59 -270t185 -105v713l258 64v-777q110 16 177 90t67 285v371h262z" />
    <glyph glyph-name="Omega" unicode="&#x3a9;" horiz-adv-x="1462" 
d="M1444 0h-584v102q238 276 238 594q0 200 -103.5 320.5t-263.5 120.5t-263 -120t-103 -321q0 -321 237 -594v-102h-584l115 211h176q-211 217 -211 504q0 284 183.5 473.5t449.5 189.5q270 0 451.5 -186.5t181.5 -476.5q0 -271 -211 -504h174z" />
    <glyph glyph-name="Iotadieresis" unicode="&#x3aa;" horiz-adv-x="528" 
d="M393 0h-260v1358h260v-1358zM482 1733q56 0 98.5 -43t42.5 -100q0 -58 -42.5 -101t-98.5 -43q-57 0 -99.5 43t-42.5 101t42.5 100.5t99.5 42.5zM45 1733q57 0 99.5 -43t42.5 -100q0 -58 -42.5 -101t-99.5 -43q-58 0 -100.5 43t-42.5 101t42.5 100.5t100.5 42.5z" />
    <glyph glyph-name="Upsilondieresis" unicode="&#x3ab;" horiz-adv-x="1153" 
d="M772 1735q58 0 100.5 -43t42.5 -101t-42.5 -100.5t-100.5 -42.5q-57 0 -99 42.5t-42 100.5q0 59 42 101.5t99 42.5zM369 1735q58 0 100.5 -43t42.5 -101t-42.5 -100.5t-100.5 -42.5q-57 0 -99.5 42.5t-42.5 100.5t42.5 101t99.5 43zM1139 1358l-441 -774v-584h-260v580
l-424 778h277l284 -537l289 537h275z" />
    <glyph glyph-name="alphatonos" unicode="&#x3ac;" horiz-adv-x="1139" 
d="M1055 51l-207 -76q-54 58 -66 125q-112 -120 -272 -120q-191 0 -320 137.5t-129 355.5q0 217 129.5 353.5t319.5 136.5q165 0 272 -117q17 72 64 117l203 -89q-37 -41 -37 -169v-431q0 -165 43 -223zM535 180q106 0 169.5 80.5t63.5 212.5q0 131 -63 209t-170 78
q-104 0 -166 -78.5t-62 -208.5q0 -129 60 -211t168 -82zM853 1386l-246 -317h-176l166 317h256z" />
    <glyph glyph-name="epsilontonos" unicode="&#x3ad;" horiz-adv-x="913" 
d="M870 74q-136 -94 -327 -94q-222 0 -352 132t-130 355q0 226 130.5 361t351.5 135q199 0 321 -95l-104 -178q-113 70 -215 70q-88 0 -149.5 -53.5t-82.5 -149.5h373v-162h-373q17 -101 79.5 -157t154.5 -56q114 0 219 72zM816 1386l-246 -317h-176l166 317h256z" />
    <glyph glyph-name="etatonos" unicode="&#x3ae;" horiz-adv-x="987" 
d="M895 -342l-244 -74v991q0 90 -28 129t-88 39q-92 0 -143.5 -77.5t-51.5 -206.5v-459h-244v877l236 84v-146q42 70 116.5 109t155.5 39q291 0 291 -367v-938zM802 1386l-246 -317h-176l166 317h256z" />
    <glyph glyph-name="iotatonos" unicode="&#x3af;" horiz-adv-x="520" 
d="M483 92l-168 -119q-107 58 -158 148.5t-51 245.5v526l246 63v-567q0 -110 28 -178.5t103 -118.5zM529 1386l-246 -317h-176l166 317h256z" />
    <glyph glyph-name="upsilondieresistonos" unicode="&#x3b0;" horiz-adv-x="981" 
d="M891 385q0 -192 -107 -298.5t-297 -106.5q-194 0 -295.5 105.5t-101.5 309.5v549h246v-543q0 -109 35.5 -154.5t115.5 -45.5q160 0 160 192v551h244v-559zM687 1425l-197 -329h-176l119 329h254zM816 1407q58 0 100.5 -42.5t42.5 -100.5t-42.5 -101t-100.5 -43
q-57 0 -98.5 42.5t-41.5 101.5q0 58 41.5 100.5t98.5 42.5zM166 1407q57 0 99.5 -43t42.5 -100q0 -58 -42.5 -101t-99.5 -43q-58 0 -100.5 43t-42.5 101t42.5 100.5t100.5 42.5z" />
    <glyph glyph-name="alpha" unicode="&#x3b1;" horiz-adv-x="1139" 
d="M1055 51l-207 -76q-54 58 -66 125q-112 -120 -272 -120q-191 0 -320 137.5t-129 355.5q0 217 129.5 353.5t319.5 136.5q165 0 272 -117q17 72 64 117l203 -89q-37 -41 -37 -169v-431q0 -165 43 -223zM535 180q106 0 169.5 80.5t63.5 212.5q0 131 -63 209t-170 78
q-104 0 -166 -78.5t-62 -208.5q0 -129 60 -211t168 -82z" />
    <glyph glyph-name="beta" unicode="&#x3b2;" horiz-adv-x="1090" 
d="M782 817q250 -96 250 -383q0 -205 -116.5 -331t-325.5 -126q-137 0 -250 50v-369l-244 -74v1411q0 247 117.5 380.5t339.5 133.5q181 0 290 -105t109 -276q0 -206 -170 -311zM340 242q91 -49 229 -49q104 0 160.5 62t56.5 177q0 92 -32.5 148.5t-108 85t-246.5 28.5
l101 191q207 0 207 211q0 84 -47.5 132t-124.5 48q-195 0 -195 -248v-786z" />
    <glyph glyph-name="gamma" unicode="&#x3b3;" horiz-adv-x="956" 
d="M928 944l-340 -856v-430l-246 -74v502l-313 858h260l190 -577l207 577h242z" />
    <glyph glyph-name="delta" unicode="&#x3b4;" horiz-adv-x="1085" 
d="M735 1298q-72 37 -170 37q-56 0 -91.5 -23t-35.5 -63q0 -43 53 -97.5t242 -172.5q75 -50 116 -86.5t83.5 -102t66 -146t23.5 -173.5q0 -220 -137 -355.5t-342 -135.5q-208 0 -345 138t-137 353q0 179 98.5 307t272.5 166q-211 127 -211 297q0 119 92.5 192.5t243.5 73.5
q155 0 301 -67zM543 182q107 0 171 79.5t64 209.5q0 127 -63 209t-172 82q-107 0 -172.5 -81t-65.5 -208t64 -209t174 -82z" />
    <glyph glyph-name="epsilon" unicode="&#x3b5;" horiz-adv-x="913" 
d="M870 74q-136 -94 -327 -94q-222 0 -352 132t-130 355q0 226 130.5 361t351.5 135q199 0 321 -95l-104 -178q-113 70 -215 70q-88 0 -149.5 -53.5t-82.5 -149.5h373v-162h-373q17 -101 79.5 -157t154.5 -56q114 0 219 72z" />
    <glyph glyph-name="zeta" unicode="&#x3b6;" horiz-adv-x="895" 
d="M842 1382q-243 -232 -387 -494t-144 -468q0 -211 209 -211h25q130 0 195.5 -22t108 -78.5t42.5 -153.5q0 -87 -53.5 -163t-135.5 -111l-104 124q76 50 76 113q0 38 -25.5 60t-105.5 22h-23q-244 0 -353.5 98.5t-109.5 307.5q0 376 420 866h-344v211h709v-101z" />
    <glyph glyph-name="eta" unicode="&#x3b7;" horiz-adv-x="987" 
d="M895 -342l-244 -74v991q0 90 -28 129t-88 39q-92 0 -143.5 -77.5t-51.5 -206.5v-459h-244v877l236 84v-146q42 70 116.5 109t155.5 39q291 0 291 -367v-938z" />
    <glyph glyph-name="theta" unicode="&#x3b8;" horiz-adv-x="1010" 
d="M506 1507q210 0 323 -204t113 -560q0 -342 -116 -552.5t-324 -210.5q-202 0 -317 212.5t-115 550.5q0 345 114.5 554.5t321.5 209.5zM504 205q186 0 186 536q0 537 -186 537q-182 0 -182 -537q0 -536 182 -536zM684 834l-74 -181h-282l71 181h285z" />
    <glyph glyph-name="iota" unicode="&#x3b9;" horiz-adv-x="520" 
d="M483 92l-168 -119q-107 58 -158 148.5t-51 245.5v526l246 63v-567q0 -110 28 -178.5t103 -118.5z" />
    <glyph glyph-name="kappa" unicode="&#x3ba;" horiz-adv-x="940" 
d="M934 0h-311l-283 399v-399h-244v944h244v-352l272 352h291l-352 -430z" />
    <glyph glyph-name="lambda" unicode="&#x3bb;" horiz-adv-x="950" 
d="M942 113l-172 -138q-64 47 -104 108t-75 162l-128 361l-199 -606h-252l334 895l-209 557h248l414 -1112q59 -162 143 -227z" />
    <glyph glyph-name="mu" unicode="&#x3bc;" horiz-adv-x="1006" 
d="M936 78l-184 -98q-75 84 -90 155q-44 -72 -114.5 -113.5t-144.5 -41.5q-37 0 -67 12v-334l-246 -74v1360h246v-577q0 -86 25.5 -126t89.5 -40q93 0 144.5 76.5t51.5 205.5v461h244v-668q0 -75 8 -112.5t37 -85.5z" />
    <glyph glyph-name="nu" unicode="&#x3bd;" horiz-adv-x="926" 
d="M913 944l-383 -954h-165l-353 954h262l191 -577l205 577h243z" />
    <glyph glyph-name="xi" unicode="&#x3be;" horiz-adv-x="901" 
d="M614 717h-51q-115 0 -189.5 -81t-74.5 -194q0 -111 60 -172t163 -61h25q130 0 199.5 -22t112 -78t42.5 -154q0 -88 -54 -163t-136 -111l-105 124q78 52 78 111q0 41 -29.5 62.5t-113.5 21.5h-23q-224 0 -343.5 111.5t-119.5 316.5q0 124 70 231.5t199 165.5
q-90 42 -140.5 122.5t-50.5 170.5q0 157 117.5 271t304.5 114q180 0 317 -94l-86 -178q-120 74 -233 74q-78 0 -130 -51t-52 -128q0 -97 62 -155t181 -58h86z" />
    <glyph glyph-name="omicron" unicode="&#x3bf;" horiz-adv-x="1083" 
d="M543 963q205 0 342 -136t137 -356t-137.5 -355.5t-341.5 -135.5q-206 0 -344 136.5t-138 354.5q0 219 137 355.5t345 136.5zM543 182q107 0 170 79t63 210t-63 210t-170 79q-108 0 -172 -79t-64 -210t64 -210t172 -79z" />
    <glyph glyph-name="rho" unicode="&#x3c1;" horiz-adv-x="1106" 
d="M96 -416v875q0 235 130 369.5t349 134.5q208 0 337.5 -137.5t129.5 -352.5q0 -221 -127 -357t-325 -136q-147 0 -250 98v-420zM573 182q103 0 164.5 80.5t61.5 208.5q0 132 -60 210.5t-166 78.5q-109 0 -171 -77.5t-62 -211.5q0 -127 62.5 -208t170.5 -81z" />
    <glyph glyph-name="sigma1" unicode="&#x3c2;" horiz-adv-x="903" 
d="M760 690q-113 70 -215 70q-110 0 -177 -81.5t-67 -213.5q0 -256 256 -256q303 0 303 -256q0 -85 -55 -160.5t-137 -111.5l-105 124q76 50 76 113q0 44 -26.5 63t-90.5 19q-219 0 -343 121.5t-124 345.5q0 225 132 360.5t356 135.5q199 0 321 -95z" />
    <glyph glyph-name="sigma" unicode="&#x3c3;" horiz-adv-x="1149" 
d="M1137 944l-105 -184h-135q125 -103 125 -289q0 -220 -137.5 -355.5t-341.5 -135.5q-206 0 -344 136.5t-138 354.5q0 219 137 355.5t345 136.5q60 0 125 -7q118 -12 198 -12h271zM543 182q107 0 170 79t63 210q0 132 -63 211.5t-170 79.5t-171.5 -80t-64.5 -211t64 -210
t172 -79z" />
    <glyph glyph-name="tau" unicode="&#x3c4;" horiz-adv-x="809" 
d="M795 944l-107 -201h-190v-354q0 -110 28 -178.5t103 -118.5l-168 -119q-107 58 -157 147.5t-50 246.5v376h-213v201h754z" />
    <glyph glyph-name="upsilon" unicode="&#x3c5;" horiz-adv-x="981" 
d="M891 385q0 -192 -107 -298.5t-297 -106.5q-194 0 -295.5 105.5t-101.5 309.5v549h246v-543q0 -109 35.5 -154.5t115.5 -45.5q160 0 160 192v551h244v-559z" />
    <glyph glyph-name="phi" unicode="&#x3c6;" horiz-adv-x="1282" 
d="M762 961q212 -11 334.5 -144.5t122.5 -347.5q0 -212 -122.5 -344.5t-334.5 -144.5v-322l-244 -74v396q-215 12 -336 145.5t-121 343.5q0 212 123 346.5t334 145.5v452l244 76v-528zM762 180q100 4 157.5 84t57.5 205q0 119 -58.5 202.5t-156.5 88.5v-580zM518 180v580
q-99 -5 -156 -85.5t-57 -203.5q0 -121 56.5 -203t156.5 -88z" />
    <glyph glyph-name="chi" unicode="&#x3c7;" horiz-adv-x="963" 
d="M952 -418h-252l-219 479l-223 -479h-244l346 721l-301 641h250l180 -393l185 393h246l-312 -637z" />
    <glyph glyph-name="psi" unicode="&#x3c8;" horiz-adv-x="1329" 
d="M1239 473q0 -228 -116.5 -356t-336.5 -137v-322l-243 -74v396q-222 5 -337.5 132t-115.5 357v475h242v-465q0 -290 211 -297v1248l243 73v-1321q211 8 211 291v471h242v-471z" />
    <glyph glyph-name="omega" unicode="&#x3c9;" horiz-adv-x="1448" 
d="M1241 944q143 -263 143 -475q0 -219 -101 -356.5t-271 -137.5q-203 0 -287 185q-92 -185 -297 -185q-170 0 -267.5 134.5t-97.5 353.5q0 222 148 481h262q-75 -113 -119.5 -242.5t-44.5 -238.5q0 -128 35.5 -204.5t97.5 -76.5q77 0 119.5 85.5t42.5 232.5v200l240 74
v-270q0 -148 43 -235t119 -87q63 0 99 76.5t36 204.5q0 227 -166 481h266z" />
    <glyph glyph-name="iotadieresis" unicode="&#x3ca;" horiz-adv-x="520" 
d="M483 92l-168 -119q-107 58 -158 148.5t-51 245.5v526l246 63v-567q0 -110 28 -178.5t103 -118.5zM480 1407q56 0 98.5 -43t42.5 -100q0 -58 -42.5 -101t-98.5 -43q-57 0 -99.5 43t-42.5 101t42.5 100.5t99.5 42.5zM43 1407q57 0 99.5 -43t42.5 -100q0 -58 -42.5 -101
t-99.5 -43q-58 0 -100.5 43t-42.5 101t42.5 100.5t100.5 42.5z" />
    <glyph glyph-name="upsilondieresis" unicode="&#x3cb;" horiz-adv-x="981" 
d="M891 385q0 -192 -107 -298.5t-297 -106.5q-194 0 -295.5 105.5t-101.5 309.5v549h246v-543q0 -109 35.5 -154.5t115.5 -45.5q160 0 160 192v551h244v-559zM714 1407q56 0 98.5 -43t42.5 -100q0 -58 -42.5 -101t-98.5 -43q-57 0 -99.5 43t-42.5 101t42.5 100.5t99.5 42.5z
M277 1407q57 0 99.5 -43t42.5 -100q0 -58 -42.5 -101t-99.5 -43q-58 0 -100.5 43t-42.5 101t42.5 100.5t100.5 42.5z" />
    <glyph glyph-name="omicrontonos" unicode="&#x3cc;" horiz-adv-x="1083" 
d="M543 963q205 0 342 -136t137 -356t-137.5 -355.5t-341.5 -135.5q-207 0 -344.5 136t-137.5 355t137 355.5t345 136.5zM543 182q107 0 170 79t63 210t-63 210t-170 79q-108 0 -173 -79.5t-65 -211.5q0 -129 64.5 -208t173.5 -79zM829 1413l-246 -317h-176l166 317h256z
" />
    <glyph glyph-name="upsilontonos" unicode="&#x3cd;" horiz-adv-x="981" 
d="M891 385q0 -192 -107 -298.5t-297 -106.5q-194 0 -295.5 105.5t-101.5 309.5v549h246v-543q0 -109 35.5 -154.5t115.5 -45.5q160 0 160 192v551h244v-559zM787 1413l-246 -317h-176l166 317h256z" />
    <glyph glyph-name="omegatonos" unicode="&#x3ce;" horiz-adv-x="1448" 
d="M1241 944q143 -263 143 -475q0 -219 -101 -356.5t-271 -137.5q-203 0 -287 185q-92 -185 -297 -185q-170 0 -267.5 134.5t-97.5 353.5q0 222 148 481h262q-75 -113 -119.5 -242.5t-44.5 -238.5q0 -128 35.5 -204.5t97.5 -76.5q77 0 119.5 85.5t42.5 232.5v200l240 74
v-270q0 -148 43 -235t119 -87q63 0 99 76.5t36 204.5q0 227 -166 481h266zM1036 1413l-246 -317h-176l166 317h256z" />
    <glyph glyph-name="afii00208" unicode="&#x2015;" horiz-adv-x="1778" 
d="M1675 381h-1573v252h1573v-252z" />
    </font>
</defs>
</svg>
