<?xml version="1.0" standalone="no"?>
<!DOCTYPE svg PUBLIC "-//W3C//DTD SVG 1.1//EN" "http://www.w3.org/Graphics/SVG/1.1/DTD/svg11.dtd" >
<svg>
<metadata>
Created by FontForge 20090622 at Fri Aug 10 11:50:04 2018
 By deploy user
2015 Iconian Fonts - www.iconian.com
</metadata>
<defs>
<font id="UsuziExpanded" horiz-adv-x="1847" >
  <font-face 
    font-family="Usuzi Expanded"
    font-weight="400"
    font-stretch="expanded"
    units-per-em="2048"
    panose-1="0 0 0 0 0 0 0 0 0 0"
    ascent="1638"
    descent="-410"
    x-height="1188"
    cap-height="1188"
    bbox="-201 -338 3156 1536"
    underline-thickness="102"
    underline-position="-664"
    unicode-range="U+000D-U+25FC"
  />
<missing-glyph horiz-adv-x="748" 
d="M68 0v1365h544v-1365h-544zM136 68h408v1229h-408v-1229z" />
    <glyph glyph-name=".notdef" horiz-adv-x="748" 
d="M68 0v1365h544v-1365h-544zM136 68h408v1229h-408v-1229z" />
    <glyph glyph-name="glyph1" horiz-adv-x="0" 
 />
    <glyph glyph-name="uni000D" unicode="&#xd;" horiz-adv-x="1024" 
 />
    <glyph glyph-name="space" unicode=" " horiz-adv-x="1056" 
 />
    <glyph glyph-name="exclam" unicode="!" horiz-adv-x="645" 
d="M106 0v270h433v-270h-433zM106 403v785h433v-785h-433z" />
    <glyph glyph-name="quotedbl" unicode="&#x22;" horiz-adv-x="1187" 
d="M106 735v453h433v-266q0 -39 -30 -73t-76 -59.5t-103.5 -40t-112.5 -14.5h-111zM649 735v453h432v-266q0 -39 -29.5 -73t-75.5 -59.5t-103.5 -40t-112.5 -14.5h-111z" />
    <glyph glyph-name="numbersign" unicode="#" horiz-adv-x="2035" 
d="M106 193v270h318v244h-318v270h318v211h432v-211h324v211h434v-211h315v-270h-315v-244h315v-270h-315v-193h-434v193h-324v-193h-432v193h-318zM856 463h324v244h-324v-244z" />
    <glyph glyph-name="dollar" unicode="$" horiz-adv-x="1869" 
d="M106 0v270h1035q47 0 47 27q0 16 -12.5 23.5t-22.5 11.5l-877 344q-88 35 -129 107.5t-41 152.5q0 31 3 33q35 98 121.5 158.5t228.5 60.5h260v221h432v-221h610v-270h-1036q-20 0 -34.5 -8.5t-14.5 -18.5v-2q10 -23 37 -33l880 -346q72 -29 121 -91.5t49 -166.5
q0 -31 -2 -33q-35 -98 -122 -158.5t-228 -60.5h-260v-221h-430v221h-615z" />
    <glyph glyph-name="percent" unicode="%" horiz-adv-x="2220" 
d="M106 788q0 -86 59.5 -128t194.5 -42h310q135 0 193.5 42t58.5 128v252q0 88 -58.5 130t-193.5 42h-310q-135 0 -194.5 -42t-59.5 -130v-252zM303 0h459l1159 1188h-459zM369 862v107q0 35 17 52t75 17h102q59 0 76.5 -17t17.5 -52v-107q0 -35 -17 -51t-77 -16h-102
q-57 0 -74.5 16t-17.5 51zM1298 145q0 -86 59.5 -128t194.5 -42h310q135 0 193.5 42t58.5 128v252q0 88 -58.5 130t-193.5 42h-310q-135 0 -194.5 -42t-59.5 -130v-252zM1561 219v107q0 35 17 52t75 17h102q59 0 76.5 -17.5t17.5 -51.5v-107q0 -35 -17 -51t-77 -16h-102
q-57 0 -74.5 16t-17.5 51z" />
    <glyph glyph-name="ampersand" unicode="&#x26;" horiz-adv-x="1888" 
d="M106 326v41q0 66 37 127t90 102q-53 45 -90 102.5t-37 122.5v41q0 86 26 147.5t82 101.5t148.5 58.5t225.5 18.5h669v-270h-565q-49 0 -79.5 -4.5t-47 -14.5t-21.5 -29.5t-5 -50.5q0 -29 10 -46t34.5 -26.5t66.5 -11.5t106 -2h1026v-270h-154q23 -51 23 -96v-41
q0 -86 -26 -147.5t-83 -101.5t-149.5 -58.5t-225.5 -18.5h-579q-133 0 -225.5 18.5t-148.5 58.5t-82 101.5t-26 147.5zM539 360q0 -29 10 -47t34.5 -27.5t66.5 -12.5t106 -3h245q63 0 105.5 3t67 12.5t34 28t9.5 46.5q0 31 -5.5 50.5t-23 32t-50 16.5t-85.5 4h-297
q-72 0 -115 -3t-65.5 -13.5t-29.5 -31t-7 -55.5z" />
    <glyph glyph-name="quotesingle" unicode="'" horiz-adv-x="645" 
d="M106 735v453h433v-266q0 -39 -30 -73t-76 -59.5t-103.5 -40t-112.5 -14.5h-111z" />
    <glyph glyph-name="parenleft" unicode="(" horiz-adv-x="997" 
d="M106 240v708q0 174 119 258t387 84h279v-270h-107q-78 0 -126 -11.5t-74.5 -34t-35.5 -57t-9 -79.5v-488q0 -47 9 -80.5t35.5 -56.5t75 -34t125.5 -11h107v-270h-279q-268 0 -387 84t-119 258z" />
    <glyph glyph-name="parenright" unicode=")" horiz-adv-x="997" 
d="M104 -102h277q268 0 388 84t120 258v708q0 174 -120 258t-388 84h-277v-270h105q78 0 126 -11.5t74.5 -34t36 -57t9.5 -79.5v-488q0 -47 -9.5 -80.5t-36 -56.5t-74.5 -34t-126 -11h-105v-270z" />
    <glyph glyph-name="asterisk" unicode="*" horiz-adv-x="774" 
d="M94 1061l62 160q35 -6 72.5 -16.5l72.5 -20.5q-6 31 -7 56.5t-1 45.5h190q0 -35 -3 -51t-7 -45v-6q29 10 68 18t82 19l57 -158q-47 -10 -73.5 -19.5t-55.5 -13.5l94 -88l-168 -106q-29 27 -45 46t-39 44h-6q-20 -31 -41.5 -47.5t-50.5 -42.5l-162 106q37 41 57.5 58.5
l34.5 29.5q-43 8 -72.5 15.5z" />
    <glyph glyph-name="plus" unicode="+" horiz-adv-x="1359" 
d="M106 463h410v-342h326v342h411v270h-411v344h-326v-344h-410v-270z" />
    <glyph glyph-name="comma" unicode="," horiz-adv-x="645" 
d="M106 -182v452h433v-266q0 -39 -30 -72.5t-76 -59.5t-103.5 -40t-112.5 -14h-111z" />
    <glyph glyph-name="hyphen" unicode="-" horiz-adv-x="1138" 
d="M106 463v270h926v-270h-926z" />
    <glyph glyph-name="period" unicode="." horiz-adv-x="645" 
d="M106 0v270h433v-270h-433z" />
    <glyph glyph-name="slash" unicode="/" horiz-adv-x="1796" 
d="M82 0l1143 1188h489l-1141 -1188h-491z" />
    <glyph glyph-name="zero" unicode="0" 
d="M106 342v504q0 174 119 258t387 84h621q268 0 387 -84t119 -258v-504q0 -174 -119 -258t-387 -84h-621q-268 0 -387 84t-119 258zM539 453q0 -47 9 -81t35.5 -56.5t75 -34t125.5 -11.5h277q76 0 124 11.5t75.5 34t37 56.5t9.5 81v282q0 45 -9.5 80t-37 57.5t-75.5 34
t-124 11.5h-277q-78 0 -126 -11.5t-74.5 -34t-35.5 -57.5t-9 -80v-282zM707 463v270h432v-270h-432z" />
    <glyph glyph-name="one" unicode="1" horiz-adv-x="1835" 
d="M106 0h1623v270h-594v918h-1029v-270h594v-648h-594v-270z" />
    <glyph glyph-name="two" unicode="2" horiz-adv-x="1869" 
d="M106 0h1657v270h-1079v45l909 361q37 14 69 41.5t54.5 63.5t34.5 76t12 79q0 14 -1 21.5t-1 11.5q-29 104 -119 161.5t-231 57.5h-1302v-270h1034q47 0 47 -27v-2q-4 -12 -14.5 -20.5t-20.5 -12.5l-879 -346q-29 -12 -58.5 -34.5t-54 -54.5t-41 -75t-16.5 -94v-252z" />
    <glyph glyph-name="three" unicode="3" 
d="M106 0h1127q268 0 387 84t119 258v504q0 174 -119 258t-387 84h-1127v-270h955q76 0 124 -11.5t75.5 -34t37 -57.5t9.5 -80v-2h-1201v-270h1201v-10q0 -47 -9.5 -81t-37 -56.5t-75.5 -34t-124 -11.5h-955v-270z" />
    <glyph glyph-name="four" unicode="4" 
d="M106 463v725h433v-455h768v455h432v-1188h-432v463h-1201z" />
    <glyph glyph-name="five" unicode="5" horiz-adv-x="1869" 
d="M106 0v270h1035q45 0 45 27q0 16 -11.5 23.5t-21.5 11.5l-877 344q-92 33 -131 106.5t-39 153.5v252h1655v-270h-1081l2 -46l911 -362q25 -10 53.5 -31.5t55.5 -54.5t44 -76t17 -96q0 -31 -2 -33q-35 -98 -122 -158.5t-228 -60.5h-1305z" />
    <glyph glyph-name="six" unicode="6" 
d="M106 342q0 -174 119 -258t387 -84h621q240 0 373 63.5t133 210.5v121q0 174 -119 255t-387 81h-694v4q0 45 9 80t35.5 57.5t75 34t125.5 11.5h955v270h-1127q-268 0 -387 -84t-119 -258v-504zM539 453v8h546q113 0 161 -24.5t48 -71.5t-48 -71t-161 -24h-301
q-78 0 -126 11.5t-74.5 34t-35.5 56.5t-9 81z" />
    <glyph glyph-name="seven" unicode="7" horiz-adv-x="1869" 
d="M109 918h1112l-4 -46l-1035 -872h563l848 694q37 20 68 56t54.5 79t35.5 88.5t12 83.5v187h-1654v-270z" />
    <glyph glyph-name="eight" unicode="8" horiz-adv-x="1845" 
d="M106 326v41q0 66 37 127t90 102q-53 45 -90 102.5t-37 122.5v41q0 86 26 147.5t82 101.5t148.5 58.5t225.5 18.5h669q131 0 223.5 -18.5t150 -58.5t83 -101.5t25.5 -147.5v-41q0 -66 -38 -123t-91 -102q53 -41 91 -102.5t38 -126.5v-41q0 -86 -25.5 -147.5t-83 -101.5
t-149.5 -58.5t-224 -18.5h-669q-133 0 -225.5 18.5t-148.5 58.5t-82 101.5t-26 147.5zM539 360q0 -29 10 -47t34.5 -27.5t66.5 -12.5t106 -3h334q63 0 105 3t66.5 12.5t35 28t10.5 46.5q0 35 -7.5 55.5t-31 31t-66.5 13.5t-112 3h-334q-72 0 -115 -3t-65.5 -13.5t-29.5 -31
t-7 -55.5zM539 819q0 -29 10 -46t34.5 -26.5t66.5 -11.5t106 -2h334q63 0 105 2t66.5 11.5t35 27t10.5 45.5q0 35 -7.5 55.5t-31 29.5t-66.5 11.5t-112 2.5h-398q-49 0 -79.5 -4.5t-47 -14.5t-21.5 -29.5t-5 -50.5z" />
    <glyph glyph-name="nine" unicode="9" 
d="M106 0h1127q268 0 387 84t119 258v504q0 174 -119 258t-387 84h-621q-240 0 -361.5 -66.5t-144.5 -208.5v-114q0 -174 119 -258t387 -84h695v-4q0 -47 -9.5 -81t-37 -56.5t-75.5 -34t-124 -11.5h-955v-270zM551 823q0 94 219 95h291q76 0 124 -11.5t75.5 -34t37 -57.5
t9.5 -80v-8h-537q-68 0 -111 6t-66.5 18.5t-32.5 30t-9 41.5z" />
    <glyph glyph-name="colon" unicode=":" horiz-adv-x="645" 
d="M106 0v270h433v-270h-433zM106 571v271h433v-271h-433z" />
    <glyph glyph-name="semicolon" unicode=";" horiz-adv-x="645" 
d="M106 -182v452h433v-266q0 -39 -30 -72.5t-76 -59.5t-103.5 -40t-112.5 -14h-111zM106 571v271h433v-271h-433z" />
    <glyph glyph-name="less" unicode="&#x3c;" horiz-adv-x="1224" 
d="M82 592l573 596h488l-570 -596l570 -592h-492z" />
    <glyph glyph-name="equal" unicode="=" horiz-adv-x="1359" 
d="M106 264v271h1147v-271h-1147zM106 659v271h1147v-271h-1147z" />
    <glyph glyph-name="greater" unicode="&#x3e;" horiz-adv-x="1224" 
d="M82 0l569 592l-569 596h489l572 -596l-570 -592h-491z" />
    <glyph glyph-name="question" unicode="?" horiz-adv-x="1845" 
d="M106 918h984q70 0 112.5 -4.5t65 -14.5t31 -31.5t8.5 -54.5q0 -43 -45 -62.5t-172 -19.5h-826v-328h432v58h537q268 0 387 75.5t119 249.5v93q0 86 -30 145t-91.5 96t-157.5 52.5t-227 15.5h-1127v-270zM264 0h432v270h-432v-270z" />
    <glyph glyph-name="at" unicode="@" horiz-adv-x="2310" 
d="M106 240v708q0 174 119 258t387 84h1084q268 0 388 -84t120 -258v-327q0 -174 -120 -258t-388 -84h-766q-135 0 -194.5 41.5t-59.5 128.5v292q0 88 59.5 130t194.5 42h450q135 0 193.5 -42t58.5 -130v-256q88 14 112.5 57.5t24.5 116.5v179q0 45 -9 79.5t-35.5 57
t-74.5 34t-126 11.5h-740q-78 0 -126 -11.5t-74.5 -34t-35.5 -57t-9 -79.5v-488q0 -47 9 -80.5t35.5 -56.5t75 -34t125.5 -11h1323v-270h-1495q-268 0 -387 84t-119 258zM969 549q0 -35 16 -51.5t76 -16.5h184q59 0 75.5 16.5t16.5 51.5v94q0 35 -16.5 52.5t-75.5 17.5h-184
q-59 0 -75.5 -17.5t-16.5 -52.5v-94z" />
    <glyph glyph-name="A" unicode="A" 
d="M106 0h433v465h768v-465h432v846q0 174 -119 258t-387 84h-621q-268 0 -387 -84t-119 -258v-846zM539 735q0 45 9 80t35.5 57.5t75 34t125.5 11.5h277q76 0 124 -11.5t75.5 -34t37 -57.5t9.5 -80h-768z" />
    <glyph glyph-name="B" unicode="B" 
d="M106 0h1151q131 0 223.5 18.5t150 58.5t83 101.5t25.5 147.5v41q0 66 -38 127t-91 102q53 45 91 102.5t38 122.5v41q0 86 -25.5 147.5t-83 101.5t-149.5 58.5t-224 18.5h-1151v-1188zM539 270v193h551q70 0 112.5 -3t66 -13.5t31 -31t7.5 -55.5q0 -29 -10.5 -47
t-35 -27.5t-66.5 -12.5t-105 -3h-551zM539 733v185h551q70 0 112.5 -2.5t66 -11.5t31 -29.5t7.5 -55.5q0 -29 -10.5 -46t-35 -26.5t-66.5 -11.5t-105 -2h-551z" />
    <glyph glyph-name="C" unicode="C" 
d="M106 342q0 -174 119 -258t387 -84h621q268 0 387 84t119 258v109h-432q0 -47 -9.5 -81t-37 -55.5t-75.5 -33t-124 -11.5h-277q-78 0 -126 11.5t-74.5 34t-35.5 56.5t-9 81v282q0 45 9 80t35.5 57.5t75 34t125.5 11.5h277q76 0 124 -11.5t75.5 -33t37 -56.5t9.5 -80h432
v109q0 174 -119 258t-387 84h-621q-268 0 -387 -84t-119 -258v-504z" />
    <glyph glyph-name="D" unicode="D" 
d="M106 0h1127q268 0 387 84t119 258v504q0 174 -119 258t-387 84h-1127v-1188zM539 270v648h522q76 0 124 -11.5t75.5 -34t37 -57.5t9.5 -80v-282q0 -47 -9.5 -81t-37 -56.5t-75.5 -34t-124 -11.5h-522z" />
    <glyph glyph-name="E" unicode="E" 
d="M106 342v504q0 174 119 258t387 84h1127v-270h-955q-78 0 -126 -11.5t-74.5 -34t-35.5 -57.5t-9 -80v-2h1200v-270h-1200v-10q0 -47 9 -81t35.5 -56.5t75 -34t125.5 -11.5h955v-270h-1127q-268 0 -387 84t-119 258z" />
    <glyph glyph-name="F" unicode="F" 
d="M106 0v846q0 174 119 258t387 84h1127v-270h-955q-78 0 -126 -11.5t-74.5 -34t-35.5 -57.5t-9 -80v-2h1200v-270h-1200v-463h-433z" />
    <glyph glyph-name="G" unicode="G" 
d="M106 342v504q0 174 119 258t387 84h1127v-270h-955q-78 0 -126 -11.5t-74.5 -34t-35.5 -57.5t-9 -80v-282q0 -47 9 -81t35.5 -56.5t75 -34t125.5 -11.5h523v389h432v-659h-1127q-268 0 -387 84t-119 258z" />
    <glyph glyph-name="H" unicode="H" 
d="M106 0v1188h433v-455h768v455h432v-1188h-432v463h-768v-463h-433z" />
    <glyph glyph-name="I" unicode="I" horiz-adv-x="647" 
d="M106 0v1188h435v-1188h-435z" />
    <glyph glyph-name="J" unicode="J" 
d="M106 342v111h433q0 -47 9 -81t35.5 -56.5t75 -34t125.5 -11.5h277q76 0 124 11.5t75.5 34t37 56.5t9.5 81v735h432v-846q0 -174 -119 -258t-387 -84h-621q-268 0 -387 84t-119 258z" />
    <glyph glyph-name="K" unicode="K" horiz-adv-x="1845" 
d="M106 0v1188h433v-455h297l438 455h489l-571 -596l571 -592h-491l-449 463h-284v-463h-433z" />
    <glyph glyph-name="L" unicode="L" 
d="M106 342q0 -174 119 -258t387 -84h1127v270h-955q-78 0 -126 11.5t-74.5 34t-35.5 56.5t-9 81v735h-433v-846z" />
    <glyph glyph-name="M" unicode="M" horiz-adv-x="2201" 
d="M106 0h433v625l530 -580h59l535 580v-625h432v1188h-428l-563 -637l-569 637h-429v-1188z" />
    <glyph glyph-name="N" unicode="N" 
d="M106 0v1188h386l815 -680v680h432v-1188h-387l-813 682v-682h-433z" />
    <glyph glyph-name="O" unicode="O" 
d="M106 342q0 -174 119 -258t387 -84h621q268 0 387 84t119 258v504q0 174 -119 258t-387 84h-621q-268 0 -387 -84t-119 -258v-504zM539 453v282q0 45 9 80t35.5 57.5t75 34t125.5 11.5h277q76 0 124 -11.5t75.5 -34t37 -57.5t9.5 -80v-282q0 -47 -9.5 -81t-37 -56.5
t-75.5 -34t-124 -11.5h-277q-78 0 -126 11.5t-74.5 34t-35.5 56.5t-9 81z" />
    <glyph glyph-name="P" unicode="P" 
d="M106 0v1188h1127q268 0 387 -84t119 -258v-92q0 -174 -119 -258t-387 -84h-694v-412h-433zM539 682h551q63 0 105 5t66.5 18.5t35 36t10.5 57.5q0 39 -8.5 62.5t-31 35.5t-65 16.5t-112.5 4.5h-551v-236z" />
    <glyph glyph-name="Q" unicode="Q" 
d="M106 342q0 -174 119 -258t387 -84h95v-180h432v180h94q268 0 387 84t119 258v504q0 174 -119 258t-387 84h-621q-268 0 -387 -84t-119 -258v-504zM539 453v282q0 45 9 80t35.5 57.5t75 34t125.5 11.5h277q76 0 124 -11.5t75.5 -34t37 -57.5t9.5 -80v-282q0 -80 -33 -124
t-135 -55v312h-432v-312q-53 6 -86 19.5t-51.5 35t-24.5 52.5t-6 72z" />
    <glyph glyph-name="R" unicode="R" horiz-adv-x="1843" 
d="M106 0h433v410h264l473 -410h481l-463 412q242 8 343.5 92t101.5 250v92q0 174 -119 258t-387 84h-1127v-1188zM539 682v236h551q70 0 112.5 -4.5t65 -16.5t31 -35.5t8.5 -62.5q0 -35 -10.5 -57.5t-35 -36t-66.5 -18.5t-105 -5h-551z" />
    <glyph glyph-name="S" unicode="S" horiz-adv-x="1869" 
d="M106 0h1305q141 0 228 60.5t122 158.5q2 2 2 33q0 53 -15 95t-40 75t-55.5 54.5t-59.5 33.5l-880 346q-27 10 -37 33v2q0 10 14.5 18.5t34.5 8.5h1036v270h-1302q-141 0 -228.5 -60.5t-121.5 -158.5q-2 -2 -3 -33q0 -80 41 -152.5t129 -107.5l877 -344q10 -4 22.5 -11.5
t12.5 -23.5q0 -27 -47 -27h-1035v-270z" />
    <glyph glyph-name="T" unicode="T" horiz-adv-x="1835" 
d="M106 918v270h1623v-270h-594v-918h-435v918h-594z" />
    <glyph glyph-name="U" unicode="U" 
d="M106 342v846h433v-735q0 -47 9 -81t35.5 -56.5t75 -34t125.5 -11.5h277q76 0 124 11.5t75.5 34t37 56.5t9.5 81v735h432v-846q0 -174 -119 -258t-387 -84h-621q-268 0 -387 84t-119 258z" />
    <glyph glyph-name="V" unicode="V" horiz-adv-x="1904" 
d="M82 1188l280 -848q18 -57 57.5 -117.5t91.5 -110t114.5 -81t130.5 -31.5h403q66 0 130.5 36t118.5 88t93 110.5t53 105.5l269 848h-447l-157.5 -466t-108.5 -279.5t-79 -135.5t-68 -35h-23q-29 0 -67.5 49.5t-80.5 126t-80 170t-63 179.5l-121 391h-446z" />
    <glyph glyph-name="W" unicode="W" horiz-adv-x="2564" 
d="M82 1188l274 -848q25 -59 65 -119.5t91 -110t112.5 -80t131.5 -30.5h1063q68 0 132 36t118.5 88t92.5 110.5t54 105.5l266 848h-444l-120 -364.5t-88 -253t-64.5 -161t-48 -91t-43 -40t-46.5 -8.5h-131v918h-432v-918h-121q-27 0 -66.5 50.5t-82.5 127t-82 170t-64 179.5
l-121 391h-446z" />
    <glyph glyph-name="X" unicode="X" horiz-adv-x="1796" 
d="M82 0l569 592l-569 596h489l326 -340l328 340h489l-571 -596l571 -592h-491l-326 336l-324 -336h-491z" />
    <glyph glyph-name="Y" unicode="Y" 
d="M106 752v436h433v-326q0 -47 9 -80.5t35.5 -56.5t75 -34t125.5 -11h277q76 0 124 11t75.5 34t37 56.5t9.5 80.5v326h432v-436q0 -174 -119 -258t-387 -84h-94v-410h-432v410h-95q-268 0 -387 84t-119 258z" />
    <glyph glyph-name="Z" unicode="Z" horiz-adv-x="1869" 
d="M106 252q0 51 15.5 94t40 75t54.5 54.5t60 34.5l879 346q10 4 21.5 12.5t15.5 20.5v2q0 27 -49 27h-1034v270h1302q141 0 228 -60.5t122 -158.5q2 -2 2 -33q0 -80 -42 -152.5t-128 -107.5l-876 -344q-10 -4 -22.5 -11.5t-12.5 -23.5q0 -27 47 -27h1034v-270h-1304
q-141 0 -228 60.5t-122 158.5q-2 2 -3 33z" />
    <glyph glyph-name="bracketleft" unicode="[" horiz-adv-x="997" 
d="M106 -102v1392h785v-270h-352v-852h352v-270h-785z" />
    <glyph glyph-name="backslash" unicode="\" horiz-adv-x="1796" 
d="M82 1188h489l1143 -1188h-491z" />
    <glyph glyph-name="bracketright" unicode="]" horiz-adv-x="997" 
d="M104 -102h785v1392h-785v-270h351v-852h-351v-270z" />
    <glyph glyph-name="asciicircum" unicode="^" horiz-adv-x="1904" 
d="M82 0h446l119 364.5t86 253t62.5 161t49 90t46 38.5t51.5 8h23q31 0 70.5 -50t79.5 -126.5t76.5 -169t61.5 -178.5l121 -391h449l-281 848q-18 57 -57 117.5t-91.5 109.5t-114.5 81t-130 32h-404q-68 0 -131 -36t-116.5 -88t-91 -111.5t-52.5 -104.5z" />
    <glyph glyph-name="underscore" unicode="_" horiz-adv-x="1617" 
d="M106 0v180h1405v-180h-1405z" />
    <glyph glyph-name="grave" unicode="`" horiz-adv-x="800" 
d="M82 1536h405l232 -270h-268z" />
    <glyph glyph-name="a" unicode="a" horiz-adv-x="1984" 
d="M82 0l260 848q14 45 49 104.5t85 111.5t111.5 88t129.5 36h543q68 0 128 -32t109 -81t84 -109.5t53 -117.5l269 -848h-447l-129 389h-678l-123 -389h-444zM733 659h508q-43 141 -92 200t-125 59h-68q-43 0 -73.5 -13.5t-55 -43.5t-46 -79t-48.5 -123z" />
    <glyph glyph-name="b" unicode="b" 
d="M106 0h1151q131 0 223.5 18.5t150 58.5t83 101.5t25.5 147.5v41q0 66 -38 127t-91 102q53 45 91 102.5t38 122.5v41q0 86 -25.5 147.5t-83 101.5t-149.5 58.5t-224 18.5h-1151v-1188zM539 270v193h551q70 0 112.5 -3t66 -13.5t31 -31t7.5 -55.5q0 -29 -10.5 -47
t-35 -27.5t-66.5 -12.5t-105 -3h-551zM539 733v185h551q70 0 112.5 -2.5t66 -11.5t31 -29.5t7.5 -55.5q0 -29 -10.5 -46t-35 -26.5t-66.5 -11.5t-105 -2h-551z" />
    <glyph glyph-name="c" unicode="c" 
d="M106 342q0 -174 119 -258t387 -84h1127v270h-955q-78 0 -126 11.5t-74.5 34t-35.5 56.5t-9 81v282q0 45 9 80t35.5 57.5t75 34t125.5 11.5h955v270h-1127q-268 0 -387 -84t-119 -258v-504z" />
    <glyph glyph-name="d" unicode="d" 
d="M106 0h1127q268 0 387 84t119 258v504q0 174 -119 258t-387 84h-1127v-1188zM539 270v648h522q76 0 124 -11.5t75.5 -34t37 -57.5t9.5 -80v-282q0 -47 -9.5 -81t-37 -56.5t-75.5 -34t-124 -11.5h-522z" />
    <glyph glyph-name="e" unicode="e" 
d="M106 342v504q0 174 119 258t387 84h1127v-270h-955q-78 0 -126 -11.5t-74.5 -34t-35.5 -57.5t-9 -80v-2h1200v-270h-1200v-10q0 -47 9 -81t35.5 -56.5t75 -34t125.5 -11.5h955v-270h-1127q-268 0 -387 84t-119 258z" />
    <glyph glyph-name="f" unicode="f" 
d="M106 0v846q0 174 119 258t387 84h1127v-270h-955q-78 0 -126 -11.5t-74.5 -34t-35.5 -57.5t-9 -80v-2h1200v-270h-1200v-463h-433z" />
    <glyph glyph-name="g" unicode="g" 
d="M106 342v504q0 174 119 258t387 84h1127v-270h-955q-78 0 -126 -11.5t-74.5 -34t-35.5 -57.5t-9 -80v-282q0 -47 9 -81t35.5 -56.5t75 -34t125.5 -11.5h277q76 0 124 11.5t75.5 34t37 56.5t9.5 81v206h432v-317q0 -174 -119 -258t-387 -84h-621q-268 0 -387 84t-119 258z
" />
    <glyph glyph-name="h" unicode="h" 
d="M106 0v1188h433v-455h768v455h432v-1188h-432v463h-768v-463h-433z" />
    <glyph glyph-name="i" unicode="i" horiz-adv-x="647" 
d="M106 0v1188h435v-1188h-435z" />
    <glyph glyph-name="j" unicode="j" 
d="M106 0v270h955q76 0 124 11.5t75.5 34t37 56.5t9.5 81v735h432v-846q0 -174 -119 -258t-387 -84h-1127z" />
    <glyph glyph-name="k" unicode="k" horiz-adv-x="1845" 
d="M106 0v1188h433v-455h297l438 455h489l-571 -596l571 -592h-491l-449 463h-284v-463h-433z" />
    <glyph glyph-name="l" unicode="l" 
d="M106 342q0 -174 119 -258t387 -84h1127v270h-955q-78 0 -126 11.5t-74.5 34t-35.5 56.5t-9 81v735h-433v-846z" />
    <glyph glyph-name="m" unicode="m" horiz-adv-x="2304" 
d="M106 0v846q0 174 119 258t387 84h1080q268 0 387 -84t119 -258v-846h-433v735q0 45 -9 80t-35.5 57.5t-75 34t-125.5 11.5h-156v-918h-432v918h-148q-78 0 -126 -11.5t-74.5 -34t-35.5 -57.5t-9 -80v-735h-433z" />
    <glyph glyph-name="n" unicode="n" 
d="M106 0h433v735q0 45 9 80t35.5 57.5t75 34t125.5 11.5h277q76 0 124 -11.5t75.5 -34t37 -57.5t9.5 -80v-735h432v846q0 174 -119 258t-387 84h-621q-268 0 -387 -84t-119 -258v-846z" />
    <glyph glyph-name="o" unicode="o" 
d="M106 342q0 -174 119 -258t387 -84h621q268 0 387 84t119 258v504q0 174 -119 258t-387 84h-621q-268 0 -387 -84t-119 -258v-504zM539 453v282q0 45 9 80t35.5 57.5t75 34t125.5 11.5h277q76 0 124 -11.5t75.5 -34t37 -57.5t9.5 -80v-282q0 -47 -9.5 -81t-37 -56.5
t-75.5 -34t-124 -11.5h-277q-78 0 -126 11.5t-74.5 34t-35.5 56.5t-9 81z" />
    <glyph glyph-name="p" unicode="p" 
d="M106 0v1188h1127q268 0 387 -84t119 -258v-92q0 -174 -119 -258t-387 -84h-694v-412h-433zM539 682h551q63 0 105 5t66.5 18.5t35 36t10.5 57.5q0 39 -8.5 62.5t-31 35.5t-65 16.5t-112.5 4.5h-551v-236z" />
    <glyph glyph-name="q" unicode="q" 
d="M106 342q0 -174 119 -258t387 -84h621q268 0 387 84t119 258v504q0 174 -119 258t-387 84h-621q-268 0 -387 -84t-119 -258v-504zM539 453v282q0 45 9 80t35.5 57.5t75 34t125.5 11.5h277q76 0 124 -11.5t75.5 -34t37 -57.5t9.5 -80v-282q0 -80 -33 -124t-135 -55v314
h-432v-314q-53 6 -86 19.5t-51.5 35t-24.5 52.5t-6 72z" />
    <glyph glyph-name="r" unicode="r" horiz-adv-x="1843" 
d="M106 0h433v410h264l473 -410h481l-463 412q242 8 343.5 92t101.5 250v92q0 174 -119 258t-387 84h-1127v-1188zM539 682v236h551q70 0 112.5 -4.5t65 -16.5t31 -35.5t8.5 -62.5q0 -35 -10.5 -57.5t-35 -36t-66.5 -18.5t-105 -5h-551z" />
    <glyph glyph-name="s" unicode="s" horiz-adv-x="1869" 
d="M106 0h1305q141 0 228 60.5t122 158.5q2 2 2 33q0 53 -15 95t-40 75t-55.5 54.5t-59.5 33.5l-880 346q-27 10 -37 33v2q0 10 14.5 18.5t34.5 8.5h1036v270h-1302q-141 0 -228.5 -60.5t-121.5 -158.5q-2 -2 -3 -33q0 -80 41 -152.5t129 -107.5l877 -344q10 -4 22.5 -11.5
t12.5 -23.5q0 -27 -47 -27h-1035v-270z" />
    <glyph glyph-name="t" unicode="t" horiz-adv-x="1835" 
d="M106 918v270h1623v-270h-594v-918h-435v918h-594z" />
    <glyph glyph-name="u" unicode="u" 
d="M106 342v846h433v-735q0 -47 9 -81t35.5 -56.5t75 -34t125.5 -11.5h277q76 0 124 11.5t75.5 34t37 56.5t9.5 81v735h432v-846q0 -174 -119 -258t-387 -84h-621q-268 0 -387 84t-119 258z" />
    <glyph glyph-name="v" unicode="v" horiz-adv-x="1904" 
d="M82 1188l280 -848q18 -57 57.5 -117.5t91.5 -110t114.5 -81t130.5 -31.5h403q66 0 130.5 36t118.5 88t93 110.5t53 105.5l269 848h-447l-157.5 -466t-108.5 -279.5t-79 -135.5t-68 -35h-23q-29 0 -67.5 49.5t-80.5 126t-80 170t-63 179.5l-121 391h-446z" />
    <glyph glyph-name="w" unicode="w" horiz-adv-x="2304" 
d="M104 342q0 -174 119 -258t387 -84h1080q268 0 386.5 84t118.5 258v846h-432v-735q0 -47 -9 -81t-35.5 -56.5t-75 -34t-125.5 -11.5h-148v918h-432v-918h-156q-78 0 -126 11.5t-74.5 34t-35.5 56.5t-9 81v735h-433v-846z" />
    <glyph glyph-name="x" unicode="x" horiz-adv-x="1796" 
d="M82 0l565 592l-565 596h489l326 -336l328 336h489l-565 -596l565 -592h-491l-326 332l-324 -332h-491z" />
    <glyph glyph-name="y" unicode="y" 
d="M106 752v436h433v-326q0 -47 9 -80.5t35.5 -56.5t75 -34t125.5 -11h277q76 0 124 11t75.5 34t37 56.5t9.5 80.5v326h432v-436q0 -174 -119 -258t-387 -84h-94v-410h-432v410h-95q-268 0 -387 84t-119 258z" />
    <glyph glyph-name="z" unicode="z" horiz-adv-x="1869" 
d="M106 252q0 51 15.5 94t40 75t54.5 54.5t60 34.5l879 346q10 4 21.5 12.5t15.5 20.5v2q0 27 -49 27h-1034v270h1302q141 0 228 -60.5t122 -158.5q2 -2 2 -33q0 -80 -42 -152.5t-128 -107.5l-876 -344q-10 -4 -22.5 -11.5t-12.5 -23.5q0 -27 47 -27h1034v-270h-1304
q-141 0 -228 60.5t-122 158.5q-2 2 -3 33z" />
    <glyph glyph-name="braceleft" unicode="{" horiz-adv-x="997" 
d="M106 342v504q0 174 119 258t387 84h279v-270h-107q-78 0 -126 -11.5t-74.5 -34t-35.5 -57.5t-9 -80v-282q0 -47 9 -81t35.5 -56.5t75 -34t125.5 -11.5h107v-270h-279q-268 0 -387 84t-119 258z" />
    <glyph glyph-name="bar" unicode="|" horiz-adv-x="645" 
d="M106 -215v1618h433v-1618h-433z" />
    <glyph glyph-name="braceright" unicode="}" horiz-adv-x="997" 
d="M104 0h277q268 0 388 84t120 258v504q0 174 -120 258t-388 84h-277v-270h105q78 0 126 -11.5t74.5 -34t36 -57.5t9.5 -80v-282q0 -47 -9.5 -81t-36 -56.5t-74.5 -34t-126 -11.5h-105v-270z" />
    <glyph glyph-name="asciitilde" unicode="~" horiz-adv-x="1345" 
d="M82 463h317l140 133l147 -133h279l299 270h-318l-139 -133l-148 133h-278z" />
    <glyph glyph-name="uni007F" horiz-adv-x="626" 
 />
    <glyph glyph-name="uni00A0" unicode="&#xa0;" horiz-adv-x="1056" 
 />
    <glyph glyph-name="exclamdown" unicode="&#xa1;" horiz-adv-x="645" 
d="M106 0v784h433v-784h-433zM106 918v270h433v-270h-433z" />
    <glyph glyph-name="cent" unicode="&#xa2;" 
d="M106 342v504q0 174 119 258t387 84h107v221h432v-221h82q268 0 387 -84t119 -258v-109h-432q0 45 -9.5 80t-37 56.5t-75.5 33t-124 11.5h-277q-78 0 -126 -11.5t-74.5 -34t-35.5 -57.5t-9 -80v-282q0 -47 9 -81t35.5 -56.5t75 -34t125.5 -11.5h277q76 0 124 11.5t75.5 33
t37 55t9.5 81.5h432v-109q0 -174 -119 -258t-387 -84h-82v-221h-430v221h-109q-268 0 -387 84t-119 258z" />
    <glyph glyph-name="sterling" unicode="&#xa3;" horiz-adv-x="1906" 
d="M106 0v270h226v193h-226v270h226v113q0 174 119.5 258t388.5 84h290v-270h-118q-78 0 -126 -11.5t-75 -34t-36 -57.5t-9 -80v-2h643v-270h-643v-193h1034v-270h-1694z" />
    <glyph glyph-name="currency" unicode="&#xa4;" horiz-adv-x="1796" 
d="M82 0h491l291 297h68l291 -297h491l-411 428q6 21 6 39v252q0 10 -1 18t-5 19l411 432h-489l-291 -297h-76l-287 297h-489l414 -436q-4 -4 -4 -33v-252v-18q0 -12 4 -17zM756 541v106q0 35 16 52.5t74 17.5h104q59 0 75.5 -17.5t16.5 -52.5v-106q0 -35 -16 -51.5
t-76 -16.5h-104q-57 0 -73.5 16.5t-16.5 51.5z" />
    <glyph glyph-name="yen" unicode="&#xa5;" 
d="M106 752q0 -174 119 -258t387 -84h95v-86h-467v-181h467v-86h-467v-180h467v-203h432v203h469v180h-469v86h469v181h-469v86h94q268 0 387 84t119 258v436h-432v-326q0 -47 -9.5 -80.5t-37 -56.5t-75.5 -34t-124 -11h-277q-78 0 -126 11t-74.5 34t-35.5 56.5t-9 80.5v326
h-433v-436z" />
    <glyph glyph-name="brokenbar" unicode="&#xa6;" horiz-adv-x="645" 
d="M106 -215v739h433v-739h-433zM106 666v737h433v-737h-433z" />
    <glyph glyph-name="section" unicode="&#xa7;" horiz-adv-x="2668" 
d="M82 528l295 -118l-195 -68l420 -74l-139 -73l479 -15l-51 -90l432 60l53 -52l-18 -51l348 133l158 -82l174 162l221 -55l18 188l228 -28q2 10 5 12l3 2q0 37 -148 160l222 14l-15 25l-278 110l172 39h22l-22 27l-398 67l138 80h-465l35 92l-453 -51l-12 80l-37 10
l-311 -119l-140 80l-184 -153q-14 -8 -43 -9q-66 0 -170 56l-35 -189l-219 17l10 -58l121 -118zM463 401l33 242l51 6l-21 -229zM578 504v16q0 110 225 135l-6 -57q-10 4 -13 5l-4 1q0 2 -18 2q-33 0 -80 -35q-45 -43 -45 -96q0 -47 63 -47q43 0 60 6l2 -39q-29 -4 -37 -8
t-25 -4q-90 0 -116 106q-6 6 -6 15zM823 438q0 152 115 211h37q98 0 123 -78q-29 -166 -117 -165l-27.5 -3.5t-23.5 -1.5q-80 0 -107 37zM889 504q0 -57 45 -58q39 0 82 21q12 20 16 33.5t4 36.5q0 4 -2 11t-2 17q-25 29 -57 29q-55 0 -86 -74v-16zM1130 401v238l181 -150
l12 160l47 -10v-233q-70 0 -184 114v-110zM1430 414l30 235l60 10l-17 -231zM1548 424q27 119 129 233q2 8 41 9q53 0 86 -76v-172l-39 6q-35 55 -75 55q-35 0 -74 -55h-68zM1653 532h96l-41 78zM1855 414v235l173 -155l10 165l55 -10v-233q-76 0 -182 116v-114zM2138 393
l37 25l47 -17l-47 -36zM2167 479l8 180l74 -10l-31 -174z" />
    <glyph glyph-name="dieresis" unicode="&#xa8;" horiz-adv-x="1265" 
d="M106 1266v270h433v-270h-433zM725 1266v270h434v-270h-434z" />
    <glyph glyph-name="copyright" unicode="&#xa9;" horiz-adv-x="638" 
d="M94 1065q0 37 18.5 70.5t50.5 59.5t72.5 41t83.5 15q4 0 29 -6t78 -16q35 -18 52.5 -34.5t31.5 -37.5q35 -47 35 -92q0 -20 -10.5 -43t-24.5 -49q-20 -29 -71.5 -60.5t-119.5 -31.5q-29 0 -56 7t-56 17q-29 18 -43 30.5t-37 37.5q-33 45 -33 92zM133 1065q0 -41 25 -74
q18 -35 67 -59q23 -12 50.5 -16.5t39.5 -4.5h4q45 0 93 21q41 20 68.5 59t27.5 74v8q0 27 -15.5 54.5t-41 48t-58.5 34t-65 13.5h-9q-106 0 -161 -78q-25 -35 -25 -80zM203 1065q0 106 116 106q84 0 103 -57l-37 -8q-25 39 -66 39q-78 0 -77 -80q0 -74 75 -74q56 0 74 47
l35 -10q-20 -70 -107 -70q-117 0 -116 107z" />
    <glyph glyph-name="ordfeminine" unicode="&#xaa;" 
d="M106 274v121q0 174 119 255t387 81h695v4q0 45 -9.5 80t-37 57.5t-75.5 34t-124 11.5h-955v270h1127q268 0 387 -84t119 -258v-846h-1127q-242 0 -374 63.5t-132 210.5zM551 365q0 -47 60.5 -71t172.5 -24h523v191h-523q-113 0 -173 -24.5t-60 -71.5z" />
    <glyph glyph-name="guillemotleft" unicode="&#xab;" horiz-adv-x="962" 
d="M106 459v274l324 250v-264l-166 -123l166 -123v-264zM532 459v274l324 250v-264l-168 -123l168 -123v-264z" />
    <glyph glyph-name="logicalnot" unicode="&#xac;" horiz-adv-x="1359" 
d="M106 463h824v-342h323v612h-1147v-270z" />
    <glyph glyph-name="uni00AD" unicode="&#xad;" horiz-adv-x="962" 
d="M106 463v270h750v-270h-750z" />
    <glyph glyph-name="registered" unicode="&#xae;" horiz-adv-x="638" 
d="M94 1065q0 25 6 39t15 31q23 41 43 60t49 30q44 26 112 26q61 0 107 -26q53 -20 86 -68.5t33 -91.5q0 -20 -10.5 -44t-26.5 -50q-10 -20 -32.5 -36.5t-50.5 -29t-54.5 -18.5t-44.5 -6h-7q-125 0 -196 90q-29 47 -29 94zM131 1065l6 -21q6 -20 19 -55q0 -8 17 -21.5
t42 -25.5t52.5 -21.5t45.5 -9.5h6q45 0 77 14.5t81 63.5q16 29 23 53l8 23l-4 6q0 29 -15.5 55.5t-40 48t-56.5 34t-64 12.5h-9q-106 0 -161 -78q-27 -41 -27 -78zM221 963v200h80q47 0 64 -10q10 -4 16 -7t10 -7q14 -14 15 -29q0 -55 -70 -57q20 -8 27.5 -17.5l27.5 -34.5
l31 -38h-49l-19 32q-35 39 -43 43q-8 8 -28 9h-25v-84h-37zM258 1071h47q35 0 47.5 9.5t12.5 25.5t-25 29h-82v-64z" />
    <glyph glyph-name="macron" unicode="&#xaf;" horiz-adv-x="1617" 
d="M106 1008v180h1405v-180h-1405z" />
    <glyph glyph-name="degree" unicode="&#xb0;" horiz-adv-x="645" 
d="M106 1266v270h433v-270h-433zM258 1352h129v98h-129v-98z" />
    <glyph glyph-name="plusminus" unicode="&#xb1;" horiz-adv-x="1359" 
d="M104 0h1147v270h-1147v-270zM106 633h410v-281h326v281h411v270h-411v283h-326v-283h-410v-270z" />
    <glyph glyph-name="uni00B2" unicode="&#xb2;" horiz-adv-x="1028" 
d="M106 862l349 215q-6 16 -12.5 25.5t-49.5 9.5h-287v174h564q135 0 193.5 -42t58.5 -130l-336 -211q8 -18 13 -26.5t48 -8.5h275v-176h-562q-135 0 -194.5 42t-59.5 128z" />
    <glyph glyph-name="uni00B3" unicode="&#xb3;" horiz-adv-x="1028" 
d="M106 692v176h457q43 0 62.5 8.5t25.5 26.5h-545v174h545q-6 16 -25.5 25.5t-62.5 9.5h-457v174h564q135 0 193.5 -42t58.5 -130v-252q0 -86 -58.5 -128t-193.5 -42h-564z" />
    <glyph glyph-name="acute" unicode="&#xb4;" horiz-adv-x="800" 
d="M80 1266h268l369 270h-406z" />
    <glyph glyph-name="mu" unicode="&#xb5;" 
d="M106 0v270h955q133 0 184 34t58 106h-691q-268 0 -387 84t-119 258v436h433v-326q0 -47 9 -80.5t35.5 -56.5t75 -34t125.5 -11h277q76 0 124 11t75.5 34t37 56.5t9.5 80.5v326h432v-846q0 -174 -119 -258t-387 -84h-1127z" />
    <glyph glyph-name="paragraph" unicode="&#xb6;" horiz-adv-x="2779" 
d="M82 553l192 25l-98 98l8 78l203 -17q0 188 84 189h8l191 -49q68 70 112.5 104.5t96.5 50.5l157 -76l314 121l61 -45l-6 -39l6 -14l350 53l123 -10l-16 -80h409l37 -29q0 -72 -67 -73l350 -74v-16q0 -61 -129 -74q229 -68 229 -105l-6 -2l-33 -57h-153l98 -102l8 -19v-10
q0 -39 -51 -57l-172 30l-23 -159q-12 -29 -63 -29q-43 0 -77 11t-83 34l-20 4l-168 -143l-86 -13l-107 78l-329 -131l-56 17v75l-432 -51l-51 25l20 65l-448 31v47l51 45l-278 41q-53 0 -54 53l109 66l-191 69zM135 528l295 -118l-192 -68l419 -74l-141 -73l479 -15l-51 -90
l432 60l56 -52l-21 -51l350 133l156 -82l176 162l221 -55l17 188l229 -28q2 10 4 12l2 2q0 37 -147 160l221 14l-14 25l-279 110l172 39h23l-23 27l-397 67l137 80h-465l35 92l-453 -51l-12 80l-37 10l-311 -119l-137 80l-185 -153q-14 -8 -45 -9q-66 0 -170 56l-33 -189
l-219 17l11 -58l118 -118zM516 401l33 242l51 6l-18 -229zM633 504v16q0 110 223 135l-4 -57q-10 4 -14 5l-4 1q0 2 -17 2q-29 0 -82 -35q-43 -43 -43 -96q0 -47 64 -47q43 0 59 6l2 -39q-29 -4 -38 -8t-23 -4q-88 0 -119 106q-4 4 -4 15zM879 438q0 154 112 211h37
q100 0 123 -78q-25 -166 -115 -165l-27.5 -3.5t-25.5 -1.5q-80 0 -104 37zM942 504q0 -57 47 -58q39 0 80 21q14 20 17.5 33.5t3.5 36.5q0 4 -1.5 11t-1.5 17q-29 29 -59 29q-53 0 -86 -74v-16zM1186 401v238l178 -150l12 160l47 -10v-233q-70 0 -184 114v-110zM1483 414
l33 235l57 10l-17 -231zM1604 424q12 59 44.5 117.5t82.5 115.5q2 8 43 9q53 0 86 -76v-172l-41 6q-31 55 -76 55q-35 0 -74 -55h-65zM1706 532h96l-39 78zM1911 414v235l172 -155l10 165l53 -10v-233q-76 0 -182 116v-114zM2193 393l37 25l47 -17l-47 -36zM2220 479l10 180
l74 -10l-33 -174z" />
    <glyph glyph-name="periodcentered" unicode="&#xb7;" horiz-adv-x="645" 
d="M106 463v270h433v-270h-433z" />
    <glyph glyph-name="cedilla" unicode="&#xb8;" horiz-adv-x="503" 
d="M-74 -106h178v110h293v-342h-471v232z" />
    <glyph glyph-name="uni00B9" unicode="&#xb9;" horiz-adv-x="1028" 
d="M106 692v176h279v244h-279v174h541v-418h275v-176h-816z" />
    <glyph glyph-name="ordmasculine" unicode="&#xba;" horiz-adv-x="1028" 
d="M106 862q0 -86 59.5 -128t194.5 -42h310q135 0 193.5 42t58.5 128v252q0 88 -58.5 130t-193.5 42h-310q-135 0 -194.5 -42t-59.5 -130v-252zM369 936v106q0 35 17 52.5t75 17.5h102q59 0 76.5 -17.5t17.5 -52.5v-106q0 -35 -17 -51.5t-77 -16.5h-102q-57 0 -74.5 16.5
t-17.5 51.5z" />
    <glyph glyph-name="guillemotright" unicode="&#xbb;" horiz-adv-x="962" 
d="M104 209l324 250v274l-324 250v-264l166 -123l-166 -123v-264zM528 209l326 250v274l-326 250v-264l168 -123l-168 -123v-264z" />
    <glyph glyph-name="onequarter" unicode="&#xbc;" horiz-adv-x="2390" 
d="M106 616v177h279v243h-279v174h541v-417h275v-177h-816zM389 0l1159 1188h459l-1159 -1188h-459zM1470 178v391h275v-215h264v215h275v-594h-275v203h-539z" />
    <glyph glyph-name="onehalf" unicode="&#xbd;" horiz-adv-x="2390" 
d="M106 616v177h279v243h-279v174h541v-417h275v-177h-816zM389 0l1159 1188h459l-1159 -1188h-459zM1468 145l355 215q-8 16 -14.5 25.5t-47.5 9.5h-293v174h564q135 0 193.5 -42t58.5 -130l-342 -211q8 -18 14 -26t47 -8h281v-177h-564q-135 0 -193.5 42t-58.5 128z" />
    <glyph glyph-name="threequarters" unicode="&#xbe;" horiz-adv-x="2301" 
d="M106 618v177h457q43 0 62.5 8t25.5 26h-545v175h545q-6 16 -25.5 25t-62.5 9h-457v174h564q135 0 193.5 -42t58.5 -130v-252q0 -86 -58.5 -128t-193.5 -42h-564zM301 0l1159 1188h457l-1157 -1188h-459zM1382 178v391h275v-215h264v215h274v-594h-274v203h-539z" />
    <glyph glyph-name="questiondown" unicode="&#xbf;" horiz-adv-x="1845" 
d="M106 309q0 -86 30 -145.5t91.5 -96t156.5 -52t228 -15.5h1127v270h-983q-70 0 -113 4.5t-65.5 14.5t-30.5 30.5t-8 55.5q0 43 45 62.5t172 19.5h825v327h-432v-57h-537q-268 0 -387 -76t-119 -250v-92zM1149 918h432v270h-432v-270z" />
    <glyph glyph-name="Agrave" unicode="&#xc0;" 
d="M106 0h433v465h768v-465h432v846q0 174 -119 258t-387 84h-621q-268 0 -387 -84t-119 -258v-846zM522 1536l369 -270h268l-231 270h-406zM539 735q0 45 9 80t35.5 57.5t75 34t125.5 11.5h277q76 0 124 -11.5t75.5 -34t37 -57.5t9.5 -80h-768z" />
    <glyph glyph-name="Aacute" unicode="&#xc1;" 
d="M106 0h433v465h768v-465h432v846q0 174 -119 258t-387 84h-621q-268 0 -387 -84t-119 -258v-846zM539 735q0 45 9 80t35.5 57.5t75 34t125.5 11.5h277q76 0 124 -11.5t75.5 -34t37 -57.5t9.5 -80h-768zM686 1266h268l369 270h-405z" />
    <glyph glyph-name="Acircumflex" unicode="&#xc2;" 
d="M106 0h433v465h768v-465h432v846q0 174 -119 258t-387 84h-621q-268 0 -387 -84t-119 -258v-846zM459 1266h315l148 139l147 -139h317l-299 270h-329zM539 735q0 45 9 80t35.5 57.5t75 34t125.5 11.5h277q76 0 124 -11.5t75.5 -34t37 -57.5t9.5 -80h-768z" />
    <glyph glyph-name="Atilde" unicode="&#xc3;" 
d="M106 0h433v465h768v-465h432v846q0 174 -119 258t-387 84h-621q-268 0 -387 -84t-119 -258v-846zM338 1266h317l140 133l147 -133h279l299 270h-318l-139 -133l-148 133h-278zM539 735q0 45 9 80t35.5 57.5t75 34t125.5 11.5h277q76 0 124 -11.5t75.5 -34t37 -57.5
t9.5 -80h-768z" />
    <glyph glyph-name="Adieresis" unicode="&#xc4;" 
d="M106 0h433v465h768v-465h432v846q0 174 -119 258t-387 84h-621q-268 0 -387 -84t-119 -258v-846zM397 1266h432v270h-432v-270zM539 735q0 45 9 80t35.5 57.5t75 34t125.5 11.5h277q76 0 124 -11.5t75.5 -34t37 -57.5t9.5 -80h-768zM1016 1266h432v270h-432v-270z" />
    <glyph glyph-name="Aring" unicode="&#xc5;" 
d="M106 0v846q0 174 119 258t387 84h621q268 0 387 -84t119 -258v-846h-432v465h-768v-465h-433zM539 735h768q0 45 -9.5 80t-37 57.5t-75.5 34t-124 11.5h-277q-78 0 -126 -11.5t-74.5 -34t-35.5 -57.5t-9 -80zM707 1266v270h432v-270h-432zM858 1352h129v98h-129v-98z" />
    <glyph glyph-name="AE" unicode="&#xc6;" horiz-adv-x="3049" 
d="M106 0h433v465h768v-465h1636v270h-954q-78 0 -126 11.5t-75 34t-36 56.5t-9 81v10h1200v270h-1200v2q0 45 9 80t36 57.5t75 34t126 11.5h954v270h-1126q-197 0 -293 -39q-96 39 -291 39h-621q-268 0 -387 -84t-119 -258v-846zM539 735q0 45 9 80t35.5 57.5t75 34
t125.5 11.5h277q76 0 124 -11.5t75.5 -34t37 -57.5t9.5 -80h-768z" />
    <glyph glyph-name="Ccedilla" unicode="&#xc7;" 
d="M106 342v504q0 174 119 258t387 84h621q268 0 387 -84t119 -258v-109h-432q0 45 -9.5 80t-37 56.5t-75.5 33t-124 11.5h-277q-78 0 -126 -11.5t-74.5 -34t-35.5 -57.5t-9 -80v-282q0 -47 9 -81t35.5 -56.5t75 -34t125.5 -11.5h277q76 0 124 11.5t75.5 33t37 55t9.5 81.5
h432v-109q0 -174 -119 -258t-387 -84h-121v-338h-469v232h176v106h-207q-268 0 -387 84t-119 258z" />
    <glyph glyph-name="Egrave" unicode="&#xc8;" 
d="M106 342v504q0 174 119 258t387 84h1127v-270h-955q-78 0 -126 -11.5t-74.5 -34t-35.5 -57.5t-9 -80v-2h1200v-270h-1200v-10q0 -47 9 -81t35.5 -56.5t75 -34t125.5 -11.5h955v-270h-1127q-268 0 -387 84t-119 258zM561 1536h406l231 -270h-268z" />
    <glyph glyph-name="Eacute" unicode="&#xc9;" 
d="M106 342v504q0 174 119 258t387 84h1127v-270h-955q-78 0 -126 -11.5t-74.5 -34t-35.5 -57.5t-9 -80v-2h1200v-270h-1200v-10q0 -47 9 -81t35.5 -56.5t75 -34t125.5 -11.5h955v-270h-1127q-268 0 -387 84t-119 258zM725 1266l231 270h406l-369 -270h-268z" />
    <glyph glyph-name="Ecircumflex" unicode="&#xca;" 
d="M106 342v504q0 174 119 258t387 84h1127v-270h-955q-78 0 -126 -11.5t-74.5 -34t-35.5 -57.5t-9 -80v-2h1200v-270h-1200v-10q0 -47 9 -81t35.5 -56.5t75 -34t125.5 -11.5h955v-270h-1127q-268 0 -387 84t-119 258zM498 1266l299 270h329l299 -270h-315l-147 139
l-148 -139h-317z" />
    <glyph glyph-name="Edieresis" unicode="&#xcb;" 
d="M106 342v504q0 174 119 258t387 84h1127v-270h-955q-78 0 -126 -11.5t-74.5 -34t-35.5 -57.5t-9 -80v-2h1200v-270h-1200v-10q0 -47 9 -81t35.5 -56.5t75 -34t125.5 -11.5h955v-270h-1127q-268 0 -387 84t-119 258zM436 1266v270h432v-270h-432zM1055 1266v270h432v-270
h-432z" />
    <glyph glyph-name="Igrave" unicode="&#xcc;" horiz-adv-x="647" 
d="M6 1536h406l231 -270h-268zM106 0v1188h435v-1188h-435z" />
    <glyph glyph-name="Iacute" unicode="&#xcd;" horiz-adv-x="647" 
d="M6 1266l232 270h405l-369 -270h-268zM106 0v1188h435v-1188h-435z" />
    <glyph glyph-name="Icircumflex" unicode="&#xce;" horiz-adv-x="647" 
d="M-139 1266l299 270h329l302 -270h-318l-147 139l-148 -139h-317zM106 0v1188h435v-1188h-435z" />
    <glyph glyph-name="Idieresis" unicode="&#xcf;" horiz-adv-x="647" 
d="M-201 1266v270h432v-270h-432zM106 0v1188h435v-1188h-435zM418 1266v270h434v-270h-434z" />
    <glyph glyph-name="Eth" unicode="&#xd0;" horiz-adv-x="2170" 
d="M106 463h328v-463h1125q268 0 386.5 84t118.5 258v504q0 174 -118.5 258t-386.5 84h-1125v-455h-328v-270zM866 270v193h387v270h-387v185h520q78 0 126.5 -11.5t75 -34t35.5 -57.5t9 -80v-282q0 -47 -9 -81t-35.5 -56.5t-75 -34t-126.5 -11.5h-520z" />
    <glyph glyph-name="Ntilde" unicode="&#xd1;" 
d="M106 0h433v682l813 -682h387v1188h-432v-680l-815 680h-386v-1188zM330 1266h317l139 133l148 -133h278l299 270h-315l-141 -133l-148 133h-276z" />
    <glyph glyph-name="Ograve" unicode="&#xd2;" 
d="M106 342v504q0 174 119 258t387 84h621q268 0 387 -84t119 -258v-504q0 -174 -119 -258t-387 -84h-621q-268 0 -387 84t-119 258zM522 1536h406l231 -270h-268zM539 453q0 -47 9 -81t35.5 -56.5t75 -34t125.5 -11.5h277q76 0 124 11.5t75.5 34t37 56.5t9.5 81v282
q0 45 -9.5 80t-37 57.5t-75.5 34t-124 11.5h-277q-78 0 -126 -11.5t-74.5 -34t-35.5 -57.5t-9 -80v-282z" />
    <glyph glyph-name="Oacute" unicode="&#xd3;" 
d="M106 342v504q0 174 119 258t387 84h621q268 0 387 -84t119 -258v-504q0 -174 -119 -258t-387 -84h-621q-268 0 -387 84t-119 258zM539 453q0 -47 9 -81t35.5 -56.5t75 -34t125.5 -11.5h277q76 0 124 11.5t75.5 34t37 56.5t9.5 81v282q0 45 -9.5 80t-37 57.5t-75.5 34
t-124 11.5h-277q-78 0 -126 -11.5t-74.5 -34t-35.5 -57.5t-9 -80v-282zM686 1266l232 270h405l-369 -270h-268z" />
    <glyph glyph-name="Ocircumflex" unicode="&#xd4;" 
d="M106 342v504q0 174 119 258t387 84h621q268 0 387 -84t119 -258v-504q0 -174 -119 -258t-387 -84h-621q-268 0 -387 84t-119 258zM459 1266l299 270h329l299 -270h-317l-147 139l-148 -139h-315zM539 453q0 -47 9 -81t35.5 -56.5t75 -34t125.5 -11.5h277q76 0 124 11.5
t75.5 34t37 56.5t9.5 81v282q0 45 -9.5 80t-37 57.5t-75.5 34t-124 11.5h-277q-78 0 -126 -11.5t-74.5 -34t-35.5 -57.5t-9 -80v-282z" />
    <glyph glyph-name="Otilde" unicode="&#xd5;" 
d="M106 342q0 -174 119 -258t387 -84h621q268 0 387 84t119 258v504q0 174 -119 258t-387 84h-621q-268 0 -387 -84t-119 -258v-504zM338 1266h317l140 133l147 -133h279l299 270h-318l-139 -133l-148 133h-278zM539 453v282q0 45 9 80t35.5 57.5t75 34t125.5 11.5h277
q76 0 124 -11.5t75.5 -34t37 -57.5t9.5 -80v-282q0 -47 -9.5 -81t-37 -56.5t-75.5 -34t-124 -11.5h-277q-78 0 -126 11.5t-74.5 34t-35.5 56.5t-9 81z" />
    <glyph glyph-name="Odieresis" unicode="&#xd6;" 
d="M106 342v504q0 174 119 258t387 84h621q268 0 387 -84t119 -258v-504q0 -174 -119 -258t-387 -84h-621q-268 0 -387 84t-119 258zM397 1266v270h432v-270h-432zM539 453q0 -47 9 -81t35.5 -56.5t75 -34t125.5 -11.5h277q76 0 124 11.5t75.5 34t37 56.5t9.5 81v282
q0 45 -9.5 80t-37 57.5t-75.5 34t-124 11.5h-277q-78 0 -126 -11.5t-74.5 -34t-35.5 -57.5t-9 -80v-282zM1016 1266v270h432v-270h-432z" />
    <glyph glyph-name="multiply" unicode="&#xd7;" horiz-adv-x="1206" 
d="M82 842l293 -244l-291 -242l229 -190l289 242l291 -242l229 190l-291 242l293 244l-229 190l-293 -244l-291 244z" />
    <glyph glyph-name="Oslash" unicode="&#xd8;" 
d="M106 342v504q0 174 119 258t387 84h621q268 0 387 -84t119 -258v-504q0 -174 -119 -258t-387 -84h-660h-2q-246 6 -355.5 90t-109.5 252zM539 424l475 494h-230q-78 0 -126 -11.5t-74.5 -34t-35.5 -57.5t-9 -80v-311zM831 270h230q76 0 124 11.5t75.5 34t37 56.5t9.5 81
v311z" />
    <glyph glyph-name="Ugrave" unicode="&#xd9;" 
d="M106 342v846h433v-735q0 -47 9 -81t35.5 -56.5t75 -34t125.5 -11.5h277q76 0 124 11.5t75.5 34t37 56.5t9.5 81v735h432v-846q0 -174 -119 -258t-387 -84h-621q-268 0 -387 84t-119 258zM522 1536h406l231 -270h-268z" />
    <glyph glyph-name="Uacute" unicode="&#xda;" 
d="M106 342v846h433v-735q0 -47 9 -81t35.5 -56.5t75 -34t125.5 -11.5h277q76 0 124 11.5t75.5 34t37 56.5t9.5 81v735h432v-846q0 -174 -119 -258t-387 -84h-621q-268 0 -387 84t-119 258zM686 1266l232 270h405l-369 -270h-268z" />
    <glyph glyph-name="Ucircumflex" unicode="&#xdb;" 
d="M106 342v846h433v-735q0 -47 9 -81t35.5 -56.5t75 -34t125.5 -11.5h277q76 0 124 11.5t75.5 34t37 56.5t9.5 81v735h432v-846q0 -174 -119 -258t-387 -84h-621q-268 0 -387 84t-119 258zM459 1266l299 270h329l299 -270h-317l-147 139l-148 -139h-315z" />
    <glyph glyph-name="Udieresis" unicode="&#xdc;" 
d="M106 342v846h433v-735q0 -47 9 -81t35.5 -56.5t75 -34t125.5 -11.5h277q76 0 124 11.5t75.5 34t37 56.5t9.5 81v735h432v-846q0 -174 -119 -258t-387 -84h-621q-268 0 -387 84t-119 258zM397 1266v270h432v-270h-432zM1016 1266v270h432v-270h-432z" />
    <glyph glyph-name="Yacute" unicode="&#xdd;" 
d="M106 752v436h433v-326q0 -47 9 -80.5t35.5 -56.5t75 -34t125.5 -11h277q76 0 124 11t75.5 34t37 56.5t9.5 80.5v326h432v-436q0 -174 -119 -258t-387 -84h-94v-410h-432v410h-95q-268 0 -387 84t-119 258zM686 1266l232 270h405l-369 -270h-268z" />
    <glyph glyph-name="Thorn" unicode="&#xde;" 
d="M106 0h433v209h694q268 0 387 84t119 258v92q0 174 -119 258t-387 84h-694v203h-433v-1188zM539 479v236h551q70 0 112.5 -4t65 -16.5t31 -36t8.5 -62.5q0 -35 -10.5 -57.5t-35 -36t-66.5 -18.5t-105 -5h-551z" />
    <glyph glyph-name="germandbls" unicode="&#xdf;" 
d="M111 -332v1178q0 174 117.5 258t385.5 84h621q266 0 385 -85t119 -257v-504q0 -174 -119 -258t-387 -84h-463v270h291q76 0 124 11.5t75.5 34t37 56.5t9.5 81v10h-537v270h537v2q0 45 -9.5 80t-37 57.5t-75.5 34t-124 11.5h-275q-78 0 -125 -11.5t-74.5 -34t-36.5 -57.5
t-9 -80v-1067h-430z" />
    <glyph glyph-name="agrave" unicode="&#xe0;" horiz-adv-x="1984" 
d="M82 0h444l121 389h684l125 -389h447l-269 848q-18 57 -53 117.5t-84 109.5t-109.5 81t-127.5 32h-543q-68 0 -129.5 -36t-111.5 -88t-85 -111.5t-49 -104.5zM614 1536l369 -270h268l-231 270h-406zM733 659q27 74 48.5 123t45 79t54 43.5t73.5 13.5h70q76 0 125 -58.5
t92 -200.5h-508z" />
    <glyph glyph-name="aacute" unicode="&#xe1;" horiz-adv-x="1984" 
d="M82 0l260 848q14 45 49 104.5t85 111.5t111.5 88t129.5 36h543q68 0 128 -32t109 -81t84 -109.5t53 -117.5l269 -848h-447l-125 389h-684l-121 -389h-444zM731 1266l232 270h405l-369 -270h-268zM733 659h508q-43 141 -92 200t-125 59h-70q-43 0 -73.5 -13.5t-54 -43.5
t-45 -79t-48.5 -123z" />
    <glyph glyph-name="acircumflex" unicode="&#xe2;" horiz-adv-x="1984" 
d="M82 0l260 848q14 45 49 104.5t85 111.5t111.5 88t129.5 36h543q68 0 128 -32t109 -81t84 -109.5t53 -117.5l269 -848h-447l-125 389h-684l-121 -389h-444zM526 1266l301 270h328l301 -270h-317l-148 139l-147 -139h-318zM733 659h508q-43 141 -92 200t-125 59h-70
q-43 0 -73.5 -13.5t-54 -43.5t-45 -79t-48.5 -123z" />
    <glyph glyph-name="atilde" unicode="&#xe3;" horiz-adv-x="1984" 
d="M82 0h444l121 389h684l125 -389h447l-269 848q-18 57 -53 117.5t-84 109.5t-109.5 81t-127.5 32h-543q-68 0 -129.5 -36t-111.5 -88t-85 -111.5t-49 -104.5zM401 1266h318l139 133l148 -133h278l299 270h-317l-140 -133l-147 133h-279zM733 659q27 74 48.5 123t45 79
t54 43.5t73.5 13.5h70q76 0 125 -58.5t92 -200.5h-508z" />
    <glyph glyph-name="adieresis" unicode="&#xe4;" horiz-adv-x="1984" 
d="M82 0l260 848q14 45 49 104.5t85 111.5t111.5 88t129.5 36h543q68 0 128 -32t109 -81t84 -109.5t53 -117.5l269 -848h-447l-125 389h-684l-121 -389h-444zM465 1266v270h432v-270h-432zM733 659h508q-43 141 -92 200t-125 59h-70q-43 0 -73.5 -13.5t-54 -43.5t-45 -79
t-48.5 -123zM1085 1266v270h433v-270h-433z" />
    <glyph glyph-name="aring" unicode="&#xe5;" horiz-adv-x="1984" 
d="M82 0l260 848q14 45 49 104.5t85 111.5t111.5 88t129.5 36h543q68 0 128 -32t109 -81t84 -109.5t53 -117.5l269 -848h-447l-125 389h-684l-121 -389h-444zM733 659h508q-43 141 -92 200t-125 59h-70q-43 0 -73.5 -13.5t-54 -43.5t-45 -79t-48.5 -123zM774 1266v270h434
v-270h-434zM928 1352h127v98h-127v-98z" />
    <glyph glyph-name="ae" unicode="&#xe6;" horiz-adv-x="3108" 
d="M82 0h444l121 389h684l125 -389h1546v270h-954q-78 0 -126 11.5t-74.5 34t-36 56.5t-9.5 81v10h1200v270h-1200v2q0 45 9.5 80t36 57.5t74.5 34t126 11.5h954v270h-1126q-279 0 -397 -94q-47 41 -103.5 67.5t-115.5 26.5h-543q-68 0 -129.5 -36t-111.5 -88t-85 -111.5
t-49 -104.5zM733 659q27 74 48.5 123t45 79t54 43.5t73.5 13.5h70q76 0 125 -58.5t92 -200.5h-508z" />
    <glyph glyph-name="ccedilla" unicode="&#xe7;" 
d="M106 342v504q0 174 119 258t387 84h1127v-270h-955q-78 0 -126 -11.5t-74.5 -34t-35.5 -57.5t-9 -80v-282q0 -47 9 -81t35.5 -56.5t75 -34t125.5 -11.5h955v-270h-494v-338h-471v232h178v106h-340q-268 0 -387 84t-119 258z" />
    <glyph glyph-name="egrave" unicode="&#xe8;" 
d="M106 342v504q0 174 119 258t387 84h1127v-270h-955q-78 0 -126 -11.5t-74.5 -34t-35.5 -57.5t-9 -80v-2h1200v-270h-1200v-10q0 -47 9 -81t35.5 -56.5t75 -34t125.5 -11.5h955v-270h-1127q-268 0 -387 84t-119 258zM561 1536h406l231 -270h-268z" />
    <glyph glyph-name="eacute" unicode="&#xe9;" 
d="M106 342v504q0 174 119 258t387 84h1127v-270h-955q-78 0 -126 -11.5t-74.5 -34t-35.5 -57.5t-9 -80v-2h1200v-270h-1200v-10q0 -47 9 -81t35.5 -56.5t75 -34t125.5 -11.5h955v-270h-1127q-268 0 -387 84t-119 258zM725 1266l231 270h406l-369 -270h-268z" />
    <glyph glyph-name="ecircumflex" unicode="&#xea;" 
d="M106 342v504q0 174 119 258t387 84h1127v-270h-955q-78 0 -126 -11.5t-74.5 -34t-35.5 -57.5t-9 -80v-2h1200v-270h-1200v-10q0 -47 9 -81t35.5 -56.5t75 -34t125.5 -11.5h955v-270h-1127q-268 0 -387 84t-119 258zM498 1266l299 270h329l299 -270h-315l-147 139
l-148 -139h-317z" />
    <glyph glyph-name="edieresis" unicode="&#xeb;" 
d="M106 342v504q0 174 119 258t387 84h1127v-270h-955q-78 0 -126 -11.5t-74.5 -34t-35.5 -57.5t-9 -80v-2h1200v-270h-1200v-10q0 -47 9 -81t35.5 -56.5t75 -34t125.5 -11.5h955v-270h-1127q-268 0 -387 84t-119 258zM436 1266v270h432v-270h-432zM1055 1266v270h432v-270
h-432z" />
    <glyph glyph-name="igrave" unicode="&#xec;" horiz-adv-x="647" 
d="M6 1536h406l231 -270h-268zM106 0v1188h435v-1188h-435z" />
    <glyph glyph-name="iacute" unicode="&#xed;" horiz-adv-x="647" 
d="M6 1266l232 270h405l-369 -270h-268zM106 0v1188h435v-1188h-435z" />
    <glyph glyph-name="icircumflex" unicode="&#xee;" horiz-adv-x="647" 
d="M-139 1266l299 270h329l302 -270h-318l-147 139l-148 -139h-317zM106 0v1188h435v-1188h-435z" />
    <glyph glyph-name="idieresis" unicode="&#xef;" horiz-adv-x="647" 
d="M-201 1266v270h432v-270h-432zM106 0v1188h435v-1188h-435zM418 1266v270h434v-270h-434z" />
    <glyph glyph-name="eth" unicode="&#xf0;" 
d="M106 274q0 -147 132.5 -210.5t373.5 -63.5h621q268 0 387 84t119 258v504q0 174 -119 258t-387 84h-197v96h-434v-96h-496v-270h496v-95h434v95h25q76 0 124 -11.5t75.5 -34t37 -57.5t9.5 -80v-4h-695q-268 0 -387 -81t-119 -255v-121zM551 365q0 47 60 71.5t173 24.5
h523v-8q0 -47 -9.5 -81t-37 -56.5t-75.5 -34t-124 -11.5h-277q-113 0 -173 23.5t-60 71.5z" />
    <glyph glyph-name="ntilde" unicode="&#xf1;" 
d="M106 0h433v735q0 45 9 80t35.5 57.5t75 34t125.5 11.5h277q76 0 124 -11.5t75.5 -34t37 -57.5t9.5 -80v-735h432v846q0 174 -119 258t-387 84h-621q-268 0 -387 -84t-119 -258v-846zM338 1266h317l140 133l147 -133h279l299 270h-318l-139 -133l-148 133h-278z" />
    <glyph glyph-name="ograve" unicode="&#xf2;" 
d="M106 342v504q0 174 119 258t387 84h621q268 0 387 -84t119 -258v-504q0 -174 -119 -258t-387 -84h-621q-268 0 -387 84t-119 258zM522 1536h406l231 -270h-268zM539 453q0 -47 9 -81t35.5 -56.5t75 -34t125.5 -11.5h277q76 0 124 11.5t75.5 34t37 56.5t9.5 81v282
q0 45 -9.5 80t-37 57.5t-75.5 34t-124 11.5h-277q-78 0 -126 -11.5t-74.5 -34t-35.5 -57.5t-9 -80v-282z" />
    <glyph glyph-name="oacute" unicode="&#xf3;" 
d="M106 342v504q0 174 119 258t387 84h621q268 0 387 -84t119 -258v-504q0 -174 -119 -258t-387 -84h-621q-268 0 -387 84t-119 258zM539 453q0 -47 9 -81t35.5 -56.5t75 -34t125.5 -11.5h277q76 0 124 11.5t75.5 34t37 56.5t9.5 81v282q0 45 -9.5 80t-37 57.5t-75.5 34
t-124 11.5h-277q-78 0 -126 -11.5t-74.5 -34t-35.5 -57.5t-9 -80v-282zM686 1266l232 270h405l-369 -270h-268z" />
    <glyph glyph-name="ocircumflex" unicode="&#xf4;" 
d="M106 342v504q0 174 119 258t387 84h621q268 0 387 -84t119 -258v-504q0 -174 -119 -258t-387 -84h-621q-268 0 -387 84t-119 258zM459 1266l299 270h329l299 -270h-317l-147 139l-148 -139h-315zM539 453q0 -47 9 -81t35.5 -56.5t75 -34t125.5 -11.5h277q76 0 124 11.5
t75.5 34t37 56.5t9.5 81v282q0 45 -9.5 80t-37 57.5t-75.5 34t-124 11.5h-277q-78 0 -126 -11.5t-74.5 -34t-35.5 -57.5t-9 -80v-282z" />
    <glyph glyph-name="otilde" unicode="&#xf5;" 
d="M106 342q0 -174 119 -258t387 -84h621q268 0 387 84t119 258v504q0 174 -119 258t-387 84h-621q-268 0 -387 -84t-119 -258v-504zM338 1266h317l140 133l147 -133h279l299 270h-318l-139 -133l-148 133h-278zM539 453v282q0 45 9 80t35.5 57.5t75 34t125.5 11.5h277
q76 0 124 -11.5t75.5 -34t37 -57.5t9.5 -80v-282q0 -47 -9.5 -81t-37 -56.5t-75.5 -34t-124 -11.5h-277q-78 0 -126 11.5t-74.5 34t-35.5 56.5t-9 81z" />
    <glyph glyph-name="odieresis" unicode="&#xf6;" 
d="M106 342v504q0 174 119 258t387 84h621q268 0 387 -84t119 -258v-504q0 -174 -119 -258t-387 -84h-621q-268 0 -387 84t-119 258zM397 1266v270h432v-270h-432zM539 453q0 -47 9 -81t35.5 -56.5t75 -34t125.5 -11.5h277q76 0 124 11.5t75.5 34t37 56.5t9.5 81v282
q0 45 -9.5 80t-37 57.5t-75.5 34t-124 11.5h-277q-78 0 -126 -11.5t-74.5 -34t-35.5 -57.5t-9 -80v-282zM1016 1266v270h432v-270h-432z" />
    <glyph glyph-name="divide" unicode="&#xf7;" horiz-adv-x="1359" 
d="M106 463v270h1147v-270h-1147zM475 113v256h408v-256h-408zM475 827v256h408v-256h-408z" />
    <glyph glyph-name="oslash" unicode="&#xf8;" 
d="M106 342v504q0 174 119 258t387 84h621q268 0 387 -84t119 -258v-504q0 -174 -119 -258t-387 -84h-660h-2q-246 6 -355.5 90t-109.5 252zM539 424l475 494h-230q-78 0 -126 -11.5t-74.5 -34t-35.5 -57.5t-9 -80v-311zM831 270h230q76 0 124 11.5t75.5 34t37 56.5t9.5 81
v311z" />
    <glyph glyph-name="ugrave" unicode="&#xf9;" 
d="M106 342v846h433v-735q0 -47 9 -81t35.5 -56.5t75 -34t125.5 -11.5h277q76 0 124 11.5t75.5 34t37 56.5t9.5 81v735h432v-846q0 -174 -119 -258t-387 -84h-621q-268 0 -387 84t-119 258zM522 1536h406l231 -270h-268z" />
    <glyph glyph-name="uacute" unicode="&#xfa;" 
d="M106 342v846h433v-735q0 -47 9 -81t35.5 -56.5t75 -34t125.5 -11.5h277q76 0 124 11.5t75.5 34t37 56.5t9.5 81v735h432v-846q0 -174 -119 -258t-387 -84h-621q-268 0 -387 84t-119 258zM686 1266l232 270h405l-369 -270h-268z" />
    <glyph glyph-name="ucircumflex" unicode="&#xfb;" 
d="M106 342v846h433v-735q0 -47 9 -81t35.5 -56.5t75 -34t125.5 -11.5h277q76 0 124 11.5t75.5 34t37 56.5t9.5 81v735h432v-846q0 -174 -119 -258t-387 -84h-621q-268 0 -387 84t-119 258zM459 1266l299 270h329l299 -270h-317l-147 139l-148 -139h-315z" />
    <glyph glyph-name="udieresis" unicode="&#xfc;" 
d="M106 342v846h433v-735q0 -47 9 -81t35.5 -56.5t75 -34t125.5 -11.5h277q76 0 124 11.5t75.5 34t37 56.5t9.5 81v735h432v-846q0 -174 -119 -258t-387 -84h-621q-268 0 -387 84t-119 258zM397 1266v270h432v-270h-432zM1016 1266v270h432v-270h-432z" />
    <glyph glyph-name="yacute" unicode="&#xfd;" 
d="M106 752v436h433v-326q0 -47 9 -80.5t35.5 -56.5t75 -34t125.5 -11h277q76 0 124 11t75.5 34t37 56.5t9.5 80.5v326h432v-436q0 -174 -119 -258t-387 -84h-94v-410h-432v410h-95q-268 0 -387 84t-119 258zM686 1266l232 270h405l-369 -270h-268z" />
    <glyph glyph-name="thorn" unicode="&#xfe;" 
d="M106 0h433v209h694q268 0 387 84t119 258v92q0 174 -119 258t-387 84h-694v203h-433v-1188zM539 479v236h551q70 0 112.5 -4t65 -16.5t31 -36t8.5 -62.5q0 -35 -10.5 -57.5t-35 -36t-66.5 -18.5t-105 -5h-551z" />
    <glyph glyph-name="ydieresis" unicode="&#xff;" 
d="M106 752v436h433v-326q0 -47 9 -80.5t35.5 -56.5t75 -34t125.5 -11h277q76 0 124 11t75.5 34t37 56.5t9.5 80.5v326h432v-436q0 -174 -119 -258t-387 -84h-94v-410h-432v410h-95q-268 0 -387 84t-119 258zM397 1266v270h432v-270h-432zM1016 1266v270h432v-270h-432z" />
    <glyph glyph-name="OE" unicode="&#x152;" horiz-adv-x="3262" 
d="M106 342q0 -174 119 -258t387 -84h621q274 0 397 92q123 -92 402 -92h1124v270h-952q-78 0 -126 11.5t-75 34t-36 56.5t-9 81v10h1198v270h-1198v2q0 45 9 80t36 57.5t75 34t126 11.5h952v270h-1124q-283 0 -402 -94q-119 94 -397 94h-621q-268 0 -387 -84t-119 -258
v-504zM539 453v282q0 45 9 80t35.5 57.5t75 34t125.5 11.5h277q76 0 124 -11.5t75.5 -34t37 -57.5t9.5 -80h217v-282h-217q0 -47 -9.5 -81t-37 -56.5t-75.5 -34t-124 -11.5h-277q-78 0 -126 11.5t-74.5 34t-35.5 56.5t-9 81z" />
    <glyph glyph-name="oe" unicode="&#x153;" horiz-adv-x="3043" 
d="M106 342q0 -174 119 -258t387 -84h2325v270h-952q-78 0 -126.5 11.5t-75 34t-35.5 56.5t-9 81v10h1198v270h-1198v2q0 45 9 80t35.5 57.5t75 34t126.5 11.5h952v270h-2325q-268 0 -387 -84t-119 -258v-504zM539 453v282q0 45 9 80t35.5 57.5t75 34t125.5 11.5h527
q-2 -16 -3 -35t-1 -37v-504q0 -20 1 -37.5t3 -34.5h-527q-78 0 -126 11.5t-74.5 34t-35.5 56.5t-9 81z" />
    <glyph glyph-name="Ydieresis" unicode="&#x178;" 
d="M106 752v436h433v-326q0 -47 9 -80.5t35.5 -56.5t75 -34t125.5 -11h277q76 0 124 11t75.5 34t37 56.5t9.5 80.5v326h432v-436q0 -174 -119 -258t-387 -84h-94v-410h-432v410h-95q-268 0 -387 84t-119 258zM397 1266v270h432v-270h-432zM1016 1266v270h432v-270h-432z" />
    <glyph glyph-name="circumflex" unicode="&#x2c6;" horiz-adv-x="1093" 
d="M82 1266l299 270h330l301 -270h-318l-147 139l-148 -139h-317z" />
    <glyph glyph-name="tilde" unicode="&#x2dc;" horiz-adv-x="1345" 
d="M82 1266h317l140 133l147 -133h279l299 270h-318l-139 -133l-148 133h-278z" />
    <glyph glyph-name="uni2000" unicode="&#x2000;" horiz-adv-x="768" 
 />
    <glyph glyph-name="uni2001" unicode="&#x2001;" horiz-adv-x="1536" 
 />
    <glyph glyph-name="uni2002" unicode="&#x2002;" horiz-adv-x="768" 
 />
    <glyph glyph-name="uni2003" unicode="&#x2003;" horiz-adv-x="1536" 
 />
    <glyph glyph-name="uni2004" unicode="&#x2004;" horiz-adv-x="512" 
 />
    <glyph glyph-name="uni2005" unicode="&#x2005;" horiz-adv-x="384" 
 />
    <glyph glyph-name="uni2006" unicode="&#x2006;" horiz-adv-x="256" 
 />
    <glyph glyph-name="uni2007" unicode="&#x2007;" horiz-adv-x="256" 
 />
    <glyph glyph-name="uni2008" unicode="&#x2008;" horiz-adv-x="192" 
 />
    <glyph glyph-name="uni2009" unicode="&#x2009;" horiz-adv-x="307" 
 />
    <glyph glyph-name="uni200A" unicode="&#x200a;" horiz-adv-x="85" 
 />
    <glyph glyph-name="uni2010" unicode="&#x2010;" horiz-adv-x="1138" 
d="M106 463v270h926v-270h-926z" />
    <glyph glyph-name="uni2011" unicode="&#x2011;" horiz-adv-x="1138" 
d="M106 463v270h926v-270h-926z" />
    <glyph glyph-name="figuredash" unicode="&#x2012;" horiz-adv-x="1138" 
d="M106 463v270h926v-270h-926z" />
    <glyph glyph-name="endash" unicode="&#x2013;" horiz-adv-x="1138" 
d="M106 463v270h926v-270h-926z" />
    <glyph glyph-name="emdash" unicode="&#x2014;" horiz-adv-x="1359" 
d="M106 463v270h1147v-270h-1147z" />
    <glyph glyph-name="quoteleft" unicode="&#x2018;" horiz-adv-x="645" 
d="M106 733v266q0 39 29 73t75 59.5t103.5 40t114.5 14.5h111v-453h-433z" />
    <glyph glyph-name="quoteright" unicode="&#x2019;" horiz-adv-x="645" 
d="M106 735v453h433v-266q0 -39 -30 -73t-76 -59.5t-103.5 -40t-112.5 -14.5h-111z" />
    <glyph glyph-name="quotesinglbase" unicode="&#x201a;" horiz-adv-x="645" 
d="M106 -182v452h433v-266q0 -39 -30 -72.5t-76 -59.5t-103.5 -40t-112.5 -14h-111z" />
    <glyph glyph-name="quotedblleft" unicode="&#x201c;" horiz-adv-x="1187" 
d="M104 733v266q0 39 29 73t75 59.5t103.5 40t114.5 14.5h111v-453h-433zM647 733v266q0 39 29 73t75 59.5t103 40t115 14.5h110v-453h-432z" />
    <glyph glyph-name="quotedblright" unicode="&#x201d;" horiz-adv-x="1187" 
d="M106 735v453h433v-266q0 -39 -30 -73t-76 -59.5t-103.5 -40t-112.5 -14.5h-111zM649 735v453h432v-266q0 -39 -29.5 -73t-75.5 -59.5t-103.5 -40t-112.5 -14.5h-111z" />
    <glyph glyph-name="quotedblbase" unicode="&#x201e;" horiz-adv-x="1173" 
d="M106 -182v452h433v-266q0 -39 -30 -72.5t-76 -59.5t-103.5 -40t-112.5 -14h-111zM635 -182v452h432v-266q0 -39 -29.5 -72.5t-76 -59.5t-103.5 -40t-113 -14h-110z" />
    <glyph glyph-name="bullet" unicode="&#x2022;" 
d="M106 342v504q0 174 119 258t387 84h621q268 0 387 -84t119 -258v-504q0 -174 -119 -258t-387 -84h-621q-268 0 -387 84t-119 258z" />
    <glyph glyph-name="ellipsis" unicode="&#x2026;" horiz-adv-x="1806" 
d="M106 0v270h433v-270h-433zM686 0v270h432v-270h-432zM1266 0v270h434v-270h-434z" />
    <glyph glyph-name="uni202F" unicode="&#x202f;" horiz-adv-x="307" 
 />
    <glyph glyph-name="guilsinglleft" unicode="&#x2039;" horiz-adv-x="536" 
d="M106 459v274l324 250v-264l-166 -123l166 -123v-264z" />
    <glyph glyph-name="guilsinglright" unicode="&#x203a;" horiz-adv-x="536" 
d="M106 209l324 250v274l-324 250v-264l168 -123l-168 -123v-264z" />
    <glyph glyph-name="uni205F" unicode="&#x205f;" horiz-adv-x="384" 
 />
    <glyph glyph-name="Euro" unicode="&#x20ac;" horiz-adv-x="2109" 
d="M106 367h267v-25q0 -174 118.5 -258t387.5 -84h1124v270h-952q-113 0 -166.5 23.5t-69.5 73.5h678v180h-688v86h688v180h-682q16 53 68.5 79t171.5 26h952v270h-1124q-268 0 -387 -84t-119 -258v-33h-267v-180h267v-86h-267v-180z" />
    <glyph glyph-name="trademark" unicode="&#x2122;" horiz-adv-x="829" 
d="M82 1208h113v-231h51v231h114v43h-278v-43zM414 977h35v178l16 14l80 -176q4 -12 9 -14t9 -2h10q4 0 11.5 5t18.5 24.5t28.5 59.5t44.5 110l12 -21v-178h35v274h-12q-18 0 -27.5 -3t-19 -13t-21.5 -30.5t-35 -53.5q-14 -16 -21 -47t-22 -47l-43 119q-6 12 -17 26.5
t-23.5 25.5t-22.5 18t-17 7q-3 0 -28 -10v-266z" />
    <glyph glyph-name="uni25FC" unicode="&#x25fc;" horiz-adv-x="1187" 
d="M0 0v1188h1188v-1188h-1188z" />
    </font>
</defs>
</svg>
